<?xml version="1.0" encoding="utf-8"?>
<!-- Generator: Adobe Illustrator 19.1.0, SVG Export Plug-In . SVG Version: 6.00 Build 0)  -->
<svg version="1.1" id="Layer_1" xmlns:sketch="http://www.bohemiancoding.com/sketch/ns"
	 xmlns="http://www.w3.org/2000/svg" xmlns:xlink="http://www.w3.org/1999/xlink" x="0px" y="0px" width="128px" height="128px"
	 viewBox="-97 1 128 128" style="enable-background:new -97 1 128 128;" xml:space="preserve">
<style type="text/css">
	.st0{fill:#383838;}
</style>
<title>Email</title>
<desc>Created with Sketch.</desc>
<g id="Iconography-Board" sketch:type="MSPage">
	<g id="Email" transform="translate(-100.000000, -550.000000)" sketch:type="MSArtboardGroup">
		<g transform="translate(100.000000, 550.000000)" sketch:type="MSLayerGroup">
			<path sketch:type="MSShapeGroup" class="st0" d="M-32.5,69.3c-2,0-4-0.5-5.6-1.5l-54.6-33.9l4.5-7.3l54.6,33.9
				c0.5,0.3,1.8,0.3,2.3,0l53.6-33.8l4.5,7.3l-53.6,33.8C-28.5,68.8-30.5,69.3-32.5,69.3 M-88.5,35.1L-88.5,35.1v59.8
				c0,2.3,1.9,4.2,4.3,4.2H18.2c2.4,0,4.3-1.9,4.3-4.2V35.1c0-2.3-1.9-4.2-4.3-4.2H-84.2C-86.6,30.9-88.5,32.8-88.5,35.1L-88.5,35.1
				z M-97,35.1c0-7.1,5.7-12.8,12.8-12.8H18.2c7.1,0,12.8,5.7,12.8,12.8v59.8c0,7.1-5.7,12.8-12.8,12.8H-84.2
				c-7.1,0-12.8-5.7-12.8-12.8V35.1L-97,35.1z"/>
		</g>
	</g>
</g>
</svg>
