<?xml version="1.0" encoding="utf-8"?>
<!-- Generator: Adobe Illustrator 19.1.0, SVG Export Plug-In . SVG Version: 6.00 Build 0)  -->
<svg version="1.1" id="Layer_1" xmlns="http://www.w3.org/2000/svg" xmlns:xlink="http://www.w3.org/1999/xlink" x="0px" y="0px"
	 width="64px" height="64px" viewBox="-647 369 64 64" style="enable-background:new -647 369 64 64;" xml:space="preserve">
<style type="text/css">
	.st0{fill:#444444;}
</style>
<path class="st0" d="M-615,416.3c1.5,0,2.9-0.6,4-1.7c1.2-1.2,1.7-2.5,1.7-4s-0.6-2.9-1.7-4c-1.2-1.2-2.5-1.7-4-1.7s-2.9,0.6-4,1.7
	c-1.2,1.2-1.7,2.5-1.7,4s0.6,2.9,1.7,4C-617.9,415.7-616.5,416.3-615,416.3z M-623.6,393.3h17.2l-8.6-12.6L-623.6,393.3z
	 M-600.1,393.3h13.7c0.8,0,1.5,0.3,2.1,0.8c0.6,0.5,0.9,1.2,0.9,2c-0.9,3.6-2.2,8.6-4,15.1c-1.8,6.5-2.9,10.6-3.4,12.3
	c-0.8,2.8-2.6,4.2-5.5,4.2h-37.3c-2.9,0-4.7-1.4-5.5-4.2l-7.2-26.5c-0.1-0.2-0.1-0.4-0.1-0.8c0-0.8,0.3-1.5,0.9-2
	c0.6-0.5,1.3-0.8,2.1-0.8h13.7l12.5-18.8c0.5-0.8,1.3-1.2,2.4-1.2s1.9,0.4,2.4,1.2L-600.1,393.3z"/>
</svg>
