<?xml version="1.0" encoding="utf-8"?>
<!-- Generator: Adobe Illustrator 19.1.0, SVG Export Plug-In . SVG Version: 6.00 Build 0)  -->
<svg version="1.1" id="Layer_1" xmlns:sketch="http://www.bohemiancoding.com/sketch/ns"
	 xmlns="http://www.w3.org/2000/svg" xmlns:xlink="http://www.w3.org/1999/xlink" x="0px" y="0px" width="128px" height="128px"
	 viewBox="-97 1 128 128" style="enable-background:new -97 1 128 128;" xml:space="preserve">
<style type="text/css">
	.st0{fill:#383838;}
</style>
<title>Home</title>
<desc>Created with Sketch.</desc>
<g id="Iconography-Board" sketch:type="MSPage">
	<g id="Home" transform="translate(-100.000000, -365.000000)" sketch:type="MSArtboardGroup">
		<g transform="translate(100.000000, 365.000000)" sketch:type="MSLayerGroup">
			<path sketch:type="MSShapeGroup" class="st0" d="M-35.8,2.2l-59.9,62.9c-1.8,1.8-1.8,3.7,0.1,5.5c1,0.9,1.9,1.4,2.8,1.4
				c0.9,0,1.9-0.5,2.8-1.4l6-5.5V125c0,1,0.4,1.9,1.2,2.8c0.8,0.8,1.7,1.2,2.7,1.2c11.7-0.1,34.1,0,34.1,0c1.2,0,2.4-0.7,3.1-1.5
				c0.7-0.8,1.1-1.8,1.1-2.8V86.2h17l0.3,38.6c0,1,0.4,1.9,1.1,2.8c0.7,0.8,1.7,1.5,2.9,1.5h34.4c1,0,1.9-0.4,2.7-1.2
				c0.8-0.8,1.2-1.8,1.2-2.8V65.1l5.7,5.5c0.8,0.8,1.8,1.2,3,1.2c1,0,1.9-0.4,2.7-1.2c1.8-1.8,1.8-3.7,0-5.5L-30,2.2
				C-30.9,1.4-31.9,1-33,1C-34.1,1-34.9,1.4-35.8,2.2z M10.2,57.1V65v55.5h-26.1V86.3v-8.5h-31.6h-2.6v8.5v34.1h-26.1V65v-7.8
				l43.3-45.5L10.2,57.1z"/>
		</g>
	</g>
</g>
</svg>
