<?xml version="1.0" encoding="utf-8"?>
<!-- Generator: Adobe Illustrator 19.1.0, SVG Export Plug-In . SVG Version: 6.00 Build 0)  -->
<svg version="1.1" id="Layer_1" xmlns="http://www.w3.org/2000/svg" xmlns:xlink="http://www.w3.org/1999/xlink" x="0px" y="0px"
	 width="64px" height="64px" viewBox="-647 369 64 64" style="enable-background:new -647 369 64 64;" xml:space="preserve">
<style type="text/css">
	.st0{fill:#444444;}
</style>
<path class="st0" d="M-589.7,388.4v-6.4l-25.3,15.8l-25.3-15.8v6.4l25.3,15.7L-589.7,388.4z M-589.7,375.7c1.7,0,3.1,0.6,4.4,1.9
	s1.8,2.8,1.8,4.4v37.9c0,1.7-0.6,3.2-1.8,4.4s-2.7,1.9-4.4,1.9h-50.6c-1.7,0-3.1-0.6-4.4-1.9c-1.2-1.3-1.8-2.8-1.8-4.4v-37.9
	c0-1.7,0.6-3.2,1.8-4.4c1.2-1.3,2.7-1.9,4.4-1.9C-640.3,375.7-589.7,375.7-589.7,375.7z"/>
</svg>
