<?xml version="1.0" encoding="utf-8"?>
<!-- Generator: Adobe Illustrator 19.1.0, SVG Export Plug-In . SVG Version: 6.00 Build 0)  -->
<svg version="1.1" id="Layer_1" xmlns:sketch="http://www.bohemiancoding.com/sketch/ns"
	 xmlns="http://www.w3.org/2000/svg" xmlns:xlink="http://www.w3.org/1999/xlink" x="0px" y="0px" width="128px" height="128px"
	 viewBox="-673 337 128 128" style="enable-background:new -673 337 128 128;" xml:space="preserve">
<style type="text/css">
	.st0{fill:#383838;}
</style>
<path sketch:type="MSShapeGroup" class="st0" d="M-611.8,338.2l-59.9,62.9c-1.8,1.8-1.8,3.7,0.1,5.5c1,0.9,1.9,1.4,2.8,1.4
	c0.9,0,1.9-0.5,2.8-1.4l6-5.5V461c0,1,0.4,1.9,1.2,2.8c0.8,0.8,1.7,1.2,2.7,1.2c11.7-0.1,34.1,0,34.1,0c1.2,0,2.4-0.7,3.1-1.5
	c0.7-0.8,1.1-1.8,1.1-2.8v-38.6h17l0.3,38.6c0,1,0.4,1.9,1.1,2.8c0.7,0.8,1.7,1.5,2.9,1.5h34.4c1,0,1.9-0.4,2.7-1.2
	c0.8-0.8,1.2-1.8,1.2-2.8v-59.9l5.7,5.5c0.8,0.8,1.8,1.2,3,1.2c1,0,1.9-0.4,2.7-1.2c1.8-1.8,1.8-3.7,0-5.5l-59.7-62.9
	c-0.8-0.8-1.9-1.2-3-1.2C-610.1,337-610.9,337.4-611.8,338.2z M-565.8,393.1v7.9v55.5h-26.1v-34.1v-8.5h-31.6h-2.6v8.5v34.1h-26.1
	V401v-7.8l43.3-45.5L-565.8,393.1z"/>
</svg>
