<?xml version="1.0" encoding="utf-8"?>
<!-- Generator: Adobe Illustrator 19.1.0, SVG Export Plug-In . SVG Version: 6.00 Build 0)  -->
<svg version="1.1" id="Layer_1" xmlns:sketch="http://www.bohemiancoding.com/sketch/ns"
	 xmlns="http://www.w3.org/2000/svg" xmlns:xlink="http://www.w3.org/1999/xlink" x="0px" y="0px" width="128px" height="128px"
	 viewBox="-97 1 128 128" style="enable-background:new -97 1 128 128;" xml:space="preserve">
<style type="text/css">
	.st0{fill:#383838;}
</style>
<title>Calendar</title>
<desc>Created with Sketch.</desc>
<g id="Iconography-Board" sketch:type="MSPage">
	<g id="Calendar" transform="translate(-900.000000, -1205.000000)" sketch:type="MSArtboardGroup">
		<g transform="translate(900.000000, 1205.000000)" sketch:type="MSLayerGroup">
			<path sketch:type="MSShapeGroup" class="st0" d="M-88.5,22.4L-88.5,22.4v98.1c0,0,0,0,0,0h111c0,0,0,0,0,0V22.4c0,0,0,0,0,0
				L-88.5,22.4C-88.5,22.3-88.5,22.3-88.5,22.4L-88.5,22.4z M-97,22.4c0-4.7,3.8-8.6,8.5-8.6h111c4.7,0,8.5,3.8,8.5,8.6v98.1
				c0,4.7-3.8,8.6-8.5,8.6h-111c-4.7,0-8.5-3.8-8.5-8.6V22.4L-97,22.4z M-67.1,13.8h4.3h4.3V5.3c0-2.4-1.9-4.3-4.3-4.3
				c-2.4,0-4.3,1.9-4.3,4.3V13.8z M-7.4,13.8h4.3h4.3V5.3C1.1,2.9-0.8,1-3.1,1s-4.3,1.9-4.3,4.3V13.8z M1.1,22.3h-4.3h-4.3v8.5
				c0,2.4,1.9,4.3,4.3,4.3s4.3-1.9,4.3-4.3V22.3z M-58.6,22.3h-4.3h-4.3v8.5c0,2.4,1.9,4.3,4.3,4.3c2.4,0,4.3-1.9,4.3-4.3V22.3z
				 M-11.7,86.4c0-2.4,1.9-4.3,4.3-4.3h8.5c2.4,0,4.3,1.9,4.3,4.3v8.5c0,2.4-1.9,4.3-4.3,4.3h-8.5c-2.4,0-4.3-1.9-4.3-4.3V86.4z
				 M-41.5,86.4c0-2.4,1.9-4.3,4.3-4.3h8.5c2.4,0,4.3,1.9,4.3,4.3v8.5c0,2.4-1.9,4.3-4.3,4.3h-8.5c-2.4,0-4.3-1.9-4.3-4.3V86.4z
				 M-71.4,86.4c0-2.4,1.9-4.3,4.3-4.3h8.5c2.4,0,4.3,1.9,4.3,4.3v8.5c0,2.4-1.9,4.3-4.3,4.3h-8.5c-2.4,0-4.3-1.9-4.3-4.3V86.4z
				 M-11.7,52.2c0-2.4,1.9-4.3,4.3-4.3h8.5c2.4,0,4.3,1.9,4.3,4.3v8.5c0,2.4-1.9,4.3-4.3,4.3h-8.5c-2.4,0-4.3-1.9-4.3-4.3V52.2z
				 M-11.7,52.2c0-2.4,1.9-4.3,4.3-4.3h8.5c2.4,0,4.3,1.9,4.3,4.3v8.5c0,2.4-1.9,4.3-4.3,4.3h-8.5c-2.4,0-4.3-1.9-4.3-4.3V52.2z
				 M-41.5,52.2c0-2.4,1.9-4.3,4.3-4.3h8.5c2.4,0,4.3,1.9,4.3,4.3v8.5c0,2.4-1.9,4.3-4.3,4.3h-8.5c-2.4,0-4.3-1.9-4.3-4.3V52.2z
				 M-71.4,52.2c0-2.4,1.9-4.3,4.3-4.3h8.5c2.4,0,4.3,1.9,4.3,4.3v8.5c0,2.4-1.9,4.3-4.3,4.3h-8.5c-2.4,0-4.3-1.9-4.3-4.3V52.2z"/>
		</g>
	</g>
</g>
</svg>
