<?xml version="1.0" encoding="utf-8"?>
<!-- Generator: Adobe Illustrator 19.1.0, SVG Export Plug-In . SVG Version: 6.00 Build 0)  -->
<svg version="1.1" id="Layer_1" xmlns="http://www.w3.org/2000/svg" xmlns:xlink="http://www.w3.org/1999/xlink" x="0px" y="0px"
	 width="64px" height="64px" viewBox="-647 369 64 64" style="enable-background:new -647 369 64 64;" xml:space="preserve">
<style type="text/css">
	.st0{fill:#444444;}
</style>
<path class="st0" d="M-589.7,388.4v-6.4h-50.6v6.4H-589.7z M-589.7,419.9V401h-50.6v18.9H-589.7z M-589.7,375.7
	c1.8,0,3.3,0.6,4.4,1.8s1.8,2.7,1.8,4.5v37.9c0,1.8-0.6,3.3-1.8,4.5s-2.7,1.8-4.4,1.8h-50.6c-1.8,0-3.3-0.6-4.4-1.8
	c-1.2-1.2-1.8-2.7-1.8-4.5v-37.9c0-1.8,0.6-3.3,1.8-4.5c1.2-1.2,2.7-1.8,4.4-1.8C-640.3,375.7-589.7,375.7-589.7,375.7z"/>
</svg>
