<?xml version="1.0" encoding="utf-8"?>
<!-- Generator: Adobe Illustrator 19.1.0, SVG Export Plug-In . SVG Version: 6.00 Build 0)  -->
<svg version="1.1" id="Layer_1" xmlns:sketch="http://www.bohemiancoding.com/sketch/ns"
	 xmlns="http://www.w3.org/2000/svg" xmlns:xlink="http://www.w3.org/1999/xlink" x="0px" y="0px" width="128px" height="128px"
	 viewBox="-97 1 128 128" style="enable-background:new -97 1 128 128;" xml:space="preserve">
<style type="text/css">
	.st0{fill:#383838;}
</style>
<title>Information</title>
<desc>Created with Sketch.</desc>
<g id="Iconography-Board" sketch:type="MSPage">
	<g id="Information" transform="translate(-900.000000, -1145.000000)" sketch:type="MSArtboardGroup">
		<g transform="translate(900.000000, 1145.000000)" sketch:type="MSLayerGroup">
			<path sketch:type="MSShapeGroup" class="st0" d="M22.5,65C22.5,34.4-2.4,9.5-33,9.5S-88.5,34.4-88.5,65s24.8,55.5,55.5,55.5
				S22.5,95.6,22.5,65z M-33,129c-35.3,0-64-28.7-64-64S-68.3,1-33,1s64,28.7,64,64S2.3,129-33,129L-33,129z M-24.5,86.3h-4.3V52.2
				c0-2.3-1.9-4.3-4.3-4.3h-8.5c-2.3,0-4.3,1.9-4.3,4.3s1.9,4.3,4.3,4.3h4.3v29.9h-4.3c-2.3,0-4.3,1.9-4.3,4.3s1.9,4.3,4.3,4.3h17.1
				c2.3,0,4.3-1.9,4.3-4.3S-22.1,86.3-24.5,86.3 M-37.3,30.9h8.5v8.5h-8.5V30.9z"/>
		</g>
	</g>
</g>
</svg>
