<?xml version="1.0" encoding="utf-8"?>
<!-- Generator: Adobe Illustrator 19.1.0, SVG Export Plug-In . SVG Version: 6.00 Build 0)  -->
<svg version="1.1" id="Layer_1" xmlns:sketch="http://www.bohemiancoding.com/sketch/ns"
	 xmlns="http://www.w3.org/2000/svg" xmlns:xlink="http://www.w3.org/1999/xlink" x="0px" y="0px" width="128px" height="128px"
	 viewBox="-97 0.5 128 128" style="enable-background:new -97 0.5 128 128;" xml:space="preserve">
<style type="text/css">
	.st0{fill:#383838;}
</style>
<title>Delivery Van</title>
<desc>Created with Sketch.</desc>
<g id="Iconography-Board" sketch:type="MSPage">
	<g id="Delivery-Van" transform="translate(-500.000000, -850.000000)" sketch:type="MSArtboardGroup">
		<g transform="translate(500.000000, 850.000000)" sketch:type="MSLayerGroup">
			<path sketch:type="MSShapeGroup" class="st0" d="M22.5,88h-5.8c-2.4-5-7.5-8.5-13.4-8.5s-11,3.5-13.4,8.5h-5.8V41h12.8v17.1v4.3
				v4.3h25.6V88z M9.3,96.5c-0.9,2.5-3.2,4.3-6,4.3s-5.1-1.8-6-4.3c-0.2-0.7-0.4-1.4-0.4-2.1c0-3.5,2.9-6.4,6.4-6.4s6.4,2.9,6.4,6.4
				C9.7,95.1,9.5,95.8,9.3,96.5L9.3,96.5z M5.4,45.6l10.7,12.5H5.4V45.6z M-24.5,32.5V88h-35.6c-2.4-5-7.5-8.5-13.4-8.5
				s-11,3.5-13.4,8.5h-1.5V32.5c0-2.4,1.9-4.3,4.3-4.3h55.4C-26.4,28.2-24.5,30.2-24.5,32.5L-24.5,32.5z M-67.5,96.5
				c-0.9,2.5-3.2,4.3-6,4.3s-5.1-1.8-6-4.3c-0.2-0.7-0.4-1.4-0.4-2.1c0-3.5,2.9-6.4,6.4-6.4s6.4,2.9,6.4,6.4
				C-67.1,95.1-67.3,95.8-67.5,96.5L-67.5,96.5z M5.4,32.5h-21.3v-4.3c0-4.7-3.8-8.5-8.5-8.5h-64c-4.7,0-8.5,3.8-8.5,8.5v68.3h8.7
				c1,7.2,7.2,12.8,14.7,12.8s13.7-5.6,14.7-12.8h34.3h8.5h4.5c1,7.2,7.2,12.8,14.7,12.8s13.7-5.6,14.7-12.8h13V62.4L5.4,32.5z"/>
		</g>
	</g>
</g>
</svg>
