<?xml version="1.0" encoding="utf-8"?>
<!-- Generator: Adobe Illustrator 19.1.0, SVG Export Plug-In . SVG Version: 6.00 Build 0)  -->
<svg version="1.1" id="Layer_1" xmlns:sketch="http://www.bohemiancoding.com/sketch/ns"
	 xmlns="http://www.w3.org/2000/svg" xmlns:xlink="http://www.w3.org/1999/xlink" x="0px" y="0px" width="128px" height="128px"
	 viewBox="-673 337 128 128" style="enable-background:new -673 337 128 128;" xml:space="preserve">
<style type="text/css">
	.st0{fill:#383838;}
</style>
<path sketch:type="MSShapeGroup" class="st0" d="M-639.8,349.8c-15.4,0-24.6,14.6-24.6,28.7c0,34.1,44.8,64.9,55.5,72
	c10.6-7.2,55.5-38,55.5-72c0-14.1-9.2-28.7-24.6-28.7c-12.8,0-26.6,9.4-26.6,24.6h-8.5C-613.3,359.2-627.1,349.8-639.8,349.8
	L-639.8,349.8z M-609,460.7l-2.2-1.4c-2.5-1.6-61.8-37.6-61.8-80.8c0-18.3,12.4-37.3,33.2-37.3c13.3,0,24.9,7,30.8,17.3
	c6-10.3,17.5-17.3,30.8-17.3c20.8,0,33.2,19,33.2,37.3c0,43.2-59.2,79.2-61.8,80.8L-609,460.7z"/>
</svg>
