<?xml version="1.0" encoding="utf-8"?>
<!-- Generator: Adobe Illustrator 19.1.0, SVG Export Plug-In . SVG Version: 6.00 Build 0)  -->
<svg version="1.1" id="Layer_1" xmlns:sketch="http://www.bohemiancoding.com/sketch/ns"
	 xmlns="http://www.w3.org/2000/svg" xmlns:xlink="http://www.w3.org/1999/xlink" x="0px" y="0px" width="128px" height="128px"
	 viewBox="-99 1 128 128" style="enable-background:new -99 1 128 128;" xml:space="preserve">
<style type="text/css">
	.st0{fill:#383838;}
</style>
<title>Click &amp; Collect</title>
<desc>Created with Sketch.</desc>
<g id="Iconography-Board" sketch:type="MSPage">
	<g id="Click-_x26_-Collect" transform="translate(-501.000000, -485.000000)" sketch:type="MSArtboardGroup">
		<g transform="translate(501.500000, 485.000000)" sketch:type="MSLayerGroup">
			<path sketch:type="MSShapeGroup" class="st0" d="M5.9,113.5c-4.7,4.7-11.1,7.2-18,7c-7-0.2-13.7-3.1-18.8-8.2l-19.3-19.3
				l17.8-17.8l17.8-17.8L4.7,76.6c5.1,5.1,8,11.8,8.2,18.8C13.1,102.4,10.6,108.8,5.9,113.5L5.9,113.5z M-71.7,71.4L-57,56.6
				l15.5,15.5l-14.8,14.8L-71.7,71.4z M-20.6,51.3l-14.8,14.8l-15.5-15.5l14.8-14.8L-20.6,51.3z M10.7,70.6l-22.3-22.3l-24.6-24.6
				L-57,44.6c-3.9-3.9-4.2-10.9-0.2-14.9l0,0c3.2-3.2,5-7.4,5-11.9c0-4.5-1.7-8.7-4.9-11.9C-60.2,2.7-64.5,1-68.9,1
				c-4.5,0-8.7,1.8-11.9,5l-11.9,11.9l6,6L-74.8,12c1.6-1.6,3.7-2.5,5.9-2.5c2.2,0,4.3,0.8,5.8,2.4c1.5,1.5,2.4,3.6,2.4,5.8
				c0,2.2-0.9,4.3-2.5,5.9l0,0c-7.3,7.3-7,19.7,0.2,26.9l3-3l-23.8,23.8L-59.2,96l22.3,22.3c6.6,6.6,15.4,10.4,24.6,10.7
				c0.3,0,0.7,0,1,0c8.9,0,17.1-3.3,23.3-9.5c6.4-6.4,9.7-15,9.5-24.3C21.2,86,17.4,77.2,10.7,70.6L10.7,70.6z"/>
		</g>
	</g>
</g>
</svg>
