<?xml version="1.0" encoding="utf-8"?>
<!-- Generator: Adobe Illustrator 19.1.0, SVG Export Plug-In . SVG Version: 6.00 Build 0)  -->
<svg version="1.1" id="Layer_1" xmlns:sketch="http://www.bohemiancoding.com/sketch/ns"
	 xmlns="http://www.w3.org/2000/svg" xmlns:xlink="http://www.w3.org/1999/xlink" x="0px" y="0px" width="128px" height="128px"
	 viewBox="-673 337 128 128" style="enable-background:new -673 337 128 128;" xml:space="preserve">
<style type="text/css">
	.st0{fill:#383838;}
</style>
<path class="st0" d="M-641,401c-5.4,0-10.5,1.3-14.9,3.7v-25c0-4.7-3.8-8.5-8.5-8.5c-4.7,0-8.5,3.8-8.5,8.5v55.5
	c0,0.8,0.1,1.5,0.3,2.3c2.1,15.6,15.5,27.6,31.7,27.6c17.7,0,32-14.3,32-32C-609,415.3-623.3,401-641,401z M-641,447.9
	c-8.2,0-14.9-6.7-14.9-14.9c0-8.2,6.7-14.9,14.9-14.9s14.9,6.7,14.9,14.9C-626.1,441.2-632.8,447.9-641,447.9z"/>
<path class="st0" d="M-587.8,348.3c-9.2-5-18.9-8.1-28.7-9.8c-6-1.1-10.8-1.4-13.9-1.4c0,0,0,0,0,0c-4.7,0-8.5,3.9-8.5,8.6
	c0,4.7,3.9,8.5,8.6,8.5c0,0,0,0,0,0c0.5,0,1.5,0,2.9,0.1c2.4,0.2,5,0.5,7.9,1c8.1,1.4,16.1,4,23.6,8.1
	c19.9,10.7,32.3,29.5,33.8,59.5c0.2,4.7,4.3,8.3,9,8.1s8.3-4.3,8.1-9C-546.9,385.8-562.8,361.8-587.8,348.3z"/>
<path class="st0" d="M-630.9,386.1c1.3,0.1,2.9,0.3,4.5,0.6c4.6,0.8,9.2,2.3,13.4,4.6c11.2,6,18,16.5,18.9,33.6
	c0.2,4.7,4.3,8.3,9,8.1s8.3-4.3,8.1-9c-1.2-23.2-11.6-39-27.9-47.7c-5.9-3.2-12.2-5.2-18.5-6.4c-3.9-0.7-7-0.9-9.1-0.9c0,0,0,0,0,0
	c-4.7,0-8.5,3.9-8.5,8.6c0,4.7,3.9,8.5,8.6,8.5"/>
</svg>
