<?xml version="1.0" encoding="utf-8"?>
<!-- Generator: Adobe Illustrator 19.1.0, SVG Export Plug-In . SVG Version: 6.00 Build 0)  -->
<svg version="1.1" id="Layer_1" xmlns:sketch="http://www.bohemiancoding.com/sketch/ns"
	 xmlns="http://www.w3.org/2000/svg" xmlns:xlink="http://www.w3.org/1999/xlink" x="0px" y="0px" width="128px" height="128px"
	 viewBox="0 0 128 128" style="enable-background:new 0 0 128 128;" xml:space="preserve">
<style type="text/css">
	.st0{fill:#383838;}
</style>
<title>Close (Menu)</title>
<desc>Created with Sketch.</desc>
<g id="Iconography-Board" sketch:type="MSPage">
	<g id="Close-_x28_Menu_x29_" transform="translate(-899.000000, -1405.000000)" sketch:type="MSArtboardGroup">
		<g transform="translate(899.000000, 1405.000000)" sketch:type="MSLayerGroup">
			<path sketch:type="MSShapeGroup" class="st0" d="M69.2,4.1l55.2,55.2l-5.8,5.8L63.4,9.9L8.2,65.1l-5.6-5.9L57.9,4L2.6-51.2
				L8.4-57L63.6-1.7L118.9-57l5.8,5.8L69.2,4.1z M20.3,106.9h3.9c-0.3-1.6-0.7-2.9-1.4-4.1c-0.7-1.2-1.6-2.1-2.6-2.9
				c-1-0.7-2.4-1.4-3.6-1.7c-1.3-0.4-2.8-0.6-4.3-0.6c-2.1,0-4.2,0.4-5.9,1.1c-1.7,0.8-3.2,1.8-4.3,3.3s-2,3.1-2.6,4.9
				c-0.6,1.8-0.8,3.9-0.8,5.9c0,2.1,0.3,4.1,0.8,5.9c0.6,1.8,1.4,3.5,2.5,4.8c1.1,1.3,2.5,2.5,4.2,3.2c1.7,0.7,3.6,1.1,5.9,1.1
				c3.8,0,6.6-1,8.8-3.1c2.1-2,3.5-4.9,3.8-8.5h-3.9c-0.1,1.1-0.3,2.4-0.7,3.3c-0.4,1-1,1.8-1.7,2.6c-0.7,0.7-1.6,1.3-2.6,1.7
				c-1,0.4-2.1,0.6-3.5,0.6c-1.7,0-3.2-0.3-4.5-1s-2.4-1.6-3.1-2.6c-0.8-1.1-1.4-2.5-1.7-3.9c-0.4-1.4-0.6-3.1-0.6-4.8
				c0-1.6,0.1-3.1,0.6-4.3c0.4-1.4,1-2.6,1.7-3.8c0.8-1.1,1.8-2,3.1-2.6c1.3-0.7,2.8-1,4.5-1c2,0,3.8,0.6,5.2,1.6
				C19,103.3,19.8,104.9,20.3,106.9L20.3,106.9z M29.2,98.3v29h19.2V124H33.1V98.4h-3.9V98.3z M54.1,112.7c0-1.4,0.1-2.9,0.6-4.3
				c0.4-1.4,1-2.8,1.7-3.9c0.8-1.1,1.8-2,3.2-2.8s2.8-1,4.6-1c1.7,0,3.3,0.3,4.6,1s2.4,1.6,3.2,2.8c0.8,1.1,1.4,2.5,1.7,3.9
				c0.4,1.4,0.6,2.9,0.6,4.3c0,1.4-0.1,2.9-0.6,4.3c-0.4,1.4-1,2.8-1.7,3.9c-0.8,1.1-1.8,2-3.2,2.8c-1.3,0.7-2.8,1-4.6,1
				c-1.7,0-3.3-0.3-4.6-1c-1.3-0.7-2.4-1.6-3.2-2.8c-0.8-1.1-1.4-2.5-1.7-3.9C54.2,115.5,54.1,114.1,54.1,112.7L54.1,112.7z
				 M50.2,112.7c0,2,0.3,3.9,0.8,5.8c0.6,1.8,1.4,3.5,2.6,4.9c1.1,1.4,2.6,2.6,4.3,3.3c1.7,0.7,3.8,1.3,6,1.3c2.4,0,4.3-0.4,6-1.3
				c1.7-0.8,3.2-1.8,4.3-3.3s2-3.1,2.6-4.9c0.5-1.8,0.8-3.8,0.8-5.8c0-2-0.3-3.9-0.8-5.8c-0.6-1.8-1.4-3.5-2.6-4.9
				c-1.1-1.4-2.6-2.6-4.3-3.3c-1.7-0.8-3.8-1.3-6-1.3c-2.4,0-4.3,0.4-6,1.3c-1.7,0.9-3.2,2-4.3,3.3c-1.1,1.4-2,3.1-2.6,4.9
				C50.5,108.8,50.2,110.8,50.2,112.7L50.2,112.7z M99.6,106.7h3.6c0-1.6-0.3-3.1-0.8-4.2s-1.3-2.1-2.4-2.9c-1-0.7-2-1.3-3.3-1.7
				c-1.3-0.3-2.6-0.6-4.2-0.6c-1.3,0-2.6,0.1-3.9,0.6c-1.3,0.3-2.5,0.8-3.3,1.6c-1,0.7-1.7,1.6-2.4,2.6c-0.6,1-0.8,2.4-0.8,3.8
				c0,1.3,0.3,2.5,0.7,3.3c0.6,0.8,1.3,1.6,2.1,2.1c0.8,0.6,1.8,1,3.1,1.3c1.1,0.3,2.4,0.6,3.5,0.8c1.1,0.3,2.4,0.6,3.5,0.7
				c1.1,0.3,2.1,0.6,3.1,1c0.8,0.4,1.6,0.8,2.1,1.6c0.6,0.6,0.7,1.4,0.7,2.5c0,1-0.3,1.8-0.7,2.6c-0.4,0.7-1,1.1-1.7,1.6
				c-0.7,0.4-1.4,0.7-2.4,0.8c-0.8,0.1-1.7,0.3-2.6,0.3c-1.1,0-2.1-0.1-3.2-0.4c-1-0.3-1.8-0.7-2.8-1.3s-1.4-1.3-1.8-2.1
				c-0.4-0.8-0.7-1.8-0.7-3.2h-3.9c0,1.7,0.3,3.3,1,4.6c0.6,1.3,1.4,2.4,2.6,3.2c1.1,0.8,2.4,1.4,3.8,1.8c1.4,0.4,3.1,0.6,4.6,0.6
				c1.3,0,2.6-0.1,4.1-0.4c1.3-0.3,2.6-0.8,3.6-1.4c1-0.6,2-1.6,2.6-2.8c0.7-1.1,1-2.5,1-3.9c0-1.4-0.3-2.6-0.7-3.6
				c-0.6-1-1.3-1.7-2.1-2.4s-1.8-1.1-3.1-1.4c-1.1-0.4-2.4-0.7-3.5-1s-2.4-0.6-3.5-0.7c-1.1-0.1-2.1-0.6-3.1-0.8
				c-0.8-0.3-1.6-0.8-2.1-1.3c-0.6-0.6-0.7-1.3-0.7-2.1c0-1,0.1-1.7,0.6-2.4c0.4-0.6,0.8-1.1,1.4-1.6c0.6-0.4,1.3-0.7,2-0.8
				c0.7-0.1,1.6-0.3,2.5-0.3c2,0,3.6,0.4,4.9,1.4C98.5,103.2,99.3,104.6,99.6,106.7L99.6,106.7z M109.1,98.3v29h20.2V124H113v-10.1
				h15v-3.3h-15v-9.2h16.1v-3.3h-20C109.1,98.2,109.1,98.3,109.1,98.3z"/>
		</g>
	</g>
</g>
</svg>
