<?xml version="1.0" encoding="utf-8"?>
<!-- Generator: Adobe Illustrator 19.1.0, SVG Export Plug-In . SVG Version: 6.00 Build 0)  -->
<svg version="1.1" id="Layer_1" xmlns:sketch="http://www.bohemiancoding.com/sketch/ns"
	 xmlns="http://www.w3.org/2000/svg" xmlns:xlink="http://www.w3.org/1999/xlink" x="0px" y="0px" width="128px" height="128px"
	 viewBox="-673 337 128 128" style="enable-background:new -673 337 128 128;" xml:space="preserve">
<style type="text/css">
	.st0{fill:#383838;}
</style>
<path sketch:type="MSShapeGroup" class="st0" d="M-664.5,422.3l0-64h111l0,64L-664.5,422.3z M-553.5,349.8h-111
	c-4.7,0-8.5,3.8-8.5,8.5v64c0,4.7,3.8,8.5,8.5,8.5h51.2v12.8h-21.3c-2.4,0-4.3,1.9-4.3,4.3c0,2.4,1.9,4.3,4.3,4.3h51.2
	c2.4,0,4.3-1.9,4.3-4.3c0-2.4-1.9-4.3-4.3-4.3h-21.3v-12.8h51.2c4.7,0,8.5-3.8,8.5-8.5v-64C-545,353.6-548.8,349.8-553.5,349.8
	L-553.5,349.8z"/>
</svg>
