<?xml version="1.0" encoding="utf-8"?>
<!-- Generator: Adobe Illustrator 19.1.0, SVG Export Plug-In . SVG Version: 6.00 Build 0)  -->
<svg version="1.1" id="Layer_1" xmlns:sketch="http://www.bohemiancoding.com/sketch/ns"
	 xmlns="http://www.w3.org/2000/svg" xmlns:xlink="http://www.w3.org/1999/xlink" x="0px" y="0px" width="128px" height="128px"
	 viewBox="-97 1 128 128" style="enable-background:new -97 1 128 128;" xml:space="preserve">
<style type="text/css">
	.st0{fill:#383838;}
</style>
<title>Eye</title>
<desc>Created with Sketch.</desc>
<g id="Iconography-Board" sketch:type="MSPage">
	<g id="Eye" transform="translate(-900.000000, -610.000000)" sketch:type="MSArtboardGroup">
		<g transform="translate(900.000000, 610.500000)" sketch:type="MSLayerGroup">
			<path sketch:type="MSShapeGroup" class="st0" d="M-33,49.8c-4.1,0-7.5,1.4-10.5,4.4c-3,2.9-4.4,6.3-4.4,10.2
				c0,4,1.5,7.4,4.5,10.4c3,3,6.5,4.5,10.6,4.5s7.6-1.4,10.5-4.3c2.9-2.9,4.3-6.3,4.3-10.4c0-4.1-1.5-7.4-4.4-10.4
				C-25.5,51.2-28.9,49.8-33,49.8 M-49.5,80.6c-4.6-4.6-6.9-10.1-6.9-16.3c0-6.2,2.3-11.7,7-16.2c4.6-4.5,10.2-6.8,16.5-6.8
				s11.9,2.3,16.5,6.8c4.6,4.5,7,10,7,16.3c0,6.3-2.3,11.8-6.8,16.3c-4.5,4.5-10.1,6.8-16.5,6.8C-39.3,87.6-44.9,85.3-49.5,80.6z
				 M-32.7,24c-13.5,0-26.1,3.5-37.7,10.6c-11.6,7-20.5,17-26.6,30c6.1,13.1,14.9,23.2,26.4,30.1C-59,101.6-46.5,105-33,105
				s26-3.5,37.6-10.4C16.1,87.7,24.9,77.7,31,64.8C24.9,51.6,16.1,41.6,4.7,34.5C-6.7,27.5-19.2,24-32.7,24 M-32.7,32.4
				c12,0,22.8,3,32.9,9.3c9,5.6,16,13.1,21.3,23.1C16.2,74.5,9.2,82,0.1,87.4C-10.1,93.6-21,96.6-33,96.6s-22.9-3-33.1-9.2
				c-9.1-5.5-16.1-13-21.4-22.9c5.3-9.8,12.3-17.3,21.5-22.8C-55.6,35.4-44.7,32.4-32.7,32.4"/>
		</g>
	</g>
</g>
</svg>
