<?xml version="1.0" encoding="utf-8"?>
<!-- Generator: Adobe Illustrator 19.1.0, SVG Export Plug-In . SVG Version: 6.00 Build 0)  -->
<svg version="1.1" id="Layer_1" xmlns:sketch="http://www.bohemiancoding.com/sketch/ns"
	 xmlns="http://www.w3.org/2000/svg" xmlns:xlink="http://www.w3.org/1999/xlink" x="0px" y="0px" width="128px" height="128px"
	 viewBox="-94.5 1 128 128" style="enable-background:new -94.5 1 128 128;" xml:space="preserve">
<style type="text/css">
	.st0{fill:#383838;}
</style>
<title>Close (Menu)</title>
<desc>Created with Sketch.</desc>
<g id="Iconography-Board" sketch:type="MSPage">
	<g id="Close-_x28_Menu_x29_" transform="translate(-899.000000, -1405.000000)" sketch:type="MSArtboardGroup">
		<g transform="translate(899.000000, 1405.000000)" sketch:type="MSLayerGroup">
			<path sketch:type="MSShapeGroup" class="st0" d="M-27.2,43l38.2,38.2l-4,4l-38.2-38.2l-38.2,38.2l-4-4L-35.1,43L-73.4,4.7l4-4
				L-31.2,39L7.1,0.7l4,4L-27.2,43z M-61.1,114.2h2.7c-0.2-1.1-0.5-2-1-2.8c-0.5-0.8-1.1-1.5-1.8-2c-0.7-0.5-1.6-1-2.5-1.2
				c-0.9-0.3-1.9-0.4-3-0.4c-1.5,0-2.9,0.3-4.1,0.8c-1.2,0.6-2.2,1.3-3,2.3c-0.8,1-1.4,2.1-1.8,3.4c-0.4,1.3-0.6,2.7-0.6,4.1
				c0,1.5,0.2,2.8,0.6,4.1c0.4,1.3,1,2.4,1.7,3.3c0.8,0.9,1.7,1.7,2.9,2.2c1.2,0.5,2.5,0.8,4.1,0.8c2.6,0,4.6-0.7,6.1-2.1
				c1.5-1.4,2.4-3.4,2.6-5.9h-2.7c-0.1,0.8-0.2,1.6-0.5,2.3c-0.3,0.7-0.7,1.3-1.2,1.8c-0.5,0.5-1.1,0.9-1.8,1.2
				c-0.7,0.3-1.5,0.4-2.4,0.4c-1.2,0-2.2-0.2-3.1-0.7c-0.9-0.5-1.6-1.1-2.1-1.8c-0.6-0.8-1-1.7-1.2-2.7c-0.3-1-0.4-2.1-0.4-3.3
				c0-1.1,0.1-2.1,0.4-3c0.3-1,0.7-1.8,1.2-2.6c0.6-0.8,1.3-1.4,2.1-1.8c0.9-0.5,1.9-0.7,3.1-0.7c1.4,0,2.6,0.4,3.6,1.1
				C-62,111.7-61.4,112.8-61.1,114.2L-61.1,114.2z M-54.9,108.2v20.1h13.3V126h-10.6v-17.8H-54.9z M-37.7,118.2c0-1,0.1-2,0.4-3
				c0.3-1,0.7-1.9,1.2-2.7c0.6-0.8,1.3-1.4,2.2-1.9c0.9-0.5,1.9-0.7,3.2-0.7c1.2,0,2.3,0.2,3.2,0.7c0.9,0.5,1.6,1.1,2.2,1.9
				c0.6,0.8,1,1.7,1.2,2.7c0.3,1,0.4,2,0.4,3c0,1-0.1,2-0.4,3c-0.3,1-0.7,1.9-1.2,2.7c-0.6,0.8-1.3,1.4-2.2,1.9
				c-0.9,0.5-1.9,0.7-3.2,0.7c-1.2,0-2.3-0.2-3.2-0.7c-0.9-0.5-1.6-1.1-2.2-1.9c-0.6-0.8-1-1.7-1.2-2.7
				C-37.6,120.2-37.7,119.2-37.7,118.2L-37.7,118.2z M-40.4,118.2c0,1.4,0.2,2.7,0.6,4c0.4,1.3,1,2.4,1.8,3.4c0.8,1,1.8,1.8,3,2.3
				s2.6,0.9,4.2,0.9c1.6,0,3-0.3,4.2-0.9c1.2-0.6,2.2-1.3,3-2.3c0.8-1,1.4-2.1,1.8-3.4c0.4-1.3,0.6-2.6,0.6-4c0-1.4-0.2-2.7-0.6-4
				c-0.4-1.3-1-2.4-1.8-3.4c-0.8-1-1.8-1.8-3-2.3c-1.2-0.6-2.6-0.9-4.2-0.9c-1.6,0-3,0.3-4.2,0.9c-1.2,0.6-2.2,1.4-3,2.3
				c-0.8,1-1.4,2.1-1.8,3.4C-40.2,115.5-40.4,116.9-40.4,118.2L-40.4,118.2z M-6.2,114.1h2.5c0-1.1-0.2-2.1-0.6-2.9
				c-0.4-0.8-0.9-1.5-1.6-2s-1.4-0.9-2.3-1.2c-0.9-0.2-1.8-0.4-2.9-0.4c-0.9,0-1.8,0.1-2.7,0.4c-0.9,0.2-1.7,0.6-2.3,1.1
				c-0.7,0.5-1.2,1.1-1.6,1.8c-0.4,0.7-0.6,1.6-0.6,2.6c0,0.9,0.2,1.7,0.5,2.3c0.4,0.6,0.9,1.1,1.5,1.5c0.6,0.4,1.3,0.7,2.1,0.9
				c0.8,0.2,1.6,0.4,2.4,0.6c0.8,0.2,1.6,0.4,2.4,0.5c0.8,0.2,1.5,0.4,2.1,0.7c0.6,0.3,1.1,0.6,1.5,1.1c0.4,0.4,0.5,1,0.5,1.7
				c0,0.7-0.2,1.3-0.5,1.8c-0.3,0.5-0.7,0.8-1.2,1.1c-0.5,0.3-1,0.5-1.6,0.6c-0.6,0.1-1.2,0.2-1.8,0.2c-0.8,0-1.5-0.1-2.2-0.3
				c-0.7-0.2-1.3-0.5-1.9-0.9s-1-0.9-1.3-1.5c-0.3-0.6-0.5-1.3-0.5-2.2H-19c0,1.2,0.2,2.3,0.7,3.2c0.4,0.9,1,1.6,1.8,2.2
				c0.8,0.6,1.6,1,2.6,1.3s2.1,0.4,3.2,0.4c0.9,0,1.8-0.1,2.8-0.3c0.9-0.2,1.8-0.6,2.5-1s1.4-1.1,1.8-1.9c0.5-0.8,0.7-1.7,0.7-2.7
				c0-1-0.2-1.8-0.5-2.5c-0.4-0.7-0.9-1.2-1.5-1.6c-0.6-0.4-1.3-0.8-2.1-1c-0.8-0.3-1.6-0.5-2.4-0.7c-0.8-0.2-1.6-0.4-2.4-0.5
				s-1.5-0.4-2.1-0.6c-0.6-0.2-1.1-0.6-1.5-0.9c-0.4-0.4-0.5-0.9-0.5-1.5c0-0.7,0.1-1.2,0.4-1.6c0.3-0.4,0.6-0.8,1-1.1
				c0.4-0.3,0.9-0.5,1.4-0.6c0.5-0.1,1.1-0.2,1.7-0.2c1.4,0,2.5,0.3,3.4,1C-6.9,111.6-6.4,112.6-6.2,114.1L-6.2,114.1z M0.4,108.2
				v20.1h14V126H3.1v-7h10.4v-2.3H3.1v-6.4h11.2v-2.3H0.4z"/>
		</g>
	</g>
</g>
</svg>
