<?xml version="1.0" encoding="utf-8"?>
<!-- Generator: Adobe Illustrator 19.1.0, SVG Export Plug-In . SVG Version: 6.00 Build 0)  -->
<svg version="1.1" id="Layer_1" xmlns:sketch="http://www.bohemiancoding.com/sketch/ns"
	 xmlns="http://www.w3.org/2000/svg" xmlns:xlink="http://www.w3.org/1999/xlink" x="0px" y="0px" width="128px" height="128px"
	 viewBox="-97 1 128 128" style="enable-background:new -97 1 128 128;" xml:space="preserve">
<style type="text/css">
	.st0{fill:#383838;}
</style>
<title>Love</title>
<desc>Created with Sketch.</desc>
<g id="Iconography-Board" sketch:type="MSPage">
	<g id="Love" transform="translate(-500.000000, -546.000000)" sketch:type="MSArtboardGroup">
		<g transform="translate(500.000000, 546.000000)" sketch:type="MSLayerGroup">
			<path sketch:type="MSShapeGroup" class="st0" d="M-63.8,13.8c-15.4,0-24.6,14.6-24.6,28.7c0,34.1,44.8,64.9,55.5,72
				c10.6-7.2,55.5-38,55.5-72c0-14.1-9.2-28.7-24.6-28.7c-12.8,0-26.6,9.4-26.6,24.6h-8.5C-37.3,23.2-51.1,13.8-63.8,13.8
				L-63.8,13.8z M-33,124.7l-2.2-1.4C-37.8,121.8-97,85.8-97,42.6c0-18.3,12.4-37.3,33.2-37.3c13.3,0,24.9,7,30.8,17.3
				C-27,12.3-15.5,5.3-2.2,5.3c20.8,0,33.2,19,33.2,37.3c0,43.2-59.2,79.2-61.8,80.8L-33,124.7z"/>
		</g>
	</g>
</g>
</svg>
