<?xml version="1.0" encoding="utf-8"?>
<!-- Generator: Adobe Illustrator 19.1.0, SVG Export Plug-In . SVG Version: 6.00 Build 0)  -->
<svg version="1.1" id="Layer_1" xmlns:sketch="http://www.bohemiancoding.com/sketch/ns"
	 xmlns="http://www.w3.org/2000/svg" xmlns:xlink="http://www.w3.org/1999/xlink" x="0px" y="0px" width="128px" height="128px"
	 viewBox="-97 1 128 128" style="enable-background:new -97 1 128 128;" xml:space="preserve">
<style type="text/css">
	.st0{fill:#383838;}
</style>
<title>Credit Card</title>
<desc>Created with Sketch.</desc>
<g id="Iconography-Board" sketch:type="MSPage">
	<g id="Credit-Card" transform="translate(-100.000000, -1150.000000)" sketch:type="MSArtboardGroup">
		<g transform="translate(100.000000, 1150.000000)" sketch:type="MSLayerGroup">
			<path sketch:type="MSShapeGroup" class="st0" d="M-88.5,30.8L-88.5,30.8v68.3c0,0,0,0,0,0h111c0,0,0,0,0,0V30.8c0,0,0,0,0,0
				L-88.5,30.8C-88.5,30.9-88.5,30.9-88.5,30.8L-88.5,30.8z M-97,30.8c0-4.7,3.8-8.5,8.5-8.5h111c4.7,0,8.5,3.8,8.5,8.5v68.3
				c0,4.7-3.8,8.5-8.5,8.5h-111c-4.7,0-8.5-3.8-8.5-8.5V30.8L-97,30.8z M-88.5,43.7H22.5v12.8H-88.5V43.7z"/>
		</g>
	</g>
</g>
</svg>
