<?xml version="1.0" encoding="utf-8"?>
<!-- Generator: Adobe Illustrator 19.1.0, SVG Export Plug-In . SVG Version: 6.00 Build 0)  -->
<svg version="1.1" id="Layer_1" xmlns:sketch="http://www.bohemiancoding.com/sketch/ns"
	 xmlns="http://www.w3.org/2000/svg" xmlns:xlink="http://www.w3.org/1999/xlink" x="0px" y="0px" width="128px" height="128px"
	 viewBox="-673 337 128 128" style="enable-background:new -673 337 128 128;" xml:space="preserve">
<style type="text/css">
	.st0{fill:#383838;}
</style>
<path sketch:type="MSShapeGroup" class="st0" d="M-609,386.3c-4.1,0-7.5,1.4-10.5,4.4c-3,2.9-4.4,6.3-4.4,10.2c0,4,1.5,7.4,4.5,10.4
	c3,3,6.5,4.5,10.6,4.5c4.1,0,7.6-1.4,10.5-4.3c2.9-2.9,4.3-6.3,4.3-10.4c0-4.1-1.5-7.4-4.4-10.4C-601.5,387.7-604.9,386.3-609,386.3
	 M-625.5,417.1c-4.6-4.6-6.9-10.1-6.9-16.3c0-6.2,2.3-11.7,7-16.2c4.6-4.5,10.2-6.8,16.5-6.8s11.9,2.3,16.5,6.8c4.6,4.5,7,10,7,16.3
	c0,6.3-2.3,11.8-6.8,16.3c-4.5,4.5-10.1,6.8-16.5,6.8C-615.3,424.1-620.9,421.8-625.5,417.1z M-608.7,360.5
	c-13.5,0-26.1,3.5-37.7,10.6c-11.6,7-20.5,17-26.6,30c6.1,13.1,14.9,23.2,26.4,30.1c11.5,6.9,24,10.4,37.6,10.4s26-3.5,37.6-10.4
	c11.5-6.9,20.3-16.9,26.4-29.8c-6.1-13.1-14.9-23.2-26.3-30.3C-582.7,364-595.2,360.5-608.7,360.5 M-608.7,368.9
	c12,0,22.8,3,32.9,9.3c9,5.6,16,13.1,21.3,23.1c-5.3,9.8-12.3,17.2-21.4,22.7c-10.2,6.2-21.1,9.2-33.1,9.2s-22.9-3-33.1-9.2
	c-9.1-5.5-16.1-13-21.4-22.9c5.3-9.8,12.3-17.3,21.5-22.8C-631.6,371.9-620.7,368.9-608.7,368.9"/>
</svg>
