<?xml version="1.0" encoding="utf-8"?>
<!-- Generator: Adobe Illustrator 19.1.0, SVG Export Plug-In . SVG Version: 6.00 Build 0)  -->
<svg version="1.1" id="Layer_1" xmlns="http://www.w3.org/2000/svg" xmlns:xlink="http://www.w3.org/1999/xlink" x="0px" y="0px"
	 width="64px" height="64px" viewBox="-647 369 64 64" style="enable-background:new -647 369 64 64;" xml:space="preserve">
<style type="text/css">
	.st0{fill:#444444;}
</style>
<path class="st0" d="M-585.3,422.4l-14.3-14.3c-2.1,3.4-4.9,6.2-8.3,8.3l14.3,14.3c2.3,2.3,6,2.3,8.3,0
	C-582.9,428.4-582.9,424.8-585.3,422.4L-585.3,422.4z"/>
<path class="st0" d="M-599.3,393.1c0-13-10.6-23.6-23.6-23.6c-13,0-23.6,10.6-23.6,23.6c0,13,10.6,23.6,23.6,23.6
	C-609.9,416.7-599.3,406.1-599.3,393.1C-599.3,393.1-599.3,393.1-599.3,393.1z M-622.9,410.8c-9.6,0-17.6-7.8-17.6-17.6
	c0-9.6,7.8-17.6,17.6-17.6c9.6,0,17.6,7.8,17.6,17.6C-605.2,403-613,410.8-622.9,410.8L-622.9,410.8z"/>
<path class="st0" d="M-636.7,393.1h3.9c0-5.4,4.4-9.9,9.9-9.9v-3.9C-630.4,379.4-636.7,385.6-636.7,393.1L-636.7,393.1z"/>
</svg>
