<?xml version="1.0" encoding="utf-8"?>
<!-- Generator: Adobe Illustrator 19.1.0, SVG Export Plug-In . SVG Version: 6.00 Build 0)  -->
<svg version="1.1" id="Layer_1" xmlns:sketch="http://www.bohemiancoding.com/sketch/ns"
	 xmlns="http://www.w3.org/2000/svg" xmlns:xlink="http://www.w3.org/1999/xlink" x="0px" y="0px" width="128px" height="128px"
	 viewBox="-575 337 128 128" style="enable-background:new -575 337 128 128;" xml:space="preserve">
<style type="text/css">
	.st0{fill:#383838;}
</style>
<path sketch:type="MSShapeGroup" class="st0" d="M-469.4,449.6c-4.7,4.7-11.1,7.2-18,7c-7-0.2-13.7-3.1-18.8-8.2l-19.3-19.3
	l17.8-17.8l17.8-17.8l19.3,19.3c5.1,5.1,8,11.8,8.2,18.8C-462.2,438.5-464.7,445-469.4,449.6L-469.4,449.6z M-547,407.5l14.8-14.8
	l15.5,15.5l-14.8,14.8L-547,407.5z M-495.9,387.5l-14.8,14.8l-15.5-15.5l14.8-14.8L-495.9,387.5z M-464.6,406.8l-22.3-22.3
	l-24.6-24.6l-20.8,20.8c-3.9-3.9-4.2-10.9-0.2-14.9l0,0c3.2-3.2,5-7.4,5-11.9s-1.7-8.7-4.9-11.9c-3.2-3.2-7.4-4.9-11.9-4.9
	s-8.7,1.8-11.9,5l-11.9,11.9l6,6l11.9-11.9c1.6-1.6,3.7-2.5,5.9-2.5c2.2,0,4.3,0.8,5.8,2.4c1.5,1.5,2.4,3.6,2.4,5.8
	s-0.9,4.3-2.5,5.9l0,0c-7.3,7.3-7,19.7,0.2,26.9l3-3l-23.8,23.8l24.6,24.6l22.3,22.3c6.6,6.6,15.4,10.4,24.6,10.7c0.3,0,0.7,0,1,0
	c8.9,0,17.1-3.3,23.3-9.5c6.4-6.4,9.7-15,9.5-24.3C-454.1,422.1-457.9,413.4-464.6,406.8L-464.6,406.8z"/>
</svg>
