<?xml version="1.0" encoding="utf-8"?>
<!-- Generator: Adobe Illustrator 19.1.0, SVG Export Plug-In . SVG Version: 6.00 Build 0)  -->
<svg version="1.1" id="Layer_1" xmlns="http://www.w3.org/2000/svg" xmlns:xlink="http://www.w3.org/1999/xlink" x="0px" y="0px"
	 width="64px" height="64px" viewBox="-647 369 64 64" style="enable-background:new -647 369 64 64;" xml:space="preserve">
<style type="text/css">
	.st0{fill:#444444;}
</style>
<path class="st0" d="M-633.9,396.7c5.3,10.2,13,17.9,23.1,23.1l7.7-7.7c1.1-1.1,2.3-1.4,3.6-0.8c3.9,1.3,8.1,2,12.5,2
	c1,0,1.8,0.3,2.5,1c0.7,0.7,1,1.5,1,2.5v12.3c0,1-0.3,1.8-1,2.5s-1.5,1-2.5,1c-16.4,0-30.4-5.8-42.1-17.5s-17.5-25.7-17.5-42.1
	c0-1,0.3-1.8,1-2.5s1.5-1,2.5-1h12.3c1,0,1.8,0.3,2.5,1s1,1.5,1,2.5c0,4.4,0.7,8.5,2,12.5c0.4,1.4,0.2,2.6-0.8,3.6L-633.9,396.7z"/>
</svg>
