<?xml version="1.0" encoding="utf-8"?>
<!-- Generator: Adobe Illustrator 19.1.0, SVG Export Plug-In . SVG Version: 6.00 Build 0)  -->
<svg version="1.1" id="Layer_1" xmlns="http://www.w3.org/2000/svg" xmlns:xlink="http://www.w3.org/1999/xlink" x="0px" y="0px"
	 width="64px" height="64px" viewBox="-647 369 64 64" style="enable-background:new -647 369 64 64;" xml:space="preserve">
<style type="text/css">
	.st0{fill:#444444;}
</style>
<path class="st0" d="M-599.2,404.1v-6.2h-12.7v-12.7h-6.2v12.7h-12.7v6.2h12.7v12.7h6.2v-12.7C-611.9,404.1-599.2,404.1-599.2,404.1
	z M-615,369.5c8.7,0,16.1,3.1,22.3,9.2c6.2,6.2,9.2,13.6,9.2,22.3s-3.1,16.1-9.2,22.3s-13.6,9.2-22.3,9.2s-16.1-3.1-22.3-9.2
	s-9.2-13.6-9.2-22.3c0-8.7,3.1-16.1,9.2-22.3C-631.1,372.6-623.7,369.5-615,369.5z"/>
</svg>
