<?xml version="1.0" encoding="utf-8"?>
<!-- Generator: Adobe Illustrator 19.1.0, SVG Export Plug-In . SVG Version: 6.00 Build 0)  -->
<svg version="1.1" id="Layer_1" xmlns:sketch="http://www.bohemiancoding.com/sketch/ns"
	 xmlns="http://www.w3.org/2000/svg" xmlns:xlink="http://www.w3.org/1999/xlink" x="0px" y="0px" width="128px" height="128px"
	 viewBox="-673 337 128 128" style="enable-background:new -673 337 128 128;" xml:space="preserve">
<style type="text/css">
	.st0{fill:#383838;}
</style>
<path sketch:type="MSShapeGroup" class="st0" d="M-608.5,405.3c-2,0-4-0.5-5.6-1.5l-54.6-33.9l4.5-7.3l54.6,33.9
	c0.5,0.3,1.8,0.3,2.3,0l53.6-33.8l4.5,7.3l-53.6,33.8C-604.5,404.8-606.5,405.3-608.5,405.3 M-664.5,371.1L-664.5,371.1v59.8
	c0,2.3,1.9,4.2,4.3,4.2h102.4c2.4,0,4.3-1.9,4.3-4.2v-59.8c0-2.3-1.9-4.2-4.3-4.2h-102.4C-662.6,366.9-664.5,368.8-664.5,371.1
	L-664.5,371.1z M-673,371.1c0-7.1,5.7-12.8,12.8-12.8h102.4c7.1,0,12.8,5.7,12.8,12.8v59.8c0,7.1-5.7,12.8-12.8,12.8h-102.4
	c-7.1,0-12.8-5.7-12.8-12.8V371.1L-673,371.1z"/>
</svg>
