<?xml version="1.0" encoding="utf-8"?>
<!-- Generator: Adobe Illustrator 19.1.0, SVG Export Plug-In . SVG Version: 6.00 Build 0)  -->
<svg version="1.1" id="Layer_1" xmlns:sketch="http://www.bohemiancoding.com/sketch/ns"
	 xmlns="http://www.w3.org/2000/svg" xmlns:xlink="http://www.w3.org/1999/xlink" x="0px" y="0px" width="128px" height="128px"
	 viewBox="-673 337 128 128" style="enable-background:new -673 337 128 128;" xml:space="preserve">
<style type="text/css">
	.st0{fill:#383838;}
</style>
<path sketch:type="MSShapeGroup" class="st0" d="M-553.5,426.6h-5.8c-2.4-5-7.5-8.5-13.4-8.5s-11,3.5-13.4,8.5h-5.8v-46.9h12.8v17.1
	v4.3v4.3h25.6V426.6z M-566.7,435.1c-0.9,2.5-3.2,4.3-6,4.3s-5.1-1.8-6-4.3c-0.2-0.7-0.4-1.4-0.4-2.1c0-3.5,2.9-6.4,6.4-6.4
	c3.5,0,6.4,2.9,6.4,6.4C-566.3,433.8-566.5,434.5-566.7,435.1L-566.7,435.1z M-570.6,384.2l10.7,12.5h-10.7V384.2z M-600.5,371.1
	v55.5h-35.6c-2.4-5-7.5-8.5-13.4-8.5s-11,3.5-13.4,8.5h-1.5v-64h64V371.1z M-643.5,435.1c-0.9,2.5-3.2,4.3-6,4.3s-5.1-1.8-6-4.3
	c-0.2-0.7-0.4-1.4-0.4-2.1c0-3.5,2.9-6.4,6.4-6.4c3.5,0,6.4,2.9,6.4,6.4C-643.1,433.8-643.3,434.5-643.5,435.1L-643.5,435.1z
	 M-570.6,371.1h-21.3v-17.1H-673v81.1h8.7c1,7.2,7.2,12.8,14.7,12.8s13.7-5.6,14.7-12.8h34.3h8.5h4.5c1,7.2,7.2,12.8,14.7,12.8
	s13.7-5.6,14.7-12.8h13V401L-570.6,371.1z"/>
</svg>
