<?xml version="1.0" encoding="utf-8"?>
<!-- Generator: Adobe Illustrator 19.1.0, SVG Export Plug-In . SVG Version: 6.00 Build 0)  -->
<svg version="1.1" id="Layer_1" xmlns:sketch="http://www.bohemiancoding.com/sketch/ns"
	 xmlns="http://www.w3.org/2000/svg" xmlns:xlink="http://www.w3.org/1999/xlink" x="0px" y="0px" width="128px" height="128px"
	 viewBox="-97 1 128 128" style="enable-background:new -97 1 128 128;" xml:space="preserve">
<style type="text/css">
	.st0{fill:#383838;}
</style>
<title>Desktop</title>
<desc>Created with Sketch.</desc>
<g id="Iconography-Board" sketch:type="MSPage">
	<g id="Desktop" transform="translate(-900.000000, -908.000000)" sketch:type="MSArtboardGroup">
		<g transform="translate(900.000000, 908.000000)" sketch:type="MSLayerGroup">
			<path sketch:type="MSShapeGroup" class="st0" d="M-88.5,86.3l0-64h111l0,64L-88.5,86.3z M22.5,13.8h-111c-4.7,0-8.5,3.8-8.5,8.5
				v64c0,4.7,3.8,8.5,8.5,8.5h51.2v12.8h-21.3c-2.4,0-4.3,1.9-4.3,4.3s1.9,4.3,4.3,4.3h51.2c2.4,0,4.3-1.9,4.3-4.3s-1.9-4.3-4.3-4.3
				h-21.3V94.9h51.2c4.7,0,8.5-3.8,8.5-8.5v-64C31,17.6,27.2,13.8,22.5,13.8L22.5,13.8z"/>
		</g>
	</g>
</g>
</svg>
