<?xml version="1.0" encoding="utf-8"?>
<!-- Generator: Adobe Illustrator 19.1.0, SVG Export Plug-In . SVG Version: 6.00 Build 0)  -->
<svg version="1.1" id="Layer_1" xmlns:sketch="http://www.bohemiancoding.com/sketch/ns"
	 xmlns="http://www.w3.org/2000/svg" xmlns:xlink="http://www.w3.org/1999/xlink" x="0px" y="0px" width="128px" height="128px"
	 viewBox="-97 1 128 128" style="enable-background:new -97 1 128 128;" xml:space="preserve">
<style type="text/css">
	.st0{fill:#383838;}
</style>
<title>Aeroplane</title>
<desc>Created with Sketch.</desc>
<g id="Iconography-Board" sketch:type="MSPage">
	<g id="Aeroplane" transform="translate(-100.000000, -845.000000)" sketch:type="MSArtboardGroup">
		<g transform="translate(100.000000, 845.000000)" sketch:type="MSLayerGroup">
			<path sketch:type="MSShapeGroup" class="st0" d="M19.8,1C13.9,1,8.7,3.3,4,8l-26.3,26.4c-4-0.2-10.5-0.5-19.6-1.1
				c-9.1-0.6-17-1.1-23.6-1.6c-6.7-0.5-10.2-0.8-10.5-0.8h-0.5c-2.2,0-4.2,0.8-6,2.5l-9.3,8.3c-1.5,1.5-2.2,3.2-2,5
				c0.2,1.8,1.3,3.2,3.2,4c5.3,2,18,6.7,38,14.1l-15.8,16.3h-2.5h-8.4H-86h-1c-2.2,0-4.7,1.3-7.8,3.8l-0.2,0.3c-1.2,1.2-1.8,2.5-2,4
				c0,1.5,0.6,2.7,1.7,3.5c2,1.7,9.2,6.2,21.5,13.6c0.8,1.3,3.1,5.1,6.9,11.3c3.8,6.2,5.7,9.4,5.9,9.5c0.8,1.3,2,2,3.5,2h0.2
				c1.5,0,3-0.8,4.5-2.3c2.3-2.7,3.5-5.3,3.5-7.8v-8.5v-10l16.5-15.6c7.3,20.2,11.9,32.8,13.8,37.6c0.8,2,2.2,3.1,4,3.3h0.5
				c1.7,0,3.3-0.7,4.7-2c3.8-4,6.5-7,8.1-9c1.6-2,2.4-4.3,2.4-6.8c0-0.3-0.2-3.8-0.6-10.5c-0.4-6.7-0.9-14.5-1.5-23.5
				c-0.6-9-1-15.5-1.1-19.7l26.3-26.4c3-2.8,5-6,6.1-9.5c1.1-3.5,1.4-6.5,0.9-9c-0.5-2.5-1.3-4.3-2.5-5.5C26.4,1.9,23.6,1,19.8,1
				 M19.8,9.5c1.3,0,2,0.2,2.3,0.2c0.1,0.2,0.2,0.6,0.3,1.2c0.1,0.5,0.2,2-0.7,4.9c-0.6,2.1-1.9,4-3.8,5.9l-0.1,0.1l-0.1,0.1
				L-8.5,48.2l-2.6,2.6l0.1,3.7c0.2,4.2,0.6,10.9,1.1,19.9c0.6,8.9,1.1,16.8,1.5,23.4c0.4,6.1,0.6,9.5,0.6,10c0,0.5-0.1,0.9-0.5,1.5
				c-0.7,0.9-2,2.5-4.5,5.1c-2.4-6.5-6.4-17.4-11.9-32.6l-4.4-12.2l-9.5,8.9l-16.5,15.6l-2.7,2.5v3.7v10l0,5.6
				c-0.5-0.9-1.1-1.8-1.8-3c-3.8-6.2-6.1-10-6.9-11.4l-1.1-1.8l-1.8-1.1c-7.4-4.4-12.1-7.3-15.1-9.2h5.4h8.4h2.5h3.6l2.5-2.6
				l15.7-16.3l9.1-9.4l-12.3-4.5c-15-5.5-26-9.6-32.7-12.1l5.6-5c0.2-0.2,0.3-0.3,0.3-0.3h0.3c0.5,0,2.4,0.2,10,0.7
				c6.7,0.5,14.6,1,23.7,1.6c9.1,0.6,15.8,1,19.8,1.1l3.8,0.2l2.6-2.7l26.3-26.4C13.1,11,16.2,9.5,19.8,9.5"/>
		</g>
	</g>
</g>
</svg>
