<?xml version="1.0" encoding="utf-8"?>
<!-- Generator: Adobe Illustrator 19.1.0, SVG Export Plug-In . SVG Version: 6.00 Build 0)  -->
<svg version="1.1" id="Layer_1" xmlns:sketch="http://www.bohemiancoding.com/sketch/ns"
	 xmlns="http://www.w3.org/2000/svg" xmlns:xlink="http://www.w3.org/1999/xlink" x="0px" y="0px" width="128px" height="128px"
	 viewBox="-683 337 128 128" style="enable-background:new -683 337 128 128;" xml:space="preserve">
<style type="text/css">
	.st0{fill:#383838;}
</style>
<path sketch:type="MSShapeGroup" class="st0" d="M-661.7,381.9c0,32.1,42.6,83.1,42.6,83.1s42.9-51.1,42.8-83.1
	c-0.1-24.8-19.1-44.9-42.7-44.9C-642.6,337-661.7,357.1-661.7,381.9z M-619,345.5c18.7,0,34,16.3,34.1,36.4
	c0.1,19.9-20.7,51.4-34.2,69.1c-13.4-17.7-34.1-49.2-34.1-69.1C-653.1,361.8-637.8,345.5-619,345.5 M-619,371.1
	c4.7,0,8.5,3.8,8.5,8.5c0,4.7-3.8,8.5-8.5,8.5c-4.7,0-8.5-3.8-8.5-8.5C-627.5,374.9-623.7,371.1-619,371.1L-619,371.1z M-619,362.6
	c-9.5,0-17.1,7.6-17.1,17.1c0,9.4,7.6,17.1,17.1,17.1c9.5,0,17.1-7.6,17.1-17.1C-601.9,370.2-609.5,362.6-619,362.6L-619,362.6z"/>
</svg>
