<?xml version="1.0" encoding="utf-8"?>
<!-- Generator: Adobe Illustrator 19.1.0, SVG Export Plug-In . SVG Version: 6.00 Build 0)  -->
<svg version="1.1" id="Layer_1" xmlns="http://www.w3.org/2000/svg" xmlns:xlink="http://www.w3.org/1999/xlink" x="0px" y="0px"
	 width="64px" height="64px" viewBox="-647 369 64 64" style="enable-background:new -647 369 64 64;" xml:space="preserve">
<style type="text/css">
	.st0{fill:#444444;}
</style>
<path class="st0" d="M-618.1,391.5v-6.4h6.2v6.4H-618.1z M-615,426.3c6.9,0,12.8-2.5,17.8-7.5c5-5,7.5-10.9,7.5-17.8
	s-2.5-12.8-7.5-17.8c-5-5-10.9-7.5-17.8-7.5s-12.8,2.5-17.8,7.5s-7.5,10.9-7.5,17.8s2.5,12.8,7.5,17.8
	C-627.8,423.8-621.9,426.3-615,426.3z M-615,369.5c8.7,0,16.1,3.1,22.3,9.2c6.2,6.2,9.2,13.6,9.2,22.3s-3.1,16.1-9.2,22.3
	s-13.6,9.2-22.3,9.2s-16.1-3.1-22.3-9.2s-9.2-13.6-9.2-22.3c0-8.7,3.1-16.1,9.2-22.3C-631.1,372.6-623.7,369.5-615,369.5z
	 M-618.1,416.8v-18.9h6.2v18.9H-618.1z"/>
</svg>
