<?xml version="1.0" encoding="utf-8"?>
<!-- Generator: Adobe Illustrator 19.1.0, SVG Export Plug-In . SVG Version: 6.00 Build 0)  -->
<svg version="1.1" id="Layer_1" xmlns:sketch="http://www.bohemiancoding.com/sketch/ns"
	 xmlns="http://www.w3.org/2000/svg" xmlns:xlink="http://www.w3.org/1999/xlink" x="0px" y="0px" width="128px" height="128px"
	 viewBox="-673 337 128 128" style="enable-background:new -673 337 128 128;" xml:space="preserve">
<style type="text/css">
	.st0{fill:#383838;}
</style>
<path sketch:type="MSShapeGroup" class="st0" d="M-548.9,337h-52.7c-1.4,0-3.1,0.7-4,1.7l-66.2,66.2c-0.7,0.7-1.1,1.7-1.1,2.8
	c0,1,0.4,2,1.1,2.8l53.4,53.4c0.7,0.7,1.7,1.1,2.8,1.1c1,0,2-0.4,2.8-1.1l66.2-66.2c1-1,1.7-2.7,1.7-4v-52.7
	C-545,338.8-546.8,337-548.9,337 M-553.5,345.5v46.9l-62.1,62.1l-46.9-46.9l62.1-62.1H-553.5 M-576.8,353.3c-3.9,0-7.7,1.4-10.6,4.3
	c-5.8,5.9-5.8,15.4,0,21.2c2.8,2.8,6.6,4.4,10.6,4.4c4,0,7.7-1.6,10.6-4.4c2.8-2.8,4.4-6.6,4.4-10.6c0-4-1.5-7.8-4.4-10.6
	C-569,354.7-572.9,353.3-576.8,353.3 M-576.8,361.8c1.8,0,3.4,0.6,4.5,1.8c1.2,1.2,1.9,2.8,1.9,4.6c0,1.8-0.6,3.3-1.9,4.6
	c-1.2,1.2-2.8,1.9-4.5,1.9c-1.7,0-3.3-0.6-4.5-1.9c-2.5-2.5-2.5-6.7,0-9.2C-580.2,362.4-578.6,361.8-576.8,361.8"/>
</svg>
