<?xml version="1.0" encoding="utf-8"?>
<!-- Generator: Adobe Illustrator 19.1.0, SVG Export Plug-In . SVG Version: 6.00 Build 0)  -->
<svg version="1.1" id="Layer_1" xmlns:sketch="http://www.bohemiancoding.com/sketch/ns"
	 xmlns="http://www.w3.org/2000/svg" xmlns:xlink="http://www.w3.org/1999/xlink" x="0px" y="0px" width="128px" height="128px"
	 viewBox="0 0 128 128" style="enable-background:new 0 0 128 128;" xml:space="preserve">
<style type="text/css">
	.st0{fill:#383838;}
</style>
<title>Store Finder (Menu)</title>
<desc>Created with Sketch.</desc>
<g id="Iconography-Board_1_" sketch:type="MSPage">
	<g id="Store-Finder-_x28_Menu_x29_" transform="translate(-96.000000, -1405.000000)" sketch:type="MSArtboardGroup">
		<g transform="translate(96.000000, 1405.000000)" sketch:type="MSLayerGroup">
			<path sketch:type="MSShapeGroup" class="st0" d="M21-6c0,30.6,40.8,79.6,40.8,79.6S102.9,24.7,102.7-6c-0.1-23.7-18.3-43-40.9-43
				C39.4-49,21-29.6,21-6z M61.8-40.7c18,0,32.7,15.5,32.7,34.8c0.1,19-19.9,49.2-32.7,66.1C48.9,43.2,29.2,13,29.2-6.1
				S43.8-40.7,61.8-40.7 M61.8-16.2c4.5,0,8.1,3.6,8.1,8.1S66.3,0,61.8,0s-8.1-3.5-8.1-8.1S57.3-16.2,61.8-16.2L61.8-16.2z
				 M61.8-24.4c-9,0-16.4,7.2-16.4,16.3c0,9,7.3,16.4,16.4,16.4c9,0,16.4-7.3,16.4-16.4C78.2-17.1,71-24.4,61.8-24.4L61.8-24.4z
				 M2.7,106.6h3.6c0-1.6-0.3-3-0.9-4.2s-1.3-2.2-2.3-2.9c-1-0.7-2-1.3-3.3-1.7c-1.3-0.3-2.6-0.6-4.2-0.6c-1.3,0-2.6,0.1-3.9,0.6
				c-1.3,0.3-2.5,0.9-3.3,1.6c-1,0.7-1.7,1.6-2.3,2.6c-0.6,1-0.9,2.3-0.9,3.8c0,1.3,0.3,2.5,0.7,3.3c0.4,0.9,1.3,1.6,2.2,2.2
				c0.9,0.6,1.9,1,3,1.3c1.2,0.3,2.3,0.6,3.5,0.9c1.2,0.3,2.3,0.6,3.5,0.7c1.2,0.3,2.2,0.6,3,1c0.9,0.4,1.6,0.9,2.2,1.6
				c0.6,0.6,0.7,1.4,0.7,2.4s-0.3,1.9-0.7,2.6s-1,1.2-1.7,1.6c-0.7,0.4-1.5,0.7-2.3,0.9s-1.7,0.3-2.6,0.3c-1.2,0-2.2-0.1-3.2-0.4
				c-1-0.3-1.9-0.7-2.8-1.3c-0.9-0.6-1.5-1.3-1.9-2.2c-0.4-0.9-0.7-1.9-0.7-3.2h-3.9c0,1.7,0.3,3.3,1,4.6c0.6,1.3,1.5,2.3,2.6,3.2
				c1.2,0.9,2.3,1.5,3.8,1.9s3,0.6,4.6,0.6c1.3,0,2.6-0.1,4.1-0.4c1.5-0.3,2.6-0.9,3.6-1.5s2-1.6,2.6-2.8c0.7-1.2,1-2.5,1-3.9
				c0-1.4-0.3-2.6-0.7-3.6c-0.6-1-1.3-1.7-2.2-2.3c-0.9-0.6-1.9-1.2-3-1.5c-1.2-0.4-2.3-0.7-3.5-1s-2.3-0.6-3.5-0.7
				c-1.2-0.1-2.2-0.6-3-0.9c-0.7-0.4-1.6-0.9-2.2-1.3c-0.6-0.6-0.7-1.3-0.7-2.2c0-1,0.1-1.7,0.6-2.3c0.4-0.6,0.9-1.2,1.5-1.6
				c0.6-0.4,1.3-0.7,2-0.9s1.6-0.3,2.5-0.3c2,0,3.6,0.4,4.9,1.5C2,103,2.6,104.3,2.7,106.6L2.7,106.6z M19,101.2V127h3.9v-25.8h9.7
				v-3.3H9.3v3.3H19z M38.1,112.6c0-1.5,0.1-2.9,0.6-4.4c0.4-1.5,1-2.8,1.7-3.9c0.9-1.2,1.9-2,3.2-2.8s2.8-1,4.6-1
				c1.7,0,3.3,0.3,4.6,1c1.3,0.7,2.3,1.6,3.2,2.8c0.9,1.2,1.5,2.5,1.7,3.9c0.4,1.5,0.6,2.9,0.6,4.4s-0.1,2.9-0.6,4.4s-1,2.8-1.7,3.9
				c-0.9,1.2-1.9,2-3.2,2.8c-1.3,0.7-2.8,1-4.6,1c-1.7,0-3.3-0.3-4.6-1s-2.3-1.6-3.2-2.8c-0.8-1.2-1.5-2.5-1.7-3.9
				C38.3,115.5,38.1,114,38.1,112.6L38.1,112.6z M34.2,112.6c0,2,0.3,3.9,0.9,5.8c0.6,1.9,1.5,3.5,2.6,4.9c1.2,1.5,2.6,2.6,4.4,3.3
				c1.7,0.7,3.8,1.3,6.1,1.3s4.4-0.4,6.1-1.3c1.7-0.9,3.2-1.9,4.4-3.3c1.2-1.5,2-3,2.6-4.9s0.9-3.8,0.9-5.8s-0.3-3.9-0.9-5.8
				s-1.5-3.5-2.6-4.9c-1.1-1.4-2.6-2.6-4.4-3.3c-1.7-0.9-3.8-1.3-6.1-1.3s-4.4,0.4-6.1,1.3c-1.8,0.9-3.2,2-4.4,3.3
				c-1.2,1.5-2,3-2.6,4.9S34.2,110.7,34.2,112.6L34.2,112.6z M66.9,97.9v29.2h3.9v-12.5h9.4c1,0,1.7,0.1,2.3,0.4
				c0.6,0.3,1,0.7,1.5,1.2c0.3,0.4,0.6,1,0.7,1.7c0.1,0.6,0.3,1.3,0.4,2s0.3,1.5,0.3,2.2s0,1.5,0.1,2c0,0.6,0.1,1.2,0.1,1.7
				c0.1,0.6,0.3,0.9,0.6,1.2h4.4c-0.4-0.4-0.7-1-0.9-1.7c-0.1-0.6-0.3-1.3-0.4-2s-0.1-1.5-0.1-2.2s0-1.5-0.1-2.2s-0.1-1.5-0.3-2
				c-0.1-0.7-0.4-1.3-0.7-1.7c-0.3-0.6-0.7-1-1.3-1.3c-0.6-0.4-1.2-0.7-2-0.9v-0.1c1.7-0.4,3-1.5,3.9-2.8c0.9-1.3,1.2-2.9,1.2-4.6
				c0-2.3-0.7-4.2-2.3-5.7c-1.6-1.3-3.8-2-6.5-2h-14V97.9z M78.8,111.4h-8.1v-10.2h9.6c1.9,0,3.2,0.4,3.9,1.5
				c0.9,0.9,1.2,2.2,1.2,3.6c0,1-0.1,1.9-0.6,2.6c-0.4,0.7-0.9,1.2-1.5,1.6s-1.3,0.7-2.2,0.7C80.6,111.4,79.8,111.4,78.8,111.4
				L78.8,111.4z M94.9,97.9v29.2h20.3v-3.3H98.7v-10.2h15.1v-3.3H98.7V101H115v-3.3H95L94.9,97.9L94.9,97.9L94.9,97.9z M136.8,106.6
				h3.6c0-1.6-0.3-3-0.9-4.2c-0.6-1.2-1.3-2.2-2.3-2.9c-1-0.7-2-1.3-3.3-1.7c-1.3-0.3-2.6-0.6-4.2-0.6c-1.3,0-2.6,0.1-3.9,0.6
				c-1.3,0.3-2.5,0.9-3.3,1.6c-1,0.7-1.7,1.6-2.3,2.6c-0.6,1-0.9,2.3-0.9,3.8c0,1.3,0.3,2.5,0.7,3.3c0.4,0.9,1.3,1.6,2.2,2.2
				c0.9,0.6,1.9,1,3,1.3c1.2,0.3,2.3,0.6,3.5,0.9c1.2,0.3,2.3,0.6,3.5,0.7c1.2,0.3,2.2,0.6,3,1c0.9,0.4,1.6,0.9,2.2,1.6
				c0.6,0.6,0.7,1.5,0.7,2.5s-0.3,1.9-0.7,2.6c-0.4,0.7-1,1.2-1.7,1.6c-0.7,0.4-1.5,0.7-2.3,0.9s-1.7,0.3-2.6,0.3
				c-1.2,0-2.2-0.1-3.2-0.4c-1-0.3-1.9-0.7-2.8-1.3c-0.7-0.6-1.5-1.3-1.9-2.2s-0.7-1.9-0.7-3.2h-3.6c0,1.7,0.3,3.3,1,4.6
				c0.6,1.3,1.5,2.3,2.6,3.2c1.2,0.9,2.3,1.5,3.8,1.9s3,0.6,4.6,0.6c1.3,0,2.6-0.1,4.1-0.4c1.3-0.3,2.6-0.9,3.6-1.5
				c1.2-0.7,2-1.6,2.6-2.8c0.7-1.2,1-2.5,1-3.9s-0.3-2.6-0.7-3.6c-0.6-1-1.3-1.7-2.2-2.3s-1.9-1.2-3-1.5c-1.2-0.4-2.3-0.7-3.5-1
				s-2.3-0.6-3.5-0.7c-1.2-0.3-2.2-0.6-3-0.9c-0.9-0.3-1.6-0.9-2.2-1.3c-0.6-0.6-0.7-1.3-0.7-2.2c0-1,0.1-1.7,0.6-2.3
				c0.4-0.6,0.9-1.2,1.5-1.6s1.3-0.7,2-0.9s1.6-0.3,2.5-0.3c2,0,3.6,0.4,4.9,1.5C135.6,103,136.5,104.3,136.8,106.6L136.8,106.6z"/>
		</g>
	</g>
</g>
</svg>
