<?xml version="1.0" encoding="utf-8"?>
<!-- Generator: Adobe Illustrator 19.1.0, SVG Export Plug-In . SVG Version: 6.00 Build 0)  -->
<svg version="1.1" id="Layer_1" xmlns="http://www.w3.org/2000/svg" xmlns:xlink="http://www.w3.org/1999/xlink" x="0px" y="0px"
	 width="64px" height="64px" viewBox="-647 369 64 64" style="enable-background:new -647 369 64 64;" xml:space="preserve">
<style type="text/css">
	.st0{fill:#444444;}
</style>
<path class="st0" d="M-583.5,424.1h-12.6v-12.6h12.6V424.1z M-595,422.7h9.8v-9.8h-9.8V422.7z M-600.3,424.1h-12.6v-12.6h12.6V424.1
	z M-611.8,422.7h9.8v-9.8h-9.8V422.7z M-617.1,424.1h-12.6v-12.6h12.6V424.1z M-628.6,422.7h9.8v-9.8h-9.8V422.7z M-633.9,424.1
	h-12.6v-12.6h12.6V424.1z M-645.4,422.7h9.8v-9.8h-9.8V422.7z M-583.5,407.3h-12.6v-12.6h12.6V407.3z M-595,405.9h9.8v-9.8h-9.8
	V405.9z M-600.3,407.3h-12.6v-12.6h12.6V407.3z M-611.8,405.9h9.8v-9.8h-9.8V405.9z M-617.1,407.3h-12.6v-12.6h12.6V407.3z
	 M-628.6,405.9h9.8v-9.8h-9.8V405.9z M-633.9,407.3h-12.6v-12.6h12.6V407.3z M-645.4,405.9h9.8v-9.8h-9.8V405.9z M-600.3,390.5
	h-12.6v-12.6h12.6V390.5z M-611.8,389.1h9.8v-9.8h-9.8V389.1z M-617.1,390.5h-12.6v-12.6h12.6V390.5z M-628.6,389.1h9.8v-9.8h-9.8
	V389.1z M-633.9,390.5h-12.6v-12.6h12.6V390.5z M-645.4,389.1h9.8v-9.8h-9.8V389.1z M-583.5,390.5h-12.6v-12.6h12.6V390.5z
	 M-595,389.1h9.8v-9.8h-9.8V389.1z"/>
</svg>
