<?xml version="1.0" encoding="utf-8"?>
<!-- Generator: Adobe Illustrator 19.1.0, SVG Export Plug-In . SVG Version: 6.00 Build 0)  -->
<svg version="1.1" id="Layer_1" xmlns:sketch="http://www.bohemiancoding.com/sketch/ns"
	 xmlns="http://www.w3.org/2000/svg" xmlns:xlink="http://www.w3.org/1999/xlink" x="0px" y="0px" width="128px" height="128px"
	 viewBox="-88.5 1 128 128" style="enable-background:new -88.5 1 128 128;" xml:space="preserve">
<style type="text/css">
	.st0{fill:#383838;}
</style>
<title>Store Finder (Menu)</title>
<desc>Created with Sketch.</desc>
<g id="Iconography-Board" sketch:type="MSPage">
	<g id="Store-Finder-_x28_Menu_x29_" transform="translate(-96.000000, -1405.000000)" sketch:type="MSArtboardGroup">
		<g transform="translate(96.000000, 1405.000000)" sketch:type="MSLayerGroup">
			<path sketch:type="MSShapeGroup" class="st0" d="M-53.6,30.3c0,21.1,28.1,54.8,28.1,54.8S2.8,51.5,2.7,30.3
				C2.6,14-9.9,0.7-25.5,0.7C-41,0.7-53.6,14-53.6,30.3z M-25.5,6.4C-13.1,6.4-3,17.1-3,30.4c0.1,13.1-13.7,33.9-22.6,45.6
				C-34.4,64.3-48,43.5-48,30.3C-48,17.1-37.9,6.4-25.5,6.4 M-25.5,23.3c3.1,0,5.6,2.5,5.6,5.6c0,3.1-2.5,5.6-5.6,5.6
				c-3.1,0-5.6-2.5-5.6-5.6C-31.1,25.8-28.6,23.3-25.5,23.3L-25.5,23.3z M-25.5,17.6c-6.2,0-11.3,5-11.3,11.3
				c0,6.2,5,11.3,11.3,11.3c6.2,0,11.3-5,11.3-11.3C-14.2,22.7-19.2,17.6-25.5,17.6L-25.5,17.6z M-66.2,114.1h2.5
				c0-1.1-0.2-2.1-0.6-2.9c-0.4-0.8-0.9-1.5-1.6-2s-1.4-0.9-2.3-1.2c-0.9-0.2-1.8-0.4-2.9-0.4c-0.9,0-1.8,0.1-2.7,0.4
				c-0.9,0.2-1.7,0.6-2.3,1.1c-0.7,0.5-1.2,1.1-1.6,1.8c-0.4,0.7-0.6,1.6-0.6,2.6c0,0.9,0.2,1.7,0.5,2.3s0.9,1.1,1.5,1.5
				c0.6,0.4,1.3,0.7,2.1,0.9c0.8,0.2,1.6,0.4,2.4,0.6c0.8,0.2,1.6,0.4,2.4,0.5c0.8,0.2,1.5,0.4,2.1,0.7c0.6,0.3,1.1,0.6,1.5,1.1
				c0.4,0.4,0.5,1,0.5,1.7c0,0.7-0.2,1.3-0.5,1.8c-0.3,0.5-0.7,0.8-1.2,1.1c-0.5,0.3-1,0.5-1.6,0.6c-0.6,0.1-1.2,0.2-1.8,0.2
				c-0.8,0-1.5-0.1-2.2-0.3c-0.7-0.2-1.3-0.5-1.9-0.9s-1-0.9-1.3-1.5c-0.3-0.6-0.5-1.3-0.5-2.2H-79c0,1.2,0.2,2.3,0.7,3.2
				c0.4,0.9,1,1.6,1.8,2.2c0.8,0.6,1.6,1,2.6,1.3c1,0.3,2.1,0.4,3.2,0.4c0.9,0,1.8-0.1,2.8-0.3s1.8-0.6,2.5-1s1.4-1.1,1.8-1.9
				c0.5-0.8,0.7-1.7,0.7-2.7c0-1-0.2-1.8-0.5-2.5c-0.4-0.7-0.9-1.2-1.5-1.6c-0.6-0.4-1.3-0.8-2.1-1c-0.8-0.3-1.6-0.5-2.4-0.7
				c-0.8-0.2-1.6-0.4-2.4-0.5s-1.5-0.4-2.1-0.6c-0.6-0.2-1.1-0.6-1.5-0.9c-0.4-0.4-0.5-0.9-0.5-1.5c0-0.7,0.1-1.2,0.4-1.6
				c0.3-0.4,0.6-0.8,1-1.1c0.4-0.3,0.9-0.5,1.4-0.6c0.5-0.1,1.1-0.2,1.7-0.2c1.4,0,2.5,0.3,3.4,1C-66.8,111.6-66.3,112.6-66.2,114.1
				L-66.2,114.1z M-55,110.4v17.8h2.7v-17.8h6.7v-2.3h-16.1v2.3H-55z M-41.9,118.2c0-1,0.1-2,0.4-3c0.3-1,0.7-1.9,1.2-2.7
				c0.6-0.8,1.3-1.4,2.2-1.9c0.9-0.5,1.9-0.7,3.2-0.7c1.2,0,2.3,0.2,3.2,0.7c0.9,0.5,1.6,1.1,2.2,1.9c0.6,0.8,1,1.7,1.2,2.7
				c0.3,1,0.4,2,0.4,3c0,1-0.1,2-0.4,3c-0.3,1-0.7,1.9-1.2,2.7c-0.6,0.8-1.3,1.4-2.2,1.9c-0.9,0.5-1.9,0.7-3.2,0.7
				c-1.2,0-2.3-0.2-3.2-0.7c-0.9-0.5-1.6-1.1-2.2-1.9c-0.6-0.8-1-1.7-1.2-2.7C-41.7,120.2-41.9,119.2-41.9,118.2L-41.9,118.2z
				 M-44.5,118.2c0,1.4,0.2,2.7,0.6,4c0.4,1.3,1,2.4,1.8,3.4c0.8,1,1.8,1.8,3,2.3s2.6,0.9,4.2,0.9s3-0.3,4.2-0.9
				c1.2-0.6,2.2-1.3,3-2.3c0.8-1,1.4-2.1,1.8-3.4c0.4-1.3,0.6-2.6,0.6-4c0-1.4-0.2-2.7-0.6-4c-0.4-1.3-1-2.4-1.8-3.4
				c-0.8-1-1.8-1.8-3-2.3c-1.2-0.6-2.6-0.9-4.2-0.9s-3,0.3-4.2,0.9c-1.2,0.6-2.2,1.4-3,2.3c-0.8,1-1.4,2.1-1.8,3.4
				C-44.3,115.5-44.5,116.9-44.5,118.2L-44.5,118.2z M-22,108.2v20.1h2.7v-8.6h6.5c0.7,0,1.2,0.1,1.6,0.3c0.4,0.2,0.7,0.5,1,0.8
				c0.2,0.3,0.4,0.7,0.5,1.2c0.1,0.4,0.2,0.9,0.3,1.4c0.1,0.5,0.2,1,0.2,1.5s0,1,0.1,1.4c0,0.4,0.1,0.8,0.1,1.2
				c0.1,0.4,0.2,0.6,0.4,0.8h3c-0.3-0.3-0.5-0.7-0.6-1.2c-0.1-0.4-0.2-0.9-0.3-1.4c-0.1-0.5-0.1-1-0.1-1.5c0-0.5,0-1-0.1-1.5
				c-0.1-0.5-0.1-1-0.2-1.4c-0.1-0.5-0.3-0.9-0.5-1.2c-0.2-0.4-0.5-0.7-0.9-0.9c-0.4-0.3-0.8-0.5-1.4-0.6v-0.1
				c1.2-0.3,2.1-1,2.7-1.9c0.6-0.9,0.8-2,0.8-3.2c0-1.6-0.5-2.9-1.6-3.9c-1.1-0.9-2.6-1.4-4.5-1.4H-22z M-13.8,117.4h-5.6v-7h6.6
				c1.3,0,2.2,0.3,2.7,1c0.6,0.6,0.8,1.5,0.8,2.5c0,0.7-0.1,1.3-0.4,1.8c-0.3,0.5-0.6,0.8-1,1.1c-0.4,0.3-0.9,0.5-1.5,0.5
				C-12.6,117.4-13.1,117.4-13.8,117.4L-13.8,117.4z M-2.7,108.2v20.1h14V126H-0.1v-7h10.4v-2.3H-0.1v-6.4h11.2v-2.3H-2.7z
				 M26.1,114.1h2.5c0-1.1-0.2-2.1-0.6-2.9c-0.4-0.8-0.9-1.5-1.6-2s-1.4-0.9-2.3-1.2c-0.9-0.2-1.8-0.4-2.9-0.4
				c-0.9,0-1.8,0.1-2.7,0.4c-0.9,0.2-1.7,0.6-2.3,1.1c-0.7,0.5-1.2,1.1-1.6,1.8c-0.4,0.7-0.6,1.6-0.6,2.6c0,0.9,0.2,1.7,0.5,2.3
				s0.9,1.1,1.5,1.5c0.6,0.4,1.3,0.7,2.1,0.9c0.8,0.2,1.6,0.4,2.4,0.6c0.8,0.2,1.6,0.4,2.4,0.5c0.8,0.2,1.5,0.4,2.1,0.7
				c0.6,0.3,1.1,0.6,1.5,1.1c0.4,0.4,0.5,1,0.5,1.7c0,0.7-0.2,1.3-0.5,1.8c-0.3,0.5-0.7,0.8-1.2,1.1c-0.5,0.3-1,0.5-1.6,0.6
				c-0.6,0.1-1.2,0.2-1.8,0.2c-0.8,0-1.5-0.1-2.2-0.3c-0.7-0.2-1.3-0.5-1.9-0.9c-0.5-0.4-1-0.9-1.3-1.5c-0.3-0.6-0.5-1.3-0.5-2.2
				h-2.5c0,1.2,0.2,2.3,0.7,3.2c0.4,0.9,1,1.6,1.8,2.2c0.8,0.6,1.6,1,2.6,1.3c1,0.3,2.1,0.4,3.2,0.4c0.9,0,1.8-0.1,2.8-0.3
				c0.9-0.2,1.8-0.6,2.5-1c0.8-0.5,1.4-1.1,1.8-1.9c0.5-0.8,0.7-1.7,0.7-2.7c0-1-0.2-1.8-0.5-2.5c-0.4-0.7-0.9-1.2-1.5-1.6
				c-0.6-0.4-1.3-0.8-2.1-1c-0.8-0.3-1.6-0.5-2.4-0.7c-0.8-0.2-1.6-0.4-2.4-0.5c-0.8-0.2-1.5-0.4-2.1-0.6c-0.6-0.2-1.1-0.6-1.5-0.9
				c-0.4-0.4-0.5-0.9-0.5-1.5c0-0.7,0.1-1.2,0.4-1.6c0.3-0.4,0.6-0.8,1-1.1s0.9-0.5,1.4-0.6c0.5-0.1,1.1-0.2,1.7-0.2
				c1.4,0,2.5,0.3,3.4,1C25.4,111.6,25.9,112.6,26.1,114.1L26.1,114.1z"/>
		</g>
	</g>
</g>
</svg>
