<?xml version="1.0" encoding="utf-8"?>
<!-- Generator: Adobe Illustrator 19.1.0, SVG Export Plug-In . SVG Version: 6.00 Build 0)  -->
<svg version="1.1" id="Layer_1" xmlns:sketch="http://www.bohemiancoding.com/sketch/ns"
	 xmlns="http://www.w3.org/2000/svg" xmlns:xlink="http://www.w3.org/1999/xlink" x="0px" y="0px" width="128px" height="128px"
	 viewBox="-673 337 128 128" style="enable-background:new -673 337 128 128;" xml:space="preserve">
<style type="text/css">
	.st0{fill:#383838;}
</style>
<path sketch:type="MSShapeGroup" class="st0" d="M-557,449c0,2.2-1.8,4-4,4h-96c-2.2,0-4-1.8-4-4v-60h16c-2.1,3-2.8,8.6-2.8,12.1
	c0,21.4,17.5,38.8,38.9,38.8c21.5,0,38.9-17.4,38.9-38.8c0-3.6-0.5-9.1-3.1-12.1h16V449z M-608.9,376.6c13.6,0,24.6,11,24.6,24.6
	c0,13.6-11,24.6-24.6,24.6c-13.6,0-24.6-11-24.6-24.6C-633.5,387.6-622.4,376.6-608.9,376.6L-608.9,376.6z M-581,357
	c0-2.2,1.8-4,4-4h12c2.2,0,4,1.8,4,4v12c0,2.2-1.8,4-4,4h-12c-2.2,0-4-1.8-4-4V357z M-560.2,337h-97.6c-8.4,0-15.2,6.8-15.2,15.2
	v97.6c0,8.4,6.8,15.2,15.2,15.2h97.6c8.4,0,15.2-6.8,15.2-15.2v-97.6C-545,343.8-551.8,337-560.2,337L-560.2,337z"/>
</svg>
