<?xml version="1.0" encoding="utf-8"?>
<!-- Generator: Adobe Illustrator 19.1.0, SVG Export Plug-In . SVG Version: 6.00 Build 0)  -->
<svg version="1.1" id="Layer_1" xmlns:sketch="http://www.bohemiancoding.com/sketch/ns"
	 xmlns="http://www.w3.org/2000/svg" xmlns:xlink="http://www.w3.org/1999/xlink" x="0px" y="0px" width="128px" height="128px"
	 viewBox="0 0 128 128" style="enable-background:new 0 0 128 128;" xml:space="preserve">
<style type="text/css">
	.st0{fill:#383838;}
</style>
<title>Mobile</title>
<desc>Created with Sketch.</desc>
<g id="Iconography-Board" sketch:type="MSPage">
	<g id="Mobile" transform="translate(-106.000000, -905.000000)" sketch:type="MSArtboardGroup">
		<g transform="translate(106.000000, 905.000000)" sketch:type="MSLayerGroup">
			<path sketch:type="MSShapeGroup" class="st0" d="M37.7,0c-3.4,0-6.2,1.2-8.6,3.5s-3.5,5.2-3.5,8.5v104c0,3.3,1.2,6.2,3.5,8.5
				c2.4,2.3,5.2,3.5,8.6,3.5h52.6c3.4,0,6.2-1.2,8.6-3.5c2.4-2.3,3.5-5.2,3.5-8.5V12c0-3.3-1.2-6.2-3.5-8.5C96.5,1.2,93.7,0,90.3,0
				H37.7z M92.9,9.6c0.7,0.7,1,1.4,1,2.4v104c0,1-0.3,1.7-1,2.4c-0.8,0.8-1.4,1-2.6,1H37.7c-1.1,0-1.8-0.3-2.6-1
				c-0.7-0.7-1-1.4-1-2.4V12c0-1.1,0.3-1.7,1-2.4c0.8-0.7,1.4-1,2.6-1h52.6C91.4,8.5,92.1,8.8,92.9,9.6z M64,110.9
				c-4.7,0-8.5-3.8-8.5-8.5s3.8-8.5,8.5-8.5c4.7,0,8.5,3.8,8.5,8.5S68.7,110.9,64,110.9 M55.5,25.6c-2.4,0-4.3-1.9-4.3-4.3
				s1.9-4.3,4.3-4.3h17.1c2.4,0,4.3,1.9,4.3,4.3s-1.9,4.3-4.3,4.3C72.6,25.6,55.5,25.6,55.5,25.6z"/>
		</g>
	</g>
</g>
</svg>
