<?xml version="1.0" encoding="utf-8"?>
<!-- Generator: Adobe Illustrator 19.1.0, SVG Export Plug-In . SVG Version: 6.00 Build 0)  -->
<svg version="1.1" id="Layer_1" xmlns:sketch="http://www.bohemiancoding.com/sketch/ns"
	 xmlns="http://www.w3.org/2000/svg" xmlns:xlink="http://www.w3.org/1999/xlink" x="0px" y="0px" width="128px" height="128px"
	 viewBox="-78.5 1 128 128" style="enable-background:new -78.5 1 128 128;" xml:space="preserve">
<style type="text/css">
	.st0{fill:#383838;}
</style>
<title>My Account (Menu)</title>
<desc>Created with Sketch.</desc>
<g id="Iconography-Board" sketch:type="MSPage">
	<g id="My-Account-_x28_Menu_x29_" transform="translate(-491.000000, -1405.000000)" sketch:type="MSArtboardGroup">
		<g transform="translate(491.000000, 1405.000000)" sketch:type="MSLayerGroup">
			<path sketch:type="MSShapeGroup" class="st0" d="M-15.8,5.3c-5.4,0-10.4,1.8-15.1,5.5c-4.7,3.7-7,7.6-7,11.7v12.3
				c0,3.4,0.8,7.2,2.3,11.5c1.5,4.3,3.8,7.7,6.9,10.2l-21.5,10.3c-0.4,0.1-0.9,0.3-1.4,0.6c-0.5,0.3-1.2,0.9-2.2,1.8
				c-0.9,0.9-1.4,1.7-1.4,2.5v7.4c0,1.3,0.5,2.5,1.5,3.5c1,1,2.1,1.5,3.5,1.5h68.9c1.3,0,2.5-0.5,3.5-1.5c1-1,1.5-2.1,1.5-3.5v-7.4
				c0-0.9-0.4-1.8-1.2-2.6c-0.8-0.8-1.6-1.4-2.5-1.7l-1.2-0.6L-2.7,56.7c3.1-2.5,5.4-5.8,6.9-10.1c1.5-4.3,2.2-8.2,2.2-11.8V22.5
				c0-4.1-2.4-8-7.1-11.7C-5.4,7.1-10.4,5.3-15.8,5.3 M-15.8,10.5c4.2,0,8.1,1.4,11.9,4.4c3.4,2.6,5.1,5.2,5.1,7.6v12.3
				c0,3-0.7,6.4-1.9,10C-2,48.2-3.6,50.7-6,52.6c-1.4,1.1-2.1,2.9-1.9,4.7c0.2,1.8,1.3,3.4,3,4.1l21.3,10.1l1.2,0.6
				c0.2,0.1,0.3,0.1,0.5,0.2c0,0,0.1,0,0.3,0.2v6.2h-68.3v-6c0.7-0.6,1-0.8,1-0.8l0,0c0,0,0.1,0,0.1-0.1c0.3-0.1,0.6-0.2,0.8-0.3
				l21.5-10.3c1.6-0.8,2.7-2.3,2.9-4.1c0.2-1.8-0.5-3.6-1.9-4.7c-2.3-1.9-4-4.4-5.3-7.8c-1.3-3.7-2-7-2-9.8V22.5
				c0-2.4,1.7-4.9,5-7.6C-23.9,12-20,10.5-15.8,10.5 M-73.1,115.7l3.2-8.7h0.1l3.1,8.7H-73.1z M-71.2,104.7l-7.3,18.7h2.5l2.1-5.6
				h7.9l2,5.6h2.8l-7.3-18.7H-71.2z M-46.1,110.3h2.5c-0.1-1-0.4-1.9-0.9-2.6c-0.5-0.8-1-1.4-1.7-1.9c-0.7-0.5-1.5-0.9-2.3-1.2
				c-0.9-0.3-1.8-0.4-2.8-0.4c-1.4,0-2.7,0.3-3.8,0.8c-1.1,0.5-2,1.2-2.8,2.1c-0.7,0.9-1.3,1.9-1.7,3.1c-0.4,1.2-0.6,2.5-0.6,3.8
				c0,1.4,0.2,2.6,0.5,3.8c0.4,1.2,0.9,2.2,1.6,3.1s1.6,1.6,2.7,2.1s2.4,0.7,3.8,0.7c2.4,0,4.3-0.7,5.7-2s2.2-3.2,2.4-5.5H-46
				c-0.1,0.8-0.2,1.5-0.5,2.2s-0.6,1.2-1.1,1.7c-0.5,0.5-1,0.9-1.7,1.1c-0.6,0.3-1.4,0.4-2.2,0.4c-1.1,0-2.1-0.2-2.9-0.6
				c-0.8-0.4-1.5-1-2-1.7c-0.5-0.7-0.9-1.5-1.1-2.5c-0.2-1-0.4-2-0.4-3c0-1,0.1-1.9,0.4-2.8c0.2-0.9,0.6-1.7,1.1-2.4
				c0.5-0.7,1.2-1.3,2-1.7c0.8-0.4,1.8-0.6,2.9-0.6c1.3,0,2.4,0.3,3.4,1C-47,108-46.4,109-46.1,110.3L-46.1,110.3z M-27.2,110.3h2.5
				c-0.1-1-0.4-1.9-0.9-2.6c-0.5-0.8-1-1.4-1.7-1.9c-0.7-0.5-1.5-0.9-2.3-1.2c-0.9-0.3-1.8-0.4-2.8-0.4c-1.4,0-2.7,0.3-3.8,0.8
				c-1.1,0.5-2,1.2-2.8,2.1c-0.7,0.9-1.3,1.9-1.7,3.1c-0.4,1.2-0.6,2.5-0.6,3.8c0,1.4,0.2,2.6,0.5,3.8c0.4,1.2,0.9,2.2,1.6,3.1
				c0.7,0.9,1.6,1.6,2.7,2.1s2.4,0.7,3.8,0.7c2.4,0,4.3-0.7,5.7-2c1.4-1.3,2.2-3.2,2.4-5.5H-27c-0.1,0.8-0.2,1.5-0.5,2.2
				c-0.3,0.7-0.6,1.2-1.1,1.7c-0.5,0.5-1,0.9-1.7,1.1c-0.6,0.3-1.4,0.4-2.2,0.4c-1.1,0-2.1-0.2-2.9-0.6c-0.8-0.4-1.5-1-2-1.7
				s-0.9-1.5-1.1-2.5c-0.2-1-0.4-2-0.4-3c0-1,0.1-1.9,0.4-2.8c0.2-0.9,0.6-1.7,1.1-2.4s1.2-1.3,2-1.7c0.8-0.4,1.8-0.6,2.9-0.6
				c1.3,0,2.4,0.3,3.4,1C-28.1,108-27.5,109-27.2,110.3L-27.2,110.3z M-20,114.1c0-0.9,0.1-1.9,0.4-2.8c0.2-0.9,0.6-1.7,1.2-2.5
				c0.5-0.7,1.2-1.3,2-1.8c0.8-0.4,1.8-0.7,2.9-0.7c1.1,0,2.1,0.2,2.9,0.7c0.8,0.4,1.5,1,2,1.8c0.5,0.7,0.9,1.6,1.2,2.5
				c0.2,0.9,0.4,1.9,0.4,2.8c0,0.9-0.1,1.9-0.4,2.8c-0.2,0.9-0.6,1.7-1.2,2.5c-0.5,0.7-1.2,1.3-2,1.8c-0.8,0.4-1.8,0.7-2.9,0.7
				c-1.1,0-2.1-0.2-2.9-0.7c-0.8-0.4-1.5-1-2-1.8c-0.5-0.7-0.9-1.6-1.2-2.5C-19.8,116-20,115-20,114.1L-20,114.1z M-22.5,114.1
				c0,1.3,0.2,2.5,0.6,3.7c0.4,1.2,0.9,2.2,1.7,3.1c0.8,0.9,1.7,1.6,2.8,2.2c1.1,0.5,2.4,0.8,3.9,0.8s2.8-0.3,3.9-0.8
				c1.1-0.5,2.1-1.3,2.8-2.2c0.8-0.9,1.3-2,1.7-3.1c0.4-1.2,0.6-2.4,0.6-3.7s-0.2-2.5-0.6-3.7c-0.4-1.2-0.9-2.2-1.7-3.1
				c-0.8-0.9-1.7-1.6-2.8-2.2c-1.1-0.5-2.4-0.8-3.9-0.8s-2.8,0.3-3.9,0.8c-1.1,0.5-2.1,1.3-2.8,2.2c-0.8,0.9-1.3,2-1.7,3.1
				C-22.3,111.6-22.5,112.8-22.5,114.1L-22.5,114.1z M13.5,116.7v-12H11v12c0,1.7-0.4,3-1.2,3.8c-0.8,0.9-2,1.3-3.6,1.3
				c-1.7,0-3-0.4-3.9-1.3c-0.9-0.9-1.3-2.1-1.3-3.8v-12h-2.5v12c0,2.5,0.7,4.3,2,5.5c1.4,1.1,3.2,1.7,5.7,1.7c2.4,0,4.2-0.6,5.5-1.8
				C12.9,120.9,13.5,119.1,13.5,116.7L13.5,116.7z M17.5,104.7v18.7h2.4v-15h0.1l9.8,15h2.7v-18.7h-2.4v15.2H30l-9.9-15.2H17.5z
				 M40.7,106.8v16.6h2.5v-16.6h6.2v-2.1h-15v2.1H40.7z"/>
		</g>
	</g>
</g>
</svg>
