<?xml version="1.0" encoding="utf-8"?>
<!-- Generator: Adobe Illustrator 19.1.0, SVG Export Plug-In . SVG Version: 6.00 Build 0)  -->
<svg version="1.1" id="Layer_1" xmlns:sketch="http://www.bohemiancoding.com/sketch/ns"
	 xmlns="http://www.w3.org/2000/svg" xmlns:xlink="http://www.w3.org/1999/xlink" x="0px" y="0px" width="128px" height="128px"
	 viewBox="-88.5 1 128 128" style="enable-background:new -88.5 1 128 128;" xml:space="preserve">
<style type="text/css">
	.st0{fill:#383838;}
</style>
<title>Store Finder (Menu)</title>
<desc>Created with Sketch.</desc>
<g id="Iconography-Board" sketch:type="MSPage">
	<g id="Store-Finder-_x28_Menu_x29_" transform="translate(-96.000000, -1405.000000)" sketch:type="MSArtboardGroup">
		<g transform="translate(96.000000, 1405.000000)" sketch:type="MSLayerGroup">
			<path sketch:type="MSShapeGroup" class="st0" d="M-67.2,45.9c0,32.1,42.6,83.1,42.6,83.1s42.9-51.1,42.8-83.1
				C18,21.1-0.9,1-24.5,1C-48.1,1-67.2,21.1-67.2,45.9z M-24.5,9.5c18.7,0,34,16.3,34.1,36.4C9.7,65.8-11.1,97.3-24.6,115
				C-38,97.3-58.6,65.8-58.6,45.9C-58.6,25.8-43.3,9.5-24.5,9.5 M-24.5,35.1c4.7,0,8.5,3.8,8.5,8.5c0,4.7-3.8,8.5-8.5,8.5
				c-4.7,0-8.5-3.8-8.5-8.5C-33,38.9-29.2,35.1-24.5,35.1L-24.5,35.1z M-24.5,26.6c-9.5,0-17.1,7.6-17.1,17.1
				c0,9.4,7.6,17.1,17.1,17.1c9.5,0,17.1-7.6,17.1-17.1C-7.4,34.2-15,26.6-24.5,26.6L-24.5,26.6z"/>
		</g>
	</g>
</g>
</svg>
