<?xml version="1.0" encoding="utf-8"?>
<!-- Generator: Adobe Illustrator 19.1.0, SVG Export Plug-In . SVG Version: 6.00 Build 0)  -->
<svg version="1.1" id="Layer_1" xmlns:sketch="http://www.bohemiancoding.com/sketch/ns"
	 xmlns="http://www.w3.org/2000/svg" xmlns:xlink="http://www.w3.org/1999/xlink" x="0px" y="0px" width="128px" height="128px"
	 viewBox="-97 1 128 128" style="enable-background:new -97 1 128 128;" xml:space="preserve">
<style type="text/css">
	.st0{fill:#383838;}
</style>
<title>Reward Card</title>
<desc>Created with Sketch.</desc>
<g id="Iconography-Board" sketch:type="MSPage">
	<g id="Reward-Card" transform="translate(-900.000000, -848.000000)" sketch:type="MSArtboardGroup">
		<g transform="translate(900.000000, 848.000000)" sketch:type="MSLayerGroup">
			<path sketch:type="MSShapeGroup" class="st0" d="M13.9,81.4V47.2c0-0.3-0.1-0.5-0.1-0.8l8.8,2.4L13.9,81.4z M-24,107l-64.5,0
				l0-17.3l0-38.2v-4.3h1.1h8.8H5.4l0,58.8v0.9L-24,107z M-69.9,15.2c-0.7-0.2-1.5-0.3-2.2-0.3l0,8.5L-15,38.7h-61.2l4.1-15.3
				c0,0,0-8.5,0-8.5c-3.8,0-7.2,2.5-8.2,6.3L-85,38.7h-3.4c-4.7,0-8.5,3.8-8.5,8.5V107c0,4.7,3.8,8.5,8.5,8.5H5.4
				c1.2,0,2.4-0.3,3.4-0.7c3.1-0.6,5.7-2.8,6.6-6L30.7,51c1.2-4.5-1.3-9.2-5.8-10.5L-69.9,15.2z"/>
		</g>
	</g>
</g>
</svg>
