<?xml version="1.0" encoding="utf-8"?>
<!-- Generator: Adobe Illustrator 19.1.0, SVG Export Plug-In . SVG Version: 6.00 Build 0)  -->
<svg version="1.1" id="Layer_1" xmlns="http://www.w3.org/2000/svg" xmlns:xlink="http://www.w3.org/1999/xlink" x="0px" y="0px"
	 width="64px" height="64px" viewBox="-639 369 64 64" style="enable-background:new -639 369 64 64;" xml:space="preserve">
<style type="text/css">
	.st0{fill:#474747;}
</style>
<g>
	<path class="st0" d="M-601.1,410c-0.6,0-1,0.2-1.6,0.8v10.8c0.6,0.6,1,0.8,1.6,0.8c1,0,1.4-0.8,1.4-2.4v-7.6
		C-599.7,410.8-600.3,410-601.1,410z"/>
	<path class="st0" d="M-589.5,410c-1,0-1.6,0.8-1.6,2.4v1.6h3.2v-1.6C-587.9,410.8-588.3,410-589.5,410z"/>
	<path class="st0" d="M-580.6,403.2c0,0-0.6-3.6-2.2-5.2c-2-2.2-4.2-2.2-5.4-2.2c-7.4-0.6-18.7-0.6-18.7-0.6l0,0
		c0,0-11.2,0-18.7,0.6c-1,0.2-3.4,0.2-5.4,2.2c-1.6,1.6-2.2,5.2-2.2,5.2s-0.6,4.2-0.6,8.6v4c0,4.2,0.6,8.6,0.6,8.6s0.6,3.6,2.2,5.2
		c2,2.2,4.6,2,5.8,2.2c4.2,0.4,18.1,0.6,18.1,0.6s11.2,0,18.7-0.6c1-0.2,3.4-0.2,5.4-2.2c1.6-1.6,2.2-5.2,2.2-5.2s0.6-4.2,0.6-8.6
		v-4C-580,407.4-580.6,403.2-580.6,403.2z M-621.6,425.3h-3.6v-20.5h-3.8v-3.4h11.2v3.4h-3.8C-621.6,404.8-621.6,425.3-621.6,425.3z
		 M-608.9,425.3h-3.2v-2c-1.2,1.4-2.4,2.2-3.6,2.2c-1,0-1.8-0.4-2-1.4c-0.2-0.6-0.2-1.4-0.2-2.6v-14h3.2v13c0,0.8,0,1.2,0,1.2
		c0,0.4,0.4,0.8,0.8,0.8c0.6,0,1.4-0.4,2-1.6v-13.6h3.2v18.1H-608.9z M-596.5,419.9c0,1.6-0.2,2.8-0.4,3.6c-0.4,1.4-1.2,2-2.6,2
		c-1.2,0-2.2-0.6-3.4-2v1.8h-3.2v-23.9h3.2v7.8c1-1.2,2.2-2,3.4-2s2.2,0.6,2.6,2c0.2,0.8,0.4,1.8,0.4,3.6
		C-596.5,412.8-596.5,419.9-596.5,419.9z M-584.4,416.9h-6.4v3.2c0,1.6,0.6,2.4,1.6,2.4c0.8,0,1.2-0.4,1.4-1.2c0-0.2,0-0.8,0-2.2
		h3.2v0.4c0,1,0,1.8,0,2c-0.2,0.8-0.4,1.4-0.8,2c-0.8,1.2-2.2,2-3.8,2s-3-0.6-3.8-1.8c-0.6-0.8-1-2.2-1-4.2v-6.2c0-2,0.4-3.2,1-4.2
		c1-1.2,2.2-1.8,3.8-1.8s2.8,0.6,3.8,1.8c0.6,0.8,1,2.2,1,4.2V416.9z"/>
	<path class="st0" d="M-617.6,383.9v9.8h-3.6v-9.8c-0.4-1.8-1-4.2-2.2-7.6c-0.8-2.2-1.6-4.4-2.4-6.8h3.8l2.6,9.4l2.4-9.4h3.6
		C-613.3,369.5-617.6,383.9-617.6,383.9z M-605.1,392.2c-1,1.2-2.2,1.8-3.8,1.8s-2.8-0.6-3.8-1.8c-0.6-0.8-1-2.4-1-4.2v-6.2
		c0-2,0.4-3.4,1-4.2c0.8-1.2,2.2-1.8,3.8-1.8s2.8,0.6,3.8,1.8c0.6,1,1,2.4,1,4.2v6.2C-604.1,389.8-604.5,391.2-605.1,392.2z
		 M-607.5,380.9c0-1.6-0.6-2.4-1.6-2.4c-1,0-1.6,0.8-1.6,2.4v7.6c0,1.6,0.6,2.4,1.6,2.4c1,0,1.6-0.8,1.6-2.4V380.9z M-595.5,391.8
		c-1.2,1.4-2.6,2.2-3.8,2.2c-1,0-1.8-0.4-2-1.4c-0.2-0.6-0.2-1.4-0.2-2.6v-14.2h3.2V389c0,0.8,0,1.2,0,1.2c0,0.6,0.4,0.8,0.8,0.8
		c0.6,0,1.4-0.6,2-1.6v-13.8h3.2v18.1h-3.2"/>
</g>
</svg>
