<?xml version="1.0" encoding="utf-8"?>
<!-- Generator: Adobe Illustrator 19.1.0, SVG Export Plug-In . SVG Version: 6.00 Build 0)  -->
<svg version="1.1" id="Layer_1" xmlns:sketch="http://www.bohemiancoding.com/sketch/ns"
	 xmlns="http://www.w3.org/2000/svg" xmlns:xlink="http://www.w3.org/1999/xlink" x="0px" y="0px" width="128px" height="128px"
	 viewBox="-673 337 128 128" style="enable-background:new -673 337 128 128;" xml:space="preserve">
<style type="text/css">
	.st0{fill:#383838;}
</style>
<path sketch:type="MSShapeGroup" class="st0" d="M-609,456.5L-609,456.5c5.9,0,10.7-4.8,10.7-10.7c0-5.9-4.8-10.7-10.7-10.7
	s-10.7,4.8-10.7,10.7C-619.7,451.7-614.9,456.5-609,456.5L-609,456.5z M-609,465L-609,465c-10.6,0-19.2-8.6-19.2-19.2
	c0-10.6,8.6-19.2,19.2-19.2s19.2,8.6,19.2,19.2C-589.8,456.4-598.4,465-609,465L-609,465z M-640.1,418.2c17.2-17.2,45.1-17.2,62.2,0
	c1.7,1.7,4.4,1.7,6,0c1.7-1.7,1.7-4.4,0-6c-20.5-20.5-53.8-20.5-74.3,0c-1.7,1.7-1.7,4.4,0,6C-644.5,419.8-641.8,419.8-640.1,418.2
	L-640.1,418.2z M-652.9,393.6c24.2-24.3,63.7-24.3,87.9,0c1.7,1.7,4.4,1.7,6,0c1.7-1.7,1.7-4.4,0-6c-27.5-27.6-72.4-27.6-99.9,0
	c-1.7,1.7-1.7,4.4,0,6C-657.3,395.3-654.6,395.3-652.9,393.6L-652.9,393.6z M-665.7,369c31.3-31.3,82.2-31.3,113.4,0
	c1.7,1.7,4.4,1.7,6,0c1.7-1.7,1.7-4.4,0-6c-34.6-34.7-90.9-34.7-125.5,0c-1.7,1.7-1.7,4.4,0,6C-670.1,370.7-667.4,370.7-665.7,369
	L-665.7,369z"/>
</svg>
