<?xml version="1.0" encoding="utf-8"?>
<!-- Generator: Adobe Illustrator 19.1.0, SVG Export Plug-In . SVG Version: 6.00 Build 0)  -->
<svg version="1.1" id="Layer_1" xmlns:sketch="http://www.bohemiancoding.com/sketch/ns"
	 xmlns="http://www.w3.org/2000/svg" xmlns:xlink="http://www.w3.org/1999/xlink" x="0px" y="0px" width="128px" height="128px"
	 viewBox="-673 337 128 128" style="enable-background:new -673 337 128 128;" xml:space="preserve">
<style type="text/css">
	.st0{fill:#383838;}
</style>
<path sketch:type="MSShapeGroup" class="st0" d="M-545,452.7v-20.4h-4.4v20.4c0,2.9-0.7,5-2.2,6.5c-1.5,1.5-3.6,2.2-6.4,2.2
	c-3,0-5.2-0.7-6.8-2.2c-1.6-1.5-2.4-3.6-2.4-6.5v-20.4h-4.4v20.4c0,4.3,1.2,7.4,3.6,9.3c2.4,2,5.7,2.9,10,2.9c4.2,0,7.4-1,9.6-3.1
	C-546.1,459.9-545,456.8-545,452.7z M-604.7,432.4v31.9h4.2v-25.6h0.1l17.2,25.6h4.8v-31.9h-4.2v25.9h-0.1l-17.4-25.9H-604.7z
	 M-632.9,432.4v31.9h22.9v-3.6h-18.5v-11h17.1v-3.6h-17.1v-10.2h18.4v-3.6H-632.9z M-673,432.4v31.9h4.2v-26.6h0.1l10.3,26.6h3.7
	l10.3-26.6h0.1v26.6h4.2v-31.9h-6l-10.4,26.8l-10.4-26.8H-673z M-673,405.3h128v-8.5h-128V405.3z M-673,375.4h128v-8.5h-128V375.4z
	 M-673,345.5h128V337h-128V345.5z"/>
</svg>
