<?xml version="1.0" encoding="utf-8"?>
<!-- Generator: Adobe Illustrator 19.1.0, SVG Export Plug-In . SVG Version: 6.00 Build 0)  -->
<svg version="1.1" id="Layer_1" xmlns="http://www.w3.org/2000/svg" xmlns:xlink="http://www.w3.org/1999/xlink" x="0px" y="0px"
	 width="64px" height="64px" viewBox="-639 369 64 64" style="enable-background:new -639 369 64 64;" xml:space="preserve">
<style type="text/css">
	.st0{fill:#444444;}
</style>
<path class="st0" d="M-604.1,374.4c0,0-12.4,0-16.5,0c-7.4,0-14.3,5.6-14.3,12.1c0,6.6,5,12,12.6,12c0.5,0,1,0,1.5,0
	c-0.5,0.9-0.8,2-0.8,3.1c0,1.8,1,3.3,2.2,4.6c-0.9,0-1.9,0-2.9,0c-9.2,0-16.2,5.8-16.2,11.9c0,6,7.7,9.7,16.9,9.7
	c10.4,0,16.2-5.9,16.2-11.9c0-4.8-1.4-7.6-5.8-10.7c-1.5-1.1-4.3-3.6-4.3-5.1c0-1.8,0.5-2.6,3.2-4.7c2.7-2.1,4.7-5.1,4.7-8.6
	c0-4.1-1.8-8.2-5.3-9.5h5.2L-604.1,374.4L-604.1,374.4z M-609.9,414.7c0.1,0.6,0.2,1.1,0.2,1.7c0,4.8-3.1,8.6-12,8.6
	c-6.3,0-10.9-4-10.9-8.8c0-4.7,5.7-8.6,12-8.6c1.5,0,2.9,0.3,4.1,0.7C-613,410.6-610.6,412-609.9,414.7L-609.9,414.7z M-620,396.8
	c-4.2-0.1-8.3-4.8-9-10.3c-0.7-5.6,2.1-9.8,6.4-9.7c4.2,0.1,8.3,4.6,9,10.2C-612.9,392.5-615.7,396.9-620,396.8z M-587.3,386.2
	v-11.8h-3.9v11.8h-11.8v3.9h11.8v11.8h3.9v-11.8h11.8v-3.9H-587.3z"/>
</svg>
