<?xml version="1.0" encoding="utf-8"?>
<!-- Generator: Adobe Illustrator 19.1.0, SVG Export Plug-In . SVG Version: 6.00 Build 0)  -->
<svg version="1.1" id="Layer_1" xmlns:sketch="http://www.bohemiancoding.com/sketch/ns"
	 xmlns="http://www.w3.org/2000/svg" xmlns:xlink="http://www.w3.org/1999/xlink" x="0px" y="0px" width="128px" height="128px"
	 viewBox="-673 337 128 128" style="enable-background:new -673 337 128 128;" xml:space="preserve">
<style type="text/css">
	.st0{fill:#383838;}
</style>
<path sketch:type="MSShapeGroup" class="st0" d="M-562.1,417.4v-34.1c0-0.3-0.1-0.5-0.1-0.8l8.8,2.4L-562.1,417.4z M-600,443
	l-64.5,0l0-17.3l0-38.2v-4.3h1.1h8.8h83.9l0,58.8v0.9L-600,443z M-645.9,351.2c-0.7-0.2-1.5-0.3-2.2-0.3l0,8.5l57.1,15.3h-61.2
	l4.1-15.3c0,0,0-8.5,0-8.5c-3.8,0-7.2,2.5-8.2,6.3l-4.7,17.5h-3.4c-4.7,0-8.5,3.8-8.5,8.5V443c0,4.7,3.8,8.5,8.5,8.5h93.9
	c1.2,0,2.4-0.3,3.4-0.7c3.1-0.6,5.7-2.8,6.6-6l15.2-57.7c1.2-4.5-1.3-9.2-5.8-10.5L-645.9,351.2z"/>
</svg>
