<?xml version="1.0" encoding="utf-8"?>
<!-- Generator: Adobe Illustrator 19.1.0, SVG Export Plug-In . SVG Version: 6.00 Build 0)  -->
<svg version="1.1" id="Layer_1" xmlns:sketch="http://www.bohemiancoding.com/sketch/ns"
	 xmlns="http://www.w3.org/2000/svg" xmlns:xlink="http://www.w3.org/1999/xlink" x="0px" y="0px" width="128px" height="128px"
	 viewBox="-673 337 128 128" style="enable-background:new -673 337 128 128;" xml:space="preserve">
<style type="text/css">
	.st0{fill:#383838;}
</style>
<path sketch:type="MSShapeGroup" class="st0" d="M-545,457.9c0,3.9-3.2,7.1-7.1,7.1h-32.6v-49.6h16.6l2.5-19.3h-19.1v-12.3
	c0-5.6,1.6-9.4,9.6-9.4l10.2,0v-17.3c-1.8-0.2-7.8-0.8-14.9-0.8c-14.7,0-24.8,9-24.8,25.5v14.2h-16.7v19.3h16.7V465h-61.3
	c-3.9,0-7.1-3.2-7.1-7.1V344.1c0-3.9,3.2-7.1,7.1-7.1h113.9c3.9,0,7.1,3.2,7.1,7.1V457.9z"/>
</svg>
