<?xml version="1.0" encoding="utf-8"?>
<!-- Generator: Adobe Illustrator 19.1.0, SVG Export Plug-In . SVG Version: 6.00 Build 0)  -->
<svg version="1.1" id="Layer_1" xmlns:sketch="http://www.bohemiancoding.com/sketch/ns"
	 xmlns="http://www.w3.org/2000/svg" xmlns:xlink="http://www.w3.org/1999/xlink" x="0px" y="0px" width="128px" height="128px"
	 viewBox="0 0 128 128" style="enable-background:new 0 0 128 128;" xml:space="preserve">
<style type="text/css">
	.st0{fill:#383838;}
</style>
<title>My Account (Menu)</title>
<desc>Created with Sketch.</desc>
<g id="Iconography-Board" sketch:type="MSPage">
	<g id="My-Account-_x28_Menu_x29_" transform="translate(-491.000000, -1405.000000)" sketch:type="MSArtboardGroup">
		<g transform="translate(491.000000, 1405.000000)" sketch:type="MSLayerGroup">
			<path sketch:type="MSShapeGroup" class="st0" d="M64-57c-8.4,0-16.2,2.8-23.5,8.6s-11,11.8-11,18.3V-11c0,5.3,1.3,11.3,3.6,18
				c2.4,6.7,5.9,12,10.8,15.9L10.3,39c-0.6,0.2-1.4,0.5-2.2,0.9c-0.8,0.5-1.9,1.4-3.5,2.8c-1.4,1.4-2.2,2.7-2.2,3.9V58
				c0,2.1,0.8,3.9,2.4,5.4s3.3,2.4,5.4,2.4h107.4c2.1,0,3.9-0.8,5.4-2.4s2.4-3.3,2.4-5.4V46.6c0-1.4-0.6-2.8-1.9-4
				c-1.3-1.3-2.5-2.2-3.9-2.7l-1.9-0.9L84.4,23.2c4.8-3.9,8.4-9.1,10.8-15.8S98.6-5.5,98.6-11v-19.2c0-6.4-3.8-12.4-11.1-18.3
				C80.3-54.1,72.5-57,64-57 M64-48.8c6.5,0,12.6,2.2,18.6,6.8c5.3,4,8,8.1,8,11.8V-11c0,4.6-1.1,10-3,15.6
				c-2.1,5.3-4.5,9.2-8.3,12.1c-2.2,1.7-3.3,4.5-3,7.3c0.3,2.8,2.1,5.3,4.6,6.4l33.2,15.8l1.9,0.9c0.3,0.2,0.5,0.2,0.8,0.3
				c0,0,0.2,0,0.5,0.3v9.7H10.9V48c1.1-0.9,1.6-1.3,1.6-1.3l0,0c0,0,0.2,0,0.2-0.2c0.5-0.2,0.9-0.3,1.3-0.5L47.5,30
				c2.5-1.3,4.2-3.6,4.5-6.4c0.3-2.8-0.8-5.6-3-7.3c-3.6-3-6.2-6.8-8.3-12.1c-2.1-5.7-3.2-11-3.2-15.3v-19c0-3.8,2.7-7.6,7.8-11.8
				C51.4-46.5,57.5-48.8,64-48.8 M-25.3,115.2l5-13.5h0.2l4.8,13.5H-25.3z M-22.4,98l-11.4,29.2h3.9l3.3-8.7h12.3l3.2,8.7h4.3
				l-11.4-29.1L-22.4,98L-22.4,98z M16.8,106.8h3.9c-0.2-1.6-0.6-3-1.4-4c-0.8-1.3-1.6-2.2-2.7-3c-1.1-0.8-2.4-1.4-3.6-1.9
				c-1.4-0.5-2.8-0.6-4.3-0.6c-2.2,0-4.2,0.5-5.9,1.3s-3.2,1.9-4.3,3.3c-1.1,1.4-2.1,3-2.7,4.8s-0.9,3.9-0.9,5.9
				c0,2.2,0.3,4,0.8,5.9c0.6,1.9,1.4,3.5,2.5,4.8c1.1,1.4,2.5,2.5,4.2,3.3s3.8,1.1,5.9,1.1c3.8,0,6.7-1.1,8.9-3.2
				c2.2-2.1,3.5-5,3.8-8.6h-3.9c-0.2,1.3-0.3,2.4-0.8,3.5c-0.5,1.1-0.9,1.9-1.7,2.7s-1.6,1.4-2.7,1.7c-0.9,0.5-2.2,0.6-3.5,0.6
				c-1.7,0-3.3-0.3-4.5-0.9c-1.3-0.6-2.4-1.6-3.2-2.7c-0.8-1.1-1.4-2.4-1.7-3.9c-0.3-1.6-0.6-3.2-0.6-4.6s0.2-3,0.6-4.3
				c0.3-1.4,0.9-2.7,1.7-3.8c0.8-1.1,1.9-2.1,3.2-2.7c1.3-0.6,2.8-0.9,4.5-0.9c2.1,0,3.8,0.5,5.3,1.6
				C15.4,103.1,16.3,104.7,16.8,106.8L16.8,106.8z M46.3,106.8h3.9c-0.2-1.6-0.6-3-1.4-4c-0.8-1.3-1.6-2.2-2.7-3
				c-1.1-0.8-2.4-1.4-3.6-1.9c-1.4-0.5-2.8-0.6-4.3-0.6c-2.2,0-4.2,0.5-5.9,1.3c-1.7,0.8-3.2,1.9-4.3,3.3c-1.1,1.4-2.1,3-2.7,4.8
				c-0.6,1.9-0.9,3.9-0.9,5.9c0,2.2,0.3,4,0.8,5.9c0.6,1.9,1.4,3.5,2.5,4.8c1.1,1.4,2.5,2.5,4.2,3.3c1.7,0.8,3.8,1.1,5.9,1.1
				c3.8,0,6.7-1.1,8.9-3.2c2.2-2.1,3.5-5,3.8-8.6h-3.8c-0.2,1.3-0.3,2.4-0.8,3.5c-0.5,1.1-0.9,1.9-1.7,2.7s-1.6,1.4-2.7,1.7
				c-0.9,0.5-2.2,0.6-3.5,0.6c-1.7,0-3.3-0.3-4.5-0.9c-1.3-0.6-2.4-1.6-3.2-2.7c-0.8-1.1-1.4-2.4-1.7-3.9c-0.3-1.6-0.6-3.2-0.6-4.6
				s0.2-3,0.6-4.3c0.3-1.4,0.9-2.7,1.7-3.8c0.8-1.1,1.9-2.1,3.2-2.7c1.3-0.6,2.8-0.9,4.5-0.9c2.1,0,3.8,0.5,5.3,1.6
				C44.9,103.1,45.8,104.7,46.3,106.8L46.3,106.8z M57.5,112.7c0-1.4,0.2-3,0.6-4.3c0.3-1.4,0.9-2.7,1.9-3.9
				c0.8-1.1,1.9-2.1,3.2-2.8c1.3-0.6,2.8-1.1,4.5-1.1c1.8,0,3.3,0.3,4.5,1.1c1.3,0.6,2.4,1.6,3.2,2.8c0.8,1.1,1.4,2.5,1.9,3.9
				c0.3,1.4,0.6,3,0.6,4.3c0,1.4-0.2,3-0.6,4.3c-0.3,1.4-0.9,2.7-1.9,3.9c-0.8,1.1-1.9,2.1-3.2,2.8c-1.3,0.6-2.8,1.1-4.5,1.1
				c-1.8,0-3.3-0.3-4.5-1.1c-1.3-0.6-2.4-1.6-3.2-2.8c-0.8-1.1-1.4-2.5-1.9-3.9C57.8,115.7,57.5,114.1,57.5,112.7L57.5,112.7z
				 M53.6,112.7c0,2.1,0.3,3.9,0.9,5.7c0.6,1.9,1.4,3.5,2.7,4.8s2.7,2.5,4.3,3.5c1.7,0.8,3.8,1.3,6.1,1.3c2.4,0,4.3-0.5,6.1-1.3
				c1.7-0.8,3.3-2.1,4.3-3.5c1.3-1.4,2.1-3.2,2.7-4.8c0.6-1.9,0.9-3.8,0.9-5.7c0-2-0.3-3.9-0.9-5.7c-0.6-1.9-1.4-3.5-2.7-4.8
				c-1.3-1.4-2.7-2.5-4.3-3.5c-1.7-0.8-3.8-1.3-6.1-1.3c-2.4,0-4.3,0.5-6.1,1.3c-1.7,0.8-3.3,2.1-4.3,3.5c-1.3,1.4-2.1,3.2-2.7,4.8
				C54,108.7,53.6,110.6,53.6,112.7L53.6,112.7z M109.7,116.7V98h-3.9v18.8c0,2.7-0.6,4.6-1.9,5.9c-1.3,1.4-3.2,2.1-5.6,2.1
				c-2.7,0-4.6-0.6-6.1-2.1c-1.4-1.4-2.1-3.3-2.1-5.9V98h-3.9v18.8c0,3.9,1.1,6.7,3.2,8.6c2.2,1.7,5,2.7,8.9,2.7
				c3.8,0,6.5-0.9,8.6-2.8C108.8,123.3,109.7,120.5,109.7,116.7L109.7,116.7z M116,98v29.1h3.8v-23.4h0.2l15.3,23.4h4.2V98h-3.8
				v23.7h-0.2L120.1,98H116z M152.2,101.2v25.9h3.9v-25.9h9.7V98h-23.4v3.3H152.2z"/>
		</g>
	</g>
</g>
</svg>
