<?xml version="1.0" encoding="utf-8"?>
<!-- Generator: Adobe Illustrator 19.1.0, SVG Export Plug-In . SVG Version: 6.00 Build 0)  -->
<svg version="1.1" id="Layer_1" xmlns:sketch="http://www.bohemiancoding.com/sketch/ns"
	 xmlns="http://www.w3.org/2000/svg" xmlns:xlink="http://www.w3.org/1999/xlink" x="0px" y="0px" width="128px" height="128px"
	 viewBox="0 0 128 128" style="enable-background:new 0 0 128 128;" xml:space="preserve">
<style type="text/css">
	.st0{fill:#383838;}
</style>
<title>Mini Bag</title>
<desc>Created with Sketch.</desc>
<path class="st0" d="M120.3,51.3c-0.5-4.7-4.7-8.5-9.4-8.5H98.1v-8.5C98.1,15.4,82.9,0.1,64,0.1S29.9,15.4,29.9,34.2v8.5H17.1
	c-4.7,0-8.9,3.8-9.4,8.5l-6.8,68.3c-0.5,4.7,3,8.5,7.6,8.5h111c4.7,0,8.1-3.8,7.6-8.5L120.3,51.3z M38.4,34.2
	C38.4,20.1,49.9,8.6,64,8.6s25.6,11.5,25.6,25.6v8.5H38.4C38.4,42.7,38.4,34.2,38.4,34.2z M118.6,119.6H9.4 M9.4,119.6l6.7-67.5
	c0-0.3,0.6-0.8,0.9-0.8h93.9c0.3,0,0.8,0.5,0.9,0.8l6.7,67.5"/>
</svg>
