<?xml version="1.0" encoding="utf-8"?>
<!-- Generator: Adobe Illustrator 19.1.0, SVG Export Plug-In . SVG Version: 6.00 Build 0)  -->
<svg version="1.1" id="Layer_1" xmlns:sketch="http://www.bohemiancoding.com/sketch/ns"
	 xmlns="http://www.w3.org/2000/svg" xmlns:xlink="http://www.w3.org/1999/xlink" x="0px" y="0px" width="128px" height="128px"
	 viewBox="-97 1 128 128" style="enable-background:new -97 1 128 128;" xml:space="preserve">
<style type="text/css">
	.st0{fill:#383838;}
</style>
<title>Question</title>
<desc>Created with Sketch.</desc>
<g id="Iconography-Board" sketch:type="MSPage">
	<g id="Question" transform="translate(-500.000000, -1145.000000)" sketch:type="MSArtboardGroup">
		<g transform="translate(500.000000, 1145.000000)" sketch:type="MSLayerGroup">
			<path sketch:type="MSShapeGroup" class="st0" d="M-33,120.5L-33,120.5c30.6,0,55.5-24.8,55.5-55.5S-2.4,9.5-33,9.5
				S-88.5,34.4-88.5,65S-63.6,120.5-33,120.5L-33,120.5z M-33,129L-33,129c-35.3,0-64-28.7-64-64S-68.3,1-33,1s64,28.7,64,64
				S2.3,129-33,129L-33,129z M-41.5,86.3h8.5v8.5h-8.5V86.3z M-33,77.8h-8.5v-5.9c0-12.5,9.4-17,9.8-17.1c2.9-1.6,7.3-5.1,7.3-7.9
				c0-4.6-3.2-7.4-8.5-7.4c-8.5,0-8.5,2.7-8.5,4.1h-8.5c0-4.7,2.2-12.6,17.1-12.6c10,0,17.1,6.6,17.1,16c0,9-10.7,14.8-11.9,15.5
				c-0.1,0.1-5.2,2.5-5.2,9.6V77.8z"/>
		</g>
	</g>
</g>
</svg>
