<?xml version="1.0" encoding="utf-8"?>
<!-- Generator: Adobe Illustrator 19.1.0, SVG Export Plug-In . SVG Version: 6.00 Build 0)  -->
<svg version="1.1" id="Layer_1" xmlns="http://www.w3.org/2000/svg" xmlns:xlink="http://www.w3.org/1999/xlink" x="0px" y="0px"
	 width="64px" height="64px" viewBox="-639 369 64 64" style="enable-background:new -639 369 64 64;" xml:space="preserve">
<style type="text/css">
	.st0{fill:#444444;}
</style>
<path class="st0" d="M-575.5,381.5c-2.3,1-4.8,1.7-7.4,2c2.7-1.6,4.7-4.1,5.7-7.2c-2.5,1.5-5.3,2.6-8.2,3.1
	c-2.4-2.5-5.7-4.1-9.4-4.1c-7.1,0-12.9,5.8-12.9,12.9c0,1,0.1,2,0.3,2.9c-10.7-0.5-20.3-5.7-26.6-13.5c-1.1,1.9-1.8,4.1-1.8,6.5
	c0,4.5,2.3,8.4,5.8,10.8c-2.1-0.1-4.1-0.6-5.9-1.6c0,0.1,0,0.1,0,0.2c0,6.3,4.5,11.5,10.4,12.7c-1.1,0.3-2.2,0.5-3.4,0.5
	c-0.8,0-1.6-0.1-2.4-0.2c1.6,5.1,6.4,8.9,12.1,9c-4.4,3.5-10,5.5-16.1,5.5c-1,0-2.1-0.1-3.1-0.2c5.7,3.7,12.5,5.8,19.8,5.8
	c23.8,0,36.8-19.7,36.8-36.8c0-0.6,0-1.1,0-1.7C-579.4,386.3-577.2,384.1-575.5,381.5L-575.5,381.5z"/>
</svg>
