<?xml version="1.0" encoding="utf-8"?>
<!-- Generator: Adobe Illustrator 19.1.0, SVG Export Plug-In . SVG Version: 6.00 Build 0)  -->
<svg version="1.1" id="Layer_1" xmlns:sketch="http://www.bohemiancoding.com/sketch/ns"
	 xmlns="http://www.w3.org/2000/svg" xmlns:xlink="http://www.w3.org/1999/xlink" x="0px" y="0px" width="128px" height="128px"
	 viewBox="0 0 128 128" style="enable-background:new 0 0 128 128;" xml:space="preserve">
<style type="text/css">
	.st0{fill:#383838;}
</style>
<title>My Account (Menu)</title>
<desc>Created with Sketch.</desc>
<g id="Iconography-Board" sketch:type="MSPage">
	<g id="My-Account-_x28_Menu_x29_" transform="translate(-491.000000, -1405.000000)" sketch:type="MSArtboardGroup">
		<g transform="translate(491.000000, 1405.000000)" sketch:type="MSLayerGroup">
			<path sketch:type="MSShapeGroup" class="st0" d="M64-55c-8.4,0-16.2,2.8-23.5,8.6s-11,11.8-11,18.3V-9c0,5.3,1.3,11.3,3.6,18
				c2.4,6.7,5.9,12,10.8,15.9L10.3,41c-0.6,0.2-1.4,0.5-2.2,0.9c-0.8,0.5-1.9,1.4-3.5,2.8c-1.4,1.4-2.2,2.7-2.2,3.9V60
				c0,2.1,0.8,3.9,2.4,5.4s3.3,2.4,5.4,2.4h107.4c2.1,0,3.9-0.8,5.4-2.4s2.4-3.3,2.4-5.4V48.6c0-1.4-0.6-2.8-1.9-4
				c-1.3-1.3-2.5-2.2-3.9-2.7l-1.9-0.9L84.4,25.2c4.8-3.9,8.4-9.1,10.8-15.8S98.6-3.5,98.6-9v-19.2c0-6.4-3.8-12.4-11.1-18.3
				C80.3-52.1,72.5-55,64-55 M64-46.8c6.5,0,12.6,2.2,18.6,6.8c5.3,4,8,8.1,8,11.8V-9c0,4.6-1.1,10-3,15.6
				c-2.1,5.3-4.5,9.2-8.3,12.1c-2.2,1.7-3.3,4.5-3,7.3s2.1,5.3,4.6,6.4l33.2,15.8l1.9,0.9c0.3,0.2,0.5,0.2,0.8,0.3
				c0,0,0.2,0,0.5,0.3v9.7H10.9V50c1.1-0.9,1.6-1.3,1.6-1.3l0,0c0,0,0.2,0,0.2-0.2c0.5-0.2,0.9-0.3,1.3-0.5l33.5-16
				c2.5-1.3,4.2-3.6,4.5-6.4s-0.8-5.6-3-7.3c-3.6-3-6.2-6.8-8.3-12.1c-2.1-5.7-3.2-11-3.2-15.3v-19c0-3.8,2.7-7.6,7.8-11.8
				C51.4-44.5,57.5-46.8,64-46.8 M-25,116.2l5-13.4h0.2l4.8,13.4H-25z M-22.1,99.1l-11.4,29.1h3.9l3.3-8.7H-14l3.2,8.7h4.3l-11.4-29
				L-22.1,99.1L-22.1,99.1z M17,107.9h3.9c-0.2-1.6-0.6-3-1.4-4c-0.8-1.3-1.6-2.1-2.7-3s-2.4-1.4-3.6-1.9c-1.4-0.5-2.8-0.6-4.3-0.6
				c-2.1,0-4.2,0.5-5.8,1.3s-3.2,1.9-4.3,3.3c-1.1,1.4-2,3-2.7,4.8s-0.9,3.9-0.9,5.8c0,2.1,0.3,4,0.8,5.8c0.6,1.9,1.4,3.5,2.5,4.8
				c1.1,1.4,2.5,2.5,4.2,3.3c1.7,0.8,3.8,1.1,5.8,1.1c3.8,0,6.7-1.1,8.9-3.2c2.1-2.1,3.5-5,3.8-8.6h-3.9c-0.2,1.3-0.3,2.4-0.8,3.5
				c-0.5,1.1-0.9,1.9-1.7,2.7c-0.8,0.9-1.6,1.4-2.7,1.7c-0.9,0.5-2.1,0.6-3.5,0.6c-1.7,0-3.3-0.3-4.5-0.9c-1.3-0.6-2.4-1.6-3.2-2.7
				s-1.4-2.4-1.7-3.9c-0.3-1.6-0.6-3.2-0.6-4.6c0-1.4,0.2-3,0.6-4.3c0.3-1.4,0.9-2.7,1.7-3.8c0.8-1.1,1.9-2,3.2-2.7
				c1.3-0.6,2.8-0.9,4.5-0.9c2,0,3.8,0.5,5.3,1.6C15.6,104.2,16.5,105.8,17,107.9L17,107.9z M46.4,107.9h3.9c-0.2-1.6-0.6-3-1.4-4
				c-0.8-1.3-1.6-2.1-2.7-3c-1.1-0.8-2.4-1.4-3.6-1.9c-1.4-0.5-2.8-0.6-4.3-0.6c-2.1,0-4.2,0.5-5.8,1.3c-1.7,0.8-3.2,1.9-4.3,3.3
				c-1.1,1.4-2,3-2.7,4.8c-0.6,1.9-0.9,3.9-0.9,5.8c0,2.1,0.3,4,0.8,5.8c0.6,1.9,1.4,3.5,2.5,4.8c1.1,1.4,2.5,2.5,4.2,3.3
				c1.7,0.8,3.8,1.1,5.8,1.1c3.8,0,6.7-1.1,8.9-3.2c2.1-2,3.5-5,3.8-8.6h-3.8c-0.2,1.3-0.3,2.4-0.8,3.5c-0.5,1.1-0.9,1.9-1.7,2.7
				s-1.6,1.4-2.7,1.7c-0.9,0.5-2.1,0.6-3.5,0.6c-1.7,0-3.3-0.3-4.5-0.9c-1.3-0.6-2.4-1.6-3.2-2.7c-0.8-1.2-1.4-2.4-1.7-3.9
				c-0.3-1.6-0.6-3.2-0.6-4.6c0-1.4,0.2-3,0.6-4.3c0.3-1.4,0.9-2.7,1.7-3.8c0.8-1.1,1.9-2,3.2-2.7c1.3-0.6,2.8-0.9,4.5-0.9
				c2,0,3.8,0.5,5.3,1.6C44.9,104.2,45.8,105.8,46.4,107.9L46.4,107.9z M57.5,113.7c0-1.4,0.2-3,0.6-4.3c0.3-1.4,0.9-2.7,1.9-3.9
				c0.8-1.1,1.9-2,3.2-2.8c1.3-0.6,2.8-1.1,4.5-1.1c1.8,0,3.3,0.3,4.5,1.1c1.3,0.6,2.4,1.6,3.2,2.8c0.8,1.1,1.4,2.5,1.9,3.9
				c0.3,1.4,0.6,3,0.6,4.3c0,1.4-0.2,3-0.6,4.3c-0.3,1.4-0.9,2.7-1.9,3.9c-0.8,1.1-1.9,2-3.2,2.8c-1.3,0.6-2.8,1.1-4.5,1.1
				c-1.8,0-3.3-0.3-4.5-1.1c-1.3-0.6-2.4-1.6-3.2-2.8c-0.8-1.1-1.4-2.5-1.9-3.9C57.8,116.7,57.5,115.2,57.5,113.7L57.5,113.7z
				 M53.6,113.7c0,2,0.3,3.9,0.9,5.7c0.6,1.9,1.4,3.5,2.7,4.8c1.3,1.3,2.7,2.5,4.3,3.5c1.7,0.8,3.8,1.3,6,1.3c2.4,0,4.3-0.5,6-1.3
				c1.7-0.8,3.3-2,4.3-3.5c1.3-1.4,2-3.2,2.7-4.8c0.6-1.9,0.9-3.8,0.9-5.7c0-1.9-0.3-3.9-0.9-5.7c-0.6-1.9-1.4-3.5-2.7-4.8
				c-1.3-1.4-2.7-2.5-4.3-3.5c-1.7-0.8-3.8-1.3-6-1.3c-2.4,0-4.3,0.5-6,1.3c-1.7,0.8-3.3,2-4.3,3.5c-1.3,1.4-2,3.2-2.7,4.8
				C54,109.8,53.6,111.7,53.6,113.7L53.6,113.7z M109.6,117.7V99.1h-3.9v18.7c0,2.7-0.6,4.6-1.9,5.8c-1.3,1.4-3.2,2-5.6,2
				c-2.7,0-4.6-0.6-6-2c-1.4-1.4-2-3.3-2-5.8V99.1h-3.9v18.7c0,3.9,1.1,6.7,3.2,8.6c2.1,1.7,5,2.7,8.9,2.7c3.8,0,6.4-0.9,8.6-2.8
				C108.7,124.3,109.6,121.5,109.6,117.7L109.6,117.7z M115.8,99.1v29h3.8v-23.3h0.2l15.2,23.3h4.2v-29h-3.8v23.6h-0.2l-15.4-23.6
				H115.8z M152,102.3v25.8h3.9v-25.8h9.6v-3.2h-23.3v3.3L152,102.3L152,102.3z"/>
		</g>
	</g>
</g>
</svg>
