<?xml version="1.0" encoding="utf-8"?>
<!-- Generator: Adobe Illustrator 19.1.0, SVG Export Plug-In . SVG Version: 6.00 Build 0)  -->
<svg version="1.1" id="Layer_1" xmlns="http://www.w3.org/2000/svg" xmlns:xlink="http://www.w3.org/1999/xlink" x="0px" y="0px"
	 width="64px" height="64px" viewBox="-647 369 64 64" style="enable-background:new -647 369 64 64;" xml:space="preserve">
<style type="text/css">
	.st0{fill:#444444;}
</style>
<path class="st0" d="M-596.7,377.8h13.2V391h-13.2V377.8z M-596.7,424.2V411h13.2v13.2H-596.7z M-613.4,424.2V411h13.4v13.2
	C-600,424.2-613.4,424.2-613.4,424.2z M-629.9,424.2V411h13.2v13.2H-629.9z M-646.5,424.2V411h13.2v13.2
	C-633.3,424.2-646.5,424.2-646.5,424.2z M-596.7,407.7v-13.4h13.2v13.4H-596.7z M-613.4,377.8h13.4V391h-13.4
	C-613.4,391-613.4,377.8-613.4,377.8z M-629.9,391v-13.2h13.2V391H-629.9z M-613.4,407.7v-13.4h13.4v13.4
	C-600,407.7-613.4,407.7-613.4,407.7z M-629.9,407.7v-13.4h13.2v13.4H-629.9z M-646.5,407.7v-13.4h13.2v13.4
	C-633.3,407.7-646.5,407.7-646.5,407.7z M-646.5,391v-13.2h13.2V391C-633.3,391-646.5,391-646.5,391z"/>
</svg>
