<?xml version="1.0" encoding="utf-8"?>
<!-- Generator: Adobe Illustrator 19.1.0, SVG Export Plug-In . SVG Version: 6.00 Build 0)  -->
<svg version="1.1" id="Layer_1" xmlns:sketch="http://www.bohemiancoding.com/sketch/ns"
	 xmlns="http://www.w3.org/2000/svg" xmlns:xlink="http://www.w3.org/1999/xlink" x="0px" y="0px" width="128px" height="128px"
	 viewBox="0 0 128 128" style="enable-background:new 0 0 128 128;" xml:space="preserve">
<style type="text/css">
	.st0{fill:#383838;}
</style>
<title>Offer</title>
<desc>Created with Sketch.</desc>
<g id="Iconography-Board" sketch:type="MSPage">
	<g id="Offer" transform="translate(-100.000000, -605.000000)" sketch:type="MSArtboardGroup">
		<g transform="translate(100.000000, 605.000000)" sketch:type="MSLayerGroup">
			<path sketch:type="MSShapeGroup" class="st0" d="M124,0H71.3c-1.4,0-3.1,0.7-4,1.7L1.1,67.9C0.4,68.6,0,69.6,0,70.7
				c0,1,0.4,2,1.1,2.8l53.4,53.4c0.7,0.7,1.7,1.1,2.8,1.1c1,0,2-0.4,2.8-1.1l66.2-66.2c1-1,1.7-2.7,1.7-4V3.9
				C127.9,1.8,126.1,0,124,0 M119.4,8.5v46.9l-62.1,62.1L10.4,70.6L72.5,8.5H119.4 M96.1,16.3c-3.9,0-7.7,1.4-10.6,4.3
				c-5.8,5.9-5.8,15.4,0,21.2c2.8,2.8,6.6,4.4,10.6,4.4s7.7-1.6,10.6-4.4c2.8-2.8,4.4-6.6,4.4-10.6s-1.5-7.8-4.4-10.6
				C103.9,17.7,100,16.3,96.1,16.3 M96.1,24.8c1.8,0,3.4,0.6,4.5,1.8c1.2,1.2,1.9,2.8,1.9,4.6s-0.6,3.3-1.9,4.6
				c-1.2,1.2-2.8,1.9-4.5,1.9c-1.7,0-3.3-0.6-4.5-1.9c-2.5-2.5-2.5-6.7,0-9.2C92.7,25.4,94.3,24.8,96.1,24.8"/>
		</g>
	</g>
</g>
</svg>
