<?xml version="1.0" encoding="utf-8"?>
<!-- Generator: Adobe Illustrator 19.1.0, SVG Export Plug-In . SVG Version: 6.00 Build 0)  -->
<svg version="1.1" id="Layer_1" xmlns="http://www.w3.org/2000/svg" xmlns:xlink="http://www.w3.org/1999/xlink" x="0px" y="0px"
	 width="64px" height="64px" viewBox="-639 369 64 64" style="enable-background:new -639 369 64 64;" xml:space="preserve">
<style type="text/css">
	.st0{fill:#444444;}
</style>
<path class="st0" d="M-607,369.5c-17.4,0-31.5,14.1-31.5,31.5c0,13.3,8.3,24.7,20,29.3c-0.3-2.5-0.5-6.3,0.1-9
	c0.6-2.5,3.7-15.7,3.7-15.7s-0.9-1.9-0.9-4.7c0-4.4,2.5-7.7,5.7-7.7c2.7,0,4,2,4,4.4c0,2.7-1.7,6.7-2.6,10.5
	c-0.7,3.1,1.6,5.7,4.7,5.7c5.6,0,9.9-5.9,9.9-14.4c0-7.5-5.4-12.8-13.2-12.8c-9,0-14.2,6.7-14.2,13.7c0,2.7,1,5.6,2.3,7.2
	c0.3,0.3,0.3,0.6,0.2,0.9c-0.2,1-0.8,3.1-0.9,3.6c-0.1,0.6-0.5,0.7-1.1,0.4c-3.9-1.8-6.4-7.6-6.4-12.2c0-9.9,7.2-19.1,20.8-19.1
	c10.9,0,19.4,7.8,19.4,18.2c0,10.9-6.8,19.6-16.3,19.6c-3.2,0-6.2-1.7-7.2-3.6c0,0-1.6,6-2,7.5c-0.7,2.7-2.6,6.2-3.9,8.3
	c2.9,0.9,6.1,1.4,9.3,1.4c17.4,0,31.5-14.1,31.5-31.5C-575.5,383.6-589.6,369.5-607,369.5L-607,369.5z"/>
</svg>
