<?xml version="1.0" encoding="utf-8"?>
<!-- Generator: Adobe Illustrator 19.1.0, SVG Export Plug-In . SVG Version: 6.00 Build 0)  -->
<svg version="1.1" id="Layer_1" xmlns="http://www.w3.org/2000/svg" xmlns:xlink="http://www.w3.org/1999/xlink" x="0px" y="0px"
	 width="64px" height="64px" viewBox="-639 369 64 64" style="enable-background:new -639 369 64 64;" xml:space="preserve">
<style type="text/css">
	.st0{fill:#444444;}
</style>
<path class="st0" d="M-630.1,415.7c-4.6,0-8.4,3.8-8.4,8.4c0,4.6,3.8,8.4,8.4,8.4c4.6,0,8.4-3.7,8.4-8.4
	C-621.7,419.5-625.5,415.7-630.1,415.7z M-638.5,390.9V403c7.9,0,15.3,3.1,20.8,8.6c5.6,5.6,8.6,13,8.6,20.9h12.1
	C-596.9,409.6-615.6,390.9-638.5,390.9z M-638.5,369.5v12.1c28,0,50.9,22.8,50.9,50.9h12.1C-575.5,397.8-603.8,369.5-638.5,369.5z"
	/>
</svg>
