<?xml version="1.0" encoding="utf-8"?>
<!-- Generator: Adobe Illustrator 19.1.0, SVG Export Plug-In . SVG Version: 6.00 Build 0)  -->
<svg version="1.1" id="Layer_1" xmlns:sketch="http://www.bohemiancoding.com/sketch/ns"
	 xmlns="http://www.w3.org/2000/svg" xmlns:xlink="http://www.w3.org/1999/xlink" x="0px" y="0px" width="128px" height="128px"
	 viewBox="-673 336.5 128 128" style="enable-background:new -673 336.5 128 128;" xml:space="preserve">
<style type="text/css">
	.st0{fill:#383838;}
</style>
<path sketch:type="MSShapeGroup" class="st0" d="M-559.1,393.3v-14h-10.1v14h-14.5v10h14.5v14.4h10.1v-14.4h14.1v-10H-559.1z
	 M-632.3,392.5v16.1c0,0,15.6,0,22,0c-3.4,10.4-8.8,16.1-22,16.1c-13.3,0-23.7-10.8-23.7-24.1c0-13.3,10.4-24.1,23.7-24.1
	c7.1,0,11.6,2.5,15.8,5.9c3.3-3.3,3.1-3.8,11.6-11.8c-7.2-6.6-16.8-10.6-27.4-10.6c-22.5,0-40.7,18.1-40.7,40.5
	c0,22.4,18.2,40.5,40.7,40.5c33.6,0,41.8-29.1,39-48.6H-632.3z"/>
</svg>
