<?xml version="1.0" encoding="utf-8"?>
<!-- Generator: Adobe Illustrator 19.1.0, SVG Export Plug-In . SVG Version: 6.00 Build 0)  -->
<svg version="1.1" id="Layer_1" xmlns:sketch="http://www.bohemiancoding.com/sketch/ns"
	 xmlns="http://www.w3.org/2000/svg" xmlns:xlink="http://www.w3.org/1999/xlink" x="0px" y="0px" width="128px" height="128px"
	 viewBox="-97 1 128 128" style="enable-background:new -97 1 128 128;" xml:space="preserve">
<style type="text/css">
	.st0{fill:#383838;}
</style>
<title>Signal</title>
<desc>Created with Sketch.</desc>
<g id="Iconography-Board" sketch:type="MSPage">
	<g id="Signal" transform="translate(-500.000000, -605.000000)" sketch:type="MSArtboardGroup">
		<g transform="translate(500.000000, 605.000000)" sketch:type="MSLayerGroup">
			<path sketch:type="MSShapeGroup" class="st0" d="M-33,120.5L-33,120.5c5.9,0,10.7-4.8,10.7-10.7c0-5.9-4.8-10.7-10.7-10.7
				s-10.7,4.8-10.7,10.7C-43.7,115.7-38.9,120.5-33,120.5L-33,120.5z M-33,129L-33,129c-10.6,0-19.2-8.6-19.2-19.2
				s8.6-19.2,19.2-19.2s19.2,8.6,19.2,19.2S-22.4,129-33,129L-33,129z M-64.1,82.2C-47,65-19,65-1.9,82.2c1.7,1.7,4.4,1.7,6,0
				c1.7-1.7,1.7-4.4,0-6c-20.5-20.5-53.8-20.5-74.3,0c-1.7,1.7-1.7,4.4,0,6S-65.8,83.8-64.1,82.2L-64.1,82.2z M-76.9,57.6
				c24.2-24.3,63.7-24.3,87.9,0c1.7,1.7,4.4,1.7,6,0c1.7-1.7,1.7-4.4,0-6C-10.6,24-55.4,24-83,51.6c-1.7,1.7-1.7,4.4,0,6
				C-81.3,59.3-78.6,59.3-76.9,57.6L-76.9,57.6z M-89.7,33C-58.5,1.7-7.5,1.7,23.7,33c1.7,1.7,4.4,1.7,6,0c1.7-1.7,1.7-4.4,0-6
				C-4.8-7.7-61.2-7.7-95.8,27c-1.7,1.7-1.7,4.4,0,6C-94.1,34.7-91.4,34.7-89.7,33L-89.7,33z"/>
		</g>
	</g>
</g>
</svg>
