<?xml version="1.0" encoding="utf-8"?>
<!-- Generator: Adobe Illustrator 19.1.0, SVG Export Plug-In . SVG Version: 6.00 Build 0)  -->
<svg version="1.1" id="Layer_1" xmlns:sketch="http://www.bohemiancoding.com/sketch/ns"
	 xmlns="http://www.w3.org/2000/svg" xmlns:xlink="http://www.w3.org/1999/xlink" x="0px" y="0px" width="128px" height="128px"
	 viewBox="-673 337 128 128" style="enable-background:new -673 337 128 128;" xml:space="preserve">
<style type="text/css">
	.st0{fill:#383838;}
</style>
<path class="st0" d="M-585.5,416.8c6.8-8.5,10.7-19.2,10.7-30.7c0-27.3-21.8-49.1-49.1-49.1s-49.1,21.8-49.1,49.1
	s21.8,49.1,49.1,49.1c11.5,0,22.2-3.8,30.7-10.7l40.5,40.5l7.7-7.7L-585.5,416.8z M-623.9,426.6c-22.2,0-40.5-18.3-40.5-40.5
	c0-22.2,18.3-40.5,40.5-40.5s40.5,18.3,40.5,40.5C-583.4,408.3-601.7,426.6-623.9,426.6z"/>
</svg>
