<?xml version="1.0" encoding="utf-8"?>
<!-- Generator: Adobe Illustrator 19.2.1, SVG Export Plug-In . SVG Version: 6.00 Build 0)  -->
<svg version="1.1" id="Layer_1" xmlns:sketch="http://www.bohemiancoding.com/sketch/ns"
	 xmlns="http://www.w3.org/2000/svg" xmlns:xlink="http://www.w3.org/1999/xlink" x="0px" y="0px" viewBox="0 0 128 128"
	 style="enable-background:new 0 0 128 128;" xml:space="preserve">
<style type="text/css">
	.st0{fill:#383838;}
</style>
<title>Store Finder (Menu)</title>
<desc>Created with Sketch.</desc>
<g id="Iconography-Board" sketch:type="MSPage">
	<g id="Store-Finder-_x28_Menu_x29_" transform="translate(-96.000000, -1405.000000)" sketch:type="MSArtboardGroup">
		<g transform="translate(96.000000, 1405.000000)" sketch:type="MSLayerGroup">
			<path sketch:type="MSShapeGroup" class="st0" d="M21.3,45.9C21.3,78,63.9,129,63.9,129s42.9-51.1,42.8-83.1
				C106.5,21.1,87.6,1,64,1S21.3,21.1,21.3,45.9z M64,9.5c18.7,0,34,16.3,34.1,36.4c0.1,19.9-20.7,51.4-34.2,69.1
				c-13.4-17.7-34-49.2-34-69.1C29.9,25.8,45.2,9.5,64,9.5 M64,35.1c4.7,0,8.5,3.8,8.5,8.5s-3.8,8.5-8.5,8.5s-8.5-3.8-8.5-8.5
				S59.3,35.1,64,35.1L64,35.1z M64,26.6c-9.5,0-17.1,7.6-17.1,17.1c0,9.4,7.6,17.1,17.1,17.1s17.1-7.6,17.1-17.1
				C81.1,34.2,73.5,26.6,64,26.6L64,26.6z"/>
		</g>
	</g>
</g>
</svg>
