<?xml version="1.0" encoding="utf-8"?>
<!-- Generator: Adobe Illustrator 19.1.0, SVG Export Plug-In . SVG Version: 6.00 Build 0)  -->
<svg version="1.1" id="Layer_1" xmlns:sketch="http://www.bohemiancoding.com/sketch/ns"
	 xmlns="http://www.w3.org/2000/svg" xmlns:xlink="http://www.w3.org/1999/xlink" x="0px" y="0px" width="128px" height="128px"
	 viewBox="-97 1 128 128" style="enable-background:new -97 1 128 128;" xml:space="preserve">
<style type="text/css">
	.st0{fill:#383838;}
</style>
<title>Return</title>
<desc>Created with Sketch.</desc>
<g id="Iconography-Board" sketch:type="MSPage">
	<g id="Return" transform="translate(-900.000000, -547.000000)" sketch:type="MSArtboardGroup">
		<g transform="translate(900.000000, 547.000000)" sketch:type="MSLayerGroup">
			<path sketch:type="MSShapeGroup" class="st0" d="M-41.3,10.8c-0.8,0-1.6,0.3-2.4,0.9l-51.8,42.8c-1,0.7-1.5,1.7-1.5,3
				s0.5,2.3,1.5,3l51.8,43c0.8,0.7,1.7,1.1,2.5,1.1c0.6,0,1.1-0.1,1.7-0.4c1.5-0.8,2.3-2,2.3-3.6v-23c7.7,0,14.7,0.7,21,2
				c6.3,1.3,11.5,3,15.5,5.1c4,2.1,7.6,4.5,10.8,7.3c3.2,2.8,5.5,5.3,7.1,7.6c1.6,2.3,2.9,4.8,3.9,7.4c1,2.6,1.6,4.4,1.7,5.5
				c0.2,1.1,0.3,2,0.5,2.6c0.2,2.3,1.3,3.5,3.3,3.5h0.2c2.2,0,3.4-1.1,3.8-3.3c0.2-1.2,0.3-2.6,0.4-4.4c0.1-1.8,0-4.9-0.1-9.5
				c-0.2-4.6-0.6-9-1.4-13.4c-0.8-4.3-2.3-9.2-4.6-14.5c-2.3-5.3-5.3-10.1-8.8-14.3C4.2,45.3-13.5,38.1-37.2,37.4V14.9
				c0-1.7-0.8-2.9-2.3-3.6C-40.1,10.9-40.7,10.8-41.3,10.8 M-45.7,24.4v13v8.3l8.3,0.2c21.4,0.6,36.7,6.7,47,18.7
				c3,3.5,5.5,7.6,7.5,12.2c2.1,4.7,3.4,8.9,4,12.5c0.1,0.5,0.2,1,0.2,1.5c-1.6-1.8-3.4-3.6-5.6-5.5c-3.7-3.2-7.8-6-12.4-8.4
				c-4.7-2.5-10.5-4.4-17.7-5.9c-6.9-1.5-14.6-2.2-22.8-2.2h-8.5v8.5v13.2l-40-33.2L-45.7,24.4"/>
		</g>
	</g>
</g>
</svg>
