<?xml version="1.0" encoding="utf-8"?>
<!-- Generator: Adobe Illustrator 19.1.0, SVG Export Plug-In . SVG Version: 6.00 Build 0)  -->
<svg version="1.1" id="Layer_1" xmlns:sketch="http://www.bohemiancoding.com/sketch/ns"
	 xmlns="http://www.w3.org/2000/svg" xmlns:xlink="http://www.w3.org/1999/xlink" x="0px" y="0px" width="128px" height="128px"
	 viewBox="0 0 128 128" style="enable-background:new 0 0 128 128;" xml:space="preserve">
<style type="text/css">
	.st0{fill:#383838;}
</style>
<title>Pencil</title>
<desc>Created with Sketch.</desc>
<g id="Iconography-Board" sketch:type="MSPage">
	<g id="Pencil" transform="translate(-500.000000, -1205.000000)" sketch:type="MSArtboardGroup">
		<g transform="translate(500.000000, 1205.000000)" sketch:type="MSLayerGroup">
			<path sketch:type="MSShapeGroup" class="st0" d="M107.5,34c-1.4-2.4-3.3-5-5.9-7.5c-2.6-2.6-5.2-4.5-7.7-6l10.9-10.8
				c1.6,1,4.1,2.8,7.4,6.2c3.4,3.3,5.2,5.7,6.2,7.3L107.5,34z M31.4,110.2c-1.3-2.4-3.1-5.1-5.8-7.7c-2.6-2.7-5.3-4.5-7.7-5.8
				l69.8-69.8c2.4,1.1,5.1,2.8,8,5.7c2.9,2.8,4.6,5.5,5.6,7.8L31.4,110.2z M11.7,116.3l2.9-11.7c1.5,0.9,3.3,2.2,5,4
				c1.7,1.7,3,3.3,3.8,4.8L11.7,116.3z M128,25.6c0-2.9-1.7-7.9-9.7-15.8c-4.6-4.7-9-8-12.3-9c-2.4-0.7-3.1-0.8-3.6-0.8l0,0
				L85.3,17.1l-3.8,3.8L8.6,93.8l0,0L0,128l34.1-8.5l0,0l0,0l73-73l3.8-3.8L128,25.6L128,25.6z"/>
		</g>
	</g>
</g>
</svg>
