<?xml version="1.0" encoding="utf-8"?>
<!-- Generator: Adobe Illustrator 19.2.1, SVG Export Plug-In . SVG Version: 6.00 Build 0)  -->
<svg version="1.1" id="Layer_1" xmlns:sketch="http://www.bohemiancoding.com/sketch/ns"
	 xmlns="http://www.w3.org/2000/svg" xmlns:xlink="http://www.w3.org/1999/xlink" x="0px" y="0px" viewBox="0 0 128 128"
	 style="enable-background:new 0 0 128 128;" xml:space="preserve">
<style type="text/css">
	.st0{fill:#383838;}
</style>
<title>My Bag</title>
<desc>Created with Sketch.</desc>
<path class="st0" d="M119.5,34.2c0-4.8-3.9-8.6-8.6-8.6H93.6h0C91.5,11.1,79,0,64,0C48.9,0,36.5,11.2,34.4,25.6H17.1
	c-4.7,0-8.6,3.8-8.6,8.6L0,119.5c0,4.8,3.9,8.6,8.6,8.6h110.8c4.8,0,8.6-3.9,8.6-8.6L119.5,34.2z M64,8.5c10.3,0,18.9,7.3,20.9,17.1
	H43.1C45.1,15.9,53.7,8.5,64,8.5z M8.5,119.4l8.6-85.3h17.1v9.7c-2.6,1.5-4.3,4.2-4.3,7.4c0,4.7,3.8,8.5,8.5,8.5
	c4.7,0,8.5-3.8,8.5-8.5c0-3.2-1.7-5.9-4.2-7.4v-9.7h42.7v9.7c-2.6,1.5-4.3,4.2-4.3,7.4c0,4.7,3.8,8.5,8.5,8.5c4.7,0,8.5-3.8,8.5-8.5
	c0-3.2-1.7-5.9-4.2-7.4v-9.7h17l8.5,85.3H8.5z"/>
</svg>
