<?xml version="1.0" encoding="utf-8"?>
<!-- Generator: Adobe Illustrator 19.1.0, SVG Export Plug-In . SVG Version: 6.00 Build 0)  -->
<svg version="1.1" id="Layer_1" xmlns:sketch="http://www.bohemiancoding.com/sketch/ns"
	 xmlns="http://www.w3.org/2000/svg" xmlns:xlink="http://www.w3.org/1999/xlink" x="0px" y="0px" width="128px" height="128px"
	 viewBox="-97 0.5 128 128" style="enable-background:new -97 0.5 128 128;" xml:space="preserve">
<style type="text/css">
	.st0{fill:#383838;}
</style>
<title>4 Across</title>
<desc>Created with Sketch.</desc>
<g id="Export-Board" sketch:type="MSPage">
	<g id="_x34_-Across" transform="translate(0.000000, -5.000000)" sketch:type="MSArtboardGroup">
		<g transform="translate(0.000000, 5.000000)" sketch:type="MSLayerGroup">
			<path sketch:type="MSShapeGroup" class="st0" d="M-88.5,28.2L-88.5,28.2v21.4c0,0,0,0,0,0h8.6c0,0,0,0,0,0V28.2c0,0,0,0,0,0
				L-88.5,28.2C-88.5,28.2-88.5,28.2-88.5,28.2L-88.5,28.2z M-97,28.2c0-4.7,3.8-8.5,8.5-8.5h8.6c4.7,0,8.5,3.8,8.5,8.5v21.4
				c0,4.7-3.8,8.5-8.5,8.5h-8.6c-4.7,0-8.5-3.8-8.5-8.5V28.2z M-88.5,79.4v21.4c0,0,0,0,0,0h8.6c0,0,0,0,0,0V79.4c0,0,0,0,0,0
				L-88.5,79.4C-88.5,79.4-88.5,79.4-88.5,79.4z M-97,79.4c0-4.7,3.8-8.5,8.5-8.5h8.6c4.7,0,8.5,3.8,8.5,8.5v21.4
				c0,4.7-3.8,8.5-8.5,8.5h-8.6c-4.7,0-8.5-3.8-8.5-8.5V79.4z M-54.3,28.2v21.4c0,0,0,0,0,0h8.6c0,0,0,0,0,0V28.2c0,0,0,0,0,0
				L-54.3,28.2C-54.3,28.2-54.3,28.2-54.3,28.2z M-62.9,28.2c0-4.7,3.8-8.5,8.5-8.5h8.6c4.7,0,8.5,3.8,8.5,8.5v21.4
				c0,4.7-3.8,8.5-8.5,8.5h-8.6c-4.7,0-8.5-3.8-8.5-8.5V28.2z M-54.3,79.4v21.4c0,0,0,0,0,0h8.6c0,0,0,0,0,0V79.4c0,0,0,0,0,0
				L-54.3,79.4C-54.3,79.4-54.3,79.4-54.3,79.4z M-62.9,79.4c0-4.7,3.8-8.5,8.5-8.5h8.6c4.7,0,8.5,3.8,8.5,8.5v21.4
				c0,4.7-3.8,8.5-8.5,8.5h-8.6c-4.7,0-8.5-3.8-8.5-8.5V79.4z M-20.2,28.2v21.4c0,0,0,0,0,0h8.6c0,0,0,0,0,0V28.2c0,0,0,0,0,0
				L-20.2,28.2C-20.2,28.2-20.2,28.2-20.2,28.2z M-28.7,28.2c0-4.7,3.8-8.5,8.5-8.5h8.6c4.7,0,8.5,3.8,8.5,8.5v21.4
				c0,4.7-3.8,8.5-8.5,8.5h-8.6c-4.7,0-8.5-3.8-8.5-8.5V28.2z M-20.2,79.4v21.4c0,0,0,0,0,0h8.6c0,0,0,0,0,0V79.4c0,0,0,0,0,0
				L-20.2,79.4C-20.2,79.4-20.2,79.4-20.2,79.4z M-28.7,79.4c0-4.7,3.8-8.5,8.5-8.5h8.6c4.7,0,8.5,3.8,8.5,8.5v21.4
				c0,4.7-3.8,8.5-8.5,8.5h-8.6c-4.7,0-8.5-3.8-8.5-8.5V79.4z M13.9,28.2v21.4c0,0,0,0,0,0h8.6c0,0,0,0,0,0V28.2c0,0,0,0,0,0
				L13.9,28.2C13.9,28.2,13.9,28.2,13.9,28.2z M5.4,28.2c0-4.7,3.8-8.5,8.5-8.5h8.6c4.7,0,8.5,3.8,8.5,8.5v21.4
				c0,4.7-3.8,8.5-8.5,8.5h-8.6c-4.7,0-8.5-3.8-8.5-8.5V28.2z M13.9,79.4v21.4c0,0,0,0,0,0h8.6c0,0,0,0,0,0V79.4c0,0,0,0,0,0
				L13.9,79.4C13.9,79.4,13.9,79.4,13.9,79.4z M5.4,79.4c0-4.7,3.8-8.5,8.5-8.5h8.6c4.7,0,8.5,3.8,8.5,8.5v21.4
				c0,4.7-3.8,8.5-8.5,8.5h-8.6c-4.7,0-8.5-3.8-8.5-8.5V79.4L5.4,79.4z"/>
		</g>
	</g>
</g>
</svg>
