<?xml version="1.0" encoding="utf-8"?>
<!-- Generator: Adobe Illustrator 19.1.0, SVG Export Plug-In . SVG Version: 6.00 Build 0)  -->
<svg version="1.1" id="Layer_1" xmlns:sketch="http://www.bohemiancoding.com/sketch/ns"
	 xmlns="http://www.w3.org/2000/svg" xmlns:xlink="http://www.w3.org/1999/xlink" x="0px" y="0px" width="128px" height="128px"
	 viewBox="-97 1 128 128" style="enable-background:new -97 1 128 128;" xml:space="preserve">
<style type="text/css">
	.st0{fill:#383838;}
</style>
<title>Facebook</title>
<desc>Created with Sketch.</desc>
<g id="Iconography-Board" sketch:type="MSPage">
	<g id="Facebook" transform="translate(-100.000000, -965.000000)" sketch:type="MSArtboardGroup">
		<g transform="translate(100.000000, 965.000000)" sketch:type="MSLayerGroup">
			<path sketch:type="MSShapeGroup" class="st0" d="M31,121.9c0,3.9-3.2,7.1-7.1,7.1H-8.7V79.4H8l2.5-19.3H-8.7V47.8
				c0-5.6,1.6-9.4,9.6-9.4l10.2,0V21.1c-1.8-0.2-7.8-0.8-14.9-0.8c-14.7,0-24.8,9-24.8,25.5v14.2h-16.7v19.3h16.7V129h-61.3
				c-3.9,0-7.1-3.2-7.1-7.1V8.1c0-3.9,3.2-7.1,7.1-7.1H23.9C27.8,1,31,4.2,31,8.1V121.9z"/>
		</g>
	</g>
</g>
</svg>
