<?xml version="1.0" encoding="utf-8"?>
<!-- Generator: Adobe Illustrator 19.1.0, SVG Export Plug-In . SVG Version: 6.00 Build 0)  -->
<svg version="1.1" id="Layer_1" xmlns:sketch="http://www.bohemiancoding.com/sketch/ns"
	 xmlns="http://www.w3.org/2000/svg" xmlns:xlink="http://www.w3.org/1999/xlink" x="0px" y="0px" width="128px" height="128px"
	 viewBox="-97 1 128 128" style="enable-background:new -97 1 128 128;" xml:space="preserve">
<style type="text/css">
	.st0{fill:#383838;}
</style>
<title>Pintrest</title>
<desc>Created with Sketch.</desc>
<g id="Iconography-Board" sketch:type="MSPage">
	<g id="Pintrest" transform="translate(-100.000000, -1025.000000)" sketch:type="MSArtboardGroup">
		<g transform="translate(100.000000, 1025.000000)" sketch:type="MSLayerGroup">
			<path sketch:type="MSShapeGroup" class="st0" d="M-33,1c-35.3,0-64,28.7-64,64c0,27.1,16.9,50.3,40.7,59.6
				c-0.6-5.1-1.1-12.8,0.2-18.4c1.2-5,7.5-31.8,7.5-31.8s-1.9-3.8-1.9-9.5c0-8.9,5.2-15.5,11.6-15.5c5.5,0,8.1,4.1,8.1,9
				c0,5.5-3.5,13.7-5.3,21.3c-1.5,6.4,3.2,11.6,9.5,11.6c11.4,0,20.1-12,20.1-29.3c0-15.3-11-26-26.7-26
				c-18.2,0-28.9,13.7-28.9,27.8c0,5.5,2.1,11.4,4.8,14.6c0.5,0.6,0.6,1.2,0.4,1.8c-0.5,2-1.6,6.4-1.8,7.3c-0.3,1.2-0.9,1.4-2.1,0.9
				c-8-3.7-13-15.4-13-24.8c0-20.2,14.7-38.7,42.3-38.7c22.2,0,39.5,15.8,39.5,37c0,22.1-13.9,39.8-33.2,39.8
				c-6.5,0-12.6-3.4-14.7-7.3c0,0-3.2,12.2-4,15.2c-1.4,5.6-5.3,12.5-8,16.8c6,1.9,12.4,2.9,18.9,2.9c35.3,0,64-28.7,64-64
				S2.3,1-33,1"/>
		</g>
	</g>
</g>
</svg>
