<?xml version="1.0" encoding="utf-8"?>
<!-- Generator: Adobe Illustrator 19.1.0, SVG Export Plug-In . SVG Version: 6.00 Build 0)  -->
<svg version="1.1" id="Layer_1" xmlns:sketch="http://www.bohemiancoding.com/sketch/ns"
	 xmlns="http://www.w3.org/2000/svg" xmlns:xlink="http://www.w3.org/1999/xlink" x="0px" y="0px" width="128px" height="128px"
	 viewBox="-97 1 128 128" style="enable-background:new -97 1 128 128;" xml:space="preserve">
<style type="text/css">
	.st0{fill:#383838;}
</style>
<title>Instagram</title>
<desc>Created with Sketch.</desc>
<g id="Iconography-Board" sketch:type="MSPage">
	<g id="Instagram" transform="translate(-900.000000, -965.000000)" sketch:type="MSArtboardGroup">
		<g transform="translate(900.000000, 965.000000)" sketch:type="MSLayerGroup">
			<path sketch:type="MSShapeGroup" class="st0" d="M19,113c0,2.2-1.8,4-4,4h-96c-2.2,0-4-1.8-4-4V53h16c-2.1,3-2.8,8.6-2.8,12.1
				c0,21.4,17.5,38.8,38.9,38.8c21.5,0,38.9-17.4,38.9-38.8c0-3.6-0.5-9.1-3.1-12.1h16V113z M-32.9,40.6c13.6,0,24.6,11,24.6,24.6
				c0,13.6-11,24.6-24.6,24.6c-13.6,0-24.6-11-24.6-24.6C-57.5,51.6-46.4,40.6-32.9,40.6L-32.9,40.6z M-5,21c0-2.2,1.8-4,4-4h12
				c2.2,0,4,1.8,4,4v12c0,2.2-1.8,4-4,4H-1c-2.2,0-4-1.8-4-4V21z M15.8,1h-97.6C-90.2,1-97,7.8-97,16.2v97.6
				c0,8.4,6.8,15.2,15.2,15.2h97.6c8.4,0,15.2-6.8,15.2-15.2V16.2C31,7.8,24.2,1,15.8,1L15.8,1z"/>
		</g>
	</g>
</g>
</svg>
