<?xml version="1.0" encoding="utf-8"?>
<!-- Generator: Adobe Illustrator 19.1.0, SVG Export Plug-In . SVG Version: 6.00 Build 0)  -->
<svg version="1.1" id="Layer_1" xmlns="http://www.w3.org/2000/svg" xmlns:xlink="http://www.w3.org/1999/xlink" x="0px" y="0px"
	 width="64px" height="64px" viewBox="-647 369 64 64" style="enable-background:new -647 369 64 64;" xml:space="preserve">
<style type="text/css">
	.st0{fill:#444444;}
</style>
<path class="st0" d="M-599.3,432.5v-15.8h15.8v15.8C-583.5,432.5-599.3,432.5-599.3,432.5z M-599.3,408.9v-15.8h15.8v15.8
	C-583.5,408.9-599.3,408.9-599.3,408.9z M-622.9,385.3v-15.8h15.8v15.8H-622.9z M-599.3,369.5h15.8v15.8h-15.8
	C-599.3,385.3-599.3,369.5-599.3,369.5z M-622.9,408.9v-15.8h15.8v15.8H-622.9z M-646.5,408.9v-15.8h15.8v15.8
	C-630.7,408.9-646.5,408.9-646.5,408.9z M-646.5,432.5v-15.8h15.8v15.8C-630.7,432.5-646.5,432.5-646.5,432.5z M-622.9,432.5v-15.8
	h15.8v15.8H-622.9z M-646.5,385.3v-15.8h15.8v15.8C-630.7,385.3-646.5,385.3-646.5,385.3z"/>
</svg>
