<?xml version="1.0" encoding="utf-8"?>
<!-- Generator: Adobe Illustrator 19.1.0, SVG Export Plug-In . SVG Version: 6.00 Build 0)  -->
<svg version="1.1" id="Layer_1" xmlns:sketch="http://www.bohemiancoding.com/sketch/ns"
	 xmlns="http://www.w3.org/2000/svg" xmlns:xlink="http://www.w3.org/1999/xlink" x="0px" y="0px" width="128px" height="128px"
	 viewBox="-97 0.5 128 128" style="enable-background:new -97 0.5 128 128;" xml:space="preserve">
<style type="text/css">
	.st0{fill:#383838;}
</style>
<title>3 Across</title>
<desc>Created with Sketch.</desc>
<g id="Export-Board" sketch:type="MSPage">
	<g id="_x33_-Across" transform="translate(0.000000, -5.000000)" sketch:type="MSArtboardGroup">
		<g transform="translate(0.000000, 5.000000)" sketch:type="MSLayerGroup">
			<path sketch:type="MSShapeGroup" class="st0" d="M-88.5,24L-88.5,24v29.9c0-2.4-1.9-4.3-4.3-4.3h25.6c-2.4,0-4.3,1.9-4.3,4.3V24
				c0,2.4,1.9,4.3,4.3,4.3h-25.6C-90.4,28.2-88.5,26.3-88.5,24L-88.5,24z M-97,24c0-2.4,1.9-4.3,4.3-4.3h25.6c2.3,0,4.3,1.9,4.3,4.3
				v29.9c0,2.4-1.9,4.3-4.3,4.3h-25.6c-2.3,0-4.3-1.9-4.3-4.3V24z M-41.5,24v29.9c0-2.4-1.9-4.3-4.3-4.3h25.6
				c-2.4,0-4.3,1.9-4.3,4.3V24c0,2.4,1.9,4.3,4.3,4.3h-25.6C-43.4,28.2-41.5,26.3-41.5,24z M-50.1,24c0-2.4,1.9-4.3,4.3-4.3h25.6
				c2.3,0,4.3,1.9,4.3,4.3v29.9c0,2.4-1.9,4.3-4.3,4.3h-25.6c-2.3,0-4.3-1.9-4.3-4.3V24z M5.4,24v29.9c0-2.4-1.9-4.3-4.3-4.3h25.6
				c-2.4,0-4.3,1.9-4.3,4.3V24c0,2.4,1.9,4.3,4.3,4.3H1.1C3.5,28.2,5.4,26.3,5.4,24z M-3.1,24c0-2.4,1.9-4.3,4.3-4.3h25.6
				c2.3,0,4.3,1.9,4.3,4.3v29.9c0,2.4-1.9,4.3-4.3,4.3H1.1c-2.3,0-4.3-1.9-4.3-4.3V24z M5.4,75.2V105c0-2.4-1.9-4.3-4.3-4.3h25.6
				c-2.4,0-4.3,1.9-4.3,4.3V75.2c0,2.4,1.9,4.3,4.3,4.3H1.1C3.5,79.4,5.4,77.5,5.4,75.2z M-3.1,75.2c0-2.4,1.9-4.3,4.3-4.3h25.6
				c2.3,0,4.3,1.9,4.3,4.3V105c0,2.4-1.9,4.3-4.3,4.3H1.1c-2.3,0-4.3-1.9-4.3-4.3V75.2z M-41.5,75.2V105c0-2.4-1.9-4.3-4.3-4.3h25.6
				c-2.4,0-4.3,1.9-4.3,4.3V75.2c0,2.4,1.9,4.3,4.3,4.3h-25.6C-43.4,79.4-41.5,77.5-41.5,75.2z M-50.1,75.2c0-2.4,1.9-4.3,4.3-4.3
				h25.6c2.3,0,4.3,1.9,4.3,4.3V105c0,2.4-1.9,4.3-4.3,4.3h-25.6c-2.3,0-4.3-1.9-4.3-4.3V75.2z M-88.5,75.2V105
				c0-2.4-1.9-4.3-4.3-4.3h25.6c-2.4,0-4.3,1.9-4.3,4.3V75.2c0,2.4,1.9,4.3,4.3,4.3h-25.6C-90.4,79.4-88.5,77.5-88.5,75.2z
				 M-97,75.2c0-2.4,1.9-4.3,4.3-4.3h25.6c2.3,0,4.3,1.9,4.3,4.3V105c0,2.4-1.9,4.3-4.3,4.3h-25.6c-2.3,0-4.3-1.9-4.3-4.3V75.2
				L-97,75.2z"/>
		</g>
	</g>
</g>
</svg>
