<?xml version="1.0" encoding="utf-8"?>
<!-- Generator: Adobe Illustrator 19.1.0, SVG Export Plug-In . SVG Version: 6.00 Build 0)  -->
<svg version="1.1" id="Layer_1" xmlns:sketch="http://www.bohemiancoding.com/sketch/ns"
	 xmlns="http://www.w3.org/2000/svg" xmlns:xlink="http://www.w3.org/1999/xlink" x="0px" y="0px" width="128px" height="128px"
	 viewBox="-679 337 128 128" style="enable-background:new -679 337 128 128;" xml:space="preserve">
<style type="text/css">
	.st0{fill:#383838;}
</style>
<path id="Mobile" sketch:type="MSShapeGroup" class="st0" d="M-654.1,337c-3.4,0-6.2,1.2-8.6,3.5c-2.4,2.3-3.5,5.2-3.5,8.5v104
	c0,3.3,1.2,6.2,3.5,8.5c2.4,2.3,5.2,3.5,8.6,3.5h78.2c3.4,0,6.2-1.2,8.6-3.5c2.4-2.3,3.5-5.2,3.5-8.5V349c0-3.3-1.2-6.2-3.5-8.5
	c-2.4-2.3-5.2-3.5-8.6-3.5H-654.1z M-573.3,346.6c0.7,0.7,1,1.4,1,2.4v104c0,1-0.3,1.7-1,2.4c-0.8,0.8-1.4,1-2.6,1h-78.2
	c-1.1,0-1.8-0.3-2.6-1c-0.7-0.7-1-1.4-1-2.4V349c0-1.1,0.3-1.7,1-2.4c0.8-0.7,1.4-1,2.6-1h78.2
	C-574.8,345.5-574.1,345.8-573.3,346.6z M-615,447.9c-4.7,0-8.5-3.8-8.5-8.5c0-4.7,3.8-8.5,8.5-8.5s8.5,3.8,8.5,8.5
	C-606.5,444.1-610.3,447.9-615,447.9 M-623.5,362.6c-2.4,0-4.3-1.9-4.3-4.3c0-2.4,1.9-4.3,4.3-4.3h17.1c2.4,0,4.3,1.9,4.3,4.3
	c0,2.4-1.9,4.3-4.3,4.3H-623.5z"/>
</svg>
