<?xml version="1.0" encoding="utf-8"?>
<!-- Generator: Adobe Illustrator 19.1.0, SVG Export Plug-In . SVG Version: 6.00 Build 0)  -->
<svg version="1.1" id="Layer_1" xmlns:sketch="http://www.bohemiancoding.com/sketch/ns"
	 xmlns="http://www.w3.org/2000/svg" xmlns:xlink="http://www.w3.org/1999/xlink" x="0px" y="0px" width="128px" height="128px"
	 viewBox="-97 0.5 128 128" style="enable-background:new -97 0.5 128 128;" xml:space="preserve">
<style type="text/css">
	.st0{fill:#383838;}
</style>
<title>Twitter</title>
<desc>Created with Sketch.</desc>
<g id="Iconography-Board" sketch:type="MSPage">
	<g id="Twitter" transform="translate(-500.000000, -967.000000)" sketch:type="MSArtboardGroup">
		<g transform="translate(500.000000, 967.000000)" sketch:type="MSLayerGroup">
			<path sketch:type="MSShapeGroup" class="st0" d="M27.5,13.1c-5.1,3.1-10.7,5.3-16.7,6.5C6,14.4-0.8,11.2-8.4,11.2
				c-14.5,0-26.3,12.1-26.3,26.9c0,2.1,0.2,4.2,0.7,6.1c-21.8-1.1-41.2-11.8-54.1-28.1c-2.3,4-3.6,8.6-3.6,13.6
				C-91.6,39-87,47.2-80,52c-4.3-0.1-8.4-1.4-11.9-3.4V49c0,13.1,9.1,23.9,21.1,26.4c-2.2,0.6-4.5,0.9-6.9,0.9
				c-1.7,0-3.3-0.2-4.9-0.5c3.3,10.7,13,18.5,24.5,18.7c-9,7.2-20.3,11.5-32.6,11.5c-2.1,0-4.2-0.1-6.3-0.4
				c11.6,7.6,25.4,12.1,40.3,12.1c48.3,0,74.7-41,74.7-76.6c0-1.2,0-2.3-0.1-3.5c5.1-3.8,9.6-8.5,13.1-13.9
				c-4.7,2.1-9.8,3.6-15.1,4.2C21.3,24.7,25.5,19.4,27.5,13.1"/>
		</g>
	</g>
</g>
</svg>
