<?xml version="1.0" encoding="utf-8"?>
<!-- Generator: Adobe Illustrator 19.1.0, SVG Export Plug-In . SVG Version: 6.00 Build 0)  -->
<svg version="1.1" id="Layer_1" xmlns:sketch="http://www.bohemiancoding.com/sketch/ns"
	 xmlns="http://www.w3.org/2000/svg" xmlns:xlink="http://www.w3.org/1999/xlink" x="0px" y="0px" width="128px" height="128px"
	 viewBox="-101 1 128 128" style="enable-background:new -101 1 128 128;" xml:space="preserve">
<style type="text/css">
	.st0{fill:#383838;}
</style>
<title>Bin</title>
<desc>Created with Sketch.</desc>
<g id="Export-Board" sketch:type="MSPage">
	<g id="Bin" transform="translate(-2.000000, 0.000000)" sketch:type="MSArtboardGroup">
		<g transform="translate(2.000000, 0.000000)" sketch:type="MSLayerGroup">
			<path sketch:type="MSShapeGroup" class="st0" d="M-10.7,119.8c0,0.3-0.4,0.6-0.7,0.6h-51.2c-0.2,0-0.6-0.4-0.7-0.6l-7.2-93.2
				h20.7h25.6h20.7L-10.7,119.8z M-49.8,9.5h25.6v8.5h-25.6V9.5z M14.2,18.1h-17h-12.8V9.5c0-4.7-3.8-8.5-8.5-8.5h-25.6
				c-4.7,0-8.5,3.8-8.5,8.5v8.5h-12.8h-17c-2.4,0-4.3,1.9-4.3,4.3c0,2.4,1.9,4.3,4.3,4.3h9.2l7.2,93.9c0.4,4.7,4.5,8.5,9.2,8.5h51.2
				c4.7,0,8.8-3.8,9.2-8.5L5,26.6h9.2c2.4,0,4.3-1.9,4.3-4.3C18.5,20,16.6,18.1,14.2,18.1L14.2,18.1z"/>
		</g>
	</g>
</g>
</svg>
