<?xml version="1.0" encoding="utf-8"?>
<!-- Generator: Adobe Illustrator 19.1.0, SVG Export Plug-In . SVG Version: 6.00 Build 0)  -->
<svg version="1.1" id="Layer_1" xmlns:sketch="http://www.bohemiancoding.com/sketch/ns"
	 xmlns="http://www.w3.org/2000/svg" xmlns:xlink="http://www.w3.org/1999/xlink" x="0px" y="0px" width="128px" height="128px"
	 viewBox="-103 1 128 128" style="enable-background:new -103 1 128 128;" xml:space="preserve">
<style type="text/css">
	.st0{fill:#383838;}
</style>
<title>Tablet</title>
<desc>Created with Sketch.</desc>
<g id="Iconography-Board" sketch:type="MSPage">
	<g id="Tablet" transform="translate(-503.000000, -905.000000)" sketch:type="MSArtboardGroup">
		<g transform="translate(503.000000, 905.000000)" sketch:type="MSLayerGroup">
			<path id="Mobile" sketch:type="MSShapeGroup" class="st0" d="M-78.1,1c-3.4,0-6.2,1.2-8.6,3.5c-2.4,2.3-3.5,5.2-3.5,8.5v104
				c0,3.3,1.2,6.2,3.5,8.5c2.4,2.3,5.2,3.5,8.6,3.5H0.1c3.4,0,6.2-1.2,8.6-3.5c2.4-2.3,3.5-5.2,3.5-8.5V13c0-3.3-1.2-6.2-3.5-8.5
				C6.3,2.2,3.5,1,0.1,1H-78.1z M2.7,10.6c0.7,0.7,1,1.4,1,2.4v104c0,1-0.3,1.7-1,2.4c-0.8,0.8-1.4,1-2.6,1h-78.2
				c-1.1,0-1.8-0.3-2.6-1c-0.7-0.7-1-1.4-1-2.4V13c0-1.1,0.3-1.7,1-2.4c0.8-0.7,1.4-1,2.6-1H0.1C1.2,9.5,1.9,9.8,2.7,10.6z
				 M-39,111.9c-4.7,0-8.5-3.8-8.5-8.5c0-4.7,3.8-8.5,8.5-8.5s8.5,3.8,8.5,8.5C-30.5,108.1-34.3,111.9-39,111.9 M-47.5,26.6
				c-2.4,0-4.3-1.9-4.3-4.3s1.9-4.3,4.3-4.3h17.1c2.4,0,4.3,1.9,4.3,4.3s-1.9,4.3-4.3,4.3H-47.5z"/>
		</g>
	</g>
</g>
</svg>
