<?xml version="1.0" encoding="utf-8"?>
<!-- Generator: Adobe Illustrator 19.1.0, SVG Export Plug-In . SVG Version: 6.00 Build 0)  -->
<svg version="1.1" id="Layer_1" xmlns:sketch="http://www.bohemiancoding.com/sketch/ns"
	 xmlns="http://www.w3.org/2000/svg" xmlns:xlink="http://www.w3.org/1999/xlink" x="0px" y="0px" width="128px" height="128px"
	 viewBox="-97 0.5 128 128" style="enable-background:new -97 0.5 128 128;" xml:space="preserve">
<style type="text/css">
	.st0{fill:#383838;}
</style>
<title>4 Across (Active)</title>
<desc>Created with Sketch.</desc>
<g id="Export-Board" sketch:type="MSPage">
	<g id="_x34_-Across-_x28_Active_x29_" transform="translate(0.000000, -5.000000)" sketch:type="MSArtboardGroup">
		<g transform="translate(0.000000, 5.000000)" sketch:type="MSLayerGroup">
			<path sketch:type="MSShapeGroup" class="st0" d="M-97,24c0-2.4,1.9-4.3,4.2-4.3h17.1c2.3,0,4.2,1.9,4.2,4.3v29.9
				c0,2.4-1.9,4.3-4.2,4.3h-17.1c-2.3,0-4.2-1.9-4.2-4.3V24z M-97,75.2c0-2.4,1.9-4.3,4.2-4.3h17.1c2.3,0,4.2,1.9,4.2,4.3V105
				c0,2.4-1.9,4.3-4.2,4.3h-17.1c-2.3,0-4.2-1.9-4.2-4.3V75.2z M-62.9,24c0-2.4,1.9-4.3,4.2-4.3h17.1c2.3,0,4.2,1.9,4.2,4.3v29.9
				c0,2.4-1.9,4.3-4.2,4.3h-17.1c-2.3,0-4.2-1.9-4.2-4.3V24z M-62.9,75.2c0-2.4,1.9-4.3,4.2-4.3h17.1c2.3,0,4.2,1.9,4.2,4.3V105
				c0,2.4-1.9,4.3-4.2,4.3h-17.1c-2.3,0-4.2-1.9-4.2-4.3V75.2z M-28.7,24c0-2.4,1.9-4.3,4.2-4.3h17.1c2.3,0,4.2,1.9,4.2,4.3v29.9
				c0,2.4-1.9,4.3-4.2,4.3h-17.1c-2.3,0-4.2-1.9-4.2-4.3V24z M-28.7,75.2c0-2.4,1.9-4.3,4.2-4.3h17.1c2.3,0,4.2,1.9,4.2,4.3V105
				c0,2.4-1.9,4.3-4.2,4.3h-17.1c-2.3,0-4.2-1.9-4.2-4.3V75.2z M5.4,24c0-2.4,1.9-4.3,4.2-4.3h17.1c2.3,0,4.2,1.9,4.2,4.3v29.9
				c0,2.4-1.9,4.3-4.2,4.3H9.6c-2.3,0-4.2-1.9-4.2-4.3V24z M5.4,75.2c0-2.4,1.9-4.3,4.2-4.3h17.1c2.3,0,4.2,1.9,4.2,4.3V105
				c0,2.4-1.9,4.3-4.2,4.3H9.6c-2.3,0-4.2-1.9-4.2-4.3V75.2z"/>
		</g>
	</g>
</g>
</svg>
