<?xml version="1.0" encoding="utf-8"?>
<!-- Generator: Adobe Illustrator 19.1.0, SVG Export Plug-In . SVG Version: 6.00 Build 0)  -->
<svg version="1.1" id="Layer_1" xmlns:sketch="http://www.bohemiancoding.com/sketch/ns"
	 xmlns="http://www.w3.org/2000/svg" xmlns:xlink="http://www.w3.org/1999/xlink" x="0px" y="0px" width="128px" height="128px"
	 viewBox="-673 337 128 128" style="enable-background:new -673 337 128 128;" xml:space="preserve">
<style type="text/css">
	.st0{fill:#383838;}
</style>
<path id="Shape" sketch:type="MSShapeGroup" class="st0" d="M-607.1,345.1L-607.1,345.1l2.8,5.7l-16.9,33.7l-2,4l-4.4,0.6l-37.6,5.4
	l-4.8-4.6l1.1-3.5l6.6-0.9l27.2,26l3.3,3.1l-0.8,4.5l-6.4,36.8l-5.8,3l-3-2.2l1.1-6.4l33.8-17.4l3.9-2l3.9,2l33.8,17.4l1.1,6.4
	l-3,2.2l-5.8-3l-6.4-36.8l-0.8-4.5l3.3-3.1l27.2-26l6.6,0.9l1.1,3.5l-4.8,4.6l-37.6-5.4l-4.4-0.6l-2-4l-16.9-33.7l2.8-5.7
	L-607.1,345.1z M-609,341.3L-609,341.3l19.8,39.3l44.2,6.3l-32,30.6l7.6,43.2l-39.6-20.4l-39.6,20.4l7.6-43.2l-32-30.6l44.2-6.3
	L-609,341.3z"/>
</svg>
