<?xml version="1.0" encoding="utf-8"?>
<!-- Generator: Adobe Illustrator 19.1.0, SVG Export Plug-In . SVG Version: 6.00 Build 0)  -->
<svg version="1.1" id="Layer_1" xmlns="http://www.w3.org/2000/svg" xmlns:xlink="http://www.w3.org/1999/xlink" x="0px" y="0px"
	 width="64px" height="64px" viewBox="-647 369 64 64" style="enable-background:new -647 369 64 64;" xml:space="preserve">
<style type="text/css">
	.st0{fill:#444444;}
</style>
<path class="st0" d="M-585.5,371.5v11.8h-11.8v-11.8H-585.5 M-609.1,371.5v11.8h-11.8v-11.8H-609.1 M-632.7,371.5v11.8h-11.8v-11.8
	H-632.7 M-585.5,395.1v11.8h-11.8v-11.8H-585.5 M-609.1,395.1v11.8h-11.8v-11.8H-609.1 M-632.7,395.1v11.8h-11.8v-11.8H-632.7
	 M-585.5,418.7v11.8h-11.8v-11.8H-585.5 M-609.1,418.7v11.8h-11.8v-11.8H-609.1 M-632.7,418.7v11.8h-11.8v-11.8H-632.7
	 M-583.5,369.5h-15.8v15.8h15.8V369.5L-583.5,369.5z M-607.1,369.5h-15.8v15.8h15.8V369.5L-607.1,369.5z M-630.8,369.5h-15.8v15.8
	h15.8V369.5L-630.8,369.5z M-583.5,393.1h-15.8v15.8h15.8V393.1L-583.5,393.1z M-607.1,393.1h-15.8v15.8h15.8V393.1L-607.1,393.1z
	 M-630.8,393.1h-15.8v15.8h15.8V393.1L-630.8,393.1z M-583.5,416.8h-15.8v15.8h15.8V416.8L-583.5,416.8z M-607.1,416.8h-15.8v15.8
	h15.8V416.8L-607.1,416.8z M-630.8,416.8h-15.8v15.8h15.8V416.8L-630.8,416.8z"/>
</svg>
