<?xml version="1.0" encoding="utf-8"?>
<!-- Generator: Adobe Illustrator 19.1.0, SVG Export Plug-In . SVG Version: 6.00 Build 0)  -->
<svg version="1.1" id="Layer_1" xmlns:sketch="http://www.bohemiancoding.com/sketch/ns"
	 xmlns="http://www.w3.org/2000/svg" xmlns:xlink="http://www.w3.org/1999/xlink" x="0px" y="0px" width="128px" height="128px"
	 viewBox="0 0 128 128" style="enable-background:new 0 0 128 128;" xml:space="preserve">
<style type="text/css">
	.st0{fill:#383838;}
</style>
<title>Empty Star</title>
<desc>Created with Sketch.</desc>
<g id="Iconography-Board" sketch:type="MSPage">
	<g id="Empty-Star" transform="translate(-500.000000, -666.000000)" sketch:type="MSArtboardGroup">
		<g transform="translate(500.000000, 666.000000)" sketch:type="MSLayerGroup">
			<path id="Shape" sketch:type="MSShapeGroup" class="st0" d="M65.9,8.1L65.9,8.1l2.8,5.7L51.8,47.5l-2,4l-4.4,0.6L7.8,57.5L3,52.9
				l1.1-3.5l6.6-0.9l27.2,26l3.3,3.1l-0.8,4.5L34,118.9l-5.8,3l-3-2.2l1.1-6.4l33.8-17.4l3.9-2l3.9,2l33.8,17.4l1.1,6.4l-3,2.2
				l-5.8-3L87.6,82l-0.8-4.5l3.3-3.1l27.2-26l6.6,0.9l1.1,3.5l-4.8,4.6L82.6,52l-4.4-0.6l-2-4L59.3,13.7L62.1,8L65.9,8.1z M64,4.3
				L64,4.3l19.8,39.3l44.2,6.3L96,80.5l7.6,43.2L64,103.3l-39.6,20.4L32,80.5L0,49.9l44.2-6.3L64,4.3z"/>
		</g>
	</g>
</g>
</svg>
