<?xml version="1.0" encoding="utf-8"?>
<!-- Generator: Adobe Illustrator 19.1.0, SVG Export Plug-In . SVG Version: 6.00 Build 0)  -->
<svg version="1.1" id="Layer_1" xmlns:sketch="http://www.bohemiancoding.com/sketch/ns"
	 xmlns="http://www.w3.org/2000/svg" xmlns:xlink="http://www.w3.org/1999/xlink" x="0px" y="0px" width="128px" height="128px"
	 viewBox="-97 0.5 128 128" style="enable-background:new -97 0.5 128 128;" xml:space="preserve">
<style type="text/css">
	.st0{fill:#383838;}
</style>
<title>Google +</title>
<desc>Created with Sketch.</desc>
<g id="Iconography-Board" sketch:type="MSPage">
	<g id="Google-_x2B_" transform="translate(-900.000000, -1031.000000)" sketch:type="MSArtboardGroup">
		<g transform="translate(900.000000, 1031.000000)" sketch:type="MSLayerGroup">
			<path sketch:type="MSShapeGroup" class="st0" d="M16.9,57.3v-14H6.9v14H-7.6v10H6.9v14.4h10.1V67.3H31v-10H16.9z M-56.3,56.5
				v16.1c0,0,15.6,0,22,0c-3.4,10.4-8.8,16.1-22,16.1c-13.3,0-23.7-10.8-23.7-24.1c0-13.3,10.4-24.1,23.7-24.1
				c7.1,0,11.6,2.5,15.8,5.9c3.3-3.3,3.1-3.8,11.6-11.8C-36.2,28-45.8,24-56.3,24C-78.8,24-97,42.1-97,64.5
				c0,22.4,18.2,40.5,40.7,40.5c33.6,0,41.8-29.1,39-48.6H-56.3z"/>
		</g>
	</g>
</g>
</svg>
