<?xml version="1.0" encoding="utf-8"?>
<!-- Generator: Adobe Illustrator 19.1.0, SVG Export Plug-In . SVG Version: 6.00 Build 0)  -->
<svg version="1.1" id="Layer_1" xmlns:sketch="http://www.bohemiancoding.com/sketch/ns"
	 xmlns="http://www.w3.org/2000/svg" xmlns:xlink="http://www.w3.org/1999/xlink" x="0px" y="0px" width="128px" height="128px"
	 viewBox="-97 1 128 128" style="enable-background:new -97 1 128 128;" xml:space="preserve">
<style type="text/css">
	.st0{fill:#383838;}
</style>
<title>Telephone</title>
<desc>Created with Sketch.</desc>
<g id="Iconography-Board" sketch:type="MSPage">
	<g id="Telephone" transform="translate(-900.000000, -485.000000)" sketch:type="MSArtboardGroup">
		<g transform="translate(900.000000, 485.000000)" sketch:type="MSLayerGroup">
			<path sketch:type="MSShapeGroup" class="st0" d="M-71.8,1c-2.3,0-4.4,0.7-6.2,2c-1.5,1-3.3,2.3-5.5,4c-2.2,1.7-4.9,4.4-8.3,8.1
				c-3.4,3.7-5.1,6.8-5.1,9.1c0.7,17.7,13.8,39.4,39.5,65.1s47.3,39,64.9,39.6h0.3c2.3,0,5.3-1.7,9-5.1c3.7-3.4,6.4-6.3,8.2-8.5
				c1.8-2.3,3.2-4,4-5.1c1.7-2.7,2.4-5.2,2.1-7.5c-0.2-2.3-1.3-4.2-3.1-5.5C18.2,90.4,9.6,84.7,1.9,80c-1.2-0.7-2.5-1-4-1
				c-2,0-4.1,0.6-6.2,1.7c-1.7,0.8-5.5,3-11.5,6.5c-5-3.7-11.2-9.3-18.7-16.8c-7.5-7.5-13-13.8-16.7-19c3.3-6,5.4-9.8,6.2-11.5
				c2.2-4,2.4-7.4,0.7-10.3C-54.8,19.2-60.5,10.7-65.4,4C-66.9,2-69,1-71.8,1 M-71.9,9.5c4.6,6.3,10,14.5,16.3,24.4
				c0,0.3-0.2,0.9-0.8,2c0,0.1-0.1,0.2-0.1,0.3c-0.5,1.1-2,3.9-6.1,11.2c-1.6,2.9-1.4,6.4,0.5,9.1c4,5.6,9.7,12.2,17.6,20.1
				c7.9,7.9,14.3,13.6,19.7,17.6c1.5,1.1,3.3,1.7,5.1,1.7c1.5,0,3-0.4,4.3-1.2c7.2-4.2,10-5.7,11-6.2c0.1,0,0.2-0.1,0.2-0.1
				c0.8-0.4,1.5-0.7,2.1-0.7c7.2,4.4,15.5,10,24.5,16.3c-0.1,0.3-0.2,0.8-0.7,1.6c-0.6,0.8-1.6,2.1-3.5,4.5
				c-1.6,1.9-4.1,4.5-7.4,7.6c-2,1.9-3.2,2.6-3.6,2.8c-15.2-0.9-34.9-13.3-58.6-37.1c-23.6-23.7-36-43.4-37-58.7
				c0.2-0.5,0.9-1.7,2.9-3.8c3.8-4.2,6-6.2,7.2-7.1c2-1.5,3.7-2.8,5-3.7c0.1-0.1,0.2-0.1,0.3-0.2C-72.7,9.7-72.4,9.5-71.9,9.5"/>
		</g>
	</g>
</g>
</svg>
