<?xml version="1.0" encoding="utf-8"?>
<!-- Generator: Adobe Illustrator 19.2.1, SVG Export Plug-In . SVG Version: 6.00 Build 0)  -->
<svg version="1.1" id="Layer_1" xmlns:sketch="http://www.bohemiancoding.com/sketch/ns"
	 xmlns="http://www.w3.org/2000/svg" xmlns:xlink="http://www.w3.org/1999/xlink" x="0px" y="0px" viewBox="0 0 128 128"
	 style="enable-background:new 0 0 128 128;" xml:space="preserve">
<style type="text/css">
	.st0{fill:#383838;}
</style>
<title>Secure Padlock</title>
<desc>Created with Sketch.</desc>
<g id="Icons" sketch:type="MSPage">
	<g id="Secure-Padlock" transform="translate(-403.000000, -1148.000000)" sketch:type="MSArtboardGroup">
		<g transform="translate(403.000000, 1148.000000)" sketch:type="MSLayerGroup">
			<path id="Path" sketch:type="MSShapeGroup" class="st0" d="M62.4,0c0.2,0,0.3,0,0.5,0l0,0c-9.2,0.3-17.3,4.8-22.5,11.6
				C45.2,5.3,52.6,1,61,0.1C61.5,0.1,62,0.1,62.4,0c0.5,0,1,0,1.6,0c16.5,0,29.9,13.4,29.9,29.9h-8.5c0-11.8-9.6-21.3-21.3-21.3
				c-0.7,0-1.4,0-2.1,0.1C51.1,9.7,42.7,18.8,42.7,29.9h-8.5C34.1,13.9,46.7,0.9,62.4,0L62.4,0z M34.1,29.9h8.5v12.8h-8.5V29.9
				L34.1,29.9z M12.8,55.4c0-7.1,5.7-12.8,12.8-12.8h76.9c7,0,12.8,5.7,12.8,12.8v59.8c0,7.1-5.7,12.8-12.8,12.8H25.6
				c-7,0-12.8-5.7-12.8-12.8V55.4L12.8,55.4z M21.3,55.4v59.8c0,2.3,1.9,4.2,4.2,4.2h76.9c2.3,0,4.2-1.9,4.2-4.2V55.4
				c0-2.3-1.9-4.2-4.2-4.2H25.6C23.2,51.2,21.3,53.1,21.3,55.4L21.3,55.4z M68.3,84.2c2.6-1.5,4.3-4.2,4.3-7.4
				c0-4.7-3.8-8.5-8.5-8.5s-8.5,3.8-8.5,8.5c0,3.2,1.7,5.9,4.3,7.4v13.9c0,2.4,1.9,4.3,4.3,4.3c2.4,0,4.3-1.9,4.3-4.3V84.2
				L68.3,84.2z"/>
		</g>
	</g>
</g>
</svg>
