<?xml version="1.0" encoding="utf-8"?>
<!-- Generator: Adobe Illustrator 19.1.0, SVG Export Plug-In . SVG Version: 6.00 Build 0)  -->
<svg version="1.1" id="Layer_1" xmlns:sketch="http://www.bohemiancoding.com/sketch/ns"
	 xmlns="http://www.w3.org/2000/svg" xmlns:xlink="http://www.w3.org/1999/xlink" x="0px" y="0px" width="128px" height="128px"
	 viewBox="-575 337 128 128" style="enable-background:new -575 337 128 128;" xml:space="preserve">
<style type="text/css">
	.st0{fill:#383838;}
</style>
<path class="st0" d="M-447,386.9l-44.2-6.3l-19.8-39.3l-19.8,39.3l-44.2,6.3l3,2.9l0,0.1l4.8,4.6l0.1,0l24.1,23l-7.6,43.2l3.7-1.9
	l0.1,0.1l5.8-3l0-0.2l30-15.4l30,15.4l0,0.2l5.8,3l0.1-0.1l3.7,1.9l-7.6-43.2l24.1-23l0.1,0l4.8-4.6l0-0.1L-447,386.9z
	 M-484.9,411.5l-3.3,3.1l0.8,4.5l4.6,26.3l-24.3-12.5l-3.9-2l-3.9,2l-24.3,12.5l4.6-26.3l0.8-4.5l-3.3-3.1l-19.4-18.5l26.9-3.9
	l4.4-0.6l2-4l12.2-24.3l12.2,24.3l2,4l4.4,0.6l26.9,3.9L-484.9,411.5z"/>
</svg>
