<?xml version="1.0" encoding="utf-8"?>
<!-- Generator: Adobe Illustrator 19.1.0, SVG Export Plug-In . SVG Version: 6.00 Build 0)  -->
<svg version="1.1" id="Layer_1" xmlns:sketch="http://www.bohemiancoding.com/sketch/ns"
	 xmlns="http://www.w3.org/2000/svg" xmlns:xlink="http://www.w3.org/1999/xlink" x="0px" y="0px" width="128px" height="128px"
	 viewBox="-97 1 128 128" style="enable-background:new -97 1 128 128;" xml:space="preserve">
<style type="text/css">
	.st0{fill:#383838;}
</style>
<title>Female User</title>
<desc>Created with Sketch.</desc>
<g id="Iconography-Board" sketch:type="MSPage">
	<g id="Female-User" transform="translate(-900.000000, -425.000000)" sketch:type="MSArtboardGroup">
		<g transform="translate(900.000000, 425.000000)" sketch:type="MSLayerGroup">
			<path sketch:type="MSShapeGroup" class="st0" d="M-33,1c-8.8,0-16.4,2.6-22.7,7.9c-6.3,5.2-9.9,12-10.8,20.4
				c-0.5,4-1.1,8.6-1.9,13.9c-0.8,5.3-1.1,8.3-1.1,9.1c-0.5,4.3-1.5,8.6-3,12.7c-1.5,4.2-2.9,7.3-4.2,9.5l-1.7,3.2
				c0.5,1.2,2.4,2.2,5.6,3c3.3,0.8,6.9,1.6,10.9,2.3c4,0.7,6.6,1.3,7.8,1.7L-89,101.2c-0.7,0.3-1.4,0.7-2.2,1.1
				c-0.8,0.4-2,1.4-3.5,3c-1.5,1.6-2.2,3.4-2.2,5.4v10.5c0,2.2,0.8,4,2.4,5.5c1.6,1.5,3.5,2.2,5.6,2.2H23c2.2,0,4-0.8,5.6-2.2
				c1.6-1.5,2.4-3.3,2.4-5.5v-10.5c0-2-0.7-3.8-2-5.4c-1.3-1.6-2.7-2.6-4-3.1l-2-1l-34.8-16.5C-10.6,84.3-8,83.7-4,83
				c4-0.7,7.6-1.4,10.9-2.3c3.2-0.8,5.1-1.8,5.6-3c-4.8-7.3-7.8-15.7-9-25.3c0-1-0.4-4.1-1.1-9.4C1.6,37.9,1,33.3,0.5,29.2
				c-0.8-8.3-4.4-15.1-10.8-20.4C-16.6,3.6-24.2,1-33,1 M-33,9.5c6.8,0,12.5,1.9,17.3,5.9c4.6,3.8,7.1,8.6,7.7,14.9
				c0.5,4,1.1,8.7,1.9,14c0.9,6.6,1,8,1,8.2c0,0.3,0,0.7,0.1,1c0.9,7.1,2.7,13.8,5.4,19.9c-1.8,0.4-3.8,0.8-5.9,1.1
				c-6.2,1-8.3,1.7-9.7,2.3c-3.1,1.3-5.1,4.3-5.2,7.7c-0.1,3.4,1.8,6.4,4.9,7.9l34.6,16.4l2,1c0.2,0.1,0.4,0.2,0.6,0.3
				c0.1,0.1,0.3,0.3,0.7,0.7v9.6H-88.5v-9.3c0.7-0.8,1.2-1.1,1.3-1.3l1.8-0.9l34.7-16.5c3-1.4,4.9-4.5,4.9-7.9s-2.1-6.4-5.2-7.7
				c-1.3-0.6-3.5-1.3-9.7-2.3c-2.1-0.4-4.2-0.7-6.1-1.1c0.7-1.7,1.4-3.5,2.2-5.6c1.7-4.8,2.9-9.7,3.4-14.7c0-0.3,0.1-0.5,0.1-0.8
				c0-0.2,0.1-1.6,1-8.1c0.8-5.3,1.4-10,1.9-14.2c0.6-6.1,3.1-10.9,7.7-14.7C-45.5,11.5-39.8,9.5-33,9.5"/>
		</g>
	</g>
</g>
</svg>
