<?xml version="1.0" encoding="utf-8"?>
<!-- Generator: Adobe Illustrator 19.2.1, SVG Export Plug-In . SVG Version: 6.00 Build 0)  -->
<svg version="1.1" id="Layer_1" xmlns:sketch="http://www.bohemiancoding.com/sketch/ns"
	 xmlns="http://www.w3.org/2000/svg" xmlns:xlink="http://www.w3.org/1999/xlink" x="0px" y="0px" viewBox="0 0 128 128"
	 style="enable-background:new 0 0 128 128;" xml:space="preserve">
<style type="text/css">
	.st0{fill:#383838;}
</style>
<title>3 Across</title>
<desc>Created with Sketch.</desc>
<g>
	<path class="st0" d="M2,23v36h36V23H2z M34,55H6V27h28V55z"/>
	<path class="st0" d="M2,69v36h36V69H2z M34,101H6V73h28V101z"/>
	<path class="st0" d="M90,69v36h36V69H90z M122,101H94V73h28V101z"/>
	<path class="st0" d="M90,23v36h36V23H90z M122,55H94V27h28V55z"/>
	<path class="st0" d="M46,69v36h36V69H46z M78,101H50V73h28V101z"/>
	<path class="st0" d="M46,23v36h36V23H46z M78,55H50V27h28V55z"/>
</g>
</svg>
