<?xml version="1.0" encoding="utf-8"?>
<!-- Generator: Adobe Illustrator 19.2.1, SVG Export Plug-In . SVG Version: 6.00 Build 0)  -->
<svg version="1.1" id="Layer_1" xmlns:sketch="http://www.bohemiancoding.com/sketch/ns"
	 xmlns="http://www.w3.org/2000/svg" xmlns:xlink="http://www.w3.org/1999/xlink" x="0px" y="0px" viewBox="0 0 128 128"
	 style="enable-background:new 0 0 128 128;" xml:space="preserve">
<style type="text/css">
	.st0{fill:#383838;}
</style>
<title>4 Across</title>
<desc>Created with Sketch.</desc>
<g>
	<path class="st0" d="M9,23v25h24V23H9z M29,44H13V27h16V44z"/>
	<path class="st0" d="M9,80v25h24V80H9z M29,101H13V84h16V101z"/>
	<path class="st0" d="M9,52v24h24V52H9z M29,72H13V56h16V72z"/>
	<path class="st0" d="M38,80v25h24V80H38z M58,101H42V84h16V101z"/>
	<path class="st0" d="M38,23v25h24V23H38z M58,44H42V27h16V44z"/>
	<path class="st0" d="M95,80v25h24V80H95z M115,101H99V84h16V101z"/>
	<path class="st0" d="M95,52v24h24V52H95z M115,72H99V56h16V72z"/>
	<path class="st0" d="M95,23v25h24V23H95z M115,44H99V27h16V44z"/>
	<path class="st0" d="M38,52v24h24V52H38z M58,72H42V56h16V72z"/>
	<path class="st0" d="M66,80v25h24V80H66z M86,101H70V84h16V101z"/>
	<path class="st0" d="M66,52v24h24V52H66z M86,72H70V56h16V72z"/>
	<path class="st0" d="M66,23v25h24V23H66z M86,44H70V27h16V44z"/>
</g>
</svg>
