<?xml version="1.0" encoding="utf-8"?>
<!-- Generator: Adobe Illustrator 19.1.0, SVG Export Plug-In . SVG Version: 6.00 Build 0)  -->
<svg version="1.1" id="Layer_1" xmlns:sketch="http://www.bohemiancoding.com/sketch/ns"
	 xmlns="http://www.w3.org/2000/svg" xmlns:xlink="http://www.w3.org/1999/xlink" x="0px" y="0px" width="128px" height="128px"
	 viewBox="-97 1 128 128" style="enable-background:new -97 1 128 128;" xml:space="preserve">
<style type="text/css">
	.st0{fill:#383838;}
</style>
<title>Male User</title>
<desc>Created with Sketch.</desc>
<g id="Iconography-Board" sketch:type="MSPage">
	<g id="Male-User" transform="translate(-500.000000, -425.000000)" sketch:type="MSArtboardGroup">
		<g transform="translate(500.000000, 425.000000)" sketch:type="MSLayerGroup">
			<path sketch:type="MSShapeGroup" class="st0" d="M-33.1,1c-8.7,0-16.9,3-24.5,9C-65.2,16-69,22.3-69,29v20
				c0,5.5,1.2,11.8,3.7,18.8c2.5,7,6.3,12.5,11.3,16.5L-89,101c-0.7,0.2-1.4,0.5-2.3,1c-0.8,0.5-2,1.5-3.5,2.9
				c-1.5,1.4-2.2,2.8-2.2,4.1v12c0,2.2,0.8,4,2.4,5.6c1.6,1.6,3.5,2.4,5.6,2.4H23c2.2,0,4-0.8,5.6-2.4c1.6-1.6,2.4-3.5,2.4-5.6v-12
				c0-1.5-0.7-2.9-2-4.2c-1.3-1.3-2.7-2.2-4-2.8l-2-1l-34.7-16.5c5-4,8.7-9.5,11.1-16.4C1.8,61.2,3,54.8,3,49V29
				c0-6.7-3.8-13-11.5-19C-16.2,4-24.4,1-33.1,1 M-33.1,9.5c6.9,0,13.2,2.4,19.4,7.2C-8.3,21-5.5,25.1-5.5,29v20
				c0,4.8-1.1,10.3-3.1,16.3c-1.9,5.4-4.7,9.5-8.4,12.5c-2.3,1.8-3.5,4.7-3.1,7.6c0.3,2.9,2.2,5.5,4.8,6.7l34.6,16.4l2,1
				c0.3,0.1,0.5,0.2,0.8,0.3c0,0,0.2,0.1,0.5,0.3v10.1H-88.5v-9.8c1.1-1.1,1.6-1.4,1.6-1.4l0,0c0.1,0,0.1-0.1,0.2-0.1
				c0.5-0.1,0.9-0.3,1.4-0.5l35-16.7c2.6-1.3,4.5-3.8,4.8-6.7c0.3-2.9-0.9-5.8-3.1-7.6c-3.8-3-6.6-7.2-8.5-12.7
				c-2.2-6-3.2-11.4-3.2-15.9V29c0-3.9,2.7-8,8.1-12.3C-46.2,11.9-40,9.5-33.1,9.5"/>
		</g>
	</g>
</g>
</svg>
