<svg xmlns="http://www.w3.org/2000/svg" width="77" height="78" viewBox="-25 26 77 78" enable-background="new -25 26 77 78"><path fill="#d1cece" d="M2.5 26.5h22v77h-22z"/><g fill="#7b7b7b"><path d="M15.2 94.8c.4 0 .7-.1.9-.2.3-.1.5-.3.6-.5.2-.2.3-.5.4-.7.1-.3.1-.6.1-.9 0-.4 0-.7-.1-.9-.1-.3-.2-.5-.3-.6-.1-.2-.3-.3-.4-.3-.2-.1-.3-.1-.5-.1-.4 0-.6.1-.8.2-.2.1-.3.3-.4.5-.1.3-.2.7-.3 1.2-.1.4-.2 1-.4 1.6-.1.4-.2.7-.4 1-.2.3-.4.5-.6.6-.2.2-.4.3-.7.3-.2.1-.5.1-.7.1-.5 0-.9-.1-1.2-.3-.3-.2-.6-.5-.9-.8-.2-.3-.4-.7-.5-1.1s-.2-.8-.2-1.2c0-.5.1-.9.2-1.4.1-.4.3-.8.6-1.1.3-.3.6-.6.9-.8.4-.2.8-.3 1.3-.3v1.6c-.6 0-1 .2-1.3.6-.2.4-.4.8-.4 1.4 0 .2 0 .4.1.6 0 .2.1.4.2.5.1.2.2.3.4.4.2.1.4.2.6.2.3 0 .6-.1.8-.3.2-.2.3-.5.4-.8 0 0 0-.2.1-.4s.1-.5.2-.8.2-.6.2-.9c.1-.3.1-.5.2-.6.1-.3.2-.6.4-.8l.6-.6c.2-.2.4-.3.7-.3.2-.1.5-.1.7-.1.5 0 1 .1 1.3.3.4.2.7.5.9.8.2.3.4.7.5 1.2.1.4.2.9.2 1.4s-.1 1-.2 1.5-.3.9-.6 1.2c-.3.3-.6.6-1 .8s-.9.3-1.5.3v-1.5h-.1zM9 87.6v-1.5h1.4v1.5H9zm2.5 0v-1.5h6.7v1.5h-6.7zM11.5 84.7v-5.5h1L17 83v-4h1.2v5.9h-1l-4.5-3.7v3.5h-1.2zM15.3 76.9c.3 0 .5 0 .8-.1s.5-.2.6-.3c.2-.1.3-.3.4-.6.1-.2.2-.5.2-.8 0-.4-.1-.8-.3-1-.2-.3-.5-.5-.8-.6v-1.4c.4.1.7.2 1 .4.3.2.5.4.7.7.2.3.3.6.4.9s.1.7.1 1c0 .5-.1 1-.3 1.4-.2.4-.4.8-.7 1-.3.3-.7.5-1.1.6s-.9.2-1.4.2-.9-.1-1.4-.2c-.4-.2-.8-.4-1.1-.6-.3-.3-.6-.6-.8-1-.2-.4-.3-.8-.3-1.4 0-.5.1-1 .3-1.4.2-.4.5-.8.9-1 .4-.3.8-.5 1.3-.6s1-.2 1.5-.1v4.9zm-1-3.5c-.2 0-.5.1-.7.1l-.6.3c-.2.1-.3.3-.4.5s-.1.4-.1.7 0 .5.1.7.2.4.4.5c.2.2.3.3.6.4.2.1.5.1.7.1v-3.3zM10.7 67.3c0-.3 0-.6-.1-.9s-.1-.6-.3-.8c-.1-.2-.3-.4-.5-.6s-.4-.3-.7-.3v-1.2h9.1v1.6h-6.4v2.2h-1.1zM18.4 57.1c0 .5-.1.9-.2 1.3s-.3.7-.6 1c-.2.3-.5.5-.9.7s-.8.2-1.2.2c-.6 0-1.1-.1-1.4-.4-.4-.3-.6-.7-.8-1.2-.2.4-.4.7-.7 1-.3.2-.7.3-1.2.3-.8 0-1.4-.2-1.8-.7s-.7-1.2-.7-2.1c0-.9.2-1.6.7-2.1.4-.5 1-.7 1.8-.7.4 0 .8.1 1.2.3.3.2.6.5.7 1 .1-.5.4-.9.8-1.2s.9-.4 1.4-.4c.4 0 .8.1 1.2.2.4.2.7.4.9.7.2.3.4.6.6 1 .2.2.2.7.2 1.1zm-8.3 0c0 .4.1.7.4 1 .2.3.6.4 1 .4s.8-.1 1-.4c.2-.3.3-.6.3-1s-.1-.8-.3-1c-.2-.3-.6-.4-1-.4-.5 0-.8.1-1 .4s-.4.6-.4 1zm7.2 0c0-.5-.1-.9-.4-1.2s-.7-.5-1.2-.5-.9.2-1.2.5c-.3.3-.4.7-.4 1.2s.1.9.4 1.2.7.5 1.2.5 1-.2 1.2-.5.4-.7.4-1.2zM14 52.9v-3.8h1.4v3.8H14zM18.2 41.7v6.2c-.8 0-1.4-.2-2-.5-.6-.4-1.1-.8-1.5-1.5l-.6-.9c-.2-.3-.4-.6-.7-.9-.2-.3-.5-.5-.8-.7s-.6-.3-.9-.3c-.2 0-.3 0-.5.1-.2 0-.4.1-.5.2-.2.1-.3.3-.4.5s-.2.5-.2.8.1.5.2.7.3.4.5.5.4.2.7.3c.3.1.6.1.9.1v1.5c-.5 0-1-.1-1.4-.2-.4-.1-.8-.3-1.1-.6-.3-.3-.6-.6-.7-1-.2-.4-.3-.8-.3-1.3 0-.6.1-1 .3-1.4.2-.4.4-.7.7-.9.3-.2.6-.4.9-.5s.6-.1.9-.1c.4 0 .7.1 1 .2.3.1.6.3.8.5.2.2.5.4.7.6.2.2.4.5.6.8s.4.5.5.8c.2.3.3.5.5.7s.3.4.5.6c.2.2.4.3.6.3v-4.4h1.3v-.2zM18.4 37.6c0 .5-.1.9-.2 1.3s-.3.7-.6 1c-.2.3-.5.5-.9.7s-.8.2-1.2.2c-.6 0-1.1-.1-1.4-.4-.4-.3-.6-.7-.8-1.2-.2.4-.4.7-.7 1-.3.2-.7.3-1.2.3-.8 0-1.4-.2-1.8-.7s-.7-1.2-.7-2.1c0-.9.2-1.6.7-2.1.4-.5 1-.7 1.8-.7.4 0 .8.1 1.2.3.3.2.6.5.7 1 .1-.5.4-.9.8-1.2s.9-.4 1.4-.4c.4 0 .8.1 1.2.2.4.2.7.4.9.7.2.3.4.6.6 1 .2.2.2.6.2 1.1zm-8.3 0c0 .4.1.7.4 1 .2.3.6.4 1 .4s.8-.1 1-.4c.2-.3.3-.6.3-1s-.1-.8-.3-1c-.2-.3-.6-.4-1-.4-.5 0-.8.1-1 .4s-.4.6-.4 1zm7.2 0c0-.5-.1-.9-.4-1.2s-.7-.5-1.2-.5-.9.2-1.2.5c-.3.3-.4.7-.4 1.2s.1.9.4 1.2.7.5 1.2.5 1-.2 1.2-.5.4-.7.4-1.2z"/></g></svg>