<?xml version="1.0" standalone="no"?> 
<!DOCTYPE svg PUBLIC "-//W3C//DTD SVG 1.1//EN" "http://www.w3.org/Graphics/SVG/1.1/DTD/svg11.dtd" >
<svg xmlns="http://www.w3.org/2000/svg">
<defs>
  <font id="flex-icons" horiz-adv-x="128">
    <font-face font-family="flex-icons"
      units-per-em="128" ascent="128"
      descent="0" />
    <missing-glyph horiz-adv-x="0" />
    <glyph glyph-name="aeroplane"
      unicode="&#xEA01;"
      horiz-adv-x="128" d=" M116.8 128C110.9 128 105.7 125.7000000000001 101 121L74.7 94.6C70.7 94.8 64.2 95.1 55.1 95.7C46 96.3 38.1 96.8 31.5 97.3C24.8 97.8 21.3 98.1 21 98.1H20.5C18.3 98.1 16.3 97.3 14.5 95.6L5.2 87.3C3.7 85.8 3 84.1 3.2 82.3C3.4 80.5 4.5 79.1 6.4 78.3C11.7 76.3 24.4 71.6 44.4 64.2L28.6 47.9H26.1H17.7H11H10C7.8 47.9 5.3 46.6 2.2 44.1L2 43.8C0.8 42.6 0.2 41.3 0 39.8C0 38.3 0.6 37.1 1.7 36.3C3.7 34.6 10.9 30.1 23.2 22.7C24 21.4 26.3 17.6 30.1 11.4C33.9 5.2 35.8 2 36 1.9C36.8 0.6 38 -0.1 39.5 -0.1H39.7C41.2 -0.1 42.7 0.7 44.2 2.2C46.5 4.9 47.7 7.5 47.7 10V18.5V28.5L64.2 44.1C71.5 23.9 76.1 11.3 78 6.5C78.8 4.5 80.2 3.4 82 3.2H82.5C84.2 3.2 85.8 3.9 87.2 5.2C91 9.2 93.7 12.2 95.3 14.2C96.9 16.2 97.7 18.5 97.7 21C97.7 21.3 97.5 24.8 97.1 31.5C96.7 38.2 96.2 46 95.6 55C95 64 94.6 70.5 94.5 74.7L120.8 101.1C123.8 103.9 125.8 107.1 126.9 110.6C128 114.1 128.3 117.1 127.8 119.6C127.3 122.1 126.5 123.9 125.3 125.1C123.4 127.1 120.6 128 116.8 128M116.8 119.5C118.1 119.5 118.8 119.3 119.1 119.3C119.2 119.1 119.3 118.7 119.4 118.1C119.5 117.6 119.6 116.1 118.7 113.2C118.1 111.1 116.8 109.2 114.9 107.3L114.8 107.2L114.7 107.1L88.5 80.8L85.9 78.2L86 74.4999999999999C86.2 70.3 86.6 63.6 87.1 54.6C87.7 45.6999999999999 88.2 37.8 88.6 31.2C89 25.1 89.2 21.7 89.2 21.2C89.2 20.7 89.1 20.3 88.7 19.7C88 18.8 86.7 17.2 84.2 14.6C81.8 21.1 77.8 32 72.3 47.2L67.9 59.4L58.4 50.5L41.9 34.9L39.2 32.4V28.7V18.7L39.2 13.1C38.7 14 38.1 14.9 37.4 16.1C33.6 22.3 31.3 26.1 30.5 27.5L29.4 29.3L27.6 30.4C20.2 34.8 15.5 37.7 12.5 39.6H17.9H26.3H28.8H32.4L34.9 42.2L50.6 58.5L59.7 67.9L47.4 72.4C32.4 77.9 21.4 82 14.7 84.5L20.3 89.5C20.5 89.7 20.6 89.8 20.6 89.8H20.9C21.4 89.8 23.3 89.6 30.9 89.1C37.6 88.6 45.5 88.1 54.6 87.4999999999999C63.7 86.9 70.4 86.4999999999999 74.4 86.4L78.2 86.2L80.8 88.9L107.1 115.3C110.1 118 113.2 119.5 116.8 119.5" />
    <glyph glyph-name="bin"
      unicode="&#xEA02;"
      horiz-adv-x="128" d=" M90.3 9.2C90.3 8.9 89.9 8.6000000000001 89.6 8.6000000000001H38.4C38.2 8.6000000000001 37.8 9.0000000000001 37.7 9.2L30.5 102.4000000000001H51.2H76.8H97.5L90.3 9.2zM51.2 119.5H76.8V111H51.2V119.5zM115.2 110.9000000000001H98.2H85.4V119.5C85.4 124.2 81.6 128 76.9 128H51.3C46.6 128 42.8 124.2 42.8 119.5V111H30H13C10.6 111 8.7 109.1 8.7 106.7C8.7 104.3 10.6 102.4 13 102.4H22.2L29.4 8.5C29.8 3.8 33.9 0 38.6 0H89.8C94.5 0 98.6 3.8 99 8.5L106 102.4000000000001H115.2C117.6 102.4000000000001 119.5 104.3000000000001 119.5 106.7000000000001C119.5 109 117.6 110.9000000000001 115.2 110.9000000000001L115.2 110.9000000000001z" />
    <glyph glyph-name="calendar"
      unicode="&#xEA03;"
      horiz-adv-x="128" d=" M8.5 106.5999999999999L8.5 106.5999999999999V8.4999999999999C8.5 8.4999999999999 8.5 8.4999999999999 8.5 8.4999999999999H119.5C119.5 8.4999999999999 119.5 8.4999999999999 119.5 8.4999999999999V106.5999999999999C119.5 106.5999999999999 119.5 106.5999999999999 119.5 106.5999999999999L8.5 106.5999999999999C8.5 106.7000000000001 8.5 106.7000000000001 8.5 106.5999999999999L8.5 106.5999999999999zM0 106.5999999999999C0 111.2999999999999 3.8 115.1999999999999 8.5 115.1999999999999H119.5C124.2 115.1999999999999 128 111.3999999999999 128 106.5999999999999V8.4999999999999C128 3.7999999999999 124.2 -0.1000000000001 119.5 -0.1000000000001H8.5C3.8 -0.1000000000001 0 3.6999999999999 0 8.4999999999999V106.5999999999999L0 106.5999999999999zM29.9 115.2000000000001H34.2H38.5V123.7000000000001C38.5 126.1000000000001 36.6 128.0000000000001 34.2 128.0000000000001C31.8 128.0000000000001 29.9 126.1000000000001 29.9 123.7000000000001V115.2000000000001zM89.6 115.2000000000001H93.9H98.2V123.7000000000001C98.1 126.0999999999999 96.2000000000001 128 93.9 128S89.6 126.1 89.6 123.7V115.2000000000001zM98.1 106.7000000000001H93.8H89.5V98.2000000000001C89.5 95.8 91.4 93.9000000000001 93.8 93.9000000000001S98.1 95.8 98.1 98.2000000000001V106.7000000000001zM38.4 106.7000000000001H34.1H29.8V98.2000000000001C29.8 95.8 31.7 93.9000000000001 34.1 93.9000000000001C36.5 93.9000000000001 38.4 95.8 38.4 98.2000000000001V106.7000000000001zM85.3 42.5999999999999C85.3 44.9999999999999 87.2 46.8999999999999 89.6 46.8999999999999H98.1C100.5 46.8999999999999 102.4 44.9999999999999 102.4 42.5999999999999V34.0999999999999C102.4 31.6999999999999 100.5 29.7999999999999 98.1 29.7999999999999H89.6C87.2 29.7999999999999 85.3 31.6999999999999 85.3 34.0999999999999V42.5999999999999zM55.5 42.5999999999999C55.5 44.9999999999999 57.4 46.8999999999999 59.8 46.8999999999999H68.3C70.7 46.8999999999999 72.6 44.9999999999999 72.6 42.5999999999999V34.0999999999999C72.6 31.6999999999999 70.7 29.7999999999999 68.3 29.7999999999999H59.8C57.4 29.7999999999999 55.5 31.6999999999999 55.5 34.0999999999999V42.5999999999999zM25.6 42.5999999999999C25.6 44.9999999999999 27.5 46.8999999999999 29.9 46.8999999999999H38.4C40.8 46.8999999999999 42.7 44.9999999999999 42.7 42.5999999999999V34.0999999999999C42.7 31.6999999999999 40.8 29.7999999999999 38.4 29.7999999999999H29.9C27.5 29.7999999999999 25.6 31.6999999999999 25.6 34.0999999999999V42.5999999999999zM85.3 76.8C85.3 79.2 87.2 81.1 89.6 81.1H98.1C100.5 81.1 102.4 79.2 102.4 76.8V68.3C102.4 65.9 100.5 64 98.1 64H89.6C87.2 64 85.3 65.9 85.3 68.3V76.8zM85.3 76.8C85.3 79.2 87.2 81.1 89.6 81.1H98.1C100.5 81.1 102.4 79.2 102.4 76.8V68.3C102.4 65.9 100.5 64 98.1 64H89.6C87.2 64 85.3 65.9 85.3 68.3V76.8zM55.5 76.8C55.5 79.2 57.4 81.1 59.8 81.1H68.3C70.7 81.1 72.6 79.2 72.6 76.8V68.3C72.6 65.9 70.7 64 68.3 64H59.8C57.4 64 55.5 65.9 55.5 68.3V76.8zM25.6 76.8C25.6 79.2 27.5 81.1 29.9 81.1H38.4C40.8 81.1 42.7 79.2 42.7 76.8V68.3C42.7 65.9 40.8 64 38.4 64H29.9C27.5 64 25.6 65.9 25.6 68.3V76.8z" />
    <glyph glyph-name="click-collect"
      unicode="&#xEA04;"
      horiz-adv-x="128" d=" M105.4 15.5C100.7 10.8 94.3 8.3 87.4 8.5C80.4 8.7 73.7 11.6 68.6 16.7L49.3 36L67.1 53.8L84.9 71.6L104.2 52.4C109.3 47.3 112.2 40.6 112.4 33.6C112.6 26.6 110.1 20.2 105.4 15.5L105.4 15.5zM27.8 57.6L42.5 72.4L58 56.9L43.2 42.1L27.8 57.6zM78.9 77.7L64.1 62.9L48.6 78.4L63.4 93.2L78.9 77.7zM110.2 58.4L87.9 80.7L63.3 105.3L42.5 84.4C38.6 88.3 38.3 95.3 42.3 99.3L42.3 99.3C45.5 102.5 47.3 106.7 47.3 111.2C47.3 115.7 45.6 119.9 42.4 123.1C39.3 126.3 35 128 30.6 128C26.1 128 21.9 126.2 18.7 123L6.8 111.1L12.8 105.1L24.7 117C26.3 118.6 28.4000000000001 119.5 30.6000000000001 119.5C32.8000000000001 119.5 34.9000000000001 118.7 36.4000000000001 117.1C37.9000000000001 115.6 38.8000000000001 113.5 38.8000000000001 111.3C38.8000000000001 109.1 37.9000000000001 107 36.3000000000001 105.4L36.3000000000001 105.4C29 98.1 29.3 85.7 36.5000000000001 78.5L39.5000000000001 81.5L15.7 57.7L40.3 33L62.6 10.7C69.2 4.1 77.9999999999999 0.3 87.2 0C87.5 0 87.9 0 88.2 0C97.1 0 105.3 3.3 111.5 9.5C117.9 15.9 121.2 24.5 121 33.8C120.7 43 116.9 51.8 110.2 58.4L110.2 58.4z" />
    <glyph glyph-name="credit-card"
      unicode="&#xEA05;"
      horiz-adv-x="128" d=" M8.5 98.2000000000001L8.5 98.2000000000001V29.9000000000001C8.5 29.9000000000001 8.5 29.9000000000001 8.5 29.9000000000001H119.5C119.5 29.9000000000001 119.5 29.9000000000001 119.5 29.9000000000001V98.2000000000001C119.5 98.2000000000001 119.5 98.2000000000001 119.5 98.2000000000001L8.5 98.2000000000001C8.5 98.0999999999999 8.5 98.0999999999999 8.5 98.2000000000001L8.5 98.2000000000001zM0 98.2000000000001C0 102.9000000000001 3.8 106.7000000000001 8.5 106.7000000000001H119.5C124.2 106.7000000000001 128 102.9000000000001 128 98.2000000000001V29.9000000000001C128 25.2 124.2 21.4 119.5 21.4H8.5C3.8 21.4 0 25.2 0 29.9000000000001V98.2000000000001L0 98.2000000000001zM8.5 85.3H119.5V72.5H8.5V85.3z" />
    <glyph glyph-name="delivery-van"
      unicode="&#xEA06;"
      horiz-adv-x="128" d=" M119.5 40.5H113.7C111.3 45.5 106.2 49 100.3 49S89.3 45.5 86.9 40.5H81.1V87.5H93.9V70.4V66.1V61.8H119.5V40.5zM106.3 32C105.4 29.5 103.1 27.7 100.3 27.7S95.2 29.5 94.3 32C94.1 32.7 93.9 33.4 93.9 34.1C93.9 37.6 96.8 40.5 100.3 40.5S106.7 37.6 106.7 34.1C106.7 33.4 106.5 32.7 106.3 32L106.3 32zM102.4 82.9L113.1 70.4H102.4V82.9zM72.5 96V40.5H36.9C34.5 45.5 29.4 49 23.5 49S12.5 45.5 10.1 40.5H8.6V96C8.6 98.4 10.5 100.3 12.9 100.3H68.3C70.6 100.3 72.5 98.3 72.5 96L72.5 96zM29.5 32C28.6 29.5 26.3 27.7 23.5 27.7S18.4 29.5 17.5 32C17.3 32.7 17.1 33.4 17.1 34.1C17.1 37.6 20 40.5 23.5 40.5S29.9 37.6 29.9 34.1C29.9 33.4 29.7 32.7 29.5 32L29.5 32zM102.4 96H81.1V100.3C81.1 105 77.3 108.8 72.6 108.8H8.6C3.9 108.8 0.1 105 0.1 100.3V32H8.8C9.8 24.8 16 19.2 23.5 19.2S37.2 24.8 38.2 32H72.5H81H85.5C86.5 24.8 92.7 19.2 100.2 19.2S113.9 24.8 114.9 32H127.9V66.1L102.4 96z" />
    <glyph glyph-name="desktop"
      unicode="&#xEA07;"
      horiz-adv-x="128" d=" M8.5 42.7L8.5 106.7000000000001H119.5L119.5 42.7L8.5 42.7zM119.5 115.2000000000001H8.5C3.8 115.2000000000001 0 111.4000000000001 0 106.7000000000001V42.7C0 38 3.8 34.2 8.5 34.2H59.7V21.4H38.4C36 21.4 34.1 19.5 34.1 17.1000000000001S36 12.8000000000001 38.4 12.8000000000001H89.6C92 12.8000000000001 93.9 14.7000000000001 93.9 17.1000000000001S92 21.4 89.6 21.4H68.3V34.1H119.5C124.2 34.1 128 37.9 128 42.6V106.6C128 111.4 124.2000000000001 115.2000000000001 119.5 115.2000000000001L119.5 115.2000000000001z" />
    <glyph glyph-name="email"
      unicode="&#xEA08;"
      horiz-adv-x="128" d=" M64.5 59.7C62.5 59.7 60.5 60.2 58.9 61.2L4.3 95.1L8.8 102.4L63.4 68.5C63.9 68.2 65.2 68.2 65.7 68.5L119.3 102.3L123.8 95L70.2 61.2C68.5 60.2 66.5 59.7 64.5 59.7M8.5 93.9L8.5 93.9V34.1C8.5 31.8 10.4 29.9 12.8 29.9H115.2C117.6 29.9 119.5 31.8 119.5 34.1V93.9C119.5 96.2 117.6 98.1 115.2 98.1H12.8C10.4 98.1 8.5 96.2000000000001 8.5 93.9L8.5 93.9zM0 93.9C0 101 5.7 106.7 12.8 106.7H115.2C122.3 106.7 128 101 128 93.9V34.1C128 27 122.3 21.3 115.2 21.3H12.8C5.7 21.3 0 27 0 34.1V93.9L0 93.9z" />
    <glyph glyph-name="eye"
      unicode="&#xEA09;"
      horiz-adv-x="128" d=" M64 78.7000000000001C59.9 78.7000000000001 56.5 77.3 53.5 74.3C50.5 71.4000000000001 49.1 68.0000000000001 49.1 64.1000000000001C49.1 60.1000000000001 50.6 56.7000000000001 53.6 53.7C56.6 50.7 60.1 49.2 64.2 49.2S71.8 50.6000000000001 74.7 53.5C77.6 56.4000000000001 79 59.8 79 63.9000000000001C79 68.0000000000001 77.5 71.3 74.6 74.3C71.5 77.3 68.1 78.7000000000001 64 78.7000000000001M47.5 47.9C42.9 52.5 40.6 58 40.6 64.2C40.6 70.4 42.9 75.9 47.6 80.4C52.2 84.9 57.8 87.2 64.1 87.2S76 84.9 80.6 80.4C85.2 75.9 87.6 70.4 87.6 64.1C87.6 57.8 85.3 52.3 80.8 47.8C76.3 43.3 70.7 41 64.3 41C57.7000000000001 40.9 52.1 43.2 47.5 47.9zM64.3 104.5C50.8 104.5 38.2 101 26.6 93.9C15 86.9 6.1 76.9 -1e-13 63.9C6.0999999999999 50.8 14.9 40.7 26.4 33.8C38 26.9 50.5 23.5 64 23.5S90 27 101.6 33.9C113.1 40.8 121.9 50.8 128 63.7000000000001C121.9 76.9 113.1 86.9 101.7000000000001 94C90.3 101 77.8 104.5 64.3 104.5M64.3 96.1C76.3 96.1 87.1 93.1 97.2 86.8C106.2 81.2 113.2 73.7 118.5 63.7C113.2000000000001 54 106.2000000000001 46.5 97.1 41.1C86.9 34.9 76 31.9 64 31.9S41.1 34.9 30.9 41.1C21.8 46.6 14.8 54.1 9.5 64C14.8 73.8 21.8 81.3 31 86.8C41.4 93.1 52.3 96.1 64.3 96.1" />
    <glyph glyph-name="home"
      unicode="&#xEA0A;"
      horiz-adv-x="128" d=" M61.2 126.8L1.3 63.9C-0.5 62.1 -0.5 60.2 1.4 58.4C2.4 57.5 3.3 57 4.2 57C5.1 57 6.1 57.5 7 58.4L13 63.9V4C13 3 13.4 2.1 14.2 1.2C15 0.4 15.9 0 16.9 0C28.6 0.1 51 0 51 0C52.2 0 53.4 0.7 54.1 1.5C54.8 2.3 55.2 3.3 55.2 4.3V42.8H72.2L72.5 4.2C72.5 3.2 72.9 2.3 73.6 1.4C74.3 0.6 75.3 -0.1 76.5 -0.1H110.9C111.9 -0.1 112.8 0.3 113.6 1.1C114.4 1.9 114.8 2.9 114.8 3.9V63.9L120.5 58.4C121.3 57.6 122.3 57.2 123.5 57.2C124.5 57.2 125.4 57.6 126.2 58.4C128 60.2 128 62.1 126.2 63.9L67 126.8C66.1 127.6 65.1 128 64 128C62.9 128 62.1 127.6 61.2 126.8zM107.2 71.9V64V8.5H81.1V42.7V51.2H49.5H46.9V42.7V8.6H20.8V64V71.8L64.1 117.3L107.2 71.9z" />
    <glyph glyph-name="information"
      unicode="&#xEA0B;"
      horiz-adv-x="128" d=" M119.5 64C119.5 94.5999999999999 94.6 119.5 64 119.5S8.5 94.5999999999999 8.5 64S33.3 8.5 64 8.5S119.5 33.4000000000001 119.5 64zM64 0C28.7 0 0 28.7 0 64S28.7 128 64 128S128 99.3 128 64S99.3 0 64 0L64 0zM72.5 42.7H68.2V76.8C68.2 79.1 66.3 81.1 63.9 81.1H55.4C53.1 81.1 51.1 79.2 51.1 76.8S53 72.5 55.4 72.5H59.7V42.6H55.4C53.1 42.6 51.1 40.7 51.1 38.3S53 34 55.4 34H72.5C74.8 34 76.8 35.9 76.8 38.3S74.9 42.7 72.5 42.7M59.7000000000001 98.0999999999999H68.2000000000001V89.5999999999999H59.7000000000001V98.0999999999999z" />
    <glyph glyph-name="large-cross"
      unicode="&#xEA0C;"
      horiz-adv-x="128" d=" M70 64L128 6L122 0L64 58L6 0L0 6L58 64L0 122L6 128L64 70L122 128L128 122L70 64z" />
    <glyph glyph-name="large-tick"
      unicode="&#xEA0D;"
      horiz-adv-x="128" d=" M0 59L8.7 67.9L43.8 33.1L46.9 37.9C55.1 50.7 63.6 62.4 72.3 72.8C80.9 83.2 89.3 92.5 97.1 100.5C105.9 109.2 116.1 118.5 127.5 128.1L128 126.5C122.5 120.4 117.3 114.3 112.3 108.2C106.9 101.4000000000001 101.7 94.5999999999999 96.8 88C78.2 62.8 61.3 33.2 46.5 0L0 59z" />
    <glyph glyph-name="love"
      unicode="&#xEA0E;"
      horiz-adv-x="128" d=" M33.2 115.2000000000001C17.8 115.2000000000001 8.6000000000001 100.6000000000001 8.6000000000001 86.5C8.6000000000001 52.4 53.4000000000001 21.6 64.1000000000001 14.5C74.7000000000001 21.7 119.6000000000001 52.5 119.6000000000001 86.5C119.6000000000001 100.6000000000001 110.4000000000001 115.2000000000001 95.0000000000001 115.2000000000001C82.2000000000001 115.2000000000001 68.4000000000001 105.8 68.4000000000001 90.6H59.9000000000001C59.7000000000001 105.8 45.9 115.2000000000001 33.2 115.2000000000001L33.2 115.2000000000001zM64 4.3L61.8 5.7C59.2000000000001 7.2 0 43.2 0 86.4C0 104.7 12.4 123.7 33.2 123.7C46.5 123.7 58.1 116.7 64 106.4C70 116.7000000000001 81.5 123.7000000000001 94.8 123.7000000000001C115.6 123.7000000000001 128 104.7000000000001 128 86.4000000000001C128 43.2 68.8 7.2 66.2 5.6000000000001L64 4.3z" />
    <glyph glyph-name="menu-close"
      unicode="&#xEA0F;"
      horiz-adv-x="128" d=" M70 64L128 6L122 0L64 58L6 0L0 6L58 64L0 122L6 128L64 70L122 128L128 122L70 64z" />
    <glyph glyph-name="menu-menu"
      unicode="&#xEA10;"
      horiz-adv-x="128" d=" M128 11.3V31.6H123.6V11.2C123.6 8.3 122.9 6.2 121.4 4.7S117.8 2.5 115 2.5C112 2.5 109.8 3.2 108.2 4.7C106.6 6.2 105.8 8.3 105.8 11.2V31.6H101.5V11.2C101.5 6.9 102.7 3.8 105.1 1.9C107.5 -0.1 110.8 -1 115.1 -1C119.3 -1 122.5 0 124.7 2.1C126.9 4.1 128 7.2 128 11.3zM68.3 31.6V-0.3H72.5V25.3H72.6L89.8 -0.3H94.6V31.6H90.4V5.7H90.3L73 31.6H68.3zM40.1 31.6V-0.3H63V3.3H44.5V14.3H61.6V17.9H44.5V28.1H62.9V31.7L40.1 31.6L40.1 31.6zM0 31.6V-0.3H4.2V26.3H4.3L14.6 -0.3H18.3L28.6 26.3H28.7V-0.3H32.9V31.6H26.9L16.5 4.8L6 31.6H0zM0 58.7H128V67.2H0V58.7zM0 88.6H128V97.1H0V88.6zM0 118.5H128V127H0V118.5z" />
    <glyph glyph-name="menu-myaccount"
      unicode="&#xEA11;"
      horiz-adv-x="128" d=" M63.9 128C55.2 128 47 125 39.4 119C31.8 113 28 106.7 28 100V80C28 74.5 29.2 68.2 31.7 61.2C34.2 54.2 38 48.7 43 44.7L8 28C7.3 27.8 6.6 27.5 5.7 27C4.9 26.5 3.7 25.5 2.2 24.1C0.7 22.7 0 21.3 0 20V8C0 5.8 0.8 4 2.4 2.4C4 0.8 5.9 0 8 0H120C122.2 0 124 0.8 125.6 2.4C127.2 4 128 5.9 128 8V20C128 21.5 127.3 22.9 126 24.2C124.7 25.5 123.3 26.4 122 27L120 28L85.2 44.5C90.2 48.5 93.9 54 96.3 60.9C98.7 67.8 99.9 74.2 99.9 80V100C99.9 106.7 96.1 113 88.4 119C80.8 125 72.6 128 63.9 128M63.9 119.5C70.8 119.5 77.1 117.1 83.3 112.3C88.7 108 91.5 103.9000000000001 91.5 100V80C91.5 75.2 90.4 69.7 88.4 63.7C86.5 58.3 83.7 54.2 80 51.2C77.7 49.4 76.5 46.5 76.9 43.6C77.2 40.7 79.1 38.1 81.7 36.9L116.3 20.5L118.3 19.5C118.6 19.4 118.8 19.3 119.1 19.2C119.1 19.2 119.3 19.1 119.6 18.9V8.8H8.5V18.6C9.6 19.7 10.1 20 10.1 20L10.1 20C10.2 20 10.2 20.1 10.3 20.1C10.8 20.2 11.2 20.4 11.7 20.6L46.7 37.3C49.3 38.6 51.2 41.1 51.5 44C51.8 46.9 50.6 49.8 48.4 51.6C44.6 54.6 41.8 58.8 39.9 64.3C37.7 70.3 36.7 75.7 36.7 80.2V100C36.7 103.9 39.4 108 44.8 112.3C50.8 117.0999999999999 57 119.5 63.9 119.5" />
    <glyph glyph-name="menu-storefinder"
      unicode="&#xEA12;"
      horiz-adv-x="128" d=" M21.3 82.0999999999999C21.3 50 63.9 -1 63.9 -1S106.8 50.1 106.7 82.1C106.5 106.9000000000001 87.6 127 64 127S21.3 106.9000000000001 21.3 82.0999999999999zM64 118.5C82.7 118.5 98 102.2 98.1 82.1C98.2 62.2 77.4 30.7 63.9 13C50.5 30.7 29.9 62.2 29.9 82.1C29.9 102.2000000000001 45.2 118.5 64 118.5M64 92.9000000000001C68.7 92.9000000000001 72.5 89.1000000000001 72.5 84.4000000000001S68.7 75.9000000000001 64 75.9000000000001S55.5 79.7000000000001 55.5 84.4000000000001S59.3 92.9000000000001 64 92.9000000000001L64 92.9000000000001zM64 101.4000000000001C54.5 101.4000000000001 46.9 93.8000000000001 46.9 84.3000000000001C46.9 74.9000000000001 54.5 67.2000000000001 64 67.2000000000001S81.1 74.8000000000001 81.1 84.3000000000001C81.1 93.8 73.5 101.4000000000001 64 101.4000000000001L64 101.4000000000001z" />
    <glyph glyph-name="minibag"
      unicode="&#xEA13;"
      horiz-adv-x="128" d=" M119.5 93.8C119.5 98.6 115.6 102.4 110.9 102.4H93.6H93.6C91.5 116.9 79 128 64 128C48.9 128 36.5 116.8 34.4 102.4H17.1C12.4 102.4 8.5 98.6 8.5 93.8L0 8.5C0 3.7 3.9 -0.1 8.6 -0.1H119.4C124.2 -0.1 128 3.8 128 8.5L119.5 93.8zM64 119.5C74.3 119.5 82.9 112.2 84.9 102.4H43.1C45.1 112.1 53.7 119.5 64 119.5zM8.5 8.6L17.1 93.9H34.2V84.2C31.6 82.7 29.9 80 29.9 76.8C29.9 72.1 33.7 68.3 38.4 68.3C43.1 68.3 46.9 72.1 46.9 76.8C46.9 80 45.2 82.7 42.7 84.2V93.9H85.4V84.2C82.8 82.7 81.1 80 81.1 76.8C81.1 72.1 84.9 68.3 89.6 68.3C94.3 68.3 98.1 72.1 98.1 76.8C98.1 80 96.4 82.7 93.9 84.2V93.9H110.9L119.4 8.6H8.5z" />
    <glyph glyph-name="minus"
      unicode="&#xEA14;"
      horiz-adv-x="128" d=" M28 68.5H100V59.5H28V68.5z" />
    <glyph glyph-name="mobile"
      unicode="&#xEA15;"
      horiz-adv-x="128" d=" M37.7 128C34.3 128 31.5 126.8 29.1 124.5S25.6 119.3 25.6 116V12C25.6 8.7 26.8 5.8 29.1 3.5C31.5 1.2 34.3 0 37.7 0H90.3C93.7 0 96.5 1.2 98.9 3.5C101.3 5.8 102.4 8.7 102.4 12V116C102.4 119.3 101.2 122.2 98.9 124.5C96.5 126.8 93.7 128 90.3 128H37.7zM92.9 118.4C93.6 117.7 93.9 117 93.9 116V12C93.9 11 93.6 10.3 92.9 9.6C92.1 8.8 91.5 8.6 90.3 8.6H37.7C36.6 8.6 35.9 8.9 35.1 9.6C34.4 10.3 34.1 11 34.1 12V116C34.1 117.1 34.4 117.7 35.1 118.4C35.9 119.1 36.5 119.4 37.7 119.4H90.3C91.4 119.5 92.1 119.2000000000001 92.9 118.4zM64 17.1C59.3 17.1 55.5 20.9 55.5 25.6S59.3 34.1 64 34.1C68.7 34.1 72.5 30.3 72.5 25.6S68.7 17.1 64 17.1M55.5 102.4C53.1 102.4 51.2 104.3 51.2 106.7S53.1 111 55.5 111H72.6C75 111 76.9 109.1 76.9 106.7S75 102.4 72.6 102.4C72.6 102.4 55.5 102.4 55.5 102.4z" />
    <glyph glyph-name="offer"
      unicode="&#xEA16;"
      horiz-adv-x="128" d=" M124 128H71.3C69.9 128 68.2 127.3 67.3 126.3L1.1 60.1C0.4 59.4 0 58.4 0 57.3C0 56.3 0.4 55.3 1.1 54.5L54.5 1.1C55.2 0.4 56.2 0 57.3 0C58.3 0 59.3 0.4 60.1 1.1L126.3 67.3C127.3 68.3 128 70 128 71.3V124.1C127.9 126.2000000000001 126.1 128 124 128M119.4 119.5V72.6L57.3 10.5L10.4 57.4L72.5 119.5H119.4M96.1 111.7000000000001C92.2 111.7000000000001 88.4 110.3 85.5 107.4000000000001C79.7 101.5 79.7 92 85.5 86.2000000000001C88.3 83.4000000000001 92.1 81.8 96.1 81.8S103.8 83.4000000000001 106.7 86.2000000000001C109.5 89 111.1 92.8 111.1 96.8S109.6 104.6000000000001 106.7 107.4000000000001C103.9 110.3 100 111.7000000000001 96.1 111.7000000000001M96.1 103.2000000000001C97.9 103.2000000000001 99.5 102.6000000000001 100.6 101.4000000000001C101.8 100.2000000000001 102.5 98.6000000000001 102.5 96.8S101.9 93.5000000000001 100.6 92.2000000000001C99.4 91 97.8 90.3 96.1 90.3C94.4 90.3 92.8 90.9000000000001 91.6 92.2000000000001C89.1 94.7000000000001 89.1 98.9000000000001 91.6 101.4000000000001C92.7 102.6 94.3 103.2000000000001 96.1 103.2000000000001" />
    <glyph glyph-name="pencil"
      unicode="&#xEA17;"
      horiz-adv-x="128" d=" M107.5 94C106.1 96.4 104.2 99 101.6 101.5C99 104.1 96.4 106 93.9 107.5L104.8 118.3C106.4 117.3 108.9 115.5 112.2 112.1C115.6 108.8 117.4 106.4 118.4 104.8L107.5 94zM31.4 17.8C30.1 20.2 28.3 22.9 25.6 25.5C23 28.2 20.3 30 17.9 31.3L87.7 101.1C90.1 99.9999999999999 92.8 98.3 95.7 95.4C98.6 92.6 100.3 89.9 101.3 87.6L31.4 17.8zM11.7 11.7L14.6 23.4C16.1 22.5 17.9 21.2 19.6 19.4C21.3 17.7 22.6 16.1000000000001 23.4 14.6000000000001L11.7 11.7zM128 102.4000000000001C128 105.3000000000001 126.3 110.3000000000001 118.3 118.2000000000001C113.7 122.9000000000001 109.3 126.2000000000001 106 127.2000000000001C103.6 127.9000000000001 102.9 128.0000000000001 102.4 128.0000000000001L102.4 128.0000000000001L85.3 110.9000000000001L81.5 107.1000000000001L8.6 34.2L8.6 34.2L0 0L34.1 8.5L34.1 8.5L34.1 8.5L107.1 81.5L110.9 85.3L128 102.4000000000001L128 102.4000000000001z" />
    <glyph glyph-name="plus"
      unicode="&#xEA18;"
      horiz-adv-x="128" d=" M68.5 68.5V100H59.5V68.5H28V59.5H59.5V28H68.5V59.5H100V68.5H68.5z" />
    <glyph glyph-name="question"
      unicode="&#xEA19;"
      horiz-adv-x="128" d=" M64 8.5L64 8.5C94.6 8.5 119.5 33.3 119.5 64S94.6 119.5 64 119.5S8.5 94.5999999999999 8.5 64S33.4 8.5 64 8.5L64 8.5zM64 0L64 0C28.7 0 0 28.7 0 64S28.7 128 64 128S128 99.3 128 64S99.3 0 64 0L64 0zM55.5 42.7H64V34.2H55.5V42.7zM64 51.2H55.5V57.1000000000001C55.5 69.6000000000001 64.9 74.1000000000001 65.3 74.2000000000001C68.2 75.8000000000001 72.6 79.3000000000001 72.6 82.1000000000001C72.6 86.7000000000001 69.4 89.5000000000001 64.1 89.5000000000001C55.6 89.5000000000001 55.6 86.8 55.6 85.4000000000001H47.1C47.1 90.1000000000001 49.3 98.0000000000001 64.2 98.0000000000001C74.2 98.0000000000001 81.3 91.4000000000001 81.3 82.0000000000001C81.3 73.0000000000001 70.6 67.2000000000001 69.4 66.5000000000001C69.3 66.4000000000001 64.2 64.0000000000001 64.2 56.9000000000001V51.2z" />
    <glyph glyph-name="return"
      unicode="&#xEA1A;"
      horiz-adv-x="128" d=" M55.7 118.2000000000001C54.9000000000001 118.2000000000001 54.1 117.9000000000001 53.3000000000001 117.3000000000001L1.5000000000001 74.5000000000001C0.5000000000001 73.8 1e-13 72.8 1e-13 71.5000000000001S0.5000000000001 69.2000000000001 1.5000000000001 68.5000000000001L53.3000000000001 25.5000000000001C54.1000000000001 24.8000000000001 55.0000000000001 24.4000000000001 55.8000000000001 24.4000000000001C56.4000000000001 24.4000000000001 56.9000000000001 24.5000000000001 57.5000000000001 24.8000000000001C59.0000000000001 25.6000000000001 59.8000000000001 26.8000000000001 59.8000000000001 28.4000000000001V51.4000000000001C67.5000000000001 51.4000000000001 74.5000000000001 50.7000000000001 80.8000000000001 49.4000000000001C87.1000000000001 48.1000000000001 92.3000000000001 46.4000000000001 96.3000000000001 44.3000000000001C100.3000000000001 42.2000000000001 103.9000000000001 39.8000000000001 107.1000000000001 37.0000000000001C110.3000000000001 34.2000000000001 112.6000000000001 31.7000000000001 114.2000000000001 29.4000000000001C115.8000000000001 27.1000000000001 117.1000000000001 24.6000000000001 118.1000000000001 22.0000000000001C119.1000000000001 19.4000000000001 119.7000000000001 17.6000000000001 119.8000000000001 16.5000000000001C120.0000000000001 15.4000000000001 120.1000000000001 14.5000000000001 120.3000000000001 13.9000000000001C120.5000000000001 11.6000000000001 121.6000000000001 10.4000000000001 123.6000000000001 10.4000000000001H123.8000000000001C126.0000000000001 10.4000000000001 127.2000000000001 11.5000000000001 127.6000000000001 13.7000000000001C127.8000000000001 14.9000000000001 127.9000000000001 16.3000000000001 128.0000000000001 18.1000000000001C128.1000000000001 19.9000000000001 128.0000000000001 23.0000000000001 127.9000000000001 27.6000000000001C127.7000000000001 32.2000000000001 127.3000000000001 36.6000000000001 126.5000000000001 41.0000000000001C125.7000000000001 45.3000000000001 124.2000000000001 50.2000000000001 121.9000000000001 55.5000000000001C119.6000000000001 60.8000000000001 116.6000000000001 65.6000000000001 113.1000000000001 69.8000000000001C101.2000000000001 83.7 83.5 90.9 59.8 91.6V114.1C59.8 115.8 59 117 57.5 117.7C56.9 118.1 56.3 118.2000000000001 55.7 118.2000000000001M51.3 104.6V91.6V83.3L59.6 83.1C80.9999999999999 82.5 96.3 76.4 106.6 64.4C109.6 60.9 112.1 56.8 114.1 52.2C116.2 47.5 117.5 43.3 118.1 39.7C118.2 39.2 118.3 38.7 118.3 38.2C116.7 40 114.9 41.8 112.7 43.7C108.9999999999999 46.9 104.9 49.7 100.3 52.1C95.6 54.6 89.8 56.5 82.6 58C75.7 59.5 67.9999999999999 60.2 59.8 60.2H51.3V51.7V38.5L11.3 71.7L51.3 104.6" />
    <glyph glyph-name="reward-card"
      unicode="&#xEA1B;"
      horiz-adv-x="128" d=" M110.9 47.6V81.8C110.9 82.1 110.8 82.3 110.8 82.6L119.6 80.2L110.9 47.6zM73 22L8.5 22L8.5 39.3L8.5 77.5V81.8H9.6H18.4H102.4L102.4 23V22.1L73 22zM27.1 113.8C26.4 114 25.6 114.1 24.9 114.1L24.9 105.6L82 90.3H20.8L24.9 105.6C24.9 105.6 24.9 114.1 24.9 114.1C21.1 114.1 17.7 111.6 16.7 107.8L12 90.3H8.6C3.9 90.3 0.1 86.5 0.1 81.8V22C0.1 17.3 3.9 13.5 8.6 13.5H102.4C103.6 13.5 104.8 13.8 105.8 14.2C108.9 14.8 111.5 17 112.4 20.2L127.7000000000001 78C128.9 82.5 126.4000000000001 87.2 121.9000000000001 88.5L27.1 113.8z" />
    <glyph glyph-name="search"
      unicode="&#xEA1C;"
      horiz-adv-x="128" d=" M87.3 48.2C94.1 56.6 98.1 67.3 98.1 78.9C98.1 106 76.2 128 49.1 128S0 106 0 78.9S22 29.8 49.1 29.8C60.7 29.8 71.4 33.8 79.8 40.6L120.5 0L128 7.5L87.3 48.2zM49.1 38.4C26.7 38.4 8.6 56.6 8.6 78.9S26.7 119.5 49.1 119.5S89.6 101.3 89.6 78.9S71.5 38.4 49.1 38.4z" />
    <glyph glyph-name="signal"
      unicode="&#xEA1D;"
      horiz-adv-x="128" d=" M64 8.5L64 8.5C69.9 8.5 74.7 13.3 74.7 19.2C74.7 25.1 69.9 29.9 64 29.9S53.3 25.1 53.3 19.2C53.3 13.3 58.1 8.5 64 8.5L64 8.5zM64 0L64 0C53.4 0 44.8 8.6 44.8 19.2S53.4 38.4 64 38.4S83.2 29.8 83.2 19.2S74.6 0 64 0L64 0zM32.9 46.8C50 64 78 64 95.1 46.8C96.8 45.1 99.5 45.1 101.1 46.8C102.8 48.5 102.8 51.2 101.1 52.8C80.6 73.3 47.3 73.3 26.8 52.8C25.1 51.1 25.1 48.4 26.8 46.8S31.2 45.2 32.9 46.8L32.9 46.8zM20.1 71.4C44.3 95.7 83.8 95.7 108 71.4C109.7 69.7 112.4 69.7 114 71.4C115.7 73.1 115.7 75.8 114 77.4C86.4 105 41.6 105 14 77.4C12.3 75.7 12.3 73 14 71.4C15.7 69.7000000000001 18.4 69.7000000000001 20.1 71.4L20.1 71.4zM7.3 96C38.5 127.3 89.5 127.3 120.7 96C122.4 94.3 125.1 94.3 126.7 96C128.4 97.7 128.4 100.4 126.7 102C92.2 136.7000000000001 35.8 136.7000000000001 1.2 102C-0.5 100.3 -0.5 97.6 1.2 96C2.9 94.3 5.6 94.3 7.3 96L7.3 96z" />
    <glyph glyph-name="small-tick"
      unicode="&#xEA1E;"
      horiz-adv-x="128" d=" M28 61.2000000000001L32.9 66.2000000000001L52.6 46.6000000000001L54.3 49.3000000000001C58.9 56.5000000000001 63.7 63.1000000000001 68.6 68.9000000000001C73.5 74.7000000000001 78.1 80.0000000000001 82.5 84.5000000000001C87.4 89.4000000000001 93.2 94.6000000000001 99.6 100.0000000000001L99.9 99.1000000000001C96.8 95.7000000000001 93.9 92.2000000000001 91.1 88.8000000000001C88 85.0000000000001 85.1 81.2000000000001 82.4 77.5000000000001C72 63.3 62.5 46.7 54.2 28L28 61.2000000000001z" />
    <glyph glyph-name="social-blog"
      unicode="&#xEA1F;"
      horiz-adv-x="128" d=" M32.1 64C26.7 64 21.6 62.7 17.2 60.3V85.3C17.2 90 13.4 93.8 8.7 93.8C4 93.8 0.2 90 0.2 85.3V29.8C0.2 29 0.3 28.3 0.5 27.5C2.6 12 15.9 0 32.1 0C49.8 0 64.1 14.3 64.1 32C64.1 49.7 49.8 64 32.1 64zM32.1 17.1C23.9 17.1 17.2 23.8 17.2 32C17.2 40.2 23.9 46.9 32.1 46.9S47 40.2 47 32C47.1 23.8 40.4 17.1 32.1 17.1z M42.2 78.9C43.5 78.8 45.1 78.6 46.7 78.3C51.3 77.5 55.9 76 60.1 73.7C71.3 67.7 78.1 57.2 79 40.1C79.2 35.4 83.3 31.8 88 32C92.7 32.2 96.3 36.3 96.1 41C94.9 64.2 84.5 80 68.2 88.7C62.3 91.9 56 93.9 49.7 95.1C45.8 95.8 42.7 96 40.6 96C40.6 96 40.6 96 40.6 96C35.9 96 32.1 92.1 32.1 87.4C32.1 82.7 36 78.9 40.7 78.9 M85.3 116.8C76.1 121.8 66.4 124.9 56.6 126.6C50.6 127.7 45.8 128 42.8 128C42.8 128 42.8 128 42.8 128C38.1 128 34.3 124.1 34.3 119.4C34.3 114.7 38.2 110.9 42.9 110.9C42.9 110.9 42.9 110.9 42.9 110.9C43.4 110.9 44.4 110.9 45.8 110.8C48.2 110.6 50.8 110.3 53.7 109.8C61.8 108.4 69.8 105.8 77.3 101.7C97.1 91 109.5 72.2 111.1 42.2C111.3 37.5 115.4 33.9 120.1 34.1C124.8 34.3 128.4 38.4 128.2 43.1C126.2 79.2 110.4 103.2 85.3 116.8z" />
    <glyph glyph-name="social-facebook"
      unicode="&#xEA20;"
      horiz-adv-x="128" d=" M128 7.1C128 3.2 124.8 0 120.9 0H88.3V49.6H105L107.5 68.9H88.3V81.2000000000001C88.3 86.8 89.9 90.6000000000001 97.9 90.6000000000001L108.1 90.6000000000001V107.9C106.3 108.1 100.3 108.7 93.2 108.7C78.5 108.7 68.4 99.7 68.4 83.2V69H51.7V49.7H68.4V0H7.1C3.2 0 0 3.2 0 7.1V120.9C0 124.8 3.2 128 7.1 128H120.9C124.8 128 128 124.8 128 120.9V7.1z" />
    <glyph glyph-name="social-google"
      unicode="&#xEA21;"
      horiz-adv-x="128" d=" M113.9 71.2000000000001V85.2000000000001H103.9V71.2000000000001H89.4V61.2000000000001H103.9V46.8H114V61.2000000000001H128V71.2000000000001H113.9zM40.7 72V55.9C40.7 55.9 56.3000000000001 55.9 62.7000000000001 55.9C59.3000000000001 45.5 53.9000000000001 39.8 40.7 39.8C27.4 39.8 17 50.6 17 63.9C17 77.2 27.4 88 40.7 88C47.8000000000001 88 52.3000000000001 85.5 56.5 82.1C59.8 85.4 59.6000000000001 85.9 68.1000000000001 93.9C60.8 100.5 51.2 104.5 40.7 104.5C18.2 104.5 0 86.4 0 64C0 41.6 18.2 23.5 40.7 23.5C74.3 23.5 82.5 52.6 79.7 72.1H40.7z" />
    <glyph glyph-name="social-instagram"
      unicode="&#xEA22;"
      horiz-adv-x="128" d=" M116 16C116 13.8 114.2 12 112 12H16C13.8 12 12 13.8 12 16V76H28C25.9 73 25.2 67.4 25.2 63.9C25.2 42.5 42.7 25.1 64.1 25.1C85.6 25.1 103 42.5 103 63.9C103 67.5 102.5 73 99.9 76H115.9V16zM64.1 88.4C77.7 88.4 88.7 77.4 88.7 63.8C88.7 50.2 77.7 39.2 64.1 39.2C50.5 39.2 39.5 50.2 39.5 63.8C39.5 77.4 50.6 88.4 64.1 88.4L64.1 88.4zM92 108C92 110.2 93.8 112 96 112H108C110.2 112 112 110.2 112 108V96C112 93.8 110.2 92 108 92H96C93.8 92 92 93.8 92 96V108zM112.8 128H15.2C6.8 128 0 121.2000000000001 0 112.8V15.2C0 6.8 6.8 0 15.2 0H112.8C121.2 0 128 6.8 128 15.2V112.8C128 121.2000000000001 121.2000000000001 128 112.8 128L112.8 128z" />
    <glyph glyph-name="social-pinterest"
      unicode="&#xEA23;"
      horiz-adv-x="128" d=" M64 128C28.7 128 0 99.3 0 64C0 36.9 16.9 13.7 40.7 4.4C40.1 9.5 39.6 17.2 40.9 22.8C42.1 27.8 48.4 54.6 48.4 54.6S46.5 58.4 46.5 64.1C46.5 73 51.7 79.6 58.1 79.6C63.6 79.6 66.2 75.5 66.2 70.6C66.2 65.1 62.7 56.9 60.9 49.3C59.4 42.9 64.1 37.7 70.4 37.7C81.8 37.7 90.5 49.7 90.5 67C90.5 82.3 79.5 93 63.8 93C45.6 93 34.9 79.3 34.9 65.2C34.9 59.7 37 53.8 39.7 50.6C40.2 50 40.3 49.4 40.1 48.8C39.6 46.8 38.5 42.4 38.3 41.5C38 40.3 37.4 40.1 36.2 40.6C28.2 44.3 23.2 56 23.2 65.4C23.2 85.6 37.9 104.1 65.5 104.1C87.7 104.1 105 88.3 105 67.1C105 45 91.1 27.3 71.8 27.3C65.3 27.3 59.2 30.7 57.1 34.6C57.1 34.6 53.9 22.4 53.1 19.4C51.7 13.8 47.8 6.9 45.1 2.6C51.1 0.7 57.5 -0.3 64 -0.3C99.3 -0.3 128 28.4 128 63.7S99.3 128 64 128" />
    <glyph glyph-name="social-twitter"
      unicode="&#xEA24;"
      horiz-adv-x="128" d=" M124.5 115.4C119.4 112.3 113.8 110.1 107.8 108.9C103 114.1 96.2 117.3 88.6 117.3C74.1 117.3 62.3 105.2 62.3 90.4C62.3 88.3 62.5 86.2 63 84.3C41.2 85.4 21.8 96.1 8.9 112.4C6.6 108.4 5.3 103.8 5.3 98.8C5.4 89.5 10 81.3 17 76.5C12.7 76.6 8.6 77.9 5.1 79.9V79.5C5.1 66.4 14.2 55.6 26.2 53.1C24 52.5 21.7 52.2 19.3 52.2C17.6 52.2 16 52.4 14.4 52.7C17.7 42 27.4 34.2 38.9 34C29.9 26.8 18.6 22.5 6.3 22.5C4.2 22.5 2.1 22.6 0 22.9C11.6 15.3 25.4 10.8 40.3 10.8C88.6 10.8 115 51.8 115 87.4C115 88.6 115 89.7 114.9 90.9C120 94.7 124.5 99.4 128 104.8C123.3 102.7 118.2 101.2 112.9 100.6C118.3 103.8 122.5 109.1 124.5 115.4" />
    <glyph glyph-name="social-youtube"
      unicode="&#xEA25;"
      horiz-adv-x="128" d=" M128 41.2V86.8C128 86.8 128 108.8 105.9 108.8H22C22 108.8 -0.1 108.8 -0.1 86.8V41.2C-0.1 41.2 -0.1 19.2 22 19.2H105.9C105.9 19.2 128 19.2 128 41.2L128 41.2zM88.9 64L47 39.4V88.4L88.9 64z" />
    <glyph glyph-name="star-empty"
      unicode="&#xEA26;"
      horiz-adv-x="128" d=" M128 78.1L123.9 78.7L123.9 78.7L121.4 79L83.8 84.4L64 123.7L62.1 120L62.1 120L60.7 117.1L44.2 84.4L0 78.1L3 75.2L3 75.1L7.8 70.5L7.9 70.5L32 47.5L24.4 4.3L28.1 6.2L28.2 6.1L34 9.1L34 9.3L64 24.7L94 9.3L94 9.1L99.8 6.1L99.9 6.2L103.6 4.3L96 47.5L120.2 70.6L120.2 70.6L125 75.2L125 75.2L128 78.1zM90.1 53.6L86.8 50.5L87.6 46L92.2 19.6L67.9 32.1L64 34.1L60.1 32.1L35.8 19.6L40.4 45.9L41.2 50.4L37.9 53.5L18.5 72L45.4 75.9L49.8 76.5L51.8 80.5L64 104.9L76.2 80.6L78.2 76.6L82.6 76L109.5 72.1L90.1 53.6z" />
    <glyph glyph-name="star-fill"
      unicode="&#xEA27;"
      horiz-adv-x="128" d=" M64 123.7000000000001L44.2 84.4L0 78.1L32 47.5L24.4 4.3L64 24.7L103.6 4.3L96 47.5L128 78.1L83.8 84.4L64 123.7000000000001z" />
    <glyph glyph-name="storefinder"
      unicode="&#xEA28;"
      horiz-adv-x="128" d=" M21.3 83.1C21.3 51 63.9 0 63.9 0S106.8 51.1 106.7 83.1C106.5 107.9 87.6 128 64 128S21.3 107.9 21.3 83.1zM64 119.5C82.7 119.5 98 103.2 98.1 83.1C98.2 63.2 77.4 31.7 63.9 14C50.5 31.7 29.8 63.2 29.8 83.1C29.9 103.2 45.2 119.5 64 119.5M64 93.9C68.7 93.9 72.5 90.1 72.5 85.4S68.7 76.9 64 76.9S55.5 80.7 55.5 85.4S59.3 93.9 64 93.9L64 93.9zM64 102.4C54.5 102.4 46.9 94.8 46.9 85.3C46.9 75.9 54.5 68.2 64 68.2S81.1 75.8 81.1 85.3S73.5 102.4 64 102.4L64 102.4z" />
    <glyph glyph-name="tablet"
      unicode="&#xEA29;"
      horiz-adv-x="128" d=" M24.9 128C21.5 128 18.7 126.8 16.3 124.5C13.9 122.2 12.8 119.3 12.8 116V12C12.8 8.7 14 5.8 16.3 3.5C18.7 1.2 21.5 0 24.9 0H103.1C106.5 0 109.3 1.2 111.7 3.5C114.1 5.8 115.2 8.7 115.2 12V116C115.2 119.3 114 122.2 111.7 124.5C109.3 126.8 106.5 128 103.1 128H24.9zM105.7 118.4C106.4 117.7 106.7 117 106.7 116V12C106.7 11 106.4 10.3 105.7 9.6C104.9 8.8 104.3 8.6 103.1 8.6H24.9C23.8 8.6 23.1 8.9 22.3 9.6C21.6 10.3 21.3 11 21.3 12V116C21.3 117.1 21.6 117.7 22.3 118.4C23.1 119.1 23.7 119.4 24.9 119.4H103.1C104.2 119.5 104.9 119.2000000000001 105.7 118.4zM64 17.1C59.3 17.1 55.5 20.9 55.5 25.6C55.5 30.3 59.3 34.1 64 34.1S72.5 30.3 72.5 25.6C72.5 20.9 68.7000000000001 17.1 64 17.1M55.5 102.4C53.1 102.4 51.2 104.3 51.2 106.7S53.1 111 55.5 111H72.6C75 111 76.9 109.1 76.9 106.7S75 102.4 72.6 102.4H55.5z" />
    <glyph glyph-name="telephone"
      unicode="&#xEA2A;"
      horiz-adv-x="128" d=" M25.2 128C22.9 128 20.8 127.3 19 126C17.5 125 15.7 123.7 13.5 122C11.3 120.3 8.6 117.6 5.2 113.9C1.8 110.2 0.1000000000001 107.1 0.1000000000001 104.8C0.8000000000001 87.1 13.9 65.4 39.6000000000001 39.7S86.9000000000001 0.7 104.5000000000001 0.1H104.8000000000001C107.1000000000001 0.1 110.1000000000001 1.8 113.8000000000001 5.2C117.5000000000001 8.6 120.2000000000001 11.5 122.0000000000001 13.7C123.8000000000001 16 125.2000000000001 17.7 126.0000000000001 18.8C127.7000000000001 21.5 128.4000000000001 24 128.1000000000001 26.3C127.9000000000001 28.6 126.8000000000001 30.5 125.0000000000001 31.8C115.2000000000001 38.6 106.6 44.3 98.9 49C97.7 49.7 96.4 50 94.9 50C92.9 50 90.8 49.4 88.7 48.3C87 47.5 83.2 45.3 77.2 41.8C72.2 45.5 66 51.1 58.5 58.6C51 66.1 45.5 72.4 41.8 77.6C45.1 83.6 47.2 87.4 48 89.1C50.2 93.1 50.4 96.5 48.7 99.4C42.2 109.8 36.5 118.3 31.6 125C30.1 127 28 128 25.2 128M25.1 119.5C29.7 113.2 35.1 105 41.4 95.1C41.4 94.8 41.2 94.2 40.6 93.1C40.6 93 40.5 92.9 40.5 92.8C40 91.7 38.5 88.9 34.4 81.6C32.8 78.7 33 75.2 34.9 72.5C38.9 66.9 44.6 60.3 52.5 52.4C60.4 44.5 66.8 38.8 72.2 34.8C73.7 33.7 75.5 33.1 77.3 33.1C78.8 33.1 80.3 33.5 81.6 34.3C88.8 38.5 91.6 40 92.6 40.5C92.7 40.5 92.8 40.6 92.8 40.6C93.6 41 94.3 41.3 94.9 41.3C102.1 36.9 110.4 31.3 119.4 25C119.3 24.7 119.2 24.2 118.7 23.4C118.1 22.6 117.1 21.3 115.2 18.9C113.6 17 111.1 14.4 107.8 11.3C105.8 9.4 104.6 8.7 104.2 8.5C89 9.4 69.3 21.8 45.6 45.6C22 69.3 9.6 89 8.6 104.3C8.8 104.8 9.5 106 11.5 108.1C15.3 112.3 17.5 114.3 18.7 115.2C20.7 116.7 22.4 118 23.7 118.9C23.8 119 23.9 119 24 119.1C24.3 119.3 24.6 119.5 25.1 119.5" />
    <glyph glyph-name="padlock-s"
      unicode="&#xEA2B;"
      horiz-adv-x="128" d=" M62.4 128C62.6 128 62.7 128 62.9 128L62.9 128C53.7 127.7 45.6 123.2 40.4 116.4C45.2 122.7000000000001 52.6 127 61 127.9000000000001C61.5 127.9000000000001 62 127.9000000000001 62.4 128C62.9 128 63.4 128 64 128C80.5 128 93.9 114.6 93.9 98.1H85.4C85.4 109.9 75.8 119.4 64.1 119.4C63.4 119.4 62.7 119.4 62 119.3C51.1 118.3 42.7 109.2000000000001 42.7 98.0999999999999H34.2C34.1 114.0999999999999 46.7 127.0999999999999 62.4 128L62.4 128zM34.1 98.0999999999999H42.6V85.2999999999999H34.1V98.0999999999999L34.1 98.0999999999999zM85.3 98.0999999999999H93.8V85.2999999999999H85.3V98.0999999999999L85.3 98.0999999999999zM12.8 72.5999999999999C12.8 79.6999999999999 18.5 85.3999999999999 25.6 85.3999999999999H102.5C109.5 85.3999999999999 115.3 79.6999999999999 115.3 72.5999999999999V12.7999999999999C115.3 5.6999999999999 109.6 -1e-13 102.5 -1e-13H25.6C18.6 -1e-13 12.8 5.6999999999999 12.8 12.7999999999999V72.5999999999999L12.8 72.5999999999999zM21.3 72.5999999999999V12.7999999999999C21.3 10.4999999999999 23.2 8.5999999999999 25.5 8.5999999999999H102.4C104.7 8.5999999999999 106.6 10.4999999999999 106.6 12.7999999999999V72.5999999999999C106.6 74.8999999999999 104.7 76.7999999999999 102.4 76.7999999999999H25.6C23.2 76.8 21.3 74.9000000000001 21.3 72.5999999999999L21.3 72.5999999999999zM68.3 43.8C70.9 45.3 72.6 48 72.6 51.2C72.6 55.9 68.8 59.7 64.1 59.7S55.6 55.9 55.6 51.2C55.6 48 57.3 45.3 59.9 43.8V29.9C59.9 27.4999999999999 61.8 25.6 64.2 25.6C66.6 25.6 68.5 27.5 68.5 29.9V43.8L68.3 43.8z" />
    <glyph glyph-name="padlock-u"
      unicode="&#xEA2C;"
      horiz-adv-x="128" d=" M62.4 128C62.6 128 62.7 128 62.9 128L62.9 128C53.7 127.7 45.6 123.2 40.4 116.4C45.2 122.7000000000001 52.6 127 61 127.9000000000001C61.5 127.9000000000001 62 127.9000000000001 62.4 128C62.9 128 63.4 128 64 128C80.5 128 93.9 114.6 93.9 98.1H85.4C85.4 109.9 75.8 119.4 64.1 119.4C63.4 119.4 62.7 119.4 62 119.3C51.1 118.3 42.7 109.2000000000001 42.7 98.0999999999999H34.2C34.1 114.0999999999999 46.7 127.0999999999999 62.4 128L62.4 128zM34.1 98.0999999999999H42.6V85.2999999999999H34.1V98.0999999999999L34.1 98.0999999999999zM12.8 72.5999999999999C12.8 79.6999999999999 18.5 85.3999999999999 25.6 85.3999999999999H102.5C109.5 85.3999999999999 115.3 79.6999999999999 115.3 72.5999999999999V12.7999999999999C115.3 5.6999999999999 109.6 -1e-13 102.5 -1e-13H25.6C18.6 -1e-13 12.8 5.6999999999999 12.8 12.7999999999999V72.5999999999999L12.8 72.5999999999999zM21.3 72.5999999999999V12.7999999999999C21.3 10.4999999999999 23.2 8.5999999999999 25.5 8.5999999999999H102.4C104.7 8.5999999999999 106.6 10.4999999999999 106.6 12.7999999999999V72.5999999999999C106.6 74.8999999999999 104.7 76.7999999999999 102.4 76.7999999999999H25.6C23.2 76.8 21.3 74.9000000000001 21.3 72.5999999999999L21.3 72.5999999999999zM68.3 43.8C70.9 45.3 72.6 48 72.6 51.2C72.6 55.9 68.8 59.7 64.1 59.7S55.6 55.9 55.6 51.2C55.6 48 57.3 45.3 59.9 43.8V29.9C59.9 27.4999999999999 61.8 25.6 64.2 25.6C66.6 25.6 68.5 27.5 68.5 29.9V43.8L68.3 43.8z" />
    <glyph glyph-name="ui-back"
      unicode="&#xEA2D;"
      horiz-adv-x="128" d=" M51.05 70.2000000000001L76.95 96L83.15 89.8L57.25 64L83.05 38.2L76.85 32L51.05 57.8L51.05 57.8L44.85 64L44.85 64L44.85 64L51.05 70.2000000000001L51.05 70.2000000000001z" />
    <glyph glyph-name="ui-cross"
      unicode="&#xEA2E;"
      horiz-adv-x="128" d=" M58.3 64L32 90.3L37.7 96L64 69.7000000000001L90.3 96L96 90.3L69.7000000000001 64L96 37.7L90.3 32L64 58.3L37.7 32L32 37.7L58.3 64z" />
    <glyph glyph-name="ui-down"
      unicode="&#xEA2F;"
      horiz-adv-x="128" d=" M64 45.3L64 45.3L32 77.1L38.2 83.3L64 57.5L89.8 83.3L96 77.1L64 45.3L64 45.3z" />
    <glyph glyph-name="ui-forward"
      unicode="&#xEA30;"
      horiz-adv-x="128" d=" M76.7000000000001 70.2000000000001L50.8 96L44.6 89.8L70.5 64L44.7 38.2L50.9 32L76.7 57.8L76.7 57.8L82.9 64L82.9 64L82.9 64L76.7000000000001 70.2000000000001L76.7000000000001 70.2000000000001z" />
    <glyph glyph-name="ui-up"
      unicode="&#xEA31;"
      horiz-adv-x="128" d=" M64 82.9500000000001L64 82.9500000000001L32 51.1500000000001L38.2 44.95L64 70.75L89.8 44.95L96 51.15L64 82.9500000000001L64 82.9500000000001z" />
    <glyph glyph-name="user-female"
      unicode="&#xEA32;"
      horiz-adv-x="128" d=" M64 128C55.2 128 47.6 125.4 41.3 120.1C35 114.9 31.4 108.1 30.5 99.7C30 95.7 29.4 91.1 28.6 85.8C27.8 80.5 27.5 77.5 27.5 76.7C27 72.4 26 68.1 24.5 64C23 59.8 21.6 56.7 20.3 54.5L18.6 51.3C19.1 50.1 21 49.1 24.2 48.3C27.5 47.5 31.1 46.7 35.1 46C39.1 45.3 41.7 44.7 42.9 44.3L8 27.8C7.3 27.5 6.6 27.1 5.8 26.7C5 26.3 3.8 25.3 2.3 23.7C0.8 22.1 0.1 20.3 0.1 18.3V7.8C0.1 5.6 0.9 3.8 2.5 2.3C4.1 0.8 6 0.1 8.1 0.1H120C122.2 0.1 124 0.9 125.6 2.3C127.2 3.8 128 5.6 128 7.8V18.3C128 20.3 127.3 22.1 126 23.7C124.7 25.3 123.3 26.3 122 26.8L120 27.8L85.2 44.3C86.4 44.7 89 45.3 93 46C97 46.7 100.6 47.4 103.9 48.3C107.1 49.1 109 50.1 109.5 51.3C104.7 58.6 101.7 67 100.5 76.6C100.5 77.6 100.1 80.7 99.4 86C98.6 91.1 98 95.7 97.5 99.8C96.7 108.1 93.1 114.9 86.7 120.2C80.4 125.4 72.8 128 64 128M64 119.5C70.8 119.5 76.5 117.6 81.3 113.6C85.9 109.8 88.4 105 89 98.7C89.5 94.7 90.1 90 90.9 84.7C91.8 78.1 91.9 76.7 91.9 76.5C91.9 76.2 91.9 75.8 92 75.5C92.9 68.4 94.7 61.7 97.4 55.6C95.6 55.2 93.6 54.8 91.5 54.5C85.3 53.5 83.2 52.8 81.8 52.2C78.7 50.9 76.7 47.9 76.6 44.5C76.5 41.1 78.4 38.1 81.5 36.6L116.1 20.2L118.1 19.2C118.3 19.1 118.5 19 118.7 18.9C118.8 18.8 119 18.6 119.4 18.2V8.6H8.5V17.9C9.2 18.7 9.7 19 9.8 19.2L11.6 20.1L46.3 36.6C49.3 38 51.2 41.1 51.2 44.5S49.1 50.9 46 52.2C44.7 52.8 42.5 53.5 36.3 54.5C34.2 54.9 32.1 55.2 30.2 55.6C30.9 57.3 31.6 59.1 32.4 61.2C34.1 66 35.3 70.9 35.8 75.9C35.8 76.2 35.9 76.4 35.9 76.7C35.9 76.9 36 78.3 36.9 84.8C37.7 90.1 38.3 94.8 38.8 99C39.4 105.1 41.9 109.9 46.5 113.7C51.5 117.5 57.2000000000001 119.5 64 119.5" />
    <glyph glyph-name="user-male"
      unicode="&#xEA33;"
      horiz-adv-x="128" d=" M63.9 128C55.2 128 47 125 39.4 119C31.8 113 28 106.7 28 100V80C28 74.5 29.2 68.2 31.7 61.2C34.2 54.2 38 48.7 43 44.7L8 28C7.3 27.8 6.6 27.5 5.7 27C4.9 26.5 3.7 25.5 2.2 24.1C0.7 22.7 0 21.3 0 20V8C0 5.8 0.8 4 2.4 2.4C4 0.8 5.9 0 8 0H120C122.2 0 124 0.8 125.6 2.4C127.2 4 128 5.9 128 8V20C128 21.5 127.3 22.9 126 24.2C124.7 25.5 123.3 26.4 122 27L120 28L85.3 44.5C90.3 48.5 94 54 96.4 60.9C98.8 67.8 100 74.2 100 80V100C100 106.7 96.2 113 88.5 119C80.8 125 72.6 128 63.9 128M63.9 119.5C70.8 119.5 77.1 117.1 83.3 112.3C88.7 108 91.5 103.9 91.5 100V80C91.5 75.2 90.4 69.7 88.4 63.7C86.5 58.3 83.7 54.2 80 51.2C77.7 49.4 76.5 46.5 76.9 43.6C77.2 40.7 79.1 38.1 81.7 36.9L116.3 20.5L118.3 19.5C118.6 19.4 118.8 19.3 119.1 19.2C119.1 19.2 119.3 19.1 119.6 18.9V8.8H8.5V18.6C9.6 19.7 10.1 20 10.1 20L10.1 20C10.2 20 10.2 20.1 10.3 20.1C10.8 20.2 11.2 20.4 11.7 20.6L46.7 37.3C49.3 38.6 51.2 41.1 51.5 44C51.8 46.9 50.6 49.8 48.4 51.6C44.6 54.6 41.8 58.8 39.9 64.3C37.7 70.3 36.7 75.7 36.7 80.2V100C36.7 103.9 39.4 108 44.8 112.3C50.8 117.1 57 119.5 63.9 119.5" />
  </font>
</defs>
</svg>
