<svg id="Layer_1" xmlns="http://www.w3.org/2000/svg" viewBox="0 0 5715.5 3364.6"><style>.st0{fill:none;stroke:#000;stroke-width:.9921;stroke-miterlimit:10}</style><path fill="none" d="M-4100.5 1552.7h1285v555h-1285z"/><text transform="translate(-3524.08 1613.083)"><tspan x="0" y="0" font-family="DomaineDispCond-BoldItalic" font-size="85.039">The</tspan><tspan x="-296.8" y="204.1" font-family="DomaineDispCondBlack" font-size="170.079" letter-spacing="47">MONO</tspan><tspan x="376.7" y="204.1" font-family="DomaineDispCondBlack" font-size="170.079" letter-spacing="47">-</tspan><tspan x="-372.3" y="408.2" font-family="DomaineDispCondBlack" font-size="170.079" letter-spacing="47">CHROME</tspan></text><path d="M468.3 4537c3.8 0 6.2-.2 8.1-1l-6.1 30.1h-.3c-1.8-18.1-4.6-26.5-14.9-26.5h-.9l-16.3 64.9c-.6 2.5-.9 4.5-.9 6 0 3.2 1.4 4.8 4.3 7v.2h-33.8v-.2c6-3.2 8-5.4 9.8-13l16.3-64.9h-.8c-9.2 0-16.3 8.4-28.1 26.5h-.2l8.8-30.1c1.4.8 3.9 1 7.6 1h47.4zM482.5 4617.7h-18.6l18.3-73.8c.9-3.7 1.5-5.9 1.5-7.5 0-2.1-.8-3.5-2.4-4.8v-.2H504l-10.6 42.7c4.6-9.2 9.8-14.5 17.8-14.5 7.7 0 11.1 5.1 11.1 11.8 0 2-.2 4.2-.8 6.2l-7.4 29.8c-.2.8-.3 1.5-.3 2.2 0 2 .9 3.2 2.9 3.2.8 0 1.7-.2 2.9-.9v.2c-3.5 5-8 6.9-12.9 6.9-7.6 0-11-4.5-11-10.6 0-1.6.3-3.2.7-5l6.6-26.3c.5-1.6.8-3.1.8-4.3 0-1.8-.8-3.1-2.9-3.1-3.7 0-7.5 4.7-10 14.8l-8.4 33.2zM523.8 4597.8c0-18.3 15.1-38.4 34.8-38.4 9.5 0 14.2 4.8 14.2 11.7 0 12.9-14 18.5-30.1 19.1-.3 2.3-.6 4.5-.6 6.6 0 9.2 4.4 13.7 10.5 13.7 5.2 0 8.8-2.5 13.2-8.3h.7c-4.8 11.2-13.2 16.7-23.2 16.7-11.4 0-19.5-7.3-19.5-21.1zm19.2-9.4c9.7-3 17-14.2 17-23.3 0-2.3-.8-3.7-2.3-3.7-5.2 0-12.2 14.2-14.7 27zM-512.4 4944.4v.5h-32.3v-.5c7.4-6.2 10.6-15.9 10.6-31.4v-102.4c0-15.2-.7-20.1-8.1-26.8v-.5h62.5l20.1 66.4 19.4-66.4h61.1v.5c-7.4 6.7-8.3 11.5-8.3 26.8v107c0 15.2 1.2 20.1 8.5 26.8v.5h-69.9v-.5c7.4-6.7 8.3-11.5 8.3-26.8v-109.8l-41.5 139.6h-.9l-43.4-139.8v93.7c0 28.1 3.3 36.2 13.9 43.1zM-235.8 4947.2c-44.1 0-73.6-34.6-73.6-83.1 0-48.4 29.5-83.1 73.6-83.1s73.6 34.6 73.6 83.1c0 48.5-29.6 83.1-73.6 83.1zm0-162c-12.3 6.3-16.4 27.5-16.4 78.9 0 51.4 2.5 78.9 16.4 78.9 13.8 0 14.8-27.5 16.4-78.9 2-66.9-1.6-86.5-16.4-78.9zM27.9 4815.2v129.9H4.1l-80.7-137.3v93.4c0 28.1 3.2 36.2 13.8 43.1v.5h-32.3v-.5c7.4-6.2 10.6-15.9 10.6-31.4v-102.4c0-15.2-.7-20.1-8.1-26.8v-.5h64.4l48.2 82.4V4827c0-28.1-3.2-36.2-13.8-43.1v-.5h32.3v.5c-7.4 6.2-10.6 15.9-10.6 31.3zM179.2 4947.2c-44.1 0-73.6-34.6-73.6-83.1 0-48.4 29.5-83.1 73.6-83.1s73.6 34.6 73.6 83.1c0 48.5-29.5 83.1-73.6 83.1zm0-162c-13.8 0-16.4 27.5-16.4 78.9 0 51.4 2.5 78.9 16.4 78.9s16.4-27.5 16.4-78.9c0-51.4-2.5-78.9-16.4-78.9zM454.3 4840.1h-.9c-12-29.5-22.4-54.2-39.7-54.2s-25.6 31.1-25.6 66.7c0 43.1 14.3 68.3 36.7 68.3 12 0 24-5.5 30.9-24.7l1.6.5c-3.9 30.9-26.8 50.5-56.3 50.5-40.1 0-69.4-31.6-69.4-77.5 0-55.4 35.3-88.6 78-88.6 15.7 0 24.5 5.5 31.8 5.5 4.8 0 7.4-.9 11.8-5.5l1.1 59zM540 4810.6c0-15.2-.7-20.1-8.1-26.8v-.5h69.4v.5c-7.4 6.7-8.1 11.5-8.1 26.8v46.4h29.1v-46.4c0-15.2-.7-20.1-8.1-26.8v-.5h69.4v.5c-7.4 6.7-8.1 11.5-8.1 26.8v107c0 15.2.7 20.1 8.1 26.8v.5h-69.4v-.5c7.4-6.7 8.1-11.5 8.1-26.8v-53.3h-29.1v53.3c0 15.2.7 20.1 8.1 26.8v.5H532v-.5c7.4-6.7 8.1-11.5 8.1-26.8v-107zM838.1 4783.4c35.3 0 60.7 12.5 60.7 43.8 0 26.3-23.5 39.2-51.4 39.2 24.9 1.2 42.2 10.6 44.8 32.1l2.3 17.8c1.6 14.8 4.8 21.2 16.4 28.1v.5H848c-4.2-7.4-5.3-14.8-6.2-24.9l-3-33c-.9-11.1-6.9-16.6-16.8-16.6h-3.2v47.3c0 15.2.7 20.1 8.3 26.8v.5h-69.7v-.5c7.4-6.7 8.1-11.5 8.1-26.8v-107c0-15.2-.7-20.1-8.1-26.8v-.5h80.7zm-19.4 80.9h3.2c14.5 0 23.1-15.7 23.1-37.4s-8.3-37.4-23.1-37.4h-3.2v74.8zM1043.9 4947.2c-44.1 0-73.6-34.6-73.6-83.1 0-48.4 29.5-83.1 73.6-83.1 44.1 0 73.6 34.6 73.6 83.1 0 48.5-29.5 83.1-73.6 83.1zm0-162c-13.8 0-16.4 27.5-16.4 78.9 0 51.4 2.5 78.9 16.4 78.9s16.4-27.5 16.4-78.9c0-51.4-2.6-78.9-16.4-78.9zM1216.9 4944.4v.5h-32.3v-.5c7.4-6.2 10.6-15.9 10.6-31.4v-102.4c0-15.2-.7-20.1-8.1-26.8v-.5h62.5l20.1 66.4 19.4-66.4h61.1v.5c-7.4 6.7-8.3 11.5-8.3 26.8v107c0 15.2 1.2 20.1 8.5 26.8v.5h-69.9v-.5c7.4-6.7 8.3-11.5 8.3-26.8v-109.8l-41.5 139.6h-.9l-43.4-139.8v93.7c.1 28.1 3.3 36.2 13.9 43.1zM1511.3 4783.4c9.2 0 14.8-.7 18.2-2.3l5.5 49.1h-.5c-12.2-24.7-22.8-41.1-51-41.1h-3.7v68.3h3.2c18.7 0 24.9-5.3 31.8-26.8h.5v58.8h-.5c-6.9-21.2-13.2-26.3-31.8-26.3h-3.2v75.9h4.6c28.4 0 40.4-18.7 53.1-45.4h.5l-5.1 51.2h-114.4v-.5c7.4-6.7 8.1-11.5 8.1-26.8v-107c0-15.2-.7-20.1-8.1-26.8v-.5h92.8zM294.1 5170.5c0 12.3 4.2 17.6 11.7 17.6 6.8 0 13.2-5.2 19.1-16.4l.7.2c-5.4 15.2-15.7 24.9-29.6 24.9-14.6 0-23.4-11.4-23.4-27.8 0-27.5 18.8-55.3 44.2-55.3 7.5 0 10.7 3 14.3 3 2.4 0 4.3-.8 6.5-3l-6.5 28.8h-.5c-1.2-14.2-3.7-26.3-11.8-26.3-13.7.2-24.7 35.3-24.7 54.3zM363.4 5137.5c11 0 19.8 8 19.8 21.7 0 18.3-13.3 37.7-33.6 37.7-11.1 0-20-8-20-21.7.1-18.3 13.5-37.7 33.8-37.7zm-.4 2c-4.7 0-8.8 10.5-12.8 27.9-2.3 9.5-3.6 16.3-3.6 20.5 0 4.8 1.2 7 3.3 7 4.6 0 8.7-10.5 12.8-28 2.2-9.3 3.5-16.1 3.5-20.4.1-4.9-1-7-3.2-7zM399.7 5121.9c.9-3.6 1.4-5.8 1.4-7.4 0-2.2-.7-3.5-2.3-5v-.2h22.7l-18.9 75.9c-.2.8-.3 1.5-.3 2.2 0 2 1 3.2 2.9 3.2.8 0 1.7-.2 2.9-.9l.1.2c-3.6 5-8.1 6.9-13 6.9-7.6 0-10.8-4.5-10.8-10.6 0-1.6.2-3.2.6-5l14.7-59.3zM427.9 5121.9c.9-3.6 1.4-5.8 1.4-7.4 0-2.2-.7-3.5-2.3-5v-.2h22.7l-18.9 75.9c-.2.8-.3 1.5-.3 2.2 0 2 1 3.2 2.9 3.2.8 0 1.7-.2 2.9-.9l.1.2c-3.6 5-8.1 6.9-13 6.9-7.6 0-10.8-4.5-10.8-10.6 0-1.6.2-3.2.6-5l14.7-59.3zM440.9 5175.8c0-18.3 15.1-38.4 34.8-38.4 9.5 0 14.2 4.8 14.2 11.7 0 12.9-14 18.5-30.1 19.1-.3 2.3-.6 4.5-.6 6.6 0 9.2 4.4 13.7 10.5 13.7 5.2 0 8.8-2.5 13.2-8.3h.7c-4.8 11.2-13.2 16.7-23.2 16.7-11.4 0-19.5-7.3-19.5-21.1zm19.3-9.4c9.7-3 17-14.2 17-23.3 0-2.3-.8-3.7-2.3-3.7-5.3.1-12.3 14.2-14.7 27zM536.3 5149.4c0 7.2-5.3 11.7-11.2 11.7-3.8 0-7.5-2.4-7.8-6.5.6.2 1.3.3 2.1.3 3.9 0 7-5 7-10.4 0-3.1-.7-5.1-3.2-5.1-7 0-16.4 19.8-16.4 34.5 0 9.2 3.7 14.3 9.7 14.3 5.7 0 8.9-2.9 12.2-8.4h.7c-3.2 11.1-11.9 17.1-22.1 17.1-10.6 0-18.9-7.4-18.9-21.2 0-19 14.8-38.3 34.3-38.3 8.7 0 13.6 5.1 13.6 12zM553.1 5181.9c-.2.8-.3 1.6-.3 2.4 0 3.3 2.2 5.3 5 5.3 1.8 0 4.3-1 6.5-3.1l.1.2c-4.3 6.8-9.9 10.2-17.2 10.2-8.3 0-12.7-4.8-12.7-12.3 0-1.7.3-3.7.8-5.7l9.3-37.4h-4.2l.3-1.5c12-3.1 19.7-9.8 27.1-21.5h1l-5 20.1h10.8l-1.3 2.9h-10.4l-9.8 40.4zM586 5185.3c-.1.8-.2 1.5-.2 2.2 0 2 .9 3.2 2.8 3.2.8 0 1.8-.2 3-.9v.2c-3.6 5-8.1 6.9-13 6.9-7.5 0-10.7-4.5-10.7-10.6 0-1.6.1-3.2.6-5l7.4-30.1c.9-3.7 1.5-5.9 1.5-7.5 0-2.1-.7-3.5-2.4-4.8v-.2h22.8l-11.8 46.6zm6.4-74.3c5.9 0 10 4.3 10 9.8 0 6.1-4.8 11.1-11.1 11.1-5.9 0-10-4.3-10-9.8 0-6.3 4.8-11.1 11.1-11.1zM630.1 5137.5c11 0 19.8 8 19.8 21.7 0 18.3-13.3 37.7-33.6 37.7-11.1 0-20-8-20-21.7.1-18.3 13.5-37.7 33.8-37.7zm-.4 2c-4.7 0-8.8 10.5-12.8 27.9-2.3 9.5-3.6 16.3-3.6 20.5 0 4.8 1.2 7 3.3 7 4.6 0 8.7-10.5 12.8-28 2.2-9.3 3.5-16.1 3.5-20.4.1-4.9-1-7-3.2-7zM665 5195.7h-18.7l11.1-44.5c.8-3.7 1.4-5.9 1.4-7.5 0-2.1-.7-3.5-2.3-4.8v-.2h22.7l-3.3 13.4c4.6-9.2 9.8-14.5 17.8-14.5 7.7 0 11.1 5.1 11.1 11.8 0 2-.2 4.2-.8 6.2l-7.4 29.8c-.2.8-.3 1.5-.3 2.2 0 2 1 3.2 2.9 3.2.8 0 1.7-.2 2.9-.9l.1.2c-3.6 5-8.1 6.9-13 6.9-7.6 0-11-4.5-11-10.6 0-1.6.3-3.2.7-5l6.6-26.3c.5-1.6.8-3.1.8-4.3 0-1.8-.8-3.1-2.9-3.1-3.7 0-7.4 4.7-9.9 14.8l-8.5 33.2z"/><path fill="none" d="M-4211.5 2688.2h1285v555h-1285z"/><text transform="translate(-3635.08 2748.576)"><tspan x="0" y="0" font-family="DomaineDispCond-BoldItalic" font-size="85.039">The</tspan><tspan x="-494.8" y="204.1" font-family="DomaineDispCondBlack" font-size="170.079">MONOCHROME</tspan><tspan x="-112.5" y="306.1" font-family="DomaineDispCond-BoldItalic" font-size="85.039">Collecti</tspan><tspan x="152.4" y="306.1" font-family="DomaineDispCond-BoldItalic" font-size="85.039" letter-spacing="-1">o</tspan><tspan x="197.4" y="306.1" font-family="DomaineDispCond-BoldItalic" font-size="85.039">n</tspan></text><path fill="none" d="M-4211.5 3729.3h1285v555h-1285z"/><text transform="translate(-3638.82 3789.68)" font-family="AkzidenzGrotesk-Black" font-size="85.039">THE</text><path fill="none" d="M-4345.2 121.4h1285v555h-1285z"/><text transform="translate(-3834.81 242.16)"><tspan x="0" y="0" font-family="DomaineDispCondBlack-Italic" font-size="170.079">The</tspan><tspan x="-428.8" y="204.1" font-family="DomaineDispCondBlack-Italic" font-size="170.079">MONOCHROME</tspan><tspan x="-225" y="408.2" font-family="DomaineDispCondBlack-Italic" font-size="170.079">Collecti</tspan><tspan x="304.8" y="408.2" font-family="DomaineDispCondBlack-Italic" font-size="170.079" letter-spacing="-3">o</tspan><tspan x="394.7" y="408.2" font-family="DomaineDispCondBlack-Italic" font-size="170.079">n</tspan></text><g><path d="M2365.1 1972.9c.7-28.8 24.9-50.1 52-48.5 26.6 1.5 47.9 23.7 46.6 52.2-1.3 27.2-24.5 48.3-52 46.8-26.4-1.5-47.1-23.6-46.6-50.5zm19 1.1v4.4c.3 9.5 1.4 18.9 5.2 27.8 6.6 15.3 23.6 21.5 38.2 13.8 7.3-3.8 11.1-10.3 13.6-17.7 3-8.9 3.8-18.1 3.8-27.4.1-9.9-.6-19.7-3.8-29.2-2.2-6.5-5.4-12.4-11.2-16.3-14.6-9.7-33.6-3.9-40.6 12.3-4.4 10.3-5.1 21.3-5.2 32.3zM3348.9 1974c-.1 27.5-22 49.5-49.4 49.5-27.1 0-49.4-22.5-49.2-49.7.2-27.4 22.4-49.7 49.4-49.5 27.5.2 49.3 22.2 49.2 49.7zm-18.6-.9c-.1-2.5-.2-5.9-.5-9.2-.7-8.8-2.4-17.4-6.5-25.3-9.3-17.7-32.6-16.2-41.8-7.1-4.9 4.9-7.7 11-9.4 17.5-2.7 10.1-3.1 20.4-2.7 30.7.3 8 1.4 15.8 4 23.4 6.5 18.9 22.3 22.6 36.1 18.2 9.1-2.9 13.8-10.2 16.8-18.7 3.2-9.3 3.8-18.9 4-29.5zM3484.4 1926.7v97.2c-26.5-26.1-52.6-51.9-79.2-78.1v75.9h-.5v-97.8c26.6 25.9 52.8 51.4 79.3 77.2v-74.5c.1.1.3.1.4.1zM2775.2 1925.8h66.7v.3h-49.8v45.5h36.1v.4h-36.1v49.6h51.8v.4h-68.7v-96.2zM3054.9 2022v-95.7h-36.5v-.5h89.5v.3h-36.3v95.8c-5.6.1-11 .1-16.7.1zM2722.8 2022h-66.4v-96.2h16.6v95.7h49.8v.5zM3165 1925.8h16.6v96.2H3165v-96.2zM2317.9 1949.6c-1.9-3.5-3.3-6.7-5.3-9.7-10.3-15.2-32.8-19-46.5-7.9-6.6 5.4-10.3 12.7-12.3 20.8-3.7 15.2-3.7 30.5.9 45.5 2.5 8.2 7 15.2 14.5 19.7 8.6 5.1 17.8 4.9 27 2 5.9-1.8 11-5 15.3-9.5-.7.8-1.3 1.6-2 2.3-7.4 7.4-16.7 10.4-26.8 10.6-17.3.3-31.5-6-41.7-20.3-5.9-8.2-8.4-17.6-8.6-27.6-.2-12 2.7-23.1 10.2-32.6 11-13.9 25.7-19.8 43.2-18.4 9.8.7 18.3 4.5 25 12 3.2 3.5 6 8.6 7.1 13.1zM2971.4 1935.8c-4.2-3.6-8.6-6.7-14-8.4-17.2-5.5-33 2-39.7 18.9-4 10-4.9 20.4-4.6 31.1.3 9.1 1.5 17.9 5.4 26.3 8.5 18.4 26.2 21.7 41.8 15.6 8.9-3.5 15.1-10 18.5-18.9.2-.6.5-1.2 1.2-1.7-.2.5-.3 1.1-.6 1.6-4.7 11.9-13.5 19.4-25.9 22-16.4 3.4-31.4 0-44-11.3-9.8-8.7-14.5-20-15.3-33-.7-10.7 1.2-20.9 6.8-30.1 9.9-16.1 24.5-23.6 43.1-23.4 9.7.1 18.5 3 25.8 9.6.5.5.9 1.1 1.4 1.7h.1zM2529 2022v-96.1h16.5v95.7h49.9v.4H2529z"/></g><g><path d="M2886.3 1279.8v-51.7h-56v51.7h-17.5v-100h17.4v47.5h56v-47.4h17.5v99.9h-17.4zM2991.7 1227.5h37.6v.4h-37.7v51.5h54v.4h-71.4v-100h69v.3h-51.6c.1 16 .1 31.5.1 47.4zM2763 1180.2h-37.7v99.6h-17.4v-99.5h-38v-.5h93.1c-.1.2-.1.3 0 .4z"/></g><g><path d="M3775.8 1703v-208.9c12.4 0 24.6-.1 36.7.2 1.3 0 3 2.1 3.7 3.7 13.3 29 26.6 58.1 39.8 87.1 10.7 23.5 21.4 46.9 32.1 70.4.5 1.2 1.2 2.2 2.3 4 5-12.7 9.8-24.7 14.5-36.7 16.3-41.6 32.6-83.3 49.1-124.9.6-1.5 2.4-3.6 3.6-3.7 11.3-.3 22.6-.2 34.3-.2v209.7h-35.7v-205.3c-.3-.1-.7-.2-1-.2-27.3 69.6-54.7 139.2-82.6 210.2-31.9-70.8-63.3-140.2-94.6-209.7-.3.1-.6.1-.9.2v204c-.5.2-.9.1-1.3.1zM1556.5 1659.8c7.7-19.6 15-38.1 22.3-56.7 13.8-35.1 27.5-70.3 41.4-105.4.6-1.5 2.8-3.4 4.3-3.5 11-.3 22-.2 33.4-.2v209.7h-35.7v-204.2c-.4-.1-.9-.2-1.3-.3-27.2 69.2-54.4 138.4-82.2 209.3-32-70.9-63.3-140.4-94.7-210-.3.1-.7.1-1 .2v204.4h-.9v-209c12.4 0 24.7-.1 36.9.2 1.3 0 3 2.7 3.8 4.4 15.7 34.2 31.3 68.4 46.8 102.6 7.9 17.3 15.7 34.5 23.6 51.8 1 2 1.9 3.9 3.3 6.7zM2931 1596.2h117.9v-99.6h36.2V1706h-36v-108.3h-117.8V1706h-36v-209.3h35.8c-.1 32.9-.1 66-.1 99.5zM3201.2 1496.3c29 0 57.6-.2 86.3.1 9.1.1 18.3.7 27.4 2 15.7 2.3 30.4 7.3 42.3 18.6 18.2 17.4 21.6 54.7-8.1 74.5-14.1 9.4-29.8 13.6-46.6 15.8 1.6.3 3.1.7 4.7 1 14.6 2.8 28.9 6.7 38.9 18.4 5.1 5.9 8.7 13.3 11.7 20.6 5.3 13.1 9.3 26.7 14.5 39.8 2.7 6.6 2.8 14.9 6.6 21.5-12.3 0-20.6-2.1-33-2.4-1.3 0-3.3-1.7-3.9-3.1-4.2-9.4-8.3-18.8-11.9-28.4-4.5-12.1-8.4-24.5-12.8-36.7-6.9-19.1-20.1-29.7-40.8-30.1-12.8-.2-25.5 0-38.9 0v98.3h-36.2c-.2-69.9-.2-139.6-.2-209.9zm36.6 1.2v108.6c16.1 0 31.7.7 47.3-.2 16.2-.9 30.6-6.5 39.8-21.2 8.8-14.1 9.4-29.6 7.1-45.4-3.4-22.9-16.1-36.3-38.7-40.3-8.6-1.5-17.6-1.4-26.3-1.6-9.7-.1-19.3.1-29.2.1zM2319.2 1600.8c-.1-59 48.4-107.5 107.4-107.5 59.2 0 107 47.8 107.3 107.5.3 60-47.7 108.5-107.3 108.5-59.5 0-107.4-48.4-107.4-108.5zm41.3.6c0 3.8-.1 7.7 0 11.5.6 20.3 3.4 40.1 11.4 59 14.8 34.9 56.7 47.6 88.1 26.6 12.8-8.5 19.8-21.3 24.6-35.5 8.1-23.9 8.9-48.7 8.1-73.5-.5-18.2-3-36.1-9.3-53.4-15-40.9-50-47.3-78.6-37.9-18.6 6.1-28.6 20.8-35.1 38.3-7.9 21-9.3 42.9-9.2 64.9zM1963 1601.4c-.3 60-48.2 108.1-107.5 107.9-59.4-.2-107.3-48.8-107.1-108.4.2-59.7 48.9-108.2 107.8-107.6 59.6.6 107.2 48.8 106.8 108.1zm-41-.3c0-3.2.1-6.3 0-9.5-.7-20.7-3.2-41.1-11.5-60.5-13.8-32.3-49.3-46-81.1-31.2-17.2 8-26.5 22.6-31.7 39.8-11.4 38.2-11.2 76.9-2.3 115.5 3.6 15.5 10.2 29.6 22.6 40.3 29.3 25.2 76.7 12.8 92.4-24 9.8-22.5 11.4-46.4 11.6-70.4zM3688.2 1601.5c-.1 59.8-48.1 107.9-107.5 107.9-59.2-.1-107.4-48.7-107.4-108.1 0-59.4 48.7-108.1 107.6-107.9 59.6.2 107.4 48.4 107.3 108.1zm-173.9-1c.3 18.4 1.3 36.3 5.9 53.9 3.9 14.7 9.4 28.5 20.8 39.1 29.1 27.1 78 16 94.2-21.2 7.6-17.4 10.6-35.7 11.5-54.4 1.4-27.1.5-54-8.5-79.9-4.7-13.6-11.8-25.8-24.1-34-31.3-20.7-72.6-8.2-87.8 26.6-9.8 22.4-11.4 46.3-12 69.9zM2057.5 1705.3v-212.8c57.8 56.2 114.7 111.7 172.5 167.9v-163h1V1710c-57.5-56.7-114.4-112.8-172.4-169.9v165.1c-.3.1-.7.1-1.1.1zM4269 1497.5h-109v98.6h79.1v1.1h-79V1705h113.2v1h-149.8v-209.3H4269c-.1.2-.1.5 0 .8zM2794.2 1678.7c-10.2 14.6-24.7 22.9-41.5 27.5-42 11.3-87.5-4.5-113.1-39.6-15.2-20.8-21-44.7-19.5-70.2 2.2-38.8 18.7-69.8 53-88.8 33.3-18.5 67.9-20.3 101.8-.7 15.9 9.2 25.5 23.8 30.2 41.5-.7-1.7-1.4-3.3-2-5-15.1-38.9-60.7-57.9-97.7-40.6-19 8.9-30.2 24.9-36.3 44.3-12 38.5-12.3 77.2 2.1 115.1 10.4 27.2 30.4 43.6 60.6 44 23.1.3 43.4-7.5 59.3-24.9.9-1 1.8-1.9 2.8-2.8l.3.2z"/></g><path d="M1657.1 1704.3h-34.9c0 120 97.2 216.9 217.1 216.9 7.5 0 14.9-.3 22.1-1-113.7-6.6-203.9-100.9-204.3-215.9z"/><path class="st0" d="M2058.2 1703.8c0 119.9-97.2 217.1-217.1 217.1s-217.1-97.2-217.1-217.1"/><path d="M2895.3 1696.3h36c0 132-107.9 238.8-239.9 238.8-5.6 0-11.2 0-16.7-.4 124.1-8.6 220.6-112.4 220.6-238.4z"/><path class="st0" d="M2426.2 1695.9c0 131.9 107 238.9 238.9 238.9s238.9-107 238.9-238.9"/><path d="M2080.6 1515l-20.3 25.1c-92.4-74.8-105.7-210-31.2-302 3.2-3.9 6.4-7.7 9.8-11.4-64.1 91.4-45.9 217.3 41.7 288.3zM3372.3 1687.4l-32.2 9.5c35 118.4 159.4 187.9 277.3 153.1 5-1.5 10-3.1 14.8-4.9-113.1 25.1-226.7-45.5-259.9-157.7zM3789.2 1523.4l32.5-12.6c-46.4-119.4-148.1-197.8-267-151.6-5.1 2-10 4-14.9 6.3 114.9-35.7 205.4 44.7 249.4 157.9zM2444.3 1275c3.9 2.3 424.6 214.7 793.5 11.3l30.7-22.1c-203.1 158.3-558.6 179.7-841.8 0l17.6 10.8z"/><path class="st0" d="M2038.8 1226.7s104.7-142.3 387.9 37.4 638.7 158.3 841.8 0M3925.1 1934.8c-41.3-185.7-292.9-89.6-292.9-89.6"/><g><path d="M-544.7 4683.3s128.9-.3 322.3-.8c96.7-.1 209.5-.3 330.3-.5 120.9-.1 249.8-.1 378.7-.2 128.9.1 257.8.1 378.7.2 120.9.2 233.7.3 330.3.5 193.4.5 322.3.8 322.3.8s-128.9.3-322.3.8c-96.7.1-209.5.3-330.3.5-120.9.1-249.8.1-378.7.2-128.9-.1-257.8-.1-378.7-.2-120.9-.2-233.7-.3-330.3-.5-193.4-.5-322.3-.8-322.3-.8zM-544.7 4696.8s128.9-.3 322.3-.8c96.7-.1 209.5-.3 330.3-.5 120.9-.1 249.8-.1 378.7-.2 128.9.1 257.8.1 378.7.2 120.9.2 233.7.3 330.3.5 193.4.5 322.3.8 322.3.8s-128.9.3-322.3.8c-96.7.1-209.5.3-330.3.5-120.9.1-249.8.1-378.7.2-128.9-.1-257.8-.1-378.7-.2-120.9-.2-233.7-.3-330.3-.5-193.4-.4-322.3-.8-322.3-.8z"/></g><g><path d="M-544.7 5006.3s128.9-.3 322.3-.8c96.7-.1 209.5-.3 330.3-.5 120.9-.1 249.8-.1 378.7-.2 128.9.1 257.8.1 378.7.2 120.9.2 233.7.3 330.3.5 193.4.5 322.3.8 322.3.8s-128.9.3-322.3.8c-96.7.1-209.5.3-330.3.5-120.9.1-249.8.1-378.7.2-128.9-.1-257.8-.1-378.7-.2-120.9-.2-233.7-.3-330.3-.5-193.4-.5-322.3-.8-322.3-.8zM-544.7 5019.8s128.9-.3 322.3-.8c96.7-.1 209.5-.3 330.3-.5 120.9-.1 249.8-.1 378.7-.2 128.9.1 257.8.1 378.7.2 120.9.2 233.7.3 330.3.5 193.4.5 322.3.8 322.3.8s-128.9.3-322.3.8c-96.7.1-209.5.3-330.3.5-120.9.1-249.8.1-378.7.2-128.9-.1-257.8-.1-378.7-.2-120.9-.2-233.7-.3-330.3-.5-193.4-.4-322.3-.8-322.3-.8z"/></g><path d="M3576.8 5182.5c3.1 3.5 5.9 8.6 7.1 13.1-1.9-3.5-3.3-6.7-5.3-9.7-10.3-15.2-32.8-19-46.5-7.9-6.6 5.4-10.3 12.7-12.3 20.8-3.7 15.2-3.7 30.5.9 45.5 2.5 8.2 7 15.2 14.5 19.7 8.6 5.1 17.8 4.9 27 2 5.9-1.8 11-5 15.3-9.5-.7.8-1.3 1.6-2 2.3-7.4 7.4-16.7 10.4-26.8 10.6-17.3.3-31.5-6-41.7-20.3-5.9-8.2-8.4-17.6-8.6-27.6-.2-12 2.7-23.1 10.2-32.6 11-13.9 25.7-19.8 43.2-18.4 9.9.8 18.4 4.5 25 12zm-81.1-276c-50-48.8-99.4-96.9-149.3-145.5h.2c-.1-.1-.5-.2-.6-.3-7.6-7.4-15.2-14.8-23.2-22.1v.8c-66.7-72.6-76.1-182.9-19.1-265.4-3 3.3-6.1 6.7-9 10.2-73.7 91-61.9 224.5 28.1 299.7v167.5c-.5 57.2-22.1 111-62.5 151.4-37.5 37.5-86.4 60.1-138.9 63.5-110.9-9.5-197.3-104-197.6-216v-210.2c-12 0-22.3-.1-33.3.2-1.5 0-3.6 1.9-4.2 3.5-13.9 35.1-27.7 70.2-41.5 105.4-7.3 18.6-14.6 37.1-22.3 56.7-1.4-2.8-2.4-4.7-3.3-6.7-7.9-17.3-15.7-34.5-23.6-51.8-15.6-34.2-31.2-68.4-46.9-102.6-.8-1.8-2.6-4.4-3.9-4.4-12.3-.3-25.1-.2-37.1-.2v209h1v-204.4c0-.1.8-.1 1.1-.2 31.4 69.5 62.9 139.1 94.9 210 27.8-70.8 54.8-140 82-209.3.4.1 1 .2 1 .3v204.7c0 116 92.1 211.9 207.2 217.3 4.1.2 8.1 0 12.2 0 58.1 0 112.8-22.6 153.8-63.6 41.1-41.1 62.7-94.6 62.7-153.6v-164.1c58 57.1 115 113.2 173 169.9v-211.8h-1c.1 53.9.1 107 .1 162.1zm475.6-157.8c37-17.3 82.5 1.7 97.7 40.6.7 1.7 1.3 3.3 2 5-4.7-17.8-14.3-32.4-30.2-41.5-33.9-19.6-68.5-17.7-101.8.7-34.4 19.1-50.9 50-53 88.8-1.4 25.6 4.3 49.4 19.5 70.2 25.7 35.1 71.1 50.9 113.1 39.6 16.8-4.5 31.3-12.8 41.5-27.5l-.4-.3c-.9.9-1.9 1.8-2.8 2.8-15.9 17.4-36.2 25.2-59.3 24.9-30.2-.4-50.2-16.8-60.6-44-14.5-37.8-14.1-76.6-2.1-115.1 6.2-19.2 17.4-35.3 36.4-44.2zm2.4-222.4h17v-99h38v-1h-92.9v1h37.9v99zm-647.8-72.6c13-9.6 35.1-22.4 66.8-29.2 35.7-7.6 76-6.1 119.8 4.4 54.8 13.2 115.4 40.6 179.9 81.6 68.7 43.6 143.6 76.6 222.6 98.1 70.3 19.1 142.3 28.8 214.3 28.8 4.8 0 9.6 0 14.4-.1 150.7-2.7 289.6-47.7 391.1-126.8l-.3-.4-.3-.4c-11.3 8.8-23.1 17.2-35.3 25.2-343.6 185.8-730.2 14.2-782.6-11-7.8-4.6-15.6-9.3-23.3-14.2-64.6-41-125.3-68.5-180.2-81.7-44-10.6-84.5-12.1-120.3-4.4-31.9 6.8-54.1 19.7-67.2 29.3-14.1 10.5-20.8 19.4-20.9 19.5l.3.3-.1.1.5.2c.1-.1 6.8-8.9 20.8-19.3zm769.8 23.6h56v49h18v-100h-18v50h-56v-2-48h-17v100h17v-49zm643.6 369.9c0-59.4 48.7-108.1 107.6-107.9 59.5.3 107.3 48.5 107.2 108.1-.1 59.8-48.1 107.9-107.5 107.9-59.1-.1-107.3-48.7-107.3-108.1zm41-.7c.3 18.4 1.3 36.3 5.9 53.9 3.9 14.7 9.4 28.5 20.8 39.1 29.1 27.1 78 16 94.2-21.2 7.6-17.4 10.6-35.7 11.5-54.4 1.4-27.1.5-54-8.5-79.9-4.7-13.6-11.8-25.8-24.1-34-31.3-20.7-72.6-8.2-87.8 26.6-9.8 22.4-11.4 46.3-12 69.9zm-1050.6 376.1c-1.3 27.2-24.5 48.3-52 46.8-26.4-1.4-47.1-23.6-46.6-50.5.7-28.8 24.9-50 52-48.5 26.6 1.5 47.9 23.8 46.6 52.2zm-22.6-30.9c-2.2-6.5-5.4-12.4-11.2-16.3-14.6-9.7-33.6-3.9-40.6 12.3-4.4 10.3-5.2 21.3-5.3 32.4v4.4c.3 9.5 1.4 18.9 5.2 27.8 6.6 15.3 23.6 21.5 38.2 13.8 7.3-3.8 11.1-10.3 13.6-17.7 3-8.9 3.8-18.1 3.8-27.4.2-10.1-.5-19.9-3.7-29.3zm-402.7-719c-.3.4-.5.8-.8 1.2.3-.4.7-.7 1-1.1l-.2-.1zm-290 374.2c.2-59.7 48.9-108.2 107.8-107.6 59.5.6 107.1 48.8 106.8 108.1-.3 60-48.2 108.1-107.5 107.9-59.4-.2-107.3-48.8-107.1-108.4zm47.1 54.3c3.6 15.5 10.2 29.6 22.6 40.3 29.3 25.2 76.7 12.8 92.4-24 9.7-22.5 11.3-46.4 11.5-70.4 0-3.2.1-6.3 0-9.5-.7-20.7-3.2-41.1-11.5-60.4-13.8-32.3-49.3-46-81.1-31.2-17.2 8-26.5 22.6-31.7 39.8-11.3 38.1-11.1 76.8-2.2 115.4zm1183.3 345.1c-3.5 9-9.6 15.4-18.5 18.9-15.6 6.1-33.3 2.7-41.8-15.6-3.9-8.4-5.1-17.2-5.4-26.3-.3-10.6.6-21.1 4.6-31.1 6.7-16.8 22.5-24.3 39.7-18.9 5.4 1.7 9.8 4.8 14 8.4l.1-.1c-.5-.6-.9-1.2-1.4-1.7-7.3-6.6-16.1-9.6-25.8-9.6-18.6-.1-33.3 7.4-43.1 23.4-5.7 9.2-7.5 19.4-6.8 30.1.8 13 5.5 24.3 15.3 33 12.6 11.3 27.6 14.7 44 11.3 12.5-2.6 21.2-10.1 25.9-22 .2-.5.4-1.1.6-1.6-.9.5-1.1 1.1-1.4 1.8zm978.7-506c-1.3 0-2.9 2.1-3.5 3.7-16.4 41.6-32.8 83.2-49.1 124.9-4.7 12-9.5 24-14.5 36.7-1-1.8-1.7-2.9-2.3-4-10.7-23.4-21.4-46.9-32.1-70.3-12.4-27.1-24.7-54.2-37.1-81.2-47.6-115.4-147.7-189.8-264.1-144.6-5.1 2-10 4-14.9 6.3 104.6-32.5 188.4 31.7 235.9 128.7v208.7h1v-204c0-.1.7-.1 1-.2 31.3 69.5 62.8 138.9 94.7 209.7 27.9-71 55.1-140.6 82.5-210.2.3.1.8.2.8.2v205.8h36v-210.2c-12.1-.2-23-.3-34.3 0zM4614.9 5220c-.1 27.5-22 49.5-49.4 49.5-27.1 0-49.4-22.5-49.2-49.7.2-27.4 22.4-49.7 49.4-49.5 27.5.2 49.3 22.2 49.2 49.7zm-18.6-.9c-.1-2.5-.2-5.9-.5-9.2-.7-8.8-2.4-17.4-6.5-25.3-9.3-17.7-32.6-16.2-41.8-7.1-4.9 4.9-7.7 11-9.4 17.5-2.7 10.1-3.1 20.4-2.7 30.7.3 8 1.4 15.8 4 23.4 6.5 18.9 22.3 22.6 36.1 18.2 9.1-2.9 13.8-10.2 16.8-18.7 3.2-9.3 3.8-18.9 4-29.5zm289.8-123.9c4.1-1.2 8.1-2.6 12.1-4l-12.1 4zm0 0h-.2.2zm305.5 85.5l-1 .2c-9.8-43.9-32.3-75.6-66.8-94.2-45.5-24.5-104.4-21.9-145.7-15.3-43.9 6.9-89.8 23.1-92 23.8-.9.3-1.8.5-2.7.8l-5.4 1.5c-16 4.3-32.4 6.8-49 7.3-16.1.6-32.2-.7-48-3.6-15.6-2.9-30.9-7.6-45.6-13.8-14.6-6.2-28.6-13.9-41.6-23-13.1-9.1-25.2-19.7-36.1-31.3-11.1-11.8-20.8-24.9-29.1-38.8-2.6-4.4-5-8.8-7.2-13.4-4.8-9.9-9.2-19.9-13.2-30.2-4-10.1-8.5-19.9-12.3-30.1-4.5-12.1-8.5-24.5-12.9-36.7-6.9-19.1-20.3-29.7-40.9-30.1-12.8-.2-25.2 0-39.2 0v98.5h-36v-210c29 0 57.9-.2 86.5.1 9.1.1 18.6.7 27.6 2 15.7 2.3 30.4 7.3 42.3 18.6 18.2 17.4 21.6 54.7-8.1 74.5-14.1 9.4-29.8 13.6-46.6 15.8 1.6.3 3.1.7 4.7 1 14.6 2.8 28.9 6.7 38.9 18.4 5.1 5.9 8.7 13.3 11.7 20.6 1.9 4.7 3.7 9.5 5.4 14.4 2.9 8.3 6.3 16.5 8.8 24.9 2.5 8.3 5.5 16.4 8.9 24.3 8.2 19.4 18.8 37.7 32 54.2 10.2 12.9 21.8 24.6 34.6 35 12.6 10.3 26.3 19.2 40.8 26.6 14.5 7.3 29.8 13.1 45.5 17.1 15.9 4 32.2 6.2 48.6 6.5h3.2c2.6 0 5.2 0 7.9-.1 6.1-.2 12.2-.6 18.3-1.5 5.8-.8 11.4-2.3 17-4.1 4.3-1.4 8.7-2.7 13.1-4 11.8-3.4 23.6-6.6 35.6-9.3 11.5-2.7 23-5 34.6-6.9 41.5-6.5 100.6-9.2 146.4 15.4 34.5 18.8 57.2 50.7 67 94.9zm-640.5-328.8c16.2-.9 30.6-6.5 39.9-21.2 8.8-14.1 9.4-29.6 7.1-45.4-3.4-22.9-16.1-36.3-38.8-40.3-8.6-1.5-17.6-1.4-26.4-1.6-9.6-.2-20.2-.1-29.2-.1v108.6c16 .2 31.8.9 47.4 0zm874.6 99.4v-108h79.3v-1h-79.3v-98h109.2v-1h-146.2v209h150.6v-1h-113.6zm-1229 1c-5.1 128-110.7 229-239.3 229-4.5 0-9.1-.2-13.6-.4-1.6.1-4.1.1-5.1.2v86.2h49v1h-66v-87.2c-61-2.1-117.1-26.6-160.3-69.7-42.1-42.1-66.3-97-69.4-156.1-59.2-.3-106.8-48.5-106.9-108.5-.1-59 48.4-107.5 107.4-107.5 59.2 0 106.9 47.8 107.2 107.5.3 59.8-47.5 108.2-106.9 108.5 3.2 58.3 27.4 113.4 69.3 155.4 43 43 99.6 67.4 159.6 69.5v-7.9h17v7.9c6-.2 13.1-.7 19.7-1.4 115.3-16.9 202.3-116.7 202.3-236.5v-199h36v99h118v-99h36v209h-36v-108h-118v108zm-504-9c0 4 .1 7.7.3 11.8 11.3 0 22.7-3.7 33.1-10.6 12.8-8.5 19.8-21.3 24.6-35.5 8.1-23.9 8.9-48.7 8.1-73.5-.5-18.2-3-36.1-9.3-53.4-15-40.9-50-47.3-78.6-37.9-18.6 6.1-28.6 20.8-35.1 38.3-7.8 20.9-9.2 42.8-9.1 64.9 0 3.8-.1 7.7 0 11.5.6 20.3 3.4 40.1 11.4 59 9.8 23.1 31.4 36.9 54.1 37.3-.2-4.1-.3-7.8-.3-11.8h.8zm738 325h16v-96h-16v96zm-620-96h-16v96h66v-1h-50v-95zm495-646v-1h-49v-48h38v-1h-38v-49h49v-1h-66v100h66zm15 646h-33v1h33v95h16v-95h33v-1h-49zm429 74.8c-27-25.9-53-51.4-80-77.2v97.8h1v-75.9c27 26.3 53 52.5 79 78.5h1v-100h-1v76.8zm-709-74.8v96h66v-1h-49v-47h38v-1h-38v-46h49v-1h-66z"/></svg>