<svg id="Layer_1" xmlns="http://www.w3.org/2000/svg" xmlns:xlink="http://www.w3.org/1999/xlink" viewBox="0 0 128 128" enable-background="new 0 0 128 128"><style>.st0{fill:#261f63}.st1{fill:#271f64}.st2{fill:#282065}.st3{fill:#292065}.st4{fill:#2a2065}.st5{fill:#2a2066}.st6{fill:#2b2067}.st7{fill:#2c2067}.st8{fill:#2d2067}.st9{fill:#2e2168}.st10{fill:#2f2168}.st11{fill:#312169}.st12{fill:#322169}.st13{fill:#33216a}.st14{fill:#35216b}.st15{fill:#36216b}.st16{fill:#37226c}.st17{fill:#37216c}.st18{fill:#38226d}.st19{fill:#39226d}.st20{fill:#3b226d}.st21{fill:#3c226e}.st22{fill:#3c226f}.st23{fill:#3d226f}.st24{fill:#3e226f}.st25{fill:#3f2270}.st26{fill:#402270}.st27{fill:#412271}.st28{fill:#422371}.st29{fill:#422271}.st30{fill:#432372}.st31{fill:#452373}.st32{fill:#462373}.st33{fill:#472374}.st34{fill:#482374}.st35{fill:#492275}.st36{fill:#4a2275}.st37{fill:#4b2276}.st38{fill:#4c2277}.st39{fill:#4d2277}.st40{fill:#4f2277}.st41{fill:#502278}.st42{fill:#512278}.st43{fill:#522379}.st44{fill:#532379}.st45{fill:#54237a}.st46{fill:#55237b}.st47{fill:#56237b}.st48{fill:#57237b}.st49{fill:#58237c}.st50{fill:#59237d}.st51{fill:#5a237d}.st52{fill:#5b237e}.st53{fill:#5c237e}.st54{fill:#5d237f}.st55{fill:#5e247f}.st56{fill:#5f247f}.st57{fill:#602480}.st58{fill:#612480}.st59{fill:#622480}.st60{fill:#632381}.st61{fill:#642381}.st62{fill:#652381}.st63{fill:#662382}.st64{fill:#672382}.st65{fill:#682383}.st66{fill:#692383}.st67{fill:#6a2384}.st68{fill:#6b2384}.st69{fill:#6c2384}.st70{fill:#6d2385}.st71{fill:#6e2486}.st72{fill:#6f2487}.st73{fill:#702487}.st74{fill:#712487}.st75{fill:#722488}.st76{fill:#732489}.st77{fill:#742489}.st78{fill:#75248a}.st79{fill:#76248b}.st80{fill:#77238c}.st81{fill:#79248d}.st82{fill:#7a248f}.st83{fill:#7c2490}.st84{fill:#7d2590}.st85{fill:#7e2691}.st86{fill:#7e2891}.st87{fill:#7f2991}.st88{fill:#7f2a92}.st89{fill:#802b92}.st90{fill:#802c92}.st91{fill:#802d93}.st92{fill:#802e93}.st93{fill:#802f94}.st94{fill:#803094}.st95{fill:#803294}.st96{fill:#813395}.st97{fill:#823495}.st98{fill:#833596}.st99{fill:#833696}.st100{fill:#833796}.st101{fill:#843897}.st102{fill:#843997}.st103{fill:#843a98}.st104{fill:#853b98}.st105{fill:#853c98}.st106{fill:#863c98}.st107{fill:#873d99}.st108{fill:#863e99}.st109{fill:#874099}.st110{fill:#88419a}.st111{fill:#88429a}.st112{fill:#88439b}.st113{fill:#89449b}.st114{fill:#8a459c}.st115{fill:#8b469c}.st116{fill:#8b479d}.st117{fill:#8b489d}.st118{fill:#8c489d}.st119{fill:#8c4a9e}.st120{fill:#8c4b9e}.st121{fill:#8d4b9f}.st122{fill:#8e4c9f}.st123{fill:#8e4d9f}.st124{fill:#8f4ea0}.st125{fill:#904ea0}.st126{fill:#8f4fa1}.st127{fill:#9050a1}.st128{fill:#9151a1}.st129{fill:#9152a2}.st130{fill:#9153a2}.st131{fill:#9254a3}.st132{fill:#9354a3}.st133{fill:#9355a3}.st134{fill:#9456a4}.st135{fill:#9458a4}.st136{fill:#9559a5}.st137{fill:#965aa5}.st138{fill:#965ba6}.st139{fill:#965ca6}.st140{fill:#975ca6}.st141{fill:#975da7}.st142{fill:#985da7}.st143{fill:#985ea8}.st144{fill:#985fa8}.st145{fill:#9960a8}.st146{fill:#9a60a9}.st147{fill:#9a61a9}.st148{fill:#9a63aa}.st149{fill:#9b63aa}.st150{fill:#9c63aa}.st151{fill:#9c64ab}.st152{fill:#9c65ab}.st153{fill:#9d66ab}.st154{fill:#9e66ac}.st155{fill:#9e67ac}.st156{fill:#9e68ad}.st157{fill:#9f68ad}.st158{fill:#9f69ad}.st159{fill:#a06aae}.st160{fill:#a16bae}.st161{fill:#a16caf}.st162{fill:#a26daf}.st163{fill:#a36db0}.st164{fill:#a36eb0}.st165{fill:#a36fb0}.st166{fill:#a470b1}.st167{fill:#a570b1}.st168{fill:#a571b1}.st169{fill:#a572b2}.st170{fill:#a672b2}.st171{fill:#a673b3}.st172{fill:#a774b3}.st173{fill:#a875b2}.st174{fill:#a875b4}.st175{fill:#a976b3}.st176{fill:#a977b4}.st177{fill:#aa78b4}.st178{fill:#ab7ab5}.st179{fill:#ac7ab5}.st180{fill:#ac7ab6}.st181{fill:#ac7bb6}.st182{fill:#ad7cb6}.st183{fill:#ae7db7}.st184{fill:#af7eb8}.st185{fill:#af7fb9}.st186{fill:#b07fb9}.st187{fill:#b180b9}.st188{fill:#b180ba}.st189{fill:#b281ba}.st190{fill:#b281bb}.st191{fill:#b282bb}.st192{fill:#b384bb}.st193{filter:url(#Adobe_OpacityMaskFilter)}.st194{enable-background:new}.st195{clip-path:url(#SVGID_3_);fill:url(#SVGID_4_)}.st196{opacity:.6;mask:url(#SVGID_1_)}.st197{clip-path:url(#SVGID_6_)}.st198{clip-path:url(#SVGID_8_);fill:url(#SVGID_9_)}.st199{fill:#fff}</style><path class="st0" d="M127.7 63.8c0 14.1-28.7 25.6-64 25.6s-64-11.5-64-25.6c0-14.1 28.7-25.6 64-25.6s64 11.5 64 25.6"/><path class="st1" d="M127.6 63.8c0 14.1-28.6 25.5-63.9 25.5S-.2 77.9-.2 63.8s28.6-25.5 63.9-25.5 63.9 11.4 63.9 25.5"/><path class="st2" d="M127.5 63.8c0 14.1-28.6 25.5-63.8 25.5C28.5 89.3-.1 77.9-.1 63.8s28.6-25.5 63.8-25.5c35.2 0 63.8 11.4 63.8 25.5"/><path class="st3" d="M127.4 63.8c0 14-28.5 25.4-63.6 25.4S.2 77.8.2 63.8c0-14 28.5-25.4 63.6-25.4 35.1-.1 63.6 11.3 63.6 25.4"/><path class="st4" d="M127.2 63.8c0 14-28.4 25.4-63.5 25.4S.2 77.8.2 63.8c0-14 28.4-25.4 63.5-25.4s63.5 11.4 63.5 25.4"/><path class="st5" d="M127.1 63.8c0 14-28.4 25.3-63.4 25.3S.3 77.8.3 63.8s28.4-25.3 63.4-25.3c35-.1 63.4 11.3 63.4 25.3"/><path class="st6" d="M127 63.8c0 14-28.3 25.3-63.3 25.3C28.8 89.1.4 77.8.4 63.8s28.3-25.3 63.3-25.3S127 49.8 127 63.8"/><path class="st7" d="M126.9 63.8c0 13.9-28.3 25.3-63.2 25.3C28.8 89 .5 77.7.5 63.8s28.3-25.2 63.2-25.2c34.9-.1 63.2 11.2 63.2 25.2"/><path class="st8" d="M126.8 63.8c0 13.9-28.2 25.2-63.1 25.2-34.8 0-63-11.3-63-25.2 0-13.9 28.2-25.2 63.1-25.2 34.7 0 63 11.3 63 25.2"/><path class="st9" d="M126.6 63.8c0 13.9-28.2 25.2-62.9 25.2C29 88.9.8 77.7.8 63.8S29 38.6 63.7 38.6c34.8 0 62.9 11.3 62.9 25.2"/><path class="st10" d="M126.5 63.8c0 13.9-28.1 25.1-62.8 25.1C29 88.9.9 77.6.9 63.8S29 38.7 63.7 38.7c34.7 0 62.8 11.2 62.8 25.1"/><path class="st11" d="M126.4 63.8c0 13.8-28.1 25.1-62.7 25.1C29.1 88.8 1 77.6 1 63.8s28.1-25.1 62.7-25.1 62.7 11.2 62.7 25.1"/><path class="st12" d="M126.3 63.8c0 13.8-28 25-62.6 25S1.1 77.6 1.1 63.8s28-25 62.6-25 62.6 11.2 62.6 25"/><path class="st12" d="M126.2 63.8c0 13.8-28 25-62.5 25S1.2 77.6 1.2 63.8s28-25 62.5-25 62.5 11.2 62.5 25"/><path class="st13" d="M126.1 63.8c0 13.8-27.9 24.9-62.4 24.9-34.4 0-62.3-11.2-62.3-24.9s27.9-24.9 62.3-24.9 62.4 11.1 62.4 24.9"/><path class="st13" d="M125.9 63.8c0 13.7-27.9 24.9-62.2 24.9-34.4 0-62.2-11.1-62.2-24.9 0-13.7 27.9-24.9 62.2-24.9 34.4 0 62.2 11.1 62.2 24.9"/><path class="st14" d="M125.8 63.8c0 13.7-27.8 24.8-62.1 24.8S1.6 77.5 1.6 63.8C1.6 50.1 29.4 39 63.7 39s62.1 11.1 62.1 24.8"/><path class="st15" d="M125.7 63.8c0 13.7-27.8 24.8-62 24.8s-62-11.1-62-24.8S29.5 39 63.7 39s62 11.1 62 24.8"/><path class="st16" d="M125.6 63.8c0 13.7-27.7 24.7-61.9 24.7S1.8 77.4 1.8 63.8s27.7-24.7 61.9-24.7 61.9 11 61.9 24.7"/><path class="st17" d="M125.5 63.8c0 13.6-27.7 24.7-61.8 24.7-34.1 0-61.8-11-61.8-24.7 0-13.6 27.7-24.7 61.8-24.7 34.1 0 61.8 11 61.8 24.7"/><path class="st18" d="M125.3 63.8c0 13.6-27.6 24.6-61.6 24.6S2.1 77.4 2.1 63.8c0-13.6 27.6-24.6 61.6-24.6 34-.1 61.6 11 61.6 24.6"/><path class="st19" d="M125.2 63.8c0 13.6-27.6 24.6-61.5 24.6-34 0-61.5-11-61.5-24.6 0-13.6 27.5-24.6 61.5-24.6s61.5 11 61.5 24.6"/><path class="st20" d="M125.1 63.8c0 13.6-27.5 24.5-61.4 24.5S2.3 77.3 2.3 63.8c0-13.6 27.5-24.5 61.4-24.5 33.9-.1 61.4 10.9 61.4 24.5"/><path class="st21" d="M125 63.8c0 13.5-27.4 24.5-61.3 24.5-33.8 0-61.3-11-61.3-24.5s27.4-24.5 61.3-24.5S125 50.2 125 63.8"/><path class="st22" d="M124.9 63.8c0 13.5-27.4 24.4-61.2 24.4-33.8 0-61.2-10.9-61.2-24.4 0-13.5 27.4-24.4 61.2-24.4 33.8-.1 61.2 10.9 61.2 24.4"/><path class="st23" d="M124.8 63.8c0 13.5-27.3 24.4-61.1 24.4-33.7 0-61-10.9-61-24.4 0-13.5 27.3-24.4 61-24.4s61.1 10.9 61.1 24.4"/><path class="st24" d="M124.6 63.8c0 13.5-27.3 24.4-60.9 24.4-33.6 0-60.9-10.9-60.9-24.4 0-13.4 27.3-24.3 60.9-24.3 33.7-.1 60.9 10.8 60.9 24.3"/><path class="st25" d="M124.5 63.8c0 13.4-27.2 24.3-60.8 24.3-33.6 0-60.8-10.9-60.8-24.3s27.2-24.3 60.8-24.3c33.6 0 60.8 10.9 60.8 24.3"/><path class="st26" d="M124.4 63.8c0 13.4-27.2 24.3-60.7 24.3C30.2 88 3 77.2 3 63.8s27.2-24.3 60.7-24.3 60.7 10.9 60.7 24.3"/><path class="st27" d="M124.3 63.8c0 13.4-27.1 24.2-60.6 24.2C30.3 88 3.1 77.2 3.1 63.8c0-13.4 27.1-24.2 60.6-24.2s60.6 10.8 60.6 24.2"/><path class="st28" d="M124.2 63.8c0 13.3-27.1 24.2-60.5 24.2S3.2 77.2 3.2 63.8c0-13.3 27.1-24.2 60.5-24.2s60.5 10.8 60.5 24.2"/><path class="st29" d="M124.1 63.8c0 13.3-27 24.1-60.3 24.1S3.5 77.1 3.5 63.8s27-24.1 60.3-24.1c33.2 0 60.3 10.8 60.3 24.1"/><path class="st30" d="M123.9 63.8c0 13.3-27 24.1-60.2 24.1-33.3 0-60.2-10.8-60.2-24.1s27-24.1 60.2-24.1c33.3 0 60.2 10.8 60.2 24.1"/><path class="st31" d="M123.8 63.8c0 13.3-26.9 24-60.1 24S3.6 77 3.6 63.8c0-13.3 26.9-24 60.1-24s60.1 10.7 60.1 24"/><path class="st31" d="M123.7 63.8c0 13.2-26.9 24-60 24s-60-10.7-60-24c0-13.2 26.9-24 60-24s60 10.7 60 24"/><path class="st32" d="M123.6 63.8c0 13.2-26.8 23.9-59.9 23.9C30.6 87.7 3.8 77 3.8 63.8s26.8-23.9 59.9-23.9c33.1 0 59.9 10.7 59.9 23.9"/><path class="st33" d="M123.5 63.8c0 13.2-26.8 23.9-59.8 23.9S4 77 4 63.8s26.8-23.9 59.8-23.9c32.9 0 59.7 10.7 59.7 23.9"/><path class="st34" d="M123.3 63.8c0 13.2-26.7 23.8-59.6 23.8-32.9 0-59.6-10.7-59.6-23.8C4.1 50.6 30.8 40 63.7 40c32.9 0 59.6 10.6 59.6 23.8"/><path class="st35" d="M123.2 63.8c0 13.1-26.6 23.8-59.5 23.8S4.2 77 4.2 63.8C4.2 50.6 30.8 40 63.7 40s59.5 10.6 59.5 23.8"/><path class="st36" d="M123.1 63.8c0 13.1-26.6 23.7-59.4 23.7S4.3 76.9 4.3 63.8 30.9 40 63.7 40s59.4 10.7 59.4 23.8"/><path class="st36" d="M123 63.8c0 13.1-26.5 23.7-59.3 23.7C31 87.5 4.4 76.9 4.4 63.8S31 40.1 63.7 40.1c32.7 0 59.3 10.6 59.3 23.7"/><path class="st37" d="M122.9 63.8c0 13.1-26.5 23.6-59.2 23.6S4.5 76.8 4.5 63.8c0-13.1 26.5-23.6 59.2-23.6 32.7-.1 59.2 10.5 59.2 23.6"/><path class="st38" d="M122.8 63.8c0 13-26.4 23.6-59.1 23.6-32.6 0-59-10.6-59-23.6 0-13 26.4-23.6 59-23.6s59.1 10.5 59.1 23.6"/><path class="st39" d="M122.6 63.8c0 13-26.4 23.6-58.9 23.6S4.8 76.9 4.8 63.8s26.4-23.5 58.9-23.5c32.5-.1 58.9 10.5 58.9 23.5"/><path class="st40" d="M122.5 63.8c0 13-26.3 23.5-58.8 23.5S4.9 76.8 4.9 63.8s26.3-23.5 58.8-23.5 58.8 10.5 58.8 23.5"/><path class="st41" d="M122.4 63.8c0 13-26.3 23.5-58.7 23.5C31.3 87.2 5 76.7 5 63.8c0-13 26.3-23.5 58.7-23.5 32.4 0 58.7 10.5 58.7 23.5"/><path class="st42" d="M122.3 63.8c0 12.9-26.2 23.4-58.6 23.4-32.3 0-58.6-10.5-58.6-23.4 0-12.9 26.2-23.4 58.6-23.4 32.4 0 58.6 10.5 58.6 23.4"/><path class="st43" d="M122.2 63.8c0 12.9-26.2 23.4-58.5 23.4S5.2 76.7 5.2 63.8s26.2-23.4 58.5-23.4 58.5 10.5 58.5 23.4"/><path class="st44" d="M122 63.8c0 12.9-26.1 23.3-58.3 23.3-32.2 0-58.3-10.4-58.3-23.3s26.1-23.3 58.3-23.3c32.2 0 58.3 10.4 58.3 23.3"/><path class="st45" d="M121.9 63.8c0 12.9-26.1 23.3-58.2 23.3C31.6 87 5.5 76.6 5.5 63.8c0-12.9 26.1-23.3 58.2-23.3 32.2 0 58.2 10.4 58.2 23.3"/><path class="st45" d="M121.8 63.8c0 12.8-26 23.2-58.1 23.2S5.6 76.6 5.6 63.8c0-12.8 26-23.2 58.1-23.2s58.1 10.4 58.1 23.2"/><path class="st46" d="M121.7 63.8c0 12.8-26 23.2-58 23.2s-58-10.4-58-23.2c0-12.8 26-23.2 58-23.2s58 10.4 58 23.2"/><path class="st47" d="M121.6 63.8c0 12.8-25.9 23.1-57.9 23.1S5.8 76.5 5.8 63.8c0-12.8 25.9-23.1 57.9-23.1s57.9 10.3 57.9 23.1"/><path class="st48" d="M121.5 63.8c0 12.7-25.9 23.1-57.8 23.1S6 76.5 6 63.8C6 51 31.8 40.7 63.7 40.7c31.9 0 57.8 10.3 57.8 23.1"/><path class="st49" d="M121.3 63.8c0 12.7-25.8 23-57.6 23S6.1 76.5 6.1 63.8s25.8-23 57.6-23 57.6 10.3 57.6 23"/><path class="st50" d="M121.2 63.8c0 12.7-25.8 23-57.5 23-31.8 0-57.5-10.3-57.5-23s25.8-23 57.5-23c31.8 0 57.5 10.3 57.5 23"/><path class="st50" d="M121.1 63.8c0 12.7-25.7 22.9-57.4 22.9S6.3 76.5 6.3 63.8 32 40.9 63.7 40.9c31.7-.1 57.4 10.2 57.4 22.9"/><path class="st51" d="M121 63.8c0 12.6-25.6 22.9-57.3 22.9-31.6 0-57.3-10.2-57.3-22.9 0-12.6 25.6-22.9 57.3-22.9 31.6 0 57.3 10.2 57.3 22.9"/><path class="st52" d="M120.9 63.8c0 12.6-25.6 22.8-57.2 22.8S6.5 76.4 6.5 63.8C6.5 51.2 32.1 41 63.7 41c31.6-.1 57.2 10.2 57.2 22.8"/><path class="st53" d="M120.7 63.8c0 12.6-25.5 22.8-57 22.8s-57-10.2-57-22.8c0-12.6 25.5-22.8 57-22.8s57 10.2 57 22.8"/><path class="st54" d="M120.6 63.8c0 12.6-25.5 22.8-56.9 22.8S6.8 76.4 6.8 63.8C6.8 51.2 32.3 41 63.7 41s56.9 10.2 56.9 22.8"/><path class="st55" d="M120.5 63.8c0 12.5-25.4 22.7-56.8 22.7S6.9 76.3 6.9 63.8s25.4-22.7 56.8-22.7 56.8 10.1 56.8 22.7"/><path class="st56" d="M120.4 63.8c0 12.5-25.4 22.7-56.7 22.7C32.4 86.4 7 76.3 7 63.8s25.4-22.7 56.7-22.7c31.3 0 56.7 10.2 56.7 22.7"/><path class="st57" d="M120.3 63.8c0 12.5-25.3 22.6-56.6 22.6-31.2 0-56.6-10.1-56.6-22.6 0-12.5 25.3-22.6 56.6-22.6 31.2 0 56.6 10.1 56.6 22.6"/><path class="st58" d="M120.2 63.8c0 12.5-25.3 22.6-56.5 22.6S7.3 76.3 7.3 63.8c0-12.5 25.3-22.6 56.4-22.6 31.2 0 56.5 10.1 56.5 22.6"/><path class="st58" d="M120 63.8c0 12.4-25.2 22.5-56.3 22.5-31.1 0-56.3-10.1-56.3-22.5s25.2-22.5 56.3-22.5c31.1 0 56.3 10 56.3 22.5"/><path class="st59" d="M119.9 63.8c0 12.4-25.2 22.5-56.2 22.5-31 0-56.2-10.1-56.2-22.5s25.2-22.5 56.2-22.5c31.1 0 56.2 10.1 56.2 22.5"/><path class="st60" d="M119.8 63.8c0 12.4-25.1 22.4-56.1 22.4S7.6 76.2 7.6 63.8c0-12.4 25.1-22.4 56.1-22.4s56.1 10 56.1 22.4"/><path class="st61" d="M119.7 63.8c0 12.4-25.1 22.4-56 22.4s-56-10-56-22.4c0-12.4 25.1-22.4 56-22.4s56 10 56 22.4"/><path class="st62" d="M119.6 63.8c0 12.3-25 22.3-55.9 22.3-30.8 0-55.9-10-55.9-22.3s25-22.3 55.9-22.3 55.9 9.9 55.9 22.3"/><path class="st63" d="M119.5 63.8c0 12.3-25 22.3-55.7 22.3C32.9 86.1 8 76.1 8 63.8s25-22.3 55.7-22.3c30.8 0 55.8 10 55.8 22.3"/><path class="st63" d="M119.3 63.8c0 12.3-24.9 22.2-55.6 22.2C33 86 8.1 76.1 8.1 63.8c0-12.3 24.9-22.2 55.6-22.2 30.7 0 55.6 9.9 55.6 22.2"/><path class="st64" d="M119.2 63.8C119.2 76 94.4 86 63.7 86 33.1 86 8.2 76 8.2 63.8c0-12.3 24.9-22.2 55.5-22.2 30.7 0 55.5 9.9 55.5 22.2"/><path class="st65" d="M119.1 63.8c0 12.2-24.8 22.1-55.4 22.1-30.6 0-55.4-9.9-55.4-22.1s24.8-22.1 55.4-22.1c30.6-.1 55.4 9.9 55.4 22.1"/><path class="st66" d="M119 63.8c0 12.2-24.7 22.1-55.3 22.1-30.5 0-55.3-9.9-55.3-22.1s24.7-22.1 55.3-22.1c30.5 0 55.3 9.9 55.3 22.1"/><path class="st67" d="M118.9 63.8c0 12.2-24.7 22-55.2 22-30.5 0-55.2-9.9-55.2-22 0-12.2 24.7-22 55.2-22 30.5-.1 55.2 9.8 55.2 22"/><path class="st68" d="M118.7 63.8c0 12.1-24.6 22-55 22s-55-9.8-55-22c0-12.1 24.6-22 55-22s55 9.8 55 22"/><path class="st69" d="M118.6 63.8c0 12.1-24.6 22-54.9 22-30.3 0-54.9-9.8-54.9-22 0-12.1 24.6-21.9 54.9-21.9 30.3-.1 54.9 9.8 54.9 21.9"/><path class="st70" d="M118.5 63.8c0 12.1-24.5 21.9-54.8 21.9-30.3 0-54.8-9.8-54.8-21.9 0-12.1 24.5-21.9 54.8-21.9 30.3 0 54.8 9.8 54.8 21.9"/><path class="st71" d="M118.4 63.8c0 12.1-24.5 21.9-54.7 21.9C33.5 85.6 9 75.9 9 63.8c0-12.1 24.5-21.9 54.7-21.9 30.2 0 54.7 9.8 54.7 21.9"/><path class="st72" d="M118.3 63.8c0 12-24.4 21.8-54.6 21.8-30.1 0-54.6-9.8-54.6-21.8S33.5 42 63.7 42c30.1 0 54.6 9.7 54.6 21.8"/><path class="st72" d="M118.2 63.8c0 12-24.4 21.8-54.5 21.8S9.3 75.9 9.3 63.8c0-12 24.4-21.8 54.4-21.8 30.1 0 54.5 9.8 54.5 21.8"/><path class="st73" d="M118 63.8c0 12-24.3 21.7-54.3 21.7-30 0-54.3-9.7-54.3-21.7s24.3-21.7 54.3-21.7c30 0 54.3 9.7 54.3 21.7"/><path class="st74" d="M117.9 63.8c0 12-24.3 21.7-54.2 21.7-29.9 0-54.2-9.7-54.2-21.7s24.3-21.7 54.2-21.7c29.9 0 54.2 9.7 54.2 21.7"/><path class="st75" d="M117.8 63.8c0 11.9-24.2 21.6-54.1 21.6-29.9 0-54.1-9.7-54.1-21.6s24.2-21.6 54.1-21.6c29.9 0 54.1 9.6 54.1 21.6"/><path class="st76" d="M117.7 63.8c0 11.9-24.2 21.6-54 21.6s-54-9.7-54-21.6c0-11.9 24.2-21.6 54-21.6s54 9.7 54 21.6"/><path class="st77" d="M117.6 63.8c0 11.9-24.1 21.5-53.9 21.5-29.7 0-53.9-9.6-53.9-21.5s24.1-21.5 53.9-21.5c29.8 0 53.9 9.6 53.9 21.5"/><path class="st78" d="M117.4 63.8c0 11.9-24.1 21.5-53.7 21.5C34 85.3 10 75.6 10 63.8c0-11.9 24-21.5 53.7-21.5 29.7 0 53.7 9.6 53.7 21.5"/><path class="st79" d="M117.3 63.8c0 11.8-24 21.4-53.6 21.4s-53.6-9.6-53.6-21.4c0-11.8 24-21.4 53.6-21.4s53.6 9.5 53.6 21.4"/><path class="st79" d="M117.2 63.8c0 11.8-24 21.4-53.5 21.4s-53.5-9.6-53.5-21.4c0-11.8 24-21.4 53.5-21.4 29.6 0 53.5 9.6 53.5 21.4"/><path class="st80" d="M117.1 63.8c0 11.8-23.9 21.3-53.4 21.3s-53.4-9.6-53.4-21.3c0-11.8 23.9-21.3 53.4-21.3 29.5-.1 53.4 9.5 53.4 21.3"/><path class="st81" d="M117 63.8c0 11.8-23.9 21.3-53.3 21.3s-53.3-9.5-53.3-21.3 23.9-21.3 53.3-21.3S117 52 117 63.8"/><path class="st81" d="M116.9 63.8c0 11.7-23.8 21.2-53.2 21.2-29.4 0-53.1-9.5-53.1-21.2s23.8-21.2 53.1-21.2c29.4-.1 53.2 9.4 53.2 21.2"/><path class="st82" d="M116.7 63.8c0 11.7-23.7 21.2-53 21.2s-53-9.5-53-21.2 23.7-21.2 53-21.2 53 9.5 53 21.2"/><path class="st83" d="M116.6 63.8c0 11.7-23.7 21.2-52.9 21.2s-52.9-9.5-52.9-21.2 23.7-21.1 52.9-21.1c29.2-.1 52.9 9.4 52.9 21.1"/><path class="st83" d="M116.5 63.8c0 11.7-23.6 21.1-52.8 21.1-29.2 0-52.8-9.4-52.8-21.1 0-11.7 23.6-21.1 52.8-21.1 29.2 0 52.8 9.4 52.8 21.1"/><path class="st83" d="M116.5 63.8c0 11.7-23.6 21.1-52.8 21.1-29.2 0-52.8-9.4-52.8-21.1 0-11.7 23.6-21.1 52.8-21.1 29.2 0 52.8 9.4 52.8 21.1"/><path class="st84" d="M116.3 63.9c0 11.6-23.5 21-52.5 21s-52.4-9.4-52.4-21 23.5-21 52.4-21c29 0 52.5 9.4 52.5 21"/><path class="st85" d="M116.2 64c0 11.5-23.3 20.8-52.1 20.8S12 75.5 12 64s23.3-20.8 52.1-20.8c28.7-.1 52.1 9.3 52.1 20.8"/><path class="st86" d="M116 64.1c0 11.4-23.2 20.7-51.7 20.7-28.6 0-51.7-9.3-51.7-20.7 0-11.4 23.2-20.7 51.7-20.7 28.5 0 51.7 9.2 51.7 20.7"/><path class="st86" d="M115.8 64.1c0 11.3-23 20.5-51.4 20.5C36 84.7 13 75.5 13 64.1c0-11.3 23-20.5 51.4-20.5s51.4 9.2 51.4 20.5"/><path class="st87" d="M115.6 64.2c0 11.3-22.9 20.4-51 20.4-28.2 0-51-9.1-51-20.4 0-11.3 22.9-20.4 51-20.4 28.2 0 51 9.2 51 20.4"/><path class="st87" d="M115.5 64.3c0 11.2-22.7 20.3-50.7 20.3-28 0-50.7-9.1-50.7-20.3S36.8 44 64.8 44c28 .1 50.7 9.1 50.7 20.3"/><path class="st88" d="M115.3 64.4c0 11.1-22.5 20.1-50.3 20.1-27.8 0-50.3-9-50.3-20.1 0-11.1 22.5-20.1 50.3-20.1 27.7 0 50.3 9 50.3 20.1"/><path class="st89" d="M115.1 64.5c0 11-22.4 20-50 20s-50-8.9-50-20c0-11 22.4-20 50-20s50 9 50 20"/><path class="st90" d="M114.9 64.6c0 11-22.2 19.8-49.6 19.8-27.4 0-49.6-8.9-49.6-19.8 0-11 22.2-19.8 49.6-19.8 27.4 0 49.6 8.8 49.6 19.8"/><path class="st91" d="M114.7 64.7c0 10.9-22.1 19.7-49.3 19.7-27.2 0-49.3-8.8-49.3-19.7C16.2 53.8 38.2 45 65.5 45c27.2 0 49.2 8.8 49.2 19.7"/><path class="st92" d="M114.6 64.8c0 10.8-21.9 19.6-48.9 19.6s-48.9-8.8-48.9-19.6 21.9-19.6 48.9-19.6 48.9 8.8 48.9 19.6"/><path class="st93" d="M114.4 64.9c0 10.7-21.8 19.4-48.6 19.4s-48.6-8.7-48.6-19.4S39 45.5 65.8 45.5s48.6 8.7 48.6 19.4"/><path class="st94" d="M114.2 65c0 10.6-21.6 19.3-48.2 19.3S17.8 75.7 17.8 65c0-10.6 21.6-19.3 48.2-19.3s48.2 8.6 48.2 19.3"/><path class="st95" d="M114 65.1c0 10.6-21.4 19.1-47.9 19.1-26.4 0-47.9-8.6-47.9-19.1C18.2 54.5 39.6 46 66.1 46c26.5-.1 47.9 8.5 47.9 19.1"/><path class="st96" d="M113.9 65.2c0 10.5-21.3 19-47.5 19s-47.5-8.5-47.5-19 21.3-19 47.5-19 47.5 8.5 47.5 19"/><path class="st96" d="M113.7 65.2c0 10.4-21.1 18.9-47.2 18.9s-47.2-8.4-47.2-18.9c0-10.4 21.1-18.9 47.2-18.9 26.1.1 47.2 8.5 47.2 18.9"/><path class="st96" d="M113.5 65.3c0 10.3-21 18.7-46.8 18.7-25.9 0-46.8-8.4-46.8-18.7 0-10.3 21-18.7 46.8-18.7 25.9 0 46.8 8.4 46.8 18.7"/><path class="st97" d="M113.3 65.4c0 10.3-20.8 18.6-46.5 18.6s-46.5-8.3-46.5-18.6 20.8-18.6 46.5-18.6c25.7.1 46.5 8.4 46.5 18.6"/><path class="st98" d="M113.2 65.5C113.2 75.7 92.5 84 67 84c-25.5 0-46.1-8.3-46.1-18.4S41.6 47.1 67 47.1c25.5 0 46.2 8.2 46.2 18.4"/><path class="st99" d="M113 65.6c0 10.1-20.5 18.3-45.8 18.3-25.3 0-45.8-8.2-45.8-18.3 0-10.1 20.5-18.3 45.8-18.3 25.3 0 45.8 8.2 45.8 18.3"/><path class="st100" d="M112.8 65.7c0 10-20.3 18.2-45.4 18.2-25.1 0-45.4-8.2-45.4-18.2s20.3-18.2 45.4-18.2c25.1.1 45.4 8.2 45.4 18.2"/><path class="st101" d="M112.6 65.8c0 9.9-20.2 18-45.1 18-24.9 0-45.1-8.1-45.1-18s20.2-18 45.1-18c25 0 45.1 8 45.1 18"/><path class="st102" d="M112.5 65.9c0 9.9-20 17.9-44.7 17.9-24.8 0-44.8-8-44.8-17.9S43 48 67.7 48c24.7 0 44.8 8 44.8 17.9"/><path class="st103" d="M112.3 66c0 9.8-19.9 17.7-44.4 17.7S23.5 75.8 23.5 66c0-9.8 19.9-17.7 44.4-17.7 24.5-.1 44.4 7.9 44.4 17.7"/><path class="st104" d="M112.1 66.1c0 9.7-19.7 17.6-44 17.6s-44-7.9-44-17.6c0-9.7 19.7-17.6 44-17.6s44 7.9 44 17.6"/><path class="st104" d="M111.9 66.2c0 9.6-19.6 17.5-43.7 17.5s-43.7-7.8-43.7-17.5c0-9.6 19.5-17.5 43.7-17.5 24.2 0 43.7 7.8 43.7 17.5"/><path class="st105" d="M111.8 66.3c0 9.6-19.4 17.3-43.3 17.3s-43.3-7.8-43.3-17.3c0-9.6 19.4-17.3 43.3-17.3 23.9-.1 43.3 7.7 43.3 17.3"/><path class="st106" d="M111.6 66.3c0 9.5-19.2 17.2-43 17.2-23.7 0-43-7.7-43-17.2s19.2-17.2 43-17.2c23.8.1 43 7.8 43 17.2"/><path class="st107" d="M111.4 66.4c0 9.4-19.1 17-42.6 17s-42.6-7.6-42.6-17 19.1-17 42.6-17 42.6 7.6 42.6 17"/><path class="st108" d="M111.2 66.5c0 9.3-18.9 16.9-42.3 16.9-23.3 0-42.3-7.6-42.3-16.9s19-16.9 42.4-16.9c23.3 0 42.2 7.6 42.2 16.9"/><path class="st109" d="M111.1 66.6c0 9.3-18.8 16.8-41.9 16.8-23.1 0-41.9-7.5-41.9-16.8 0-9.2 18.8-16.7 41.9-16.7 23.1 0 41.9 7.5 41.9 16.7"/><path class="st110" d="M110.9 66.7c0 9.2-18.6 16.6-41.6 16.6s-41.6-7.4-41.6-16.6c0-9.2 18.6-16.6 41.6-16.6s41.6 7.4 41.6 16.6"/><path class="st111" d="M110.7 66.8c0 9.1-18.5 16.5-41.2 16.5-22.8 0-41.2-7.4-41.2-16.5s18.5-16.5 41.2-16.5c22.8 0 41.2 7.4 41.2 16.5"/><path class="st112" d="M110.5 66.9c0 9-18.3 16.3-40.9 16.3-22.6 0-40.9-7.3-40.9-16.3S47 50.6 69.6 50.6c22.6 0 40.9 7.3 40.9 16.3"/><path class="st113" d="M110.4 67c0 8.9-18.1 16.2-40.5 16.2S29.4 76 29.4 67c0-8.9 18.1-16.2 40.5-16.2 22.3 0 40.5 7.2 40.5 16.2"/><path class="st113" d="M110.2 67.1c0 8.9-18 16.1-40.2 16.1-22.2 0-40.2-7.2-40.2-16.1 0-8.9 18-16 40.2-16 22.2-.1 40.2 7.1 40.2 16"/><path class="st113" d="M110 67.2c0 8.8-17.8 15.9-39.8 15.9-22 0-39.8-7.1-39.8-15.9s17.8-15.9 39.8-15.9c22 0 39.8 7.1 39.8 15.9"/><path class="st114" d="M109.8 67.3C109.8 76 92.2 83 70.4 83c-21.8 0-39.5-7-39.5-15.7s17.7-15.8 39.5-15.8 39.4 7.1 39.4 15.8"/><path class="st115" d="M109.7 67.4C109.7 76 92.1 83 70.6 83 49 83 31.5 76 31.5 67.4S49 51.8 70.6 51.8c21.5-.1 39.1 6.9 39.1 15.6"/><path class="st116" d="M109.5 67.4c0 8.6-17.4 15.5-38.8 15.5S32 76 32 67.4C32 58.9 49.3 52 70.7 52c21.4 0 38.8 6.9 38.8 15.4"/><path class="st117" d="M109.3 67.5c0 8.5-17.2 15.3-38.4 15.3s-38.4-6.9-38.4-15.3 17.2-15.3 38.4-15.3 38.4 6.9 38.4 15.3"/><path class="st118" d="M109.1 67.6c0 8.4-17 15.2-38 15.2s-38-6.8-38-15.2c0-8.4 17-15.2 38-15.2s38 6.8 38 15.2"/><path class="st119" d="M109 67.7c0 8.3-16.9 15.1-37.7 15.1-20.8 0-37.7-6.7-37.7-15.1 0-8.3 16.9-15.1 37.7-15.1 20.8.1 37.7 6.8 37.7 15.1"/><path class="st120" d="M108.8 67.8c0 8.2-16.7 14.9-37.3 14.9-20.6 0-37.3-6.7-37.3-14.9s16.7-14.9 37.3-14.9c20.6 0 37.3 6.7 37.3 14.9"/><path class="st121" d="M108.6 67.9c0 8.2-16.6 14.8-37 14.8s-37-6.6-37-14.8c0-8.2 16.6-14.8 37-14.8s37 6.6 37 14.8"/><path class="st122" d="M108.4 68c0 8.1-16.4 14.6-36.6 14.6-20.2 0-36.6-6.6-36.6-14.6 0-8.1 16.4-14.6 36.6-14.6 20.2 0 36.6 6.5 36.6 14.6"/><path class="st122" d="M108.2 68.1c0 8-16.3 14.5-36.3 14.5-20 0-36.3-6.5-36.3-14.5s16.3-14.5 36.3-14.5c20.1 0 36.3 6.5 36.3 14.5"/><path class="st123" d="M108.1 68.2c0 7.9-16.1 14.4-35.9 14.4-19.8 0-35.9-6.4-35.9-14.4 0-7.9 16.1-14.4 35.9-14.4 19.8 0 35.9 6.4 35.9 14.4"/><path class="st124" d="M107.9 68.3c0 7.9-15.9 14.2-35.6 14.2-19.7 0-35.6-6.4-35.6-14.2 0-7.9 15.9-14.2 35.6-14.2 19.7-.1 35.6 6.3 35.6 14.2"/><path class="st125" d="M107.7 68.4c0 7.8-15.8 14.1-35.2 14.1-19.5 0-35.2-6.3-35.2-14.1s15.8-14.1 35.2-14.1c19.4 0 35.2 6.3 35.2 14.1"/><path class="st126" d="M107.5 68.5c0 7.7-15.6 13.9-34.9 13.9-19.3 0-34.9-6.2-34.9-13.9s15.6-13.9 34.9-13.9c19.3-.1 34.9 6.2 34.9 13.9"/><path class="st127" d="M107.4 68.5c0 7.6-15.5 13.8-34.5 13.8-19.1 0-34.5-6.2-34.5-13.8 0-7.6 15.5-13.8 34.5-13.8s34.5 6.2 34.5 13.8"/><path class="st128" d="M107.2 68.6c0 7.5-15.3 13.7-34.2 13.7-18.9 0-34.2-6.1-34.2-13.7C38.8 61.1 54.1 55 73 55c18.9 0 34.2 6.1 34.2 13.6"/><path class="st129" d="M107 68.7c0 7.5-15.1 13.5-33.8 13.5-18.7 0-33.8-6.1-33.8-13.5 0-7.5 15.2-13.5 33.8-13.5 18.7 0 33.8 6.1 33.8 13.5"/><path class="st130" d="M106.8 68.8c0 7.4-15 13.4-33.5 13.4s-33.5-6-33.5-13.4 15-13.4 33.5-13.4c18.6 0 33.5 6 33.5 13.4"/><path class="st131" d="M106.7 68.9c0 7.3-14.8 13.2-33.1 13.2s-33.1-5.9-33.1-13.2c0-7.3 14.8-13.2 33.1-13.2 18.2 0 33.1 5.9 33.1 13.2"/><path class="st132" d="M106.5 69c0 7.2-14.7 13.1-32.8 13.1-18.1 0-32.8-5.9-32.8-13.1 0-7.2 14.7-13.1 32.8-13.1 18.1 0 32.8 5.9 32.8 13.1"/><path class="st132" d="M106.3 69.1c0 7.2-14.5 13-32.4 13s-32.4-5.8-32.4-13 14.5-13 32.4-13 32.4 5.8 32.4 13"/><path class="st133" d="M106.1 69.2C106.1 76.3 91.7 82 74 82c-17.6 0-32-5.7-32-12.8 0-7.1 14.4-12.8 32.1-12.8 17.7 0 32 5.7 32 12.8"/><path class="st134" d="M106 69.3c0 7-14.2 12.7-31.7 12.7s-31.7-5.7-31.7-12.7c0-7 14.2-12.7 31.7-12.7S106 62.3 106 69.3"/><path class="st135" d="M105.8 69.4c0 6.9-14 12.5-31.4 12.5-17.3 0-31.4-5.6-31.4-12.5s14-12.5 31.4-12.5c17.3-.1 31.4 5.5 31.4 12.5"/><path class="st135" d="M105.6 69.5c0 6.8-13.9 12.4-31 12.4s-31-5.6-31-12.4c0-6.8 13.9-12.4 31-12.4s31 5.5 31 12.4"/><path class="st136" d="M105.4 69.6c0 6.8-13.7 12.3-30.7 12.3-16.9 0-30.7-5.5-30.7-12.3 0-6.8 13.7-12.3 30.7-12.3s30.7 5.5 30.7 12.3"/><path class="st137" d="M105.3 69.6c0 6.7-13.6 12.1-30.3 12.1-16.7 0-30.3-5.4-30.3-12.1 0-6.7 13.6-12.1 30.3-12.1 16.7 0 30.3 5.5 30.3 12.1"/><path class="st138" d="M105.1 69.7c0 6.6-13.4 12-30 12-16.5 0-30-5.4-30-12s13.4-12 30-12c16.6.1 30 5.4 30 12"/><path class="st139" d="M104.9 69.8c0 6.5-13.3 11.8-29.6 11.8-16.4 0-29.6-5.3-29.6-11.8C45.7 63.3 59 58 75.3 58s29.6 5.3 29.6 11.8"/><path class="st140" d="M104.7 69.9c0 6.5-13.1 11.7-29.3 11.7-16.2 0-29.3-5.2-29.3-11.7 0-6.5 13.1-11.7 29.3-11.7 16.2 0 29.3 5.3 29.3 11.7"/><path class="st141" d="M104.6 70c0 6.4-12.9 11.6-28.9 11.6-16 0-28.9-5.2-28.9-11.6 0-6.4 13-11.6 28.9-11.6 15.9.1 28.9 5.2 28.9 11.6"/><path class="st142" d="M104.4 70.1c0 6.3-12.8 11.4-28.6 11.4s-28.6-5.1-28.6-11.4c0-6.3 12.8-11.4 28.6-11.4s28.6 5.1 28.6 11.4"/><path class="st143" d="M104.2 70.2c0 6.2-12.6 11.3-28.2 11.3s-28.2-5-28.2-11.3c0-6.2 12.6-11.3 28.2-11.3s28.2 5.1 28.2 11.3"/><path class="st144" d="M104 70.3c0 6.2-12.5 11.1-27.9 11.1-15.4 0-27.9-5-27.9-11.1 0-6.2 12.5-11.1 27.9-11.1 15.5 0 27.9 4.9 27.9 11.1"/><path class="st145" d="M103.9 70.4c0 6.1-12.3 11-27.5 11s-27.5-4.9-27.5-11 12.3-11 27.5-11c15.1 0 27.5 4.9 27.5 11"/><path class="st146" d="M103.7 70.5c0 6-12.2 10.9-27.2 10.9s-27.2-4.9-27.2-10.9 12.2-10.9 27.2-10.9 27.2 4.9 27.2 10.9"/><path class="st147" d="M103.5 70.6c0 5.9-12 10.7-26.8 10.7s-26.8-4.8-26.8-10.7c0-5.9 12-10.7 26.8-10.7 14.8-.1 26.8 4.7 26.8 10.7"/><path class="st148" d="M103.3 70.7c0 5.8-11.8 10.6-26.5 10.6-14.6 0-26.5-4.7-26.5-10.6 0-5.8 11.8-10.6 26.5-10.6s26.5 4.7 26.5 10.6"/><path class="st149" d="M103.2 70.7c0 5.8-11.7 10.4-26.1 10.4-14.4 0-26.1-4.7-26.1-10.4 0-5.8 11.7-10.4 26.1-10.4 14.4 0 26.1 4.7 26.1 10.4"/><path class="st150" d="M103 70.8c0 5.7-11.5 10.3-25.8 10.3-14.2 0-25.8-4.6-25.8-10.3 0-5.7 11.5-10.3 25.8-10.3 14.2 0 25.8 4.6 25.8 10.3"/><path class="st151" d="M102.8 70.9c0 5.6-11.4 10.2-25.4 10.2-14 0-25.4-4.5-25.4-10.2 0-5.6 11.4-10.2 25.4-10.2 14 .1 25.4 4.6 25.4 10.2"/><path class="st152" d="M102.6 71c0 5.5-11.2 10-25.1 10s-25.1-4.5-25.1-10 11.2-10 25.1-10 25.1 4.5 25.1 10"/><path class="st153" d="M102.5 71.1c0 5.5-11.1 9.9-24.7 9.9C64.1 81 53 76.6 53 71.1s11.1-9.9 24.7-9.9c13.7 0 24.8 4.5 24.8 9.9"/><path class="st154" d="M102.3 71.2c0 5.4-10.9 9.7-24.4 9.7-13.4 0-24.4-4.4-24.4-9.7s10.9-9.7 24.4-9.7c13.5 0 24.4 4.3 24.4 9.7"/><path class="st155" d="M102.1 71.3c0 5.3-10.7 9.6-24 9.6-13.2 0-24-4.3-24-9.6s10.8-9.6 24-9.6c13.3 0 24 4.3 24 9.6"/><path class="st156" d="M101.9 71.4c0 5.2-10.6 9.5-23.7 9.5s-23.6-4.2-23.6-9.5c0-5.2 10.6-9.4 23.6-9.4 13.1-.1 23.7 4.2 23.7 9.4"/><path class="st157" d="M101.8 71.5c0 5.1-10.4 9.3-23.3 9.3s-23.3-4.2-23.3-9.3c0-5.1 10.4-9.3 23.3-9.3 12.8 0 23.3 4.1 23.3 9.3"/><path class="st158" d="M101.6 71.6c0 5.1-10.3 9.2-22.9 9.2-12.7 0-22.9-4.1-22.9-9.2s10.3-9.2 22.9-9.2c12.6 0 22.9 4.1 22.9 9.2"/><path class="st159" d="M101.4 71.7c0 5-10.1 9-22.6 9-12.5 0-22.6-4-22.6-9s10.1-9 22.6-9c12.5-.1 22.6 4 22.6 9"/><path class="st160" d="M101.2 71.8c0 4.9-10 8.9-22.2 8.9-12.3 0-22.2-4-22.2-8.9s10-8.9 22.2-8.9c12.3 0 22.2 3.9 22.2 8.9"/><path class="st160" d="M101 71.8c0 4.8-9.8 8.8-21.9 8.8-12.1 0-21.9-3.9-21.9-8.8 0-4.8 9.8-8.7 21.9-8.7 12.1 0 21.9 3.9 21.9 8.7"/><path class="st161" d="M100.9 71.9c0 4.8-9.6 8.6-21.5 8.6s-21.5-3.9-21.5-8.6c0-4.8 9.7-8.6 21.5-8.6s21.5 3.9 21.5 8.6"/><path class="st162" d="M100.7 72c0 4.7-9.5 8.5-21.2 8.5S58.3 76.7 58.3 72s9.5-8.5 21.2-8.5c11.7.1 21.2 3.8 21.2 8.5"/><path class="st163" d="M100.5 72.1c0 4.6-9.3 8.3-20.8 8.3s-20.8-3.7-20.8-8.3c0-4.6 9.3-8.3 20.8-8.3s20.8 3.7 20.8 8.3"/><path class="st164" d="M100.3 72.2c0 4.5-9.2 8.2-20.5 8.2s-20.5-3.7-20.5-8.2c0-4.5 9.2-8.2 20.5-8.2 11.4 0 20.5 3.7 20.5 8.2"/><path class="st165" d="M100.2 72.3c0 4.4-9 8.1-20.1 8.1C69 80.4 60 76.8 60 72.3c0-4.4 9-8 20.1-8 11.1 0 20.1 3.6 20.1 8"/><path class="st166" d="M100 72.4c0 4.4-8.9 7.9-19.8 7.9s-19.8-3.5-19.8-7.9 8.9-7.9 19.8-7.9S100 68 100 72.4"/><path class="st167" d="M99.8 72.5c0 4.3-8.7 7.8-19.4 7.8S61 76.8 61 72.5s8.7-7.8 19.4-7.8 19.4 3.5 19.4 7.8"/><path class="st168" d="M99.6 72.6c0 4.2-8.5 7.6-19.1 7.6-10.5 0-19.1-3.4-19.1-7.6 0-4.2 8.5-7.6 19.1-7.6 10.6 0 19.1 3.4 19.1 7.6"/><path class="st169" d="M99.5 72.7c0 4.1-8.4 7.5-18.7 7.5-10.3 0-18.7-3.4-18.7-7.5s8.4-7.5 18.7-7.5c10.3 0 18.7 3.3 18.7 7.5"/><path class="st170" d="M99.3 72.8c0 4.1-8.2 7.4-18.4 7.4-10.1 0-18.4-3.3-18.4-7.4 0-4.1 8.2-7.3 18.4-7.3 10.2-.1 18.4 3.2 18.4 7.3"/><path class="st171" d="M99.1 72.8c0 4-8.1 7.2-18 7.2s-18-3.2-18-7.2 8.1-7.2 18-7.2 18 3.3 18 7.2"/><path class="st172" d="M98.9 72.9c0 3.9-7.9 7.1-17.7 7.1-9.8 0-17.7-3.2-17.7-7.1 0-3.9 7.9-7.1 17.7-7.1 9.8.1 17.7 3.2 17.7 7.1"/><path class="st173" d="M98.8 73c0 3.8-7.8 6.9-17.3 6.9-9.6 0-17.3-3.1-17.3-6.9 0-3.8 7.8-6.9 17.3-6.9s17.3 3.1 17.3 6.9"/><path class="st174" d="M98.6 73.1c0 3.8-7.6 6.8-17 6.8s-17-3-17-6.8c0-3.7 7.6-6.8 17-6.8s17 3.1 17 6.8"/><path class="st175" d="M98.4 73.2c0 3.7-7.4 6.6-16.6 6.6-9.2 0-16.6-3-16.6-6.6 0-3.7 7.4-6.6 16.6-6.6 9.2 0 16.6 2.9 16.6 6.6"/><path class="st176" d="M98.2 73.3c0 3.6-7.3 6.5-16.3 6.5s-16.3-2.9-16.3-6.5 7.3-6.5 16.3-6.5 16.3 2.9 16.3 6.5"/><path class="st176" d="M98.1 73.4c0 3.5-7.1 6.4-15.9 6.4S66.3 77 66.3 73.4c0-3.5 7.1-6.4 15.9-6.4 8.7 0 15.9 2.9 15.9 6.4"/><path class="st177" d="M97.9 73.5c0 3.4-7 6.2-15.6 6.2s-15.6-2.8-15.6-6.2c0-3.4 7-6.2 15.6-6.2s15.6 2.8 15.6 6.2"/><path class="st178" d="M97.7 73.6c0 3.4-6.8 6.1-15.2 6.1-8.4 0-15.2-2.7-15.2-6.1 0-3.4 6.8-6.1 15.2-6.1 8.4 0 15.2 2.7 15.2 6.1"/><path class="st179" d="M97.5 73.7c0 3.3-6.7 5.9-14.9 5.9s-14.9-2.7-14.9-5.9c0-3.3 6.7-5.9 14.9-5.9 8.3-.1 14.9 2.6 14.9 5.9"/><path class="st180" d="M97.4 73.8c0 3.2-6.5 5.8-14.5 5.8S68.4 77 68.4 73.8c0-3.2 6.5-5.8 14.5-5.8s14.5 2.6 14.5 5.8"/><path class="st181" d="M97.2 73.9c0 3.1-6.3 5.7-14.2 5.7-7.8 0-14.2-2.5-14.2-5.7 0-3.1 6.4-5.7 14.2-5.7 7.8 0 14.2 2.5 14.2 5.7"/><path class="st182" d="M97 73.9c0 3.1-6.2 5.5-13.8 5.5-7.6 0-13.8-2.5-13.8-5.5s6.2-5.5 13.8-5.5c7.6 0 13.8 2.5 13.8 5.5"/><path class="st183" d="M96.8 74c0 3-6 5.4-13.5 5.4-7.4 0-13.5-2.4-13.5-5.4 0-3 6-5.4 13.5-5.4 7.5.1 13.5 2.5 13.5 5.4"/><path class="st183" d="M96.7 74.1c0 2.9-5.9 5.2-13.1 5.2-7.2 0-13.1-2.3-13.1-5.2 0-2.9 5.9-5.2 13.1-5.2 7.2 0 13.1 2.3 13.1 5.2"/><path class="st184" d="M96.5 74.2c0 2.8-5.7 5.1-12.8 5.1-7 0-12.8-2.3-12.8-5.1s5.7-5.1 12.8-5.1c7.1 0 12.8 2.3 12.8 5.1"/><path class="st184" d="M96.3 74.3c0 2.7-5.6 5-12.4 5-6.8 0-12.4-2.2-12.4-5 0-2.7 5.6-5 12.4-5 6.8.1 12.4 2.3 12.4 5"/><path class="st185" d="M96.1 74.4c0 2.7-5.4 4.8-12.1 4.8-6.7 0-12.1-2.2-12.1-4.8 0-2.7 5.4-4.8 12.1-4.8 6.7 0 12.1 2.1 12.1 4.8"/><path class="st186" d="M96 74.5c0 2.6-5.2 4.7-11.7 4.7-6.5 0-11.7-2.1-11.7-4.7s5.3-4.7 11.7-4.7c6.4 0 11.7 2.1 11.7 4.7"/><path class="st187" d="M95.8 74.6c0 2.5-5.1 4.5-11.4 4.5-6.3 0-11.4-2-11.4-4.5s5.1-4.5 11.4-4.5c6.3 0 11.4 2 11.4 4.5"/><path class="st188" d="M95.6 74.7c0 2.4-4.9 4.4-11 4.4s-11-2-11-4.4c0-2.4 4.9-4.4 11-4.4s11 2 11 4.4"/><path class="st189" d="M95.4 74.8c0 2.4-4.8 4.3-10.7 4.3-5.9 0-10.7-1.9-10.7-4.3 0-2.3 4.8-4.3 10.7-4.3 6 0 10.7 1.9 10.7 4.3"/><path class="st190" d="M95.3 74.9c0 2.3-4.6 4.1-10.3 4.1-5.7 0-10.3-1.8-10.3-4.1s4.6-4.1 10.3-4.1c5.6-.1 10.3 1.8 10.3 4.1"/><path class="st191" d="M95.1 75c0 2.2-4.5 4-10 4s-10-1.8-10-4 4.5-4 10-4 10 1.8 10 4"/><path class="st192" d="M94.9 75c0 2.1-4.3 3.8-9.6 3.8s-9.6-1.7-9.6-3.8c0-2.1 4.3-3.8 9.6-3.8s9.6 1.7 9.6 3.8"/><defs><filter id="Adobe_OpacityMaskFilter" filterUnits="userSpaceOnUse" x="13.3" y="40.9" width="100.9" height="36"><feColorMatrix values="1 0 0 0 0 0 1 0 0 0 0 0 1 0 0 0 0 0 1 0"/></filter></defs><mask maskUnits="userSpaceOnUse" x="13.3" y="40.9" width="100.9" height="36" id="SVGID_1_"><g class="st193"><path d="M13.3 40.9h100.9v36H13.3z"/><g class="st194"><defs><path id="SVGID_2_" d="M114.2 58.9c0 9.9-22.6 18-50.4 18-27.8 0-50.4-8.1-50.4-18s22.6-18 50.4-18c27.8 0 50.4 8.1 50.4 18"/></defs><clipPath id="SVGID_3_"><use xlink:href="#SVGID_2_" overflow="visible"/></clipPath><linearGradient id="SVGID_4_" gradientUnits="userSpaceOnUse" x1="-189.413" y1="176.981" x2="-189.135" y2="176.981" gradientTransform="rotate(90 -16920.202 627.793) scale(92.4177)"><stop offset="0" stop-color="#FFF"/><stop offset="1" stop-color="#231f20"/></linearGradient><path class="st195" d="M13.3 40.9h100.9v36H13.3z"/></g></g></mask><g class="st196"><defs><path id="SVGID_5_" d="M13.3 40.9h100.9v36H13.3z"/></defs><clipPath id="SVGID_6_"><use xlink:href="#SVGID_5_" overflow="visible"/></clipPath><g class="st197"><defs><path id="SVGID_7_" d="M114.2 58.9c0 9.9-22.6 18-50.4 18-27.8 0-50.4-8.1-50.4-18s22.6-18 50.4-18c27.8 0 50.4 8.1 50.4 18"/></defs><clipPath id="SVGID_8_"><use xlink:href="#SVGID_7_" overflow="visible"/></clipPath><linearGradient id="SVGID_9_" gradientUnits="userSpaceOnUse" x1="-189.445" y1="176.988" x2="-189.166" y2="176.988" gradientTransform="rotate(90 -17553.767 650.633) scale(95.8646)"><stop offset="0" stop-color="#FFF"/><stop offset="1" stop-color="#babcbe"/></linearGradient><path class="st198" d="M13.3 40.9h100.9v36H13.3z"/></g></g><path class="st199" d="M13.7 69.9c-2.5 0-3.7-1-3.7-2.4v-1.1c.8.7 1.9 1.3 3.4 1.3 1.8 0 2.4-.6 2.4-1.6 0-.8-.3-1.2-2.9-1.8-2.1-.4-3.3-1.5-3.3-3.2 0-2 1.7-4 4.6-4 2.9 0 3.7 1.2 3.7 2.2v1.1h-.1c-.8-.8-1.8-1.2-3.2-1.2-1.9 0-2.6.6-2.6 1.6 0 .7.6 1.2 2.9 1.7 2.2.5 3.3 1.6 3.3 3.3.1 2.5-1.5 4.1-4.5 4.1m8.9-.2c-2 0-3.1-1.1-3.1-3v-10h.7c1.2 0 1.7.7 1.7 1.6v8.1c0 1 .5 1.3 1.6 1.3h.6v.5c.1 1.1-.5 1.5-1.5 1.5m6.1.2c-2.4 0-4.3-1.6-4.3-4.4V60h.4c1.4 0 2 .6 2 1.7v3.5c0 1.8.9 2.5 2 2.5 1 0 1.7-.7 1.7-2.3V60h.4c1.4 0 2 .6 2 1.7v3.6c0 3-1.4 4.6-4.2 4.6m19.1-.3c-1.3 0-1.8-.6-1.8-1.8v-3.7c0-1.6-.7-2.3-1.8-2.3-1 0-1.6.7-1.6 2v5.7H42c-1.1 0-1.8-.6-1.8-1.8V64c0-1.6-.7-2.3-1.8-2.3-.9 0-1.6.7-1.6 2.1v5.7h-.6c-1 0-1.7-.6-1.7-1.8V64c0-2.6 1.4-4.4 4.3-4.4 1.3 0 2.2.6 2.9 1.5.6-.9 1.6-1.5 2.8-1.5 2.2 0 4 1.3 4 4.1v5.8h-.7zm6.5.3c-2.5 0-4.5-2-4.5-4.9l-.1-8 .9-.3c.9 0 1.6.5 1.6 1.7v2.8c.5-.7 1.3-1.5 2.6-1.5 2.5 0 4.3 2 4.3 4.9 0 2.9-1.8 5.3-4.8 5.3m0-8c-1.2 0-2.1 1.2-2.1 2.7 0 2.2 1 3.1 2.4 3.1 1.2 0 2.1-1.1 2.1-2.7-.1-2.3-.9-3.1-2.4-3.1m9.6 3.9h-1.6c.2 1.2 1.3 2 2.7 2 1 0 2.2-.2 3-.9v.7c0 1.2-.8 2.2-3.5 2.2-2.4 0-4.7-1.9-4.7-4.9 0-3.2 2-5.2 4.7-5.2 2 0 3.9 1.4 3.9 3.7 0 1.9-1.4 2.4-4.5 2.4m.4-4c-1.2 0-2 .9-2 2.1v.3h1.1c2.3 0 2.8-.3 2.8-.9-.1-1.1-.8-1.5-1.9-1.5m10.6.5c-.4-.1-.8-.3-1.4-.3-1.1 0-1.7.6-1.7 2.1v5.6h-.7c-1.1 0-1.8-.5-1.8-1.5v-4.4c0-1.9 1-3.8 3.6-3.8 1.5 0 2 .8 2 1.6v.7zm4.8 7.6c-2.5 0-4.5-2.2-4.5-4.9 0-3.2 1.5-5.2 4.3-5.2 1 0 2 .7 2.4 1.5v-4.5h.7c1.1 0 1.7.3 1.6 1.6v6.8c.1 2.8-1.2 4.7-4.5 4.7m-.2-8.1c-1.2 0-2 1.2-2 2.7 0 2 1 3.3 2.4 3.3 1.3 0 1.9-1 1.9-2.8.1-2.3-1-3.2-2.3-3.2m10.6-2c2.9 0 4.6 2.3 4.6 4.9 0 2.9-1.7 5.2-4.8 5.2-2.9 0-4.6-2.3-4.6-4.9 0-2.9 1.7-5.2 4.8-5.2m-.2 2.1c-1.4 0-2.1 1.1-2.1 2.7 0 1.9.7 3.1 2.3 3.1 1.4 0 2.1-1.1 2.1-2.7 0-1.9-.7-3.1-2.3-3.1m17.7 3.1c-.7 2-1.6 3.8-2.2 4.7h-.4c-.8 0-1.3-.7-1.6-1.3-.6-1.1-1.3-2.9-1.6-4.3-.3 1.5-1.4 4.5-2.3 5.6h-.3c-.7 0-1.4-.7-1.7-1.3-1.5-2.4-2.4-5.2-2.8-8.4H96c.8 0 1.3.6 1.4 1.2.3 1.6.7 3.5 1.5 5.2.9-1.9 1.4-4 1.8-6h.8c.7 0 1.5.3 1.7 1.4.3 1.3.9 3.3 1.6 4.7.9-2 1.4-4.3 1.8-6.4h1c.7 0 1.2.3 1.2 1-.1.2-.5 1.9-1.2 3.9m9.5 4.6c-1.1 0-1.8-.7-1.8-1.6v-3.8c0-1.6-.7-2.3-2-2.3-1 0-1.8.8-1.8 2.2v5.6h-.7c-1 0-1.7-.7-1.7-1.6v-4.2c0-2 1.3-4.1 4.4-4.1 2.3 0 4.2 1.5 4.2 4.3v5.6h-.6z"/></svg>