<svg id="Layer_1" xmlns="http://www.w3.org/2000/svg" viewBox="0 0 128 128"><style>.st0{fill:#000600}</style><path class="st0" d="M0 75.9V55.6h19.9v3.5H5.4v4.5h12.8V67H5.4v8.9zM42 75.9h-5.9l-2.3-4.6H23.2L21 75.9h-5.7l10.4-20.3h5.7L42 75.9zm-9.9-8l-3.7-7.5-3.6 7.5h7.3zM42.8 75.9V55.6h13c2.9 0 4.9.2 6.2.5 1.3.4 2.3 1 3.1 1.9.8.9 1.2 2 1.2 3.2 0 1.5-.6 2.8-1.8 3.8-1.2 1-2.9 1.6-5.3 1.9 1.2.5 2.1 1.1 2.9 1.7.8.6 1.8 1.7 3.1 3.3l3.3 4H62l-3.9-4.4c-1.4-1.6-2.3-2.6-2.8-3-.5-.4-1.1-.7-1.6-.8-.6-.2-3.1-.2-4.3-.2h-1.1V76h-5.5zm5.4-11.7h5.6c2.6 0 4.2-.1 4.8-.3.6-.2 1.1-.5 1.5-.9.4-.4.5-.9.5-1.5 0-.7-.2-1.2-.7-1.7-.5-.4-1.2-.7-2-.8-.4 0-1.7-.1-3.9-.1h-5.8v5.3zM96.1 75.9h-5.9l-2.3-4.6H77.3L75 75.9h-5.7l10.4-20.3h5.7l10.7 20.3zm-9.9-8l-3.7-7.5-3.6 7.5h7.3zM96.9 75.9V55.6h5.4v8h12.2v-8h5.4v20.3h-5.4v-8.8h-12.2v8.8zM125.5 52.1c-1.4 0-2.5 1.1-2.5 2.5s1.1 2.5 2.5 2.5 2.5-1.1 2.5-2.5-1.1-2.5-2.5-2.5m0 4.5c-1.1 0-2.1-.9-2.1-2.1 0-1.1.9-2.1 2.1-2.1 1.1 0 2.1.9 2.1 2.1-.1 1.2-1 2.1-2.1 2.1"/><path class="st0" d="M124.1 55.6v-2.2h1.4c.3 0 .5 0 .7.1.1 0 .3.1.3.2.1.1.1.2.1.3 0 .2-.1.3-.2.4-.1.1-.3.2-.6.2.1.1.2.1.3.2.1.1.2.2.3.4l.4.4h-.7l-.4-.5-.3-.3c-.1 0-.1-.1-.2-.1h-.6v.9h-.5zm.6-1.2h1.1c.1 0 .1-.1.2-.1 0 0 .1-.1.1-.2s0-.1-.1-.2c-.1 0-.1-.1-.2-.1h-1v.6z"/></svg>