<svg id="Layer_1" xmlns="http://www.w3.org/2000/svg" viewBox="0 0 128 128"><style>.st0{fill:#231f20}</style><path class="st0" d="M0 59.1s.3.2 1.6.2h11s-.3 0-.7 1.9H2.7s-.9.2-2.7-2.1zM2.7 61.9s.5.2 1.5.2h7.5l-.4 1.9H5.4c0-.1-1 .1-2.7-2.1zM5.1 64.5s.5.2 1.4.2h4.6l-.4 1.9h-3s-1.2-.3-2.6-2.1zM13.6 68.8s-1.9-.9-1.8-2.6l1.1-5.1s.3-1.8 1.8-1.8h14.4s1.3 0 1.7-.2c0 0-1.6 2.1-2.8 2.1H15.8s-.7-.1-.8.5L13.7 68s-.1.7-.1.8z"/><path class="st0" d="M15.8 62H27s1.1-.1 1.2-.2c0 0-1.5 2.1-2.6 2.1h-7.9l-.7 3s-.1.6.3.6c0 0 1.9.1 2.4-.2 0 0-1.1 1.6-2 1.6h-2.2s-1.3-.1-1-1.3l1.3-5.6z"/><path class="st0" d="M18.4 64.7l-.4 1.9h5.4s.9 0 2.5-2.1c0 0-.7.3-1.8.2h-5.7z"/><g><path class="st0" d="M37.9 59.1h10.2c.9 0 1.5.5 1.8 1.5.1.2.1.4.1.6V63c0 .7-.3 1.3-.9 1.7-.3.2-.7.3-1 .3h-1.5l3.8 3.8h-3.7L40.9 63h6.4v-1.8h-6.6v7.6H38l-.1-9.7zM51.4 59.3h11.9v2h-9.2v5.4h9.2v2H51.4v-9.4zm3.5 3.8v2.1h7.6v-2h-7.6v-.1zM64.3 59.2h10.1c.9 0 1.5.5 1.8 1.4.1.2.1.4.1.6v5.7c0 .6-.3 1.2-.8 1.7-.4.2-.7.3-1.1.3H64.3v-9.7zm2.7 2.1v5.6h6.5v-5.6H67zM78 59.1h12.2v2.2h-4.7v7.6H82.7v-7.6H78v-2.2zM96.9 59.1c.1 0 .8 1.3 2.1 3.8l3.3 5.9H99l-.9-1.5-.1-.1h-5.4l1.2-2.1h3c-1.2-2.2-1.8-3.4-1.9-3.5L91 68.9h-3.3l5.4-9.7h3.8zM103.1 59.3h10.1c.9 0 1.5.5 1.8 1.5 0 .2.1.3.1.3v2.2l-.1.5c-.3.9-.9 1.3-1.8 1.3H108l-1.9-1.9h6.3v-1.8h-6.5v7.5h-2.7l-.1-9.6zM116.1 59.3H128v2h-9.2v5.4h9.2v2h-11.9v-9.4zm3.5 3.8v2.1h7.6v-2h-7.6v-.1z"/></g></svg>