<svg id="Layer_1" xmlns="http://www.w3.org/2000/svg" viewBox="0 0 128 128"><style>.st0{fill:#231f20}</style><path class="st0" d="M6.1 95.7v.6H1.6v3.3h3.3v.6H1.6v4.8H0v-9.3h6.1zM9.9 105.2c-.5 0-.9-.1-1.4-.3-.4-.2-.8-.4-1.1-.7-.3-.3-.6-.7-.8-1.1-.2-.4-.3-.9-.3-1.4 0-.6.1-1.1.3-1.6.2-.5.4-.9.7-1.3.4-.3.7-.6 1.2-.8.4-.2.9-.3 1.4-.3.5 0 .9.1 1.3.2.4.2.7.4 1 .7.3.3.5.6.7 1 .2.4.2.7.2 1.1H7.8c0 .5.1.9.2 1.3s.3.8.5 1.1c.2.3.5.5.8.7.3.2.7.3 1 .3.3 0 .6-.1.9-.2.3-.1.5-.2.8-.4.2-.2.4-.3.6-.6.2-.2.3-.4.3-.7l.4.2c-.1.4-.3.7-.5 1-.2.3-.5.6-.8.8-.3.2-.6.4-1 .6-.4.3-.7.4-1.1.4zm1.4-5c0-.3 0-.5-.1-.8-.1-.2-.2-.4-.4-.6-.2-.2-.4-.3-.6-.4-.2-.1-.5-.1-.7-.1-.2 0-.4 0-.6.1-.2.1-.4.2-.5.4-.2.2-.4.4-.5.6-.1.2-.2.5-.2.8h3.6zM14.6 97.9H16v1.3c.4-.5.9-.8 1.3-1.1.5-.2.9-.4 1.4-.4.2 0 .5.1.7.2.2.1.4.3.6.5.2.2.3.4.4.7.1.3.1.5.1.8v5.1h-1.4v-4.9c0-.5-.1-.8-.3-1.1-.2-.2-.5-.4-.8-.4-.2 0-.3 0-.5.1-.2 0-.3.1-.5.2s-.3.2-.5.3c-.2.1-.3.3-.5.4v5.3h-1.4v-7zM22.3 97.9h1.4v1.3c.4-.5.9-.8 1.3-1.1.5-.2.9-.4 1.4-.4.2 0 .5.1.7.2.2.1.4.3.6.5.2.2.3.4.4.7.1.3.1.5.1.8v5.1h-1.4v-4.9c0-.5-.1-.8-.3-1.1-.2-.2-.5-.4-.8-.4-.2 0-.3 0-.5.1-.2 0-.3.1-.5.2s-.3.2-.5.3c-.2.1-.3.3-.5.4v5.3h-1.4v-7zM33.8 95.7l2.8 7.1 2.4-6.4 2.5 6.4 2.7-7.1h.8l-3.6 9.4H41l-2.3-5.8-2.2 5.8H36l-3.7-9.4h1.5zM45.9 97.9h1.4v1.4c.1-.2.3-.4.4-.6l.5-.5c.2-.1.4-.2.5-.3.2-.1.4-.1.6-.1.2 0 .3 0 .4.1.1 0 .2.1.3.2.1.1.2.2.2.3.1.1.1.2.1.3 0 .2-.1.4-.2.5-.1.1-.3.2-.6.2h-.4c-.1 0-.2-.1-.3-.1-.1 0-.2-.1-.2-.1-.1 0-.2-.1-.3-.1-.1 0-.2 0-.3.1-.1.1-.2.1-.3.2-.1.1-.2.2-.3.4-.1.1-.2.3-.3.4v5h-1.4v-7.3zM52.1 94.2c.1 0 .2 0 .3.1.1 0 .2.1.3.2l.2.2c0 .1.1.2.1.3 0 .1 0 .2-.1.3 0 .1-.1.2-.2.2-.1.1-.2.1-.3.2s-.2.1-.3.1c-.1 0-.2 0-.3-.1-.1 0-.2-.1-.3-.2l-.2-.2c0-.1-.1-.2-.1-.3 0-.1 0-.2.1-.3 0-.1.1-.2.2-.2.1-.1.2-.1.3-.2.1-.1.2-.1.3-.1zm-.7 3.9l1-.4h.4v7.3h-1.4v-6.9zM61.7 98.2v.6h-1.4c.1.2.3.4.3.7.1.2.1.5.1.7 0 .4-.1.7-.2 1-.2.3-.4.6-.7.8-.3.2-.6.4-1.1.5-.4.1-.9.2-1.3.2h-.5c-.1 0-.4-.1-.5-.1-.1.1-.3.2-.3.4-.1.1-.1.3-.1.4 0 .1.1.3.2.3.2.1.4.1.7.1l2.7.1c.4 0 .8.1 1.1.2.3.1.5.2.7.3.2.1.3.3.4.5.1.2.1.4.1.6 0 .4-.1.8-.3 1.1-.2.3-.5.6-.8.9-.4.2-.8.4-1.3.6-.5.1-1.1.2-1.8.2-1.2 0-2.1-.1-2.7-.4-.6-.3-.9-.6-.9-1.1 0-.2 0-.4.1-.6.1-.2.2-.4.4-.5l.5-.5c.2-.2.4-.3.6-.4-.1 0-.3-.1-.4-.1-.1-.1-.2-.1-.3-.2-.1-.1-.1-.2-.2-.2-.1-.1-.1-.2-.1-.3 0-.1 0-.3.1-.5s.2-.3.3-.4c.1-.1.3-.3.5-.4l.6-.3c-.5-.2-.9-.5-1.1-.9-.3-.4-.4-.8-.4-1.3 0-.4.1-.7.2-1 .2-.3.4-.6.7-.8.3-.2.6-.4 1-.6.4-.1.8-.2 1.2-.2h.6c.2 0 .4.1.6.1.2 0 .3.1.5.2.1.1.2.1.3.2h1.9zm-5.8 6.8l-.3.3c-.1.1-.1.2-.2.3-.1.1-.1.2-.1.3v.3c0 .2.1.3.2.5.1.1.3.3.5.4.2.1.5.2.8.3.3.1.7.1 1.2.1s.9 0 1.3-.1.7-.2 1-.3c.3-.1.5-.3.6-.4.1-.2.2-.3.2-.5 0-.3-.2-.6-.5-.7-.3-.1-.8-.2-1.3-.2h-1c-.4 0-.7 0-1-.1-.3 0-.6 0-.8-.1-.3-.1-.5-.1-.6-.1zm1.8-2.7c.2 0 .4 0 .6-.1.2-.1.4-.2.5-.4.1-.2.3-.3.3-.6.1-.2.1-.4.1-.7 0-.4 0-.7-.1-1-.1-.3-.2-.6-.4-.8-.2-.2-.4-.4-.6-.5-.2-.1-.4-.2-.7-.2-.2 0-.4.1-.6.2-.2.1-.3.2-.4.4-.1.2-.2.4-.2.6-.1.2-.1.5-.1.8 0 .3 0 .6.1.9.1.3.2.5.3.7.1.2.3.4.5.5.2.2.5.2.7.2zM64.4 99.2c.4-.5.9-.8 1.3-1.1.5-.2.9-.4 1.4-.4.2 0 .5.1.7.2.2.1.4.3.6.5.2.2.3.4.4.7.1.3.1.5.1.8v5.1h-1.4v-4.9c0-.5-.1-.8-.3-1.1-.2-.2-.5-.4-.8-.4-.2 0-.3 0-.5.1-.2 0-.3.1-.5.2s-.3.2-.5.3c-.2.1-.3.3-.5.4v5.3H63V94.6l1-.4h.4v5zM74.5 104.1c-.2.3-.4.6-.8.8-.3.2-.7.3-1.2.3-.2 0-.4 0-.6-.1-.2-.1-.3-.2-.4-.3-.1-.1-.2-.3-.3-.5-.1-.2-.1-.4-.1-.7v-5h-1.2v-.4c.4 0 .7-.1 1-.2.3-.1.5-.3.6-.6.2-.2.3-.5.4-.9.1-.3.2-.7.2-1h.4v2.4h1.6v.6h-1.6v5c0 .1 0 .2.1.3 0 .1.1.2.2.2s.2.1.2.2c.1 0 .2.1.3.1.2 0 .3 0 .4-.1l.3-.3.5.2zM79.7 95.7h1.6l3.6 7.1h.1l3.5-7.1h1.6v9.3h-1.6v-7.6h-.1l-3.8 7.6h-.3l-3.9-7.6h-.1v7.6h-.7v-9.3zM97.4 105H96v-1c-.2.1-.3.3-.5.4-.2.1-.3.3-.5.4l-.6.3c-.2.1-.5.1-.8.1-.3 0-.5 0-.8-.1-.2-.1-.4-.2-.6-.4-.2-.2-.3-.3-.4-.6-.1-.2-.1-.5-.1-.7 0-.3.1-.6.2-.8.1-.2.3-.5.5-.7.2-.2.5-.4.7-.5.3-.2.6-.3.9-.4.3-.1.6-.2 1-.3.3-.1.7-.2 1-.3v-.4c0-.3 0-.6-.1-.8-.1-.2-.2-.4-.3-.5-.1-.1-.3-.2-.4-.3-.2-.1-.4-.1-.6-.1-.2 0-.4 0-.6.1-.2.1-.3.1-.4.2-.1.1-.1.2-.2.3v.8c0 .1-.1.2-.1.3-.1.1-.1.2-.2.2-.1.1-.2.1-.4.1-.1 0-.2 0-.3-.1-.1 0-.2-.1-.2-.2-.1-.1-.1-.2-.2-.3 0-.1-.1-.2-.1-.3 0-.2.1-.5.2-.7.2-.2.4-.4.6-.5.3-.1.6-.3.9-.4.4-.1.7-.1 1.1-.1.5 0 .9 0 1.2.1.3.1.6.2.8.4.2.2.3.4.4.6.1.2.1.5.1.8v5.4zm-1.5-4.2c-.2.1-.4.1-.6.2l-.6.3-.6.3c-.2.1-.4.3-.5.4-.1.1-.3.3-.3.4-.1.2-.1.3-.1.5s0 .3.1.5.1.3.3.4c.1.1.2.2.4.3.1.1.3.1.4.1.2 0 .3 0 .5-.1.1 0 .3-.1.4-.2.1-.1.3-.2.4-.2.1-.1.3-.2.4-.3v-2.6zM99.3 97.9h1.4v1.3c.4-.5.9-.8 1.3-1.1.5-.2.9-.4 1.4-.4.2 0 .5.1.7.2.2.1.4.3.6.5.2.2.3.4.4.7.1.3.1.5.1.8v5.1h-1.4v-4.9c0-.5-.1-.8-.3-1.1-.2-.2-.5-.4-.8-.4-.2 0-.3 0-.5.1-.2 0-.3.1-.5.2s-.3.2-.5.3c-.2.1-.3.3-.5.4v5.3h-1.4v-7zM109.2 104.7c.2 0 .4 0 .5-.1.2-.1.3-.1.4-.2l.3-.3c.1-.1.1-.3.1-.4 0-.2-.1-.4-.2-.6-.1-.2-.3-.3-.4-.4-.2-.1-.4-.3-.6-.4-.2-.1-.5-.2-.7-.3-.2-.1-.5-.2-.7-.4-.2-.1-.4-.3-.6-.5-.2-.2-.3-.4-.4-.6-.1-.2-.2-.5-.2-.8 0-.3.1-.6.2-.8.1-.2.3-.5.5-.6.2-.2.5-.3.8-.4.3-.1.6-.2 1-.2.2 0 .5 0 .7.1.2 0 .4.1.6.2.2.1.4.2.6.4.2.2.4.4.6.7l-.5.5c-.3-.4-.6-.8-.9-1-.3-.2-.7-.3-1.1-.3-.2 0-.4 0-.6.1-.2.1-.3.1-.4.2l-.3.3c-.1.1-.1.2-.1.4s.1.4.2.6c.1.2.3.3.5.4.2.1.4.2.7.4.2.1.5.2.8.3.3.1.5.2.8.4.2.1.5.3.7.4.2.2.4.4.5.6.1.2.2.5.2.8 0 .3-.1.6-.2.9-.1.3-.3.5-.5.7-.2.2-.5.3-.9.5-.3.1-.7.2-1.2.2h-.6c-.2 0-.4-.1-.7-.2-.2-.1-.4-.2-.7-.4l-.7-.7.6-.5c.2.2.3.5.5.6.2.2.3.3.5.4.2.1.3.2.5.2 0-.2.2-.2.4-.2zM116.8 105.2c-.5 0-1.1-.1-1.5-.3-.5-.2-.9-.5-1.2-.8-.3-.3-.6-.7-.8-1.2-.2-.4-.3-.9-.3-1.4 0-.5.1-1 .3-1.5.2-.5.5-.9.8-1.2.3-.3.7-.6 1.2-.8.5-.2 1-.3 1.5-.3s1.1.1 1.5.3c.5.2.9.4 1.2.8.3.3.6.7.8 1.1.2.4.3.9.3 1.4 0 .5-.1 1.1-.3 1.5-.2.5-.5.9-.8 1.3-.3.4-.7.6-1.2.8-.4.2-.9.3-1.5.3zm.3-.6c.3 0 .5-.1.8-.2.2-.1.4-.3.6-.6.2-.2.3-.5.4-.9.1-.3.1-.7.1-1 0-.5 0-1-.1-1.5s-.2-.8-.4-1.2c-.2-.3-.5-.6-.8-.8-.3-.2-.7-.3-1.2-.3-.2 0-.5.1-.7.2-.2.1-.4.3-.6.6-.2.2-.3.5-.4.8-.1.3-.2.7-.2 1 0 .5.1 1 .2 1.5s.3.9.5 1.2c.2.3.5.6.8.8.3.3.6.4 1 .4zM122 97.9h1.4v1.3c.4-.5.9-.8 1.3-1.1.5-.2.9-.4 1.4-.4.2 0 .5.1.7.2.2.1.4.3.6.5.2.2.3.4.4.7.1.3.1.5.1.8v5.1h-1.4v-4.9c0-.5-.1-.8-.3-1.1-.2-.2-.5-.4-.8-.4-.2 0-.3 0-.5.1-.2 0-.3.1-.5.2s-.3.2-.5.3c-.2.1-.3.3-.5.4v5.3H122v-7z"/><g><path class="st0" d="M45.1 57.4v1.1h-8.6v6.3h6.2V66h-6.2v9h-3V57.4h11.6zM48.2 57.4l5.3 13.4 4.6-12.1 4.8 12.2L68 57.4h1.5l-6.8 17.8h-.9l-4.3-11-4.2 11h-1l-7-17.8h2.9zM71.8 57.4h3L81.7 71h.1l6.7-13.6h3V75h-3V60.6h-.1L81.2 75h-.6l-7.3-14.4h-.2V75h-1.3V57.4z"/></g><g><path class="st0" d="M57.9 81.2l.7-.3h.3v3.3c.1-.1.2-.3.3-.4.1-.1.3-.2.4-.3.1-.1.3-.2.5-.2.2-.1.3-.1.5-.1.3 0 .5.1.8.2.2.1.4.3.6.5.2.2.3.4.4.7.1.3.1.5.1.8 0 .3 0 .5-.1.8-.1.2-.2.5-.3.7-.1.2-.3.4-.4.6-.2.2-.3.3-.5.4l-.6.3c-.2.1-.5.1-.7.1-.4 0-.7 0-1-.1-.3-.1-.6-.2-.8-.4v-6.6zm1 6.2l.2.2c.1.1.2.1.2.2.1 0 .2.1.3.1h.4c.2 0 .4-.1.6-.2.2-.1.3-.3.5-.4.1-.2.2-.4.3-.7.1-.3.1-.5.1-.9 0-.2 0-.5-.1-.7-.1-.2-.2-.4-.3-.5-.1-.2-.3-.3-.4-.4-.2-.1-.4-.1-.5-.1h-.3c-.1 0-.2.1-.3.1-.1.1-.2.1-.3.2-.1.1-.2.1-.2.2v2.9zM62.7 83.4h1.1l1.8 3.4 1.5-3.4h.5L65.2 89c-.1.2-.2.4-.4.6-.1.2-.3.3-.4.4-.1.1-.3.2-.5.2-.2.1-.3.1-.5.1h-.3c-.1 0-.2-.1-.2-.1-.1 0-.1-.1-.2-.2 0-.1-.1-.1-.1-.2v-.2c0-.1.1-.1.1-.2 0 0 .1-.1.2-.1h.4c.1 0 .1 0 .2.1 0 0 .1.1.2.1h.2c.1 0 .2 0 .3-.1l.2-.2c.1-.1.1-.2.2-.3 0-.1.1-.2.1-.3l.3-.7-2.3-4.5z"/></g><g><path class="st0" d="M49.5 30.8l.2-1.1c.1-.4 1.5-10 6.9-10 .7 0 1.5.2 2.3.5l.2.1.1.2c.1.1.6 1 .1 2.5-.8 2.5-3.7 5-8.8 7.3l-1 .5zm7.1-9.9c-3.4 0-5 5.4-5.5 7.8 5-2.5 6.6-4.6 7-6 .2-.7.1-1.2.1-1.5-.5-.2-1.1-.3-1.6-.3z"/></g><g><path class="st0" d="M56.6 44.5c-5.5 0-6.9-9.6-6.9-10l-.2-1.1 1 .5c5.1 2.4 8.1 4.8 8.8 7.3.5 1.5-.1 2.4-.1 2.5l-.1.2-.1.1c-.9.3-1.6.5-2.4.5zm-5.5-9c.5 2.4 2.1 7.8 5.5 7.8.5 0 1-.1 1.6-.3.1-.2.2-.7-.1-1.5-.4-1.4-2-3.5-7-6z"/></g><g><path class="st0" d="M62.1 32.8h-9.6c-.3 0-.6-.3-.6-.6s.3-.6.6-.6h9.6c.3 0 .6.3.6.6 0 .4-.3.6-.6.6z"/></g><g><path class="st0" d="M50.3 35c-1.5 0-2.8-1.3-2.8-2.8 0-1.5 1.2-2.8 2.8-2.8 1.5 0 2.8 1.3 2.8 2.8 0 1.6-1.3 2.8-2.8 2.8zm0-4.3c-.9 0-1.6.7-1.6 1.6 0 .9.7 1.6 1.6 1.6.9 0 1.6-.7 1.6-1.6 0-.9-.7-1.6-1.6-1.6z"/></g><g><path class="st0" d="M75.1 31l-1-.5c-5.1-2.4-8.1-4.8-8.8-7.3-.5-1.5.1-2.4.1-2.5l.1-.2.2-.1c.8-.4 1.6-.5 2.3-.5 5.5 0 6.9 9.6 6.9 10l.2 1.1zm-8.7-9.6c-.1.2-.2.7.1 1.5.4 1.4 2 3.5 7 6C73 26.4 71.4 21 68 21c-.5 0-1.1.2-1.6.4z"/></g><g><path class="st0" d="M68 44.6c-.7 0-1.5-.2-2.3-.5l-.2-.1-.1-.2c-.1-.1-.6-1-.1-2.5.8-2.5 3.7-5 8.8-7.3l1-.5-.2 1.1c-.1.4-1.5 10-6.9 10zm-1.6-1.5c.6.2 1.1.3 1.6.3 3.4 0 5-5.4 5.5-7.8-5.1 2.5-6.7 4.7-7.1 6.1-.2.7-.1 1.1 0 1.4z"/></g><g><path class="st0" d="M72.1 33h-9.6c-.3 0-.6-.3-.6-.6s.3-.6.6-.6h9.6c.3 0 .6.3.6.6s-.2.6-.6.6z"/></g><g><path class="st0" d="M74.3 35.2c-1.5 0-2.8-1.3-2.8-2.8 0-1.5 1.3-2.8 2.8-2.8 1.5 0 2.8 1.3 2.8 2.8 0 1.5-1.3 2.8-2.8 2.8zm0-4.4c-.9 0-1.6.7-1.6 1.6 0 .9.7 1.6 1.6 1.6.9 0 1.6-.7 1.6-1.6 0-.9-.7-1.6-1.6-1.6z"/></g><g><path class="st0" d="M62.1 44.6c-.3 0-.6-.3-.6-.6V24.2c0-1.5.5-2.7 1.4-3.5 1.8-1.5 4.5-.9 4.6-.9.3.1.5.4.5.7-.1.3-.4.5-.7.5 0 0-2.3-.4-3.6.7-.6.5-1 1.4-1 2.5V44c0 .4-.3.6-.6.6z"/></g><g><path class="st0" d="M63.8 44.6h-3.6c-.3 0-.6-.3-.6-.6s.3-.6.6-.6h3.6c.3 0 .6.3.6.6 0 .4-.3.6-.6.6z"/></g></svg>