<svg id="Layer_1" xmlns="http://www.w3.org/2000/svg" viewBox="0 0 128 128"><style>.st0{fill:#343434}</style><path class="st0" d="M0 28.7h19.9l.1 1.2c-1.6 0-2.8.3-3.6.8-.8.5-1.1 1.2-1.1 2.3 0 1 .2 2.1.5 3.2L23.9 62l7.8-22.4c-.6-2.2-1.2-3.7-1.7-4.7s-1.1-1.9-1.9-2.8c-.7-.8-1.3-1.4-2-1.7-.7-.3-1.6-.5-2.6-.5v-1.2h20.8v1.2h-1c-1.6 0-2.9.3-3.8 1-.9.6-1.4 1.6-1.4 2.8 0 .8.1 1.6.4 2.3l8.3 26 8.1-23.8c.4-1.3.6-2.4.6-3.5 0-1.6-.5-2.8-1.6-3.5-1.1-.8-2.7-1.2-5-1.3l-.1-1.2h15.4v1.2c-1 .1-1.9.3-2.5.6-.6.3-1.3.8-2.1 1.4-1.5 1.4-2.8 3.6-3.9 6.7l-12 35.3h-1l-10.5-33-11.4 33h-1.1l-11.1-35c-1-3.2-2.1-5.5-3.3-6.9-1.2-1.4-2.7-2.1-4.4-2.1H0v-1.2zm65.7 43.2h3.8c2.4 0 4.2-.7 5.3-2.1 1.1-1.4 1.7-3.6 1.7-6.7V43.3c0-2.1-.1-3.7-.3-4.6-.2-1-.6-1.8-1.2-2.5-1.2-1.4-3-2.1-5.4-2.1h-2.8V33c2.1-.1 4.1-.4 5.8-.7 1.7-.3 3.3-.8 4.7-1.4 1.4-.6 2.9-1.4 4.6-2.4h1.8v35.6c0 5.1 2.3 7.7 6.9 7.7H94V73H65.7v-1.1zm46.9 2c-2.9 0-5.6-1-8.1-3s-4.4-4.8-5.8-8.3c-1.4-3.5-2.1-7.4-2.1-11.6 0-4.2.7-8.1 2.1-11.6 1.4-3.5 3.3-6.3 5.7-8.4 2.4-2 5-3 7.9-3 1.1 0 2.3.2 3.5.6 1.2.4 2.4 1 3.5 1.8s2.2 1.8 3.1 2.9c1.8 2.1 3.2 4.7 4.1 7.7 1 3 1.5 6.4 1.5 10 0 2.2-.2 4.3-.6 6.4-.4 2-.9 3.9-1.7 5.6-.7 1.7-1.6 3.3-2.7 4.8-1.1 1.4-2.3 2.6-3.6 3.6-2.3 1.6-4.6 2.5-6.8 2.5zm-7.2-27.1v8.3c0 6.1.6 10.5 1.7 13.4 1.1 2.9 2.9 4.3 5.3 4.3 4.6 0 6.9-5.5 6.9-16.4V48c0-2.5-.1-4.7-.2-6.8-.1-2.1-.3-3.6-.5-4.6-.9-5-3-7.5-6.2-7.5-1.6 0-2.9.6-4 1.8-1 1.2-1.8 3.1-2.2 5.7-.6 2.5-.8 6-.8 10.2zM57.9 80.6h4.6c.4 0 .7 0 1 .1.3.1.6.2.8.3.2.2.4.3.5.5.1.2.2.5.2.7 0 .4-.2.7-.6 1-.2.1-.3.2-.5.3-.2.1-.4.2-.8.3.4.1.8.2 1.1.3.8.4 1.1.9 1.1 1.5 0 .4-.1.7-.3.9-.2.3-.6.5-1 .6-.4.1-.9.2-1.5.2h-4.6v-.2h.2c.4 0 .7-.1.9-.3.2-.2.3-.5.3-.9v-4c0-.4-.1-.7-.3-1-.2-.2-.5-.3-.9-.3h-.2zm2.6.2v3h1.4c1.1 0 1.7-.5 1.7-1.6 0-.5-.1-.8-.4-1.1-.2-.2-.6-.3-1.1-.3h-1.6zm0 3.3v3.4h1.4c.6 0 1.1-.1 1.4-.4.3-.3.5-.7.5-1.2s-.1-.8-.4-1.1c-.2-.2-.4-.4-.7-.4-.3-.1-.7-.1-1.2-.1h-1zm5.7-3.5h4v.2h-.5c-.2 0-.3 0-.4.1-.1.1-.2.2-.2.3v.2c0 .1.1.2.3.4l1.5 2.4 1.4-2c.2-.3.3-.5.3-.7 0-.2-.1-.4-.2-.5-.2-.1-.4-.2-.6-.2h-.4v-.2h3.2v.2c-.2 0-.4.1-.6.1-.2.1-.3.1-.5.2-.1.1-.3.2-.4.4-.2.2-.3.4-.4.6l-1.6 2.3v1.7c0 .4.1.7.3.9.2.2.5.3.9.3h.4v.2h-4.5v-.2h.4c.4 0 .7-.1.9-.3.2-.2.3-.5.3-.9v-1.5L68 81.8c-.2-.4-.5-.6-.7-.8-.2-.1-.5-.2-.9-.2h-.1v-.2zM2.8 93h4.3v.2h-.2c-.8 0-1.2.4-1.2 1.3v3.4c0 .6-.2 1.2-.5 1.5-.2.2-.5.4-.8.6-.3.1-.7.2-1.1.2-.4 0-.7-.1-1-.2-.3-.1-.5-.3-.7-.5-.1-.1-.2-.3-.3-.5-.1-.2-.1-.3-.1-.5 0-.3.1-.5.2-.7.2-.2.4-.3.6-.3.2 0 .4.1.6.2.1.2.2.4.2.6 0 .4-.2.7-.6.8-.1 0-.2.1-.2.2s.1.2.3.3c.2.1.5.2.8.2.3 0 .5-.1.7-.2.2-.1.3-.3.5-.5.1-.2.2-.5.2-.7v-4.1c0-.8-.4-1.3-1.1-1.3h-.6zm5.1 0h4.3v.2h-.5c-.4 0-.7.1-.9.3-.2.2-.3.5-.3 1V98c0 .4.1.7.3 1 .2.3.4.5.7.7.3.2.7.2 1.1.2.4 0 .7-.1 1.1-.2.3-.1.6-.3.8-.5.4-.4.5-1 .5-1.7V95c0-.8-.2-1.3-.6-1.6-.1-.1-.2-.1-.4-.2-.1 0-.3-.1-.6-.1V93h3v.2c-.2 0-.3 0-.4.1-.1 0-.2.1-.3.2-.2.1-.3.3-.4.6-.1.2-.1.5-.1.8v2.8c0 .7-.2 1.3-.5 1.7-.2.2-.4.4-.6.5-.5.2-1 .3-1.7.3-.5 0-.9-.1-1.3-.2s-.7-.3-1-.4c-.5-.4-.7-.9-.7-1.6v-3.4c0-.8-.4-1.3-1.1-1.3h-.4V93zm9.2 0h4.3v.2H21c-.4 0-.7.1-.9.3-.2.2-.3.5-.3 1v5.3h1.6c.3 0 .6-.1.9-.2.3-.2.5-.4.7-.7.1-.2.2-.3.3-.5l.3-.6c.1-.2.2-.5.3-.8h.2v3.1h-7v-.2h.2c.8 0 1.1-.4 1.1-1.3v-4c0-.8-.4-1.3-1.1-1.3h-.2V93zm8 6.8h.2c.4 0 .7-.1.9-.3.2-.2.3-.5.3-1v-4.1c0-.2-.1-.4-.1-.5-.1-.1-.1-.2-.2-.3-.2-.2-.5-.3-.8-.3h-.2V93H29v.2h-.2c-.4 0-.7.1-.9.3-.2.2-.3.5-.3 1v4c0 .4.1.7.3 1 .2.2.5.3.9.3h.2v.2h-3.9v-.2zm4.8-6.8h6.6v2.7h-.1c-.1-.5-.2-.8-.3-1.1-.1-.2-.2-.5-.4-.7-.2-.2-.4-.4-.6-.5-.4-.2-.8-.3-1.3-.3h-1.2v3.3h.3c.5 0 .9-.2 1.2-.7.1-.2.3-.5.3-.9 0-.1.1-.4.1-.6h.2v4.6h-.2c0-.2-.1-.5-.1-.7 0-.2-.1-.4-.2-.5-.1-.1-.1-.3-.2-.4-.3-.4-.6-.6-1.1-.6h-.3v3.1h1c.3 0 .6 0 .8-.1.2 0 .5-.1.7-.2.2-.1.4-.2.5-.4.3-.3.5-.6.7-1 .1-.2.2-.6.3-1h.2v2.9H30v-.2h.2c.8 0 1.1-.4 1.1-1.3v-4c0-.4-.1-.8-.3-1-.2-.2-.5-.3-.9-.3h-.2V93zm7.8 0h2.5l4.3 5v-3c0-.4-.1-.7-.2-1-.1-.3-.3-.5-.5-.6-.1-.1-.2-.1-.3-.2-.1 0-.3-.1-.5-.1V93h3.1v.2H46c-.4 0-.8.2-1 .5-.2.3-.4.8-.4 1.4v5h-.1l-5.4-6.2V98c0 .4 0 .7.1 1 .1.2.2.4.4.6.2.1.3.2.6.2h.5v.2h-3.3v-.2c.3 0 .6-.1.8-.2.2-.1.4-.3.5-.5.1-.2.1-.5.1-.8v-3.9c0-.2 0-.4-.1-.6-.1-.2-.2-.3-.4-.4-.2-.1-.4-.1-.7-.1h-.1V93zm12.1 0h2.6l2.4 5.3 2.3-5.3h2.5v.2h-.2c-.4 0-.7.1-.9.3-.2.2-.3.5-.3 1v4c0 .4.1.7.3 1 .2.2.5.3.9.3h.2v.2h-4v-.2h.3c.4 0 .7-.1.9-.3.2-.2.3-.5.3-1v-4.7l-2.7 6.2h-.2l-2.7-6.2v4.5c0 .3.1.6.2.8.1.2.3.4.5.5.2.1.5.2.8.2v.2h-2.9v-.2h.1c.4 0 .7-.1.9-.4.2-.3.3-.6.3-1.1v-3.8c0-.4-.1-.8-.3-1-.2-.2-.5-.3-.9-.3H50V93zm14.1-.1h.2l2.5 6.1c.1.2.2.3.3.5l.3.3c.1.1.3.1.4.1h.2v.2h-3.6v-.2h.5c.2 0 .4 0 .5-.1.1-.1.2-.2.2-.3 0-.1 0-.2-.1-.3 0-.1-.1-.4-.3-.7v-.1s0-.1-.1-.1l-.1-.3h-2.6l-.2.3c-.1.2-.1.3-.1.5s0 .3.1.5.2.3.3.3c.1.1.2.1.2.1h.3v.2h-2.5v-.2c.2 0 .3-.1.4-.1.1 0 .2-.1.4-.2.3-.3.6-.8.9-1.5l1.9-5zm-.4 1.6l-1.2 3.1h2.5l-1.3-3.1zm11.9 3h.2c-.1.3-.1.5-.2.7-.1.2-.2.4-.4.6-.6.8-1.4 1.2-2.4 1.2-.6 0-1.2-.2-1.8-.5-.6-.3-1-.8-1.3-1.3-.3-.6-.5-1.2-.5-1.8 0-.4.1-.8.2-1.1.1-.4.3-.7.6-1.1.2-.3.5-.6.9-.8.5-.4 1.1-.5 1.7-.5.2 0 .4 0 .6.1.2 0 .4.1.5.2.2.1.3.2.5.4s.4.2.4.2c.2 0 .5-.2.8-.7h.2l.1 3.3h-.1c-.1-.2-.1-.4-.1-.6 0-.2-.1-.3-.2-.5-.2-.5-.4-.9-.7-1.2-.3-.3-.6-.6-.9-.8-.3-.2-.7-.3-1-.3-.4 0-.8.1-1 .4-.3.2-.5.6-.6 1.2-.1.5-.2 1.2-.2 2 0 .5 0 .9.1 1.2 0 .4.1.7.2.9.1.2.2.5.4.6.2.2.4.3.6.4.3.1.5.2.8.2.3 0 .5 0 .8-.1.3-.1.5-.2.7-.4.2-.2.4-.3.6-.6.1-.2.3-.4.4-.6-.1-.1 0-.4.1-.7zm1.1-4.5h4.1c.7 0 1.3.1 1.8.3.5.2.9.5 1.3.9.3.3.6.7.7 1.1.2.4.3.9.3 1.3 0 .5-.1.9-.3 1.4-.2.4-.4.8-.8 1.1-.3.3-.7.5-1.2.7-.4.1-.9.2-1.4.2h-4.4v-.2h.2c.4 0 .7-.1.9-.3.2-.2.3-.5.3-1v-4c0-.4-.1-.8-.3-1-.2-.2-.5-.3-.9-.3h-.2V93zm2.7.2v6.6h1.2c.3 0 .6 0 .9-.1.2 0 .4-.1.6-.2.2-.1.3-.2.5-.4.5-.6.7-1.4.7-2.6 0-.4 0-.7-.1-1.1-.1-.3-.1-.6-.3-.9-.1-.3-.3-.5-.4-.7-.1-.2-.3-.3-.5-.4-.2-.1-.4-.2-.6-.2-.2 0-.5-.1-.9-.1h-1.1zm10.7-.3c.6 0 1.1.1 1.6.3.5.2.9.5 1.3.9.3.3.5.7.7 1.1.2.4.2.8.2 1.3 0 .7-.2 1.3-.5 1.8s-.8 1-1.4 1.3c-.6.3-1.2.5-1.9.5-.5 0-1-.1-1.5-.3-.5-.2-.9-.4-1.2-.8-.3-.3-.6-.7-.8-1.2-.2-.4-.3-.9-.3-1.4 0-.6.2-1.2.5-1.8.3-.6.8-1 1.4-1.3.6-.2 1.2-.4 1.9-.4zm.1.2c-.3 0-.5.1-.8.2-.2.1-.4.3-.6.4-.2.2-.3.5-.5.7-.1.3-.2.6-.3 1-.1.4-.1.7-.1 1.1 0 .5 0 1 .2 1.4.1.4.2.8.4 1.1.2.3.4.5.7.7.3.2.6.2.9.2.4 0 .8-.1 1.2-.4.3-.3.6-.7.7-1.2.2-.5.3-1.1.3-1.8 0-.5 0-.9-.1-1.3s-.2-.8-.4-1.1c-.2-.3-.4-.5-.7-.7-.1-.1-.3-.2-.4-.2-.2-.1-.4-.1-.5-.1zm4.8-.1h2.5l4.3 5v-3c0-.4-.1-.7-.2-1-.1-.3-.3-.5-.5-.6-.1-.1-.2-.1-.3-.2-.1 0-.3-.1-.5-.1V93h3.1v.2h-.1c-.5 0-.8.2-1 .5-.2.3-.4.8-.4 1.4v5h-.1l-5.4-6.2V98c0 .4 0 .7.1 1 .1.2.2.4.4.6.2.1.4.2.6.2h.5v.2h-3.3v-.2c.3 0 .6-.1.8-.2.2-.1.4-.3.5-.5.1-.2.2-.5.2-.8v-3.9c0-.2 0-.4-.1-.6-.1-.2-.2-.3-.4-.4-.2-.1-.4-.1-.7-.1h-.1V93zm12.7-.1h.2l2.5 6.1c.1.2.2.3.3.5l.3.3c.1.1.3.1.4.1h.2v.2h-3.6v-.2h.5c.2 0 .4 0 .5-.1.1-.1.2-.2.2-.3 0-.1 0-.2-.1-.3 0-.1-.1-.4-.3-.7v-.1s0-.1-.1-.1l-.1-.3h-2.6l-.2.5c-.1.2-.1.3-.1.5s0 .3.1.5.2.3.3.3c.1.1.1.1.2.1h.3v.2h-2.5v-.2c.2 0 .3-.1.4-.1.1 0 .2-.1.4-.2.3-.3.6-.8.9-1.5l1.9-5.2zm-.5 1.6l-1.2 3.1h2.5l-1.3-3.1zm5.1-1.5h4.3v.2h-.4c-.4 0-.7.1-.9.3-.2.2-.3.5-.3 1v5.3h1.6c.3 0 .6-.1.9-.2.3-.2.5-.4.7-.7.1-.2.2-.3.3-.5l.3-.6c.1-.2.2-.5.3-.8h.2v3.1h-7v-.2h.2c.8 0 1.1-.4 1.1-1.3v-4c0-.8-.4-1.3-1.1-1.3h-.2V93zm7.7 0h4.1c.7 0 1.3.1 1.8.3.5.2.9.5 1.3.9.3.3.6.7.7 1.1.2.4.3.9.3 1.3 0 .5-.1.9-.3 1.4-.2.4-.4.8-.8 1.1-.3.3-.7.5-1.2.7-.5.2-1 .2-1.5.2h-4.4v-.2h.2c.4 0 .7-.1.9-.3.2-.2.3-.5.3-1v-4c0-.4-.1-.8-.3-1-.2-.2-.5-.3-.9-.3h-.2V93zm2.7.2v6.6h1.2c.3 0 .6 0 .9-.1.2 0 .4-.1.6-.2.2-.1.3-.2.5-.4.5-.6.7-1.4.7-2.6 0-.4 0-.7-.1-1.1-.1-.3-.1-.6-.3-.9-.1-.3-.3-.5-.4-.7-.2-.2-.3-.3-.5-.4-.2-.1-.4-.2-.6-.2-.2 0-.5-.1-.9-.1h-1.1z"/></svg>