<svg id="Layer_1" xmlns="http://www.w3.org/2000/svg" viewBox="0 0 128 128"><style>.st0{fill:#89b9e0}.st1{fill:#a1a4a7}</style><path class="st0" d="M67.7 92.7c-2.4 0-4.1-1.6-4.1-3.9h1.3c.1 1.6 1.1 2.7 2.8 2.7 1.5 0 2.7-1.1 2.7-2.6 0-1.8-1.5-2.4-3-2.8-1.9-.6-3.5-1.2-3.5-3.5 0-2.1 1.7-3.6 3.8-3.6 2.1 0 3.7 1.5 3.7 3.6H70c0-1.3-1-2.4-2.4-2.4-1.3 0-2.4 1-2.4 2.3 0 1.8 1.8 2.1 3.2 2.5 1.9.6 3.3 1.8 3.3 3.8 0 2.2-1.8 3.9-4 3.9M85.7 92.7c-2.4 0-4.1-1.6-4.1-3.9h1.3c.1 1.6 1.1 2.7 2.8 2.7 1.5 0 2.7-1.1 2.7-2.6 0-1.8-1.5-2.4-3-2.8-1.9-.6-3.5-1.2-3.5-3.5 0-2.1 1.7-3.6 3.8-3.6 2.1 0 3.7 1.5 3.7 3.6h-1.3c0-1.3-1-2.4-2.4-2.4-1.3 0-2.4 1-2.4 2.3 0 1.8 1.8 2.1 3.2 2.5 1.9.6 3.3 1.8 3.3 3.8-.1 2.2-1.9 3.9-4.1 3.9"/><path class="st1" d="M5.5 35.3h.6c.2.8.4 1.8.4 2.9.9-1 1.9-1.7 3-2.2 1.1-.5 2.2-.7 3.4-.7 2.5 0 4.5.9 6.1 2.6 1.6 1.7 2.4 4 2.4 6.8s-.8 5.1-2.5 6.9c-1.6 1.8-3.8 2.8-6.5 2.8-1.1 0-2.1-.2-3.1-.7-1-.4-1.9-1.1-2.8-1.9v6.7c0 2 0 3.3.1 3.7.1.4.3.8.7 1 .4.2 1.1.3 2.1.3v1H.1v-1h.7c1 0 1.7-.1 2-.4.3-.3.5-.6.5-1.1.1-.4.1-1.6.1-3.6v-16c0-1.9 0-3.1-.1-3.6 0-.5-.3-.9-.6-1.1-.4-.3-1-.4-1.9-.4H.1v-1c1.5-.1 3.3-.4 5.4-1m1 15c.8 1 1.6 1.7 2.5 2.2.9.5 1.8.7 2.8.7 1.6 0 3-.7 4.3-2.1 1.2-1.4 1.8-3.6 1.8-6.6 0-2.6-.6-4.6-1.8-5.9-1.2-1.3-2.6-2-4.2-2-1 0-1.9.3-2.8.8-.9.5-1.7 1.3-2.5 2.3v10.6zM42.7 50.4h.8c-.1 2.5-1.3 3.7-3.6 3.7-1 0-1.7-.3-2.3-.8-.6-.5-.9-1.3-1.1-2.3-1.4 1-2.8 1.8-4 2.3-1.2.5-2.3.8-3.2.8-1.2 0-2.2-.3-3.1-1-.9-.7-1.3-1.6-1.3-2.7 0-1.5.7-2.8 2.2-3.9 1.5-1.1 3.5-2.2 6-3.2l3.4-1.4V41c0-1.2-.1-2.1-.2-2.6-.2-.5-.6-1-1.2-1.5-.7-.4-1.5-.6-2.6-.6-2.2 0-3.4.7-3.6 2.2-.2 1.5-.8 2.2-1.8 2.2-.9 0-1.3-.4-1.3-1.2 0-.8.6-1.7 1.8-2.6 1.2-.9 3-1.4 5.5-1.4 1.8 0 3.2.3 4.3.9 1 .6 1.7 1.2 2 2 .3.7.5 1.8.5 3.4v7.1c0 1.7.1 2.7.3 3.2.2.5.5.7 1.1.7.5-.3 1.1-1 1.4-2.4m-6.3-7.5l-2.4.9c-3.7 1.5-5.6 3.4-5.6 5.7 0 .9.2 1.6.7 2.2.5.6 1.1.8 1.9.8.7 0 1.5-.2 2.4-.7.9-.4 1.9-1.1 3-2v-6.9zM49.4 35.3h.6c.2.8.4 1.8.4 2.9.9-1 1.9-1.7 3-2.2 1.1-.5 2.2-.7 3.4-.7 2.5 0 4.5.9 6.1 2.6 1.6 1.7 2.4 4 2.4 6.8s-.8 5.1-2.5 6.9c-1.6 1.8-3.8 2.8-6.5 2.8-1.1 0-2.1-.2-3.1-.7-1-.4-1.9-1.1-2.8-1.9v6.7c0 2 0 3.3.1 3.7.1.4.3.8.7 1 .4.2 1.1.3 2.1.3v1H44v-1h.6c1 0 1.7-.1 2-.4.3-.3.5-.6.5-1.1.1-.4.1-1.6.1-3.6v-16c0-1.9 0-3.1-.1-3.6s-.3-.9-.6-1.1c-.4-.3-1-.4-1.9-.4H44v-1c1.4-.1 3.2-.4 5.4-1m.9 15c.8.9 1.6 1.7 2.5 2.1.9.5 1.8.7 2.8.7 1.6 0 3.1-.7 4.3-2.1 1.2-1.4 1.8-3.6 1.8-6.6 0-2.6-.6-4.6-1.7-5.9-1.2-1.3-2.6-2-4.2-2-1 0-1.9.3-2.8.8-.9.5-1.7 1.3-2.6 2.3v10.7zM86.5 50.4h.8c-.1 2.5-1.3 3.7-3.6 3.7-1 0-1.8-.3-2.3-.8-.6-.5-.9-1.3-1.1-2.3-1.4 1-2.8 1.8-4 2.3-1.2.5-2.3.8-3.2.8-1.2 0-2.2-.3-3.1-1-.9-.7-1.3-1.6-1.3-2.7 0-1.5.7-2.8 2.2-3.9 1.5-1.1 3.5-2.2 6-3.2l3.4-1.4V41c0-1.2-.1-2.1-.2-2.6-.2-.5-.6-1-1.2-1.5-.7-.4-1.5-.6-2.6-.6-2.2 0-3.4.7-3.6 2.2-.2 1.5-.8 2.2-1.8 2.2-.9 0-1.3-.4-1.3-1.2 0-.8.6-1.7 1.8-2.6 1.2-.9 3-1.4 5.4-1.4 1.8 0 3.3.3 4.3.9 1 .6 1.7 1.2 2 2 .3.7.5 1.8.5 3.4v7.1c0 1.7.1 2.7.3 3.2.2.5.5.7 1.1.7.7-.3 1.3-1 1.5-2.4m-6.3-7.5l-2.4.9c-3.7 1.5-5.6 3.4-5.6 5.7 0 .9.2 1.6.7 2.2.5.6 1.1.8 1.9.8.7 0 1.5-.2 2.4-.7.9-.4 1.9-1.1 3-2v-6.9zM98.8 50.3l4.1-9.8c.6-1.4.9-2.2.9-2.4 0-.7-.8-1.1-2.4-1.1v-1h6.2v1c-1 0-1.7.3-2.1.8-.4.5-1 1.5-1.7 3.1l-7.9 18.9c-.8 1.8-1.4 3-2 3.7-.6.7-1.2 1-1.9 1-.9 0-1.4-.4-1.4-1.3 0-1 .7-1.8 2.2-2.5.9-.4 1.5-.7 1.8-1 .3-.3.6-.8.9-1.5l1.7-4.2-6.6-14.2c-.6-1.2-1.1-2-1.5-2.4-.4-.3-1.1-.5-2-.5v-1h8.1v1c-1.4 0-2.1.3-2.1.9 0 .2.3.9.8 2.1l4.9 10.4zM126.7 50.4h.8c-.1 2.5-1.3 3.7-3.6 3.7-1 0-1.7-.3-2.3-.8-.6-.5-.9-1.3-1.1-2.3-1.4 1-2.8 1.8-4 2.3-1.2.5-2.3.8-3.2.8-1.2 0-2.2-.3-3.1-1-.9-.7-1.3-1.6-1.3-2.7 0-1.5.7-2.8 2.2-3.9 1.5-1.1 3.5-2.2 6-3.2l3.4-1.4V41c0-1.2-.1-2.1-.2-2.6-.2-.5-.6-1-1.2-1.5-.7-.4-1.5-.6-2.6-.6-2.2 0-3.4.7-3.6 2.2-.2 1.5-.8 2.2-1.8 2.2-.9 0-1.3-.4-1.3-1.2 0-.8.6-1.7 1.8-2.6 1.2-.9 3-1.4 5.4-1.4 1.8 0 3.3.3 4.3.9 1 .6 1.7 1.2 2 2 .3.7.5 1.8.5 3.4v7.1c0 1.7.1 2.7.3 3.2.2.5.6.7 1.1.7.7-.3 1.3-1 1.5-2.4m-6.3-7.5l-2.4.9c-3.7 1.5-5.6 3.4-5.6 5.7 0 .9.2 1.6.7 2.2.5.6 1.1.8 1.9.8.7 0 1.5-.2 2.4-.7.9-.4 1.9-1.1 3-2v-6.9zM0 70.7h128V73H0z"/><path class="st0" d="M7.3 92.7c-3.8 0-7-3-7-6.9 0-3.9 3.1-6.9 7-6.9 2 0 3.9.9 5.3 2.4.3.4.7.8.8 1.3h-1.5c-1-1.5-2.8-2.4-4.6-2.4-3.1 0-5.6 2.7-5.6 5.7s2.6 5.6 5.6 5.6c1.9 0 3.5-1 4.7-2.5h1.5c-1.3 2.2-3.7 3.7-6.2 3.7M24.7 92.5V79.2H26v12.1h5.5v1.2zM52.5 92.5l-2-4.5h-6.2l-1.9 4.5H41l5.7-13.3h1.5l5.7 13.3h-1.4zm-5.1-11.8l-2.6 6.1H50l-2.6-6.1zM100.6 79.2h1.3v13.3h-1.3zM120.1 92.7c-3.8 0-7-3-7-6.9 0-3.9 3.1-6.9 7-6.9 2 0 3.9.9 5.3 2.4.3.4.6.8.8 1.3h-1.5c-1-1.5-2.8-2.4-4.6-2.4-3.1 0-5.6 2.7-5.6 5.7s2.6 5.6 5.6 5.6c1.9 0 3.5-1 4.7-2.5h1.5c-1.3 2.2-3.6 3.7-6.2 3.7"/></svg>