<svg id="Layer_1" xmlns="http://www.w3.org/2000/svg" viewBox="0 0 128 128"><style>.st0{fill:#bebfc2}.st1{fill:#FFF}</style><path class="st0" d="M0 20.5h128v87H0z"/><path d="M115.3 49c-2.4-.7-4.5-1.3-4.5-2.9 0-1.4 1.8-2.5 4.1-2.5 1.8 0 3.2.4 5.6 1.7l.5.3v-2.8l-.2-.1c-2.2-1-4-1.5-5.8-1.5-4 0-7.2 2.2-7.2 5 0 3.2 3.4 4.2 6.3 5.2 2.4.7 4.6 1.5 4.6 3S117 57 114.6 57c-2 0-3.8-.4-6.5-1.5l-.5-.2v2.6l.2.1c2.2 1.1 4.3 1.6 6.5 1.6 4.2 0 7.3-2.2 7.3-5 .2-3.6-3.3-4.6-6.3-5.6m-14.4-7.8c-2.3 0-4.7 1.5-7.1 4.3v-4h-3v17.6h3V48.3c2.2-3 4.5-4.6 6.4-4.6 1.1 0 2.1.4 4 1.8l.3.2 1.8-2.3-.3-.2c-2.1-1.4-3.5-2-5.1-2m-30.1 6.7c.9-2.6 3.3-4.2 6.4-4.2 3.3 0 5.3 1.4 6.1 4.2H70.8zm6.5-6.7c-5.8 0-10.1 3.8-10.1 8.9 0 5.4 4.6 9.4 10.9 9.4 3.1 0 5.8-.7 8.3-2.3l.2-.1v-2.9l-.6.4c-2.7 1.7-4.9 2.5-7.7 2.5-2.7 0-5.2-1.1-6.7-2.8-.9-1.1-1.4-2.3-1.4-3.6v-.5H87v-.4c0-5.9-5-8.6-9.7-8.6m-16.5 6.7c0 2.3-2.4 4.1-5.3 4.1s-5.2-1.8-5.2-4.2c0-2.3 2.3-4 5.2-4 2.9 0 5.3 1.8 5.3 4.1m-4.5 12.2c4.3 0 6.4.8 6.4 2.6 0 1.7-2.7 2.9-6.8 2.9-4.4 0-6.9-1-6.9-2.8 0-2.4 4.6-2.7 7.3-2.7m-8.9-12.2c0 2 1.4 4.4 4.9 5.6-1.9.5-3.5 1.2-3.5 2.8 0 .8.5 1.8 2.4 2.4-3.3.7-5.1 2.1-5.1 4.2 0 1.1.7 4.9 9.6 4.9 6.2 0 9.8-2 9.8-5.3 0-4.5-5-4.7-8.9-4.9-2.5-.1-4.9-.2-4.9-1.4 0-1 1.8-1.4 3.9-1.8 3.4-.7 8.1-1.7 8.1-6.5 0-1.5-.7-2.8-2.3-4.1h4.2v-2.2h-8.8c-6.9 0-9.4 3.3-9.4 6.3M32.9 57c-4.6 0-8-2.8-8-6.6 0-3.9 3.4-6.7 8-6.7 4.5 0 8 2.9 8 6.7 0 3.8-3.5 6.6-8 6.6m0-15.8c-6.3 0-11.1 3.9-11.1 9.2 0 5.2 4.8 9.1 11.1 9.1S44 55.6 44 50.4c0-5.2-4.8-9.2-11.1-9.2m-10.6 2.1c-2.1-1.5-3.5-2.1-5.1-2.1-2.3 0-4.7 1.5-7.1 4.3v-4h-3v17.6h3V48.3c2.2-3 4.5-4.6 6.4-4.6 1.1 0 2.1.4 4 1.8l.3.2 1.8-2.3-.3-.1z"/><path class="st1" d="M117 82.5c-2-.6-3.8-1.1-3.8-2.8 0-1.4 1.6-2.5 3.6-2.5 1.3 0 2.2.3 4.1 1.1l.5.2v-2l-.2-.1c-1.5-.7-3-1-4.5-1-3.1 0-5.7 1.9-5.7 4.3 0 2.8 2.6 3.6 4.9 4.3 2.1.7 4 1.2 4 3 0 1.5-1.6 2.7-3.6 2.7-1.4 0-2.6-.4-4.6-1.6l-.5-.3v2.1l.2.1c1.7.9 3.4 1.4 5 1.4 3.2 0 5.8-1.9 5.8-4.4-.1-2.9-2.8-3.7-5.2-4.5m-16 .1h-2.8v-5.2h2.7c2.9 0 4.6.9 4.6 2.6.1 2.2-2.8 2.6-4.5 2.6m3.6 1c2.1-.8 3.2-2 3.2-3.7 0-1-.5-4.2-6.5-4.2h-5.1v15.6h2.1v-7.2h2.2c2.1 0 2.7.1 5 3l3.4 4.2h2.5l-4.7-5.7c-.8-.9-1.5-1.5-2.1-2m-19.8.7h8.5v-1.6h-8.5v-5.4h8.8v-1.6H82.7v15.6h11.1v-1.6h-9v-5.4zm-11.3 1.2h4V89c-1.5.6-2.9.8-4.8.8-5.8 0-8.4-3.2-8.4-6.3 0-3.6 3.3-6.3 8-6.3 2.2 0 4.3.5 6.5 1.5l.5.2v-2l-.3-.1c-2.7-1-4.4-1.3-6.5-1.3-6 0-10.4 3.3-10.4 8 0 4.6 4.5 8.1 10.5 8.1 2.3 0 4.5-.4 6.8-1.3l.2-.1v-6.3h-6.1v1.6zm-23.7 4.3c-4.5 0-8.1-2.8-8.1-6.3s3.5-6.3 8.1-6.3c4.5 0 8 2.8 8 6.3s-3.5 6.3-8 6.3m-.1-14.3c-5.7 0-10.2 3.5-10.2 8s4.5 8 10.2 8c5.8 0 10.3-3.5 10.3-8s-4.5-8-10.3-8m-20.3 7.1h-2.8v-5.2h2.7c2.9 0 4.6.9 4.6 2.6.1 2.2-2.8 2.6-4.5 2.6m3.6 1c2.1-.8 3.2-2 3.2-3.7 0-1-.5-4.2-6.5-4.2h-5.1v15.6h2.1v-7.2h2.2c2.1 0 2.7.1 5 3l3.4 4.2h2.5l-4.7-5.7c-.8-.9-1.4-1.5-2.1-2m-18.4-6.3h-1.9v5.3H6.1v1.6h6.6v5.3h1.9v-5.3h6.6v-1.6h-6.6v-5.3z"/></svg>