<svg id="Layer_1" xmlns="http://www.w3.org/2000/svg" viewBox="0 0 128 128"><style>.st0{fill:#AAA}</style><path class="st0" d="M0 38.4h5.4l2.8 13.5h.1l3.1-13.5h4.1l3 13.6h.1l2.8-13.6h5.4l-5.5 20.8h-4.7l-3.1-13.5h-.1l-3.1 13.5H5.4L0 38.4zM28.4 44.6c.3-.7.7-1.5 1.3-2.2.5-.7 1.2-1.4 2-2.1.8-.7 1.8-1.3 3-1.7 1.2-.4 2.5-.6 3.9-.6 3.1 0 5.8 1.1 7.9 3.2 2.1 2.1 3.1 4.7 3.1 7.6 0 3-1 5.5-3.1 7.6-2.1 2.1-4.7 3.2-7.9 3.2-2.1 0-4-.5-5.7-1.5-1.7-1-3-2.3-3.9-3.9-.9-1.6-1.3-3.3-1.3-5.1-.2-1.7.1-3.2.7-4.5zm4.5 4.1c0 1.7.5 3.1 1.6 4.4 1 1.2 2.4 1.8 4.2 1.8 1.7 0 3.1-.6 4.1-1.9 1-1.3 1.5-2.7 1.5-4.2s-.5-2.9-1.5-4.2c-1-1.3-2.4-1.9-4.1-1.9-1.7 0-3.1.6-4.1 1.8-1.2 1.2-1.7 2.6-1.7 4.2zM52.4 59.2V38.4H59c1.8 0 3.1.1 4 .3.9.2 1.7.6 2.4 1.2.8.7 1.5 1.5 1.9 2.5.4 1 .7 2.1.7 3.2 0 .7-.1 1.3-.3 2-.2.7-.5 1.3-.8 2-.4.6-.9 1.2-1.6 1.7-.7.5-1.5.8-2.5.9l5.6 7.1h-6.1l-4.8-6.7h-.1v6.7h-5zm5.1-16.1v5.8h1.9c.7 0 1.3-.1 1.9-.3.5-.2.9-.5 1.1-.8.2-.3.4-.7.4-.9.1-.3.1-.6.1-.9 0-.9-.3-1.6-.9-2.1-.6-.5-1.5-.7-2.5-.7h-2zM70.9 59.2V38.4h5.3v16.1h6.2v4.7H70.9zM84.1 59.2V38.4H92.3c.3 0 .8.1 1.5.1.6.1 1.2.2 1.7.3.5.2 1 .4 1.6.7.6.3 1.1.6 1.7 1.1.5.5 1 1 1.4 1.6 1.3 1.7 1.9 3.9 1.9 6.5 0 1.5-.2 2.8-.6 4-.4 1.2-1 2.3-1.8 3.3s-1.9 1.7-3.3 2.3c-1.4.5-3.1.8-5 .8h-7.3zm5.3-16.1v11.5h2.3c1 0 1.8-.2 2.5-.5s1.2-.7 1.6-1.3c.4-.6.6-1.2.8-1.8.2-.6.3-1.4.3-2.2 0-1.5-.3-2.8-1-3.9-.8-1.3-2.2-1.9-4-1.9h-2.5zM110.2 38.4v5.9c0 1.2-.3 2.1-.9 2.6-.6.5-1.3.8-1.9.8h-2v-2.5h1c.4 0 .8-.1.9-.4.2-.2.3-.5.3-.7v-1h-2.2v-4.8h4.8zM127.5 44.5h-5.3c0-.3-.1-.5-.1-.6 0-.1-.1-.4-.3-.6-.1-.3-.3-.4-.6-.6-.3-.1-.6-.2-1-.2-.5 0-.9.2-1.3.5s-.5.7-.5 1.2c0 .6.2 1.1.7 1.4.5.3 1.7.9 3.6 1.8 1.8.8 3.1 1.7 3.8 2.6.7.9 1.1 2 1.1 3.3 0 .8-.1 1.6-.4 2.3-.3.7-.6 1.4-1.2 2-.5.6-1.3 1.1-2.3 1.5-1 .4-2.1.6-3.4.6-1.1 0-2.2-.1-3.1-.4-.9-.3-1.6-.7-2.2-1.1-.5-.4-1-1-1.3-1.6-.3-.6-.6-1.2-.7-1.8-.1-.6-.2-1.1-.2-1.7v-.7h5.3c0 1 .2 1.8.7 2.2.5.4 1 .6 1.5.6.6 0 1.1-.2 1.5-.6.4-.4.6-.9.6-1.4 0-.6-.2-1.1-.7-1.4-.5-.3-1.6-.9-3.4-1.6-.5-.2-.8-.3-1.1-.5-.3-.1-.7-.4-1.3-.7-.6-.4-1-.7-1.3-1.1-.3-.4-.6-.9-.9-1.5-.3-.6-.4-1.3-.4-2.1 0-1.2.4-2.3 1.1-3.3.7-1 1.7-1.7 2.7-2.1 1.1-.5 2.2-.7 3.4-.7 1.1 0 2.1.2 3.1.6 1 .4 1.8 1 2.5 1.8.9.8 1.3 2.2 1.4 3.9z"/><g><path class="st0" d="M2.4 89.6v-23h2.3v20.9h9.5v2.1H2.4zM16.6 89.6v-23h2.3v23h-2.3zM31.4 79H47c-.2 2.2-.9 4.1-2.1 5.8-1.2 1.7-2.7 3-4.5 3.8-1.8.9-3.6 1.3-5.5 1.3-3.4 0-6.3-1.2-8.7-3.5-2.4-2.4-3.6-5.1-3.6-8.4 0-2 .5-3.9 1.5-5.7 1-1.8 2.5-3.3 4.4-4.4 1.9-1.2 4.1-1.7 6.4-1.7 1.4 0 2.8.2 4.1.7 1.3.5 2.4 1 3.3 1.7.9.7 1.6 1.4 2.2 2.1.6.7 1 1.4 1.3 2H43c-.7-1.2-1.8-2.3-3.3-3.1-1.5-.9-3.1-1.3-4.9-1.3-2.8 0-5.2 1-7.2 3-1.9 2-2.9 4.3-2.9 6.9 0 2.6 1 4.9 2.9 6.9 1.9 1.9 4.3 2.9 7.2 2.9 2.3 0 4.3-.7 6-2.1 1.7-1.4 2.8-3 3.2-4.7H31.4V79zM50.7 89.6v-23H53v10.1h11.9V66.6h2.3v23h-2.3V78.8H53v10.8h-2.3zM75.1 89.6V68.7h-5.3v-2.1h12.8v2.1h-5.3v20.9h-2.2zM85 89.6v-23h12.6v2.1H87.3V77h9.9v2h-9.9v8.5h10.3v2.1H85zM100.2 83.2h2.3c.1 1.5.5 2.6 1.4 3.5.9.9 2 1.3 3.4 1.3 1.2 0 2.3-.4 3.2-1.3.9-.9 1.4-2 1.4-3.3 0-.8-.2-1.5-.5-2.1-.3-.6-.8-1.1-1.4-1.5-.6-.4-1.1-.6-1.5-.8-.4-.2-.9-.3-1.5-.5-.1 0-.2 0-.2-.1-1.7-.5-2.9-1-3.5-1.4-1.6-1-2.5-2.6-2.5-4.7 0-1.8.6-3.3 1.9-4.4 1.2-1.2 2.8-1.8 4.6-1.8 1.8 0 3.4.6 4.6 1.8 1.2 1.2 1.8 2.7 1.8 4.4h-2.3c0-1.2-.4-2.1-1.2-3-.8-.8-1.8-1.2-2.9-1.2-1.3 0-2.3.4-3 1.2-.8.8-1.1 1.7-1.1 2.8 0 .5.1.9.2 1.2.1.4.3.7.6 1 .3.3.6.5.8.7.2.2.6.4 1.2.6.5.2 1 .4 1.2.4.3.1.8.2 1.5.4.9.2 1.7.5 2.4.9s1.2.8 1.6 1.3c.4.5.7.9.9 1.3.2.4.4.9.5 1.3.1.5.2.8.2 1v.7c0 1.8-.7 3.4-2 4.7-1.3 1.3-3 2-5 2-.8 0-1.6-.1-2.4-.4-.8-.2-1.5-.6-2.3-1.1-.7-.5-1.3-1.2-1.8-2.1-.4-.6-.6-1.6-.6-2.8zM120.4 89.6V68.7h-5.3v-2.1H128v2.1h-5.3v20.9h-2.3z"/></g></svg>