<svg id="Layer_1" xmlns="http://www.w3.org/2000/svg" viewBox="0 0 128 128"><style>.st0{fill:#343434}</style><path class="st0" d="M57.2 70.9h4.6c.4 0 .7 0 1 .1.3.1.6.2.8.3.2.2.4.3.5.6.1.2.2.5.2.7 0 .4-.2.8-.6 1-.2.1-.3.2-.5.3-.2.1-.5.2-.8.3.4.1.8.2 1.1.3.8.4 1.1.9 1.1 1.5 0 .4-.1.7-.3.9-.2.3-.6.5-1 .6-.4.1-.9.2-1.5.2h-4.6v-.2h.2c.4 0 .7-.1.9-.3.2-.2.3-.5.3-1v-4.1c0-.4-.1-.8-.3-1-.2-.2-.5-.3-.9-.3h-.2v.1zm2.7.2v3.1h1.4c1.1 0 1.7-.5 1.7-1.6 0-.5-.1-.9-.4-1.1-.2-.2-.6-.3-1.1-.3h-1.6zm0 3.2v3.4h1.4c.6 0 1.1-.2 1.4-.4.3-.3.5-.7.5-1.3 0-.5-.1-.8-.4-1.1-.2-.2-.4-.4-.7-.5-.3-.1-.7-.1-1.2-.1h-1zm5.8-3.4h4v.2h-.5c-.2 0-.3 0-.4.1-.1.1-.2.2-.2.3v.2c0 .1.1.2.3.4l1.6 2.4 1.4-2c.2-.3.3-.5.3-.7 0-.2-.1-.4-.2-.5-.2-.1-.4-.2-.6-.2H71v-.2h3.2v.2c-.2 0-.4.1-.6.1-.2.1-.3.1-.5.2-.1.1-.3.2-.4.4-.2.2-.3.4-.4.6l-1.6 2.3v1.7c0 .4.1.7.3 1 .2.2.5.3.9.3h.4v.2h-4.5v-.2h.4c.4 0 .7-.1.9-.3.2-.2.3-.5.3-1v-1.5l-2-2.9c-.2-.4-.5-.6-.7-.8-.2-.1-.5-.2-.9-.2h-.1v-.1zM1.8 83.3h4.3v.2H6c-.8 0-1.2.4-1.2 1.3v3.4c0 .6-.2 1.2-.5 1.5-.2.2-.5.4-.9.6-.3.1-.7.2-1.1.2-.4 0-.7-.1-1-.2-.3-.1-.5-.3-.7-.5-.1-.1-.2-.3-.3-.5-.1-.2-.1-.3-.1-.5 0-.3.1-.5.2-.7s.4-.3.6-.3.4.1.6.2c.1.2.2.4.2.6 0 .4-.2.7-.6.8-.1 0-.2.1-.2.2s.1.2.3.3c.2.1.5.2.8.2.3 0 .5-.1.7-.2.2-.1.3-.3.5-.5.1-.2.2-.5.2-.7v-4.1c0-.9-.4-1.3-1.2-1.3h-.5zm5.2 0h4.4v.2h-.5c-.4 0-.7.1-.9.3-.2.2-.3.5-.3 1v3.5c0 .4.1.7.3 1 .2.3.4.5.7.7.3.2.7.2 1.1.2.4 0 .7-.1 1.1-.2.3-.1.6-.3.8-.5.4-.4.5-1 .5-1.7v-2.5c0-.8-.2-1.3-.6-1.6-.1-.1-.2-.1-.4-.2-.1 0-.3-.1-.6-.1v-.2h3v.2c-.2 0-.3 0-.4.1-.1 0-.2.1-.3.2-.2.1-.3.3-.4.6-.1.2-.1.5-.1.8V88c0 .7-.2 1.3-.5 1.7-.2.2-.4.4-.6.5-.5.2-1.1.3-1.7.3-.5 0-.9-.1-1.3-.2s-.7-.3-1-.4c-.5-.4-.7-.9-.7-1.6v-3.4c0-.9-.4-1.3-1.1-1.3H7v-.3zm9.3 0h4.3v.2h-.5c-.4 0-.7.1-.9.3-.2.2-.2.5-.2 1v5.3h1.6c.3 0 .6-.1.9-.2.3-.2.5-.4.7-.7.1-.2.2-.3.3-.5l.3-.6c.1-.2.2-.5.3-.8h.2v3.1h-7v-.2h.2c.8 0 1.1-.4 1.1-1.3v-4.1c0-.9-.4-1.3-1.1-1.3h-.2v-.2zm8 6.8h.2c.4 0 .7-.1.9-.3.2-.2.3-.5.3-1v-4.1c0-.2-.1-.4-.1-.5-.1-.1-.1-.2-.2-.3-.2-.2-.5-.3-.8-.3h-.2v-.2h4v.2h-.2c-.4 0-.7.1-.9.3-.2.2-.3.5-.3 1V89c0 .4.1.7.3 1 .2.2.5.3.9.3h.2v.2h-4v-.4zm4.8-6.8h6.7V86h-.1c-.1-.5-.2-.8-.3-1.1-.1-.2-.2-.5-.4-.7-.2-.2-.4-.4-.6-.5-.4-.2-.8-.3-1.3-.3h-1.2v3.3h.3c.5 0 .9-.2 1.2-.7.2-.2.3-.5.3-.9 0-.1.1-.4.1-.6h.2v4.6h-.2c0-.3-.1-.5-.1-.7 0-.2-.1-.4-.2-.5-.1-.1-.1-.3-.2-.4-.4-.3-.8-.5-1.3-.5h-.3v3.1h1c.3 0 .6 0 .8-.1.2 0 .5-.1.7-.2.2-.1.4-.2.6-.4.3-.3.5-.6.7-1 .1-.2.2-.6.3-1h.2v2.9h-6.8v-.2h.2c.8 0 1.1-.4 1.1-1.3v-4.1c0-.4-.1-.8-.3-1-.2-.2-.5-.3-.9-.3h-.2v-.1zm7.9 0h2.5l4.4 5v-3c0-.4-.1-.7-.2-1-.1-.3-.3-.5-.5-.6-.1-.1-.2-.1-.3-.2-.1 0-.3-.1-.5-.1v-.2h3.1v.2h-.1c-.5 0-.8.2-1 .5-.2.3-.4.8-.4 1.4v5h-.2l-5.4-6.2v4.1c0 .4 0 .7.1 1 .1.2.2.4.4.6.2.1.4.2.6.2h.5v.2h-3.3V90c.3 0 .6-.1.8-.2.2-.1.4-.3.5-.5.1-.2.1-.5.1-.8v-3.9c0-.2 0-.5-.1-.6-.1-.2-.2-.3-.4-.4-.2-.1-.4-.1-.7-.1h.1v-.2zm12.2 0h2.6l2.4 5.3 2.3-5.3H59v.2h-.2c-.4 0-.7.1-.9.3-.2.2-.3.5-.3 1v4.1c0 .4.1.7.3 1 .2.2.5.3.9.3h.2v.2h-4.1v-.2h.3c.4 0 .7-.1.9-.3.2-.2.3-.5.3-1v-4.7l-2.7 6.2h-.2l-2.7-6.2v4.5c0 .3.1.6.2.8.1.2.3.4.5.5.2.1.5.2.8.2v.2h-3v-.2h.1c.4 0 .7-.1 1-.4.2-.3.3-.6.3-1.1v-3.9c0-.4-.1-.8-.3-1-.2-.2-.5-.3-.9-.3h-.2v-.2zm14.1-.1h.2l2.5 6.1c.1.2.2.3.3.5l.3.3c.1.1.3.1.4.1h.2v.2h-3.6v-.2h.5c.2 0 .4 0 .5-.1.1-.1.2-.2.2-.3 0-.1 0-.2-.1-.3 0-.1-.1-.4-.3-.7v-.1s0-.1-.1-.1l-.1-.3h-2.7l-.2.5c-.1.2-.1.3-.1.5s0 .3.1.5c.1.1.2.3.3.3.1.1.2.1.2.1h.3v.2h-2.6v-.2c.2 0 .3-.1.4-.1.1 0 .2-.1.4-.2.3-.3.6-.8.9-1.5l2.1-5.2zm-.4 1.6l-1.2 3.1h2.5l-1.3-3.1zm11.9 3h.2c-.1.3-.1.5-.2.7-.1.2-.2.4-.4.6-.6.8-1.4 1.2-2.4 1.2-.6 0-1.2-.2-1.8-.5-.6-.3-1-.8-1.3-1.3-.3-.6-.5-1.2-.5-1.8 0-.4.1-.8.2-1.1.1-.4.3-.7.6-1.1.2-.3.5-.6.9-.8.5-.4 1.1-.5 1.7-.5.2 0 .4 0 .6.1.2 0 .4.1.5.2.2.1.3.2.5.4s.4.2.4.2c.2 0 .5-.2.8-.7h.2l.1 3.4h-.2c0-.2-.1-.4-.1-.6 0-.2-.1-.3-.2-.5-.2-.5-.4-.9-.7-1.2-.3-.3-.6-.6-.9-.8-.3-.2-.7-.3-1-.3-.4 0-.8.1-1 .4-.3.2-.5.6-.6 1.2-.1.5-.2 1.2-.2 2 0 .5 0 .9.1 1.2 0 .4.1.7.2.9.1.2.2.5.4.6.2.2.4.4.6.5.3.1.5.2.8.2.3 0 .5 0 .8-.1.3-.1.5-.2.7-.4l.6-.6c.2-.2.3-.4.4-.6 0-.3.1-.5.2-.9zm1.2-4.5h4.2c.7 0 1.3.1 1.8.3.5.2.9.5 1.3.9.3.3.6.7.7 1.1.2.4.3.9.3 1.3 0 .5-.1.9-.3 1.4-.2.4-.4.8-.8 1.1-.3.3-.7.5-1.2.7-.5.2-1 .2-1.5.2H76v-.2h.2c.4 0 .7-.1.9-.3.2-.2.3-.5.3-1v-4.1c0-.4-.1-.8-.3-1-.2-.2-.5-.3-.9-.3H76v-.1zm2.7.2v6.6h1.2c.3 0 .6 0 .9-.1.2 0 .4-.1.6-.2.2-.1.3-.2.5-.4.5-.6.7-1.4.7-2.6 0-.4 0-.7-.1-1.1-.1-.3-.1-.6-.3-.9-.1-.3-.3-.5-.4-.7-.1-.2-.3-.3-.5-.4-.2-.1-.4-.2-.6-.2-.2 0-.5-.1-.9-.1h-1.1zm10.7-.3c.6 0 1.1.1 1.6.3.5.2.9.5 1.3.9.3.3.5.7.7 1.1.2.4.2.8.2 1.3 0 .7-.2 1.3-.5 1.8-.3.6-.8 1-1.4 1.3-.6.3-1.2.5-1.9.5-.5 0-1-.1-1.5-.3-.5-.2-.9-.4-1.2-.8-.3-.3-.6-.7-.8-1.2-.2-.4-.3-.9-.3-1.4 0-.6.2-1.2.5-1.8.3-.6.8-1 1.4-1.3.6-.3 1.2-.4 1.9-.4zm.1.2c-.3 0-.5.1-.8.2-.2.1-.4.3-.6.4-.2.2-.3.5-.5.7-.1.3-.2.6-.3 1-.1.4-.1.7-.1 1.1 0 .5 0 1 .2 1.4.1.4.2.8.4 1.1.2.3.4.5.7.7.3.2.6.2.9.2.4 0 .8-.1 1.2-.4.3-.3.6-.7.8-1.2.2-.5.3-1.1.3-1.9 0-.5 0-.9-.1-1.3s-.2-.8-.4-1.1c-.2-.3-.4-.5-.7-.7-.1-.1-.3-.2-.4-.2h-.6zm4.9-.1h2.5l4.4 5v-3c0-.4-.1-.7-.2-1-.1-.3-.3-.5-.5-.6-.1-.1-.2-.1-.3-.2-.1 0-.3-.1-.5-.1v-.2h3.1v.2h-.1c-.5 0-.8.2-1 .5-.2.3-.4.8-.4 1.4v5h-.1l-5.4-6.2v4.1c0 .4 0 .7.1 1 .1.2.2.4.4.6.2.1.4.2.6.2h.5v.2h-3.3V90c.3 0 .6-.1.8-.2.2-.1.4-.3.5-.5.1-.2.2-.5.2-.8v-3.9c0-.2 0-.5-.1-.6-.1-.2-.2-.3-.4-.4-.2-.1-.4-.1-.7-.1h-.1v-.2zm12.7-.1h.2l2.5 6.1c.1.2.2.3.3.5l.3.3c.1.1.3.1.4.1h.2v.2h-3.6v-.2h.5c.2 0 .4 0 .5-.1.1-.1.2-.2.2-.3 0-.1 0-.2-.1-.3 0-.1-.1-.4-.3-.7v-.1s0-.1-.1-.1l-.1-.3h-2.7l-.2.5c-.1.2-.1.3-.1.5s0 .3.1.5c.1.1.2.3.3.3.1.1.2.1.2.1h.3v.2h-2.6v-.2c.2 0 .3-.1.4-.1.1 0 .2-.1.4-.2.3-.3.6-.8.9-1.5l2.1-5.2zm-.4 1.6l-1.2 3.1h2.5l-1.3-3.1zm5-1.5h4.3v.2h-.4c-.4 0-.7.1-.9.3-.2.2-.3.5-.3 1v5.3h1.6c.3 0 .6-.1.9-.2.3-.2.5-.4.7-.7.1-.2.2-.3.3-.5l.3-.6c.1-.2.2-.5.3-.8h.2v3.1h-7v-.2h.2c.8 0 1.1-.4 1.1-1.3v-4.1c0-.9-.4-1.3-1.1-1.3h-.2v-.2zm7.8 0h4.2c.7 0 1.3.1 1.8.3.5.2.9.5 1.3.9.3.3.6.7.7 1.1.2.4.3.9.3 1.3 0 .5-.1.9-.3 1.4-.2.4-.4.8-.8 1.1-.3.3-.7.5-1.2.7-.5.2-1 .2-1.5.2h-4.5v-.2h.2c.4 0 .7-.1.9-.3.2-.2.3-.5.3-1v-4.1c0-.4-.1-.8-.3-1-.2-.2-.5-.3-.9-.3h-.2v-.1zm2.7.2v6.6h1.2c.3 0 .6 0 .9-.1.2 0 .5-.1.6-.2.2-.1.3-.2.5-.4.5-.6.7-1.4.7-2.6 0-.4 0-.7-.1-1.1l-.3-.9c-.1-.3-.3-.5-.4-.7-.2-.2-.3-.3-.5-.4-.2-.1-.4-.2-.6-.2-.2 0-.5-.1-.9-.1h-1.1zM0 38.1h17.5v.7h-1.9c-1.6 0-2.7.4-3.5 1.2-.8.8-1.1 2-1.1 3.7v20.5h6.6c1.3 0 2.5-.3 3.7-.9 1.2-.6 2.2-1.5 3-2.5.5-.7 1-1.3 1.4-2 .4-.7.8-1.5 1.1-2.4.4-.9.7-2 1-3.3h.7v11.8H0v-.7h1c3.1 0 4.7-1.6 4.7-4.9V43.7c0-3.2-1.6-4.9-4.7-4.9H0v-.7zm47.7-.5c2.4 0 4.6.4 6.6 1.2 2 .8 3.7 2 5.2 3.5 1.2 1.3 2.2 2.8 2.9 4.4.7 1.6 1 3.2 1 4.9 0 2.5-.7 4.8-2 7-1.4 2.1-3.2 3.8-5.6 5-2.3 1.2-4.9 1.9-7.7 1.9-2.1 0-4.1-.4-6-1.1-1.9-.7-3.5-1.7-5-3-1.4-1.3-2.5-2.8-3.4-4.5-.8-1.7-1.2-3.5-1.2-5.4 0-2.5.7-4.8 2.1-6.9 1.4-2.1 3.2-3.8 5.6-5.1 2.3-1.3 4.8-1.9 7.5-1.9zm.5.6c-1.1 0-2.2.2-3.2.6-1 .4-1.8 1-2.5 1.7-.7.8-1.4 1.8-1.9 2.9-.5 1.1-.9 2.3-1.2 3.7-.3 1.4-.4 2.8-.4 4.4 0 2 .2 3.8.6 5.4.4 1.6 1 3 1.8 4.2.8 1.2 1.7 2.1 2.8 2.7 1.1.6 2.3.9 3.6.9 1.8 0 3.4-.5 4.7-1.6 1.3-1.1 2.4-2.6 3.1-4.6.7-2 1.1-4.4 1.1-7.2 0-1.8-.2-3.5-.6-5-.4-1.6-1-2.9-1.7-4.1-.5-1.2-1.4-2.1-2.4-2.8-.5-.4-1.1-.6-1.8-.9-.7-.1-1.4-.3-2-.3zm18.5-.1h15v.7h-1.8c-.8 0-1.5.2-2 .5-.5.4-.7.9-.7 1.5s.2 1.3.5 2.2l7 16 5.9-13.8c.5-1.1.7-2 .7-2.7 0-1.1-.3-2-1-2.6-.7-.7-1.6-1-2.7-1.1v-.7H98v.7c-1 .1-1.9.4-2.6.9-.8.5-1.5 1.2-2.1 2.1-.6.9-1.3 2.1-1.9 3.6l-8.5 20h-.6l-9.9-22.6c-1.2-2.7-2.7-4-4.6-4h-.9v-.7zm33.3 0h27.3v10.4h-.5c-.5-1.8-1-3.2-1.3-4.1-.4-.9-.9-1.8-1.6-2.6-.8-1-1.6-1.6-2.5-2.1-1.5-.7-3.3-1-5.5-1h-5.1v12.7h1.4c2 0 3.6-.9 4.8-2.7.6-.9 1.1-2 1.4-3.3.1-.5.3-1.4.4-2.4h.6v17.6h-.6c-.1-.9-.3-1.8-.5-2.7-.2-.8-.4-1.5-.7-2-.2-.5-.6-1-1-1.6-1.1-1.4-2.7-2.1-4.7-2.1h-1.1v12h4.2c1.3 0 2.4-.1 3.4-.3 1-.2 1.9-.5 2.7-.9.8-.4 1.5-.9 2.2-1.5 1.2-1.1 2.1-2.4 2.8-4 .4-.9.8-2.1 1.2-3.7h.7v11h-27.9v-.7h.7c3.1 0 4.7-1.6 4.7-4.9V43.7c0-1.7-.4-2.9-1.1-3.7-.8-.8-1.9-1.2-3.5-1.2h-.9v-.7z"/></svg>