<svg id="Layer_1" xmlns="http://www.w3.org/2000/svg" viewBox="0 0 128 128"><style>.st0{fill:#fce8ef}.st1{fill:#a6a8ab}</style><path class="st0" d="M0 4.2h128v119.6H0z"/><path class="st1" d="M19.6 27.2v12.5c1.6.3 2.8.4 3.6.4 1.8 0 3.2-.7 4.2-2s1.5-2.8 1.5-4.4c0-2.2-.6-4-1.8-5.2-1.2-1.2-2.7-1.8-4.6-1.8-.7.1-1.7.3-2.9.5m0 13.8v8.7c0 2 .3 3.2.8 3.7.6.5 1.3.8 2.3.8H24v.8H11.1v-.8h1.1c1.3 0 2.1-.3 2.5-.9.4-.6.6-1.8.6-3.6V30.3c0-2-.3-3.3-.8-3.7-.6-.5-1.3-.7-2.3-.7h-1.1V25h11c4.2 0 7.2.8 9 2.4C33 29.1 34 31 34 33.3c0 2.6-.8 4.6-2.5 6.1s-3.9 2.2-6.8 2.2c-1.4 0-3.1-.2-5.1-.6M58 55H48v-.8h.5c.7 0 1.3-.1 1.8-.4.5-.3.7-.6.9-.9.1-.4.2-1.2.2-2.5v-7.2c0-2.3-.2-3.9-.7-4.9-.4-1-1.3-1.5-2.6-1.5-1.6 0-3.3 1-5.1 2.9v10.7c0 1.5.2 2.5.6 3 .4.5 1.3.7 2.6.7v.9h-10v-.8c1.2 0 2-.2 2.4-.7.4-.5.6-1.5.6-3.1V32.1c0-2.3-.1-3.8-.3-4.6-.2-.7-.6-1.1-1.3-1.1-.3 0-.8.1-1.5.4l-.3-.8 6.1-2.5h1v14.8c2.6-2.8 4.8-4.2 6.8-4.2 1.3 0 2.3.4 3.2 1.1.8.7 1.4 1.7 1.6 2.9.3 1.2.4 2.9.4 5.1v7.2c0 1.4.2 2.4.5 3 .3.5 1.2.8 2.5.8v.8zM67 25.8c0 1.5-.7 2.3-2.2 2.3-1.5 0-2.3-.8-2.3-2.3 0-1.5.8-2.2 2.3-2.2 1.5 0 2.2.7 2.2 2.2M69.7 55h-9.8v-.8c1.2 0 2.1-.2 2.5-.7.4-.5.6-1.5.6-3v-7.8c0-2.3-.1-3.9-.2-4.5-.2-.7-.6-1-1.3-1-.4 0-.9.1-1.5.3l-.3-.8 6.1-2.5h1v16.3c0 1.5.2 2.5.6 3 .4.5 1.2.7 2.5.7v.8zM82.5 55h-9.9v-.8c1.2 0 2-.2 2.4-.7.4-.5.6-1.5.6-3V32c0-2.3-.1-3.8-.3-4.5-.2-.7-.6-1.1-1.2-1.1-.4 0-.9.1-1.5.4l-.4-.8 6-2.5h1v26.9c0 1.5.2 2.5.7 3 .4.5 1.3.7 2.6.7v.9zM92.2 25.8c0 1.5-.7 2.3-2.2 2.3-1.5 0-2.3-.8-2.3-2.3 0-1.5.8-2.2 2.3-2.2 1.5 0 2.2.7 2.2 2.2M94.9 55h-9.8v-.8c1.2 0 2.1-.2 2.5-.7.4-.5.6-1.5.6-3v-7.8c0-2.3-.1-3.9-.2-4.5-.2-.7-.6-1-1.3-1-.4 0-.9.1-1.5.3l-.3-.8 6.1-2.5h1v16.3c0 1.5.2 2.5.6 3 .4.5 1.2.7 2.5.7v.8zM103.1 40.3v7.6c0 1.5.1 2.7.3 3.5.2.8.6 1.5 1.4 2.1.8.6 1.8.9 3.1.9 1.1 0 2.1-.3 2.8-1 .8-.6 1.4-1.6 1.8-2.8.5-1.2.7-2.6.7-4.3 0-2.7-.5-4.9-1.5-6.5-1-1.6-2.3-2.4-3.9-2.4-.6 0-1.1.1-1.8.4-.6.2-1.6 1-2.9 2.5m0 13.6V60c0 1.6.2 2.6.7 3.1.4.5 1.4.7 2.8.7v.8H95.9v-.8h.6c1.1 0 1.8-.2 2.3-.6.4-.4.7-1.6.7-3.4V40.7c0-1.3-.1-2.2-.4-2.8-.2-.5-.7-.8-1.4-.8-.4 0-.8.1-1.4.3l-.3-.6 6.3-2.5h.8V39c1.9-3.2 4.1-4.8 6.5-4.8 2.2 0 4 .9 5.4 2.8 1.4 1.9 2.1 4.3 2.1 7.2 0 3.2-.9 6-2.6 8.2-1.7 2.2-3.9 3.3-6.6 3.3-1.9 0-3.5-.6-4.8-1.8"/><g><path class="st1" d="M58 89.6v-9.7h2.5c.5 0 1 .1 1.3.2.4.1.7.3.9.5.2.2.4.4.5.7.1.3.2.5.2.7v.5c0 .3-.1.6-.2.9-.1.3-.2.5-.3.6l-.4.4c.9.6 1.4 1.3 1.4 2.4 0 .2 0 .5-.1.7 0 .2-.1.5-.3.7-.1.3-.3.5-.6.7-.2.2-.5.4-.9.5-.4.1-.8.2-1.3.2H58zm1.3-8.4V84h1.1c.6 0 1-.1 1.2-.4.2-.3.3-.6.3-1 0-.9-.5-1.4-1.6-1.4h-1zm0 4.1v3.1h1.5c.6 0 1.1-.2 1.3-.5.3-.3.4-.7.4-1 0-.3-.1-.7-.3-1-.1-.2-.3-.3-.5-.4-.2-.1-.4-.2-.5-.2h-1.9zM68.8 89.6h-1.4v-3.5l-3-6.2H66l2.1 4.5 2.1-4.5h1.5l-2.9 6.2v3.5zM17.2 101.5v3.8h-1.4v-9.7h2.8c1.1 0 1.9.3 2.5.8.6.5.8 1.2.8 2.1s-.3 1.6-.8 2.1c-.6.5-1.4.8-2.5.8h-1.4zm0-4.6v3.3h1.4c.7 0 1.2-.2 1.5-.5.3-.3.5-.7.5-1.2 0-.4-.1-.8-.5-1.2-.3-.3-.8-.5-1.5-.5h-1.4zM29.2 105.3h-1.3v-3.9c0-1.5-.6-2.3-1.8-2.3-.6 0-1 .2-1.4.6-.3.4-.5.9-.5 1.7v4h-1.3v-9.7h1.3v3.2c.4-.6 1.1-1 2-1 1.1 0 2 .4 2.5 1.3.3.5.4 1.1.5 1.9v4.2zM32.1 95.6v1.6h-1.3v-1.6h1.3zm0 2.5v7.2h-1.3v-7.2h1.3zM35 95.6v9.7h-1.3v-9.7H35zM37.9 95.6v1.6h-1.3v-1.6h1.3zm0 2.5v7.2h-1.3v-7.2h1.3zM39.5 107.7V98h1.2v1.1c.6-.9 1.4-1.3 2.5-1.3s2 .4 2.7 1.2c.7.8 1 1.7 1 2.7 0 1-.3 1.8-1 2.6s-1.5 1.1-2.6 1.1c-.7 0-1.2-.1-1.6-.4-.4-.3-.7-.5-.9-.9v3.5h-1.3zm6.2-6c0-.7-.2-1.3-.7-1.8s-1-.8-1.7-.8-1.3.3-1.7.8c-.4.5-.7 1.1-.7 1.8s.2 1.3.7 1.8c.5.5 1 .7 1.7.7s1.2-.2 1.7-.7c.4-.4.7-1.1.7-1.8zM59.2 105.3h-1.5l-1.1-2.9h-3.4l-1.1 2.9h-1.5l3.6-9.7h1.2l3.8 9.7zm-5.5-4.1h2.5L55 97.5l-1.3 3.7zM61.4 105.3h-1.3v-7.2h1.2v.7c.4-.5 1-.8 1.8-.9v1.4c-.3 0-.6.1-1 .3-.5.3-.8.9-.8 1.8v3.9zM75.2 105.3h-1.3v-4c0-1.4-.6-2.2-1.7-2.2-.2 0-.3 0-.5.1-.2 0-.3.1-.4.1-.1.1-.2.1-.3.2-.1.1-.2.2-.2.3-.1.1-.1.2-.1.3 0 .1-.1.3-.1.3v4.8h-1.3v-4c0-.6-.1-1.1-.3-1.5-.3-.5-.7-.7-1.3-.7-1.2 0-1.8.7-1.8 2.2v4h-1.3V98h1.2v.8l.1-.1c0-.1.1-.1.1-.1l.1-.1.1-.1s.1-.1.2-.1c.1-.1.1-.1.2-.1s.1-.1.2-.1.2-.1.3-.1c.1 0 .2 0 .3-.1h.4c.5 0 .9.1 1.3.3.4.2.7.5.9.9.1-.1.2-.3.3-.4l.4-.4c.2-.2.4-.3.7-.4.3-.1.6-.1 1-.1 1.2 0 2 .4 2.5 1.3.3.5.4 1.1.4 1.8v4.4zM80.9 100h-1.3c-.1-.6-.4-.9-.9-.9-.2 0-.4.1-.6.2-.2.1-.2.3-.2.6 0 .2.1.4.2.5.1.1.2.2.4.3.1.1.3.1.6.2.1 0 .2.1.3.1.1 0 .2.1.4.1.2.1.3.1.4.2.1.1.2.2.4.3l.4.4c.1.1.2.3.2.5.1.2.1.4.1.7 0 .7-.2 1.2-.6 1.7-.4.4-1 .7-1.7.7-.2 0-.5 0-.8-.1-.3-.1-.5-.2-.8-.4-.3-.2-.5-.4-.7-.8-.2-.4-.3-.8-.3-1.2h1.3c0 .4.1.7.3 1 .2.2.5.4.9.4.3 0 .6-.1.7-.3.2-.2.3-.4.3-.7 0-.3-.1-.5-.3-.7-.2-.1-.5-.3-.9-.5 0 0-.1 0-.1-.1-.3-.1-.5-.2-.6-.3-.2-.1-.3-.2-.6-.4-.2-.2-.4-.4-.5-.6-.1-.3-.2-.6-.2-.9 0-.6.2-1 .6-1.5.4-.4 1-.6 1.6-.6.3 0 .6.1.9.2.3.1.6.4.9.7.1.3.2.7.2 1.2zM83.8 99.3v6h-1.3v-6h-1v-1.2h1v-2.4h1.3v2.4H85v1.2h-1.2zM87.1 105.3h-1.3v-7.2H87v.7c.4-.5 1-.8 1.8-.9v1.4c-.3 0-.6.1-1 .3-.5.3-.8.9-.8 1.8v3.9zM96.8 101.7c0 .6-.1 1.2-.4 1.8-.3.6-.7 1.1-1.4 1.5-.6.4-1.3.6-2.1.6-1.1 0-2.1-.4-2.8-1.2-.7-.8-1.1-1.7-1.1-2.7 0-1 .4-1.9 1.1-2.6.7-.8 1.7-1.1 2.7-1.1 1.1 0 2 .4 2.7 1.1.9.6 1.3 1.5 1.3 2.6zm-1.4 0c0-.7-.2-1.3-.7-1.8-.5-.5-1.1-.8-1.8-.8s-1.3.3-1.8.8-.7 1.1-.7 1.8.2 1.3.7 1.8c.5.5 1.1.8 1.8.8s1.3-.3 1.8-.8.7-1.1.7-1.8zM104.3 105.3H103v-3.9c0-1.5-.6-2.3-1.8-2.3-.6 0-1 .2-1.4.6-.3.4-.5.9-.5 1.7v4H98v-7.2h1.2v.8c.5-.6 1.2-1 2.1-1 1.1 0 2 .4 2.5 1.3.3.5.4 1.1.5 1.9v4.1zM113.2 98.1v6.3c0 1.2-.3 2.1-1 2.8-.7.7-1.6 1-2.8 1-.8 0-1.5-.2-2.1-.6-.6-.4-1.1-1-1.4-1.7h1.5c.5.7 1.2 1 2 1s1.4-.2 1.8-.6c.5-.4.7-1.1.7-1.9-.5.8-1.4 1.1-2.5 1.1-.7 0-1.4-.2-2-.6-.6-.4-1-.9-1.3-1.5-.3-.6-.4-1.2-.4-1.8 0-.4.1-.8.2-1.3.2-.4.4-.8.7-1.2.3-.4.7-.7 1.2-.9s1.1-.4 1.7-.4c.5 0 1 .1 1.4.3.4.2.8.4 1 .7V98h1.3zm-1.4 3.6c0-.5-.1-.9-.3-1.3-.2-.4-.4-.6-.7-.8-.3-.2-.5-.3-.8-.4-.3-.1-.5-.1-.7-.1-.7 0-1.3.3-1.8.8s-.7 1.1-.7 1.8.2 1.3.7 1.8c.5.5 1.1.8 1.7.8.4 0 .8-.1 1.1-.3.3-.2.6-.4.8-.7.2-.3.3-.5.4-.8.3-.3.3-.6.3-.8z"/></g></svg>