<svg id="Layer_1" xmlns="http://www.w3.org/2000/svg" viewBox="0 0 128 128"><metadata><?xpacket begin="﻿" id="W5M0MpCehiHzreSzNTczkc9d"?>
<x:xmpmeta xmlns:x="adobe:ns:meta/" x:xmptk="Adobe XMP Core 5.6-c111 79.158366, 2015/09/25-01:12:00        ">
   <rdf:RDF xmlns:rdf="http://www.w3.org/1999/02/22-rdf-syntax-ns#">
      <rdf:Description rdf:about=""
            xmlns:xmp="http://ns.adobe.com/xap/1.0/"
            xmlns:xmpMM="http://ns.adobe.com/xap/1.0/mm/"
            xmlns:stEvt="http://ns.adobe.com/xap/1.0/sType/ResourceEvent#">
         <xmp:Rating>4</xmp:Rating>
         <xmp:MetadataDate>2016-04-27T17:29:42+01:00</xmp:MetadataDate>
         <xmpMM:InstanceID>xmp.iid:097ba584-b529-4522-a5bb-63ec40351c39</xmpMM:InstanceID>
         <xmpMM:DocumentID>xmp.did:097ba584-b529-4522-a5bb-63ec40351c39</xmpMM:DocumentID>
         <xmpMM:OriginalDocumentID>xmp.did:097ba584-b529-4522-a5bb-63ec40351c39</xmpMM:OriginalDocumentID>
         <xmpMM:History>
            <rdf:Seq>
               <rdf:li>
                  <rdf:Description>
                     <stEvt:action>saved</stEvt:action>
                     <stEvt:instanceID>xmp.iid:097ba584-b529-4522-a5bb-63ec40351c39</stEvt:instanceID>
                     <stEvt:when>2016-04-27T17:29:42+01:00</stEvt:when>
                     <stEvt:softwareAgent>Adobe Bridge CC (Macintosh)</stEvt:softwareAgent>
                     <stEvt:changed>/metadata</stEvt:changed>
                  </rdf:Description>
               </rdf:li>
            </rdf:Seq>
         </xmpMM:History>
      </rdf:Description>
   </rdf:RDF>
</x:xmpmeta>
                                                                                                    
                                                                                                    
                                                                                                    
                                                                                                    
                                                                                                    
                                                                                                    
                                                                                                    
                                                                                                    
                                                                                                    
                                                                                                    
                                                                                                    
                                                                                                    
                                                                                                    
                                                                                                    
                                                                                                    
                                                                                                    
                                                                                                    
                                                                                                    
                                                                                                    
                                                                                                    
                           
<?xpacket end="w"?></metadata>
<style>.st0{fill:#55565a}</style><path class="st0" d="M23.9 72c-2.9.9-4.3 1.6-9 1.6C7.7 73.6 0 68 0 59.1 0 48.9 8.9 44 16.3 44c2.8 0 7.1 1 7.9 1.2v4.9c-.9-1.2-2.8-4.4-8.8-4.4-7.4 0-12.6 5.2-12.6 13 0 7.7 5.5 13.6 13.1 13.6 5.2 0 7.3-2.8 8.5-4.1l-.5 3.8zM42.8 72.9c.7-.9.9-1.4.9-3.6v-7H30.6v7c0 2.2.2 2.7.9 3.6h-3.9c.7-.9.9-1.4.9-3.6V55c0-2.2-.2-2.7-.9-3.6h3.9c-.7.9-.9 1.4-.9 3.6v6.3h13.1V55c0-2.2-.2-2.7-.9-3.6h3.9c-.7.9-.9 1.4-.9 3.6v14.4c0 2.2.2 2.7.9 3.6h-3.9zM69.9 71.7c0 .6-.9 1.2-2.3 1.2-2.1 0-3.5-.7-9.3-7.9l-2.2-2.8H53v7.1c0 2.2.2 2.7.9 3.6H50c.7-.9.9-1.4.9-3.6V55c0-2.2-.2-2.7-.9-3.6h5.1c4.4 0 8.1 1.7 8.1 5.5 0 3.6-3.4 4.7-4.8 5.2l3.9 4.8c2.2 2.7 4.2 5 6.3 5M53 52.4v8.8h2.7c3.6 0 5.2-2 5.2-4.4-.1-4.3-5.4-4.4-7.9-4.4M71.4 72.9c.7-.9.9-1.4.9-3.6V55c0-2.2-.2-2.7-.9-3.6h3.8c-.7.9-.9 1.4-.9 3.6v14.4c0 2.2.2 2.7.9 3.6h-3.8zM83.8 73.6c-3.2 0-5.1-1.1-6.4-1.9v-3c1.2 1.6 2.5 3.9 6.3 3.9 2.6 0 5.3-1.5 5.3-4.2 0-2.2-1.3-3.6-2.9-5.1-2.6-2.5-7.1-4.3-7.1-7.8 0-2.6 2.2-4.7 5.7-4.7 1.4 0 2.9.3 4 1v2.3c-.7-.7-1.9-2.3-4.4-2.3-1.8 0-3.4.9-3.4 2.8 0 3.3 5.1 4.7 8 8 1.1 1.2 1.8 2.7 1.8 4.6 0 4.2-3.6 6.4-6.9 6.4M124.7 54.7l-5.1 6.5v8.1c0 2.2.2 2.7.9 3.6h-3.9c.7-.9.9-1.4.9-3.6v-7.8l-5.2-7.4c-.7-1-1.6-2-2.6-2.8h4.6c-.2.4-.5.5-.5 1 0 .3.4 1.2.7 1.6l4.5 6.2 5.1-6.6c.3-.3.7-.9.7-1.3 0-.3 0-.6-.2-1h3.3c-1.4 1.2-1.7 1.6-3.2 3.5M104.7 52.6c1.7 0 2.5.2 3.5.7v-1.9H91.5v1.9c1-.5 1.8-.7 3.5-.7h3.8v16.8c0 2.2-.2 2.7-.9 3.6h3.9c-.7-.9-.9-1.4-.9-3.6V52.6h3.8zM55.3 83.9h-3.4v-5.7h3.3v.7h-2.5v1.7h2.4v.6h-2.4v2h2.6zM58.4 83.6c-.3.2-.6.3-1.1.3-.7 0-1.2-.3-1.5-.7l.4-.5c.3.4.8.6 1.1.6.4 0 .7-.1.7-.6 0-.4-.6-.6-.9-.6-.3-.1-.4-.1-.5-.2-.2-.1-.6-.4-.6-.9 0-.7.6-1.1 1.3-1.1s1.1.2 1.3.5l-.3.5c-.2-.2-.6-.4-1-.4s-.6.2-.6.5.4.5.8.6c.2.1.4.1.5.2.2.1.3.2.4.3.2.1.3.4.3.7.1.3-.1.6-.3.8M61.6 83.8s-.3.1-.7.1c-.4 0-.7-.2-.8-.4-.2-.2-.2-.5-.2-1.2v-1.8h-.6V80h.6v-1.2h.8V80h.9v.6h-.9v1.7c0 .3 0 .5.1.7.1.1.2.2.4.2s.4-.1.4-.1v.7zM63.3 83.9c-.3 0-.5-.2-.5-.5s.2-.5.5-.5.5.2.5.5-.2.5-.5.5M66.5 83.9h-.8v-5.1h-1.1v-.6h1.9zM69.4 83.9c-1.1 0-1.9-.6-1.9-1.6 0-.7.4-1.2 1.1-1.4-.4-.1-.9-.4-.9-1.3s.8-1.5 1.8-1.5c.9 0 1.8.5 1.8 1.5 0 .8-.5 1.1-.9 1.3.6.2 1 .7 1 1.4 0 1.1-.9 1.6-2 1.6m0-2.7c-.7 0-1.2.4-1.2 1.1 0 .7.5 1.1 1.2 1.1.6 0 1.2-.4 1.2-1.1 0-.7-.5-1.1-1.2-1.1m0-2.4c-.6 0-1 .3-1 .9 0 .6.4.9 1 .9s1-.3 1-.9c0-.6-.4-.9-1-.9M73.7 84c-1.1 0-1.6-.6-1.8-.9l.4-.5c.2.4.8.7 1.4.7.6 0 1.3-.4 1.3-1.2 0-.9-.7-1.2-1.3-1.2-.4 0-.8.1-1 .3l-.4-.2.5-2.6h2.8v.6h-2.3l-.3 1.5c.2-.1.5-.1.8-.1.9 0 1.9.6 1.9 1.8.1 1.1-1 1.8-2 1.8M78.5 83.9c-1.5 0-2.1-1.4-2.1-2.9s.6-2.9 2.1-2.9 2.1 1.4 2.1 2.9-.6 2.9-2.1 2.9m0-5.1c-.9 0-1.4.9-1.4 2.2 0 1.3.4 2.2 1.4 2.2.9 0 1.3-.9 1.3-2.2 0-1.2-.4-2.2-1.3-2.2M36.5 81.2s3.1.1 6.1.1H46.7c1.1 0 1.9-.1 1.9-.1s-.8-.1-1.9-.1h-4.1c-3 0-6.1.1-6.1.1M95.7 81.2s-3.1.1-6.1.1H85.5c-1.1 0-1.9-.1-1.9-.1s.8-.1 1.9-.1h4.1c3 0 6.1.1 6.1.1M124.3 71.7h-.4v-.2h1.1v.2h-.4V73h-.2v-1.3zM126.4 72.3v-.6c-.1.2-.1.4-.2.6l-.3.7h-.1l-.2-.7c-.1-.2-.1-.4-.2-.6V73h-.2l.1-1.5h.2l.3.7c.1.2.1.3.1.5 0-.1.1-.3.2-.5l.3-.7h.2l.1 1.5h-.2l-.1-.7z"/></svg>