<svg id="Layer_1" xmlns="http://www.w3.org/2000/svg" viewBox="0 0 128 128"><style>.st0{fill-rule:evenodd;clip-rule:evenodd;fill:#231f20}</style><path class="st0" d="M10.3 72.5c-4.5 0-8.3-4-8.3-8.5 0-4.4 3.7-8.6 8.3-8.6 3 0 5.1 1.4 6.9 3.7h2.2c-.7-1.1-1.4-2.2-2.5-3.1-1.8-1.5-4.2-2.4-6.6-2.4C4.6 53.7 0 58.4 0 64c0 5.7 4.7 10.3 10.3 10.3 2.3 0 4.6-.8 6.4-2.3 1.1-.9 1.9-2.1 2.7-3.3h-2.2c-1.7 2.3-3.9 3.8-6.9 3.8zM33 61.7c-1.4-1.8-3.2-2.9-5.6-2.9-4.2 0-7.6 3.4-7.6 7.5 0 4.2 3.4 7.6 7.6 7.6 2.4 0 4.1-1 5.6-2.9v2.5h1.8V59.2H33v2.5zm-5.6 10.6c-3.2 0-5.7-2.8-5.7-5.9 0-3.1 2.5-5.9 5.7-5.9s5.7 2.8 5.7 5.9c-.1 3.1-2.6 5.9-5.7 5.9zM37 73.6h2V54.1h-2v19.5zM46.3 71.3l-4.9-12.1h-1.9l5.8 14.4h2l5.8-14.4h-1.8l-5 12.1zM53.9 73.6h2V59.2h-2v14.4zM53.9 57.3h2v-3.2h-2v3.2zM64.2 58.8c-1.8 0-3.1 1-4.3 2.2v-1.9h-1.8v14.4H60v-8.8c0-2.3 1.9-4.3 4.2-4.3 2.9 0 4.4 2.5 4.4 5.2v7.9h1.8v-7.9c0-3.7-2.2-6.8-6.2-6.8zM88.4 54.1l-8.8 11.2V54.1h-1.9v19.5h1.9v-5.4l2.5-3.1 6.4 8.5h2.4l-7.6-10 7.6-9.5h-2.5zM91.6 73.6h1.9V54.1h-1.9v19.5zM109.1 62.8c-1.3-2.4-3.9-4-6.7-4-4.1 0-7.6 3.4-7.6 7.6 0 4.2 3.5 7.5 7.6 7.5 2 0 3.9-.8 5.3-2.1.9-.8 1.4-1.8 1.8-2.9h-2c-1 2-2.8 3.4-5.2 3.4-1.4 0-2.8-.6-3.9-1.6s-1.6-2.2-1.8-3.6H110c0-1.5-.2-3-.9-4.3zm-12.3 2.6c.6-2.7 2.7-4.9 5.6-4.9 2.5 0 5.1 1.5 5.6 4.9H96.8zM111.5 73.6h1.9V59.2h-1.9v14.4zM111.5 57.4h1.9v-3.3h-1.9v3.3zM121.7 58.8c-1.9 0-3.2 1-4.4 2.2v-1.9h-1.8v14.4h1.9v-8.8c0-2.3 2-4.3 4.3-4.3 2.9 0 4.5 2.5 4.5 5.2v7.9h1.8v-7.9c0-3.7-2.2-6.8-6.3-6.8z"/></svg>