<svg id="Layer_1" xmlns="http://www.w3.org/2000/svg" viewBox="0 0 128 128"><style>.st0{fill:#005ca2}.st0,.st1{fill-rule:evenodd;clip-rule:evenodd}.st1{fill:#fff}.st2{stroke-width:.6433}.st2,.st3{fill-rule:evenodd;clip-rule:evenodd;fill:#fff;stroke:#fff;stroke-miterlimit:2.6131}.st3{stroke-width:.1938}</style><path class="st0" d="M0 33h128v62.1H0z"/><path class="st1" d="M28.2 42.2h25l23.5 21.3c2.4 2.1 1.7 3.4-.9 3.4H14.9v-1.1c17.9-.7 34.4-4.4 24.5-13.5L28.2 42.2zm28.9 0h25.8l22.6 20.4c2.7 2.4 2.2 4.2-.6 4.2H84.3L57.1 42.2z"/><path class="st2" d="M18.9 73.5h-3.4v10.7c0 .6-.1 1.1-.4 1.4-.3.3-.7.4-1.1.4-.5 0-.8-.2-1.1-.5-.3-.3-.4-.8-.4-1.4V73.5H9.1c-.5 0-.9-.1-1.2-.3-.3-.2-.4-.5-.4-.9s.1-.7.4-.9c.3-.3.7-.4 1.2-.4h9.8c.5 0 .9.1 1.2.3.3.2.4.5.4.9s-.1.7-.4.9c-.3.3-.7.4-1.2.4zm7.5 6h-1.1v4.8c0 .6-.1 1.1-.4 1.4-.3.3-.7.4-1.1.4-.5 0-.9-.2-1.1-.5-.3-.3-.4-.8-.4-1.4V72.9c0-.6.1-1.1.4-1.4.3-.3.8-.4 1.4-.4h5c.7 0 1.3 0 1.8.1s.9.2 1.3.3c.5.2.9.5 1.3.8.4.4.6.8.8 1.3.2.5.3 1 .3 1.5 0 1.1-.3 2-1 2.6-.6.7-1.6 1.1-2.9 1.4.5.3 1.1.7 1.6 1.3.5.5.9 1.1 1.3 1.8.4.6.7 1.2.9 1.7.2.5.3.8.3 1 0 .2-.1.4-.2.6-.1.2-.3.3-.5.5-.2.1-.5.2-.8.2-.3 0-.6-.1-.9-.2l-.6-.6c-.2-.2-.4-.6-.7-1.1l-1.2-2c-.4-.7-.8-1.3-1.2-1.7-.4-.4-.7-.6-1.1-.8-.2-.2-.6-.3-1.2-.3zm1.8-6.2h-2.8v4.1h2.8c.7 0 1.4-.1 1.9-.2s.9-.3 1.2-.6c.3-.3.4-.7.4-1.2 0-.4-.1-.8-.3-1.1-.2-.3-.5-.5-.9-.7-.5-.3-1.2-.3-2.3-.3zm19.4 0h-7V77H47c.5 0 .8.1 1.1.3.2.2.3.5.3.8s-.1.6-.3.8c-.2.2-.6.3-1.1.3h-6.4v4.2h7.2c.5 0 .9.1 1.1.3.2.2.4.5.4.9s-.1.6-.4.9c-.2.2-.6.3-1.1.3h-8.4c-.7 0-1.2-.1-1.5-.4-.3-.3-.4-.8-.4-1.4V72.9c0-.4.1-.8.2-1.1.1-.3.3-.5.6-.6.3-.1.6-.2 1.1-.2h8.1c.5 0 .9.1 1.1.3.2.2.4.5.4.8 0 .4-.1.6-.4.8-.1.3-.5.4-1 .4zm15.8 8.1c0 .9-.2 1.7-.7 2.4-.5.7-1.2 1.3-2.1 1.7-.9.4-2 .6-3.3.6-1.5 0-2.7-.3-3.7-.8-.7-.4-1.3-.9-1.7-1.6-.4-.7-.6-1.3-.6-1.9 0-.4.1-.7.4-.9.3-.3.6-.4 1-.4.3 0 .6.1.8.3.2.2.4.5.6.9.2.5.4.9.6 1.2.2.3.5.6 1 .8.4.2.9.3 1.6.3.9 0 1.7-.2 2.2-.6.6-.4.9-.9.9-1.6 0-.5-.2-.9-.5-1.2-.3-.3-.7-.5-1.2-.7-.5-.2-1.1-.3-2-.5-1.1-.2-2-.5-2.7-.9-.7-.3-1.3-.8-1.8-1.4-.4-.6-.6-1.3-.6-2.1s.2-1.5.7-2.2c.5-.6 1.1-1.1 2-1.5.9-.3 1.9-.5 3.1-.5.9 0 1.7.1 2.4.3.7.2 1.2.5 1.7.9s.8.8 1 1.2c.2.4.3.8.3 1.2 0 .4-.1.7-.4 1-.3.3-.6.4-1 .4s-.6-.1-.8-.3c-.2-.2-.4-.4-.6-.8-.3-.6-.6-1-1-1.3-.4-.3-1-.5-1.9-.5-.8 0-1.4.2-1.9.5s-.7.7-.7 1.2c0 .3.1.6.2.8.2.2.4.4.7.6.3.2.6.3.9.4.3.1.8.2 1.5.4.9.2 1.6.4 2.3.6.7.2 1.3.5 1.8.9.5.3.9.8 1.1 1.3.2.4.4 1 .4 1.8zm8.5-1.4h-2.8v4.2c0 .6-.1 1.1-.4 1.4-.3.3-.7.5-1.1.5-.5 0-.8-.2-1.1-.5-.3-.3-.4-.8-.4-1.3V72.9c0-.7.2-1.1.5-1.4.3-.3.8-.4 1.5-.4h4c1.2 0 2.1.1 2.7.3.6.2 1.2.4 1.6.8.5.4.8.9 1 1.4.2.6.4 1.2.4 1.9 0 1.5-.5 2.6-1.4 3.4-1.2.8-2.6 1.1-4.5 1.1zm-.8-6.7H69v4.5h2.1c.7 0 1.3-.1 1.8-.2s.9-.4 1.1-.7c.3-.3.4-.8.4-1.3 0-.7-.2-1.2-.6-1.6-.4-.5-1.3-.7-2.7-.7zM88 84.1l-.7-1.9h-6.2l-.7 1.9c-.3.7-.5 1.2-.7 1.5-.2.3-.5.4-1 .4-.4 0-.7-.1-1-.4-.3-.3-.4-.6-.4-.9 0-.2 0-.4.1-.6.1-.2.2-.5.3-.9l3.9-9.6c.1-.3.2-.6.4-1s.3-.7.5-1c.2-.3.4-.5.7-.6.3-.2.6-.2 1.1-.2.4 0 .8.1 1.1.2.3.2.5.4.7.6.2.2.3.5.4.8.1.3.3.7.5 1.1l4 9.5c.3.7.5 1.3.5 1.6 0 .3-.1.7-.4.9-.3.3-.6.4-1.1.4-.2 0-.5 0-.6-.1-.2-.1-.3-.2-.4-.3-.1-.1-.2-.4-.4-.7-.3-.2-.5-.4-.6-.7zM81.9 80h4.6l-2.3-6.1-2.3 6.1zm23.3 1.4c0 .9-.2 1.7-.7 2.4-.5.7-1.2 1.3-2.1 1.7-.9.4-2 .6-3.3.6-1.5 0-2.7-.3-3.7-.8-.7-.4-1.3-.9-1.7-1.6-.4-.7-.6-1.3-.6-1.9 0-.4.1-.7.4-.9.3-.3.6-.4 1-.4.3 0 .6.1.8.3.2.2.4.5.6.9.2.5.4.9.6 1.2.2.3.5.6 1 .8.4.2.9.3 1.6.3.9 0 1.7-.2 2.2-.6.6-.4.9-.9.9-1.6 0-.5-.2-.9-.5-1.2-.3-.3-.7-.5-1.2-.7-.5-.2-1.1-.3-2-.5-1.1-.2-2-.5-2.7-.9-.8-.4-1.4-.9-1.8-1.5-.4-.6-.6-1.3-.6-2.1s.2-1.5.7-2.2c.5-.6 1.1-1.1 2-1.5.9-.3 1.9-.5 3.1-.5.9 0 1.7.1 2.4.3.7.2 1.2.5 1.7.9s.8.8 1 1.2c.2.4.3.8.3 1.2 0 .4-.1.7-.4 1-.3.3-.6.4-1 .4s-.6-.1-.8-.3c-.2-.2-.4-.4-.6-.8-.3-.6-.6-1-1-1.3-.4-.3-1-.5-1.9-.5-.8 0-1.4.2-1.9.5s-.7.7-.7 1.2c0 .3.1.6.2.8.2.2.4.4.7.6.3.2.6.3.9.4.3.1.8.2 1.5.4.9.2 1.6.4 2.3.6.7.2 1.3.5 1.8.9.5.3.9.8 1.1 1.3.2.5.4 1.1.4 1.9zm14.2 0c0 .9-.2 1.7-.7 2.4-.5.7-1.2 1.3-2.1 1.7-.9.4-2 .6-3.3.6-1.5 0-2.7-.3-3.7-.8-.7-.4-1.3-.9-1.7-1.6-.4-.7-.6-1.3-.6-1.9 0-.4.1-.7.4-.9.3-.3.6-.4 1-.4.3 0 .6.1.8.3.2.2.4.5.6.9.2.5.4.9.6 1.2.2.3.5.6.9.8.4.2.9.3 1.6.3.9 0 1.7-.2 2.2-.6.6-.4.9-.9.9-1.6 0-.5-.2-.9-.5-1.2-.3-.3-.7-.5-1.2-.7-.5-.2-1.1-.3-2-.5-1.1-.2-2-.5-2.7-.9-.7-.3-1.3-.8-1.8-1.4-.4-.6-.6-1.3-.6-2.1s.2-1.5.7-2.2c.5-.6 1.1-1.1 2-1.5.9-.3 1.9-.5 3.1-.5.9 0 1.7.1 2.4.3.7.2 1.2.5 1.7.9s.8.8 1 1.2c.2.4.3.8.3 1.2 0 .4-.1.7-.4 1-.3.3-.6.4-1 .4s-.6-.1-.8-.3c-.2-.2-.4-.4-.6-.8-.3-.6-.6-1-1-1.3-.4-.3-1-.5-1.9-.5-.8 0-1.4.2-1.9.5s-.7.7-.7 1.2c0 .3.1.6.2.8.2.2.4.4.7.6.3.2.6.3.9.4.3.1.8.2 1.5.4.9.2 1.6.4 2.3.6.7.2 1.3.5 1.8.9.5.3.9.8 1.1 1.3.3.4.5 1 .5 1.8z"/><path class="st3" d="M124.5 72.8c0 .6-.2 1.1-.6 1.5-.4.4-.9.6-1.5.6s-1.1-.2-1.5-.6c-.4-.4-.6-.9-.6-1.5s.2-1.1.6-1.5c.4-.4.9-.6 1.5-.6.4 0 .8.1 1.1.3.3.2.6.5.7.8.2.4.3.7.3 1zm-.3.1c0-.6-.2-1-.6-1.4-.4-.3-.8-.5-1.3-.5s-.9.2-1.3.5c-.4.4-.5.8-.5 1.3s.2.9.5 1.3c.4.4.8.5 1.3.5s1-.2 1.3-.6c.5-.3.6-.7.6-1.1zm-2.6-1.1h.9c.2 0 .4 0 .5.1.1.1.2.2.2.4 0 .1 0 .3-.1.4-.1.1-.3.2-.5.2.2.1.3.1.4.2.1.1.2.3.4.8h-.4c-.2-.4-.3-.7-.4-.8-.1-.1-.3-.2-.6-.2h-.1V74h-.3v-2.2zm.3 1h.4c.3 0 .5 0 .6-.1.1-.1.1-.2.1-.3 0-.1 0-.2-.1-.3-.1-.1-.3-.1-.5-.1h-.4v.8h-.1z"/></svg>