<svg id="Layer_1" xmlns="http://www.w3.org/2000/svg" viewBox="0 0 128 128"><style>.st0{fill:#fff}.st1{fill:#6d6e70}.st2{fill:#919396}.st3{fill:none;stroke:#6d6e70;stroke-width:1.7227;stroke-miterlimit:10}</style><path class="st0" d="M0 20.5h128v87H0z"/><path class="st1" d="M22.9 73.7h4.6V38.3h10v-3.8H12.9v3.8h10v35.4zm24.7-18.1c1.2 1.5 2.3 2.7 3.2 3.8l5.6 6.1c-2.4 2.1-4.6 3.6-6.5 4.4-1.2.5-2.4.8-3.7.8-1.6 0-3-.6-4.2-1.7-1.1-1.1-1.7-2.4-1.7-3.8 0-1.2.5-2.5 1.4-4 .9-1.3 2.9-3.2 5.9-5.6m-2.9-9.8c-.3-.6-.5-1.2-.5-1.9 0-.9.4-1.7 1.2-2.3.8-.6 1.8-1 3.1-1s2.4.3 3.2.9c.8.6 1.2 1.4 1.2 2.3 0 .7-.3 1.6-.9 2.6-.9 1.4-2.2 2.8-3.9 4.2-1.5-1.7-2.6-3.3-3.4-4.8m-6.2 14.1c-1.1 1.9-1.7 3.8-1.7 5.7 0 2.5.8 4.6 2.5 6.2 1.6 1.7 3.8 2.5 6.5 2.5 2 0 4-.4 5.8-1.2 1.8-.8 4.2-2.4 7.2-4.9l4.7 5.2h4.9c-.9-1.1-1.9-2.3-3.1-3.6-1.5-1.7-2.8-3-3.8-3.9 1.4-1.1 2.8-2.3 4.4-3.8l-2.4-2.7c-1.1 1.1-2.6 2.3-4.4 3.8l-3.5-3.8-5.3-6c2.4-2.2 4.1-4 4.9-5.5.8-1.4 1.2-2.8 1.2-4 0-1.2-.3-2.3-1-3.4-.6-1.1-1.6-1.9-2.8-2.6-1.2-.6-2.6-1-4-1-2.3 0-4.3.7-5.9 2.2-1.4 1.2-2 2.8-2 4.7 0 1.1.3 2.2.8 3.4.6 1.2 1.8 3 3.7 5.5-3.4 2.9-5.6 5.3-6.7 7.2m64.6 3.6L90.4 35.2h-.9L76.6 63.5l-9.2-28.3h-4.6l12.7 39.3h.8L90 44.8l13.3 29.7h.8L117 35.2h-4.6l-9.3 28.3z"/><path class="st2" d="M16.7 84.9v8h-1.4v-8h-1.7v-1.2h4.8v1.2zm5.8.6L21.3 89h2.4l-1.2-3.5zm2.6 7.4l-1-2.7h-3.3l-1 2.7h-1.4l3.5-9.2h1.2l3.5 9.2h-1.5zm4.9-3.3v3.3h-1.3v-3.3l-2.8-5.9h1.5l2 4.3 2-4.3h1.5zm4 3.3v-9.2h1.4v7.9h3.1v1.3zm9.8-8.1c-1.4 0-2.5.8-3.1 2.1-.2.5-.3 1-.3 1.5s.1 1 .3 1.5c.6 1.3 1.7 2 3.1 2 1.5 0 2.7-.9 3.2-2.3.2-.4.2-.8.2-1.2 0-2-1.4-3.6-3.4-3.6m0 8.2c-2.6 0-4.8-2.1-4.8-4.8 0-2.7 2.1-4.7 4.8-4.7 2.7 0 4.8 2.1 4.8 4.8-.1 2.6-2.2 4.7-4.8 4.7m8.7-8.1h-1.4v3.5h.9c1.2 0 2.5-.3 2.5-1.8.1-1.1-.9-1.7-2-1.7m1.7 4.4c-.3.1-.6.2-.9.2l2.6 3.4h-1.7l-3-4.2v4.2h-1.3v-9.2h2.8c.9 0 1.8.1 2.4.8.6.6.8 1.4.8 2.2 0 1.2-.5 2.2-1.7 2.6m9.4-4.5c-.6 0-1 .5-1 1.1 0 .5.4 1 .8 1.3.6-.3 1.1-.6 1.1-1.3 0-.6-.3-1.1-.9-1.1m-.6 3.8c-.8.3-1.3.8-1.3 1.7 0 .9.6 1.5 1.5 1.5s1.4-.6 1.8-1.3l-2-1.9zm4.5 4.4l-1.6-1.6c-.6 1-1.5 1.6-2.7 1.6-1.5 0-2.8-1.2-2.8-2.7 0-1.2.7-2.1 1.8-2.6-.5-.5-.9-1-.9-1.8 0-1.3 1-2.3 2.3-2.3 1.3 0 2.3 1 2.3 2.3 0 1.1-.6 1.8-1.5 2.2l1.2 1.2 1-2H68l-1.5 3 1.8 1.9-.8.8zm12.7-.1h-1.1l-1.7-6.4-1.7 6.4h-1.2L72 83.7h1.4l1.7 6.9 1.8-6.9h1l1.7 6.9h.1l1.7-6.9h1.4zm6.3-8h-1.4v3.5h.9c1.2 0 2.5-.3 2.5-1.8.1-1.1-.9-1.7-2-1.7m1.7 4.4c-.3.1-.6.2-.9.2l2.6 3.4h-1.7l-3-4.2v4.2h-1.3v-9.2h2.8c.9 0 1.8.1 2.4.8.6.6.8 1.4.8 2.2 0 1.2-.5 2.2-1.7 2.6m3.1-5.6h1.3v9.2h-1.3zm9.4 8.9c-.6.3-1.3.4-2 .4-2.6 0-4.7-2.1-4.7-4.7s2-4.8 4.7-4.8c1.7 0 3.3 1 4.1 2.5h-1.6c-.7-.8-1.4-1.2-2.5-1.2-1.9 0-3.4 1.7-3.4 3.6 0 1.9 1.5 3.5 3.4 3.5 1.5 0 2.6-.9 3.2-2.3h-4.3v-1.2h5.8c0 1.8-1 3.4-2.7 4.2m9.1.3v-4h-3.7v4h-1.4v-9.2h1.4v4h3.7v-4h1.4v9.2zm5.5-8v8h-1.4v-8h-1.7v-1.2h4.8v1.2z"/><path class="st3" d="M3 24.3h122.8v78.5H3z"/></svg>