<svg id="Layer_1" xmlns="http://www.w3.org/2000/svg" viewBox="0 0 128 128"><style>.st0{fill:#626767}</style><path class="st0" d="M60.6 102.4c2.1 0 3.1.7 3.1 2.5 0 .9-.3 1.5-1 1.9 1 .4 1.5 1.2 1.5 2.3 0 2-1.1 2.8-3.3 2.8h-2.1v-9.4h1.8zm-.9 4.1h.6c1.6 0 2.5-.3 2.5-1.6 0-1.1-.8-1.6-2.2-1.6h-.8v3.2zm0 4.5H61c1.5 0 2.2-.5 2.2-1.8 0-1.2-.7-1.8-2.2-1.8h-1.3v3.6zm8.6.9h-.9v-3.5l-3-6h1.1l2.4 4.9 2.4-4.9h1l-3 6v3.5zm-47.1 15.9l3.7-9.5H26l3.7 9.5h-1l-1.1-3h-4.2l-1.1 3h-1.1zm4.2-8.5l-1.8 4.7h3.6l-1.8-4.7zm6.7-.9c2.1 0 3.1.7 3.1 2.5 0 .9-.3 1.5-1 1.9 1 .4 1.5 1.2 1.5 2.3 0 2-1.1 2.8-3.3 2.8h-2.1v-9.5h1.8zm-.8 4h.6c1.6 0 2.5-.3 2.5-1.6 0-1.1-.8-1.6-2.2-1.6h-.8v3.2zm0 4.5h1.3c1.5 0 2.2-.5 2.2-1.8 0-1.2-.7-1.8-2.2-1.8h-1.3v3.6zm7.6-8.5c2.1 0 3.1.7 3.1 2.5 0 .9-.3 1.5-1 1.9 1 .4 1.5 1.2 1.5 2.3 0 2-1.1 2.8-3.3 2.8h-2.1v-9.5h1.8zm-.8 4h.6c1.6 0 2.5-.3 2.5-1.6 0-1.1-.8-1.6-2.2-1.6h-.8v3.2zm0 4.5h1.3c1.5 0 2.2-.5 2.2-1.8 0-1.2-.7-1.8-2.2-1.8h-1.3v3.6zm10.7-4.3v.9h-4v3.4h4v.9h-4.9v-9.5h4.9v.9h-4v3.3h4zm4.5 5.2h-.9v-3.5l-3-6h1.1l2.4 4.9 2.4-4.9h1l-3 6v3.5zm10.7-8.7c-2.1 0-3.8 1.8-3.8 3.9 0 2.3 1.8 4.1 3.8 4.1 1.3 0 2.4-.5 3.2-1.6h1.1c-.9 1.6-2.4 2.5-4.2 2.5-2.8 0-4.9-2.2-4.9-5 0-1.3.5-2.5 1.5-3.5.9-.9 2-1.4 3.3-1.4 1.9 0 3.4.9 4.3 2.6h-1.1c-.8-1-1.8-1.6-3.2-1.6zm5.6 8.7v-9.5h.9v8.5h3.3v.9h-4.2zm4.3 0l3.7-9.5h1.1l3.7 9.5h-1l-1.1-3H76l-1.1 3h-1zm4.2-8.5l-1.8 4.7h3.6l-1.8-4.7zm11.1-.9h.9v9.5H89l-5.2-8.3.1 8.3H83v-9.5h1.1l5.2 8.3-.1-8.3zm7 .7c-2.1 0-3.8 1.8-3.8 3.9 0 2.3 1.8 4.1 3.8 4.1 1.3 0 2.4-.5 3.1-1.6h1.1c-.9 1.6-2.4 2.5-4.2 2.5-2.8 0-4.9-2.2-4.9-5 0-1.3.5-2.5 1.5-3.5.9-.9 2-1.4 3.3-1.4 1.9 0 3.4.9 4.3 2.6h-1.1c-.6-1-1.6-1.6-3.1-1.6zm8.5 8.7h-.9v-3.5l-3-6h1.1l2.4 4.9 2.4-4.9h1l-3 6v3.5zM22.7 27c-2-.4-4.2.6-5.7 1.8-5.3 3.9-7.5 11.7-8.8 17.8-.4 2.2-.8 5 .2 7.1.8 1.6 2.6 1.4 3.8.6 2.2-1.4 3.9-3.6 5.5-5.5 2.1-2.5 4-5 5.9-7.6 2.7-3.7 5.2-7.4 7.7-11.2 5.3-8.3 10.9-17.6 12.5-27.4.1-.3-.7-.2-.8.1-3.4 13.3-5.5 27.1-6.6 40.8-.3 3-.2 6.1-.9 9-.1.4-.1 1-.3.7-.2-.3-.4-.7-.6-1.1-.6-1.1-1.1-2.3-1.7-3.5-3.4-7.5-6.5-15.1-9.2-22.8-.2.1-.5.2-.7.3 1.8 1 4.2 1.1 6.1 1.1 6.7.2 13.4-2.1 19.5-4.7.5-.2 0-.5-.3-.4-5.9 2.5-12.3 4.6-18.9 4.5-1.9 0-4.1-.2-5.8-1.1-.2-.1-.8 0-.7.3 2.9 8.2 6.2 16.4 9.9 24.3.3.7 1.3 3.7 2.4 3.6 1.5-.2 1.5-3.9 1.6-5 1-10.5 2-20.8 3.9-31.2.9-5 1.9-10.1 3.2-15-.3 0-.5.1-.8.1-1.3 8.2-5.6 15.8-9.7 22.8-2.1 3.6-4.4 7-6.7 10.5-3.1 4.6-6.4 9.1-9.9 13.3-1.5 1.7-3.4 4.5-5.7 5.2-3.1 1-2.3-6-2-7.4 1-5.9 3.2-12.9 7.6-17.2 1.4-1.3 3.7-2.8 5.7-2.4.1.1.8-.3.3-.4z"/><path class="st0" d="M53.2 7.4c.1-1.5.1-3 .4-4.4 0-.3-.7-.1-.8.1-2.9 8.6-5.7 17.2-8.3 25.9-1.5 5.1-3.1 10.2-3.9 15.5-.2 1-.7 4.2.9 3.8 1.2-.3 1.7-2.6 2-3.5 1.8-4.8 3-9.9 4.8-14.8.7-1.9 1.6-3.7 2.9-5.2 1.4-1.6 4.3-2.1 5.3.1 1.1 2.5-.3 6.2-1.1 8.6-1.4 4-3.5 7.9-6 11.3-.5.7-1.9 2.7-2.8 1.5-.8-1-.9-2.7-1-4-.4-4.2.3-8.6 1.4-12.6 1.9-6.7 6.8-12.5 10.8-18 2.8-3.9 5.6-7.8 8.5-11.7-.2 0-.5 0-.7.1C64 3.7 63 7.6 62 11.4c-2.7 10.3-4.1 20.8-4.7 31.4 0 .3.7.1.8-.1.6-3.4 1.5-6.7 2.4-10 .7-2.6 1.6-5.2 2.7-7.7.8-2 2-4.5 3.9-5.6 2.2-1.2 3.1 2 3.1 3.5 0 2.7-1 5.4-1.9 7.8-1.1 2.8-2.4 5.5-3.9 8.1-.9 1.5-1.8 3.5-3.1 4.7-.3.3.4.2.6.1 2.9-2.6 14.2-24.7 6.3-24.8-4.1 0-6.1 6.7-7.1 9.7-1.6 4.6-2.8 9.3-3.7 14.1 0 .1 0 .2-.1.3.3 0 .5-.1.8-.1.6-10.6 2-21.1 4.7-31.4 1-3.8 2.1-7.7 3.6-11.3.1-.2-.6-.1-.7.1-3.2 4.4-6.4 8.8-9.6 13.3-2.2 3.1-4.3 6.1-6.3 9.3-2.2 3.3-3.4 6.9-4.2 10.8-.3 1.7-2.3 15.2 2.2 13.6 2.1-.8 3.6-3.8 4.6-5.6.9-1.5 1.8-3.1 2.5-4.7.9-2.1 1.7-4.2 2.2-6.4.5-2 1.2-5.3-.8-6.8-1.6-1.2-4.3-.3-5.6 1-2.9 2.9-4 7.6-5.2 11.4-1.2 3.8-2 8.2-4 11.6-.3.6-.3.1.1.4l-.1-.1c-.4-.1-.4-.5-.4-.9-.2-1.6.3-3.4.6-5 .5-2.6 1.2-5.2 1.9-7.7 2.9-10.5 6.3-21 9.8-31.3-.3 0-.5.1-.8.1-.3 1.5-.3 3-.4 4.5.3.1 1 0 1-.3z"/><path class="st0" d="M66.4 38.4c4.4-3.6 8.5-8.2 10.9-13.4 1.3-2.7 2.1-7.2.1-9.8-1.1-1.4-3.1-.3-4 .7-1.7 1.8-2 4.8-2.4 7-.6 3.2-1.1 6.4-1 9.7 0 2.1.3 5 2.5 6 1.7.7 3.6-.4 4.9-1.4 2.2-1.9 3.7-4.5 5-7.1 1.5-2.9 2.8-6.1 3.7-9.2.1-.3 1.8-6.7-.3-5-.7.6-1 1.7-1.3 2.5-1.1 3.3-1.7 6.8-2.3 10.2-.6 3.2-2.7 12.7 3.7 11.3 2.1-.5 3.5-3.1 4.5-4.8 2.2-3.7 3.8-7.6 5.5-11.6 2.4-5.8 4.5-11.7 6.5-17.7.1-.2-.7-.1-.8.1-1.8 4.6-3.2 9.3-4.5 14-2.6 9.7-4.9 19.9-5.3 29.9-.2 6.1-.3 12.3-.2 18.4.1 5.1.3 10.2.7 15.3.2 2.2.6 4.4.7 6.6v1.7c.2 0 .4 0 .6-.1-.7-.4-.7-2.9-.8-3.6-.1-.7-.2-1.3-.4-2-.4-2.1-.8-4.1-1.2-6.2-1.2-6.1-2.4-12.3-3.6-18.4-2.1-10.7-4.3-21.4-6.4-32.2-.2-.9-.2-2.1-.9-2.7-2-1.9-5.1 3.6-5.7 4.6C66 45.6 62 65 70 80.6c2.6 5 7 9.2 13 8.7 3.5-.3 6.4-2.9 8.8-5.3 3.9-4 7-8.7 10-13.5 3.5-5.7 6.6-11.6 9.4-17.7 2.6-5.5 4.9-11.2 6.8-17 1.2-3.6 2.5-7.7 2.4-11.5-.1-3.2-2.4-2.8-4.9-2.4-5.2.6-10.1 2.6-14.6 5.2C95 30.5 89.7 35 84.6 39.5c-6.2 5.6-12.4 11.7-17 18.7-2 3-3.9 6.5-4.2 10.2-.1 1-.1 2.4.5 3.3.1.2.9-.1.7-.3-.9-1.4-.5-4-.1-5.5 1.9-7.3 7.7-13.5 12.8-18.7 7-7.3 14.8-14.5 23.6-19.7 4.9-2.9 10.2-4.9 15.9-5.4 1.3-.1 2.2-.2 2.6 1.1.4 1.3.2 2.9 0 4.2-.7 4.8-2.4 9.5-4.1 14-4.6 12.2-10.5 24.1-17.9 34.8-2.8 4.1-6 8.3-10.1 11.1-4.8 3.3-10.4 1.2-14-3-5-5.9-6.5-14.4-6.7-21.9-.4-9.4 2.3-18.4 6.6-27.1 1.3-2.7 2.8-5.8 5-7.9.8-.7 1.3-.5 1.7.4.5 1.3.6 2.8.9 4.1 2.4 11.7 4.7 23.5 7 35.2 1.1 5.6 2.2 11.2 3.3 16.7.3 1.5.6 3 .9 4.6 0 0 .7 5.1 1.7 3.4.2-.4.2-1.2.2-1.7 0-1.9-.4-3.8-.6-5.7-.4-5.1-.7-10.2-.8-15.4-.1-6.5-.1-13 .1-19.5.4-10.1 2.7-20.3 5.3-30 1.3-4.7 2.7-9.5 4.5-14-.3 0-.5.1-.8.1-3.1 9.6-6.5 19.5-11.4 28.4-1 1.7-2.2 4.1-4 5.1-1.8 1-3.3-.7-3.8-2.2-.4-.9-.4-2.3-.3-3.5.4-3.7 1.2-7.5 2-11.1.4-1.9.9-4 1.8-5.8.1-.2.3-.5.4-.6-.2.1-.5-.1-.3.2.2.3.1.8.1 1.1-.2 2.6-1.2 5.3-2.2 7.7-1.1 2.8-7.1 17.2-11.8 12.7-2.1-2-1.5-6.3-1.3-8.8.3-3.1.9-6.2 1.6-9.2.3-1.3.7-2.4 1.5-3.5 1.6-2.1 3.1-.8 3.6 1.2 1.1 4.3-.9 8.6-3.3 12-2.3 3.4-5.2 6.5-8.3 9.1-.4.2.3.1.5 0z"/></svg>