<svg id="Layer_1" xmlns="http://www.w3.org/2000/svg" viewBox="0 0 128 128"><style>.st0{fill:#050505}</style><path class="st0" d="M23.4 77c.3-.8.6-1.5.6-2.3h6.5v.1c-.9.3-1.2 1.3-1.2 2.2l2.5 18.4c.2 1.8.4 2.8 1.9 3.8v.1h-7.2v-.1c1.3-.4 1.5-1.5 1.5-2.8l-2.1-18.1-8.4 21.5c-1.9-1.4-2.4-2.4-3.3-4.5L7 78.3 4.9 94.5c-.3 2.3-.6 3.9 1.2 4.7v.1H0v-.1C1.6 97.8 1.8 96 2.1 94l2.1-15.7c.1-1.1.6-2.6-1.2-3.5v-.1h6.6c0 .6.3 1.2.5 1.7l7 16.5L23.4 77zm14.2 11.3c0 4.5 3.2 9.2 8.3 9.2 4.9 0 8.1-3.6 8.1-8.4 0-4.7-3-9.3-8.1-9.3-5.1-.1-8.3 3.6-8.3 8.5m20.1.1c0 6.6-5.5 11.4-11.9 11.4s-11.9-4.6-11.9-11.3c0-6.2 5.4-11.3 12.2-11.2 6.8.1 11.6 5.3 11.6 11.1m9.2-10.5c4.4 0 6.7 2.3 6.7 5.2 0 2.9-2.5 5.1-5.2 5.7l4.7 5.9c1.4 1.7 3.4 3.4 5.3 4.5h-3c-1.7 0-2.8-.4-3.8-1.6l-4-4.9-3-4.6c2.6-.4 5.6-1.6 5.6-4.6 0-2.3-2-3.7-4.2-3.6-.7 0-1.5.1-2.2.3v14.5c0 1.5-.2 3.9 1.5 4.4v.1h-6.2v-.1c1.7-.6 1.4-3 1.4-4.4V82.5c0-1.5.2-3.9-1.4-4.5v-.1h7.8zM88 97c2.2.1 4.1-.6 5.7-2h.1l-1.7 4.3H78.8v-.1c1.7-.6 1.5-3 1.5-4.4V82.5c0-1.5.2-3.9-1.5-4.5v-.1H85v.1c-1.7.6-1.4 3-1.4 4.5v14.2l4.4.3zm11.6-.4l4.1.4c2.1.2 4.4-.5 6-1.9h.1l-1.5 4.3H94.8v-.1c1.7-.6 1.5-3 1.5-4.4V82.5c0-1.5.2-3.9-1.5-4.5v-.1h10.4c.6 0 1.1.1 1.5-.2h.1v3.8h-.1c-1-1.2-2.3-1.3-3.8-1.3-1.1 0-2.3 0-3.3.2v6h3.9c.5 0 1 0 1.4-.2h.1v3.4h-.1c-.5-.9-1.9-.9-2.9-.9h-2.4v7.9zm20.4-1.5c0 1.9 0 2.9 1.7 4.1v.1h-6.3v-.1c1.6-.8 1.4-2.9 1.4-4.4V90l-5.4-8.7c-.9-1.4-1.5-2.5-3.1-3.3h3c1 0 2 .2 2.4.9l5.2 8.5 4-6c.6-.8 1.3-2.4-.5-3.2v-.1h5.7l-8 12v5zM42.5 46c.2 4.2 5 2.9 6.4 2.4l.4-.1h.2c.1 0 .1.1.1.2s0 .2-.1.2c-.1-.1-8.9 3.7-7-2.7m11.4 7.2s-2.1 1.7-2.9 1.7c-1.3 0-1.9-1.8-1.9-1.8s2.4.9 4.8.1"/><path class="st0" d="M38.9 40.6c1.1 4.8 7.6 5 9.5 4.9h.6c.1 0 .2.1.2.2s-.1.2-.2.2c.1 0-11.7 1.8-10.1-5.3M51 51.1s-1.7 1-2.8 1c-.4 0-1.2-.4-1.5-1.8-.1 0 1.7 1.3 4.3.8m4.5 4.1c-.4 1.3-4 .7-4 .7s1.5 1.7 4.3 1.7c-.2-.8-.3-1.6-.3-2.4m35.8-19.6c-2.2 3.7-5.2 4-10.4 5.5-7.6 2.1-11.6 7.5-11.8 7.7 0 .1-.1.1-.1.2s.1.2.2.2.1 0 .2-.1c0 0 4.3-5.9 14.1-7.2 8.3-1.1 7.9-4.2 7.7-5.6.1-.4.1-.6.1-.7M78.9 48.3l-.4-.1h-.2c-.1 0-.1.1-.1.2s0 .2.1.2c0 0 8.9 3.8 7-2.6-.1 4.1-4.9 2.8-6.4 2.3m-5.1 4.9s2.2 1.7 2.9 1.7c1.3 0 1.9-1.8 1.9-1.8s-2.4.9-4.8.1m-2.4 2s-.1.9-.3 2.4c2.8-.1 4.4-1.7 4.4-1.7s-3.7.6-4.1-.7"/><path class="st0" d="M79.3 45.5h-.6c-.1 0-.2.1-.2.2s.1.2.2.2c0 0 11.9 1.7 10.3-5.4-1.2 4.9-7.7 5.1-9.7 5m-2.6 5.6s1.7 1 2.8 1c.4 0 1.2-.4 1.5-1.8 0 .1-1.7 1.3-4.3.8m4.4-.8"/><path class="st0" d="M63.8 45.3c-.3-.7-.7-1.3-1.2-1.9.5-3.5 1.4-5.9 2.3-5.9.7 0 1.5 1.5 2.1 3.9-1.5 1.2-2.6 2.5-3.2 3.9m25.4-12.9c-4.5 2.5-12 3.3-18.6 6.7-.7-2.4-1.6-4.4-2.7-5.6-.8-.9-1.6-1.4-2.5-1.4h-2.6c-1.7 0-3.5 2-4.9 5.3-.2.6-.5 1.2-.7 1.9-6.6-3.5-14.1-4.4-18.6-6.9-3.7-2.1-5.3-4.2-5.3-4.2s.1.2.1.3c2.3 6.4 9.3 8.2 14.1 9.8 3.8 1.3 6.8 2.8 9 4.2-.2 1.2-.3 2.4-.4 3.7-1.9-1.8-5-4-9.3-5.2-5.1-1.4-8-1.7-10.2-5.5.1.1.1.3 0 .6-.2 1.4-.6 4.5 7.6 5.6 5.8.8 9.7 3.3 11.8 5.1v3.3c0 5 .6 9.5 2 12.7 1.4 3.3 3.2 5.3 4.9 5.3h2.6c.8 0 1.7-.5 2.5-1.4 1.5-1.8 2.8-5.1 3.5-9.3h-.3c-1 5.9-3.2 10-5.6 10-3.3 0-6-7.8-6-17.4 0-9.6 2.7-17.4 6-17.4 1.9 0 3.7 2.6 4.8 6.5-.5.2-.9.5-1.4.8-.8-2.9-1.9-4.8-3.1-4.8-2.3 0-4.2 6.9-4.2 14.9s1.9 14.8 4.2 14.8c1.4 0 2.7-2.6 3.5-6.5-1-.1-1.6-.3-2-.6-.6 3-1.5 4.9-2.3 4.9-1 0-2-2.9-2.5-7.2.5-.6 1-1.3 1.4-2.2 1 2.1 2.6 3.6 4.2 4.1.7.2.9 0 1-.1.3-.2.6-.7.6-.7-.4.1-2.3.2-3.5-2.3-2.1-4.1-1-11.1 14.2-16.2 4.9-1.6 12-3.4 14.3-9.8 0-.1.1-.3.1-.3-.3.3-1.9 2.4-5.7 4.5"/></svg>