<svg id="Layer_1" xmlns="http://www.w3.org/2000/svg" viewBox="0 0 128 128"><style>.st0{fill-rule:evenodd;clip-rule:evenodd}.st0,.st1{fill:#020202}</style><path class="st0" d="M32.8 60c0-4.8 4-8.8 8.9-8.8s8.9 3.9 8.9 8.8c0 4.8-4 8.8-8.9 8.8s-8.9-4-8.9-8.8zm8.8 13.7c7.6 0 13.7-6.1 13.7-13.7s-6.1-13.7-13.7-13.7S27.9 52.4 27.9 60c0 7.5 6.2 13.7 13.7 13.7z"/><path class="st0" d="M91 61.9c-1.5-4.6 1.1-9.6 5.8-11.1 4.7-1.5 9.7 1.1 11.1 5.7 1.5 4.6-1.1 9.6-5.8 11.1-4.6 1.4-9.6-1.1-11.1-5.7zm-29.7.8c0-4.8 4-8.8 8.9-8.8s8.9 3.9 8.9 8.8c0 4.8-4 8.8-8.9 8.8s-8.9-4-8.9-8.8zm14.5 28.9c7 6 15.4 8.9 24.8 5.9 15.1-4.8 20.3-20.8 15.7-35.2-1.3-4-3.1-8-5.6-11.1-3.4-4.7-9.5-6.8-15.3-5-7.2 2.3-11.2 10-8.9 17.2 2.3 7.2 10 11.2 17.2 8.9 3.8-1.2 6.7-3.9 8.2-7.2l-.1-.1c3 11.4-.7 24.1-12.9 28-7.6 2.4-14-.3-19.8-4.9v.1c3.8-4.9 6-10.8 6-17.3 0-4.2-.5-8.6-2-12.3-1.8-5.5-7-9.4-13-9.4-7.6 0-13.7 6.1-13.7 13.7s6.1 13.7 13.7 13.7c4 0 7.6-1.7 10.1-4.4V72c-.6 11.6-10.6 22-23.4 22-9.6 0-17.9-5.7-21.7-13.9V80l-6-2.3c3.3 12.2 14.5 21.2 27.7 21.2 7.4 0 14-2.8 19-7.4v.1zM110.1 38.1c1.4 0 2.5-1.1 2.5-2.5s-1.1-2.5-2.5-2.5-2.5 1.1-2.5 2.5 1.2 2.5 2.5 2.5zM125.1 66.9L114.8 41l-4.4 1.8 10.3 25.9 4.4-1.8zM21.6 68.3l15.9-37.4-4.4-1.8-15.9 37.4 4.4 1.8zM4.8 54.2C4.1 53 3.2 51.1 3.2 51L0 55.4s1.5 2.6 2.1 3.4c1.1 1.3 2.9 3.6 5.7 4.7 0 0 2 .6 3.1.6 4.2 0 7.7-3.4 7.7-7.7 0-.9-.3-2.1-.5-2.5 0 0-.3-1.2-2.4-4.7-.7-1.1-1.4-2.3-1.8-3.5 0 0-.1-.6-.1-.8 0-1.2 1-2.3 2.3-2.3.8 0 1.7.4 1.7.4 1.1.4 1.7 1.3 2.3 1.8.8.8 2.7 3.4 2.7 3.4l2.2-5.1c-1-1.2-2.9-2.9-3.5-3.4-.6-.5-2.2-1.4-2.2-1.4l-.1-.1c-.9-.4-2-.7-3.1-.7-4 0-7.3 3.3-7.3 7.3 0 .8.5 2.7.5 2.7.4 1.2 1 2.2 1.7 3.3.7 1.1 2.1 4 2.3 4.5 0 0 .3.7.3 1 .1 1.6-1.5 3.1-3.7 2.4-2.7-.7-4.2-3.2-5.1-4.5z"/><path class="st1" d="M123.8 48.5c-2.3 0-4.2-1.9-4.2-4.2 0-2.3 1.9-4.2 4.2-4.2 2.3 0 4.2 1.9 4.2 4.2 0 2.3-1.9 4.2-4.2 4.2zm0-7.9c-2 0-3.6 1.6-3.6 3.6s1.6 3.6 3.6 3.6 3.6-1.6 3.6-3.6-1.6-3.6-3.6-3.6z"/><path class="st0" d="M122.4 42.1h1.1c.9 0 1.8.1 1.8 1.2 0 .6-.4 1.1-1.1 1.2l1.3 2h-.7l-1.2-2h-.7v2h-.5v-4.4zm.5 2h.5c.6 0 1.3 0 1.3-.7 0-.6-.6-.7-1.1-.7h-.7v1.4z"/></svg>