<svg id="Layer_1" xmlns="http://www.w3.org/2000/svg" viewBox="0 0 128 128"><style>.st0{fill:#dadada}.st1{fill:#FFF}</style><path class="st0" d="M.3 33.3h127.3v61.3H.3z"/><path class="st1" d="M34.3 58.5c-.1-.2-.2-.4-.4-.6-.2-.2-.4-.3-.6-.5-.3-.2-.8-.4-1.3-.5-.5-.1-1.1-.2-1.8-.2-.5 0-.9 0-1.3-.1s-.6-.2-.8-.3c-.1-.1-.6-.3-.6-.9 0-.5.3-.8.3-.8.3-.3.6-.5 1-.7.4-.2.9-.3 1.5-.3.8 0 1.5.3 2.2.8.1.1.3.2.5.2.4 0 .8-.4.8-.8 0-.3-.2-.5-.4-.7-.4-.3-.9-.6-1.4-.8-.5-.2-1.1-.3-1.7-.3-.9 0-1.6.1-2.3.4-.6.3-1.2.7-1.6 1.2-.1.1-.5.6-.6 1.3-.1.8.1 1.3.2 1.4.1.2.2.4.4.6.2.2.4.4.7.6.3.2.7.4 1.3.5.5.1 1.1.2 1.8.2.5 0 .9 0 1.3.1s.6.2.8.3c.2.1.5.3.6.7.1.2.1.5 0 .7 0 .1-.1.3-.2.5-.3.3-.6.5-1 .7-.4.2-1 .3-1.5.3-.3 0-.6 0-.9-.1-.3-.1-.5-.2-.8-.3-.2-.1-.5-.3-.7-.5-.2-.2-.4-.4-.5-.6 0-.1-.1-.1-.1-.2-.1-.2-.4-.3-.6-.3-.4 0-.8.4-.8.8 0 .1 0 .3.1.4.2.4.4.7.7 1 .3.3.6.6 1 .8.8.4 1.6.6 2.5.6.9 0 1.6-.1 2.3-.4.6-.3 1.2-.7 1.6-1.2.2-.2.3-.4.4-.7.1-.2.2-.5.2-.7v-.9c-.1-.2-.2-.5-.3-.7zM41.7 52.1c-1.5 0-2.8.5-3.9 1.6s-1.6 2.4-1.6 3.9.5 2.8 1.6 3.9 2.4 1.7 3.9 1.7 2.8-.6 3.9-1.7 1.6-2.4 1.6-3.9-.5-2.8-1.6-3.9c-1-1.1-2.3-1.6-3.9-1.6M57.6 52.1c-.4 0-.8.4-.8.8v5.8c0 .8-.3 1.5-.9 2.1-.3.3-.6.5-1 .7-.3.1-.7.2-1.1.2-.8 0-1.5-.3-2.1-.9-.6-.6-.9-1.3-.9-2.1v-5.8c0-.4-.4-.8-.8-.8s-.7.3-.8.6v5.8c0 .6.1 1.2.4 1.7.2.5.6 1 1 1.4.9.9 2 1.3 3.2 1.3s2.3-.4 3.3-1.3c.9-.9 1.4-1.9 1.4-3.2v-5.8c-.1-.2-.5-.5-.9-.5zM75.3 52.1c-.4 0-.8.4-.8.8v5.8c0 .8-.3 1.5-.9 2.1-.3.3-.6.5-1 .7-.3.1-.7.2-1.1.2-.8 0-1.5-.3-2.1-.9-.6-.6-.9-1.3-.9-2.1v-5.8c0-.4-.4-.8-.8-.8s-.7.3-.8.6v5.8c0 .6.1 1.2.4 1.7.2.5.6 1 1 1.4.9.9 2 1.3 3.2 1.3 1.3 0 2.3-.4 3.3-1.3.9-.9 1.4-1.9 1.4-3.2v-5.8c-.1-.2-.5-.5-.9-.5zM63.5 48.6c0-.5-.4-.9-.8-.9-.5 0-.8.4-.8.9v13.7c0 .5.4.9.8.9.5 0 .8-.4.8-.9V48.6zM85.2 55.5c.3-.4.6-.7.8-1.1.3-.4.6-.7.9-1.1.1-.1.2-.3.2-.5 0-.4-.4-.8-.8-.8h-.2s-.1 0-.1.1c-.1 0-.1.1-.2.1l-.1.1c-.3.3-.5.7-.8 1-.3.3-.5.7-.8 1-.3.3-.5.6-.8 1-.3.3-.5.6-.8 1l-3.1-4c-.1-.2-.4-.3-.6-.3-.4 0-.8.4-.8.8 0 .2.1.3.1.5v.1c.3.4.6.7.9 1.1.3.4.6.7.8 1.1.3.3.5.7.8 1 .3.3.5.7.8 1-.1.1-.2.3-.3.4l-.3.3c-.5.6-.9 1.2-1.4 1.8-.4.6-.9 1.2-1.4 1.8v.5c0 .4.4.8.8.8.2 0 .4-.1.6-.2 0 0 .1 0 .1-.1.3-.4.7-.9 1.1-1.3.4-.5.7-.9 1.1-1.4.2-.2.3-.4.5-.6.2-.2.3-.4.5-.6l3.1 4c.1.2.4.3.6.3.2 0 .3-.1.5-.2.1-.1.2-.2.3-.4v-.2c0-.2-.1-.4-.2-.5l-3.3-4.2c.3-.4.6-.7.8-1.1.1-.5.4-.8.7-1.2zM99.5 57.5c0-.8-.2-1.5-.4-2.1-.3-.6-.7-1.2-1.2-1.8-1.1-1-2.4-1.6-3.9-1.6s-2.8.5-3.9 1.6-1.6 2.3-1.7 3.8v.2c0 1.5.5 2.8 1.6 3.9s2.4 1.6 3.9 1.6c.9 0 1.8-.2 2.6-.6.4-.2.8-.5 1.1-.8.3-.3.6-.6.9-1 .1-.1.2-.3.2-.5 0-.5-.4-.8-.8-.8-.3 0-.5.2-.7.4-.2.3-.4.5-.6.7-.2.2-.5.4-.8.5-.3.1-.6.3-.9.3-.3.1-.6.1-.9.1-1.1 0-2-.4-2.7-1.1-.3-.3-.6-.6-.8-1-.2-.4-.3-.7-.4-1.2h8.7c.4.2.7-.1.7-.6zm-9.4-.8c.2-.8.6-1.4 1.2-2 .8-.7 1.7-1 2.7-1 .5 0 1 .1 1.4.3.5.2.9.4 1.2.8.3.3.5.6.7.9.2.3.4.7.4 1.1h-7.6zM31.3 68.8c-1.5 0-2.8.5-3.9 1.6s-1.6 2.4-1.6 3.9.5 2.8 1.6 3.9 2.4 1.6 3.9 1.6 2.8-.5 3.8-1.6c1.1-1.1 1.6-2.3 1.6-3.9 0-1.5-.5-2.8-1.6-3.9-1-1-2.3-1.6-3.8-1.6M52.2 68.8c-1.5 0-2.8.5-3.9 1.6s-1.6 2.4-1.6 3.9.5 2.8 1.6 3.9 2.4 1.6 3.9 1.6 2.8-.5 3.8-1.6c1.1-1.1 1.6-2.3 1.6-3.9 0-1.5-.5-2.8-1.6-3.9-1-1-2.3-1.6-3.8-1.6M73.1 68.8c-1.5 0-2.8.5-3.9 1.6s-1.6 2.4-1.6 3.9.5 2.8 1.6 3.9 2.4 1.6 3.9 1.6 2.8-.5 3.8-1.6c1.1-1.1 1.6-2.3 1.6-3.9 0-1.5-.5-2.8-1.6-3.9-1-1-2.3-1.6-3.8-1.6M94 68.8c-1.5 0-2.8.5-3.9 1.6s-1.6 2.4-1.6 3.9.5 2.8 1.6 3.9 2.4 1.6 3.9 1.6 2.8-.5 3.8-1.6c1.1-1.1 1.6-2.3 1.6-3.9 0-1.5-.5-2.8-1.6-3.9-1-1-2.3-1.6-3.8-1.6"/></svg>