<svg id="Layer_1" xmlns="http://www.w3.org/2000/svg" viewBox="0 0 128 128"><style>.st0{fill:#ef1516}.st1{fill:#fff}.st2{fill:none;stroke:#fff;stroke-width:.5191}.st3{fill:#5d6d6d}</style><path class="st0" d="M0 28.5h128v49.1H0z"/><path class="st1" d="M110.5 31.8h7.2v34h6.1v8.5h-13.3z"/><circle class="st2" cx="121.7" cy="34.1" r="2.7"/><path class="st1" d="M120.6 35.5v-2.9h1.3c.3 0 .4 0 .6.1.1.1.2.1.3.3.1.1.1.3.1.4 0 .2-.1.4-.2.5-.1.1-.3.2-.6.3.1 0 .2.1.2.1.1.1.2.2.3.4l.5.8h-.5l-.4-.6c-.1-.2-.2-.3-.3-.4-.1-.1-.1-.2-.2-.2s-.1-.1-.2-.1h-.5v1.3h-.4zm.4-1.6h.8c.2 0 .3 0 .4-.1.1 0 .2-.1.2-.2.1-.1.1-.2.1-.3 0-.1 0-.2-.1-.3-.1-.1-.3-.1-.5-.1h-.9v1zM5.3 74.2V31.8H15l3.4 17.8 3.9-17.8h9.3V70l6.1-38.2h9.5L53.1 70V32h12.6s4.4.8 6.5 6.9l-.9-7h7.6l3.6 22L86.2 32h21.5v7.9h-6.4v8.7h6.1v8.9h-5.9v8.1h6.2v8.6H93.9V33.4l-7.2 40.8h-8.6l-4.5-27.1s-.8 7.5-5 10.9l5.5 16.2h-7.5L61.3 60v14.2H46.2l-.8-4h-5.8l-1.2 4H24.1V58.6l-3.7 15.6h-3.9L13 58.8V74l-7.7.2zm39.4-12.3L42.5 49l-1.9 12.9h4.1zm16.5-9.8c5.1-.3 4.7-6.7 4.7-6.7-.8-6.2-4.7-5.9-4.7-5.9v12.6z"/><path class="st3" d="M17.7 92.2c0 2-.7 3.7-2.1 5.1-1.4 1.4-3.1 2.1-5.1 2.1s-3.7-.7-5.1-2.1c-1.4-1.4-2.1-3.1-2.1-5.1 0-2 .7-3.7 2.1-5.1 1.4-1.4 3.1-2.1 5.1-2.1s3.7.7 5.1 2.1c1.4 1.4 2.1 3.1 2.1 5.1zm-1 0c0-1.7-.6-3.2-1.8-4.5-1.2-1.2-2.7-1.9-4.5-1.9s-3.2.7-4.4 2c-1.2 1.2-1.8 2.7-1.8 4.5 0 1.7.6 3.2 1.8 4.5 1.2 1.2 2.7 1.9 4.5 1.9s3.2-.6 4.5-1.9c1.1-1.3 1.7-2.8 1.7-4.6zm-3.3 3.4c-.5.2-.9.4-1.4.5-.4.1-.9.2-1.3.2-1.3 0-2.3-.3-3-1-.7-.7-1.1-1.7-1.1-3s.4-2.3 1.1-3c.8-.7 1.8-1.1 3-1.1.5 0 1 .1 1.5.2s.9.3 1.2.4v1.5h-.1c-.3-.2-.7-.4-1.2-.6-.5-.2-1-.3-1.5-.3-.8 0-1.4.2-1.9.7-.4.5-.7 1.2-.7 2.1 0 .9.2 1.6.6 2.1.4.5 1.1.7 1.9.7.5 0 .9-.1 1.4-.2.4-.2.9-.4 1.3-.7h.1v1.5zm18.5 2.2h-1.7V87l-3.5 7.3h-1L22.3 87v10.8h-1.6V85.2H23l3.3 7 3.2-7h2.3v12.6zm13.2 0h-1.8l-1.2-3.5h-5.4l-1.2 3.5h-1.7l4.6-12.5h2.2l4.5 12.5zm-3.5-5l-2.2-6.1-2.2 6.1h4.4zm15.8 5h-2.2l-4.2-5h-2.3v5H47V85.2h3.5c.8 0 1.4 0 1.9.1s1 .3 1.4.5c.5.3.8.6 1.1 1.1.3.4.4 1 .4 1.7 0 .9-.2 1.7-.7 2.3-.5.6-1.1 1.1-1.9 1.4l4.7 5.5zm-3.9-9c0-.4-.1-.7-.2-1-.1-.3-.3-.5-.6-.7-.2-.2-.5-.3-.9-.3-.3-.1-.7-.1-1.2-.1h-2v4.7h1.7c.5 0 1 0 1.4-.1.4-.1.7-.3 1-.5.3-.2.4-.5.6-.8.1-.4.2-.8.2-1.2zm15.4-3.6l-4.6 12.5h-2.2l-4.6-12.5h1.8l3.9 11 3.9-11h1.8zM79 97.8h-8.3V85.2H79v1.5h-6.6v3.4H79v1.5h-6.6v4.7H79v1.5zm10.6 0h-7.9V85.2h1.7v11h6.3v1.6z"/></svg>