<svg id="Layer_1" xmlns="http://www.w3.org/2000/svg" viewBox="0 0 128 128"><style>.st0{fill:#231f20}</style><path class="st0" d="M17.5 123.9v-6h4v.7h-3.2v1.8h2.8v.7h-2.8v2.8zM90.5 49.3c-13.6 0-24.7-11.1-24.7-24.7C65.8 11.1 76.9 0 90.5 0s24.6 11.1 24.6 24.6c.1 13.7-11 24.7-24.6 24.7m0-44c-10.7 0-19.4 8.7-19.4 19.4s8.7 19.4 19.4 19.4 19.4-8.7 19.4-19.4-8.7-19.4-19.4-19.4"/><path class="st0" d="M104 23.4s-.3-3.7-2.8-2.8c-2 .8-.3 4.3-.3 4.3s.7-1 1.5-.6.7 1.9-.1 2.8c-.9 1-5 1.4-8.7-2.2l-2-2.4s1.5-2.7 3.6-1.8c1.3.6.6 3.1.6 3.1l.1-.1c1.1-.3 4-3.4 1.4-6-1-1-3.8-.7-5.5 2.2 0 0 1.2-2.2 1-4.7-.2-3.2-2.2-5.8-2.2-5.8h-.1s-2 2.6-2.2 5.8c-.2 2.5 1 4.7 1 4.7-1.7-2.9-4.5-3.1-5.5-2.2-2.6 2.6.3 5.7 1.4 6l.1.1s-.8-2.5.6-3.1c2-1 3.6 1.8 3.6 1.8l-2.1 2.4c-3.7 3.6-7.8 3.2-8.7 2.2-.8-.8-.9-2.4-.1-2.8.8-.4 1.5.6 1.5.6s1.7-3.5-.3-4.3c-2.5-.9-2.7 2.8-2.7 2.8-.7-4.3-4-4-4-4l5.6 13.5c3.4-1.7 7.4-2.6 11.7-2.6 4.5 0 8.7 1.1 12.1 2.8l5.7-13.7c-.2 0-3.4-.3-4.2 4M79.4 34.9l.1.2c.6 1.6 4.6 3.7 10.9 3.7h.1c6.3 0 10.3-2.1 10.9-3.6-3.2-1.6-7.1-2.6-11.2-2.6-4 0-7.7.8-10.8 2.3M51.1 1.5h-26l-5.3 9.2h28.4l15 13.9-15 14H19.8l5.3 9.2h26l13.4-23.2z"/><path class="st0" d="M16.7 31.9l-3.9-7.3 3.9-7.2h31l13.8 7.2-13.8 7.3zM27.5 83.6v8.8H17v-8.8h-4v22.6h4V96.1h10.5v10.1h4V83.6zM47.1 83.6h-3.9l-8.7 22.6h4.3l.1-.4c0-.1 6.2-16.6 6.2-16.6s6 15.2 6.6 16.6l.1.4h4.5l-9.2-22.6zM53.8 83.6v3.7h7.3v18.9h4V87.3h7.4v-3.7zM89.4 97.4l-.1.6c-.4 1.7-1 2.9-2.1 3.8-1 .8-2.2 1.3-3.7 1.3-1.2 0-2.3-.3-3.3-.9-1-.6-1.8-1.6-2.3-2.8-.5-1.3-.7-2.8-.7-4.6 0-1.3.2-2.7.6-3.9.4-1.2 1.1-2.2 2.1-2.9 1-.7 2.3-1.1 3.8-1.1 1.3 0 2.4.3 3.2.9.8.6 1.5 1.7 1.9 3.1l.2.5 3.9-.9-.2-.6c-.6-2.1-1.7-3.8-3.3-4.9-1.6-1.2-3.5-1.8-5.8-1.8-2 0-3.8.5-5.5 1.4-1.7.9-3 2.3-3.9 4-.9 1.7-1.3 3.8-1.3 6.1 0 2.1.4 4.2 1.2 6 .8 1.9 2 3.3 3.5 4.4 1.5 1 3.5 1.5 6 1.5 2.4 0 4.4-.7 6-2 1.6-1.3 2.8-3.2 3.4-5.7l.1-.5-3.7-1zM109.8 83.6v8.8H99.6v-8.8h-4v22.6h4V96.1h10.2v10.1h4V83.6zM29.3 69.8l-.1.6c-.4 1.7-1 2.9-2 3.7-1 .8-2.2 1.3-3.7 1.3-1.2 0-2.3-.3-3.4-.9-1-.6-1.8-1.5-2.2-2.8-.5-1.3-.8-2.8-.8-4.6 0-1.4.2-2.7.7-4 .4-1.2 1.1-2.2 2.1-2.9 1-.7 2.3-1.1 3.8-1.1 1.3 0 2.4.3 3.2 1 .8.6 1.5 1.7 2 3.1l.2.5 3.9-.9-.2-.6c-.6-2.1-1.7-3.8-3.3-4.9-1.5-1.2-3.5-1.8-5.8-1.8-2 0-3.8.5-5.5 1.4-1.7.9-3 2.3-3.9 4-.9 1.7-1.3 3.8-1.3 6.1 0 2.1.4 4.1 1.2 6 .8 1.9 2 3.4 3.5 4.4 1.5 1 3.5 1.5 6 1.5 2.4 0 4.4-.7 6-2 1.6-1.3 2.8-3.2 3.4-5.7l.1-.6-3.9-.8zM74.3 61.2c-.9-1.8-2.2-3.2-3.9-4.2-1.7-1-3.6-1.5-5.6-1.5-3.2 0-5.8 1.1-7.8 3.2s-3 5.1-3 8.8c0 2 .4 3.9 1.3 5.6.9 1.8 2.1 3.2 3.8 4.2 1.7 1 3.6 1.6 5.7 1.6 2 0 3.8-.5 5.5-1.4 1.7-1 3-2.3 4-4.2.9-1.8 1.4-3.9 1.4-6.1 0-2.2-.5-4.2-1.4-6m-2.7 6.1c0 2.6-.6 4.6-1.9 6-1.3 1.4-2.9 2.1-4.8 2.1s-3.5-.7-4.8-2.1C58.7 71.9 58 70 58 67.6c0-3 .7-5.2 2-6.5 1.3-1.3 2.9-1.9 4.8-1.9 1.3 0 2.5.3 3.5 1 1 .6 1.8 1.6 2.4 2.8.6 1.1.9 2.6.9 4.3M94.2 68.5c-.6-1-1.7-1.8-3-2.4-.9-.4-2.5-.9-4.9-1.4-2.9-.7-3.8-1.1-4-1.4-.4-.4-.6-.9-.6-1.5 0-.7.3-1.3.9-1.8.7-.5 1.8-.8 3.4-.8 1.5 0 2.6.3 3.4.9.7.6 1.1 1.5 1.3 2.7l.1.6 3.8-.3v-.6c0-1.4-.4-2.6-1.1-3.7-.7-1.1-1.7-1.9-3.1-2.5-1.3-.5-2.8-.8-4.4-.8-1.5 0-2.9.3-4.1.8-1.3.5-2.3 1.3-3 2.4-.7 1-1 2.2-1 3.3 0 1.1.3 2.1.8 3 .6.9 1.4 1.6 2.5 2.2.8.4 2.3.9 4.3 1.4 1.9.5 3.2.8 3.8 1 .8.3 1.3.7 1.7 1.1.3.4.5.9.5 1.4 0 .6-.2 1-.5 1.5s-.9.8-1.6 1.1c-.8.3-1.6.5-2.7.5s-2.2-.2-3-.6c-.9-.4-1.5-.9-1.9-1.5-.4-.6-.7-1.4-.8-2.4l-.1-.6-3.9.4v.5c0 1.5.5 2.9 1.3 4.2.8 1.2 1.9 2.2 3.4 2.8 1.4.5 3.1.9 5.1.9 1.6 0 3.1-.3 4.4-.9 1.3-.6 2.4-1.5 3.1-2.6.7-1.1 1.1-2.3 1.1-3.6-.2-1.2-.5-2.3-1.2-3.3M114.2 68.5c-.7-1-1.7-1.8-3-2.4-.9-.4-2.5-.9-4.9-1.4-2.9-.7-3.8-1.1-4-1.4-.4-.4-.6-.9-.6-1.5 0-.7.3-1.3 1-1.8s1.8-.8 3.4-.8c1.5 0 2.6.3 3.4.9.7.6 1.2 1.5 1.3 2.7l.1.6 3.8-.3v-.6c0-1.4-.4-2.6-1.2-3.7-.7-1.1-1.7-1.9-3.1-2.5-1.3-.5-2.8-.8-4.4-.8-1.5 0-2.9.3-4.2.8-1.3.5-2.3 1.3-3 2.4-.7 1-1 2.2-1 3.3 0 1.1.3 2.1.8 3 .6.9 1.4 1.6 2.5 2.2.9.4 2.2.9 4.3 1.4 1.9.5 3.2.8 3.7 1 .8.3 1.4.7 1.7 1.1.3.4.5.9.5 1.4 0 .6-.2 1-.5 1.5s-.9.8-1.6 1.1c-.8.3-1.7.5-2.7.5-1.1 0-2.2-.2-3.1-.6-.9-.4-1.5-.9-1.9-1.5-.4-.6-.7-1.4-.8-2.4l-.1-.6-3.6.4v.5c0 1.5.5 2.9 1.3 4.2.8 1.2 1.9 2.2 3.3 2.8 1.4.5 3.1.9 5.1.9 1.6 0 3.1-.3 4.4-.9 1.3-.6 2.4-1.5 3.1-2.6.7-1.1 1.1-2.3 1.1-3.6-.1-1.2-.4-2.3-1.1-3.3"/><path class="st0" d="M51.2 71.8c-.8-1.2-1.6-2.2-2.5-3-.1-.1-.3-.3-.5-.4 1.4-.4 2.6-1 3.4-1.8 1.1-1.2 1.6-2.6 1.6-4.3 0-1.3-.3-2.5-1-3.5-.7-1.1-1.6-1.9-2.7-2.3-1-.4-2.6-.6-4.6-.6h-10v22.6h4V59.4h6.2c1.5 0 2.5.3 3.1.9.6.5.9 1.2.9 2.1 0 .6-.2 1.1-.5 1.6s-.8.9-1.4 1.1c-.7.2-1.6.4-2.8.4h-4.2V69h1.4c.9 0 1.3 0 1.4.1.4.1.7.3 1.1.5.4.2.8.7 1.3 1.3.5.7 1.2 1.6 2 2.9l3 4.7h4.9l-4.1-6.7zM22.9 120.9c0-1 .3-1.8.8-2.3.5-.6 1.2-.8 2.1-.8.6 0 1.1.1 1.5.4.4.3.8.6 1 1.1.2.5.3 1 .3 1.6 0 .6-.1 1.2-.4 1.6-.2.5-.6.8-1 1.1-.5.2-.9.4-1.5.4s-1.1-.1-1.5-.4c-.4-.3-.8-.6-1-1.1-.2-.5-.3-1-.3-1.6m.8.1c0 .7.2 1.3.6 1.7.4.4.9.6 1.5.6s1.1-.2 1.5-.6c.4-.4.6-1 .6-1.8 0-.5-.1-.9-.2-1.3-.2-.4-.4-.6-.7-.8-.3-.2-.7-.3-1.1-.3-.6 0-1 .2-1.4.6-.6.3-.8 1-.8 1.9M37.8 123.9l-1.6-6h.8l.9 3.9.3 1.2c.2-.6.2-1 .3-1.1l1.1-4h1l.9 3c.2.8.4 1.5.5 2.1.1-.4.2-.8.3-1.3l.9-3.9h.8l-1.6 6h-.8l-1.3-4.6c-.1-.4-.2-.6-.2-.7-.1.3-.1.5-.2.7l-1.3 4.6h-.8zM47 118.8l-1.9 5.1h-.9l2.3-6h.9l2.4 6h-.9zM57.7 123.9v-6h2.1c.5 0 .8 0 1.1.1.3.1.6.2.9.4.3.3.6.6.7 1 .2.4.2.9.2 1.4 0 .5-.1.9-.2 1.2-.1.3-.2.6-.4.9-.2.2-.3.4-.5.5-.2.1-.4.2-.7.3-.3.1-.6.1-1 .1h-2.2zm.8-.7h1.3c.4 0 .7 0 .9-.1.2-.1.4-.2.5-.3.2-.2.3-.4.4-.8.1-.3.2-.7.2-1.2 0-.6-.1-1.1-.3-1.4-.2-.3-.5-.6-.7-.7-.2-.1-.6-.1-1-.1h-1.3v4.6zM68.6 123.9v-5.3h-2v-.7h4.8v.7h-2v5.3zM72.8 123.9v-6h.8v2.4h3.1v-2.4h.8v6h-.8V121h-3.1v2.9zM79.6 117.9h.8v6h-.8zM82.3 123.9v-6h.8l3.2 4.7v-4.7h.8v6h-.9l-3.1-4.7v4.7zM88.9 123.9v-6h.8v2.9l3-2.9h1.1l-2.5 2.4 2.6 3.6h-1.1l-2.1-3.1-1 1v2.1zM95.3 117.9h.8v6h-.8zM98.1 123.9v-6h.8l3.2 4.7v-4.7h.8v6h-.9l-3.1-4.7v4.7zM107.5 121.5v-.7h2.5v2.2c-.4.3-.8.5-1.2.7-.4.2-.8.2-1.3.2-.6 0-1.1-.1-1.6-.4-.5-.3-.8-.6-1.1-1.1-.2-.5-.4-1-.4-1.6 0-.6.1-1.1.4-1.6.2-.5.6-.9 1.1-1.1.5-.2 1-.4 1.6-.4.4 0 .8.1 1.2.2.3.1.6.3.8.6.2.3.4.6.5 1l-.7.2c-.1-.3-.2-.5-.3-.7-.1-.2-.3-.3-.6-.4-.3-.1-.5-.2-.8-.2-.4 0-.7.1-.9.2-.3.1-.5.3-.6.4-.2.2-.3.4-.4.6-.2.4-.2.8-.2 1.2 0 .5.1 1 .3 1.3.2.4.4.6.8.8.4.2.7.3 1.1.3.3 0 .7-.1 1-.2.3-.1.6-.3.7-.4v-1.1h-1.9zM34.5 122.2c-.2-.3-.4-.6-.7-.8-.1-.1-.3-.2-.5-.3.6-.1 1-.3 1.3-.6.3-.3.4-.6.4-1.1 0-.3-.1-.6-.2-.9-.2-.3-.4-.5-.7-.6-.3-.1-.7-.2-1.2-.2h-2.7v6h.8v-5.3h1.9c.4 0 .8.1 1 .3.2.2.3.4.3.7 0 .2-.1.4-.2.5-.1.2-.3.3-.5.4-.2.1-.5.1-.9.1h-1.2v.7h1c.1 0 .2.1.4.2.1.1.3.2.4.4.2.2.3.5.6.8l.8 1.3h1l-1.1-1.6zM55.3 122.2c-.2-.3-.4-.6-.7-.8-.1-.1-.3-.2-.5-.3.6-.1 1-.3 1.3-.6.3-.3.4-.6.4-1.1 0-.3-.1-.6-.2-.9-.2-.3-.4-.5-.7-.6-.3-.1-.7-.2-1.2-.2H51v6h.8v-5.3h1.9c.4 0 .8.1 1 .3.2.2.3.4.3.7 0 .2-.1.4-.2.5-.1.2-.3.3-.5.4-.2.1-.5.1-.9.1h-1.2v.7h.8c.1 0 .2.1.4.2.1.1.3.2.4.4.2.2.3.5.6.8l.8 1.3h1l-.9-1.6z"/><path class="st0" d="M115.2 128H13v-14.3h102.2V128zm-101.5-.7h100.8v-12.8H13.7v12.8z"/></svg>