<svg id="Layer_1" xmlns="http://www.w3.org/2000/svg" viewBox="0 0 128 128"><style>.st0{fill:#ac162c}.st1{stroke-width:5.482765e-2}.st1,.st2{fill:none;stroke:#000}.st2{stroke-width:.4283;stroke-miterlimit:10}.st3{fill:none;stroke:#fff;stroke-width:5.482765e-2}</style><path class="st0" d="M0 65.4h128v1.4H0z"/><path d="M20.2 78.3c-.1 1.5-1.5 2.5-3.5 2.5-2.1 0-3.4-.8-3.3-2.5H15c.1 1.1.9 1.5 1.8 1.5.8 0 1.7-.4 1.7-1.5V72h1.7v6.3z"/><path class="st1" d="M20.2 78.3c-.1 1.5-1.5 2.5-3.5 2.5-2.1 0-3.4-.8-3.3-2.5H15c.1 1.1.9 1.5 1.8 1.5.8 0 1.7-.4 1.7-1.5V72h1.7v6.3z"/><path d="M24 80.7v-8.6h7v.9h-5.5v2.8h5.3v.9h-5.3v3H31v1z"/><path class="st1" d="M24 80.7v-8.6h7v.9h-5.5v2.8h5.3v.9h-5.3v3H31v1z"/><path d="M34.5 80.7v-8.6h6.6v.9H36v2.8h4.9v1H36v3.9z"/><path class="st2" d="M34.5 80.7v-8.6h6.6v.9H36v2.8h4.9v1H36v3.9z"/><path d="M45 80.7v-8.6h6.7v.9h-5.1v2.8h4.8v1h-4.8v3.9z"/><path class="st2" d="M45 80.7v-8.6h6.7v.9h-5.1v2.8h4.8v1h-4.8v3.9z"/><path d="M60 79.7h2.5c1.2 0 2.1-.4 2.1-1.6 0-1-1-1.4-2.1-1.4H60v3zm0-4.1h1.9c1.5.2 2.6-.1 2.6-1.3 0-1.1-1-1.3-2.6-1.3H60v2.6zm-1.5 5.1v-8.6h4c1.8 0 3.5.5 3.5 2.2 0 .9-.6 1.6-1.8 1.9 1.4.1 2.2 1.1 2.2 2.2 0 1-.9 1.8-2.1 2.1-.5.1-1.1.1-1.8.1h-4z"/><path class="st2" d="M60 79.7h2.5c1.2 0 2.1-.4 2.1-1.6 0-1-1-1.4-2.1-1.4H60v3zm0-4.1h1.9c1.5.2 2.6-.1 2.6-1.3 0-1.1-1-1.3-2.6-1.3H60v2.6zm-1.5 5.1v-8.6h4c1.8 0 3.5.5 3.5 2.2 0 .9-.6 1.6-1.8 1.9 1.4.1 2.2 1.1 2.2 2.2 0 1-.9 1.8-2.1 2.1-.5.1-1.1.1-1.8.1h-4z"/><path d="M71.8 77.5h4.1l-2-4.3-2.1 4.3zm-3.4 3.2l4.7-8.6h1.7l4.6 8.6h-1.7l-1.3-2.3h-5.1L70 80.7h-1.6z"/><path class="st2" d="M71.8 77.5h4.1l-2-4.3-2.1 4.3zm-3.4 3.2l4.7-8.6h1.7l4.6 8.6h-1.7l-1.3-2.3h-5.1L70 80.7h-1.6z"/><path d="M91 72.1v8.6h-2l-5.5-7.4h-.2v7.4h-1.2v-8.6h2.1l5.4 7v-7z"/><path class="st2" d="M91 72.1v8.6h-2l-5.5-7.4h-.2v7.4h-1.2v-8.6h2.1l5.4 7v-7z"/><path d="M95 80.7v-8.6h1.6v3.7l4.7-3.7h2.1l-5.1 3.8 5.5 4.8h-2.1L96.6 76v4.7z"/><path class="st2" d="M95 80.7v-8.6h1.6v3.7l4.7-3.7h2.1l-5.1 3.8 5.5 4.8h-2.1L96.6 76v4.7z"/><path d="M107.4 78.1c0 1.3 1 1.7 2.4 1.7 1.3 0 2.9-.3 2.9-1.5 0-.9-.9-1.2-1.8-1.3-1.9-.3-4.9-.7-4.9-2.6 0-2 2.1-2.7 4.3-2.7 2 0 3.8.7 3.8 2.4h-1.7c0-1-1.1-1.3-2.1-1.3-1.1 0-2.7.3-2.7 1.3s1 1.2 1.8 1.3c2.1.6 5 .6 5 2.7 0 2-2.2 2.7-4.6 2.7-2.4 0-4.1-.7-4-2.7h1.6z"/><path class="st3" d="M107.4 78.1c0 1.3 1 1.7 2.4 1.7 1.3 0 2.9-.3 2.9-1.5 0-.9-.9-1.2-1.8-1.3-1.9-.3-4.9-.7-4.9-2.6 0-2 2.1-2.7 4.3-2.7 2 0 3.8.7 3.8 2.4h-1.7c0-1-1.1-1.3-2.1-1.3-1.1 0-2.7.3-2.7 1.3s1 1.2 1.8 1.3c2.1.6 5 .6 5 2.7 0 2-2.2 2.7-4.6 2.7-2.4 0-4.1-.7-4-2.7h1.6z"/><path d="M25.5 59.7v-4.6c0-.4.1-.6.2-.9.2-.4.4-.7.7-1 .3-.3.8-.5 1.3-.6.5-.1 1.2-.2 2-.2h5.5c1.1 0 2.3-.7 2.3-1.5v-.8c0-1.2-.7-1.5-2.3-1.5H29s-.6 0-.7.4c-.1.1-.1.4-.1.4h-2.1s0-1.3 1-2c.7-.5 2.6-.4 2.6-.4h5.5c.8 0 1.4.1 2 .2.5.1 1 .4 1.3.6.3.3.6.6.7 1 .2.4.2.8.2 1.2v.7c0 .5-.1.9-.2 1.2-.2.4-.4.7-.7 1-.3.3-.8.5-1.3.6-.5.1-1.2.2-2 .2h-5.5c-1.1 0-2.1.1-2.3 1.2v3h12.1v1.6h-14zm53 0l8.9-11H74.7v-1.5h15.2v1.7l-8.7 10.8zm18.6-1.8h-2.3l6.2-4.5-6.2-4.5h2.3l5 3.7 1.1.8-1.1.8zm-29-2.3c0 .5-.4.8-.8.8s-.8-.4-.8-.8c0-.5.4-.8.8-.8s.8.4.8.8m0-4.2c0 .5-.4.8-.8.8-.5 0-.8-.4-.8-.8 0-.5.4-.8.8-.8s.8.3.8.8M55 59.8v-3.4H43.4l.1-2.4 10.6-6.8h2.8l-.5.4L45 54.8h10v-7.6h1.9v12.5z"/><path d="M54.3 54.8h5.1v1.6h-5.1z"/></svg>