<svg xmlns="http://www.w3.org/2000/svg" viewBox="0 0 128 128"><path d="M68.4 88.9v2.2h2.9v.6h-2.9V94h3v.7h-3.7v-6.4h3.7v.6zm7.4 4.4h-2.9l-.4 1.3h-.7l2.1-6.4h.9l2.1 6.4h-.7l-.4-1.3zm-.2-.5l-1.3-3.9-1.3 3.9h2.6zm2.5-4.5V94h3v.7h-3.6v-6.4zm6.4 0V94h3v.7h-3.7v-6.4zm3.9.6v2.2h3v.6h-3V94h3.1v.7h-3.7v-6.4h3.7v.6zm7.5 4.4H93l-.4 1.3h-.7l2.1-6.4h.9l2.2 6.4h-.7l-.5-1.3zm-.2-.5l-1.3-3.9-1.3 3.9h2.6zm3.9-3.8v5.7h-.7V89h-1.8v-.7h4.3v.7zm7.1-.7v6.4h-.7v-3h-3.3v3h-.7v-6.4h.7v2.8h3.3v-2.8zm1.5.6v2.2h2.9v.6h-2.9V94h3v.7h-3.7v-6.4h3.7v.6z"/><path d="M97.4 57.5s-2.2 1.7-2.9.7c-.7-.9 3.6-3.9 4.6-3.2 1.1.7-1.7 2.5-1.7 2.5m-22-.2s4.2-5.6 5.3-6.7c.7-.6 1.8-.7 2.6-.7-.6 1.2-2.1 4.7-2.8 6.9-3 .9-5.1.5-5.1.5m-10.9-.2s-4.2 2.8-2.8.6c1.5-2.2 3-3.3 4.3-2.7 1.3.5-1.5 2.1-1.5 2.1m-22.4 4.8s-.7 1.6-3 3.8c-1.8 1.8-4.3 5.1-5.6 3.6-1.2-1.5 3.9-8.1 7-9.5 3.2-1.5 1.6 2.1 1.6 2.1M31.4 66c1-2 .7-3.5.5-5.5l3.6-.3c-1.3 1.8-3 3.9-4.1 5.8m-7.1 2.4c-6.1.6-12.4 1-9.3-3.5 0 0 2.2-3.5 14-4.2 0 0 1.4 7.1-4.7 7.7M53 50.3c1.9-4.2 7.5-14.5 7.4-12-.1 2.5-3.8 10.8-6.1 12.5 0 0-2.7 2.5-1.3-.5m33.7-.4c.9-.1 1.7-.4 1.7-1.1 0-.5-.3-.8-.7-1 .1-.2 2.9-8.1 4.9-8.5 1.3-.2-1.2 6.2-3.5 10.4-1.7 3-3.3 4.6-5.3 5.7.8-1.4 2.3-4.3 2.9-5.5m30.6 7.2c-.7-1.3-3.2.4-3.2.4l-6.6 4.9s-.1-2.8-.1-4.6c0-1.7-1.4-1.2-2.5-1.2s-.9 1.5-.9 1.5l-.3.3c-2.8.8-3.6-.2-3.6-.2 1.9-1.2 2.2-3.5 1.5-5.1-.7-1.7-3.2-1.1-3.2-1.1-6.7.6-10.3 12.1-10.3 12.1-3.7 5.1-4.9 4-4.9 4-2.1-.5-.9-7.6-.7-8.9 5.8-1.6 11-11.2 11.8-13.2.9-2.1 2-11.4-.5-11.8-2.5-.4-8.8 12.1-9.2 13-7.7-.5-12.9 10.6-12.9 10.6l-4.6.3c1.9-1.9 2.9-6.1-.7-6.5-3.6-.3-6.9 3.3-9.1 7-2.2 3.6-2.2 6-2.2 6l-1.8 1.8c-2.3 2.8-3.7 1.7-3.7 1.7-2.2-2.2-.7-8.9-.7-8.9 2.1-1.6 3.9-2.9 6.7-6.2 2.3-2.7 9.5-15.3 7.2-18.7-2.3-3.4-8.3 5.3-10.4 10-2.2 4.7-4.1 10.4-5.2 12.3-1.1 2-4.8.7-4.8.7s-3.1-2.1-5.5.7l-6 .2c.4.1-2.9-4.1-7.6-10.3-4.6-6.1 6.9-9.9 11.5-10.4 4.6-.6 5.9 1.7 6.8 3.5.9 1.7-.5 4-.5 4s-1.1 3.5 1.9.6c0 0 2.3-1.2 1.3-5.7-1-4.5-6.5-4.6-7.9-4.6-1.5 0-8.5.4-12.2 3.1-3.7 2.7-6.3 6.1-3 11.3 3.1 4.8 6 8.3 6.4 8.8-1.7.1-3.3.2-4.3.3-3.8.4-11.5 3.7-11.7 6.8-.2 3.1 1.9 5.6 7.3 5.6 5.3 0 9.7-.7 11.7-3.6.3-.4.5-.8.7-1.1-.9 1.9-1.1 3.7.6 4.9 0 0 3.1 2.4 8-2.7 4.2-4.4 5.1-5.8 5.3-6.7-.2 1.6-.6 7.8 2.6 8.6 3.6.8 7.8-3.1 7.8-3.1s-.1 3.9 3.3 3.6c6.2-.5 8.1-4.7 7.6-5.4-.5-.7-2.1.8-4.9 2.1-2.9 1.2-3.7-.1-3.6-3 .1-2.9 4-4.1 4-4.1s1.4-.7 4.3-.6c2.9.1 4.8 0 4.8 0S66.2 70.4 61.6 77C57 83.7 50 96.2 42.8 91c0 0-4.3-6.5 1.2-10.5 5.5-4.1 5.9-4.1 3.3-3.6-2.6.5-9.4 4.6-8.6 9.9.8 5.3 3.9 10.3 11.4 6.7 9-4.3 18.2-22.2 18.2-22.2L74 60c1.9-.1 4-.3 5.6-.5-.3 1.4-2.3 10.6 2.2 11.3 4.9.7 6.5-3.2 6.5-3.2s-.2 4.6 5 3.6c5.2-1.1 6.3-5.3 5.9-5.8-.4-.5-1.2 1-3.8 1.9-2.5.9-3.8 1.5-4.5-1-.7-2.5 2.3-5.6 2.3-5.6s.6.1 3.3.1c2.7 0 6.6.4 7.8-.7 0 0 .3 3.5.5 4.9 0 0-7.4 6.7-9.4 10.1-2 3.4-2.4 6.4-.4 8.4s4.1 2.7 5 1.6c.9-1.1-.8-1.6-.8-1.6s-5-2-2.4-6.2 9-9.3 9-9.3 3.1 7.9 5.5 7.3c1.6-.4-2.2-3.1-3.1-9.4L116 60s2-1.5 1.3-2.9"/><path d="M62.6 94.7v-6.4h2.7c.6 0 1.1.1 1.3.4.3.3.4.7.4 1.4 0 .6-.1 1-.2 1.2-.1.2-.4.4-.8.4.6.1.9.5.9 1.2v1.6h-.6V93c0-.7-.3-1.1-.9-1.1h-2.2v2.6h-.6zm.6-3.2h1.9c.5 0 .8-.1 1-.2.2-.2.3-.5.3-.9 0-.6-.1-.9-.2-1.1-.1-.2-.4-.3-.9-.3h-2.1v2.5zm48.9 3.2v-6.4h2.7c.6 0 1.1.1 1.3.4.3.3.4.7.4 1.4 0 .6-.1 1-.2 1.2-.1.2-.4.4-.8.4.6.1.9.5.9 1.2v1.6h-.6V93c0-.7-.3-1.1-.9-1.1h-2.2v2.6h-.6zm.6-3.2h1.9c.5 0 .8-.1 1-.2.2-.2.3-.5.3-.9 0-.6-.1-.9-.2-1.1-.1-.2-.4-.3-.9-.3h-2.1v2.5z"/></svg>