<svg id="Layer_1" xmlns="http://www.w3.org/2000/svg" viewBox="0 0 128 128"><style>.st0{fill:#fbf6d2}.st1{fill:#7b7b7b}</style><path class="st0" d="M45.7 0h36.6v128H45.7z"/><path class="st1" d="M56.7 82c0-1.4.4-2.4 1.1-3.2.7-.7 1.7-1.1 3-1.1s2.3.4 3 1.1c.7.7 1.1 1.8 1.1 3.2v4.2h5.7V88H56.7v-6zm6.6.6c0-1-.2-1.8-.6-2.3-.4-.5-1.1-.7-1.9-.7-.8 0-1.5.2-1.9.7s-.6 1.2-.6 2.3v3.6h5.1v-3.6zM69.9 68.7c.6.7.9 1.7.9 2.8 0 .8-.1 1.5-.4 2.1-.3.6-.6 1.1-1.1 1.5-.5.4-1 .7-1.7.9-.6.2-1.3.3-2.1.3s-1.5-.1-2.1-.3c-.6-.2-1.2-.6-1.6-1-.5-.4-.8-.9-1.1-1.5-.3-.6-.4-1.2-.4-1.9 0-.9.2-1.6.6-2.2.4-.6.8-1.1 1.4-1.4.6-.4 1.2-.6 1.9-.7.7-.1 1.3-.2 1.9-.2v7.5c.4 0 .9 0 1.3-.2.4-.1.7-.3 1-.6.3-.3.5-.6.7-1 .2-.4.3-.9.3-1.4 0-.7-.2-1.3-.5-1.7-.3-.4-.8-.7-1.5-.9v-1.6c1.1.3 1.9.8 2.5 1.5zm-6.4.4c-.3.1-.6.3-.9.6-.3.3-.5.5-.6.9-.1.3-.2.7-.2 1.1 0 .4.1.8.2 1.2.1.3.4.6.6.9l.9.6c.3.1.7.2 1.1.3v-5.8c-.4 0-.8.1-1.1.2zM60.5 61.1H62v2h6.7c.1 0 .2-.1.3-.2.1-.1.1-.2.1-.4v-1.4h1.5v1.3c0 .4 0 .8-.1 1.1-.1.3-.2.5-.3.7-.2.2-.4.3-.7.4-.3.1-.7.1-1.1.1H62v1.7h-1.5v-1.7h-3v-1.6h3v-2zM58.7 59.2h-2v-1.6h2v1.6zm1.8-1.6h10v1.6h-10v-1.6zM60.5 50.7H62v2h6.7c.1 0 .2-.1.3-.2.1-.1.1-.2.1-.4v-1.4h1.5V52c0 .4 0 .8-.1 1.1-.1.3-.2.5-.3.7-.2.2-.4.3-.7.4-.3.1-.7.1-1.1.1H62V56h-1.5v-1.7h-3v-1.6h3v-2zM69.9 41.8c.6.7.9 1.7.9 2.8 0 .8-.1 1.5-.4 2.1-.3.6-.6 1.1-1.1 1.5-.5.4-1 .7-1.7.9-.6.2-1.3.3-2.1.3s-1.5-.1-2.1-.3c-.6-.2-1.2-.6-1.6-1-.5-.4-.8-.9-1.1-1.5-.3-.6-.4-1.2-.4-1.9 0-.9.2-1.6.6-2.2.4-.6.8-1.1 1.4-1.4.6-.4 1.2-.6 1.9-.7.7-.1 1.3-.2 1.9-.2v7.5c.4 0 .9 0 1.3-.2.4-.1.7-.3 1-.6.3-.3.5-.6.7-1 .2-.4.3-.9.3-1.4 0-.7-.2-1.3-.5-1.7-.3-.4-.8-.7-1.5-.9v-1.6c1.1.3 1.9.8 2.5 1.5zm-6.4.4c-.3.1-.6.3-.9.6-.3.3-.5.5-.6.9-.1.3-.2.7-.2 1.1 0 .4.1.8.2 1.2.1.3.4.6.6.9l.9.6c.3.1.7.2 1.1.3V42c-.4 0-.8.1-1.1.2z"/></svg>