<svg id="Layer_1" xmlns="http://www.w3.org/2000/svg" xmlns:xlink="http://www.w3.org/1999/xlink" viewBox="0 0 128 128"><style>.st0{clip-path:url(#SVGID_2_);fill:#231f20}.st1{fill:#fff}</style><defs><path id="SVGID_1_" d="M0 0h128v128H0z"/></defs><clipPath id="SVGID_2_"><use xlink:href="#SVGID_1_" overflow="visible"/></clipPath><path class="st0" d="M64.4 122.9c32.5 0 58.9-26.4 58.9-58.9S96.9 5.1 64.4 5.1c-32.5.1-58.8 26.4-58.8 59 0 32.5 26.3 58.8 58.8 58.8"/><path class="st1" d="M56.8 17.8l7.6 19.3h-2l-2.4-6h-8.8l-2.3 6h-2l7.8-19.3h2.1zm2.6 11.8l-3.7-9.9-3.9 9.9h7.6zm7.4 3.7c.3.7.8 1.2 1.3 1.6.6.4 1.2.7 2 .9.8.2 1.6.3 2.5.3.5 0 1.1-.1 1.7-.2.6-.1 1.2-.4 1.7-.7.5-.3.9-.7 1.3-1.2.3-.5.5-1.1.5-1.8 0-.5-.1-1-.4-1.4-.2-.4-.6-.7-.9-1-.4-.3-.8-.5-1.3-.7-.5-.2-.9-.3-1.4-.4l-4.3-1.1c-.6-.1-1.1-.3-1.6-.5s-1-.5-1.4-.9c-.4-.4-.7-.8-1-1.3-.2-.5-.4-1.2-.4-1.9 0-.5.1-1 .3-1.7.2-.6.5-1.2 1-1.8.5-.6 1.2-1 2-1.4.9-.4 2-.6 3.3-.6 1 0 1.9.1 2.7.4.9.3 1.6.6 2.3 1.1.7.5 1.2 1.1 1.6 1.9.4.8.6 1.6.6 2.6h-1.8c0-.7-.2-1.4-.5-1.9-.3-.6-.7-1-1.2-1.4-.5-.4-1-.7-1.7-.8-.6-.2-1.3-.3-2-.3-.6 0-1.2.1-1.8.2-.6.1-1.1.4-1.5.7-.4.3-.8.7-1.1 1.2-.3.5-.4 1.1-.4 1.8 0 .5.1.8.2 1.2l.6.9.9.6c.4.1.7.3 1.1.4l4.7 1.2c.7.2 1.3.4 1.9.7.6.3 1.1.6 1.6 1s.8.9 1.1 1.4c.3.6.4 1.2.4 2 0 .2 0 .5-.1.9 0 .4-.2.7-.3 1.2-.2.4-.4.8-.7 1.2-.3.4-.7.8-1.3 1.1-.6.3-1.2.6-2 .8-.8.2-1.8.3-2.9.3-1.1 0-2.2-.1-3.2-.4-1-.3-1.8-.7-2.5-1.2s-1.2-1.2-1.6-2.1c-.4-.8-.5-1.9-.5-3.1h1.8c.2.7.4 1.5.7 2.2zM18.7 56.8c.3.7.8 1.2 1.3 1.6.6.4 1.2.7 2 .9.8.2 1.6.3 2.5.3.5 0 1.1-.1 1.7-.2.6-.1 1.2-.4 1.7-.7.5-.3.9-.7 1.3-1.2.3-.5.5-1.1.5-1.8 0-.5-.1-1-.4-1.4-.2-.4-.6-.7-.9-1-.4-.3-.8-.5-1.3-.7-.5-.2-.9-.3-1.4-.4L21.4 51c-.6-.1-1.1-.3-1.6-.5s-1-.5-1.4-.9c-.4-.4-.7-.8-1-1.3-.2-.5-.4-1.2-.4-1.9 0-.5.1-1 .3-1.7.2-.6.5-1.2 1-1.8.5-.6 1.2-1 2-1.4.9-.4 2-.6 3.3-.6 1 0 1.9.1 2.7.4.9.3 1.6.6 2.3 1.1.6.5 1.2 1.1 1.6 1.9.4.8.6 1.6.6 2.6H29c0-.7-.2-1.4-.5-1.9-.3-.6-.7-1-1.2-1.4-.5-.4-1-.7-1.7-.8-.6-.2-1.3-.3-2-.3-.6 0-1.2.1-1.8.2-.6.1-1.1.4-1.5.7-.4.3-.8.7-1.1 1.2-.3.5-.4 1.1-.4 1.8 0 .5.1.8.2 1.2l.6.9.9.6c.4.1.7.3 1.1.4l4.7 1.2c.7.2 1.3.4 1.9.7.6.3 1.1.6 1.6 1s.8.9 1.1 1.4c.3.6.4 1.2.4 2 0 .2 0 .5-.1.9 0 .4-.2.7-.3 1.2-.2.4-.4.8-.7 1.2-.3.4-.8.8-1.3 1.1-.6.3-1.2.6-2 .8-.8.2-1.8.3-2.9.3-1.1 0-2.2-.1-3.2-.4-1-.3-1.8-.7-2.5-1.2s-1.2-1.2-1.6-2.1c-.4-.8-.5-1.9-.5-3.1H18c.2.8.4 1.6.7 2.3zm28.4-15.5v1.6H35.6v7h10.8v1.6H35.6v7.6h11.7v1.6H33.8V41.3h13.3zm15.4 0v1.6H51v7h10.8v1.6H51v7.6h11.6v1.6H49.2V41.3h13.3zm4.1 0l11.3 16.4h.1V41.3h1.8v19.3h-2.1L66.5 44.3h-.1v16.4h-1.8V41.3h2zm25.3 0v19.3H90V41.3h1.9zm5.4 0l11.3 16.4h.1V41.3h1.8v19.3h-2.1L97.1 44.3H97v16.4h-1.8V41.3h2.1zm-57.2 58c-1.9 5.7-4.3 7-6.2 7-1.7 0-2.8-1-2.8-2.5 0-1.3.8-2.6 2.5-2.6 1.6 0 2.4 1.1 3.5 1.1.8 0 1.3-.4 2.2-3l1.6-4.7-3.7-8.6c-8.3-19.3-8.3-19.4-10.4-19.4V66H37v.5c-2.6 0-2.6.1 2.8 13.1l3.3 8.1 4.7-14.2c2.3-7 2.3-7-.5-7V66h6.4v.5c-2.8 0-2.8 0-4.9 6.4l-8.7 26.4z"/><path class="st1" d="M61.7 65.3c7 0 12.6 6.2 12.6 15.8 0 9.6-5.7 15.7-12.6 15.7-7 0-12.7-6-12.7-15.6 0-9.7 5.7-15.9 12.7-15.9m0 30.9c4.8 0 7-5.5 7-15.1s-2.2-15.2-7-15.2-7.2 5.6-7.2 15.2 2.4 15.1 7.2 15.1M97.9 87c0 6-4.7 9.8-11.1 9.8-6.2 0-10.8-3.9-10.8-9.8v-8.6c0-11.7.1-11.8-2.9-11.8V66h10.8v.5c-2.7 0-2.8 0-2.8 12.1V88c0 5.1 2.3 8.1 5.9 8.1 3.6 0 6-3.1 6-8.1v-9.4c0-12.1.1-12.1-2.7-12.1V66h10.8v.5c-2.8 0-3 0-3 11.8V87z"/></svg>