<svg id="Layer_1" xmlns="http://www.w3.org/2000/svg" viewBox="0 0 128 128"><style>.st0{fill:#fff}.st1{fill:#bcbdbe}.st2{fill:#666}.st3{fill:#fadc48}.st4{stroke:#f9d72d}.st4,.st5{fill:none;stroke-width:.1983;stroke-linecap:round;stroke-linejoin:round}.st5{stroke:#fff}</style><ellipse class="st0" cx="64" cy="64" rx="62.4" ry="64"/><path class="st1" d="M123.1 69.2h.1-.1zm-.2 0c-.1 0-.1 0 0 0zm0 0h-.1c.1-.1-.1-.1.1 0zm0-.9zm-.6-.2h-.1c.2.1 0 .1.1.1-.1.1.2.2.3.3h-.1c-.2 0 .1.1 0 .1h.2c.1.1.1.2.3.3h-.2c.4.1.2.2.1.2h.2c.1 0-.2-.1-.1-.1h.1s0-.1-.2-.1h.2-.2c.1-.1-.1-.2-.1-.4-.4-.1.1-.1 0-.2-.1 0-.1-.1-.1-.1h-.2c.3-.1.1-.3.3-.5.1-.2.4-.3-.1-.5h.1c-.1-.1.1-.1 0-.1-.3-.1.1-.2-.3-.4 0-.1 0-.3-.1-.5h.1c-.2-.1.3-.2.1-.3.2-.1-.4-.3-.2-.4.4-.1-.4-.2 0-.2.6-.1.2-.3-.1-.4.2-.1-.3-.3.1-.4-.3-.1.3-.1.3-.2h-.1c.3 0-.4-.1 0-.1h-.3.6-.6.2H121.9c.2 0 .1 0 0 0h-.1c-.2 0 .4 0 0 0 .1 0 .1.1.1.1h.2c-.3 0-.3 0-.3.1 0 0-.1 0 0 0-.3 0 .3 0-.1.1.3 0-.1 0 .3.1h-.2l-.1.1c.3 0-.1.1.2.1-.1 0-.2.1-.1.1 0 0 0 .1.3.1h-.4c.2 0 .1.1.3.1h-.2c.4.1.3.2-.1.3.1 0 .4 0 .6.1h-.1s-.2 0-.1.1h-.1c.1 0-.2 0 0 .1h-.1.1-.2c-.1.2.3.3.2.5h-.1c-.1 0 .1.1 0 .1h-.2c.2 0-.3 0 .2.1h-.2c.1.1.1.2.1.3.4.1 0 .2.3.2h-.1c.3.1 0 .2 0 .3l.1.1h-.1c.4.1-.3.1.1.2h-.1c.2 0-.1 0 .3.1h-.1c.5.1-.2.1.1.2h-.1c.1 0 .1 0 0 0h-.1c-.3 0 0 .1 0 .2h-.2c.2 0 0 .1.1.1h-.1.1-.1c.3-.1.4-.1.4 0zm.1.4zm-.5-4.4zm-1 17h-.1zm-.3-.1l.3.1c.2 0-.4-.1-.3-.1zm.1 0c.1 0-.1 0-.1-.1.1.1-.1.1.1.1zm.1-.8z"/><path class="st1" d="M120.3 79.8h-.1c.2.1 0 .1.1.2-.1.1.1.2.2.4h-.1c-.2 0 .1.1 0 .1 0 0 .1 0 .2.1 0 .1.1.2.2.3h-.2c.3.2.2.2.1.3.1 0 .1 0 .2.1.1 0-.2-.1 0-.1h.1c.1 0-.2-.1-.1-.1h.1s.1-.1-.1-.1h.2c-.1 0-.1 0-.2-.1.1-.1 0-.3 0-.4-.4-.2.1-.1 0-.2-.1 0-.1-.1-.1-.1l-.1-.1c.4-.1.2-.3.3-.4.1-.2.4-.2 0-.5h.1c-.1-.1.1-.1 0-.1-.3-.2.1-.2-.2-.4.1-.1.1-.3 0-.5h.1c-.1-.2.3-.2.2-.3.2-.1-.4-.3-.1-.4.4 0-.4-.3 0-.2.6 0 .3-.2 0-.5.2-.1-.3-.3.2-.4-.2-.1.4-.1.3-.1h-.1c.3 0-.4-.1 0-.1.2 0-.5-.1-.2-.1h-.1.1c.4.1-.1-.1.4 0 0 0 .2 0 .3.1.1 0 0 0-.2-.1-.2 0-.4-.1-.6-.1h.2H120.8c.2 0 .1 0 0 0h-.1c-.2 0 .4.1 0 0 .1.1.1.1 0 .2.1 0 0 0 .2.1h-.3s-.1 0 0 0c-.3 0 .3.1-.1 0 .3.1-.1 0 .2.1h-.2s-.1.1-.2.1c.2.1-.1 0 .2.1-.1 0-.2 0-.1.1 0 0 0 .1.2.2-.3-.1-.3 0-.4 0 .2.1.1.1.2.2h-.2c.4.2.2.3-.1.3.1 0 .4.1.5.2h-.4c.1 0-.2 0 0 .1h-.1.1-.2c-.1.1.2.4.1.6h-.1l.1.1h-.1c-.1 0 .1.1 0 .1h-.1c.2.1-.3 0 .1.1h-.1c.1.1.1.2 0 .3.4.2 0 .2.3.3h-.1c.2.2-.1.2 0 .3v.1h-.1c.3.2-.4.1 0 .2h-.1c.2.1-.1 0 .3.1h-.1c.4.2-.2 0 0 .2h-.1c.1 0 .1.1 0 .1h-.1c-.3 0 0 .1 0 .2h-.1c.2.1 0 .1.1.1h-.1.1-.1c.4-.8.5-.7.5-.7zm.1.5c-.1 0-.1 0 0 0zm.3-4.5zm-4.4 16.5h-.1zm-.3-.2l.2.2c.3.1-.3-.2-.2-.2zm.1 0c.1 0-.1-.1-.1-.1.1.1-.1.1.1.1zm.3-.7z"/><path class="st1" d="M116 90.9l-.1-.1c.1.2-.1.1.1.1l-.1.1c-.1.1.1.3.1.4h-.1l.1.1h-.1c-.2-.1.1.1-.1.1 0 0 .1.1.2.1 0 .1 0 .2.1.4 0 0-.1 0-.1-.1.3.2.1.2 0 .3.1 0 .1 0 .2.1.1 0-.2-.1 0-.1h.1c.1 0-.2-.1-.1-.1s.1.1.1.1.1 0-.1-.2c.2.1 0 0 .2 0-.1 0 0 0-.2-.1.1-.1 0-.3.1-.4-.3-.2.1-.1 0-.2s-.1-.1 0-.1l-.1-.1c.4 0 .2-.2.4-.3.2-.1.5-.1.1-.5h.1c0-.1.1-.1 0-.1-.2-.2.1-.2-.1-.5.1-.1.1-.3.1-.4h.1c-.1-.2.3-.1.3-.3.2 0-.3-.4 0-.4.4.1-.3-.3.1-.2.6.1.3-.2.1-.4.2 0-.2-.4.3-.3-.2-.2.4 0 .3-.1h-.1c.3.1-.3-.2.1-.1.2.1-.5-.2-.2-.1h-.1s.1 0 .2.1c0 0-.2-.1-.1-.1.4.2-.1-.1.4.1 0 0 .2.1.3.1l-.2-.1c-.2-.1-.4-.2-.5-.2l.1.1c-.1-.1-.1 0-.2-.1 0 0-.2-.1-.3-.1.2.1.1.1 0 0h-.1c-.2-.1.3.2 0 0 .1.1 0 .1 0 .2.1.1 0 0 .2.1-.2-.1-.3-.1-.3-.1-.3-.1.3.2-.1 0 .3.1-.1 0 .2.2-.1 0-.1 0-.2-.1 0 0-.1 0-.2.1.2.1-.1 0 .2.2h-.1s0 .1.2.2c-.3-.1-.3-.1-.4-.1l.2.2c-.1-.1 0 .1-.2 0 .4.3.2.3-.2.3.1.1.4.2.5.3h-.4c.1.1-.2 0 0 .1h-.1.1c-.1 0-.2-.1-.1-.1-.1.1.1.4 0 .6h-.1l.1.1h-.1c-.1 0 0 .1 0 .1l-.1-.1c.2.1-.3-.1.1.1l-.1-.1c.1.1 0 .2-.1.3.3.2 0 .2.2.4h-.1c.2.2-.1.2-.1.3v.1h-.1c.3.2-.4 0 0 .2l-.1-.1c.2.1-.1 0 .2.2h-.1c.4.3-.2 0 0 .2h-.1c.1 0 .1.1 0 .1h-.1c-.3-.1 0 .1-.1.2l-.1-.1c.2.1 0 .1 0 .1h-.1l.1.1-.1-.1c.2-.6.3-.5.3-.5zm-.1.5zm1.2-4.3c.1 0 .1 0 0 0 0 0 .1 0 0 0zm-7.6 15.2v.1l-.1-.1zm-.2-.2l.2.2c.2.1-.3-.3-.2-.2z"/><path class="st1" d="M109.3 102.1c.1 0-.1-.1-.1-.1l.1.1zm.5-.7z"/><path class="st1" d="M109.5 100.9l-.1-.1c.2.2-.1.1 0 .2-.1.1 0 .3 0 .4h-.1l.1.1-.1-.1c-.2-.1.1.1-.1 0l.1.1c0 .1 0 .2.1.4l-.1-.1c.2.3.1.3 0 .3.1.1.1.1.2.1.1.1-.2-.2 0-.1l.1.1c.1 0-.2-.1-.1-.1s.1.1.1.1c0-.1.1 0-.1-.2l.2.1c-.1-.1 0-.1-.1-.1.2 0 .1-.2.2-.3-.3-.3.1-.1.1-.2-.1-.1-.1-.1 0-.1l-.1-.1c.4.1.3-.2.5-.2.2-.1.5 0 .2-.5h.1c0-.1.1 0 .1-.1-.2-.3.2-.2 0-.5.1-.1.2-.2.2-.4h.1c-.1-.2.3 0 .3-.2.2 0-.2-.5.1-.4.3.2-.2-.4.1-.2.6.2.3-.1.1-.4.3 0-.1-.4.3-.3-.2-.2.4.1.3 0l-.2-.1c.2.1-.3-.3.1 0 .2.1-.4-.3-.2-.2l-.1-.1.1.1s-.2-.1-.1-.1c.4.2-.1-.1.3.2 0 0 .2.1.2.2l-.1-.1c-.2-.1-.3-.2-.5-.3l.1.1c-.1-.1-.1 0-.2-.1 0 0-.2-.1-.3-.2.2.1 0 .1 0 .1h-.1c-.2-.1.3.2 0 0v.2c.1.1 0 0 .2.1-.2-.1-.3-.2-.3-.1-.3-.2.2.2-.1 0 .2.2-.1 0 .2.2-.1 0-.1-.1-.1-.1h-.2c.2.2-.1 0 .1.2-.1 0-.2-.1-.1 0 0 0 0 .1.2.2-.3-.2-.2-.1-.3-.2.1.1 0 .1.1.2-.1-.1 0 .1-.2-.1.3.3.1.3-.2.2l.4.4s-.2-.1-.1 0h-.1c.1.1-.2-.1 0 0h-.1l.1.1c-.1 0-.2-.1-.1-.1-.2.1.1.5-.1.6h-.1l.1.1h-.1c-.1 0 0 .1 0 .1l-.1-.1c.1.2-.2-.1.1.1l-.1-.1c.1.2 0 .2-.1.2.3.3-.1.1.1.4h-.1c.2.2-.1.1-.2.3v.1l-.1-.1c.3.3-.4-.1-.1.2l-.1-.1c.2.1-.1 0 .2.2l-.1-.1c.3.3-.2-.1 0 .2l-.1-.1c0 .1.1.1 0 .1-.3-.2 0 .1-.1.1l-.1-.1c.1.1 0 .1 0 .1h-.1.1v-.2c-.1 0 0 .1 0 .2zm-.2.4zm2.1-3.9zm-10.5 13.4l-.1-.1zm-.2-.3l.2.2c.1.2-.3-.3-.2-.2zm0 .1c.1.1 0-.1-.1-.1.1 0 0-.1.1.1zm.6-.6zM101.1 109.4l-.1-.1c.1.2-.1.1 0 .2-.1 0 0 .3-.1.4v-.1l.1.1v-.1c-.2-.2 0 .2-.1 0l.1.1c0 .1-.1.2 0 .4l-.1-.1c.2.3 0 .3-.1.3.1.1.1.1.1.2.1.1-.1-.2 0-.1l.1.1s-.1-.2-.1-.1l.1.1c0-.1.1 0 0-.2.1.1 0 0 .2.1 0-.1 0-.1-.1-.2.2 0 .1-.2.2-.3-.2-.3.1 0 .1-.2v-.1l-.1-.1c.3.2.3-.1.5-.1s.5.1.3-.4v.1c0-.1.1 0 .1-.1-.1-.3.2-.1.1-.5.1-.1.2-.2.3-.4l.1.1c0-.2.3 0 .3-.1.2 0-.1-.5.1-.4.3.2-.2-.4.2-.2.5.3.4 0 .2-.4.2.1 0-.4.4-.2-.1-.2.3.2.3.1l-.1-.1c.2.2-.2-.3.1 0 .2.1-.3-.4-.1-.2l-.1-.1.1.1-.1-.1c.3.3 0-.1.3.3l.2.2-.1-.2c-.1-.2-.3-.3-.4-.4l.1.1-.1-.1s-.2-.2-.3-.2c.1.1 0 .1 0 .1l-.1-.1c-.1-.1.2.3 0 0 0 .1 0 .1-.1.1.1.1 0 0 .1.2-.2-.2-.3-.2-.3-.2-.3-.2.2.3-.1 0 .2.2-.1 0 .1.2l-.1-.1h-.2c.2.2-.1 0 .1.2-.1 0-.2-.1-.1 0 0 0 0 .1.1.3l-.3-.3c.1.1 0 .1.1.3-.1-.1 0 .1-.1-.1.2.4 0 .4-.3.2.1.1.3.3.4.5 0 0-.2-.1-.1-.1v-.1c.1.1-.2-.1 0 0v.1l-.1-.1c-.2.1 0 .5-.2.5v-.1l.1.1v-.1c-.1-.1 0 .1-.1.1l-.1-.1c.1.2-.2-.2.1.2l-.1-.1c0 .2 0 .2-.2.2.2.3-.1.1.1.4l-.1-.1c.1.3-.2.1-.2.2-.1 0 0 .1 0 .1l-.1-.1c.2.3-.3-.2-.1.2l-.1-.1c.1.2-.1 0 .2.2l-.1-.1c.3.4-.2-.1-.1.2l-.1-.1v.1c-.3-.2-.1.1-.1.1l-.1-.1c.1.2 0 .1 0 .1v-.1l.1.1-.1-.1c-.3 0-.3.1-.3.2zm-.2.4zm2.8-3.5zM90.7 117.3v.1-.1zm-.1-.2s0-.1 0 0l.1.3c.1.1-.2-.4-.1-.3z"/><path class="st1" d="M90.6 117.1c0 .1 0-.1-.1-.1.1.1 0-.1.1.1zm.7-.5zm-.1-.6l-.1-.1c.1.2-.1 0-.1.2-.1 0-.1.3-.1.4v-.1s.1.1 0 .1v-.1c-.1-.2 0 .2-.1 0 0 0 0 .1.1.2 0 .1-.1.2-.1.4 0 0 0-.1-.1-.1.1.4 0 .3-.1.3 0 .1.1.1.1.2.1.1-.1-.2 0-.1v.1s-.1-.2 0-.1c0 .1.1.1.1.1s.1 0 0-.2c.1.2 0 0 .1.1 0-.1 0-.1-.1-.2.2 0 .2-.2.3-.2-.1-.4.1 0 .1-.1v-.1l-.1-.2c.3.2.3-.1.5 0 .2 0 .5.2.4-.4v.1c0-.1.1 0 .1-.1 0-.3.2-.1.2-.4.1 0 .3-.1.3-.3v.1c0-.2.3.1.4-.1.2.1 0-.5.2-.4.3.3-.1-.5.2-.2.4.4.4 0 .3-.3.2.1.1-.4.4-.1-.1-.3.3.2.3.1l-.1-.1c.2.2-.2-.4.1 0l-.1-.2-.1-.1.1.1s-.1-.2-.1-.1c.2.4 0-.1.2.3l.1.2-.1-.2c-.1-.2-.2-.4-.3-.5l.1.1c-.1-.1 0-.1-.1-.2 0 0-.2-.2-.2-.3.1.2 0 .1 0 .1v-.1c-.1-.2.2.3 0 0 0 .1 0 .1-.1.1.1.1 0 0 .1.2-.2-.2-.2-.3-.2-.2-.2-.3.1.3-.1-.1.2.3-.1-.1.1.2 0-.1-.1-.1-.1-.2 0 0-.1-.1-.2 0 .1.2-.1-.1 0 .3-.1-.1-.2-.2-.1 0v.3c-.2-.3-.2-.2-.2-.3.1.1 0 .1 0 .3-.1-.1 0 .1-.1-.1.1.4 0 .4-.3.1.1.1.2.4.3.5v-.1l-.1-.1v-.1c0 .1-.1-.1-.1 0v-.1.1c0-.1-.1-.2-.1-.1-.2 0-.1.4-.3.5v-.1c-.1-.1 0 .1-.1.1 0 0 0-.1-.1-.1.1.2-.2-.2 0 .2l-.1-.1c0 .2-.1.2-.2.2.1.4-.1.1 0 .4v-.1c.1.3-.2.1-.2.2-.1 0 0 .1-.1.1v-.1c.1.4-.3-.2-.2.2l-.1-.1c.1.2-.1 0 .1.3l-.1-.1c.2.4-.2-.1-.1.2v-.1c-.2-.3-.1.1-.1.1l-.1-.1c.1.2-.1 0 0 .1v-.1.1l-.1-.1c.3 0 .4.2.3.2zm-.3.4zm3.5-2.8zM79.4 121.7v.1-.2zm0-.3v.3c.1.2-.1-.4 0-.3zm0 .1v-.1.1zm.8-.4zm0-.6v-.1c0 .2-.1 0-.1.1-.1 0-.1.2-.2.4v-.1c-.1-.2 0 .2-.1 0v.2c-.1.1-.1.1-.2.3v-.2c0 .4-.1.3-.2.2 0 .1 0 .1.1.2s0-.2 0-.1v.1c0 .1-.1-.2 0-.1v.1s.1 0 0-.2l.1.2v-.2c.1.1.2-.2.3-.2-.1-.4.1 0 .2-.1 0-.1 0-.1.1-.1v-.2c.2.3.3 0 .5.1.2 0 .4.2.5-.3v.1c0-.1.1 0 .1-.1 0-.3.3 0 .3-.4.1 0 .3-.1.4-.2v.1c.1-.2.3.2.4 0 .2.1.1-.5.3-.3.2.3 0-.5.2-.1.3.5.3.1.4-.3.2.2.1-.4.4 0 0-.3.2.3.3.2v-.1c.1.3-.1-.4.1 0 .1.2-.1-.5 0-.2v-.1s0 .1.1.1c0 0-.1-.2 0-.1.2.4 0-.1.2.4 0 0 .1.2.1.3v-.2c-.1-.2-.1-.4-.2-.5l.1.2c-.1-.1 0-.1-.1-.2 0 0-.1-.2-.2-.3.1.2 0 .1 0 .1v-.1c-.1-.2.1.3 0 0 0 .1-.1.1-.1.1 0 .1 0 0 .1.2-.1-.2-.2-.3-.2-.3s0-.1 0 0c-.1-.3.1.3-.1-.1.1.3-.1-.1 0 .3 0-.1 0-.1-.1-.2 0 0-.1-.1-.2-.1.1.3-.1-.1 0 .3 0-.1-.1-.2-.1-.1 0 0-.1.1 0 .3-.1-.3-.1-.3-.2-.4v.3c-.1-.1 0 .1-.1-.1.1.5-.1.3-.3.1 0 .1.1.4.1.6v-.1s-.1-.2-.1-.1v-.1c0 .1-.1-.2-.1 0v-.1.1c0-.1-.1-.2 0-.2-.2 0-.2.4-.4.4v-.1c-.1-.1-.1.1-.1.1v-.1c0 .2-.1-.2 0 .2v-.1c0 .2-.1.2-.2.1.1.4-.1.1-.1.4v-.1c0 .3-.2 0-.3.1 0 0 0 .1-.1.1v-.1c0 .4-.2-.3-.2.1v-.1c0 .2-.1-.1 0 .3v-.1c.1.5-.1-.2-.1.1v-.1c-.1-.3-.1.1-.1.1v-.2c0 .2-.1 0-.1.1v-.1.1-.1c-.7.2-.7.3-.8.3zm-.4.3zm4-2.1c0 .1 0 .1 0 0 0 0 0 .1 0 0zM67.5 123.7v.1-.2zm0-.3zm0 .1v-.1.1zm.8-.2zm.2-.6v-.1c0 .2-.1 0-.1.1-.1 0-.2.2-.3.3v-.1c0-.2-.1.1-.1 0v.2c-.1.1-.2.1-.2.3v-.2c0 .4-.1.2-.2.2v.2c0 .1 0-.2.1-.1v.1s.1 0 .1-.2c0 .2 0 0 .1.2v-.2c.1.1.2-.1.4-.1 0-.4.1.1.2-.1 0-.1 0-.1.1-.1v-.2c.2.3.3.1.5.2s.4.3.5-.2v.1c0-.1.1 0 .1 0 .1-.3.3 0 .3-.3.1 0 .3 0 .4-.1v.1c.1-.2.3.2.4.1.1.2.2-.5.3-.2.1.4.1-.4.2-.1.2.6.3.2.4-.2.2.2.2-.3.4.1 0-.3.2.3.2.2v-.1c.1.3 0-.4.1 0v-.4.1c.1.4 0-.1.1.4v.1c0-.2 0-.4-.1-.6s-.1-.2-.1-.3v.1-.1c0-.2 0 .4 0 0 0 .1-.1.1-.1.1v.2l-.1-.3s0-.1 0 0c-.1-.3 0 .3-.1-.1 0 .3-.1-.1 0 .3v-.2l-.1-.1c0 .3-.1-.1-.1.3 0-.1-.1-.2-.1-.1 0 0-.1 0-.1.3-.1-.3-.1-.3-.1-.4 0 .2-.1.1-.1.3 0-.2 0 .1-.1-.2 0 .5-.2.3-.3 0v.5s-.1-.2-.1-.1v-.1c0 .1-.1-.2-.1 0v-.2c-.2-.1-.3.4-.5.3v-.1c-.1-.1-.1.1-.1.1v-.2c0 .2-.1-.3 0 .2v-.2c-.1.2-.2.2-.2.1 0 .4-.1.1-.2.4v-.1c-.1.3-.2 0-.3.1l-.1.1v-.1c0 .4-.2-.3-.2.1v-.1c0 .2-.1-.1 0 .3v-.1c0 .5-.1-.2-.1.1v-.1c0 .1 0 .1 0 0v-.1c-.1-.3-.1 0-.2 0v-.2c0 .2-.1 0-.1.1v-.1.1-.1c-.2 0-.2.2-.3.2zm-.4.2zm4.3-1.2zM55.4 123.3v-.1zm.1-.3l-.1.3c0 .2.1-.4.1-.3zm0 0v-.1.1zm.8 0c0 .1 0 .1 0 0zm.3-.5v-.1c-.1.2-.1 0-.1.1-.1-.1-.2.2-.3.2v-.1c0-.2-.1.1-.1 0v.2c-.1 0-.2.1-.3.2v-.2c-.1.3-.2.2-.2.1v.2c0 .1.1-.2.1-.1v.1s.1.1.1-.2c.1.1.3-.1.4 0 .1-.4.1.1.2 0 0-.1.1-.1.1-.1v-.2c.1.3.3.1.5.3.2.1.3.4.5-.1v.1c.1-.1.1.1.1 0 .2-.3.2.1.4-.3.1 0 .3 0 .5-.1v.1c.1-.1.2.3.3.2.1.2.3-.4.4-.2 0 .4.2-.4.2 0 .1.6.3.2.4-.1.1.2.3-.3.4.1.1-.3.1.3.2.3v-.1c0 .3.1-.4.1 0 0 .2.1-.5.1-.2v-.5c0 .2 0 .1 0 0v-.1c0-.2 0 .4 0 0 0 .1-.1.1-.1.1v-.1s0-.1 0 0v-.1c0 .3 0-.1-.1.3v-.2l-.1-.1c0 .3-.1-.1-.1.2 0-.1 0-.2-.1-.1 0 0-.1 0-.1.3v-.4c0 .2-.1.1-.1.2v-.2c-.1.4-.2.3-.3-.1 0 .1-.1.4-.1.6V122.1c0 .1 0-.2-.1 0v-.2c-.2-.1-.4.3-.5.2v-.1c0-.1-.1.1-.1 0v-.2c0 .2 0-.3-.1.2v-.2c-.1.1-.2.1-.3 0-.1.4-.2 0-.3.3v-.1c-.1.3-.2 0-.3 0l-.1.1v-.1c-.1.4-.1-.3-.2.1v-.1c0 .2 0-.1-.1.3v-.1c-.1.5-.1-.2-.2.1v-.1c0 .1 0 .1-.1 0v-.1c0-.3-.1 0-.2 0v-.2c0 .2-.1 0-.1.1v-.1.1-.1c-.1.5-.2.6-.2.6zm-.5.1zm4.5-.3zM43.6 120.4v.1l.1-.1z"/><path class="st1" d="M43.8 120.2s0-.1 0 0l-.1.2c-.1.2.1-.3.1-.2zm0 0c0 .1 0-.1.1-.1-.1.1-.1-.1-.1.1zm.8.2z"/><path class="st1" d="M45 119.9v-.1c-.1.2-.1 0-.2.1-.1-.1-.3.1-.4.2v-.1l-.1.1v-.1c0-.2-.1.1-.1-.1 0 0 0 .1-.1.2-.1 0-.2 0-.3.2 0 0 0-.1.1-.2-.2.3-.2.2-.3.1 0 .1 0 .1-.1.2 0 .1.1-.2.1 0v.1c0 .1.1-.2.1-.1v.1s.1.1.2-.1c-.1.2 0 0 0 .2 0-.1 0 0 .1-.2.1.1.3 0 .4 0 .2-.3.1.1.2 0l.1-.1.1-.1c0 .4.3.2.4.4.1.1.2.5.5 0v.1c.1-.1.1.1.1 0 .2-.3.2.1.4-.2.1.1.3.1.5 0v.1c.2-.1.2.3.3.2.1.2.4-.3.4-.1 0 .4.3-.4.2 0 0 .6.2.3.5 0 .1.2.3-.2.4.2.1-.2 0 .4.1.3v-.1c0 .3.2-.4.1 0 0 .2.2-.5.1-.2v-.1.2s.1-.2 0-.1c-.1.4.1-.1-.1.4 0 0 0 .2-.1.3l.1-.2c.1-.2.1-.4.1-.6s0-.3.1-.3c-.1.2 0 .1 0 0v-.1c0-.2-.1.3 0 0-.1.1-.1 0-.2 0 0 .1 0 0-.1.2.1-.3 0-.3 0-.3s0-.1 0 0c.1-.3-.1.3 0-.1-.1.3 0-.1-.1.2v-.2s-.1-.1-.1-.2c-.1.2 0-.1-.2.2 0-.1 0-.2-.1-.1 0 0-.1 0-.2.2.1-.3 0-.3.1-.4l-.2.2v-.2c-.2.4-.3.2-.3-.1 0 .1-.1.4-.2.5v-.4c0 .1 0-.2-.1 0v-.1.1c0-.1.1-.2.1-.2-.1-.1-.4.2-.6.1v-.1l-.1.1v-.1c0-.1-.1.1-.1 0v-.1c-.1.2 0-.3-.1.1v-.1c-.1.1-.2.1-.3 0-.2.4-.2 0-.3.3v-.1c-.2.2-.2-.1-.3-.1h-.1v-.1c-.2.3 0-.4-.2 0v-.1c-.1.2 0-.1-.1.3v-.1c-.2.4 0-.2-.2 0v-.1c0 .1-.1.1-.1 0v-.1c.1-.3-.1 0-.2 0l.1-.1c-.1.2-.1 0-.1.1v-.1.1-.1c.5.4.4.5.4.5zm-.5 0zm4.4.6zM32.7 115.3v-.1zm.2-.3l-.2.2c-.1.2.2-.3.2-.2zm0 .1c0 .1.1-.1.1-.1-.1.1 0-.1-.1.1zm.7.3z"/><path class="st1" d="M34.1 115l.1-.1c-.2.2-.1 0-.1.1l-.1-.1c-.1-.1-.3 0-.4.1v-.1l-.1.1v-.1c.1-.2-.1.1-.1-.1 0 0-.1.1-.1.2-.1 0-.2 0-.4.1 0 0 0-.1.1-.1-.2.3-.2.1-.3 0-.1.1 0 .1-.1.2 0 .1.2-.2.1 0v.1c0 .1.1-.2.1-.1s-.1.1-.1.1 0 .1.2-.1l-.1.2c0-.1 0 0 .1-.2.1.1.3 0 .4.1.2-.3.1.1.2 0s.1-.1.1 0l.1-.1c0 .4.2.2.3.4.1.2.1.5.5.1v.1c.1 0 .1.1.1.1.3-.2.2.2.5-.1.1.1.3.1.4.1v.1c.2-.1.1.3.3.3 0 .2.4-.3.4 0-.1.4.3-.3.2.1-.1.6.2.3.4.1 0 .2.4-.2.3.3.2-.2 0 .4.1.3v-.1c-.1.3.2-.3.1.1l.1-.2v-.1s-.1.1-.1.2c0 0 .1-.2.1-.1-.2.4.1-.1-.1.4 0 0-.1.2-.1.3l.1-.1c.1-.2.2-.4.3-.5l-.1.1c.1-.1 0-.1.1-.2 0 0 .1-.2.1-.3-.1.2-.1.1-.1 0v-.1c.1-.2-.2.3 0 0-.1.1-.1 0-.2 0-.1.1 0 0-.1.2.1-.2.1-.3.1-.3.1-.3-.2.3 0-.1-.1.3 0-.1-.2.2 0-.1.1-.1.1-.2 0 0 0-.1-.1-.2-.1.2 0-.1-.2.2 0-.1.1-.2 0-.1 0 0-.1 0-.2.2.1-.3.1-.3.1-.4l-.2.2c.1-.1-.1 0 0-.2-.3.4-.3.2-.3-.2-.1.1-.2.3-.3.5v-.1s.1-.2 0-.2v-.1c-.1.1.1-.2 0 0v-.1l-.1.1c0-.1.1-.2.1-.1-.1-.1-.4.1-.6 0v-.1l-.1.1v-.1c0-.1-.1 0-.1 0l.1-.1c-.1.2.1-.3-.1.1l.1-.1c-.1.1-.2 0-.3-.1-.3.3-.2 0-.4.2v-.1c-.2.2-.2-.1-.3-.1h-.1v-.1c-.2.3 0-.4-.2 0l.1-.1c-.1.2 0-.1-.2.2v-.1c-.3.4 0-.2-.2 0v-.1s-.1.1-.1 0c.1-.3-.1 0-.2-.1l.1-.1c-.1.1-.1 0-.1 0v-.1l-.1.1.1-.1c.8-.1.7 0 .6 0zm-.5-.1zm4.3 1.5s-.1 0 0 0zM23 108l.1-.1zm.2-.2c.1 0 .1 0 0 0l-.2.2c-.1.2.3-.3.2-.2z"/><path class="st1" d="M23.2 107.8c0 .1.1-.1.1-.1l-.1.1zm.7.5zm.6-.3c-.1.1 0-.2-.1-.1 0-.1-.3 0-.4 0l-.1.1.1-.1c.1-.2-.1.1 0-.1l-.1.1h-.4l.1-.1c-.3.2-.3.1-.3 0l-.1.1c-.1.1.2-.1.1 0l-.1.1c0 .1.2-.2.1-.1 0 .1-.1.1-.1.1.1 0 0 .1.2-.1l-.1.2c.1-.1.1 0 .1-.1 0 .2.2.1.3.2.3-.2 0 .1.2.1.1-.1.1-.1.1 0l.1-.1c-.1.3.2.3.2.5.1.2 0 .5.5.2l-.1.1c.1 0 0 .1.1.1.3-.2.2.2.5 0 .1.1.2.2.4.2v.1c.2 0 0 .3.2.3 0 .2.5-.2.4.1-.2.3.4-.2.2.1-.3.5.1.3.4.2 0 .2.4-.1.2.3.2-.2-.1.3 0 .3l.1-.1c-.2.2.3-.3 0 .1-.1.2.3-.4.2-.2l.1-.1-.1.1s.1-.2.1-.1c-.3.3.1 0-.2.3 0 0-.1.2-.2.2l.1-.1c.1-.2.3-.3.4-.5l-.1.1c.1-.1 0-.1.1-.2 0 0 .1-.2.2-.3-.1.1-.1 0-.1 0l.1-.1c.1-.2-.2.3 0 0h-.2l-.2.2c.2-.2.2-.3.2-.3.2-.3-.2.2 0-.1-.2.2 0-.1-.2.2 0-.1.1-.1.1-.1v-.2c-.2.2 0-.1-.2.1 0-.1.1-.2 0-.1 0 0-.1 0-.2.1.2-.3.2-.2.2-.3-.1.1-.1 0-.2.1.1-.1-.1 0 .1-.1-.4.3-.4.1-.2-.2l-.4.4s.1-.2 0-.1v-.1c-.1.1.1-.2 0 0l-.1.1c0-.1.1-.1.1-.1-.1-.2-.5 0-.6-.1l.1-.1-.1.1.1-.1c.1-.1-.1 0-.1 0l.1-.1c-.2.1.1-.2-.2.1l.1-.1c-.2.1-.2 0-.2-.1-.3.3-.1-.1-.4.1l.1-.1c-.3.1-.1-.1-.3-.2 0-.1-.1 0-.1 0l.1-.1c-.3.2.1-.3-.2-.1l.1-.1c-.1.1 0-.1-.2.2l.1-.1c-.3.3.1-.2-.2 0l.1-.1c-.1 0-.1.1-.1 0 .2-.3-.1 0-.1-.1l.1-.1c-.1.1-.1 0-.1 0l.1-.1-.3-.1h.2c-.1 0-.2.1-.2 0zm-.5-.1zm3.9 2.2c-.1 0-.1.1 0 0 0 0-.1 0 0 0zM15 98.9v.1l.1-.1zm.3-.1l-.3.2c-.1.1.4-.3.3-.2zm-.1 0c-.1.1.1 0 .1-.1-.1.1.1 0-.1.1zm.6.6c0 .1 0 .1 0 0zm.6-.1l.1-.1c-.2.1 0-.1-.2 0 0-.1-.3-.1-.4-.1h.1l-.1.1h.1c.2-.1-.2 0 0-.1 0 0-.1.1-.2.1s-.2-.1-.4 0l.1-.1c-.3.2-.3 0-.3-.1-.1.1-.1.1-.2.1-.1.1.2-.1.1 0l.1-.1s.2-.1.1 0c-.1 0-.1.1-.1.1.1 0 0 .1.2 0-.2.1 0 0-.1.2.1 0 .1 0 .2-.1 0 .2.2.1.3.2.3-.2 0 .1.2.1h.1l.1-.1c-.2.3.1.3.1.5s-.1.5.4.3h-.1c.1 0 0 .1.1.1.3-.1.1.2.5.1.1.1.2.2.4.3h-.1c.2 0 0 .3.1.4-.1.2.5-.1.4.2-.2.3.4-.1.2.2-.4.5 0 .4.4.3-.1.2.4 0 .2.4.2-.1-.2.3-.1.3l.1-.1c-.2.2.3-.2 0 .1-.2.2.4-.3.2-.1l.1-.1-.1.1.1-.1c-.3.3.1 0-.3.3l-.2.2.2-.1c.2-.1.3-.3.4-.4l-.1.1.1-.1s.2-.2.2-.3c-.2.1-.1 0-.1 0l.1-.1c.1-.1-.3.2 0 0-.1 0-.1 0-.1-.1-.1.1 0 0-.2.1.2-.2.2-.3.2-.3.2-.2-.3.2 0-.1-.2.2 0-.1-.2.1.1 0 .1-.1.1-.1v-.2c-.2.1 0-.1-.2.1 0-.1.1-.2 0-.1 0 0-.1 0-.3.1.3-.2.2-.2.3-.3-.1.1-.1 0-.3.1.1-.1-.1 0 .1-.1-.4.2-.4 0-.2-.3-.1.1-.3.2-.5.3l.1-.1h.1c-.1.1.1-.1 0-.1h-.1c.1 0 .1-.1.1-.1 0-.2-.5-.1-.5-.2h.1l-.1.1h.1c.1-.1-.1 0-.1-.1l.1-.1c-.2.1.2-.2-.2.1l.1-.1c-.2 0-.2-.1-.2-.2-.4.2-.1-.1-.4 0h.1c-.3.1-.1-.2-.2-.2 0-.1-.1 0-.1 0l.1-.1c-.3.2.2-.3-.2-.1l.1-.1c-.2.1 0-.1-.2.1l.1-.1c-.4.2.1-.2-.2-.1h.1-.1c.2-.2-.1-.1-.1-.1l.1-.1c-.2.1-.1 0-.1 0h.1-.1l.1-.1c-.1-.1-.3-.1-.3-.1zM16 99zm3.3 3zM9 88.5h-.1l.1-.1zm.2-.1c.1 0 .1 0 0 0l-.2.1.2-.1zm0 0h.1c-.1 0 .1-.1-.1 0zm.5.7c-.1 0-.1 0 0 0z"/><path class="st1" d="M10.3 89.1l.1-.1c-.2.1 0-.1-.1-.1 0-.1-.2-.1-.4-.2h.1c.2-.1-.2 0 0-.1 0 0-.1 0-.2.1-.1-.1-.2-.1-.4-.1 0 0 .1 0 .1-.1-.4.1-.3 0-.2-.1-.1 0-.1 0-.2.1s.2-.1.1 0h-.1s.2-.1.1 0c-.1 0-.1 0-.1.1 0 0 0 .1.2 0l-.2.1c.1 0 .1 0 .2-.1 0 .1.2.2.2.3.4-.1 0 .1.1.1h.3c-.2.3.1.3 0 .5 0 .2-.2.5.4.4h-.1c.1 0 0 .1.1.1.3 0 .1.2.4.2 0 .1.1.3.3.4h-.1c.2 0-.1.3.1.4-.1.2.5 0 .3.2-.3.2.5 0 .1.2-.4.6 0 .6.4.5-.1.2.4.1.1.4.3-.1-.2.3-.1.3h.1c-.2.2.4-.1 0 .1-.2.1.5-.2.2-.1h.1l-.1.1s.2-.1.1-.1c-.4.2.1 0-.3.2 0 0-.2.1-.3.1l.2-.1c.2-.1.4-.2.5-.3l-.1.1c.1-.1.1 0 .2-.1 0 0 .2-.1.3-.2-.2.1-.1 0-.1 0h.1c.2-.1-.3.2 0 0-.1 0-.1 0-.1-.1-.1.1 0 0-.2.1.2-.1.3-.2.3-.2.3-.2-.3.1.1-.1-.3.1.1-.1-.2.1.1 0 .1-.1.2-.1 0 0 .1-.1.1-.2-.2.1.1-.1-.3 0 .1-.1.2-.2 0-.1 0 0-.1-.1-.3 0 .3-.2.2-.2.3-.2-.2.1-.1 0-.3 0 .1-.1-.1 0 .1-.1-.4.1-.4-.1-.1-.3-.1.1-.4.2-.5.2h.1l.1-.1h.1c-.1 0 .1-.1 0-.1h.1-.1c.1 0 .2-.1.2-.1 0-.2-.4-.2-.5-.3h.1-.1.1c.1-.1-.1 0-.1-.1 0 0 .1 0 .1-.1-.2.1.2-.2-.2 0l.1-.1c-.2 0-.2-.1-.2-.2-.4.1-.1-.1-.4 0h.1c-.3 0-.1-.2-.2-.3 0-.1-.1 0-.1-.1h.1c-.4.1.2-.3-.2-.2l.1-.1c-.2.1 0-.1-.3.1l.1-.1c-.4.2.2-.2-.1-.1h.1-.1.1c.3-.2-.1-.1-.1-.1l.1-.1c-.2.1 0-.1-.1-.1h.1-.1l.1-.1c-.4.1-.5.1-.5.1zm-.4-.4zm2.7 3.6zM5.2 77h-.1.2zm.3 0s0-.1 0 0h-.3c-.2 0 .4-.1.3 0z"/><path class="st1" d="M5.4 77h.1c-.1 0 .1-.1-.1 0zm.3.8z"/><path class="st1" d="M6.3 77.8h.1c-.2 0 0-.1-.1-.1 0-.1-.2-.2-.3-.2h.1c.2-.1-.2 0 0-.1h-.2c-.1-.1-.1-.1-.3-.2h.2c-.4 0-.2-.1-.2-.2h-.2c-.1 0 .2 0 .1.1h-.1s0 .1.2.1l-.2.1h.2c-.1.1.1.2.2.3.4 0 0 .1.1.2.1 0 .1 0 .1.1h.2c-.3.2 0 .3-.1.5 0 .2-.3.4.3.5h-.1c.1 0 0 .1.1.1.3 0 0 .3.4.3 0 .1.1.3.2.4h-.1c.2.1-.2.3 0 .4-.1.2.5.1.3.3-.3.2.5.1.1.2-.5.3-.1.3.2.4-.2.2.4.2 0 .4.3 0-.3.2-.2.3h.1c-.3.1.4-.1 0 .1-.2.1.5-.1.2 0h.1s-.1 0-.2.1c0 0 .2-.1.1 0-.4.1.1 0-.4.2 0 0-.2.1-.3.1h.2c.2-.1.4-.1.6-.2h-.2c.2-.1.1 0 .2-.1 0 0 .2-.1.3-.1h-.1.1c.2-.1-.4.1 0 0-.1 0-.1-.1-.1-.1h-.2c.3-.1.3-.1.3-.2 0 0 .1 0 0 0 .3-.1-.3.1.1-.1-.3.1.1-.1-.3 0 .1 0 .1 0 .2-.1 0 0 .1-.1.1-.2-.3 0 .1-.1-.3 0 .1 0 .2-.1.1-.1 0 0-.1-.1-.3 0 .3-.1.3-.1.4-.1h-.3c.2-.1-.1 0 .1-.1-.5 0-.3-.1 0-.3-.1 0-.4.1-.6.1h.1s.2-.1.1-.1h.1c-.1 0 .2-.1 0-.1h.1-.1c.1 0 .2-.1.2 0 0-.2-.4-.2-.4-.4h.1-.1.1c.1-.1-.1-.1-.1-.1h.1c-.2 0 .2-.1-.2 0h.1c-.2 0-.2-.1-.1-.2-.4 0-.1-.1-.4-.1h.1c-.3 0 0-.2-.1-.3l-.1-.1h.1c-.4 0 .3-.2-.1-.2h.1c-.2 0 .1-.1-.3 0h.1c-.5.1.2-.1-.1-.1h.1-.1.1c.3-.1-.1-.1-.1-.2h.2c-.2 0 0-.1-.1-.1h.1-.1.1c-.2-.7-.3-.7-.4-.8zm-.3-.4c.1 0 .1 0 0 0zm1.9 4.1zM3.8 65h-.1.2zm.3 0zM4 65h.1H4zm.1.8zm.6.2h.1c-.2 0 0-.1-.1-.1 0-.1-.2-.2-.3-.3h.1c.2 0-.1-.1 0-.1h-.2c-.1-.1-.1-.2-.3-.3h.2c-.3 0-.2-.1-.1-.2h-.2c-.1 0 .2 0 .1.1h-.1s0 .1.2.1c-.2 0 0 0-.2.1h.2c-.1.1.1.2.1.4.4 0-.1.1.1.2.1 0 .1 0 .1.1h.2c-.3.2-.1.3-.2.5s-.3.4.2.5h-.1c.1 0-.1.1 0 .1.3.1 0 .3.3.3 0 .1 0 .3.1.4h-.1c.2.1-.2.2-.1.4-.2.1.4.2.2.4-.4.1.4.1.1.2-.7.2-.4.3 0 .5-.2.2.3.2-.1.4.3 0-.3.2-.2.2h.1c-.3.1.4 0 0 .1h.3c-.4 0 .1 0-.4.1h-.3.2c.2 0 .4 0 .6-.1H5h.2s.3 0 .3-.1h-.1.1c.2 0-.4 0 0 0-.1 0-.1-.1-.1-.1h-.2c.3 0 .3-.1.3-.1s.1 0 0 0c.3-.1-.3 0 .1-.1-.3 0 .1-.1-.3 0h.2l.1-.1c-.3 0 .1-.1-.2-.1.1 0 .2-.1.1-.1 0 0 0-.1-.3-.1.3 0 .3 0 .4-.1-.2 0-.1-.1-.3-.1h.2c-.5-.1-.3-.2 0-.3h-.6.1s.2-.1.1-.1h.1c-.1 0 .2-.1 0-.1h.1-.1.2c.1-.2-.3-.3-.3-.5h.1-.1.1c.1-.1-.1-.1-.1-.1h.2c-.2 0 .3-.1-.2-.1h.2c-.1-.1-.1-.2-.1-.3-.4 0 0-.1-.4-.2h.1c-.3-.1 0-.2-.1-.3l-.1-.1h.1c-.4-.1.3-.2-.1-.2h.1-.3.1c-.5 0 .2-.1-.1-.1h.1c-.1 0-.1 0 0 0h.1c.3-.1 0-.1 0-.2h.2c-.2 0 0-.1-.1-.1h.1-.1.1c0-.2-.2-.2-.2-.3zm-.2-.4zm1 4.3zM4.8 52.9h.1zm.3.1l-.3-.1c-.2 0 .4.1.3.1zM5 53h.1H5zm0 .8zm.5.3h.1c-.2-.1 0-.1-.1-.1.1-.1-.1-.2-.2-.4h.1c.2 0-.1-.1 0-.1h-.2c0-.1-.1-.2-.2-.3h.2c-.3-.1-.2-.1-.1-.2h-.2c-.1 0 .2.1 0 .1h-.1s-.1.1.2.1h-.2c.1 0 .1 0 .2.1-.1.1.1.3 0 .4.4.1-.1.1 0 .2.1 0 .1.1.1.1h.2c-.3.1-.1.3-.3.4-.2.2-.5.3 0 .6h-.1c.1 0-.1 0 0 .1.3.2-.1.2.2.4-.1.1 0 .3 0 .5H5c.1.1-.3.2-.2.3-.2.1.4.3.1.4-.4 0 .4.2 0 .2-.6.1-.2.3.1.4-.2.1.3.3-.2.4.3.1-.4.1-.3.2h.1c-.3 0 .4.1 0 .1-.1 0 .6.1.4 0h-.1.1-.5c.2 0 .4.1.6.1h-.2.6c-.2 0-.1 0 0 0h.1c.2 0-.4-.1 0 0-.2-.1-.2-.1-.2-.2h-.2.3s.1 0 0 0c.3 0-.3-.1.1 0-.3 0 .1 0-.2-.1h.2l.1-.1c-.3-.1.1-.1-.2-.1.1 0 .2 0 .1-.1 0 0 0-.1-.3-.1h.4c-.2 0-.1-.1-.2-.1h.2c-.4-.2-.3-.3.1-.3-.1 0-.4-.1-.6-.1h.3c-.1 0 .2 0 0-.1h.1-.1.2c.1-.2-.3-.4-.2-.5h.1l-.1-.1h.1c.1 0-.1-.1 0-.1h.2c-.3-.1.2-.1-.3-.2h.2c-.1-.1-.1-.2 0-.3-.4-.1 0-.2-.3-.3h.1c-.3-.1 0-.2 0-.3 0 0-.1-.1 0-.1h.1c-.4-.1.4-.1 0-.2h.1c-.2 0 .1 0-.3-.1h.1c-.5-.1.2-.1-.1-.2h.1c-.1 0-.1-.1 0-.1h.1c.3 0 0-.1 0-.2h.2c-.2-.1 0-.1-.1-.1h.1-.1.1c-.1.3-.3.2-.3.1zm-.1-.4zm.1 4.4zM8.2 41.3h.1zm.3.1c0 .1 0 .1 0 0l-.2-.1c-.3 0 .3.2.2.1z"/><path class="st1" d="M8.4 41.4c-.1 0 .1 0 .1.1 0 0 .1 0-.1-.1zm-.2.9c0-.1 0 0 0 0z"/><path class="st1" d="M8.7 42.7l.1.1c-.2-.1 0-.1 0-.2.1-.1-.1-.3-.1-.4h.1l-.1-.1h.1c.2.1-.1-.1.1-.1 0 0-.1-.1-.2-.1 0-.1 0-.2-.2-.3 0 0 .1 0 .2.1-.3-.2-.1-.2-.1-.3-.1 0-.1 0-.2-.1-.1 0 .2.1 0 .1h-.1c-.1 0 .2.1.1.1h-.1s-.1 0 .1.2c-.2-.1 0 0-.2 0 .1 0 0 0 .2.1-.1.1 0 .3-.1.4.3.2-.1.1 0 .2l.1.1.1.1c-.4 0-.2.3-.4.4-.2-.1-.5 0-.1.3h-.1c.1.1-.1.1 0 .1.3.2-.1.2.2.4-.2.2-.2.4-.1.5h-.1c.1.2-.3.1-.2.3-.2.1.3.4 0 .4-.4 0 .3.3 0 .2-.6 0-.3.2 0 .5-.2.1.2.4-.2.3.2.1-.4 0-.3.1h.1c-.3-.1.4.2 0 .1-.2-.1.5.2.2.1h-.1s.2.1.1.1c-.5-.1 0 .1-.5-.1 0 0-.2 0-.3-.1l.2.1c.2.1.4.1.6.2l-.2-.1c.2 0 .1 0 .2.1 0 0 .2.1.3.1-.2-.1-.1 0 0 0h.1c.2.1-.3-.1 0 0-.1-.1 0-.1 0-.2-.1 0 0 0-.2-.1.3.1.3.1.3 0 0 0 .1 0 0 0 .3.1-.3-.1.1 0-.3-.1.1 0-.2-.1.1 0 .1 0 .2.1 0 0 .1 0 .2-.1-.3-.2.1-.1-.3-.2.1 0 .2 0 .1-.1 0 0 0-.1-.2-.2.3.1.3.1.4.1l-.2-.2h.2c-.4-.2-.2-.3.2-.3-.1-.1-.4-.2-.5-.2h.4c-.1-.1.2 0 0-.1h.1-.1c.1 0 .2.1.2.1.1-.1-.2-.4-.1-.6h.1l-.1-.1h.1c.1 0-.1-.1 0-.1 0 0 .1 0 .1.1-.2-.1.3 0-.1-.1 0 0 .1 0 .1.1-.1-.1-.1-.2 0-.3-.3-.2 0-.2-.3-.3h.1c-.2-.2.1-.2.1-.3v-.1h.1c-.3-.2.4 0 0-.2l.1.1c-.2-.1.1 0-.2-.1h.1c-.4-.2.2 0 0-.2h.1c-.1 0-.1-.1 0-.1h.1c.3.1 0-.1 0-.2l.1.1c-.2-.1 0-.1-.1-.1H9l-.1-.1.1.1c-.2.1-.3 0-.3 0zm0-.5zm-.8 4.4zM14 30.6h-.1l.1.1z"/><path class="st1" d="M14.2 30.8s0 .1 0 0l-.2-.2c-.2 0 .3.3.2.2zm-.1 0c-.1 0 .1.1.1.1-.1-.1.1 0-.1-.1zm-.3.8c-.1 0 0 0 0 0z"/><path class="st1" d="M14.1 32.1l.1.1c-.1-.2.1-.1-.1-.1l.1-.1c.1-.1 0-.3-.1-.4h.1l-.1-.1h.1c.2.1-.1-.1.1-.1 0 0-.1-.1-.2-.1 0-.1 0-.2-.1-.4 0 0 .1 0 .1.1-.3-.3-.1-.2 0-.3-.1-.1-.1 0-.2-.1-.1 0 .2.2 0 .1l-.1-.1c-.1 0 .2.1.1.1s-.1-.1-.1-.1-.1 0 .1.2l-.2-.1.1.1c-.1 0-.1.3-.1.3.3.3-.1.1-.1.2.1.1.1.1 0 .1l.1.1c-.4 0-.2.2-.4.3-.2.1-.5.1-.2.5H13c0 .1-.1.1-.1.1.2.3-.2.2.1.5-.1.1-.2.3-.2.4h-.1c.1.2-.3.1-.3.2-.2 0 .2.4 0 .4-.4-.1.3.4-.1.2-.6-.2-.3.1-.1.4-.3 0 .1.4-.3.3.2.2-.4-.1-.3 0h.1c-.3-.1.3.2-.1 0-.2-.1.4.3.2.2l.1.1-.1-.1s.2.1.1.1c-.4-.2.1.1-.4-.2 0 0-.2-.1-.3-.1l.1.1c.2.1.4.2.5.3l.2.3c.1.1.1 0 .2.1 0 0 .2.1.3.1-.2-.1-.1-.1 0-.1h.1c.2.1-.3-.2 0 0v-.2c-.1-.1 0 0-.2-.1.2.1.3.1.3.1.3.1-.3-.2.1 0-.3-.1.1 0-.2-.2.1 0 .1.1.2.1h.2c-.2-.2.1 0-.2-.2.1 0 .2.1.1 0 0 0 0-.1-.2-.2.3.2.3.1.4.2-.1-.1 0-.1-.1-.2.1.1 0-.1.2.1-.3-.3-.1-.3.2-.3-.1-.1-.3-.2-.5-.3 0 0 .2.1.2 0h.1c-.1-.1.2.1 0 0h.1l-.1-.1c.1 0 .2.1.1.1.2-.1-.1-.5 0-.6h.1l-.1-.1h.1c.1 0 0-.1 0-.1l.1.1c-.2-.1.3.1-.1-.1l.1.1c-.1-.1 0-.2.1-.3-.3-.3 0-.1-.2-.4h.1c-.2-.2.1-.2.1-.3v-.1l.1.1c-.3-.3.4.1.1-.2l.1.1c-.2-.1.1 0-.2-.2h.1c-.4-.3.2 0 0-.2h.1s-.1-.1 0-.1c.3.1 0-.1.1-.1l.1.1c-.1-.1 0-.1 0-.1h.1l-.2.2.1.1c.1-.1 0-.2 0-.2zm.1-.5zm-1.6 4.1s-.1 0 0 0zM21.7 21.3v.1zm.2.3l-.2-.2.2.2zm-.1 0c-.1-.1 0 .1.1.1-.1-.1.1 0-.1-.1zm-.5.6zm.3.6c0-.1.2 0 .1-.1.1 0 0-.3 0-.4v.1l-.1-.1.1.1c.2.1-.1-.1.1 0l-.1-.1v-.4l.1.1c-.2-.3 0-.3 0-.3l-.1-.1c-.1-.1.1.2 0 .1l-.1-.1c-.1 0 .2.2.1.1-.1 0-.1-.1-.1-.1 0 .1-.1 0 .1.2-.1-.1 0 0-.2-.1 0 .1 0 .1.1.1-.2 0-.1.2-.2.3.2.3-.1 0-.1.2.1.1.1.1 0 .1l.1.1c-.3-.1-.3.2-.5.2-.2.1-.5 0-.3.5l-.1-.1c0 .1-.1 0-.1.1.1.3-.2.2 0 .5-.1.1-.2.2-.2.4V24c0 .2-.3 0-.3.2-.2 0 .1.5-.1.4-.3-.2.2.4-.1.2-.5-.3-.4.1-.2.4-.2 0 .1.4-.3.2.2.2-.3-.1-.3 0l.1.1c-.2-.2.3.3-.1 0-.2-.1.4.4.2.2l.1.1-.1-.1.1.1c-.3-.3 0 .1-.3-.2 0 0-.2-.1-.2-.2l.1.1c.2.1.3.3.4.4l-.1-.1c.1.1.1.1.2.1 0 0 .2.1.3.2-.1-.1 0-.1 0-.1l.1.1c.1.1-.3-.3 0 0v-.2l-.2-.2c.2.2.3.2.3.2.3.2-.2-.2.1 0-.2-.2.1 0-.2-.2.1 0 .1.1.1.1h.2c-.2-.2.1 0-.1-.2.1 0 .2.1.1 0 0 0 0-.1-.1-.3.3.2.2.2.3.2-.1-.1 0-.1-.1-.2.1.1 0-.1.1.1-.4-.4-.2-.4.1-.2l-.4-.4s.2.1.1.1l.1.1c-.1-.1.2.1 0 0l-.1-.1.1.1c.2-.1 0-.5.2-.6v.1l-.1-.1.1.1c.1.1 0-.1 0-.1l.1.1c-.1-.2.2.1-.1-.2l.1.1c0-.2 0-.2.1-.2-.2-.3.1-.1-.1-.4l.1.1c-.1-.3.1-.1.2-.2.1 0 0-.1 0-.1l.1.1c-.2-.3.3.1.1-.2l.1.1c-.1-.2.1 0-.2-.2l.1.1c-.3-.4.2.1 0-.2l.1.1c0-.1-.1-.1 0-.1.3.2 0-.1.1-.1l.1.1c-.1-.1 0-.1 0-.1l.1.1.3-.5zm.2-.5zm-2.5 3.8s0-.1 0 0zM31.1 13.8l.1.1zm.2.2c0 .1 0 .1 0 0l-.1-.2c-.2-.2.1.4.1.2z"/><path class="st1" d="M31.2 14c-.1-.1 0 .1.1.1-.1-.1 0 .1-.1-.1zm-.6.6zm.1.6l.1.1c-.1-.2.1 0 0-.2.1 0 .1-.3.1-.4v.1l-.1-.1v.1c.1.2 0-.2.1 0 0 0-.1-.1-.1-.2s.1-.2.1-.4l.1.1c-.1-.3 0-.3.1-.3 0-.1-.1-.1-.1-.2-.1-.1.1.2 0 .1v-.1s.1.2 0 .1c0-.1-.1-.1-.1-.1 0 .1-.1 0 0 .2-.1-.2 0 0-.1-.1 0 .1 0 .1.1.2-.2 0-.1.2-.3.3.2.4-.1 0-.1.2v.1l.1.1c-.3-.2-.3.1-.5.1s-.5-.1-.3.4v-.1c0 .1-.1 0-.1.1.1.3-.2.1-.1.5l-.3.3V16c0 .2-.3-.1-.4.1-.2-.1.1.5-.2.4-.3-.3.1.4-.2.2-.5-.4-.4 0-.3.4-.2-.1 0 .4-.4.2.1.3-.3-.2-.3-.1l.1.1c-.2-.2.2.3-.1 0-.1-.2.3.4.1.2l.1.1-.1-.1s.1.2.1.1c-.3-.3 0 .1-.3-.3l-.2-.2.1.2c.1.2.2.3.4.5l-.1-.1c.1.1.1.1.1.2 0 0 .2.2.2.3-.1-.2 0-.1 0-.1l.1.1c.1.1-.2-.3 0 0 0-.1 0-.1.1-.1-.1-.1 0 0-.1-.2l.2.2c.2.3-.2-.3.1.1-.2-.2.1.1-.1-.2 0 .1.1.1.1.1h.2c-.1-.2.1.1-.1-.3.1 0 .2.1.1 0 0 0 0-.1-.1-.3.2.3.2.2.3.3-.1-.1 0-.1-.1-.3.1.1 0-.1.1.1-.2-.4 0-.4.3-.2-.1-.1-.2-.3-.3-.5l.1.1v.1c0-.1.1.1.1 0V17c0 .1.1.2.1.1.2 0 .1-.5.3-.5v.1-.1.1c.1.1 0-.1.1-.1l.1.1c-.1-.2.2.2 0-.2l.1.1c0-.2.1-.2.2-.2-.2-.4.1-.1 0-.4v.1c-.1-.3.2-.1.2-.2.1 0 0-.1.1-.1l.1.1c-.2-.3.3.2.1-.2l.1.1c-.1-.2.1 0-.1-.3l.1.1c-.2-.4.2.1.1-.2v.1c.2.2.1-.1.1-.1l.1.1c-.1-.2.1-.1 0-.1v.1-.1l.1.1c-.1-.2-.1-.3-.1-.3zm.3-.4zm-3.1 3.1z"/><g><path class="st1" d="M41.9 8.3v-.1.2zm.1.3l-.1-.3c-.1-.2.1.4.1.3zm-.1-.1v.1c0-.1.1.1 0-.1zm-.7.4zm0 .7v.1c-.1-.2.1 0 .1-.1.1 0 .1-.2.2-.4v.1c.1.2 0-.2.1 0 0 0 0-.1-.1-.2.1-.1.1-.2.1-.4 0 0 0 .1.1.2-.1-.4.1-.3.1-.2 0-.1 0-.1-.1-.2s0 .2 0 .1v-.1s.1.2 0 .1v-.1s-.1 0 0 .2l-.1-.2c0 .1 0 .1.1.2-.1 0-.2.2-.3.2.1.4-.1 0-.2.1v.3c-.3-.2-.3 0-.5 0s-.5-.2-.4.3v-.1c0 .1-.1 0-.1.1 0 .3-.2.1-.2.4-.1 0-.3.1-.4.3v-.1c0 .2-.3-.1-.4 0-.2-.1 0 .5-.3.3-.2-.3 0 .5-.2.1-.4-.5-.4-.1-.3.3-.2-.1-.1.4-.4.1.1.3-.3-.2-.3-.2v.1c-.1-.2.1.4-.1 0-.1-.2.2.5.1.2v.1l-.1-.1s.1.2 0 .1c-.2-.4 0 .1-.2-.3 0 0-.1-.2-.1-.3l.1.2c.1.2.2.4.3.5l-.1-.1c.1.1 0 .1.1.2 0 0 .1.2.2.3-.1-.2 0-.1 0-.1v.1c.1.2-.1-.3 0 0 0-.1.1-.1.1-.1 0-.1 0 0-.1-.2.1.2.2.3.2.3.2.3-.1-.3.1.1-.1-.3.1.1-.1-.3 0 .1.1.1.1.2 0 0 .1.1.2.1-.1-.2.1.1 0-.3.1.1.2.2.1 0 0 0 .1-.1 0-.3.2.3.1.2.2.3v-.3c.1.1 0-.1.1.1-.1-.4.1-.4.3-.1 0-.1-.1-.4-.2-.5v.1s.1.2.1.1v.1c0-.1.1.2.1 0v.1-.1c0 .1.1.2.1.2.2 0 .2-.4.4-.4v.1-.1.1c.1.1 0-.1.1-.1 0 0 0 .1.1.1-.1-.2.2.2 0-.2 0 0 0 .1.1.1 0-.2.1-.2.2-.2-.1-.4.1-.1.1-.4v.1c0-.3.2-.1.3-.2.1 0 0-.1.1-.1v.1c-.1-.4.3.2.2-.2v.1c-.1-.2.1 0-.1-.3l.1.1c-.1-.4.2.2.1-.1v.1c.1.2 0-.2.1-.2v.2c0-.2.1 0 .1-.1v.1-.1l.1.1v-.2zm.4-.4zm-3.7 2.5z"/></g><g><path class="st1" d="M53.6 5.1V5v.2zm0 .3v-.3c-.1-.2 0 .4 0 .3z"/><path class="st1" d="M53.6 5.3v.1c-.1-.1 0 .1 0-.1zm-.8.3zm-.2.6v.1c0-.2.1 0 .1-.1.2.1.3-.2.3-.3V6c.1.2 0-.2.1 0v-.2c.1-.1.2-.1.2-.3v.2c0-.4.1-.2.2-.2v-.2c0-.1 0 .2-.1.1v-.1s-.1 0-.1.2c0-.2 0 0-.1-.2v.2c-.1-.1-.2.1-.3.1 0 .4-.1 0-.2.1 0 .1 0 .1-.1.1V6c-.2-.3-.3 0-.5-.1-.1-.2-.3-.5-.4.1v-.1c0 .1-.1 0-.1 0-.1.3-.3 0-.3.4-.1 0-.3.1-.4.2v-.1c-.1.2-.3-.2-.4 0-.2-.1-.1.5-.3.3-.2-.3-.1.5-.2.1-.3-.5-.3-.1-.4.2-.2-.2-.2.4-.4 0 0 .3-.2-.3-.3-.2v.1c-.1-.3 0 .4-.1 0-.1-.2.1.5 0 .3v.1s0-.1-.1-.2v.1c-.1-.4 0 .1-.1-.4 0 0-.1-.2-.1-.3v.2c.1.2.1.4.1.6v-.2c0 .2 0 .1.1.2 0 0 .1.2.1.3v-.1.1c.1.2-.1-.4 0 0 0-.1.1-.1.1-.1v-.2l.1.3s0 .1 0 0c.1.3 0-.3.1.1-.1-.3.1.1 0-.3v.2s.1.1.2.1c0-.3.1.1 0-.3 0 .1.1.2.1.1 0 0 .1-.1 0-.3.1.3.1.3.1.4v-.3c0 .2 0-.1.1.2 0-.5.2-.3.3 0 0-.1-.1-.4-.1-.6V7s.1.2.1.1v.1c0-.1.1.2.1 0v.1-.1.2c.2 0 .3-.4.4-.4v.1V7v.1c.1.1.1-.1.1-.1v.2c0-.2.1.3 0-.2v.1c.1-.2.1-.2.2-.1 0-.4.1-.1.1-.4v.1c0-.3.2 0 .3-.1l.1-.1v.1c0-.4.2.3.2-.1v.1c0-.2.1.1 0-.3v.1c0-.5.1.2.1-.1v.1c0-.1 0-.1 0 0v.1c.1.3.1-.1.2-.1v.2c0-.2.1 0 .1-.1v.1-.1.1c.8-.3.8-.4.8-.4zm.5-.3zm-4.2 1.7z"/></g><g><path class="st1" d="M65.6 4.3v-.1.2zm0 .2c0 .1 0 .1 0 0v-.3.3zm0 0zm-.9.1zm-.2.5v.1c0-.2.1 0 .1-.1.1.2.2 0 .4-.1v-.1.1c0 .2 0-.2 0 0v-.2c.1-.1.2-.1.3-.3v.2c.1-.4.2-.2.2-.2v-.2c0-.1-.1.2-.1.1v-.1s-.1 0-.1.2v-.2.2c-.1-.1-.2.1-.4.1-.1.4-.1-.1-.2.1 0 .1-.1.1-.1.1V5c-.2-.3-.3-.1-.5-.2s-.3-.4-.5.1v-.1c-.1.1-.1-.1-.1 0-.1.3-.3 0-.4.3-.1 0-.3 0-.4.1v-.1c-.1.2-.2-.2-.4-.1-.1-.2-.2.4-.4.2-.1-.4-.2.4-.2 0-.2-.6-.3-.2-.4.2-.1-.2-.3.3-.4-.1 0 .3-.1-.3-.2-.3v.1c0-.3 0 .4-.1 0v.3c0-.4 0 .1-.1-.4v-.3.8-.2.2s0 .3.1.3v-.1.1c0 .2 0-.4 0 0 0-.1.1-.1.1-.1v-.2c0 .3.1.3.1.3s0 .1 0 0c0 .3 0-.3.1.1v-.3.2l.1.1c0-.3.1.1.1-.2 0 .1.1.2.1.1 0 0 .1 0 .1-.3 0 .3 0 .3.1.4 0-.2.1-.1.1-.3v.2c.1-.5.2-.3.3 0v-.6.1s0 .2.1.1v.1c0-.1 0 .2.1 0v.1-.1.2c.2.1.3-.3.5-.3v.1-.1.1c0 .1.1-.1.1-.1v.2c0-.2.1.3.1-.2v.2c.1-.1.2-.1.3-.1.1-.4.2 0 .2-.4v.1c.1-.3.2 0 .3 0l.1-.1v.1c.1-.4.1.3.2-.1v-.2.1c.2-.4.2.3.3 0v.1c0-.1 0-.1 0 0v.1c0 .3.1 0 .2 0v.2c0-.2.1 0 .1-.1v.1-.1.1c0-.1.1-.2.1-.3zM65 5zm-4.4.8z"/></g><g><path class="st1" d="M77.6 5.9V6zm-.1.3l.1-.3c.1-.2-.1.4-.1.3zm0-.1zm-.8-.1z"/><path class="st1" d="M76.4 6.6v.1c.1-.2.1 0 .1-.1.1.1.2-.1.4-.2v.1c0 .2.1-.1.1 0v-.2c.1 0 .2-.1.3-.2v.2c.2-.3.2-.2.3-.1V6c0-.1-.1.2-.1 0v-.1c0-.1-.1.2 0 .1v-.1s-.1-.1-.1.2v-.2c0 .1 0 .1-.1.2-.1-.1-.3 0-.4 0-.1.4-.1-.1-.2 0 0 .1-.1.1-.1.1l-.1.2c-.1-.4-.3-.2-.4-.3-.2-.1-.3-.4-.5 0V6c-.1.1-.1-.1-.1 0-.2.3-.2-.1-.4.2-.1-.1-.3-.1-.5 0v-.1c-.1.1-.2-.3-.3-.2-.1-.2-.3.4-.4.1 0-.4-.2.4-.2 0 0-.6-.3-.3-.4.1-.1-.2-.3.3-.4-.2-.1.3-.1-.4-.2-.3v.1c0-.3-.1.4-.1 0 0-.2-.1.5-.1.2v-.1.1c.1-.4-.1.1 0-.4v-.3c0-.1 0 0-.1.2 0 .2-.1.4-.1.6v-.2.6c0-.2 0-.1 0 0v.1c0 .2.1-.4 0 0l.1-.1c0-.1 0 0 .1-.2v.3s0 .1 0 0c0 .3.1-.3 0 .1.1-.3 0 .1.1-.2v.2s.1.1.1.2c.1-.3.1.1.1-.2 0 .1 0 .2.1.1 0 0 .1 0 .1-.2v.4c0-.2.1-.1.1-.2v.2c.2-.4.3-.2.3.1 0-.1.1-.4.1-.6v.4c0-.1 0 .2.1 0v.1-.1.2c.1.1.4-.3.5-.2v.1l.1-.1v.1c0 .1.1-.1.1 0v.2c.1-.2 0 .3.1-.1v.2c.1-.1.2-.1.3 0 .1-.4.2 0 .3-.3V7c.1-.3.2.1.3 0h.1v.1c.1-.4.1.4.2 0v.1c.1-.2 0 .1.1-.3V7c.1-.4 0 .2.2-.1V7c0-.1.1-.1.1 0v.1c0 .3.1 0 .2 0v.2c.1-.2.1 0 .1-.1v.1-.1.1c-.1-.6 0-.7.1-.7zm.4-.1zm-4.4-.1z"/></g><g><path class="st1" d="M89 9.9h.1l-.1.1z"/><path class="st1" d="M88.9 10.2l.1-.3c.1-.2-.2.4-.1.3zm0-.1c0-.1 0 .1-.1.1.1-.1 0 .1.1-.1zm-.8-.2z"/><path class="st1" d="M87.7 10.3l-.1.1c.1-.2.1 0 .2 0 .1.1.3-.1.4-.1v.1l.1-.1v.1c-.1.2.1-.1.1.1 0 0 .1-.1.1-.2.1 0 .2 0 .4-.1 0 0 0 .1-.1.2.2-.3.2-.1.3-.1 0-.1 0-.1.1-.2 0-.1-.1.2-.1 0V10c0-.1-.1.2-.1.1s.1-.1.1-.1 0-.1-.2.1c.1-.2 0 0 0-.2 0 .1 0 0-.1.2-.1-.1-.3 0-.4-.1-.2.3-.1-.1-.2 0-.2 0-.2 0-.2-.1l-.1.1c0-.4-.3-.2-.3-.4-.1-.2-.2-.5-.5-.1v-.1c-.1.1-.1-.1-.1 0-.2.2-.2-.1-.5.1-.1-.1-.3-.1-.4-.1v-.1c-.2.1-.1-.3-.3-.2 0-.2-.4.3-.4 0 .1-.4-.3.3-.2-.1.1-.6-.2-.3-.5 0-.1-.2-.4.2-.3-.2-.2.2 0-.4-.1-.3v.1c0-.2-.3.4-.2 0l-.1.2v-.1s-.1.2-.1.1c.1-.4-.1.1.1-.4 0 0 .1-.2.1-.3l-.1.2c-.1.2-.2.4-.2.5l.1-.1c-.1.2 0 .1-.1.2 0 0-.1.2-.1.3.1-.2 0-.1 0 0v.1c-.1.2.1-.3 0 0 .1-.1.1 0 .2 0 0-.1 0 0 .1-.2 0 .2 0 .3.1.3-.1.3.1-.3 0 .1.1-.3 0 .1.1-.2 0 .1 0 .1-.1.2 0 0 0 .1.1.2.1-.2 0 .1.2-.2 0 .1 0 .2.1.1 0 0 .1 0 .2-.2-.1.3-.1.3-.1.4l.2-.2c-.1.2.1-.1 0 .2.3-.4.3-.2.3.2.1-.1.2-.4.3-.5v.4c.1-.1 0 .2.1 0v.1-.1c0 .1-.1.2-.1.2.1.1.4-.2.6 0v.1l.1-.1v.1c0 .1.1 0 .1 0s0 .1-.1.1c.1-.2-.1.3.1-.1 0 0 0 .1-.1.1.1-.1.2-.1.3 0 .2-.3.2 0 .3-.2v.1c.2-.2.2.1.3.1h.1v.1c.2-.3 0 .4.2 0l-.3-.2c.1-.2 0 .1.1-.2v.1c.2-.4 0 .2.2 0v.1c0-.1.1-.1.1 0v.1c-.1.3.1 0 .2 0l-.1.1c.1-.2.1 0 .1 0v.1l.1-.1-.1.1c-.1-.1 0-.2.1-.2zm.4 0zm-4.3-1z"/></g><g><path class="st1" d="M99.4 16.2v-.1.1zm-.2.2l.2-.2c.1-.2-.3.3-.2.2zm0-.1c0-.1-.1.1-.1.1.1-.1 0 .1.1-.1zm-.7-.4z"/><path class="st1" d="M98 16.3l-.1.1c.2-.2.1 0 .1-.1l.1.1c.1.1.3 0 .4 0v.1l.1-.1v.1c-.1.2.1-.1 0 .1l.1-.1c.1 0 .2 0 .4-.1 0 0 0 .1-.1.1.3-.2.3-.1.3 0 .1-.1.1-.1.1-.2.1-.1-.2.2-.1 0l.1-.1c0-.1-.1.2-.1.1s.1-.1.1-.1c-.1 0 0-.1-.2.1l.1-.2-.1.1c0-.2-.3-.1-.3-.1-.3.3-.1-.1-.2-.1-.1.1-.1.1-.1 0l-.1.1c.1-.4-.2-.3-.3-.5-.1-.2-.1-.5-.5-.2v-.1c-.1 0 0-.1-.1-.1-.3.2-.2-.2-.5 0-.1-.1-.2-.2-.4-.2v-.1c-.2.1-.1-.3-.2-.3 0-.2-.4.2-.4 0 .1-.4-.4.3-.2-.1.2-.6-.1-.3-.4-.1 0-.3-.4.1-.3-.3-.2.2.1-.4 0-.3v.1c.1-.3-.3.3 0-.1.1-.2-.3.4-.2.2l-.1.1.1-.1s-.1.2-.1.1c.2-.4-.1.1.2-.4 0 0 .1-.2.2-.2l-.1.1c-.1.2-.2.3-.3.5l.1-.1c-.1.1 0 .1-.1.2 0 0-.1.2-.2.3.1-.2.1-.1.1 0v.1c-.1.2.2-.3 0 0h.2c.1-.1 0 0 .1-.2-.1.2-.1.3-.1.3-.2.3.2-.3 0 .1.2-.3 0 .1.2-.2 0 .1-.1.1-.1.2v.2c.2-.2 0 .1.2-.1 0 .1-.1.2 0 .1 0 0 .1 0 .2-.2-.5.3-.5.2-.5.3l.2-.2c-.1.1.1 0-.1.2.3-.3.3-.1.2.2.1-.1.2-.3.4-.5 0 0-.1.2 0 .2v.1c.1-.1-.1.2 0 0v.1l.1-.1c0 .1-.1.2-.1.1.1.2.5-.1.6.1v.1l.1-.1v.1c0 .1.1 0 .1 0l-.1.1c.1-.2-.1.3.1-.1l-.1.1c.2-.1.2 0 .2.1.3-.3.1.1.4-.2v.1c.2-.2.2.1.3.1h.1l-.1.1c.3-.3-.1.4.2.1l-.1.2c.1-.2 0 .1.2-.2l-.1.1c.3-.4 0 .2.2 0l-.1.1c.1 0 .1-.1.1 0-.2.3.1 0 .1.1l-.1.1c.1-.1.1 0 .1 0v.1h.2-.2.2zm.4.1zm-4-1.9z"/></g><g><path class="st1" d="M108.3 24.4v-.1l-.1.1zm-.2.1s-.1.1 0 0l.2-.2-.2.2zm0 0c.1-.1-.1 0-.1.1l.1-.1zm-.7-.6s.1 0 0 0c.1 0 .1 0 0 0zm-.5.3c.1 0 0 .2.1.1 0 .1.3 0 .4 0h-.1l.1-.1h-.1c-.1.2.2 0 0 .1l.1-.1c.1 0 .2.1.4 0l-.1.1c.3-.2.3 0 .3.1l.1-.1c.1-.1-.2.1-.1 0l.1-.1c0-.1-.2.2-.1.1l.1-.1c-.1 0 0-.1-.2 0 .1-.1 0 0 .1-.2-.1 0-.1 0-.2.1 0-.2-.2-.1-.3-.2-.3.2 0-.1-.2-.1-.1 0-.1.1-.1 0l-.1.1c.1-.3-.1-.3-.2-.5s0-.5-.5-.3h.1c-.1 0 0-.1-.1-.1-.3.1-.1-.2-.5-.1-.1-.1-.2-.2-.4-.3l.1-.1c-.2 0 0-.3-.2-.3 0-.2-.5.1-.4-.1.2-.3-.4.2-.2-.1.3-.5-.1-.4-.4-.2 0-.2-.4 0-.2-.4-.2.2.1-.3 0-.3l-.1.1c.2-.2-.3.2 0-.1.1-.2-.4.3-.2.2l-.1.1.1-.1-.1.1c.3-.3-.1 0 .2-.3l.2-.2-.1.1-.4.4.1-.1-.1.1s-.2.2-.2.3c.1-.1.1 0 .1 0l-.1.1c-.1.1.3-.2 0 0h.2c.1-.1 0 0 .2-.1-.2.2-.2.3-.2.3-.2.3.2-.2 0 .1.2-.2 0 .1.2-.1l-.1.1v.2c.2-.2 0 .1.2-.1 0 .1-.1.2 0 .1 0 0 .1 0 .3-.1-.2.3-.2.2-.2.3.1-.1.1 0 .3-.1-.1.1.1 0-.1.1.4-.2.4 0 .2.3l.4-.4s-.1.2-.1.1l-.1.1c.1-.1-.1.2 0 0l.1-.1-.1.1c.1.2.5 0 .5.2h-.1l.1-.1-.1.1c-.1.1.1 0 .1.1l-.1.1c.2-.1-.2.2.2-.1l-.1.1c.2 0 .2 0 .2.1.3-.2.1.1.4-.1l-.1.1c.3-.1.1.2.2.2 0 .1.1 0 .1 0l-.1.1c.3-.2-.1.3.2.1l-.1.1c.2-.1 0 .1.2-.2l-.1.1c.4-.3-.1.2.2 0l-.1.1c.1 0 .1-.1.1 0-.2.3.1.1.1.1l-.1.1c.2-.1.1 0 .1 0h-.1l.1-.1-.1.1c.4.4.5.3.6.4zm.4.2zm-3.6-2.7z"/></g><g><path class="st1" d="M115.4 34.2v-.1l-.1.1z"/><path class="st1" d="M115.1 34.3l.3-.1c.1-.2-.4.1-.3.1zm0-.1c.1 0-.1 0-.1.1l.1-.1zm-.5-.6z"/><path class="st1" d="M114 33.7l-.1.1c.2-.1 0 .1.2.1 0 .1.3.1.4.1h-.1s.1-.1.1 0h-.1c-.2.1.2 0 0 .1 0 0 .1-.1.2-.1s.2.1.4.1c0 0-.1 0-.1.1.3-.1.3 0 .3.1.1 0 .1-.1.2-.1.1-.1-.2.1-.1 0h.1s-.2.1-.1 0c.1 0 .1-.1.1-.1-.1 0 0-.1-.2 0 .2-.1 0 0 .1-.1-.1 0-.1 0-.2.1 0-.2-.2-.2-.3-.3-.4.1 0-.1-.2-.1h-.1l-.2.1c.2-.3-.1-.3-.1-.5s.1-.5-.4-.4h.1c-.1 0 0-.1-.1-.1-.3.1-.1-.2-.4-.1 0-.1-.2-.3-.3-.3h.1c-.2 0 .1-.3-.1-.4.1-.2-.5 0-.4-.2.3-.3-.4.1-.2-.2.4-.4 0-.4-.3-.3.1-.2-.4 0-.1-.4-.3.1.2-.3.1-.3l-.1.1c.2-.2-.4.2 0-.1.2-.1-.4.3-.2.1l-.1.1.1-.1s-.2.1-.1.1c.4-.2-.1 0 .3-.3l.2-.2-.2.1c-.2.1-.3.2-.5.3l.1-.1c-.1.1-.1 0-.2.1 0 0-.2.2-.3.2.2-.1.1 0 .1 0l-.1.1c-.2.1.3-.2 0 0 .1 0 .1 0 .1.1.1-.1 0 0 .2-.1l-.2.2c-.3.2.3-.2-.1.1.2-.2-.1.1.2-.1-.1 0-.1.1-.1.1v.2c.2-.1-.1.1.3-.1-.1.1-.2.2 0 .1 0 0 .1 0 .3-.1-.3.2-.2.2-.3.3.1-.1.1 0 .3-.1-.1.1.1 0-.1.1.4-.2.4 0 .1.3.1-.1.4-.2.5-.3l-.1.1h-.1c.1 0-.1.1 0 .1h-.1.1c-.1 0-.2.1-.1.1 0 .2.5.1.5.3h-.1c-.1.1.1 0 .1.1l-.1.1c.2-.1-.2.2.2 0l-.1.1c.2 0 .2.1.2.2.4-.2.1.1.4 0h-.1c.3-.1.1.2.2.2 0 .1.1 0 .1.1l-.1.1c.4-.1-.2.3.2.1l-.1.1c.2-.1 0 .1.3-.1l-.1.1c.4-.2-.1.2.2.1h-.1c-.3.2.1.1.1.1l-.1.1c.2-.1.1.1.1 0h-.1.1l-.1.1c.2-.1.3-.1.3-.1zm.4.3zm-3-3.3z"/></g><g><path class="st1" d="M120.3 45.2h.1-.1zm-.2 0c-.1 0-.1.1 0 0l.3-.1c.1 0-.5.2-.3.1z"/><path class="st1" d="M120.1 45.2h-.1c.1 0-.1.1.1 0zm-.4-.7z"/><path class="st1" d="M119.1 44.5h-.1c.2 0 0 .1.1.1 0 .1.2.1.4.2h-.1c-.2.1.2 0 0 .1 0 0 .1 0 .2-.1.1.1.2.1.3.2 0 0-.1 0-.2.1.4 0 .3.1.2.2.1 0 .1 0 .2-.1s-.2 0-.1 0h.1s-.2.1-.1 0h.1s0-.1-.2 0l.2-.1h-.2c.1-.1-.2-.2-.2-.3-.4.1 0-.1-.1-.2h-.3c.3-.3 0-.3.1-.5 0-.2.2-.4-.3-.4h.1c-.1 0 0-.1-.1-.1-.3 0 0-.2-.4-.2 0-.1-.1-.3-.2-.4h.1c-.2-.1.1-.3 0-.4.1-.2-.5-.1-.3-.3.3-.2-.5 0-.1-.2.5-.4.1-.3-.3-.4.1-.2-.4-.1-.1-.4-.3 0 .3-.3.2-.3h-.1c.3-.1-.4.1 0-.1.2-.1-.5.2-.2.1h-.1s.1 0 .1-.1c0 0-.2.1-.1 0 .4-.2-.1 0 .3-.2 0 0 .2-.1.3-.1h-.2c-.2.1-.4.2-.5.2l.1-.1c-.1.1-.1 0-.2.1 0 0-.2.1-.3.2.2-.1.1 0 .1 0h-.1c-.2.1.3-.1 0 0 .1 0 .1.1.1.1.1 0 0 0 .2-.1-.2.1-.3.2-.3.2-.3.2.3-.1-.1.1.3-.1-.1.1.3 0-.1 0-.1.1-.2.1 0 0-.1.1-.1.2.3-.1-.1.1.3 0-.1.1-.2.1 0 .1 0 0 .1.1.3 0-.3.1-.2.1-.3.2h.3c-.1.1.1 0-.1.1.4-.1.3.1.1.3.1 0 .4-.1.5-.2h-.1s-.2.1-.1.1h-.1c.1 0-.2.1 0 .1h-.1.1c-.1 0-.2.1-.2.1 0 .2.4.2.4.4h-.1c-.1.1.1 0 .1.1 0 0-.1 0-.1.1.2 0-.2.1.2 0 0 0-.1 0-.1.1.2 0 .2.1.2.2.4-.1.1.1.4.1h-.1c.3 0 .1.2.1.3 0 0 .1 0 .1.1h-.1c.4-.1-.3.3.1.2h-.1c.2-.1-.1.1.3-.1h-.1c.5-.1-.2.2.1.1h-.1c-.3.2.1.1.1.1h-.1c.2 0 0 .1.1.1h-.1.1-.1c.1.2.3.2.3.3zm.3.3zm-2.3-3.8s.1 0 0 0z"/></g><g><path class="st1" d="M123 57h-.1zm-.3 0s-.1 0 0 0zm0 0h-.1.1zm-.2-.8zm-.6-.2h-.1c.2 0 0 .1.1.1 0 .1.2.2.3.3h-.1c-.2.1.1 0 0 .1h.2c.1.1.1.2.3.2h-.2c.4 0 .2.1.2.2h.2c.1 0-.2 0-.1-.1h.1s0-.1-.2-.1c.2 0 0 0 .2-.1h-.2c.1-.1-.1-.2-.1-.3-.4 0 .1-.1-.1-.2-.1 0-.1 0-.1-.1h-.2c.3-.2 0-.3.2-.5.1-.2.3-.4-.2-.5h.1c-.1 0 0-.1 0-.1-.3-.1 0-.3-.4-.3 0-.1 0-.3-.2-.4h.1c-.2-.1.2-.3.1-.4.2-.2-.5-.2-.3-.3.4-.1-.4-.1-.1-.2.5-.3.2-.3-.2-.4.2-.2-.4-.2 0-.4-.3 0 .3-.2.2-.2h-.1c.3-.1-.4 0 0-.1.2-.1-.5.1-.3 0h-.1.1c.4-.1-.1 0 .4-.1 0 0 .2-.1.3-.1h-.2c-.2 0-.4.1-.6.1h.2-.2s-.2.1-.3.1h.1-.1c-.2 0 .4 0 0 0 .1 0 .1.1.1.1h.2l-.3.1s-.1 0 0 0c-.3.1.3 0-.1.1.3-.1-.1.1.3 0h-.2l-.1.1c.3 0-.1.1.3.1-.1 0-.2.1-.1.1 0 0 .1.1.3.1-.3.1-.3.1-.4.1.2 0 .1 0 .3.1-.2 0 .1 0-.2.1.5 0 .3.2 0 .3.1 0 .4 0 .6-.1h-.1s-.2.1-.1.1h-.1c.1 0-.2.1 0 .1h-.1.1-.2c0 .2.4.3.3.5h-.1c-.1.1.1.1.1.1h-.2c.2 0-.3.1.2 0h-.2c.2.1.2.1.1.2.4 0 .1.1.4.2h-.1c.3.1 0 .2.1.3l.1.1h-.1c.4 0-.3.2.1.2h-.1c.2 0-.1.1.3 0h-.1c.5 0-.2.1.1.1h-.1c.1 0 .1 0 0 0h-.1c-.3.1.1.1 0 .2h-.2c.2 0 0 .1.1.1h-.1.1-.1c.4.4.6.4.6.4zm.2.5zm-1.4-4.3z"/></g><g><path class="st2" d="M41.8 71.5V83h6.9v1.5h-8.6v-13h1.7zm8.6 1.9v-1.9h1.5v1.9h-1.5zm1.5 1.7v9.4h-1.5v-9.4h1.5zm9.9 12c-.7.8-1.8 1.1-3.3 1.1-.4 0-.9 0-1.3-.1-.5-.1-.9-.3-1.2-.5-.4-.2-.7-.5-.9-.9-.2-.4-.4-.8-.4-1.3h1.5c0 .3.1.5.3.7.2.2.4.4.6.5.2.1.5.2.8.3.3.1.5.1.8.1.5 0 .9-.1 1.3-.3.4-.2.6-.4.9-.7.2-.3.4-.7.5-1.1.1-.4.2-.9.2-1.4v-.6c-.3.6-.7 1-1.2 1.3-.5.3-1.1.4-1.7.4-.7 0-1.3-.1-1.8-.4-.5-.3-1-.6-1.3-1-.4-.4-.6-.9-.8-1.5-.2-.6-.3-1.2-.3-1.8 0-.6.1-1.1.2-1.7.1-.6.4-1.1.7-1.6.3-.5.8-.9 1.3-1.2.6-.3 1.2-.5 2.1-.5.6 0 1.1.1 1.6.4.5.3.9.7 1.2 1.2v-1.3h1.5v8.6c-.3 1.4-.6 2.6-1.3 3.3zm-2-4.2c.4-.2.6-.5.9-.8.2-.3.4-.7.5-1.2.1-.4.2-.9.2-1.3s0-.8-.1-1.2c-.1-.4-.3-.8-.5-1.1-.2-.3-.5-.6-.8-.8-.3-.2-.8-.3-1.2-.3-.5 0-.9.1-1.3.3-.4.2-.6.4-.9.8-.2.3-.4.7-.5 1.1-.1.4-.2.8-.2 1.3 0 .4 0 .8.1 1.3.1.4.2.8.4 1.2.2.3.5.6.8.8.3.2.8.3 1.3.3.5-.1.9-.2 1.3-.4zm7.3-11.4v5c.1-.3.3-.5.5-.7.2-.2.5-.4.7-.5l.9-.3c.3-.1.6-.1.9-.1.6 0 1.1.1 1.5.3.4.2.7.4 1 .7.3.3.4.7.5 1.1.1.4.2.9.2 1.4v6.2h-1.5v-6.4c0-.6-.2-1-.5-1.4-.3-.3-.8-.5-1.4-.5-.5 0-.9.1-1.2.2-.3.1-.6.4-.9.6-.2.3-.4.6-.5.9-.1.4-.2.7-.2 1.2v5.3h-1.5v-13h1.5zM80 75.1v1.4h-1.9v6.2c0 .1.1.2.2.3.1.1.2.1.4.1H80v1.4h-1.2c-.4 0-.7 0-1-.1-.3-.1-.5-.2-.7-.3-.2-.1-.3-.4-.4-.6-.1-.3-.1-.6-.1-1.1v-6H75V75h1.6v-2.8h1.5V75H80zm3.3 7.3c.1.2.3.4.6.6.2.1.5.2.8.3.3.1.6.1.9.1.2 0 .5 0 .8-.1.3 0 .5-.1.7-.2.2-.1.4-.2.6-.4.1-.2.2-.4.2-.7 0-.4-.2-.7-.5-.9-.3-.2-.7-.4-1.1-.5-.5-.1-.9-.2-1.5-.3-.5-.1-1-.2-1.5-.4s-.8-.5-1.1-.8c-.3-.3-.5-.8-.5-1.4 0-.5.1-.9.3-1.2.2-.3.5-.6.8-.8.3-.2.7-.4 1.1-.5.4-.1.8-.2 1.2-.2.5 0 1 0 1.5.1s.8.2 1.2.5c.3.2.6.5.8.9.2.4.3.9.4 1.4h-1.5c0-.3-.1-.6-.2-.8-.1-.2-.3-.4-.5-.5-.2-.1-.4-.2-.7-.3-.2-.1-.5-.1-.8-.1-.2 0-.5 0-.7.1-.2 0-.5.1-.6.2-.2.1-.4.2-.5.4-.1.2-.2.4-.2.6 0 .3.1.5.3.7.2.2.4.3.7.4.3.1.6.2 1 .3.4.1.7.2 1.1.2.4.1.8.2 1.1.3.4.1.7.3 1 .5.3.2.5.5.7.8.2.3.3.7.3 1.1 0 .6-.1 1-.4 1.4-.2.4-.5.7-.9.9-.4.2-.8.4-1.3.5-.5.1-1 .1-1.4.1-.5 0-1-.1-1.5-.2s-.9-.3-1.3-.5-.7-.6-.9-1c-.2-.4-.3-.9-.4-1.5H83c.1.4.1.7.3.9zm-20.6 22.1c-.9.8-2.1 1.2-3.8 1.2-1.7 0-3-.4-3.9-1.2s-1.4-2.1-1.4-3.8v-8.3h1.7v8.3c0 1.2.3 2 .9 2.6.6.6 1.5.9 2.7.9 1.1 0 1.9-.3 2.5-.9.6-.6.9-1.5.9-2.6v-8.3H64v8.3c0 1.8-.5 3-1.3 3.8zm5.8-8.4v1.3c.3-.5.7-.9 1.2-1.1.5-.2 1.1-.4 1.8-.4s1.4.1 1.9.4c.5.3 1 .6 1.3 1.1.4.5.6 1 .8 1.6.2.6.3 1.2.3 1.9s-.1 1.3-.3 1.9c-.2.6-.4 1.1-.8 1.6-.4.4-.8.8-1.3 1-.5.3-1.2.4-1.9.4-.2 0-.5 0-.8-.1-.3 0-.6-.1-.8-.2-.3-.1-.5-.3-.8-.4-.2-.2-.5-.4-.6-.7v4.8H67v-13h1.5zm5.5 3.3c-.1-.4-.3-.8-.5-1.1-.2-.3-.5-.6-.9-.8-.4-.2-.8-.3-1.3-.3s-1 .1-1.3.3c-.4.2-.7.5-.9.8-.2.3-.4.7-.5 1.1-.1.4-.2.9-.2 1.3 0 .5.1.9.2 1.3s.3.8.5 1.1c.2.3.5.6.9.8.4.2.8.3 1.4.3.5 0 1-.1 1.3-.3.4-.2.6-.5.9-.8.2-.3.4-.7.5-1.2.1-.4.1-.9.1-1.3 0-.3-.1-.8-.2-1.2z"/></g><g><path class="st3" d="M40.7 36.4l-.1.2.1.1zm-.8.8v.3c.5-.1.3.1.8-.3 0-.2-.1-.6-.4-.6 0 .1.2.4.1.5-.1-.1-.1-.3-.2-.4-.2.3.1.2 0 .6l-.3-.1zm.4.5c-.1 0-.2-.1-.2-.1s.1.2.2.1zm0 .2c-.1.2-.2 0-.2 0l.3.3-.1-.3zm-.2.9v.1c.1 0 .1-.1 0-.1z"/><path class="st3" d="M40.1 39.2c.1-.1.1-.2.1-.3-.1.1-.3-.1-.2-.2 0-.2.2-.2.1-.4l-.2.2c-.2.3.1.6.2.7zm0-.4v-.1.1zm.1-.5v-.1h-.1zm-.2 1.6c-.3-.1.1-.5-.1-.6 0 .3-.3.5-.5.4v.3c.1.2.4.1.6-.1zm-.9.5zm.2 1.7l-.2-.8c.1.1.2.1.2.3.1-.3-.1-.4 0-.7.3 0-.1.5.2.4 0-.2.1-.5-.2-.7l.3-.3h-.3c-.1.1.2.3 0 .3-.1 0-.1-.1-.2-.2 0 .2-.4.5-.4.9 0 .5.5.5.6.8zm-.4-.1l-.1.1h.2zm.3.9l-.1-.4s.1 0 .2-.1c-.1 0-.2-.1-.2-.1-.3.1 0 .5 0 .6-.1.1-.1.1-.2 0 0-.1-.1-.1-.3-.2 0 0 .1 0 .1-.1-.2.1-.2 0-.1.1v.2s.1.1.1 0c0 0 0 .1-.1.1.1.1.3.1.5.1.1.1.1 0 .1-.2z"/><path class="st3" d="M39.3 42.2c0 .1 0 .2-.1.2.1 0 .2 0 .1-.2zm-.8.9c.1 0 .1 0 0 0 .1-.1.1-.1 0 0zm.3.2l-.2.1.2.1c0-.1.1-.1 0-.2z"/><path class="st3" d="M35.6 48.6c0-.1 0-.2-.2-.3.1-.1.3 0 .5 0-.2-.2.1-.2.1-.3-.3-.2-.5 0-.8-.2 0 0 .1-.1.1-.2-.2 0-.5-.1-.7-.2-.2-.1-.6-.3-.7-.4-.3-.2-.6-.3-1.2-.5l-.2-.1c.7-.3 1.3-.6 2-.9.6-.3 1.2-.5 1.9-.8l.1-.4c.1.1.3-.1.4.1-.1 0-.1.1-.2.1.4.1.7-.4 1.1-.4-.1 0-.2-.3-.1-.3.1.3.4-.2.7.1.4-.1-.1-.3.3-.4 0-.2-.4.1-.5-.1 0-.2.3-.1.2-.3-.6.2-1.5 1-2.3 1.5v-.2c-.4.3-1.1.7-1.6.5.3.1-1.2.4-.7.7-.3 0-.3 0-.6.1l.1.1c-.3.1-.6 0-1 .2.6-.1.4.1.6.2-.2 0-.5.1-.8.1 0 .1.1.3.2.5.1 0 .1-.1.1-.2.2.2.4.1.6.1.2.1-.1.2-.3.2.2.2.5.2.8.3.2 0 .4.1.5.2v-.2c.5.2.6.5 1 .6 0 .3-.4 0-.6.1 0 .1.2.2.2.3.2 0 .5-.1.8-.1-.4.2.1.4.2.5zm-1.1-.4h-.1.1zm1.1.4z"/><path class="st3" d="M33.8 46.9c.1 0 .1 0 0 0 .1.1.1.1 0 0zm-1.4.2c0-.1-.1-.2-.2-.3 0 0-.1.1.2.3zm1.1-1.9c.1-.1 0-.1 0-.2-.2.2-.3.2 0 .2zm1.4 3.2l.3.1h.1zm4.4 3.2c.2-.3 0-.7 0-1-.1-.3-.2-.3-.3-.3-.1 0-.2 0-.2-.2 0 0 .5-.1.5 0 0-.1 0-.3-.1-.4-.6-.3-1-.6-1.5-.5 0-.1-.1-.2.1-.2-.3-.2-.5.5-.9.1.6 0 0-.3.2-.5h.1c-.3-.1-.7-.2-.9-.3-.1.1 0 .3-.2.2.1.1 0 .2-.1.3.3 0 .4.2.7.1.1.2-.1 0 0 .2h.3c.1.1-.2 0 0 .2.1-.1.3 0 .5.1h-.1c.2 0 .3.2.4-.1v.3l.1-.2c.2.1.3.3.4.5 0 .1.2.2.2.2h.1c0-.1.1-.1.2-.1 0-.1-.2 0-.3 0 0-.1.1-.1.2-.2s.2-.1.1-.2c.1.2.2.2.2.3 0 .1-.1.2-.2.3v.1l.1.2c0 .1.1.2.1.4h-.1c.3 0-.1.3.2.6v-.2c.1 0 .1.1.2.2h-.1c.2 0 .3.4.4.5 0-.2-.2-.4-.2-.6-.2 0-.1 0-.1.2z"/><path class="st3" d="M37.1 49.4h.2c-.1-.1-.2-.1-.2 0zm2 3.9c0 .2-.2 0-.3.2.2.2.3-.3.5-.1-.1.2.1.4.1.5-.1-.1-.4 0-.4 0 .1.1 0 .3 0 .5.1-.4.1.3.3-.1.2 0 .3.3.2.5-.1 0-.1-.1-.1-.2-.2-.1-.1.3-.3.3.2.2.3.7.4.9.1.2.2.2.4-.2.1-.2 0-.1-.1-.2-.1.4-.2.3-.3.3.1-.2-.1-.4.1-.4l.2.1v-.5c0-.2 0-.5-.1-.7-.1-.5-.1-1-.2-1.5v.4c-.1 0-.2-.2-.2-.4l-.3.2c0-.1 0-.2.1-.2-.2-.1-.2-.1-.3 0-.1-.3 0-.4-.2-.6-.2.5.3.4.1 1l.4.2zm-.3-1.1l.2.1-.1-.2zm.8.1c-.1 0-.1-.1-.2 0 0 .2.1.2.2 0zm-.4 3l.1.4v-.3c-.1 0-.1 0-.1-.1zm1.1.4c-.1.1-.2.2-.3.4 0 0-.1-.2 0-.5-.2.1-.3.7-.5.9 0 .4.3-.3.4-.2 0 .1-.1.2 0 .3.1-.1.2-.4.3-.4 0-.2 0-.3.1-.5z"/><path class="st3" d="M41.4 55.7c.1-.1.2-.4.4-.4.1.1 0 .2-.1.3.2.1.1-.2.4-.2 0 0-.1 0-.1-.1.4-.3.1-.4.6-.7 0-.1.1-.2 0-.3.4-.1.3 0 .7-.1-.1-.1-.4-.1-.5-.3.7-.2.4-.5.9-.6 0 0 0 .1-.1.2.2.2.2-.3.4-.4l.2.2c.1-.2.3-.6.6-.6v.1c.1-.3.2-.3.3-.5h.7l.2.2c.7-.1-.6-.2-.1-.5 0 .5.4-.1.7.2.1.2-.4 0-.2.3.1-.2.2 0 .4-.1-.1.2.4.1.2.3l.7-.3c.1.2.3.2.4.2-.4-.1.2-.3-.2-.5-.6 0-1.6-.1-2.3-.4-.1.3-.5-.1-.6.1 0-.1 0-.1-.1-.2l-.1-.1c-.4.5.2.1.1.3-.1.2-.4.1-.4 0-.3.3 0 .1 0 .4l-.4-.1c-.7.8-1.6 2-2.6 2.7l.2.1c-.2.2-.3.4-.3.8-.2.1-.5.4-.7.3l-.1.4c.1-.2-.1-.4 0-.7-.1.2-.2.1-.3.3h.2c-.2.4-.3.4-.3.1-.2.4-.2.5-.2.6.1.1.2 0 .2.1.3-.6.4-.5.6-.5.2 0 .4 0 .7-.4.3-.4-.1-.2-.1-.2zm-.8-.1zm7.5-2.9zm-7.9 3.4zm-.5 1.3l.1-.2v-.1zm10-4.1v-.1s-.1.1 0 .1zm1.7-2.2c0 .1 0 0 0 0z"/><path class="st3" d="M52 42c.1-.3.2-.7 0-.7l.2-.1s0-.1-.1-.1-.3.1-.5.3l.2-.1c.2.1-.4.3-.6.5 0 0 .1.1.2.1.1.1.1.2 0 .3 0 .1-.1 0-.2 0-.1.1 0 .2 0 .3 0 .1.1.2 0 .3-.8-.4-.3.9-1 1-.1.3-.3.6-.4 1-.1-.3-.2.3-.4.1.4.3-.7.8-.2 1.2-.4.3 0 0-.4.5-.1 0 0-.1 0-.2-.2.2 0 .4-.2.5 0 0 0 .1-.1.1.2.5.2.1.5.3.1.4 0 .4-.1.7.3-.1.3.2.5.4 0-.1-.1-.4.1-.2.2.5.4.3.7.7-.2.4-.2-.5-.3.1-.3-.2-.4-.5-.7-.5.2.4.5.9.8 1.2.1.3-.2-.1-.1.1.1.5.6.5.7.9h-.2c.3.1.3.8.6 1.1.1-.1.1-.1.2-.1-.2.1-.1.2.1.3.2.2.4.5.3.6.4.1.9.8 1.1 1.2-.2-.1-.4-.3-.5-.4h.1c0-.3-.8-.8-1-1.1.2.2.3.4.4.6-.1 0-.1 0-.1.1l-.1-.1c-.1.1-.2.1-.2.1-.3-.1.3.6-.3.2l-.1-.2c-.2 0-.4-.1-.6-.1-.2-.1-.4-.1-.6-.2-.4-.1-.8-.2-1.2-.1-.1.1.2.5.2.6.4 0 .7-.2 1-.3l-.1.2c.1-.2.5-.2.3-.3.2-.1.2.3.4.2 0 .3-.2.3-.2.5l.3-.1c-.1.1.2.1.2.2.3-.1.5 0 .8.1.3.1.7.3.9.3l-.3-.1c-.2-.2 0-.1.1-.1.3.2.4.3.6.3v-.2c-.3-.5-.8-.8-.9-1.1.4.2-.1-.5.2-.5-.3-.1-.5-.8-.6-.7-.1-.1-.2-.3 0-.4 0 0 .1 0 .1.1l-.2-.3h.1c-.1-.1-.2 0-.2-.3.1 0 .1.1.2.1-.1-.3-.6-.4-.6-.8-.1 0-.3-.4-.6-.2 0-.1.3-.2.1-.5-.3-.1-.1-.3-.3-.5.4.2.1 0 .4.1 0-.2-.4-.4-.5-.7 0-.1.1-.1.1-.1-.1-.1-.4-.1-.3-.3l-.1.1c0-.2-.2-.6-.1-.8l-.4-.1v-.1c.2-.1.2-.2.3-.4v-.7l.3-.3v.2c.1-.2.4-.3.2-.6 0-.2.2-.1.4-.2-.1-.6.9-1 .5-1.5-.1.2-.4.4-.5.7 0-.1-.2-.1-.1-.2.2-.3.4-.4.5-.7l.3.2c.3-.2.4-.5.4-.8.1-.2.1-.4.6-.6z"/><path class="st3" d="M49.6 46.1l.3-.1h-.2s0 .1-.1.1zm.1-.1v-.2.2zm2.8-5.1c.1-.1.2-.2.2-.3-.1.1-.2.3-.2.3zm0-.2l-.2.2h.1zm-7.7.7l-.5-.2c0-.1-.4-.4-.1-.4-.4 0-.5-.6-.7-.2l.7.7c.3.3.6.7.9 1 .3 0 .6-.1.9-.1l.6-.1 1.2-.3-.2.2c.7-.4 1.1.2 1.6-.5v.3c.4 0 .6-.5 1-.3l-.1-.1h.2v-.1c.2-.2.4-.2.5-.1 0 .1-.1.1-.1.1 0 .1.2-.1.3-.2 0 .1-.1.2-.1.2.2-.1.3-.1.3-.1.1 0 .2-.1.8-.4.2-.1.2-.2.4-.2-.1-.1-.8.2-1.1.3h.1c-.4.5-.4.4-.4.4 0-.1 0-.1-.2 0 .1-.2.3-.2.5-.3-.2-.2-.4-.1-.6 0-.2.1-.3.1-.5-.1-.1 0-.2.1-.3.1 0 .1.2.1.2.1-.1.1-.1.3-.2.4-.2-.2-.2.1-.4 0-.1-.2.1-.2.2-.3l-.2.2c-.2 0-.3-.2-.4-.3-.2.2.1.1 0 .3-.3-.2-1.3 0-1.8.2.2 0 0-.2.2-.2-.1 0-.3.1-.3.2-.3.2-.8.1-1.1 0l.1.1c0 .3-.1.3-.3.3-.2 0-.4-.1-.7 0l-.2-.2c-.1-.1-.6 0-.7-.3.3-.1.4.1.5-.1z"/><path class="st3" d="M43.4 40.4h.3c-.1-.2-.4-.1-.5 0 .1.1.1.2.2.2 0-.1.1-.2 0-.2zM41.2 38c-.1 0-.1 0-.2.1.5.5 1.1 1.1 1.2 1.4.1.2.4 0 .6.2l-.1.2c.2 0 .4.5.5.2 0 0-.2 0-.3-.1l.1-.1-.2-.2h.2c-.1-.4-.5.1-.8-.4l.2-.2c-.2-.3-.4-.3-.5-.7 0 0-.1.1 0 .1 0 .1 0 .2-.1.2-.5-.2.2-.1 0-.4-.4-.2-1.1-.7-1.1-1 0 .3-.3.2-.5 0 0-.2.2-.1.3-.1-.1-.1-.1-.2-.2-.3 0 .2-.2.3-.5.2.3.5 1.1.5 1.4.9z"/><path class="st3" d="M40.9 38.1h.1c0-.1-.1-.1-.1-.2v.2zM40.4 37.2v.1zm0 .6v-.4c-.1.2.1.3 0 .4zm0 .1c-.1.1 0 .2 0 .2-.1-.1 0-.2 0-.2zM35 45.8z"/><path class="st3" d="M34 47.1c-.2-.1-.5-.3-.7-.4l.6-.3c1.3-.6 2.5-1.2 3.8-1.8.1 0 .1-.1.2-.1.3-.1.8-.4 1-.4.1 0 .1-.1 0-.1.2-.1.3-.2.5-.2.1-.8.3-1.8.4-2.8 0-.1 0-.1.1 0 .1-1 .3-2 .5-2.9 0 0-.1.1-.1 0-.1.3 0 .6-.1.9-.1.2.1.1 0 .3 0 .1 0 0 0 0-.1.4-.2.9-.2 1.3-.1.1-.1.5-.2.6v.3c-.1.4-.2.8-.2 1.2l-.2 1.1c-.7.3-1.3.6-2 .9-.6.4-1.5.6-2.3 1.1-.3.1-.6.3-1 .5l-.2.2c-.3.1-.5.2-.8.3l1.4.8 1.3.7c.8.5 1.7.9 2.5 1.4.3.2.6.3.9.5.1 1 .2 1.9.3 2.8.1.9.2 1.9.4 2.9 0 .2 0 .4.1.6 0 .3 0 .5.1.8.3-.3.7-.6.8-.8 1.1-1.2 2.4-2.3 3.4-3.4.2-.2.5-.5.8-.7 1.5.3 3.1.6 4.7 1 .7.1 1.2.3 2 .4l-.8-1.6-.6-1.2c-.5-1.2-1.3-2.4-1.9-3.7.1-.2.3-.5.4-.7.6-.8 1-2.1 1.6-2.8.3-.4.5-.8.8-1.1l.3-.6.4-.7c-.7.1-1.2.2-1.7.3l-1.5.3c-1.3.1-2.4.3-3.8.5-.4-.5-.7-.8-1-1.2-.6-.5-1.1-1.4-1.7-2-.1-.3-.6-.5-.6-.7-.1-.2-.4-.2-.4-.3-.1-.1 0 0-.1-.2 0 0-.1 0-.1-.1.1-.1-.4-.4-.3-.5.1.1-.1-.2.1 0 0-.1-.3-.3-.3-.3-.1 0-.2 0-.1.2h.1v.1c.2.2.1.3.3.5l.3.3v.1c0 .1.3.2.2.2.4.4.8.9 1.3 1.4.1 0 .3.4.3.2 0 .2.3.5.5.7.1.3.4.2.5.6.1 0 .4.5.6.5v.1c.2.3.5.5.7.8.4 0 .7-.1.9-.1.4-.1 1-.1 1.3-.3.3 0 .8 0 1.2-.1.5-.1 1-.1 1.3-.3.2.1.3.1.6.1.2 0 .4-.1.6-.1.1 0 .2 0 .3-.1h.1l-.1.1c.1-.1-.2.4-.3.7-.2.3-.4.6-.5 1-.4.6-.8 1.3-1.2 1.9-.1.2-.1.4-.1.6-.1.2-.3.4-.4.6v-.1c-.1.2-.3.4-.4.7v.1l.1.2s-.1 0-.1-.2c.3.5.5 1.1.8 1.6.3.5.5 1 .8 1.5l.8 1.5.6 1.3h-.2c-.1 0-.5-.1-.7-.2-.3 0-.6-.1-.8-.2 0 0 .1 0 0 0-.4 0-.6-.2-.9-.1-1.1-.2-2.3-.4-3.4-.7-.2 0-.3 0-.5-.1-.6.7-1.3 1.2-1.8 1.8-.8.9-2 1.8-2.8 2.7l-.2.2c0-.4-.1-.7-.1-1.1-.2-.9-.1-2-.3-2.9l.1.1c-.1-.1 0-.6-.2-.5v-.2c-.2-.6-.1-1.2-.2-2v-.1c-.2-.1-.4-.2-.5-.3h.1c-.5-.4-1.3-.7-1.9-1h.1c-.3-.1-.9-.5-1.3-.7l-.2-.1c-.9-.5-1.4-.7-1.9-1zm3.8-2.5c0 .1 0 0 0 0zM41 38c0-.1 0 0 0 0zM81.4 24.5l-.3.2.2.2zm-1.8.4l-.3.5c.8.3.4.5 1.4.2.1-.3.3-1 0-1.1-.1.2-.1.6-.4.8-.1-.3.2-.5 0-.8-.5.2-.1.4-.5.7l-.2-.3z"/><path class="st3" d="M79.8 25.9c-.1-.1-.1-.3-.2-.3.1.1 0 .5.2.3zm-.1.3c-.3.2-.2-.2-.3-.2l.1.6.2-.4zm-1 1.1c0 .1-.1.1-.1.2.1-.1.1-.1.1-.2z"/><path class="st3" d="M78.3 27.8c.2 0 .3-.2.3-.4-.2 0-.4-.3-.1-.5.2-.3.4 0 .4-.4l-.5.1c-.3.4-.1 1-.1 1.2z"/><path class="st3" d="M78.7 27.3c0-.1.1-.1.1-.2-.1 0-.1.1-.1.2zm.5-.5l.1-.2-.2-.1zm-1.7 1.9c-.3-.4.6-.6.4-.9-.3.4-.8.4-1 .1l-.2.5c0 .3.5.4.8.3zm-1.6-.1zm-1.1 2.5l.4-1.2c.1.2.2.3.1.5.4-.3.2-.6.5-.9.4.2-.5.6 0 .7.2-.2.5-.6.3-1l.6-.1-.5-.2c-.2 0 0 .6-.3.4-.2-.1-.1-.3-.1-.4-.1.3-.9.4-1.3.9-.3.4.4.8.3 1.3zm-.4-.4h-.2l.2.1zm-.4 1.5l.2-.7c.1 0 .2 0 .3.1-.1-.1-.1-.3-.2-.4-.3-.1-.4.1-.4.3 0 .1 0 .2-.1.3v.2c-.3.1-.3 0-.3-.1s-.1-.3-.2-.4c0 0 .1.1.2 0-.3-.1-.3-.1-.3 0s-.1.2-.1.3c0 .1 0 .2.1.2l-.2.1c.1.2.3.4.6.5.1-.1.3-.2.4-.4zm.8-.9c-.1.2-.2.2-.3.2.1.1.2.1.3-.2zm-1.9.5zm.2.6l-.4-.1.1.2c.2 0 .4 0 .3-.1zm-8.8 4.5c.1-.1.2-.3 0-.6.2-.1.4.3.6.4-.1-.5.3-.1.4-.4-.2-.4-.6-.5-.8-1 .1 0 .2-.1.2-.2-.2-.2-.5-.6-.8-.9-.3-.3-.5-.8-.6-1.1-.2-.5-.6-.9-1.2-1.7-.1-.1-.1-.3-.2-.4 1.2.2 2.3.3 3.5.4 1 .1 2.1.3 3.2.5l.4-.5c.1.3.5.1.4.4-.1-.1-.2 0-.4-.1.4.5 1.3.1 1.9.4-.1-.1-.1-.5.1-.6-.1.5.7.1.8.7.6.2.1-.5.7-.3.1-.3-.6-.2-.6-.5.2-.2.5.2.6-.2-1-.3-2.9.2-4.4.1l.2-.3c-.8.1-2 0-2.6-.6.1.2-.3.1-.8 0s-.9-.1-.6.3c-.4-.2-.4-.2-.9-.3l.1.2c-.5-.1-.8-.4-1.5-.5.8.4.5.4.7.7-.4-.1-.7-.3-1.2-.4-.1.2-.1.6-.1.9.1 0 .2 0 .3-.1.1.4.5.5.7.6.2.3-.3.2-.6.1.2.4.5.7.8 1 .3.3.5.4.6.7 0 0 .2-.3.2-.2.5.7.4 1.2.8 1.7-.2.5-.6-.3-.9-.4 0 .2.1.4 0 .5.3.1.8.4 1.1.6-.6.2-.2.9-.1 1.1zm-1.1-1.4c-.1 0-.2-.1-.2-.1 0 .1.1.1.2.1 0 .1 0 0 0 0zm1.1 1.4s0 .1 0 0c0 .1 0 .1 0 0z"/><path class="st3" d="M63.3 33.2c0 .1 0 .1.1.2l-.1-.2zm-2.1-.9v-.6c-.1 0-.2 0 0 .6zm3.1-1.7c.2 0 0-.1.2-.2-.5-.1-.6 0-.2.2zm-.8 5.5l.3.4.2.1zm3.4 8c.5-.2.6-.9.9-1.3.1-.5 0-.6-.2-.7-.2-.1-.3-.2-.2-.5l.7.3.3-.6c-.5-.9-1-1.6-1.7-1.9 0-.1.1-.3.3-.1-.3-.5-1.1.2-1.3-.6.8.4.2-.4.7-.5l.1.1c-.3-.4-.9-.9-1-1.2-.2.1-.3.5-.5.1.1.2-.2.2-.3.3.4.3.4.6.8.7-.1.4-.2-.1-.2.2l.4.2c.1.3-.4-.1-.2.3.1 0 .5.2.6.5H66c.2.2.3.6.6.2l-.3.4.2-.2c.1.3.1.6.1.9v.4s0 .1.2.1c.1-.1.2 0 .3 0 .1-.1 0-.1-.1-.2-.1 0-.2 0-.3-.1.1 0 .1-.1.2-.1h.2c.2 0 .3 0 .3-.2-.1.3.1.4.1.5-.1.1-.2.2-.6.2v.1c0 .1 0 .2-.1.3 0 .2-.1.4-.3.6l-.1-.1c.4.3-.4.3-.2.9l.2-.2c.2.1.1.2 0 .4-.1-.1-.1-.1-.2 0 .3.2 0 .8.1.9.2-.2.1-.7.1-1 .4.6.7.7.5.9z"/><path class="st3" d="M65.7 39.2l.2.1s-.1-.1-.2-.1zm-.4 7.1c-.2.3-.2-.2-.5 0 0 .4.6-.2.8.3-.3.1-.1.6-.2.7-.1-.2-.5-.3-.7-.3 0 .2-.3.4-.4.6.5-.4-.1.5.4.2.2.1.1.7-.1.9-.2-.1 0-.2 0-.4-.3-.3-.3.3-.7.2 0 .5-.2 1.2-.2 1.6 0 .4.1.5.8 0 .3-.2 0-.2.1-.3-.2.2-.3.3-.4.3-.1 0-.2-.1-.2-.1.3-.3.2-.7.4-.6l.2.3c.1-.2.3-.5.4-.7.2-.3.3-.7.5-1 .3-.7.6-1.5.9-2.2l-.3.6c-.2-.2 0-.4 0-.7l-.6.1c.1-.2.1-.3.3-.3-.1-.3-.3-.3-.5-.2.1-.5.3-.5.2-.9-.7.5 0 .8-.7 1.4l.5.5zm.5-1.8l.1.3v-.3zm.9.8c-.1 0-.1-.2-.2-.2-.3.3-.1.3.2.2zm-3.1 3.8l-.2.6.3-.4c-.1 0-.1-.1-.1-.2zm1.2 1.5c-.2.1-.4.2-.7.3 0-.1.1-.3.4-.6-.2 0-.4.2-.7.4-.3.2-.5.4-.7.5-.3.5.6-.1.7 0-.2.2-.3.2-.3.3.2 0 .7-.3.8-.3.1-.3.3-.5.5-.6z"/><path class="st3" d="M66.3 51.4c.3-.1.6-.4.8-.3 0 .2-.2.3-.3.3.2.4.3-.1.7.1 0 0-.2-.1-.1-.2.8-.1.4-.4 1.5-.4.1-.1.3-.2.2-.4.7.2.4.3 1.1.4-.1-.2-.4-.5-.4-.8 1.1.3 1-.3 1.7-.1-.1 0-.1.1-.3.1.2.5.5-.2.9-.2l.1.4c.3-.1.8-.5 1.3-.3l-.1.2c.4-.2.5-.3.8-.4l.3.3c.2.1.4.3.5.4l.1.5c1 .5-.6-.8.3-.7-.4.6.6.2.8.8 0 .4-.5-.3-.6.2.4-.2.3.1.6.3-.3.2.4.5 0 .7l1.3.2c0 .3.2.5.4.6-.4-.4.5-.3.1-.9-.8-.5-2.1-1.5-2.8-2.5-.2.1-.4 0-.5-.2-.1-.2-.3-.3-.5-.2v-.5c-.3.1-.2.2-.1.2.1.1.3.1.2.2-.3.1-.6-.1-.6-.3-.6.1-.1.2-.3.5l-.5-.4c-1.6.5-3.8 1.4-5.8 1.5l.2.3c-.5 0-.8.3-1.1.5-.4.2-.9.4-1.2.1l-.5.4c.3-.2.2-.6.6-.9-.3.2-.4.1-.7.2l.2.1c-.5.4-.8.3-.5 0-.5.3-.7.5-.7.6 0 .1.3.2.2.4.9-.5 1-.4 1.3-.2.2.2.6.3 1.3 0 .8-.4.2-.4.1-.6zm-.9-.8c-.1 0-.1.1-.1.1l.1-.1zM78 53l.2.2c.2-.1 0-.1-.2-.2zm-13.7-1.9zm-1.7 1.2h.3l.2-.2zm17 2.8l.1-.1-.1.1zm4.2-1.6zm8.4-11.9c.4-.3.9-.8.7-1h.3c0-.1.1-.2 0-.3-.1-.1-.5-.1-.9 0h.3c.1.2-.8.1-1.2.1 0 .1.1.2.2.4s0 .3-.2.4c-.1.1-.2-.1-.3-.2-.1 0-.2.2-.3.4-.1.2-.1.4-.2.5-.8-1.2-1.1 1.1-2.2.6-.3.3-.9.5-1.3 1 .1-.5-.5.2-.6-.2.2.8-1.6.5-1.2 1.4-.8.1 0 .1-1 .3-.1-.1.1-.2.1-.2-.5 0-.3.5-.7.5 0 0-.1.1-.2.1-.1.4 0 .5.1.5s.3 0 .4.3c-.2.7-.3.5-.8.9.5.1.2.5.4.9 0-.1.2-.6.3-.2-.2.9.2.7.3 1.6-.6.4.1-.8-.4-.1-.2-.5-.1-.9-.5-1.3-.1.7-.1 1.6 0 2.3-.1.4-.2-.2-.3.1-.3.7.4 1.2.1 1.8l-.3-.2c.3.4-.2 1.4-.1 2 .1 0 .2-.1.3.1-.3-.1-.3.1-.2.5.1.4.1 1.1-.1 1.1.2.3.3.7.4 1.2.1.5.1 1 .1 1.4-.2-.4-.3-.7-.4-.9l.1.1c.2-.5-.3-1.8-.5-2.4.1.5 0 .8 0 1.2-.1-.1-.2-.1-.2 0V56c0-.1-.1-.3-.1-.3-.1.1-.1.4-.1.6 0 .2-.2.2-.4-.2v-.3l-.7-.7-.3-.3-.4-.4c-.5-.5-1-.9-1.6-1.1-.2.1-.2.8-.2 1 .6.3 1.1.3 1.6.5l-.2.2c.3-.1.8.2.7-.2.4.1 0 .5.5.6-.2.4-.4.2-.6.5l.5.2c-.2 0 .2.4 0 .5.5.1.7.4 1 .8.3.4.7.9 1.1 1.1l-.5-.6c-.1-.4.2-.1.3-.1.2.5.4.7.6 1 0-.1.1-.2.2-.3-.1-.9-.4-1.8-.4-2.3.4.7.3-.7.7-.6-.2-.2-.2-.6-.2-.9 0-.3.1-.6-.1-.6-.1-.3 0-.6.2-.6 0 0 0 .1.1.2v-.2s.1 0 .1.1c0-.2-.3-.3 0-.5.1 0 .1.2.1.3.1-.6-.6-1.1-.1-1.5-.2-.1-.1-.8-.6-.7.2-.2.5-.1.5-.6-.4-.3.2-.5 0-.9.4.5.1 0 .5.5.2-.3-.3-.9-.1-1.4.1-.1.2 0 .3-.1-.1-.2-.4-.5-.1-.7h-.3c.1-.2.1-.4.2-.7 0-.1.1-.2.1-.3 0-.1.1-.1.1-.2 0 0 .1 0 .1-.1l-.2-.2c-.1-.1-.2-.3-.2-.3h.1c.2 0 .3 0 .4-.1l.1-.1.2-.2c.2-.3.4-.6.5-.9.2-.1.6-.2.6-.1s-.1.2-.1.3c.3-.2.9-.1.8-.6.3-.3.4.1.7.1.4-.9 2.2-.7 1.9-1.6-.3.1-.9.3-1.4.6.1-.2-.1-.3.1-.4.5-.3.9-.2 1.4-.6l.2.6c.6 0 .9-.4 1.2-.7.2-.2.3-.4.5-.5.1-.4.3-.5.7-.4z"/><path class="st3" d="M85.5 45.2l.5.1-.2-.2c-.1.1-.2.2-.3.1zm.3-.1l.2-.2c-.1 0-.2.1-.2.2zm8.1-4.6c.1 0 .4-.2.5-.3-.3.1-.5.2-.5.3zm.1-.3l-.4.1.2.1z"/><path class="st3" d="M82.9 34.8l-.5-.6c.2-.2-.2-.9.2-.7-.5-.3-.2-1.3-.8-.8.1.4.2.9.4 1.5.1.7.3 1.4.4 2.2.5.2.9.4 1.4.6.3.1.6.2.9.4.6.2 1.2.4 1.9.5l-.4.1c1.3 0 1.3 1.2 2.6.7l-.5.3c.4.4 1.3-.2 1.6.5v-.2c.1.1.2.2.3.2v-.1c.2 0 .4 0 .5.1.1 0 .2.1.2.2-.1.1-.1 0-.2 0 0 .2.4 0 .6.1 0 .1-.3.1-.3.2.3 0 .4.1.5.2.1.1.3.1 1.3.1.3 0 .4-.1.7 0h.1c-.1-.3-1.2-.4-1.8-.5h.1c-.7.1-.6.1-.6 0 .1-.1.1-.2-.3-.2.4-.2.6 0 .9-.1-.1-.4-.6-.5-.8-.5-.3 0-.5-.1-.6-.5h.1c-.1-.1-.3-.1-.5-.1 0 .1.2.2.2.3-.2 0-.4.2-.5.3-.1-.4-.3 0-.6-.3 0-.3.4-.1.5-.2h-.4c-.3-.1-.2-.4-.3-.7-.4.1.1.2-.3.4-.2-.5-1.8-1.1-2.6-1.1.3.1.2-.3.5-.1-.1-.1-.5-.1-.6.1-.6 0-1.2-.5-1.6-.9v.3c-.2.1-.4 0-.6-.2l-.9-.6c0-.1-.1-.3-.1-.4-.1-.2-.7-.5-.7-.9.3.2.3.5.6.4zm-1.1-2.6l.4.2c0-.3-.5-.5-.6-.4.1.2 0 .4.2.4 0 0 .1-.1 0-.2zm-1-5c-.1-.1-.2 0-.3-.1.2 1.1.6 2.4.4 2.8 0 .4.5.4.7.8l-.2.3c.2.2 0 1 .5.7 0 0-.3-.2-.2-.4h.2l-.2-.5.3.1c.2-.7-.8-.3-.7-1.2l.5-.1c-.1-.5-.3-.8-.1-1.3 0 0-.2 0-.1.1 0 .1-.2.2-.3.2-.5-.8.3.1.4-.5-.4-.6-1-1.9-.7-2.4-.2.4-.6-.1-.6-.4.1-.2.3.1.4.1 0-.2.1-.4 0-.5-.2.3-.6.2-.8-.2-.3 1 .7 1.5.8 2.5z"/><path class="st3" d="M80.4 27c0 .1.1.1.1.1 0-.1-.1-.3-.1-.4v.3zM80.4 25.4h-.1v.2zm-.5.7s0 .1 0 0l.3-.5c-.3.1-.1.5-.3.5zm-.1.1c-.2.1-.2.2-.2.3 0-.1.3-.2.2-.3zm-14 6.3s.1 0 0 0c.1 0 0 0 0 0z"/><path class="st3" d="M63.4 33.6c-.2-.4-.4-.8-.6-1.1.4.1.7.1 1.1.1h-.1c2.3.3 4.4.5 6.7.7h-.1.3c.5.2 1.4.1 1.7.2.1 0 .2 0 .1-.1.3 0 .6.1.9.1.5-.5.9-1.1 1.4-1.7l1.5-1.8c.1-.1.1 0 .1 0 .9-1.3 2-2.4 3.1-3.6 0-.1-.1.1-.1-.1-.4.3-.5.8-.9 1.1v-.1c-.2.2 0 .1-.2.4-.1.1 0-.1-.1 0-.5.5-1 1.1-1.4 1.7-.2.1-.5.6-.8.7-.1.2-.2.3-.2.4-.4.5-.9 1-1.3 1.5s-.8.9-1.2 1.4c-1.2-.1-2.3-.3-3.5-.4-1.2.1-2.6-.4-4-.5-.5 0-1.1-.1-1.7-.2h-.5c-.4-.1-.9-.1-1.3-.2.4.8.8 1.5 1.3 2.3.4.7.8 1.3 1.1 2 .8 1.3 1.5 2.6 2.3 4 .3.5.5.9.8 1.4-.3.7-.7 1.3-1 2-.3.7-.7 1.4-1 2.1-.6 1.4-1.3 2.8-1.8 4.3v-.1c-.1.3-.2.5-.4.8-.2.4-.4.7-.5 1.1.6-.1 1.4-.3 1.8-.4 2.4-.7 5.2-1.1 7.5-1.8.5-.1 1.1-.2 1.7-.4 1.7 1.6 3.7 3.5 5.6 5.2.4.4.8.7 1.2 1.1l1.2 1.2.3-2.2c.1-.7.2-1.4.2-2.1.3-2.1.3-4.4.5-6.6l1.2-.6c1.5-.6 3.2-2 4.6-2.5.7-.3 1.3-.6 2-.9l1-.5 1.2-.7-1.4-.6-1.1-.4c-.8-.3-1.5-.6-2.3-.9-.9-.4-1.8-.8-2.8-1.2l-1.5-.6c-.5-.2-1-.4-1.4-.6l-.1-.7-.1-.6c-.1-.4-.1-.8-.2-1.2-.4-1.3-.3-2.8-.6-4.2v.1c.1-.5-.4-1.1-.3-1.5v.1c.1-.3-.4-.6-.3-.8h-.1c-.1-.3.1-.1 0-.3 0-.1-.1 0-.1-.2.2-.1-.2-.8.1-.9 0 .2 0-.3.2.1 0-.1-.1-.7-.2-.6-.1 0-.3-.2-.3.1l.1.1c-.1.1 0 .1-.1.1.1.4 0 .5 0 .9.1.2.1.5.2.7v.1c-.1.1.3.5.1.4.2.9.4 1.9.6 2.9.1.1.1.8.2.5-.1.3 0 1 .1 1.3v-.1c-.1.6.3.6.2 1.1.2 0 .1.9.4 1.2 0 .1-.1.1-.1.1.1.6.2 1.1.3 1.6.5.2 1 .5 1.4.6.7.1 1.4.7 2.1.8.4.2 1.1.6 1.7.8h-.1c.7.3 1.5.7 2.1.8.1.3.4.4.7.5.2.1.6.2 1 .4l.3.1c.1 0 .2.1.2.1h.2s-.1.1-.2 0c0 0 .1 0-.3.2-.2.1-.5.3-.7.5-.5.3-1 .6-1.6.9-1.3.5-2.4 1-3.5 1.5l-.7.7c-.4.2-.8.3-1.1.5v-.1c-.2.1-.3.2-.5.3-.1 0-.2.1-.3.1-.1.1-.2.1-.3.2h-.1l-.2.1v.3s-.1-.1-.1-.3c-.1.5-.1 1-.2 1.5l-.1 1.3c-.1.9-.1 1.8-.2 2.7-.1.9-.1 1.8-.2 2.7l-.2 2.3v-.1.1c-.1 0-.1-.1-.2-.1V56l-.2-.2-.5-.5c-.3-.3-.7-.6-1-.9 0 0 .1 0 .1-.1-.6-.4-.7-.8-1.1-.9 0 0 0-.1.1-.1-1.4-1.2-2.7-2.5-4-3.8-.2-.1-.4-.3-.7-.5l-.6.1-.5.1c-.3.1-.7.1-1 .2-.7.1-1.3.3-2 .5-1 .3-2 .5-3.1.7l-1.6.3-1.5.3c-.1 0-.3.1-.4.1.2-.6.4-1 .7-1.6h.1c.5-1.4 1.5-2.8 2-4.3v.1c0-.3.4-.8.2-.8l.2-.2c.2-1.1.9-1.7 1.3-2.9v.1-.1c-.2-.3-.4-.6-.5-.8l.1.1c-.4-1-1.2-2-1.7-3l.1.1c-.4-.4-.8-1.3-1.2-2h.1-.1.1c-.5-.9-1-1.6-1.5-2.4zm7.3-.2c-.1 0 0 0 0 0z"/><path class="st3" d="M80.6 26.9v-.1c-.1 0 0 .1 0 .1z"/><g><path class="st4" d="M49.1 51.7c.1.1 4.2-2.6 4.3-2.5.1.1-3.7 3.2-3.6 3.3.1.1 4.5-2.7 4.5-2.6 0 .1-2.3 2.4-2.2 2.4 0 .1 3.2-1.9 3.3-1.9 0 .1-2.4 2.6-2.4 2.7 0 0 1.6-1 1.7-1 0 0 1 .7 1 .8l.3-.2"/><path class="st4" d="M36.1 46.7l1.8-1.1s.2 1.2.3 1.2c.1.2 10.6-6.5 10.8-6.2.2.3-10.2 6.9-10.1 7.2.1.2 11-6.6 11.1-6.4.2.3-10.1 6.7-9.9 7 .2.3 11.7-7.1 11.8-6.8.1.3-9.9 6.5-9.7 6.8.2.4 12.5-7.7 12.7-7.3.2.3-12.8 8.1-12.6 8.4.2.4 13.7-8.3 13.8-8 .2.4-13 8.3-12.8 8.7.2.3 10.7-6.5 10.8-6.3.2.3-11.6 7.6-11.5 7.9.2.3 10.1-6.2 10.3-5.9.1.3-10.3 6.9-10.1 7.1.1.2 9.7-5.9 9.9-5.7.1.3-9.8 6.6-9.7 6.8.2.3 10.5-6.4 10.6-6.1.2.3-10.5 6.9-10.4 7.2.1.1 4.5-2.8 4.6-2.7.1.1-3.8 3.2-3.8 3.3 0 0 .2-.2.3-.2m.2-19.1s.1 0 0 0c.1 0 .5 1 .5 1s.9-.6.9-.5c0 .1-1.2 2-1.2 2.1 0 .1 1.1-.7 1.2-.7 0 .1-2.5 2.5-2.4 2.6 0 .1 2.6-1.6 2.6-1.5 0 .1-1.8 2.2-1.8 2.3.1.1 4-2.5 4.1-2.4M44 36.9l.1-.1m-.4 1.7l.2-.1m-.9 2.2c.1 0 .1 1.2.1 1.3m-.2.5h.1m-1.7 1.2s.4-.3.4-.2"/><path class="st4" d="M35.2 46.8l1.6-.9.3 1.2.8-.5s.2 1.2.2 1.3l.9-.5-.1 1.3.1-.1m-2.4-2.8L38 45m1.9 4.6l1.6-.9s.5 1 .6 1.1l1-.6s-1 1.9-.9 1.9c0 0 1.3-.8 1.3-.7m-3.3-2.1h.1m2.2 4s.1 0 0 0c.1 0 1.3.5 1.3.6l.3-.2s-.7 1.7-.6 1.7l.2-.1-.2 1.3s.4-.3.4-.2m-.2.9l1.4-.8m1.4-1.6l.2-.1c0 .1-2.8 2.7-2.8 2.8l1.8-1m3.4-3.1s1.6-1 1.6-.9l.4 1.1 1.1-.6"/><path class="st4" d="M48.7 51.8s.1-.1 0 0c.1 0 1.1.7 1.1.7h.1m4.2.4l.8.8.6-.3m-3.7-.3l1.4-.8m.2-3.8l-.1 1.2 1-.6.3 1 .9-.5s-1.3 2-1.2 2l.5-.3 1.2.7.4-.2m-3-7.4l1.6-.9c0 .1-1.8 2.3-1.7 2.4l1-.6c0 .1-1.6 2.3-1.6 2.3l1-.6v1.3l.2-.1m1.8-6.9l.3-.2s-.7 1.7-.6 1.7c0 0 .5-.3.6-.3m-8.5-.5s1.4-.8 1.5-.8l.4 1.1 1.2-.7 1.5.5 2.2-1.3m-6.9-.1l.2-.1.8.8.1-.1M46 40.2l1.5-.9m-3.6-2.2l.4-.2s.6.9.7 1h.1s.6 1 .7 1l.3-.2s.4.9.4 1l.1-.1"/><path class="st5" d="M44 36.9l.1-.1m-.4 1.7l.2-.1m-.9 2.2c.1 0 .1 1.2.1 1.3m-.2.5h.1m-1.7 1.2s.4-.3.4-.2m-6.5 3.4l1.6-.9.3 1.2.8-.5s.2 1.2.2 1.3l.9-.5-.1 1.3.1-.1m-2.4-2.8L38 45m1.9 4.6l1.6-.9s.5 1 .6 1.1l1-.6s-1 1.9-.9 1.9c0 0 1.3-.8 1.3-.7m-3.3-2.1h.1m2.2 4s.1 0 0 0c.1 0 1.3.5 1.3.6l.3-.2s-.7 1.7-.6 1.7l.2-.1-.2 1.3s.4-.3.4-.2m-.2.9l1.4-.8m1.4-1.6l.2-.1c0 .1-2.8 2.7-2.8 2.8l1.8-1m3.4-3.1s1.6-1 1.6-.9l.4 1.1 1.1-.6"/><path class="st5" d="M48.7 51.8s.1-.1 0 0c.1 0 1.1.7 1.1.7h.1m4.2.4l.8.8.6-.3m-3.7-.3l1.4-.8m.2-3.8l-.1 1.2 1-.6.3 1 .9-.5s-1.3 2-1.2 2l.5-.3 1.2.7.4-.2m-3-7.4l1.6-.9c0 .1-1.8 2.3-1.7 2.4l1-.6c0 .1-1.6 2.3-1.6 2.3l1-.6v1.3l.2-.1m1.8-6.9l.3-.2s-.7 1.7-.6 1.7c0 0 .5-.3.6-.3m-8.5-.5s1.4-.8 1.5-.8l.4 1.1 1.2-.7 1.5.5 2.2-1.3m-6.9-.1l.2-.1.8.8.1-.1M46 40.2l1.5-.9m-3.6-2.2l.4-.2s.6.9.7 1h.1s.6 1 .7 1l.3-.2s.4.9.4 1l.1-.1"/></g><g><path class="st4" d="M81.8 24.9c.1.1-1.9 2.4-1.9 2.4 0 .1 3-1.8 3-1.7.1.2-6.6 5-6.5 5.1.1.1 6.1-3.7 6.2-3.6.1.2-8.3 5.7-8.2 5.9.1.2 9-5.5 9.1-5.3"/><path class="st4" d="M64 31.3c.1 0 .9.7.9.7l1-.6-.9 1.8c0 .1 1.5-1 1.5-.9 0 .1-1.8 2.1-1.8 2.2.1.1 4.4-2.7 4.5-2.6.1.1-4.1 3.6-4.1 3.7.1.1 5.6-3.4 5.7-3.3.1.1-5.2 3.9-5.1 4.1.1.2 7.2-4.4 7.3-4.2.1.2-6.2 4.7-6.1 4.9.1.2 7.1-4.4 7.2-4.2.1.2-7 5.1-6.9 5.3.2.4 14.8-9.2 15.1-8.7.2.3-15.3 9.5-15 10 .2.4 16.7-10.1 16.9-9.8.2.4-16.2 10-16 10.5.3.4 14.4-8.8 14.6-8.4.3.4-15 9.3-14.8 9.7.2.4 16.2-9.9 16.4-9.5.2.4-16.4 10.2-16.2 10.5.2.4 15.3-9.5 15.6-9 .2.4-17 10.6-16.8 11 .2.4 17.3-10.6 17.6-10.1.3.5-18.5 11.3-18.2 11.9.3.5 18.8-11.3 19-11 .3.5-20 12.1-19.7 12.6.3.6 20.3-12.5 20.7-11.9.3.6-22 13.3-21.7 13.8.3.5 21.9-13.3 22.2-12.8.3.6-22.9 13.8-22.6 14.3.3.5 23.7-14.7 24.2-13.9.3.5-21.5 12.9-21.2 13.4.3.6 21.7-13.2 22-12.7.2.4-17.6 10.9-17.4 11.4.3.6 18.8-11.6 19.2-11.1.2.4-16.4 10.2-16.2 10.7.2.4 17.1-10.4 17.3-10 .2.4-16 10-15.8 10.4.3.5 16.2-9.9 16.4-9.5.2.4-16 9.8-15.7 10.3.1.2 7.3-4.5 7.5-4.3.1.2-6.6 4.8-6.5 5 .1.2 6.8-4.1 6.9-4 .1.2-6.4 4.7-6.3 4.9.1.1 5.6-3.4 5.7-3.3.1.1-4.7 3.9-4.6 4 .1.1 3.9-2.4 4-2.3.1.1-3.4 3-3.3 3.1.1.1 4.2-2.6 4.3-2.5.1.1-3.6 3.2-3.6 3.3 0 .1 3.3-2 3.4-1.9.1.1-2.9 2.8-2.8 2.9 0 .1 1.2-.8 1.2-.7 0 0-.7 1.5-.7 1.6 0 0 2-1.2 2.1-1.2 0 0-1 1.7-1 1.8 0 0 .2-.2.2-.1m-2.5-31.8l.8-.5s-.2 1.2-.2 1.3l.2-.1m-2 .9l.2-.1m-1.7 1.5h.1m-2 2l.2-.1"/><path class="st4" d="M76.5 29.2l.8-.5s-1.4 2-1.4 2.1c0 0 .1-.1.2-.1m-1.6.9l.2-.1m0-.1s.1 0 0 0c.1 0 0 1.1 0 1.2l.1-.1m-3-.6l.1-.1.3 1.1.4-.2m-2.4-1s.1-.1 0 0c.1 0 .9.6 1 .7l.5-.3m-8.4-1.5l.9.6.6-.4s1.8.3 1.8.4l1.2-.7s1.1.6 1.2.6l.5-.3s.2 1.1.3 1.1l.2-.1m-4.2 4.3l.5-.3m-1.9-.7l.9.8.7-.4m-3.1-4.9s.1 0 0 0c.1 0 .8.8.8.8l.1-.1-.5 1.6.7-.4s-.4 1.3-.3 1.4l1.1-.7s-.6 1.6-.5 1.7c0 0 .8-.5.9-.5m2.5 9.3h.1m1.3-2.4s.6-.4.7-.4"/><path class="st4" d="M66 39.1l.1-.1 1.2.6.6-.4c0 .1-1.2 2-1.1 2l1.6-.9s-1 1.7-1 1.8c0 0 2.3-1.4 2.3-1.3.1.1-3.1 3-3.1 3.1l2.9-1.7m-3-5.2s.1 0 0 0c.1 0 .6.9.6.9l.6-.4m-2.2 10.8l.4-.2c0 .1-1.7 2.3-1.7 2.3s1.5-.9 1.6-.9"/><path class="st4" d="M65.3 47.4l.7.9.8-.5m0-3.6l.1-.1-.1 1.3.2-.1s-.6 1.6-.5 1.6c0 0 .5-.3.6-.3m-2.4 4.2L66 50m10.1.5c.1 0 .1 0 0 0 .1 0 .9.6.9.6l.6-.3.5 1.1 1.2-.7-.4 1.5h.1"/><path class="st4" d="M71.4 49.8s.1-.1 0 0c.1 0 1.2.7 1.2.7 0 .1 2.9-1.8 3-1.7 0 0-.2 1.4-.2 1.5l1.2-.7s-1.1 1.8-1 1.9l1.5-.9m-9.8.9l1.5-.9c0 .1 2.1 0 2.2.1l.4-.2m-6.1.7s.4-.3.4-.2c0 0 1.4.4 1.4.5 0 .1 2.4-1.5 2.4-1.4m14.9 7.3s0 1.1.1 1.2h.1"/><path class="st4" d="M83.6 57.6s.4-.3.5-.3l-.2 1.3 1.2-.7m-5.3-4.6c.1 0-.5 1.5-.5 1.6l1-.6.8.7.4-.2.1 1.1.8-.5s0 1.2.1 1.2c0 0 .8-.5.8-.4l-.2 1.4s.9-.6 1-.5m.3-8.8s-.3 1.3-.2 1.4l.2-.1-1.1 1.8s.9-.6.9-.5l.6 1s1.1-.7 1.1-.6c0 .1-2 2.4-2 2.4l1-.6s-1.2 1.8-1.1 1.8c0 0 .5-.3.6-.3L84 56l.7-.4m1.6-10.8c0 .1 2.1-1.3 2.1-1.2"/><path class="st4" d="M87.5 43.6c.1.1-3.1 3.1-3.1 3.2l1-.6-1 1.9 1.1-.6s-1.1 1.8-1.1 1.9l1.4-.8m4.4-6.4s.2-.2.3-.1m2.4-1.7h.1m-.2-.7s.1-.1 0 0c.1 0 .8.9.8.9l.9-.5m-11.6-5.3s.1-.1.2-.1m.2-2.2l.2-.1.4 1h.1s-.6 1.6-.6 1.7l.2-.1s-.4 1.3-.3 1.4c0 0 1.3-.8 1.3-.7l-.3 1.5 1-.6.3 1 1.5-.9.6 1 .2-.1s.6.9.7 1l.1-.1s.5.9.6 1l2.2-1.3s-.2 1.3-.2 1.4l.2-.1m-8.4-7.7h.1m-1.1-.6l.1-.1m-.8-6.5s-.1 1.3 0 1.3l.2-.1s.3 1.1.3 1.2l.1-.1s-.5 1.4-.5 1.5l1.2-.7-1.2 2 1.1-.6s-.7 1.5-.7 1.6l1.2-.7"/><path class="st5" d="M81.1 24.8l.8-.5s-.2 1.2-.2 1.3l.2-.1m-2 .9l.2-.1m-1.7 1.5h.1m-2 2l.2-.1m-.2-.5l.8-.5s-1.4 2-1.4 2.1c0 0 .1-.1.2-.1m-1.6.9l.2-.1m0-.1s.1 0 0 0c.1 0 0 1.1 0 1.2l.1-.1m-3-.6l.1-.1.3 1.1.4-.2m-2.4-1s.1-.1 0 0c.1 0 .9.6 1 .7l.5-.3m-8.4-1.5l.9.6.6-.4s1.8.3 1.8.4l1.2-.7s1.1.6 1.2.6l.5-.3s.2 1.1.3 1.1l.2-.1m-4.2 4.3l.5-.3m-1.9-.7l.9.8.7-.4m-3.1-4.9s.1 0 0 0c.1 0 .8.8.8.8l.1-.1-.5 1.6.7-.4s-.4 1.3-.3 1.4l1.1-.7s-.6 1.6-.5 1.7c0 0 .8-.5.9-.5m2.5 9.3h.1m1.3-2.4s.6-.4.7-.4"/><path class="st5" d="M66 39.1l.1-.1 1.2.6.6-.4c0 .1-1.2 2-1.1 2l1.6-.9s-1 1.7-1 1.8c0 0 2.3-1.4 2.3-1.3.1.1-3.1 3-3.1 3.1l2.9-1.7m-3-5.2s.1 0 0 0c.1 0 .6.9.6.9l.6-.4m-2.2 10.8l.4-.2c0 .1-1.7 2.3-1.7 2.3s1.5-.9 1.6-.9"/><path class="st5" d="M65.3 47.4l.7.9.8-.5m0-3.6l.1-.1-.1 1.3.2-.1s-.6 1.6-.5 1.6c0 0 .5-.3.6-.3m-2.4 4.2L66 50m10.1.5c.1 0 .1 0 0 0 .1 0 .9.6.9.6l.6-.3.5 1.1 1.2-.7-.4 1.5h.1"/><path class="st5" d="M71.4 49.8s.1-.1 0 0c.1 0 1.2.7 1.2.7 0 .1 2.9-1.8 3-1.7 0 0-.2 1.4-.2 1.5l1.2-.7s-1.1 1.8-1 1.9l1.5-.9m-9.8.9l1.5-.9c0 .1 2.1 0 2.2.1l.4-.2m-6.1.7s.4-.3.4-.2c0 0 1.4.4 1.4.5 0 .1 2.4-1.5 2.4-1.4m14.9 7.3s0 1.1.1 1.2h.1"/><path class="st5" d="M83.6 57.6s.4-.3.5-.3l-.2 1.3 1.2-.7m-5.3-4.6c.1 0-.5 1.5-.5 1.6l1-.6.8.7.4-.2.1 1.1.8-.5s0 1.2.1 1.2c0 0 .8-.5.8-.4l-.2 1.4s.9-.6 1-.5m.3-8.8s-.3 1.3-.2 1.4l.2-.1-1.1 1.8s.9-.6.9-.5l.6 1s1.1-.7 1.1-.6c0 .1-2 2.4-2 2.4l1-.6s-1.2 1.8-1.1 1.8c0 0 .5-.3.6-.3L84 56l.7-.4m1.6-10.8c0 .1 2.1-1.3 2.1-1.2"/><path class="st5" d="M87.5 43.6c.1.1-3.1 3.1-3.1 3.2l1-.6-1 1.9 1.1-.6s-1.1 1.8-1.1 1.9l1.4-.8m4.4-6.4s.2-.2.3-.1m2.4-1.7h.1m-.2-.7s.1-.1 0 0c.1 0 .8.9.8.9l.9-.5m-11.6-5.3s.1-.1.2-.1m.2-2.2l.2-.1.4 1h.1s-.6 1.6-.6 1.7l.2-.1s-.4 1.3-.3 1.4c0 0 1.3-.8 1.3-.7l-.3 1.5 1-.6.3 1 1.5-.9.6 1 .2-.1s.6.9.7 1l.1-.1s.5.9.6 1l2.2-1.3s-.2 1.3-.2 1.4l.2-.1m-8.4-7.7h.1m-1.1-.6l.1-.1m-.8-6.5s-.1 1.3 0 1.3l.2-.1s.3 1.1.3 1.2l.1-.1s-.5 1.4-.5 1.5l1.2-.7-1.2 2 1.1-.6s-.7 1.5-.7 1.6l1.2-.7"/></g></g></svg>