<svg id="Layer_1" xmlns="http://www.w3.org/2000/svg" viewBox="0 0 128 128"><style>.st0{fill:#fff}.st1{fill:#bcbdbe}.st2{fill:#666}.st3{fill:none;stroke:#020202;stroke-width:7.101711e-2;stroke-linecap:round;stroke-linejoin:round}</style><ellipse class="st0" cx="64" cy="64" rx="62.4" ry="64"/><path class="st1" d="M123.1 69.2h.1-.1zm-.2 0c-.1 0-.1 0 0 0zm0 0h-.1c.1-.1-.1-.1.1 0zm0-.9zm-.6-.2h-.1c.2.1 0 .1.1.1-.1.1.2.2.3.3h-.1c-.2 0 .1.1 0 .1h.2c.1.1.1.2.3.3h-.2c.4.1.2.2.1.2h.2c.1 0-.2-.1-.1-.1h.1s0-.1-.2-.1h.2-.2c.1-.1-.1-.2-.1-.4-.4-.1.1-.1 0-.2-.1 0-.1-.1-.1-.1h-.2c.3-.1.1-.3.3-.5.1-.2.4-.3-.1-.5h.1c-.1-.1.1-.1 0-.1-.3-.1.1-.2-.3-.4 0-.1 0-.3-.1-.5h.1c-.2-.1.3-.2.1-.3.2-.1-.4-.3-.2-.4.4-.1-.4-.2 0-.2.6-.1.2-.3-.1-.4.2-.1-.3-.3.1-.4-.3-.1.3-.1.3-.2h-.1c.3 0-.4-.1 0-.1h-.3.6-.6.2H121.9c.2 0 .1 0 0 0h-.1c-.2 0 .4 0 0 0 .1 0 .1.1.1.1h.2c-.3 0-.3 0-.3.1 0 0-.1 0 0 0-.3 0 .3 0-.1.1.3 0-.1 0 .3.1h-.2l-.1.1c.3 0-.1.1.2.1-.1 0-.2.1-.1.1 0 0 0 .1.3.1h-.4c.2 0 .1.1.3.1h-.2c.4.1.3.2-.1.3.1 0 .4 0 .6.1h-.1s-.2 0-.1.1h-.1c.1 0-.2 0 0 .1h-.1.1-.2c-.1.2.3.3.2.5h-.1c-.1 0 .1.1 0 .1h-.2c.2 0-.3 0 .2.1h-.2c.1.1.1.2.1.3.4.1 0 .2.3.2h-.1c.3.1 0 .2 0 .3l.1.1h-.1c.4.1-.3.1.1.2h-.1c.2 0-.1 0 .3.1h-.1c.5.1-.2.1.1.2h-.1c.1 0 .1 0 0 0h-.1c-.3 0 0 .1 0 .2h-.2c.2 0 0 .1.1.1h-.1.1-.1c.3-.1.4-.1.4 0zm.1.4zm-.5-4.4zm-1 17h-.1zm-.3-.1l.3.1c.2 0-.4-.1-.3-.1zm.1 0c.1 0-.1 0-.1-.1.1.1-.1.1.1.1zm.1-.8z"/><path class="st1" d="M120.3 79.8h-.1c.2.1 0 .1.1.2-.1.1.1.2.2.4h-.1c-.2 0 .1.1 0 .1 0 0 .1 0 .2.1 0 .1.1.2.2.3h-.2c.3.2.2.2.1.3.1 0 .1 0 .2.1.1 0-.2-.1 0-.1h.1c.1 0-.2-.1-.1-.1h.1s.1-.1-.1-.1h.2c-.1 0-.1 0-.2-.1.1-.1 0-.3 0-.4-.4-.2.1-.1 0-.2-.1 0-.1-.1-.1-.1l-.1-.1c.4-.1.2-.3.3-.4.1-.2.4-.2 0-.5h.1c-.1-.1.1-.1 0-.1-.3-.2.1-.2-.2-.4.1-.1.1-.3 0-.5h.1c-.1-.2.3-.2.2-.3.2-.1-.4-.3-.1-.4.4 0-.4-.3 0-.2.6 0 .3-.2 0-.5.2-.1-.3-.3.2-.4-.2-.1.4-.1.3-.1h-.1c.3 0-.4-.1 0-.1.2 0-.5-.1-.2-.1h-.1.1c.4.1-.1-.1.4 0 0 0 .2 0 .3.1.1 0 0 0-.2-.1-.2 0-.4-.1-.6-.1h.2H120.8c.2 0 .1 0 0 0h-.1c-.2 0 .4.1 0 0 .1.1.1.1 0 .2.1 0 0 0 .2.1h-.3s-.1 0 0 0c-.3 0 .3.1-.1 0 .3.1-.1 0 .2.1h-.2s-.1.1-.2.1c.2.1-.1 0 .2.1-.1 0-.2 0-.1.1 0 0 0 .1.2.2-.3-.1-.3 0-.4 0 .2.1.1.1.2.2h-.2c.4.2.2.3-.1.3.1 0 .4.1.5.2h-.4c.1 0-.2 0 0 .1h-.1.1-.2c-.1.1.2.4.1.6h-.1l.1.1h-.1c-.1 0 .1.1 0 .1h-.1c.2.1-.3 0 .1.1h-.1c.1.1.1.2 0 .3.4.2 0 .2.3.3h-.1c.2.2-.1.2 0 .3v.1h-.1c.3.2-.4.1 0 .2h-.1c.2.1-.1 0 .3.1h-.1c.4.2-.2 0 0 .2h-.1c.1 0 .1.1 0 .1h-.1c-.3 0 0 .1 0 .2h-.1c.2.1 0 .1.1.1h-.1.1-.1c.4-.8.5-.7.5-.7zm.1.5c-.1 0-.1 0 0 0zm.3-4.5zm-4.4 16.5h-.1zm-.3-.2l.2.2c.3.1-.3-.2-.2-.2zm.1 0c.1 0-.1-.1-.1-.1.1.1-.1.1.1.1zm.3-.7z"/><path class="st1" d="M116 90.9l-.1-.1c.1.2-.1.1.1.1l-.1.1c-.1.1.1.3.1.4h-.1l.1.1h-.1c-.2-.1.1.1-.1.1 0 0 .1.1.2.1 0 .1 0 .2.1.4 0 0-.1 0-.1-.1.3.2.1.2 0 .3.1 0 .1 0 .2.1.1 0-.2-.1 0-.1h.1c.1 0-.2-.1-.1-.1s.1.1.1.1.1 0-.1-.2c.2.1 0 0 .2 0-.1 0 0 0-.2-.1.1-.1 0-.3.1-.4-.3-.2.1-.1 0-.2s-.1-.1 0-.1l-.1-.1c.4 0 .2-.2.4-.3.2-.1.5-.1.1-.5h.1c0-.1.1-.1 0-.1-.2-.2.1-.2-.1-.5.1-.1.1-.3.1-.4h.1c-.1-.2.3-.1.3-.3.2 0-.3-.4 0-.4.4.1-.3-.3.1-.2.6.1.3-.2.1-.4.2 0-.2-.4.3-.3-.2-.2.4 0 .3-.1h-.1c.3.1-.3-.2.1-.1.2.1-.5-.2-.2-.1h-.1s.1 0 .2.1c0 0-.2-.1-.1-.1.4.2-.1-.1.4.1 0 0 .2.1.3.1l-.2-.1c-.2-.1-.4-.2-.5-.2l.1.1c-.1-.1-.1 0-.2-.1 0 0-.2-.1-.3-.1.2.1.1.1 0 0h-.1c-.2-.1.3.2 0 0 .1.1 0 .1 0 .2.1.1 0 0 .2.1-.2-.1-.3-.1-.3-.1-.3-.1.3.2-.1 0 .3.1-.1 0 .2.2-.1 0-.1 0-.2-.1 0 0-.1 0-.2.1.2.1-.1 0 .2.2h-.1s0 .1.2.2c-.3-.1-.3-.1-.4-.1l.2.2c-.1-.1 0 .1-.2 0 .4.3.2.3-.2.3.1.1.4.2.5.3h-.4c.1.1-.2 0 0 .1h-.1.1c-.1 0-.2-.1-.1-.1-.1.1.1.4 0 .6h-.1l.1.1h-.1c-.1 0 0 .1 0 .1l-.1-.1c.2.1-.3-.1.1.1l-.1-.1c.1.1 0 .2-.1.3.3.2 0 .2.2.4h-.1c.2.2-.1.2-.1.3v.1h-.1c.3.2-.4 0 0 .2l-.1-.1c.2.1-.1 0 .2.2h-.1c.4.3-.2 0 0 .2h-.1c.1 0 .1.1 0 .1h-.1c-.3-.1 0 .1-.1.2l-.1-.1c.2.1 0 .1 0 .1h-.1l.1.1-.1-.1c.2-.6.3-.5.3-.5zm-.1.5zm1.2-4.3c.1 0 .1 0 0 0 0 0 .1 0 0 0zm-7.6 15.2v.1l-.1-.1zm-.2-.2l.2.2c.2.1-.3-.3-.2-.2z"/><path class="st1" d="M109.3 102.1c.1 0-.1-.1-.1-.1l.1.1zm.5-.7z"/><path class="st1" d="M109.5 100.9l-.1-.1c.2.2-.1.1 0 .2-.1.1 0 .3 0 .4h-.1l.1.1-.1-.1c-.2-.1.1.1-.1 0l.1.1c0 .1 0 .2.1.4l-.1-.1c.2.3.1.3 0 .3.1.1.1.1.2.1.1.1-.2-.2 0-.1l.1.1c.1 0-.2-.1-.1-.1s.1.1.1.1c0-.1.1 0-.1-.2l.2.1c-.1-.1 0-.1-.1-.1.2 0 .1-.2.2-.3-.3-.3.1-.1.1-.2-.1-.1-.1-.1 0-.1l-.1-.1c.4.1.3-.2.5-.2.2-.1.5 0 .2-.5h.1c0-.1.1 0 .1-.1-.2-.3.2-.2 0-.5.1-.1.2-.2.2-.4h.1c-.1-.2.3 0 .3-.2.2 0-.2-.5.1-.4.3.2-.2-.4.1-.2.6.2.3-.1.1-.4.3 0-.1-.4.3-.3-.2-.2.4.1.3 0l-.2-.1c.2.1-.3-.3.1 0 .2.1-.4-.3-.2-.2l-.1-.1.1.1s-.2-.1-.1-.1c.4.2-.1-.1.3.2 0 0 .2.1.2.2l-.1-.1c-.2-.1-.3-.2-.5-.3l.1.1c-.1-.1-.1 0-.2-.1 0 0-.2-.1-.3-.2.2.1 0 .1 0 .1h-.1c-.2-.1.3.2 0 0v.2c.1.1 0 0 .2.1-.2-.1-.3-.2-.3-.1-.3-.2.2.2-.1 0 .2.2-.1 0 .2.2-.1 0-.1-.1-.1-.1h-.2c.2.2-.1 0 .1.2-.1 0-.2-.1-.1 0 0 0 0 .1.2.2-.3-.2-.2-.1-.3-.2.1.1 0 .1.1.2-.1-.1 0 .1-.2-.1.3.3.1.3-.2.2l.4.4s-.2-.1-.1 0h-.1c.1.1-.2-.1 0 0h-.1l.1.1c-.1 0-.2-.1-.1-.1-.2.1.1.5-.1.6h-.1l.1.1h-.1c-.1 0 0 .1 0 .1l-.1-.1c.1.2-.2-.1.1.1l-.1-.1c.1.2 0 .2-.1.2.3.3-.1.1.1.4h-.1c.2.2-.1.1-.2.3v.1l-.1-.1c.3.3-.4-.1-.1.2l-.1-.1c.2.1-.1 0 .2.2l-.1-.1c.3.3-.2-.1 0 .2l-.1-.1c0 .1.1.1 0 .1-.3-.2 0 .1-.1.1l-.1-.1c.1.1 0 .1 0 .1h-.1.1v-.2c-.1 0 0 .1 0 .2zm-.2.4zm2.1-3.9zm-10.5 13.4l-.1-.1zm-.2-.3l.2.2c.1.2-.3-.3-.2-.2zm0 .1c.1.1 0-.1-.1-.1.1 0 0-.1.1.1zm.6-.6zM101.1 109.4l-.1-.1c.1.2-.1.1 0 .2-.1 0 0 .3-.1.4v-.1l.1.1v-.1c-.2-.2 0 .2-.1 0l.1.1c0 .1-.1.2 0 .4l-.1-.1c.2.3 0 .3-.1.3.1.1.1.1.1.2.1.1-.1-.2 0-.1l.1.1s-.1-.2-.1-.1l.1.1c0-.1.1 0 0-.2.1.1 0 0 .2.1 0-.1 0-.1-.1-.2.2 0 .1-.2.2-.3-.2-.3.1 0 .1-.2v-.1l-.1-.1c.3.2.3-.1.5-.1s.5.1.3-.4v.1c0-.1.1 0 .1-.1-.1-.3.2-.1.1-.5.1-.1.2-.2.3-.4l.1.1c0-.2.3 0 .3-.1.2 0-.1-.5.1-.4.3.2-.2-.4.2-.2.5.3.4 0 .2-.4.2.1 0-.4.4-.2-.1-.2.3.2.3.1l-.1-.1c.2.2-.2-.3.1 0 .2.1-.3-.4-.1-.2l-.1-.1.1.1-.1-.1c.3.3 0-.1.3.3l.2.2-.1-.2c-.1-.2-.3-.3-.4-.4l.1.1-.1-.1s-.2-.2-.3-.2c.1.1 0 .1 0 .1l-.1-.1c-.1-.1.2.3 0 0 0 .1 0 .1-.1.1.1.1 0 0 .1.2-.2-.2-.3-.2-.3-.2-.3-.2.2.3-.1 0 .2.2-.1 0 .1.2l-.1-.1h-.2c.2.2-.1 0 .1.2-.1 0-.2-.1-.1 0 0 0 0 .1.1.3l-.3-.3c.1.1 0 .1.1.3-.1-.1 0 .1-.1-.1.2.4 0 .4-.3.2.1.1.3.3.4.5 0 0-.2-.1-.1-.1v-.1c.1.1-.2-.1 0 0v.1l-.1-.1c-.2.1 0 .5-.2.5v-.1l.1.1v-.1c-.1-.1 0 .1-.1.1l-.1-.1c.1.2-.2-.2.1.2l-.1-.1c0 .2 0 .2-.2.2.2.3-.1.1.1.4l-.1-.1c.1.3-.2.1-.2.2-.1 0 0 .1 0 .1l-.1-.1c.2.3-.3-.2-.1.2l-.1-.1c.1.2-.1 0 .2.2l-.1-.1c.3.4-.2-.1-.1.2l-.1-.1v.1c-.3-.2-.1.1-.1.1l-.1-.1c.1.2 0 .1 0 .1v-.1l.1.1-.1-.1c-.3 0-.3.1-.3.2zm-.2.4zm2.8-3.5zM90.7 117.3v.1-.1zm-.1-.2s0-.1 0 0l.1.3c.1.1-.2-.4-.1-.3z"/><path class="st1" d="M90.6 117.1c0 .1 0-.1-.1-.1.1.1 0-.1.1.1zm.7-.5zm-.1-.6l-.1-.1c.1.2-.1 0-.1.2-.1 0-.1.3-.1.4v-.1s.1.1 0 .1v-.1c-.1-.2 0 .2-.1 0 0 0 0 .1.1.2 0 .1-.1.2-.1.4 0 0 0-.1-.1-.1.1.4 0 .3-.1.3 0 .1.1.1.1.2.1.1-.1-.2 0-.1v.1s-.1-.2 0-.1c0 .1.1.1.1.1s.1 0 0-.2c.1.2 0 0 .1.1 0-.1 0-.1-.1-.2.2 0 .2-.2.3-.2-.1-.4.1 0 .1-.1v-.1l-.1-.2c.3.2.3-.1.5 0 .2 0 .5.2.4-.4v.1c0-.1.1 0 .1-.1 0-.3.2-.1.2-.4.1 0 .3-.1.3-.3v.1c0-.2.3.1.4-.1.2.1 0-.5.2-.4.3.3-.1-.5.2-.2.4.4.4 0 .3-.3.2.1.1-.4.4-.1-.1-.3.3.2.3.1l-.1-.1c.2.2-.2-.4.1 0l-.1-.2-.1-.1.1.1s-.1-.2-.1-.1c.2.4 0-.1.2.3l.1.2-.1-.2c-.1-.2-.2-.4-.3-.5l.1.1c-.1-.1 0-.1-.1-.2 0 0-.2-.2-.2-.3.1.2 0 .1 0 .1v-.1c-.1-.2.2.3 0 0 0 .1 0 .1-.1.1.1.1 0 0 .1.2-.2-.2-.2-.3-.2-.2-.2-.3.1.3-.1-.1.2.3-.1-.1.1.2 0-.1-.1-.1-.1-.2 0 0-.1-.1-.2 0 .1.2-.1-.1 0 .3-.1-.1-.2-.2-.1 0v.3c-.2-.3-.2-.2-.2-.3.1.1 0 .1 0 .3-.1-.1 0 .1-.1-.1.1.4 0 .4-.3.1.1.1.2.4.3.5v-.1l-.1-.1v-.1c0 .1-.1-.1-.1 0v-.1.1c0-.1-.1-.2-.1-.1-.2 0-.1.4-.3.5v-.1c-.1-.1 0 .1-.1.1 0 0 0-.1-.1-.1.1.2-.2-.2 0 .2l-.1-.1c0 .2-.1.2-.2.2.1.4-.1.1 0 .4v-.1c.1.3-.2.1-.2.2-.1 0 0 .1-.1.1v-.1c.1.4-.3-.2-.2.2l-.1-.1c.1.2-.1 0 .1.3l-.1-.1c.2.4-.2-.1-.1.2v-.1c-.2-.3-.1.1-.1.1l-.1-.1c.1.2-.1 0 0 .1v-.1.1l-.1-.1c.3 0 .4.2.3.2zm-.3.4zm3.5-2.8zM79.4 121.7v.1-.2zm0-.3v.3c.1.2-.1-.4 0-.3zm0 .1v-.1.1zm.8-.4zm0-.6v-.1c0 .2-.1 0-.1.1-.1 0-.1.2-.2.4v-.1c-.1-.2 0 .2-.1 0v.2c-.1.1-.1.1-.2.3v-.2c0 .4-.1.3-.2.2 0 .1 0 .1.1.2s0-.2 0-.1v.1c0 .1-.1-.2 0-.1v.1s.1 0 0-.2l.1.2v-.2c.1.1.2-.2.3-.2-.1-.4.1 0 .2-.1 0-.1 0-.1.1-.1v-.2c.2.3.3 0 .5.1.2 0 .4.2.5-.3v.1c0-.1.1 0 .1-.1 0-.3.3 0 .3-.4.1 0 .3-.1.4-.2v.1c.1-.2.3.2.4 0 .2.1.1-.5.3-.3.2.3 0-.5.2-.1.3.5.3.1.4-.3.2.2.1-.4.4 0 0-.3.2.3.3.2v-.1c.1.3-.1-.4.1 0 .1.2-.1-.5 0-.2v-.1s0 .1.1.1c0 0-.1-.2 0-.1.2.4 0-.1.2.4 0 0 .1.2.1.3v-.2c-.1-.2-.1-.4-.2-.5l.1.2c-.1-.1 0-.1-.1-.2 0 0-.1-.2-.2-.3.1.2 0 .1 0 .1v-.1c-.1-.2.1.3 0 0 0 .1-.1.1-.1.1 0 .1 0 0 .1.2-.1-.2-.2-.3-.2-.3s0-.1 0 0c-.1-.3.1.3-.1-.1.1.3-.1-.1 0 .3 0-.1 0-.1-.1-.2 0 0-.1-.1-.2-.1.1.3-.1-.1 0 .3 0-.1-.1-.2-.1-.1 0 0-.1.1 0 .3-.1-.3-.1-.3-.2-.4v.3c-.1-.1 0 .1-.1-.1.1.5-.1.3-.3.1 0 .1.1.4.1.6v-.1s-.1-.2-.1-.1v-.1c0 .1-.1-.2-.1 0v-.1.1c0-.1-.1-.2 0-.2-.2 0-.2.4-.4.4v-.1c-.1-.1-.1.1-.1.1v-.1c0 .2-.1-.2 0 .2v-.1c0 .2-.1.2-.2.1.1.4-.1.1-.1.4v-.1c0 .3-.2 0-.3.1 0 0 0 .1-.1.1v-.1c0 .4-.2-.3-.2.1v-.1c0 .2-.1-.1 0 .3v-.1c.1.5-.1-.2-.1.1v-.1c-.1-.3-.1.1-.1.1v-.2c0 .2-.1 0-.1.1v-.1.1-.1c-.7.2-.7.3-.8.3zm-.4.3zm4-2.1c0 .1 0 .1 0 0 0 0 0 .1 0 0zM67.5 123.7v.1-.2zm0-.3zm0 .1v-.1.1zm.8-.2zm.2-.6v-.1c0 .2-.1 0-.1.1-.1 0-.2.2-.3.3v-.1c0-.2-.1.1-.1 0v.2c-.1.1-.2.1-.2.3v-.2c0 .4-.1.2-.2.2v.2c0 .1 0-.2.1-.1v.1s.1 0 .1-.2c0 .2 0 0 .1.2v-.2c.1.1.2-.1.4-.1 0-.4.1.1.2-.1 0-.1 0-.1.1-.1v-.2c.2.3.3.1.5.2s.4.3.5-.2v.1c0-.1.1 0 .1 0 .1-.3.3 0 .3-.3.1 0 .3 0 .4-.1v.1c.1-.2.3.2.4.1.1.2.2-.5.3-.2.1.4.1-.4.2-.1.2.6.3.2.4-.2.2.2.2-.3.4.1 0-.3.2.3.2.2v-.1c.1.3 0-.4.1 0v-.4.1c.1.4 0-.1.1.4v.1c0-.2 0-.4-.1-.6s-.1-.2-.1-.3v.1-.1c0-.2 0 .4 0 0 0 .1-.1.1-.1.1v.2l-.1-.3s0-.1 0 0c-.1-.3 0 .3-.1-.1 0 .3-.1-.1 0 .3v-.2l-.1-.1c0 .3-.1-.1-.1.3 0-.1-.1-.2-.1-.1 0 0-.1 0-.1.3-.1-.3-.1-.3-.1-.4 0 .2-.1.1-.1.3 0-.2 0 .1-.1-.2 0 .5-.2.3-.3 0v.5s-.1-.2-.1-.1v-.1c0 .1-.1-.2-.1 0v-.2c-.2-.1-.3.4-.5.3v-.1c-.1-.1-.1.1-.1.1v-.2c0 .2-.1-.3 0 .2v-.2c-.1.2-.2.2-.2.1 0 .4-.1.1-.2.4v-.1c-.1.3-.2 0-.3.1l-.1.1v-.1c0 .4-.2-.3-.2.1v-.1c0 .2-.1-.1 0 .3v-.1c0 .5-.1-.2-.1.1v-.1c0 .1 0 .1 0 0v-.1c-.1-.3-.1 0-.2 0v-.2c0 .2-.1 0-.1.1v-.1.1-.1c-.2 0-.2.2-.3.2zm-.4.2zm4.3-1.2zM55.4 123.3v-.1zm.1-.3l-.1.3c0 .2.1-.4.1-.3zm0 0v-.1.1zm.8 0c0 .1 0 .1 0 0zm.3-.5v-.1c-.1.2-.1 0-.1.1-.1-.1-.2.2-.3.2v-.1c0-.2-.1.1-.1 0v.2c-.1 0-.2.1-.3.2v-.2c-.1.3-.2.2-.2.1v.2c0 .1.1-.2.1-.1v.1s.1.1.1-.2c.1.1.3-.1.4 0 .1-.4.1.1.2 0 0-.1.1-.1.1-.1v-.2c.1.3.3.1.5.3.2.1.3.4.5-.1v.1c.1-.1.1.1.1 0 .2-.3.2.1.4-.3.1 0 .3 0 .5-.1v.1c.1-.1.2.3.3.2.1.2.3-.4.4-.2 0 .4.2-.4.2 0 .1.6.3.2.4-.1.1.2.3-.3.4.1.1-.3.1.3.2.3v-.1c0 .3.1-.4.1 0 0 .2.1-.5.1-.2v-.5c0 .2 0 .1 0 0v-.1c0-.2 0 .4 0 0 0 .1-.1.1-.1.1v-.1s0-.1 0 0v-.1c0 .3 0-.1-.1.3v-.2l-.1-.1c0 .3-.1-.1-.1.2 0-.1 0-.2-.1-.1 0 0-.1 0-.1.3v-.4c0 .2-.1.1-.1.2v-.2c-.1.4-.2.3-.3-.1 0 .1-.1.4-.1.6V122.1c0 .1 0-.2-.1 0v-.2c-.2-.1-.4.3-.5.2v-.1c0-.1-.1.1-.1 0v-.2c0 .2 0-.3-.1.2v-.2c-.1.1-.2.1-.3 0-.1.4-.2 0-.3.3v-.1c-.1.3-.2 0-.3 0l-.1.1v-.1c-.1.4-.1-.3-.2.1v-.1c0 .2 0-.1-.1.3v-.1c-.1.5-.1-.2-.2.1v-.1c0 .1 0 .1-.1 0v-.1c0-.3-.1 0-.2 0v-.2c0 .2-.1 0-.1.1v-.1.1-.1c-.1.5-.2.6-.2.6zm-.5.1zm4.5-.3zM43.6 120.4v.1l.1-.1z"/><path class="st1" d="M43.8 120.2s0-.1 0 0l-.1.2c-.1.2.1-.3.1-.2zm0 0c0 .1 0-.1.1-.1-.1.1-.1-.1-.1.1zm.8.2z"/><path class="st1" d="M45 119.9v-.1c-.1.2-.1 0-.2.1-.1-.1-.3.1-.4.2v-.1l-.1.1v-.1c0-.2-.1.1-.1-.1 0 0 0 .1-.1.2-.1 0-.2 0-.3.2 0 0 0-.1.1-.2-.2.3-.2.2-.3.1 0 .1 0 .1-.1.2 0 .1.1-.2.1 0v.1c0 .1.1-.2.1-.1v.1s.1.1.2-.1c-.1.2 0 0 0 .2 0-.1 0 0 .1-.2.1.1.3 0 .4 0 .2-.3.1.1.2 0l.1-.1.1-.1c0 .4.3.2.4.4.1.1.2.5.5 0v.1c.1-.1.1.1.1 0 .2-.3.2.1.4-.2.1.1.3.1.5 0v.1c.2-.1.2.3.3.2.1.2.4-.3.4-.1 0 .4.3-.4.2 0 0 .6.2.3.5 0 .1.2.3-.2.4.2.1-.2 0 .4.1.3v-.1c0 .3.2-.4.1 0 0 .2.2-.5.1-.2v-.1.2s.1-.2 0-.1c-.1.4.1-.1-.1.4 0 0 0 .2-.1.3l.1-.2c.1-.2.1-.4.1-.6s0-.3.1-.3c-.1.2 0 .1 0 0v-.1c0-.2-.1.3 0 0-.1.1-.1 0-.2 0 0 .1 0 0-.1.2.1-.3 0-.3 0-.3s0-.1 0 0c.1-.3-.1.3 0-.1-.1.3 0-.1-.1.2v-.2s-.1-.1-.1-.2c-.1.2 0-.1-.2.2 0-.1 0-.2-.1-.1 0 0-.1 0-.2.2.1-.3 0-.3.1-.4l-.2.2v-.2c-.2.4-.3.2-.3-.1 0 .1-.1.4-.2.5v-.4c0 .1 0-.2-.1 0v-.1.1c0-.1.1-.2.1-.2-.1-.1-.4.2-.6.1v-.1l-.1.1v-.1c0-.1-.1.1-.1 0v-.1c-.1.2 0-.3-.1.1v-.1c-.1.1-.2.1-.3 0-.2.4-.2 0-.3.3v-.1c-.2.2-.2-.1-.3-.1h-.1v-.1c-.2.3 0-.4-.2 0v-.1c-.1.2 0-.1-.1.3v-.1c-.2.4 0-.2-.2 0v-.1c0 .1-.1.1-.1 0v-.1c.1-.3-.1 0-.2 0l.1-.1c-.1.2-.1 0-.1.1v-.1.1-.1c.5.4.4.5.4.5zm-.5 0zm4.4.6zM32.7 115.3v-.1zm.2-.3l-.2.2c-.1.2.2-.3.2-.2zm0 .1c0 .1.1-.1.1-.1-.1.1 0-.1-.1.1zm.7.3z"/><path class="st1" d="M34.1 115l.1-.1c-.2.2-.1 0-.1.1l-.1-.1c-.1-.1-.3 0-.4.1v-.1l-.1.1v-.1c.1-.2-.1.1-.1-.1 0 0-.1.1-.1.2-.1 0-.2 0-.4.1 0 0 0-.1.1-.1-.2.3-.2.1-.3 0-.1.1 0 .1-.1.2 0 .1.2-.2.1 0v.1c0 .1.1-.2.1-.1s-.1.1-.1.1 0 .1.2-.1l-.1.2c0-.1 0 0 .1-.2.1.1.3 0 .4.1.2-.3.1.1.2 0s.1-.1.1 0l.1-.1c0 .4.2.2.3.4.1.2.1.5.5.1v.1c.1 0 .1.1.1.1.3-.2.2.2.5-.1.1.1.3.1.4.1v.1c.2-.1.1.3.3.3 0 .2.4-.3.4 0-.1.4.3-.3.2.1-.1.6.2.3.4.1 0 .2.4-.2.3.3.2-.2 0 .4.1.3v-.1c-.1.3.2-.3.1.1l.1-.2v-.1s-.1.1-.1.2c0 0 .1-.2.1-.1-.2.4.1-.1-.1.4 0 0-.1.2-.1.3l.1-.1c.1-.2.2-.4.3-.5l-.1.1c.1-.1 0-.1.1-.2 0 0 .1-.2.1-.3-.1.2-.1.1-.1 0v-.1c.1-.2-.2.3 0 0-.1.1-.1 0-.2 0-.1.1 0 0-.1.2.1-.2.1-.3.1-.3.1-.3-.2.3 0-.1-.1.3 0-.1-.2.2 0-.1.1-.1.1-.2 0 0 0-.1-.1-.2-.1.2 0-.1-.2.2 0-.1.1-.2 0-.1 0 0-.1 0-.2.2.1-.3.1-.3.1-.4l-.2.2c.1-.1-.1 0 0-.2-.3.4-.3.2-.3-.2-.1.1-.2.3-.3.5v-.1s.1-.2 0-.2v-.1c-.1.1.1-.2 0 0v-.1l-.1.1c0-.1.1-.2.1-.1-.1-.1-.4.1-.6 0v-.1l-.1.1v-.1c0-.1-.1 0-.1 0l.1-.1c-.1.2.1-.3-.1.1l.1-.1c-.1.1-.2 0-.3-.1-.3.3-.2 0-.4.2v-.1c-.2.2-.2-.1-.3-.1h-.1v-.1c-.2.3 0-.4-.2 0l.1-.1c-.1.2 0-.1-.2.2v-.1c-.3.4 0-.2-.2 0v-.1s-.1.1-.1 0c.1-.3-.1 0-.2-.1l.1-.1c-.1.1-.1 0-.1 0v-.1l-.1.1.1-.1c.8-.1.7 0 .6 0zm-.5-.1zm4.3 1.5s-.1 0 0 0zM23 108l.1-.1zm.2-.2c.1 0 .1 0 0 0l-.2.2c-.1.2.3-.3.2-.2z"/><path class="st1" d="M23.2 107.8c0 .1.1-.1.1-.1l-.1.1zm.7.5zm.6-.3c-.1.1 0-.2-.1-.1 0-.1-.3 0-.4 0l-.1.1.1-.1c.1-.2-.1.1 0-.1l-.1.1h-.4l.1-.1c-.3.2-.3.1-.3 0l-.1.1c-.1.1.2-.1.1 0l-.1.1c0 .1.2-.2.1-.1 0 .1-.1.1-.1.1.1 0 0 .1.2-.1l-.1.2c.1-.1.1 0 .1-.1 0 .2.2.1.3.2.3-.2 0 .1.2.1.1-.1.1-.1.1 0l.1-.1c-.1.3.2.3.2.5.1.2 0 .5.5.2l-.1.1c.1 0 0 .1.1.1.3-.2.2.2.5 0 .1.1.2.2.4.2v.1c.2 0 0 .3.2.3 0 .2.5-.2.4.1-.2.3.4-.2.2.1-.3.5.1.3.4.2 0 .2.4-.1.2.3.2-.2-.1.3 0 .3l.1-.1c-.2.2.3-.3 0 .1-.1.2.3-.4.2-.2l.1-.1-.1.1s.1-.2.1-.1c-.3.3.1 0-.2.3 0 0-.1.2-.2.2l.1-.1c.1-.2.3-.3.4-.5l-.1.1c.1-.1 0-.1.1-.2 0 0 .1-.2.2-.3-.1.1-.1 0-.1 0l.1-.1c.1-.2-.2.3 0 0h-.2l-.2.2c.2-.2.2-.3.2-.3.2-.3-.2.2 0-.1-.2.2 0-.1-.2.2 0-.1.1-.1.1-.1v-.2c-.2.2 0-.1-.2.1 0-.1.1-.2 0-.1 0 0-.1 0-.2.1.2-.3.2-.2.2-.3-.1.1-.1 0-.2.1.1-.1-.1 0 .1-.1-.4.3-.4.1-.2-.2l-.4.4s.1-.2 0-.1v-.1c-.1.1.1-.2 0 0l-.1.1c0-.1.1-.1.1-.1-.1-.2-.5 0-.6-.1l.1-.1-.1.1.1-.1c.1-.1-.1 0-.1 0l.1-.1c-.2.1.1-.2-.2.1l.1-.1c-.2.1-.2 0-.2-.1-.3.3-.1-.1-.4.1l.1-.1c-.3.1-.1-.1-.3-.2 0-.1-.1 0-.1 0l.1-.1c-.3.2.1-.3-.2-.1l.1-.1c-.1.1 0-.1-.2.2l.1-.1c-.3.3.1-.2-.2 0l.1-.1c-.1 0-.1.1-.1 0 .2-.3-.1 0-.1-.1l.1-.1c-.1.1-.1 0-.1 0l.1-.1-.3-.1h.2c-.1 0-.2.1-.2 0zm-.5-.1zm3.9 2.2c-.1 0-.1.1 0 0 0 0-.1 0 0 0zM15 98.9v.1l.1-.1zm.3-.1l-.3.2c-.1.1.4-.3.3-.2zm-.1 0c-.1.1.1 0 .1-.1-.1.1.1 0-.1.1zm.6.6c0 .1 0 .1 0 0zm.6-.1l.1-.1c-.2.1 0-.1-.2 0 0-.1-.3-.1-.4-.1h.1l-.1.1h.1c.2-.1-.2 0 0-.1 0 0-.1.1-.2.1s-.2-.1-.4 0l.1-.1c-.3.2-.3 0-.3-.1-.1.1-.1.1-.2.1-.1.1.2-.1.1 0l.1-.1s.2-.1.1 0c-.1 0-.1.1-.1.1.1 0 0 .1.2 0-.2.1 0 0-.1.2.1 0 .1 0 .2-.1 0 .2.2.1.3.2.3-.2 0 .1.2.1h.1l.1-.1c-.2.3.1.3.1.5s-.1.5.4.3h-.1c.1 0 0 .1.1.1.3-.1.1.2.5.1.1.1.2.2.4.3h-.1c.2 0 0 .3.1.4-.1.2.5-.1.4.2-.2.3.4-.1.2.2-.4.5 0 .4.4.3-.1.2.4 0 .2.4.2-.1-.2.3-.1.3l.1-.1c-.2.2.3-.2 0 .1-.2.2.4-.3.2-.1l.1-.1-.1.1.1-.1c-.3.3.1 0-.3.3l-.2.2.2-.1c.2-.1.3-.3.4-.4l-.1.1.1-.1s.2-.2.2-.3c-.2.1-.1 0-.1 0l.1-.1c.1-.1-.3.2 0 0-.1 0-.1 0-.1-.1-.1.1 0 0-.2.1.2-.2.2-.3.2-.3.2-.2-.3.2 0-.1-.2.2 0-.1-.2.1.1 0 .1-.1.1-.1v-.2c-.2.1 0-.1-.2.1 0-.1.1-.2 0-.1 0 0-.1 0-.3.1.3-.2.2-.2.3-.3-.1.1-.1 0-.3.1.1-.1-.1 0 .1-.1-.4.2-.4 0-.2-.3-.1.1-.3.2-.5.3l.1-.1h.1c-.1.1.1-.1 0-.1h-.1c.1 0 .1-.1.1-.1 0-.2-.5-.1-.5-.2h.1l-.1.1h.1c.1-.1-.1 0-.1-.1l.1-.1c-.2.1.2-.2-.2.1l.1-.1c-.2 0-.2-.1-.2-.2-.4.2-.1-.1-.4 0h.1c-.3.1-.1-.2-.2-.2 0-.1-.1 0-.1 0l.1-.1c-.3.2.2-.3-.2-.1l.1-.1c-.2.1 0-.1-.2.1l.1-.1c-.4.2.1-.2-.2-.1h.1-.1c.2-.2-.1-.1-.1-.1l.1-.1c-.2.1-.1 0-.1 0h.1-.1l.1-.1c-.1-.1-.3-.1-.3-.1zM16 99zm3.3 3zM9 88.5h-.1l.1-.1zm.2-.1c.1 0 .1 0 0 0l-.2.1.2-.1zm0 0h.1c-.1 0 .1-.1-.1 0zm.5.7c-.1 0-.1 0 0 0z"/><path class="st1" d="M10.3 89.1l.1-.1c-.2.1 0-.1-.1-.1 0-.1-.2-.1-.4-.2h.1c.2-.1-.2 0 0-.1 0 0-.1 0-.2.1-.1-.1-.2-.1-.4-.1 0 0 .1 0 .1-.1-.4.1-.3 0-.2-.1-.1 0-.1 0-.2.1s.2-.1.1 0h-.1s.2-.1.1 0c-.1 0-.1 0-.1.1 0 0 0 .1.2 0l-.2.1c.1 0 .1 0 .2-.1 0 .1.2.2.2.3.4-.1 0 .1.1.1h.3c-.2.3.1.3 0 .5 0 .2-.2.5.4.4h-.1c.1 0 0 .1.1.1.3 0 .1.2.4.2 0 .1.1.3.3.4h-.1c.2 0-.1.3.1.4-.1.2.5 0 .3.2-.3.2.5 0 .1.2-.4.6 0 .6.4.5-.1.2.4.1.1.4.3-.1-.2.3-.1.3h.1c-.2.2.4-.1 0 .1-.2.1.5-.2.2-.1h.1l-.1.1s.2-.1.1-.1c-.4.2.1 0-.3.2 0 0-.2.1-.3.1l.2-.1c.2-.1.4-.2.5-.3l-.1.1c.1-.1.1 0 .2-.1 0 0 .2-.1.3-.2-.2.1-.1 0-.1 0h.1c.2-.1-.3.2 0 0-.1 0-.1 0-.1-.1-.1.1 0 0-.2.1.2-.1.3-.2.3-.2.3-.2-.3.1.1-.1-.3.1.1-.1-.2.1.1 0 .1-.1.2-.1 0 0 .1-.1.1-.2-.2.1.1-.1-.3 0 .1-.1.2-.2 0-.1 0 0-.1-.1-.3 0 .3-.2.2-.2.3-.2-.2.1-.1 0-.3 0 .1-.1-.1 0 .1-.1-.4.1-.4-.1-.1-.3-.1.1-.4.2-.5.2h.1l.1-.1h.1c-.1 0 .1-.1 0-.1h.1-.1c.1 0 .2-.1.2-.1 0-.2-.4-.2-.5-.3h.1-.1.1c.1-.1-.1 0-.1-.1 0 0 .1 0 .1-.1-.2.1.2-.2-.2 0l.1-.1c-.2 0-.2-.1-.2-.2-.4.1-.1-.1-.4 0h.1c-.3 0-.1-.2-.2-.3 0-.1-.1 0-.1-.1h.1c-.4.1.2-.3-.2-.2l.1-.1c-.2.1 0-.1-.3.1l.1-.1c-.4.2.2-.2-.1-.1h.1-.1.1c.3-.2-.1-.1-.1-.1l.1-.1c-.2.1 0-.1-.1-.1h.1-.1l.1-.1c-.4.1-.5.1-.5.1zm-.4-.4zm2.7 3.6zM5.2 77h-.1.2zm.3 0s0-.1 0 0h-.3c-.2 0 .4-.1.3 0z"/><path class="st1" d="M5.4 77h.1c-.1 0 .1-.1-.1 0zm.3.8z"/><path class="st1" d="M6.3 77.8h.1c-.2 0 0-.1-.1-.1 0-.1-.2-.2-.3-.2h.1c.2-.1-.2 0 0-.1h-.2c-.1-.1-.1-.1-.3-.2h.2c-.4 0-.2-.1-.2-.2h-.2c-.1 0 .2 0 .1.1h-.1s0 .1.2.1l-.2.1h.2c-.1.1.1.2.2.3.4 0 0 .1.1.2.1 0 .1 0 .1.1h.2c-.3.2 0 .3-.1.5 0 .2-.3.4.3.5h-.1c.1 0 0 .1.1.1.3 0 0 .3.4.3 0 .1.1.3.2.4h-.1c.2.1-.2.3 0 .4-.1.2.5.1.3.3-.3.2.5.1.1.2-.5.3-.1.3.2.4-.2.2.4.2 0 .4.3 0-.3.2-.2.3h.1c-.3.1.4-.1 0 .1-.2.1.5-.1.2 0h.1s-.1 0-.2.1c0 0 .2-.1.1 0-.4.1.1 0-.4.2 0 0-.2.1-.3.1h.2c.2-.1.4-.1.6-.2h-.2c.2-.1.1 0 .2-.1 0 0 .2-.1.3-.1h-.1.1c.2-.1-.4.1 0 0-.1 0-.1-.1-.1-.1h-.2c.3-.1.3-.1.3-.2 0 0 .1 0 0 0 .3-.1-.3.1.1-.1-.3.1.1-.1-.3 0 .1 0 .1 0 .2-.1 0 0 .1-.1.1-.2-.3 0 .1-.1-.3 0 .1 0 .2-.1.1-.1 0 0-.1-.1-.3 0 .3-.1.3-.1.4-.1h-.3c.2-.1-.1 0 .1-.1-.5 0-.3-.1 0-.3-.1 0-.4.1-.6.1h.1s.2-.1.1-.1h.1c-.1 0 .2-.1 0-.1h.1-.1c.1 0 .2-.1.2 0 0-.2-.4-.2-.4-.4h.1-.1.1c.1-.1-.1-.1-.1-.1h.1c-.2 0 .2-.1-.2 0h.1c-.2 0-.2-.1-.1-.2-.4 0-.1-.1-.4-.1h.1c-.3 0 0-.2-.1-.3l-.1-.1h.1c-.4 0 .3-.2-.1-.2h.1c-.2 0 .1-.1-.3 0h.1c-.5.1.2-.1-.1-.1h.1-.1.1c.3-.1-.1-.1-.1-.2h.2c-.2 0 0-.1-.1-.1h.1-.1.1c-.2-.7-.3-.7-.4-.8zm-.3-.4c.1 0 .1 0 0 0zm1.9 4.1zM3.8 65h-.1.2zm.3 0zM4 65h.1H4zm.1.8zm.6.2h.1c-.2 0 0-.1-.1-.1 0-.1-.2-.2-.3-.3h.1c.2 0-.1-.1 0-.1h-.2c-.1-.1-.1-.2-.3-.3h.2c-.3 0-.2-.1-.1-.2h-.2c-.1 0 .2 0 .1.1h-.1s0 .1.2.1c-.2 0 0 0-.2.1h.2c-.1.1.1.2.1.4.4 0-.1.1.1.2.1 0 .1 0 .1.1h.2c-.3.2-.1.3-.2.5s-.3.4.2.5h-.1c.1 0-.1.1 0 .1.3.1 0 .3.3.3 0 .1 0 .3.1.4h-.1c.2.1-.2.2-.1.4-.2.1.4.2.2.4-.4.1.4.1.1.2-.7.2-.4.3 0 .5-.2.2.3.2-.1.4.3 0-.3.2-.2.2h.1c-.3.1.4 0 0 .1h.3c-.4 0 .1 0-.4.1h-.3.2c.2 0 .4 0 .6-.1H5h.2s.3 0 .3-.1h-.1.1c.2 0-.4 0 0 0-.1 0-.1-.1-.1-.1h-.2c.3 0 .3-.1.3-.1s.1 0 0 0c.3-.1-.3 0 .1-.1-.3 0 .1-.1-.3 0h.2l.1-.1c-.3 0 .1-.1-.2-.1.1 0 .2-.1.1-.1 0 0 0-.1-.3-.1.3 0 .3 0 .4-.1-.2 0-.1-.1-.3-.1h.2c-.5-.1-.3-.2 0-.3h-.6.1s.2-.1.1-.1h.1c-.1 0 .2-.1 0-.1h.1-.1.2c.1-.2-.3-.3-.3-.5h.1-.1.1c.1-.1-.1-.1-.1-.1h.2c-.2 0 .3-.1-.2-.1h.2c-.1-.1-.1-.2-.1-.3-.4 0 0-.1-.4-.2h.1c-.3-.1 0-.2-.1-.3l-.1-.1h.1c-.4-.1.3-.2-.1-.2h.1-.3.1c-.5 0 .2-.1-.1-.1h.1c-.1 0-.1 0 0 0h.1c.3-.1 0-.1 0-.2h.2c-.2 0 0-.1-.1-.1h.1-.1.1c0-.2-.2-.2-.2-.3zm-.2-.4zm1 4.3zM4.8 52.9h.1zm.3.1l-.3-.1c-.2 0 .4.1.3.1zM5 53h.1H5zm0 .8zm.5.3h.1c-.2-.1 0-.1-.1-.1.1-.1-.1-.2-.2-.4h.1c.2 0-.1-.1 0-.1h-.2c0-.1-.1-.2-.2-.3h.2c-.3-.1-.2-.1-.1-.2h-.2c-.1 0 .2.1 0 .1h-.1s-.1.1.2.1h-.2c.1 0 .1 0 .2.1-.1.1.1.3 0 .4.4.1-.1.1 0 .2.1 0 .1.1.1.1h.2c-.3.1-.1.3-.3.4-.2.2-.5.3 0 .6h-.1c.1 0-.1 0 0 .1.3.2-.1.2.2.4-.1.1 0 .3 0 .5H5c.1.1-.3.2-.2.3-.2.1.4.3.1.4-.4 0 .4.2 0 .2-.6.1-.2.3.1.4-.2.1.3.3-.2.4.3.1-.4.1-.3.2h.1c-.3 0 .4.1 0 .1-.1 0 .6.1.4 0h-.1.1-.5c.2 0 .4.1.6.1h-.2.6c-.2 0-.1 0 0 0h.1c.2 0-.4-.1 0 0-.2-.1-.2-.1-.2-.2h-.2.3s.1 0 0 0c.3 0-.3-.1.1 0-.3 0 .1 0-.2-.1h.2l.1-.1c-.3-.1.1-.1-.2-.1.1 0 .2 0 .1-.1 0 0 0-.1-.3-.1h.4c-.2 0-.1-.1-.2-.1h.2c-.4-.2-.3-.3.1-.3-.1 0-.4-.1-.6-.1h.3c-.1 0 .2 0 0-.1h.1-.1.2c.1-.2-.3-.4-.2-.5h.1l-.1-.1h.1c.1 0-.1-.1 0-.1h.2c-.3-.1.2-.1-.3-.2h.2c-.1-.1-.1-.2 0-.3-.4-.1 0-.2-.3-.3h.1c-.3-.1 0-.2 0-.3 0 0-.1-.1 0-.1h.1c-.4-.1.4-.1 0-.2h.1c-.2 0 .1 0-.3-.1h.1c-.5-.1.2-.1-.1-.2h.1c-.1 0-.1-.1 0-.1h.1c.3 0 0-.1 0-.2h.2c-.2-.1 0-.1-.1-.1h.1-.1.1c-.1.3-.3.2-.3.1zm-.1-.4zm.1 4.4zM8.2 41.3h.1zm.3.1c0 .1 0 .1 0 0l-.2-.1c-.3 0 .3.2.2.1z"/><path class="st1" d="M8.4 41.4c-.1 0 .1 0 .1.1 0 0 .1 0-.1-.1zm-.2.9c0-.1 0 0 0 0z"/><path class="st1" d="M8.7 42.7l.1.1c-.2-.1 0-.1 0-.2.1-.1-.1-.3-.1-.4h.1l-.1-.1h.1c.2.1-.1-.1.1-.1 0 0-.1-.1-.2-.1 0-.1 0-.2-.2-.3 0 0 .1 0 .2.1-.3-.2-.1-.2-.1-.3-.1 0-.1 0-.2-.1-.1 0 .2.1 0 .1h-.1c-.1 0 .2.1.1.1h-.1s-.1 0 .1.2c-.2-.1 0 0-.2 0 .1 0 0 0 .2.1-.1.1 0 .3-.1.4.3.2-.1.1 0 .2l.1.1.1.1c-.4 0-.2.3-.4.4-.2-.1-.5 0-.1.3h-.1c.1.1-.1.1 0 .1.3.2-.1.2.2.4-.2.2-.2.4-.1.5h-.1c.1.2-.3.1-.2.3-.2.1.3.4 0 .4-.4 0 .3.3 0 .2-.6 0-.3.2 0 .5-.2.1.2.4-.2.3.2.1-.4 0-.3.1h.1c-.3-.1.4.2 0 .1-.2-.1.5.2.2.1h-.1s.2.1.1.1c-.5-.1 0 .1-.5-.1 0 0-.2 0-.3-.1l.2.1c.2.1.4.1.6.2l-.2-.1c.2 0 .1 0 .2.1 0 0 .2.1.3.1-.2-.1-.1 0 0 0h.1c.2.1-.3-.1 0 0-.1-.1 0-.1 0-.2-.1 0 0 0-.2-.1.3.1.3.1.3 0 0 0 .1 0 0 0 .3.1-.3-.1.1 0-.3-.1.1 0-.2-.1.1 0 .1 0 .2.1 0 0 .1 0 .2-.1-.3-.2.1-.1-.3-.2.1 0 .2 0 .1-.1 0 0 0-.1-.2-.2.3.1.3.1.4.1l-.2-.2h.2c-.4-.2-.2-.3.2-.3-.1-.1-.4-.2-.5-.2h.4c-.1-.1.2 0 0-.1h.1-.1c.1 0 .2.1.2.1.1-.1-.2-.4-.1-.6h.1l-.1-.1h.1c.1 0-.1-.1 0-.1 0 0 .1 0 .1.1-.2-.1.3 0-.1-.1 0 0 .1 0 .1.1-.1-.1-.1-.2 0-.3-.3-.2 0-.2-.3-.3h.1c-.2-.2.1-.2.1-.3v-.1h.1c-.3-.2.4 0 0-.2l.1.1c-.2-.1.1 0-.2-.1h.1c-.4-.2.2 0 0-.2h.1c-.1 0-.1-.1 0-.1h.1c.3.1 0-.1 0-.2l.1.1c-.2-.1 0-.1-.1-.1H9l-.1-.1.1.1c-.2.1-.3 0-.3 0zm0-.5zm-.8 4.4zM14 30.6h-.1l.1.1z"/><path class="st1" d="M14.2 30.8s0 .1 0 0l-.2-.2c-.2 0 .3.3.2.2zm-.1 0c-.1 0 .1.1.1.1-.1-.1.1 0-.1-.1zm-.3.8c-.1 0 0 0 0 0z"/><path class="st1" d="M14.1 32.1l.1.1c-.1-.2.1-.1-.1-.1l.1-.1c.1-.1 0-.3-.1-.4h.1l-.1-.1h.1c.2.1-.1-.1.1-.1 0 0-.1-.1-.2-.1 0-.1 0-.2-.1-.4 0 0 .1 0 .1.1-.3-.3-.1-.2 0-.3-.1-.1-.1 0-.2-.1-.1 0 .2.2 0 .1l-.1-.1c-.1 0 .2.1.1.1s-.1-.1-.1-.1-.1 0 .1.2l-.2-.1.1.1c-.1 0-.1.3-.1.3.3.3-.1.1-.1.2.1.1.1.1 0 .1l.1.1c-.4 0-.2.2-.4.3-.2.1-.5.1-.2.5H13c0 .1-.1.1-.1.1.2.3-.2.2.1.5-.1.1-.2.3-.2.4h-.1c.1.2-.3.1-.3.2-.2 0 .2.4 0 .4-.4-.1.3.4-.1.2-.6-.2-.3.1-.1.4-.3 0 .1.4-.3.3.2.2-.4-.1-.3 0h.1c-.3-.1.3.2-.1 0-.2-.1.4.3.2.2l.1.1-.1-.1s.2.1.1.1c-.4-.2.1.1-.4-.2 0 0-.2-.1-.3-.1l.1.1c.2.1.4.2.5.3l.2.3c.1.1.1 0 .2.1 0 0 .2.1.3.1-.2-.1-.1-.1 0-.1h.1c.2.1-.3-.2 0 0v-.2c-.1-.1 0 0-.2-.1.2.1.3.1.3.1.3.1-.3-.2.1 0-.3-.1.1 0-.2-.2.1 0 .1.1.2.1h.2c-.2-.2.1 0-.2-.2.1 0 .2.1.1 0 0 0 0-.1-.2-.2.3.2.3.1.4.2-.1-.1 0-.1-.1-.2.1.1 0-.1.2.1-.3-.3-.1-.3.2-.3-.1-.1-.3-.2-.5-.3 0 0 .2.1.2 0h.1c-.1-.1.2.1 0 0h.1l-.1-.1c.1 0 .2.1.1.1.2-.1-.1-.5 0-.6h.1l-.1-.1h.1c.1 0 0-.1 0-.1l.1.1c-.2-.1.3.1-.1-.1l.1.1c-.1-.1 0-.2.1-.3-.3-.3 0-.1-.2-.4h.1c-.2-.2.1-.2.1-.3v-.1l.1.1c-.3-.3.4.1.1-.2l.1.1c-.2-.1.1 0-.2-.2h.1c-.4-.3.2 0 0-.2h.1s-.1-.1 0-.1c.3.1 0-.1.1-.1l.1.1c-.1-.1 0-.1 0-.1h.1l-.2.2.1.1c.1-.1 0-.2 0-.2zm.1-.5zm-1.6 4.1s-.1 0 0 0zM21.7 21.3v.1zm.2.3l-.2-.2.2.2zm-.1 0c-.1-.1 0 .1.1.1-.1-.1.1 0-.1-.1zm-.5.6zm.3.6c0-.1.2 0 .1-.1.1 0 0-.3 0-.4v.1l-.1-.1.1.1c.2.1-.1-.1.1 0l-.1-.1v-.4l.1.1c-.2-.3 0-.3 0-.3l-.1-.1c-.1-.1.1.2 0 .1l-.1-.1c-.1 0 .2.2.1.1-.1 0-.1-.1-.1-.1 0 .1-.1 0 .1.2-.1-.1 0 0-.2-.1 0 .1 0 .1.1.1-.2 0-.1.2-.2.3.2.3-.1 0-.1.2.1.1.1.1 0 .1l.1.1c-.3-.1-.3.2-.5.2-.2.1-.5 0-.3.5l-.1-.1c0 .1-.1 0-.1.1.1.3-.2.2 0 .5-.1.1-.2.2-.2.4V24c0 .2-.3 0-.3.2-.2 0 .1.5-.1.4-.3-.2.2.4-.1.2-.5-.3-.4.1-.2.4-.2 0 .1.4-.3.2.2.2-.3-.1-.3 0l.1.1c-.2-.2.3.3-.1 0-.2-.1.4.4.2.2l.1.1-.1-.1.1.1c-.3-.3 0 .1-.3-.2 0 0-.2-.1-.2-.2l.1.1c.2.1.3.3.4.4l-.1-.1c.1.1.1.1.2.1 0 0 .2.1.3.2-.1-.1 0-.1 0-.1l.1.1c.1.1-.3-.3 0 0v-.2l-.2-.2c.2.2.3.2.3.2.3.2-.2-.2.1 0-.2-.2.1 0-.2-.2.1 0 .1.1.1.1h.2c-.2-.2.1 0-.1-.2.1 0 .2.1.1 0 0 0 0-.1-.1-.3.3.2.2.2.3.2-.1-.1 0-.1-.1-.2.1.1 0-.1.1.1-.4-.4-.2-.4.1-.2l-.4-.4s.2.1.1.1l.1.1c-.1-.1.2.1 0 0l-.1-.1.1.1c.2-.1 0-.5.2-.6v.1l-.1-.1.1.1c.1.1 0-.1 0-.1l.1.1c-.1-.2.2.1-.1-.2l.1.1c0-.2 0-.2.1-.2-.2-.3.1-.1-.1-.4l.1.1c-.1-.3.1-.1.2-.2.1 0 0-.1 0-.1l.1.1c-.2-.3.3.1.1-.2l.1.1c-.1-.2.1 0-.2-.2l.1.1c-.3-.4.2.1 0-.2l.1.1c0-.1-.1-.1 0-.1.3.2 0-.1.1-.1l.1.1c-.1-.1 0-.1 0-.1l.1.1.3-.5zm.2-.5zm-2.5 3.8s0-.1 0 0zM31.1 13.8l.1.1zm.2.2c0 .1 0 .1 0 0l-.1-.2c-.2-.2.1.4.1.2z"/><path class="st1" d="M31.2 14c-.1-.1 0 .1.1.1-.1-.1 0 .1-.1-.1zm-.6.6zm.1.6l.1.1c-.1-.2.1 0 0-.2.1 0 .1-.3.1-.4v.1l-.1-.1v.1c.1.2 0-.2.1 0 0 0-.1-.1-.1-.2s.1-.2.1-.4l.1.1c-.1-.3 0-.3.1-.3 0-.1-.1-.1-.1-.2-.1-.1.1.2 0 .1v-.1s.1.2 0 .1c0-.1-.1-.1-.1-.1 0 .1-.1 0 0 .2-.1-.2 0 0-.1-.1 0 .1 0 .1.1.2-.2 0-.1.2-.3.3.2.4-.1 0-.1.2v.1l.1.1c-.3-.2-.3.1-.5.1s-.5-.1-.3.4v-.1c0 .1-.1 0-.1.1.1.3-.2.1-.1.5l-.3.3V16c0 .2-.3-.1-.4.1-.2-.1.1.5-.2.4-.3-.3.1.4-.2.2-.5-.4-.4 0-.3.4-.2-.1 0 .4-.4.2.1.3-.3-.2-.3-.1l.1.1c-.2-.2.2.3-.1 0-.1-.2.3.4.1.2l.1.1-.1-.1s.1.2.1.1c-.3-.3 0 .1-.3-.3l-.2-.2.1.2c.1.2.2.3.4.5l-.1-.1c.1.1.1.1.1.2 0 0 .2.2.2.3-.1-.2 0-.1 0-.1l.1.1c.1.1-.2-.3 0 0 0-.1 0-.1.1-.1-.1-.1 0 0-.1-.2l.2.2c.2.3-.2-.3.1.1-.2-.2.1.1-.1-.2 0 .1.1.1.1.1h.2c-.1-.2.1.1-.1-.3.1 0 .2.1.1 0 0 0 0-.1-.1-.3.2.3.2.2.3.3-.1-.1 0-.1-.1-.3.1.1 0-.1.1.1-.2-.4 0-.4.3-.2-.1-.1-.2-.3-.3-.5l.1.1v.1c0-.1.1.1.1 0V17c0 .1.1.2.1.1.2 0 .1-.5.3-.5v.1-.1.1c.1.1 0-.1.1-.1l.1.1c-.1-.2.2.2 0-.2l.1.1c0-.2.1-.2.2-.2-.2-.4.1-.1 0-.4v.1c-.1-.3.2-.1.2-.2.1 0 0-.1.1-.1l.1.1c-.2-.3.3.2.1-.2l.1.1c-.1-.2.1 0-.1-.3l.1.1c-.2-.4.2.1.1-.2v.1c.2.2.1-.1.1-.1l.1.1c-.1-.2.1-.1 0-.1v.1-.1l.1.1c-.1-.2-.1-.3-.1-.3zm.3-.4zm-3.1 3.1z"/><g><path class="st1" d="M41.9 8.3v-.1.2zm.1.3l-.1-.3c-.1-.2.1.4.1.3zm-.1-.1v.1c0-.1.1.1 0-.1zm-.7.4zm0 .7v.1c-.1-.2.1 0 .1-.1.1 0 .1-.2.2-.4v.1c.1.2 0-.2.1 0 0 0 0-.1-.1-.2.1-.1.1-.2.1-.4 0 0 0 .1.1.2-.1-.4.1-.3.1-.2 0-.1 0-.1-.1-.2s0 .2 0 .1v-.1s.1.2 0 .1v-.1s-.1 0 0 .2l-.1-.2c0 .1 0 .1.1.2-.1 0-.2.2-.3.2.1.4-.1 0-.2.1v.3c-.3-.2-.3 0-.5 0s-.5-.2-.4.3v-.1c0 .1-.1 0-.1.1 0 .3-.2.1-.2.4-.1 0-.3.1-.4.3v-.1c0 .2-.3-.1-.4 0-.2-.1 0 .5-.3.3-.2-.3 0 .5-.2.1-.4-.5-.4-.1-.3.3-.2-.1-.1.4-.4.1.1.3-.3-.2-.3-.2v.1c-.1-.2.1.4-.1 0-.1-.2.2.5.1.2v.1l-.1-.1s.1.2 0 .1c-.2-.4 0 .1-.2-.3 0 0-.1-.2-.1-.3l.1.2c.1.2.2.4.3.5l-.1-.1c.1.1 0 .1.1.2 0 0 .1.2.2.3-.1-.2 0-.1 0-.1v.1c.1.2-.1-.3 0 0 0-.1.1-.1.1-.1 0-.1 0 0-.1-.2.1.2.2.3.2.3.2.3-.1-.3.1.1-.1-.3.1.1-.1-.3 0 .1.1.1.1.2 0 0 .1.1.2.1-.1-.2.1.1 0-.3.1.1.2.2.1 0 0 0 .1-.1 0-.3.2.3.1.2.2.3v-.3c.1.1 0-.1.1.1-.1-.4.1-.4.3-.1 0-.1-.1-.4-.2-.5v.1s.1.2.1.1v.1c0-.1.1.2.1 0v.1-.1c0 .1.1.2.1.2.2 0 .2-.4.4-.4v.1-.1.1c.1.1 0-.1.1-.1 0 0 0 .1.1.1-.1-.2.2.2 0-.2 0 0 0 .1.1.1 0-.2.1-.2.2-.2-.1-.4.1-.1.1-.4v.1c0-.3.2-.1.3-.2.1 0 0-.1.1-.1v.1c-.1-.4.3.2.2-.2v.1c-.1-.2.1 0-.1-.3l.1.1c-.1-.4.2.2.1-.1v.1c.1.2 0-.2.1-.2v.2c0-.2.1 0 .1-.1v.1-.1l.1.1v-.2zm.4-.4zm-3.7 2.5z"/></g><g><path class="st1" d="M53.6 5.1V5v.2zm0 .3v-.3c-.1-.2 0 .4 0 .3z"/><path class="st1" d="M53.6 5.3v.1c-.1-.1 0 .1 0-.1zm-.8.3zm-.2.6v.1c0-.2.1 0 .1-.1.2.1.3-.2.3-.3V6c.1.2 0-.2.1 0v-.2c.1-.1.2-.1.2-.3v.2c0-.4.1-.2.2-.2v-.2c0-.1 0 .2-.1.1v-.1s-.1 0-.1.2c0-.2 0 0-.1-.2v.2c-.1-.1-.2.1-.3.1 0 .4-.1 0-.2.1 0 .1 0 .1-.1.1V6c-.2-.3-.3 0-.5-.1-.1-.2-.3-.5-.4.1v-.1c0 .1-.1 0-.1 0-.1.3-.3 0-.3.4-.1 0-.3.1-.4.2v-.1c-.1.2-.3-.2-.4 0-.2-.1-.1.5-.3.3-.2-.3-.1.5-.2.1-.3-.5-.3-.1-.4.2-.2-.2-.2.4-.4 0 0 .3-.2-.3-.3-.2v.1c-.1-.3 0 .4-.1 0-.1-.2.1.5 0 .3v.1s0-.1-.1-.2v.1c-.1-.4 0 .1-.1-.4 0 0-.1-.2-.1-.3v.2c.1.2.1.4.1.6v-.2c0 .2 0 .1.1.2 0 0 .1.2.1.3v-.1.1c.1.2-.1-.4 0 0 0-.1.1-.1.1-.1v-.2l.1.3s0 .1 0 0c.1.3 0-.3.1.1-.1-.3.1.1 0-.3v.2s.1.1.2.1c0-.3.1.1 0-.3 0 .1.1.2.1.1 0 0 .1-.1 0-.3.1.3.1.3.1.4v-.3c0 .2 0-.1.1.2 0-.5.2-.3.3 0 0-.1-.1-.4-.1-.6V7s.1.2.1.1v.1c0-.1.1.2.1 0v.1-.1.2c.2 0 .3-.4.4-.4v.1V7v.1c.1.1.1-.1.1-.1v.2c0-.2.1.3 0-.2v.1c.1-.2.1-.2.2-.1 0-.4.1-.1.1-.4v.1c0-.3.2 0 .3-.1l.1-.1v.1c0-.4.2.3.2-.1v.1c0-.2.1.1 0-.3v.1c0-.5.1.2.1-.1v.1c0-.1 0-.1 0 0v.1c.1.3.1-.1.2-.1v.2c0-.2.1 0 .1-.1v.1-.1.1c.8-.3.8-.4.8-.4zm.5-.3zm-4.2 1.7z"/></g><g><path class="st1" d="M65.6 4.3v-.1.2zm0 .2c0 .1 0 .1 0 0v-.3.3zm0 0zm-.9.1zm-.2.5v.1c0-.2.1 0 .1-.1.1.2.2 0 .4-.1v-.1.1c0 .2 0-.2 0 0v-.2c.1-.1.2-.1.3-.3v.2c.1-.4.2-.2.2-.2v-.2c0-.1-.1.2-.1.1v-.1s-.1 0-.1.2v-.2.2c-.1-.1-.2.1-.4.1-.1.4-.1-.1-.2.1 0 .1-.1.1-.1.1V5c-.2-.3-.3-.1-.5-.2s-.3-.4-.5.1v-.1c-.1.1-.1-.1-.1 0-.1.3-.3 0-.4.3-.1 0-.3 0-.4.1v-.1c-.1.2-.2-.2-.4-.1-.1-.2-.2.4-.4.2-.1-.4-.2.4-.2 0-.2-.6-.3-.2-.4.2-.1-.2-.3.3-.4-.1 0 .3-.1-.3-.2-.3v.1c0-.3 0 .4-.1 0v.3c0-.4 0 .1-.1-.4v-.3.8-.2.2s0 .3.1.3v-.1.1c0 .2 0-.4 0 0 0-.1.1-.1.1-.1v-.2c0 .3.1.3.1.3s0 .1 0 0c0 .3 0-.3.1.1v-.3.2l.1.1c0-.3.1.1.1-.2 0 .1.1.2.1.1 0 0 .1 0 .1-.3 0 .3 0 .3.1.4 0-.2.1-.1.1-.3v.2c.1-.5.2-.3.3 0v-.6.1s0 .2.1.1v.1c0-.1 0 .2.1 0v.1-.1.2c.2.1.3-.3.5-.3v.1-.1.1c0 .1.1-.1.1-.1v.2c0-.2.1.3.1-.2v.2c.1-.1.2-.1.3-.1.1-.4.2 0 .2-.4v.1c.1-.3.2 0 .3 0l.1-.1v.1c.1-.4.1.3.2-.1v-.2.1c.2-.4.2.3.3 0v.1c0-.1 0-.1 0 0v.1c0 .3.1 0 .2 0v.2c0-.2.1 0 .1-.1v.1-.1.1c0-.1.1-.2.1-.3zM65 5zm-4.4.8z"/></g><g><path class="st1" d="M77.6 5.9V6zm-.1.3l.1-.3c.1-.2-.1.4-.1.3zm0-.1zm-.8-.1z"/><path class="st1" d="M76.4 6.6v.1c.1-.2.1 0 .1-.1.1.1.2-.1.4-.2v.1c0 .2.1-.1.1 0v-.2c.1 0 .2-.1.3-.2v.2c.2-.3.2-.2.3-.1V6c0-.1-.1.2-.1 0v-.1c0-.1-.1.2 0 .1v-.1s-.1-.1-.1.2v-.2c0 .1 0 .1-.1.2-.1-.1-.3 0-.4 0-.1.4-.1-.1-.2 0 0 .1-.1.1-.1.1l-.1.2c-.1-.4-.3-.2-.4-.3-.2-.1-.3-.4-.5 0V6c-.1.1-.1-.1-.1 0-.2.3-.2-.1-.4.2-.1-.1-.3-.1-.5 0v-.1c-.1.1-.2-.3-.3-.2-.1-.2-.3.4-.4.1 0-.4-.2.4-.2 0 0-.6-.3-.3-.4.1-.1-.2-.3.3-.4-.2-.1.3-.1-.4-.2-.3v.1c0-.3-.1.4-.1 0 0-.2-.1.5-.1.2v-.1.1c.1-.4-.1.1 0-.4v-.3c0-.1 0 0-.1.2 0 .2-.1.4-.1.6v-.2.6c0-.2 0-.1 0 0v.1c0 .2.1-.4 0 0l.1-.1c0-.1 0 0 .1-.2v.3s0 .1 0 0c0 .3.1-.3 0 .1.1-.3 0 .1.1-.2v.2s.1.1.1.2c.1-.3.1.1.1-.2 0 .1 0 .2.1.1 0 0 .1 0 .1-.2v.4c0-.2.1-.1.1-.2v.2c.2-.4.3-.2.3.1 0-.1.1-.4.1-.6v.4c0-.1 0 .2.1 0v.1-.1.2c.1.1.4-.3.5-.2v.1l.1-.1v.1c0 .1.1-.1.1 0v.2c.1-.2 0 .3.1-.1v.2c.1-.1.2-.1.3 0 .1-.4.2 0 .3-.3V7c.1-.3.2.1.3 0h.1v.1c.1-.4.1.4.2 0v.1c.1-.2 0 .1.1-.3V7c.1-.4 0 .2.2-.1V7c0-.1.1-.1.1 0v.1c0 .3.1 0 .2 0v.2c.1-.2.1 0 .1-.1v.1-.1.1c-.1-.6 0-.7.1-.7zm.4-.1zm-4.4-.1z"/></g><g><path class="st1" d="M89 9.9h.1l-.1.1z"/><path class="st1" d="M88.9 10.2l.1-.3c.1-.2-.2.4-.1.3zm0-.1c0-.1 0 .1-.1.1.1-.1 0 .1.1-.1zm-.8-.2z"/><path class="st1" d="M87.7 10.3l-.1.1c.1-.2.1 0 .2 0 .1.1.3-.1.4-.1v.1l.1-.1v.1c-.1.2.1-.1.1.1 0 0 .1-.1.1-.2.1 0 .2 0 .4-.1 0 0 0 .1-.1.2.2-.3.2-.1.3-.1 0-.1 0-.1.1-.2 0-.1-.1.2-.1 0V10c0-.1-.1.2-.1.1s.1-.1.1-.1 0-.1-.2.1c.1-.2 0 0 0-.2 0 .1 0 0-.1.2-.1-.1-.3 0-.4-.1-.2.3-.1-.1-.2 0-.2 0-.2 0-.2-.1l-.1.1c0-.4-.3-.2-.3-.4-.1-.2-.2-.5-.5-.1v-.1c-.1.1-.1-.1-.1 0-.2.2-.2-.1-.5.1-.1-.1-.3-.1-.4-.1v-.1c-.2.1-.1-.3-.3-.2 0-.2-.4.3-.4 0 .1-.4-.3.3-.2-.1.1-.6-.2-.3-.5 0-.1-.2-.4.2-.3-.2-.2.2 0-.4-.1-.3v.1c0-.2-.3.4-.2 0l-.1.2v-.1s-.1.2-.1.1c.1-.4-.1.1.1-.4 0 0 .1-.2.1-.3l-.1.2c-.1.2-.2.4-.2.5l.1-.1c-.1.2 0 .1-.1.2 0 0-.1.2-.1.3.1-.2 0-.1 0 0v.1c-.1.2.1-.3 0 0 .1-.1.1 0 .2 0 0-.1 0 0 .1-.2 0 .2 0 .3.1.3-.1.3.1-.3 0 .1.1-.3 0 .1.1-.2 0 .1 0 .1-.1.2 0 0 0 .1.1.2.1-.2 0 .1.2-.2 0 .1 0 .2.1.1 0 0 .1 0 .2-.2-.1.3-.1.3-.1.4l.2-.2c-.1.2.1-.1 0 .2.3-.4.3-.2.3.2.1-.1.2-.4.3-.5v.4c.1-.1 0 .2.1 0v.1-.1c0 .1-.1.2-.1.2.1.1.4-.2.6 0v.1l.1-.1v.1c0 .1.1 0 .1 0s0 .1-.1.1c.1-.2-.1.3.1-.1 0 0 0 .1-.1.1.1-.1.2-.1.3 0 .2-.3.2 0 .3-.2v.1c.2-.2.2.1.3.1h.1v.1c.2-.3 0 .4.2 0l-.3-.2c.1-.2 0 .1.1-.2v.1c.2-.4 0 .2.2 0v.1c0-.1.1-.1.1 0v.1c-.1.3.1 0 .2 0l-.1.1c.1-.2.1 0 .1 0v.1l.1-.1-.1.1c-.1-.1 0-.2.1-.2zm.4 0zm-4.3-1z"/></g><g><path class="st1" d="M99.4 16.2v-.1.1zm-.2.2l.2-.2c.1-.2-.3.3-.2.2zm0-.1c0-.1-.1.1-.1.1.1-.1 0 .1.1-.1zm-.7-.4z"/><path class="st1" d="M98 16.3l-.1.1c.2-.2.1 0 .1-.1l.1.1c.1.1.3 0 .4 0v.1l.1-.1v.1c-.1.2.1-.1 0 .1l.1-.1c.1 0 .2 0 .4-.1 0 0 0 .1-.1.1.3-.2.3-.1.3 0 .1-.1.1-.1.1-.2.1-.1-.2.2-.1 0l.1-.1c0-.1-.1.2-.1.1s.1-.1.1-.1c-.1 0 0-.1-.2.1l.1-.2-.1.1c0-.2-.3-.1-.3-.1-.3.3-.1-.1-.2-.1-.1.1-.1.1-.1 0l-.1.1c.1-.4-.2-.3-.3-.5-.1-.2-.1-.5-.5-.2v-.1c-.1 0 0-.1-.1-.1-.3.2-.2-.2-.5 0-.1-.1-.2-.2-.4-.2v-.1c-.2.1-.1-.3-.2-.3 0-.2-.4.2-.4 0 .1-.4-.4.3-.2-.1.2-.6-.1-.3-.4-.1 0-.3-.4.1-.3-.3-.2.2.1-.4 0-.3v.1c.1-.3-.3.3 0-.1.1-.2-.3.4-.2.2l-.1.1.1-.1s-.1.2-.1.1c.2-.4-.1.1.2-.4 0 0 .1-.2.2-.2l-.1.1c-.1.2-.2.3-.3.5l.1-.1c-.1.1 0 .1-.1.2 0 0-.1.2-.2.3.1-.2.1-.1.1 0v.1c-.1.2.2-.3 0 0h.2c.1-.1 0 0 .1-.2-.1.2-.1.3-.1.3-.2.3.2-.3 0 .1.2-.3 0 .1.2-.2 0 .1-.1.1-.1.2v.2c.2-.2 0 .1.2-.1 0 .1-.1.2 0 .1 0 0 .1 0 .2-.2-.5.3-.5.2-.5.3l.2-.2c-.1.1.1 0-.1.2.3-.3.3-.1.2.2.1-.1.2-.3.4-.5 0 0-.1.2 0 .2v.1c.1-.1-.1.2 0 0v.1l.1-.1c0 .1-.1.2-.1.1.1.2.5-.1.6.1v.1l.1-.1v.1c0 .1.1 0 .1 0l-.1.1c.1-.2-.1.3.1-.1l-.1.1c.2-.1.2 0 .2.1.3-.3.1.1.4-.2v.1c.2-.2.2.1.3.1h.1l-.1.1c.3-.3-.1.4.2.1l-.1.2c.1-.2 0 .1.2-.2l-.1.1c.3-.4 0 .2.2 0l-.1.1c.1 0 .1-.1.1 0-.2.3.1 0 .1.1l-.1.1c.1-.1.1 0 .1 0v.1h.2-.2.2zm.4.1zm-4-1.9z"/></g><g><path class="st1" d="M108.3 24.4v-.1l-.1.1zm-.2.1s-.1.1 0 0l.2-.2-.2.2zm0 0c.1-.1-.1 0-.1.1l.1-.1zm-.7-.6s.1 0 0 0c.1 0 .1 0 0 0zm-.5.3c.1 0 0 .2.1.1 0 .1.3 0 .4 0h-.1l.1-.1h-.1c-.1.2.2 0 0 .1l.1-.1c.1 0 .2.1.4 0l-.1.1c.3-.2.3 0 .3.1l.1-.1c.1-.1-.2.1-.1 0l.1-.1c0-.1-.2.2-.1.1l.1-.1c-.1 0 0-.1-.2 0 .1-.1 0 0 .1-.2-.1 0-.1 0-.2.1 0-.2-.2-.1-.3-.2-.3.2 0-.1-.2-.1-.1 0-.1.1-.1 0l-.1.1c.1-.3-.1-.3-.2-.5s0-.5-.5-.3h.1c-.1 0 0-.1-.1-.1-.3.1-.1-.2-.5-.1-.1-.1-.2-.2-.4-.3l.1-.1c-.2 0 0-.3-.2-.3 0-.2-.5.1-.4-.1.2-.3-.4.2-.2-.1.3-.5-.1-.4-.4-.2 0-.2-.4 0-.2-.4-.2.2.1-.3 0-.3l-.1.1c.2-.2-.3.2 0-.1.1-.2-.4.3-.2.2l-.1.1.1-.1-.1.1c.3-.3-.1 0 .2-.3l.2-.2-.1.1-.4.4.1-.1-.1.1s-.2.2-.2.3c.1-.1.1 0 .1 0l-.1.1c-.1.1.3-.2 0 0h.2c.1-.1 0 0 .2-.1-.2.2-.2.3-.2.3-.2.3.2-.2 0 .1.2-.2 0 .1.2-.1l-.1.1v.2c.2-.2 0 .1.2-.1 0 .1-.1.2 0 .1 0 0 .1 0 .3-.1-.2.3-.2.2-.2.3.1-.1.1 0 .3-.1-.1.1.1 0-.1.1.4-.2.4 0 .2.3l.4-.4s-.1.2-.1.1l-.1.1c.1-.1-.1.2 0 0l.1-.1-.1.1c.1.2.5 0 .5.2h-.1l.1-.1-.1.1c-.1.1.1 0 .1.1l-.1.1c.2-.1-.2.2.2-.1l-.1.1c.2 0 .2 0 .2.1.3-.2.1.1.4-.1l-.1.1c.3-.1.1.2.2.2 0 .1.1 0 .1 0l-.1.1c.3-.2-.1.3.2.1l-.1.1c.2-.1 0 .1.2-.2l-.1.1c.4-.3-.1.2.2 0l-.1.1c.1 0 .1-.1.1 0-.2.3.1.1.1.1l-.1.1c.2-.1.1 0 .1 0h-.1l.1-.1-.1.1c.4.4.5.3.6.4zm.4.2zm-3.6-2.7z"/></g><g><path class="st1" d="M115.4 34.2v-.1l-.1.1z"/><path class="st1" d="M115.1 34.3l.3-.1c.1-.2-.4.1-.3.1zm0-.1c.1 0-.1 0-.1.1l.1-.1zm-.5-.6z"/><path class="st1" d="M114 33.7l-.1.1c.2-.1 0 .1.2.1 0 .1.3.1.4.1h-.1s.1-.1.1 0h-.1c-.2.1.2 0 0 .1 0 0 .1-.1.2-.1s.2.1.4.1c0 0-.1 0-.1.1.3-.1.3 0 .3.1.1 0 .1-.1.2-.1.1-.1-.2.1-.1 0h.1s-.2.1-.1 0c.1 0 .1-.1.1-.1-.1 0 0-.1-.2 0 .2-.1 0 0 .1-.1-.1 0-.1 0-.2.1 0-.2-.2-.2-.3-.3-.4.1 0-.1-.2-.1h-.1l-.2.1c.2-.3-.1-.3-.1-.5s.1-.5-.4-.4h.1c-.1 0 0-.1-.1-.1-.3.1-.1-.2-.4-.1 0-.1-.2-.3-.3-.3h.1c-.2 0 .1-.3-.1-.4.1-.2-.5 0-.4-.2.3-.3-.4.1-.2-.2.4-.4 0-.4-.3-.3.1-.2-.4 0-.1-.4-.3.1.2-.3.1-.3l-.1.1c.2-.2-.4.2 0-.1.2-.1-.4.3-.2.1l-.1.1.1-.1s-.2.1-.1.1c.4-.2-.1 0 .3-.3l.2-.2-.2.1c-.2.1-.3.2-.5.3l.1-.1c-.1.1-.1 0-.2.1 0 0-.2.2-.3.2.2-.1.1 0 .1 0l-.1.1c-.2.1.3-.2 0 0 .1 0 .1 0 .1.1.1-.1 0 0 .2-.1l-.2.2c-.3.2.3-.2-.1.1.2-.2-.1.1.2-.1-.1 0-.1.1-.1.1v.2c.2-.1-.1.1.3-.1-.1.1-.2.2 0 .1 0 0 .1 0 .3-.1-.3.2-.2.2-.3.3.1-.1.1 0 .3-.1-.1.1.1 0-.1.1.4-.2.4 0 .1.3.1-.1.4-.2.5-.3l-.1.1h-.1c.1 0-.1.1 0 .1h-.1.1c-.1 0-.2.1-.1.1 0 .2.5.1.5.3h-.1c-.1.1.1 0 .1.1l-.1.1c.2-.1-.2.2.2 0l-.1.1c.2 0 .2.1.2.2.4-.2.1.1.4 0h-.1c.3-.1.1.2.2.2 0 .1.1 0 .1.1l-.1.1c.4-.1-.2.3.2.1l-.1.1c.2-.1 0 .1.3-.1l-.1.1c.4-.2-.1.2.2.1h-.1c-.3.2.1.1.1.1l-.1.1c.2-.1.1.1.1 0h-.1.1l-.1.1c.2-.1.3-.1.3-.1zm.4.3zm-3-3.3z"/></g><g><path class="st1" d="M120.3 45.2h.1-.1zm-.2 0c-.1 0-.1.1 0 0l.3-.1c.1 0-.5.2-.3.1z"/><path class="st1" d="M120.1 45.2h-.1c.1 0-.1.1.1 0zm-.4-.7z"/><path class="st1" d="M119.1 44.5h-.1c.2 0 0 .1.1.1 0 .1.2.1.4.2h-.1c-.2.1.2 0 0 .1 0 0 .1 0 .2-.1.1.1.2.1.3.2 0 0-.1 0-.2.1.4 0 .3.1.2.2.1 0 .1 0 .2-.1s-.2 0-.1 0h.1s-.2.1-.1 0h.1s0-.1-.2 0l.2-.1h-.2c.1-.1-.2-.2-.2-.3-.4.1 0-.1-.1-.2h-.3c.3-.3 0-.3.1-.5 0-.2.2-.4-.3-.4h.1c-.1 0 0-.1-.1-.1-.3 0 0-.2-.4-.2 0-.1-.1-.3-.2-.4h.1c-.2-.1.1-.3 0-.4.1-.2-.5-.1-.3-.3.3-.2-.5 0-.1-.2.5-.4.1-.3-.3-.4.1-.2-.4-.1-.1-.4-.3 0 .3-.3.2-.3h-.1c.3-.1-.4.1 0-.1.2-.1-.5.2-.2.1h-.1s.1 0 .1-.1c0 0-.2.1-.1 0 .4-.2-.1 0 .3-.2 0 0 .2-.1.3-.1h-.2c-.2.1-.4.2-.5.2l.1-.1c-.1.1-.1 0-.2.1 0 0-.2.1-.3.2.2-.1.1 0 .1 0h-.1c-.2.1.3-.1 0 0 .1 0 .1.1.1.1.1 0 0 0 .2-.1-.2.1-.3.2-.3.2-.3.2.3-.1-.1.1.3-.1-.1.1.3 0-.1 0-.1.1-.2.1 0 0-.1.1-.1.2.3-.1-.1.1.3 0-.1.1-.2.1 0 .1 0 0 .1.1.3 0-.3.1-.2.1-.3.2h.3c-.1.1.1 0-.1.1.4-.1.3.1.1.3.1 0 .4-.1.5-.2h-.1s-.2.1-.1.1h-.1c.1 0-.2.1 0 .1h-.1.1c-.1 0-.2.1-.2.1 0 .2.4.2.4.4h-.1c-.1.1.1 0 .1.1 0 0-.1 0-.1.1.2 0-.2.1.2 0 0 0-.1 0-.1.1.2 0 .2.1.2.2.4-.1.1.1.4.1h-.1c.3 0 .1.2.1.3 0 0 .1 0 .1.1h-.1c.4-.1-.3.3.1.2h-.1c.2-.1-.1.1.3-.1h-.1c.5-.1-.2.2.1.1h-.1c-.3.2.1.1.1.1h-.1c.2 0 0 .1.1.1h-.1.1-.1c.1.2.3.2.3.3zm.3.3zm-2.3-3.8s.1 0 0 0z"/></g><g><path class="st1" d="M123 57h-.1zm-.3 0s-.1 0 0 0zm0 0h-.1.1zm-.2-.8zm-.6-.2h-.1c.2 0 0 .1.1.1 0 .1.2.2.3.3h-.1c-.2.1.1 0 0 .1h.2c.1.1.1.2.3.2h-.2c.4 0 .2.1.2.2h.2c.1 0-.2 0-.1-.1h.1s0-.1-.2-.1c.2 0 0 0 .2-.1h-.2c.1-.1-.1-.2-.1-.3-.4 0 .1-.1-.1-.2-.1 0-.1 0-.1-.1h-.2c.3-.2 0-.3.2-.5.1-.2.3-.4-.2-.5h.1c-.1 0 0-.1 0-.1-.3-.1 0-.3-.4-.3 0-.1 0-.3-.2-.4h.1c-.2-.1.2-.3.1-.4.2-.2-.5-.2-.3-.3.4-.1-.4-.1-.1-.2.5-.3.2-.3-.2-.4.2-.2-.4-.2 0-.4-.3 0 .3-.2.2-.2h-.1c.3-.1-.4 0 0-.1.2-.1-.5.1-.3 0h-.1.1c.4-.1-.1 0 .4-.1 0 0 .2-.1.3-.1h-.2c-.2 0-.4.1-.6.1h.2-.2s-.2.1-.3.1h.1-.1c-.2 0 .4 0 0 0 .1 0 .1.1.1.1h.2l-.3.1s-.1 0 0 0c-.3.1.3 0-.1.1.3-.1-.1.1.3 0h-.2l-.1.1c.3 0-.1.1.3.1-.1 0-.2.1-.1.1 0 0 .1.1.3.1-.3.1-.3.1-.4.1.2 0 .1 0 .3.1-.2 0 .1 0-.2.1.5 0 .3.2 0 .3.1 0 .4 0 .6-.1h-.1s-.2.1-.1.1h-.1c.1 0-.2.1 0 .1h-.1.1-.2c0 .2.4.3.3.5h-.1c-.1.1.1.1.1.1h-.2c.2 0-.3.1.2 0h-.2c.2.1.2.1.1.2.4 0 .1.1.4.2h-.1c.3.1 0 .2.1.3l.1.1h-.1c.4 0-.3.2.1.2h-.1c.2 0-.1.1.3 0h-.1c.5 0-.2.1.1.1h-.1c.1 0 .1 0 0 0h-.1c-.3.1.1.1 0 .2h-.2c.2 0 0 .1.1.1h-.1.1-.1c.4.4.6.4.6.4zm.2.5zm-1.4-4.3z"/></g><g><path class="st2" d="M38.4 72.9v-1.5h10.4v1.5h-4.3v11.5h-1.7V72.9h-4.4zm18.6 11c-.7.5-1.6.8-2.7.8-.8 0-1.4-.1-2-.4-.6-.2-1-.6-1.4-1-.4-.4-.7-1-.8-1.6-.2-.6-.3-1.3-.3-2s.1-1.4.3-2c.2-.6.5-1.1.9-1.5.4-.4.9-.8 1.4-1 .5-.2 1.1-.4 1.8-.4.8 0 1.5.2 2.1.5.6.3 1 .8 1.3 1.3.3.5.6 1.1.7 1.7.1.6.2 1.2.2 1.8h-7c0 .4 0 .8.1 1.2.1.4.3.7.5 1 .2.3.6.5.9.7.4.2.8.3 1.3.3.7 0 1.2-.2 1.6-.5.4-.3.7-.8.8-1.4h1.5c-.1 1.2-.5 2-1.2 2.5zm-.4-6.1c-.1-.3-.3-.6-.6-.8-.2-.2-.5-.4-.8-.6-.3-.1-.7-.2-1.1-.2-.4 0-.8.1-1.1.2-.3.1-.6.3-.8.6-.2.2-.4.5-.5.8-.1.3-.2.7-.2 1h5.4c-.1-.3-.2-.6-.3-1zm2.9-1.4V75h1.6v-1.4c0-.8.2-1.3.7-1.7.4-.4 1.1-.6 1.9-.6h.5c.2 0 .4.1.5.1v1.3c-.1 0-.3-.1-.4-.1h-.4c-.4 0-.7.1-.9.2-.2.1-.3.4-.3.8v1.3h1.8v1.4h-1.8v8h-1.5v-8h-1.7zm8.3-4.9v13h-1.5v-13h1.5zm2.6 6.4c.2-.6.5-1.1.9-1.6.4-.4.9-.8 1.4-1 .6-.3 1.2-.4 2-.4s1.4.1 2 .4c.6.3 1 .6 1.4 1 .4.4.7 1 .9 1.6.2.6.3 1.2.3 1.9s-.1 1.3-.3 1.9c-.2.6-.5 1.1-.9 1.6-.4.4-.9.8-1.4 1-.6.2-1.2.4-2 .4-.7 0-1.4-.1-2-.4-.6-.2-1.1-.6-1.4-1-.4-.4-.7-1-.9-1.6-.2-.6-.3-1.2-.3-1.9s.1-1.3.3-1.9zm1.6 3.4c.2.4.4.8.6 1.1.3.3.6.5.9.7.4.2.7.2 1.1.2s.8-.1 1.1-.2c.4-.2.7-.4.9-.7.3-.3.5-.7.6-1.1s.2-.9.2-1.5-.1-1.1-.2-1.5-.4-.8-.6-1.1c-.3-.3-.6-.5-.9-.7-.4-.2-.7-.2-1.1-.2s-.8.1-1.1.2c-.4.2-.7.4-.9.7-.3.3-.5.7-.6 1.1-.2.4-.2.9-.2 1.5-.1.6 0 1.1.2 1.5zm10.9-6.2v1.5c.6-1.1 1.7-1.7 3.1-1.7.6 0 1.1.1 1.5.3.4.2.7.4 1 .7.3.3.4.7.5 1.1.1.4.2.9.2 1.4v6.2h-1.5v-6.4c0-.6-.2-1-.5-1.4-.3-.3-.8-.5-1.4-.5-.5 0-.9.1-1.2.2-.3.1-.6.4-.9.6-.2.3-.4.6-.5.9-.2.4-.2.7-.2 1.2v5.3h-1.5v-9.4h1.4zm-40 16.4c-.7-.5-1.4-.7-2.4-.7-.8 0-1.4.1-2 .4-.6.3-1 .7-1.4 1.2-.4.5-.6 1.1-.8 1.7-.2.6-.3 1.3-.3 2s.1 1.4.3 2.1c.2.7.4 1.2.8 1.7s.8.9 1.4 1.2c.6.3 1.2.4 2 .4.6 0 1.1-.1 1.5-.3.4-.2.8-.4 1.1-.8.3-.3.6-.7.8-1.2.2-.5.3-1 .3-1.5H46c-.2 1.6-.7 2.9-1.7 3.8-1 .9-2.3 1.4-3.9 1.4-1 0-1.9-.2-2.6-.5-.8-.3-1.4-.8-1.9-1.4-.5-.6-.9-1.3-1.1-2.1-.2-.8-.4-1.7-.4-2.7 0-.9.1-1.8.4-2.7.3-.8.7-1.6 1.2-2.2.5-.6 1.2-1.1 1.9-1.5.8-.4 1.7-.5 2.7-.5.7 0 1.3.1 1.9.3.6.2 1.1.5 1.6.8.5.4.9.8 1.2 1.3.3.5.5 1.1.6 1.8h-1.7c-.2-.8-.7-1.5-1.3-2zm5.1 4.6c.2-.6.5-1.1.9-1.6.4-.4.9-.8 1.4-1 .6-.3 1.2-.4 2-.4s1.4.1 2 .4c.6.3 1 .6 1.4 1 .4.4.7 1 .9 1.6.2.6.3 1.2.3 1.9s-.1 1.3-.3 1.9c-.2.6-.5 1.1-.9 1.6-.4.4-.9.8-1.4 1-.6.2-1.2.4-2 .4-.7 0-1.4-.1-2-.4-.6-.2-1.1-.6-1.4-1-.4-.4-.7-1-.9-1.6-.2-.6-.3-1.2-.3-1.9.1-.7.2-1.3.3-1.9zm1.6 3.4c.2.4.4.8.6 1.1.3.3.6.5.9.7.4.2.7.2 1.1.2.4 0 .8-.1 1.1-.2.4-.2.7-.4.9-.7.3-.3.5-.7.6-1.1.2-.4.2-.9.2-1.5s-.1-1.1-.2-1.5c-.2-.4-.4-.8-.6-1.1-.3-.3-.6-.5-.9-.7-.4-.2-.7-.2-1.1-.2-.4 0-.8.1-1.1.2-.4.2-.7.4-.9.7-.3.3-.5.7-.6 1.1s-.2.9-.2 1.5.1 1.1.2 1.5zm16.7 3.4c-.4 0-.7-.1-1-.3-.2-.2-.4-.6-.4-1.1-.4.5-.9.9-1.5 1.1-.6.2-1.2.3-1.8.3-.4 0-.8 0-1.2-.1-.4-.1-.7-.2-1-.5-.3-.2-.5-.5-.7-.8-.2-.3-.2-.7-.2-1.2s.1-1 .3-1.3.4-.6.7-.8c.3-.2.6-.4 1-.5l1.2-.3c.4-.1.8-.1 1.2-.2.4 0 .7-.1 1-.2.3-.1.5-.2.7-.3.2-.2.3-.4.3-.7 0-.3-.1-.6-.2-.8-.1-.2-.3-.4-.5-.5-.2-.1-.4-.2-.7-.2-.2 0-.5-.1-.7-.1-.7 0-1.2.1-1.6.4-.4.2-.7.7-.7 1.4H59c0-.6.1-1.1.4-1.5.2-.4.5-.7.9-1 .4-.2.8-.4 1.3-.5.5-.1 1-.2 1.5-.2.4 0 .8 0 1.3.1.4.1.8.2 1.1.4.3.2.6.5.8.8.2.3.3.8.3 1.3v4.8c0 .4 0 .6.1.8 0 .2.2.3.4.3.1 0 .3 0 .5-.1v1.2c-.4.2-.8.3-1.3.3zm-2.2-4.7c-.3.1-.6.1-1 .2-.3 0-.7.1-1 .1-.4.1-.7.1-.9.3-.3.1-.5.3-.7.5-.2.2-.3.5-.3.9 0 .3.1.5.2.6.1.2.2.3.4.4.2.1.4.2.6.2.2 0 .5.1.7.1.5 0 .9-.1 1.3-.2s.7-.3.9-.5c.2-.2.4-.4.5-.7.1-.2.2-.5.2-.7v-1.6c-.3.2-.5.3-.9.4zm9.2-4.9v1.4h-1.9v6.2c0 .1.1.2.2.3.1.1.2.1.4.1h1.3v1.4h-1.2c-.4 0-.7 0-1-.1-.3-.1-.5-.2-.7-.3-.2-.1-.3-.4-.4-.6-.1-.3-.1-.6-.1-1.1v-6h-1.6v-1.4h1.6v-2.8h1.5v2.8h1.9zm8.7 8.8c-.7.5-1.6.8-2.7.8-.8 0-1.4-.1-2-.4-.6-.2-1-.6-1.4-1-.4-.4-.7-1-.8-1.6-.2-.6-.3-1.3-.3-2s.1-1.4.3-2c.2-.6.5-1.1.9-1.5.4-.4.9-.8 1.4-1 .5-.2 1.1-.4 1.8-.4.8 0 1.5.2 2.1.5.6.3 1 .8 1.3 1.3.3.5.6 1.1.7 1.7.1.6.2 1.2.2 1.8h-7c0 .4 0 .8.1 1.2.1.4.3.7.5 1 .2.3.6.5.9.7.4.2.8.3 1.3.3.7 0 1.2-.2 1.6-.5.4-.3.7-.8.8-1.4h1.5c0 1.2-.5 2-1.2 2.5zm-.4-6c-.1-.3-.3-.6-.6-.8-.2-.2-.5-.4-.8-.6-.3-.1-.7-.2-1.1-.2-.4 0-.8.1-1.1.2-.3.1-.6.3-.8.6-.2.2-.4.5-.5.8-.1.3-.2.7-.2 1h5.4c-.1-.4-.1-.7-.3-1zm10.7 6.6v-1.3c-.3.5-.7.9-1.2 1.1-.5.2-1.1.3-1.8.3s-1.4-.1-1.9-.4c-.5-.3-1-.6-1.3-1.1-.4-.4-.6-1-.8-1.6-.3-.4-.3-1.1-.3-1.7 0-.7.1-1.3.3-1.9.2-.6.4-1.1.8-1.6.4-.4.8-.8 1.3-1.1.5-.3 1.2-.4 1.9-.4.2 0 .5 0 .8.1.3 0 .6.1.8.2.3.1.5.3.8.5.2.2.5.4.6.7v-4.8h1.5v13h-1.5zm-5.5-3.3c.1.4.3.8.5 1.1.2.3.5.6.9.8.4.2.8.3 1.3.3s1-.1 1.3-.3c.4-.2.7-.5.9-.8.2-.3.4-.7.5-1.1.1-.4.2-.9.2-1.3 0-.5-.1-.9-.2-1.3s-.3-.8-.5-1.1c-.2-.3-.5-.6-.9-.8-.4-.2-.8-.3-1.4-.3-.5 0-1 .1-1.3.3-.4.2-.7.5-.9.8-.2.3-.4.7-.5 1.2-.1.4-.1.9-.1 1.3 0 .3.1.7.2 1.2z"/></g><g><path class="st3" d="M64 17s.1 0 0 0c.1 0-.4.3-.4.3l.5-.3-.7.5.7-.4s-.8.5-.8.6c0 0 .8-.5.8-.4 0 0-1.3.8-1.2.8 0 0 1-.7 1.1-.6 0 0-1.8 1.1-1.7 1.1 0 .1 2.1-1.3 2.2-1.2 0 .1-2.4 1.5-2.4 1.5 0 .1 2.5-1.5 2.5-1.4 0 .1-2.6 1.5-2.5 1.6 0 .1 2.4-1.5 2.4-1.4 0 .1-2.6 1.6-2.6 1.6 0 .1 3-1.9 3.1-1.8 0 .1-3.7 2.2-3.6 2.2 0 .1 3.6-2.2 3.6-2.1.1.1-3.6 2-3.6 2.1.1.1 3.4-2.1 3.4-2 .1.1-4.2 2.3-4.1 2.5.1.1 4.1-2.5 4.2-2.4.1.1-4.3 2.4-4.2 2.5.1.1 4.4-2.7 4.4-2.6.1.1-4.9 2.8-4.8 2.9.1.1 4.8-2.9 4.9-2.8.1.2-5.3 3-5.2 3.1.1.1 4.9-3 5-2.9.1.2-5.2 3-5.1 3.1.1.2 4.9-3 5-2.9.1.2-5.5 3.2-5.5 3.3.1.1 5.6-3.4 5.7-3.3.1.1-6.3 3.5-6.2 3.7.1.2 6.4-3.9 6.5-3.7.1.2-6.5 3.7-6.4 3.8.1.2 6.3-3.8 6.4-3.7.1.1-6.9 3.9-6.8 4 .1.2 6.8-4.2 6.9-4 .1.1-7 3.9-6.9 4.1.1.2 7.1-4.3 7.1-4.1.1.2-7.5 4.2-7.4 4.4.1.2 6.9-4.3 7-4.1.1.2-7.9 4.3-7.7 4.6.1.2 7.7-4.7 7.8-4.5.1.2-8.3 4.6-8.2 4.8.1.2 8.6-5.2 8.7-5 .1.2-9 5.1-8.9 5.3.1.2 8.9-5.5 9.1-5.2.1.2-9.6 5.3-9.4 5.6.1.2 9.1-5.5 9.2-5.3.1.3-9.4 5.2-9.2 5.4.2.3 9.3-5.8 9.5-5.5.2.3-10.1 5.7-10 5.9.1.2 9.9-6.1 10-5.8.1.2-9.9 5.5-9.8 5.7.1.2 9.7-6 9.8-5.7.1.2-10.5 5.9-10.3 6.1.2.3 9.9-6 10-5.8.1.3-10.5 5.9-10.4 6.1.1.2 10.6-6.5 10.7-6.2.2.3-11.4 6.2-11.2 6.6.2.3 11.2-6.9 11.4-6.6.2.3-12 6.6-11.8 6.9.2.3 11.6-7.1 11.8-6.8.2.3-12.4 6.9-12.2 7.2.2.3 12-7.4 12.2-7 .1.2-12.3 6.7-12.1 7.1.1.2 11.9-7.3 12.1-7 .2.3-12.8 7.1-12.7 7.4.2.4 12.7-7.8 12.9-7.4.2.3-13.2 7.4-13 7.7.2.3 13.1-8 13.3-7.7.2.3-14 7.7-13.8 8.1.2.3 13.5-8.2 13.7-7.9.2.4-13.7 7.7-13.6 8 .2.3 13.3-8 13.4-7.8.2.4-14.4 8-14.3 8.3.2.4 14.4-8.9 14.7-8.5.3.4-15 8.2-14.8 8.6.2.4 14.7-8.9 14.8-8.6.2.4-15.3 8.4-15.1 8.8.2.4 14.9-9 15.1-8.7.2.4-15.7 8.7-15.5 9 .2.3 15.3-9.4 15.5-9 .2.4-15.4 8.4-15.2 8.8.3.5 14.8-9.1 15-8.7.2.4-15.5 8.5-15.3 8.9.3.4 15.5-9.4 15.7-9 .2.4-16.4 9-16.1 9.5.2.4 15.6-9.5 15.8-9.1.2.4-16.3 8.9-16 9.3.2.4 15.8-9.6 16-9.2.2.4-16.8 9.3-16.6 9.7.3.4 16.7-10.2 17-9.8.2.4-17.4 9.6-17.2 10 .2.4 16.8-10.2 17-9.8.3.4-17.1 9.6-16.9 9.9.3.5 17.2-10.4 17.4-10 .2.4-18 9.9-17.8 10.4.3.5 17.6-10.7 17.8-10.3.3.5-18.5 10.1-18.2 10.6.3.5 17.8-10.8 18-10.4.6.7-18 10.4-17.8 10.8.2.4 17.7-11 18.1-10.4.2.4-18.6 10.3-18.4 10.7.4.6 18.4-11.1 18.7-10.7.3.4-19.3 10.7-19 11.1.3.5 18.7-11.4 19-11 .2.4-19.4 10.8-19.2 11.2.2.4 19.4-11.8 19.7-11.4.3.4-20.1 11.2-19.9 11.6.3.6 19.6-11.9 19.9-11.5.3.4-20.3 11.1-20 11.6.3.5 19.4-11.9 19.7-11.4.3.5-20.5 11.2-20.2 11.8.3.6 20.1-12.1 20.3-11.7.3.6-21 11.5-20.7 12.1.3.5 20.6-12.6 20.9-12.1.4.6-21.3 11.7-21.1 12.3.4.6 20.6-12.6 20.9-12.1.3.5-21.7 11.8-21.4 12.4.3.5 21.3-13 21.6-12.5.3.6-22.1 12.1-21.8 12.7.3.4 21.6-13.1 21.9-12.7.3.6-22.1 12.2-21.8 12.7.4.7 21.5-13.2 21.9-12.6.3.5-22.8 12.6-22.5 13.1.3.6 22-13.3 22.2-12.8.3.6-22.7 12.5-22.4 13 .3.5 22.5-13.8 22.8-13.2.4.6-23.3 12.8-23 13.4.3.5 22.6-13.9 23-13.3.4.7-24 13.3-23.7 13.8.3.6 23.5-14.4 23.9-13.8.4.7-24.1 13.3-23.8 13.9.4.6 23.4-14.2 23.8-13.7.3.6-24.8 13.7-24.5 14.3.4.6 24.2-14.7 24.5-14.2.3.7-25 14-24.7 14.6.4.7 24.6-15.1 25-14.4.4.7-25.2 13.9-24.8 14.5.4.7 24.4-14.9 24.7-14.3.4.7-25.8 14-25.4 14.7.4.7 25.1-15.5 25.5-14.7.3.5-26.1 14.5-25.8 15.1.4.6 25.3-15.5 25.7-14.8.4.8-26.4 14.4-26 15.1.3.6 25.9-15.7 26.3-15.2.3.6-26.8 14.5-26.3 15.3.4.6 25.9-15.8 26.3-15.2.3.6-26.6 14.8-26.3 15.3.4.7 26.3-16.2 26.8-15.5.4.7-28 15.2-27.5 16.1.4.6 26.9-16.6 27.3-15.8.4.8-28 15.4-27.7 16.1.4.8 27.4-16.8 27.8-16.1.4.6-28.5 15.8-28.1 16.4.4.7 27.7-16.8 28-16.2.4.7-28.7 15.6-28.2 16.4.4.7 27.7-16.9 28.1-16.2.4.7-28.4 15.6-28 16.3.3.6 27.9-17 28.3-16.3.4.7-28.5 15.7-28.1 16.4.5.8 27.8-17.1 28.2-16.3.4.7-28.4 15.6-28 16.3.3.6 27.9-16.9 28.2-16.3.5.8-28.8 15.8-28.4 16.5.4.8 27.9-17.2 28.4-16.4.4.7-28.6 15.6-28.2 16.4.4.7 28.1-17.1 28.5-16.5.4.8-28.9 15.9-28.5 16.6.4.6 28.2-17.2 28.6-16.5.4.7-28.7 15.9-28.4 16.5.4.7 27.8-17.1 28.3-16.3.4.8-28.6 15.7-28.2 16.3.4.6 28.1-17.1 28.5-16.4.4.8-29.2 16.1-28.8 16.8.4.6 28.2-17.3 28.7-16.6.2.5-28.8 15.6-28.4 16.4.4.6 27.8-17 28.2-16.3.5.8-28.4 15.4-27.9 16.2.5.8 27.7-17.1 28.2-16.3.3.6-29.1 16.1-28.7 16.7.4.8 28.5-17.3 28.8-16.7.4.8-28.7 15.8-28.3 16.4.4.9 27.8-17 28.2-16.1.4.7-29 15.9-28.6 16.6.4.6 28.1-17.2 28.5-16.4.3.6-28.3 15.7-28 16.3.4.7 27.8-17 28.2-16.3.4.7-28.8 15.7-28.4 16.5.4.6 28.3-17.1 28.6-16.5.3.6-28.9 15.7-28.4 16.5.4.6 28.1-17 28.5-16.4.4.8-28.8 15.7-28.4 16.5.4.6 27.7-17.1 28.2-16.3.4.7-28.6 15.9-28.3 16.5.4.7 27.9-17 28.3-16.3.4.6-28.7 15.7-28.3 16.4.5.8 28.1-17.3 28.6-16.5.3.6-29 16.1-28.7 16.7.5.8 28.4-17.3 28.8-16.6.5.8-29.2 16-28.8 16.7.5.8 28-17.2 28.4-16.4.4.7-28.6 15.6-28.2 16.4.7.6 28.1-17.4 28.5-16.6.4.6-28.5 15.5-28 16.3.5.8 28-17 28.3-16.4.3.6-28.6 15.8-28.2 16.4.4.8 27.7-16.9 28.1-16.2.5.8-28.7 15.9-28.4 16.5.4.8 28.2-17.4 28.7-16.6.5.8-29.1 15.8-28.6 16.6.3.6 28.1-17 28.4-16.4.4.6-28.6 15.7-28.3 16.4.5.9 28.2-17 28.6-16.4.5.8-28.5 15.6-28.1 16.3.5.8 27.5-16.9 27.9-16.1.4.6-28.4 15.7-28 16.3.5.9 28.2-17.2 28.6-16.5.4.6-28.8 15.8-28.4 16.5.4.8 27.7-16.9 28.1-16.2.4.7-28.9 16-28.5 16.6.3.6 28.5-17.3 28.9-16.7.5.8-29 15.8-28.5 16.6.4.8 28.2-17.4 28.7-16.6.3.8-29 15.8-28.5 16.6.4.7 28.1-17 28.5-16.4.4.7-29 16.1-28.7 16.7.5.8 28-17.2 28.4-16.4.5.8-28.9 15.7-28.4 16.5.5.8 28.4-17.3 28.8-16.6.4.7-29 16-28.7 16.7.4.7 28.3-17.3 28.7-16.6.3.6-28.7 15.8-28.3 16.5.4.7 28-17 28.4-16.4.4.7-29.1 15.9-28.6 16.7.5.8 28.4-17.3 28.8-16.6.4.7-29.1 15.9-28.6 16.6.4.8 28.1-17.3 28.6-16.5.5.8-29 15.8-28.6 16.6.4.7 28.5-17.3 28.8-16.6.3.5-29.3 16-28.9 16.6.5.8 28.3-17.4 28.8-16.6.4.7-28.7 15.7-28.3 16.4.3.6 27.7-16.9 28.1-16.2.4.7-28.4 15.7-28 16.3.4.7 27.6-16.7 27.9-16.1.4.7-28.6 15.6-28.1 16.3.4.7 28.1-17.1 28.5-16.4.5.8-28.8 15.8-28.4 16.5.3.6 27.9-17.2 28.4-16.4.4.8-28.9 15.9-28.5 16.6.3.6 28-17.2 28.5-16.4.4.8-28.2 15.5-27.8 16.2.4.7 27.7-16.8 28.1-16.2.4.7-28.5 15.7-28.1 16.3.5.8 27.9-16.9 28.2-16.3.1.6-28.7 15.8-28.3 16.4.4.6 28-17.1 28.4-16.4.4.8-29 16-28.6 16.7.3.7 28.3-17.3 28.7-16.7.4.7-28.8 15.8-28.4 16.5.4.7 28-17.3 28.5-16.4.3.6-28.7 15.9-28.4 16.5.4.6 27.6-17 28-16.2.4.6-28.5 15.7-28.2 16.4.5.6 28-17.2 28.5-16.4.5.8-28.6 15.8-28.2 16.4.4.6 27.7-17.1 28.2-16.3.4.7-28.7 15.7-28.3 16.5.3.6 28.1-17.2 28.5-16.4.4.7-28.6 15.8-28.3 16.5.4.7 27.9-16.9 28.2-16.3.4.7-28.3 15.7-28 16.3.4.8 28-17.3 28.5-16.5.3.6-29 15.8-28.5 16.6.4.7 27.7-16.9 28.1-16.2.4.8-28.5 15.7-28.1 16.3.4.7 28-17.2 28.4-16.4.6.7-28.8 15.9-28.4 16.5.4.7 28.4-17.4 28.8-16.6.5.9-29 15.9-28.6 16.6.4.8 28-17.2 28.4-16.4.5.8-28.7 15.8-28.3 16.5.4.7 27.7-16.9 28.1-16.2.4.6-28.4 15.7-28 16.3.3.6 28.1-17.1 28.5-16.5.5.8-28.7 15.9-28.4 16.5.4.8 27.9-17 28.3-16.3.4.7-29 16.1-28.7 16.7.4.7 28.5-17.3 28.8-16.6.4.8-29.1 15.9-28.7 16.7.5.8 28.1-17.1 28.5-16.4.4.6-28.4 15.5-28 16.2.5.8 27.8-16.8 28.1-16.2.5.8-28.6 15.7-28.2 16.4.5.8 28-16.9 28.3-16.3.4.6-28.5 15.6-28.1 16.3.4.7 28.1-17 28.4-16.4.5.5-28.6 15.7-28.2 16.3.4.7 28.2-17.1 28.6-16.5.4.7-28.9 16-28.5 16.6.4.8 27.9-17.1 28.4-16.4.5.8-29 15.8-28.6 16.6.4.8 27.9-17.1 28.3-16.3.4.7-28.8 15.7-28.3 16.5.4.6 28-17.2 28.4-16.4.4.6-28.7 15.7-28.3 16.3.4.7 28.5-17.3 28.8-16.7.5.9-29.2 15.9-28.7 16.7.5.8 28.2-17.4 28.7-16.6.4.7-29 15.9-28.6 16.6.4.8 28.4-17 28.8-16.4.4.6-29.2 16.1-28.8 16.8.5.8 28.4-17.4 28.8-16.6.4.7-29 15.7-28.5 16.6.4.7 27.9-17.2 28.4-16.4.4.7-28.6 15.8-28.2 16.4.4.7 27.8-17 28.2-16.3.5.8-28.6 15.6-28.2 16.4.4.5 28.1-17.5 28.6-16.7.4.7-29 15.8-28.5 16.6.4.6 27.7-17.1 28.2-16.3.5.8-28.9 16-28.5 16.6.4.7 28.6-17.4 29-16.7.5.8-28.8 15.8-28.4 16.5.4.6 27.4-17 27.9-16.1.4.6-28.6 15.5-28.1 16.3.4.7 28.1-17.3 28.5-16.5.4.8-28.8 15.9-28.4 16.6.3.6 27.8-17.1 28.3-16.3.3.5-28.7 15.7-28.3 16.4.4.7 28.1-17.3 28.5-16.5.4.7-28.8 15.7-28.4 16.5.4.7 28-17 28.4-16.4.4.7-28.6 15.7-28.2 16.4.4.7 27.8-17.1 28.3-16.3.4.7-28.7 15.8-28.3 16.5.3.6 28-17.3 28.5-16.5.3.6-28.8 15.8-28.4 16.5.5.8 28-17.1 28.4-16.4.5.8-28.9 15.9-28.5 16.6.5.8 28.3-17.1 28.6-16.5.4.6-29.1 15.9-28.7 16.6.5.8 28.3-17.3 28.7-16.6.5.8-28.7 15.9-28.3 16.5.4.8 28-17.1 28.4-16.4.5.8-28.7 15.8-28.4 16.5.5.8 27.8-17.1 28.2-16.3.4.6-28.8 15.9-28.4 16.5.4.7 28.2-17.3 28.6-16.5.4.6-28.7 15.7-28.2 16.5.4.6 27.9-17 28.3-16.3.5.8-28.6 15.7-28.2 16.4.5.8 28.3-17.2 28.7-16.6.4.6-29 16-28.6 16.7.4.6 27.8-16.9 28.2-16.3.5.9-28.8 15.7-28.4 16.5.5.8 28.4-17.3 28.8-16.6.4.6-29 16-28.7 16.6.4.6 28-17.2 28.4-16.4.4.7-28.9 15.8-28.5 16.6.4.7 28.2-17.2 28.6-16.5.4.6-28.6 15.6-28.1 16.4.4.5 27.7-17.1 28.1-16.4.4.6-28.4 15.5-28 16.3.4.7 27.7-16.9 28.1-16.2.4.8-28.7 15.7-28.3 16.5.3.6 28.3-17.2 28.7-16.6.4.7-28.9 15.8-28.5 16.6.4.7 27.9-16.9 28.2-16.3.5.8-28.6 15.9-28.2 16.5.4.7 28.3-17.2 28.7-16.6.4.8-28.8 16-28.4 16.5.4.7 28.3-17.1 28.6-16.5.5.8-28.7 15.9-28.4 16.5.4.7 27.8-16.9 28.1-16.2.5.8-28.4 15.7-28 16.3.5.8 27.6-16.8 28-16.1.3.6-28.7 15.9-28.3 16.5.5.8 27.9-17.2 28.4-16.4.4.7-28.8 15.7-28.3 16.5.4.7 28.1-17 28.5-16.4.4.7-28.4 15.7-28 16.3.4.7 27.8-17 28.2-16.3.4.7-28.7 15.7-28.2 16.4.3.6 27.9-17.1 28.3-16.4.3.6-28.7 15.7-28.2 16.5.4.7 28.1-17.3 28.6-16.5.4.7-29 15.9-28.6 16.6.3.6 28-17 28.4-16.4.4.6-28.7 15.9-28.4 16.5.4.6 28.1-17.3 28.6-16.5.5.8-29 15.9-28.6 16.6.2.6 27.7-17.2 28.1-16.4.4.8-28.3 15.4-27.8 16.2.5.8 27.8-17 28.2-16.3.4.7-28.9 15.8-28.5 16.5.4.7 28.2-17.3 28.6-16.5.4.6-29 15.8-28.5 16.6.5.8 27.9-17 28.3-16.3.4.7-28.6 15.5-28.1 16.3.4.6 28.2-17.1 28.5-16.5.4.7-28.8 15.8-28.4 16.5.5.8 27.8-17 28.2-16.3.3.6-28.6 15.6-28.1 16.4.3.6 27.9-17.1 28.3-16.4.3.6-28.8 15.9-28.4 16.5.4.7 28.3-17.3 28.7-16.6.5.7-29.2 15.9-28.7 16.8.4.6 28.4-17.2 28.7-16.6.5.9-28.8 15.7-28.3 16.5.4.6 28.1-17.1 28.5-16.5.4.7-28.7 15.9-28.4 16.5.4.7 28-17.3 28.5-16.4.4.8-29.3 16.1-28.9 16.8.5.8 28.4-17.5 28.9-16.7.5.8-29 15.9-28.6 16.6.3.6 28.3-17.2 28.7-16.6.5.8-28.8 15.9-28.4 16.5.5.8 28.1-17.1 28.5-16.4.4.7-29.1 15.8-28.6 16.6.4.8 28-17.2 28.4-16.4.4.7-28.7 15.8-28.3 16.5.4.7 28.3-17.2 28.7-16.5.5.8-29.3 16.1-28.9 16.8.4.6 28.5-17.2 28.8-16.6.5.8-29.1 15.7-28.6 16.6.5.8 28.3-17.2 28.6-16.5.4.8-29.1 15.8-28.6 16.7.3.6 27.9-17.1 28.4-16.4.4.8-28.5 15.7-28.2 16.4.4.7 28.3-17.2 28.6-16.5.4.6-29.1 15.9-28.7 16.6.5.8 28.1-17.2 28.6-16.5.4.6-28.8 15.7-28.3 16.5.4.6 27.9-17.2 28.4-16.4.4.8-28.4 15.6-28 16.3.5.8 27.9-17.1 28.3-16.3.5.8-28.7 15.7-28.3 16.4.4.8 27.5-17 28-16.2.4.8-28.2 15.6-27.8 16.2.5.8 27.7-16.9 28.1-16.2.4.7-28.9 15.7-28.5 16.5.5.8 28.2-17.3 28.6-16.5.4.6-29 15.8-28.6 16.6.5.8 28.1-17.3 28.6-16.5.4.6-28.7 15.6-28.2 16.4.4.7 27.7-16.9 28.1-16.2.4.7-28.5 15.8-28.1 16.4.4.8 28.4-17.2 28.7-16.6.4.8-29.1 16-28.7 16.7.4.7 27.9-17.1 28.3-16.3.4.6-28.8 15.8-28.4 16.5.4.7 28.3-17.2 28.7-16.6.5.8-29 15.9-28.6 16.6.5.8 27.9-17.1 28.3-16.4.4.7-28.9 15.6-28.4 16.5.4.7 28.2-17.4 28.7-16.6.4.6-29 16-28.6 16.6.4.7 28.3-17.3 28.7-16.6.4.7-28.9 16-28.5 16.6.4.7 28.1-17.3 28.5-16.5.4.7-28.7 15.8-28.3 16.5.4.7 28.1-17.2 28.5-16.5.4.6-28.7 15.9-28.3 16.5.5.8 28.1-17 28.5-16.4.3.6-28.7 15.6-28.2 16.4.4.8 27.6-17 28.1-16.2.3.6-28.6 15.7-28.2 16.4.5.8 28-17.1 28.4-16.4.4.7-28.5 15.6-28.1 16.4.4.7 27.8-17 28.2-16.3.4.7-28.7 15.8-28.3 16.4.3.6 28-17.1 28.4-16.4.4.7-29.1 16-28.7 16.7.4.7 28.4-17.1 28.7-16.6.5.8-28.6 15.8-28.2 16.4.5.8 27.7-17 28.1-16.2.4.7-28.6 15.8-28.2 16.4.4.7 28.1-17.1 28.5-16.4.5.8-29.2 16-28.7 16.7.5.8 28.3-17.4 28.8-16.6.4.7-28.6 15.5-28.1 16.4.5.8 27.7-16.9 28.1-16.2.3.6-28.8 15.8-28.4 16.5.4.6 28-17.1 28.4-16.4.4.8-28.4 15.4-27.9 16.2.5.8 27.5-16.9 28-16.2.5.8-28.5 15.5-28 16.3.3.6 27.9-17 28.2-16.3.4.8-28.8 15.9-28.5 16.6.4.7 28.2-17.2 28.6-16.5.4.7-28.5 15.8-28.1 16.3.4.7 27.7-16.9 28.1-16.2.3.6-28.7 15.7-28.3 16.4.3.6 28.4-17.2 28.7-16.6.4.7-28.9 16-28.5 16.6.4.7 27.8-16.8 28.1-16.2.4.7-28.4 15.5-28 16.3.3.6 27.9-16.9 28.2-16.3.5.8-28.9 16-28.6 16.6.4.6 28.3-17.2 28.7-16.6.5.9-29 16-28.7 16.7.5.8 28.6-17.4 29-16.7.5.9-29.2 15.9-28.7 16.7.4.7 28.1-17 28.4-16.4.5.8-28.6 15.8-28.2 16.4.4.7 28.1-17.3 28.6-16.5.5.8-29.2 16-28.8 16.7.4.7 28-17.2 28.4-16.4.4.6-28.8 15.8-28.3 16.5.4.7 28.5-17.5 29-16.7.4.8-28.7 15.9-28.4 16.5.3.6 27.7-16.9 28.1-16.2.3.5-28.8 15.6-28.3 16.4.4.7 28.2-17.2 28.6-16.5.5.8-29 15.9-28.6 16.7.5.8 28.1-17.2 28.5-16.4.5.9-28.9 16-28.6 16.6.4.7 28.3-17.3 28.7-16.6.5.9-28.9 15.8-28.5 16.6.4.5 27.9-17.2 28.3-16.5.4.6-28.7 15.8-28.3 16.5.5.8 28.3-17.4 28.7-16.6.4.8-29.2 16-28.8 16.7.4.6 28.2-17.2 28.6-16.5.4.6-28.5 15.8-28.1 16.4.5.8 27.6-17 28.1-16.2.4.7-28.5 15.8-28.2 16.3.5.9 28.3-17.2 28.7-16.6.4.7-29.2 16.2-28.9 16.8.4.7 28.4-17.5 28.9-16.7.5.8-28.9 15.7-28.4 16.5.3.6 27.8-16.9 28.2-16.3.4.8-28.8 16-28.5 16.5.3.6 28.2-17.4 28.7-16.6.4.6-28.6 15.7-28.2 16.4.4.8 27.7-16.9 28.1-16.2.4.9-28.6 15.9-28.2 16.6.5.8 28.1-17 28.4-16.4.4.7-29 15.8-28.5 16.6.5.8 28.2-17.3 28.6-16.5.4.7-29 15.9-28.6 16.6.5.8 28.3-17.2 28.7-16.6.4.7-28.7 15.6-28.2 16.4.4.6 27.9-17 28.3-16.3.5.8-28.6 15.9-28.3 16.5.3.6 27.7-17 28.2-16.3.4.7-28.3 15.5-27.8 16.2.4.6 28-16.9 28.3-16.3.4.8-29.1 16.1-28.7 16.7.5.8 28.2-17.1 28.5-16.5.5.8-28.5 15.5-28 16.3.4.8 28.2-17.1 28.6-16.5.4.7-28.9 16-28.5 16.6.2.8 27.8-16.9 28.2-16.3.3.6-28.8 15.8-28.4 16.5.5.8 27.9-17 28.3-16.4.4.7-28.9 15.7-28.4 16.5.4.7 28-17.1 28.4-16.4.5.8-28.8 15.7-28.4 16.5.4.7 27.9-17.1 28.4-16.4.4.8-28.8 15.8-28.3 16.5.4.8 28.3-17.1 28.6-16.5.4.8-28.7 15.7-28.3 16.4.4.8 28.2-17.2 28.6-16.5.4.7-29 16-28.7 16.6.5.8 27.9-17.1 28.3-16.3.3.6-28.9 16-28.5 16.6.4.7 28.4-17.3 28.8-16.6.5.8-28.6 15.7-28.2 16.4.4.7 27.6-16.9 28-16.2.3.6-28.4 15.5-27.9 16.3.4.8 27.9-17.1 28.3-16.3.4.6-28.7 15.6-28.2 16.4.5.8 28-17.1 28.4-16.4.5.8-28.8 15.8-28.4 16.5.4.7 27.8-16.9 28.2-16.3.4.7-28.5 15.8-28.1 16.3.5.8 27.8-17 28.2-16.3.4.7-28.9 15.7-28.4 16.5.4.7 28.6-17.3 28.9-16.7.4.8-29 15.9-28.6 16.6.3.6 27.8-17.1 28.3-16.3.3.6-28.7 15.8-28.3 16.5.4.7 28-17.2 28.4-16.4.3.6-28.8 15.7-28.3 16.5.4.6 27.8-17 28.2-16.3.3.6-28.4 15.8-28.1 16.4.3.6 28.1-17.2 28.5-16.5.4.8-28.8 15.7-28.3 16.5.4.6 27.5-17 28-16.2.4.8-28.6 15.8-28.3 16.5.4.7 28.4-17.5 28.9-16.7.4.7-29.2 16.1-28.9 16.8.5.8 28-17.3 28.5-16.4.4.6-28.9 15.8-28.4 16.6.3.6 28.1-17.1 28.5-16.4.5.8-28.7 15.6-28.2 16.4.4.6 27.4-16.7 27.8-16 .5.8-28.1 15.5-27.7 16.1.3.6 26.9-16.6 27.3-15.8.3.5-27.4 14.7-27 15.5.3.6 26.4-16.2 26.8-15.5.4.6-27.1 15-26.8 15.6.3.6 25.9-15.8 26.2-15.2.4.7-26.5 14.6-26.2 15.2.4.8 25.5-15.7 26-15 .3.6-26.5 14.6-26.1 15.2.4.7 25.4-15.5 25.7-14.9.4.7-25.8 14.2-25.4 14.8.4.6 25-15.3 25.3-14.6.4.7-25.7 14.1-25.3 14.8.3.5 24.6-15.2 25-14.4.3.6-25 13.9-24.7 14.4.3.5 24.3-14.8 24.6-14.2.4.6-25.1 13.8-24.8 14.4.4.7 23.9-14.7 24.3-14 .3.6-24.6 13.6-24.3 14.2.4.7 23.4-14.5 23.8-13.8.3.5-23.9 13.2-23.6 13.7.4.7 23.6-14.4 24-13.7.3.5-24.5 13.5-24.1 14.1.3.6 23-14.2 23.4-13.5.3.4-23.5 12.7-23.1 13.4.4.7 22.6-13.9 22.9-13.2.3.5-23.1 12.7-22.7 13.2.4.6 22.1-13.6 22.5-13 .3.5-22.9 12.7-22.6 13.2.3.5 21.7-13.3 22-12.7.2.5-22.3 12.2-21.9 12.8.3.6 21.6-13.1 21.9-12.7.3.5-22.2 12.3-22 12.8.3.5 21.5-13.2 21.9-12.6.3.5-22.2 12.2-21.9 12.7.3.6 20.6-12.6 20.9-12.1.3.6-20.9 11.4-20.6 12 .4.6 20.7-12.5 21-12 .2.4-20.9 11.6-20.7 12.1.3.6 20.2-12.2 20.4-11.8.3.4-21 11.5-20.7 12.1.2.4 20.1-12.2 20.3-11.7.3.6-20.2 11.2-19.9 11.6.3.4 19.1-11.7 19.4-11.2.3.5-19.8 10.8-19.5 11.4.3.6 18.7-11.5 19-11 .3.5-19.3 10.8-19.1 11.2.3.5 18.8-11.4 19-11 .2.4-18.9 10.5-18.6 10.9.3.5 18.1-11.1 18.4-10.6.3.4-18.7 10.4-18.4 10.8.2.4 17.3-10.7 17.6-10.2.2.4-18 9.9-17.7 10.4.3.5 17.7-10.9 18-10.4.2.4-18.2 10.1-18 10.5.2.4 17.4-10.7 17.7-10.2.3.5-17.8 9.8-17.6 10.3.2.4 17-10.4 17.2-9.9.3.5-17.3 9.5-17.1 9.9.3.4 16.5-10.1 16.8-9.7.3.5-17 9.3-16.7 9.7.2.4 16.2-9.9 16.5-9.5.2.4-16.3 8.9-16.1 9.4.2.3 15.6-9.5 15.8-9.1.2.4-16.3 8.9-16 9.4.3.5 15.5-9.5 15.7-9.1.2.3-15.7 8.7-15.5 9 .3.4 14.9-9 15.1-8.7.2.3-15 8.2-14.8 8.6.2.3 14.7-9 14.9-8.6.2.3-15.5 8.5-15.2 9 .2.4 14.6-8.9 14.8-8.5.2.3-14.6 8-14.3 8.4.2.4 13.6-8.3 13.8-7.9.2.3-14.2 7.8-14 8.2.2.4 13.8-8.4 14-8.1.2.4-13.9 7.7-13.7 8 .2.4 13-8 13.2-7.6.2.3-13.8 7.5-13.6 7.9.2.3 13.4-8.2 13.6-7.9.2.3-13.6 7.5-13.4 7.9.2.4 12.8-7.8 13-7.5.2.4-12.7 7-12.5 7.4.2.3 12.3-7.6 12.5-7.2.2.4-13.2 7.3-13 7.6.2.4 12.5-7.6 12.6-7.3.2.3-12.3 6.8-12.2 7.1.2.3 11.7-7.1 11.8-6.8.2.3-12.1 6.7-11.9 7 .2.3 11.3-6.8 11.4-6.6.2.3-11.4 6.4-11.3 6.6.1.2 11.3-6.9 11.5-6.6.2.3-11.7 6.4-11.5 6.7.1.2 10.9-6.6 11-6.4.2.3-11.1 6.1-10.9 6.4.2.3 10.4-6.4 10.6-6.1.2.3-10.8 6-10.6 6.3.1.2 10.3-6.4 10.5-6.1.2.3-10.7 6-10.6 6.2.1.2 10.1-6.1 10.2-5.9.1.2-10.3 5.7-10.1 5.9.1.2 9.7-5.9 9.8-5.7.2.3-9.6 5.3-9.5 5.6.1.2 9.5-5.8 9.6-5.6.1.2-9.5 5.3-9.4 5.6.1.2 8.8-5.4 8.9-5.2.1.2-9 5-8.9 5.2.1.3 8.8-5.4 9-5.2.1.2-9.3 5.2-9.2 5.4.1.2 8.4-5.1 8.5-4.9.1.2-8.6 4.8-8.5 5 .1.2 8.1-5 8.3-4.8.1.2-8.5 4.7-8.4 4.9.1.2 8.3-5 8.4-4.8.1.2-8.1 4.5-8 4.8.1.2 7.6-4.7 7.8-4.5.1.2-7.6 4.2-7.5 4.4.1.2 7.1-4.4 7.2-4.1.1.2-7.6 4.3-7.5 4.5.1.2 7.5-4.6 7.7-4.4.1.2-7.2 4-7.1 4.2.1.2 6.3-3.8 6.4-3.7.1.2-6.4 3.6-6.3 3.8.1.1 6.3-3.9 6.4-3.7.1.1-6.8 3.8-6.7 4 .1.2 6.1-3.7 6.2-3.6.1.2-5.9 3.3-5.8 3.5.1.1 5.9-3.6 6-3.5.1.2-6.4 3.6-6.3 3.7.1.1 5.6-3.4 5.7-3.3.1.1-5.2 2.9-5.1 3.1.1.1 5-3 5-2.9.1.1-5.3 3-5.2 3.2.1.1 4.7-2.9 4.8-2.8.1.1-4.9 2.7-4.8 2.8.1.1 4.5-2.8 4.6-2.6.1.1-4.5 2.5-4.4 2.6.1.1 4.3-2.6 4.3-2.5.1.1-4.1 2.3-4 2.5.1.1 3.6-2.2 3.6-2.1 0 .1-3.7 2.1-3.7 2.2.1.1 3.2-2 3.2-1.9 0 .1-3.4 1.9-3.4 2 0 .1 3.1-1.9 3.1-1.8 0 .1-2.8 1.6-2.7 1.7 0 .1 2.6-1.6 2.6-1.5 0 .1-3 1.7-2.9 1.8 0 .1 2.9-1.8 3-1.7 0 .1-3 1.8-2.9 1.8 0 .1 2.6-1.6 2.6-1.5 0 .1-2.7 1.6-2.6 1.6 0 .1 1.9-1.2 1.9-1.1l-1.8 1.1 2-1.2s-2 1.2-2 1.3c0 0 1.6-1 1.6-.9l-1.2.8s.8-.5.8-.4c0 0-.7.4-.7.5l.8-.5-1.1.7.4-.3s-.4.3-.4.4l.5-.3"/><path class="st0" d="M76.3 31.3L64 18.8l-8.7 8.9-11.6 11.7L64 59.9l20.2-20.4z"/><path class="st3" d="M75.7 30.4s0-.1 0 0c.1 0-.4.4-.4.4l.6-.4-1.1.8 1.2-.7"/><path class="st3" d="M54.5 26.7l1.5-.9s-1.6 1.1-1.5 1.1c0 .1 2.4-1.5 2.4-1.4 0 .1-2.5 1.5-2.4 1.6 0 .1 3-1.8 3-1.7 0 .1-3.1 1.9-3 2 0 .1 3.4-2 3.4-2 .1.1-3.5 2.1-3.4 2.2 0 .1 3.8-2.3 3.8-2.2.1.1-3.9 2.4-3.9 2.4.1.1 4.2-2.6 4.3-2.5 0 .1-2.5 1.6-2.5 1.7 0 .1 2.8-1.7 2.8-1.6 0 .1-2.1 1.4-2.1 1.4 0 .1 2.3-1.4 2.4-1.4 0 .1-1.8 1.3-1.8 1.3s2.1-1.3 2.1-1.2c0 0-1.6 1.1-1.6 1.2 0 .1 1.9-1.2 1.9-1.1l-1.5 1.1 1.7-1s-1.5 1-1.5 1.1c0 0 1.6-1 1.7-1l-1.3 1s1.5-.9 1.6-.9c0 0-1.3.9-1.2 1 0 0 1.4-.9 1.5-.8l-1.2.9s1.4-.9 1.4-.8c0 0-1.3.9-1.2.9 0 0 1.4-.9 1.4-.8 0 0-1.2.9-1.2 1 0 0 1.4-.9 1.5-.8 0 0-1.2.9-1.2 1 0 0 1.4-.9 1.5-.8 0 0-1.3.9-1.2 1 0 0 1.4-.9 1.4-.8l-1.2.9 1.4-.8-1.2.9 1.3-.8-1.1.9 1.3-.8s-1.1.8-1.1.9c0 0 1.2-.8 1.3-.7 0 0-1.1.8-1.1.9 0 0 1.2-.8 1.3-.7 0 0-1.1.8-1.1.9 0 0 1.3-.8 1.3-.7l-1.1.9s1.3-.8 1.3-.7l-1.1.9s1.3-.8 1.3-.7l-1.1.9s1.2-.8 1.3-.7c0 0-1.1.8-1.1.9 0 0 1.2-.8 1.3-.7l-1.1.9s1.2-.8 1.2-.7c0 0-1.1.8-1.1.9l1.2-.7s-1.1.8-1.1.9l1.2-.7-1.1.8 1.2-.7-1.1.8 1.2-.7-1.1.8 1.2-.7-1.1.8 1.2-.7s-1.1.8-1.1.9l1.2-.7s-1.1.8-1.1.9l1.2-.7-1.1.8 1.2-.7-1.1.8 1.2-.7s-1.1.8-1.1.9l1.2-.7s-1.1.8-1.1.9l1.2-.7s-1.1.8-1.1.9l1.2-.7-1.1.8 1.2-.7s-1.1.8-1.1.9l1.2-.7-1.1.8 1.2-.7s-1.1.8-1 .9l1.2-.7-1.1.8 1.2-.7s-1 .8-1 .9l1.2-.7-1.1.8 1.2-.7-1.1.8 1.2-.7s-1.1.8-1.1.9l1.2-.7-1.1.8s1.2-.7 1.3-.7l-1.1.9s1.3-.8 1.3-.7l-1.1.9 1.3-.8s-1.1.8-1.1.9l1.3-.8-1.1.9 1.3-.8s-1.1.8-1.1.9l1.3-.8-1.1.9s1.3-.8 1.4-.8l-1.2.9 1.4-.8s-1.2.9-1.2 1c0 0 1.4-.9 1.5-.8l-1.3.9 1.5-.9s-1.2.9-1.2 1l1.5-.9-1.3 1s1.6-1 1.6-.9l-1.4 1 1.7-1s-1.5 1-1.5 1.1c0 0 1.7-1.1 1.8-1l-1.5 1.1c0 .1 1.9-1.2 2-1.1 0 .1-1.8 1.2-1.7 1.2 0 .1 2.2-1.4 2.2-1.3 0 0-2 1.3-1.9 1.3 0 .1 2.4-1.5 2.5-1.4 0 .1-2.2 1.4-2.2 1.5 0 .1 3.6-2.2 3.6-2.1.1.1-3.3 2-3.2 2.1.1.2 6.1-3.8 6.2-3.6.1.2-6 3.5-5.9 3.6.1.1 6-3.7 6.1-3.5.1.1-5.7 3.3-5.6 3.5.1.2 5.7-3.5 5.8-3.4.1.2-5.3 3.1-5.2 3.3.1.1 5-3.1 5.1-2.9.1.1-4.7 2.7-4.6 2.9.1.1 4.1-2.5 4.1-2.4 0 .1-3 1.9-2.9 1.9l2-1.2"/><path class="st3" d="M75.7 30.4s0-.1 0 0c.1 0-.4.4-.4.4l.6-.4-1.1.8 1.2-.7"/><path class="st3" d="M54.5 26.7l1.5-.9s-1.6 1.1-1.5 1.1c0 .1 2.4-1.5 2.4-1.4 0 .1-2.5 1.5-2.4 1.6 0 .1 3-1.8 3-1.7 0 .1-3.1 1.9-3 2 0 .1 3.4-2 3.4-2 .1.1-3.5 2.1-3.4 2.2 0 .1 3.8-2.3 3.8-2.2.1.1-3.9 2.4-3.9 2.4.1.1 4.2-2.6 4.3-2.5 0 .1-2.5 1.6-2.5 1.7 0 .1 2.8-1.7 2.8-1.6 0 .1-2.1 1.4-2.1 1.4 0 .1 2.3-1.4 2.4-1.4 0 .1-1.8 1.3-1.8 1.3s2.1-1.3 2.1-1.2c0 0-1.6 1.1-1.6 1.2 0 .1 1.9-1.2 1.9-1.1l-1.5 1.1 1.7-1s-1.5 1-1.5 1.1c0 0 1.6-1 1.7-1l-1.3 1s1.5-.9 1.6-.9c0 0-1.3.9-1.2 1 0 0 1.4-.9 1.5-.8l-1.2.9s1.4-.9 1.4-.8c0 0-1.3.9-1.2.9 0 0 1.4-.9 1.4-.8 0 0-1.2.9-1.2 1 0 0 1.4-.9 1.5-.8 0 0-1.2.9-1.2 1 0 0 1.4-.9 1.5-.8 0 0-1.3.9-1.2 1 0 0 1.4-.9 1.4-.8l-1.2.9 1.4-.8-1.2.9 1.3-.8-1.1.9 1.3-.8s-1.1.8-1.1.9c0 0 1.2-.8 1.3-.7 0 0-1.1.8-1.1.9 0 0 1.2-.8 1.3-.7 0 0-1.1.8-1.1.9 0 0 1.3-.8 1.3-.7l-1.1.9s1.3-.8 1.3-.7l-1.1.9s1.3-.8 1.3-.7l-1.1.9s1.2-.8 1.3-.7c0 0-1.1.8-1.1.9 0 0 1.2-.8 1.3-.7l-1.1.9s1.2-.8 1.2-.7c0 0-1.1.8-1.1.9l1.2-.7s-1.1.8-1.1.9l1.2-.7-1.1.8 1.2-.7-1.1.8 1.2-.7-1.1.8 1.2-.7-1.1.8 1.2-.7s-1.1.8-1.1.9l1.2-.7s-1.1.8-1.1.9l1.2-.7-1.1.8 1.2-.7-1.1.8 1.2-.7s-1.1.8-1.1.9l1.2-.7s-1.1.8-1.1.9l1.2-.7s-1.1.8-1.1.9l1.2-.7-1.1.8 1.2-.7s-1.1.8-1.1.9l1.2-.7-1.1.8 1.2-.7s-1.1.8-1 .9l1.2-.7-1.1.8 1.2-.7s-1 .8-1 .9l1.2-.7-1.1.8 1.2-.7-1.1.8 1.2-.7s-1.1.8-1.1.9l1.2-.7-1.1.8s1.2-.7 1.3-.7l-1.1.9s1.3-.8 1.3-.7l-1.1.9 1.3-.8s-1.1.8-1.1.9l1.3-.8-1.1.9 1.3-.8s-1.1.8-1.1.9l1.3-.8-1.1.9s1.3-.8 1.4-.8l-1.2.9 1.4-.8s-1.2.9-1.2 1c0 0 1.4-.9 1.5-.8l-1.3.9 1.5-.9s-1.2.9-1.2 1l1.5-.9-1.3 1s1.6-1 1.6-.9l-1.4 1 1.7-1s-1.5 1-1.5 1.1c0 0 1.7-1.1 1.8-1l-1.5 1.1c0 .1 1.9-1.2 2-1.1 0 .1-1.8 1.2-1.7 1.2 0 .1 2.2-1.4 2.2-1.3 0 0-2 1.3-1.9 1.3 0 .1 2.4-1.5 2.5-1.4 0 .1-2.2 1.4-2.2 1.5 0 .1 3.6-2.2 3.6-2.1.1.1-3.3 2-3.2 2.1.1.2 6.1-3.8 6.2-3.6.1.2-6 3.5-5.9 3.6.1.1 6-3.7 6.1-3.5.1.1-5.7 3.3-5.6 3.5.1.2 5.7-3.5 5.8-3.4.1.2-5.3 3.1-5.2 3.3.1.1 5-3.1 5.1-2.9.1.1-4.7 2.7-4.6 2.9.1.1 4.1-2.5 4.1-2.4 0 .1-3 1.9-2.9 1.9l2-1.2"/><path d="M51.9 37.7l.1-1.6h5.3l.1 1.6H57c-.1-.5-.2-.8-.4-1-.2-.2-.5-.2-1.1-.2H55v4.8c0 .4.1.6.2.7.1.1.4.1.7.2v.2h-2.7v-.2c.4 0 .6-.1.7-.2.1-.1.1-.4.1-.8v-4.7h-.5c-.5 0-.9.1-1.1.2-.2.1-.3.5-.4 1h-.1z"/><path d="M59.2 38.8c.1.1.1.4.2.7h-1.9c0-.2.1-.5.2-.6.2-.3.4-.5.8-.5.3 0 .5.1.7.4zm-1.9-.1c-.4.4-.5 1-.5 1.6 0 .6.2 1.1.5 1.5.3.4.8.6 1.3.6s.9-.2 1.3-.5c.3-.3.6-.7.7-1.1l-.2-.1c-.2.3-.4.5-.6.7-.2.2-.5.3-.8.3-.4 0-.7-.2-1-.5-.3-.3-.4-.8-.5-1.5h2.9c0-.5-.2-1-.5-1.3-.3-.3-.7-.4-1.1-.4-.7 0-1.2.3-1.5.7zm3.6 3.6v-.1c.3 0 .5-.1.6-.2.1-.1.2-.3.2-.7v-2.9h-.8v-.3h.8c0-.5.1-.9.2-1.2.2-.6.7-1 1.4-1 .3 0 .5.1.7.2.2.1.3.2.3.4 0 .1 0 .2-.1.3-.1.1-.2.1-.3.1-.1 0-.2 0-.2-.1-.1-.1-.1-.1-.2-.3l-.1-.1c0-.1-.1-.1-.2-.2-.1 0-.1-.1-.2-.1-.2 0-.4.1-.5.3 0 .1-.1.3-.1.5V38h1.1v.3h-1.1v2.9c0 .3 0 .6.1.7.1.1.3.2.7.2v.1h-2.3zm3.5 0v-.1c.3 0 .5-.1.6-.2.1-.1.2-.3.2-.5v-4.4c0-.2 0-.3-.1-.4-.1-.1-.2-.2-.4-.2h-.3v-.2c.4-.1.9-.3 1.5-.4v5.6c0 .3 0 .4.1.5.1.1.3.1.6.1v.1h-2.2zM70 39c.2.5.3 1 .3 1.5s-.1.9-.3 1.2c-.2.3-.4.5-.8.5s-.8-.2-1-.7c-.2-.5-.4-1-.4-1.5 0-.7.2-1.2.5-1.4.2-.2.4-.2.6-.2.5-.1.9.1 1.1.6zm-2.3 2.8c.4.4.9.6 1.5.6s1.1-.2 1.5-.7c.4-.4.6-1 .6-1.6 0-.7-.2-1.2-.6-1.6-.4-.4-.9-.6-1.5-.6s-1.1.2-1.5.6c-.4.4-.6.9-.6 1.5 0 .8.2 1.4.6 1.8zm4 .5v-.1c.2 0 .4-.1.5-.2.1-.1.1-.3.1-.5v-2.3c0-.2 0-.3-.1-.4-.1-.1-.2-.2-.4-.2h-.2v-.2c.1 0 .4-.1.9-.3l.4-.1v.8c.3-.3.5-.4.7-.5.2-.1.5-.2.7-.2.2 0 .4.1.6.2.3.2.5.6.5 1.2v2.1c0 .2 0 .4.1.5.1.1.2.1.4.2v.1H74v-.1c.2 0 .4-.1.5-.2.1-.1.1-.3.1-.6v-1.9c0-.3 0-.5-.1-.6-.1-.2-.3-.3-.5-.3s-.4.1-.5.2c-.1.1-.2.2-.4.3v2.5c0 .2 0 .4.1.4.1.1.2.1.5.1v.1h-2zm-18.4-7.8c-.2.3-.4.3-.9.3h-.6v-2.4h.5c.5 0 .7.1.9.3.2.2.3.5.3.9.1.4 0 .6-.2.9zm-.3-1.6c-.1-.2-.2-.2-.4-.2h-.3v1.7h.3c.4 0 .6-.3.6-.8 0-.3-.1-.5-.2-.7zm2.2 1.9c-.1-.1-.1-.1-.1-.2-.1.1-.3.2-.5.2s-.3-.1-.4-.2c-.2 0-.2-.1-.2-.4V33l.4-.1v1.2c0 .2 0 .4.3.4.1 0 .3-.1.3-.2v-1.2l.4-.1v1.3c0 .3.1.4.1.4l-.3.1zm1.5-.9h-.4v.9h-.4v-2.4h.6c.3 0 .5 0 .6.1.2.1.3.3.3.6.1.5-.3.8-.7.8zm.2-1.1c-.1-.1-.2-.1-.3-.1h-.3v.8h.3c.3 0 .4-.1.4-.4 0-.1 0-.2-.1-.3zm1.6 2c-.5 0-.8-.4-.8-.9 0-.6.3-.9.8-.9s.8.4.8.9c-.1.6-.4.9-.8.9zm0-1.5c-.2 0-.3.2-.3.6 0 .5.1.7.4.7.2 0 .3-.2.3-.6-.1-.6-.2-.7-.4-.7zm2.1 1.5v-1.2c0-.2-.1-.3-.2-.3s-.3.1-.4.2v1.3h-.4v-1.3c0-.2 0-.3-.1-.4l.3-.1c0 .1.1.2.1.3.2-.2.3-.2.5-.2.3 0 .5.2.5.5v1.3h-.3zm1.4 0c-.3 0-.5-.2-.5-.4v-1.1h-.2V33h.2v-.4l.4-.1v.5h.4l-.1.3h-.3v1c0 .2 0 .3.2.3h.2v.2H62zm1-2.1v.6h-.2v-.6h-.2v-.1h.6v.1H63zm1 .6v-.5l-.2.5h-.1l-.2-.5v.5h-.2v-.7h.2l.2.5.2-.5h.2v.7H64zm12.3 4.1c.2-.2.3-.2.6-.2.2 0 .4.1.6.2.2.2.2.3.2.6 0 .2-.1.4-.2.6-.2.2-.3.2-.6.2-.2 0-.4-.1-.6-.2-.2-.2-.3-.4-.3-.6 0-.3.1-.5.3-.6zm.6 1.1l-.1-.1V38h.2s.1.1.1.2v.2c0 .1.1.1.2.1s.1 0 .2-.1v-.2h-.1v.1s0 .1-.1.1c0 0-.1-.1-.1-.2s-.1-.2-.2-.3c.1 0 .2 0 .3-.1.1 0 .1-.1.1-.2s0-.2-.1-.2-.2-.1-.3-.1h-.5v.1h.1v1h-.1v.1h.4zm-.7.1c.2.2.4.3.6.3.3 0 .5-.1.6-.3.2-.2.3-.4.3-.6 0-.2-.1-.5-.3-.6-.2-.2-.4-.3-.6-.3-.2 0-.5.1-.6.3-.2.2-.3.4-.3.6 0 .2.1.4.3.6zm.5-1c0-.1 0-.1 0 0l.1-.1c.1 0 .1 0 .2.1 0 0 .1.1.1.2s0 .2-.1.2h-.3v-.4zm-22.3 6.8v1.2s.1.1.2.1h.1v.1h-.8v-.1h.2s.1 0 .1-.1v-1.1h-.3v-.1h.3v-.1c0-.1 0-.3.1-.4 0-.1.1-.2.2-.2.1-.1.2-.1.3-.1.1 0 .2 0 .3.1.1 0 .1.1.1.2v.1H55l-.1-.1c0-.1-.1-.1-.1-.1h-.2l-.1.1v.5h.4v.1h-.5z"/><path d="M55.8 45.5c-.1.1-.2.2-.3.2h-.2c-.1 0-.2 0-.2-.1-.1 0-.1-.1-.1-.2v-.2c0-.1.1-.1.2-.2s.3-.1.5-.2v-.1c0-.1 0-.2-.1-.3 0-.1-.1-.1-.2-.1s-.1 0-.2.1l-.1.1v.2h-.2v-.1c0-.1 0-.2.1-.2.1-.1.2-.1.4-.1.1 0 .2 0 .3.1.1 0 .1.1.1.1v1.1l.1-.1v.1c-.1.2-.2.2-.3.2-.1 0-.1 0-.1-.1.3 0 .3-.1.3-.2zm0-.1v-.5c-.2.1-.3.1-.3.1-.1 0-.1.1-.2.1 0 .1-.1.1-.1.2s0 .1.1.2c0 0 .1.1.2.1s.2-.1.3-.2zm1.1-.8c.1-.2.3-.3.4-.3.1 0 .3.1.4.2.1.1.2.3.2.5 0 .3-.1.5-.3.6-.1.1-.3.2-.5.2h-.3c-.1 0-.2-.1-.3-.1V43.8h-.2v-.1l.4-.2h.1v1.1zm0 .1v.8c.1.1.1.1.2.1h.2c.1 0 .2-.1.3-.2.1-.1.1-.2.1-.4s0-.3-.1-.4c-.1-.1-.2-.1-.3-.1h-.2l-.2.2zm1.8-.4v.3c.1-.2.2-.3.4-.3.1 0 .1 0 .1.1l.1.1v.1h-.1s-.1 0-.1-.1l-.1-.1h-.1s-.1.1-.1.2v.9s0 .1.1.1h.1v.1h-.7v-.1h.2l.1-.1v-1.1h-.2v-.1h.3zm1.2 0l-.4.2v.1h.2v1.1s0 .1-.1.1h-.1v.1h.7v-.1h-.1l-.1-.1v-.2l-.1-1.2zm-.2-.7v.2h.2v-.2h-.1c0-.1-.1-.1-.1 0zm2 1.6c0 .2-.1.3-.2.4-.1.1-.2.2-.4.2s-.3-.1-.4-.2c-.1-.1-.2-.3-.2-.5s.1-.4.2-.5c.1-.1.3-.2.5-.2.1 0 .3 0 .3.1.1.1.1.1.1.2v.1h-.1c-.1 0-.1 0-.1-.1v-.1c0-.1 0-.1-.1-.1h-.1c-.1 0-.2 0-.2.1-.1.1-.1.2-.1.4s0 .3.1.4c.1.1.2.2.3.2.1 0 .2 0 .3-.1-.1-.1 0-.2.1-.3zm1.1-.8l.4-.2h.1v.3c.1-.1.1-.2.2-.3.1 0 .2-.1.2-.1.1 0 .3.1.4.2.1.1.2.3.2.5s-.1.4-.2.6c-.1.1-.3.2-.4.2h-.2s-.1 0-.1-.1v.6l.1.1h.2v.1H63v-.1h.1V44.3H63c-.1.2-.1.2-.2.1zm.5.3v.7c0 .1 0 .1.1.2.1 0 .1.1.2.1s.2 0 .2-.1c.1-.1.1-.3.1-.4 0-.2 0-.4-.1-.5-.1-.1-.1-.1-.2-.1h-.1c-.1-.1-.1 0-.2.1zm1.7-.4v.3c.1-.2.2-.3.4-.3.1 0 .1 0 .1.1l.1.1v.1h-.1s-.1 0-.1-.1l-.1-.1h-.1s-.1.1-.1.2v.9s0 .1.1.1h.2v.1h-.7v-.1h.2l.1-.1v-1.1h-.2v-.1h.2zm1.5 0c.2 0 .4.1.5.2.1.1.2.3.2.5 0 .1 0 .3-.1.4-.1.1-.1.2-.3.3-.1.1-.2.1-.4.1s-.4-.1-.5-.3c-.1-.1-.2-.3-.2-.5 0-.1 0-.3.1-.4.1-.1.1-.2.3-.3h.4zm0 .1h-.2c-.1 0-.1.1-.1.2s-.1.2-.1.3c0 .2 0 .4.1.5.1.1.2.2.3.2.1 0 .2 0 .2-.1.1-.1.1-.2.1-.4s-.1-.4-.2-.6c.1-.1 0-.1-.1-.1zm1.4-.6c0 .1-.1.2-.1.2 0 .1-.1.1-.2.2s-.1.1-.2.1h.2v1.2l.1.1h.1c.1 0 .1 0 .2-.1l.2-.2h-.1s0 .1-.1.1h-.2v-1.1h.3v-.1h-.3l.1-.4zm.9 1c0 .2 0 .4.1.5.1.1.2.2.4.2.1 0 .2 0 .2-.1.1-.1.1-.1.2-.3 0 .1-.1.3-.2.4-.1.1-.2.2-.4.2s-.3-.1-.4-.2c-.1-.1-.2-.3-.2-.5s.1-.4.2-.6c.1-.1.3-.2.5-.2s.3.1.4.2c.1.1.1.2.1.4h-.9zm0-.1h.6v-.2c0-.1-.1-.1-.1-.1h-.2c-.1 0-.2 0-.2.1-.1 0-.1.1-.1.2zm2.5.5c0 .2-.1.3-.2.4-.1.1-.2.2-.4.2s-.3-.1-.4-.2c-.1-.1-.2-.3-.2-.5s.1-.4.2-.5c.1-.1.3-.2.5-.2.1 0 .3 0 .3.1.1.1.1.1.1.2v.1h-.1c-.1 0-.1 0-.1-.1v-.1c0-.1 0-.1-.1-.1h-.1c-.1 0-.2 0-.3.1-.1.1-.1.2-.1.4s0 .3.1.4c.1.1.2.2.3.2.1 0 .2 0 .3-.1 0-.1.1-.2.2-.3zm.7-1.4v.5h.3v.1H72v1.1h.2l.1-.1h.1c0 .1-.1.2-.2.2-.1.1-.1.1-.2.1h-.1l-.1-.1v-1.2h-.2c.1 0 .1-.1.2-.1l.2-.2c-.1-.1-.1-.1 0-.3zm1.3.5c.2 0 .4.1.5.2.1.1.2.3.2.5 0 .1 0 .3-.1.4-.1.1-.1.2-.3.3-.1.1-.2.1-.4.1s-.4-.1-.5-.3c-.1-.1-.2-.3-.2-.5 0-.1 0-.3.1-.4l.3-.3h.4zm0 .1h-.2c-.1 0-.1.1-.1.2s-.1.2-.1.3c0 .2 0 .4.1.5.1.1.2.2.3.2.1 0 .2 0 .2-.1.1-.1.1-.2.1-.4s-.1-.4-.2-.6c.1-.1 0-.1-.1-.1zm1.5-.1v.3c.1-.2.2-.3.4-.3.1 0 .1 0 .1.1l.1.1v.1h-.1s-.1 0-.1-.1l-.1-.1H75s-.1.1-.1.2v.9s0 .1.1.1h.1v.1h-.7v-.1h.2l.1-.1V44.5h-.2v-.1l.3-.1z"/></g></svg>