<svg id="Layer_1" xmlns="http://www.w3.org/2000/svg" viewBox="0 0 128 128"><style>.st0{fill:#ac162c}</style><path class="st0" d="M99.7 31.2l-1 .2-.3 1 .7.8 1-.2.3-1-.7-.8zM116 65.5c3.3-10.6 6.7-16.8 8.9-16.8.7 0 1.1.6 1.1 1.5 0 4.6-4.5 10.4-10 15.3M6.1 62.7c-3.1 0-5-1.1-5-2.8 0-4.4 11.3-9.7 19.1-9.7 6.2 0 8.6 2.5 8.6 6.5 0 .3 0 .8-.1 1.2-8.8 2.5-17 4.8-22.6 4.8m92.8 18.7c-.5 0-.7-.3-.7-.8 0-1.3 2.2-3 5.1-4.8-1 3.2-2.9 5.6-4.4 5.6M47.6 67.3c-.2 0-.2.1-.3.2-.6 1.8-2.9 9.5-2.9 11.9 0 2.2.9 3.4 2.8 3.4 2.1 0 4.1-2.8 4.1-3.4 0-.3-.3-.7-.5-.7-.1 0-.1 0-.2.1-.6.9-1.6 2.2-2.5 2.2-.5 0-.8-.5-.8-1.2 0-2 1.3-6.6 2.1-9 .2-.8.4-1.2.4-1.6.2-.8-1.8-1.9-2.2-1.9m15.9 0c-.2 0-.2.1-.3.2-.3.8-1.1 3.9-1.7 5.5-1.3 3.7-3.8 8-5.3 8-.6 0-.9-.5-.9-1.5 0-2.3 1.2-6.3 1.9-8.7.2-.8.4-1.2.4-1.6 0-.8-2-1.9-2.4-1.9-.2 0-.2.1-.3.2-.6 1.8-2.8 8.6-2.8 11.5 0 2.2.9 3.7 2.7 3.7 2.2 0 4.3-2.2 5.4-4.5 0-.1 0-.1.1-.1v.1c0 .1-.1.6-.1 1.2 0 2.1.9 3.3 2.8 3.3 2.2 0 4.1-2.8 4.1-3.4 0-.3-.3-.7-.5-.7-.1 0-.1 0-.2.1-.4 1-1.4 2.3-2.3 2.3-.5 0-.8-.5-.8-1.2 0-2 1.3-6.6 2.1-9 .2-.8.4-1.2.4-1.6 0-.8-1.9-1.9-2.3-1.9m-20.6-.1c-1.8 0-4.1 1.7-6.1 5.2 0 .1-.1.1-.2.1s-.1 0-.1-.1v-.2c.2-.8.7-2.3.7-3 0-1.1-1.9-2-2.2-2-.2 0-.2.1-.3.3-1 5-3.1 13.3-3.1 13.7 0 .8 2.1 1.5 2.4 1.5.3 0 .3-.1.4-.4.8-2.8 1.6-6.5 2.9-8.7 1.6-2.7 3-3.7 4.2-3.7.9 0 1.1.6 1.1 1.4 0 .5-.1.9-.1 1.1 0 .2.1.2.3.2.7 0 2-2.1 2-3.7 0-1.1-.8-1.7-1.9-1.7m7.6-6.3c-.9 0-1.7.8-1.7 1.7 0 .9.8 1.7 1.7 1.7.9 0 1.7-.8 1.7-1.7 0-.9-.8-1.7-1.7-1.7m46.3-6.2H90.1l-4 2.6.4 1.5 1.2.8 2.5-1.6h6.6l2.5 1.6 1.2-.8.4-1.5-4.1-2.6zM19.5 49C9.4 49 0 54.7 0 59.8c0 3.4 3.9 4.7 8.5 4.7 4.9 0 12.1-1.8 20-3.9-1.2 7.3-4.7 20.2-4.7 20.6 0 .6 2.4 1.5 3 1.5.2 0 .3 0 .3-.3 1.1-4.8 4.4-17.1 4.6-22.7C42 57 53.2 54.2 62.3 54.2c6.7 0 7.7 2.4 7.7 3.6 0 .9-.7 1.1-.7 1.4 0 .2.2.3.4.3.9 0 2.8-.7 2.8-2.2 0-1.9-3.3-4.9-13.7-4.9-7.9 0-17.7 2.5-27.2 5-.8-4.9-4.7-8.4-12.1-8.4m105.4-1.2c-4.3 0-9 6.1-13 21.2-1.3 1-2.5 1.9-3.8 2.7l-.9.6V72c0-2.2-.7-4.5-3.3-4.5-2.2 0-4.4 1.6-6.3 5.2 0 .1-.1.1-.2.1 0 0-.1 0-.1-.1v-.2c.2-.7.7-2.3.7-3 0-1.1-1.9-2-2.2-2-.2 0-.2.1-.3.3-.3 1.5-.5 2.2-.9 3.3-1.6 5.2-4.3 9.9-5.9 9.9-.5 0-.7-.5-.7-1.3 0-2.4 2.2-7.7 2.2-9.8 0-1.3-.8-2.6-2.8-2.6-1.8 0-4.1 1.5-6.1 5-.1.1-.1.3-.2.3 0 0-.1 0-.1-.1 0 0 0-.2.1-.2.1-.6.3-1.4.3-2.2 0-1.3-.6-2.7-2.4-2.7-1.8 0-4.1 1.5-6.1 4.9-.1.1-.2.3-.2.3s-.1 0-.1-.1v-.3c.2-.8.6-2.3.6-2.9 0-1.1-1.9-2-2.2-2-.2 0-.2.1-.3.3-1 5-3.1 13.3-3.1 13.7 0 .8 2.1 1.5 2.4 1.5.3 0 .3-.1.4-.4.8-2.8 1.8-6.6 3.1-9 1.3-2.3 2.7-3.9 4-3.9.5 0 .8.3.8 1s-.4 2.2-.6 3.2c-.8 3.7-1.7 7.3-1.7 7.6 0 .8 2.1 1.5 2.4 1.5.3 0 .3-.1.4-.4.8-2.8 1.8-6.6 3.2-9 1.3-2.3 2.6-3.9 3.9-3.9.4 0 .8.2.8.9 0 2-2 6.2-2 9.4 0 1.8.9 3.1 2.7 3.1 2.4 0 4.2-2.2 6-6 0 0 0-.1.1-.1v.2c-.6 2.5-4.4 18.3-4.4 18.5 0 .8 2.1 1.5 2.4 1.5.3 0 .3-.1.4-.4 3-11.9 4.1-18.4 6.3-22.6 1.4-2.8 2.7-4.4 4.1-4.4.9 0 1.5.8 1.5 2.3 0 .9-.1 1.8-.3 2.7-1.2.8-2.5 1.5-3.5 2.3-1.9 1.4-3.2 2.7-3.2 4.2 0 1.2 1 1.9 2 1.9 4.3 0 7.6-4.5 8.2-9.3 1.5-.9 3-1.9 4.3-2.8-.1.3-.1.6-.2.9-1.4 5.7-2.2 9.5-2.2 9.8 0 .8 2.1 1.5 2.4 1.5.3 0 .3-.1.4-.4.8-2.8 1.8-6.3 3.1-8.6s2.8-4.3 4.3-4.3c.5 0 .9.2.9.9 0 .9-.4 2.2-1 4.2-.5 1.9-1 3.6-1 5 0 1.8 1 3.3 2.9 3.3 3.9 0 7.1-4.9 7.1-6.6 0-.3-.4-.7-.5-.7-.1 0-.1.1-.2.2-2.1 4.6-4.1 5.4-5 5.4-.7 0-1.1-.4-1.1-1.5 0-1.4.6-3.2 1-4.9.6-2.4 1.1-3.7 1.1-4.8 0-1.4-1-2.4-2.6-2.4-2.4 0-4.4 2-6.4 5.1l-.2.2s-.1 0-.1-.1.1-.3.1-.4c.4-1.7.9-3.3 1.3-4.8 5.7-4.8 12.3-11.1 12.3-16.5 0-2.2-.8-3.6-2.8-3.6m-46.3-6.9l-.7.8.3 1 1 .2.7-.8-.3-1-1-.2zm29.5 0l-1 .2-.3 1 .7.8 1-.2.3-1-.7-.8zm-9.7-4.3l-5 17.2h-.1l-5-17.2.6 17.7h-.1l-8.5-9.1 5.4 11.2 4-2.6H97l4 2.6 5.4-11.2-8.5 9.1h-.1l.6-17.7zm-11.3-5.4l-.7.8.3 1 1 .2.7-.8-.3-1-1-.2z"/></svg>