<svg id="Layer_1" xmlns="http://www.w3.org/2000/svg" viewBox="0 0 128 128"><style>.st0{fill:#fff}.st1{fill:#bcbdbe}.st2{fill:#666}.st3{fill:none;stroke:#d5d5d5;stroke-width:.3727;stroke-linecap:round;stroke-linejoin:round}.st4{fill:gray}.st5{fill:none;stroke:#676767;stroke-width:.213;stroke-miterlimit:10;stroke-dasharray:.5324,.5324}.st6{fill:none;stroke:#f3df69;stroke-width:.1857;stroke-linecap:round;stroke-linejoin:round}.st7{fill:#6c6c6c}</style><ellipse class="st0" cx="64" cy="64" rx="62.4" ry="64"/><path class="st1" d="M123.1 69.2h.1-.1zm-.2 0c-.1 0-.1 0 0 0zm0 0h-.1c.1-.1-.1-.1.1 0zm0-.9zm-.6-.2h-.1c.2.1 0 .1.1.1-.1.1.2.2.3.3h-.1c-.2 0 .1.1 0 .1h.2c.1.1.1.2.3.3h-.2c.4.1.2.2.1.2h.2c.1 0-.2-.1-.1-.1h.1s0-.1-.2-.1h.2-.2c.1-.1-.1-.2-.1-.4-.4-.1.1-.1 0-.2-.1 0-.1-.1-.1-.1h-.2c.3-.1.1-.3.3-.5.1-.2.4-.3-.1-.5h.1c-.1-.1.1-.1 0-.1-.3-.1.1-.2-.3-.4 0-.1 0-.3-.1-.5h.1c-.2-.1.3-.2.1-.3.2-.1-.4-.3-.2-.4.4-.1-.4-.2 0-.2.6-.1.2-.3-.1-.4.2-.1-.3-.3.1-.4-.3-.1.3-.1.3-.2h-.1c.3 0-.4-.1 0-.1h-.3.6-.6.2H121.9c.2 0 .1 0 0 0h-.1c-.2 0 .4 0 0 0 .1 0 .1.1.1.1h.2c-.3 0-.3 0-.3.1 0 0-.1 0 0 0-.3 0 .3 0-.1.1.3 0-.1 0 .3.1h-.2l-.1.1c.3 0-.1.1.2.1-.1 0-.2.1-.1.1 0 0 0 .1.3.1h-.4c.2 0 .1.1.3.1h-.2c.4.1.3.2-.1.3.1 0 .4 0 .6.1h-.1s-.2 0-.1.1h-.1c.1 0-.2 0 0 .1h-.1.1-.2c-.1.2.3.3.2.5h-.1c-.1 0 .1.1 0 .1h-.2c.2 0-.3 0 .2.1h-.2c.1.1.1.2.1.3.4.1 0 .2.3.2h-.1c.3.1 0 .2 0 .3l.1.1h-.1c.4.1-.3.1.1.2h-.1c.2 0-.1 0 .3.1h-.1c.5.1-.2.1.1.2h-.1c.1 0 .1 0 0 0h-.1c-.3 0 0 .1 0 .2h-.2c.2 0 0 .1.1.1h-.1.1-.1c.3-.1.4-.1.4 0zm.1.4zm-.5-4.4zm-1 17h-.1zm-.3-.1l.3.1c.2 0-.4-.1-.3-.1zm.1 0c.1 0-.1 0-.1-.1.1.1-.1.1.1.1zm.1-.8z"/><path class="st1" d="M120.3 79.8h-.1c.2.1 0 .1.1.2-.1.1.1.2.2.4h-.1c-.2 0 .1.1 0 .1 0 0 .1 0 .2.1 0 .1.1.2.2.3h-.2c.3.2.2.2.1.3.1 0 .1 0 .2.1.1 0-.2-.1 0-.1h.1c.1 0-.2-.1-.1-.1h.1s.1-.1-.1-.1h.2c-.1 0-.1 0-.2-.1.1-.1 0-.3 0-.4-.4-.2.1-.1 0-.2-.1 0-.1-.1-.1-.1l-.1-.1c.4-.1.2-.3.3-.4.1-.2.4-.2 0-.5h.1c-.1-.1.1-.1 0-.1-.3-.2.1-.2-.2-.4.1-.1.1-.3 0-.5h.1c-.1-.2.3-.2.2-.3.2-.1-.4-.3-.1-.4.4 0-.4-.3 0-.2.6 0 .3-.2 0-.5.2-.1-.3-.3.2-.4-.2-.1.4-.1.3-.1h-.1c.3 0-.4-.1 0-.1.2 0-.5-.1-.2-.1h-.1.1c.4.1-.1-.1.4 0 0 0 .2 0 .3.1.1 0 0 0-.2-.1-.2 0-.4-.1-.6-.1h.2H120.8c.2 0 .1 0 0 0h-.1c-.2 0 .4.1 0 0 .1.1.1.1 0 .2.1 0 0 0 .2.1h-.3s-.1 0 0 0c-.3 0 .3.1-.1 0 .3.1-.1 0 .2.1h-.2s-.1.1-.2.1c.2.1-.1 0 .2.1-.1 0-.2 0-.1.1 0 0 0 .1.2.2-.3-.1-.3 0-.4 0 .2.1.1.1.2.2h-.2c.4.2.2.3-.1.3.1 0 .4.1.5.2h-.4c.1 0-.2 0 0 .1h-.1.1-.2c-.1.1.2.4.1.6h-.1l.1.1h-.1c-.1 0 .1.1 0 .1h-.1c.2.1-.3 0 .1.1h-.1c.1.1.1.2 0 .3.4.2 0 .2.3.3h-.1c.2.2-.1.2 0 .3v.1h-.1c.3.2-.4.1 0 .2h-.1c.2.1-.1 0 .3.1h-.1c.4.2-.2 0 0 .2h-.1c.1 0 .1.1 0 .1h-.1c-.3 0 0 .1 0 .2h-.1c.2.1 0 .1.1.1h-.1.1-.1c.4-.8.5-.7.5-.7zm.1.5c-.1 0-.1 0 0 0zm.3-4.5zm-4.4 16.5h-.1zm-.3-.2l.2.2c.3.1-.3-.2-.2-.2zm.1 0c.1 0-.1-.1-.1-.1.1.1-.1.1.1.1zm.3-.7z"/><path class="st1" d="M116 90.9l-.1-.1c.1.2-.1.1.1.1l-.1.1c-.1.1.1.3.1.4h-.1l.1.1h-.1c-.2-.1.1.1-.1.1 0 0 .1.1.2.1 0 .1 0 .2.1.4 0 0-.1 0-.1-.1.3.2.1.2 0 .3.1 0 .1 0 .2.1.1 0-.2-.1 0-.1h.1c.1 0-.2-.1-.1-.1s.1.1.1.1.1 0-.1-.2c.2.1 0 0 .2 0-.1 0 0 0-.2-.1.1-.1 0-.3.1-.4-.3-.2.1-.1 0-.2s-.1-.1 0-.1l-.1-.1c.4 0 .2-.2.4-.3.2-.1.5-.1.1-.5h.1c0-.1.1-.1 0-.1-.2-.2.1-.2-.1-.5.1-.1.1-.3.1-.4h.1c-.1-.2.3-.1.3-.3.2 0-.3-.4 0-.4.4.1-.3-.3.1-.2.6.1.3-.2.1-.4.2 0-.2-.4.3-.3-.2-.2.4 0 .3-.1h-.1c.3.1-.3-.2.1-.1.2.1-.5-.2-.2-.1h-.1s.1 0 .2.1c0 0-.2-.1-.1-.1.4.2-.1-.1.4.1 0 0 .2.1.3.1l-.2-.1c-.2-.1-.4-.2-.5-.2l.1.1c-.1-.1-.1 0-.2-.1 0 0-.2-.1-.3-.1.2.1.1.1 0 0h-.1c-.2-.1.3.2 0 0 .1.1 0 .1 0 .2.1.1 0 0 .2.1-.2-.1-.3-.1-.3-.1-.3-.1.3.2-.1 0 .3.1-.1 0 .2.2-.1 0-.1 0-.2-.1 0 0-.1 0-.2.1.2.1-.1 0 .2.2h-.1s0 .1.2.2c-.3-.1-.3-.1-.4-.1l.2.2c-.1-.1 0 .1-.2 0 .4.3.2.3-.2.3.1.1.4.2.5.3h-.4c.1.1-.2 0 0 .1h-.1.1c-.1 0-.2-.1-.1-.1-.1.1.1.4 0 .6h-.1l.1.1h-.1c-.1 0 0 .1 0 .1l-.1-.1c.2.1-.3-.1.1.1l-.1-.1c.1.1 0 .2-.1.3.3.2 0 .2.2.4h-.1c.2.2-.1.2-.1.3v.1h-.1c.3.2-.4 0 0 .2l-.1-.1c.2.1-.1 0 .2.2h-.1c.4.3-.2 0 0 .2h-.1c.1 0 .1.1 0 .1h-.1c-.3-.1 0 .1-.1.2l-.1-.1c.2.1 0 .1 0 .1h-.1l.1.1-.1-.1c.2-.6.3-.5.3-.5zm-.1.5zm1.2-4.3c.1 0 .1 0 0 0 0 0 .1 0 0 0zm-7.6 15.2v.1l-.1-.1zm-.2-.2l.2.2c.2.1-.3-.3-.2-.2z"/><path class="st1" d="M109.3 102.1c.1 0-.1-.1-.1-.1l.1.1zm.5-.7z"/><path class="st1" d="M109.5 100.9l-.1-.1c.2.2-.1.1 0 .2-.1.1 0 .3 0 .4h-.1l.1.1-.1-.1c-.2-.1.1.1-.1 0l.1.1c0 .1 0 .2.1.4l-.1-.1c.2.3.1.3 0 .3.1.1.1.1.2.1.1.1-.2-.2 0-.1l.1.1c.1 0-.2-.1-.1-.1s.1.1.1.1c0-.1.1 0-.1-.2l.2.1c-.1-.1 0-.1-.1-.1.2 0 .1-.2.2-.3-.3-.3.1-.1.1-.2-.1-.1-.1-.1 0-.1l-.1-.1c.4.1.3-.2.5-.2.2-.1.5 0 .2-.5h.1c0-.1.1 0 .1-.1-.2-.3.2-.2 0-.5.1-.1.2-.2.2-.4h.1c-.1-.2.3 0 .3-.2.2 0-.2-.5.1-.4.3.2-.2-.4.1-.2.6.2.3-.1.1-.4.3 0-.1-.4.3-.3-.2-.2.4.1.3 0l-.2-.1c.2.1-.3-.3.1 0 .2.1-.4-.3-.2-.2l-.1-.1.1.1s-.2-.1-.1-.1c.4.2-.1-.1.3.2 0 0 .2.1.2.2l-.1-.1c-.2-.1-.3-.2-.5-.3l.1.1c-.1-.1-.1 0-.2-.1 0 0-.2-.1-.3-.2.2.1 0 .1 0 .1h-.1c-.2-.1.3.2 0 0v.2c.1.1 0 0 .2.1-.2-.1-.3-.2-.3-.1-.3-.2.2.2-.1 0 .2.2-.1 0 .2.2-.1 0-.1-.1-.1-.1h-.2c.2.2-.1 0 .1.2-.1 0-.2-.1-.1 0 0 0 0 .1.2.2-.3-.2-.2-.1-.3-.2.1.1 0 .1.1.2-.1-.1 0 .1-.2-.1.3.3.1.3-.2.2l.4.4s-.2-.1-.1 0h-.1c.1.1-.2-.1 0 0h-.1l.1.1c-.1 0-.2-.1-.1-.1-.2.1.1.5-.1.6h-.1l.1.1h-.1c-.1 0 0 .1 0 .1l-.1-.1c.1.2-.2-.1.1.1l-.1-.1c.1.2 0 .2-.1.2.3.3-.1.1.1.4h-.1c.2.2-.1.1-.2.3v.1l-.1-.1c.3.3-.4-.1-.1.2l-.1-.1c.2.1-.1 0 .2.2l-.1-.1c.3.3-.2-.1 0 .2l-.1-.1c0 .1.1.1 0 .1-.3-.2 0 .1-.1.1l-.1-.1c.1.1 0 .1 0 .1h-.1.1v-.2c-.1 0 0 .1 0 .2zm-.2.4zm2.1-3.9zm-10.5 13.4l-.1-.1zm-.2-.3l.2.2c.1.2-.3-.3-.2-.2zm0 .1c.1.1 0-.1-.1-.1.1 0 0-.1.1.1zm.6-.6zM101.1 109.4l-.1-.1c.1.2-.1.1 0 .2-.1 0 0 .3-.1.4v-.1l.1.1v-.1c-.2-.2 0 .2-.1 0l.1.1c0 .1-.1.2 0 .4l-.1-.1c.2.3 0 .3-.1.3.1.1.1.1.1.2.1.1-.1-.2 0-.1l.1.1s-.1-.2-.1-.1l.1.1c0-.1.1 0 0-.2.1.1 0 0 .2.1 0-.1 0-.1-.1-.2.2 0 .1-.2.2-.3-.2-.3.1 0 .1-.2v-.1l-.1-.1c.3.2.3-.1.5-.1s.5.1.3-.4v.1c0-.1.1 0 .1-.1-.1-.3.2-.1.1-.5.1-.1.2-.2.3-.4l.1.1c0-.2.3 0 .3-.1.2 0-.1-.5.1-.4.3.2-.2-.4.2-.2.5.3.4 0 .2-.4.2.1 0-.4.4-.2-.1-.2.3.2.3.1l-.1-.1c.2.2-.2-.3.1 0 .2.1-.3-.4-.1-.2l-.1-.1.1.1-.1-.1c.3.3 0-.1.3.3l.2.2-.1-.2c-.1-.2-.3-.3-.4-.4l.1.1-.1-.1s-.2-.2-.3-.2c.1.1 0 .1 0 .1l-.1-.1c-.1-.1.2.3 0 0 0 .1 0 .1-.1.1.1.1 0 0 .1.2-.2-.2-.3-.2-.3-.2-.3-.2.2.3-.1 0 .2.2-.1 0 .1.2l-.1-.1h-.2c.2.2-.1 0 .1.2-.1 0-.2-.1-.1 0 0 0 0 .1.1.3l-.3-.3c.1.1 0 .1.1.3-.1-.1 0 .1-.1-.1.2.4 0 .4-.3.2.1.1.3.3.4.5 0 0-.2-.1-.1-.1v-.1c.1.1-.2-.1 0 0v.1l-.1-.1c-.2.1 0 .5-.2.5v-.1l.1.1v-.1c-.1-.1 0 .1-.1.1l-.1-.1c.1.2-.2-.2.1.2l-.1-.1c0 .2 0 .2-.2.2.2.3-.1.1.1.4l-.1-.1c.1.3-.2.1-.2.2-.1 0 0 .1 0 .1l-.1-.1c.2.3-.3-.2-.1.2l-.1-.1c.1.2-.1 0 .2.2l-.1-.1c.3.4-.2-.1-.1.2l-.1-.1v.1c-.3-.2-.1.1-.1.1l-.1-.1c.1.2 0 .1 0 .1v-.1l.1.1-.1-.1c-.3 0-.3.1-.3.2zm-.2.4zm2.8-3.5zM90.7 117.3v.1-.1zm-.1-.2s0-.1 0 0l.1.3c.1.1-.2-.4-.1-.3z"/><path class="st1" d="M90.6 117.1c0 .1 0-.1-.1-.1.1.1 0-.1.1.1zm.7-.5zm-.1-.6l-.1-.1c.1.2-.1 0-.1.2-.1 0-.1.3-.1.4v-.1s.1.1 0 .1v-.1c-.1-.2 0 .2-.1 0 0 0 0 .1.1.2 0 .1-.1.2-.1.4 0 0 0-.1-.1-.1.1.4 0 .3-.1.3 0 .1.1.1.1.2.1.1-.1-.2 0-.1v.1s-.1-.2 0-.1c0 .1.1.1.1.1s.1 0 0-.2c.1.2 0 0 .1.1 0-.1 0-.1-.1-.2.2 0 .2-.2.3-.2-.1-.4.1 0 .1-.1v-.1l-.1-.2c.3.2.3-.1.5 0 .2 0 .5.2.4-.4v.1c0-.1.1 0 .1-.1 0-.3.2-.1.2-.4.1 0 .3-.1.3-.3v.1c0-.2.3.1.4-.1.2.1 0-.5.2-.4.3.3-.1-.5.2-.2.4.4.4 0 .3-.3.2.1.1-.4.4-.1-.1-.3.3.2.3.1l-.1-.1c.2.2-.2-.4.1 0l-.1-.2-.1-.1.1.1s-.1-.2-.1-.1c.2.4 0-.1.2.3l.1.2-.1-.2c-.1-.2-.2-.4-.3-.5l.1.1c-.1-.1 0-.1-.1-.2 0 0-.2-.2-.2-.3.1.2 0 .1 0 .1v-.1c-.1-.2.2.3 0 0 0 .1 0 .1-.1.1.1.1 0 0 .1.2-.2-.2-.2-.3-.2-.2-.2-.3.1.3-.1-.1.2.3-.1-.1.1.2 0-.1-.1-.1-.1-.2 0 0-.1-.1-.2 0 .1.2-.1-.1 0 .3-.1-.1-.2-.2-.1 0v.3c-.2-.3-.2-.2-.2-.3.1.1 0 .1 0 .3-.1-.1 0 .1-.1-.1.1.4 0 .4-.3.1.1.1.2.4.3.5v-.1l-.1-.1v-.1c0 .1-.1-.1-.1 0v-.1.1c0-.1-.1-.2-.1-.1-.2 0-.1.4-.3.5v-.1c-.1-.1 0 .1-.1.1 0 0 0-.1-.1-.1.1.2-.2-.2 0 .2l-.1-.1c0 .2-.1.2-.2.2.1.4-.1.1 0 .4v-.1c.1.3-.2.1-.2.2-.1 0 0 .1-.1.1v-.1c.1.4-.3-.2-.2.2l-.1-.1c.1.2-.1 0 .1.3l-.1-.1c.2.4-.2-.1-.1.2v-.1c-.2-.3-.1.1-.1.1l-.1-.1c.1.2-.1 0 0 .1v-.1.1l-.1-.1c.3 0 .4.2.3.2zm-.3.4zm3.5-2.8zM79.4 121.7v.1-.2zm0-.3v.3c.1.2-.1-.4 0-.3zm0 .1v-.1.1zm.8-.4zm0-.6v-.1c0 .2-.1 0-.1.1-.1 0-.1.2-.2.4v-.1c-.1-.2 0 .2-.1 0v.2c-.1.1-.1.1-.2.3v-.2c0 .4-.1.3-.2.2 0 .1 0 .1.1.2s0-.2 0-.1v.1c0 .1-.1-.2 0-.1v.1s.1 0 0-.2l.1.2v-.2c.1.1.2-.2.3-.2-.1-.4.1 0 .2-.1 0-.1 0-.1.1-.1v-.2c.2.3.3 0 .5.1.2 0 .4.2.5-.3v.1c0-.1.1 0 .1-.1 0-.3.3 0 .3-.4.1 0 .3-.1.4-.2v.1c.1-.2.3.2.4 0 .2.1.1-.5.3-.3.2.3 0-.5.2-.1.3.5.3.1.4-.3.2.2.1-.4.4 0 0-.3.2.3.3.2v-.1c.1.3-.1-.4.1 0 .1.2-.1-.5 0-.2v-.1s0 .1.1.1c0 0-.1-.2 0-.1.2.4 0-.1.2.4 0 0 .1.2.1.3v-.2c-.1-.2-.1-.4-.2-.5l.1.2c-.1-.1 0-.1-.1-.2 0 0-.1-.2-.2-.3.1.2 0 .1 0 .1v-.1c-.1-.2.1.3 0 0 0 .1-.1.1-.1.1 0 .1 0 0 .1.2-.1-.2-.2-.3-.2-.3s0-.1 0 0c-.1-.3.1.3-.1-.1.1.3-.1-.1 0 .3 0-.1 0-.1-.1-.2 0 0-.1-.1-.2-.1.1.3-.1-.1 0 .3 0-.1-.1-.2-.1-.1 0 0-.1.1 0 .3-.1-.3-.1-.3-.2-.4v.3c-.1-.1 0 .1-.1-.1.1.5-.1.3-.3.1 0 .1.1.4.1.6v-.1s-.1-.2-.1-.1v-.1c0 .1-.1-.2-.1 0v-.1.1c0-.1-.1-.2 0-.2-.2 0-.2.4-.4.4v-.1c-.1-.1-.1.1-.1.1v-.1c0 .2-.1-.2 0 .2v-.1c0 .2-.1.2-.2.1.1.4-.1.1-.1.4v-.1c0 .3-.2 0-.3.1 0 0 0 .1-.1.1v-.1c0 .4-.2-.3-.2.1v-.1c0 .2-.1-.1 0 .3v-.1c.1.5-.1-.2-.1.1v-.1c-.1-.3-.1.1-.1.1v-.2c0 .2-.1 0-.1.1v-.1.1-.1c-.7.2-.7.3-.8.3zm-.4.3zm4-2.1c0 .1 0 .1 0 0 0 0 0 .1 0 0zM67.5 123.7v.1-.2zm0-.3zm0 .1v-.1.1zm.8-.2zm.2-.6v-.1c0 .2-.1 0-.1.1-.1 0-.2.2-.3.3v-.1c0-.2-.1.1-.1 0v.2c-.1.1-.2.1-.2.3v-.2c0 .4-.1.2-.2.2v.2c0 .1 0-.2.1-.1v.1s.1 0 .1-.2c0 .2 0 0 .1.2v-.2c.1.1.2-.1.4-.1 0-.4.1.1.2-.1 0-.1 0-.1.1-.1v-.2c.2.3.3.1.5.2s.4.3.5-.2v.1c0-.1.1 0 .1 0 .1-.3.3 0 .3-.3.1 0 .3 0 .4-.1v.1c.1-.2.3.2.4.1.1.2.2-.5.3-.2.1.4.1-.4.2-.1.2.6.3.2.4-.2.2.2.2-.3.4.1 0-.3.2.3.2.2v-.1c.1.3 0-.4.1 0v-.4.1c.1.4 0-.1.1.4v.1c0-.2 0-.4-.1-.6s-.1-.2-.1-.3v.1-.1c0-.2 0 .4 0 0 0 .1-.1.1-.1.1v.2l-.1-.3s0-.1 0 0c-.1-.3 0 .3-.1-.1 0 .3-.1-.1 0 .3v-.2l-.1-.1c0 .3-.1-.1-.1.3 0-.1-.1-.2-.1-.1 0 0-.1 0-.1.3-.1-.3-.1-.3-.1-.4 0 .2-.1.1-.1.3 0-.2 0 .1-.1-.2 0 .5-.2.3-.3 0v.5s-.1-.2-.1-.1v-.1c0 .1-.1-.2-.1 0v-.2c-.2-.1-.3.4-.5.3v-.1c-.1-.1-.1.1-.1.1v-.2c0 .2-.1-.3 0 .2v-.2c-.1.2-.2.2-.2.1 0 .4-.1.1-.2.4v-.1c-.1.3-.2 0-.3.1l-.1.1v-.1c0 .4-.2-.3-.2.1v-.1c0 .2-.1-.1 0 .3v-.1c0 .5-.1-.2-.1.1v-.1c0 .1 0 .1 0 0v-.1c-.1-.3-.1 0-.2 0v-.2c0 .2-.1 0-.1.1v-.1.1-.1c-.2 0-.2.2-.3.2zm-.4.2zm4.3-1.2zM55.4 123.3v-.1zm.1-.3l-.1.3c0 .2.1-.4.1-.3zm0 0v-.1.1zm.8 0c0 .1 0 .1 0 0zm.3-.5v-.1c-.1.2-.1 0-.1.1-.1-.1-.2.2-.3.2v-.1c0-.2-.1.1-.1 0v.2c-.1 0-.2.1-.3.2v-.2c-.1.3-.2.2-.2.1v.2c0 .1.1-.2.1-.1v.1s.1.1.1-.2c.1.1.3-.1.4 0 .1-.4.1.1.2 0 0-.1.1-.1.1-.1v-.2c.1.3.3.1.5.3.2.1.3.4.5-.1v.1c.1-.1.1.1.1 0 .2-.3.2.1.4-.3.1 0 .3 0 .5-.1v.1c.1-.1.2.3.3.2.1.2.3-.4.4-.2 0 .4.2-.4.2 0 .1.6.3.2.4-.1.1.2.3-.3.4.1.1-.3.1.3.2.3v-.1c0 .3.1-.4.1 0 0 .2.1-.5.1-.2v-.5c0 .2 0 .1 0 0v-.1c0-.2 0 .4 0 0 0 .1-.1.1-.1.1v-.1s0-.1 0 0v-.1c0 .3 0-.1-.1.3v-.2l-.1-.1c0 .3-.1-.1-.1.2 0-.1 0-.2-.1-.1 0 0-.1 0-.1.3v-.4c0 .2-.1.1-.1.2v-.2c-.1.4-.2.3-.3-.1 0 .1-.1.4-.1.6V122.1c0 .1 0-.2-.1 0v-.2c-.2-.1-.4.3-.5.2v-.1c0-.1-.1.1-.1 0v-.2c0 .2 0-.3-.1.2v-.2c-.1.1-.2.1-.3 0-.1.4-.2 0-.3.3v-.1c-.1.3-.2 0-.3 0l-.1.1v-.1c-.1.4-.1-.3-.2.1v-.1c0 .2 0-.1-.1.3v-.1c-.1.5-.1-.2-.2.1v-.1c0 .1 0 .1-.1 0v-.1c0-.3-.1 0-.2 0v-.2c0 .2-.1 0-.1.1v-.1.1-.1c-.1.5-.2.6-.2.6zm-.5.1zm4.5-.3zM43.6 120.4v.1l.1-.1z"/><path class="st1" d="M43.8 120.2s0-.1 0 0l-.1.2c-.1.2.1-.3.1-.2zm0 0c0 .1 0-.1.1-.1-.1.1-.1-.1-.1.1zm.8.2z"/><path class="st1" d="M45 119.9v-.1c-.1.2-.1 0-.2.1-.1-.1-.3.1-.4.2v-.1l-.1.1v-.1c0-.2-.1.1-.1-.1 0 0 0 .1-.1.2-.1 0-.2 0-.3.2 0 0 0-.1.1-.2-.2.3-.2.2-.3.1 0 .1 0 .1-.1.2 0 .1.1-.2.1 0v.1c0 .1.1-.2.1-.1v.1s.1.1.2-.1c-.1.2 0 0 0 .2 0-.1 0 0 .1-.2.1.1.3 0 .4 0 .2-.3.1.1.2 0l.1-.1.1-.1c0 .4.3.2.4.4.1.1.2.5.5 0v.1c.1-.1.1.1.1 0 .2-.3.2.1.4-.2.1.1.3.1.5 0v.1c.2-.1.2.3.3.2.1.2.4-.3.4-.1 0 .4.3-.4.2 0 0 .6.2.3.5 0 .1.2.3-.2.4.2.1-.2 0 .4.1.3v-.1c0 .3.2-.4.1 0 0 .2.2-.5.1-.2v-.1.2s.1-.2 0-.1c-.1.4.1-.1-.1.4 0 0 0 .2-.1.3l.1-.2c.1-.2.1-.4.1-.6s0-.3.1-.3c-.1.2 0 .1 0 0v-.1c0-.2-.1.3 0 0-.1.1-.1 0-.2 0 0 .1 0 0-.1.2.1-.3 0-.3 0-.3s0-.1 0 0c.1-.3-.1.3 0-.1-.1.3 0-.1-.1.2v-.2s-.1-.1-.1-.2c-.1.2 0-.1-.2.2 0-.1 0-.2-.1-.1 0 0-.1 0-.2.2.1-.3 0-.3.1-.4l-.2.2v-.2c-.2.4-.3.2-.3-.1 0 .1-.1.4-.2.5v-.4c0 .1 0-.2-.1 0v-.1.1c0-.1.1-.2.1-.2-.1-.1-.4.2-.6.1v-.1l-.1.1v-.1c0-.1-.1.1-.1 0v-.1c-.1.2 0-.3-.1.1v-.1c-.1.1-.2.1-.3 0-.2.4-.2 0-.3.3v-.1c-.2.2-.2-.1-.3-.1h-.1v-.1c-.2.3 0-.4-.2 0v-.1c-.1.2 0-.1-.1.3v-.1c-.2.4 0-.2-.2 0v-.1c0 .1-.1.1-.1 0v-.1c.1-.3-.1 0-.2 0l.1-.1c-.1.2-.1 0-.1.1v-.1.1-.1c.5.4.4.5.4.5zm-.5 0zm4.4.6zM32.7 115.3v-.1zm.2-.3l-.2.2c-.1.2.2-.3.2-.2zm0 .1c0 .1.1-.1.1-.1-.1.1 0-.1-.1.1zm.7.3z"/><path class="st1" d="M34.1 115l.1-.1c-.2.2-.1 0-.1.1l-.1-.1c-.1-.1-.3 0-.4.1v-.1l-.1.1v-.1c.1-.2-.1.1-.1-.1 0 0-.1.1-.1.2-.1 0-.2 0-.4.1 0 0 0-.1.1-.1-.2.3-.2.1-.3 0-.1.1 0 .1-.1.2 0 .1.2-.2.1 0v.1c0 .1.1-.2.1-.1s-.1.1-.1.1 0 .1.2-.1l-.1.2c0-.1 0 0 .1-.2.1.1.3 0 .4.1.2-.3.1.1.2 0s.1-.1.1 0l.1-.1c0 .4.2.2.3.4.1.2.1.5.5.1v.1c.1 0 .1.1.1.1.3-.2.2.2.5-.1.1.1.3.1.4.1v.1c.2-.1.1.3.3.3 0 .2.4-.3.4 0-.1.4.3-.3.2.1-.1.6.2.3.4.1 0 .2.4-.2.3.3.2-.2 0 .4.1.3v-.1c-.1.3.2-.3.1.1l.1-.2v-.1s-.1.1-.1.2c0 0 .1-.2.1-.1-.2.4.1-.1-.1.4 0 0-.1.2-.1.3l.1-.1c.1-.2.2-.4.3-.5l-.1.1c.1-.1 0-.1.1-.2 0 0 .1-.2.1-.3-.1.2-.1.1-.1 0v-.1c.1-.2-.2.3 0 0-.1.1-.1 0-.2 0-.1.1 0 0-.1.2.1-.2.1-.3.1-.3.1-.3-.2.3 0-.1-.1.3 0-.1-.2.2 0-.1.1-.1.1-.2 0 0 0-.1-.1-.2-.1.2 0-.1-.2.2 0-.1.1-.2 0-.1 0 0-.1 0-.2.2.1-.3.1-.3.1-.4l-.2.2c.1-.1-.1 0 0-.2-.3.4-.3.2-.3-.2-.1.1-.2.3-.3.5v-.1s.1-.2 0-.2v-.1c-.1.1.1-.2 0 0v-.1l-.1.1c0-.1.1-.2.1-.1-.1-.1-.4.1-.6 0v-.1l-.1.1v-.1c0-.1-.1 0-.1 0l.1-.1c-.1.2.1-.3-.1.1l.1-.1c-.1.1-.2 0-.3-.1-.3.3-.2 0-.4.2v-.1c-.2.2-.2-.1-.3-.1h-.1v-.1c-.2.3 0-.4-.2 0l.1-.1c-.1.2 0-.1-.2.2v-.1c-.3.4 0-.2-.2 0v-.1s-.1.1-.1 0c.1-.3-.1 0-.2-.1l.1-.1c-.1.1-.1 0-.1 0v-.1l-.1.1.1-.1c.8-.1.7 0 .6 0zm-.5-.1zm4.3 1.5s-.1 0 0 0zM23 108l.1-.1zm.2-.2c.1 0 .1 0 0 0l-.2.2c-.1.2.3-.3.2-.2z"/><path class="st1" d="M23.2 107.8c0 .1.1-.1.1-.1l-.1.1zm.7.5zm.6-.3c-.1.1 0-.2-.1-.1 0-.1-.3 0-.4 0l-.1.1.1-.1c.1-.2-.1.1 0-.1l-.1.1h-.4l.1-.1c-.3.2-.3.1-.3 0l-.1.1c-.1.1.2-.1.1 0l-.1.1c0 .1.2-.2.1-.1 0 .1-.1.1-.1.1.1 0 0 .1.2-.1l-.1.2c.1-.1.1 0 .1-.1 0 .2.2.1.3.2.3-.2 0 .1.2.1.1-.1.1-.1.1 0l.1-.1c-.1.3.2.3.2.5.1.2 0 .5.5.2l-.1.1c.1 0 0 .1.1.1.3-.2.2.2.5 0 .1.1.2.2.4.2v.1c.2 0 0 .3.2.3 0 .2.5-.2.4.1-.2.3.4-.2.2.1-.3.5.1.3.4.2 0 .2.4-.1.2.3.2-.2-.1.3 0 .3l.1-.1c-.2.2.3-.3 0 .1-.1.2.3-.4.2-.2l.1-.1-.1.1s.1-.2.1-.1c-.3.3.1 0-.2.3 0 0-.1.2-.2.2l.1-.1c.1-.2.3-.3.4-.5l-.1.1c.1-.1 0-.1.1-.2 0 0 .1-.2.2-.3-.1.1-.1 0-.1 0l.1-.1c.1-.2-.2.3 0 0h-.2l-.2.2c.2-.2.2-.3.2-.3.2-.3-.2.2 0-.1-.2.2 0-.1-.2.2 0-.1.1-.1.1-.1v-.2c-.2.2 0-.1-.2.1 0-.1.1-.2 0-.1 0 0-.1 0-.2.1.2-.3.2-.2.2-.3-.1.1-.1 0-.2.1.1-.1-.1 0 .1-.1-.4.3-.4.1-.2-.2l-.4.4s.1-.2 0-.1v-.1c-.1.1.1-.2 0 0l-.1.1c0-.1.1-.1.1-.1-.1-.2-.5 0-.6-.1l.1-.1-.1.1.1-.1c.1-.1-.1 0-.1 0l.1-.1c-.2.1.1-.2-.2.1l.1-.1c-.2.1-.2 0-.2-.1-.3.3-.1-.1-.4.1l.1-.1c-.3.1-.1-.1-.3-.2 0-.1-.1 0-.1 0l.1-.1c-.3.2.1-.3-.2-.1l.1-.1c-.1.1 0-.1-.2.2l.1-.1c-.3.3.1-.2-.2 0l.1-.1c-.1 0-.1.1-.1 0 .2-.3-.1 0-.1-.1l.1-.1c-.1.1-.1 0-.1 0l.1-.1-.3-.1h.2c-.1 0-.2.1-.2 0zm-.5-.1zm3.9 2.2c-.1 0-.1.1 0 0 0 0-.1 0 0 0zM15 98.9v.1l.1-.1zm.3-.1l-.3.2c-.1.1.4-.3.3-.2zm-.1 0c-.1.1.1 0 .1-.1-.1.1.1 0-.1.1zm.6.6c0 .1 0 .1 0 0zm.6-.1l.1-.1c-.2.1 0-.1-.2 0 0-.1-.3-.1-.4-.1h.1l-.1.1h.1c.2-.1-.2 0 0-.1 0 0-.1.1-.2.1s-.2-.1-.4 0l.1-.1c-.3.2-.3 0-.3-.1-.1.1-.1.1-.2.1-.1.1.2-.1.1 0l.1-.1s.2-.1.1 0c-.1 0-.1.1-.1.1.1 0 0 .1.2 0-.2.1 0 0-.1.2.1 0 .1 0 .2-.1 0 .2.2.1.3.2.3-.2 0 .1.2.1h.1l.1-.1c-.2.3.1.3.1.5s-.1.5.4.3h-.1c.1 0 0 .1.1.1.3-.1.1.2.5.1.1.1.2.2.4.3h-.1c.2 0 0 .3.1.4-.1.2.5-.1.4.2-.2.3.4-.1.2.2-.4.5 0 .4.4.3-.1.2.4 0 .2.4.2-.1-.2.3-.1.3l.1-.1c-.2.2.3-.2 0 .1-.2.2.4-.3.2-.1l.1-.1-.1.1.1-.1c-.3.3.1 0-.3.3l-.2.2.2-.1c.2-.1.3-.3.4-.4l-.1.1.1-.1s.2-.2.2-.3c-.2.1-.1 0-.1 0l.1-.1c.1-.1-.3.2 0 0-.1 0-.1 0-.1-.1-.1.1 0 0-.2.1.2-.2.2-.3.2-.3.2-.2-.3.2 0-.1-.2.2 0-.1-.2.1.1 0 .1-.1.1-.1v-.2c-.2.1 0-.1-.2.1 0-.1.1-.2 0-.1 0 0-.1 0-.3.1.3-.2.2-.2.3-.3-.1.1-.1 0-.3.1.1-.1-.1 0 .1-.1-.4.2-.4 0-.2-.3-.1.1-.3.2-.5.3l.1-.1h.1c-.1.1.1-.1 0-.1h-.1c.1 0 .1-.1.1-.1 0-.2-.5-.1-.5-.2h.1l-.1.1h.1c.1-.1-.1 0-.1-.1l.1-.1c-.2.1.2-.2-.2.1l.1-.1c-.2 0-.2-.1-.2-.2-.4.2-.1-.1-.4 0h.1c-.3.1-.1-.2-.2-.2 0-.1-.1 0-.1 0l.1-.1c-.3.2.2-.3-.2-.1l.1-.1c-.2.1 0-.1-.2.1l.1-.1c-.4.2.1-.2-.2-.1h.1-.1c.2-.2-.1-.1-.1-.1l.1-.1c-.2.1-.1 0-.1 0h.1-.1l.1-.1c-.1-.1-.3-.1-.3-.1zM16 99zm3.3 3zM9 88.5h-.1l.1-.1zm.2-.1c.1 0 .1 0 0 0l-.2.1.2-.1zm0 0h.1c-.1 0 .1-.1-.1 0zm.5.7c-.1 0-.1 0 0 0z"/><path class="st1" d="M10.3 89.1l.1-.1c-.2.1 0-.1-.1-.1 0-.1-.2-.1-.4-.2h.1c.2-.1-.2 0 0-.1 0 0-.1 0-.2.1-.1-.1-.2-.1-.4-.1 0 0 .1 0 .1-.1-.4.1-.3 0-.2-.1-.1 0-.1 0-.2.1s.2-.1.1 0h-.1s.2-.1.1 0c-.1 0-.1 0-.1.1 0 0 0 .1.2 0l-.2.1c.1 0 .1 0 .2-.1 0 .1.2.2.2.3.4-.1 0 .1.1.1h.3c-.2.3.1.3 0 .5 0 .2-.2.5.4.4h-.1c.1 0 0 .1.1.1.3 0 .1.2.4.2 0 .1.1.3.3.4h-.1c.2 0-.1.3.1.4-.1.2.5 0 .3.2-.3.2.5 0 .1.2-.4.6 0 .6.4.5-.1.2.4.1.1.4.3-.1-.2.3-.1.3h.1c-.2.2.4-.1 0 .1-.2.1.5-.2.2-.1h.1l-.1.1s.2-.1.1-.1c-.4.2.1 0-.3.2 0 0-.2.1-.3.1l.2-.1c.2-.1.4-.2.5-.3l-.1.1c.1-.1.1 0 .2-.1 0 0 .2-.1.3-.2-.2.1-.1 0-.1 0h.1c.2-.1-.3.2 0 0-.1 0-.1 0-.1-.1-.1.1 0 0-.2.1.2-.1.3-.2.3-.2.3-.2-.3.1.1-.1-.3.1.1-.1-.2.1.1 0 .1-.1.2-.1 0 0 .1-.1.1-.2-.2.1.1-.1-.3 0 .1-.1.2-.2 0-.1 0 0-.1-.1-.3 0 .3-.2.2-.2.3-.2-.2.1-.1 0-.3 0 .1-.1-.1 0 .1-.1-.4.1-.4-.1-.1-.3-.1.1-.4.2-.5.2h.1l.1-.1h.1c-.1 0 .1-.1 0-.1h.1-.1c.1 0 .2-.1.2-.1 0-.2-.4-.2-.5-.3h.1-.1.1c.1-.1-.1 0-.1-.1 0 0 .1 0 .1-.1-.2.1.2-.2-.2 0l.1-.1c-.2 0-.2-.1-.2-.2-.4.1-.1-.1-.4 0h.1c-.3 0-.1-.2-.2-.3 0-.1-.1 0-.1-.1h.1c-.4.1.2-.3-.2-.2l.1-.1c-.2.1 0-.1-.3.1l.1-.1c-.4.2.2-.2-.1-.1h.1-.1.1c.3-.2-.1-.1-.1-.1l.1-.1c-.2.1 0-.1-.1-.1h.1-.1l.1-.1c-.4.1-.5.1-.5.1zm-.4-.4zm2.7 3.6zM5.2 77h-.1.2zm.3 0s0-.1 0 0h-.3c-.2 0 .4-.1.3 0z"/><path class="st1" d="M5.4 77h.1c-.1 0 .1-.1-.1 0zm.3.8z"/><path class="st1" d="M6.3 77.8h.1c-.2 0 0-.1-.1-.1 0-.1-.2-.2-.3-.2h.1c.2-.1-.2 0 0-.1h-.2c-.1-.1-.1-.1-.3-.2h.2c-.4 0-.2-.1-.2-.2h-.2c-.1 0 .2 0 .1.1h-.1s0 .1.2.1l-.2.1h.2c-.1.1.1.2.2.3.4 0 0 .1.1.2.1 0 .1 0 .1.1h.2c-.3.2 0 .3-.1.5 0 .2-.3.4.3.5h-.1c.1 0 0 .1.1.1.3 0 0 .3.4.3 0 .1.1.3.2.4h-.1c.2.1-.2.3 0 .4-.1.2.5.1.3.3-.3.2.5.1.1.2-.5.3-.1.3.2.4-.2.2.4.2 0 .4.3 0-.3.2-.2.3h.1c-.3.1.4-.1 0 .1-.2.1.5-.1.2 0h.1s-.1 0-.2.1c0 0 .2-.1.1 0-.4.1.1 0-.4.2 0 0-.2.1-.3.1h.2c.2-.1.4-.1.6-.2h-.2c.2-.1.1 0 .2-.1 0 0 .2-.1.3-.1h-.1.1c.2-.1-.4.1 0 0-.1 0-.1-.1-.1-.1h-.2c.3-.1.3-.1.3-.2 0 0 .1 0 0 0 .3-.1-.3.1.1-.1-.3.1.1-.1-.3 0 .1 0 .1 0 .2-.1 0 0 .1-.1.1-.2-.3 0 .1-.1-.3 0 .1 0 .2-.1.1-.1 0 0-.1-.1-.3 0 .3-.1.3-.1.4-.1h-.3c.2-.1-.1 0 .1-.1-.5 0-.3-.1 0-.3-.1 0-.4.1-.6.1h.1s.2-.1.1-.1h.1c-.1 0 .2-.1 0-.1h.1-.1c.1 0 .2-.1.2 0 0-.2-.4-.2-.4-.4h.1-.1.1c.1-.1-.1-.1-.1-.1h.1c-.2 0 .2-.1-.2 0h.1c-.2 0-.2-.1-.1-.2-.4 0-.1-.1-.4-.1h.1c-.3 0 0-.2-.1-.3l-.1-.1h.1c-.4 0 .3-.2-.1-.2h.1c-.2 0 .1-.1-.3 0h.1c-.5.1.2-.1-.1-.1h.1-.1.1c.3-.1-.1-.1-.1-.2h.2c-.2 0 0-.1-.1-.1h.1-.1.1c-.2-.7-.3-.7-.4-.8zm-.3-.4c.1 0 .1 0 0 0zm1.9 4.1zM3.8 65h-.1.2zm.3 0zM4 65h.1H4zm.1.8zm.6.2h.1c-.2 0 0-.1-.1-.1 0-.1-.2-.2-.3-.3h.1c.2 0-.1-.1 0-.1h-.2c-.1-.1-.1-.2-.3-.3h.2c-.3 0-.2-.1-.1-.2h-.2c-.1 0 .2 0 .1.1h-.1s0 .1.2.1c-.2 0 0 0-.2.1h.2c-.1.1.1.2.1.4.4 0-.1.1.1.2.1 0 .1 0 .1.1h.2c-.3.2-.1.3-.2.5s-.3.4.2.5h-.1c.1 0-.1.1 0 .1.3.1 0 .3.3.3 0 .1 0 .3.1.4h-.1c.2.1-.2.2-.1.4-.2.1.4.2.2.4-.4.1.4.1.1.2-.7.2-.4.3 0 .5-.2.2.3.2-.1.4.3 0-.3.2-.2.2h.1c-.3.1.4 0 0 .1h.3c-.4 0 .1 0-.4.1h-.3.2c.2 0 .4 0 .6-.1H5h.2s.3 0 .3-.1h-.1.1c.2 0-.4 0 0 0-.1 0-.1-.1-.1-.1h-.2c.3 0 .3-.1.3-.1s.1 0 0 0c.3-.1-.3 0 .1-.1-.3 0 .1-.1-.3 0h.2l.1-.1c-.3 0 .1-.1-.2-.1.1 0 .2-.1.1-.1 0 0 0-.1-.3-.1.3 0 .3 0 .4-.1-.2 0-.1-.1-.3-.1h.2c-.5-.1-.3-.2 0-.3h-.6.1s.2-.1.1-.1h.1c-.1 0 .2-.1 0-.1h.1-.1.2c.1-.2-.3-.3-.3-.5h.1-.1.1c.1-.1-.1-.1-.1-.1h.2c-.2 0 .3-.1-.2-.1h.2c-.1-.1-.1-.2-.1-.3-.4 0 0-.1-.4-.2h.1c-.3-.1 0-.2-.1-.3l-.1-.1h.1c-.4-.1.3-.2-.1-.2h.1-.3.1c-.5 0 .2-.1-.1-.1h.1c-.1 0-.1 0 0 0h.1c.3-.1 0-.1 0-.2h.2c-.2 0 0-.1-.1-.1h.1-.1.1c0-.2-.2-.2-.2-.3zm-.2-.4zm1 4.3zM4.8 52.9h.1zm.3.1l-.3-.1c-.2 0 .4.1.3.1zM5 53h.1H5zm0 .8zm.5.3h.1c-.2-.1 0-.1-.1-.1.1-.1-.1-.2-.2-.4h.1c.2 0-.1-.1 0-.1h-.2c0-.1-.1-.2-.2-.3h.2c-.3-.1-.2-.1-.1-.2h-.2c-.1 0 .2.1 0 .1h-.1s-.1.1.2.1h-.2c.1 0 .1 0 .2.1-.1.1.1.3 0 .4.4.1-.1.1 0 .2.1 0 .1.1.1.1h.2c-.3.1-.1.3-.3.4-.2.2-.5.3 0 .6h-.1c.1 0-.1 0 0 .1.3.2-.1.2.2.4-.1.1 0 .3 0 .5H5c.1.1-.3.2-.2.3-.2.1.4.3.1.4-.4 0 .4.2 0 .2-.6.1-.2.3.1.4-.2.1.3.3-.2.4.3.1-.4.1-.3.2h.1c-.3 0 .4.1 0 .1-.1 0 .6.1.4 0h-.1.1-.5c.2 0 .4.1.6.1h-.2.6c-.2 0-.1 0 0 0h.1c.2 0-.4-.1 0 0-.2-.1-.2-.1-.2-.2h-.2.3s.1 0 0 0c.3 0-.3-.1.1 0-.3 0 .1 0-.2-.1h.2l.1-.1c-.3-.1.1-.1-.2-.1.1 0 .2 0 .1-.1 0 0 0-.1-.3-.1h.4c-.2 0-.1-.1-.2-.1h.2c-.4-.2-.3-.3.1-.3-.1 0-.4-.1-.6-.1h.3c-.1 0 .2 0 0-.1h.1-.1.2c.1-.2-.3-.4-.2-.5h.1l-.1-.1h.1c.1 0-.1-.1 0-.1h.2c-.3-.1.2-.1-.3-.2h.2c-.1-.1-.1-.2 0-.3-.4-.1 0-.2-.3-.3h.1c-.3-.1 0-.2 0-.3 0 0-.1-.1 0-.1h.1c-.4-.1.4-.1 0-.2h.1c-.2 0 .1 0-.3-.1h.1c-.5-.1.2-.1-.1-.2h.1c-.1 0-.1-.1 0-.1h.1c.3 0 0-.1 0-.2h.2c-.2-.1 0-.1-.1-.1h.1-.1.1c-.1.3-.3.2-.3.1zm-.1-.4zm.1 4.4zM8.2 41.3h.1zm.3.1c0 .1 0 .1 0 0l-.2-.1c-.3 0 .3.2.2.1z"/><path class="st1" d="M8.4 41.4c-.1 0 .1 0 .1.1 0 0 .1 0-.1-.1zm-.2.9c0-.1 0 0 0 0z"/><path class="st1" d="M8.7 42.7l.1.1c-.2-.1 0-.1 0-.2.1-.1-.1-.3-.1-.4h.1l-.1-.1h.1c.2.1-.1-.1.1-.1 0 0-.1-.1-.2-.1 0-.1 0-.2-.2-.3 0 0 .1 0 .2.1-.3-.2-.1-.2-.1-.3-.1 0-.1 0-.2-.1-.1 0 .2.1 0 .1h-.1c-.1 0 .2.1.1.1h-.1s-.1 0 .1.2c-.2-.1 0 0-.2 0 .1 0 0 0 .2.1-.1.1 0 .3-.1.4.3.2-.1.1 0 .2l.1.1.1.1c-.4 0-.2.3-.4.4-.2-.1-.5 0-.1.3h-.1c.1.1-.1.1 0 .1.3.2-.1.2.2.4-.2.2-.2.4-.1.5h-.1c.1.2-.3.1-.2.3-.2.1.3.4 0 .4-.4 0 .3.3 0 .2-.6 0-.3.2 0 .5-.2.1.2.4-.2.3.2.1-.4 0-.3.1h.1c-.3-.1.4.2 0 .1-.2-.1.5.2.2.1h-.1s.2.1.1.1c-.5-.1 0 .1-.5-.1 0 0-.2 0-.3-.1l.2.1c.2.1.4.1.6.2l-.2-.1c.2 0 .1 0 .2.1 0 0 .2.1.3.1-.2-.1-.1 0 0 0h.1c.2.1-.3-.1 0 0-.1-.1 0-.1 0-.2-.1 0 0 0-.2-.1.3.1.3.1.3 0 0 0 .1 0 0 0 .3.1-.3-.1.1 0-.3-.1.1 0-.2-.1.1 0 .1 0 .2.1 0 0 .1 0 .2-.1-.3-.2.1-.1-.3-.2.1 0 .2 0 .1-.1 0 0 0-.1-.2-.2.3.1.3.1.4.1l-.2-.2h.2c-.4-.2-.2-.3.2-.3-.1-.1-.4-.2-.5-.2h.4c-.1-.1.2 0 0-.1h.1-.1c.1 0 .2.1.2.1.1-.1-.2-.4-.1-.6h.1l-.1-.1h.1c.1 0-.1-.1 0-.1 0 0 .1 0 .1.1-.2-.1.3 0-.1-.1 0 0 .1 0 .1.1-.1-.1-.1-.2 0-.3-.3-.2 0-.2-.3-.3h.1c-.2-.2.1-.2.1-.3v-.1h.1c-.3-.2.4 0 0-.2l.1.1c-.2-.1.1 0-.2-.1h.1c-.4-.2.2 0 0-.2h.1c-.1 0-.1-.1 0-.1h.1c.3.1 0-.1 0-.2l.1.1c-.2-.1 0-.1-.1-.1H9l-.1-.1.1.1c-.2.1-.3 0-.3 0zm0-.5zm-.8 4.4zM14 30.6h-.1l.1.1z"/><path class="st1" d="M14.2 30.8s0 .1 0 0l-.2-.2c-.2 0 .3.3.2.2zm-.1 0c-.1 0 .1.1.1.1-.1-.1.1 0-.1-.1zm-.3.8c-.1 0 0 0 0 0z"/><path class="st1" d="M14.1 32.1l.1.1c-.1-.2.1-.1-.1-.1l.1-.1c.1-.1 0-.3-.1-.4h.1l-.1-.1h.1c.2.1-.1-.1.1-.1 0 0-.1-.1-.2-.1 0-.1 0-.2-.1-.4 0 0 .1 0 .1.1-.3-.3-.1-.2 0-.3-.1-.1-.1 0-.2-.1-.1 0 .2.2 0 .1l-.1-.1c-.1 0 .2.1.1.1s-.1-.1-.1-.1-.1 0 .1.2l-.2-.1.1.1c-.1 0-.1.3-.1.3.3.3-.1.1-.1.2.1.1.1.1 0 .1l.1.1c-.4 0-.2.2-.4.3-.2.1-.5.1-.2.5H13c0 .1-.1.1-.1.1.2.3-.2.2.1.5-.1.1-.2.3-.2.4h-.1c.1.2-.3.1-.3.2-.2 0 .2.4 0 .4-.4-.1.3.4-.1.2-.6-.2-.3.1-.1.4-.3 0 .1.4-.3.3.2.2-.4-.1-.3 0h.1c-.3-.1.3.2-.1 0-.2-.1.4.3.2.2l.1.1-.1-.1s.2.1.1.1c-.4-.2.1.1-.4-.2 0 0-.2-.1-.3-.1l.1.1c.2.1.4.2.5.3l.2.3c.1.1.1 0 .2.1 0 0 .2.1.3.1-.2-.1-.1-.1 0-.1h.1c.2.1-.3-.2 0 0v-.2c-.1-.1 0 0-.2-.1.2.1.3.1.3.1.3.1-.3-.2.1 0-.3-.1.1 0-.2-.2.1 0 .1.1.2.1h.2c-.2-.2.1 0-.2-.2.1 0 .2.1.1 0 0 0 0-.1-.2-.2.3.2.3.1.4.2-.1-.1 0-.1-.1-.2.1.1 0-.1.2.1-.3-.3-.1-.3.2-.3-.1-.1-.3-.2-.5-.3 0 0 .2.1.2 0h.1c-.1-.1.2.1 0 0h.1l-.1-.1c.1 0 .2.1.1.1.2-.1-.1-.5 0-.6h.1l-.1-.1h.1c.1 0 0-.1 0-.1l.1.1c-.2-.1.3.1-.1-.1l.1.1c-.1-.1 0-.2.1-.3-.3-.3 0-.1-.2-.4h.1c-.2-.2.1-.2.1-.3v-.1l.1.1c-.3-.3.4.1.1-.2l.1.1c-.2-.1.1 0-.2-.2h.1c-.4-.3.2 0 0-.2h.1s-.1-.1 0-.1c.3.1 0-.1.1-.1l.1.1c-.1-.1 0-.1 0-.1h.1l-.2.2.1.1c.1-.1 0-.2 0-.2zm.1-.5zm-1.6 4.1s-.1 0 0 0zM21.7 21.3v.1zm.2.3l-.2-.2.2.2zm-.1 0c-.1-.1 0 .1.1.1-.1-.1.1 0-.1-.1zm-.5.6zm.3.6c0-.1.2 0 .1-.1.1 0 0-.3 0-.4v.1l-.1-.1.1.1c.2.1-.1-.1.1 0l-.1-.1v-.4l.1.1c-.2-.3 0-.3 0-.3l-.1-.1c-.1-.1.1.2 0 .1l-.1-.1c-.1 0 .2.2.1.1-.1 0-.1-.1-.1-.1 0 .1-.1 0 .1.2-.1-.1 0 0-.2-.1 0 .1 0 .1.1.1-.2 0-.1.2-.2.3.2.3-.1 0-.1.2.1.1.1.1 0 .1l.1.1c-.3-.1-.3.2-.5.2-.2.1-.5 0-.3.5l-.1-.1c0 .1-.1 0-.1.1.1.3-.2.2 0 .5-.1.1-.2.2-.2.4V24c0 .2-.3 0-.3.2-.2 0 .1.5-.1.4-.3-.2.2.4-.1.2-.5-.3-.4.1-.2.4-.2 0 .1.4-.3.2.2.2-.3-.1-.3 0l.1.1c-.2-.2.3.3-.1 0-.2-.1.4.4.2.2l.1.1-.1-.1.1.1c-.3-.3 0 .1-.3-.2 0 0-.2-.1-.2-.2l.1.1c.2.1.3.3.4.4l-.1-.1c.1.1.1.1.2.1 0 0 .2.1.3.2-.1-.1 0-.1 0-.1l.1.1c.1.1-.3-.3 0 0v-.2l-.2-.2c.2.2.3.2.3.2.3.2-.2-.2.1 0-.2-.2.1 0-.2-.2.1 0 .1.1.1.1h.2c-.2-.2.1 0-.1-.2.1 0 .2.1.1 0 0 0 0-.1-.1-.3.3.2.2.2.3.2-.1-.1 0-.1-.1-.2.1.1 0-.1.1.1-.4-.4-.2-.4.1-.2l-.4-.4s.2.1.1.1l.1.1c-.1-.1.2.1 0 0l-.1-.1.1.1c.2-.1 0-.5.2-.6v.1l-.1-.1.1.1c.1.1 0-.1 0-.1l.1.1c-.1-.2.2.1-.1-.2l.1.1c0-.2 0-.2.1-.2-.2-.3.1-.1-.1-.4l.1.1c-.1-.3.1-.1.2-.2.1 0 0-.1 0-.1l.1.1c-.2-.3.3.1.1-.2l.1.1c-.1-.2.1 0-.2-.2l.1.1c-.3-.4.2.1 0-.2l.1.1c0-.1-.1-.1 0-.1.3.2 0-.1.1-.1l.1.1c-.1-.1 0-.1 0-.1l.1.1.3-.5zm.2-.5zm-2.5 3.8s0-.1 0 0zM31.1 13.8l.1.1zm.2.2c0 .1 0 .1 0 0l-.1-.2c-.2-.2.1.4.1.2z"/><path class="st1" d="M31.2 14c-.1-.1 0 .1.1.1-.1-.1 0 .1-.1-.1zm-.6.6zm.1.6l.1.1c-.1-.2.1 0 0-.2.1 0 .1-.3.1-.4v.1l-.1-.1v.1c.1.2 0-.2.1 0 0 0-.1-.1-.1-.2s.1-.2.1-.4l.1.1c-.1-.3 0-.3.1-.3 0-.1-.1-.1-.1-.2-.1-.1.1.2 0 .1v-.1s.1.2 0 .1c0-.1-.1-.1-.1-.1 0 .1-.1 0 0 .2-.1-.2 0 0-.1-.1 0 .1 0 .1.1.2-.2 0-.1.2-.3.3.2.4-.1 0-.1.2v.1l.1.1c-.3-.2-.3.1-.5.1s-.5-.1-.3.4v-.1c0 .1-.1 0-.1.1.1.3-.2.1-.1.5l-.3.3V16c0 .2-.3-.1-.4.1-.2-.1.1.5-.2.4-.3-.3.1.4-.2.2-.5-.4-.4 0-.3.4-.2-.1 0 .4-.4.2.1.3-.3-.2-.3-.1l.1.1c-.2-.2.2.3-.1 0-.1-.2.3.4.1.2l.1.1-.1-.1s.1.2.1.1c-.3-.3 0 .1-.3-.3l-.2-.2.1.2c.1.2.2.3.4.5l-.1-.1c.1.1.1.1.1.2 0 0 .2.2.2.3-.1-.2 0-.1 0-.1l.1.1c.1.1-.2-.3 0 0 0-.1 0-.1.1-.1-.1-.1 0 0-.1-.2l.2.2c.2.3-.2-.3.1.1-.2-.2.1.1-.1-.2 0 .1.1.1.1.1h.2c-.1-.2.1.1-.1-.3.1 0 .2.1.1 0 0 0 0-.1-.1-.3.2.3.2.2.3.3-.1-.1 0-.1-.1-.3.1.1 0-.1.1.1-.2-.4 0-.4.3-.2-.1-.1-.2-.3-.3-.5l.1.1v.1c0-.1.1.1.1 0V17c0 .1.1.2.1.1.2 0 .1-.5.3-.5v.1-.1.1c.1.1 0-.1.1-.1l.1.1c-.1-.2.2.2 0-.2l.1.1c0-.2.1-.2.2-.2-.2-.4.1-.1 0-.4v.1c-.1-.3.2-.1.2-.2.1 0 0-.1.1-.1l.1.1c-.2-.3.3.2.1-.2l.1.1c-.1-.2.1 0-.1-.3l.1.1c-.2-.4.2.1.1-.2v.1c.2.2.1-.1.1-.1l.1.1c-.1-.2.1-.1 0-.1v.1-.1l.1.1c-.1-.2-.1-.3-.1-.3zm.3-.4zm-3.1 3.1z"/><g><path class="st1" d="M41.9 8.3v-.1.2zm.1.3l-.1-.3c-.1-.2.1.4.1.3zm-.1-.1v.1c0-.1.1.1 0-.1zm-.7.4zm0 .7v.1c-.1-.2.1 0 .1-.1.1 0 .1-.2.2-.4v.1c.1.2 0-.2.1 0 0 0 0-.1-.1-.2.1-.1.1-.2.1-.4 0 0 0 .1.1.2-.1-.4.1-.3.1-.2 0-.1 0-.1-.1-.2s0 .2 0 .1v-.1s.1.2 0 .1v-.1s-.1 0 0 .2l-.1-.2c0 .1 0 .1.1.2-.1 0-.2.2-.3.2.1.4-.1 0-.2.1v.3c-.3-.2-.3 0-.5 0s-.5-.2-.4.3v-.1c0 .1-.1 0-.1.1 0 .3-.2.1-.2.4-.1 0-.3.1-.4.3v-.1c0 .2-.3-.1-.4 0-.2-.1 0 .5-.3.3-.2-.3 0 .5-.2.1-.4-.5-.4-.1-.3.3-.2-.1-.1.4-.4.1.1.3-.3-.2-.3-.2v.1c-.1-.2.1.4-.1 0-.1-.2.2.5.1.2v.1l-.1-.1s.1.2 0 .1c-.2-.4 0 .1-.2-.3 0 0-.1-.2-.1-.3l.1.2c.1.2.2.4.3.5l-.1-.1c.1.1 0 .1.1.2 0 0 .1.2.2.3-.1-.2 0-.1 0-.1v.1c.1.2-.1-.3 0 0 0-.1.1-.1.1-.1 0-.1 0 0-.1-.2.1.2.2.3.2.3.2.3-.1-.3.1.1-.1-.3.1.1-.1-.3 0 .1.1.1.1.2 0 0 .1.1.2.1-.1-.2.1.1 0-.3.1.1.2.2.1 0 0 0 .1-.1 0-.3.2.3.1.2.2.3v-.3c.1.1 0-.1.1.1-.1-.4.1-.4.3-.1 0-.1-.1-.4-.2-.5v.1s.1.2.1.1v.1c0-.1.1.2.1 0v.1-.1c0 .1.1.2.1.2.2 0 .2-.4.4-.4v.1-.1.1c.1.1 0-.1.1-.1 0 0 0 .1.1.1-.1-.2.2.2 0-.2 0 0 0 .1.1.1 0-.2.1-.2.2-.2-.1-.4.1-.1.1-.4v.1c0-.3.2-.1.3-.2.1 0 0-.1.1-.1v.1c-.1-.4.3.2.2-.2v.1c-.1-.2.1 0-.1-.3l.1.1c-.1-.4.2.2.1-.1v.1c.1.2 0-.2.1-.2v.2c0-.2.1 0 .1-.1v.1-.1l.1.1v-.2zm.4-.4zm-3.7 2.5z"/></g><g><path class="st1" d="M53.6 5.1V5v.2zm0 .3v-.3c-.1-.2 0 .4 0 .3z"/><path class="st1" d="M53.6 5.3v.1c-.1-.1 0 .1 0-.1zm-.8.3zm-.2.6v.1c0-.2.1 0 .1-.1.2.1.3-.2.3-.3V6c.1.2 0-.2.1 0v-.2c.1-.1.2-.1.2-.3v.2c0-.4.1-.2.2-.2v-.2c0-.1 0 .2-.1.1v-.1s-.1 0-.1.2c0-.2 0 0-.1-.2v.2c-.1-.1-.2.1-.3.1 0 .4-.1 0-.2.1 0 .1 0 .1-.1.1V6c-.2-.3-.3 0-.5-.1-.1-.2-.3-.5-.4.1v-.1c0 .1-.1 0-.1 0-.1.3-.3 0-.3.4-.1 0-.3.1-.4.2v-.1c-.1.2-.3-.2-.4 0-.2-.1-.1.5-.3.3-.2-.3-.1.5-.2.1-.3-.5-.3-.1-.4.2-.2-.2-.2.4-.4 0 0 .3-.2-.3-.3-.2v.1c-.1-.3 0 .4-.1 0-.1-.2.1.5 0 .3v.1s0-.1-.1-.2v.1c-.1-.4 0 .1-.1-.4 0 0-.1-.2-.1-.3v.2c.1.2.1.4.1.6v-.2c0 .2 0 .1.1.2 0 0 .1.2.1.3v-.1.1c.1.2-.1-.4 0 0 0-.1.1-.1.1-.1v-.2l.1.3s0 .1 0 0c.1.3 0-.3.1.1-.1-.3.1.1 0-.3v.2s.1.1.2.1c0-.3.1.1 0-.3 0 .1.1.2.1.1 0 0 .1-.1 0-.3.1.3.1.3.1.4v-.3c0 .2 0-.1.1.2 0-.5.2-.3.3 0 0-.1-.1-.4-.1-.6V7s.1.2.1.1v.1c0-.1.1.2.1 0v.1-.1.2c.2 0 .3-.4.4-.4v.1V7v.1c.1.1.1-.1.1-.1v.2c0-.2.1.3 0-.2v.1c.1-.2.1-.2.2-.1 0-.4.1-.1.1-.4v.1c0-.3.2 0 .3-.1l.1-.1v.1c0-.4.2.3.2-.1v.1c0-.2.1.1 0-.3v.1c0-.5.1.2.1-.1v.1c0-.1 0-.1 0 0v.1c.1.3.1-.1.2-.1v.2c0-.2.1 0 .1-.1v.1-.1.1c.8-.3.8-.4.8-.4zm.5-.3zm-4.2 1.7z"/></g><g><path class="st1" d="M65.6 4.3v-.1.2zm0 .2c0 .1 0 .1 0 0v-.3.3zm0 0zm-.9.1zm-.2.5v.1c0-.2.1 0 .1-.1.1.2.2 0 .4-.1v-.1.1c0 .2 0-.2 0 0v-.2c.1-.1.2-.1.3-.3v.2c.1-.4.2-.2.2-.2v-.2c0-.1-.1.2-.1.1v-.1s-.1 0-.1.2v-.2.2c-.1-.1-.2.1-.4.1-.1.4-.1-.1-.2.1 0 .1-.1.1-.1.1V5c-.2-.3-.3-.1-.5-.2s-.3-.4-.5.1v-.1c-.1.1-.1-.1-.1 0-.1.3-.3 0-.4.3-.1 0-.3 0-.4.1v-.1c-.1.2-.2-.2-.4-.1-.1-.2-.2.4-.4.2-.1-.4-.2.4-.2 0-.2-.6-.3-.2-.4.2-.1-.2-.3.3-.4-.1 0 .3-.1-.3-.2-.3v.1c0-.3 0 .4-.1 0v.3c0-.4 0 .1-.1-.4v-.3.8-.2.2s0 .3.1.3v-.1.1c0 .2 0-.4 0 0 0-.1.1-.1.1-.1v-.2c0 .3.1.3.1.3s0 .1 0 0c0 .3 0-.3.1.1v-.3.2l.1.1c0-.3.1.1.1-.2 0 .1.1.2.1.1 0 0 .1 0 .1-.3 0 .3 0 .3.1.4 0-.2.1-.1.1-.3v.2c.1-.5.2-.3.3 0v-.6.1s0 .2.1.1v.1c0-.1 0 .2.1 0v.1-.1.2c.2.1.3-.3.5-.3v.1-.1.1c0 .1.1-.1.1-.1v.2c0-.2.1.3.1-.2v.2c.1-.1.2-.1.3-.1.1-.4.2 0 .2-.4v.1c.1-.3.2 0 .3 0l.1-.1v.1c.1-.4.1.3.2-.1v-.2.1c.2-.4.2.3.3 0v.1c0-.1 0-.1 0 0v.1c0 .3.1 0 .2 0v.2c0-.2.1 0 .1-.1v.1-.1.1c0-.1.1-.2.1-.3zM65 5zm-4.4.8z"/></g><g><path class="st1" d="M77.6 5.9V6zm-.1.3l.1-.3c.1-.2-.1.4-.1.3zm0-.1zm-.8-.1z"/><path class="st1" d="M76.4 6.6v.1c.1-.2.1 0 .1-.1.1.1.2-.1.4-.2v.1c0 .2.1-.1.1 0v-.2c.1 0 .2-.1.3-.2v.2c.2-.3.2-.2.3-.1V6c0-.1-.1.2-.1 0v-.1c0-.1-.1.2 0 .1v-.1s-.1-.1-.1.2v-.2c0 .1 0 .1-.1.2-.1-.1-.3 0-.4 0-.1.4-.1-.1-.2 0 0 .1-.1.1-.1.1l-.1.2c-.1-.4-.3-.2-.4-.3-.2-.1-.3-.4-.5 0V6c-.1.1-.1-.1-.1 0-.2.3-.2-.1-.4.2-.1-.1-.3-.1-.5 0v-.1c-.1.1-.2-.3-.3-.2-.1-.2-.3.4-.4.1 0-.4-.2.4-.2 0 0-.6-.3-.3-.4.1-.1-.2-.3.3-.4-.2-.1.3-.1-.4-.2-.3v.1c0-.3-.1.4-.1 0 0-.2-.1.5-.1.2v-.1.1c.1-.4-.1.1 0-.4v-.3c0-.1 0 0-.1.2 0 .2-.1.4-.1.6v-.2.6c0-.2 0-.1 0 0v.1c0 .2.1-.4 0 0l.1-.1c0-.1 0 0 .1-.2v.3s0 .1 0 0c0 .3.1-.3 0 .1.1-.3 0 .1.1-.2v.2s.1.1.1.2c.1-.3.1.1.1-.2 0 .1 0 .2.1.1 0 0 .1 0 .1-.2v.4c0-.2.1-.1.1-.2v.2c.2-.4.3-.2.3.1 0-.1.1-.4.1-.6v.4c0-.1 0 .2.1 0v.1-.1.2c.1.1.4-.3.5-.2v.1l.1-.1v.1c0 .1.1-.1.1 0v.2c.1-.2 0 .3.1-.1v.2c.1-.1.2-.1.3 0 .1-.4.2 0 .3-.3V7c.1-.3.2.1.3 0h.1v.1c.1-.4.1.4.2 0v.1c.1-.2 0 .1.1-.3V7c.1-.4 0 .2.2-.1V7c0-.1.1-.1.1 0v.1c0 .3.1 0 .2 0v.2c.1-.2.1 0 .1-.1v.1-.1.1c-.1-.6 0-.7.1-.7zm.4-.1zm-4.4-.1z"/></g><g><path class="st1" d="M89 9.9h.1l-.1.1z"/><path class="st1" d="M88.9 10.2l.1-.3c.1-.2-.2.4-.1.3zm0-.1c0-.1 0 .1-.1.1.1-.1 0 .1.1-.1zm-.8-.2z"/><path class="st1" d="M87.7 10.3l-.1.1c.1-.2.1 0 .2 0 .1.1.3-.1.4-.1v.1l.1-.1v.1c-.1.2.1-.1.1.1 0 0 .1-.1.1-.2.1 0 .2 0 .4-.1 0 0 0 .1-.1.2.2-.3.2-.1.3-.1 0-.1 0-.1.1-.2 0-.1-.1.2-.1 0V10c0-.1-.1.2-.1.1s.1-.1.1-.1 0-.1-.2.1c.1-.2 0 0 0-.2 0 .1 0 0-.1.2-.1-.1-.3 0-.4-.1-.2.3-.1-.1-.2 0-.2 0-.2 0-.2-.1l-.1.1c0-.4-.3-.2-.3-.4-.1-.2-.2-.5-.5-.1v-.1c-.1.1-.1-.1-.1 0-.2.2-.2-.1-.5.1-.1-.1-.3-.1-.4-.1v-.1c-.2.1-.1-.3-.3-.2 0-.2-.4.3-.4 0 .1-.4-.3.3-.2-.1.1-.6-.2-.3-.5 0-.1-.2-.4.2-.3-.2-.2.2 0-.4-.1-.3v.1c0-.2-.3.4-.2 0l-.1.2v-.1s-.1.2-.1.1c.1-.4-.1.1.1-.4 0 0 .1-.2.1-.3l-.1.2c-.1.2-.2.4-.2.5l.1-.1c-.1.2 0 .1-.1.2 0 0-.1.2-.1.3.1-.2 0-.1 0 0v.1c-.1.2.1-.3 0 0 .1-.1.1 0 .2 0 0-.1 0 0 .1-.2 0 .2 0 .3.1.3-.1.3.1-.3 0 .1.1-.3 0 .1.1-.2 0 .1 0 .1-.1.2 0 0 0 .1.1.2.1-.2 0 .1.2-.2 0 .1 0 .2.1.1 0 0 .1 0 .2-.2-.1.3-.1.3-.1.4l.2-.2c-.1.2.1-.1 0 .2.1-.4.2-.2.2.1.1-.1.2-.4.3-.5v.4c.1-.1 0 .2.1 0v.1-.1c0 .1-.1.2-.1.2.1.1.4-.2.6 0v.1l.1-.1v.1c0 .1.1 0 .1 0s0 .1-.1.1c.1-.2-.1.3.1-.1 0 0 0 .1-.1.1.1-.1.2-.1.3 0 .2-.3.2 0 .3-.2v.1c.2-.2.2.1.3.1h.1v.1c.2-.3 0 .4.2 0l-.2-.1c.1-.2 0 .1.1-.2v.1c.2-.4 0 .2.2 0v.1c0-.1.1-.1.1 0v.1c-.1.3.1 0 .2 0l-.1.1c.1-.2.1 0 .1 0v.1l.1-.1-.1.1c-.1-.1 0-.2.1-.2zm.4 0zm-4.3-1z"/></g><g><path class="st1" d="M99.4 16.2v-.1.1zm-.2.2l.2-.2c.1-.2-.3.3-.2.2zm0-.1c0-.1-.1.1-.1.1.1-.1 0 .1.1-.1zm-.7-.4z"/><path class="st1" d="M98 16.3l-.1.1c.2-.2.1 0 .1-.1l.1.1c.1.1.3 0 .4 0v.1l.1-.1v.1c-.1.2.1-.1 0 .1l.1-.1c.1 0 .2 0 .4-.1 0 0 0 .1-.1.1.3-.2.3-.1.3 0 .1-.1.1-.1.1-.2.1-.1-.2.2-.1 0l.1-.1c0-.1-.1.2-.1.1s.1-.1.1-.1c-.1 0 0-.1-.2.1l.1-.2-.1.1c0-.2-.3-.1-.3-.1-.3.3-.1-.1-.2-.1-.1.1-.1.1-.1 0l-.1.1c.1-.4-.2-.3-.3-.5-.1-.2-.1-.5-.5-.2v-.1c-.1 0 0-.1-.1-.1-.3.2-.2-.2-.5 0-.1-.1-.2-.2-.4-.2v-.1c-.2.1-.1-.3-.2-.3 0-.2-.4.2-.4 0 .1-.4-.4.3-.2-.1.2-.6-.1-.3-.4-.1 0-.3-.4.1-.3-.3-.2.2.1-.4 0-.3v.1c.1-.3-.3.3 0-.1.1-.2-.3.4-.2.2l-.1.1.1-.1s-.1.2-.1.1c.2-.4-.1.1.2-.4 0 0 .1-.2.2-.2l-.1.1c-.1.2-.2.3-.3.5l.1-.1c-.1.1 0 .1-.1.2 0 0-.1.2-.2.3.1-.2.1-.1.1 0v.1c-.1.2.2-.3 0 0h.2c.1-.1 0 0 .1-.2-.1.2-.1.3-.1.3-.2.3.2-.3 0 .1.2-.3 0 .1.2-.2 0 .1-.1.1-.1.2v.2c.2-.2 0 .1.2-.1 0 .1-.1.2 0 .1 0 0 .1 0 .2-.2-.5.3-.5.2-.5.3l.2-.2c-.1.1.1 0-.1.2.3-.3.3-.1.2.2.1-.1.2-.3.4-.5 0 0-.1.2 0 .2v.1c.1-.1-.1.2 0 0v.1l.1-.1c0 .1-.1.2-.1.1.1.2.5-.1.6.1v.1l.1-.1v.1c0 .1.1 0 .1 0l-.1.1c.1-.2-.1.3.1-.1l-.1.1c.2-.1.2 0 .2.1.3-.3.1.1.4-.2v.1c.2-.2.2.1.3.1h.1l-.1.1c.3-.3-.1.4.2.1l-.1.2c.1-.2 0 .1.2-.2l-.1.1c.3-.4 0 .2.2 0l-.1.1c.1 0 .1-.1.1 0-.2.3.1 0 .1.1l-.1.1c.1-.1.1 0 .1 0v.1h.2-.2.2zm.4.1zm-4-1.9z"/></g><g><path class="st1" d="M108.3 24.4v-.1l-.1.1zm-.2.1s-.1.1 0 0l.2-.2-.2.2zm0 0c.1-.1-.1 0-.1.1l.1-.1zm-.7-.6s.1 0 0 0c.1 0 .1 0 0 0zm-.5.3c.1 0 0 .2.1.1 0 .1.3 0 .4 0h-.1l.1-.1h-.1c-.1.2.2 0 0 .1l.1-.1c.1 0 .2.1.4 0l-.1.1c.3-.2.3 0 .3.1l.1-.1c.1-.1-.2.1-.1 0l.1-.1c0-.1-.2.2-.1.1l.1-.1c-.1 0 0-.1-.2 0 .1-.1 0 0 .1-.2-.1 0-.1 0-.2.1 0-.2-.2-.1-.3-.2-.3.2 0-.1-.2-.1-.1 0-.1.1-.1 0l-.1.1c.1-.3-.1-.3-.2-.5s0-.5-.5-.3h.1c-.1 0 0-.1-.1-.1-.3.1-.1-.2-.5-.1-.1-.1-.2-.2-.4-.3l.1-.1c-.2 0 0-.3-.2-.3 0-.2-.5.1-.4-.1.2-.3-.4.2-.2-.1.3-.5-.1-.4-.4-.2 0-.2-.4 0-.2-.4-.2.2.1-.3 0-.3l-.1.1c.2-.2-.3.2 0-.1.1-.2-.4.3-.2.2l-.1.1.1-.1-.1.1c.3-.3-.1 0 .2-.3l.2-.2-.1.1-.4.4.1-.1-.1.1s-.2.2-.2.3c.1-.1.1 0 .1 0l-.1.1c-.1.1.3-.2 0 0h.2c.1-.1 0 0 .2-.1-.2.2-.2.3-.2.3-.2.3.2-.2 0 .1.2-.2 0 .1.2-.1l-.1.1v.2c.2-.2 0 .1.2-.1 0 .1-.1.2 0 .1 0 0 .1 0 .3-.1-.2.3-.2.2-.2.3.1-.1.1 0 .3-.1-.1.1.1 0-.1.1.4-.2.4 0 .2.3l.4-.4s-.1.2-.1.1l-.1.1c.1-.1-.1.2 0 0l.1-.1-.1.1c.1.2.5 0 .5.2h-.1l.1-.1-.1.1c-.1.1.1 0 .1.1l-.1.1c.2-.1-.2.2.2-.1l-.1.1c.2 0 .2 0 .2.1.3-.2.1.1.4-.1l-.1.1c.3-.1.1.2.2.2 0 .1.1 0 .1 0l-.1.1c.3-.2-.1.3.2.1l-.1.1c.2-.1 0 .1.2-.2l-.1.1c.4-.3-.1.2.2 0l-.1.1c.1 0 .1-.1.1 0-.2.3.1.1.1.1l-.1.1c.2-.1.1 0 .1 0h-.1l.1-.1-.1.1c.4.4.5.3.6.4zm.4.2zm-3.6-2.7z"/></g><g><path class="st1" d="M115.4 34.2v-.1l-.1.1z"/><path class="st1" d="M115.1 34.3l.3-.1c.1-.2-.4.1-.3.1zm0-.1c.1 0-.1 0-.1.1l.1-.1zm-.5-.6z"/><path class="st1" d="M114 33.7l-.1.1c.2-.1 0 .1.2.1 0 .1.3.1.4.1h-.1s.1-.1.1 0h-.1c-.2.1.2 0 0 .1 0 0 .1-.1.2-.1s.2.1.4.1c0 0-.1 0-.1.1.3-.1.3 0 .3.1.1 0 .1-.1.2-.1.1-.1-.2.1-.1 0h.1s-.2.1-.1 0c.1 0 .1-.1.1-.1-.1 0 0-.1-.2 0 .2-.1 0 0 .1-.1-.1 0-.1 0-.2.1 0-.2-.2-.2-.3-.3-.4.1 0-.1-.2-.1h-.1l-.2.1c.2-.3-.1-.3-.1-.5s.1-.5-.4-.4h.1c-.1 0 0-.1-.1-.1-.3.1-.1-.2-.4-.1 0-.1-.2-.3-.3-.3h.1c-.2 0 .1-.3-.1-.4.1-.2-.5 0-.4-.2.3-.3-.4.1-.2-.2.4-.4 0-.4-.3-.3.1-.2-.4 0-.1-.4-.3.1.2-.3.1-.3l-.1.1c.2-.2-.4.2 0-.1.2-.1-.4.3-.2.1l-.1.1.1-.1s-.2.1-.1.1c.4-.2-.1 0 .3-.3l.2-.2-.2.1c-.2.1-.3.2-.5.3l.1-.1c-.1.1-.1 0-.2.1 0 0-.2.2-.3.2.2-.1.1 0 .1 0l-.1.1c-.2.1.3-.2 0 0 .1 0 .1 0 .1.1.1-.1 0 0 .2-.1l-.2.2c-.3.2.3-.2-.1.1.2-.2-.1.1.2-.1-.1 0-.1.1-.1.1v.2c.2-.1-.1.1.3-.1-.1.1-.2.2 0 .1 0 0 .1 0 .3-.1-.3.2-.2.2-.3.3.1-.1.1 0 .3-.1-.1.1.1 0-.1.1.4-.2.4 0 .1.3.1-.1.4-.2.5-.3l-.1.1h-.1c.1 0-.1.1 0 .1h-.1.1c-.1 0-.2.1-.1.1 0 .2.5.1.5.3h-.1c-.1.1.1 0 .1.1l-.1.1c.2-.1-.2.2.2 0l-.1.1c.2 0 .2.1.2.2.4-.2.1.1.4 0h-.1c.3-.1.1.2.2.2 0 .1.1 0 .1.1l-.1.1c.4-.1-.2.3.2.1l-.1.1c.2-.1 0 .1.3-.1l-.1.1c.4-.2-.1.2.2.1h-.1c-.3.2.1.1.1.1l-.1.1c.2-.1.1.1.1 0h-.1.1l-.1.1c.2-.1.3-.1.3-.1zm.4.3zm-3-3.3z"/></g><g><path class="st1" d="M120.3 45.2h.1-.1zm-.2 0c-.1 0-.1.1 0 0l.3-.1c.1 0-.5.2-.3.1z"/><path class="st1" d="M120.1 45.2h-.1c.1 0-.1.1.1 0zm-.4-.7z"/><path class="st1" d="M119.1 44.5h-.1c.2 0 0 .1.1.1 0 .1.2.1.4.2h-.1c-.2.1.2 0 0 .1 0 0 .1 0 .2-.1.1.1.2.1.3.2 0 0-.1 0-.2.1.4 0 .3.1.2.2.1 0 .1 0 .2-.1s-.2 0-.1 0h.1s-.2.1-.1 0h.1s0-.1-.2 0l.2-.1h-.2c.1-.1-.2-.2-.2-.3-.4.1 0-.1-.1-.2h-.3c.3-.3 0-.3.1-.5 0-.2.2-.4-.3-.4h.1c-.1 0 0-.1-.1-.1-.3 0 0-.2-.4-.2 0-.1-.1-.3-.2-.4h.1c-.2-.1.1-.3 0-.4.1-.2-.5-.1-.3-.3.3-.2-.5 0-.1-.2.5-.4.1-.3-.3-.4.1-.2-.4-.1-.1-.4-.3 0 .3-.3.2-.3h-.1c.3-.1-.4.1 0-.1.2-.1-.5.2-.2.1h-.1s.1 0 .1-.1c0 0-.2.1-.1 0 .4-.2-.1 0 .3-.2 0 0 .2-.1.3-.1h-.2c-.2.1-.4.2-.5.2l.1-.1c-.1.1-.1 0-.2.1 0 0-.2.1-.3.2.2-.1.1 0 .1 0h-.1c-.2.1.3-.1 0 0 .1 0 .1.1.1.1.1 0 0 0 .2-.1-.2.1-.3.2-.3.2-.3.2.3-.1-.1.1.3-.1-.1.1.3 0-.1 0-.1.1-.2.1 0 0-.1.1-.1.2.3-.1-.1.1.3 0-.1.1-.2.1 0 .1 0 0 .1.1.3 0-.3.1-.2.1-.3.2h.3c-.1.1.1 0-.1.1.4-.1.3.1.1.3.1 0 .4-.1.5-.2h-.1s-.2.1-.1.1h-.1c.1 0-.2.1 0 .1h-.1.1c-.1 0-.2.1-.2.1 0 .2.4.2.4.4h-.1c-.1.1.1 0 .1.1 0 0-.1 0-.1.1.2 0-.2.1.2 0 0 0-.1 0-.1.1.2 0 .2.1.2.2.4-.1.1.1.4.1h-.1c.3 0 .1.2.1.3 0 0 .1 0 .1.1h-.1c.4-.1-.3.3.1.2h-.1c.2-.1-.1.1.3-.1h-.1c.5-.1-.2.2.1.1h-.1c-.3.2.1.1.1.1h-.1c.2 0 0 .1.1.1h-.1.1-.1c.1.2.3.2.3.3zm.3.3zm-2.3-3.8s.1 0 0 0z"/></g><g><path class="st1" d="M123 57h-.1zm-.3 0s-.1 0 0 0zm0 0h-.1.1zm-.2-.8zm-.6-.2h-.1c.2 0 0 .1.1.1 0 .1.2.2.3.3h-.1c-.2.1.1 0 0 .1h.2c.1.1.1.2.3.2h-.2c.4 0 .2.1.2.2h.2c.1 0-.2 0-.1-.1h.1s0-.1-.2-.1c.2 0 0 0 .2-.1h-.2c.1-.1-.1-.2-.1-.3-.4 0 .1-.1-.1-.2-.1 0-.1 0-.1-.1h-.2c.3-.2 0-.3.2-.5.1-.2.3-.4-.2-.5h.1c-.1 0 0-.1 0-.1-.3-.1 0-.3-.4-.3 0-.1 0-.3-.2-.4h.1c-.2-.1.2-.3.1-.4.2-.2-.5-.2-.3-.3.4-.1-.4-.1-.1-.2.5-.3.2-.3-.2-.4.2-.2-.4-.2 0-.4-.3 0 .3-.2.2-.2h-.1c.3-.1-.4 0 0-.1.2-.1-.5.1-.3 0h-.1.1c.4-.1-.1 0 .4-.1 0 0 .2-.1.3-.1h-.2c-.2 0-.4.1-.6.1h.2-.2s-.2.1-.3.1h.1-.1c-.2 0 .4 0 0 0 .1 0 .1.1.1.1h.2l-.3.1s-.1 0 0 0c-.3.1.3 0-.1.1.3-.1-.1.1.3 0h-.2l-.1.1c.3 0-.1.1.3.1-.1 0-.2.1-.1.1 0 0 .1.1.3.1-.3.1-.3.1-.4.1.2 0 .1 0 .3.1-.2 0 .1 0-.2.1.5 0 .3.2 0 .3.1 0 .4 0 .6-.1h-.1s-.2.1-.1.1h-.1c.1 0-.2.1 0 .1h-.1.1-.2c0 .2.4.3.3.5h-.1c-.1.1.1.1.1.1h-.2c.2 0-.3.1.2 0h-.2c.2.1.2.1.1.2.4 0 .1.1.4.2h-.1c.3.1 0 .2.1.3l.1.1h-.1c.4 0-.3.2.1.2h-.1c.2 0-.1.1.3 0h-.1c.5 0-.2.1.1.1h-.1c.1 0 .1 0 0 0h-.1c-.3.1.1.1 0 .2h-.2c.2 0 0 .1.1.1h-.1.1-.1c.4.4.6.4.6.4zm.2.5zm-1.4-4.3z"/></g><g><path class="st2" d="M26.6 72.9l5.1 13h-1.9L28.3 82h-5.5l-1.5 3.9h-1.8l5.1-13h2zm1.2 7.6l-2.2-6.1-2.2 6.1h4.4zm12.1 5.4v-1.3c-.3.5-.7.9-1.2 1.1-.5.2-1.1.3-1.8.3s-1.4-.1-1.9-.4c-.5-.3-1-.6-1.3-1.1-.4-.4-.6-1-.8-1.6-.2-.6-.3-1.2-.3-1.9s.1-1.3.3-1.9c.2-.6.4-1.1.8-1.6.4-.4.8-.8 1.3-1.1.5-.3 1.2-.4 1.9-.4.2 0 .5 0 .8.1.3 0 .6.1.8.2.3.1.5.3.8.5.2.2.5.4.6.7v-4.8h1.5v13h-1.5zm-5.6-3.4c.1.4.3.8.5 1.1.2.3.5.6.9.8.4.2.8.3 1.3.3s1-.1 1.3-.3c.4-.2.7-.5.9-.8.2-.3.4-.7.5-1.1.1-.4.2-.9.2-1.3 0-.5-.1-.9-.2-1.3s-.3-.8-.5-1.1c-.2-.3-.5-.6-.9-.8-.4-.2-.8-.3-1.4-.3-.5 0-1 .1-1.3.3-.4.2-.7.5-.9.8-.2.3-.4.7-.5 1.2-.1.4-.1.9-.1 1.3.1.4.1.8.2 1.2zm10.9 6.4c-.4.4-1 .6-1.6.6-.3 0-.5 0-.8-.1v-1.3h.6c.3 0 .6-.1.7-.3.1-.2.2-.5.2-1V76.5h1.5v10.6c0 .8-.2 1.4-.6 1.8zm-.9-14.1v-1.9h1.5v1.9h-1.5zm10.6 11.1v-1.5c-.3.6-.7 1-1.3 1.3-.5.3-1.1.4-1.8.4-.6 0-1.1-.1-1.5-.2-.4-.2-.7-.4-1-.7-.3-.3-.4-.7-.5-1.1-.1-.4-.2-.9-.2-1.4v-6.2h1.5v6.4c0 .6.2 1 .5 1.4.3.3.8.5 1.4.5.5 0 .9-.1 1.2-.2.3-.1.6-.4.9-.6.2-.3.4-.6.5-.9.1-.4.2-.7.2-1.2v-5.3h1.5V86h-1.4zm5.4-2.1c.1.2.3.4.6.6.2.1.5.2.8.3.3.1.6.1.9.1.2 0 .5 0 .8-.1.3 0 .5-.1.7-.2.2-.1.4-.2.6-.4.1-.2.2-.4.2-.7 0-.4-.2-.7-.5-.9-.3-.2-.7-.4-1.1-.5l-1.5-.3c-.5-.1-1-.2-1.5-.4s-.8-.5-1.1-.8c-.3-.3-.5-.8-.5-1.4 0-.5.1-.9.3-1.2.2-.3.5-.6.8-.8.3-.2.7-.4 1.1-.5.4-.1.8-.2 1.2-.2.5 0 1 0 1.5.1.4.1.8.2 1.2.5.3.2.6.5.8.9.2.4.3.9.4 1.4h-1.5c0-.3-.1-.6-.2-.8-.1-.2-.3-.4-.5-.5-.2-.1-.4-.2-.7-.3-.2-.1-.5-.1-.8-.1-.2 0-.5 0-.7.1-.2 0-.5.1-.6.2-.2.1-.4.2-.5.4-.1.2-.2.4-.2.6 0 .3.1.5.3.7.2.2.4.3.7.4.3.1.6.2 1 .3.4.1.7.2 1.1.2.4.1.8.2 1.1.3.4.1.7.3 1 .5.3.2.5.5.7.8.2.3.3.7.3 1.1 0 .6-.1 1-.4 1.4-.2.4-.5.7-.9.9-.4.2-.8.4-1.3.5-.5.1-1 .1-1.4.1-.5 0-1-.1-1.5-.2s-.9-.3-1.3-.5-.7-.6-.9-1c-.2-.4-.3-.9-.4-1.5H60c.1.4.1.7.3.9zm12.3-7.3v1.4h-1.9v6.2c0 .1.1.2.2.3.1.1.2.1.4.1h1.3v1.4h-1.2c-.4 0-.7 0-1-.1-.3-.1-.5-.2-.7-.3-.2-.1-.3-.4-.4-.6-.1-.3-.1-.6-.1-1.1v-6h-1.6v-1.4h1.6v-2.8h1.5v2.8h1.9zm9.3 9.6c-.4 0-.7-.1-1-.3-.2-.2-.4-.6-.4-1.1-.4.5-.9.9-1.5 1.1-.6.2-1.2.3-1.8.3-.4 0-.8 0-1.2-.1-.4-.1-.7-.2-1-.5-.3-.2-.5-.5-.7-.8-.2-.3-.2-.7-.2-1.2s.1-1 .3-1.3c.2-.3.4-.6.7-.8.3-.2.6-.4 1-.5l1.2-.3c.4-.1.8-.1 1.2-.2.4 0 .7-.1 1-.2.3-.1.5-.2.7-.3.2-.2.3-.4.3-.7 0-.3-.1-.6-.2-.8-.1-.2-.3-.4-.5-.5-.2-.1-.4-.2-.7-.2-.2 0-.5-.1-.7-.1-.7 0-1.2.1-1.6.4-.4.2-.7.7-.7 1.4h-1.5c0-.6.1-1.1.4-1.5.2-.4.5-.7.9-1 .4-.2.8-.4 1.3-.5.5-.1 1-.2 1.5-.2.4 0 .8 0 1.3.1.4.1.8.2 1.1.4.3.2.6.5.8.8.2.3.3.8.3 1.3v4.8c0 .4 0 .6.1.8 0 .2.2.3.4.3.1 0 .3 0 .5-.1v1.2c-.5.2-.8.3-1.3.3zm-2.2-4.8c-.3.1-.6.1-1 .2-.3 0-.7.1-1 .1-.4.1-.7.1-.9.3-.3.1-.5.3-.7.5-.2.2-.3.5-.3.9 0 .3.1.5.2.6.1.2.2.3.4.4.2.1.4.2.6.2.2 0 .5.1.7.1.5 0 .9-.1 1.3-.2s.7-.3.9-.5c.2-.2.4-.4.5-.7.1-.2.2-.5.2-.7V81c-.3.2-.6.3-.9.3zm6.7-8.4v4.9c.3-.5.7-.9 1.2-1.1.5-.2 1.1-.4 1.8-.4s1.4.1 1.9.4c.5.3 1 .6 1.3 1.1.4.5.6 1 .8 1.6.2.6.3 1.2.3 1.9s-.1 1.3-.3 1.9c-.2.6-.4 1.1-.8 1.6-.4.4-.8.8-1.3 1-.5.3-1.2.4-1.9.4-.2 0-.5 0-.8-.1-.3 0-.6-.1-.8-.2-.3-.1-.5-.3-.8-.4-.2-.2-.5-.4-.6-.7v1.3h-1.5v-13h1.5zm5.6 6.9c-.1-.4-.3-.8-.5-1.1-.2-.3-.5-.6-.9-.8-.4-.2-.8-.3-1.3-.3s-1 .1-1.3.3c-.4.2-.7.5-.9.8-.2.3-.4.7-.5 1.1-.1.4-.2.9-.2 1.3 0 .5.1.9.2 1.3s.3.8.5 1.1c.2.3.5.6.9.8.4.2.8.3 1.4.3.5 0 1-.1 1.3-.3.4-.2.6-.5.9-.8.2-.3.4-.7.5-1.2s.1-.9.1-1.3c-.1-.3-.1-.8-.2-1.2zm5.6-6.9v13h-1.5v-13h1.5zm9.4 12.4c-.7.5-1.6.8-2.7.8-.8 0-1.4-.1-2-.4-.6-.2-1-.6-1.4-1-.4-.4-.7-1-.8-1.6-.2-.6-.3-1.3-.3-2s.1-1.4.3-2c.2-.6.5-1.1.9-1.5.4-.4.9-.8 1.4-1 .5-.2 1.1-.4 1.8-.4.8 0 1.5.2 2.1.5.6.3 1 .8 1.3 1.3.3.5.6 1.1.7 1.7.1.6.2 1.2.2 1.8h-7c0 .4 0 .8.1 1.2.1.4.3.7.5 1 .2.3.6.5.9.7.4.2.8.3 1.3.3.7 0 1.2-.2 1.6-.5.4-.3.7-.8.8-1.4h1.5c0 1.2-.5 2-1.2 2.5zm-.3-6.1c-.1-.3-.3-.6-.6-.8-.2-.2-.5-.4-.8-.6-.3-.1-.7-.2-1.1-.2-.4 0-.8.1-1.1.2-.3.1-.6.3-.8.6-.2.2-.4.5-.5.8-.1.3-.2.7-.2 1h5.4c-.1-.3-.2-.6-.3-1zm-54.5 26.3l-3-10.9-3 10.9h-1.8l-3.3-13h1.8l2.5 10.8 2.9-10.8h1.9l2.9 10.8 2.6-10.8h1.7l-3.5 13h-1.7zm14.3.2c-.4 0-.7-.1-1-.3-.2-.2-.4-.6-.4-1.1-.4.5-.9.9-1.5 1.1-.6.2-1.2.3-1.8.3-.4 0-.8 0-1.2-.1-.4-.1-.7-.2-1-.5-.3-.2-.5-.5-.7-.8-.2-.3-.2-.7-.2-1.2s.1-1 .3-1.3c.2-.3.4-.6.7-.8.3-.2.6-.4 1-.5l1.2-.3c.4-.1.8-.1 1.2-.2.4 0 .7-.1 1-.2.3-.1.5-.2.7-.3.2-.2.3-.4.3-.7 0-.3-.1-.6-.2-.8-.1-.2-.3-.4-.5-.5-.2-.1-.4-.2-.7-.2-.2 0-.5-.1-.7-.1-.7 0-1.2.1-1.6.4-.4.2-.7.7-.7 1.4h-1.5c0-.6.1-1.1.4-1.5.2-.4.5-.7.9-1 .4-.2.8-.4 1.3-.5.5-.1 1-.2 1.5-.2.4 0 .8 0 1.3.1.4.1.8.2 1.1.4.3.2.6.5.8.8.2.3.3.8.3 1.3v4.8c0 .4 0 .6.1.8 0 .2.2.3.4.3.1 0 .3 0 .5-.1v1.2c-.5.2-.9.3-1.3.3zm-2.2-4.7c-.3.1-.6.1-1 .2-.3 0-.7.1-1 .1-.4.1-.7.1-.9.3-.3.1-.5.3-.7.5-.2.2-.3.5-.3.9 0 .3.1.5.2.6.1.2.2.3.4.4.2.1.4.2.6.2.2 0 .5.1.7.1.5 0 .9-.1 1.3-.2s.7-.3.9-.5c.2-.2.4-.4.5-.7.1-.2.2-.5.2-.7v-1.6c-.3.2-.6.3-.9.4zm5.2-6.6v-1.9H71v1.9h-1.5zm1.5 1.7v9.4h-1.5v-9.4H71zm4 7.3c.1.2.3.4.6.6.2.1.5.2.8.3.3.1.6.1.9.1.2 0 .5 0 .8-.1.3 0 .5-.1.7-.2.2-.1.4-.2.6-.4.1-.2.2-.4.2-.7 0-.4-.2-.7-.5-.9-.3-.2-.7-.4-1.1-.5l-1.5-.3c-.5-.1-1-.2-1.5-.4s-.8-.5-1.1-.8c-.3-.3-.5-.8-.5-1.4 0-.5.1-.9.3-1.2.2-.3.5-.6.8-.8.3-.2.7-.4 1.1-.5.4-.1.8-.2 1.2-.2.5 0 1 0 1.5.1.4.1.8.2 1.2.5.3.2.6.5.8.9.2.4.3.9.4 1.4h-1.5c0-.3-.1-.6-.2-.8-.1-.2-.3-.4-.5-.5-.2-.1-.4-.2-.7-.3-.2-.1-.5-.1-.8-.1-.2 0-.5 0-.7.1-.2 0-.5.1-.6.2-.2.1-.4.2-.5.4-.1.1-.2.3-.2.5 0 .3.1.5.3.7.2.2.4.3.7.4.3.1.6.2 1 .3.4.1.7.2 1.1.2.4.1.8.2 1.1.3.4.1.7.3 1 .5.3.2.5.5.7.8.2.3.3.7.3 1.1 0 .6-.1 1-.4 1.4-.2.4-.5.7-.9.9-.4.2-.8.4-1.3.5-.5.1-1 .1-1.4.1-.5 0-1-.1-1.5-.2s-.9-.3-1.3-.5-.7-.6-.9-1c-.2-.4-.3-.9-.4-1.5h1.5c.2.5.2.8.4 1zm12.3-7.3v1.4h-1.9v6.2c0 .1.1.2.2.3.1.1.2.1.4.1h1.3v1.4h-1.2c-.4 0-.7 0-1-.1-.3-.1-.5-.2-.7-.3-.2-.1-.3-.4-.4-.6-.1-.3-.1-.6-.1-1.1v-6h-1.6V96h1.6v-2.8h1.5V96h1.9z"/></g><g><path class="st3" d="M60.3 49.6c.3.5 18.5-11.4 18.8-10.9.3.5-18.6 11.7-18.3 12.1.3.5 17.8-11 18.1-10.5.3.5-18.3 11.6-18.1 12 .2.4 18.4-11.2 18.6-10.8.3.5-18.2 11.4-17.9 11.9.3.5 17.8-11 18.1-10.5.3.4-18.3 11.5-18 12 .3.4 18.2-11.1 18.5-10.7.3.5-18 11.3-17.7 11.8.2.4 17.3-10.6 17.6-10.1.3.5-17.5 11.1-17.2 11.5.2.7 17.7-10.4 18-10 .3.5-18 11.4-17.7 11.8.2.4 17.4-10.7 17.7-10.2.3.5-17.5 11.1-17.3 11.5.2.4 17.6-10.8 17.9-10.3.2.4-17.8 11.2-17.5 11.7.3.5 17.7-10.9 18-10.4.2.4-14 9.2-13.8 9.6.2.3 13.6-8.4 13.8-8 .1.2-10.2 7.2-10.1 7.4.1.2 10.4-6.3 10.6-6.1.1.2-6.2 5-6.1 5.2.1.1 5.9-3.7 6-3.5 0 0-.3 1.7-.3 1.8l1.2-.7"/><path class="st3" d="M46.9 21.6l.4-.2c0 .1-1.6 2.4-1.6 2.5 0 .1 4-2.4 4-2.3.1.1-4.4 4-4.3 4.1.1.2 7-4.2 7.1-4.1.1.2-7.9 5.9-7.8 6.1.1.2 10.5-6.4 10.6-6.1.2.3-11.7 7.9-11.5 8.2.2.3 13.4-8.2 13.6-7.9.2.4-14 9.1-13.8 9.5.2.4 15.5-9.5 15.8-9.1.2.3-16.5 10.5-16.3 11 .3.6 19.6-12 19.9-11.5.2.4-21 13-20.6 13.5.4.7 23.7-14.4 24-13.8.4.7-24.6 15.1-24.3 15.7.4.6 26.8-16.2 27.1-15.6.4.6-28 16.7-27.5 17.5.5.8 30.2-18.6 30.7-17.7.3.6-31.4 18.6-30.9 19.4.4.7 31.9-19.6 32.4-18.7.5.8-33.4 19.6-32.9 20.5.5.9 33-20.2 33.5-19.3.4.7-34.8 20.4-34.2 21.4.4.7 34.3-20.8 34.7-20 .4.7-35.3 20.7-34.8 21.6.5.9 34.9-21.3 35.4-20.4.5.9-36.2 21.4-35.7 22.2.5.8 35.2-21.4 35.6-20.6.5.9-37 21.8-36.5 22.6.5 1 36.9-22.4 37.4-21.6.6 1-38.2 22.2-37.6 23.3.5.9 37.1-22.5 37.6-21.7.5.8-38.6 22.7-38 23.6.7 1.2 38.1-23.4 38.7-22.3.6 1.1-39.4 22.9-38.8 24 .5.9 38.5-23.3 38.9-22.5.6 1-40.1 23.4-39.5 24.4.6 1 39.4-23.9 39.9-23C78.2 35 38.5 57.2 39 58c.5.9 38.5-23.7 39.1-22.6.4.8-37.5 22-36.9 23 .6 1.1 36.8-22.7 37.4-21.6.5.9-36.4 21.4-35.8 22.3.4.8 35.5-21.4 35.9-20.7.6 1-34.4 20.2-33.8 21.1.2.3 14.9-9.1 15.1-8.7.2.4-13.3 8.8-13.1 9.1.2.3 12-7.4 12.2-7.1.2.3-10.2 7.1-10.1 7.4.1.2 9.3-5.7 9.5-5.5.1.2-7.6 5.7-7.5 5.9.1.2 6.8-4.1 6.9-4 .1.1-5.1 4.4-5 4.5.1.1 4.4-2.7 4.5-2.6 0 .1-2 2.7-2 2.7s1.4-.9 1.4-.8"/><path class="st4" d="M37.3 57.4l.1-.1v-.2zm.2-1.4c0 .1 0 0 0 0l-.1.9c.2-.3 0-.7.1-.9zm.1-.2c.1-.3.1-.4.1-.5 0 .1-.2.6-.1.5zm5.9-26.2s0 .1 0 0z"/><path class="st4" d="M45.4 22.9c-.1.6-.4 1.2-.6 1.9-.3.7-.5 1.3-.8 2v-.1c-.6 1.6-1 3.3-1.3 5-.3 1.6-.8 3.3-1.2 5v-.1c0 .2 0 .4-.1.5V37c-.3.7-.3 2.1-.5 2.6 0 .2 0 .3.1.2-.3 1.3-.6 2.7-.9 4.1-.3 1.4-.5 2.8-.8 4.1 0 .1-.1.1-.1.1-.3 2.2-.8 4.5-1.4 6.8l-.1.3c0 .1.1-.2.1 0 0-.1.1-.2.1-.3.1-.6.1-1.2.3-1.7v.1c.1-.5-.1-.1.1-.6.1-.2 0 .1.1 0 .2-1.1.5-2.2.6-3.2.1-.2.3-1.1.5-1.5 0-.3.1-.6 0-.7.2-.9.4-1.9.6-2.8.2-.9.5-1.9.7-2.8.4-1.9.7-3.9 1.2-5.7.1-.9.4-1.9.7-2.9.3-1 .5-2.1.7-3.2.1-.7.4-1.7.7-2.5l.2-.7.7-1.8c.1-.3.2-.6.4-.9l.3-.9c.2-.6.3-1.3.8-1.5.2-.1.5 0 .8 0h1c1.3 0 2.6.1 3.9.1 1.3.1 2.6-.1 3.8.2.7.2 1.4.4 2.1.5.4.1.8 0 1.1 0 .3-.1.7-.1 1-.2 1.4-.2 2.7-.4 4.1-.4 1.4 0 2.7-.1 4.1-.2.7 0 1.4-.1 2.1-.1.7 0 1.4-.1 2.1 0h-.1c.8 0 .8 1 1 1.7.3.8.5 1.5.8 2.2.4.9.8 1.8 1.1 2.7.3.9.6 1.9.8 2.9.5 1.9.8 3.9 1.4 5.7.5 2.2 1 4.6 1.5 7 .5 2.4.9 4.9 1.7 7.1.4 1.1.6 2.2.8 3.3.1.6.2 1.1.2 1.7 0 .6.4 1.2.4 1.6-.2.1-.7.2-1 .3-.4.1-.7.2-1.1.2-.8.1-1.5.4-2.2.7-.9.3-1.9.4-2.9.8l-1.5.3c-.5.1-1 .3-1.5.4-2 .5-4 .5-6 1-.6.1-1.3.3-1.9.4l-.5.1h-.2c-.1 0-.1-.1-.1-.2-.1-.3-.3-.6-.3-1-.1-.7-.4-1.3-.6-2-.2-.6-.4-1.2-.5-1.8-.3-1.2-.6-2.3-.9-3.4l-.5-1.7-.6-1.9-.2-.6c0-.2-.1 0-.1.1l-.1.3c-.1.3-.3.7-.4 1-.2.6-.3 1.1-.4 1.7-.1.6-.2 1.2-.4 1.7-.2.6-.5 1.1-.6 1.7-.4 1-.7 2-.9 3.1-.3 1.1-.6 2.1-.9 3.2-.2-.1-.3-.1-.5-.2s-.3-.1-.4-.1c-.3-.1-.5-.1-.8-.2l-1.6-.2c-1.1-.2-2.2-.4-3.2-.7-2-.3-4.2-.8-6.3-1.4l.1.1c-.7-.3-1.7-.4-2.2-.7h.1c-.4-.2-1 .1-1.2-.1h-.1c-.5-.1 0-.1-.4-.2-.1 0-.1.1-.4 0 0-.2-1.2-.3-1.2-.6.3.1-.4-.2.2-.1-.3-.1-1-.4-1-.3-.1.1-.5 0 0 .3h.1c.1.1.1.1.1.2.7.3.7.4 1.2.6.3 0 .8.2 1 .3l.1.1c.1.1.8 0 .6.1.7.1 1.3.3 2.1.6.7.2 1.5.4 2.3.6.2 0 1.2.2.9.1.4.2 1.5.4 1.9.5h-.1c.8.3 1 0 1.7.4.2-.1 1.4.3 1.9.2l.1.1c.7.1 1.4.3 2.2.4.7.1 1.4.2 1.9.3.1 0 .2 0 .4.1.3.1.5.2.8.3.2-.6.3-1.2.5-1.7.1-.4.2-.8.2-1.2.2-.7.6-1.8.8-2.8v.1c.2-.5.3-1.1.6-1.7.2-.5.4-1.1.5-1.5.3-.3.4-.8.5-1.3 0-.4.2-.9.3-1.5l.1-.2v-.1.3s.1.3 0 .3c.6 1.5 1.2 3.3 1.7 5 .3.9.5 1.8.7 2.7.1.5.2.9.3 1.3.1.4.1.9.3 1.4 0 .1.1.1.1.2s.1.2.2.3l.2.3c.1 0 .2 0 .3-.1.1 0 .2-.1.3-.1l.2-.1c.1 0 .2-.1.3-.1h-.1l1.8-.3-.1.1c.6-.2 1.2-.2 1.9-.4l.4-.1s0 .1-.2.1c1.2-.2 2.4-.3 3.6-.5.6-.1 1.2-.3 1.8-.4.6-.1 1.2-.2 1.8-.4.6-.2 1.1-.3 1.8-.5.6-.1 1.2-.4 1.8-.6.6-.2 1.1-.4 1.8-.4l.9-.3.4-.2c.1 0 .4-.1.6-.2 0-.2-.1-.5-.1-.7l-.2-.5c-.1-.3-.1-.6-.2-1l.1.2-.2-1.1s0 .1.1.1c-.1-1.4-.6-2.8-.9-4.1 0 0 .1.2.1 0-.4-.9-.3-1.6-.6-2 0 0 0-.1.1 0-.4-1.3-.6-2.7-.9-4.1-.3-1.4-.6-2.8-.9-4.1-.4-1.1-.6-2.3-.9-3.5l-.9-3.6c-.4-1.5-.8-3.1-1.2-4.7-.5-1.6-1.1-3.1-1.7-4.6l-.3-.9c-.1-.3-.1-.6-.2-.8-.1-.3-.2-.6-.4-.8-.3-.4-.6-.5-1-.5v-.1c-2.3.1-4.8-.1-7.2.2l.2-.1c-.4.1-1.4 0-1.3.2h-.4c-1.6.4-2.9.3-4.9.7h.1c-.5.1-1.1 0-1.5-.2h.2c-.8-.3-1.6-.6-2.5-.6-.9 0-1.8.1-2.7.1l.2-.1c-.8.1-2.4-.1-3.5 0h.1-.6V21h-1.1c-.3 0-.7-.2-1.1 0-.4.2-.6.5-.6.9-.1.3-.2.6-.3 1zm-3.9 14s0-.1 0 0c0-.1 0-.1 0 0z"/><path class="st4" d="M38.6 58.2c-.1 0-.1 0-.2-.1 0 .1.1.1.2.1zm21.5-8.9h.1l-.1-.1zM60 49.1s-.1 0 0 0l.1.1c.1-.1-.2-.1-.1-.1zm0-.1s-.1 0 0 0zm-.3-4.4zm-.5-1.1c.1.2 0 .5.1.7 0 .6.2 1.1.3 1.7 0 0 .1 0 .1.1-.1.1.1.3 0 .4h.1c.1.5.2.9.2 1.4h-.1c.2.4.1.8.1 1.2h.1c.1-.1-.1-.2 0-.3 0-.1-.1 0-.1-.1h.1c0-.2 0-.4-.1-.5.1 0 0-.2.1-.3 0 0 0-.1-.1-.1.1-.7-.2-1.3-.2-1.9-.2-.3 0-.7-.1-1-.1-.1-.1-.3-.1-.4l-.1-.1c.1-.9-.2-1.7-.2-2.6v-1.3c0-.5 0-.9-.2-1.4-.1-.3 0-.5 0-.8-.2-.6 0-1.3-.2-1.9 0-.7.1-1.6.1-2.4 0-.6.2-1.2.1-1.9.1-.7-.3-1.3-.3-2 .1-.4-.4-.9-.2-1.3.2-.8.1-1.5-.1-2.3.1-.7-.2-1.4-.1-2.1-.2-.3.1-.7 0-1.1.1-.1-.2-.3 0-.4.1-.1-.3-.2-.1-.2h-.1c0-.1.1 0 .1-.1 0 0-.1 0-.1-.1.2 0 0-.2.2-.2 0 0 .1 0 .1.1 0 0 .1-.1-.1-.2-.1 0-.2-.1-.3-.1h.1-.1c0 .1-.2.1-.2.2.1.1 0 .1 0 .2-.1 0 .2.2 0 .1 0 .3 0 .5.1.8.1 0 0 .2.1.1-.1.1-.1.3-.1.4-.2.2.2.1 0 .3.2 0 0 .2.2.3h-.1v.7c.2.1 0 .4.2.5 0 .1-.1.3 0 .5 0 .2 0 .4.1.5-.2.1-.1.1-.2.2.1.1.1.4.1.6-.1 0 0 .2-.1.2.2.6.3 1.2.2 1.8.1.1.2.1.3.2 0 .1-.1.2 0 .3.1.1-.1.2 0 .3l.1.1h-.1c.1.8.3 1.8.2 2.7l.1.2c-.1.2 0 .5 0 .7h-.1c.1.2-.2.2.1.3h-.1c0 .5 0 .9-.1 1.4.2.4 0 .8.2 1.2.2.5 0 1.1.1 1.6 0 .2 0 .4.1.6h-.1c.2.4-.2.8 0 1.2H59c.1.1 0 .2.1.2l-.1.1c.2.3-.1.5.1.8 0 .1.1.2.1.2-.1.3.1.6.1.9h-.1c.1.1.1.4.1.6l.1.1h-.1c-.2-.1-.1.1-.1.4zm.4 2.3zM58 22.2c0-.1 0 0 0 0zm5.5 38.9v.1zm-.1.2c0 .1 0 .1 0 0l.1-.2c-.2 0-.1.3-.1.2zm.4.2s-.1 0 0 0c0 0-.1.1 0 0zm-.7-2.8z"/><path class="st4" d="M62.7 58c.1.1 0 .3 0 .4 0 .4.2.7.3 1.1h.1c-.1.1.1.2 0 .3h.1l.3.9h-.1c.2.2.2.5.2.8h.1c0-.1-.2-.1-.1-.2 0-.1-.1 0-.1-.1h.1c0-.1 0-.2-.2-.3.1 0 0-.1.1-.2 0 0 0-.1-.1-.1 0-.4-.2-.8-.3-1.2-.2-.2-.1-.4-.2-.6-.1-.1-.1-.2-.1-.3l-.1-.1c.1-.6 0-1.1 0-1.7 0-.7.1-1.2-.3-1.8-.1-.2 0-.3-.1-.5-.2-.4-.1-.9-.3-1.3l-.3-1.5c-.2-.4 0-.8-.2-1.2 0-.4-.4-.8-.4-1.3.1-.3-.4-.5-.3-.8.1-.6-.3-1-.6-1.4-.1-.5-.5-.8-.5-1.3-.2-.1 0-.5-.2-.7.1-.1-.3-.1-.1-.2.1-.1-.3 0-.2-.1h-.1s.1 0 .1-.1h-.1c.2-.1-.1-.1.1-.2 0 0 .1-.1.1 0 0 0 0-.1-.1-.1s-.2 0-.3.1h.1l-.1.1c0 .1-.1.1-.1.2.1 0 .1.1.1.1-.1.1.2 0 0 0 .1.1.2.3.3.4.1 0 .1.1.1 0-.1.1-.1.2-.1.3-.1.2.2 0 0 .2.1-.1 0 .2.2.1 0 0-.1 0-.1.1.1.1.1.3.1.4.2 0 .1.3.3.3 0 .1 0 .2.1.3.1.1.1.2.3.3-.2.1-.1.1-.1.2.1 0 .2.2.3.3-.1.1.1.1 0 .1.4.2.4.7.4 1.1.1 0 .2 0 .3.1 0 .1-.1.2 0 .2s-.1.1 0 .2c.1.6.5 1.1.5 1.7l.1.1c0 .2.1.3.1.4h-.1c.1.1-.1.2.1.2h-.1c.1.3.2.6.2.9.2.2.1.5.3.8.2.3.1.7.2 1 0 .1.1.2.1.4h-.1c.2.2-.1.5.1.8h-.1c.1 0 0 .2.2.1l-.1.1c.3.1-.1.3.1.5 0 .1.1.1 0 .2-.2.2 0 .4 0 .6h-.1c.1.1 0 .3.1.4l.1.1h-.1c.1.1.2.2.2.4zm.4 1.5zm-4-14.9zM59.1 46.7v.1h.1z"/><path class="st4" d="M59.3 46.9l-.1-.1c-.2 0 .1.1.1.1zm-.1 0s.1.1 0 0c0 0 .1 0 0 0zm-.6 2.4z"/><path class="st4" d="M58.8 50c0-.1.1-.2.1-.4.1-.3.1-.6.1-.9 0 0-.1-.1 0-.1s0-.2.1-.2H59c0-.2.1-.5.1-.8h.1c-.1-.3 0-.4.1-.7h-.1c-.1.1.1.1 0 .2 0 0 .1 0 0 .1h-.1c0 .1-.1.2 0 .3-.1 0 0 .1-.1.1 0 0 0 .1.1.1-.1.3-.1.7-.3 1 .1.2-.1.3-.1.6v.2l.1.1c-.3.4-.3.9-.5 1.3-.2.5-.6.9-.5 1.5 0 .2-.1.3-.1.4.1.4-.2.7-.1 1.1-.2.4-.3.8-.4 1.3 0 .4-.3.6-.4 1-.2.3 0 .8-.2 1.1-.2.2.1.6-.1.7-.4.4-.3.8-.2 1.3-.2.4 0 .8-.3 1.1.1.2-.3.3-.3.5-.2 0 .2.2-.1.2-.1 0 .2.2.1.1h.1c-.2 0 0 .1-.2.1 0 0-.1 0-.1-.1 0 0 0 .1.1.1s.2.1.3.1h-.1.1c0-.1.1 0 .2-.1-.1-.1 0-.1 0-.1.1 0-.2-.1 0-.1 0-.1 0-.3.1-.4-.1 0 0-.1-.1-.1.1 0 .2-.1.2-.1.2 0-.1-.1.1-.1-.1-.1.1-.1-.1-.2h.1c0-.1.1-.3.2-.4-.1-.1.1-.2-.1-.3.1-.1.2-.2.1-.3 0-.1 0-.2-.1-.3.2 0 .2 0 .2-.1-.1-.1 0-.2-.1-.3.1 0 0-.1.1-.1-.2-.3 0-.7.2-.9-.1-.1-.2-.1-.3-.2 0-.1.1-.1.1-.1 0-.1.1-.1 0-.2v-.1h.1c.2-.5.1-1 .3-1.5v-.1c.1-.1 0-.3.1-.4h.1c-.1-.1.2-.1 0-.2h.1c0-.3.1-.5.2-.7-.1-.3.2-.4.1-.7-.1-.3.2-.6.2-.9 0-.1 0-.2.1-.3h.1c-.1-.3.3-.3.2-.6h.1c-.1-.1.1-.1-.1-.2h.1c-.2-.2.2-.2.1-.4v-.1c.2-.1.1-.3.2-.5h.1c-.1-.1.1-.2.1-.3v-.1h.1c-.2.3-.2.2-.2.1zm.2-1.3zm-3.2 12.7zM73.5 22.6v.1zm0 .2v-.1c0-.2.1.2 0 .1zm0 0c0-.1 0 0 0 0s0 .1 0 0zm-1.1.1zm-.3.3c0-.1.1.1.2 0 .2 0 .3-.1.4-.1V23c0 .1.1-.1.1 0v-.1c.1 0 .2-.1.3-.2v.1c.1-.2.2-.1.3-.1v-.1c0-.1 0 .1-.1 0s-.1 0-.1.1c0-.1 0 0-.1-.1v.1c-.2 0-.3.1-.5 0-.1.2-.2 0-.3 0l-.1.1v.1c-.3-.2-.5 0-.7-.1-.3 0-.5-.2-.7.1h-.2c-.2.2-.4 0-.5.2-.2 0-.4 0-.6.1-.2.1-.3-.1-.5 0-.2-.1-.3.3-.5.2-.1-.2-.2.3-.3.1-.2-.3-.4-.1-.6.1-.2-.1-.4.2-.6 0-.1.2-.2-.2-.3-.1-.1-.1 0 .2-.1 0v.2c0-.2 0 .1-.1-.2v-.2.1c0 .1 0 .2.1.3v-.1.1s.1.1.1.2c0-.1 0 0 0 0 0 .1 0-.2 0 0 .1 0 .1-.1.2-.1 0-.1.1 0 0-.1 0 .1.1.2.1.2.1.2 0-.2.1 0 0-.2.1 0 .1-.1v.1h.2c0-.1.1.1.1-.1 0 0 .1.1.1 0 0 0 .1 0 .1-.2 0 .2.1.1.1.2 0-.1.1-.1.1-.2 0 .1 0 0 .1.1.1-.3.3-.2.5 0v-.3l.1.1c0-.1.1.1.1 0v.1c.2 0 .5-.2.7-.2v-.1c.1.1.1-.1.2 0v.1c0-.1.1.1.1-.1v.1c.1-.1.2-.1.4-.1.1-.2.2 0 .3-.2.1-.2.3 0 .4 0h.2v.1c.1-.2.2.2.3-.1v.1c0-.1.1 0 0-.2v.1c.1-.3.1.1.2-.1 0 0 0-.1.1 0 .1.2.2 0 .2 0v.1c0-.1.1 0 .1-.1v-.1.1c.1.3.2.2.2.2zm.7-.1zm-6.3.9zM64.9 23.4v.1zm-.1.2v-.2.2zm0 0c0-.1 0 0 0 0s0 .1 0 0zm-1.9.3zm-.4.4c.1-.1.2 0 .3 0 .3 0 .5-.2.7-.3v-.1c.1.1.1-.1.2 0v-.1c.2-.1.4-.1.6-.2v.1c.1-.2.3-.2.5-.2v-.1c-.1-.1-.1.1-.1.1-.1 0-.2 0-.2.1 0-.1-.1 0-.1-.1v.1c-.3 0-.5.1-.8.2-.1.2-.3 0-.4.1 0 .1-.1.1-.2.1v.1c-.4-.1-.7.1-1.1.1-.4 0-.8-.1-1.2.3-.1.1-.2 0-.3.1-.3.2-.6 0-.8.2-.3 0-.7 0-1 .1-.3.1-.5-.1-.8-.1-.3-.1-.6.2-.9 0-.1-.2-.4.2-.6-.1-.3-.4-.6-.2-1-.1-.3-.2-.6.1-.9-.2-.2.1-.3-.2-.4-.2v.1c0-.2-.2.2-.2 0 0-.1-.1.3-.1.1v.1c0-.2-.1 0-.1-.2v-.2s-.1 0-.1.1-.1.2 0 .3v-.1.1s0 .1.1.2c0-.1.1 0 .1 0 0 .1.1-.2 0 0h.3c0-.1.1 0 .1-.1 0 .1.1.2.1.2 0 .2.1-.2.1.1 0-.2.1.1.2-.1v.1c.1 0 .2.1.3.1.1-.1.2.1.3-.1 0 0 .1.1.2.1s.2 0 .3-.1c0 .2 0 .2.1.2.1-.1.2 0 .3-.1 0 .1.1 0 .1.1.3-.2.5-.1.8.1 0-.1.1-.2.1-.3l.1.1s.1.1.1 0v.1c.4.1.8-.1 1.2 0l.1-.1c.1.1.2 0 .3 0v.1c.1-.1.1.1.2-.1v.1c.2-.1.4-.1.6 0 .2-.2.4 0 .5-.2.2-.2.5 0 .7-.1.1 0 .2-.1.3-.1v.1c.1-.2.4.1.5-.1v.1c0-.1.1 0 .1-.2v.1c.1-.3.2.1.3-.1 0 0 .1-.1.1 0 .1.2.2-.1.4-.1v.1c0-.1.2 0 .2-.1v-.1.1c-.4-.1-.3-.2-.2-.2zm1-.3zm-10.3.5zM51.9 23.5l-.1.1zm-.1.2v-.1.1zm0 0c0-.1 0 0 0 0zm-1-.1zm-.4.3c.1 0 .1.1.2 0 .1 0 .3-.1.4-.1v-.1c0 .1.1-.1.1 0v-.1c.1 0 .2 0 .3-.1v.1c.1-.2.2-.1.3-.1v-.1c0-.1-.1.1-.1 0s-.1 0-.1.1c0-.1 0 0-.1-.1v.1c-.1-.1-.3 0-.4 0-.1.2-.2-.1-.2 0 0 0-.1.1-.1 0v.1c-.2-.2-.4-.1-.6-.2-.2-.1-.5-.2-.7 0h-.2c-.2.1-.3-.1-.5.1-.2-.1-.4-.1-.6 0-.2.1-.3-.1-.4-.1-.1-.1-.3.2-.5.1-.1-.2-.2.2-.3 0-.2-.3-.4-.1-.6 0-.2-.1-.3.2-.5-.1-.1.1-.2-.2-.3-.1 0-.2-.1.2-.1 0v.2c0-.2 0 .1-.1-.2v-.2.4-.1.1s0 .1.1.2c0-.1 0 0 0 0 0 .1 0-.2 0 0h.2v-.1c0 .1.1.2.1.2 0 .2 0-.2.1.1 0-.2.1.1.1-.1v.1c.1 0 .1.1.2.1 0-.1.1.1.1-.1 0 0 .1.1.1 0 0 0 .1 0 .1-.1v.2c0-.1.1-.1.1-.1v.1c.1-.2.3-.1.4.1 0-.1.1-.2.1-.3 0 0 0 .1.1.1 0-.1 0 .1.1 0v.1c.2.1.5-.1.7-.1v-.1c.1.1.1 0 .2 0v.1c0-.1 0 .1.1-.1v.1c.1-.1.2 0 .3 0 .1-.2.2 0 .3-.1.1-.1.3.1.4 0h.1v.1c.1-.2.2.2.3 0v.1c0-.1.1 0 .1-.1v.1c.1-.2.1.1.2 0 0 0 0-.1.1 0 0 .2.1 0 .2 0v.1c0-.1.1 0 .1 0V24v.1c0-.2.1-.2.1-.2zm.6 0zm-5.6-.1z"/><path class="st4" d="M38.2 53.6v-.1zm0-.4l.1.2c.1 0-.2-.1-.1-.2zm0 0c.1 0 0-.1 0-.1s-.1.1 0 .1zm1.3-4.8zm.1-1.3c0 .2-.1.5-.2.7l-.3.9c0 .3-.1.6-.1.9v.1c-.2.1-.1.4-.2.5 0 0 0 .1.1.1-.2.5-.3 1-.3 1.5h-.1c.1.5 0 .9-.2 1.4h.1c.1-.1 0-.3.1-.4.1-.1-.1 0 0-.1h.1c0-.2.1-.4 0-.6.1 0 0-.2.2-.3 0-.1 0-.1-.1-.1.2-.6.4-1.3.6-2 0-.2 0-.4.1-.6.1-.2.2-.3.2-.5 0-.1 0-.3.1-.5v-.2c.2-.5.3-.9.4-1.4.1-.4.3-.9.5-1.3.5-1 .8-2 .7-3.1 0-.3.1-.6.2-.8 0-.8.3-1.5.3-2.2.2-.8.3-1.8.3-2.7 0-.7.4-1.3.5-2 .1-.3.2-.7.2-1.1 0-.4 0-.8.1-1.1.3-.4 0-1.1.3-1.5.2-.4.4-.8.5-1.2.2-.4.1-.9.1-1.3.1-.4.3-.8.5-1.1.2-.4.2-.7.4-1.1-.1-.4.3-.7.4-1.1H45c.2-.1-.1-.4.2-.4.1-.1-.2-.2-.1-.3H45c0-.1.1 0 .1-.1 0 0-.1 0-.1-.1.2 0 0-.2.2-.2 0 .1.1-.1.2 0 0 0 0-.2-.1-.2s-.2-.1-.3 0h.1-.1c0 .1-.1.1-.2.2.1.1 0 .1 0 .2-.1 0 .2.2 0 .1 0 .2-.1.5-.2.8 0 .1-.1.2.1.2-.2 0-.2.3-.3.3-.2.1.1.2-.1.3.2.1-.1.2.1.4h-.1c0 .1-.1.3-.1.4 0 .1-.1.2-.1.3.1.2-.2.4-.2.6-.1.1-.3.3-.3.5-.1.2-.1.5 0 .7-.2 0-.2.1-.2.2.1.2 0 .4-.1.6-.1 0 0 .2-.2.2 0 .7-.2 1.4-.5 2 0 .1.2.2.2.3 0 .1-.2.2-.2.3 0 .1-.1.2-.1.4v.1s-.1 0-.1-.1c-.1.5-.1 1-.2 1.5l-.3 1.5v.2c-.1.2-.1.5-.1.8h-.1c.1.2-.2.3 0 .4h-.1c0 .5-.1 1-.2 1.5.1.5-.2.9-.1 1.4.1.6-.2 1.2-.3 1.8-.1.2-.1.4-.1.7l.1-.4c.1.5-.3.8-.2 1.3h-.1c.1.1-.1.2.1.3l-.1.1c.2.4-.3.5-.2.9 0 .1 0 .2-.1.3-.3.2-.2.6-.3.9l-.1-.2c0 .2-.2.4-.2.6v.1h-.1c-.1.2-.1.5-.1.8zm-.7 2.6zM45 23.9c0-.1 0-.1 0 0z"/><path class="st4" d="M49.6 23.2v-.1.1zm-.1.2v-.2c-.1-.1 0 .2 0 .2zm-.1 0s0 .1 0 0c0 0 .1.1 0 0zM48.1 25zm0 .6c0-.1.2-.1.2-.2.2-.2.2-.5.3-.7v-.1c.1 0 0-.2.1-.1 0 0 0-.1-.1-.1l.3-.6.1.1c0-.3.2-.4.3-.5 0 0-.1 0-.1-.1-.1 0 0 .2-.1.2s.1.1 0 .1c-.1.1-.1.1-.1.3-.1-.1-.1.1-.2 0v.1c-.2.2-.3.5-.5.7.1.2-.2.2-.3.4 0 .1 0 .1-.1.2v.1c-.4.2-.5.6-.8.9-.1.2-.3.3-.4.5-.1.1-.2.3-.2.6 0 .1-.2.2-.2.3 0 .3-.4.5-.4.8l-.6.9c-.1.3-.4.4-.5.7-.2.2-.1.6-.4.8-.3 0 0 .5-.3.5-.4.1-.5.5-.5.9-.2.2-.2.7-.5.8 0 .2-.3.1-.4.3-.2 0 .1.2-.1.1-.1 0 .2.2.1.2h-.1s.1.1 0 .1c-.2-.1 0 .1-.2 0 0 0-.1 0-.1-.1 0 0-.1.1 0 .1.1.1.2.2.3.2l-.1-.1c.1 0 0 0 .1.1h.2c-.1-.1 0-.1 0-.1.1 0-.1-.2 0 0 0-.1.1-.2.2-.3 0-.1.1-.1-.1-.1.1.1.2 0 .2 0 .2.1-.1-.2.1-.1-.1-.1.1-.1 0-.2h.1l.2-.2c-.1-.1.2-.1 0-.3.1 0 .2-.1.1-.2v-.3c.2.1.2 0 .2 0v-.3c.1 0 0-.1.1 0-.1-.3.2-.5.5-.6 0-.1-.1-.2-.2-.3 0-.1.1 0 .1-.1s.1 0 .1-.1v-.1l.1.1c.3-.3.3-.8.6-1.1v-.1c.1 0 .1-.2.1-.3h.1c-.1-.1.2 0 0-.2h.1c.1-.2.2-.4.3-.5-.1-.3.2-.3.2-.5 0-.3.3-.4.4-.6.1-.1.1-.2.1-.2-.1-.3.4-.2.3-.5h.1c-.1-.1.1-.1-.1-.2h.1c-.1-.2.2-.1.2-.3v-.1c.2 0 .1-.2.2-.3l.1.1c0-.1.1-.1.1-.2v-.1h.1c.5.1.5 0 .6-.1zm.5-.9zm-5.7 8.9z"/><path class="st5" d="M42.4 35c.4-.5 1.7-1.6 1.9-2.2.2-.4 1.4-2.1 1.6-2.6.3-.5 1.4-2.4 1.7-2.8.3-.5 2-3.4 2.3-3.6"/><path class="st4" d="M76.2 32.5l.1-.1-.1.1zm-.1 0l.1-.1c.1 0-.2.2-.1.1zM76.1 32.5c0-.1-.1 0 0 0 0 0-.1.1 0 0zm-1-1.7z"/><path class="st4" d="M74.6 30.5c.1 0 0 .2.1.3.1.2.3.4.5.6h.1c-.1.1.1.1.1.2h.1c.1.2.2.4.4.5h-.1c.2.1.3.2.3.4l.1-.1c0-.1-.2 0-.1-.1 0 0-.1.1-.1 0h.1c-.1 0-.1-.1-.2-.1.1-.1 0-.1 0-.1h-.1c-.1-.3-.3-.5-.4-.8-.2 0-.1-.3-.2-.4-.1 0-.1-.1-.1-.1H75c-.1-.4-.4-.7-.5-1-.2-.4-.3-.8-.8-.9-.1-.1-.1-.2-.2-.3-.3-.1-.4-.5-.7-.6-.2-.3-.5-.5-.7-.8-.3-.2-.3-.5-.5-.7-.1-.3-.6-.3-.7-.5 0-.3-.5-.1-.5-.4-.1-.5-.5-.5-.9-.6-.2-.3-.6-.3-.7-.7-.2 0-.1-.4-.2-.4.1-.1-.3 0-.1-.1.1-.1-.3.1-.2 0h-.1s.1 0 .1-.1h-.1c.2-.1-.1-.1.2-.2 0 0 .1-.1.1 0 0 0 0-.1-.1 0-.1 0-.2 0-.3.1h.1-.1c0 .1-.1.1-.1.2.1 0 .1 0 .1.1-.1.1.2 0 0 0 .1.1.2.2.2.3.1 0 .1.1.1 0-.1.1-.1.2 0 .2-.1.2.2-.1.1.1.1-.1 0 .1.2 0 0 0 0 .1-.1.1.1.1.1.2.2.3.2-.1.1.2.3.1 0 .1 0 .2.1.2s.2.1.3 0c-.1.2 0 .2 0 .2.1 0 .2.1.3 0 0 .1.1 0 0 .1.3 0 .5.2.6.5.1 0 .2-.1.3-.2 0 0 0 .1.1.1s0 .1.1.1h.1l-.1.1c.3.3.7.4 1 .8h.1c0 .1.2.1.2.2 0 0-.1 0-.1.1.1 0 0 .2.2.1l-.1.1c.2.1.3.3.4.4.3 0 .3.3.5.3.3.1.3.4.5.5l.2.2c.3 0 .1.4.4.4h-.1c.1 0 0 .1.2 0v.1c.3-.1 0 .2.3.3.1 0 .1 0 .1.1-.1.2.2.2.2.3h-.1c.1 0 .1.1.2.2h.1-.1c-.6.2-.5.2-.4.3zm.6.9zm-7.3-7.7c0-.1 0 0 0 0z"/><path class="st5" d="M67.3 23.6c.2.8 1.7 1.8 2.3 2.3 1.2 1 2.3 1.8 3.4 3 .5.6 1.1 1.4 1.5 2.1.3.5.7 1.7 1.5 2.3"/><path class="st4" d="M82.3 57.3v-.1zm-.2-.3c0 .1 0 0 0 0l.2.2c.1-.1-.2-.1-.2-.2zm0 0c.1-.1 0-.1 0 0 0-.1 0 0 0 0zm-1.7-5.4zm-.7-1.4c.1.2.1.6.2.8l.6 2.1.1.1c-.1.2.2.4.1.5h.1c.2.5.4 1.1.8 1.6 0 0 0 .1-.1.1.2.2.4.4.5.6.1.3.2.6.2.9.1 0 0-.1.1 0 0-.2-.2-.3-.1-.5h.1c0-.1-.1 0-.1-.1s.1 0 .1 0c-.1-.3-.2-.5-.4-.6.1-.1-.1-.2-.1-.3-.1 0-.1-.1-.2-.1-.3-.7-.7-1.4-.8-2.3-.3-.3-.1-.8-.2-1.3-.1-.1-.2-.4-.2-.5l-.1-.1c-.2-1.1-.6-2.1-.7-3.2-.1-.6-.1-1.2-.2-1.8-.1-.6-.4-1.2-.7-1.7-.2-.3-.2-.6-.3-.9-.3-.7-.3-1.7-.6-2.4l-.6-3c-.3-.8-.1-1.6-.3-2.4 0-.4-.3-.8-.4-1.2-.2-.4-.3-.8-.3-1.2.1-.6-.5-1.1-.5-1.6s-.2-1-.4-1.5c-.1-.5-.3-1-.5-1.4-.1-.9-.7-1.8-.7-2.7-.3-.4-.1-.9-.2-1.4.1-.2-.3-.3-.1-.5.1-.1-.3-.1-.2-.2h-.1c0-.1.1 0 .1-.1 0 0-.1 0-.1-.1.2-.1-.1-.2.1-.3 0 .1.1-.1.2 0 0 0 0-.2-.1-.2s-.2 0-.3.1h.1l-.1.1c0 .1-.1.2-.1.3.1 0 .1.2.1.2-.1.1.2.1.1.1l.3.9c.1 0 .1.2.2.1-.1.1-.1.4-.1.5-.1.2.2.2 0 .4.2 0 0 .3.2.3H74c.1.3.1.6.2.9.2.2.1.5.3.7 0 .2 0 .4.1.6.1.2.1.5.3.6-.2.1-.1.2-.1.3.1.1.2.4.3.7-.1.1.1.2 0 .2.4.6.8 1.4.7 2.2.1.1.3.1.4.2.1.1 0 .3 0 .4.1.1 0 .3.1.4l.1.1h-.1c.1.6.3 1.2.6 1.7.2.5.3 1.1.3 1.7l.1.2c0 .3.2.6.2.9h-.1c.1.2-.1.4.2.4h-.1c.2.6.3 1.2.4 1.8.3.5.2 1 .5 1.5.3.6.2 1.4.4 2 .1.3.2.4.3.7.4.4.2 1 .5 1.4h-.1c.1.1 0 .3.2.2v.1c.3.3 0 .6.2 1 .1.1.1.2.1.3-.1.4.1.7.2 1.1h-.1c.1.2.1.5.2.7l.1.1h-.1c-.9.2-.7.5-.6.8zm.8 3c-.1 0-.1 0 0 0zM73 23.6c0-.1 0 0 0 0zM52.2 25.5zm-.1-.1s-.1 0 0 0l.1.1c.1 0-.2-.1-.1-.1zm0 0c.1-.1 0-.1 0 0 0-.1-.1-.1 0 0zm.1-1.6z"/><path class="st4" d="M52.1 23.4c0 .1-.1.1-.1.2-.1.2 0 .4 0 .6h.1c-.1 0 .1.1 0 .1h.1c0 .2 0 .3.1.5h-.1c.2.2.1.3 0 .5h.1c.1 0-.1-.1 0-.2 0 0-.1 0-.1-.1h.1c0-.1 0-.2-.1-.2.1 0 0-.1.1-.1h-.1c.1-.2 0-.4 0-.6-.2-.1.1-.2 0-.3v-.1l-.1-.1c.3-.2.3-.6.4-.9.1-.4.2-.6.1-.8 0-.1.1 0 .1-.1s.2-.1.3-.1c.1 0 .1 0 .3-.1h.1v.6c0 .2-.3.3-.3.6-.2.2.1.5 0 .7-.2.1.2.4 0 .5-.3.3-.1.5 0 .8-.1.2-.1.4-.2.5-.1.1-.3.2-.4.1-.1.2-.2-.2-.4-.1 0-.2-.1.2-.1 0 0-.1-.1.3-.1.1v.1c0-.2-.1 0-.1-.2v-.2s-.1 0-.1.1v.3-.1.1s0 .1.1.2c0-.1 0 0 .1 0 0 .1.1-.2 0 0h.3c0-.1.1 0 .1-.1 0 .1.1.2.1.2.1.2.1-.2.1.1 0-.2.1 0 .1-.2v.1c.1 0 .3-.1.4-.2 0-.2.2-.2.1-.3.1 0 .2-.1.1-.2 0-.1 0-.2-.1-.3.2 0 .2 0 .2-.1-.1-.1-.1-.2-.1-.2.1 0 0-.1.1-.1-.2-.2-.1-.4.1-.6-.1 0-.2-.1-.3-.1l.1-.1c-.1 0 .1-.1 0-.1h.1c.1-.3-.1-.5.1-.8v-.1c.1-.1 0-.2.1-.3h.1c-.1-.1.2-.1-.1-.2h.1v-.7c-.1 0-.1 0-.1-.1-.2 0-.3-.1-.4 0-.2.1-.4 0-.6.1-.1 0-.1.1-.1.2.1.2-.3.2-.1.4h-.1c.1 0-.1.1.1.1h-.1c.2.1-.1.2 0 .3 0 0 .1.1 0 .1-.2.1 0 .2 0 .3h-.1c.1.1 0 .1 0 .2H52c.1.2.1.3.1.4zm-.2.8zm0 1.5z"/><g><path class="st4" d="M66.8 25zm-.2 0h.1c.2-.1-.1 0-.1 0z"/><path class="st4" d="M66.7 25c0-.1-.1-.1 0 0 0-.1-.1 0 0 0zm-.3-1.6z"/><path class="st4" d="M66 23.2c.1 0 0 .2.1.2 0 .2.2.3.3.5h.1c-.1.1.1.1 0 .2h.1c0 .2.1.3.2.5h-.1c.2.1.1.2.1.4h.1c.1 0-.1 0-.1-.1h-.1.1s0-.1-.1-.1c.1 0 0-.1.1-.1h-.1c0-.2 0-.4-.1-.7-.2-.1 0-.3-.1-.4-.1 0-.1-.1-.1-.1h-.1c.1-.4-.2-.5-.1-.8 0-.2.1-.3 0-.5 0-.2-.1-.4-.3-.5-.1-.1-.2-.2-.3-.2h-.4c-.1 0-.3 0-.4.1h-.1c0 .2 0 .6.1.8.1.2.1.5.2.6 0 .2.3.4.2.6-.2.2.3.3.1.5-.3.3-.1.6.1.8 0 .1.1.2.1.3.1.1.1.1.3.2.1-.1.2.2.4.1.1.1.1-.2.1 0 0 .1 0-.3.1-.1v-.1c0 .2.1-.1.1.2v.2s.1 0 0-.1v-.3s-.1-.1-.1-.2c0 .1 0 0-.1 0 0-.1 0 .2 0 0-.1 0-.2.1-.3.1 0 .1-.1 0 0 .1 0-.1-.1-.2-.1-.2 0-.2 0 .2-.1-.1 0 .2 0-.1-.1.1v-.2c-.1.1.1 0-.1 0 0 0 .1-.1 0-.1 0 0 0-.1-.2-.1.2 0 .1-.1.2-.1-.1 0-.1-.1-.1-.2.1 0 0-.1.1-.1-.2-.2-.2-.5 0-.7h-.3l.1-.1c-.1 0 .1-.1 0-.1h.1c0-.3-.3-.7-.4-1H65c0-.1-.1-.1-.1-.2h.1c-.1 0 .1-.1-.1-.1h.1c-.1-.1-.1-.2-.1-.3-.1 0-.1-.1-.1-.1 0-.1.2 0 .2-.1.1-.2.4 0 .5 0 0 0 .1 0 .2.1.2 0-.1.3.2.3h-.1c.1 0 0 .1.2.1h-.1c.3.1-.1.2.1.3 0 0 .1.1 0 .1-.2.1 0 .2 0 .3h-.1c.1 0 0 .1.1.2h.1-.1c-.1 0 0 .1 0 .2zm.3.7zm0 .9z"/></g><path class="st5" d="M58.6 37.5c1.1 0 2.2 0 2.9-.8.8-1 .9-1.7.9-3 0-1.6 0-3.1-.1-4.7-.1-.9 0-1.8-.2-2.7-.1-.6-.1-1.4-.4-2"/><g><path class="st4" d="M51.2 35.3zm.1.2s.1 0 0 0l-.1-.1c-.1 0 .2.1.1.1zm0 0c-.1 0 0 .1 0 0 0 .1.1 0 0 0zm-.9 3.9z"/><path class="st4" d="M50.4 40.5c0-.2.2-.4.2-.6.2-.5.2-1 .3-1.5 0 0-.1-.1 0-.1.1-.1 0-.3.1-.4 0 0 0-.1-.1-.1.1-.4.2-.8.2-1.3h.1c-.1-.4 0-.7.2-1.1h-.1c-.1.1.1.2 0 .3 0 .1.1 0 0 .1h-.1c0 .2-.1.3 0 .5-.1 0 0 .2-.2.2 0 .1 0 .1.1.1-.2.5-.2 1.1-.4 1.7.1.3-.2.6-.2.9 0 .1 0 .3-.1.4l.1.1c-.4.7-.5 1.5-.8 2.2-.3.8-.7 1.5-.7 2.4 0 .3-.2.4-.2.7 0 .6-.4 1.2-.4 1.7-.2.6-.4 1.4-.6 2.1-.1.6-.4 1.1-.5 1.6-.3.5-.1 1.2-.4 1.8-.3.3 0 .9-.3 1.2-.6.8-.6 1.6-.6 2.3-.2.6-.1 1.3-.5 1.9.1.3-.3.6-.4.9h.1c-.2.1.2.3-.1.3-.1.1.2.2.1.2h.1c0 .1-.1 0-.1.1 0 0 .1 0 .1.1-.2 0 0 .2-.2.2 0 0-.1.1-.2 0 0 0 0 .2.1.2s.2.1.3 0h-.1.1c0-.1.1-.1.2-.2-.1-.1 0-.1 0-.1.1 0-.2-.1 0-.1 0-.2 0-.4.1-.6-.1 0 0-.2-.1-.1.2 0 .2-.2.2-.2.2-.1-.1-.2.1-.2-.1-.1.1-.2-.1-.3h.1c.1-.2.2-.4.2-.6-.1-.2.2-.4 0-.5.1-.1.2-.2.1-.4 0-.2.1-.4 0-.5.2 0 .2-.1.2-.1-.1-.1 0-.4 0-.5.1 0 0-.1.1-.1-.1-.5.2-1.1.5-1.5 0-.1-.2-.2-.2-.3 0-.1.1-.1.2-.2 0-.1.1-.1.1-.3v-.1s.1 0 .1.1c.3-.8.3-1.6.6-2.4v-.2c.1-.2.1-.4.1-.6h.1c-.1-.2.2-.2 0-.3h.1c0-.4.2-.8.3-1.2-.1-.4.2-.7.1-1.1 0-.5.3-.9.4-1.4.1-.2.1-.3.1-.5h.1c-.1-.4.4-.6.3-1h.1c-.1-.1.1-.2-.1-.2h.1c-.2-.3.2-.4.2-.7V43c.2-.2.1-.5.2-.8l.1.1c-.1-.1.1-.3.1-.5v-.1h.1c.2-.8.2-1 .3-1.2zm.5-2.1zm-5.4 20.8z"/></g><g><path class="st4" d="M66.7 36.2v.1h.1z"/><path class="st4" d="M66.9 36.4s.1 0 0 0l-.2-.1c0 .1.3 0 .2.1zm0 0c0 .1.1.1 0 0 .1.1.1 0 0 0zm1.3 3.7zm.6.9c-.1-.2 0-.4-.2-.6-.1-.5-.4-.9-.6-1.4 0 0-.1 0-.1-.1.1-.1-.2-.3-.1-.4h-.1c-.2-.4-.2-.8-.5-1.1h.1c-.3-.2-.4-.6-.5-.9-.1 0 0 .1-.1 0 0 .1.2.1.2.3 0 .1.1 0 .1.1h-.1c.1.1.1.3.3.4-.1.1.1.2 0 .2.1 0 .1.1.1 0 .1.3.1.5.2.8.1.3.2.6.3.8.3.2.1.6.3.9.1.1.1.2.2.4l.1.1c0 .8.4 1.5.5 2.2.2.8.3 1.6.8 2.3.1.2.1.5.2.7.3.5.3 1.1.6 1.6.2.6.4 1.4.7 2 .2.5.2 1.1.4 1.6.1.6.6 1.1.6 1.7-.1.4.5.7.4 1.1 0 .7.4 1.3.8 1.9.1.6.6 1.1.6 1.8.2.2.1.6.2.9-.1.2.3.2.1.3-.1.1.3.1.2.1h.1c0 .1-.1 0-.1.1h.1c-.2.1.1.1-.1.3 0 0 0 .1-.1.1 0 0 .1.2.2.1s.2-.1.2-.2h-.1l.1-.1c0-.1.1-.1.1-.2-.1 0-.1-.1-.1-.1.1 0-.2 0 0-.1-.1-.2-.1-.4-.2-.6-.1 0-.1-.2-.2-.1.1-.1.1-.3.1-.3.1-.2-.2-.1 0-.3-.2 0 0-.2-.2-.2h.1c-.1-.2-.1-.4-.2-.6-.2-.1-.1-.4-.3-.4 0-.1 0-.3-.1-.4-.1-.1-.2-.3-.3-.4.2-.1.1-.2.1-.3-.1-.1-.2-.3-.3-.4.1-.1-.1-.1 0-.2-.4-.4-.5-.9-.5-1.5-.1 0-.2-.1-.4-.1v-.3c-.1-.1 0-.2-.1-.3h-.1.1c-.2-.8-.6-1.5-.8-2.3l-.1-.1c0-.2-.2-.4-.2-.6h.1c-.1-.1.1-.3-.2-.3h.1c-.2-.4-.3-.8-.4-1.2-.3-.3-.2-.7-.5-1-.3-.4-.3-.9-.4-1.4 0-.2-.1-.3-.2-.5-.3-.3 0-.7-.3-1h.1c-.1 0 0-.2-.2-.1v-.1c-.3-.2 0-.4-.3-.7-.1-.1-.1-.1-.1-.2.1-.3-.2-.5-.2-.7h.1c-.1-.1-.1-.3-.2-.5l-.1-.1h.1c.4 0 .2-.2.2-.4zm-.7-2zm6.8 19.9c0 .1 0 0 0 0z"/></g></g><g><path class="st6" d="M86.8 18.9l.1-.1-.4 1 1.1-.6s-1.7 1.7-1.6 1.7c0 .1 2.5-1.6 2.6-1.5 0 .1-2.9 2.3-2.8 2.4.1.1 3.6-2.2 3.7-2.1.1.1-4 2.9-3.9 3 .1.1 4.7-2.9 4.8-2.8.1.1-4.8 3.3-4.7 3.5.1.1 5.6-3.4 5.7-3.3.1.2-6.1 4.2-6.1 4.3.1.2 6.9-4.3 7-4.1.1.2-7.4 4.8-7.3 5 .1.2 8-4.9 8.2-4.7.1.2-8.6 5.5-8.5 5.7.1.2 9.4-5.7 9.5-5.5.1.2-9.8 6.1-9.7 6.4.1.2 9.3-5.7 9.4-5.4.2.3-9.9 6.2-9.8 6.4.1.2 9.3-5.7 9.5-5.5.2.3-10 6.2-9.8 6.5.1.2 9.4-5.8 9.5-5.5.2.3-10 6.2-9.8 6.5.1.2 9.4-5.8 9.6-5.5.2.3-9.7 6-9.5 6.3.1.2 9.4-5.7 9.5-5.5.1.2-10.2 6.3-10 6.5.1.2 9.3-5.7 9.5-5.5.1.2-9.9 6.2-9.8 6.4.1.2 9.4-5.8 9.5-5.5.1.2-9.7 6-9.5 6.3.1.2 9.3-5.6 9.4-5.4.1.2-10.1 6.2-9.9 6.5.1.2 9.6-5.9 9.8-5.6.2.3-10 6.3-9.9 6.5.1.2 9.3-5.7 9.4-5.4.2.3-9.9 6.2-9.8 6.4.1.2 9.5-5.8 9.6-5.5.1.3-10.1 6.3-10 6.5.1.2 9.5-5.8 9.7-5.6.1.2-10.1 6.3-9.9 6.5.1.2 9.5-5.7 9.6-5.5.1.2-9.7 6.1-9.6 6.3.1.2 9.2-5.7 9.4-5.4.1.2-10 6.2-9.8 6.5.1.2 9.3-5.6 9.4-5.4.2.3-9.7 6.1-9.6 6.3.2.3 9.4-5.7 9.6-5.5.1.2-9.8 6.1-9.6 6.3.2.3 9.1-5.5 9.2-5.3.2.3-9.9 6.2-9.8 6.4.1.2 9.6-5.8 9.7-5.6.1.3-10 6.2-9.8 6.5.1.2 9.2-5.7 9.3-5.4.2.3-9.7 6-9.6 6.3.1.2 9.4-5.8 9.6-5.5.1.2-10 6.2-9.8 6.4.1.2 9.4-5.8 9.5-5.5.1.2-10.2 6.3-10 6.6.1.2 9.5-5.8 9.6-5.6.1.2-10 6.2-9.9 6.4.1.2 9.6-5.9 9.7-5.6.2.3-10.2 6.4-10.1 6.6.1.2 9.5-5.7 9.6-5.5.1.2-9.7 6-9.5 6.2.2.3 9.4-5.8 9.6-5.5.1.2-10 6.2-9.9 6.4.2.3 9.3-5.7 9.4-5.4.1.2-9.7 6-9.6 6.3.1.2 9.3-5.7 9.5-5.5.2.3-10 6.2-9.9 6.5.1.3 9.4-5.7 9.5-5.5.1.2-9.8 6-9.6 6.3.1.2 9.2-5.6 9.4-5.4.2.3-9.8 6.1-9.7 6.4.1.2 9.4-5.7 9.5-5.5.1.2-10 6.2-9.8 6.4.1.2 9.2-5.7 9.4-5.4.1.2-9.7 6.1-9.6 6.3.1.2 9.3-5.6 9.4-5.4.2.3-10.2 6.3-10 6.6.2.3 9.7-5.9 9.8-5.7.2.3-10.1 6.3-10 6.5.1.3 9.6-5.9 9.7-5.6.1.2-10 6.2-9.9 6.5.1.2 9.6-5.8 9.7-5.6.1.2-10.3 6.4-10.2 6.6.2.3 9.8-6 10-5.8.2.3-10.4 6.4-10.2 6.7.2.3 9.8-6 9.9-5.7.1.3-10.1 6.3-10 6.5.1.2 9.4-5.8 9.6-5.5.2.3-10.1 6.3-10 6.5.2.3 9.4-5.8 9.6-5.5.1.2-9.3 5.8-9.1 6 .1.2 8.8-5.5 9-5.2.1.2-8.4 5.4-8.3 5.6.1.2 8-4.9 8.1-4.7.1.2-7.3 4.7-7.2 4.9.1.2 6.7-4.1 6.8-3.9.1.2-6 4.1-5.9 4.2.1.1 5.5-3.4 5.6-3.2.1.1-4.4 3.2-4.4 3.3.1.1 4-2.4 4.1-2.3.1.1-3.5 2.6-3.4 2.8 0 .1 2.9-1.8 3-1.7 0 .1-1.9 1.8-1.9 1.9 0 0 1.9-1.2 2-1.1 0 0-1.2 1.4-1.2 1.5 0 0 .9-.6 1-.6"/><path class="st7" d="M81.6 65.4h.1v-.2zm.2-.8l-.1.6c.2-.3 0-.5.1-.6zm0-.2c.1-.2 0-.3 0-.3.1.1 0 .3 0 .3zm4.8-16.7c0 .1 0 .1 0 0 0 .1 0 .1 0 0z"/><path class="st7" d="M87.6 43.3c-.2.8-.5 1.7-.7 2.5v-.1c-.6 2.2-1.1 4.2-1.7 6.4V52c0 .1 0 .2-.1.3v-.1c-.2.4-.3 1.4-.5 1.6v.1c-.5 1.7-1 3.5-1.4 5.2 0 .1-.1.1-.1.1-.3 1.5-.8 3-1.2 4.5 0 .1.1-.1.1 0 .2-.5.2-.9.4-1.3v.1c.1-.3-.1-.1.1-.4.1-.1 0 0 .1 0 .2-.7.4-1.4.5-2 .1-.1.2-.7.3-1 0-.2.1-.4.1-.4.7-2.4 1.3-4.8 2-7.2.2-1.2.7-2.5 1.1-3.9.1-.5.3-1.1.4-1.6l.1-.5c1-3.1 1.9-6.4 2.8-9.6 1.1-3.6 2.1-6.8 2.9-10.4v.1c.3-1 .6-2 .8-2.9.1-.3.1-.5.2-.8.1-.3.2-.6.2-.9l-3-.9c-1-.3-1.9-.5-2.8-.7-.5-.2-1.1-.3-1.7-.5-.7 2.3-1.4 4.9-2.1 7.3-.6 2.4-1.4 4.7-2.1 7.1-.8 2.4-1.3 5.1-2.1 7.5-.6 1.5-.9 3.6-1.4 5-1 2.9-1.7 5.8-2.4 8.8-.8 2.7-1.4 5.5-2.3 8.1 0 .2-.1.3-.1.5 1 .3 2.2.8 3.4 1.1.5.2 1.2.2 1.4.4h-.1c.2.2.7 0 .8.1h.1c.3.1 0 .1.3.1.1 0 .1-.1.2 0 0 .2.8.2.8.4-.2 0 .3.1-.1.1.1 0 .6.2.6.1.1-.1.3-.1 0-.2h-.1l-.1-.1c-.4-.1-.5-.2-.8-.3-.2 0-.5-.1-.7-.2l-.1-.1c-.1-.1-.5 0-.4-.1-.9-.2-1.9-.5-2.8-.8-.1 0-.7-.2-.6-.1-.2-.2-.9-.4-1.2-.5h.1c-.2-.1-.3-.1-.4-.2h-.1l.1-.1c-.1-.1.3-.9.2-1.2 0-.1.1-.1.1 0 .3-.9.6-1.8.8-2.6.1-.7.5-1.5.5-2.1.2-.4.4-1.2.5-1.8v.1c.2-.7.4-1.6.5-2.1.2-.2.2-.5.4-.8.1-.5.4-1.4.5-2.2.1-.1.1-.6.2-.6.4-2.1 1.2-4.5 1.9-6.7v-.9c.1-.4.3-.7.4-1.1v.1c.1-.4.3-.7.3-1.2v-.3s.1 0 0 .2c1-3.4 1.8-6.9 2.9-10.4v.1l.1-.7v.1c.3-.8.5-1.8.7-2.6 0 0 0 .1.1 0 .1-.6.4-1 .3-1.3h.1c.4-1.7.9-3.5 1.5-5.2 0-.2.1-.4.1-.6.1 0 .5.1.9.2.3.1.6.2 1 .3.7.2 1.3.4 2 .5 1.2.3 2.4.6 3.5 1-.2.8-.5 1.6-.7 2.4-.3.8-.4 1.4-.6 2.2-.3 1.5-1 2.9-1.2 4.5V30c0 .2-.3.9-.1.8l-.1.2c-.1 1.1-.6 1.8-.8 3.1V34c-.1.3-.2.7-.3 1v-.1c-.4 1-.6 2.2-.9 3.2V38c-.1.5-.4 1.5-.6 2.2l-.1.4h-.1c-.3 1-.5 1.9-.7 2.7zm-2.5 9.1c0-.1 0-.1 0 0zm-4.8 12.4zm10.5-42.2v-.1.1zm0 0c0-.1 0 .1 0 0zm0 0s0 .1 0 0zm-.8-.2z"/><path class="st7" d="M89.7 22.5s.1.1.1 0h.3c0 .1.1 0 .1 0v-.1h.3c.1-.1.2 0 .2 0v-.1s-.1.1-.1 0c0 0 0 .1 0 0h-.1v-.1c-.1-.1-.2 0-.3-.1-.1.1-.1-.1-.2 0h-.1c-.1-.1-.3-.1-.4-.2-.2-.1-.3-.2-.5-.1h-.1c-.1.1-.2-.1-.4 0-.1-.1-.3-.1-.4-.1-.1 0-.2-.1-.3-.1-.1-.1-.3.1-.4-.1 0-.1-.2.1-.2-.1-.1-.2-.3-.1-.4-.1-.1-.1-.3 0-.4-.1-.1.1-.1-.1-.2-.1 0-.1-.1.1-.1 0s-.1.1-.1.1v-.1s0 .1 0 0v-.2.4c0-.1 0 0 0 0 0 .1.1-.1 0 0h.1v-.1.1c0 .1.1-.1 0 0 0-.1 0 0 .1-.1v.1l.1.1c.1-.1.1.1.1 0 0 0 0 .1.1.1h.1v.1h.1v.1c.1-.1.2 0 .3.1 0 0 .1-.1.1-.2v.1s0 .1.1 0c0 0 0 .1 0 0 .2.1.3 0 .5.1 0 .1.1 0 .1 0 0-.1 0 .1.1 0 .1 0 .2 0 .2.1.1-.1.1 0 .2 0 .1-.1.2.1.3.1h.1c.1-.1.1.1.2 0 0-.1 0 0 .1-.1s.1.1.1 0c0 .1.1 0 .2 0h.1c.2.6.3.6.3.6zm.5.1zM86 21.5zm3.1 6.8zm0 .1c0-.2 0 0 0 0zm0 0c0-.1-.1 0 0 0-.1 0-.1 0 0 0zm-.8-.3zm-.3.1s.1.1.1 0h.3c0 .1.1 0 .1 0v-.1h.3c.1-.1.2 0 .2 0V28s-.1.1-.1 0c0 0 0 .1 0 0h-.1v-.1c-.1-.1-.2 0-.3-.1-.1.1-.1-.1-.2 0h-.1c-.2.2-.3.3-.5.2-.2-.1-.3-.2-.5-.1h-.1c-.1.1-.2-.1-.4 0-.1-.1-.3-.1-.4-.1-.1 0-.2-.1-.3-.1-.1-.1-.3.1-.4-.1 0-.1-.2.1-.2-.1-.1-.2-.3-.1-.4-.1-.1-.1-.3 0-.4-.1-.1.1-.1-.1-.2-.1 0-.1-.1.1-.1 0s-.1.1-.1.1v-.1s0 .1 0 0V27v.4c0-.1 0 0 0 0 0 .1.1-.1 0 0h.1v-.1.1c0 .1.1-.1 0 0 0-.1 0 0 .1-.1v.1l.1.1c.1-.1.1.1.1 0 0 0 0 .1.1.1h.1v.1h.1v.1c.1-.1.2 0 .3.1 0 0 .1-.1.1-.2v.1s0 .1.1 0c0 0 0 .1 0 0 .2.1.3 0 .5.1 0 .1.1 0 .1 0 0-.1 0 .1.1 0 .1 0 .2 0 .2.1.1-.1.1 0 .2 0 .1-.1.2.1.3.1h.1c.1-.1.1.1.2 0 0-.1 0 0 .1-.1s.1.1.1 0c0 .1.1 0 .2 0h.1c.3.3.4.2.4.2zm.5.1zm-4.2-1.1zm4-3.7v.1zm-.1.1c.1-.1 0 .1 0 0zm0 0s0 .1 0 0zm-.4-.1zm-.1.1s0 .1 0 0c.1.1.2 0 .2 0 0 .1 0 0 0 0v-.1h.2c.1-.1.1 0 .1 0v-.1s0 .1 0 0c0 0 0 .1 0 0h-.1v-.1.1c0-.1-.1 0-.2 0-.1.1 0 0-.1 0l-.1.2c.1-.2 0-.2-.1-.2-.1-.1-.1-.2-.3-.1h-.1c-.1.1-.1-.1-.2 0-.1 0-.1-.1-.2-.1s-.1-.1-.2-.1c0-.1-.2.1-.2 0s-.1.1-.1 0c0-.2-.1-.1-.2 0 0-.1-.2 0-.2-.1-.1.1 0-.1-.1-.1 0-.1-.1.1 0 0 0-.1-.1.1 0 .1 0 0 0 .1 0 0v-.2c0 .1-.1.1-.1.2v.2c0-.1 0 0 0 0 0 .1.1-.1 0 0h.1v-.1.1c0 .1.1-.1 0 0 0-.1 0 0 .1-.1v.2c0-.1 0 0 .1-.1 0 0 0 .1 0 0l.1-.1v.1l.1-.1v.1c.1-.1.1 0 .1.1 0 0 .1-.1.1-.2v.1s0 .1 0 0c0 0 0 .1 0 0 .1.1.2 0 .3 0h.1c0-.1 0 .1 0 0h.1c.1-.1.1 0 .1-.1.1-.1.1 0 .1 0h.1c.1-.1 0 .1.1 0 0-.1 0 0 .1-.1s0 .1.1 0c0 .1.1 0 .1 0 0 .5 0 .6.1.6-.1 0 0 0 0 0zm.2 0zm-2.1-.6zm2 1.9zm-.1 0s0 .1 0 0c.1-.1 0 .1 0 0z"/><path class="st7" d="M87.7 24.9c.1 0 0 0 0 0s0 .1 0 0zm-.3-.1zm-.2.1s0 .1 0 0c.1.1.2 0 .2 0 0 .1 0 0 0 0v-.1h.2c.1-.1.1 0 .1 0v-.1s0 .1 0 0c0 0 0 .1 0 0h-.1v-.1.1c0-.1-.1 0-.2 0-.1.1 0 0-.1 0l-.1.2c.1-.2 0-.2-.1-.2-.1-.1-.1-.2-.3-.1h-.1c-.1.1-.1-.1-.2 0-.1 0-.1-.1-.2-.1s-.1-.1-.2-.1c0-.1-.2.1-.2 0s-.1.1-.1 0c0-.2-.1-.1-.2 0 0-.1-.2 0-.2-.1-.1.1 0-.1-.1-.1 0-.1-.1.1 0 0 0-.1-.1.1 0 .1 0 0 0 .1 0 0v-.2c0 .1-.1.1-.1.2v.2c0-.1 0 0 0 0 0 .1.1-.1 0 0h.1v-.1.1c0 .1 0-.1 0 0 0-.1 0 0 .1-.1v.2c0-.1 0 0 .1-.1 0 0 0 .1 0 0l.1-.1v.1l.1-.1v.1c.1-.1.1 0 .1.1 0 0 .1-.1.1-.2v.1s0 .1 0 0c0 0 0 .1 0 0 .1.1.2 0 .3 0h.1c0-.1 0 .1 0 0h.1c.1-.1.1 0 .1-.1.1-.1.1 0 .1 0h.1c.1-.1 0 .1.1 0v-.1c.1-.1 0 .1.1 0 0 .1.1 0 .1 0 .1.6.1.6.2.6-.1.1 0 0 0 0zm.2.1zm-2.1-.6zM87.3 26.3v.1zm0 .1c0-.1 0 0 0 0zm0 0zm-.4-.1zm-.2.1c.1.1.2 0 .2 0 0 .1 0 0 0 0v-.1h.2c.1-.1.1 0 .1 0v-.1s0 .1 0 0c0 0 0 .1 0 0h-.1v-.1.1c0-.1-.1 0-.2 0-.1.1 0 0-.1 0l-.1.2c.1-.2 0-.2-.1-.2-.1-.1-.1-.2-.3-.1h-.1c-.1.1-.1-.1-.2 0 0-.1-.1-.1-.1-.1-.1 0-.1-.1-.2-.1 0-.1-.2.1-.2 0s-.1.1-.1 0c0-.2-.1-.1-.2 0 0-.1-.2 0-.2-.1-.1.1 0-.1-.1-.1 0-.1-.1.1 0 0 0-.1-.1.1 0 .1 0 0 0 .1 0 0v-.2c0 .1-.1.1-.1.2v.2c0-.1 0 0 0 0 0 .1.1-.1 0 0h.1v-.1.1c0 .1.1-.1 0 0 0-.1 0 0 .1-.1v.2c0-.1 0 0 .1-.1 0 0 0 .1 0 0l.1-.1v.1l.1-.1v.1c.1-.1.1 0 .1.1 0 0 .1-.1.1-.2v.1s0 .1 0 0c0 0 0 .1 0 0 .1.1.2 0 .3 0h.1c0-.1 0 .1 0 0h.1c.1-.1.1 0 .1-.1.1-.1.1 0 .1 0h.1c.1-.1 0 .1.1 0 0-.1 0 0 .1-.1s0 .1.1 0c0 .1.1 0 .1 0-.1.5-.1.6 0 .6zm.2 0zm-2.1-.6zM87.6 34l-.1.1zm-.1.1c.1-.1 0 .1 0 0zm0 0zm-.8-.2zm-.2.1s.1.1.1 0h.3c0 .1.1 0 .1 0v-.1h.3c.1-.1.2 0 .2 0v-.1s-.1.1-.1 0c0 0 0 .1 0 0h-.1v-.1c-.1-.1-.2 0-.3-.1-.1.1-.1-.1-.2 0h-.1c-.1-.1-.3-.1-.4-.2-.2-.1-.3-.2-.5-.1h-.1c-.1.1-.2-.1-.4 0-.1-.1-.3-.1-.4-.1-.1 0-.2-.1-.3-.1-.1-.1-.3.1-.4-.1 0-.1-.2.1-.2-.1-.1-.2-.3-.1-.4-.1-.1-.1-.3 0-.4-.1-.2.3-.2.1-.3.1 0-.1-.1.1-.1 0s-.1.1-.1.1v-.1s0 .1 0 0v-.2.4c0-.1 0 0 0 0 0 .1.1-.1 0 0h.1v-.1.1c0 .1.1-.1 0 0 0-.1 0 0 .1-.1v.1l.1.1c.1-.1.1.1.1 0 0 0 0 .1.1.1h.1v.1h.1v.1c.1-.1.2 0 .3.1 0 0 .1-.1.1-.2v.1s0 .1.1 0c0 0 0 .1 0 0 .2.1.3 0 .5.1 0 .1.1 0 .1 0 0-.1 0 .1.1 0 .1 0 .2 0 .2.1.1-.1.1 0 .2 0 .1-.1.2.1.3.1h.1c.1-.1.1.1.2 0 0-.1 0 0 .1-.1s.1.1.1 0c0 .1.1 0 .2 0h.1c.3.4.3.4.4.4zm.4.1zM82.7 33zM86.7 29.3zm0 0c0 .1 0 .1 0 0s0 .1 0 0zm0 0s0 .1 0 0c0 0 0 .1 0 0zm-.4-.1zm-.2.1s0 .1 0 0c.1.1.2 0 .2 0 0 .1 0 0 0 0v-.1h.2c.1-.1.1 0 .1 0v-.1s0 .1 0 0c0 0 0 .1 0 0h-.1V29v.1c0-.1-.1 0-.2 0-.1.1 0 0-.1 0l-.1.2c.1-.2 0-.2-.1-.2-.1-.1-.1-.2-.3-.1h-.1c-.1.1-.1-.1-.2 0-.1 0-.1-.1-.2-.1s-.1-.1-.2-.1c0-.1-.2.1-.2 0s-.1.1-.1 0c0-.2-.1-.1-.2 0 0-.1-.2 0-.2-.1-.1.1 0-.1-.1-.1 0-.1-.1.1 0 0 0-.1-.1.1 0 .1 0 0 0 .1 0 0v-.2c0 .1-.1.1-.1.2v.2c0-.1 0 0 0 0 0 .1.1-.1 0 0h.1v-.1.1c0 .1 0-.1 0 0 0-.1 0 0 .1-.1v.2c0-.1 0 0 .1-.1 0 0 0 .1 0 0l.1-.1v.1l.1-.1v.1c.1-.1.1 0 .1.1 0 0 .1-.1.1-.2v.1s0 .1 0 0c0 0 0 .1 0 0 .1.1.2 0 .3 0h.1c0-.1 0 .1 0 0h.1c.1-.1.1 0 .1-.1.1-.1.1 0 .1 0h.1c.1-.1 0 .1.1 0v-.1c.1-.1 0 .1.1 0 0 .1.1 0 .1 0 .1.6.1.6.2.6 0 .1 0 0 0 0zm.2.1zm-2.1-.6zM86.2 30.6zm0 .1c0-.2 0 0 0 0zm0 0c0-.1 0 0 0 0zm-.4-.2zm-.2.2c.1-.1 0 0 0 0 .1.1.2 0 .2 0 0 .1 0 0 0 0v-.1h.2c.1-.1.1 0 .1 0v-.1s0 .1 0 0c0 0 0 .1 0 0H86v-.1.1c0-.1-.1 0-.2 0-.1.1 0 0-.1 0l-.1.2c.1-.2 0-.2-.1-.2-.1-.1-.1-.2-.3-.1h-.1c-.1.1-.1-.1-.2 0-.1 0-.1-.1-.2-.1s-.1-.1-.2-.1c0-.1-.2.1-.2 0s-.1.1-.1 0c0-.2-.1-.1-.2 0 0-.1-.2 0-.2-.1-.1.1 0-.1-.1-.1 0-.1-.1.1 0 0 0-.1-.1.1 0 .1 0 0 0 .1 0 0v-.2c0 .1-.1.1-.1.2v.2c0-.1 0 0 0 0 0 .1.1-.1 0 0h.1v-.1.1c0 .1 0-.1 0 0 0-.1 0 0 .1-.1v.2c0-.1 0 0 .1-.1 0 0 0 .1 0 0l.1-.1v.1l.1-.1v.1c.1-.1.1 0 .1.1 0 0 .1-.1.1-.2v.1s0 .1 0 0c0 0 0 .1 0 0 .1.1.2 0 .3 0h.1c0-.1 0 .1 0 0h.1c.1-.1.1 0 .1-.1.1-.1.1 0 .1 0h.1c.1-.1 0 .1.1 0v-.1c.1-.1 0 .1.1 0 0 .1.1 0 .1 0 .1.5.1.6.2.6zm.3 0c-.1 0 0 0 0 0zm-2.2-.6zM85.8 32.1h-.1zm-.1 0c0 .1 0 .1 0 0 .1-.1 0 .1 0 0zm0 0s0 .1 0 0c0 0 0 .1 0 0zm-.4-.1zm-.2.1c.1 0 .1.1 0 0 .1.1.2 0 .2 0 0 .1 0 0 0 0V32h.2c.1-.1.1 0 .1 0v-.1s0 .1 0 0c0 0 0 .1 0 0h-.1v-.1.1c0-.1-.1 0-.2 0-.1.1 0 0-.1 0l-.1.2c.1-.2 0-.2-.1-.2-.1-.1-.1-.2-.3-.1h-.1c-.1.1-.1-.1-.2 0-.1 0-.1-.1-.2-.1s-.1-.1-.2-.1c0-.1-.2.1-.2 0s-.1.1-.1 0c0-.2-.1-.1-.2 0 0-.1-.2 0-.2-.1-.1.1 0-.1-.1-.1 0-.1-.1.1 0 0 0-.1-.1.1 0 .1 0 0 0 .1 0 0v-.2c0 .1-.1.1-.1.2v.2c0-.1 0 0 0 0 0 .1.1-.1 0 0h.1v-.1.1c0 .1.1-.1 0 0 0-.1 0 0 .1-.1v.2c0-.1 0 0 .1-.1 0 0 0 .1 0 0l.1-.1v.1l.1-.1v.1c.1-.1.1 0 .1.1 0 0 .1-.1.1-.2v.1s0 .1 0 0c0 0 0 .1 0 0 .1.1.2 0 .3 0h.1c0-.1 0 .1 0 0h.1c.1-.1.1 0 .1-.1.1-.1.1 0 .1 0h.1c.1-.1 0 .1.1 0 0-.1 0 0 .1-.1s0 .1.1 0c0 .1.1 0 .1 0l.1.6c0 .1 0 0 0 0zm.3.1zm-2.2-.6zM86 39.8zm-.1 0c0 .1 0 .1 0 0 .1-.1 0 .1 0 0zm0 0s0 .1 0 0c0 0 0 .1 0 0zm-.8-.2s.1 0 0 0c.1 0 .1 0 0 0zm-.2.1s.1.1.1 0h.3c0 .1.1 0 .1 0v-.1h.3c.1-.1.2 0 .2 0v-.1s-.1.1-.1 0c0 0 0 .1 0 0h-.1v-.1c-.1-.1-.2 0-.3-.1-.1.1-.1-.1-.2 0h-.1c-.1-.1-.3-.1-.4-.2-.2-.1-.3-.2-.5-.1h-.1c-.1.1-.2-.1-.4 0-.1-.1-.3-.1-.4-.1-.1 0-.2-.1-.3-.1-.1-.1-.3.1-.4-.1 0-.1-.2.1-.2-.1-.1-.2-.3-.1-.4-.1-.1-.1-.3 0-.4-.1-.1.1-.1-.1-.2-.1 0-.1-.1.1-.1 0s-.1.1-.1.1v-.1s0 .1 0 0v-.2.4c0-.1 0 0 0 0 0 .1.1-.1 0 0h.1v-.1.1c0 .1.1-.1 0 0 0-.1 0 0 .1-.1v.1l.1.1c.1-.1.1.1.1 0 0 0 0 .1.1.1h.1v.1h.1v.1c.1-.1.2 0 .3.1 0 0 .1-.1.1-.2v.1s0 .1.1 0c0 0 0 .1 0 0 .2.1.3 0 .5.1 0 .1.1 0 .1 0 0-.1 0 .1.1 0 .1 0 .2 0 .2.1.1-.1.1 0 .2 0 .1-.1.2.1.3.1h.1c.1-.1.1.1.2 0 0-.1 0 0 .1-.1s.1.1.1 0c0 .1.1 0 .2 0h.1c.2.6.3.6.3.6zm.4.1zm-4.2-1.1zM85.2 35h-.1zm-.1.1c.1-.1 0 0 0 0zm0 0c0-.1 0 0 0 0zm-.4-.2zm-.2.2c.1-.1.1 0 0 0 .1.1.2 0 .2 0 0 .1 0 0 0 0V35h.2c.1-.1.1 0 .1 0v-.1s0 .1 0 0c0 0 0 .1 0 0h-.1v-.1.1c0-.1-.1 0-.2 0-.1.1 0 0-.1 0l-.1.2c.1-.2 0-.2-.1-.2-.1-.1-.1-.2-.3-.1H84c-.1.1-.1-.1-.2 0-.1 0-.1-.1-.2-.1s-.1-.1-.2-.1c0-.1-.2.1-.2 0s-.1.1-.1 0c0-.2-.1-.1-.2 0 0-.1-.2 0-.2-.1-.1.1 0-.1-.1-.1 0-.1-.1.1 0 0 0-.1-.1.1 0 .1 0 0 0 .1 0 0v-.2c0 .1-.1.1-.1.2v.2c0-.1 0 0 0 0 0 .1.1-.1 0 0h.1v-.1.1c0 .1.1-.1 0 0 0-.1 0 0 .1-.1v.2c0-.1 0 0 .1-.1 0 0 0 .1 0 0l.1-.1v.1l.1-.1v.1c.1-.1.1 0 .1.1 0 0 .1-.1.1-.2v.1s0 .1 0 0c0 0 0 .1 0 0 .1.1.2 0 .3 0h.1c0-.1 0 .1 0 0h.1c.1-.1.1 0 .1-.1.1-.1.1 0 .1 0h.1c.1-.1 0 .1.1 0 0-.1 0 0 .1-.1s0 .1.1 0c0 .1.1 0 .1 0 0 .5.1.6.1.6zm.3 0zm-2.2-.6zM84.7 36.3v.1zm-.1.1c.1-.1 0 .1 0 0zm0 0s0 .1 0 0zm-.4-.1zm-.1.1s0 .1 0 0c.1.1.2 0 .2 0 0 .1 0 0 0 0v-.1h.2c.1-.1.1 0 .1 0v-.1s0 .1 0 0c0 0 0 .1 0 0h-.1v-.1.1c0-.1-.1 0-.2 0-.1.1 0 0-.1 0l-.1.2c.1-.2 0-.2-.1-.2-.1-.1-.1-.2-.3-.1h-.1c-.1.1-.1-.1-.2 0-.1 0-.1-.1-.2-.1s-.1-.1-.2-.1c0-.1-.2.1-.2 0s-.1.1-.1 0c0-.2-.1-.1-.2 0 0-.1-.2 0-.2-.1-.1.1 0-.1-.1-.1 0-.1-.1.1 0 0 0-.1-.1.1 0 .1 0 0 0 .1 0 0v-.2c0 .1-.1.1-.1.2v.2c0-.1 0 0 0 0 0 .1.1-.1 0 0h.1v-.1.1c0 .1.1-.1 0 0 0-.1 0 0 .1-.1v.2c0-.1 0 0 .1-.1 0 0 0 .1 0 0l.1-.1v.1l.1-.1v.1c.1-.1.1 0 .1.1 0 0 .1-.1.1-.2v.1s0 .1 0 0c0 0 0 .1 0 0 .1.1.2 0 .3 0h.1c0-.1 0 .1 0 0h.1c.1-.1.1 0 .1-.1.1-.1.1 0 .1 0h.1c.1-.1 0 .1.1 0 0-.1 0 0 .1-.1s0 .1.1 0c0 .1.1 0 .1 0 0 .5 0 .6.1.6-.1 0-.1 0 0 0zm.2 0zm-2.2-.6zM84.2 37.8zm-.1.1c.1-.2 0 0 0 0zm0 0c0-.1 0 0 0 0zm-.4-.2c.1 0 0 0 0 0zm-.1.2c0-.1 0 0 0 0 .1.1.2 0 .2 0 0 .1 0 0 0 0v-.1h.2c.1-.1.1 0 .1 0v-.1s0 .1 0 0c0 0 0 .1 0 0H84v-.1.1c0-.1-.1 0-.2 0-.1.1 0 0-.1 0l-.1.2c.1-.2 0-.2-.1-.2-.1-.1-.1-.2-.3-.1h-.1c-.1.1-.1-.1-.2 0-.1 0-.1-.1-.2-.1s-.1-.1-.2-.1c0-.1-.2.1-.2 0s-.1.1-.1 0c0-.2-.1-.1-.2 0 0-.1-.2 0-.2-.1-.1.1 0-.1-.1-.1 0-.1-.1.1 0 0 0-.1-.1.1 0 .1 0 0 0 .1 0 0v-.2c0 .1-.1.1-.1.2v.2c0-.1 0 0 0 0 0 .1.1-.1 0 0h.1v-.1.1c0 .1.1-.1 0 0 0-.1 0 0 .1-.1v.2c0-.1 0 0 .1-.1 0 0 0 .1 0 0l.1-.1v.1l.1-.1v.1c.1-.1.1 0 .1.1 0 0 .1-.1.1-.2v.1s0 .1 0 0c0 0 0 .1 0 0 .1.1.2 0 .3 0h.1c0-.1 0 .1 0 0h.1c.1-.1.1 0 .1-.1.1-.1.1 0 .1 0h.1c.1-.1 0 .1.1 0 0-.1 0 0 .1-.1s0 .1.1 0c0 .1.1 0 .1 0 0 .5 0 .6.1.6-.1 0 0 0 0 0zm.2 0zm-2.1-.6zM84.4 45.4v-.1.1zm-.1 0c.1-.1 0 .1 0 0zm0 0s0 .1 0 0zm-.7-.2zm-.3.1s.1.1.1 0h.3c0 .1.1 0 .1 0v-.1h.3c.1-.1.2 0 .2 0v-.1s-.1.1-.1 0c0 0 0 .1 0 0h-.1V45c-.1-.1-.2 0-.3-.1-.1.1-.1-.1-.2 0h-.1c-.1-.1-.3-.1-.4-.2-.2-.1-.3-.2-.5-.1h-.1c-.1.1-.2-.1-.4 0-.1-.1-.3-.1-.4-.1-.1 0-.2-.1-.3-.1-.1-.1-.3.1-.4-.1 0-.1-.2.1-.2-.1-.1-.2-.3-.1-.4-.1-.1-.1-.3 0-.4-.1-.1.1-.1-.1-.2-.1 0-.1-.1.1-.1 0s-.1.1-.1.1v-.1s0 .1 0 0v-.2.4c0-.1 0 0 0 0 0 .1.1-.1 0 0h.1V44v.1c0 .1.1-.1 0 0 0-.1 0 0 .1-.1v.1l.1.1c.1-.1.1.1.1 0 0 0 0 .1.1.1h.1v.1h.1v.1c.1-.1.2 0 .3.1 0 0 .1-.1.1-.2v.1s0 .1.1 0c0 0 0 .1 0 0 .2.1.3 0 .5.1 0 .1.1 0 .1 0 0-.1 0 .1.1 0 .1 0 .2 0 .2.1.1-.1.1 0 .2 0 .1-.1.2.1.3.1h.1c.1-.1.1.1.2 0 0-.1 0 0 .1-.1s.1.1.1 0c0 .1.1 0 .2 0h.1c.2.6.3.6.3.6zm.4.1zm-4.2-1.1zM83.6 40.6h-.1zm-.1.1c.1-.2 0 0 0 0zm0-.1s0 .1 0 0c0 0 0 .1 0 0zm-.4-.1zm-.1.1s0 .1 0 0c.1.1.2 0 .2 0 0 .1 0 0 0 0v-.1h.2c.1-.1.1 0 .1 0v-.1s0 .1 0 0c0 0 0 .1 0 0h-.1v-.1.1c0-.1-.1 0-.2 0-.1.1 0 0-.1 0l-.1.2c.1-.2 0-.2-.1-.2-.1-.1-.1-.2-.3-.1h-.1c-.1.1-.1-.1-.2 0-.1 0-.1-.1-.2-.1s-.1-.1-.2-.1c0-.1-.2.1-.2 0s-.1.1-.1 0c0-.2-.1-.1-.2 0 0-.1-.2 0-.2-.1-.1.1 0-.1-.1-.1 0-.1-.1.1 0 0 0-.1-.1.1 0 .1 0 0 0 .1 0 0v-.2c0 .1-.1.1-.1.2v.2c0-.1 0 0 0 0 0 .1.1-.1 0 0h.1v-.1.1c0 .1.1-.1 0 0 0-.1 0 0 .1-.1v.2c0-.1 0 0 .1-.1 0 0 0 .1 0 0l.1-.1v.1l.1-.1v.1c.1-.1.1 0 .1.1 0 0 .1-.1.1-.2v.1s0 .1 0 0c0 0 0 .1 0 0 .1.1.2 0 .3 0h.1c0-.1 0 .1 0 0h.1c.1-.1.1 0 .1-.1.1-.1.1 0 .1 0h.1c.1-.1 0 .1.1 0 0-.1 0 0 .1-.1s0 .1.1 0c0 .1.1 0 .1 0 0 .6 0 .6.1.6-.1.1-.1 0 0 0zm.2.1zm-2.2-.6zM83.1 41.9zm-.1.1c.1-.1 0 0 0 0zm0 0c0-.1 0 0 0 0zm-.4-.2zm-.1.2c0-.1 0 0 0 0 .1.1.2 0 .2 0 0 .1 0 0 0 0v-.1h.2c.1-.1.1 0 .1 0v-.1s0 .1 0 0c0 0 0 .1 0 0h-.1v-.1.1c0-.1-.1 0-.2 0-.1.1 0 0-.1 0l-.1.2c.1-.2 0-.2-.1-.2-.1-.1-.1-.2-.3-.1H82c-.1.1-.1-.1-.2 0-.1 0-.1-.1-.2-.1s-.1-.1-.2-.1c0-.1-.2.1-.2 0s-.1.1-.1 0c0-.2-.1-.1-.2 0 0-.1-.2 0-.2-.1-.1.1 0-.1-.1-.1 0-.1-.1.1 0 0 0-.1-.1.1 0 .1 0 0 0 .1 0 0v-.2c0 .1-.1.1-.1.2v.2c0-.1 0 0 0 0 0 .1.1-.1 0 0h.1v-.1.1c0 .1 0-.1 0 0 0-.1 0 0 .1-.1v.2c0-.1 0 0 .1-.1 0 0 0 .1 0 0l.1-.1v.1l.1-.1v.1c.1-.1.1 0 .1.1 0 0 .1-.1.1-.2v.1s0 .1 0 0c0 0 0 .1 0 0 .1.1.2 0 .3 0h.1c0-.1 0 .1 0 0h.1c.1-.1.1 0 .1-.1.1-.1.1 0 .1 0h.1c.1-.1 0 .1.1 0v-.1c.1-.1 0 .1.1 0 0 .1.1 0 .1 0 .1.5.1.6.2.6-.1 0-.1 0 0 0zm.2 0zm-2.2-.6zM82.6 43.4zm-.1.1c.1-.2 0 0 0 0zm0-.1c.1 0 0 .1 0 0 0 0 0 .1 0 0zm-.3-.1zm-.2.1s0 .1 0 0c.1.1.2 0 .2 0 0 .1 0 0 0 0v-.1h.2c.1-.1.1 0 .1 0v-.1s0 .1 0 0c0 0 0 .1 0 0h-.1v-.1.1c0-.1-.1 0-.2 0-.1.1 0 0-.1 0l-.1.2c.1-.2 0-.2-.1-.2-.1-.1-.1-.2-.3-.1h-.1c-.1.1-.1-.1-.2 0-.1 0-.1-.1-.2-.1s-.1-.1-.2-.1c0-.1-.2.1-.2 0s-.1.1-.1 0c0-.2-.1-.1-.2 0 0-.1-.2 0-.2-.1-.1.1 0-.1-.1-.1 0-.1-.1.1 0 0 0-.1-.1.1 0 .1 0 0 0 .1 0 0v-.2c0 .1-.1.1-.1.2v.2c0-.1 0 0 0 0 0 .1.1-.1 0 0h.1v-.1.1c0 .1.1-.1 0 0 0-.1 0 0 .1-.1v.2c0-.1 0 0 .1-.1 0 0 0 .1 0 0l.1-.1v.1l.1-.1v.1c.1-.1.1 0 .1.1 0 0 .1-.1.1-.2v.1s0 .1 0 0c0 0 0 .1 0 0 .1.1.2 0 .3 0h.1c0-.1 0 .1 0 0h.1c.1-.1.1 0 .1-.1.1-.1.1 0 .1 0h.1c.1-.1 0 .1.1 0 0-.1 0 0 .1-.1s0 .1.1 0c0 .1.1 0 .1 0 0 .6 0 .6.1.6-.1.1 0 0 0 0zm.2.1zm-2.1-.6zM82.7 51v.1zm-.1.1c.1-.1 0 .1 0 0zm0 0s0 .1 0 0zm-.8-.2zm-.2.1s.1.1.1 0h.3c0 .1.1 0 .1 0v-.1h.3c.1-.1.2 0 .2 0v-.1s-.1.1-.1 0c0 0 0 .1 0 0h-.1v-.1c-.1-.1-.2 0-.3-.1-.1.1-.1-.1-.2 0h-.1c-.1-.1-.3-.1-.4-.2-.2-.1-.3-.2-.5-.1h-.1c-.1.1-.2-.1-.4 0-.1-.1-.3-.1-.4-.1-.1 0-.2-.1-.3-.1-.1-.1-.3.1-.4-.1 0-.1-.2.1-.2-.1-.1-.2-.3-.1-.4-.1-.1-.1-.3 0-.4-.1-.1.1-.1-.1-.2-.1 0-.1-.1.1-.1 0s-.1.1-.1.1v-.1s0 .1 0 0v-.2.4c0-.1 0 0 0 0 0 .1.1-.1 0 0h.1v-.1.1c0 .1.1-.1 0 0 0-.1 0 0 .1-.1v.1l.1.1c.1-.1.1.1.1 0 0 0 0 .1.1.1h.1v.1h.1v.1c.1-.1.2 0 .3.1 0 0 .1-.1.1-.2v.1s0 .1.1 0c0 0 0 .1 0 0 .2.1.3 0 .5.1 0 .1.1 0 .1 0 0-.1 0 .1.1 0 .1 0 .2 0 .2.1.1-.1.1 0 .2 0 .1-.1.2.1.3.1h.1c.1-.1.1.1.2 0 0-.1 0 0 .1-.1s.1.1.1 0c0 .1.1 0 .2 0h.1c.2.6.3.6.3.6zm.4.1zM77.8 50zM81.9 46.3h-.1zm-.1.1c.1-.2 0 0 0 0zm0-.1s0 .1 0 0c0 0 0 .1 0 0zm-.4-.1zm-.2.1c.1 0 .1.1 0 0 .1.1.2 0 .2 0 0 .1 0 0 0 0v-.1h.2c.1-.1.1 0 .1 0v-.1s0 .1 0 0c0 0 0 .1 0 0h-.1V46v.1c0-.1-.1 0-.2 0-.1.1 0 0-.1 0l-.1.2c.1-.2 0-.2-.1-.2-.1-.1-.1-.2-.3-.1h-.1c-.1.1-.1-.1-.2 0-.1 0-.1-.1-.2-.1s-.1-.1-.2-.1c0-.1-.2.1-.2 0s-.1.1-.1 0c0-.2-.1-.1-.2 0 0-.1-.2 0-.2-.1-.1.1 0-.1-.1-.1 0-.1-.1.1 0 0 0-.1-.1.1 0 .1 0 0 0 .1 0 0v-.2c0 .1-.1.1-.1.2v.2c0-.1 0 0 0 0 0 .1.1-.1 0 0h.1v-.1.1c0 .1 0-.1 0 0 0-.1 0 0 .1-.1v.2c0-.1 0 0 .1-.1 0 0 0 .1 0 0l.1-.1v.1l.1-.1v.1c.1-.1.1 0 .1.1 0 0 .1-.1.1-.2v.1s0 .1 0 0c0 0 0 .1 0 0 .1.1.2 0 .3 0h.1c0-.1 0 .1 0 0h.1c.1-.1.1 0 .1-.1.1-.1.1 0 .1 0h.1c.1-.1 0 .1.1 0v-.1c.1-.1 0 .1.1 0 0 .1.1 0 .1 0 .1.6.2.6.2.6 0 .1 0 0 0 0zm.3.1zm-2.2-.6zM81.4 47.6zm-.1.1c.1-.2 0 0 0 0zm0 0c0-.1 0 0 0 0zm-.4-.2zm-.1.2c0-.1 0 0 0 0 .1.1.2 0 .2 0 0 .1 0 0 0 0v-.1h.2c.1-.1.1 0 .1 0v-.1s0 .1 0 0c0 0 0 .1 0 0h-.1v-.1.1c0-.1-.1 0-.2 0-.1.1 0 0-.1 0l-.1.2c.1-.2 0-.2-.1-.2-.1-.1-.1-.2-.3-.1h-.1c-.1.1-.1-.1-.2 0-.1 0-.1-.1-.2-.1s-.1-.1-.2-.1c0-.1-.2.1-.2 0s-.1.1-.1 0c0-.2-.1-.1-.2 0 0-.1-.2 0-.2-.1-.1.1 0-.1-.1-.1 0-.1-.1.1 0 0 0-.1-.1.1 0 .1 0 0 0 .1 0 0v-.2c0 .1-.1.1-.1.2v.2c0-.1 0 0 0 0 0 .1.1-.1 0 0h.1v-.1.1c0 .1.1-.1 0 0 0-.1 0 0 .1-.1v.2c0-.1 0 0 .1-.1 0 0 0 .1 0 0l.1-.1v.1l.1-.1v.1c.1-.1.1 0 .1.1 0 0 .1-.1.1-.2v.1s0 .1 0 0c0 0 0 .1 0 0 .1.1.2 0 .3 0h.1c0-.1 0 .1 0 0h.1c.1-.1.1 0 .1-.1.1-.1.1 0 .1 0h.1c.1-.1 0 .1.1 0 0-.1 0 0 .1-.1s0 .1.1 0c0 .1.1 0 .1 0 0 .5 0 .6.1.6-.1 0-.1 0 0 0zm.2 0zm-2.2-.6zM80.9 49.1zm-.1.1c.1-.2 0 0 0 0zm0-.1s0 .1 0 0c0 0 0 .1 0 0zm-.4-.1zm-.1.1s0 .1 0 0c.1.1.2 0 .2 0 0 .1 0 0 0 0V49h.2c.1-.1.1 0 .1 0v-.1s0 .1 0 0c0 0 0 .1 0 0h-.1v-.1.1c0-.1-.1 0-.2 0-.1.1 0 0-.1 0l-.1.2c.1-.2 0-.2-.1-.2-.1-.1-.1-.2-.3-.1h-.1c-.1.1-.1-.1-.2 0-.1 0-.1-.1-.2-.1s-.1-.1-.2-.1c0-.1-.2.1-.2 0s-.1.1-.1 0c0-.2-.1-.1-.2 0 0-.1-.2 0-.2-.1-.1.1 0-.1-.1-.1 0-.1-.1.1 0 0 0-.1-.1.1 0 .1 0 0 0 .1 0 0v-.2c0 .1-.1.1-.1.2v.2c0-.1 0 0 0 0 0 .1.1-.1 0 0h.1v-.1.1c0 .1.1-.1 0 0 0-.1 0 0 .1-.1v.2c0-.1 0 0 .1-.1 0 0 0 .1 0 0l.1-.1v.1l.1-.1v.1c.1-.1.1 0 .1.1 0 0 .1-.1.1-.2v.1s0 .1 0 0c0 0 0 .1 0 0 .1.1.2 0 .3 0h.1c0-.1 0 .1 0 0h.1c.1-.1.1 0 .1-.1.1-.1.1 0 .1 0h.1c.1-.1 0 .1.1 0 0-.1 0 0 .1-.1s0 .1.1 0c0 .1.1 0 .1 0 0 .6 0 .6.1.6-.1.1 0 0 0 0zm.2.1zm-2.1-.6zM81 56.7v.1zm-.1.1c.1-.1 0 .1 0 0zm0 0s0 .1 0 0zm-.8-.2zm-.2.1s.1.1.1 0h.3c0 .1.1 0 .1 0v-.1h.3c.1-.1.2 0 .2 0v-.1s-.1.1-.1 0c0 0 0 .1 0 0h-.1v-.1c-.1-.1-.2 0-.3-.1-.1.1-.1-.1-.2 0h-.1c-.1-.1-.3-.1-.4-.2-.2-.1-.3-.2-.5-.1h-.1c-.1.1-.2-.1-.4 0-.1-.1-.3-.1-.4-.1-.1 0-.2-.1-.3-.1-.1-.1-.3.1-.4-.1 0-.1-.2.1-.2-.1-.1-.2-.3-.1-.4-.1-.1-.1-.3 0-.4-.1-.1.1-.1-.1-.2-.1 0-.1-.1.1-.1 0s-.1.1-.1.1v-.1s0 .1 0 0v-.2.4c0-.1 0 0 0 0 0 .1.1-.1 0 0h.1v-.1.1c0 .1.1-.1 0 0 0-.1 0 0 .1-.1v.1l.1.1c.1-.1.1.1.1 0 0 0 0 .1.1.1h.1v.1h.1v.1c.1-.1.2 0 .3.1 0 0 .1-.1.1-.2v.1s0 .1.1 0c0 0 0 .1 0 0 .2.1.3 0 .5.1 0 .1.1 0 .1 0 0-.1 0 .1.1 0 .1 0 .2 0 .2.1.1-.1.1 0 .2 0 .1-.1.2.1.3.1h.1c.1-.1.1.1.2 0 0-.1 0 0 .1-.1s.1.1.1 0c0 .1.1 0 .2 0h.1c.2.6.2.6.3.6zm.4.1zm-4.2-1.1zM80.1 52h.1-.1zm0 .1c.1-.2 0 0 0 0zm0-.1s0 .1 0 0c0 0 0 .1 0 0zm-.4-.1zm-.2.1c.1 0 .1.1 0 0 .1.1.2 0 .2 0 0 .1 0 0 0 0v-.1h.2c.1-.1.1 0 .1 0v-.1s0 .1 0 0c0 0 0 .1 0 0h-.1v-.1.1c0-.1-.1 0-.2 0-.1.1 0 0-.1 0l-.1.2c.1-.2 0-.2-.1-.2-.1-.1-.1-.2-.3-.1H79c-.1.1-.1-.1-.2 0-.1 0-.1-.1-.2-.1s-.1-.1-.2-.1c0-.1-.2.1-.2 0s-.1.1-.1 0c0-.2-.1-.1-.2 0 0-.1-.2 0-.2-.1-.1.1 0-.1-.1-.1 0-.1-.1.1 0 0 0-.1-.1.1 0 .1 0 0 0 .1 0 0v-.2c0 .1-.1.1-.1.2v.2c0-.1 0 0 0 0 0 .1.1-.1 0 0h.1v-.1.1c0 .1 0-.1 0 0 0-.1 0 0 .1-.1v.2c0-.1 0 0 .1-.1 0 0 0 .1 0 0l.1-.1v.1l.1-.1v.1c.1-.1.1 0 .1.1 0 0 .1-.1.1-.2v.1s0 .1 0 0c0 0 0 .1 0 0 .1.1.2 0 .3 0h.1c0-.1 0 .1 0 0h.1c.1-.1.1 0 .1-.1.1-.1.1 0 .1 0h.1c.1-.1 0 .1.1 0v-.1c.1-.1 0 .1.1 0 0 .1.1 0 .1 0 .1.6.1.6.2.6 0 .1 0 0 0 0zm.3.1zm-2.2-.6zM79.7 53.3h-.1zm-.1.1c.1-.2 0 0 0 0zm0 0c0-.1 0 0 0 0zm-.4-.2zm-.1.2c0-.1 0 0 0 0 .1.1.2 0 .2 0 0 .1 0 0 0 0v-.1h.2c.1-.1.1 0 .1 0v-.1s0 .1 0 0c0 0 0 .1 0 0h-.1v-.1.1c0-.1-.1 0-.2 0-.1.1 0 0-.1 0l-.1.2c.1-.2 0-.2-.1-.2-.1-.1-.1-.2-.3-.1h-.1c-.1.1-.1-.1-.2 0-.1 0-.1-.1-.2-.1s-.1-.1-.2-.1c0-.1-.2.1-.2 0s-.1.1-.1 0c0-.2-.1-.1-.2 0 0-.1-.2 0-.2-.1-.1.1 0-.1-.1-.1 0-.1-.1.1 0 0 0-.1-.1.1 0 .1 0 0 0 .1 0 0v-.2c0 .1-.1.1-.1.2v.2c0-.1 0 0 0 0 0 .1.1-.1 0 0h.1v-.1.1c0 .1.1-.1 0 0 0-.1 0 0 .1-.1v.2c0-.1 0 0 .1-.1 0 0 0 .1 0 0l.1-.1v.1l.1-.1v.1c.1-.1.1 0 .1.1 0 0 .1-.1.1-.2v.1s0 .1 0 0c0 0 0 .1 0 0 .1.1.2 0 .3 0h.1c0-.1 0 .1 0 0h.1c.1-.1.1 0 .1-.1.1-.1.1 0 .1 0h.1c.1-.1 0 .1.1 0 0-.1 0 0 .1-.1s0 .1.1 0c0 .1.1 0 .1 0 0 .5 0 .6.1.6-.1 0-.1 0 0 0zm.2 0zm-2.2-.6zM79.2 54.8zm-.1 0c0 .1 0 .1 0 0 .1-.1 0 .1 0 0zm0 0s0 .1 0 0c0 0 0 .1 0 0zm-.4-.1zm-.1.1s0 .1 0 0c.1.1.2 0 .2 0 0 .1 0 0 0 0v-.1h.2c.1-.1.1 0 .1 0v-.1s0 .1 0 0c0 0 0 .1 0 0H79v-.1.1c0-.1-.1 0-.2 0-.1.1 0 0-.1 0l-.1.2c.1-.2 0-.2-.1-.2-.1-.1-.1-.2-.3-.1h-.1c-.1.1-.1-.1-.2 0-.1 0-.1-.1-.2-.1s-.1-.1-.2-.1c0-.1-.2.1-.2 0s-.1.1-.1 0c0-.2-.1-.1-.2 0 0-.1-.2 0-.2-.1-.1.1 0-.1-.1-.1 0-.1-.1.1 0 0 0-.1-.1.1 0 .1 0 0 0 .1 0 0V54c0 .1-.1.1-.1.2v.2c0-.1 0 0 0 0 0 .1.1-.1 0 0h.1v-.1.1c0 .1.1-.1 0 0 0-.1 0 0 .1-.1v.2c0-.1 0 0 .1-.1 0 0 0 .1 0 0l.1-.1v.1l.1-.1v.1c.1-.1.1 0 .1.1 0 0 .1-.1.1-.2v.1s0 .1 0 0c0 0 0 .1 0 0 .1.1.2 0 .3 0h.1c0-.1 0 .1 0 0h.1c.1-.1.1 0 .1-.1.1-.1.1 0 .1 0h.1c.1-.1 0 .1.1 0 0-.1 0 0 .1-.1s0 .1.1 0c0 .1.1 0 .1 0 0 .6 0 .6.1.6-.1.1 0 0 0 0zm.2.1zm-2.1-.6zM79.6 62.3h-.1zm-.1.1c0-.2 0 0 0 0zm0-.1s0 .1 0 0c0 0 0 .1 0 0zm-.8-.2zm-.2.1s.1.1.1 0h.3c0 .1.1 0 .1 0v-.1h.3c.1-.1.2 0 .2 0V62s-.1.1-.1 0c0 0 0 .1 0 0h-.1v-.1c-.1-.1-.2 0-.3-.1-.1.1-.1-.1-.2 0h-.1c-.2.2-.4.2-.5.2-.2-.1-.3-.2-.5-.1h-.1c-.1.1-.2-.1-.4 0-.1-.1-.3-.1-.4-.1-.1 0-.2-.1-.3-.1-.1-.1-.3.1-.4-.1 0-.1-.2.1-.2-.1-.1-.2-.3-.1-.4-.1-.1-.1-.3 0-.4-.1-.1-.1-.1-.3-.2-.3 0-.1-.1.1-.1 0s-.1.1-.1.1V61s0 .1 0 0v-.2.4c0-.1 0 0 0 0 0 .1.1-.1 0 0h.1v-.1.1c0 .1.1-.1 0 0 0-.1 0 0 .1-.1v.1l.1.1c.1-.1.1.1.1 0 0 0 0 .1.1.1h.1v.1h.1v.1c.1-.1.2 0 .3.1 0 0 .1-.1.1-.2v.1s0 .1.1 0c0 0 0 .1 0 0 .2.1.3 0 .5.1 0 .1.1 0 .1 0 0-.1 0 .1.1 0 .1 0 .2 0 .2.1.1-.1.1 0 .2 0 .1-.1.2.1.3.1h.1c.1-.1.1.1.2 0 0-.1 0 0 .1-.1s.1.1.1 0c0 .1.1 0 .2 0h.1c.3.4.3.4.4.4zm.4.1zm-4.2-1.1zM78.7 57.5zm0 .1c0-.1 0 0 0 0zm0 0s-.1 0 0 0zm-.4-.1zm-.2.1c.1.1.2 0 .2 0 0 .1 0 0 0 0v-.1h.2c.1-.1.1 0 .1 0v-.1s0 .1 0 0c0 0 0 .1 0 0h-.1v-.1.1c0-.1-.1 0-.2 0-.1.1 0 0-.1 0l-.1.2c.1-.2 0-.2-.1-.2-.1-.1-.1-.2-.3-.1h-.1c-.1.1-.1-.1-.2 0-.1 0-.1-.1-.2-.1s-.1-.1-.2-.1c0-.1-.2.1-.2 0s-.1.1-.1 0c0-.2-.1-.1-.2 0 0-.1-.2 0-.2-.1-.1.1 0-.1-.1-.1 0-.1-.1.1 0 0 0-.1-.1.1 0 .1 0 0 0 .1 0 0v-.2c0 .1-.1.1-.1.2v.2c0-.1 0 0 0 0 0 .1.1-.1 0 0h.1v-.1.1c0 .1.1-.1 0 0 0-.1 0 0 .1-.1v.2c0-.1 0 0 .1-.1 0 0 0 .1 0 0l.1-.1v.1l.1-.1v.1c.1-.1.1 0 .1.1 0 0 .1-.1.1-.2v.1s0 .1 0 0c0 0 0 .1 0 0 .1.1.2 0 .3 0h.1c0-.1 0 .1 0 0h.1c.1-.1.1 0 .1-.1.1-.1.1 0 .1 0h.1c.1-.1 0 .1.1 0 0-.1 0 0 .1-.1s0 .1.1 0c0 .1.1 0 .1 0 0 .5 0 .6.1.6zm.2 0zm-2.1-.6zM78.2 58.9v-.1.1zm0 0c0-.1 0 .1 0 0zm0 0s0 .1 0 0zm-.4-.1zm-.2.1s0 .1 0 0c.1.1.2 0 .2 0 0 .1 0 0 0 0v-.1h.2c.1-.1.1 0 .1 0v-.1s0 .1 0 0c0 0 0 .1 0 0H78v-.1.1c0-.1-.1 0-.2 0-.1.1 0 0-.1 0l-.1.2c.1-.2 0-.2-.1-.2-.1-.1-.1-.2-.3-.1h-.1c-.1.1-.1-.1-.2 0-.1 0-.1-.1-.2-.1s-.1-.1-.2-.1c0-.1-.2.1-.2 0s-.1.1-.1 0c0-.2-.1-.1-.2 0 0-.1-.2 0-.2-.1-.1.1 0-.1-.1-.1 0-.1-.1.1 0 0 0-.1-.1.1 0 .1 0 0 0 .1 0 0v-.2c0 .1-.1.1-.1.2v.2c0-.1 0 0 0 0 0 .1.1-.1 0 0h.1v-.1.1c0 .1.1-.1 0 0 0-.1 0 0 .1-.1v.2c0-.1 0 0 .1-.1 0 0 0 .1 0 0l.1-.1v.1l.1-.1v.1c.1-.1.1 0 .1.1 0 0 .1-.1.1-.2v.1s0 .1 0 0c0 0 0 .1 0 0 .1.1.2 0 .3 0h.1c0-.1 0 .1 0 0h.1c.1-.1.1 0 .1-.1.1-.1.1 0 .1 0h.1c.1-.1 0 .1.1 0 0-.1 0 0 .1-.1s0 .1.1 0c0 .1.1 0 .1 0 0 .6 0 .6.1.6zm.2 0zm-2.1-.5zM77.8 60.3h-.1zm-.1.1c.1-.1 0 0 0 0zm0 0zm-.4-.1c0-.1 0 0 0 0zm-.2.1c.1 0 .1 0 0 0 .1.1.2 0 .2 0 0 .1 0 0 0 0v-.1h.2c.1-.1.1 0 .1 0v-.1s0 .1 0 0c0 0 0 .1 0 0h-.1v-.1.1c0-.1-.1 0-.2 0-.1.1 0 0-.1 0l-.1.2c.1-.2 0-.2-.1-.2-.1-.1-.1-.2-.3-.1h-.1c-.1.1-.1-.1-.2 0-.1 0-.1-.1-.2-.1s-.1-.1-.2-.1c0-.1-.2.1-.2 0s-.1.1-.1 0c0-.2-.1-.1-.2 0 0-.1-.2 0-.2-.1-.1.1 0-.1-.1-.1 0-.1-.1.1 0 0 0-.1-.1.1 0 .1 0 0 0 .1 0 0v-.2c0 .1-.1.1-.1.2v.2c0-.1 0 0 0 0 0 .1.1-.1 0 0h.1v-.1.1c0 .1.1-.1 0 0 0-.1 0 0 .1-.1v.2c0-.1 0 0 .1-.1 0 0 0 .1 0 0l.1-.1v.1l.1-.1v.1c.1-.1.1 0 .1.1 0 0 .1-.1.1-.2v.1s0 .1 0 0c0 0 0 .1 0 0 .1.1.2 0 .3 0h.1c0-.1 0 .1 0 0h.1c.1-.1.1 0 .1-.1.1-.1.1 0 .1 0h.1c.1-.1 0 .1.1 0 0-.1 0 0 .1-.1s0 .1.1 0c0 .1.1 0 .1 0 0 .5 0 .6.1.6zm.3 0zm-2.2-.6z"/></g></svg>