<svg id="Layer_1" xmlns="http://www.w3.org/2000/svg" viewBox="0 0 128 128"><style>.st0{fill:#b2b3b5}.st1{fill:#fff}</style><ellipse class="st0" cx="64" cy="64" rx="64" ry="64"/><path class="st1" d="M44 42.8l5.1 13.7 5.2-13.7h3v16.3h-2.1V45.5l-5.1 13.6h-1.9l-5.1-13.6v13.6H41V42.8h3zm16.1 7.9c.2-.8.6-1.4 1.1-2 .5-.6 1.1-1 1.8-1.3.7-.3 1.5-.5 2.5-.5.9 0 1.8.2 2.5.5s1.3.8 1.8 1.3c.5.6.9 1.2 1.1 2 .2.8.4 1.6.4 2.4 0 .9-.1 1.7-.4 2.4-.2.7-.6 1.4-1.1 2-.5.6-1.1 1-1.8 1.3-.7.3-1.5.5-2.5.5-.9 0-1.8-.2-2.5-.5s-1.3-.7-1.8-1.3c-.5-.6-.9-1.2-1.1-2-.2-.7-.4-1.6-.4-2.4 0-.8.2-1.6.4-2.4zm2 4.4c.2.6.5 1 .8 1.4.3.4.7.7 1.2.9.4.2.9.3 1.4.3.5 0 1-.1 1.4-.3.4-.2.8-.5 1.2-.9.3-.4.6-.8.8-1.4.2-.6.3-1.2.3-1.9s-.1-1.4-.3-1.9c-.2-.6-.5-1-.8-1.4-.3-.4-.7-.7-1.2-.9-.4-.2-.9-.3-1.4-.3-.5 0-1 .1-1.4.3-.4.2-.8.5-1.2.9-.3.4-.6.8-.8 1.4-.2.6-.3 1.2-.3 1.9s.1 1.3.3 1.9zM75 47.3v2.5c.5-1 1.1-1.7 1.7-2.1.7-.5 1.6-.7 2.6-.6V49c-.8 0-1.4.1-2 .3-.5.2-1 .5-1.3.9-.3.4-.6.9-.7 1.5-.2.6-.2 1.3-.2 2V59h-1.9V47.3H75zm13.6 11c-.9.7-2 1-3.3 1-.9 0-1.8-.2-2.5-.5s-1.3-.7-1.7-1.3c-.5-.5-.8-1.2-1.1-2-.2-.8-.4-1.6-.4-2.5 0-.9.1-1.7.4-2.5.3-.7.7-1.4 1.2-1.9s1.1-1 1.8-1.3c.7-.3 1.4-.5 2.2-.5 1.1 0 1.9.2 2.6.7.7.4 1.2 1 1.7 1.7.4.7.7 1.4.9 2.2.2.8.2 1.5.2 2.3h-8.8c0 .5 0 1 .2 1.5.1.5.4.9.7 1.2.3.4.7.6 1.2.9.5.2 1 .3 1.7.3.8 0 1.5-.2 2-.6.5-.4.9-1 1-1.7h1.9c-.4 1.3-1 2.3-1.9 3zm-.5-7.6c-.2-.4-.4-.8-.7-1.1-.3-.3-.6-.5-1.1-.7-.4-.2-.8-.3-1.3-.3s-1 .1-1.4.3c-.4.2-.8.4-1 .7-.3.3-.5.7-.7 1.1-.2.4-.3.8-.3 1.3h6.8c0-.4-.1-.9-.3-1.3zM45.2 69.1c1.6 0 2.9.4 3.7 1.3.8.8 1.3 2 1.3 3.6 0 1.5-.4 2.7-1.3 3.6-.8.9-2.1 1.3-3.7 1.3h-5v6.7H38V69.1h7.2zm-.7 7.8c1.2 0 2.1-.2 2.7-.8.6-.5.9-1.3.9-2.2s-.3-1.7-.9-2.2c-.6-.5-1.5-.8-2.7-.8h-4.3v6h4.3zm9.6-3.3v2.5c.5-1 1.1-1.7 1.7-2.1.7-.5 1.6-.7 2.6-.6v2.1c-.8 0-1.4.1-2 .3-.5.2-1 .5-1.3.9-.3.4-.6.9-.7 1.5-.2.6-.2 1.3-.2 2v5.3h-1.9V73.6h1.8zm5.7-2.1v-2.4h1.9v2.4h-1.9zm2 2.1v11.8h-1.9V73.6h1.9zm4.6 0v1.9c.8-1.4 2.1-2.1 3.8-2.1.8 0 1.4.1 1.9.3.5.2.9.5 1.3.9.3.4.5.8.7 1.4.1.5.2 1.1.2 1.7v7.8h-1.9v-8c0-.7-.2-1.3-.6-1.7-.4-.4-1-.6-1.8-.6-.6 0-1.1.1-1.5.3-.4.2-.8.4-1.1.8-.3.3-.5.7-.7 1.2-.1.4-.2.9-.2 1.5v6.7h-1.9V73.6h1.8zm15.7 0v1.7h-2.4v7.3c0 .2 0 .4.1.5 0 .1.1.2.2.3.1.1.3.1.4.1H82v1.7h-1.5c-.5 0-.9 0-1.3-.1s-.6-.2-.9-.4c-.2-.2-.4-.4-.5-.8-.1-.3-.2-.8-.2-1.3v-7.5h-2v-1.7h2v-3.5h1.9v3.5h2.6zm3.4 9.2c.2.3.4.5.7.7.3.2.6.3 1 .4.4.1.8.1 1.2.1.3 0 .6 0 1-.1.3 0 .6-.1.9-.3.3-.1.5-.3.7-.5.2-.2.3-.5.3-.9 0-.5-.2-.9-.6-1.1-.4-.3-.9-.5-1.4-.6-.6-.2-1.2-.3-1.9-.4-.7-.1-1.3-.3-1.9-.5-.6-.2-1-.6-1.4-1-.4-.4-.6-1-.6-1.8 0-.6.1-1.1.4-1.5.3-.4.6-.8 1-1 .4-.3.9-.5 1.4-.6.5-.1 1-.2 1.6-.2.7 0 1.3.1 1.9.2.6.1 1.1.3 1.5.6.4.3.8.7 1 1.1.3.5.4 1.1.5 1.8h-1.9c0-.4-.1-.7-.3-.9-.2-.3-.4-.5-.6-.6-.3-.2-.5-.3-.9-.3-.3-.1-.6-.1-.9-.1-.3 0-.6 0-.9.1-.3 0-.6.1-.8.2-.2.1-.4.3-.6.5-.2.2-.2.4-.2.7 0 .3.1.6.4.8.2.2.5.4.9.5.4.1.8.3 1.2.4.5.1.9.2 1.4.3.5.1 1 .2 1.4.4.5.2.9.4 1.2.6.4.3.6.6.9.9.2.4.3.9.3 1.4 0 .7-.1 1.3-.4 1.8-.3.5-.7.9-1.2 1.1-.5.3-1 .5-1.6.6-.6.1-1.2.2-1.8.2-.7 0-1.3-.1-1.9-.2-.6-.1-1.1-.4-1.6-.7-.5-.3-.8-.7-1.1-1.2-.3-.5-.4-1.1-.5-1.9h1.9c0 .3.1.7.3 1z"/></svg>