<svg id="Layer_1" xmlns="http://www.w3.org/2000/svg" viewBox="0 0 128 128"><style>.st0{fill:#b2b3b5}.st1{fill:#fff}</style><ellipse class="st0" cx="64" cy="64" rx="64" ry="64"/><path class="st1" d="M29.6 41.6L36 57.9h-2.4L31.8 53h-6.9l-1.8 4.9h-2.2l6.4-16.3h2.3zm1.5 9.6l-2.7-7.6-2.8 7.6h5.5zm8.8 6.7l-4.4-11.8h2.2l3.3 9.8 3.2-9.8h2l-4.3 11.8h-2zm17 .2c-.5 0-.9-.1-1.2-.4-.3-.3-.4-.7-.4-1.4-.5.6-1.2 1.1-1.9 1.4-.7.3-1.5.4-2.3.4-.5 0-1-.1-1.5-.2s-.9-.3-1.2-.6c-.4-.3-.6-.6-.8-1-.2-.4-.3-.9-.3-1.5 0-.7.1-1.2.3-1.6.2-.4.5-.8.9-1 .4-.3.8-.5 1.3-.6.5-.1 1-.3 1.5-.3.5-.1 1-.2 1.5-.2.5-.1.9-.1 1.3-.2s.7-.2.9-.4c.2-.2.3-.5.3-.8 0-.4-.1-.8-.2-1-.2-.3-.4-.5-.6-.6-.3-.1-.5-.2-.8-.3-.3 0-.6-.1-.9-.1-.8 0-1.5.2-2.1.5-.5.3-.8.9-.9 1.8h-1.9c0-.7.2-1.3.5-1.9.3-.5.6-.9 1.1-1.2.5-.3 1-.5 1.6-.7.6-.1 1.2-.2 1.9-.2.5 0 1.1 0 1.6.1s1 .2 1.4.5c.4.2.8.6 1 1 .3.4.4 1 .4 1.7v6.1c0 .5 0 .8.1 1 .1.2.2.3.5.3.2 0 .4 0 .6-.1v1.5h-1.7zm-2.7-5.9c-.4.1-.8.2-1.2.2-.4.1-.9.1-1.3.2l-1.2.3c-.4.2-.6.4-.9.7-.2.3-.3.7-.3 1.2 0 .3.1.6.2.8.1.2.3.4.5.5.2.1.4.2.7.3.3.1.6.1.9.1.6 0 1.2-.1 1.6-.3.5-.2.8-.4 1.1-.7.3-.3.5-.6.6-.9.1-.3.2-.6.2-.9v-2c-.2.3-.5.4-.9.5zM60 44v-2.4h1.9V44H60zm1.9 2.1v11.8H60V46.1h1.9zm4.9-4.5v16.3h-1.9V41.6h1.9zm11.8 16.5c-.5 0-.9-.1-1.2-.4-.3-.3-.4-.7-.4-1.4-.5.6-1.2 1.1-1.9 1.4-.7.3-1.5.4-2.3.4-.5 0-1-.1-1.5-.2s-.9-.3-1.2-.6c-.4-.3-.6-.6-.8-1-.2-.4-.3-.9-.3-1.5 0-.7.1-1.2.3-1.6.2-.4.5-.8.9-1 .4-.3.8-.5 1.3-.6.5-.1 1-.3 1.5-.3.5-.1 1-.2 1.5-.2.5-.1.9-.1 1.3-.2s.7-.2.9-.4c.2-.2.3-.5.3-.8 0-.4-.1-.8-.2-1-.2-.3-.4-.5-.6-.6-.3-.1-.5-.2-.8-.3-.3 0-.6-.1-.9-.1-.8 0-1.5.2-2.1.5-.5.3-.8.9-.9 1.8h-1.9c0-.7.2-1.3.5-1.9.3-.5.6-.9 1.1-1.2.5-.3 1-.5 1.6-.7.6-.1 1.2-.2 1.9-.2.5 0 1.1 0 1.6.1s1 .2 1.4.5c.4.2.8.6 1 1 .3.4.4 1 .4 1.7v6.1c0 .5 0 .8.1 1 .1.2.2.3.5.3.2 0 .4 0 .6-.1v1.5h-1.7zm-2.7-5.9c-.4.1-.8.2-1.2.2-.4.1-.9.1-1.3.2l-1.2.3c-.4.2-.6.4-.9.7-.2.3-.3.7-.3 1.2 0 .3.1.6.2.8.1.2.3.4.5.5.2.1.4.2.7.3.3.1.6.1.9.1.6 0 1.2-.1 1.6-.3.5-.2.8-.4 1.1-.7.3-.3.5-.6.6-.9.1-.3.2-.6.2-.9v-2c-.2.3-.5.4-.9.5zm7.7-10.6v6.1c.3-.7.8-1.1 1.5-1.4.7-.3 1.4-.4 2.3-.4.9 0 1.7.2 2.4.5s1.2.8 1.7 1.4c.4.6.8 1.2 1 2 .2.7.3 1.5.3 2.4 0 .8-.1 1.6-.3 2.4-.2.7-.6 1.4-1 2-.4.6-1 1-1.7 1.3-.7.3-1.5.5-2.4.5-.3 0-.6 0-1-.1s-.7-.2-1.1-.3c-.4-.1-.7-.3-1-.6-.3-.2-.6-.5-.8-.9v1.6h-1.9V41.6h2zm7 8.7c-.1-.5-.4-1-.7-1.4-.3-.4-.7-.7-1.1-1-.5-.2-1-.4-1.6-.4-.7 0-1.2.1-1.7.4-.5.3-.8.6-1.1 1-.3.4-.5.9-.6 1.4-.1.5-.2 1.1-.2 1.6 0 .6.1 1.1.2 1.7.1.5.4 1 .7 1.4.3.4.7.7 1.2 1 .5.3 1 .4 1.7.4s1.2-.1 1.7-.4c.4-.3.8-.6 1.1-1 .3-.4.5-.9.6-1.5.1-.5.2-1.1.2-1.7-.2-.5-.3-1-.4-1.5zm6.4-8.7v16.3h-2V41.6h2zm11.1 15.5c-.9.7-2 1-3.3 1-.9 0-1.8-.2-2.5-.5s-1.3-.7-1.7-1.3c-.5-.5-.8-1.2-1.1-2-.2-.8-.4-1.6-.4-2.5 0-.9.1-1.7.4-2.5.3-.7.7-1.4 1.2-1.9s1.1-1 1.8-1.3c.7-.3 1.4-.5 2.2-.5 1.1 0 1.9.2 2.6.7.7.4 1.2 1 1.7 1.7.4.7.7 1.4.9 2.2.2.8.2 1.5.2 2.3h-8.8c0 .5 0 1 .2 1.5.1.5.4.9.7 1.2.3.4.7.6 1.2.9.5.2 1 .3 1.7.3.8 0 1.5-.2 2-.6.5-.4.9-1 1-1.7h1.9c-.4 1.4-1 2.4-1.9 3zm-.4-7.5c-.2-.4-.4-.8-.7-1.1-.3-.3-.6-.5-1.1-.7-.4-.2-.8-.3-1.3-.3s-1 .1-1.4.3c-.4.2-.8.4-1 .7-.3.3-.5.7-.7 1.1-.2.4-.3.8-.3 1.3h6.8c-.1-.5-.2-.9-.3-1.3zM24.1 84.3c0-.3.1-.8.2-1.2l2-7h-2.2l.3-1.2H28l-2.3 8.3c-.1.4-.2.8-.2 1.1 0 .5.3.9.8.9.6 0 1-.5 1.5-1.7l.8.3c-.5 1.6-1.3 2.5-2.5 2.5-1.2-.1-2-.9-2-2zm2.4-12.9c0-.6.5-1.2 1.1-1.2.6 0 1.1.5 1.1 1.2 0 .6-.5 1.2-1.1 1.2-.6-.1-1.1-.6-1.1-1.2zm11.8 12.9c0-.3.1-.8.2-1.2l1.1-3.9c.2-.6.3-1 .3-1.5 0-1-.8-1.7-1.9-1.7-1.6 0-3.7 1.7-4.5 4.8L32.1 86h-1.4l2.5-9.9h-2.1l.3-1.2h3.4l-.7 2.7c1.1-1.7 2.4-2.9 4-2.9 1.8 0 3.1 1.2 3.1 2.9 0 .6-.2 1.2-.3 1.7l-1.1 3.9c-.1.4-.2.9-.2 1.1 0 .5.3.9.8.9.6 0 1-.5 1.5-1.7l.8.3c-.5 1.6-1.3 2.5-2.5 2.5-1.1-.1-1.9-.9-1.9-2zm11.6.5c-.4-.4-.6-.8-.6-1.3 0-.6.4-1.2 1.1-1.2.7 0 1 .5 1 .9s-.1.6-.4.9c.1.1.3.2.5.4.6.3 1.4.6 2.4.6 1.3 0 2.3-.7 2.3-1.8s-1-1.7-2.2-2.3c-1.7-.8-3.1-1.6-3.1-3.2 0-1.8 1.5-3.1 3.8-3.1 1.4 0 2.6.5 3.3 1.2.4.4.6.8.6 1.3 0 .7-.5 1.2-1.1 1.2-.6 0-1-.4-1-.9 0-.3.1-.6.3-.9-.1-.1-.2-.2-.4-.3-.4-.2-1.1-.3-1.8-.3-1.5 0-2.3.8-2.3 1.7 0 .9 1 1.5 2.3 2.2 1.6.8 3 1.6 3 3.3 0 2.1-1.8 3.2-3.8 3.2-1.5-.2-3-.8-3.9-1.6zm10.9-.5c0-.3.1-.8.2-1.2l2-7h-2.2l.3-1.2h3.6l-2.3 8.3c-.1.4-.2.8-.2 1.1 0 .5.3.9.8.9.6 0 1-.5 1.5-1.7l.8.3c-.5 1.6-1.3 2.5-2.5 2.5-1.1-.1-2-.9-2-2zm2.5-12.9c0-.6.5-1.2 1.1-1.2.6 0 1.1.5 1.1 1.2 0 .6-.5 1.2-1.1 1.2-.6-.1-1.1-.6-1.1-1.2zm3.2 14.2l9.5-9.5h-5.9l-.6 2.2h-1.3L69 75h8.7l.4.6-9.1 9.1c.5-.2 1.1-.3 1.6-.3 1.3 0 2.4.6 3.6.6 1.1 0 1.4-.5 2-2.2l.8.2c-.6 2.2-1 3.2-2.9 3.2-1.5 0-2.9-.7-4.4-.7-1.2 0-2 .3-2.8.7l-.4-.6zm14-4.7v.7c0 2.3 1.9 3.5 3.7 3.5 1.3 0 2.2-.3 3.6-1l-.3 1.4c-1.2.6-2.1.8-3.6.8-2.6 0-4.9-1.7-4.9-4.6 0-3.7 2.9-6.9 6.2-6.9 2.5 0 4 1.6 4 3.9 0 .7-.2 1.4-.4 2.2h-8.3zm.2-1.2h7.1c.1-.4.2-.8.2-1.3 0-1.2-.8-2.5-2.9-2.5-1.9.1-3.7 1.7-4.4 3.8zm16.2.8c0-3.3 1.3-6.9 3.8-9.3 1.2-1.2 2.7-2 4.6-2 2.1 0 3.8 1.2 3.8 2.5 0 .7-.4 1.3-1.2 1.3-.6 0-1.1-.4-1.1-1 0-.3.1-.7.5-.9-.3-.3-.9-.7-2.2-.7-1.3 0-2.6.6-3.6 1.7-1.4 1.3-2.7 3.9-3.2 6.4.8-1.2 2.4-2.8 5-2.8 2.8 0 4.6 2 4.6 4.6 0 3.1-2.7 6-6.1 6-1.6 0-2.7-.6-3.5-1.4-1-1.1-1.4-2.4-1.4-4.4zm2.3 3.4c.6.7 1.6 1.1 2.7 1.1 2.5 0 4.4-2.2 4.4-4.6 0-2-1.2-3.4-3.3-3.4-2.8 0-4.8 2.2-4.8 4.5.1.9.4 1.8 1 2.4z"/></svg>