<svg id="Layer_1" xmlns="http://www.w3.org/2000/svg" xmlns:xlink="http://www.w3.org/1999/xlink" viewBox="0 0 128 128"><style>.st0{fill:#FFF}.st1{fill:#bcbdbe}.st2{fill:#666}.st3{fill:#6c6c6c}.st4{clip-path:url(#SVGID_2_)}.st5{fill:none;stroke:#5c5c5c;stroke-width:.3837;stroke-linecap:round;stroke-linejoin:round}.st6{fill:#6a6b6a}.st7{stroke-width:.1853}.st7,.st8{fill:none;stroke:#636464;stroke-miterlimit:10;stroke-dasharray:.278,.3707}.st8{stroke-width:.2376}</style><ellipse class="st0" cx="64" cy="64" rx="62.4" ry="64"/><path class="st1" d="M123.1 69.2h.1-.1zM122.9 69.2c-.1 0-.1 0 0 0h0zM122.9 69.2h-.1c.1-.1-.1-.1.1 0zM122.9 68.3zM122.3 68.1h-.1c.2.1 0 .1.1.1-.1.1.2.2.3.3h-.1 0c-.2 0 .1.1 0 .1h.2c.1.1.1.2.3.3h-.2c.4.1.2.2.1.2h.2c.1 0-.2-.1-.1-.1h.1s0-.1-.2-.1h.2-.2c.1-.1-.1-.2-.1-.4-.4-.1.1-.1 0-.2-.1 0-.1-.1-.1-.1h-.2c.3-.1.1-.3.3-.5.1-.2.4-.3-.1-.5h.1c-.1-.1.1-.1 0-.1-.3-.1.1-.2-.3-.4 0-.1 0-.3-.1-.5h.1c-.2-.1.3-.2.1-.3.2-.1-.4-.3-.2-.4.4-.1-.4-.2 0-.2.6-.1.2-.3-.1-.4.2-.1-.3-.3.1-.4-.3-.1.3-.1.3-.2h-.1c.3 0-.4-.1 0-.1H122.3 122.9h-.6.2-.2-.4c.2 0 .1 0 0 0h-.1c-.2 0 .4 0 0 0 .1 0 .1.1.1.1h.2c-.3 0-.3 0-.3.1 0 0-.1 0 0 0-.3 0 .3 0-.1.1.3 0-.1 0 .3.1h-.2l-.1.1c.3 0-.1.1.2.1-.1 0-.2.1-.1.1 0 0 0 .1.3.1h-.4c.2 0 .1.1.3.1h-.2c.4.1.3.2-.1.3.1 0 .4 0 .6.1h-.1s-.2 0-.1.1h-.1c.1 0-.2 0 0 .1h-.1.1-.2c-.1.2.3.3.2.5h-.1 0c-.1 0 .1.1 0 .1h-.2c.2 0-.3 0 .2.1h-.2c.1.1.1.2.1.3.4.1 0 .2.3.2h-.1c.3.1 0 .2 0 .3l.1.1h-.1c.4.1-.3.1.1.2h-.1c.2 0-.1 0 .3.1h-.1c.5.1-.2.1.1.2h-.1c.1 0 .1 0 0 0h-.1c-.3 0 0 .1 0 .2h-.2c.2 0 0 .1.1.1h-.1.1-.1c.3-.1.4-.1.4 0zM122.4 68.5zM121.9 64.1zM120.9 81.1h-.1zM120.6 81l.3.1c.2 0-.4-.1-.3-.1zM120.7 81c.1 0-.1 0-.1-.1.1.1-.1.1.1.1zM120.8 80.2z"/><path class="st1" d="M120.3 79.8h-.1c.2.1 0 .1.1.2-.1.1.1.2.2.4h-.1 0c-.2 0 .1.1 0 .1 0 0 .1 0 .2.1 0 .1.1.2.2.3h-.2c.3.2.2.2.1.3.1 0 .1 0 .2.1.1 0-.2-.1 0-.1h.1c.1 0-.2-.1-.1-.1h.1s.1-.1-.1-.1h.2c-.1 0-.1 0-.2-.1.1-.1 0-.3 0-.4-.4-.2.1-.1 0-.2-.1 0-.1-.1-.1-.1l-.1-.1c.4-.1.2-.3.3-.4.1-.2.4-.2 0-.5h.1c-.1-.1.1-.1 0-.1-.3-.2.1-.2-.2-.4.1-.1.1-.3 0-.5h.1c-.1-.2.3-.2.2-.3.2-.1-.4-.3-.1-.4.4 0-.4-.3 0-.2.6 0 .3-.2 0-.5.2-.1-.3-.3.2-.4-.2-.1.4-.1.3-.1h-.1c.3 0-.4-.1 0-.1.2 0-.5-.1-.2-.1h-.1.1c.4.1-.1-.1.4 0 0 0 .2 0 .3.1.1 0 0 0-.2-.1-.2 0-.4-.1-.6-.1h.2-.2-.4c.2 0 .1 0 0 0h-.1c-.2 0 .4.1 0 0 .1.1.1.1 0 .2.1 0 0 0 .2.1h-.3s-.1 0 0 0c-.3 0 .3.1-.1 0 .3.1-.1 0 .2.1h-.2s-.1.1-.2.1c.2.1-.1 0 .2.1-.1 0-.2 0-.1.1 0 0 0 .1.2.2-.3-.1-.3 0-.4 0 .2.1.1.1.2.2h-.2c.4.2.2.3-.1.3.1 0 .4.1.5.2h-.1-.2-.1c.1 0-.2 0 0 .1h-.1.1-.2c-.1.1.2.4.1.6h-.1l.1.1h-.1c-.1 0 .1.1 0 .1h-.1c.2.1-.3 0 .1.1h-.1c.1.1.1.2 0 .3.4.2 0 .2.3.3h-.1c.2.2-.1.2 0 .3v.1h-.1c.3.2-.4.1 0 .2h-.1c.2.1-.1 0 .3.1h-.1c.4.2-.2 0 0 .2h-.1c.1 0 .1.1 0 .1h-.1c-.3 0 0 .1 0 .2h-.1c.2.1 0 .1.1.1h-.1.1-.1c.4-.8.5-.7.5-.7zM120.3 80.3zM120.7 75.8zM116.3 92.3h-.1zM116 92.1l.2.2c.3.1-.3-.2-.2-.2zM116.1 92.1c.1 0-.1-.1-.1-.1.1.1-.1.1.1.1zM116.4 91.4z"/><path class="st1" d="M116 90.9l-.1-.1c.1.2-.1.1.1.1l-.1.1c-.1.1.1.3.1.4h-.1l.1.1h-.1c-.2-.1.1.1-.1.1 0 0 .1.1.2.1 0 .1 0 .2.1.4 0 0-.1 0-.1-.1.3.2.1.2 0 .3.1 0 .1 0 .2.1.1 0-.2-.1 0-.1h.1c.1 0-.2-.1-.1-.1s.1.1.1.1.1 0-.1-.2c.2.1 0 0 .2 0-.1 0 0 0-.2-.1.1-.1 0-.3.1-.4-.3-.2.1-.1 0-.2s-.1-.1 0-.1l-.1-.1c.4 0 .2-.2.4-.3.2-.1.5-.1.1-.5h.1c0-.1.1-.1 0-.1-.2-.2.1-.2-.1-.5.1-.1.1-.3.1-.4h.1c-.1-.2.3-.1.3-.3.2 0-.3-.4 0-.4.4.1-.3-.3.1-.2.6.1.3-.2.1-.4.2 0-.2-.4.3-.3-.2-.2.4 0 .3-.1h-.1c.3.1-.3-.2.1-.1.2.1-.5-.2-.2-.1h-.1s.1 0 .2.1c0 0-.2-.1-.1-.1.4.2-.1-.1.4.1 0 0 .2.1.3.1l-.2-.1c-.2-.1-.4-.2-.5-.2l.1.1c-.1-.1-.1 0-.2-.1 0 0-.2-.1-.3-.1.2.1.1.1 0 0h-.1c-.2-.1.3.2 0 0 .1.1 0 .1 0 .2.1.1 0 0 .2.1-.2-.1-.3-.1-.3-.1-.3-.1.3.2-.1 0 .3.1-.1 0 .2.2-.1 0-.1 0-.2-.1 0 0-.1 0-.2.1.2.1-.1 0 .2.2h-.1s0 .1.2.2c-.3-.1-.3-.1-.4-.1l.2.2c-.1-.1 0 .1-.2 0 .4.3.2.3-.2.3.1.1.4.2.5.3h-.1-.2-.1c.1.1-.2 0 0 .1h-.1.1c-.1 0-.2-.1-.1-.1-.1.1.1.4 0 .6h-.1l.1.1h-.1c-.1 0 0 .1 0 .1l-.1-.1c.2.1-.3-.1.1.1l-.1-.1c.1.1 0 .2-.1.3.3.2 0 .2.2.4h-.1c.2.2-.1.2-.1.3v.1h-.1c.3.2-.4 0 0 .2l-.1-.1c.2.1-.1 0 .2.2h-.1c.4.3-.2 0 0 .2h-.1c.1 0 .1.1 0 .1h-.1c-.3-.1 0 .1-.1.2l-.1-.1c.2.1 0 .1 0 .1h-.1l.1.1-.1-.1c.2-.6.3-.5.3-.5zM115.9 91.4zM117.1 87.1c.1 0 .1 0 0 0zM109.5 102.3v.1l-.1-.1zM109.3 102.1l.2.2c.2.1-.3-.3-.2-.2z"/><path class="st1" d="M109.3 102.1c.1 0-.1-.1-.1-.1l.1.1zM109.8 101.4z"/><path class="st1" d="M109.5 100.9l-.1-.1c.2.2-.1.1 0 .2-.1.1 0 .3 0 .4h-.1l.1.1-.1-.1c-.2-.1.1.1-.1 0l.1.1c0 .1 0 .2.1.4l-.1-.1c.2.3.1.3 0 .3.1.1.1.1.2.1.1.1-.2-.2 0-.1l.1.1c.1 0-.2-.1-.1-.1s.1.1.1.1c0-.1.1 0-.1-.2l.2.1c-.1-.1 0-.1-.1-.1.2 0 .1-.2.2-.3-.3-.3.1-.1.1-.2-.1-.1-.1-.1 0-.1l-.1-.1c.4.1.3-.2.5-.2.2-.1.5 0 .2-.5h.1c0-.1.1 0 .1-.1-.2-.3.2-.2 0-.5.1-.1.2-.2.2-.4h.1c-.1-.2.3 0 .3-.2.2 0-.2-.5.1-.4.3.2-.2-.4.1-.2.6.2.3-.1.1-.4.3 0-.1-.4.3-.3-.2-.2.4.1.3 0l-.2-.1c.2.1-.3-.3.1 0 .2.1-.4-.3-.2-.2l-.1-.1.1.1s-.2-.1-.1-.1c.4.2-.1-.1.3.2 0 0 .2.1.2.2l-.1-.1c-.2-.1-.3-.2-.5-.3l.1.1c-.1-.1-.1 0-.2-.1 0 0-.2-.1-.3-.2.2.1 0 .1 0 .1h-.1c-.2-.1.3.2 0 0v.2c.1.1 0 0 .2.1-.2-.1-.3-.2-.3-.1-.3-.2.2.2-.1 0 .2.2-.1 0 .2.2-.1 0-.1-.1-.1-.1h-.2c.2.2-.1 0 .1.2-.1 0-.2-.1-.1 0 0 0 0 .1.2.2-.3-.2-.2-.1-.3-.2.1.1 0 .1.1.2-.1-.1 0 .1-.2-.1.3.3.1.3-.2.2l.4.4s-.2-.1-.1 0h-.1c.1.1-.2-.1 0 0h-.1l.1.1c-.1 0-.2-.1-.1-.1-.2.1.1.5-.1.6h-.1l.1.1h-.1c-.1 0 0 .1 0 .1l-.1-.1c.1.2-.2-.1.1.1l-.1-.1c.1.2 0 .2-.1.2.3.3-.1.1.1.4h-.1c.2.2-.1.1-.2.3v.1l-.1-.1c.3.3-.4-.1-.1.2l-.1-.1c.2.1-.1 0 .2.2l-.1-.1c.3.3-.2-.1 0 .2l-.1-.1c0 .1.1.1 0 .1-.3-.2 0 .1-.1.1l-.1-.1c.1.1 0 .1 0 .1h-.1.1v-.2c-.1 0 0 .1 0 .2zM109.3 101.3zM111.4 97.4zM100.9 110.8l-.1-.1zM100.7 110.5l.2.2c.1.2-.3-.3-.2-.2zM100.7 110.6c.1.1 0-.1-.1-.1.1 0 0-.1.1.1zM101.3 110z"/><path class="st1" d="M101.1 109.4l-.1-.1c.1.2-.1.1 0 .2-.1 0 0 .3-.1.4v-.1l.1.1v-.1c-.2-.2 0 .2-.1 0l.1.1c0 .1-.1.2 0 .4l-.1-.1c.2.3 0 .3-.1.3.1.1.1.1.1.2.1.1-.1-.2 0-.1l.1.1s-.1-.2-.1-.1l.1.1c0-.1.1 0 0-.2.1.1 0 0 .2.1 0-.1 0-.1-.1-.2.2 0 .1-.2.2-.3-.2-.3.1 0 .1-.2v-.1l-.1-.1c.3.2.3-.1.5-.1s.5.1.3-.4v.1c0-.1.1 0 .1-.1-.1-.3.2-.1.1-.5.1-.1.2-.2.3-.4l.1.1c0-.2.3 0 .3-.1.2 0-.1-.5.1-.4.3.2-.2-.4.2-.2.5.3.4 0 .2-.4.2.1 0-.4.4-.2-.1-.2.3.2.3.1l-.1-.1c.2.2-.2-.3.1 0 .2.1-.3-.4-.1-.2l-.1-.1.1.1-.1-.1c.3.3 0-.1.3.3l.2.2-.1-.2c-.1-.2-.3-.3-.4-.4l.1.1-.1-.1s-.2-.2-.3-.2c.1.1 0 .1 0 .1l-.1-.1c-.1-.1.2.3 0 0 0 .1 0 .1-.1.1.1.1 0 0 .1.2-.2-.2-.3-.2-.3-.2-.3-.2.2.3-.1 0 .2.2-.1 0 .1.2l-.1-.1h-.2c.2.2-.1 0 .1.2-.1 0-.2-.1-.1 0 0 0 0 .1.1.3l-.3-.3c.1.1 0 .1.1.3-.1-.1 0 .1-.1-.1.2.4 0 .4-.3.2.1.1.3.3.4.5 0 0-.2-.1-.1-.1v-.1c.1.1-.2-.1 0 0v.1l-.1-.1c-.2.1 0 .5-.2.5v-.1l.1.1v-.1c-.1-.1 0 .1-.1.1l-.1-.1c.1.2-.2-.2.1.2l-.1-.1c0 .2 0 .2-.2.2.2.3-.1.1.1.4l-.1-.1c.1.3-.2.1-.2.2-.1 0 0 .1 0 .1l-.1-.1c.2.3-.3-.2-.1.2l-.1-.1c.1.2-.1 0 .2.2l-.1-.1c.3.4-.2-.1-.1.2l-.1-.1v.1c-.3-.2-.1.1-.1.1l-.1-.1c.1.2 0 .1 0 .1v-.1l.1.1-.1-.1c-.3 0-.3.1-.3.2zM100.9 109.8zM103.7 106.3z"/><g><path class="st1" d="M90.7 117.3v.1-.1zM90.6 117.1s0-.1 0 0l.1.3c.1.1-.2-.4-.1-.3z"/><path class="st1" d="M90.6 117.1c0 .1 0-.1-.1-.1.1.1 0-.1.1.1zM91.3 116.6zM91.2 116l-.1-.1c.1.2-.1 0-.1.2-.1 0-.1.3-.1.4v-.1s.1.1 0 .1v-.1c-.1-.2 0 .2-.1 0 0 0 0 .1.1.2 0 .1-.1.2-.1.4 0 0 0-.1-.1-.1.1.4 0 .3-.1.3 0 .1.1.1.1.2.1.1-.1-.2 0-.1v.1s-.1-.2 0-.1c0 .1.1.1.1.1s.1 0 0-.2c.1.2 0 0 .1.1 0-.1 0-.1-.1-.2.2 0 .2-.2.3-.2-.1-.4.1 0 .1-.1v-.1l-.1-.2c.3.2.3-.1.5 0 .2 0 .5.2.4-.4v.1c0-.1.1 0 .1-.1 0-.3.2-.1.2-.4.1 0 .3-.1.3-.3v.1c0-.2.3.1.4-.1.2.1 0-.5.2-.4.3.3-.1-.5.2-.2.4.4.4 0 .3-.3.2.1.1-.4.4-.1-.1-.3.3.2.3.1l-.1-.1c.2.2-.2-.4.1 0l-.1-.2-.1-.1.1.1s-.1-.2-.1-.1c.2.4 0-.1.2.3l.1.2-.1-.2c-.1-.2-.2-.4-.3-.5l.1.1c-.1-.1 0-.1-.1-.2 0 0-.2-.2-.2-.3.1.2 0 .1 0 .1v-.1c-.1-.2.2.3 0 0 0 .1 0 .1-.1.1.1.1 0 0 .1.2-.2-.2-.2-.3-.2-.2-.2-.3.1.3-.1-.1.2.3-.1-.1.1.2 0-.1-.1-.1-.1-.2 0 0-.1-.1-.2 0 .1.2-.1-.1 0 .3-.1-.1-.2-.2-.1 0v.3c-.2-.3-.2-.2-.2-.3.1.1 0 .1 0 .3-.1-.1 0 .1-.1-.1.1.4 0 .4-.3.1.1.1.2.4.3.5v-.1l-.1-.1v-.1c0 .1-.1-.1-.1 0v-.1.1c0-.1-.1-.2-.1-.1-.2 0-.1.4-.3.5v-.1 0c-.1-.1 0 .1-.1.1 0 0 0-.1-.1-.1.1.2-.2-.2 0 .2l-.1-.1c0 .2-.1.2-.2.2.1.4-.1.1 0 .4v-.1c.1.3-.2.1-.2.2-.1 0 0 .1-.1.1v-.1c.1.4-.3-.2-.2.2l-.1-.1c.1.2-.1 0 .1.3l-.1-.1c.2.4-.2-.1-.1.2v-.1 0c-.2-.3-.1.1-.1.1l-.1-.1c.1.2-.1 0 0 .1v-.1.1l-.1-.1c.3 0 .4.2.3.2zM90.9 116.4zM94.4 113.6z"/></g><g><path class="st1" d="M79.4 121.7v.1-.2zM79.4 121.4v.3c.1.2-.1-.4 0-.3zM79.4 121.5v-.1.1zM80.2 121.1zM80.2 120.5v-.1c0 .2-.1 0-.1.1-.1 0-.1.2-.2.4v-.1 0c-.1-.2 0 .2-.1 0v.2c-.1.1-.1.1-.2.3v-.2c0 .4-.1.3-.2.2 0 .1 0 .1.1.2s0-.2 0-.1v.1c0 .1-.1-.2 0-.1v.1s.1 0 0-.2l.1.2v-.2c.1.1.2-.2.3-.2-.1-.4.1 0 .2-.1 0-.1 0-.1.1-.1v-.2c.2.3.3 0 .5.1.2 0 .4.2.5-.3v.1c0-.1.1 0 .1-.1 0-.3.3 0 .3-.4.1 0 .3-.1.4-.2v.1c.1-.2.3.2.4 0 .2.1.1-.5.3-.3.2.3 0-.5.2-.1.3.5.3.1.4-.3.2.2.1-.4.4 0 0-.3.2.3.3.2v-.1c.1.3-.1-.4.1 0 .1.2-.1-.5 0-.2v-.1s0 .1.1.1c0 0-.1-.2 0-.1.2.4 0-.1.2.4 0 0 .1.2.1.3v-.2c-.1-.2-.1-.4-.2-.5l.1.2c-.1-.1 0-.1-.1-.2 0 0-.1-.2-.2-.3.1.2 0 .1 0 .1v-.1c-.1-.2.1.3 0 0 0 .1-.1.1-.1.1 0 .1 0 0 .1.2-.1-.2-.2-.3-.2-.3s0-.1 0 0c-.1-.3.1.3-.1-.1.1.3-.1-.1 0 .3 0-.1 0-.1-.1-.2 0 0-.1-.1-.2-.1.1.3-.1-.1 0 .3 0-.1-.1-.2-.1-.1 0 0-.1.1 0 .3-.1-.3-.1-.3-.2-.4v.3c-.1-.1 0 .1-.1-.1.1.5-.1.3-.3.1 0 .1.1.4.1.6v-.1s-.1-.2-.1-.1v-.1c0 .1-.1-.2-.1 0v-.1.1c0-.1-.1-.2 0-.2-.2 0-.2.4-.4.4v-.1 0c-.1-.1-.1.1-.1.1v-.1c0 .2-.1-.2 0 .2v-.1c0 .2-.1.2-.2.1.1.4-.1.1-.1.4v-.1c0 .3-.2 0-.3.1 0 0 0 .1-.1.1v-.1c0 .4-.2-.3-.2.1v-.1c0 .2-.1-.1 0 .3v-.1c.1.5-.1-.2-.1.1v-.1 0c-.1-.3-.1.1-.1.1v-.2c0 .2-.1 0-.1.1v-.1.1-.1c-.7.2-.7.3-.8.3zM79.8 120.8zM83.8 118.7c0 .1 0 .1 0 0 0 0 0 .1 0 0z"/></g><g><path class="st1" d="M67.5 123.7v.1-.2zM67.5 123.4v0zM67.5 123.5v-.1.1zM68.3 123.3zM68.5 122.7v-.1c0 .2-.1 0-.1.1-.1 0-.2.2-.3.3v-.1 0c0-.2-.1.1-.1 0v.2c-.1.1-.2.1-.2.3v-.2c0 .4-.1.2-.2.2v.2c0 .1 0-.2.1-.1v.1s.1 0 .1-.2c0 .2 0 0 .1.2v-.2c.1.1.2-.1.4-.1 0-.4.1.1.2-.1 0-.1 0-.1.1-.1v-.2c.2.3.3.1.5.2s.4.3.5-.2v.1c0-.1.1 0 .1 0 .1-.3.3 0 .3-.3.1 0 .3 0 .4-.1v.1c.1-.2.3.2.4.1.1.2.2-.5.3-.2.1.4.1-.4.2-.1.2.6.3.2.4-.2.2.2.2-.3.4.1 0-.3.2.3.2.2v-.1c.1.3 0-.4.1 0v-.4.1c.1.4 0-.1.1.4V122.7c0-.2 0-.4-.1-.6v0s-.1-.2-.1-.3v.1-.1c0-.2 0 .4 0 0 0 .1-.1.1-.1.1v.2l-.1-.3s0-.1 0 0c-.1-.3 0 .3-.1-.1 0 .3-.1-.1 0 .3v-.2l-.1-.1c0 .3-.1-.1-.1.3 0-.1-.1-.2-.1-.1 0 0-.1 0-.1.3-.1-.3-.1-.3-.1-.4 0 .2-.1.1-.1.3 0-.2 0 .1-.1-.2 0 .5-.2.3-.3 0v.5s-.1-.2-.1-.1v-.1c0 .1-.1-.2-.1 0v-.1-.1c-.2-.1-.3.4-.5.3v-.1 0c-.1-.1-.1.1-.1.1v-.2c0 .2-.1-.3 0 .2v-.2c-.1.2-.2.2-.2.1 0 .4-.1.1-.2.4v-.1c-.1.3-.2 0-.3.1l-.1.1v-.1c0 .4-.2-.3-.2.1v-.1c0 .2-.1-.1 0 .3v-.1c0 .5-.1-.2-.1.1v-.1c0 .1 0 .1 0 0v-.1c-.1-.3-.1 0-.2 0v-.2c0 .2-.1 0-.1.1v-.1.1-.1c-.2 0-.2.2-.3.2zM68.1 122.9zM72.4 121.7z"/></g><g><path class="st1" d="M55.4 123.3v-.1zM55.5 123l-.1.3c0 .2.1-.4.1-.3zM55.5 123v-.1.1zM56.3 123c0 .1 0 .1 0 0zM56.6 122.5v-.1c-.1.2-.1 0-.1.1-.1-.1-.2.2-.3.2v-.1 0c0-.2-.1.1-.1 0v.2c-.1 0-.2.1-.3.2v-.2c-.1.3-.2.2-.2.1v.2c0 .1.1-.2.1-.1v.1s.1.1.1-.2v0c.1.1.3-.1.4 0 .1-.4.1.1.2 0 0-.1.1-.1.1-.1v-.2c.1.3.3.1.5.3.2.1.3.4.5-.1v.1c.1-.1.1.1.1 0 .2-.3.2.1.4-.3.1 0 .3 0 .5-.1v.1c.1-.1.2.3.3.2.1.2.3-.4.4-.2 0 .4.2-.4.2 0 .1.6.3.2.4-.1.1.2.3-.3.4.1.1-.3.1.3.2.3v-.1c0 .3.1-.4.1 0 0 .2.1-.5.1-.2v-.1V122.1c0 .2 0 .1 0 0v-.1c0-.2 0 .4 0 0 0 .1-.1.1-.1.1V122s0-.1 0 0v-.1c0 .3 0-.1-.1.3v-.2l-.1-.1c0 .3-.1-.1-.1.2 0-.1 0-.2-.1-.1 0 0-.1 0-.1.3v-.4c0 .2-.1.1-.1.2v-.2c-.1.4-.2.3-.3-.1 0 .1-.1.4-.1.6v-.1-.1-.1c0 .1 0-.2-.1 0v-.1-.1c-.2-.1-.4.3-.5.2v-.1 0c0-.1-.1.1-.1 0v-.2c0 .2 0-.3-.1.2v-.2c-.1.1-.2.1-.3 0-.1.4-.2 0-.3.3v-.1c-.1.3-.2 0-.3 0l-.1.1v-.1c-.1.4-.1-.3-.2.1v-.1c0 .2 0-.1-.1.3v-.1c-.1.5-.1-.2-.2.1v-.1c0 .1 0 .1-.1 0v-.1c0-.3-.1 0-.2 0v-.2c0 .2-.1 0-.1.1v-.1.1-.1c-.1.5-.2.6-.2.6zM56.1 122.6zM60.6 122.3z"/></g><g><path class="st1" d="M43.6 120.4v.1l.1-.1z"/><path class="st1" d="M43.8 120.2s0-.1 0 0l-.1.2c-.1.2.1-.3.1-.2zM43.8 120.2c0 .1 0-.1.1-.1-.1.1-.1-.1-.1.1zM44.6 120.4z"/><path class="st1" d="M45 119.9v-.1c-.1.2-.1 0-.2.1-.1-.1-.3.1-.4.2v-.1l-.1.1v-.1c0-.2-.1.1-.1-.1 0 0 0 .1-.1.2-.1 0-.2 0-.3.2 0 0 0-.1.1-.2-.2.3-.2.2-.3.1 0 .1 0 .1-.1.2 0 .1.1-.2.1 0v.1c0 .1.1-.2.1-.1v.1s.1.1.2-.1c-.1.2 0 0 0 .2 0-.1 0 0 .1-.2.1.1.3 0 .4 0 .2-.3.1.1.2 0l.1-.1.1-.1c0 .4.3.2.4.4.1.1.2.5.5 0v.1c.1-.1.1.1.1 0 .2-.3.2.1.4-.2.1.1.3.1.5 0v.1c.2-.1.2.3.3.2.1.2.4-.3.4-.1 0 .4.3-.4.2 0 0 .6.2.3.5 0 .1.2.3-.2.4.2.1-.2 0 .4.1.3v-.1c0 .3.2-.4.1 0 0 .2.2-.5.1-.2v-.1.2s.1-.2 0-.1c-.1.4.1-.1-.1.4 0 0 0 .2-.1.3l.1-.2c.1-.2.1-.4.1-.6v0s0-.3.1-.3c-.1.2 0 .1 0 0v-.1c0-.2-.1.3 0 0-.1.1-.1 0-.2 0 0 .1 0 0-.1.2.1-.3 0-.3 0-.3s0-.1 0 0c.1-.3-.1.3 0-.1-.1.3 0-.1-.1.2v-.2s-.1-.1-.1-.2c-.1.2 0-.1-.2.2 0-.1 0-.2-.1-.1 0 0-.1 0-.2.2.1-.3 0-.3.1-.4l-.2.2v-.2c-.2.4-.3.2-.3-.1 0 .1-.1.4-.2.5v-.1-.2-.1c0 .1 0-.2-.1 0v-.1.1c0-.1.1-.2.1-.2-.1-.1-.4.2-.6.1v-.1l-.1.1v-.1c0-.1-.1.1-.1 0v-.1c-.1.2 0-.3-.1.1v-.1c-.1.1-.2.1-.3 0-.2.4-.2 0-.3.3v-.1c-.2.2-.2-.1-.3-.1h-.1v-.1c-.2.3 0-.4-.2 0v-.1c-.1.2 0-.1-.1.3v-.1c-.2.4 0-.2-.2 0v-.1c0 .1-.1.1-.1 0v-.1c.1-.3-.1 0-.2 0l.1-.1c-.1.2-.1 0-.1.1v-.1.1-.1c.5.4.4.5.4.5zM44.5 119.9zM48.9 120.5z"/></g><g><path class="st1" d="M32.7 115.3v-.1zM32.9 115l-.2.2c-.1.2.2-.3.2-.2zM32.9 115.1c0 .1.1-.1.1-.1-.1.1 0-.1-.1.1zM33.6 115.4z"/><path class="st1" d="M34.1 115l.1-.1c-.2.2-.1 0-.1.1l-.1-.1c-.1-.1-.3 0-.4.1v-.1l-.1.1v-.1c.1-.2-.1.1-.1-.1 0 0-.1.1-.1.2-.1 0-.2 0-.4.1 0 0 0-.1.1-.1-.2.3-.2.1-.3 0-.1.1 0 .1-.1.2 0 .1.2-.2.1 0v.1c0 .1.1-.2.1-.1s-.1.1-.1.1 0 .1.2-.1l-.1.2c0-.1 0 0 .1-.2.1.1.3 0 .4.1.2-.3.1.1.2 0s.1-.1.1 0l.1-.1c0 .4.2.2.3.4.1.2.1.5.5.1v.1c.1 0 .1.1.1.1.3-.2.2.2.5-.1.1.1.3.1.4.1v.1c.2-.1.1.3.3.3 0 .2.4-.3.4 0-.1.4.3-.3.2.1-.1.6.2.3.4.1 0 .2.4-.2.3.3.2-.2 0 .4.1.3v-.1c-.1.3.2-.3.1.1l.1-.2v-.1s-.1.1-.1.2c0 0 .1-.2.1-.1-.2.4.1-.1-.1.4 0 0-.1.2-.1.3l.1-.1c.1-.2.2-.4.3-.5l-.1.1c.1-.1 0-.1.1-.2 0 0 .1-.2.1-.3-.1.2-.1.1-.1 0v-.1c.1-.2-.2.3 0 0-.1.1-.1 0-.2 0-.1.1 0 0-.1.2.1-.2.1-.3.1-.3.1-.3-.2.3 0-.1-.1.3 0-.1-.2.2 0-.1.1-.1.1-.2 0 0 0-.1-.1-.2-.1.2 0-.1-.2.2 0-.1.1-.2 0-.1 0 0-.1 0-.2.2.1-.3.1-.3.1-.4l-.2.2c.1-.1-.1 0 0-.2-.3.4-.3.2-.3-.2-.1.1-.2.3-.3.5v-.1s.1-.2 0-.2v-.1c-.1.1.1-.2 0 0v-.1l-.1.1c0-.1.1-.2.1-.1-.1-.1-.4.1-.6 0v-.1l-.1.1v-.1c0-.1-.1 0-.1 0l.1-.1c-.1.2.1-.3-.1.1l.1-.1c-.1.1-.2 0-.3-.1-.3.3-.2 0-.4.2v-.1c-.2.2-.2-.1-.3-.1h-.1v-.1c-.2.3 0-.4-.2 0l.1-.1c-.1.2 0-.1-.2.2v-.1c-.3.4 0-.2-.2 0v-.1s-.1.1-.1 0c.1-.3-.1 0-.2-.1l.1-.1c-.1.1-.1 0-.1 0v-.1l-.1.1.1-.1c.8-.1.7 0 .6 0zM33.6 114.9zM37.9 116.4z"/></g><g><path class="st1" d="M23 108l.1-.1zM23.2 107.8c.1 0 .1 0 0 0l-.2.2c-.1.2.3-.3.2-.2z"/><path class="st1" d="M23.2 107.8c0 .1.1-.1.1-.1l-.1.1zM23.9 108.3zM24.5 108c-.1.1 0-.2-.1-.1 0-.1-.3 0-.4 0l-.1.1.1-.1c.1-.2-.1.1 0-.1l-.1.1h-.4l.1-.1c-.3.2-.3.1-.3 0l-.1.1c-.1.1.2-.1.1 0l-.1.1c0 .1.2-.2.1-.1 0 .1-.1.1-.1.1.1 0 0 .1.2-.1l-.1.2c.1-.1.1 0 .1-.1 0 .2.2.1.3.2.3-.2 0 .1.2.1.1-.1.1-.1.1 0l.1-.1c-.1.3.2.3.2.5.1.2 0 .5.5.2l-.1.1c.1 0 0 .1.1.1.3-.2.2.2.5 0 .1.1.2.2.4.2v.1c.2 0 0 .3.2.3 0 .2.5-.2.4.1-.2.3.4-.2.2.1-.3.5.1.3.4.2 0 .2.4-.1.2.3.2-.2-.1.3 0 .3l.1-.1c-.2.2.3-.3 0 .1-.1.2.3-.4.2-.2l.1-.1-.1.1s.1-.2.1-.1c-.3.3.1 0-.2.3 0 0-.1.2-.2.2l.1-.1c.1-.2.3-.3.4-.5l-.1.1c.1-.1 0-.1.1-.2 0 0 .1-.2.2-.3-.1.1-.1 0-.1 0l.1-.1c.1-.2-.2.3 0 0h-.2l-.2.2c.2-.2.2-.3.2-.3.2-.3-.2.2 0-.1-.2.2 0-.1-.2.2 0-.1.1-.1.1-.1v-.2c-.2.2 0-.1-.2.1 0-.1.1-.2 0-.1 0 0-.1 0-.2.1.2-.3.2-.2.2-.3-.1.1-.1 0-.2.1.1-.1-.1 0 .1-.1-.4.3-.4.1-.2-.2l-.4.4s.1-.2 0-.1v-.1c-.1.1.1-.2 0 0l-.1.1c0-.1.1-.1.1-.1-.1-.2-.5 0-.6-.1l.1-.1-.1.1.1-.1c.1-.1-.1 0-.1 0l.1-.1c-.2.1.1-.2-.2.1l.1-.1c-.2.1-.2 0-.2-.1-.3.3-.1-.1-.4.1l.1-.1c-.3.1-.1-.1-.3-.2 0-.1-.1 0-.1 0l.1-.1c-.3.2.1-.3-.2-.1l.1-.1c-.1.1 0-.1-.2.2l.1-.1c-.3.3.1-.2-.2 0l.1-.1c-.1 0-.1.1-.1 0 .2-.3-.1 0-.1-.1l.1-.1c-.1.1-.1 0-.1 0l.1-.1-.3-.1h.2c-.1 0-.2.1-.2 0zM24 107.9zM27.9 110.1c-.1 0-.1.1 0 0 0 0-.1 0 0 0z"/></g><g><path class="st1" d="M15 98.9v.1l.1-.1zM15.3 98.8l-.3.2c-.1.1.4-.3.3-.2zM15.2 98.8c-.1.1.1 0 .1-.1-.1.1.1 0-.1.1zM15.8 99.4c0 .1 0 .1 0 0zM16.4 99.3l.1-.1c-.2.1 0-.1-.2 0 0-.1-.3-.1-.4-.1h.1l-.1.1h.1c.2-.1-.2 0 0-.1 0 0-.1.1-.2.1s-.2-.1-.4 0l.1-.1c-.3.2-.3 0-.3-.1-.1.1-.1.1-.2.1-.1.1.2-.1.1 0l.1-.1s.2-.1.1 0c-.1 0-.1.1-.1.1.1 0 0 .1.2 0-.2.1 0 0-.1.2.1 0 .1 0 .2-.1 0 .2.2.1.3.2.3-.2 0 .1.2.1h.1l.1-.1c-.2.3.1.3.1.5s-.1.5.4.3h-.1c.1 0 0 .1.1.1.3-.1.1.2.5.1.1.1.2.2.4.3h-.1c.2 0 0 .3.1.4-.1.2.5-.1.4.2-.2.3.4-.1.2.2-.4.5 0 .4.4.3-.1.2.4 0 .2.4.2-.1-.2.3-.1.3l.1-.1c-.2.2.3-.2 0 .1-.2.2.4-.3.2-.1l.1-.1-.1.1.1-.1c-.3.3.1 0-.3.3l-.2.2.2-.1c.2-.1.3-.3.4-.4l-.1.1.1-.1s.2-.2.2-.3c-.2.1-.1 0-.1 0l.1-.1c.1-.1-.3.2 0 0-.1 0-.1 0-.1-.1-.1.1 0 0-.2.1.2-.2.2-.3.2-.3.2-.2-.3.2 0-.1-.2.2 0-.1-.2.1.1 0 .1-.1.1-.1v-.2c-.2.1 0-.1-.2.1 0-.1.1-.2 0-.1 0 0-.1 0-.3.1.3-.2.2-.2.3-.3-.1.1-.1 0-.3.1.1-.1-.1 0 .1-.1-.4.2-.4 0-.2-.3-.1.1-.3.2-.5.3l.1-.1h.1c-.1.1.1-.1 0-.1h-.1c.1 0 .1-.1.1-.1 0-.2-.5-.1-.5-.2h.1l-.1.1h.1c.1-.1-.1 0-.1-.1l.1-.1c-.2.1.2-.2-.2.1l.1-.1c-.2 0-.2-.1-.2-.2-.4.2-.1-.1-.4 0h.1c-.3.1-.1-.2-.2-.2 0-.1-.1 0-.1 0l.1-.1c-.3.2.2-.3-.2-.1l.1-.1c-.2.1 0-.1-.2.1l.1-.1c-.4.2.1-.2-.2-.1h.1-.1c.2-.2-.1-.1-.1-.1l.1-.1c-.2.1-.1 0-.1 0h.1-.1l.1-.1c-.1-.1-.3-.1-.3-.1zM16 99zM19.3 102z"/></g><g><path class="st1" d="M9 88.5h-.1l.1-.1zM9.2 88.4c.1 0 .1 0 0 0l-.2.1.2-.1zM9.2 88.4h.1c-.1 0 .1-.1-.1 0zM9.7 89.1c-.1 0 0 0 0 0z"/><path class="st1" d="M10.3 89.1l.1-.1c-.2.1 0-.1-.1-.1 0-.1-.2-.1-.4-.2h.1c.2-.1-.2 0 0-.1 0 0-.1 0-.2.1-.1-.1-.2-.1-.4-.1 0 0 .1 0 .1-.1-.4.1-.3 0-.2-.1-.1 0-.1 0-.2.1s.2-.1.1 0h-.1s.2-.1.1 0c-.1 0-.1 0-.1.1 0 0 0 .1.2 0l-.2.1c.1 0 .1 0 .2-.1 0 .1.2.2.2.3.4-.1 0 .1.1.1H9.9c-.2.3.1.3 0 .5 0 .2-.2.5.4.4h-.1c.1 0 0 .1.1.1.3 0 .1.2.4.2 0 .1.1.3.3.4h-.1c.2 0-.1.3.1.4-.1.2.5 0 .3.2-.3.2.5 0 .1.2-.4.6 0 .6.4.5-.1.2.4.1.1.4.3-.1-.2.3-.1.3h.1c-.2.2.4-.1 0 .1-.2.1.5-.2.2-.1h.1l-.1.1s.2-.1.1-.1c-.4.2.1 0-.3.2 0 0-.2.1-.3.1l.2-.1c.2-.1.4-.2.5-.3l-.1.1c.1-.1.1 0 .2-.1 0 0 .2-.1.3-.2-.2.1-.1 0-.1 0h.1c.2-.1-.3.2 0 0-.1 0-.1 0-.1-.1-.1.1 0 0-.2.1.2-.1.3-.2.3-.2.3-.2-.3.1.1-.1-.3.1.1-.1-.2.1.1 0 .1-.1.2-.1 0 0 .1-.1.1-.2-.2.1.1-.1-.3 0 .1-.1.2-.2 0-.1 0 0-.1-.1-.3 0 .3-.2.2-.2.3-.2-.2.1-.1 0-.3 0 .1-.1-.1 0 .1-.1-.4.1-.4-.1-.1-.3-.1.1-.4.2-.5.2h.1l.1-.1h.1c-.1 0 .1-.1 0-.1h.1-.1c.1 0 .2-.1.2-.1 0-.2-.4-.2-.5-.3h.1-.1.1c.1-.1-.1 0-.1-.1 0 0 .1 0 .1-.1-.2.1.2-.2-.2 0l.1-.1c-.2 0-.2-.1-.2-.2-.4.1-.1-.1-.4 0h.1c-.3 0-.1-.2-.2-.3 0-.1-.1 0-.1-.1h.1c-.4.1.2-.3-.2-.2l.1-.1c-.2.1 0-.1-.3.1l.1-.1c-.4.2.2-.2-.1-.1h.1-.1.1c.3-.2-.1-.1-.1-.1l.1-.1c-.2.1 0-.1-.1-.1h.1-.1l.1-.1c-.4.1-.5.1-.5.1zM9.9 88.7zM12.6 92.3z"/></g><g><path class="st1" d="M5.2 77h-.1.2zM5.5 77s0-.1 0 0h-.3c-.2 0 .4-.1.3 0z"/><path class="st1" d="M5.4 77h.1c-.1 0 .1-.1-.1 0zM5.7 77.8z"/><path class="st1" d="M6.3 77.8h.1c-.2 0 0-.1-.1-.1 0-.1-.2-.2-.3-.2h.1c.2-.1-.2 0 0-.1h-.2c-.1-.1-.1-.1-.3-.2h.2c-.4 0-.2-.1-.2-.2h-.2c-.1 0 .2 0 .1.1h0-.1s0 .1.2.1l-.2.1h.2c-.1.1.1.2.2.3.4 0 0 .1.1.2.1 0 .1 0 .1.1h.2c-.3.2 0 .3-.1.5 0 .2-.3.4.3.5h-.1c.1 0 0 .1.1.1.3 0 0 .3.4.3 0 .1.1.3.2.4h-.1c.2.1-.2.3 0 .4-.1.2.5.1.3.3-.3.2.5.1.1.2-.5.3-.1.3.2.4-.2.2.4.2 0 .4.3 0-.3.2-.2.3h.1c-.3.1.4-.1 0 .1-.2.1.5-.1.2 0h.1s-.1 0-.2.1c0 0 .2-.1.1 0-.4.1.1 0-.4.2 0 0-.2.1-.3.1h.2c.2-.1.4-.1.6-.2h-.2c.2-.1.1 0 .2-.1 0 0 .2-.1.3-.1h-.1.1c.2-.1-.4.1 0 0-.1 0-.1-.1-.1-.1h-.2c.3-.1.3-.1.3-.2 0 0 .1 0 0 0 .3-.1-.3.1.1-.1-.3.1.1-.1-.3 0 .1 0 .1 0 .2-.1 0 0 .1-.1.1-.2-.3 0 .1-.1-.3 0 .1 0 .2-.1.1-.1 0 0-.1-.1-.3 0 .3-.1.3-.1.4-.1h-.3c.2-.1-.1 0 .1-.1-.5 0-.3-.1 0-.3-.1 0-.4.1-.6.1h.1s.2-.1.1-.1h.1c-.1 0 .2-.1 0-.1h.1-.1c.1 0 .2-.1.2 0 0-.2-.4-.2-.4-.4h.1-.1.1c.1-.1-.1-.1-.1-.1h.1c-.2 0 .2-.1-.2 0h.1c-.2 0-.2-.1-.1-.2-.4 0-.1-.1-.4-.1h.1c-.3 0 0-.2-.1-.3l-.1-.1h.1c-.4 0 .3-.2-.1-.2h.1c-.2 0 .1-.1-.3 0h.1c-.5.1.2-.1-.1-.1h.1-.1.1c.3-.1-.1-.1-.1-.2h.2c-.2 0 0-.1-.1-.1h.1-.1.1c-.2-.7-.3-.7-.4-.8zM6 77.4c.1 0 .1 0 0 0zM7.9 81.5z"/></g><g><path class="st1" d="M3.8 65h-.1.2zM4.1 65h0zM4 65h.1H4zM4.2 65.8s-.1 0 0 0c-.1 0-.1 0 0 0zM4.7 66h.1c-.2 0 0-.1-.1-.1 0-.1-.2-.2-.3-.3h.1c.2 0-.1-.1 0-.1h-.2c-.1-.1-.1-.2-.3-.3h.2c-.3 0-.2-.1-.1-.2h-.2c-.1 0 .2 0 .1.1h0-.1s0 .1.2.1c-.2 0 0 0-.2.1h.2c-.1.1.1.2.1.4.4 0-.1.1.1.2.1 0 .1 0 .1.1h.2c-.3.2-.1.3-.2.5s-.3.4.2.5h-.1c.1 0-.1.1 0 .1.3.1 0 .3.3.3 0 .1 0 .3.1.4h-.1c.2.1-.2.2-.1.4-.2.1.4.2.2.4-.4.1.4.1.1.2-.7.2-.4.3 0 .5-.2.2.3.2-.1.4.3 0-.3.2-.2.2h.1c-.3.1.4 0 0 .1H5.1c-.4 0 .1 0-.4.1h-.3.2c.2 0 .4 0 .6-.1H5h.2s.3 0 .3-.1h-.1.1c.2 0-.4 0 0 0-.1 0-.1-.1-.1-.1h-.2c.3 0 .3-.1.3-.1s.1 0 0 0c.3-.1-.3 0 .1-.1-.3 0 .1-.1-.3 0h.2l.1-.1c-.3 0 .1-.1-.2-.1.1 0 .2-.1.1-.1 0 0 0-.1-.3-.1.3 0 .3 0 .4-.1-.2 0-.1-.1-.3-.1h.2c-.5-.1-.3-.2 0-.3h-.6.1s.2-.1.1-.1h.1c-.1 0 .2-.1 0-.1h.1-.1.2c.1-.2-.3-.3-.3-.5h.1-.1.1c.1-.1-.1-.1-.1-.1h.2c-.2 0 .3-.1-.2-.1h.2c-.1-.1-.1-.2-.1-.3-.4 0 0-.1-.4-.2h.1c-.3-.1 0-.2-.1-.3l-.1-.1h.1c-.4-.1.3-.2-.1-.2h.1-.3.1c-.5 0 .2-.1-.1-.1h.1c-.1 0-.1 0 0 0h.1c.3-.1 0-.1 0-.2h.2c-.2 0 0-.1-.1-.1h.1-.1.1c0-.2-.1-.2-.2-.3zM4.5 65.6zM5.5 69.9z"/></g><g><path class="st1" d="M4.8 52.9h.1zM5.1 53l-.3-.1c-.2 0 .4.1.3.1zM5 53h.1H5zM5 53.8zM5.5 54.1h.1c-.2-.1 0-.1-.1-.1.1-.1-.1-.2-.2-.4h.1c.2 0-.1-.1 0-.1h-.2c0-.1-.1-.2-.2-.3h.2c-.3-.1-.2-.1-.1-.2h-.2c-.1 0 .2.1 0 .1h0-.1s-.1.1.2.1h-.2c.1 0 .1 0 .2.1-.1.1.1.3 0 .4.4.1-.1.1 0 .2.1 0 .1.1.1.1h.2c-.3.1-.1.3-.3.4-.2.2-.5.3 0 .6h-.1c.1 0-.1 0 0 .1.3.2-.1.2.2.4-.1.1 0 .3 0 .5H5c.1.1-.3.2-.2.3-.2.1.4.3.1.4-.4 0 .4.2 0 .2-.6.1-.2.3.1.4-.2.1.3.3-.2.4.3.1-.4.1-.3.2h.1c-.3 0 .4.1 0 .1-.1 0 .6.1.4 0h-.1.1-.4H4.5c.2 0 .4.1.6.1h-.2H5.5c-.2 0-.1 0 0 0h.1c.2 0-.4-.1 0 0-.2-.1-.2-.1-.2-.2h-.2.3s.1 0 0 0c.3 0-.3-.1.1 0-.3 0 .1 0-.2-.1h.2l.1-.1c-.3-.1.1-.1-.2-.1.1 0 .2 0 .1-.1 0 0 0-.1-.3-.1h.4c-.2 0-.1-.1-.2-.1h.2c-.4-.2-.3-.3.1-.3-.1 0-.4-.1-.6-.1H5.5c-.1 0 .2 0 0-.1h.1-.1.2c.1-.2-.3-.4-.2-.5h.1l-.1-.1h.1c.1 0-.1-.1 0-.1h.2c-.3-.1.2-.1-.3-.2h.2c-.1-.1-.1-.2 0-.3-.4-.1 0-.2-.3-.3h.1c-.3-.1 0-.2 0-.3 0 0-.1-.1 0-.1h.1c-.4-.1.4-.1 0-.2h.1c-.2 0 .1 0-.3-.1h.1c-.5-.1.2-.1-.1-.2h.1c-.1 0-.1-.1 0-.1h.1c.3 0 0-.1 0-.2h.2c-.2-.1 0-.1-.1-.1h.1-.1.1c-.1.3-.3.2-.3.1zM5.4 53.7zM5.5 58.1z"/></g><g><path class="st1" d="M8.2 41.3h.1zM8.5 41.4c0 .1 0 .1 0 0l-.2-.1c-.3 0 .3.2.2.1z"/><path class="st1" d="M8.4 41.4c-.1 0 .1 0 .1.1 0 0 .1 0-.1-.1zM8.2 42.3c0-.1 0 0 0 0z"/><path class="st1" d="M8.7 42.7l.1.1c-.2-.1 0-.1 0-.2.1-.1-.1-.3-.1-.4h.1l-.1-.1h.1c.2.1-.1-.1.1-.1 0 0-.1-.1-.2-.1 0-.1 0-.2-.2-.3 0 0 .1 0 .2.1-.3-.2-.1-.2-.1-.3-.1 0-.1 0-.2-.1-.1 0 .2.1 0 .1h-.1c-.1 0 .2.1.1.1h-.1s-.1 0 .1.2c-.2-.1 0 0-.2 0 .1 0 0 0 .2.1-.1.1 0 .3-.1.4.3.2-.1.1 0 .2l.1.1.1.1c-.4 0-.2.3-.4.4-.2-.1-.5 0-.1.3h-.1c.1.1-.1.1 0 .1.3.2-.1.2.2.4-.2.2-.2.4-.1.5h-.1c.1.2-.3.1-.2.3-.2.1.3.4 0 .4-.4 0 .3.3 0 .2-.6 0-.3.2 0 .5-.2.1.2.4-.2.3.2.1-.4 0-.3.1h.1c-.3-.1.4.2 0 .1-.2-.1.5.2.2.1h-.1s.2.1.1.1c-.4-.1.1.1-.4-.1 0 0-.2 0-.3-.1l.2.1c.2.1.4.1.6.2l-.2-.1c.2 0 .1 0 .2.1 0 0 .2.1.3.1-.2-.1-.1 0 0 0H8c.2.1-.3-.1 0 0-.1-.1 0-.1 0-.2-.1 0 0 0-.2-.1.3.1.3.1.3 0 0 0 .1 0 0 0 .3.1-.3-.1.1 0-.3-.1.1 0-.2-.1.1 0 .1 0 .2.1 0 0 .1 0 .2-.1-.4-.2 0-.1-.4-.2.1 0 .2 0 .1-.1 0 0 0-.1-.2-.2.3.1.3.1.4.1l-.2-.2h.2c-.4-.2-.2-.3.2-.3-.1-.1-.4-.2-.5-.2h.4c-.1-.1.2 0 0-.1h.1-.1c.1 0 .2.1.2.1.1-.1-.2-.4-.1-.6h.1l-.1-.1h.1c.1 0-.1-.1 0-.1 0 0 .1 0 .1.1-.2-.1.3 0-.1-.1 0 0 .1 0 .1.1-.1-.1-.1-.2 0-.3-.3-.2 0-.2-.3-.3h.1c-.2-.2.1-.2.1-.3v-.1h.1c-.3-.2.4 0 0-.2l.1.1c-.2-.1.1 0-.2-.1h.1c-.4-.2.2 0 0-.2h.1c-.1 0-.1-.1 0-.1h.1c.3.1 0-.1 0-.2l.1.1c-.2-.1 0-.1-.1-.1H9l-.1-.1.1.1c-.2.1-.3 0-.3 0zM8.7 42.2zM7.9 46.6z"/></g><g><path class="st1" d="M14 30.6h-.1l.1.1z"/><path class="st1" d="M14.2 30.8s0 .1 0 0l-.2-.1c-.2-.1.3.2.2.1zM14.1 30.8c-.1 0 .1.1.1.1-.1-.1.1 0-.1-.1zM13.8 31.6z"/><path class="st1" d="M14.1 32.1l.1.1c-.1-.2.1-.1-.1-.1l.1-.1c.1-.1 0-.3-.1-.4h.1l-.1-.1h.1c.2.1-.1-.1.1-.1 0 0-.1-.1-.2-.1 0-.1 0-.2-.1-.4 0 0 .1 0 .1.1-.3-.3-.1-.2 0-.3-.1-.1-.1 0-.2-.1-.1 0 .2.2 0 .1l-.1-.1c-.1 0 .2.1.1.1s-.1-.1-.1-.1-.1 0 .1.2l-.2-.1.1.1c-.1 0-.1.3-.1.3.3.3-.1.1-.1.2.1.1.1.1 0 .1l.1.1c-.4 0-.2.2-.4.3-.2.1-.5.1-.2.5H13c0 .1-.1.1-.1.1.2.3-.2.2.1.5-.1.1-.2.3-.2.4h-.1c.1.2-.3.1-.3.2-.2 0 .2.4 0 .4-.4-.1.3.4-.1.2-.6-.2-.3.1-.1.4-.3 0 .1.4-.3.3.2.2-.4-.1-.3 0h.1c-.3-.1.3.2-.1 0-.2-.1.4.3.2.2l.1.1-.1-.1s.2.1.1.1c-.4-.2.1.1-.4-.2 0 0-.2-.1-.3-.1l.1.1c.2.1.4.2.5.3l.2.3c.1.1.1 0 .2.1 0 0 .2.1.3.1-.2-.1-.1-.1 0-.1h.1c.2.1-.3-.2 0 0v-.2c-.1-.1 0 0-.2-.1.2.1.3.1.3.1.3.1-.3-.2.1 0-.3-.1.1 0-.2-.2.1 0 .1.1.2.1h.2c-.2-.2.1 0-.2-.2.1 0 .2.1.1 0 0 0 0-.1-.2-.2.3.2.3.1.4.2-.1-.1 0-.1-.1-.2.1.1 0-.1.2.1-.3-.3-.1-.3.2-.3-.1-.1-.3-.2-.5-.3 0 0 .2.1.2 0h.1c-.1-.1.2.1 0 0h.1l-.1-.1c.1 0 .2.1.1.1.2-.1-.1-.5 0-.6h.1l-.1-.1h.1c.1 0 0-.1 0-.1l.1.1c-.2-.1.3.1-.1-.1l.1.1c-.1-.1 0-.2.1-.3-.3-.3 0-.1-.2-.4h.1c-.2-.2.1-.2.1-.3v-.1l.1.1c-.3-.3.4.1.1-.2l.1.1c-.2-.1.1 0-.2-.2h.1c-.4-.3.2 0 0-.2h.1s-.1-.1 0-.1c.3.1 0-.1.1-.1l.1.1c-.1-.1 0-.1 0-.1h.1l-.2.2.1.1c.1-.1 0-.2 0-.2zM14.2 31.6zM12.6 35.7z"/></g><g><path class="st1" d="M21.7 21.3v.1zM21.9 21.6l-.2-.2.2.2zM21.8 21.6c-.1-.1 0 .1.1.1-.1-.1.1 0-.1-.1zM21.3 22.2zM21.6 22.8c0-.1.2 0 .1-.1.1 0 0-.3 0-.4v.1l-.1-.1.1.1c.2.1-.1-.1.1 0l-.1-.1v-.4l.1.1c-.2-.3 0-.3 0-.3l-.1-.1c-.1-.1.1.2 0 .1l-.1-.1c-.1 0 .2.2.1.1-.1 0-.1-.1-.1-.1 0 .1-.1 0 .1.2-.1-.1 0 0-.2-.1 0 .1 0 .1.1.1-.2 0-.1.2-.2.3.2.3-.1 0-.1.2.1.1.1.1 0 .1l.1.1c-.3-.1-.3.2-.5.2-.2.1-.5 0-.3.5l-.1-.1c0 .1-.1 0-.1.1.1.3-.2.2 0 .5-.1.1-.2.2-.2.4V24c0 .2-.3 0-.3.2-.2 0 .1.5-.1.4-.3-.2.2.4-.1.2-.5-.3-.4.1-.2.4-.2 0 .1.4-.3.2.2.2-.3-.1-.3 0l.1.1c-.2-.2.3.3-.1 0-.2-.1.4.4.2.2l.1.1-.1-.1.1.1c-.3-.3 0 .1-.3-.2 0 0-.2-.1-.2-.2l.1.1c.2.1.3.3.4.4l-.1-.1c.1.1.1.1.2.1 0 0 .2.1.3.2-.1-.1 0-.1 0-.1l.1.1c.1.1-.3-.3 0 0v-.2l-.2-.2c.2.2.3.2.3.2.3.2-.2-.2.1 0-.2-.2.1 0-.2-.2.1 0 .1.1.1.1h.2c-.2-.2.1 0-.1-.2.1 0 .2.1.1 0 0 0 0-.1-.1-.3.3.2.2.2.3.2-.1-.1 0-.1-.1-.2.1.1 0-.1.1.1-.4-.4-.2-.4.1-.2l-.4-.4s.2.1.1.1l.1.1c-.1-.1.2.1 0 0l-.1-.1.1.1c.2-.1 0-.5.2-.6v.1l-.1-.1.1.1c.1.1 0-.1 0-.1l.1.1c-.1-.2.2.1-.1-.2l.1.1c0-.2 0-.2.1-.2-.2-.3.1-.1-.1-.4l.1.1c-.1-.3.1-.1.2-.2.1 0 0-.1 0-.1l.1.1c-.2-.3.3.1.1-.2l.1.1c-.1-.2.1 0-.2-.2l.1.1c-.3-.4.2.1 0-.2l.1.1c0-.1-.1-.1 0-.1.3.2 0-.1.1-.1l.1.1c-.1-.1 0-.1 0-.1l.1.1.3-.5v0zM21.8 22.3zM19.3 26.1s0-.1 0 0z"/></g><g><path class="st1" d="M31.1 13.8l.1.1zM31.3 14c0 .1 0 .1 0 0l-.1-.2c-.2-.2.1.4.1.2z"/><path class="st1" d="M31.2 14c-.1-.1 0 .1.1.1-.1-.1 0 .1-.1-.1zM30.6 14.6zM30.7 15.2l.1.1c-.1-.2.1 0 0-.2.1 0 .1-.3.1-.4v.1l-.1-.1v.1c.1.2 0-.2.1 0 0 0-.1-.1-.1-.2s.1-.2.1-.4l.1.1c-.1-.3 0-.3.1-.3 0-.1-.1-.1-.1-.2-.1-.1.1.2 0 .1v-.1s.1.2 0 .1c0-.1-.1-.1-.1-.1 0 .1-.1 0 0 .2-.1-.2 0 0-.1-.1 0 .1 0 .1.1.2-.2 0-.1.2-.3.3.2.4-.1 0-.1.2v.1l.1.1c-.3-.2-.3.1-.5.1s-.5-.1-.3.4v-.1c0 .1-.1 0-.1.1.1.3-.2.1-.1.5l-.3.3V16c0 .2-.3-.1-.4.1-.2-.1.1.5-.2.4-.3-.3.1.4-.2.2-.5-.4-.4 0-.3.4-.2-.1 0 .4-.4.2.1.3-.3-.2-.3-.1l.1.1c-.2-.2.2.3-.1 0-.1-.2.3.4.1.2l.1.1-.1-.1s.1.2.1.1c-.3-.3 0 .1-.3-.3l-.2-.2.1.2c.1.2.2.3.4.5l-.1-.1c.1.1.1.1.1.2 0 0 .2.2.2.3-.1-.2 0-.1 0-.1l.1.1c.1.1-.2-.3 0 0 0-.1 0-.1.1-.1-.1-.1 0 0-.1-.2l.2.2c.2.3-.2-.3.1.1-.2-.2.1.1-.1-.2 0 .1.1.1.1.1h.2c-.1-.2.1.1-.1-.3.1 0 .2.1.1 0 0 0 0-.1-.1-.3.2.3.2.2.3.3-.1-.1 0-.1-.1-.3.1.1 0-.1.1.1-.2-.4 0-.4.3-.2-.1-.1-.2-.3-.3-.5l.1.1v.1c0-.1.1.1.1 0V17c0 .1.1.2.1.1.2 0 .1-.5.3-.5v.1-.1.1c.1.1 0-.1.1-.1l.1.1c-.1-.2.2.2 0-.2l.1.1c0-.2.1-.2.2-.2-.2-.4.1-.1 0-.4v.1c-.1-.3.2-.1.2-.2.1 0 0-.1.1-.1l.1.1c-.2-.3.3.2.1-.2l.1.1c-.1-.2.1 0-.1-.3l.1.1c-.2-.4.2.1.1-.2v.1c.2.2.1-.1.1-.1l.1.1c-.1-.2.1-.1 0-.1v.1-.1l.1.1c-.1-.2-.1-.3-.1-.3zM31 14.8zM27.9 17.9z"/></g><g><path class="st1" d="M41.9 8.3v-.1.2zM42 8.6l-.1-.3c-.1-.2.1.4.1.3zM41.9 8.5v.1c0-.1.1.1 0-.1zM41.2 8.9zM41.2 9.6v.1c-.1-.2.1 0 .1-.1.1 0 .1-.2.2-.4v.1c.1.2 0-.2.1 0 0 0 0-.1-.1-.2.1-.1.1-.2.1-.4 0 0 0 .1.1.2-.1-.4.1-.3.1-.2 0-.1 0-.1-.1-.2s0 .2 0 .1v-.1s.1.2 0 .1v-.1s-.1 0 0 .2l-.1-.2c0 .1 0 .1.1.2-.1 0-.2.2-.3.2.1.4-.1 0-.2.1V9.3c-.3-.2-.3 0-.5 0s-.5-.2-.4.3v-.1c0 .1-.1 0-.1.1 0 .3-.2.1-.2.4-.1 0-.3.1-.4.3v-.1c0 .2-.3-.1-.4 0-.2-.1 0 .5-.3.3-.2-.3 0 .5-.2.1-.4-.5-.4-.1-.3.3-.2-.1-.1.4-.4.1.1.3-.3-.2-.3-.2v.1c-.1-.2.1.4-.1 0-.1-.2.2.5.1.2v.1l-.1-.1s.1.2 0 .1c-.2-.4 0 .1-.2-.3 0 0-.1-.2-.1-.3l.1.2c.1.2.2.4.3.5l-.1-.1c.1.1 0 .1.1.2 0 0 .1.2.2.3-.1-.2 0-.1 0-.1v.1c.1.2-.1-.3 0 0 0-.1.1-.1.1-.1 0-.1 0 0-.1-.2.1.2.2.3.2.3.2.3-.1-.3.1.1-.1-.3.1.1-.1-.3 0 .1.1.1.1.2 0 0 .1.1.2.1-.1-.2.1.1 0-.3.1.1.2.2.1 0 0 0 .1-.1 0-.3.2.3.1.2.2.3v-.3c.1.1 0-.1.1.1-.1-.4.1-.4.3-.1 0-.1-.1-.4-.2-.5v.1s.1.2.1.1v.1c0-.1.1.2.1 0v.1-.1c0 .1.1.2.1.2.2 0 .2-.4.4-.4v.1-.1.1c.1.1 0-.1.1-.1 0 0 0 .1.1.1-.1-.2.2.2 0-.2 0 0 0 .1.1.1 0-.2.1-.2.2-.2-.1-.4.1-.1.1-.4v.1c0-.3.2-.1.3-.2.1 0 0-.1.1-.1v.1c-.1-.4.3.2.2-.2v.1c-.1-.2.1 0-.1-.3l.1.1c-.1-.4.2.2.1-.1v.1c.1.2 0-.2.1-.2v.2c0-.2.1 0 .1-.1v.1-.1l.1.1v-.2zM41.6 9.2zM37.9 11.7z"/></g><g><path class="st1" d="M53.6 5.1V5v.2zM53.6 5.4v-.3c-.1-.2 0 .4 0 .3z"/><path class="st1" d="M53.6 5.3v.1c-.1-.1 0 .1 0-.1zM52.8 5.6zM52.6 6.2v.1c0-.2.1 0 .1-.1.2.1.3-.2.3-.3V6c.1.2 0-.2.1 0v-.2c.1-.1.2-.1.2-.3v.2c0-.4.1-.2.2-.2v-.2c0-.1 0 .2-.1.1v-.1 0s-.1 0-.1.2c0-.2 0 0-.1-.2v.2c-.1-.1-.2.1-.3.1 0 .4-.1 0-.2.1 0 .1 0 .1-.1.1V6c-.2-.3-.3 0-.5-.1-.1-.2-.3-.5-.4.1v-.1c0 .1-.1 0-.1 0-.1.3-.3 0-.3.4-.1 0-.3.1-.4.2v-.1c-.1.2-.3-.2-.4 0-.2-.1-.1.5-.3.3-.2-.3-.1.5-.2.1-.3-.5-.3-.1-.4.2-.2-.2-.2.4-.4 0 0 .3-.2-.3-.3-.2v.1c-.1-.3 0 .4-.1 0-.1-.2.1.5 0 .3v.1s0-.1-.1-.2v.1c-.1-.4 0 .1-.1-.4 0 0-.1-.2-.1-.3v.2c.1.2.1.4.1.6v-.2c0 .2 0 .1.1.2 0 0 .1.2.1.3v-.1.1c.1.2-.1-.4 0 0 0-.1.1-.1.1-.1v-.2l.1.3s0 .1 0 0c.1.3 0-.3.1.1-.1-.3.1.1 0-.3v.2s.1.1.2.1c0-.3.1.1 0-.3 0 .1.1.2.1.1 0 0 .1-.1 0-.3.1.3.1.3.1.4v-.3c0 .2 0-.1.1.2 0-.5.2-.3.3 0 0-.1-.1-.4-.1-.6V7s.1.2.1.1v.1c0-.1.1.2.1 0v.1-.1.2c.2 0 .3-.4.4-.4v.1V7v.1c.1.1.1-.1.1-.1v.2c0-.2.1.3 0-.2v.1c.1-.2.1-.2.2-.1 0-.4.1-.1.1-.4v.1c0-.3.2 0 .3-.1l.1-.1v.1c0-.4.2.3.2-.1v.1c0-.2.1.1 0-.3v.1c0-.5.1.2.1-.1v.1c0-.1 0-.1 0 0v.1c.1.3.1-.1.2-.1v.2c0-.2.1 0 .1-.1v.1-.1.1c.8-.3.8-.4.8-.4zM53.1 5.9zM48.9 7.6z"/></g><g><path class="st1" d="M65.6 4.3v-.1.2zM65.6 4.5c0 .1 0 .1 0 0v-.3.3zM65.6 4.5v0zM64.7 4.6zM64.5 5.1v.1c0-.2.1 0 .1-.1.1.2.2 0 .4-.1v-.1.1c0 .2 0-.2 0 0v-.2c.1-.1.2-.1.3-.3v.2c.1-.4.2-.2.2-.2v-.2c0-.1-.1.2-.1.1v-.1 0s-.1 0-.1.2v-.2.2c-.1-.1-.2.1-.4.1-.1.4-.1-.1-.2.1 0 .1-.1.1-.1.1V5c-.2-.3-.3-.1-.5-.2s-.3-.4-.5.1v-.1c-.1.1-.1-.1-.1 0-.1.3-.3 0-.4.3-.1 0-.3 0-.4.1v-.1c-.1.2-.2-.2-.4-.1-.1-.2-.2.4-.4.2-.1-.4-.2.4-.2 0-.2-.6-.3-.2-.4.2-.1-.2-.3.3-.4-.1 0 .3-.1-.3-.2-.3v.1c0-.3 0 .4-.1 0V5.4c0-.4 0 .1-.1-.4v-.3.8-.2.2s0 .3.1.3v-.1.1c0 .2 0-.4 0 0 0-.1.1-.1.1-.1v-.2c0 .3.1.3.1.3s0 .1 0 0c0 .3 0-.3.1.1v-.3.2l.1.1c0-.3.1.1.1-.2 0 .1.1.2.1.1 0 0 .1 0 .1-.3 0 .3 0 .3.1.4 0-.2.1-.1.1-.3v.2c.1-.5.2-.3.3 0v-.6.1s0 .2.1.1v.1c0-.1 0 .2.1 0v.1-.1.2c.2.1.3-.3.5-.3v.1-.1.1c0 .1.1-.1.1-.1v.2c0-.2.1.3.1-.2v.2c.1-.1.2-.1.3-.1.1-.4.2 0 .2-.4v.1c.1-.3.2 0 .3 0l.1-.1v.1c.1-.4.1.3.2-.1V4.9 5c.2-.4.2.3.3 0v.1c0-.1 0-.1 0 0v.1c0 .3.1 0 .2 0v.2c0-.2.1 0 .1-.1v.1-.1.1c0-.1.1-.2.1-.3zM65 5zM60.6 5.8z"/></g><g><path class="st1" d="M77.6 5.9V6zM77.5 6.2l.1-.3c.1-.2-.1.4-.1.3zM77.5 6.1v0zM76.7 6z"/><path class="st1" d="M76.4 6.6v.1c.1-.2.1 0 .1-.1.1.1.2-.1.4-.2v.1c0 .2.1-.1.1 0v-.2c.1 0 .2-.1.3-.2v.2c.2-.3.2-.2.3-.1V6c0-.1-.1.2-.1 0v-.1c0-.1-.1.2 0 .1v-.1s-.1-.1-.1.2v-.2c0 .1 0 .1-.1.2-.1-.1-.3 0-.4 0-.1.4-.1-.1-.2 0 0 .1-.1.1-.1.1l-.1.2c-.1-.4-.3-.2-.4-.3-.2-.1-.3-.4-.5 0V6c-.1.1-.1-.1-.1 0-.2.3-.2-.1-.4.2-.1-.1-.3-.1-.5 0v-.1c-.1.1-.2-.3-.3-.2-.1-.2-.3.4-.4.1 0-.4-.2.4-.2 0 0-.6-.3-.3-.4.1-.1-.2-.3.3-.4-.2-.1.3-.1-.4-.2-.3v.1c0-.3-.1.4-.1 0 0-.2-.1.5-.1.2v-.1.1c.1-.4-.1.1 0-.4v-.3c0-.1 0 0-.1.2 0 .2-.1.4-.1.6v-.2V6.4c0-.2 0-.1 0 0v.1c0 .2.1-.4 0 0l.1-.1c0-.1 0 0 .1-.2v.3s0 .1 0 0c0 .3.1-.3 0 .1.1-.3 0 .1.1-.2v.2s.1.1.1.2c.1-.3.1.1.1-.2 0 .1 0 .2.1.1 0 0 .1 0 .1-.2v.4c0-.2.1-.1.1-.2v.2c.2-.4.3-.2.3.1 0-.1.1-.4.1-.6v.4c0-.1 0 .2.1 0v.1-.1.2c.1.1.4-.3.5-.2v.1l.1-.1v.1c0 .1.1-.1.1 0v.2c.1-.2 0 .3.1-.1v.2c.1-.1.2-.1.3 0 .1-.4.2 0 .3-.3V7c.1-.3.2.1.3 0h.1v.1c.1-.4.1.4.2 0v.1c.1-.2 0 .1.1-.3V7c.1-.4 0 .2.2-.1V7c0-.1.1-.1.1 0v.1c0 .3.1 0 .2 0v.2c.1-.2.1 0 .1-.1v.1-.1.1c-.1-.6 0-.7.1-.7zM76.8 6.5zM72.4 6.4z"/></g><g><path class="st1" d="M89 9.9h.1l-.1.1z"/><path class="st1" d="M88.9 10.2l.1-.3c.1-.2-.2.4-.1.3zM88.9 10.1c0-.1 0 .1-.1.1.1-.1 0 .1.1-.1zM88.1 9.9z"/><path class="st1" d="M87.7 10.3l-.1.1c.1-.2.1 0 .2 0 .1.1.3-.1.4-.1v.1l.1-.1v.1c-.1.2.1-.1.1.1 0 0 .1-.1.1-.2.1 0 .2 0 .4-.1 0 0 0 .1-.1.2.2-.3.2-.1.3-.1 0-.1 0-.1.1-.2 0-.1-.1.2-.1 0V10c0-.1-.1.2-.1.1s.1-.1.1-.1 0-.1-.2.1c.1-.2 0 0 0-.2 0 .1 0 0-.1.2-.1-.1-.3 0-.4-.1-.2.3-.1-.1-.2 0-.2 0-.2 0-.2-.1l-.1.1c0-.4-.3-.2-.3-.4-.1-.2-.2-.5-.5-.1v-.1c-.1.1-.1-.1-.1 0-.2.2-.2-.1-.5.1-.1-.1-.3-.1-.4-.1v-.1c-.2.1-.1-.3-.3-.2 0-.2-.4.3-.4 0 .1-.4-.3.3-.2-.1.1-.6-.2-.3-.5 0-.1-.2-.4.2-.3-.2-.2.2 0-.4-.1-.3v.1c0-.2-.3.4-.2 0l-.1.2v-.1s-.1.2-.1.1c.1-.4-.1.1.1-.4 0 0 .1-.2.1-.3l-.1.2c-.1.2-.2.4-.2.5l.1-.1c-.1.2 0 .1-.1.2 0 0-.1.2-.1.3.1-.2 0-.1 0 0v.1c-.1.2.1-.3 0 0 .1-.1.1 0 .2 0 0-.1 0 0 .1-.2 0 .2 0 .3.1.3-.1.3.1-.3 0 .1.1-.3 0 .1.1-.2 0 .1 0 .1-.1.2 0 0 0 .1.1.2.1-.2 0 .1.2-.2 0 .1 0 .2.1.1 0 0 .1 0 .2-.2-.1.3-.1.3-.1.4l.2-.2c-.1.2.1-.1 0 .2.3-.4.3-.2.3.2.1-.1.2-.4.3-.5v.4c.1-.1 0 .2.1 0v.1-.1c0 .1-.1.2-.1.2.1.1.4-.2.6 0v.1l.1-.1v.1c0 .1.1 0 .1 0s0 .1-.1.1c.1-.2-.1.3.1-.1 0 0 0 .1-.1.1.1-.1.2-.1.3 0 .2-.3.2 0 .3-.2v.1c.2-.2.2.1.3.1h.1v.1c.2-.3 0 .4.2 0l-.3-.2c.1-.2 0 .1.1-.2v.1c.2-.4 0 .2.2 0v.1c0-.1.1-.1.1 0v.1c-.1.3.1 0 .2 0l-.1.1c.1-.2.1 0 .1 0v.1l.1-.1-.1.1c-.1-.1 0-.2.1-.2zM88.1 10.3zM83.8 9.3z"/></g><g><path class="st1" d="M99.4 16.2v-.1.1zM99.2 16.4l.2-.2c.1-.2-.3.3-.2.2zM99.2 16.3c0-.1-.1.1-.1.1.1-.1 0 .1.1-.1zM98.5 15.9z"/><path class="st1" d="M98 16.3l-.1.1c.2-.2.1 0 .1-.1l.1.1c.1.1.3 0 .4 0v.1l.1-.1v.1c-.1.2.1-.1 0 .1l.1-.1c.1 0 .2 0 .4-.1 0 0 0 .1-.1.1.3-.2.3-.1.3 0 .1-.1.1-.1.1-.2.1-.1-.2.2-.1 0l.1-.1c0-.1-.1.2-.1.1s.1-.1.1-.1c-.1 0 0-.1-.2.1l.1-.2-.1.1c0-.2-.3-.1-.3-.1-.3.3-.1-.1-.2-.1-.1.1-.1.1-.1 0l-.1.1c.1-.4-.2-.3-.3-.5-.1-.2-.1-.5-.5-.2v-.1c-.1 0 0-.1-.1-.1-.3.2-.2-.2-.5 0-.1-.1-.2-.2-.4-.2v-.1c-.2.1-.1-.3-.2-.3 0-.2-.4.2-.4 0 .1-.4-.4.3-.2-.1.2-.6-.1-.3-.4-.1 0-.3-.4.1-.3-.3-.2.2.1-.4 0-.3v.1c.1-.3-.3.3 0-.1.1-.2-.3.4-.2.2l-.1.1.1-.1s-.1.2-.1.1c.2-.4-.1.1.2-.4 0 0 .1-.2.2-.2l-.1.1c-.1.2-.2.3-.3.5l.1-.1c-.1.1 0 .1-.1.2 0 0-.1.2-.2.3.1-.2.1-.1.1 0v.1c-.1.2.2-.3 0 0h.2c.1-.1 0 0 .1-.2-.1.2-.1.3-.1.3-.2.3.2-.3 0 .1.2-.3 0 .1.2-.2 0 .1-.1.1-.1.2v.2c.2-.2 0 .1.2-.1 0 .1-.1.2 0 .1 0 0 .1 0 .2-.2-.5.3-.5.2-.5.3l.2-.2c-.1.1.1 0-.1.2.3-.3.3-.1.2.2.1-.1.2-.3.4-.5 0 0-.1.2 0 .2v.1c.1-.1-.1.2 0 0v.1l.1-.1c0 .1-.1.2-.1.1.1.2.5-.1.6.1v.1l.1-.1v.1c0 .1.1 0 .1 0l-.1.1c.1-.2-.1.3.1-.1l-.1.1c.2-.1.2 0 .2.1.3-.3.1.1.4-.2v.1c.2-.2.2.1.3.1h.1l-.1.1c.3-.3-.1.4.2.1l-.1.2c.1-.2 0 .1.2-.2l-.1.1c.3-.4 0 .2.2 0l-.1.1c.1 0 .1-.1.1 0-.2.3.1 0 .1.1l-.1.1c.1-.1.1 0 .1 0v.1h.2-.2.2zM98.4 16.4zM94.4 14.5z"/></g><g><path class="st1" d="M108.3 24.4v-.1l-.1.1zM108.1 24.5c-.1 0-.1.1 0 0l.2-.2-.2.2z"/><path class="st1" d="M108.1 24.5c.1-.1-.1 0-.1.1l.1-.1zM107.4 23.9s.1 0 0 0c.1 0 .1 0 0 0zM106.9 24.2c.1 0 0 .2.1.1 0 .1.3 0 .4 0h-.1l.1-.1h-.1c-.1.2.2 0 0 .1l.1-.1c.1 0 .2.1.4 0l-.1.1c.3-.2.3 0 .3.1l.1-.1c.1-.1-.2.1-.1 0l.1-.1c0-.1-.2.2-.1.1l.1-.1c-.1 0 0-.1-.2 0 .1-.1 0 0 .1-.2-.1 0-.1 0-.2.1 0-.2-.2-.1-.3-.2-.3.2 0-.1-.2-.1-.1 0-.1.1-.1 0l-.1.1c.1-.3-.1-.3-.2-.5s0-.5-.5-.3h.1c-.1 0 0-.1-.1-.1-.3.1-.1-.2-.5-.1-.1-.1-.2-.2-.4-.3l.1-.1c-.2 0 0-.3-.2-.3 0-.2-.5.1-.4-.1.2-.3-.4.2-.2-.1.3-.5-.1-.4-.4-.2 0-.2-.4 0-.2-.4-.2.2.1-.3 0-.3l-.1.1c.2-.2-.3.2 0-.1.1-.2-.4.3-.2.2l-.1.1.1-.1-.1.1c.3-.3-.1 0 .2-.3l.2-.2-.1.1-.4.4.1-.1-.1.1s-.2.2-.2.3c.1-.1.1 0 .1 0l-.1.1c-.1.1.3-.2 0 0h.2c.1-.1 0 0 .2-.1-.2.2-.2.3-.2.3-.2.3.2-.2 0 .1.2-.2 0 .1.2-.1l-.1.1v.2c.2-.2 0 .1.2-.1 0 .1-.1.2 0 .1 0 0 .1 0 .3-.1-.2.3-.2.2-.2.3.1-.1.1 0 .3-.1-.1.1.1 0-.1.1.4-.2.4 0 .2.3l.4-.4s-.1.2-.1.1l-.1.1c.1-.1-.1.2 0 0l.1-.1-.1.1c.1.2.5 0 .5.2h-.1l.1-.1-.1.1c-.1.1.1 0 .1.1l-.1.1c.2-.1-.2.2.2-.1l-.1.1c.2 0 .2 0 .2.1.3-.2.1.1.4-.1l-.1.1c.3-.1.1.2.2.2 0 .1.1 0 .1 0l-.1.1c.3-.2-.1.3.2.1l-.1.1c.2-.1 0 .1.2-.2l-.1.1c.4-.3-.1.2.2 0l-.1.1c.1 0 .1-.1.1 0-.2.3.1.1.1.1l-.1.1c.2-.1.1 0 .1 0h-.1l.1-.1-.1.1c.4.4.5.3.6.4zM107.3 24.4zM103.7 21.7z"/></g><g><path class="st1" d="M115.4 34.2v-.1l-.1.1z"/><path class="st1" d="M115.1 34.3l.3-.1c.1-.2-.4.1-.3.1zM115.1 34.2c.1 0-.1 0-.1.1l.1-.1zM114.6 33.6z"/><path class="st1" d="M114 33.7l-.1.1c.2-.1 0 .1.2.1 0 .1.3.1.4.1h-.1s.1-.1.1 0h-.1c-.2.1.2 0 0 .1 0 0 .1-.1.2-.1s.2.1.4.1c0 0-.1 0-.1.1.3-.1.3 0 .3.1.1 0 .1-.1.2-.1.1-.1-.2.1-.1 0h.1s-.2.1-.1 0c.1 0 .1-.1.1-.1-.1 0 0-.1-.2 0 .2-.1 0 0 .1-.1-.1 0-.1 0-.2.1 0-.2-.2-.2-.3-.3-.4.1 0-.1-.2-.1h-.1l-.2.1c.2-.3-.1-.3-.1-.5s.1-.5-.4-.4h.1c-.1 0 0-.1-.1-.1-.3.1-.1-.2-.4-.1 0-.1-.2-.3-.3-.3h.1c-.2 0 .1-.3-.1-.4.1-.2-.5 0-.4-.2.3-.3-.4.1-.2-.2.4-.4 0-.4-.3-.3.1-.2-.4 0-.1-.4-.3.1.2-.3.1-.3l-.1.1c.2-.2-.4.2 0-.1.2-.1-.4.3-.2.1l-.1.1.1-.1s-.2.1-.1.1c.4-.2-.1 0 .3-.3l.2-.2-.2.1c-.2.1-.3.2-.5.3l.1-.1c-.1.1-.1 0-.2.1 0 0-.2.2-.3.2.2-.1.1 0 .1 0l-.1.1c-.2.1.3-.2 0 0 .1 0 .1 0 .1.1.1-.1 0 0 .2-.1l-.2.2c-.3.2.3-.2-.1.1.2-.2-.1.1.2-.1-.1 0-.1.1-.1.1v.2c.2-.1-.1.1.3-.1-.1.1-.2.2 0 .1 0 0 .1 0 .3-.1-.3.2-.2.2-.3.3.1-.1.1 0 .3-.1-.1.1.1 0-.1.1.4-.2.4 0 .1.3.1-.1.4-.2.5-.3l-.1.1h-.1c.1 0-.1.1 0 .1h-.1.1c-.1 0-.2.1-.1.1 0 .2.5.1.5.3h-.1 0c-.1.1.1 0 .1.1l-.1.1c.2-.1-.2.2.2 0l-.1.1c.2 0 .2.1.2.2.4-.2.1.1.4 0h-.1c.3-.1.1.2.2.2 0 .1.1 0 .1.1l-.1.1c.4-.1-.2.3.2.1l-.1.1c.2-.1 0 .1.3-.1l-.1.1c.4-.2-.1.2.2.1h-.1 0c-.3.2.1.1.1.1l-.1.1c.2-.1.1.1.1 0h-.1.1l-.1.1c.1-.1.3-.1.3-.1zM114.4 34zM111.4 30.7z"/></g><g><path class="st1" d="M120.3 45.2h.1-.1zM120.1 45.2c-.1 0-.1.1 0 0l.3-.1c.1 0-.5.2-.3.1z"/><path class="st1" d="M120.1 45.2h-.1c.1 0-.1.1.1 0zM119.7 44.5z"/><path class="st1" d="M119.1 44.5h-.1c.2 0 0 .1.1.1 0 .1.2.1.4.2h-.1 0c-.2.1.2 0 0 .1 0 0 .1 0 .2-.1.1.1.2.1.3.2 0 0-.1 0-.2.1.4 0 .3.1.2.2.1 0 .1 0 .2-.1s-.2 0-.1 0h.1s-.2.1-.1 0h.1s0-.1-.2 0l.2-.1h-.2c.1-.1-.2-.2-.2-.3-.4.1 0-.1-.1-.2H119.3c.3-.3 0-.3.1-.5 0-.2.2-.4-.3-.4h.1c-.1 0 0-.1-.1-.1-.3 0 0-.2-.4-.2 0-.1-.1-.3-.2-.4h.1c-.2-.1.1-.3 0-.4.1-.2-.5-.1-.3-.3.3-.2-.5 0-.1-.2.5-.4.1-.3-.3-.4.1-.2-.4-.1-.1-.4-.3 0 .3-.3.2-.3h-.1c.3-.1-.4.1 0-.1.2-.1-.5.2-.2.1h-.1s.1 0 .1-.1c0 0-.2.1-.1 0 .4-.2-.1 0 .3-.2 0 0 .2-.1.3-.1h-.2c-.2.1-.4.2-.5.2l.1-.1c-.1.1-.1 0-.2.1 0 0-.2.1-.3.2.2-.1.1 0 .1 0h-.1c-.2.1.3-.1 0 0 .1 0 .1.1.1.1.1 0 0 0 .2-.1-.2.1-.3.2-.3.2-.3.2.3-.1-.1.1.3-.1-.1.1.3 0-.1 0-.1.1-.2.1 0 0-.1.1-.1.2.3-.1-.1.1.3 0-.1.1-.2.1 0 .1 0 0 .1.1.3 0-.3.1-.2.1-.3.2h.3c-.1.1.1 0-.1.1.4-.1.3.1.1.3.1 0 .4-.1.5-.2h-.1s-.2.1-.1.1h-.1c.1 0-.2.1 0 .1h-.1.1c-.1 0-.2.1-.2.1 0 .2.4.2.4.4h-.1 0c-.1.1.1 0 .1.1 0 0-.1 0-.1.1.2 0-.2.1.2 0 0 0-.1 0-.1.1.2 0 .2.1.2.2.4-.1.1.1.4.1h-.1c.3 0 .1.2.1.3 0 0 .1 0 .1.1h-.1c.4-.1-.3.3.1.2h-.1c.2-.1-.1.1.3-.1h-.1c.5-.1-.2.2.1.1h-.1 0c-.3.2.1.1.1.1h-.1c.2 0 0 .1.1.1h-.1.1-.1c.1.2.3.2.3.3zM119.4 44.8zM117.1 41z"/></g><g><path class="st1" d="M123 57h-.1zM122.7 57c-.1 0-.1 0 0 0h0zM122.7 57h-.1.1zM122.5 56.2zM121.9 56h-.1c.2 0 0 .1.1.1 0 .1.2.2.3.3h-.1 0c-.2.1.1 0 0 .1h.2c.1.1.1.2.3.2h-.2c.4 0 .2.1.2.2h.2c.1 0-.2 0-.1-.1h.1s0-.1-.2-.1c.2 0 0 0 .2-.1h-.2c.1-.1-.1-.2-.1-.3-.4 0 .1-.1-.1-.2-.1 0-.1 0-.1-.1h-.2c.3-.2 0-.3.2-.5.1-.2.3-.4-.2-.5h.1c-.1 0 0-.1 0-.1-.3-.1 0-.3-.4-.3 0-.1 0-.3-.2-.4h.1c-.2-.1.2-.3.1-.4.2-.2-.5-.2-.3-.3.4-.1-.4-.1-.1-.2.5-.3.2-.3-.2-.4.2-.2-.4-.2 0-.4-.3 0 .3-.2.2-.2h-.1c.3-.1-.4 0 0-.1.2-.1-.5.1-.3 0h-.1.1c.4-.1-.1 0 .4-.1 0 0 .2-.1.3-.1h-.2c-.2 0-.4.1-.6.1h.2-.2s-.2.1-.3.1h.1-.1c-.2 0 .4 0 0 0 .1 0 .1.1.1.1h.2l-.3.1s-.1 0 0 0c-.3.1.3 0-.1.1.3-.1-.1.1.3 0h-.2l-.1.1c.3 0-.1.1.3.1-.1 0-.2.1-.1.1 0 0 .1.1.3.1-.3.1-.3.1-.4.1.2 0 .1 0 .3.1-.2 0 .1 0-.2.1.5 0 .3.2 0 .3.1 0 .4 0 .6-.1h-.1s-.2.1-.1.1h-.1c.1 0-.2.1 0 .1h-.1.1-.2c0 .2.4.3.3.5h-.1 0c-.1.1.1.1.1.1h-.2c.2 0-.3.1.2 0h-.2c.2.1.2.1.1.2.4 0 .1.1.4.2h-.1c.3.1 0 .2.1.3l.1.1h-.1c.4 0-.3.2.1.2h-.1c.2 0-.1.1.3 0h-.1c.5 0-.2.1.1.1h-.1c.1 0 .1 0 0 0h-.1c-.3.1.1.1 0 .2h-.2c.2 0 0 .1.1.1h-.1.1-.1c.4.4.6.4.6.4zM122.1 56.5zM120.7 52.2z"/></g><g><path class="st2" d="M48.9 73.3c-.6-.4-1.3-.6-2.2-.6-.4 0-.7 0-1.1.1-.4.1-.7.2-.9.4-.3.2-.5.4-.7.7-.2.3-.2.6-.2 1.1 0 .4.1.7.4 1 .2.2.6.5.9.6.4.2.8.3 1.3.4l1.5.3c.5.1 1 .3 1.5.4.5.2.9.4 1.3.7.4.3.7.6.9 1.1.2.4.4 1 .4 1.6 0 .7-.2 1.3-.5 1.8s-.7.9-1.2 1.2c-.5.3-1 .5-1.6.7-.6.1-1.2.2-1.8.2-.7 0-1.4-.1-2.1-.3-.6-.2-1.2-.5-1.7-.8-.5-.4-.9-.8-1.2-1.4-.3-.6-.4-1.3-.4-2h1.6c0 .5.1 1 .3 1.4.2.4.5.7.8 1 .3.3.7.4 1.2.6.5.1.9.2 1.4.2.4 0 .8 0 1.2-.1.4-.1.7-.2 1.1-.4.3-.2.6-.4.8-.7.2-.3.3-.7.3-1.2s-.1-.8-.4-1.1c-.2-.3-.6-.5-.9-.7-.4-.2-.8-.3-1.3-.4l-1.5-.3c-.5-.1-1-.2-1.5-.4s-.9-.4-1.3-.6c-.4-.2-.7-.6-.9-1-.2-.7-.4-1.2-.4-1.8 0-.7.1-1.2.4-1.7.3-.5.6-.9 1.1-1.2.4-.3.9-.5 1.5-.7.6-.2 1.1-.2 1.7-.2.7 0 1.3.1 1.9.2.6.2 1.1.4 1.5.7.4.3.8.8 1 1.3.2.5.4 1.1.4 1.8h-1.6c-.1-.8-.4-1.5-1-1.9zM59.9 76.7c-.4-.3-.9-.5-1.6-.5-.6 0-1 .1-1.4.3-.4.2-.7.5-.9.8-.2.3-.4.7-.5 1.2-.1.4-.1.9-.1 1.4 0 .4.1.9.2 1.3s.3.8.5 1.1c.2.3.5.6.9.8.4.2.8.3 1.3.3.8 0 1.4-.2 1.8-.6.4-.4.7-1 .8-1.7h1.6c-.2 1.2-.6 2.1-1.3 2.7-.7.6-1.6.9-2.9.9-.7 0-1.4-.1-1.9-.3-.6-.2-1-.6-1.4-1-.4-.4-.6-.9-.8-1.5-.2-.6-.3-1.2-.3-1.9s.1-1.4.3-2c.2-.6.5-1.1.8-1.6.4-.5.8-.8 1.4-1.1.6-.3 1.2-.4 1.9-.4.5 0 1 .1 1.5.2s.9.3 1.2.6c.4.3.7.6.9 1 .2.4.4.9.4 1.4h-1.6c-.1-.6-.4-1.1-.8-1.4zM70.8 84.5V83c-.3.6-.7 1-1.3 1.3-.5.3-1.1.4-1.8.4-.6 0-1.1-.1-1.5-.2-.4-.2-.7-.4-1-.7-.3-.3-.4-.7-.5-1.1-.1-.4-.2-.9-.2-1.4v-6.2H66v6.4c0 .6.2 1 .5 1.4.3.3.8.5 1.4.5.5 0 .9-.1 1.2-.2.3-.1.6-.4.9-.6.2-.3.4-.6.5-.9.1-.4.2-.7.2-1.2v-5.3h1.5v9.4h-1.4zM74 76.4V75h1.6v-1.4c0-.8.2-1.3.7-1.7.4-.4 1.1-.6 1.9-.6h.5c.2 0 .4.1.5.1v1.3c-.1 0-.3-.1-.4-.1h-.4c-.4 0-.7.1-.9.2-.2.1-.3.4-.3.8v1.3H79v1.4h-1.8v8h-1.5v-8H74zM79.7 76.4V75h1.6v-1.4c0-.8.2-1.3.7-1.7.4-.4 1.1-.6 1.9-.6h.5c.2 0 .4.1.5.1v1.3c-.1 0-.3-.1-.4-.1h-.4c-.4 0-.7.1-.9.2-.2.1-.3.4-.3.8v1.3h1.8v1.4h-1.8v8h-1.5v-8h-1.7zM31.1 89.7c1.2 0 2.2.3 2.9.9.7.6 1 1.4 1 2.5 0 .8-.2 1.5-.5 2.1-.4.6-.9 1-1.7 1.2.4.1.7.2.9.4l.6.6c.1.2.2.5.3.8.1.3.1.6.2.9 0 .3 0 .6.1 1 0 .3 0 .6.1 1 0 .3.1.6.2.9.1.3.2.5.4.8h-1.9c-.1-.1-.2-.3-.2-.5s-.1-.5-.1-.8v-.9c0-.3 0-.6-.1-1 0-.3-.1-.6-.2-.9-.1-.3-.2-.5-.3-.7-.2-.2-.4-.4-.6-.5-.3-.1-.6-.2-1-.2H27v5.6h-2v-13h6.1zm.4 5.9c.4-.1.7-.2 1-.4.3-.2.5-.4.7-.7.2-.3.2-.7.2-1.2 0-.7-.2-1.2-.5-1.6-.4-.4-1-.6-1.8-.6h-4.3v4.5h3.6c.3.1.7.1 1.1 0zM44.2 102.1c-.7.5-1.6.8-2.7.8-.8 0-1.4-.1-2-.4-.6-.2-1-.6-1.4-1-.4-.4-.7-1-.8-1.6-.2-.6-.3-1.3-.3-2s.1-1.4.3-2c.2-.6.5-1.1.9-1.5.4-.4.9-.8 1.4-1 .5-.2 1.1-.4 1.8-.4.8 0 1.5.2 2.1.5.6.3 1 .8 1.3 1.3.3.5.6 1.1.7 1.7.1.6.2 1.2.2 1.8h-7c0 .4 0 .8.1 1.2.1.4.3.7.5 1 .2.3.6.5.9.7.4.2.8.3 1.3.3.7 0 1.2-.2 1.6-.5.4-.3.7-.8.8-1.4h1.5c0 1.2-.5 2-1.2 2.5zm-.4-6c-.1-.3-.3-.6-.6-.8-.2-.2-.5-.4-.8-.6-.3-.1-.7-.2-1.1-.2-.4 0-.8.1-1.1.2-.3.1-.6.3-.8.6-.2.2-.4.5-.5.8-.1.3-.2.7-.2 1h5.4c0-.4-.1-.7-.3-1zM48.9 100.6c.1.2.3.4.6.6.2.1.5.2.8.3.3.1.6.1.9.1.2 0 .5 0 .8-.1.3 0 .5-.1.7-.2.2-.1.4-.2.6-.4.1-.2.2-.4.2-.7 0-.4-.2-.7-.5-.9-.3-.2-.7-.4-1.1-.5l-1.5-.3c-.5-.1-1-.2-1.5-.4s-.8-.5-1.1-.8c-.3-.3-.5-.8-.5-1.4 0-.5.1-.9.3-1.2.2-.3.5-.6.8-.8.3-.2.7-.4 1.1-.5.4-.1.8-.2 1.2-.2.5 0 1 0 1.5.1.4.1.8.2 1.2.5.3.2.6.5.8.9.2.4.3.9.4 1.4h-1.5c0-.3-.1-.6-.2-.8-.1-.2-.3-.4-.5-.5-.2-.1-.4-.2-.7-.3-.2-.1-.5-.1-.8-.1-.2 0-.5 0-.7.1-.2 0-.5.1-.6.2-.2.1-.4.2-.5.4-.1.2-.2.4-.2.6 0 .3.1.5.3.7.2.2.4.3.7.4.3.1.6.2 1 .3.4.1.7.2 1.1.2.4.1.8.2 1.1.3.4.1.7.3 1 .5.3.2.5.5.7.8.2.3.3.7.3 1.1 0 .6-.1 1-.4 1.4-.2.4-.5.7-.9.9-.4.2-.8.4-1.3.5-.5.1-1 .1-1.4.1-.5 0-1-.1-1.5-.2s-.9-.3-1.3-.5-.7-.6-.9-1c-.2-.4-.3-.9-.4-1.5h1.5c.2.4.2.7.4.9zM57.3 91.6v-1.9h1.5v1.9h-1.5zm1.5 1.7v9.4h-1.5v-9.4h1.5zM62.8 100.6c.1.2.3.4.6.6.2.1.5.2.8.3.3.1.6.1.9.1.2 0 .5 0 .8-.1.3 0 .5-.1.7-.2.2-.1.4-.2.6-.4.1-.2.2-.4.2-.7 0-.4-.2-.7-.5-.9-.3-.2-.7-.4-1.1-.5l-1.5-.3c-.5-.1-1-.2-1.5-.4s-.8-.5-1.1-.8c-.3-.3-.5-.8-.5-1.4 0-.5.1-.9.3-1.2.2-.3.5-.6.8-.8.3-.2.7-.4 1.1-.5.4-.1.8-.2 1.2-.2.5 0 1 0 1.5.1.4.1.8.2 1.2.5.3.2.6.5.8.9.2.4.3.9.4 1.4H67c0-.3-.1-.6-.2-.8-.1-.2-.3-.4-.5-.5-.2-.1-.4-.2-.7-.3-.2-.1-.5-.1-.8-.1-.2 0-.5 0-.7.1-.2 0-.5.1-.6.2-.2.1-.4.2-.5.4-.1.2-.2.4-.2.6 0 .3.1.5.3.7.2.2.4.3.7.4.3.1.6.2 1 .3.4.1.7.2 1.1.2.4.1.8.2 1.1.3.4.1.7.3 1 .5.3.2.5.5.7.8.2.3.3.7.3 1.1 0 .6-.1 1-.4 1.4-.2.4-.5.7-.9.9-.4.2-.8.4-1.3.5-.5.1-1 .1-1.4.1-.5 0-1-.1-1.5-.2s-.9-.3-1.3-.5-.7-.6-.9-1c-.2-.4-.3-.9-.4-1.5h1.5c.1.4.2.7.4.9zM75.1 93.3v1.4h-1.9v6.2c0 .1.1.2.2.3.1.1.2.1.4.1H75.1v1.4h-1.2c-.4 0-.7 0-1-.1-.3-.1-.5-.2-.7-.3-.2-.1-.3-.4-.4-.6-.1-.3-.1-.6-.1-1.1v-6H70v-1.4h1.6v-2.8h1.5v2.8h2zM84.4 102.9c-.4 0-.7-.1-1-.3-.2-.2-.4-.6-.4-1.1-.4.5-.9.9-1.5 1.1-.6.2-1.2.3-1.8.3-.4 0-.8 0-1.2-.1-.4-.1-.7-.2-1-.5-.3-.2-.5-.5-.7-.8-.2-.3-.2-.7-.2-1.2s.1-1 .3-1.3c.2-.3.4-.6.7-.8.3-.2.6-.4 1-.5l1.2-.3c.4-.1.8-.1 1.2-.2.4 0 .7-.1 1-.2.3-.1.5-.2.7-.3.2-.2.3-.4.3-.7 0-.3-.1-.6-.2-.8-.1-.2-.3-.4-.5-.5-.2-.1-.4-.2-.7-.2-.2 0-.5-.1-.7-.1-.7 0-1.2.1-1.6.4-.4.2-.7.7-.7 1.4H77c0-.6.1-1.1.4-1.5.2-.4.5-.7.9-1 .4-.2.8-.4 1.3-.5.5-.1 1-.2 1.5-.2.4 0 .8 0 1.3.1.4.1.8.2 1.1.4.3.2.6.5.8.8.2.3.3.8.3 1.3v4.8c0 .4 0 .6.1.8 0 .2.2.3.4.3.1 0 .3 0 .5-.1v1.2c-.4.2-.8.3-1.2.3zm-2.2-4.7c-.3.1-.6.1-1 .2-.3 0-.7.1-1 .1-.4.1-.7.1-.9.3-.3.1-.5.3-.7.5-.2.2-.3.5-.3.9 0 .3.1.5.2.6.1.2.2.3.4.4.2.1.4.2.6.2.2 0 .5.1.7.1.5 0 .9-.1 1.3-.2s.7-.3.9-.5c.2-.2.4-.4.5-.7.1-.2.2-.5.2-.7v-1.6c-.3.2-.6.3-.9.4zM88.7 93.3v1.5c.6-1.1 1.7-1.7 3.1-1.7.6 0 1.1.1 1.5.3.4.2.7.4 1 .7.3.3.4.7.5 1.1.1.4.2.9.2 1.4v6.2h-1.5v-6.4c0-.6-.2-1-.5-1.4-.3-.3-.8-.5-1.4-.5-.5 0-.9.1-1.2.2-.3.1-.6.4-.9.6-.2.3-.4.6-.5.9-.1.4-.2.7-.2 1.2v5.3h-1.5v-9.4h1.4zM101.8 93.3v1.4h-1.9v6.2c0 .1.1.2.2.3.1.1.2.1.4.1H101.8v1.4h-1.2c-.4 0-.7 0-1-.1-.3-.1-.5-.2-.7-.3-.2-.1-.3-.4-.4-.6-.1-.3-.1-.6-.1-1.1v-6h-1.6v-1.4h1.6v-2.8h1.5v2.8h1.9z"/></g><g><path class="st3" d="M99 39.6v-.1l-.1-.2zM98.7 38.5l.3.7c.1-.3-.4-.5-.3-.7zM98.7 38.3c.1-.2-.1-.3-.1-.4.1.1 0 .5.1.4zM87.8 21.2z"/><path class="st3" d="M82.5 19.7c.4.1 1 .2 1.5.4l1.5.6h-.1c2.5 1.1 4.7 2.3 6.7 4.1H92c.1.1.3.1.4.2h-.1c.3.5 1.2 1.2 1.4 1.5.1.1.2.1.2 0 1.4 1.6 2.6 3.6 3.5 5.6 0 .1 0 .1-.1.1 1 1.6 1.3 3.7 1.4 5.6.1.1.1-.2.2 0 .1-.6-.3-1.1-.3-1.7l.1.1c0-.4-.2-.1-.2-.5 0-.2.1 0 .1-.1-.2-.8-.4-1.8-.8-2.5.1-.2-.3-.9-.3-1.2-.1-.2-.2-.4-.3-.4-1.1-2.8-3.1-5.3-5.4-7.4-1.2-.8-2.5-2-4-2.8-.5-.2-1.3-.5-1.9-.8l-.6-.1c-3.7-1.7-8-1.9-12-1.1-2.3.4-4.4 1.2-6.3 2.3-1 .5-1.8 1.2-2.7 1.9-.8.8-1.6 1.5-2.2 2.5 0 0-.1 0 0-.1l-1.2 1.5-.6.7c-.2.3-.3.5-.5.8-1.4 2.7-2.7 5.8-2.7 8.8-.4 3.5.2 7.6 2 11H59c1.4 2.6 2.9 5.2 5.3 7.1 2.3 2.1 5.5 3.2 8.4 4.1.2.1.5.2.7.3.3.1.5.1.8.1.5.1 1.1.1 1.6.1h3.1c3.8.3 7.3-1.3 10.2-3.6 1.4-.9 2.7-2 3.8-3.4.6-.6 1-1.3 1.5-2s.9-1.4 1.4-2c.2-.8.7-1.4 1-2.2l.6-1.2c.1-.4.3-.8.4-1.3h-.1c.4-.6 0-1.4.4-1.7v.1c.2-.3-.3-.8-.1-1v-.3c0-.4.1 0 .2-.3 0-.1-.2-.1-.1-.3.4 0 0-1 .4-1 0 .2.2-.3.2.2 0-.1.1-.8-.1-.8-.2-.1-.3-.3-.5.1l.1.1c-.1.1-.1.1-.2.1 0 .5-.2.6-.3 1 .1.3 0 .6 0 .8l-.1.1c-.2.1.2.6 0 .4-.1.5-.1 1.1-.2 1.7-.1.6-.3 1.1-.4 1.7 0 .2-.3.8 0 .7-.3.2-.6 1-.8 1.3v-.1c-.5.4-.1.8-.7 1.2.1.1 0 .3-.2.6-.2.2-.3.5-.3.7h-.2c-.5.9-1.3 1.8-1.9 2.5-.4.7-1.3 1.3-1.6 1.9-.2.2-.5.4-.8.6-.3.2-.7.5-.9.7v-.1c-.7.6-1.6 1.1-2 1.6-.4-.1-.7.1-1 .2-.2.2-.6.4-1 .6-.4.2-.9.4-1.3.6-.2-.1-.7.3-.8.1-2.2 1.1-5.5 1.3-8 .7-.3.1-.8.2-1.1.3 0 0 0-.1.1 0-.2 0-.5-.1-.7-.2-.2-.1-.4-.2-.7-.2h.1c-.5 0-.9-.4-1.4-.4v-.1h-.3c0-.1.1-.1.2-.1-2-.7-3.8-1.6-5.6-2.8-1.8-1.2-3.4-2.7-4.6-4.4l.1.1-.6-.7h.1c-.5-1-1.2-1.8-1.6-2.8 0 0 .2.1.1 0-.5-.6-.3-1.2-.7-1.4 0 0 .1-.1.1 0-.5-1-.7-2-1-3-.2-1.1-.3-2.1-.3-3.2-.2-.9-.1-1.8-.1-2.8 0-.5.1-.9.2-1.4 0-.5.1-.9.2-1.4h.1c.3-2.4 1.6-4.7 3-6.8.7-.8 1-1.5 1.7-2.2h.1c.5-.8 1.2-1.3 2-1.9.4-.3.8-.5 1.2-.8.2-.1.4-.3.5-.4.2-.1.4-.3.5-.4v.2c.2-.3 1-.5.7-.7l.3-.1c.5-.5 1-.7 1.6-.9.6-.2 1.2-.3 1.9-.7l-.1.1c.4-.2.8-.3 1.1-.4l-.1.1c.7 0 1.3-.2 2-.3.7-.1 1.3-.4 2-.3l-.1.1c.6-.2 1.8-.1 2.7-.1l-.1.1.4-.1v.1c.6 0 1.1.1 1.6.1.4-.1 1-.1 1.5.1zM92.3 24.9zM97.7 41v-.1.1z"/><g><path class="st3" d="M99.4 39.5V39.2zM99.3 38.4l.1.7c0-.3-.1-.5-.1-.7zM99.3 38.2v-.4.4zM88.6 21.3zM83.4 19.5c.4.1 1 .2 1.5.4l1.5.6h-.1c2.5 1 4.7 2.4 6.6 4.3 0 0-.1 0-.1-.1l.3.3H93c.4.4 1.2 1.2 1.4 1.5l.1.1c1.4 1.6 2.5 3.6 3.3 5.6v.1c.8 1.7 1.1 3.6 1.3 5.5 0 .1 0-.2 0 0 0-.6-.2-1.1-.2-1.7v.1c-.1-.4-.1-.1-.1-.5 0-.2 0 0 0 0-.2-.8-.4-1.7-.7-2.5 0-.2-.3-.9-.4-1.2-.1-.2-.2-.4-.2-.5-1.2-2.8-3-5.3-5.3-7.3-1.1-.9-2.5-2-3.9-2.8-.5-.2-1.2-.6-1.8-.9l-.5-.2c-3.7-1.5-7.9-1.8-11.9-1-2.3.5-4.3 1.3-6.1 2.4-.9.5-1.8 1.2-2.6 1.8-.8.7-1.6 1.5-2.3 2.3v-.1l-1.2 1.5-.3.8c-.2.3-.3.5-.5.8-1.5 2.6-2.7 5.7-2.9 8.6-.3 3.5.2 7.6 1.9 10.9 1.3 2.7 3.1 5.1 5.4 7 2.3 2 5.4 3.4 8.3 4.2 1.8.5 4.4.6 6.2.5 3.7-.1 7.2-1.4 10.2-3.5 2.8-1.9 5.1-4.6 6.7-7.4.3-.7.7-1.4 1-2.2.2-.4.3-.8.5-1.2l.3-1.3v.1c.2-.6.2-1.4.4-1.7v.1c.1-.3 0-.8.1-1v-.1c0-.4 0 0 .1-.4v-.3c.1 0 0-1 .1-1 0 .2.1-.3 0 .2v-.8c0-.1-.1-.3-.1.1V39.9c0 .5-.1.6-.1 1v.9c-.1.1 0 .6-.1.4-.1.5-.1 1.1-.3 1.7-.1.6-.3 1.2-.4 1.7 0 .2-.3.9-.2.6-.2.3-.5 1.1-.6 1.4v-.1c-.3.6-.3.7-.6 1.2 0 .1-.1.3-.3.6-.2.3-.3.5-.4.7 0 .1-.1.1-.1 0-.5.9-1.3 1.9-1.9 2.6-.5.6-1.3 1.4-1.8 1.9-.2.2-.5.4-.8.7-.3.2-.6.5-1 .7l.1-.1c-.7.6-1.6 1.1-2.1 1.5-.2.1-.6.3-.9.4-.3.1-.7.3-1.1.6-.4.2-.9.4-1.4.5-.1 0-.7.3-.8.2-2.4.8-5.6 1.1-8.2.7-.3 0-.8 0-1.1-.1-.2 0-.5-.1-.7-.1-.2-.1-.5-.1-.7-.2h.1c-.4-.1-.9-.3-1.4-.4l-.3-.1h.2c-2-.6-3.9-1.6-5.7-2.9-1.8-1.2-3.3-2.8-4.6-4.6l.1.1-.5-.7.1.1c-.5-.9-1.2-1.8-1.6-2.8 0 0 .1.1 0 0-.4-.7-.5-1.1-.7-1.5 0 0 0-.1 0 0-.4-1-.7-2.1-.9-3.1-.2-1.1-.4-2.2-.4-3.2-.1-.9 0-1.9 0-2.8 0-.5.1-1 .2-1.4.1-.5.1-.9.3-1.4.5-2.4 1.6-4.8 3-6.8.6-.8 1-1.4 1.7-2.2.5-.7 1.3-1.3 2-1.9.4-.3.8-.6 1.1-.8l.6-.4.6-.4-.1.1c.2-.2 1-.6.8-.6l.3-.2c.5-.3 1.1-.6 1.6-.8.6-.2 1.2-.4 1.9-.7h-.1c.4-.2.8-.3 1.1-.3h-.1c1.2-.3 2.6-.6 4-.7h-.2c.6-.1 1.8-.1 2.7 0h-.1.4c.6 0 1.1.1 1.6.2.9.2 1.4.2 1.9.4zM93.2 24.9c0-.1 0-.1 0 0zM99.1 40.9v-.1.1z"/></g><g><defs><circle id="SVGID_1_" cx="78.1" cy="39.2" r="20.7"/></defs><clipPath id="SVGID_2_"><use xlink:href="#SVGID_1_" overflow="visible"/></clipPath><g class="st4"><path class="st3" d="M95.7 57.4zM95.9 57.1c-.1 0-.1 0 0 0l-.1.3c.1-.1 0-.3.1-.3zM95.9 57c.1-.1.1-.1 0-.1.1 0-.1.1 0 .1zM100.4 50.8z"/><path class="st3" d="M99.4 49c.2.3.2.7.4 1.1.1.3.3.7.4.9-.3.5-.7 1-1 1.5 0 0 0 .1-.1.1-.2.1-.3.5-.5.6v.1c-.5.6-.9 1.3-1.4 2h-.1c-.3.6-.8 1.1-1.2 1.7h.1c.2-.1.2-.4.4-.5.1-.1 0-.1.1-.2.1 0 0 0 0 0 .2-.3.4-.5.5-.8.1 0 .2-.3.3-.3 0-.1.1-.1.1-.2.7-.8 1.3-1.8 2-2.6.1-.2.2-.4.4-.6l.3-.3.1-.2.2-.2-.1-.3c-.1-.2-.2-.4-.3-.7l-.1-.2c-.4-1.4-1.1-2.7-1.6-4.1-.3-.8-.6-1.5-.9-2.3l-.7-.1-.6-.1c-.4 0-.8-.1-1.2-.1-.5 0-.9-.1-1.3-.2-1.1 0-2.3-.3-3.3-.3-.3 0-.5-.1-.8-.1-.7.9-1.4 1.8-2 2.7-.6.9-1.4 1.7-2 2.5-.3.3-.5.7-.8 1.1.3.7.7 1.3.9 2 .1.7.8 1.4.9 2.1.3 1.1.8 2.2 1.3 3.2h.5c1.2.2 2.5.2 3.7.5.6 0 1.2.3 1.8.3.2.1.5-.1.6.1.1.1.3-.1.4 0 .1 0 0 0 .1.1 0 0 0-.1.1 0 0 .2.4 0 .3.2-.1 0 .1.1-.1.1h.3c0-.1.1-.1 0-.2v0c-.2 0-.2-.1-.3-.2-.1.1-.2 0-.3 0 0-.1-.2.1-.2 0-.4 0-.8-.1-1.3-.1h-.3c-.1-.1-.4-.2-.5-.2-.2-.2-.3.1-.5-.1 0 .1-.4-.1-.5 0v-.1c-.4-.1-.8-.1-1.2-.2-.3.1-.7-.1-1 0-.2-.1-.5-.2-.8-.1H88h-.1c.1-.1 0-.2 0-.4-.1-.2-.3-.6-.5-.9 0-.1-.1-.2-.1-.3-.5-.8-.9-1.9-1.2-2.8l-.3-.3c-.1-.2-.1-.3-.2-.5-.1-.1-.1-.3-.2-.5l-.1-.1h.1l-.3-.7-.1-.6-.1-.2v-.1c.3-.4.6-.8.8-1.2.3-.4.6-.9 1-1.3v.1l.2-.3c.3-.3.5-.7.7-1 0 0 0 .1 0 0 .1-.3.4-.3.3-.5.4-.7.9-1.3 1.4-1.9 0-.1.1-.2.1-.2h.4l.4.1c.3 0 .6.1.9.1.9 0 1.8.2 2.7.3.4.1.6.1 1 .1.7 0 1.3.3 2 .2h-.1.4v.1c.3.4.2.8.6 1.3.1.1.2.3.2.4.1.5.4.9.6 1.4h-.1c.2.2.3.6.4.9l.1.1c.2.7.3 1 .5 1.4zM99.1 52.6c0-.1 0-.1 0 0zM95 56.9c0 .1 0 .1 0 0zM84.8 49.1V49z"/><path class="st3" d="M85 48.7s-.1 0 0 0l-.1.3c.1-.1 0-.2.1-.3zM85 48.7c.1-.1.1-.1 0-.1.1 0 0 .1 0 .1zM89.5 42.4z"/><path class="st3" d="M88.5 40.6c.2.3.2.7.4 1.1.1.3.3.7.4.9-.3.5-.7 1-1 1.5 0 0 0 .1-.1.1-.2.1-.3.5-.5.6v.1c-.5.6-.9 1.3-1.4 2h-.1c-.3.6-.8 1.1-1.2 1.7h.1c.2-.2.2-.4.4-.5.1-.1 0-.1.1-.2.1 0 0 0 0 0 .2-.3.4-.5.5-.8.1 0 .2-.3.3-.3 0-.1.1-.1.1-.2.7-.8 1.3-1.8 2-2.6.1-.2.2-.4.4-.6l.3-.3.1-.2.2-.2-.1-.3c-.1-.2-.2-.4-.3-.7l-.1-.1c-.4-1.4-1.1-2.7-1.6-4.1-.3-.8-.6-1.6-.9-2.3l-.7-.1-.6-.1c-.4 0-.8-.1-1.2-.1-.5 0-.9-.1-1.3-.2-1.1 0-2.3-.3-3.3-.3-.2 0-.5-.1-.8-.1-.7.9-1.4 1.8-2 2.7-.6.9-1.4 1.7-2 2.5-.3.3-.5.7-.8 1.1.3.7.7 1.3.9 2 .1.7.8 1.4.9 2.1.3 1.1.8 2.2 1.3 3.2h.5c1.2.2 2.5.2 3.7.5.6 0 1.2.3 1.8.3.2.1.5-.1.6.1.1.1.3-.1.4 0 .1 0 0 0 .1.1 0 0 0-.1.1 0 0 .2.4 0 .3.2-.1 0 .1.1-.1.1h.3c0-.1.1-.1 0-.2v0c-.2 0-.2-.1-.3-.2-.1.1-.2 0-.3 0 0-.1-.2.1-.2 0-.4 0-.8-.1-1.3-.1h-.3c-.1-.1-.4-.2-.5-.2-.2-.2-.3.1-.5-.1 0 .1-.4-.1-.5 0v-.1c-.4-.1-.8-.1-1.2-.2-.3.1-.7-.1-1 0-.2-.1-.5-.2-.8-.1H77.1 77c.1-.1 0-.2 0-.4-.1-.2-.3-.6-.5-.9 0-.1-.1-.2-.1-.3-.5-.8-.9-1.9-1.2-2.8l-.3-.3c-.1-.2-.1-.3-.2-.5-.1-.1-.1-.3-.2-.5l-.1-.1h.1l-.3-.7-.2-.4v-.5c.3-.4.6-.8.8-1.2.3-.4.6-.9 1-1.3v.1l.2-.3c.3-.3.5-.7.7-1 0 0 0 .1 0 0 .1-.3.4-.3.3-.5.4-.7.9-1.3 1.4-1.9 0-.1.1-.2.1-.2h.4l.4.1c.3 0 .6.1.9.1.9 0 1.8.2 2.7.3.4.1.6.1 1 .1.7-.1 1.3.3 2 .2h-.1.4v.1c.3.4.2.8.6 1.3.1.1.2.3.2.4.1.5.4.9.6 1.4h-.1c.2.2.3.6.4.9l.1.1c.2.6.3 1 .5 1.3zM88.2 44.2zM84.1 48.6zM82.8 62.7v-.1zM82.9 62.3l-.1.3c.2 0 .1-.2.1-.3zM83 62.3c.1-.1.1-.1 0-.1.1 0-.1.1 0 .1zM87.4 56c.1 0 0 0 0 0z"/><path class="st3" d="M86.5 54.3c.2.3.2.7.4 1.1.1.3.3.7.4.9-.3.5-.7 1-1 1.5 0 0 0 .1-.1.1-.2.1-.3.5-.5.6v.1c-.5.6-.9 1.3-1.4 2h-.1c-.3.6-.8 1.1-1.2 1.7h.1c.2-.2.2-.4.4-.5.1-.1 0-.1.1-.2.1 0 0 0 0 0 .2-.3.4-.5.5-.8.1 0 .2-.3.3-.3 0-.1.1-.1.1-.2.7-.8 1.3-1.8 2-2.6.1-.2.2-.4.4-.6l.3-.3.1-.2.2-.2-.1-.4c-.1-.2-.2-.4-.3-.7l-.1-.1c-.4-1.4-1.1-2.7-1.6-4.1-.3-.8-.6-1.6-.9-2.3l-.7-.1-.6-.1c-.4 0-.8-.1-1.2-.1-.5 0-.9-.1-1.3-.2-1.1 0-2.3-.3-3.3-.3-.3 0-.5-.1-.8-.1-.7.9-1.4 1.8-2 2.7-.6.9-1.4 1.7-2 2.5-.3.3-.5.7-.8 1.1.3.7.7 1.3.9 2 .1.7.8 1.4.9 2.1.3 1.1.8 2.2 1.3 3.2h.5c1.2.2 2.5.2 3.7.5.6 0 1.2.3 1.8.3.2.1.5-.1.6.1.1.1.3-.1.4 0 .1 0 0 0 .1.1 0 0 0-.1.1 0 0 .2.4 0 .3.2-.1 0 .1.1-.1.1h.3c0-.1.1-.1 0-.2v0c-.2 0-.2-.1-.3-.2-.1.1-.2 0-.3 0 0-.1-.2.1-.2 0-.4 0-.8-.1-1.3-.1h-.3c-.1-.1-.4-.2-.5-.2-.2-.2-.3.1-.5-.1 0 .1-.4-.1-.5 0v-.1c-.4-.1-.8-.1-1.2-.2-.3.1-.7-.1-1 0-.2-.1-.5-.2-.8-.1H75.1 75c.1-.1 0-.2 0-.4-.1-.2-.3-.6-.5-.9 0-.1-.1-.2-.1-.3-.5-.8-.9-1.9-1.2-2.8l-.3-.3c-.1-.2-.1-.3-.2-.5-.1-.1-.1-.3-.2-.5l-.1-.1h.1l-.3-.7-.2-.4v-.5c.3-.4.6-.8.8-1.2.3-.4.6-.9 1-1.3v.1l.2-.3c.3-.3.5-.7.7-1 0 0 0 .1 0 0 .1-.3.4-.3.3-.5.4-.7.9-1.3 1.4-1.9 0-.1.1-.2.1-.2h.4l.4.1c.3 0 .6.1.9.1.9 0 1.8.2 2.7.3.4.1.6.1 1 .1.7 0 1.3.3 2 .2l.1.3h.4v.1c.3.4.2.8.6 1.3.1.1.2.3.2.4.1.5.4.9.6 1.4h-.1c.2.2.3.6.4.9l.1.1c-.1.4.1.7.3 1.1zM86.2 57.8zM82.1 62.2zM93.6 71.1l.1-.1zM93.8 70.7l-.1.3c.1-.1 0-.3.1-.3zM93.8 70.6c.1-.1.1-.1 0-.1.1.1 0 .1 0 .1zM98.3 64.4z"/><path class="st3" d="M97.3 62.6c.2.3.2.7.4 1.1.1.3.3.7.4.9-.3.5-.7 1-1 1.5 0 0 0 .1-.1.1-.2.1-.3.5-.5.6v.1c-.5.6-.9 1.3-1.4 2H95c-.3.6-.8 1.1-1.2 1.7h.1c.2-.2.2-.4.4-.5.1-.1 0-.1.1-.2.1 0 0 0 0 0 .2-.3.4-.5.5-.8.1 0 .2-.3.3-.3 0-.1.1-.1.1-.2.7-.8 1.3-1.8 2-2.6.1-.2.2-.4.4-.6l.3-.3.1-.2.2-.2-.1-.3c-.1-.2-.2-.4-.3-.7l-.1-.2c-.4-1.4-1.1-2.7-1.6-4.1-.3-.8-.6-1.6-.9-2.3l-.7-.1H94c-.4 0-.8-.1-1.2-.1-.5 0-.9-.1-1.3-.2-1.1 0-2.3-.3-3.3-.3-.2 0-.5-.1-.8-.1-.7.9-1.4 1.8-2 2.7-.6.9-1.4 1.7-2 2.5-.3.3-.5.7-.8 1.1.3.7.7 1.3.9 2 .1.7.8 1.4.9 2.1.3 1.1.8 2.2 1.3 3.2h.5c1.2.2 2.5.2 3.7.5.6 0 1.2.3 1.8.3.2.1.5-.1.6.1.1.1.3-.1.4 0 .1 0 0 0 .1.1 0 0 0-.1.1 0 0 .2.4 0 .3.2-.1 0 .1.1-.1.1h.3c0-.1.1-.1 0-.2v0c-.2 0-.2-.1-.3-.2-.1.1-.2 0-.3 0 0-.1-.2.1-.2 0-.4 0-.8-.1-1.3-.1H91c-.1-.1-.4-.2-.5-.2-.2-.2-.3.1-.5-.1 0 .1-.4-.1-.5 0v-.1c-.4-.1-.8-.1-1.2-.2-.3.1-.7-.1-1 0-.2-.1-.5-.2-.8-.1H85.9h-.1c.1-.1 0-.2 0-.4-.1-.2-.3-.6-.5-.9 0-.1-.1-.2-.1-.3-.5-.8-.9-1.9-1.2-2.8l-.3-.3c-.1-.2-.1-.3-.2-.5-.1-.1-.1-.3-.2-.5l-.1-.1h.1l-.3-.7-.2-.4-.1-.2v-.1c.3-.4.6-.8.8-1.2.3-.4.6-.9 1-1.3v.1l.2-.3c.3-.3.5-.7.7-1 0 0 0 .1 0 0 .1-.3.4-.3.3-.5.4-.7.9-1.3 1.4-1.9 0-.1.1-.2.1-.2h.4l.4.1c.3 0 .6.1.9.1.9 0 1.8.2 2.7.3.4.1.6.1 1 .1.7-.1 1.3.3 2 .2h-.1.4v.1c.3.4.2.8.6 1.3.1.1.2.3.2.4.1.5.4.9.6 1.4h-.1c.2.2.3.6.4.9l.1.1c.3.4.5.7.6 1.1zM97 66.2zM92.9 70.6z"/><g><path class="st3" d="M99.5 30.1h.1zM99.7 29.8l-.1.2c.1 0 0-.2.1-.2zM99.7 29.7c.1-.1.1-.1 0-.1.1 0 0 .1 0 .1zM104.2 23.5z"/><path class="st3" d="M103.2 21.7c.2.3.2.7.4 1.1.1.3.3.7.4.9-.3.5-.7 1-1 1.5 0 0 0 .1-.1.1-.2.1-.3.5-.5.6v.1c-.5.6-.9 1.3-1.4 2h-.1c-.3.6-.8 1.1-1.2 1.7h.1c.2-.2.2-.4.4-.5.1-.1 0-.1.1-.2.1 0 0 0 0 0 .2-.3.4-.5.5-.8.1 0 .2-.3.3-.3 0-.1.1-.1.1-.2.7-.8 1.3-1.8 2-2.6.1-.2.2-.4.4-.6l.3-.3.1-.2.2-.2-.1-.3c-.1-.2-.2-.4-.3-.7l-.1-.2c-.4-1.4-1.1-2.7-1.6-4.1-.3-.8-.6-1.6-.9-2.3l-.7-.1-.6-.1c-.4 0-.8-.1-1.2-.1-.5 0-.9-.1-1.3-.2-1.1 0-2.3-.3-3.3-.3-.3 0-.5-.1-.8-.1-.7.9-1.4 1.8-2 2.7-.6.9-1.4 1.7-2 2.5-.3.3-.5.7-.8 1.1.3.7.7 1.3.9 2 .1.7.8 1.4.9 2.1.3 1.1.8 2.2 1.3 3.2h.5c1.2.2 2.5.2 3.7.5.6 0 1.2.3 1.8.3.2.1.5-.1.6.1.1.1.3-.1.4 0 .1 0 0 0 .1.1 0 0 0-.1.1 0 0 .2.4 0 .3.2-.1 0 .1.1-.1.1h.3c0-.1.1-.1 0-.2v0c-.2 0-.2-.1-.3-.2-.1.1-.2 0-.3 0 0-.1-.2.1-.2 0-.4 0-.8-.1-1.3-.1h-.3c-.1-.1-.4-.2-.5-.2-.2-.2-.3.1-.5-.1 0 .1-.4-.1-.5 0v-.1c-.4-.1-.8-.1-1.2-.2-.3.1-.7-.1-1 0-.2-.1-.5-.2-.8-.1H91.8h-.1c.1-.1 0-.2 0-.4-.1-.2-.3-.6-.5-.9 0-.1-.1-.2-.1-.3-.5-.8-.9-1.9-1.2-2.8l-.3-.3c-.1-.2-.1-.3-.2-.5-.1-.1-.1-.3-.2-.5V23h.1l-.3-.7-.2-.4-.1-.2v-.1c.3-.4.6-.8.8-1.2.3-.4.6-.9 1-1.3v.1l.2-.3c.3-.3.5-.7.7-1 0 0 0 .1 0 0 .1-.3.4-.3.3-.5.4-.7.9-1.3 1.4-1.9 0-.1.1-.2.1-.2h.4l.4.1c.3 0 .6.1.9.1.9 0 1.8.2 2.7.3.4.1.6.1 1 .1.7-.1 1.3.3 2 .2h-.1.4v.1c.3.4.2.8.6 1.3.1.1.2.3.2.4.1.5.4.9.6 1.4h-.1c.2.2.3.6.4.9l.1.1c.2.7.4 1 .5 1.4zM103 25.3c0-.1 0 0 0 0z"/><path class="st3" d="M98.8 29.6c.1.1 0 .1 0 0z"/></g><g><path class="st3" d="M97.5 43.8v-.1zM97.6 43.4l-.1.3c.2-.1 0-.3.1-.3zM97.7 43.3c.1-.1.1-.1 0-.1 0 .1-.1.1 0 .1zM102.1 37.1z"/><path class="st3" d="M101.2 35.3c.2.3.2.7.4 1.1.1.3.3.7.4.9-.3.5-.7 1-1 1.5 0 0 0 .1-.1.1-.2.1-.3.5-.5.6v.1c-.5.6-.9 1.3-1.4 2h-.1c-.3.6-.8 1.1-1.2 1.7h.1c.2-.2.2-.4.4-.5.1-.1 0-.1.1-.2.1 0 0 0 0 0 .2-.3.4-.5.5-.8.1 0 .2-.3.3-.3 0-.1.1-.1.1-.2.7-.8 1.3-1.8 2-2.6.1-.2.2-.4.4-.6l.3-.3.1-.2.2-.2-.1-.3c-.1-.2-.2-.4-.3-.7l-.1-.2c-.4-1.4-1.1-2.7-1.6-4.1-.3-.8-.6-1.6-.9-2.3l-.7-.1-.6-.1c-.4 0-.8-.1-1.2-.1-.5 0-.9-.1-1.3-.2-1.1 0-2.3-.3-3.3-.3-.3 0-.5-.1-.8-.1-.7.9-1.4 1.8-2 2.7-.6.9-1.4 1.7-2 2.5-.3.3-.5.7-.8 1.1.3.7.7 1.3.9 2 .1.7.8 1.4.9 2.1.3 1.1.8 2.2 1.3 3.2h.5c1.2.2 2.5.2 3.7.5.6 0 1.2.3 1.8.3.2.1.5-.1.6.1.1.1.3-.1.4 0 .1 0 0 0 .1.1 0 0 0-.1.1 0 0 .2.4 0 .3.2-.1 0 .1.1-.1.1h.3c0-.1.1-.1 0-.2v0c-.2 0-.2-.1-.3-.2-.1.1-.2 0-.3 0 0-.1-.2.1-.2 0-.4 0-.8-.1-1.3-.1h-.3c-.1-.1-.4-.2-.5-.2-.2-.2-.3.1-.5-.1 0 .1-.4-.1-.5 0v-.1c-.4-.1-.8-.1-1.2-.2-.3.1-.7-.1-1 0-.2-.1-.5-.2-.8-.1H89.8h-.1c.1-.1 0-.2 0-.4-.1-.2-.3-.6-.5-.9 0-.1-.1-.2-.1-.3-.5-.8-.9-1.9-1.2-2.8l-.3-.3c-.1-.2-.1-.3-.2-.5-.1-.1-.1-.3-.2-.5l-.1-.1h.1l-.3-.7-.2-.4-.1-.2v-.1c.3-.4.6-.8.8-1.2.3-.4.6-.9 1-1.3v.1l.2-.3c.3-.3.5-.7.7-1 0 0 0 .1 0 0 .1-.3.4-.3.3-.5.4-.7.9-1.3 1.4-1.9 0-.1.1-.2.1-.2h.4l.4.1c.3 0 .6.1.9.1.9 0 1.8.2 2.7.3.4.1.6.1 1 .1.7 0 1.3.3 2 .2h-.1.4v.1c.3.4.2.8.6 1.3.1.1.2.3.2.4.1.5.4.9.6 1.4h-.1c.2.2.3.6.4.9l.1.1c.2.5.4.8.6 1.2zM100.9 38.9zM96.7 43.3c.1 0 .1 0 0 0z"/></g><g><path class="st3" d="M88.9 21.9v-.1zM89 21.6s0-.1 0 0l-.1.3c.2-.1 0-.3.1-.3zM89.1 21.5c.1-.1.1-.1 0-.1 0 0-.1.1 0 .1zM93.5 15.2z"/><path class="st3" d="M92.5 13.5c.2.3.2.7.4 1.1.1.3.3.7.4.9-.3.5-.7 1-1 1.5 0 0 0 .1-.1.1-.2.1-.3.5-.5.6v.1c-.5.6-.9 1.3-1.4 2h-.1c-.3.6-.8 1.1-1.2 1.7h.1c.2-.2.2-.4.4-.5.1-.1 0-.1.1-.2.1 0 0 0 0 0 .2-.3.4-.5.5-.8.1 0 .2-.3.3-.3 0-.1.1-.1.1-.2.7-.8 1.3-1.8 2-2.6.1-.2.2-.4.4-.6l.3-.3.1-.2.2-.2-.1-.3c-.1-.2-.2-.4-.3-.7l-.1-.2c-.4-1.4-1.1-2.7-1.6-4.1-.3-.8-.6-1.6-.9-2.3l-.7-.1-.6-.1c-.4 0-.8-.1-1.2-.1-.5 0-.9-.1-1.3-.2-1.1 0-2.3-.3-3.3-.3-.3 0-.5-.1-.8-.1-.7.9-1.4 1.8-2 2.7-.6.9-1.4 1.7-2 2.5-.3.3-.5.7-.8 1.1.3.7.7 1.3.9 2 .1.7.8 1.4.9 2.1.3 1.1.8 2.2 1.3 3.2h.5c1.2.2 2.5.2 3.7.5.6 0 1.2.3 1.8.3.2.1.5-.1.6.1.1.1.3-.1.4 0 .1 0 0 0 .1.1 0 0 0-.1.1 0 0 .2.4 0 .3.2-.1 0 .1.1-.1.1h.3c0-.1.1-.1 0-.2v0c-.2 0-.2-.1-.3-.2-.1.1-.2 0-.3 0 0-.1-.2.1-.2 0-.4 0-.8-.1-1.3-.1h-.3c-.1-.1-.4-.2-.5-.2-.2-.2-.3.1-.5-.1 0 .1-.4-.1-.5 0v-.1c-.4-.1-.8-.1-1.2-.2-.3.1-.7-.1-1 0-.2-.1-.5-.2-.8-.1H81.1 81c.1-.1 0-.2 0-.4-.1-.2-.3-.6-.5-.9 0-.1-.1-.2-.1-.3-.5-.8-.9-1.9-1.2-2.8l-.3-.3c-.1-.2-.1-.3-.2-.5-.1-.1-.1-.3-.2-.5l-.1-.1h.1l-.3-.7-.2-.4-.1-.2v-.1c.3-.4.6-.8.8-1.2.3-.4.6-.9 1-1.3v.1l.2-.3c.3-.3.5-.7.7-1 0 0 0 .1 0 0 .1-.3.4-.3.3-.5.4-.7.9-1.3 1.4-1.9 0-.1.1-.2.1-.2h.4l.4.1c.3 0 .6.1.9.1.9 0 1.8.2 2.7.3.4.1.6.1 1 .1.7-.1 1.3.3 2 .2h-.1.4v.1c.3.4.2.8.6 1.3.1.1.2.3.2.4.1.5.4.9.6 1.4h-.1c.2.2.3.6.4.9l.1.1c.3.5.5.8.6 1.2zM92.3 17zM88.1 21.4c.1 0 0 0 0 0z"/></g><g><path class="st3" d="M86.8 35.5zM86.9 35.2l-.1.3c.2-.1 0-.3.1-.3zM87 35.1V35s-.1.1 0 .1zM91.4 28.8c0 .1 0 0 0 0z"/><path class="st3" d="M90.5 27.1c.2.3.2.7.4 1.1.1.3.3.7.4.9-.3.5-.7 1-1 1.5 0 0 0 .1-.1.1-.2.1-.3.5-.5.6v.1c-.5.6-.9 1.3-1.4 2h-.1c-.3.6-.8 1.1-1.2 1.7h.1c.2-.2.2-.4.4-.5.1-.1 0-.1.1-.2.1 0 0 0 0 0 .2-.3.4-.5.5-.8.1 0 .2-.3.3-.3 0-.1.1-.1.1-.2.7-.8 1.3-1.8 2-2.6.1-.2.2-.4.4-.6l.3-.3.1-.2.2-.2-.1-.3c-.1-.2-.2-.4-.3-.7L91 28c-.4-1.4-1.1-2.7-1.6-4.1-.3-.8-.6-1.6-.9-2.3l-.7-.1-.6-.1c-.4 0-.8-.1-1.2-.1-.5 0-.9-.1-1.3-.2-1.1 0-2.3-.3-3.3-.3-.2 0-.5-.1-.8-.1-.7.9-1.4 1.8-2 2.7-.6.9-1.4 1.7-2 2.5-.3.3-.5.7-.8 1.1.3.7.7 1.3.9 2 .1.7.8 1.4.9 2.1.3 1.1.8 2.2 1.3 3.2h.5c1.2.2 2.5.2 3.7.5.6 0 1.2.3 1.8.3.2.1.5-.1.6.1.1.1.3-.1.4 0 .1 0 0 0 .1.1 0 0 0-.1.1 0 0 .2.4 0 .3.2-.1 0 .1.1-.1.1h.3c0-.1.1-.1 0-.2v0c-.2 0-.2-.1-.3-.2-.1.1-.2 0-.3 0 0-.1-.2.1-.2 0-.4 0-.8-.1-1.3-.1h-.3c-.1-.1-.4-.2-.5-.2-.2-.2-.3.1-.5-.1 0 .1-.4-.1-.5 0v-.1c-.4-.1-.8-.1-1.2-.2-.3.1-.7-.1-1 0-.2-.1-.5-.2-.8-.1H79.1 79c.1-.1 0-.2 0-.4-.1-.2-.3-.6-.5-.9 0-.1-.1-.2-.1-.3-.5-.8-.9-1.9-1.2-2.8l-.3-.3c-.1-.2-.1-.3-.2-.5-.1-.1-.1-.3-.2-.5l-.1-.1h.1l-.3-.7-.2-.4V27c.3-.4.6-.8.8-1.2.3-.4.6-.9 1-1.3v.1l.2-.3c.3-.3.5-.7.7-1 0 0 0 .1 0 0 .1-.3.4-.3.3-.5.4-.7.9-1.3 1.4-1.9 0-.1.1-.2.1-.2h.4l.4.1c.3 0 .6.1.9.1.9 0 1.8.2 2.7.3.4.1.6.1 1 .1.7 0 1.3.3 2 .2h-.1.4v.1c.3.4.2.8.6 1.3.1.1.2.3.2.4.1.5.4.9.6 1.4h-.1c.2.2.3.6.4.9l.1.4c.1.4.3.7.5 1.1zM90.2 30.7c0-.1 0-.1 0 0zM86 35c.1 0 .1 0 0 0z"/></g><g><path class="st3" d="M72.1 54.4v-.1zM72.2 54l-.1.3c.2-.1.1-.3.1-.3zM72.3 53.9c.1-.1.1-.1 0-.1.1.1-.1.1 0 .1zM76.7 47.7c.1 0 0 0 0 0z"/><path class="st3" d="M75.8 45.9c.2.3.2.7.4 1.1.1.3.3.7.4.9-.3.5-.7 1-1 1.5 0 0 0 .1-.1.1-.2.1-.3.5-.5.6v.1c-.5.6-.9 1.3-1.4 2h-.1c-.3.6-.8 1.1-1.2 1.7h.1c.2-.2.2-.4.4-.5.1-.1 0-.1.1-.2.1 0 0 0 0 0 .2-.3.4-.5.5-.8.1 0 .2-.3.3-.3 0-.1.1-.1.1-.2.7-.8 1.3-1.8 2-2.6.1-.2.2-.4.4-.6l.3-.3.1-.2.2-.2-.1-.3c-.1-.2-.2-.4-.3-.7l-.1-.2c-.4-1.4-1.1-2.7-1.6-4.1-.3-.8-.6-1.6-.9-2.3l-.7-.1-.6-.1c-.4 0-.8-.1-1.2-.1-.5 0-.9-.1-1.3-.2-1.1 0-2.3-.3-3.3-.3-.2 0-.5-.1-.8-.1-.7.9-1.4 1.8-2 2.7-.6.9-1.4 1.7-2 2.5-.3.3-.5.7-.8 1.1.3.7.7 1.3.9 2 .1.7.8 1.4.9 2.1.3 1.1.8 2.2 1.3 3.2h.5c1.2.2 2.5.2 3.7.5.6 0 1.2.3 1.8.3.2.1.5-.1.6.1.1.1.3-.1.4 0 .1 0 0 0 .1.1 0 0 0-.1.1 0 0 .2.4 0 .3.2-.1 0 .1.1-.1.1h.3c0-.1.1-.1 0-.2v0c-.2 0-.2-.1-.3-.2-.1.1-.2 0-.3 0 0-.1-.2.1-.2 0-.4 0-.8-.1-1.3-.1h-.3c-.1-.1-.4-.2-.5-.2-.2-.2-.3.1-.5-.1 0 .1-.4-.1-.5 0v-.1c-.4-.1-.8-.1-1.2-.2-.3.1-.7-.1-1 0-.2-.1-.5-.2-.8-.1H64.4h-.1c.1-.1 0-.2 0-.4-.1-.2-.3-.6-.5-.9 0-.1-.1-.2-.1-.3-.5-.8-.9-1.9-1.2-2.8l-.3-.3c-.1-.2-.1-.3-.2-.5-.1-.1-.1-.3-.2-.5l-.1-.1h.1l-.3-.7-.2-.4v-.4c.3-.4.6-.8.8-1.2.3-.4.6-.9 1-1.3v.1l.2-.3c.3-.3.5-.7.7-1 0 0 0 .1 0 0 .1-.3.4-.3.3-.5.4-.7.9-1.3 1.4-1.9 0-.1.1-.2.1-.2h.4l.4.1c.3 0 .6.1.9.1.9 0 1.8.2 2.7.3.4.1.6.1 1 .1.7 0 1.3.3 2 .2h-.1.4v.1c.3.4.2.8.6 1.3.1.1.2.3.2.4.1.5.4.9.6 1.4h-.1c.2.2.3.6.4.9l.1.1c.1.6.3.9.5 1.3zM75.5 49.5zM71.4 53.9z"/></g><g><path class="st3" d="M70.1 68v-.1zM70.2 67.6l-.1.3c.2-.1 0-.3.1-.3zM70.3 67.6c.1-.1.1-.1 0-.1 0 0-.1 0 0 .1zM74.7 61.3z"/><path class="st3" d="M73.8 59.5c.2.3.2.7.4 1.1.1.3.3.7.4.9-.3.5-.7 1-1 1.5 0 0 0 .1-.1.1-.2.1-.3.5-.5.6v.1c-.5.6-.9 1.3-1.4 2h-.1c-.3.6-.8 1.1-1.2 1.7h.1c.2-.2.2-.4.4-.5.1-.1 0-.1.1-.2.1 0 0 0 0 0 .2-.3.4-.5.5-.8.1 0 .2-.3.3-.3 0-.1.1-.1.1-.2.7-.8 1.3-1.8 2-2.6.1-.2.2-.4.4-.6l.3-.3.1-.2.2-.2-.1-.3c-.1-.2-.2-.4-.3-.7l-.1-.2c-.4-1.4-1.1-2.7-1.6-4.1-.3-.8-.6-1.5-.9-2.3l-.7-.1-.6-.1c-.4 0-.8-.1-1.2-.1-.5 0-.9-.1-1.3-.2-1.1 0-2.3-.3-3.3-.3-.2 0-.5-.1-.8-.1-.7.9-1.4 1.8-2 2.7-.6.9-1.4 1.7-2 2.5-.3.3-.5.7-.8 1.1.3.7.7 1.3.9 2 .1.7.8 1.4.9 2.1.3 1.1.8 2.2 1.3 3.2h.5c1.2.2 2.5.2 3.7.5.6 0 1.2.3 1.8.3.2.1.5-.1.6.1.1.1.3-.1.4 0 .1 0 0 0 .1.1 0 0 0-.1.1 0 0 .2.4 0 .3.2-.1 0 .1.1-.1.1h.3c0-.1.1-.1 0-.2v0c-.2 0-.2-.1-.3-.2-.1.1-.2 0-.3 0 0-.1-.2.1-.2 0-.4 0-.8-.1-1.3-.1h-.3c-.1-.1-.4-.2-.5-.2-.2-.2-.3.1-.5-.1 0 .1-.4-.1-.5 0v-.1c-.4-.1-.8-.1-1.2-.2-.3.1-.7-.1-1 0-.2-.1-.5-.2-.8-.1H62.4h-.1c.1-.1 0-.2 0-.4-.1-.2-.3-.6-.5-.9 0-.1-.1-.2-.1-.3-.5-.8-.9-1.9-1.2-2.8l-.3-.3c-.1-.2-.1-.3-.2-.5-.1-.1-.1-.3-.2-.5l-.1-.1h.1l-.3-.7-.2-.4-.1-.2v-.1c.3-.4.6-.8.8-1.2.3-.4.6-.9 1-1.3v.1l.2-.3c.3-.3.5-.7.7-1 0 0 0 .1 0 0 .1-.3.4-.3.3-.5.4-.7.9-1.3 1.4-1.9 0-.1.1-.2.1-.2h.4l.4.1c.3 0 .6.1.9.1.9 0 1.8.2 2.7.3.4.1.6.1 1 .1.7 0 1.3.3 2 .2H71h.4v.1c.3.4.2.8.6 1.3.1.1.2.3.2.4.1.5.4.9.6 1.4h-.1c.2.2.3.6.4.9l.1.1c.2.5.4.8.6 1.2zM73.5 63.1zM69.4 67.5z"/></g><g><path class="st3" d="M76.1 27.2h.1v-.1zM76.3 26.8l-.1.3c.1-.1 0-.3.1-.3zM76.3 26.8c.1-.1.1-.1 0-.1.1 0 0 0 0 .1zM80.8 20.5z"/><path class="st3" d="M79.8 18.7c.2.3.2.7.4 1.1.1.3.3.7.4.9-.3.5-.7 1-1 1.5 0 0 0 .1-.1.1-.2.1-.3.5-.5.6v.1c-.5.6-.9 1.3-1.4 2h-.1c-.3.6-.8 1.1-1.2 1.7h.1c.2-.2.2-.4.4-.5.1-.1 0-.1.1-.2.1 0 0 0 0 0 .2-.3.4-.5.5-.8.1 0 .2-.3.3-.3 0-.1.1-.1.1-.2.7-.8 1.3-1.8 2-2.6.1-.2.2-.4.4-.6l.3-.3.1-.2.2-.2-.1-.3c-.1-.2-.2-.4-.3-.7l-.1-.2c-.4-1.4-1.1-2.7-1.6-4.1-.3-.8-.6-1.6-.9-2.3l-.7-.1-.6-.1c-.4 0-.8-.1-1.2-.1-.5 0-.9-.1-1.3-.2-1.1 0-2.3-.3-3.3-.3-.2 0-.5-.1-.8-.1-.7.9-1.4 1.8-2 2.7-.6.9-1.4 1.7-2 2.5-.3.3-.5.7-.8 1.1.3.7.7 1.3.9 2 .1.7.8 1.4.9 2.1.3 1.1.8 2.2 1.3 3.2h.5c1.2.2 2.5.2 3.7.5.6 0 1.2.3 1.8.3.2.1.5-.1.6.1.1.1.3-.1.4 0 .1 0 0 0 .1.1 0 0 0-.1.1 0 0 .2.4 0 .3.2-.1 0 .1.1-.1.1h.3c0-.1.1-.1 0-.2v0c-.2 0-.2-.1-.3-.2-.1.1-.2 0-.3 0 0-.1-.2.1-.2 0-.4 0-.8-.1-1.3-.1h-.3c-.1-.1-.4-.2-.5-.2-.2-.2-.3.1-.5-.1 0 .1-.4-.1-.5 0v-.1c-.4-.1-.8-.1-1.2-.2-.3.1-.7-.1-1 0-.2-.1-.5-.2-.8-.1H68.4h-.1c.1-.1 0-.2 0-.4-.1-.2-.3-.6-.5-.9 0-.1-.1-.2-.1-.3-.5-.8-.9-1.9-1.2-2.8l-.3-.3c-.1-.2-.1-.3-.2-.5-.1-.1-.1-.3-.2-.5V20h.1l-.3-.7-.2-.3-.1-.2v-.1c.3-.4.6-.8.8-1.2.3-.4.6-.9 1-1.3v.1l.2-.3c.3-.3.5-.7.7-1 0 0 0 .1 0 0 .1-.3.4-.3.3-.5.4-.7.9-1.3 1.4-1.9 0-.1.1-.2.1-.2h.4l.4.1c.3 0 .6.1.9.1.9 0 1.8.2 2.7.3.4.1.6.1 1 .1.7-.1 1.3.3 2 .2h-.1.4v.1c.3.4.2.8.6 1.3.1.1.2.3.2.4.1.5.4.9.6 1.4h-.1c.2.2.3.6.4.9l.1.1c.2.6.4 1 .5 1.3zM79.5 22.3zM75.4 26.7c.1 0 0 0 0 0z"/></g><g><path class="st3" d="M74.1 40.8v-.1zM74.2 40.4l-.1.3c.2-.1 0-.3.1-.3zM74.3 40.4c.1-.1.1-.1 0-.1 0 0-.1.1 0 .1zM78.7 34.1z"/><path class="st3" d="M77.7 32.3c.2.3.2.7.4 1.1.1.3.3.7.4.9-.3.5-.7 1-1 1.5 0 0 0 .1-.1.1-.2.1-.3.5-.5.6v.1c-.5.6-.9 1.3-1.4 2h-.1c-.3.6-.8 1.1-1.2 1.7h.1c.2-.2.2-.4.4-.5.1-.1 0-.1.1-.2.1 0 0 0 0 0 .2-.3.4-.5.5-.8.1 0 .2-.3.3-.3 0-.1.1-.1.1-.2.7-.8 1.3-1.8 2-2.6.1-.2.2-.4.4-.6l.3-.3.1-.2.2-.2-.1-.3c-.1-.2-.2-.4-.3-.7l-.1-.2c-.4-1.4-1.1-2.7-1.6-4.1-.3-.8-.6-1.6-.9-2.3H75l-.6-.1c-.4 0-.8-.1-1.2-.1-.5 0-.9-.1-1.3-.2-1.1 0-2.3-.3-3.3-.3-.2 0-.5-.1-.8-.1-.7.9-1.4 1.8-2 2.7-.6.9-1.4 1.7-2 2.5-.3.3-.5.7-.8 1.1.3.7.7 1.3.9 2 .1.7.8 1.4.9 2.1.3 1.1.8 2.2 1.3 3.2h.5c1.2.2 2.5.2 3.7.5.6 0 1.2.3 1.8.3.2.1.5-.1.6.1.1.1.3-.1.4 0 .1 0 0 0 .1.1 0 0 0-.1.1 0 0 .2.4 0 .3.2-.1 0 .1.1-.1.1h.3c0-.1.1-.1 0-.2v0c-.2 0-.2-.1-.3-.2-.1.1-.2 0-.3 0 0-.1-.2.1-.2 0-.4 0-.8-.1-1.3-.1h-.3c-.1-.1-.4-.2-.5-.2-.2-.2-.3.1-.5-.1 0 .1-.4-.1-.5 0V40c-.4-.1-.8-.1-1.2-.2-.3.1-.7-.1-1 0-.2-.1-.5-.2-.8-.1H66.3h-.1c.1-.1 0-.2 0-.4-.1-.2-.3-.6-.5-.9 0-.1-.1-.2-.1-.3-.5-.8-.9-1.9-1.2-2.8l-.3-.3c-.1-.4-.1-.6-.1-.8-.1-.1-.1-.3-.2-.5l-.1-.1h.1l-.3-.7-.2-.4-.1-.2v-.1c.3-.4.6-.8.8-1.2.3-.4.6-.9 1-1.3v.1l.2-.3c.3-.3.5-.7.7-1 0 0 0 .1 0 0 .1-.3.4-.3.3-.5.4-.7.9-1.3 1.4-1.9 0-.1.1-.2.1-.2h.4l.4.1c.3 0 .6.1.9.1.9 0 1.8.2 2.7.3.4.1.6.1 1 .1.7 0 1.3.3 2 .2H75h.4v.1c.3.4.2.8.6 1.3.1.1.2.3.2.4.1.5.4.9.6 1.4h-.1c.2.2.3.6.4.9l.1.1c.2.7.4 1.1.5 1.4zM77.5 35.9zM73.3 40.3c.1 0 0 0 0 0z"/></g><g><path class="st3" d="M61.6 45.8v-.1zM61.7 45.4l-.1.3c.2 0 0-.2.1-.3zM61.8 45.4c.1-.1.1-.1 0-.1 0 0-.1.1 0 .1zM66.2 39.1z"/><path class="st3" d="M65.3 37.4c.2.3.2.7.4 1.1.1.3.3.7.4.9-.3.5-.7 1-1 1.5 0 0 0 .1-.1.1-.2.1-.3.5-.5.6v.1c-.5.6-.9 1.3-1.4 2H63c-.3.6-.8 1.1-1.2 1.7h.1c.2-.2.2-.4.4-.5.1-.1 0-.1.1-.2.1 0 0 0 0 0 .2-.3.4-.5.5-.8.1 0 .2-.3.3-.3 0-.1.1-.1.1-.2.7-.8 1.3-1.8 2-2.6.1-.2.2-.4.4-.6l.3-.3.1-.2.2-.2-.1-.3c-.1-.2-.2-.4-.3-.7l-.1-.2c-.4-1.4-1.1-2.7-1.6-4.1-.3-.8-.6-1.5-.9-2.3l-.7-.1-.6-.1c-.4 0-.8-.1-1.2-.1-.5 0-.9-.1-1.3-.2-1.1 0-2.3-.3-3.3-.3-.3 0-.5-.1-.8-.1-.7.9-1.4 1.8-2 2.7-.6.9-1.4 1.7-2 2.5-.3.3-.5.7-.8 1.1.3.7.7 1.3.9 2 .1.7.8 1.4.9 2.1.3 1.1.8 2.2 1.3 3.2h.5c1.2.2 2.5.2 3.7.5.6 0 1.2.3 1.8.3.2.1.5-.1.6.1.1.1.3-.1.4 0 .1 0 0 0 .1.1 0 0 0-.1.1 0 0 .2.4 0 .3.2-.1 0 .1.1-.1.1h.3c0-.1.1-.1 0-.2v0c-.2 0-.2-.1-.3-.2-.1.1-.2 0-.3 0 0-.1-.2.1-.2 0-.4 0-.8-.1-1.3-.1H59c-.1-.1-.4-.2-.5-.2-.2-.2-.3.1-.5-.1 0 .1-.4-.1-.5 0V45c-.4-.1-.8-.1-1.2-.2-.3.1-.7-.1-1 0-.2-.1-.5-.2-.8-.1H53.9h-.1c.1-.1 0-.2 0-.4-.1-.2-.3-.6-.5-.9 0-.1-.1-.2-.1-.3-.5-.8-.9-1.9-1.2-2.8l-.3-.3c-.1-.2-.1-.3-.2-.5-.1-.1-.1-.3-.2-.5l-.1-.1h.1L51 38l-.2-.4-.1-.2v-.1c.3-.4.6-.8.8-1.2.3-.4.6-.9 1-1.3v.1l.2-.3c.3-.3.5-.7.7-1 0 0 0 .1 0 0 .1-.3.4-.3.3-.5.4-.7.9-1.3 1.4-1.9 0-.1.1-.2.1-.2h.4l.4.1c.3 0 .6.1.9.1.9 0 1.8.2 2.7.3.4.1.6.1 1 .1.7 0 1.3.3 2 .2h-.1.4v.1c.3.4.2.8.6 1.3.1.1.2.3.2.4.1.5.4.9.6 1.4h-.1c.2.2.3.6.4.9l.1.1c.2.6.4 1 .6 1.4zM65 40.9zM60.8 45.3c.1 0 .1 0 0 0z"/></g><g><path class="st3" d="M59.6 59.4v-.1zM59.7 59.1s0-.1 0 0l-.1.3c.2-.1 0-.3.1-.3zM59.8 59c.1-.1.1-.1 0-.1 0 0-.1.1 0 .1zM64.2 52.7z"/><path class="st3" d="M63.2 51c.2.3.2.7.4 1.1.1.3.3.7.4.9-.3.5-.7 1-1 1.5 0 0 0 .1-.1.1-.2.1-.3.5-.5.6v.1c-.5.6-.9 1.3-1.4 2h-.1c-.3.6-.8 1.1-1.2 1.7h.1c.2-.2.2-.4.4-.5.1-.1 0-.1.1-.2.1 0 0 0 0 0 .2-.3.4-.5.5-.8.1 0 .2-.3.3-.3 0-.1.1-.1.1-.2.7-.8 1.3-1.8 2-2.6.1-.2.2-.4.4-.6l.3-.3.1-.2.2-.2-.1-.3c-.1-.2-.2-.4-.3-.7l-.1-.2c-.4-1.4-1.1-2.7-1.6-4.1-.3-.8-.6-1.6-.9-2.3l-.7-.1-.6-.1c-.4 0-.8-.1-1.2-.1-.5 0-.9-.1-1.3-.2-1.1 0-2.3-.3-3.3-.3-.2 0-.5-.1-.8-.1-.7.9-1.4 1.8-2 2.7-.6.9-1.4 1.7-2 2.5-.3.3-.5.7-.8 1.1.3.7.7 1.3.9 2 .1.7.8 1.4.9 2.1.3 1.1.8 2.2 1.3 3.2h.5c1.2.2 2.5.2 3.7.5.6 0 1.2.3 1.8.3.2.1.5-.1.6.1.1.1.3-.1.4 0 .1 0 0 0 .1.1 0 0 0-.1.1 0 0 .2.4 0 .3.2-.1 0 .1.1-.1.1h.3c0-.1.1-.1 0-.2v0c-.2 0-.2-.1-.3-.2-.1.1-.2 0-.3 0 0-.1-.2.1-.2 0-.4 0-.8-.1-1.3-.1h-.3c-.1-.1-.4-.2-.5-.2-.2-.2-.3.1-.5-.1 0 .1-.4-.1-.5 0v-.1c-.4-.1-.8-.1-1.2-.2-.3.1-.7-.1-1 0-.2-.1-.5-.2-.8-.1H51.8h-.1c.1-.1 0-.2 0-.4-.1-.2-.3-.6-.5-.9 0-.1-.1-.2-.1-.3-.5-.8-.9-1.9-1.2-2.8l-.3-.3c-.1-.2-.1-.3-.2-.5-.1-.1-.1-.3-.2-.5l-.1-.1h.1l-.2-.9-.2-.4V50.9c.3-.4.6-.8.8-1.2.3-.4.6-.9 1-1.3v.1l.2-.3c.3-.3.5-.7.7-1 0 0 0 .1 0 0 .1-.3.4-.3.3-.5.4-.7.9-1.3 1.4-1.9 0-.1.1-.2.1-.2h.4l.4.1c.3 0 .6.1.9.1.9 0 1.8.2 2.7.3.4.1.6.1 1 .1.7 0 1.3.3 2 .2h-.1.4v.1c.3.4.2.8.6 1.3.1.1.2.3.2.4.1.5.4.9.6 1.4h-.1c.2.2.3.6.4.9l.1.1c.1.7.3 1 .4 1.4zM63 54.5zM58.8 58.9c.1 0 0 0 0 0z"/></g><g><path class="st3" d="M65.6 18.6v-.1zM65.8 18.3c-.1 0-.1 0 0 0l-.1.3c.1-.1 0-.3.1-.3zM65.8 18.2c.1-.1.1-.1 0-.1.1 0-.1.1 0 .1zM70.3 11.9c0 .1 0 0 0 0z"/><path class="st3" d="M69.3 10.2c.2.3.2.7.4 1.1.1.3.3.7.4.9-.3.5-.7 1-1 1.5 0 0 0 .1-.1.1-.2.1-.3.5-.5.6v.1c-.5.6-.9 1.3-1.4 2H67c-.3.6-.8 1.1-1.2 1.7h.1c.2-.1.2-.4.4-.5.1-.1 0-.1.1-.2.1 0 0 0 0 0 .2-.3.4-.5.5-.8.1 0 .2-.3.3-.3 0-.1.1-.1.1-.2.7-.8 1.3-1.8 2-2.6.1-.2.2-.4.4-.6l.3-.3.1-.2.2-.2-.1-.3c-.1-.2-.2-.4-.3-.7l-.1-.2c-.4-1.4-1.1-2.7-1.6-4.1-.3-.8-.6-1.6-.9-2.3l-.7-.1-.6-.1c-.4 0-.8-.1-1.2-.1-.5 0-.9-.1-1.3-.2-1.1 0-2.3-.3-3.3-.3-.3 0-.5-.1-.8-.1-.7.9-1.4 1.8-2 2.7-.6.9-1.4 1.7-2 2.5-.3.3-.5.7-.8 1.1.3.7.7 1.3.9 2 .1.7.8 1.4.9 2.1.3 1.1.8 2.2 1.3 3.2h.5c1.2.2 2.5.2 3.7.5.6 0 1.2.3 1.8.3.2.1.5-.1.6.1.1.1.3-.1.4 0 .1 0 0 0 .1.1 0 0 0-.1.1 0 0 .2.4 0 .3.2-.1 0 .1.1-.1.1h.3c0-.1.1-.1 0-.2v0c-.2 0-.2-.1-.3-.2-.1.1-.2 0-.3 0 0-.1-.2.1-.2 0-.4 0-.8-.1-1.3-.1H63c-.1-.1-.4-.2-.5-.2-.2-.2-.3.1-.5-.1 0 .1-.4-.1-.5 0v-.1c-.4-.1-.8-.1-1.2-.2-.3.1-.7-.1-1 0-.2-.1-.5-.2-.8-.1H57.9h-.1c.1-.1 0-.2 0-.4-.1-.2-.3-.6-.5-.9 0-.1-.1-.2-.1-.3-.5-.8-.9-1.9-1.2-2.8l-.3-.3c-.1-.2-.1-.3-.2-.5-.1-.1-.1-.3-.2-.5l-.1-.1h.1L55 11l-.2-.4-.1-.2v-.1c.3-.4.6-.8.8-1.2.3-.4.6-.9 1-1.3v.1l.2-.3c.3-.3.5-.7.7-1 0 0 0 .1 0 0 .1-.3.4-.3.3-.5.4-.7.9-1.3 1.4-1.9 0-.1.1-.2.1-.2h.4l.4.1c.3 0 .6.1.9.1.9 0 1.8.2 2.7.3.4.1.6.1 1 .1.7-.1 1.3.3 2 .2h-.1.4v.1c.3.4.2.8.6 1.3.1.1.2.3.2.4.1.5.4.9.6 1.4h-.1c.2.2.3.6.4.9l.1.1c.3.5.4.8.6 1.2zM69 13.8c0-.1 0-.1 0 0zM64.9 18.1z"/></g><g><path class="st3" d="M63.5 32.2h.1zM63.7 31.9l-.1.3c.1-.1 0-.3.1-.3zM63.7 31.8c.1-.1.1-.1 0-.1.1 0 0 .1 0 .1zM68.2 25.6z"/><path class="st3" d="M67.2 23.8c.2.3.2.7.4 1.1.1.3.3.7.4.9-.3.5-.7 1-1 1.5 0 0 0 .1-.1.1-.2.1-.3.5-.5.6v.1c-.5.6-.9 1.3-1.4 2h-.1c-.3.6-.8 1.1-1.2 1.7h.1c.2-.2.2-.4.4-.5.1-.1 0-.1.1-.2.1 0 0 0 0 0 .2-.3.4-.5.5-.8.1 0 .2-.3.3-.3 0-.1.1-.1.1-.2.7-.8 1.3-1.8 2-2.6.1-.2.2-.4.4-.6l.3-.3.1-.2.2-.2-.1-.3c-.1-.2-.2-.4-.3-.7l-.1-.2c-.4-1.4-1.1-2.7-1.6-4.1-.3-.8-.6-1.6-.9-2.3l-.7-.1-.6-.1c-.4 0-.8-.1-1.2-.1-.5 0-.9-.1-1.3-.2-1.1 0-2.3-.3-3.3-.3-.3 0-.5-.1-.8-.1-.7.9-1.4 1.8-2 2.7-.6.9-1.4 1.7-2 2.5-.3.3-.5.7-.8 1.1.3.7.7 1.3.9 2 .1.7.8 1.4.9 2.1.3 1.1.8 2.2 1.3 3.2h.5c1.2.2 2.5.2 3.7.5.6 0 1.2.3 1.8.3.2.1.5-.1.6.1.1.1.3-.1.4 0 .1 0 0 0 .1.1 0 0 0-.1.1 0 0 .2.4 0 .3.2-.1 0 .1.1-.1.1h.3c0-.1.1-.1 0-.2v0c-.2 0-.2-.1-.3-.2-.1.1-.2 0-.3 0 0-.1-.2.1-.2 0-.4 0-.8-.1-1.3-.1h-.3c-.1-.1-.4-.2-.5-.2-.2-.2-.3.1-.5-.1 0 .1-.4-.1-.5 0v-.1c-.4-.1-.8-.1-1.2-.2-.3.1-.7-.1-1 0-.2-.1-.5-.2-.8-.1H55.8h-.1c.1-.1 0-.2 0-.4-.1-.2-.3-.6-.5-.9 0-.1-.1-.2-.1-.3-.5-.8-.9-1.9-1.2-2.8l-.3-.3c-.1-.2-.1-.3-.2-.5-.1-.1-.1-.3-.2-.5l-.1-.1h.1l-.2-.9-.2-.4-.1-.2v-.1c.3-.4.6-.8.8-1.2.3-.4.6-.9 1-1.3v.1l.2-.3c.3-.3.5-.7.7-1 0 0 0 .1 0 0 .1-.3.4-.3.3-.5.4-.7.9-1.3 1.4-1.9 0-.1.1-.2.1-.2h.4l.4.1c.3 0 .6.1.9.1.9 0 1.8.2 2.7.3.4.1.6.1 1 .1.7-.1 1.3.3 2 .2h-.1.4v.1c.3.4.2.8.6 1.3.1.1.2.3.2.4.1.5.4.9.6 1.4h-.1c.2.2.3.6.4.9l.1.1c.2.7.4 1 .5 1.4zM66.9 27.4c0-.1 0 0 0 0zM62.8 31.7c0 .1 0 .1 0 0z"/></g><g><path class="st5" d="M78.5 34.5l.3-.2c0 .1-2.1 2.2-2 2.3.1.1 3.9-2.3 3.9-2.3.1.2-5.3 4-5.2 4.2.1.2 6.4-3.9 6.5-3.7.1.2-7.9 5.4-7.8 5.6.2.3 9.4-5.7 9.5-5.5.1.3-9.5 6.3-9.3 6.5.2.3 10.7-6.5 10.8-6.3.1.2-10.4 6.8-10.3 7 .2.3 11.1-6.8 11.3-6.5.2.3-11.3 7.3-11.1 7.5.2.3 11.6-7.1 11.8-6.8.2.3-11.8 7.6-11.6 7.9.2.3 11.9-7.3 12.1-7 .2.3-11.6 7.5-11.4 7.7.2.3 11.6-7.1 11.8-6.8.2.3-11.6 7.4-11.4 7.8.2.3 11.8-7.2 12-6.9.2.3-11.9 7.6-11.8 7.9.2.3 11.9-7.3 12.1-7 .2.3-11.6 7.5-11.4 7.8.1.2 11.6-7.1 11.8-6.8.1.2-10.7 7-10.5 7.3.2.3 10.7-6.6 10.9-6.3.1.2-9.5 6.3-9.3 6.5.1.2 8.8-5.3 8.9-5.1.1.2-6.9 4.9-6.8 5.1.1.1 5.5-3.3 5.6-3.2.1.1-4.1 3.3-4.1 3.4 0 .1 2.4-1.4 2.4-1.4"/></g><g><path class="st5" d="M87.5 56.1l.3-.2c0 .1-1.9 2.1-1.9 2.2 0 .1 3.3-2 3.4-1.9.1.2-4.9 3.7-4.8 3.9.1.1 6.5-4 6.6-3.8.1.3-8.6 5.7-8.5 6 .1.2 9.9-6 10.1-5.8.1.2-9.4 6.3-9.2 6.5.2.3 10.8-6.6 11-6.3.2.3-11.2 7.2-11 7.5.1.2 12-7.4 12.2-7 .2.3-12.1 7.7-11.9 8 .1.2 11.9-7.3 12.1-7 .1.2-11.8 7.6-11.7 7.8.2.3 12.2-7.5 12.4-7.2.2.4-11.9 7.6-11.7 7.9.2.3 11.8-7.2 11.9-6.9.1.2-11.7 7.6-11.6 7.8.1.2 11.9-7.2 12-6.9.2.3-11.8 7.6-11.6 7.9.1.2 11.6-7.1 11.8-6.8.1.2-11.8 7.5-11.6 7.8.2.3 12-7.2 12.1-7 .2.3-10.6 6.9-10.4 7.1.1.2 10.5-6.4 10.7-6.2.2.3-9.2 6-9 6.3.1.2 8.4-5.2 8.6-4.9.1.2-7.1 4.9-7 5.1.1.1 5.5-3.3 5.6-3.2.1.1-4 3.3-3.9 3.4 0 .1 2.4-1.5 2.4-1.4"/></g><g><path class="st5" d="M93.2 15.3l.4-.2c0 .1-2.1 2.3-2.1 2.3.1.1 3.7-2.2 3.7-2.2.1.1-5.3 4-5.2 4.1.1.2 6.5-4 6.6-3.8.1.2-8.5 5.7-8.4 6 .1.2 10.1-6.2 10.3-6 .1.2-9.8 6.5-9.7 6.7.1.2 10.5-6.5 10.7-6.2.1.2-10.7 7-10.6 7.3.2.3 11.8-7.2 12-6.9.2.3-11.5 7.4-11.3 7.7.2.3 11.8-7.2 12-6.9.2.3-11.7 7.5-11.6 7.8.2.3 11.5-7 11.6-6.7.2.3-11.1 7.2-11 7.5.2.3 11.6-7.1 11.8-6.8.2.3-11.7 7.5-11.5 7.8.1.2 11.4-6.9 11.6-6.7.2.3-11.6 7.4-11.4 7.7.2.3 11.8-7.3 12-6.9.2.3-11.6 7.4-11.4 7.7.1.2 11.7-7.1 11.9-6.8.2.3-10.8 7-10.6 7.2.2.3 11-6.7 11.1-6.4.1.2-9.1 6.1-9 6.3.1.2 8.2-5 8.3-4.8.1.2-7.2 5.1-7.1 5.3.1.1 5.6-3.4 5.6-3.3.1.1-3.8 3.3-3.8 3.4 0 .1 2.4-1.5 2.5-1.4"/></g><g><path class="st5" d="M70.4 12.2s0-.1 0 0c.1 0-1.6 2-1.6 2.1.1.1 3.2-1.9 3.2-1.9.1.2-5.4 4-5.3 4.2.1.1 6.9-4.2 6.9-4 .1.2-8.2 5.7-8.1 5.8.2.3 9.6-5.9 9.8-5.6.1.2-9.7 6.3-9.5 6.6.2.3 10.6-6.5 10.8-6.2.1.2-10.2 6.7-10.1 6.9.2.4 11.2-6.8 11.3-6.5.2.3-11.4 7.4-11.2 7.6.2.3 11.5-7.1 11.7-6.8.2.3-11.2 7.3-11.1 7.6.2.3 11.7-7.1 11.8-6.8.2.4-11.7 7.5-11.5 7.8.2.3 11.7-7.2 11.9-6.9.2.3-11.6 7.5-11.5 7.7.1.2 11.6-7 11.7-6.8.2.3-11.9 7.6-11.7 7.9.1.2 11.8-7.2 12-6.9.1.2-11.1 7.2-10.9 7.5.2.3 11.1-6.7 11.3-6.5.1.3-9.8 6.5-9.7 6.7.1.2 10.2-6.3 10.4-6 .1.2-9.5 6.3-9.3 6.5.1.2 8.7-5.3 8.9-5.1.1.2-6.9 4.9-6.8 5.1.1.1 5.1-3.1 5.1-3 .1.1-3.9 3.3-3.8 3.4 0 .1 2.2-1.3 2.2-1.3"/></g><g><path class="st5" d="M55.7 31c.1.1-2.2 2.3-2.1 2.3 0 .1 3.5-2.2 3.6-2.1.1.1-4.8 3.8-4.8 3.9.1.2 6.4-3.9 6.4-3.7.1.2-8.1 5.6-8 5.7.1.2 9.5-5.8 9.6-5.6.1.2-9.8 6.4-9.6 6.7.1.3 11-6.7 11.1-6.4.2.3-10.7 6.9-10.5 7.2.2.3 11.4-7 11.5-6.7.1.2-11.4 7.3-11.2 7.6.2.3 11.5-7 11.7-6.7.1.2-11.7 7.5-11.5 7.8.2.3 11.9-7.2 12-6.9.2.3-11.6 7.5-11.5 7.8.2.3 11.5-7 11.7-6.7.2.3-11.5 7.4-11.3 7.7.2.3 11.8-7.3 12-6.9.2.3-11.6 7.4-11.4 7.7.1.2 11.5-7.1 11.7-6.7.2.3-11.3 7.2-11.1 7.5.2.3 11.6-7.1 11.8-6.8.1.2-10.6 6.9-10.5 7.2.1.2 10.7-6.5 10.8-6.2.1.2-9.1 6-8.9 6.2.1.2 8.6-5.3 8.8-5.1.1.2-7.2 5.1-7.1 5.2.1.1 4.9-3 5-2.9.1.1-3.9 3.2-3.9 3.3 0 .1 2.7-1.7 2.8-1.6"/></g><g><path class="st5" d="M64.2 53.3l.5-.3c0 .1-2.2 2.3-2.1 2.4.1.1 3.5-2.1 3.5-2 .1.1-5 3.8-4.9 3.9.1.2 6.1-3.8 6.3-3.6.1.2-8.2 5.7-8.1 5.9.1.2 10.1-6.2 10.2-5.9.1.3-9.7 6.3-9.6 6.6.2.3 10.6-6.4 10.7-6.2.1.2-10.4 6.9-10.3 7.1.2.3 11.8-7.2 12-6.9.1.3-11.8 7.6-11.6 7.9.2.3 11.5-7.1 11.7-6.8.2.3-11.6 7.4-11.4 7.7.2.3 11.9-7.3 12.1-7 .2.4-11.9 7.6-11.7 7.9.2.3 11.8-7.2 11.9-6.9.2.3-11.5 7.4-11.3 7.7.2.3 11.2-6.8 11.4-6.6.2.3-11.3 7.4-11.2 7.6.2.3 11.5-7 11.6-6.7.2.3-11.7 7.5-11.5 7.7.2.3 12-7.3 12.1-7 .2.3-10.5 6.8-10.3 7.1.1.2 10.6-6.5 10.8-6.2.1.2-9 6.1-8.9 6.3.1.2 8.7-5.3 8.8-5.1.1.2-7.4 5.1-7.3 5.4.1.2 5.6-3.4 5.7-3.3.1.1-3.9 3.3-3.9 3.4 0 .1 2.2-1.3 2.2-1.3"/></g></g></g></g><g><path class="st6" d="M28.7 34.7v-.1.1zM28.6 34.9v-.2c-.1 0 .1.2 0 .2zM28.6 34.9c-.1 0 0 .1 0 0 0 0 0 .1 0 0zM27 39s-.1-.1 0 0c-.1 0-.1 0 0 0z"/><path class="st6" d="M27.5 40c-.1-.2-.1-.4-.2-.7-.1-.6-.3-1.1-.4-1.7l-.1-.1c.1-.1-.1-.4 0-.4 0 0 0-.1-.1 0 0-.1 0-.3.1-.4l.2-.2.1-.1.1-.1.1-.1v-.1l.1-.1h.1v-.1h.1c0-.2.1-.4.3-.6.2-.2.5-.3.6-.3v-.1s-.1 0-.1.1c-.1.1-.1.1-.2.1s0 .1-.1.1 0-.1 0 0c-.2.2-.4.3-.4.6-.1 0-.1.2-.2.2v.1l.1-.1-.1.1c-.1.2-.1.2-.2.3l-.1.1s.1.1.1 0l-.1.1c0 .1.1-.1-.1.1-.1.1-.2.3-.2.5v.7c.2.3 0 .7.2 1.1.1.1.1.3.1.4l.1.1c0 .9.7 1.7 1.3 2.3.3.4.6.8 1 1.1.4.3.9.5 1.4.5.3 0 .5.1.8.1.3-.1.7-.1 1-.1.3 0 .7-.1.9-.4.3-.3.6-.5.9-.9.2-.4.3-.8.5-1.1.1-.2.2-.4.3-.7.1-.1.1-.3.2-.4l.1-.2v-.1c-.2.1-.4.1-.6.2-.2 0-.4.1-.5.1-.2 0-.3.1-.5.1-.3.1-.7.2-1 .2-.2 0-.4.1-.7.1-.2 0-.5 0-.7-.1-.7-.5-1.4-.6-2-1.2-.4-.6-.8-1.3-.7-2.1-.2-.3.1-.7.1-1.1.1-.1-.2-.3 0-.4.1-.1-.2-.2-.1-.2h-.1c0-.1.1 0 .1-.1 0 0-.1 0-.1-.1.2 0 0-.2.2-.2 0 0 .1-.1.1.1 0 0 0-.2-.1-.2s-.2-.1-.3 0h.1-.1c0 .1-.1.1-.2.2.1.1 0 .1 0 .2-.1 0 .2.2 0 .1v.8c.1 0 0 .2.1.1-.1.1-.2.3-.1.4-.2.2.2.2 0 .3.1 0 0 .3.2.3h-.1c0 .2.1.5.1.7.2.1.1.4.3.5 0 .1.1.4.2.5.1.2.3.4.5.4-.1.2 0 .2.1.3.2 0 .4.2.6.3 0 .1.2 0 .1.2.6 0 1.2.4 1.9.5.1-.1.2-.2.2-.3h.3c.1-.1.2 0 .3-.1l.1-.1v.1c.2 0 .3-.1.5-.1s.4-.1.6-.1c.5-.1.5-.2.7-.3v.4c-.1 0-.1.4-.2.5 0 0 0-.1-.1 0 0 .2-.2.2-.1.4h-.1c-.1.2-.1.5-.2.7-.1.2-.3.3-.5.5-.1.4-.5.6-.8.8-.5.3-1.1.1-1.6.1-.2 0-.4 0-.6-.1-.4.1-.7-.4-1.1-.4h.1c-.1.1-.2-.2-.3 0v-.1c-.4 0-.3-.4-.6-.5-.1 0-.2-.1-.2-.2-.1-.3-.4-.4-.6-.6h.1c-.2 0-.3-.3-.4-.4h-.1.1c-.2-.3-.4-.5-.5-.7zM27 37.7zM28.6 35.2z"/><path class="st7" d="M27.2 37c0 1.1.6 2.1.9 3.2.2.7.7 1.1 1.3 1.5.4.3.8.9 1.3 1 2.1.6 4-.4 3.9-2.6"/><path class="st6" d="M37.6 37.2v-.1.1zM37.5 37.3l.1-.1c0-.1-.1.2-.1.1zM37.5 37.3c0-.1 0 0 0 0s0 .1 0 0zM36.1 36.9zM35.6 37c.1 0 .1.1.2.1.2.1.4 0 .6.1 0 0 0-.1 0 0s.1 0 .1.1v-.1c.2 0 .3.1.5 0v.1c.2-.1.3 0 .4 0v-.1c0-.1-.1.1-.1 0 0 0 0 .1 0 0v-.1c-.1 0-.1-.1-.2 0 0-.1-.1 0-.1-.1l-.1.1c0-.1-.3-.1-.5-.1-.2.1-.2-.1-.4-.1h-.2l-.1.1c-.2-.3-.5-.2-.8-.4-.3-.2-.5-.4-.9-.2-.1 0-.2-.1-.3-.1-.3.1-.4-.2-.7-.1-.2-.1-.5-.2-.8-.3-.2 0-.3-.3-.5-.3-.1-.2-.5-.1-.6-.3 0-.2-.4 0-.4-.2-.1-.4-.5-.4-.7-.2-.2-.1-.4.3-.7.2-.1.1-.2-.2-.4-.1-.1-.1 0 .2-.1 0-.1-.1.1.2 0 .1l-.1-.1s.1.1 0 .1c-.1-.2 0 .1-.2-.1 0 0-.1 0-.1-.1 0 0-.1.1 0 .1.1.1.2.1.2.2h-.1c.1 0 0 0 .1.1l.1.1c-.1-.1 0 0 0 0 0 .1-.1-.2 0 0l.1-.1c0-.1.1 0 0-.1 0 .1.1.2.1.2.1.2.1-.2.1 0 0-.1.1 0 .1-.1v.1h.3c0-.1.1 0 .1-.2 0 0 .1.1.1 0 0 0 .1 0 .1-.1v.2c0-.1.1 0 .2-.1 0 .1.1 0 0 .1.2-.1.4 0 .5.3 0 0 .2-.1.2-.2v.1c.1 0 0 .1.1.1l-.1.1c.2.2.6.2.9.4h.1c0 .1.2 0 .2.1v.1c.1-.1 0 .2.1 0v.1c.2 0 .3.1.5.1.2-.1.3.1.5 0s.3.1.5.2h.2c.2-.1.2.2.4.1v.1c.1-.1.1.1.1-.1v.1c.2-.2.1.2.3 0h.1c0 .2.2 0 .3.1v.1c.1-.1.1 0 .2 0v.1c.4-.2.5-.2.6-.2zM36.4 37.2zM29.1 35.2zM42 38.4h-.1zM41.8 38.3s0 .1 0 0h.1c.1 0-.2.1-.1 0zM41.8 38.3s-.1.1 0 0zM41 37.1z"/><path class="st6" d="M40.5 37c.1 0 0 .2.1.2.1.1.3.2.4.3h.1c-.1.1.1 0 .1.1h.1c.1.1.2.2.4.3h-.1c.2 0 .2.2.2.3h.1c0-.1-.1 0-.1-.1h-.1.1c0-.1 0-.1-.2-.1.1-.1 0-.1 0-.1h-.1c-.1-.2-.3-.3-.4-.5-.2 0-.1-.2-.2-.2s-.1 0-.1-.1h-.1c0-.3-.3-.4-.4-.7-.1-.1-.2-.3-.4-.4-.2-.1-.5.1-.6.2-.1.1-.2.1-.2.1-.1.2-.4.1-.5.4-.2.1-.4.3-.6.4-.1.2-.4.2-.5.3-.2.1-.2.4-.4.5-.2-.1-.1.4-.3.3-.4-.1-.4.3-.5.5-.2.1-.2.4-.5.5 0 .2-.3.1-.3.2-.1-.1.1.2-.1.1l.1.1h-.1s.1.1 0 .1c-.2-.1 0 .1-.2-.1 0 0-.1 0-.1-.1v.1c.1.1.1.2.2.2l-.1-.1c.1 0 0 0 .1.1 0 0 .1.1.2.1-.1-.1 0-.1 0-.1.1.1-.1-.2 0 0 0-.1.1-.1.1-.2l-.1-.1c.1.1.2 0 .2 0 .2.1-.1-.1.1 0-.1-.1.1 0 0-.2 0 0 .1 0 .1.1 0-.1.1-.1.2-.1-.1-.1.1-.1 0-.2.1 0 .1 0 .1-.1 0 0 .1-.1 0-.2.1.1.1.1.2.1v-.2c.1.1 0-.1.1 0 0-.3.2-.4.4-.3 0-.1-.1-.2-.1-.3h.1c0-.1.1 0 .1-.1 0 0 .1.1 0 .1.2-.2.3-.5.6-.7v-.1c.1 0 .1-.1.1-.2v.1c0-.1.1.1 0-.1v.1l.3-.3c0-.2.2-.1.2-.3.1-.2.3-.1.4-.2.1 0 .1-.1.1-.1 0-.1.1-.1.1-.1.1 0 .1.1.2 0v.1c0-.1 0 .1.1-.1v.1c.2-.2.1.2.2.1h.1c-.1.2.1.1.2.2h-.1c.1 0 .1.1.1.1h.1-.1c.8.3.9.3.9.3zM41.1 37.5zM35.9 39.8c-.1 0 0 0 0 0z"/><g><path class="st6" d="M41.1 39H41zM40.9 38.9h0zM40.9 38.9c.1 0 0 0 0 0zM40 38.2zM39.7 38.5c0-.1.1.1.1 0 .1 0 .2-.1.4-.1v-.1c0 .1.1 0 .1 0v-.1c.1 0 .2 0 .4.1l-.1.1c.2 0 .3.2.2.3h.1c0-.1-.1-.1-.1-.1h-.1.1c0-.1-.1-.1-.2-.1.1-.1 0-.1 0-.1h-.1c-.1-.2-.3-.1-.5-.2-.1.2-.1-.1-.2 0 0 0-.1.1-.1 0v.1c-.2-.2-.4-.1-.6-.1-.2 0-.4-.1-.6.1h-.2c-.1.2-.3.1-.4.3-.2 0-.3.1-.5.2-.1.1-.3 0-.4.1-.2 0-.2.3-.4.2-.1-.1-.1.3-.3.1-.3-.2-.3 0-.4.2-.2 0-.2.2-.4.1 0 .1-.2-.1-.3 0-.1-.1 0 .2-.1 0-.1-.1.1.2 0 .1l-.1-.1v.1c-.1-.2 0 .1-.1-.1l-.1-.1v.1c.1.1.1.2.2.2v-.1c0 .1 0 0 .1.1l.1.1c0-.1 0 0 0 0 .1.1-.1-.2 0 0 0-.1.1-.1.1-.1v-.1l.1.1c.1.1 0-.2.1 0-.1-.1.1 0 0-.1v.1h.1c0-.1.1 0 .1-.2 0 0 .1.1.1 0 0 0 .1 0 .1-.2.1.2.1.1.1.2 0-.1.1-.1.1-.2 0 .1 0 0 .1.1 0-.2.2-.2.4-.1 0-.1 0-.2-.1-.3 0 0 .1.1.1 0s.1.1.1 0v.1c.2 0 .3-.3.5-.3v-.1c.1 0 .1-.1.1-.1v.1c0-.1.1.1 0-.1v.1c.1-.1.1-.1.2-.1 0-.2.1-.1.2-.2.1-.2.2-.1.3-.1 0 0 .1 0 .1-.1 0-.2.2.1.2-.1v.1c0-.1.1 0 0-.1v.1c0-.2.1.1.2-.1 0 0 0-.1.1 0 .1.2.1 0 .2 0v.1c0-.1.1 0 .1-.1V38v.1c.7.5.8.4.8.4zM40.2 38.5zM35.7 40z"/></g><path class="st7" d="M35.4 40.1c.3-.2.8-.4 1.2-.5.2-.1.6-.2.8-.3.5-.2.9-.4 1.3-.5.4-.1 1.9-.2 1.9.5"/><g><path class="st6" d="M42.9 37.9l-.1-.1zM42.8 37.8c-.1 0-.1 0 0 0h0zM42.8 37.8s-.1 0 0 0c0 0-.1 0 0 0zM42.7 37.3zM42.4 37.2s-.1.1 0 0c0 .1.1.2.1.2h.1c-.1 0 .1 0 0 0h.1l.1.1h-.1c.2 0 .1.1.1.2h.1c.1 0-.1 0 0-.1h-.1.1s0-.1-.1-.1h0c0-.1-.1-.2-.1-.2-.2 0 0-.1-.1-.1h-.2c.1-.1 0-.2 0-.3 0-.1.1-.3-.2-.3-.1 0 0-.1-.1-.1s-.1-.1-.2 0h-.3c-.1.1-.2-.1-.2 0-.1-.1-.1.2-.2.2-.1-.2 0 .2-.1.1-.2-.2-.2 0-.2.2-.1-.1-.1.2-.2 0 0 .1-.1-.1-.1-.1 0-.1 0 .2 0 0v.2c0-.2 0 .1-.1-.2v-.1.4-.1.1s0 .1.1.2c0-.1 0 0 0 0 0 .1 0-.2 0 0l.1-.1v-.1c0 .1.1.1.1.1.1.2 0-.2.1 0v-.1.1h.1c0-.1.1 0 0-.1 0 0 .1.1.1 0v-.1c.1.2.1.1.1.2v-.1.1c0-.2.1-.2.2 0 0-.1-.1-.2-.1-.3 0 0 0 .1.1.1 0-.1 0 .1 0 0v.1c.1 0 .1-.2.2-.2v-.1c0 .1 0 0 .1 0v.1c0-.1.1-.1.1 0 .1-.2.1 0 .2-.1s.1 0 .1 0h.1c.2-.1-.1.1.1.1h-.1.1c.2-.1-.1.1.1.1 0 0 .1 0 0 0-.1.1 0 0 0 .1h-.1c.1-.1 0-.1.1 0-.1 0 0 0 0 0zM42.5 37.4zM40.7 37.2z"/></g><g><path class="st6" d="M43 37.9h.1zM43.3 37.8s0-.1 0 0c0-.1-.1 0 0 0l-.1.1c0 .1.1-.2.1-.1zM43.3 37.8s0-.1 0 0zM46.6 42.2z"/><path class="st6" d="M46.5 43.3c.2-.2.6-.3.6-.7 0-.5-.3-.7-.5-1-.3-.3-.5-.5-.8-.7h-.1c0-.2-.3-.3-.3-.5h-.1c-.3-.4-.7-.9-1.1-1.4 0 0 0-.1.1-.1-.4-.3-.7-.8-.9-1.2l-.1.1c0 .1.2.1.3.3 0 .1.1-.1.1.1 0 .1-.1 0 0 0 .1.2.2.4.4.5-.1.1.1.2.1.3.1 0 .1.1.2.1.2.4.5.7.7 1 .2.3.5.7.8 1 .4.2.6.6.9 1 .1.1.2.3.2.4l.1.1c-.3.3-.8.6-1.3.9-.5.3-1 .5-1.5.8-1.1.6-2.1 1.1-3.1 1.8-.3.2-.6.2-.9.4-.3.3-.7.6-1 .8-.3.2-.7.4-1.1.6-.5.1-1 .3-1.5.2-.5-.1-1-.4-1.3-.7-.6-.6-1-1.3-1.3-2-.1-.4-.2-.8-.2-1.2 0-.4.2-.9.6-1.1.5-.2.8-.9 1.3-1.1.5-.2.9-.5 1.3-.8l1.2-.9c.9-.3 1.5-1 2.4-1.4.3-.4.8-.4 1.2-.6.2.1.3-.3.4-.2.1 0 0-.3.2-.2v-.1c.1-.1 0 0 .1 0v-.1c.1.2.2-.2.3 0 0 0 .1.1 0 .1 0 0 .2-.1.1-.1 0-.1 0-.2-.1-.3v.1l-.1-.1h-.3c0 .1-.1.1-.2.1-.1-.1 0 .2-.1.1-.2.2-.5.3-.8.5 0 .1-.2.1-.1.2-.1-.1-.4 0-.5.1-.3 0-.1.3-.4.2.1.1-.3.1-.3.3 0 0-.1 0-.1-.1-.2.2-.5.3-.7.4-.1.2-.5.2-.5.5-.2 0-.4.1-.6.3-.2.1-.5.3-.6.4-.1-.1-.2 0-.3 0-.1.1-.4.3-.6.5-.1 0-.2.2-.2.1-.2.3-.5.6-.8.8-.3.2-.7.4-1 .6 0 .1 0 .3-.1.4-.1.1-.3.1-.4.2-.1.1-.3.1-.3.3v.1s-.1-.1 0-.1c-.5.6-.5 1.3-.3 1.9.2.7.5 1.2.9 1.7h-.1l.2.1c.1.3.4.4.6.7h-.1c.2.1.2.4.4.3 0 0 0 .1-.1.1.5.4 1.2.6 1.9.5.5-.3 1-.3 1.5-.7.5-.4 1.1-.8 1.7-1.1.3-.1.4-.2.7-.3.4-.4 1-.3 1.3-.7v.1c0-.1.3-.1.2-.3h.1c.2-.4.6-.2.9-.6.1-.1.2-.2.3-.2.4 0 .6-.4 1-.6v.1c.1-.2.4-.2.6-.4l.1-.1v.1c.3-.2.6-.4.8-.6zM45.7 40.9c.1 0 0 0 0 0zM42.5 37.4c.1 0 0 0 0 0z"/></g><path class="st7" d="M43.3 38.1c-.4.1-.8.4-1.2.6-.4.2-1 .5-1.4.8-1 .7-2 1.3-3.1 1.8-.5.2-1 .7-1.4 1-.3.2-.6.5-.9.7-.4.3-.5.4-.8.8-.3.4-.5.8-.3 1.3.2.7.7 1.2 1.2 1.7.6.6 1.3 1.1 2.5.8.5-.1 1.1-.5 1.5-.8.6-.4 1-.7 1.7-.9 1.5-.5 2.6-1.6 4-2.3.4-.2 1.2-.8 1.7-1.2"/><path class="st7" d="M35 46.5c.7-.6 1.9-.9 2.6-1.6.3-.3.5-.3.9-.6.5-.3.9-.8 1.4-1 .4-.2.7-.5 1-.7.8-.6 1.8-.9 2.6-1.5.5-.3 1.3-.7 1.8-1M34.7 46.1c.7-.6 1.9-.9 2.6-1.6.3-.3.5-.3.9-.6.5-.2.9-.8 1.4-1 .4-.2.7-.5 1-.7.8-.6 1.8-.9 2.6-1.5.5-.3 1.3-.7 1.8-1"/><g><path class="st6" d="M46.4 43.2v.1h.1zM46.8 43.5c0-.1.1-.1 0 0l-.3-.1c.1.1.3-.1.3.1zM46.9 43.5c0 .1.1.1.2.1-.1 0-.2-.2-.2-.1zM54.2 50.1zM56.4 51.6c-.3-.4-.6-.8-1.1-1.1-1-.8-2.1-1.4-3.1-2.2h.1c-.1 0-.1 0-.2-.1h.1c-.1-.3-.7-.4-.8-.6h-.1c-.4-.3-.9-.5-1.3-.8l-.7-.4-.3-.2c-.1-.1-.2-.2-.3-.4 0-.1 0-.1.1-.1-.1-.2-.2-.4-.3-.5l-.5-.5c-.3-.3-.6-.7-.9-1-.1 0 0 .1-.1.1.2.2.4.3.5.6h-.1c.1.2.1 0 .2.1 0 .1-.1 0 0 .1.3.3.5.7.8.8 0 .1.1.3.1.6.1.1.2.2.3.2 1.2 1 2.5 1.5 3.5 2.5.6.3 1.2.9 1.9 1.4.2.1.6.3.8.5l.3.1c.4.3.7.6.9 1 .2.4.4.9.6 1.3.2.4.3.8.3 1.3 0 .4-.2.8-.5 1.2-.7.8-1.6 1.2-2.5 1.6-.9.4-1.9.5-2.9.7-.6.1-1.2 0-1.7 0-1.4.1-3-.3-4.3-.3-1.7-.3-3.6-.5-5.1-1.4-1.3-.7-2.1-1.8-3.2-2.7-.5-.5-1.2-.9-1.7-1.5s-1.1-1.1-1.5-1.7c-.2-.4-.6-.8-1-1.1-.4-.3-.9-.5-1.1-.9-.5-.7-1.3-1.3-2-1.7-.8-.4-1.6-.7-2.3-1.2-.6-.5-1.4-.8-1.9-1.5-.2-.4-.3-.8-.3-1.2 0-.4.1-.8.2-1.2 0-.4.1-.8.3-1.1.2-.4.4-.7.6-1.1h-.1c.3-.2.1-.7.4-.8.2-.1-.1-.4.1-.5.1-.2.1 0 .1-.1s-.1-.1 0-.1c.2.1.2-.4.4-.4 0 .1.2-.1.1.1.1-.1.2-.3.1-.4-.1-.1-.1-.2-.3-.1l.1.1H27c-.1.2-.2.2-.4.4 0 .1-.1.3-.1.4h-.1c-.1 0 0 .3-.1.2-.2.5-.4 1-.7 1.5 0 .1-.2.4 0 .3-.2.1-.4.5-.4.7-.2.3.1.4-.2.6.1.1-.2.5 0 .7h-.1c-.1.5-.2 1.2 0 1.7.3.4.6.9 1 1 .2.2.6.5.9.6.3.2.8.5 1.1.6 0 .2.2.3.3.4.3.1.8.4 1.2.5 0 .1.3.1.3.3.6.2 1.1.5 1.6 1s1.1.9 1.4 1.4c.2.1.4.1.5.2.2.2.2.4.4.6h-.1c.2.1.2.4.5.5l.1.1s-.1.1-.1 0c.3.4.7.7 1 1.1.3.4.8.8 1.2 1.1.8.6 1.6 1.3 2.4 2h-.1l.4.2h-.1c.4.4.9.6 1.3.9 0 0-.1 0 0 .1.4.1.5.4.8.3v.1c1 .4 2 .6 3.1.8.9 0 1.8.3 2.7.2 1.2 0 2.4.3 3.6.3.5 0 .8 0 1.3-.1.8-.2 1.8 0 2.6-.5v.1c.1-.1.5-.2.4-.3h.2c.4-.5 1-.4 1.5-1v.1l.4-.4v.1c.6-.3.9-1 .9-1.7l.1.1c-.1-.3-.1-.9-.3-1.3l-.3.1h.1c-.3-.6-.5-1-.8-1.4z"/><path class="st6" d="M52.1 48.2c.1.1.1 0 0 0zM26.4 37.6s0-.1 0 0c0-.1 0 0 0 0z"/></g><g><path class="st6" d="M44.1 44.7h.1zM44.3 44.7h-.2c0 .1.2 0 .2 0zM44.3 44.7c0 .1 0 0 0 0 0 .1.1 0 0 0zM44.4 47.1z"/><path class="st6" d="M44.4 47.8c0-.1.2-.2.2-.4.1-.3.1-.7.1-1 0 0-.1 0 0-.1s0-.2.1-.3h-.1c0-.3 0-.5-.2-.8h.1c-.2-.2-.2-.4-.3-.6h-.1c0 .1.2.1.1.1 0 .1.1 0 .1 0h-.1c.1.1 0 .2.2.2-.1 0 0 .1-.1.2h.1c0 .3.1.7 0 1.1.1.2-.1.4-.1.6v.3l.1.1c-.3.4-.5.9-.8 1.2-.2.2-.4.3-.7.5-.2.2-.4.4-.4.7l-.3.3c-.1.2-.2.3-.4.3-.1 0-.2-.1-.5-.1-.4-.3-.8-.5-1.3-.7-.4-.1-.6-.5-1-.6-.4-.3-.8-.1-1.2-.2-.2-.2-.6.2-.8 0-.5-.3-1-.1-1.4.1-.5 0-.8.3-1.2.3-.1.2-.4.1-.6.2-.2-.1 0 .3-.2.1-.1-.1.1.2 0 .2h-.1s.1.1 0 .1c-.2-.1-.1.1-.2 0 0 0-.1 0-.1-.1 0 0-.1.1 0 .1.1.1.1.2.2.2l-.1-.1c.1 0 0 0 .1.1h.2c0-.1 0-.1.1-.1.1.1-.1-.2 0-.1l.3-.3c0-.1.1-.1 0-.1.1.1.2.1.2 0 .1.1 0-.2.2 0-.1-.1.1 0 .1-.2v.1c.1-.1.3 0 .4-.1 0-.2.2 0 .3-.2.1 0 .2.1.3 0 .1 0 .2-.1.3-.2.1.2.1.1.1.2.1-.1.2-.1.3-.2 0 .1.1 0 .1.1.3-.2.7-.1 1 .1 0-.1.1-.2.2-.3.1 0 .1.1.2.1s.1.1.2 0v.1c.5.1 1 .1 1.5.4h.1c.1.1.3.1.4.2v.1c.1 0 .1.2.2 0v.1c.3.1.5.2.7.4.3-.1.4.3.7.2.2 0 .3-.1.5-.2.1-.1.3-.2.4-.3.1-.1.1-.2.2-.3 0-.3.4-.3.4-.6v.1c-.1-.1.1-.1 0-.2h.1c0-.3.3-.1.3-.4 0-.1 0-.1.1-.1.2 0 .2-.3.3-.4v.1c0-.1.1-.2.2-.3v-.1h.1c.2.7.2.6.2.4zM44.8 46.4zM33.9 50.2z"/></g><path class="st8" d="M33.3 49.7c1.2-1.3 3.1-1.3 4.7-1.1.8.1 1.4.5 2 .9.3.2.6.3.9.5.5.3.6.5 1 .1.5-.4.7-.9 1.2-1.3s.9-.9 1.1-1.5c.4-1.1.6-1.7-.1-2.7"/><g><path class="st6" d="M49.2 45.8h.1l-.1-.1zM49.1 45.7h0zM49.1 45.7c.1 0 0 0 0 0s-.1 0 0 0zM48.6 45zM48.3 45.2c.1 0 .1.1 0 0 .1.1.2 0 .3 0 0 0 0-.1 0 0s.1 0 0 0l.1-.1c.1 0 .1.1.3.1h-.1c.2 0 .2.2.1.2h.1c.1 0-.1-.1 0-.1H49h.1s0-.1-.1-.1c.1 0 0 0 .1-.1H49c0-.2-.2-.2-.3-.2-.1.1-.1-.1-.2-.1h-.1v.1c-.1-.2-.2-.1-.3-.2-.1-.1-.2-.2-.3 0h-.1c-.1.1-.1-.1-.3 0-.1-.1-.2-.1-.3-.2-.1 0 0-.2-.1-.2 0-.1-.3 0-.3-.1.1-.2-.2.1-.1-.1.1-.3-.1-.2-.3-.2 0-.1-.2 0-.2-.2-.1.1.1-.2 0-.2.1-.1-.2.1 0 0l-.1.1.1-.1s-.1.1-.1 0c.2-.2-.1 0 .1-.2l.1-.1h-.1c-.1.1-.2.1-.2.2l.1-.1-.1.1-.1.1c.1-.1 0 0 0 0-.1.1.1-.1 0 0h.1l.1-.1-.1.1c-.1.1.1-.1 0 .1.1-.1 0 .1.1-.1l-.1.1v.1c.1-.1 0 .1.1 0 0 0-.1.1 0 .1h.1c-.1.1-.1.1-.1.2h.1c-.1.1 0 0 0 .1.2-.1.2 0 .1.2.1 0 .2-.1.2-.2v.1s0 .1 0 0l-.1.1c.1.1.3.1.4.2h.1c0 .1.1 0 .1 0l-.1.1c.1-.1-.1.1.1 0l-.1.1c.1 0 .1 0 .2.1.2-.1.1.1.2 0s.1.1.2.1h.1c.1-.2 0 .2.2 0v.1c0-.1 0 0 .1-.1v.1c.1-.2 0 .1.1 0 0 .2.1 0 .1 0v.1c.2.1.2.1.3.1h-.1.1-.1c.1.1.1 0 .1 0zM48.7 45.3zM45.9 43.7z"/></g><g><path class="st6" d="M55.5 51.2zM55.6 51.2s0-.1 0 0l-.1.1c-.1 0 .1-.2.1-.1zM55.6 51.2s.1 0 0 0c0 0 .1-.1 0 0zM54.6 52.9z"/><path class="st6" d="M54.2 53.4c.1-.1.3-.1.4-.2.3-.2.5-.5.7-.8v-.1c.1 0 .1-.2.2-.2 0 0 0-.1-.1-.1.2-.2.3-.4.3-.7h.1c-.1-.2 0-.3-.1-.4l-.1.1c0 .1.1 0 .1.1h0s0 .1.1.1c-.1 0 0 .1-.1.1l.1.1c-.2.2-.4.5-.7.8 0 .3-.3.2-.4.4 0 .1-.1.2-.2.2v.1c-.5.1-.9.3-1.4.4-.6.1-1.1.2-1.5.5-.1.1-.3 0-.4.1-.4.2-.7-.1-1.1 0-.4-.1-.9-.2-1.4-.3-.4-.1-.6-.4-.9-.6-.3-.3-.8-.3-1-.6-.1-.3-.6-.1-.7-.4-.2-.5-.7-.6-1.1-.7-.3-.3-.8-.4-1-.8-.2 0-.2-.4-.4-.5 0-.2-.3 0-.2-.1 0-.1-.2.1-.2 0v-.1s-.1.1-.1 0c.1-.2-.1 0 0-.2 0 0 0-.1.1-.1 0 0-.1-.1-.1 0-.1.1-.2.1-.2.2l.1-.1V49.9c.1-.1.1 0 .1 0 0 .1.2-.1.1 0 .1.1.2.1.4.2.1 0 .1.1.1 0-.1.1 0 .2.1.2 0 .2.2-.1.1.1.1-.1.1.1.2 0v.1l.3.3c.2 0 .2.2.3.1 0 .1.1.2.2.2.1.1.2.1.3.1-.1.2 0 .2 0 .2.1 0 .2.1.3.1 0 .1.1 0 0 .1.4 0 .6.3.9.6.1 0 .2-.1.3-.2.1 0 .1.1.1.1.1 0 .1.1.2.1h.1l-.1.1c.4.3 1 .5 1.4.8h.1c.1.1.3.1.4.1v.1c.1-.1.1.2.2 0v.1c.3 0 .6.1.8.2.3-.1.5.1.7 0 .3-.1.6.1 1 .1.1 0 .2-.1.3-.1.2-.2.5 0 .7-.2v.1c0-.1.1 0 .1-.2h.1c.1-.3.3 0 .4-.2l.1-.1c.2.1.3-.1.5-.1v.1c.1-.1.2-.1.3-.1v-.1.1c-.2.7-.1.6.1.5zM55.2 52.5zM42.9 50.2c-.1 0-.1 0 0 0z"/></g><path class="st7" d="M42.5 50.2c.8.9 1.9 1.3 2.7 2 .5.5 1.1.8 1.7 1.2.7.4 1.3.9 2.2 1.1.8.2 1.4.2 2.2.2 1.4 0 2.4-.5 3.5-1.2.5-.3 1.7-.7 1.6-1.6"/><g><path class="st6" d="M57 54.5h.1zM57.3 54.5h-.2c0 .2.2 0 .2 0zM57.4 54.6c0 .1.1 0 .1 0-.1.1-.1-.1-.1 0zM52.9 58.8z"/><path class="st6" d="M51.1 59.3c.3-.1.7 0 1.1 0 1-.1 1.8-.4 2.6-1 0 0 0-.1.1-.1.2 0 .4-.4.6-.4v-.1c.5-.5 1.2-1 1.7-1.6h.1c.3-.6.6-1.1.3-1.6 0 0 0 .1-.1.1 0 .1.2.2.1.4 0 .1.1 0 0 .1h-.1c0 .2-.2.4-.2.7-.1 0-.2.2-.3.2 0 .1-.1.1-.1.2-.4.3-.8.7-1.2 1-.4.4-.7.7-1.2.9-.3.4-1 .4-1.5.6-.2.1-.4.2-.7.2l-.2.1c-1.4 0-2.8-.1-4.2-.2-.8 0-1.5-.1-2.3-.2-.7-.1-1.4-.2-2.2-.3l-1.2-.3c-1.1-.1-2.1-.7-3-1-1.1-.6-2.1-1.5-3.1-2.4-.8-.7-1.3-1.6-2.1-2.3-.6-.9-1.8-1.3-2.5-2.2-.4-.6-1.3-.9-1.7-1.4-.9-1-2-1.5-3.2-2.2-.4-.4-.9-.8-1.3-1.3-.4-.4-.9-.9-.9-1.5-.1-.3 0-.6 0-.9.1-.3.1-.6.2-.9.2-.2-.1-.5.2-.6.1-.1-.1-.3 0-.4.1-.1.1 0 .1-.1 0 0-.1-.1 0-.1.2.1.1-.3.4-.2 0 .1.1 0 .1.1 0 0 .2-.2.1-.3-.1-.1-.1-.2-.3-.1v.1h-.1c-.1.2-.2.1-.3.2 0 .1-.1.2-.1.3h-.1c-.1 0 .1.3-.1.2-.1.4-.3.9-.3 1.3.1.1 0 .3.1.2-.1.1-.2.4-.2.5-.2.2.1.3 0 .6.1 0 .1.5.3.6 0 0 0 .1-.1.1.2.4.5.8.7 1 .3.1.4.6.7.6.1.2.3.5.6.6.2.2.6.4.8.5 0 .2.1.2.2.4.2.1.5.3.8.5 0 .1.2.1.2.2.9.3 1.7 1 2.3 1.7h.5c.1.1.2.3.3.4.2.1.2.3.4.4h.1s-.1.1-.1 0c.6.5 1.2.9 1.7 1.4.5.5 1.1 1.1 1.6 1.7H35l.3.2c.2.3.6.5.8.8H36c.3.1.2.4.5.3 0 0 0 .1-.1.1l1.8 1.5c.6.2 1.2.7 1.8.9.8.2 1.7.6 2.5.8.4.1.6.1 1 .2.6-.1 1.3.4 1.9.3l-.1.1c.1-.1.4.1.4-.1l.1.1c.5-.2.8.2 1.3 0h.4c.4.2 1 0 1.4 0l-.1.1c.2-.1.6 0 1 0h.2v.1c.3.3.7.2 1.1.2zM54.9 58.3zM24.8 40.7z"/></g><path class="st7" d="M24.4 43.8v.5c.1.5.5.9.8 1.3.7.8 1.5 1.6 2.4 2.2 1.3 1 2.7 1.8 3.8 2.9.7.7 1.7 1.4 2.4 2.2 1 1.2 2 2.3 3.2 3.3.9.8 2 1.6 3 2 1.5.7 2.9.9 4.5 1.3 1.5.3 3.1.3 4.6.3 1.2 0 2.5.1 3.7-.1 1.1-.2 2-.5 2.8-1.3.5-.4.9-.8 1.4-1.2.4-.3.7-.7.8-1.2"/><g><path class="st6" d="M57.6 55.1v.1l.1-.1zM57.9 55.3l-.2-.1c0 .1.2 0 .2.1zM57.9 55.4c0 .1.1.1.1.1 0-.1 0-.2-.1-.1zM53.5 60.4zM51.6 61.1c.2-.1.4-.3.4-.4.1-.1.4 0 .6-.1h.8c.3 0 .5-.1.8-.2.2-.1.5-.2.7-.4.1-.1.2-.2.3-.2.1-.1.1-.2.2-.3v0l.1-.1v.1c.3 0 .6-.3.7-.3v-.1c.2-.2.3-.4.7-.5.4 0 .3-.1.5-.4.3-.3.6-.4.6-.6h.1c.1-.4.3-.7.2-.7-.2-.4-.2-.9-.3-1.2-.1 0 0 .1-.1 0 0 .2.2.3.2.6 0 .2.1 0 .1.2 0 .1-.1 0-.1 0 0 .1.1.4.2.4 0 0 0 .1-.1.2-.1 0-.1.1-.2.2 0 .1-.1.1-.1.2s0 .1-.1.1v.1c-.1.1-.3.2-.6.4-.1.1-.2.2-.2.3l-.1.1s-.2 0-.4.1c-.1.1-.2.2-.3.2 0 0-.2.2-.3.2-.1.1-.4.1-.6.3-.2.1-.2.4-.2.4-.1.2-.4.4-.7.5-.3.1-.6.2-.9.2-.2.1-.5.1-.8 0l-.2.1H52s-.1 0-.1.1c-.1 0-.1.1-.1.1-.1.2-.2.2-.4.3-.3.1-.7.2-1.1.3-.7.1-1.5-.4-2.4-.1-.5.2-.7.3-1.2.2-.2 0-.4-.1-.5-.1-.1-.1-.4-.3-.6-.3-.5-.1-.9-.1-1.4-.1-.1 0-.3.1-.4.2 0-.1-.1-.1-.1-.1-.1.1-.3 0-.5 0-.5-.1-.8-.4-1.3-.6-.6-.2-1.3-.2-1.9-.2-.6-.1-1-.4-1.5-.8-.2-.3-.6-.5-1-.5-.4.1-.7-.2-.9-.5-.3-.3-.5-.6-.8-.8-.3-.3-.7-.4-1-.6-.3-.1-.5-.3-.6-.6 0-.1 0-.3-.1-.4 0-.1 0-.4-.1-.5-.4 0-.6 0-.8-.2-.2-.2-.3-.5-.5-.7l-.6-.6-.3-.3s0-.1-.1 0c.1 0 0 0 0-.1s0-.2-.1-.2c-.2-.1-.4-.1-.5-.1-.2-.1-.3-.1-.5-.2-.3-.2-.7 0-1-.1-.3-.2-.7-.4-1.2-.5-.2-.1-.4-.2-.5-.4-.1-.2-.2-.2-.4-.3-.2 0-.4-.1-.5-.1-.1-.1-.3-.2-.4-.3-.1-.1-.3-.2-.4-.4-.1-.1-.2-.3-.4-.4-.3-.3-.7-.4-1-.5-.4 0-.7-.2-1-.5-.1-.2-.3-.5-.4-.7-.2-.2-.2-.5-.4-.6-.1-.1-.5-.1-.6-.3-.1-.3-.1-.4-.1-.7 0-.3-.2-.8.1-1.2.1-.6.6-1.2.8-1.8h-.1c.2-.2.1-.6.3-.6.2-.1-.1-.4.1-.4.1-.1.1 0 .1-.1 0 0-.1-.1 0-.1.2.1.2-.3.4-.2-.1.1.2 0 .1.1.1 0 .2-.2.1-.3-.1-.1-.1-.2-.2-.2v.1h-.1c-.1.2-.3.1-.4.2 0 .1-.1.2-.2.3h-.1c-.1 0 0 .3-.1.2-.2.4-.4.9-.6 1.3 0 .1-.1.3 0 .3-.2.1-.3.4-.4.5-.2.2 0 .3-.2.5.1 0 0 .1 0 .3-.1.1-.1.4 0 .4 0 0-.1.1-.1 0v.7c0 .2-.1.4 0 .7.1.2.2.3.4.4l.2.1h.1l.1.1c0 .1.1.3.2.4.1.1.2.3.3.4.2.3.6.7.9.7.1.2.2.2.3.3.2 0 .6.2.9.3 0 .1.2.2.1.2.1 0 .2.2.3.3.1.1.2.2.4.3l.4.2c.6.3.8.3.9.3h.3c.1 0 0 0 .1.2.2.4.5.5.8.7.2 0 .3-.1.5-.1.2.1.3.3.5.3h-.1c.2 0 .5.1.7 0h.1s0 .1-.1.1c.2 0 .3.1.5.2.1.1.3.1.4.2h.2l.1.2.1.1.3.3.6.6c.2.2.3.4.5.7.1.1.3.3.5.3h.3s0 .1.1.1c0 0 .1.1.1.2 0 .2 0 .5.2.7.2.2.4.3.6.4 0 0-.1 0 0 .1.3 0 .4.3.6.2v.1c.3.1.6.5.9.8l.5.5c.1.1.2.2.3.2.1.1.3.1.4.1.3-.1.7.1.9.3.3.3.6.6.9.7.5.2 1 .2 1.5.2s1 .2 1.4.4c.4.2.7.3 1.1.4.2 0 .4.1.6 0 .2 0 .4-.2.5-.2.3 0 .7.1 1.1 0l-.1.1c.1-.1.4.1.4 0l.1.1c.3 0 .4.2.7.3.2.1.5.1.8.1.2 0 .3-.1.5-.1.3 0 .5-.2.7-.2.3-.1.5-.1.8 0l-.1.1c.3-.1.7.2 1.1.1l.2-.1v.1c.4 0 .8-.1 1.2-.4zM55.4 59.4c0 .1 0 .1 0 0zM23.7 42.9c0-.1 0-.1 0 0 0-.1 0-.1 0 0z"/></g></g></svg>