<svg id="Layer_1" xmlns="http://www.w3.org/2000/svg" viewBox="0 0 128 128"><style>.st0{fill:#e3000b}.st1{fill-rule:evenodd;clip-rule:evenodd}.st1,.st2{fill:#fff}</style><path class="st0" d="M3 0h121.9v128H3z"/><path class="st1" d="M41.9 79.3C44.5 87 47.8 95.7 57.1 95c-.7-6.5.7-15.1 5.9-16 3.9-.7 5.6 2.4 5.7 5.9.2 5.7-4.1 11.2-7.4 12.8 1.3 1.1 2.6 1.5 4.8 1.2C75 97.6 72.3 80.8 84.2 82c-.9-5.8-1.8-13.3-.9-20.8.3-2.4 1.6-7.5 3.5-7.7 4.4-.5 3.6 11.2 3.4 15.8-.3 6.6-1.4 11.6-2.8 16.4 1 2.3 1.7 6.1 3.4 6.2 3.6.2 3.7-5.5 5.4-5.1 2.9 1.1-5.6 16-10.2 3.7-.4 5.9-10.8 21.1-13 7-2.4 1.9-4.2 6.7-11 5.4-1.9-.4-2.4-2.4-3.9-3.9-3.6.7-7.1 0-9.5-1.8-5.5-4-10.5-18.3-8.6-22 11 1.4 18.8-5.4 18.7-15.5 0-6-3.8-12.7-10.1-11.3-9.2 2-11.8 21.6-10.7 34.8.4 4.5.4 8.8.9 12.8.5 3.9 2.4 10.4.3 11.3-1.8.6-2.3-7.3-2.7-11.6-1.7-17.6-2.7-43.1 9.5-50.3 9.5-5.6 15.9 6.7 14.6 16.4-1.5 9.9-6.9 18.4-18.6 17.5zm44.3 2c1.8-6.5 2.9-16.2 1.2-23.5-.4 0-.7-.1-.9-.3-2.7 5.8-1.6 17.5-.3 23.8zM59.4 94.4c3.9-1.7 8.5-5.4 6.5-11-5.6-2.4-8.4 5.8-6.5 11zm16.4 4.5c6.6-.6 6.9-7.6 9.2-12.5-7.8-2.1-12.4 6.3-9.2 12.5z"/><path class="st2" d="M15.7 27.6h-2.8l5.4-14h2.4l5.3 14h-2.9L22 24.7h-5.2l-1.1 2.9zm3.7-10l-1.7 4.5H21l-1.6-4.5zm10.2 5.7v.2c0 1.2.7 1.9 1.7 1.9 1.1 0 1.8-.7 1.8-1.8 0-1.5-.8-1.6-2.3-2.1-2.1-.7-3.2-1.9-3.2-3.8 0-2.6 1.6-4.3 4-4.3 2.3 0 3.7 1.5 3.8 4h-2.5v-.1c0-.9-.6-1.5-1.5-1.5s-1.5.6-1.5 1.6c0 .4.1.7.3 1 .5.6 1.5.7 2.6 1.1 1.9.7 2.8 1.8 2.8 3.7 0 2.9-1.7 4.8-4.4 4.8-2.5 0-4.2-1.8-4.2-4.6h2.6zm16.7 0v.2c0 1.2.7 1.9 1.7 1.9 1.1 0 1.8-.7 1.8-1.8 0-1.5-.8-1.6-2.3-2.1-2.1-.7-3.2-1.9-3.2-3.8 0-2.6 1.6-4.3 4-4.3 2.3 0 3.7 1.5 3.8 4h-2.5v-.1c0-.9-.6-1.5-1.5-1.5s-1.5.6-1.5 1.6c0 .4.1.7.3 1 .6.6 1.5.7 2.6 1.1 1.9.7 2.8 1.8 2.8 3.7 0 2.9-1.7 4.8-4.4 4.8-2.5 0-4.2-1.8-4.2-4.6h2.6zm8.5 4.3v-14h7.6v2.5h-4.8v3.2h4.8v2.4h-4.8v3.5h4.8v2.5h-7.6zm10.6 0v-14H73v2.5h-4.8v3.2H73v2.4h-4.8v3.5H73v2.5h-7.6zm10.7 0v-14h2.6l5.8 8.9v-8.9h2.7v14h-2.5l-5.8-9.2v9.2h-2.8zm20.7-14h2.7v14h-2.7v-14zm5.8 14v-14h2.6l5.8 8.9v-8.9h2.7v14h-2.5l-5.8-9.2v9.2h-2.8z"/></svg>