<svg id="Layer_1" xmlns="http://www.w3.org/2000/svg" viewBox="0 0 128 128"><style>.st0{fill-rule:evenodd;clip-rule:evenodd;fill:#FFF}.st1{fill:#383838}</style><path class="st0" d="M0 25.7h128v76.6H0z"/><path class="st1" d="M21.9 40.8h2L28 51.5h-2l-1-2.8h-4.3l-1 2.8h-1.9l4.1-10.7zm-.6 6.5h3.3L23 42.7l-1.7 4.6zM31 48c0 .4.1.8.2 1 .1.3.3.5.6.7.2.2.5.3.9.4.3.1.7.1 1.1.1.4 0 .8 0 1-.1.3-.1.5-.2.7-.4.2-.1.3-.3.4-.5.1-.2.1-.4.1-.6 0-.4-.1-.7-.3-.9-.2-.2-.4-.3-.6-.4-.4-.1-.8-.3-1.3-.4-.5-.1-1.1-.3-1.9-.5-.5-.1-.8-.3-1.1-.5s-.5-.4-.7-.7c-.2-.2-.3-.5-.4-.8-.1-.3-.1-.5-.1-.8 0-.5.1-1 .3-1.4.2-.4.5-.7.9-1 .4-.3.8-.5 1.3-.6.5-.1.9-.2 1.4-.2.6 0 1.1.1 1.6.2s.9.4 1.3.7c.4.3.7.6.9 1.1.2.4.3.9.3 1.5h-1.9c-.1-.7-.3-1.2-.7-1.5-.4-.3-1-.4-1.6-.4-.2 0-.4 0-.7.1-.2 0-.4.1-.6.2-.2.1-.3.2-.5.4-.1.2-.2.4-.2.7 0 .4.1.7.4.9.2.2.5.4.9.5 0 0 .2.1.5.1.3.1.6.2.9.2.3.1.7.2 1 .3.3.1.6.1.7.2.3.1.7.3.9.4.3.2.5.4.7.7.2.2.3.5.4.8.1.3.1.6.1.8 0 .6-.1 1.1-.4 1.5-.2.4-.6.8-1 1-.4.3-.9.5-1.4.6-.5.1-1 .2-1.6.2-.6 0-1.2-.1-1.7-.2s-1-.4-1.4-.7c-.4-.3-.7-.7-1-1.2-.2-.5-.4-1.1-.4-1.7h2zM46.4 48c0 .4.1.8.2 1 .1.3.3.5.6.7.2.2.5.3.9.4.3.1.7.1 1.1.1.4 0 .8 0 1-.1.3-.1.5-.2.7-.4.2-.1.3-.3.4-.5.1-.2.1-.4.1-.6 0-.4-.1-.7-.3-.9-.2-.2-.4-.3-.6-.4-.4-.1-.8-.3-1.3-.4-.5-.1-1.1-.3-1.9-.5-.5-.1-.8-.3-1.1-.5s-.5-.4-.7-.7c-.2-.2-.3-.5-.4-.8-.1-.3-.1-.5-.1-.8 0-.5.1-1 .3-1.4.2-.4.5-.7.9-1 .4-.3.8-.5 1.3-.6.5-.1.9-.2 1.4-.2.6 0 1.1.1 1.6.2s.9.4 1.3.7c.4.3.7.6.9 1.1.2.4.3.9.3 1.5h-1.9c-.1-.7-.3-1.2-.7-1.5-.4-.3-1-.4-1.6-.4-.2 0-.4 0-.7.1-.2 0-.4.1-.6.2-.2.1-.3.2-.5.4-.1.2-.2.4-.2.7 0 .4.1.7.4.9.2.2.5.4.9.5 0 0 .2.1.5.1.3.1.6.2.9.2.3.1.7.2 1 .3.3.1.6.1.7.2.3.1.7.3.9.4.3.2.5.4.7.7.2.2.3.5.4.8.1.3.1.6.1.8 0 .6-.1 1.1-.4 1.5-.2.4-.6.8-1 1-.4.3-.9.5-1.4.6-.5.1-1 .2-1.6.2-.6 0-1.2-.1-1.7-.2s-1-.4-1.4-.7c-.4-.3-.7-.7-1-1.2-.2-.5-.4-1.1-.4-1.7h2zM55.6 40.8h7.7v1.6h-5.8v2.8h5.4v1.5h-5.4v3.1h5.9v1.6h-7.8V40.8zM65.8 40.8h7.7v1.6h-5.8v2.8h5.4v1.5h-5.4v3.1h5.9v1.6h-7.8V40.8zM75.9 40.8h2l4.9 7.9v-7.9h1.8v10.7h-2l-4.9-7.9v7.9h-1.8V40.8zM92.4 40.8h1.9v10.7h-1.9V40.8zM97.3 40.8h2l4.9 7.9v-7.9h1.8v10.7h-2l-4.9-7.9v7.9h-1.8V40.8z"/><g><path class="st1" d="M102.6 85.1h.7c1.2-.1 1.9-.8 1.9-2.3V69.3c0-1.5-1.8-1.8-2.6-2.2v-.7c3.6-1.5 5.6-2.7 6-2.7.3 0 .4.1.4.6v4.3h.1c1.2-1.9 3.3-5 6.3-5 1.2 0 2.8.8 2.8 2.6 0 1.3-.9 2.5-2.3 2.5-1.5 0-1.5-1.2-3.3-1.2-.8 0-3.6 1.1-3.6 4v11.3c0 1.5.8 2.2 2 2.3h.8v1.2h-9.3v-1.2zM18.2 85.3C12.6 83.5 9 78.6 9 72.4c0-7.4 7.4-12.7 14.8-12.7 3.1 0 6.1.9 9 1.9l.4 5.2h-1c-.7-4.2-4.1-5.6-8.4-5.6-4.4 0-9.5 2.4-9.5 11.1 0 7.3 4.4 12.6 10.3 12.6 3.8 0 6.9-2.5 7.7-6.3l.9.2-.9 5.3c-.5.3-6.2 3.9-14.1 1.2M43.7 86.3h-9.2v-1.2h.3c1.3 0 2.2-.3 2.2-1.5V65c0-2.4-.7-3.7-2.5-4.1v-.6c1.9-.5 3.7-1.1 4.7-1.6.5-.2.9-.4 1-.4.3 0 .9.2.9.5v24.7c0 1.2 1 1.5 2.3 1.5h.1v1.3zM67.9 84.7l-.6-5.5.9-.2c.6 3.2 2.6 5.9 6.2 5.9 2.9 0 4-1.7 4-3.4 0-5.7-10.7-3.9-10.7-11.6 0-2.7 2.2-6.2 7.6-6.2 1.6 0 3.7.4 5.6 1.4l.3 4.9h-1.1c-.5-3-2.2-4.8-5.4-4.8-2 0-3.8 1.1-3.8 3.2 0 5.6 11.4 3.9 11.4 11.5 0 2-1 4.1-3.3 5.3-5 2.7-11.1-.5-11.1-.5M43.1 75.1c0-6.4 4.7-11.5 11.3-11.5 6.8 0 12 4.5 12 11.3-.1 5-4.1 11.5-12 11.3-9.4-.4-11.3-7.4-11.3-11.1m4.5-.4c0 3.8 2 10.1 6.8 10.5h1c4.5-.4 6.3-5.7 6.3-9.8 0-4-2.2-10.6-7.4-10.6-4.7.1-6.7 5.7-6.7 9.9M83.6 75.9c0-9.4 6.5-12.2 10-12.2 4 0 8.3 2.5 8.3 7.6 0 .3 0 .6-.1.9l-.4.3H87.5c-.1.4-.1 1.2 0 2.8.3 4.6 3.3 8.3 7.2 8.3 2.7 0 4.8-1.4 6.7-3.2l.7.7c-1.3 1.7-4.6 5.4-8.5 5.4-8.8-.3-10-8.3-10-10.6m4-5.1h8.6c1.2 0 1.4-.6 1.4-1.2 0-2.5-1.5-4.4-4.3-4.4-3 0-5.1 2.1-5.7 5.6"/></g></svg>