<svg id="Layer_1" xmlns="http://www.w3.org/2000/svg" viewBox="0 0 128 128"><style>.st0{fill:#e3000b}.st1,.st2{fill:#FFF}.st2{fill-rule:evenodd;clip-rule:evenodd}</style><path class="st0" d="M3 0h121.9v128H3z"/><path class="st1" d="M36.7 106.7V92.6h2.7v11.6h4.4v2.5h-7.1zM46.3 95.5c1.4-2 3.6-3.2 6.1-3.2 1.9 0 3.7.8 5 2.1 1.4 1.4 2.2 3.2 2.2 5.1 0 2-.7 3.8-2 5.2-1.4 1.4-3.2 2.2-5.2 2.2-2.1 0-3.9-.7-5.3-2.2-1.3-1.4-2-3.1-2-5.1 0-1.5.4-2.9 1.2-4.1zm2.9 7.2c.9 1 2 1.5 3.2 1.5 2.4 0 4.4-1.9 4.4-4.6 0-2.4-1.9-4.3-4.3-4.3-2.5 0-4.4 1.9-4.4 4.3-.1 1.1.3 2.2 1.1 3.1zM65.4 106.7l-5.1-14.1h3l3.1 9.4 3.1-9.4h2.9l-5 14.1h-2zM74.1 106.7V92.6h7.6v2.5h-4.9v3.2h4.9v2.4h-4.9v3.5h4.9v2.5h-7.6zM86.7 102.3v.2c0 1.2.7 2 1.7 2 1.1 0 1.8-.7 1.8-1.8 0-1.5-.8-1.6-2.4-2.1-2.2-.7-3.2-1.9-3.2-3.8 0-2.7 1.6-4.4 4-4.4 2.3 0 3.7 1.5 3.9 4.1H90v-.1c0-.9-.6-1.5-1.5-1.5s-1.5.6-1.5 1.6c0 .4.1.7.3 1 .7.5 1.6.5 2.7.9 1.9.7 2.8 1.8 2.8 3.8 0 2.9-1.8 4.8-4.4 4.8-2.5 0-4.2-1.8-4.2-4.7h2.5z"/><path class="st2" d="M41.7 54.9c2.6 7.7 5.8 16.5 15.2 15.8-.6-6.6.7-15.2 5.9-16.1 3.9-.7 5.6 2.4 5.7 5.9.2 5.7-4.1 11.2-7.4 12.8 1.3 1.1 2.6 1.5 4.8 1.2 8.9-1.3 6.2-18.1 18.1-16.9-1-5.9-2-13.3-1-20.9.3-2.4 1.6-7.5 3.5-7.7 4.4-.5 3.6 11.2 3.4 15.8-.3 6.6-1.4 11.6-2.8 16.4 1 2.3 1.7 6.1 3.4 6.2 3.6.2 3.7-5.5 5.4-5.1 2.9 1.1-5.6 16-10.2 3.7-.4 5.9-10.8 21.1-13 7-2.4 1.9-4.2 6.7-11 5.4-1.9-.4-2.4-2.4-3.9-3.9-3.6.7-7.1 0-9.5-1.8-5.5-4-10.5-18.3-8.6-22 11 1.4 18.8-5.4 18.7-15.5 0-6-3.8-12.7-10.1-11.3-9.2 2-11.8 21.6-10.7 34.8.4 4.5.4 8.8.9 12.8.5 3.9 2.4 10.4.3 11.3-1.8.6-2.3-7.3-2.7-11.6-1.7-17.6-2.7-43.1 9.5-50.3 9.5-5.6 15.9 6.7 14.6 16.4-1.5 10-6.8 18.5-18.5 17.6zm44.3 2c1.8-6.5 2.9-16.2 1.2-23.5-.4 0-.7-.1-.9-.3-2.7 5.8-1.6 17.5-.3 23.8zM59.2 70c3.9-1.7 8.5-5.4 6.5-11-5.7-2.4-8.5 5.8-6.5 11zm16.4 4.5c6.6-.6 6.9-7.6 9.2-12.5-7.9-2.1-12.5 6.3-9.2 12.5z"/></svg>