<svg id="Layer_1" xmlns="http://www.w3.org/2000/svg" viewBox="0 0 128 128"><style>.st0{fill:#b2b3b5}.st1{fill:#FFF}</style><ellipse class="st0" cx="64" cy="64" rx="64" ry="64"/><path class="st1" d="M52.8 43.9v1.8h-9.1v5.2h8.5v1.8h-8.5v5.6h9.2v1.8H41.5V43.9h11.3zM64 60.5c-.5 0-.9-.1-1.2-.4-.3-.3-.4-.7-.4-1.4-.5.6-1.2 1.1-1.9 1.4-.7.3-1.5.4-2.3.4-.5 0-1-.1-1.5-.2s-.9-.3-1.2-.6c-.4-.3-.6-.6-.8-1-.2-.4-.3-.9-.3-1.5 0-.7.1-1.2.3-1.6.2-.4.5-.8.9-1 .4-.3.8-.5 1.3-.6.5-.1 1-.3 1.5-.3.5-.1 1-.2 1.5-.2.5-.1.9-.1 1.3-.2s.7-.2.9-.4c.2-.2.3-.5.3-.8 0-.4-.1-.8-.2-1-.2-.3-.4-.5-.6-.6-.3-.1-.5-.2-.8-.3-.3 0-.6-.1-.9-.1-.8 0-1.5.2-2.1.5-.5.3-.8.9-.9 1.8H55c0-.7.2-1.3.5-1.9.3-.5.6-.9 1.1-1.2.5-.3 1-.5 1.6-.7.6-.1 1.2-.2 1.9-.2.5 0 1.1 0 1.6.1s1 .2 1.4.5c.4.2.8.6 1 1 .3.4.4 1 .4 1.7v6.1c0 .5 0 .8.1 1 .1.2.2.3.5.3.2 0 .4 0 .6-.1v1.5c-.6-.1-1.1 0-1.7 0zm-2.7-6c-.4.1-.8.2-1.2.2-.4.1-.9.1-1.3.2l-1.2.3c-.4.2-.6.4-.9.7-.2.3-.3.7-.3 1.2 0 .3.1.6.2.8.1.2.3.4.5.5.2.1.4.2.7.3.3.1.6.1.9.1.6 0 1.2-.1 1.6-.3.5-.2.8-.4 1.1-.7.3-.3.5-.6.6-.9.1-.3.2-.6.2-.9v-2c-.2.3-.5.5-.9.5zM68.5 57.6c.2.3.4.5.7.7.3.2.6.3 1 .4.4.1.8.1 1.2.1.3 0 .6 0 1-.1.3 0 .6-.1.9-.3.3-.1.5-.3.7-.5.2-.2.3-.5.3-.9 0-.5-.2-.9-.6-1.1-.4-.3-.9-.5-1.4-.6-.6-.2-1.2-.3-1.9-.4-.7-.1-1.3-.3-1.9-.5-.6-.2-1-.6-1.4-1-.4-.4-.6-1-.6-1.8 0-.6.1-1.1.4-1.5.3-.4.6-.8 1-1 .4-.3.9-.5 1.4-.6.5-.1 1-.2 1.6-.2.7 0 1.3.1 1.9.2.6.1 1.1.3 1.5.6.4.3.8.7 1 1.1.3.5.4 1.1.5 1.8h-1.9c0-.4-.1-.7-.3-.9-.2-.3-.4-.5-.6-.6-.4-.3-.7-.5-1-.5-.3-.1-.6-.1-.9-.1-.3 0-.6 0-.9.1-.3 0-.6.1-.8.2-.2.1-.4.3-.6.5-.2.2-.2.4-.2.7 0 .3.1.6.4.8.2.2.5.4.9.5.4.1.8.3 1.2.4.5.1.9.2 1.4.3.5.1 1 .2 1.4.4.5.2.9.4 1.2.6.4.3.6.6.9.9.2.4.3.9.3 1.4 0 .7-.1 1.3-.4 1.8-.3.5-.7.9-1.2 1.1-.5.3-1 .5-1.6.6-.6.1-1.2.2-1.8.2-.7 0-1.3-.1-1.9-.2-.6-.1-1.1-.4-1.6-.7-.5-.3-.8-.7-1.1-1.2-.3-.5-.4-1.1-.5-1.9h1.9c.1.5.2.9.4 1.2zM82.2 63.3c-.2.4-.5.7-.7 1-.3.3-.6.4-.9.5-.3.1-.7.2-1.1.2h-.7c-.2 0-.4-.1-.7-.2V63c.2.1.4.1.6.2.2.1.4.1.6.1.4 0 .7-.1 1-.3.2-.2.5-.4.6-.8l.8-2L77 48.5h2.2l3.5 9.7 3.3-9.7h2l-5.1 13.4c-.3.5-.5 1-.7 1.4zM38.3 74.8v1.7H36v7.3c0 .2 0 .4.1.5 0 .1.1.2.2.3.1.1.3.1.4.1h1.6v1.7h-1.5c-.5 0-.9 0-1.3-.1s-.6-.2-.9-.4c-.2-.2-.4-.4-.5-.8 0-.1-.1-.5-.1-1.1v-7.5h-2v-1.7h2v-3.5h2v3.5h2.3zM40 78.3c.2-.8.6-1.4 1.1-2 .5-.6 1.1-1 1.8-1.3.7-.3 1.5-.5 2.5-.5.9 0 1.8.2 2.5.5s1.3.8 1.8 1.3c.5.6.9 1.2 1.1 2 .2.8.4 1.6.4 2.4 0 .9-.1 1.7-.4 2.4-.2.7-.6 1.4-1.1 2-.5.6-1.1 1-1.8 1.3-.7.3-1.5.5-2.5.5-.9 0-1.8-.2-2.5-.5s-1.3-.7-1.8-1.3c-.5-.6-.9-1.2-1.1-2-.2-.7-.4-1.6-.4-2.4 0-.9.1-1.7.4-2.4zm2 4.3c.2.6.5 1 .8 1.4.3.4.7.7 1.2.9.4.2.9.3 1.4.3s1-.1 1.4-.3c.4-.2.8-.5 1.2-.9.3-.4.6-.8.8-1.4.2-.6.3-1.2.3-1.9s-.1-1.4-.3-1.9c-.2-.6-.5-1-.8-1.4-.3-.4-.7-.7-1.2-.9-.4-.2-.9-.3-1.4-.3s-1 .1-1.4.3c-.4.2-.8.5-1.2.9-.3.4-.6.8-.8 1.4-.2.6-.3 1.2-.3 1.9s.1 1.4.3 1.9zM61.9 70.3v16.3h-2.2V70.3h2.2zM66.7 74.8v2.5c.5-1 1.1-1.7 1.7-2.1.7-.5 1.6-.7 2.6-.6v2.1c-.8 0-1.4.1-2 .3-.5.2-1 .5-1.3.9-.3.4-.6.9-.7 1.5-.2.6-.2 1.3-.2 2v5.3h-1.9V74.8h1.8zM71.7 78.3c.2-.8.6-1.4 1.1-2 .5-.6 1.1-1 1.8-1.3.7-.3 1.5-.5 2.5-.5.9 0 1.8.2 2.5.5s1.3.8 1.8 1.3c.5.6.9 1.2 1.1 2 .2.8.4 1.6.4 2.4 0 .9-.1 1.7-.4 2.4-.2.7-.6 1.4-1.1 2-.5.6-1.1 1-1.8 1.3-.7.3-1.5.5-2.5.5-.9 0-1.8-.2-2.5-.5s-1.3-.7-1.8-1.3c-.5-.6-.9-1.2-1.1-2-.2-.7-.4-1.6-.4-2.4 0-.9.1-1.7.4-2.4zm1.9 4.3c.2.6.5 1 .8 1.4.3.4.7.7 1.2.9.4.2.9.3 1.4.3s1-.1 1.4-.3c.4-.2.8-.5 1.2-.9.3-.4.6-.8.8-1.4.2-.6.3-1.2.3-1.9s-.1-1.4-.3-1.9c-.2-.6-.5-1-.8-1.4-.3-.4-.7-.7-1.2-.9-.4-.2-.9-.3-1.4-.3s-1 .1-1.4.3c-.4.2-.8.5-1.2.9-.3.4-.6.8-.8 1.4s-.3 1.2-.3 1.9c.1.7.1 1.4.3 1.9zM86.7 74.8v1.9c.8-1.4 2.1-2.1 3.8-2.1.8 0 1.4.1 1.9.3.5.2.9.5 1.3.9.3.4.5.8.7 1.4.1.5.2 1.1.2 1.7v7.8h-1.9v-8c0-.7-.2-1.3-.6-1.7-.4-.4-1-.6-1.8-.6-.6 0-1.1.1-1.5.3-.4.2-.8.4-1.1.8-.3.3-.5.7-.7 1.2-.1.4-.2.9-.2 1.5v6.7h-1.9V74.8h1.8z"/></svg>