<svg id="Layer_1" xmlns="http://www.w3.org/2000/svg" xmlns:xlink="http://www.w3.org/1999/xlink" viewBox="0 0 128 128"><style>.st0{fill:#fff}.st1{fill:#bcbdbe}.st2{fill:#666}.st3{fill:#6c6c6c}.st4{clip-path:url(#SVGID_2_)}.st5{fill:none;stroke:#5c5c5c;stroke-width:.3837;stroke-linecap:round;stroke-linejoin:round}.st6{fill:#6a6b6a}.st7{stroke-width:.1853}.st7,.st8{fill:none;stroke:#636464;stroke-miterlimit:10;stroke-dasharray:.278,.3707}.st8{stroke-width:.2376}</style><ellipse class="st0" cx="64" cy="64" rx="62.4" ry="64"/><path class="st1" d="M123.1 69.2h.1-.1zm-.2 0c-.1 0-.1 0 0 0zm0 0h-.1c.1-.1-.1-.1.1 0zm0-.9zm-.6-.2h-.1c.2.1 0 .1.1.1-.1.1.2.2.3.3h-.1c-.2 0 .1.1 0 .1h.2c.1.1.1.2.3.3h-.2c.4.1.2.2.1.2h.2c.1 0-.2-.1-.1-.1h.1s0-.1-.2-.1h.2-.2c.1-.1-.1-.2-.1-.4-.4-.1.1-.1 0-.2-.1 0-.1-.1-.1-.1h-.2c.3-.1.1-.3.3-.5.1-.2.4-.3-.1-.5h.1c-.1-.1.1-.1 0-.1-.3-.1.1-.2-.3-.4 0-.1 0-.3-.1-.5h.1c-.2-.1.3-.2.1-.3.2-.1-.4-.3-.2-.4.4-.1-.4-.2 0-.2.6-.1.2-.3-.1-.4.2-.1-.3-.3.1-.4-.3-.1.3-.1.3-.2h-.1c.3 0-.4-.1 0-.1h-.3.6-.6.2H121.9c.2 0 .1 0 0 0h-.1c-.2 0 .4 0 0 0 .1 0 .1.1.1.1h.2c-.3 0-.3 0-.3.1 0 0-.1 0 0 0-.3 0 .3 0-.1.1.3 0-.1 0 .3.1h-.2l-.1.1c.3 0-.1.1.2.1-.1 0-.2.1-.1.1 0 0 0 .1.3.1h-.4c.2 0 .1.1.3.1h-.2c.4.1.3.2-.1.3.1 0 .4 0 .6.1h-.1s-.2 0-.1.1h-.1c.1 0-.2 0 0 .1h-.1.1-.2c-.1.2.3.3.2.5h-.1c-.1 0 .1.1 0 .1h-.2c.2 0-.3 0 .2.1h-.2c.1.1.1.2.1.3.4.1 0 .2.3.2h-.1c.3.1 0 .2 0 .3l.1.1h-.1c.4.1-.3.1.1.2h-.1c.2 0-.1 0 .3.1h-.1c.5.1-.2.1.1.2h-.1c.1 0 .1 0 0 0h-.1c-.3 0 0 .1 0 .2h-.2c.2 0 0 .1.1.1h-.1.1-.1c.3-.1.4-.1.4 0zm.1.4zm-.5-4.4zm-1 17h-.1zm-.3-.1l.3.1c.2 0-.4-.1-.3-.1zm.1 0c.1 0-.1 0-.1-.1.1.1-.1.1.1.1zm.1-.8z"/><path class="st1" d="M120.3 79.8h-.1c.2.1 0 .1.1.2-.1.1.1.2.2.4h-.1c-.2 0 .1.1 0 .1 0 0 .1 0 .2.1 0 .1.1.2.2.3h-.2c.3.2.2.2.1.3.1 0 .1 0 .2.1.1 0-.2-.1 0-.1h.1c.1 0-.2-.1-.1-.1h.1s.1-.1-.1-.1h.2c-.1 0-.1 0-.2-.1.1-.1 0-.3 0-.4-.4-.2.1-.1 0-.2-.1 0-.1-.1-.1-.1l-.1-.1c.4-.1.2-.3.3-.4.1-.2.4-.2 0-.5h.1c-.1-.1.1-.1 0-.1-.3-.2.1-.2-.2-.4.1-.1.1-.3 0-.5h.1c-.1-.2.3-.2.2-.3.2-.1-.4-.3-.1-.4.4 0-.4-.3 0-.2.6 0 .3-.2 0-.5.2-.1-.3-.3.2-.4-.2-.1.4-.1.3-.1h-.1c.3 0-.4-.1 0-.1.2 0-.5-.1-.2-.1h-.1.1c.4.1-.1-.1.4 0 0 0 .2 0 .3.1.1 0 0 0-.2-.1-.2 0-.4-.1-.6-.1h.2H120.8c.2 0 .1 0 0 0h-.1c-.2 0 .4.1 0 0 .1.1.1.1 0 .2.1 0 0 0 .2.1h-.3s-.1 0 0 0c-.3 0 .3.1-.1 0 .3.1-.1 0 .2.1h-.2s-.1.1-.2.1c.2.1-.1 0 .2.1-.1 0-.2 0-.1.1 0 0 0 .1.2.2-.3-.1-.3 0-.4 0 .2.1.1.1.2.2h-.2c.4.2.2.3-.1.3.1 0 .4.1.5.2h-.4c.1 0-.2 0 0 .1h-.1.1-.2c-.1.1.2.4.1.6h-.1l.1.1h-.1c-.1 0 .1.1 0 .1h-.1c.2.1-.3 0 .1.1h-.1c.1.1.1.2 0 .3.4.2 0 .2.3.3h-.1c.2.2-.1.2 0 .3v.1h-.1c.3.2-.4.1 0 .2h-.1c.2.1-.1 0 .3.1h-.1c.4.2-.2 0 0 .2h-.1c.1 0 .1.1 0 .1h-.1c-.3 0 0 .1 0 .2h-.1c.2.1 0 .1.1.1h-.1.1-.1c.4-.8.5-.7.5-.7zm0 .5zm.4-4.5zm-4.4 16.5h-.1zm-.3-.2l.2.2c.3.1-.3-.2-.2-.2zm.1 0c.1 0-.1-.1-.1-.1.1.1-.1.1.1.1zm.3-.7z"/><path class="st1" d="M116 90.9l-.1-.1c.1.2-.1.1.1.1l-.1.1c-.1.1.1.3.1.4h-.1l.1.1h-.1c-.2-.1.1.1-.1.1 0 0 .1.1.2.1 0 .1 0 .2.1.4 0 0-.1 0-.1-.1.3.2.1.2 0 .3.1 0 .1 0 .2.1.1 0-.2-.1 0-.1h.1c.1 0-.2-.1-.1-.1s.1.1.1.1.1 0-.1-.2c.2.1 0 0 .2 0-.1 0 0 0-.2-.1.1-.1 0-.3.1-.4-.3-.2.1-.1 0-.2s-.1-.1 0-.1l-.1-.1c.4 0 .2-.2.4-.3.2-.1.5-.1.1-.5h.1c0-.1.1-.1 0-.1-.2-.2.1-.2-.1-.5.1-.1.1-.3.1-.4h.1c-.1-.2.3-.1.3-.3.2 0-.3-.4 0-.4.4.1-.3-.3.1-.2.6.1.3-.2.1-.4.2 0-.2-.4.3-.3-.2-.2.4 0 .3-.1h-.1c.3.1-.3-.2.1-.1.2.1-.5-.2-.2-.1h-.1s.1 0 .2.1c0 0-.2-.1-.1-.1.4.2-.1-.1.4.1 0 0 .2.1.3.1l-.2-.1c-.2-.1-.4-.2-.5-.2l.1.1c-.1-.1-.1 0-.2-.1 0 0-.2-.1-.3-.1.2.1.1.1 0 0h-.1c-.2-.1.3.2 0 0 .1.1 0 .1 0 .2.1.1 0 0 .2.1-.2-.1-.3-.1-.3-.1-.3-.1.3.2-.1 0 .3.1-.1 0 .2.2-.1 0-.1 0-.2-.1 0 0-.1 0-.2.1.2.1-.1 0 .2.2h-.1s0 .1.2.2c-.3-.1-.3-.1-.4-.1l.2.2c-.1-.1 0 .1-.2 0 .4.3.2.3-.2.3.1.1.4.2.5.3h-.4c.1.1-.2 0 0 .1h-.1.1c-.1 0-.2-.1-.1-.1-.1.1.1.4 0 .6h-.1l.1.1h-.1c-.1 0 0 .1 0 .1l-.1-.1c.2.1-.3-.1.1.1l-.1-.1c.1.1 0 .2-.1.3.3.2 0 .2.2.4h-.1c.2.2-.1.2-.1.3v.1h-.1c.3.2-.4 0 0 .2l-.1-.1c.2.1-.1 0 .2.2h-.1c.4.3-.2 0 0 .2h-.1c.1 0 .1.1 0 .1h-.1c-.3-.1 0 .1-.1.2l-.1-.1c.2.1 0 .1 0 .1h-.1l.1.1-.1-.1c.2-.6.3-.5.3-.5zm-.1.5zm1.2-4.3c.1 0 .1 0 0 0zm-7.6 15.2v.1l-.1-.1zm-.2-.2l.2.2c.2.1-.3-.3-.2-.2z"/><path class="st1" d="M109.3 102.1c.1 0-.1-.1-.1-.1l.1.1zm.5-.7z"/><path class="st1" d="M109.5 100.9l-.1-.1c.2.2-.1.1 0 .2-.1.1 0 .3 0 .4h-.1l.1.1-.1-.1c-.2-.1.1.1-.1 0l.1.1c0 .1 0 .2.1.4l-.1-.1c.2.3.1.3 0 .3.1.1.1.1.2.1.1.1-.2-.2 0-.1l.1.1c.1 0-.2-.1-.1-.1s.1.1.1.1c0-.1.1 0-.1-.2l.2.1c-.1-.1 0-.1-.1-.1.2 0 .1-.2.2-.3-.3-.3.1-.1.1-.2-.1-.1-.1-.1 0-.1l-.1-.1c.4.1.3-.2.5-.2.2-.1.5 0 .2-.5h.1c0-.1.1 0 .1-.1-.2-.3.2-.2 0-.5.1-.1.2-.2.2-.4h.1c-.1-.2.3 0 .3-.2.2 0-.2-.5.1-.4.3.2-.2-.4.1-.2.6.2.3-.1.1-.4.3 0-.1-.4.3-.3-.2-.2.4.1.3 0l-.2-.1c.2.1-.3-.3.1 0 .2.1-.4-.3-.2-.2l-.1-.1.1.1s-.2-.1-.1-.1c.4.2-.1-.1.3.2 0 0 .2.1.2.2l-.1-.1c-.2-.1-.3-.2-.5-.3l.1.1c-.1-.1-.1 0-.2-.1 0 0-.2-.1-.3-.2.2.1 0 .1 0 .1h-.1c-.2-.1.3.2 0 0v.2c.1.1 0 0 .2.1-.2-.1-.3-.2-.3-.1-.3-.2.2.2-.1 0 .2.2-.1 0 .2.2-.1 0-.1-.1-.1-.1h-.2c.2.2-.1 0 .1.2-.1 0-.2-.1-.1 0 0 0 0 .1.2.2-.3-.2-.2-.1-.3-.2.1.1 0 .1.1.2-.1-.1 0 .1-.2-.1.3.3.1.3-.2.2l.4.4s-.2-.1-.1 0h-.1c.1.1-.2-.1 0 0h-.1l.1.1c-.1 0-.2-.1-.1-.1-.2.1.1.5-.1.6h-.1l.1.1h-.1c-.1 0 0 .1 0 .1l-.1-.1c.1.2-.2-.1.1.1l-.1-.1c.1.2 0 .2-.1.2.3.3-.1.1.1.4h-.1c.2.2-.1.1-.2.3v.1l-.1-.1c.3.3-.4-.1-.1.2l-.1-.1c.2.1-.1 0 .2.2l-.1-.1c.3.3-.2-.1 0 .2l-.1-.1c0 .1.1.1 0 .1-.3-.2 0 .1-.1.1l-.1-.1c.1.1 0 .1 0 .1h-.1.1v-.2c-.1 0 0 .1 0 .2zm-.2.4zm2.1-3.9zm-10.5 13.4l-.1-.1zm-.2-.3l.2.2c.1.2-.3-.3-.2-.2zm0 .1c.1.1 0-.1-.1-.1.1 0 0-.1.1.1zm.6-.6zM101.1 109.4l-.1-.1c.1.2-.1.1 0 .2-.1 0 0 .3-.1.4v-.1l.1.1v-.1c-.2-.2 0 .2-.1 0l.1.1c0 .1-.1.2 0 .4l-.1-.1c.2.3 0 .3-.1.3.1.1.1.1.1.2.1.1-.1-.2 0-.1l.1.1s-.1-.2-.1-.1l.1.1c0-.1.1 0 0-.2.1.1 0 0 .2.1 0-.1 0-.1-.1-.2.2 0 .1-.2.2-.3-.2-.3.1 0 .1-.2v-.1l-.1-.1c.3.2.3-.1.5-.1s.5.1.3-.4v.1c0-.1.1 0 .1-.1-.1-.3.2-.1.1-.5.1-.1.2-.2.3-.4l.1.1c0-.2.3 0 .3-.1.2 0-.1-.5.1-.4.3.2-.2-.4.2-.2.5.3.4 0 .2-.4.2.1 0-.4.4-.2-.1-.2.3.2.3.1l-.1-.1c.2.2-.2-.3.1 0 .2.1-.3-.4-.1-.2l-.1-.1.1.1-.1-.1c.3.3 0-.1.3.3l.2.2-.1-.2c-.1-.2-.3-.3-.4-.4l.1.1-.1-.1s-.2-.2-.3-.2c.1.1 0 .1 0 .1l-.1-.1c-.1-.1.2.3 0 0 0 .1 0 .1-.1.1.1.1 0 0 .1.2-.2-.2-.3-.2-.3-.2-.3-.2.2.3-.1 0 .2.2-.1 0 .1.2l-.1-.1h-.2c.2.2-.1 0 .1.2-.1 0-.2-.1-.1 0 0 0 0 .1.1.3l-.3-.3c.1.1 0 .1.1.3-.1-.1 0 .1-.1-.1.2.4 0 .4-.3.2.1.1.3.3.4.5 0 0-.2-.1-.1-.1v-.1c.1.1-.2-.1 0 0v.1l-.1-.1c-.2.1 0 .5-.2.5v-.1l.1.1v-.1c-.1-.1 0 .1-.1.1l-.1-.1c.1.2-.2-.2.1.2l-.1-.1c0 .2 0 .2-.2.2.2.3-.1.1.1.4l-.1-.1c.1.3-.2.1-.2.2-.1 0 0 .1 0 .1l-.1-.1c.2.3-.3-.2-.1.2l-.1-.1c.1.2-.1 0 .2.2l-.1-.1c.3.4-.2-.1-.1.2l-.1-.1v.1c-.3-.2-.1.1-.1.1l-.1-.1c.1.2 0 .1 0 .1v-.1l.1.1-.1-.1c-.3 0-.3.1-.3.2zm-.2.4zm2.8-3.5zM90.7 117.3v.1-.1zm-.1-.2s0-.1 0 0l.1.3c.1.1-.2-.4-.1-.3z"/><path class="st1" d="M90.6 117.1c0 .1 0-.1-.1-.1.1.1 0-.1.1.1zm.7-.5zm-.1-.6l-.1-.1c.1.2-.1 0-.1.2-.1 0-.1.3-.1.4v-.1s.1.1 0 .1v-.1c-.1-.2 0 .2-.1 0 0 0 0 .1.1.2 0 .1-.1.2-.1.4 0 0 0-.1-.1-.1.1.4 0 .3-.1.3 0 .1.1.1.1.2.1.1-.1-.2 0-.1v.1s-.1-.2 0-.1c0 .1.1.1.1.1s.1 0 0-.2c.1.2 0 0 .1.1 0-.1 0-.1-.1-.2.2 0 .2-.2.3-.2-.1-.4.1 0 .1-.1v-.1l-.1-.2c.3.2.3-.1.5 0 .2 0 .5.2.4-.4v.1c0-.1.1 0 .1-.1 0-.3.2-.1.2-.4.1 0 .3-.1.3-.3v.1c0-.2.3.1.4-.1.2.1 0-.5.2-.4.3.3-.1-.5.2-.2.4.4.4 0 .3-.3.2.1.1-.4.4-.1-.1-.3.3.2.3.1l-.1-.1c.2.2-.2-.4.1 0l-.1-.2-.1-.1.1.1s-.1-.2-.1-.1c.2.4 0-.1.2.3l.1.2-.1-.2c-.1-.2-.2-.4-.3-.5l.1.1c-.1-.1 0-.1-.1-.2 0 0-.2-.2-.2-.3.1.2 0 .1 0 .1v-.1c-.1-.2.2.3 0 0 0 .1 0 .1-.1.1.1.1 0 0 .1.2-.2-.2-.2-.3-.2-.2-.2-.3.1.3-.1-.1.2.3-.1-.1.1.2 0-.1-.1-.1-.1-.2 0 0-.1-.1-.2 0 .1.2-.1-.1 0 .3-.1-.1-.2-.2-.1 0v.3c-.2-.3-.2-.2-.2-.3.1.1 0 .1 0 .3-.1-.1 0 .1-.1-.1.1.4 0 .4-.3.1.1.1.2.4.3.5v-.1l-.1-.1v-.1c0 .1-.1-.1-.1 0v-.1.1c0-.1-.1-.2-.1-.1-.2 0-.1.4-.3.5v-.1c-.1-.1 0 .1-.1.1 0 0 0-.1-.1-.1.1.2-.2-.2 0 .2l-.1-.1c0 .2-.1.2-.2.2.1.4-.1.1 0 .4v-.1c.1.3-.2.1-.2.2-.1 0 0 .1-.1.1v-.1c.1.4-.3-.2-.2.2l-.1-.1c.1.2-.1 0 .1.3l-.1-.1c.2.4-.2-.1-.1.2v-.1c-.2-.3-.1.1-.1.1l-.1-.1c.1.2-.1 0 0 .1v-.1.1l-.1-.1c.3 0 .4.2.3.2zm-.3.4zm3.5-2.8zM79.4 121.7v.1-.2zm0-.3v.3c.1.2-.1-.4 0-.3zm0 .1v-.1.1zm.8-.4zm0-.6v-.1c0 .2-.1 0-.1.1-.1 0-.1.2-.2.4v-.1c-.1-.2 0 .2-.1 0v.2c-.1.1-.1.1-.2.3v-.2c0 .4-.1.3-.2.2 0 .1 0 .1.1.2s0-.2 0-.1v.1c0 .1-.1-.2 0-.1v.1s.1 0 0-.2l.1.2v-.2c.1.1.2-.2.3-.2-.1-.4.1 0 .2-.1 0-.1 0-.1.1-.1v-.2c.2.3.3 0 .5.1.2 0 .4.2.5-.3v.1c0-.1.1 0 .1-.1 0-.3.3 0 .3-.4.1 0 .3-.1.4-.2v.1c.1-.2.3.2.4 0 .2.1.1-.5.3-.3.2.3 0-.5.2-.1.3.5.3.1.4-.3.2.2.1-.4.4 0 0-.3.2.3.3.2v-.1c.1.3-.1-.4.1 0 .1.2-.1-.5 0-.2v-.1s0 .1.1.1c0 0-.1-.2 0-.1.2.4 0-.1.2.4 0 0 .1.2.1.3v-.2c-.1-.2-.1-.4-.2-.5l.1.2c-.1-.1 0-.1-.1-.2 0 0-.1-.2-.2-.3.1.2 0 .1 0 .1v-.1c-.1-.2.1.3 0 0 0 .1-.1.1-.1.1 0 .1 0 0 .1.2-.1-.2-.2-.3-.2-.3s0-.1 0 0c-.1-.3.1.3-.1-.1.1.3-.1-.1 0 .3 0-.1 0-.1-.1-.2 0 0-.1-.1-.2-.1.1.3-.1-.1 0 .3 0-.1-.1-.2-.1-.1 0 0-.1.1 0 .3-.1-.3-.1-.3-.2-.4v.3c-.1-.1 0 .1-.1-.1.1.5-.1.3-.3.1 0 .1.1.4.1.6v-.1s-.1-.2-.1-.1v-.1c0 .1-.1-.2-.1 0v-.1.1c0-.1-.1-.2 0-.2-.2 0-.2.4-.4.4v-.1c-.1-.1-.1.1-.1.1v-.1c0 .2-.1-.2 0 .2v-.1c0 .2-.1.2-.2.1.1.4-.1.1-.1.4v-.1c0 .3-.2 0-.3.1 0 0 0 .1-.1.1v-.1c0 .4-.2-.3-.2.1v-.1c0 .2-.1-.1 0 .3v-.1c.1.5-.1-.2-.1.1v-.1c-.1-.3-.1.1-.1.1v-.2c0 .2-.1 0-.1.1v-.1.1-.1c-.7.2-.7.3-.8.3zm-.4.3zm4-2.1c0 .1 0 .1 0 0 0 0 0 .1 0 0zM67.5 123.7v.1-.2zm0-.3zm0 .1v-.1.1zm.8-.2zm.2-.6v-.1c0 .2-.1 0-.1.1-.1 0-.2.2-.3.3v-.1c0-.2-.1.1-.1 0v.2c-.1.1-.2.1-.2.3v-.2c0 .4-.1.2-.2.2v.2c0 .1 0-.2.1-.1v.1s.1 0 .1-.2c0 .2 0 0 .1.2v-.2c.1.1.2-.1.4-.1 0-.4.1.1.2-.1 0-.1 0-.1.1-.1v-.2c.2.3.3.1.5.2s.4.3.5-.2v.1c0-.1.1 0 .1 0 .1-.3.3 0 .3-.3.1 0 .3 0 .4-.1v.1c.1-.2.3.2.4.1.1.2.2-.5.3-.2.1.4.1-.4.2-.1.2.6.3.2.4-.2.2.2.2-.3.4.1 0-.3.2.3.2.2v-.1c.1.3 0-.4.1 0v-.4.1c.1.4 0-.1.1.4v.1c0-.2 0-.4-.1-.6s-.1-.2-.1-.3v.1-.1c0-.2 0 .4 0 0 0 .1-.1.1-.1.1v.2l-.1-.3s0-.1 0 0c-.1-.3 0 .3-.1-.1 0 .3-.1-.1 0 .3v-.2l-.1-.1c0 .3-.1-.1-.1.3 0-.1-.1-.2-.1-.1 0 0-.1 0-.1.3-.1-.3-.1-.3-.1-.4 0 .2-.1.1-.1.3 0-.2 0 .1-.1-.2 0 .5-.2.3-.3 0v.5s-.1-.2-.1-.1v-.1c0 .1-.1-.2-.1 0v-.2c-.2-.1-.3.4-.5.3v-.1c-.1-.1-.1.1-.1.1v-.2c0 .2-.1-.3 0 .2v-.2c-.1.2-.2.2-.2.1 0 .4-.1.1-.2.4v-.1c-.1.3-.2 0-.3.1l-.1.1v-.1c0 .4-.2-.3-.2.1v-.1c0 .2-.1-.1 0 .3v-.1c0 .5-.1-.2-.1.1v-.1c0 .1 0 .1 0 0v-.1c-.1-.3-.1 0-.2 0v-.2c0 .2-.1 0-.1.1v-.1.1-.1c-.2 0-.2.2-.3.2zm-.4.2zm4.3-1.2zM55.4 123.3v-.1zm.1-.3l-.1.3c0 .2.1-.4.1-.3zm0 0v-.1.1zm.8 0c0 .1 0 .1 0 0zm.3-.5v-.1c-.1.2-.1 0-.1.1-.1-.1-.2.2-.3.2v-.1c0-.2-.1.1-.1 0v.2c-.1 0-.2.1-.3.2v-.2c-.1.3-.2.2-.2.1v.2c0 .1.1-.2.1-.1v.1s.1.1.1-.2c.1.1.3-.1.4 0 .1-.4.1.1.2 0 0-.1.1-.1.1-.1v-.2c.1.3.3.1.5.3.2.1.3.4.5-.1v.1c.1-.1.1.1.1 0 .2-.3.2.1.4-.3.1 0 .3 0 .5-.1v.1c.1-.1.2.3.3.2.1.2.3-.4.4-.2 0 .4.2-.4.2 0 .1.6.3.2.4-.1.1.2.3-.3.4.1.1-.3.1.3.2.3v-.1c0 .3.1-.4.1 0 0 .2.1-.5.1-.2v-.5c0 .2 0 .1 0 0v-.1c0-.2 0 .4 0 0 0 .1-.1.1-.1.1v-.1s0-.1 0 0v-.1c0 .3 0-.1-.1.3v-.2l-.1-.1c0 .3-.1-.1-.1.2 0-.1 0-.2-.1-.1 0 0-.1 0-.1.3v-.4c0 .2-.1.1-.1.2v-.2c-.1.4-.2.3-.3-.1 0 .1-.1.4-.1.6V122.1c0 .1 0-.2-.1 0v-.2c-.2-.1-.4.3-.5.2v-.1c0-.1-.1.1-.1 0v-.2c0 .2 0-.3-.1.2v-.2c-.1.1-.2.1-.3 0-.1.4-.2 0-.3.3v-.1c-.1.3-.2 0-.3 0l-.1.1v-.1c-.1.4-.1-.3-.2.1v-.1c0 .2 0-.1-.1.3v-.1c-.1.5-.1-.2-.2.1v-.1c0 .1 0 .1-.1 0v-.1c0-.3-.1 0-.2 0v-.2c0 .2-.1 0-.1.1v-.1.1-.1c-.1.5-.2.6-.2.6zm-.5.1zm4.5-.3zM43.6 120.4v.1l.1-.1z"/><path class="st1" d="M43.8 120.2s0-.1 0 0l-.1.2c-.1.2.1-.3.1-.2zm0 0c0 .1 0-.1.1-.1-.1.1-.1-.1-.1.1zm.8.2z"/><path class="st1" d="M45 119.9v-.1c-.1.2-.1 0-.2.1-.1-.1-.3.1-.4.2v-.1l-.1.1v-.1c0-.2-.1.1-.1-.1 0 0 0 .1-.1.2-.1 0-.2 0-.3.2 0 0 0-.1.1-.2-.2.3-.2.2-.3.1 0 .1 0 .1-.1.2 0 .1.1-.2.1 0v.1c0 .1.1-.2.1-.1v.1s.1.1.2-.1c-.1.2 0 0 0 .2 0-.1 0 0 .1-.2.1.1.3 0 .4 0 .2-.3.1.1.2 0l.1-.1.1-.1c0 .4.3.2.4.4.1.1.2.5.5 0v.1c.1-.1.1.1.1 0 .2-.3.2.1.4-.2.1.1.3.1.5 0v.1c.2-.1.2.3.3.2.1.2.4-.3.4-.1 0 .4.3-.4.2 0 0 .6.2.3.5 0 .1.2.3-.2.4.2.1-.2 0 .4.1.3v-.1c0 .3.2-.4.1 0 0 .2.2-.5.1-.2v-.1.2s.1-.2 0-.1c-.1.4.1-.1-.1.4 0 0 0 .2-.1.3l.1-.2c.1-.2.1-.4.1-.6s0-.3.1-.3c-.1.2 0 .1 0 0v-.1c0-.2-.1.3 0 0-.1.1-.1 0-.2 0 0 .1 0 0-.1.2.1-.3 0-.3 0-.3s0-.1 0 0c.1-.3-.1.3 0-.1-.1.3 0-.1-.1.2v-.2s-.1-.1-.1-.2c-.1.2 0-.1-.2.2 0-.1 0-.2-.1-.1 0 0-.1 0-.2.2.1-.3 0-.3.1-.4l-.2.2v-.2c-.2.4-.3.2-.3-.1 0 .1-.1.4-.2.5v-.4c0 .1 0-.2-.1 0v-.1.1c0-.1.1-.2.1-.2-.1-.1-.4.2-.6.1v-.1l-.1.1v-.1c0-.1-.1.1-.1 0v-.1c-.1.2 0-.3-.1.1v-.1c-.1.1-.2.1-.3 0-.2.4-.2 0-.3.3v-.1c-.2.2-.2-.1-.3-.1h-.1v-.1c-.2.3 0-.4-.2 0v-.1c-.1.2 0-.1-.1.3v-.1c-.2.4 0-.2-.2 0v-.1c0 .1-.1.1-.1 0v-.1c.1-.3-.1 0-.2 0l.1-.1c-.1.2-.1 0-.1.1v-.1.1-.1c.5.4.4.5.4.5zm-.5 0zm4.4.6zM32.7 115.3v-.1zm.2-.3l-.2.2c-.1.2.2-.3.2-.2zm0 .1c0 .1.1-.1.1-.1-.1.1 0-.1-.1.1zm.7.3z"/><path class="st1" d="M34.1 115l.1-.1c-.2.2-.1 0-.1.1l-.1-.1c-.1-.1-.3 0-.4.1v-.1l-.1.1v-.1c.1-.2-.1.1-.1-.1 0 0-.1.1-.1.2-.1 0-.2 0-.4.1 0 0 0-.1.1-.1-.2.3-.2.1-.3 0-.1.1 0 .1-.1.2 0 .1.2-.2.1 0v.1c0 .1.1-.2.1-.1s-.1.1-.1.1 0 .1.2-.1l-.1.2c0-.1 0 0 .1-.2.1.1.3 0 .4.1.2-.3.1.1.2 0s.1-.1.1 0l.1-.1c0 .4.2.2.3.4.1.2.1.5.5.1v.1c.1 0 .1.1.1.1.3-.2.2.2.5-.1.1.1.3.1.4.1v.1c.2-.1.1.3.3.3 0 .2.4-.3.4 0-.1.4.3-.3.2.1-.1.6.2.3.4.1 0 .2.4-.2.3.3.2-.2 0 .4.1.3v-.1c-.1.3.2-.3.1.1l.1-.2v-.1s-.1.1-.1.2c0 0 .1-.2.1-.1-.2.4.1-.1-.1.4 0 0-.1.2-.1.3l.1-.1c.1-.2.2-.4.3-.5l-.1.1c.1-.1 0-.1.1-.2 0 0 .1-.2.1-.3-.1.2-.1.1-.1 0v-.1c.1-.2-.2.3 0 0-.1.1-.1 0-.2 0-.1.1 0 0-.1.2.1-.2.1-.3.1-.3.1-.3-.2.3 0-.1-.1.3 0-.1-.2.2 0-.1.1-.1.1-.2 0 0 0-.1-.1-.2-.1.2 0-.1-.2.2 0-.1.1-.2 0-.1 0 0-.1 0-.2.2.1-.3.1-.3.1-.4l-.2.2c.1-.1-.1 0 0-.2-.3.4-.3.2-.3-.2-.1.1-.2.3-.3.5v-.1s.1-.2 0-.2v-.1c-.1.1.1-.2 0 0v-.1l-.1.1c0-.1.1-.2.1-.1-.1-.1-.4.1-.6 0v-.1l-.1.1v-.1c0-.1-.1 0-.1 0l.1-.1c-.1.2.1-.3-.1.1l.1-.1c-.1.1-.2 0-.3-.1-.3.3-.2 0-.4.2v-.1c-.2.2-.2-.1-.3-.1h-.1v-.1c-.2.3 0-.4-.2 0l.1-.1c-.1.2 0-.1-.2.2v-.1c-.3.4 0-.2-.2 0v-.1s-.1.1-.1 0c.1-.3-.1 0-.2-.1l.1-.1c-.1.1-.1 0-.1 0v-.1l-.1.1.1-.1c.8-.1.7 0 .6 0zm-.5-.1zm4.3 1.5zM23 108l.1-.1zm.2-.2c.1 0 .1 0 0 0l-.2.2c-.1.2.3-.3.2-.2z"/><path class="st1" d="M23.2 107.8c0 .1.1-.1.1-.1l-.1.1zm.7.5zm.6-.3c-.1.1 0-.2-.1-.1 0-.1-.3 0-.4 0l-.1.1.1-.1c.1-.2-.1.1 0-.1l-.1.1h-.4l.1-.1c-.3.2-.3.1-.3 0l-.1.1c-.1.1.2-.1.1 0l-.1.1c0 .1.2-.2.1-.1 0 .1-.1.1-.1.1.1 0 0 .1.2-.1l-.1.2c.1-.1.1 0 .1-.1 0 .2.2.1.3.2.3-.2 0 .1.2.1.1-.1.1-.1.1 0l.1-.1c-.1.3.2.3.2.5.1.2 0 .5.5.2l-.1.1c.1 0 0 .1.1.1.3-.2.2.2.5 0 .1.1.2.2.4.2v.1c.2 0 0 .3.2.3 0 .2.5-.2.4.1-.2.3.4-.2.2.1-.3.5.1.3.4.2 0 .2.4-.1.2.3.2-.2-.1.3 0 .3l.1-.1c-.2.2.3-.3 0 .1-.1.2.3-.4.2-.2l.1-.1-.1.1s.1-.2.1-.1c-.3.3.1 0-.2.3 0 0-.1.2-.2.2l.1-.1c.1-.2.3-.3.4-.5l-.1.1c.1-.1 0-.1.1-.2 0 0 .1-.2.2-.3-.1.1-.1 0-.1 0l.1-.1c.1-.2-.2.3 0 0h-.2l-.2.2c.2-.2.2-.3.2-.3.2-.3-.2.2 0-.1-.2.2 0-.1-.2.2 0-.1.1-.1.1-.1v-.2c-.2.2 0-.1-.2.1 0-.1.1-.2 0-.1 0 0-.1 0-.2.1.2-.3.2-.2.2-.3-.1.1-.1 0-.2.1.1-.1-.1 0 .1-.1-.4.3-.4.1-.2-.2l-.4.4s.1-.2 0-.1v-.1c-.1.1.1-.2 0 0l-.1.1c0-.1.1-.1.1-.1-.1-.2-.5 0-.6-.1l.1-.1-.1.1.1-.1c.1-.1-.1 0-.1 0l.1-.1c-.2.1.1-.2-.2.1l.1-.1c-.2.1-.2 0-.2-.1-.3.3-.1-.1-.4.1l.1-.1c-.3.1-.1-.1-.3-.2 0-.1-.1 0-.1 0l.1-.1c-.3.2.1-.3-.2-.1l.1-.1c-.1.1 0-.1-.2.2l.1-.1c-.3.3.1-.2-.2 0l.1-.1c-.1 0-.1.1-.1 0 .2-.3-.1 0-.1-.1l.1-.1c-.1.1-.1 0-.1 0l.1-.1-.3-.1h.2c-.1 0-.2.1-.2 0zm-.5-.1zm3.9 2.2c-.1 0-.1.1 0 0 0 0-.1 0 0 0zM15 98.9v.1l.1-.1zm.3-.1l-.3.2c-.1.1.4-.3.3-.2zm-.1 0c-.1.1.1 0 .1-.1-.1.1.1 0-.1.1zm.6.6c0 .1 0 .1 0 0zm.6-.1l.1-.1c-.2.1 0-.1-.2 0 0-.1-.3-.1-.4-.1h.1l-.1.1h.1c.2-.1-.2 0 0-.1 0 0-.1.1-.2.1s-.2-.1-.4 0l.1-.1c-.3.2-.3 0-.3-.1-.1.1-.1.1-.2.1-.1.1.2-.1.1 0l.1-.1s.2-.1.1 0c-.1 0-.1.1-.1.1.1 0 0 .1.2 0-.2.1 0 0-.1.2.1 0 .1 0 .2-.1 0 .2.2.1.3.2.3-.2 0 .1.2.1h.1l.1-.1c-.2.3.1.3.1.5s-.1.5.4.3h-.1c.1 0 0 .1.1.1.3-.1.1.2.5.1.1.1.2.2.4.3h-.1c.2 0 0 .3.1.4-.1.2.5-.1.4.2-.2.3.4-.1.2.2-.4.5 0 .4.4.3-.1.2.4 0 .2.4.2-.1-.2.3-.1.3l.1-.1c-.2.2.3-.2 0 .1-.2.2.4-.3.2-.1l.1-.1-.1.1.1-.1c-.3.3.1 0-.3.3l-.2.2.2-.1c.2-.1.3-.3.4-.4l-.1.1.1-.1s.2-.2.2-.3c-.2.1-.1 0-.1 0l.1-.1c.1-.1-.3.2 0 0-.1 0-.1 0-.1-.1-.1.1 0 0-.2.1.2-.2.2-.3.2-.3.2-.2-.3.2 0-.1-.2.2 0-.1-.2.1.1 0 .1-.1.1-.1v-.2c-.2.1 0-.1-.2.1 0-.1.1-.2 0-.1 0 0-.1 0-.3.1.3-.2.2-.2.3-.3-.1.1-.1 0-.3.1.1-.1-.1 0 .1-.1-.4.2-.4 0-.2-.3-.1.1-.3.2-.5.3l.1-.1h.1c-.1.1.1-.1 0-.1h-.1c.1 0 .1-.1.1-.1 0-.2-.5-.1-.5-.2h.1l-.1.1h.1c.1-.1-.1 0-.1-.1l.1-.1c-.2.1.2-.2-.2.1l.1-.1c-.2 0-.2-.1-.2-.2-.4.2-.1-.1-.4 0h.1c-.3.1-.1-.2-.2-.2 0-.1-.1 0-.1 0l.1-.1c-.3.2.2-.3-.2-.1l.1-.1c-.2.1 0-.1-.2.1l.1-.1c-.4.2.1-.2-.2-.1h.1-.1c.2-.2-.1-.1-.1-.1l.1-.1c-.2.1-.1 0-.1 0h.1-.1l.1-.1c-.1-.1-.3-.1-.3-.1zM16 99zm3.3 3zM9 88.5h-.1l.1-.1zm.2-.1c.1 0 .1 0 0 0l-.2.1.2-.1zm0 0h.1c-.1 0 .1-.1-.1 0zm.5.7c-.1 0 0 0 0 0z"/><path class="st1" d="M10.3 89.1l.1-.1c-.2.1 0-.1-.1-.1 0-.1-.2-.1-.4-.2h.1c.2-.1-.2 0 0-.1 0 0-.1 0-.2.1-.1-.1-.2-.1-.4-.1 0 0 .1 0 .1-.1-.4.1-.3 0-.2-.1-.1 0-.1 0-.2.1s.2-.1.1 0h-.1s.2-.1.1 0c-.1 0-.1 0-.1.1 0 0 0 .1.2 0l-.2.1c.1 0 .1 0 .2-.1 0 .1.2.2.2.3.4-.1 0 .1.1.1h.3c-.2.3.1.3 0 .5 0 .2-.2.5.4.4h-.1c.1 0 0 .1.1.1.3 0 .1.2.4.2 0 .1.1.3.3.4h-.1c.2 0-.1.3.1.4-.1.2.5 0 .3.2-.3.2.5 0 .1.2-.4.6 0 .6.4.5-.1.2.4.1.1.4.3-.1-.2.3-.1.3h.1c-.2.2.4-.1 0 .1-.2.1.5-.2.2-.1h.1l-.1.1s.2-.1.1-.1c-.4.2.1 0-.3.2 0 0-.2.1-.3.1l.2-.1c.2-.1.4-.2.5-.3l-.1.1c.1-.1.1 0 .2-.1 0 0 .2-.1.3-.2-.2.1-.1 0-.1 0h.1c.2-.1-.3.2 0 0-.1 0-.1 0-.1-.1-.1.1 0 0-.2.1.2-.1.3-.2.3-.2.3-.2-.3.1.1-.1-.3.1.1-.1-.2.1.1 0 .1-.1.2-.1 0 0 .1-.1.1-.2-.2.1.1-.1-.3 0 .1-.1.2-.2 0-.1 0 0-.1-.1-.3 0 .3-.2.2-.2.3-.2-.2.1-.1 0-.3 0 .1-.1-.1 0 .1-.1-.4.1-.4-.1-.1-.3-.1.1-.4.2-.5.2h.1l.1-.1h.1c-.1 0 .1-.1 0-.1h.1-.1c.1 0 .2-.1.2-.1 0-.2-.4-.2-.5-.3h.1-.1.1c.1-.1-.1 0-.1-.1 0 0 .1 0 .1-.1-.2.1.2-.2-.2 0l.1-.1c-.2 0-.2-.1-.2-.2-.4.1-.1-.1-.4 0h.1c-.3 0-.1-.2-.2-.3 0-.1-.1 0-.1-.1h.1c-.4.1.2-.3-.2-.2l.1-.1c-.2.1 0-.1-.3.1l.1-.1c-.4.2.2-.2-.1-.1h.1-.1.1c.3-.2-.1-.1-.1-.1l.1-.1c-.2.1 0-.1-.1-.1h.1-.1l.1-.1c-.4.1-.5.1-.5.1zm-.4-.4zm2.7 3.6zM5.2 77h-.1.2zm.3 0s0-.1 0 0h-.3c-.2 0 .4-.1.3 0z"/><path class="st1" d="M5.4 77h.1c-.1 0 .1-.1-.1 0zm.3.8z"/><path class="st1" d="M6.3 77.8h.1c-.2 0 0-.1-.1-.1 0-.1-.2-.2-.3-.2h.1c.2-.1-.2 0 0-.1h-.2c-.1-.1-.1-.1-.3-.2h.2c-.4 0-.2-.1-.2-.2h-.2c-.1 0 .2 0 .1.1h-.1s0 .1.2.1l-.2.1h.2c-.1.1.1.2.2.3.4 0 0 .1.1.2.1 0 .1 0 .1.1h.2c-.3.2 0 .3-.1.5 0 .2-.3.4.3.5h-.1c.1 0 0 .1.1.1.3 0 0 .3.4.3 0 .1.1.3.2.4h-.1c.2.1-.2.3 0 .4-.1.2.5.1.3.3-.3.2.5.1.1.2-.5.3-.1.3.2.4-.2.2.4.2 0 .4.3 0-.3.2-.2.3h.1c-.3.1.4-.1 0 .1-.2.1.5-.1.2 0h.1s-.1 0-.2.1c0 0 .2-.1.1 0-.4.1.1 0-.4.2 0 0-.2.1-.3.1h.2c.2-.1.4-.1.6-.2h-.2c.2-.1.1 0 .2-.1 0 0 .2-.1.3-.1h-.1.1c.2-.1-.4.1 0 0-.1 0-.1-.1-.1-.1h-.2c.3-.1.3-.1.3-.2 0 0 .1 0 0 0 .3-.1-.3.1.1-.1-.3.1.1-.1-.3 0 .1 0 .1 0 .2-.1 0 0 .1-.1.1-.2-.3 0 .1-.1-.3 0 .1 0 .2-.1.1-.1 0 0-.1-.1-.3 0 .3-.1.3-.1.4-.1h-.3c.2-.1-.1 0 .1-.1-.5 0-.3-.1 0-.3-.1 0-.4.1-.6.1h.1s.2-.1.1-.1h.1c-.1 0 .2-.1 0-.1h.1-.1c.1 0 .2-.1.2 0 0-.2-.4-.2-.4-.4h.1-.1.1c.1-.1-.1-.1-.1-.1h.1c-.2 0 .2-.1-.2 0h.1c-.2 0-.2-.1-.1-.2-.4 0-.1-.1-.4-.1h.1c-.3 0 0-.2-.1-.3l-.1-.1h.1c-.4 0 .3-.2-.1-.2h.1c-.2 0 .1-.1-.3 0h.1c-.5.1.2-.1-.1-.1h.1-.1.1c.3-.1-.1-.1-.1-.2h.2c-.2 0 0-.1-.1-.1h.1-.1.1c-.2-.7-.3-.7-.4-.8zm-.3-.4c.1 0 .1 0 0 0zm1.9 4.1zM3.8 65h-.1.2zm.3 0zM4 65h.1H4zm.2.8s-.1 0 0 0c-.1 0-.1 0 0 0zm.5.2h.1c-.2 0 0-.1-.1-.1 0-.1-.2-.2-.3-.3h.1c.2 0-.1-.1 0-.1h-.2c-.1-.1-.1-.2-.3-.3h.2c-.3 0-.2-.1-.1-.2h-.2c-.1 0 .2 0 .1.1h-.1s0 .1.2.1c-.2 0 0 0-.2.1h.2c-.1.1.1.2.1.4.4 0-.1.1.1.2.1 0 .1 0 .1.1h.2c-.3.2-.1.3-.2.5s-.3.4.2.5h-.1c.1 0-.1.1 0 .1.3.1 0 .3.3.3 0 .1 0 .3.1.4h-.1c.2.1-.2.2-.1.4-.2.1.4.2.2.4-.4.1.4.1.1.2-.7.2-.4.3 0 .5-.2.2.3.2-.1.4.3 0-.3.2-.2.2h.1c-.3.1.4 0 0 .1h.3c-.4 0 .1 0-.4.1h-.3.2c.2 0 .4 0 .6-.1H5h.2s.3 0 .3-.1h-.1.1c.2 0-.4 0 0 0-.1 0-.1-.1-.1-.1h-.2c.3 0 .3-.1.3-.1s.1 0 0 0c.3-.1-.3 0 .1-.1-.3 0 .1-.1-.3 0h.2l.1-.1c-.3 0 .1-.1-.2-.1.1 0 .2-.1.1-.1 0 0 0-.1-.3-.1.3 0 .3 0 .4-.1-.2 0-.1-.1-.3-.1h.2c-.5-.1-.3-.2 0-.3h-.6.1s.2-.1.1-.1h.1c-.1 0 .2-.1 0-.1h.1-.1.2c.1-.2-.3-.3-.3-.5h.1-.1.1c.1-.1-.1-.1-.1-.1h.2c-.2 0 .3-.1-.2-.1h.2c-.1-.1-.1-.2-.1-.3-.4 0 0-.1-.4-.2h.1c-.3-.1 0-.2-.1-.3l-.1-.1h.1c-.4-.1.3-.2-.1-.2h.1-.3.1c-.5 0 .2-.1-.1-.1h.1c-.1 0-.1 0 0 0h.1c.3-.1 0-.1 0-.2h.2c-.2 0 0-.1-.1-.1h.1-.1.1c0-.2-.1-.2-.2-.3zm-.2-.4zm1 4.3zM4.8 52.9h.1zm.3.1l-.3-.1c-.2 0 .4.1.3.1zM5 53h.1H5zm0 .8zm.5.3h.1c-.2-.1 0-.1-.1-.1.1-.1-.1-.2-.2-.4h.1c.2 0-.1-.1 0-.1h-.2c0-.1-.1-.2-.2-.3h.2c-.3-.1-.2-.1-.1-.2h-.2c-.1 0 .2.1 0 .1h-.1s-.1.1.2.1h-.2c.1 0 .1 0 .2.1-.1.1.1.3 0 .4.4.1-.1.1 0 .2.1 0 .1.1.1.1h.2c-.3.1-.1.3-.3.4-.2.2-.5.3 0 .6h-.1c.1 0-.1 0 0 .1.3.2-.1.2.2.4-.1.1 0 .3 0 .5H5c.1.1-.3.2-.2.3-.2.1.4.3.1.4-.4 0 .4.2 0 .2-.6.1-.2.3.1.4-.2.1.3.3-.2.4.3.1-.4.1-.3.2h.1c-.3 0 .4.1 0 .1-.1 0 .6.1.4 0h-.1.1-.5c.2 0 .4.1.6.1h-.2.6c-.2 0-.1 0 0 0h.1c.2 0-.4-.1 0 0-.2-.1-.2-.1-.2-.2h-.2.3s.1 0 0 0c.3 0-.3-.1.1 0-.3 0 .1 0-.2-.1h.2l.1-.1c-.3-.1.1-.1-.2-.1.1 0 .2 0 .1-.1 0 0 0-.1-.3-.1h.4c-.2 0-.1-.1-.2-.1h.2c-.4-.2-.3-.3.1-.3-.1 0-.4-.1-.6-.1h.3c-.1 0 .2 0 0-.1h.1-.1.2c.1-.2-.3-.4-.2-.5h.1l-.1-.1h.1c.1 0-.1-.1 0-.1h.2c-.3-.1.2-.1-.3-.2h.2c-.1-.1-.1-.2 0-.3-.4-.1 0-.2-.3-.3h.1c-.3-.1 0-.2 0-.3 0 0-.1-.1 0-.1h.1c-.4-.1.4-.1 0-.2h.1c-.2 0 .1 0-.3-.1h.1c-.5-.1.2-.1-.1-.2h.1c-.1 0-.1-.1 0-.1h.1c.3 0 0-.1 0-.2h.2c-.2-.1 0-.1-.1-.1h.1-.1.1c-.1.3-.3.2-.3.1zm-.1-.4zm.1 4.4zM8.2 41.3h.1zm.3.1c0 .1 0 .1 0 0l-.2-.1c-.3 0 .3.2.2.1z"/><path class="st1" d="M8.4 41.4c-.1 0 .1 0 .1.1 0 0 .1 0-.1-.1zm-.2.9c0-.1 0 0 0 0z"/><path class="st1" d="M8.7 42.7l.1.1c-.2-.1 0-.1 0-.2.1-.1-.1-.3-.1-.4h.1l-.1-.1h.1c.2.1-.1-.1.1-.1 0 0-.1-.1-.2-.1 0-.1 0-.2-.2-.3 0 0 .1 0 .2.1-.3-.2-.1-.2-.1-.3-.1 0-.1 0-.2-.1-.1 0 .2.1 0 .1h-.1c-.1 0 .2.1.1.1h-.1s-.1 0 .1.2c-.2-.1 0 0-.2 0 .1 0 0 0 .2.1-.1.1 0 .3-.1.4.3.2-.1.1 0 .2l.1.1.1.1c-.4 0-.2.3-.4.4-.2-.1-.5 0-.1.3h-.1c.1.1-.1.1 0 .1.3.2-.1.2.2.4-.2.2-.2.4-.1.5h-.1c.1.2-.3.1-.2.3-.2.1.3.4 0 .4-.4 0 .3.3 0 .2-.6 0-.3.2 0 .5-.2.1.2.4-.2.3.2.1-.4 0-.3.1h.1c-.3-.1.4.2 0 .1-.2-.1.5.2.2.1h-.1s.2.1.1.1c-.4-.1.1.1-.4-.1 0 0-.2 0-.3-.1l.2.1c.2.1.4.1.6.2l-.2-.1c.2 0 .1 0 .2.1 0 0 .2.1.3.1-.2-.1-.1 0 0 0H8c.2.1-.3-.1 0 0-.1-.1 0-.1 0-.2-.1 0 0 0-.2-.1.3.1.3.1.3 0 0 0 .1 0 0 0 .3.1-.3-.1.1 0-.3-.1.1 0-.2-.1.1 0 .1 0 .2.1 0 0 .1 0 .2-.1-.4-.2 0-.1-.4-.2.1 0 .2 0 .1-.1 0 0 0-.1-.2-.2.3.1.3.1.4.1l-.2-.2h.2c-.4-.2-.2-.3.2-.3-.1-.1-.4-.2-.5-.2h.4c-.1-.1.2 0 0-.1h.1-.1c.1 0 .2.1.2.1.1-.1-.2-.4-.1-.6h.1l-.1-.1h.1c.1 0-.1-.1 0-.1 0 0 .1 0 .1.1-.2-.1.3 0-.1-.1 0 0 .1 0 .1.1-.1-.1-.1-.2 0-.3-.3-.2 0-.2-.3-.3h.1c-.2-.2.1-.2.1-.3v-.1h.1c-.3-.2.4 0 0-.2l.1.1c-.2-.1.1 0-.2-.1h.1c-.4-.2.2 0 0-.2h.1c-.1 0-.1-.1 0-.1h.1c.3.1 0-.1 0-.2l.1.1c-.2-.1 0-.1-.1-.1H9l-.1-.1.1.1c-.2.1-.3 0-.3 0zm0-.5zm-.8 4.4zM14 30.6h-.1l.1.1z"/><path class="st1" d="M14.2 30.8s0 .1 0 0l-.2-.1c-.2-.1.3.2.2.1zm-.1 0c-.1 0 .1.1.1.1-.1-.1.1 0-.1-.1zm-.3.8z"/><path class="st1" d="M14.1 32.1l.1.1c-.1-.2.1-.1-.1-.1l.1-.1c.1-.1 0-.3-.1-.4h.1l-.1-.1h.1c.2.1-.1-.1.1-.1 0 0-.1-.1-.2-.1 0-.1 0-.2-.1-.4 0 0 .1 0 .1.1-.3-.3-.1-.2 0-.3-.1-.1-.1 0-.2-.1-.1 0 .2.2 0 .1l-.1-.1c-.1 0 .2.1.1.1s-.1-.1-.1-.1-.1 0 .1.2l-.2-.1.1.1c-.1 0-.1.3-.1.3.3.3-.1.1-.1.2.1.1.1.1 0 .1l.1.1c-.4 0-.2.2-.4.3-.2.1-.5.1-.2.5H13c0 .1-.1.1-.1.1.2.3-.2.2.1.5-.1.1-.2.3-.2.4h-.1c.1.2-.3.1-.3.2-.2 0 .2.4 0 .4-.4-.1.3.4-.1.2-.6-.2-.3.1-.1.4-.3 0 .1.4-.3.3.2.2-.4-.1-.3 0h.1c-.3-.1.3.2-.1 0-.2-.1.4.3.2.2l.1.1-.1-.1s.2.1.1.1c-.4-.2.1.1-.4-.2 0 0-.2-.1-.3-.1l.1.1c.2.1.4.2.5.3l.2.3c.1.1.1 0 .2.1 0 0 .2.1.3.1-.2-.1-.1-.1 0-.1h.1c.2.1-.3-.2 0 0v-.2c-.1-.1 0 0-.2-.1.2.1.3.1.3.1.3.1-.3-.2.1 0-.3-.1.1 0-.2-.2.1 0 .1.1.2.1h.2c-.2-.2.1 0-.2-.2.1 0 .2.1.1 0 0 0 0-.1-.2-.2.3.2.3.1.4.2-.1-.1 0-.1-.1-.2.1.1 0-.1.2.1-.3-.3-.1-.3.2-.3-.1-.1-.3-.2-.5-.3 0 0 .2.1.2 0h.1c-.1-.1.2.1 0 0h.1l-.1-.1c.1 0 .2.1.1.1.2-.1-.1-.5 0-.6h.1l-.1-.1h.1c.1 0 0-.1 0-.1l.1.1c-.2-.1.3.1-.1-.1l.1.1c-.1-.1 0-.2.1-.3-.3-.3 0-.1-.2-.4h.1c-.2-.2.1-.2.1-.3v-.1l.1.1c-.3-.3.4.1.1-.2l.1.1c-.2-.1.1 0-.2-.2h.1c-.4-.3.2 0 0-.2h.1s-.1-.1 0-.1c.3.1 0-.1.1-.1l.1.1c-.1-.1 0-.1 0-.1h.1l-.2.2.1.1c.1-.1 0-.2 0-.2zm.1-.5zm-1.6 4.1zM21.7 21.3v.1zm.2.3l-.2-.2.2.2zm-.1 0c-.1-.1 0 .1.1.1-.1-.1.1 0-.1-.1zm-.5.6zm.3.6c0-.1.2 0 .1-.1.1 0 0-.3 0-.4v.1l-.1-.1.1.1c.2.1-.1-.1.1 0l-.1-.1v-.4l.1.1c-.2-.3 0-.3 0-.3l-.1-.1c-.1-.1.1.2 0 .1l-.1-.1c-.1 0 .2.2.1.1-.1 0-.1-.1-.1-.1 0 .1-.1 0 .1.2-.1-.1 0 0-.2-.1 0 .1 0 .1.1.1-.2 0-.1.2-.2.3.2.3-.1 0-.1.2.1.1.1.1 0 .1l.1.1c-.3-.1-.3.2-.5.2-.2.1-.5 0-.3.5l-.1-.1c0 .1-.1 0-.1.1.1.3-.2.2 0 .5-.1.1-.2.2-.2.4V24c0 .2-.3 0-.3.2-.2 0 .1.5-.1.4-.3-.2.2.4-.1.2-.5-.3-.4.1-.2.4-.2 0 .1.4-.3.2.2.2-.3-.1-.3 0l.1.1c-.2-.2.3.3-.1 0-.2-.1.4.4.2.2l.1.1-.1-.1.1.1c-.3-.3 0 .1-.3-.2 0 0-.2-.1-.2-.2l.1.1c.2.1.3.3.4.4l-.1-.1c.1.1.1.1.2.1 0 0 .2.1.3.2-.1-.1 0-.1 0-.1l.1.1c.1.1-.3-.3 0 0v-.2l-.2-.2c.2.2.3.2.3.2.3.2-.2-.2.1 0-.2-.2.1 0-.2-.2.1 0 .1.1.1.1h.2c-.2-.2.1 0-.1-.2.1 0 .2.1.1 0 0 0 0-.1-.1-.3.3.2.2.2.3.2-.1-.1 0-.1-.1-.2.1.1 0-.1.1.1-.4-.4-.2-.4.1-.2l-.4-.4s.2.1.1.1l.1.1c-.1-.1.2.1 0 0l-.1-.1.1.1c.2-.1 0-.5.2-.6v.1l-.1-.1.1.1c.1.1 0-.1 0-.1l.1.1c-.1-.2.2.1-.1-.2l.1.1c0-.2 0-.2.1-.2-.2-.3.1-.1-.1-.4l.1.1c-.1-.3.1-.1.2-.2.1 0 0-.1 0-.1l.1.1c-.2-.3.3.1.1-.2l.1.1c-.1-.2.1 0-.2-.2l.1.1c-.3-.4.2.1 0-.2l.1.1c0-.1-.1-.1 0-.1.3.2 0-.1.1-.1l.1.1c-.1-.1 0-.1 0-.1l.1.1.3-.5zm.2-.5zm-2.5 3.8s0-.1 0 0zM31.1 13.8l.1.1zm.2.2c0 .1 0 .1 0 0l-.1-.2c-.2-.2.1.4.1.2z"/><path class="st1" d="M31.2 14c-.1-.1 0 .1.1.1-.1-.1 0 .1-.1-.1zm-.6.6zm.1.6l.1.1c-.1-.2.1 0 0-.2.1 0 .1-.3.1-.4v.1l-.1-.1v.1c.1.2 0-.2.1 0 0 0-.1-.1-.1-.2s.1-.2.1-.4l.1.1c-.1-.3 0-.3.1-.3 0-.1-.1-.1-.1-.2-.1-.1.1.2 0 .1v-.1s.1.2 0 .1c0-.1-.1-.1-.1-.1 0 .1-.1 0 0 .2-.1-.2 0 0-.1-.1 0 .1 0 .1.1.2-.2 0-.1.2-.3.3.2.4-.1 0-.1.2v.1l.1.1c-.3-.2-.3.1-.5.1s-.5-.1-.3.4v-.1c0 .1-.1 0-.1.1.1.3-.2.1-.1.5l-.3.3V16c0 .2-.3-.1-.4.1-.2-.1.1.5-.2.4-.3-.3.1.4-.2.2-.5-.4-.4 0-.3.4-.2-.1 0 .4-.4.2.1.3-.3-.2-.3-.1l.1.1c-.2-.2.2.3-.1 0-.1-.2.3.4.1.2l.1.1-.1-.1s.1.2.1.1c-.3-.3 0 .1-.3-.3l-.2-.2.1.2c.1.2.2.3.4.5l-.1-.1c.1.1.1.1.1.2 0 0 .2.2.2.3-.1-.2 0-.1 0-.1l.1.1c.1.1-.2-.3 0 0 0-.1 0-.1.1-.1-.1-.1 0 0-.1-.2l.2.2c.2.3-.2-.3.1.1-.2-.2.1.1-.1-.2 0 .1.1.1.1.1h.2c-.1-.2.1.1-.1-.3.1 0 .2.1.1 0 0 0 0-.1-.1-.3.2.3.2.2.3.3-.1-.1 0-.1-.1-.3.1.1 0-.1.1.1-.2-.4 0-.4.3-.2-.1-.1-.2-.3-.3-.5l.1.1v.1c0-.1.1.1.1 0V17c0 .1.1.2.1.1.2 0 .1-.5.3-.5v.1-.1.1c.1.1 0-.1.1-.1l.1.1c-.1-.2.2.2 0-.2l.1.1c0-.2.1-.2.2-.2-.2-.4.1-.1 0-.4v.1c-.1-.3.2-.1.2-.2.1 0 0-.1.1-.1l.1.1c-.2-.3.3.2.1-.2l.1.1c-.1-.2.1 0-.1-.3l.1.1c-.2-.4.2.1.1-.2v.1c.2.2.1-.1.1-.1l.1.1c-.1-.2.1-.1 0-.1v.1-.1l.1.1c-.1-.2-.1-.3-.1-.3zm.3-.4zm-3.1 3.1z"/><g><path class="st1" d="M41.9 8.3v-.1.2zm.1.3l-.1-.3c-.1-.2.1.4.1.3zm-.1-.1v.1c0-.1.1.1 0-.1zm-.7.4zm0 .7v.1c-.1-.2.1 0 .1-.1.1 0 .1-.2.2-.4v.1c.1.2 0-.2.1 0 0 0 0-.1-.1-.2.1-.1.1-.2.1-.4 0 0 0 .1.1.2-.1-.4.1-.3.1-.2 0-.1 0-.1-.1-.2s0 .2 0 .1v-.1s.1.2 0 .1v-.1s-.1 0 0 .2l-.1-.2c0 .1 0 .1.1.2-.1 0-.2.2-.3.2.1.4-.1 0-.2.1v.3c-.3-.2-.3 0-.5 0s-.5-.2-.4.3v-.1c0 .1-.1 0-.1.1 0 .3-.2.1-.2.4-.1 0-.3.1-.4.3v-.1c0 .2-.3-.1-.4 0-.2-.1 0 .5-.3.3-.2-.3 0 .5-.2.1-.4-.5-.4-.1-.3.3-.2-.1-.1.4-.4.1.1.3-.3-.2-.3-.2v.1c-.1-.2.1.4-.1 0-.1-.2.2.5.1.2v.1l-.1-.1s.1.2 0 .1c-.2-.4 0 .1-.2-.3 0 0-.1-.2-.1-.3l.1.2c.1.2.2.4.3.5l-.1-.1c.1.1 0 .1.1.2 0 0 .1.2.2.3-.1-.2 0-.1 0-.1v.1c.1.2-.1-.3 0 0 0-.1.1-.1.1-.1 0-.1 0 0-.1-.2.1.2.2.3.2.3.2.3-.1-.3.1.1-.1-.3.1.1-.1-.3 0 .1.1.1.1.2 0 0 .1.1.2.1-.1-.2.1.1 0-.3.1.1.2.2.1 0 0 0 .1-.1 0-.3.2.3.1.2.2.3v-.3c.1.1 0-.1.1.1-.1-.4.1-.4.3-.1 0-.1-.1-.4-.2-.5v.1s.1.2.1.1v.1c0-.1.1.2.1 0v.1-.1c0 .1.1.2.1.2.2 0 .2-.4.4-.4v.1-.1.1c.1.1 0-.1.1-.1 0 0 0 .1.1.1-.1-.2.2.2 0-.2 0 0 0 .1.1.1 0-.2.1-.2.2-.2-.1-.4.1-.1.1-.4v.1c0-.3.2-.1.3-.2.1 0 0-.1.1-.1v.1c-.1-.4.3.2.2-.2v.1c-.1-.2.1 0-.1-.3l.1.1c-.1-.4.2.2.1-.1v.1c.1.2 0-.2.1-.2v.2c0-.2.1 0 .1-.1v.1-.1l.1.1v-.2zm.4-.4zm-3.7 2.5z"/></g><g><path class="st1" d="M53.6 5.1V5v.2zm0 .3v-.3c-.1-.2 0 .4 0 .3z"/><path class="st1" d="M53.6 5.3v.1c-.1-.1 0 .1 0-.1zm-.8.3zm-.2.6v.1c0-.2.1 0 .1-.1.2.1.3-.2.3-.3V6c.1.2 0-.2.1 0v-.2c.1-.1.2-.1.2-.3v.2c0-.4.1-.2.2-.2v-.2c0-.1 0 .2-.1.1v-.1s-.1 0-.1.2c0-.2 0 0-.1-.2v.2c-.1-.1-.2.1-.3.1 0 .4-.1 0-.2.1 0 .1 0 .1-.1.1V6c-.2-.3-.3 0-.5-.1-.1-.2-.3-.5-.4.1v-.1c0 .1-.1 0-.1 0-.1.3-.3 0-.3.4-.1 0-.3.1-.4.2v-.1c-.1.2-.3-.2-.4 0-.2-.1-.1.5-.3.3-.2-.3-.1.5-.2.1-.3-.5-.3-.1-.4.2-.2-.2-.2.4-.4 0 0 .3-.2-.3-.3-.2v.1c-.1-.3 0 .4-.1 0-.1-.2.1.5 0 .3v.1s0-.1-.1-.2v.1c-.1-.4 0 .1-.1-.4 0 0-.1-.2-.1-.3v.2c.1.2.1.4.1.6v-.2c0 .2 0 .1.1.2 0 0 .1.2.1.3v-.1.1c.1.2-.1-.4 0 0 0-.1.1-.1.1-.1v-.2l.1.3s0 .1 0 0c.1.3 0-.3.1.1-.1-.3.1.1 0-.3v.2s.1.1.2.1c0-.3.1.1 0-.3 0 .1.1.2.1.1 0 0 .1-.1 0-.3.1.3.1.3.1.4v-.3c0 .2 0-.1.1.2 0-.5.2-.3.3 0 0-.1-.1-.4-.1-.6V7s.1.2.1.1v.1c0-.1.1.2.1 0v.1-.1.2c.2 0 .3-.4.4-.4v.1V7v.1c.1.1.1-.1.1-.1v.2c0-.2.1.3 0-.2v.1c.1-.2.1-.2.2-.1 0-.4.1-.1.1-.4v.1c0-.3.2 0 .3-.1l.1-.1v.1c0-.4.2.3.2-.1v.1c0-.2.1.1 0-.3v.1c0-.5.1.2.1-.1v.1c0-.1 0-.1 0 0v.1c.1.3.1-.1.2-.1v.2c0-.2.1 0 .1-.1v.1-.1.1c.8-.3.8-.4.8-.4zm.5-.3zm-4.2 1.7z"/></g><g><path class="st1" d="M65.6 4.3v-.1.2zm0 .2c0 .1 0 .1 0 0v-.3.3zm0 0zm-.9.1zm-.2.5v.1c0-.2.1 0 .1-.1.1.2.2 0 .4-.1v-.1.1c0 .2 0-.2 0 0v-.2c.1-.1.2-.1.3-.3v.2c.1-.4.2-.2.2-.2v-.2c0-.1-.1.2-.1.1v-.1s-.1 0-.1.2v-.2.2c-.1-.1-.2.1-.4.1-.1.4-.1-.1-.2.1 0 .1-.1.1-.1.1V5c-.2-.3-.3-.1-.5-.2s-.3-.4-.5.1v-.1c-.1.1-.1-.1-.1 0-.1.3-.3 0-.4.3-.1 0-.3 0-.4.1v-.1c-.1.2-.2-.2-.4-.1-.1-.2-.2.4-.4.2-.1-.4-.2.4-.2 0-.2-.6-.3-.2-.4.2-.1-.2-.3.3-.4-.1 0 .3-.1-.3-.2-.3v.1c0-.3 0 .4-.1 0v.3c0-.4 0 .1-.1-.4v-.3.8-.2.2s0 .3.1.3v-.1.1c0 .2 0-.4 0 0 0-.1.1-.1.1-.1v-.2c0 .3.1.3.1.3s0 .1 0 0c0 .3 0-.3.1.1v-.3.2l.1.1c0-.3.1.1.1-.2 0 .1.1.2.1.1 0 0 .1 0 .1-.3 0 .3 0 .3.1.4 0-.2.1-.1.1-.3v.2c.1-.5.2-.3.3 0v-.6.1s0 .2.1.1v.1c0-.1 0 .2.1 0v.1-.1.2c.2.1.3-.3.5-.3v.1-.1.1c0 .1.1-.1.1-.1v.2c0-.2.1.3.1-.2v.2c.1-.1.2-.1.3-.1.1-.4.2 0 .2-.4v.1c.1-.3.2 0 .3 0l.1-.1v.1c.1-.4.1.3.2-.1v-.2.1c.2-.4.2.3.3 0v.1c0-.1 0-.1 0 0v.1c0 .3.1 0 .2 0v.2c0-.2.1 0 .1-.1v.1-.1.1c0-.1.1-.2.1-.3zM65 5zm-4.4.8z"/></g><g><path class="st1" d="M77.6 5.9V6zm-.1.3l.1-.3c.1-.2-.1.4-.1.3zm0-.1zm-.8-.1z"/><path class="st1" d="M76.4 6.6v.1c.1-.2.1 0 .1-.1.1.1.2-.1.4-.2v.1c0 .2.1-.1.1 0v-.2c.1 0 .2-.1.3-.2v.2c.2-.3.2-.2.3-.1V6c0-.1-.1.2-.1 0v-.1c0-.1-.1.2 0 .1v-.1s-.1-.1-.1.2v-.2c0 .1 0 .1-.1.2-.1-.1-.3 0-.4 0-.1.4-.1-.1-.2 0 0 .1-.1.1-.1.1l-.1.2c-.1-.4-.3-.2-.4-.3-.2-.1-.3-.4-.5 0V6c-.1.1-.1-.1-.1 0-.2.3-.2-.1-.4.2-.1-.1-.3-.1-.5 0v-.1c-.1.1-.2-.3-.3-.2-.1-.2-.3.4-.4.1 0-.4-.2.4-.2 0 0-.6-.3-.3-.4.1-.1-.2-.3.3-.4-.2-.1.3-.1-.4-.2-.3v.1c0-.3-.1.4-.1 0 0-.2-.1.5-.1.2v-.1.1c.1-.4-.1.1 0-.4v-.3c0-.1 0 0-.1.2 0 .2-.1.4-.1.6v-.2.6c0-.2 0-.1 0 0v.1c0 .2.1-.4 0 0l.1-.1c0-.1 0 0 .1-.2v.3s0 .1 0 0c0 .3.1-.3 0 .1.1-.3 0 .1.1-.2v.2s.1.1.1.2c.1-.3.1.1.1-.2 0 .1 0 .2.1.1 0 0 .1 0 .1-.2v.4c0-.2.1-.1.1-.2v.2c.2-.4.3-.2.3.1 0-.1.1-.4.1-.6v.4c0-.1 0 .2.1 0v.1-.1.2c.1.1.4-.3.5-.2v.1l.1-.1v.1c0 .1.1-.1.1 0v.2c.1-.2 0 .3.1-.1v.2c.1-.1.2-.1.3 0 .1-.4.2 0 .3-.3V7c.1-.3.2.1.3 0h.1v.1c.1-.4.1.4.2 0v.1c.1-.2 0 .1.1-.3V7c.1-.4 0 .2.2-.1V7c0-.1.1-.1.1 0v.1c0 .3.1 0 .2 0v.2c.1-.2.1 0 .1-.1v.1-.1.1c-.1-.6 0-.7.1-.7zm.4-.1zm-4.4-.1z"/></g><g><path class="st1" d="M89 9.9h.1l-.1.1z"/><path class="st1" d="M88.9 10.2l.1-.3c.1-.2-.2.4-.1.3zm0-.1c0-.1 0 .1-.1.1.1-.1 0 .1.1-.1zm-.8-.2z"/><path class="st1" d="M87.7 10.3l-.1.1c.1-.2.1 0 .2 0 .1.1.3-.1.4-.1v.1l.1-.1v.1c-.1.2.1-.1.1.1 0 0 .1-.1.1-.2.1 0 .2 0 .4-.1 0 0 0 .1-.1.2.2-.3.2-.1.3-.1 0-.1 0-.1.1-.2 0-.1-.1.2-.1 0V10c0-.1-.1.2-.1.1s.1-.1.1-.1 0-.1-.2.1c.1-.2 0 0 0-.2 0 .1 0 0-.1.2-.1-.1-.3 0-.4-.1-.2.3-.1-.1-.2 0-.2 0-.2 0-.2-.1l-.1.1c0-.4-.3-.2-.3-.4-.1-.2-.2-.5-.5-.1v-.1c-.1.1-.1-.1-.1 0-.2.2-.2-.1-.5.1-.1-.1-.3-.1-.4-.1v-.1c-.2.1-.1-.3-.3-.2 0-.2-.4.3-.4 0 .1-.4-.3.3-.2-.1.1-.6-.2-.3-.5 0-.1-.2-.4.2-.3-.2-.2.2 0-.4-.1-.3v.1c0-.2-.3.4-.2 0l-.1.2v-.1s-.1.2-.1.1c.1-.4-.1.1.1-.4 0 0 .1-.2.1-.3l-.1.2c-.1.2-.2.4-.2.5l.1-.1c-.1.2 0 .1-.1.2 0 0-.1.2-.1.3.1-.2 0-.1 0 0v.1c-.1.2.1-.3 0 0 .1-.1.1 0 .2 0 0-.1 0 0 .1-.2 0 .2 0 .3.1.3-.1.3.1-.3 0 .1.1-.3 0 .1.1-.2 0 .1 0 .1-.1.2 0 0 0 .1.1.2.1-.2 0 .1.2-.2 0 .1 0 .2.1.1 0 0 .1 0 .2-.2-.1.3-.1.3-.1.4l.2-.2c-.1.2.1-.1 0 .2.3-.4.3-.2.3.2.1-.1.2-.4.3-.5v.4c.1-.1 0 .2.1 0v.1-.1c0 .1-.1.2-.1.2.1.1.4-.2.6 0v.1l.1-.1v.1c0 .1.1 0 .1 0s0 .1-.1.1c.1-.2-.1.3.1-.1 0 0 0 .1-.1.1.1-.1.2-.1.3 0 .2-.3.2 0 .3-.2v.1c.2-.2.2.1.3.1h.1v.1c.2-.3 0 .4.2 0l-.3-.2c.1-.2 0 .1.1-.2v.1c.2-.4 0 .2.2 0v.1c0-.1.1-.1.1 0v.1c-.1.3.1 0 .2 0l-.1.1c.1-.2.1 0 .1 0v.1l.1-.1-.1.1c-.1-.1 0-.2.1-.2zm.4 0zm-4.3-1z"/></g><g><path class="st1" d="M99.4 16.2v-.1.1zm-.2.2l.2-.2c.1-.2-.3.3-.2.2zm0-.1c0-.1-.1.1-.1.1.1-.1 0 .1.1-.1zm-.7-.4z"/><path class="st1" d="M98 16.3l-.1.1c.2-.2.1 0 .1-.1l.1.1c.1.1.3 0 .4 0v.1l.1-.1v.1c-.1.2.1-.1 0 .1l.1-.1c.1 0 .2 0 .4-.1 0 0 0 .1-.1.1.3-.2.3-.1.3 0 .1-.1.1-.1.1-.2.1-.1-.2.2-.1 0l.1-.1c0-.1-.1.2-.1.1s.1-.1.1-.1c-.1 0 0-.1-.2.1l.1-.2-.1.1c0-.2-.3-.1-.3-.1-.3.3-.1-.1-.2-.1-.1.1-.1.1-.1 0l-.1.1c.1-.4-.2-.3-.3-.5-.1-.2-.1-.5-.5-.2v-.1c-.1 0 0-.1-.1-.1-.3.2-.2-.2-.5 0-.1-.1-.2-.2-.4-.2v-.1c-.2.1-.1-.3-.2-.3 0-.2-.4.2-.4 0 .1-.4-.4.3-.2-.1.2-.6-.1-.3-.4-.1 0-.3-.4.1-.3-.3-.2.2.1-.4 0-.3v.1c.1-.3-.3.3 0-.1.1-.2-.3.4-.2.2l-.1.1.1-.1s-.1.2-.1.1c.2-.4-.1.1.2-.4 0 0 .1-.2.2-.2l-.1.1c-.1.2-.2.3-.3.5l.1-.1c-.1.1 0 .1-.1.2 0 0-.1.2-.2.3.1-.2.1-.1.1 0v.1c-.1.2.2-.3 0 0h.2c.1-.1 0 0 .1-.2-.1.2-.1.3-.1.3-.2.3.2-.3 0 .1.2-.3 0 .1.2-.2 0 .1-.1.1-.1.2v.2c.2-.2 0 .1.2-.1 0 .1-.1.2 0 .1 0 0 .1 0 .2-.2-.5.3-.5.2-.5.3l.2-.2c-.1.1.1 0-.1.2.3-.3.3-.1.2.2.1-.1.2-.3.4-.5 0 0-.1.2 0 .2v.1c.1-.1-.1.2 0 0v.1l.1-.1c0 .1-.1.2-.1.1.1.2.5-.1.6.1v.1l.1-.1v.1c0 .1.1 0 .1 0l-.1.1c.1-.2-.1.3.1-.1l-.1.1c.2-.1.2 0 .2.1.3-.3.1.1.4-.2v.1c.2-.2.2.1.3.1h.1l-.1.1c.3-.3-.1.4.2.1l-.1.2c.1-.2 0 .1.2-.2l-.1.1c.3-.4 0 .2.2 0l-.1.1c.1 0 .1-.1.1 0-.2.3.1 0 .1.1l-.1.1c.1-.1.1 0 .1 0v.1h.2-.2.2zm.4.1zm-4-1.9z"/></g><g><path class="st1" d="M108.3 24.4v-.1l-.1.1zm-.2.1c-.1 0-.1.1 0 0l.2-.2-.2.2z"/><path class="st1" d="M108.1 24.5c.1-.1-.1 0-.1.1l.1-.1zm-.7-.6s.1 0 0 0c.1 0 .1 0 0 0zm-.5.3c.1 0 0 .2.1.1 0 .1.3 0 .4 0h-.1l.1-.1h-.1c-.1.2.2 0 0 .1l.1-.1c.1 0 .2.1.4 0l-.1.1c.3-.2.3 0 .3.1l.1-.1c.1-.1-.2.1-.1 0l.1-.1c0-.1-.2.2-.1.1l.1-.1c-.1 0 0-.1-.2 0 .1-.1 0 0 .1-.2-.1 0-.1 0-.2.1 0-.2-.2-.1-.3-.2-.3.2 0-.1-.2-.1-.1 0-.1.1-.1 0l-.1.1c.1-.3-.1-.3-.2-.5s0-.5-.5-.3h.1c-.1 0 0-.1-.1-.1-.3.1-.1-.2-.5-.1-.1-.1-.2-.2-.4-.3l.1-.1c-.2 0 0-.3-.2-.3 0-.2-.5.1-.4-.1.2-.3-.4.2-.2-.1.3-.5-.1-.4-.4-.2 0-.2-.4 0-.2-.4-.2.2.1-.3 0-.3l-.1.1c.2-.2-.3.2 0-.1.1-.2-.4.3-.2.2l-.1.1.1-.1-.1.1c.3-.3-.1 0 .2-.3l.2-.2-.1.1-.4.4.1-.1-.1.1s-.2.2-.2.3c.1-.1.1 0 .1 0l-.1.1c-.1.1.3-.2 0 0h.2c.1-.1 0 0 .2-.1-.2.2-.2.3-.2.3-.2.3.2-.2 0 .1.2-.2 0 .1.2-.1l-.1.1v.2c.2-.2 0 .1.2-.1 0 .1-.1.2 0 .1 0 0 .1 0 .3-.1-.2.3-.2.2-.2.3.1-.1.1 0 .3-.1-.1.1.1 0-.1.1.4-.2.4 0 .2.3l.4-.4s-.1.2-.1.1l-.1.1c.1-.1-.1.2 0 0l.1-.1-.1.1c.1.2.5 0 .5.2h-.1l.1-.1-.1.1c-.1.1.1 0 .1.1l-.1.1c.2-.1-.2.2.2-.1l-.1.1c.2 0 .2 0 .2.1.3-.2.1.1.4-.1l-.1.1c.3-.1.1.2.2.2 0 .1.1 0 .1 0l-.1.1c.3-.2-.1.3.2.1l-.1.1c.2-.1 0 .1.2-.2l-.1.1c.4-.3-.1.2.2 0l-.1.1c.1 0 .1-.1.1 0-.2.3.1.1.1.1l-.1.1c.2-.1.1 0 .1 0h-.1l.1-.1-.1.1c.4.4.5.3.6.4zm.4.2zm-3.6-2.7z"/></g><g><path class="st1" d="M115.4 34.2v-.1l-.1.1z"/><path class="st1" d="M115.1 34.3l.3-.1c.1-.2-.4.1-.3.1zm0-.1c.1 0-.1 0-.1.1l.1-.1zm-.5-.6z"/><path class="st1" d="M114 33.7l-.1.1c.2-.1 0 .1.2.1 0 .1.3.1.4.1h-.1s.1-.1.1 0h-.1c-.2.1.2 0 0 .1 0 0 .1-.1.2-.1s.2.1.4.1c0 0-.1 0-.1.1.3-.1.3 0 .3.1.1 0 .1-.1.2-.1.1-.1-.2.1-.1 0h.1s-.2.1-.1 0c.1 0 .1-.1.1-.1-.1 0 0-.1-.2 0 .2-.1 0 0 .1-.1-.1 0-.1 0-.2.1 0-.2-.2-.2-.3-.3-.4.1 0-.1-.2-.1h-.1l-.2.1c.2-.3-.1-.3-.1-.5s.1-.5-.4-.4h.1c-.1 0 0-.1-.1-.1-.3.1-.1-.2-.4-.1 0-.1-.2-.3-.3-.3h.1c-.2 0 .1-.3-.1-.4.1-.2-.5 0-.4-.2.3-.3-.4.1-.2-.2.4-.4 0-.4-.3-.3.1-.2-.4 0-.1-.4-.3.1.2-.3.1-.3l-.1.1c.2-.2-.4.2 0-.1.2-.1-.4.3-.2.1l-.1.1.1-.1s-.2.1-.1.1c.4-.2-.1 0 .3-.3l.2-.2-.2.1c-.2.1-.3.2-.5.3l.1-.1c-.1.1-.1 0-.2.1 0 0-.2.2-.3.2.2-.1.1 0 .1 0l-.1.1c-.2.1.3-.2 0 0 .1 0 .1 0 .1.1.1-.1 0 0 .2-.1l-.2.2c-.3.2.3-.2-.1.1.2-.2-.1.1.2-.1-.1 0-.1.1-.1.1v.2c.2-.1-.1.1.3-.1-.1.1-.2.2 0 .1 0 0 .1 0 .3-.1-.3.2-.2.2-.3.3.1-.1.1 0 .3-.1-.1.1.1 0-.1.1.4-.2.4 0 .1.3.1-.1.4-.2.5-.3l-.1.1h-.1c.1 0-.1.1 0 .1h-.1.1c-.1 0-.2.1-.1.1 0 .2.5.1.5.3h-.1c-.1.1.1 0 .1.1l-.1.1c.2-.1-.2.2.2 0l-.1.1c.2 0 .2.1.2.2.4-.2.1.1.4 0h-.1c.3-.1.1.2.2.2 0 .1.1 0 .1.1l-.1.1c.4-.1-.2.3.2.1l-.1.1c.2-.1 0 .1.3-.1l-.1.1c.4-.2-.1.2.2.1h-.1c-.3.2.1.1.1.1l-.1.1c.2-.1.1.1.1 0h-.1.1l-.1.1c.1-.1.3-.1.3-.1zm.4.3zm-3-3.3z"/></g><g><path class="st1" d="M120.3 45.2h.1-.1zm-.2 0c-.1 0-.1.1 0 0l.3-.1c.1 0-.5.2-.3.1z"/><path class="st1" d="M120.1 45.2h-.1c.1 0-.1.1.1 0zm-.4-.7z"/><path class="st1" d="M119.1 44.5h-.1c.2 0 0 .1.1.1 0 .1.2.1.4.2h-.1c-.2.1.2 0 0 .1 0 0 .1 0 .2-.1.1.1.2.1.3.2 0 0-.1 0-.2.1.4 0 .3.1.2.2.1 0 .1 0 .2-.1s-.2 0-.1 0h.1s-.2.1-.1 0h.1s0-.1-.2 0l.2-.1h-.2c.1-.1-.2-.2-.2-.3-.4.1 0-.1-.1-.2h-.3c.3-.3 0-.3.1-.5 0-.2.2-.4-.3-.4h.1c-.1 0 0-.1-.1-.1-.3 0 0-.2-.4-.2 0-.1-.1-.3-.2-.4h.1c-.2-.1.1-.3 0-.4.1-.2-.5-.1-.3-.3.3-.2-.5 0-.1-.2.5-.4.1-.3-.3-.4.1-.2-.4-.1-.1-.4-.3 0 .3-.3.2-.3h-.1c.3-.1-.4.1 0-.1.2-.1-.5.2-.2.1h-.1s.1 0 .1-.1c0 0-.2.1-.1 0 .4-.2-.1 0 .3-.2 0 0 .2-.1.3-.1h-.2c-.2.1-.4.2-.5.2l.1-.1c-.1.1-.1 0-.2.1 0 0-.2.1-.3.2.2-.1.1 0 .1 0h-.1c-.2.1.3-.1 0 0 .1 0 .1.1.1.1.1 0 0 0 .2-.1-.2.1-.3.2-.3.2-.3.2.3-.1-.1.1.3-.1-.1.1.3 0-.1 0-.1.1-.2.1 0 0-.1.1-.1.2.3-.1-.1.1.3 0-.1.1-.2.1 0 .1 0 0 .1.1.3 0-.3.1-.2.1-.3.2h.3c-.1.1.1 0-.1.1.4-.1.3.1.1.3.1 0 .4-.1.5-.2h-.1s-.2.1-.1.1h-.1c.1 0-.2.1 0 .1h-.1.1c-.1 0-.2.1-.2.1 0 .2.4.2.4.4h-.1c-.1.1.1 0 .1.1 0 0-.1 0-.1.1.2 0-.2.1.2 0 0 0-.1 0-.1.1.2 0 .2.1.2.2.4-.1.1.1.4.1h-.1c.3 0 .1.2.1.3 0 0 .1 0 .1.1h-.1c.4-.1-.3.3.1.2h-.1c.2-.1-.1.1.3-.1h-.1c.5-.1-.2.2.1.1h-.1c-.3.2.1.1.1.1h-.1c.2 0 0 .1.1.1h-.1.1-.1c.1.2.3.2.3.3zm.3.3zm-2.3-3.8z"/></g><g><path class="st1" d="M123 57h-.1zm-.3 0c-.1 0-.1 0 0 0zm0 0h-.1.1zm-.2-.8zm-.6-.2h-.1c.2 0 0 .1.1.1 0 .1.2.2.3.3h-.1c-.2.1.1 0 0 .1h.2c.1.1.1.2.3.2h-.2c.4 0 .2.1.2.2h.2c.1 0-.2 0-.1-.1h.1s0-.1-.2-.1c.2 0 0 0 .2-.1h-.2c.1-.1-.1-.2-.1-.3-.4 0 .1-.1-.1-.2-.1 0-.1 0-.1-.1h-.2c.3-.2 0-.3.2-.5.1-.2.3-.4-.2-.5h.1c-.1 0 0-.1 0-.1-.3-.1 0-.3-.4-.3 0-.1 0-.3-.2-.4h.1c-.2-.1.2-.3.1-.4.2-.2-.5-.2-.3-.3.4-.1-.4-.1-.1-.2.5-.3.2-.3-.2-.4.2-.2-.4-.2 0-.4-.3 0 .3-.2.2-.2h-.1c.3-.1-.4 0 0-.1.2-.1-.5.1-.3 0h-.1.1c.4-.1-.1 0 .4-.1 0 0 .2-.1.3-.1h-.2c-.2 0-.4.1-.6.1h.2-.2s-.2.1-.3.1h.1-.1c-.2 0 .4 0 0 0 .1 0 .1.1.1.1h.2l-.3.1s-.1 0 0 0c-.3.1.3 0-.1.1.3-.1-.1.1.3 0h-.2l-.1.1c.3 0-.1.1.3.1-.1 0-.2.1-.1.1 0 0 .1.1.3.1-.3.1-.3.1-.4.1.2 0 .1 0 .3.1-.2 0 .1 0-.2.1.5 0 .3.2 0 .3.1 0 .4 0 .6-.1h-.1s-.2.1-.1.1h-.1c.1 0-.2.1 0 .1h-.1.1-.2c0 .2.4.3.3.5h-.1c-.1.1.1.1.1.1h-.2c.2 0-.3.1.2 0h-.2c.2.1.2.1.1.2.4 0 .1.1.4.2h-.1c.3.1 0 .2.1.3l.1.1h-.1c.4 0-.3.2.1.2h-.1c.2 0-.1.1.3 0h-.1c.5 0-.2.1.1.1h-.1c.1 0 .1 0 0 0h-.1c-.3.1.1.1 0 .2h-.2c.2 0 0 .1.1.1h-.1.1-.1c.4.4.6.4.6.4zm.2.5zm-1.4-4.3z"/></g><g><path class="st2" d="M48.9 73.3c-.6-.4-1.3-.6-2.2-.6-.4 0-.7 0-1.1.1-.4.1-.7.2-.9.4-.3.2-.5.4-.7.7-.2.3-.2.6-.2 1.1 0 .4.1.7.4 1 .2.2.6.5.9.6.4.2.8.3 1.3.4l1.5.3c.5.1 1 .3 1.5.4.5.2.9.4 1.3.7.4.3.7.6.9 1.1.2.4.4 1 .4 1.6 0 .7-.2 1.3-.5 1.8s-.7.9-1.2 1.2c-.5.3-1 .5-1.6.7-.6.1-1.2.2-1.8.2-.7 0-1.4-.1-2.1-.3-.6-.2-1.2-.5-1.7-.8-.5-.4-.9-.8-1.2-1.4-.3-.6-.4-1.3-.4-2h1.6c0 .5.1 1 .3 1.4.2.4.5.7.8 1 .3.3.7.4 1.2.6.5.1.9.2 1.4.2.4 0 .8 0 1.2-.1.4-.1.7-.2 1.1-.4.3-.2.6-.4.8-.7.2-.3.3-.7.3-1.2s-.1-.8-.4-1.1c-.2-.3-.6-.5-.9-.7-.4-.2-.8-.3-1.3-.4l-1.5-.3c-.5-.1-1-.2-1.5-.4s-.9-.4-1.3-.6c-.4-.2-.7-.6-.9-1-.2-.7-.4-1.2-.4-1.8 0-.7.1-1.2.4-1.7.3-.5.6-.9 1.1-1.2.4-.3.9-.5 1.5-.7.6-.2 1.1-.2 1.7-.2.7 0 1.3.1 1.9.2.6.2 1.1.4 1.5.7.4.3.8.8 1 1.3.2.5.4 1.1.4 1.8h-1.6c-.1-.8-.4-1.5-1-1.9zm11 3.4c-.4-.3-.9-.5-1.6-.5-.6 0-1 .1-1.4.3-.4.2-.7.5-.9.8-.2.3-.4.7-.5 1.2-.1.4-.1.9-.1 1.4 0 .4.1.9.2 1.3s.3.8.5 1.1c.2.3.5.6.9.8.4.2.8.3 1.3.3.8 0 1.4-.2 1.8-.6.4-.4.7-1 .8-1.7h1.6c-.2 1.2-.6 2.1-1.3 2.7-.7.6-1.6.9-2.9.9-.7 0-1.4-.1-1.9-.3-.6-.2-1-.6-1.4-1-.4-.4-.6-.9-.8-1.5-.2-.6-.3-1.2-.3-1.9s.1-1.4.3-2c.2-.6.5-1.1.8-1.6.4-.5.8-.8 1.4-1.1.6-.3 1.2-.4 1.9-.4.5 0 1 .1 1.5.2s.9.3 1.2.6c.4.3.7.6.9 1 .2.4.4.9.4 1.4h-1.6c-.1-.6-.4-1.1-.8-1.4zm10.9 7.8V83c-.3.6-.7 1-1.3 1.3-.5.3-1.1.4-1.8.4-.6 0-1.1-.1-1.5-.2-.4-.2-.7-.4-1-.7-.3-.3-.4-.7-.5-1.1-.1-.4-.2-.9-.2-1.4v-6.2H66v6.4c0 .6.2 1 .5 1.4.3.3.8.5 1.4.5.5 0 .9-.1 1.2-.2.3-.1.6-.4.9-.6.2-.3.4-.6.5-.9.1-.4.2-.7.2-1.2v-5.3h1.5v9.4h-1.4zm3.2-8.1V75h1.6v-1.4c0-.8.2-1.3.7-1.7.4-.4 1.1-.6 1.9-.6h.5c.2 0 .4.1.5.1v1.3c-.1 0-.3-.1-.4-.1h-.4c-.4 0-.7.1-.9.2-.2.1-.3.4-.3.8v1.3H79v1.4h-1.8v8h-1.5v-8H74zm5.7 0V75h1.6v-1.4c0-.8.2-1.3.7-1.7.4-.4 1.1-.6 1.9-.6h.5c.2 0 .4.1.5.1v1.3c-.1 0-.3-.1-.4-.1h-.4c-.4 0-.7.1-.9.2-.2.1-.3.4-.3.8v1.3h1.8v1.4h-1.8v8h-1.5v-8h-1.7zM31.1 89.7c1.2 0 2.2.3 2.9.9.7.6 1 1.4 1 2.5 0 .8-.2 1.5-.5 2.1-.4.6-.9 1-1.7 1.2.4.1.7.2.9.4l.6.6c.1.2.2.5.3.8.1.3.1.6.2.9 0 .3 0 .6.1 1 0 .3 0 .6.1 1 0 .3.1.6.2.9.1.3.2.5.4.8h-1.9c-.1-.1-.2-.3-.2-.5s-.1-.5-.1-.8v-.9c0-.3 0-.6-.1-1 0-.3-.1-.6-.2-.9-.1-.3-.2-.5-.3-.7-.2-.2-.4-.4-.6-.5-.3-.1-.6-.2-1-.2H27v5.6h-2v-13h6.1zm.4 5.9c.4-.1.7-.2 1-.4.3-.2.5-.4.7-.7.2-.3.2-.7.2-1.2 0-.7-.2-1.2-.5-1.6-.4-.4-1-.6-1.8-.6h-4.3v4.5h3.6c.3.1.7.1 1.1 0zm12.7 6.5c-.7.5-1.6.8-2.7.8-.8 0-1.4-.1-2-.4-.6-.2-1-.6-1.4-1-.4-.4-.7-1-.8-1.6-.2-.6-.3-1.3-.3-2s.1-1.4.3-2c.2-.6.5-1.1.9-1.5.4-.4.9-.8 1.4-1 .5-.2 1.1-.4 1.8-.4.8 0 1.5.2 2.1.5.6.3 1 .8 1.3 1.3.3.5.6 1.1.7 1.7.1.6.2 1.2.2 1.8h-7c0 .4 0 .8.1 1.2.1.4.3.7.5 1 .2.3.6.5.9.7.4.2.8.3 1.3.3.7 0 1.2-.2 1.6-.5.4-.3.7-.8.8-1.4h1.5c0 1.2-.5 2-1.2 2.5zm-.4-6c-.1-.3-.3-.6-.6-.8-.2-.2-.5-.4-.8-.6-.3-.1-.7-.2-1.1-.2-.4 0-.8.1-1.1.2-.3.1-.6.3-.8.6-.2.2-.4.5-.5.8-.1.3-.2.7-.2 1h5.4c0-.4-.1-.7-.3-1zm5.1 4.5c.1.2.3.4.6.6.2.1.5.2.8.3.3.1.6.1.9.1.2 0 .5 0 .8-.1.3 0 .5-.1.7-.2.2-.1.4-.2.6-.4.1-.2.2-.4.2-.7 0-.4-.2-.7-.5-.9-.3-.2-.7-.4-1.1-.5l-1.5-.3c-.5-.1-1-.2-1.5-.4s-.8-.5-1.1-.8c-.3-.3-.5-.8-.5-1.4 0-.5.1-.9.3-1.2.2-.3.5-.6.8-.8.3-.2.7-.4 1.1-.5.4-.1.8-.2 1.2-.2.5 0 1 0 1.5.1.4.1.8.2 1.2.5.3.2.6.5.8.9.2.4.3.9.4 1.4h-1.5c0-.3-.1-.6-.2-.8-.1-.2-.3-.4-.5-.5-.2-.1-.4-.2-.7-.3-.2-.1-.5-.1-.8-.1-.2 0-.5 0-.7.1-.2 0-.5.1-.6.2-.2.1-.4.2-.5.4-.1.2-.2.4-.2.6 0 .3.1.5.3.7.2.2.4.3.7.4.3.1.6.2 1 .3.4.1.7.2 1.1.2.4.1.8.2 1.1.3.4.1.7.3 1 .5.3.2.5.5.7.8.2.3.3.7.3 1.1 0 .6-.1 1-.4 1.4-.2.4-.5.7-.9.9-.4.2-.8.4-1.3.5-.5.1-1 .1-1.4.1-.5 0-1-.1-1.5-.2s-.9-.3-1.3-.5-.7-.6-.9-1c-.2-.4-.3-.9-.4-1.5h1.5c.2.4.2.7.4.9zm8.4-9v-1.9h1.5v1.9h-1.5zm1.5 1.7v9.4h-1.5v-9.4h1.5zm4 7.3c.1.2.3.4.6.6.2.1.5.2.8.3.3.1.6.1.9.1.2 0 .5 0 .8-.1.3 0 .5-.1.7-.2.2-.1.4-.2.6-.4.1-.2.2-.4.2-.7 0-.4-.2-.7-.5-.9-.3-.2-.7-.4-1.1-.5l-1.5-.3c-.5-.1-1-.2-1.5-.4s-.8-.5-1.1-.8c-.3-.3-.5-.8-.5-1.4 0-.5.1-.9.3-1.2.2-.3.5-.6.8-.8.3-.2.7-.4 1.1-.5.4-.1.8-.2 1.2-.2.5 0 1 0 1.5.1.4.1.8.2 1.2.5.3.2.6.5.8.9.2.4.3.9.4 1.4H67c0-.3-.1-.6-.2-.8-.1-.2-.3-.4-.5-.5-.2-.1-.4-.2-.7-.3-.2-.1-.5-.1-.8-.1-.2 0-.5 0-.7.1-.2 0-.5.1-.6.2-.2.1-.4.2-.5.4-.1.2-.2.4-.2.6 0 .3.1.5.3.7.2.2.4.3.7.4.3.1.6.2 1 .3.4.1.7.2 1.1.2.4.1.8.2 1.1.3.4.1.7.3 1 .5.3.2.5.5.7.8.2.3.3.7.3 1.1 0 .6-.1 1-.4 1.4-.2.4-.5.7-.9.9-.4.2-.8.4-1.3.5-.5.1-1 .1-1.4.1-.5 0-1-.1-1.5-.2s-.9-.3-1.3-.5-.7-.6-.9-1c-.2-.4-.3-.9-.4-1.5h1.5c.1.4.2.7.4.9zm12.3-7.3v1.4h-1.9v6.2c0 .1.1.2.2.3.1.1.2.1.4.1h1.3v1.4h-1.2c-.4 0-.7 0-1-.1-.3-.1-.5-.2-.7-.3-.2-.1-.3-.4-.4-.6-.1-.3-.1-.6-.1-1.1v-6H70v-1.4h1.6v-2.8h1.5v2.8h2zm9.3 9.6c-.4 0-.7-.1-1-.3-.2-.2-.4-.6-.4-1.1-.4.5-.9.9-1.5 1.1-.6.2-1.2.3-1.8.3-.4 0-.8 0-1.2-.1-.4-.1-.7-.2-1-.5-.3-.2-.5-.5-.7-.8-.2-.3-.2-.7-.2-1.2s.1-1 .3-1.3c.2-.3.4-.6.7-.8.3-.2.6-.4 1-.5l1.2-.3c.4-.1.8-.1 1.2-.2.4 0 .7-.1 1-.2.3-.1.5-.2.7-.3.2-.2.3-.4.3-.7 0-.3-.1-.6-.2-.8-.1-.2-.3-.4-.5-.5-.2-.1-.4-.2-.7-.2-.2 0-.5-.1-.7-.1-.7 0-1.2.1-1.6.4-.4.2-.7.7-.7 1.4H77c0-.6.1-1.1.4-1.5.2-.4.5-.7.9-1 .4-.2.8-.4 1.3-.5.5-.1 1-.2 1.5-.2.4 0 .8 0 1.3.1.4.1.8.2 1.1.4.3.2.6.5.8.8.2.3.3.8.3 1.3v4.8c0 .4 0 .6.1.8 0 .2.2.3.4.3.1 0 .3 0 .5-.1v1.2c-.4.2-.8.3-1.2.3zm-2.2-4.7c-.3.1-.6.1-1 .2-.3 0-.7.1-1 .1-.4.1-.7.1-.9.3-.3.1-.5.3-.7.5-.2.2-.3.5-.3.9 0 .3.1.5.2.6.1.2.2.3.4.4.2.1.4.2.6.2.2 0 .5.1.7.1.5 0 .9-.1 1.3-.2s.7-.3.9-.5c.2-.2.4-.4.5-.7.1-.2.2-.5.2-.7v-1.6c-.3.2-.6.3-.9.4zm6.5-4.9v1.5c.6-1.1 1.7-1.7 3.1-1.7.6 0 1.1.1 1.5.3.4.2.7.4 1 .7.3.3.4.7.5 1.1.1.4.2.9.2 1.4v6.2h-1.5v-6.4c0-.6-.2-1-.5-1.4-.3-.3-.8-.5-1.4-.5-.5 0-.9.1-1.2.2-.3.1-.6.4-.9.6-.2.3-.4.6-.5.9-.1.4-.2.7-.2 1.2v5.3h-1.5v-9.4h1.4zm13.1 0v1.4h-1.9v6.2c0 .1.1.2.2.3.1.1.2.1.4.1h1.3v1.4h-1.2c-.4 0-.7 0-1-.1-.3-.1-.5-.2-.7-.3-.2-.1-.3-.4-.4-.6-.1-.3-.1-.6-.1-1.1v-6h-1.6v-1.4h1.6v-2.8h1.5v2.8h1.9z"/></g><g><path class="st3" d="M99 39.6v-.1l-.1-.2zm-.3-1.1l.3.7c.1-.3-.4-.5-.3-.7zm0-.2c.1-.2-.1-.3-.1-.4.1.1 0 .5.1.4zM87.8 21.2z"/><path class="st3" d="M82.5 19.7c.4.1 1 .2 1.5.4l1.5.6h-.1c2.5 1.1 4.7 2.3 6.7 4.1H92c.1.1.3.1.4.2h-.1c.3.5 1.2 1.2 1.4 1.5.1.1.2.1.2 0 1.4 1.6 2.6 3.6 3.5 5.6 0 .1 0 .1-.1.1 1 1.6 1.3 3.7 1.4 5.6.1.1.1-.2.2 0 .1-.6-.3-1.1-.3-1.7l.1.1c0-.4-.2-.1-.2-.5 0-.2.1 0 .1-.1-.2-.8-.4-1.8-.8-2.5.1-.2-.3-.9-.3-1.2-.1-.2-.2-.4-.3-.4-1.1-2.8-3.1-5.3-5.4-7.4-1.2-.8-2.5-2-4-2.8-.5-.2-1.3-.5-1.9-.8l-.6-.1c-3.7-1.7-8-1.9-12-1.1-2.3.4-4.4 1.2-6.3 2.3-1 .5-1.8 1.2-2.7 1.9-.8.8-1.6 1.5-2.2 2.5 0 0-.1 0 0-.1l-1.2 1.5-.6.7c-.2.3-.3.5-.5.8-1.4 2.7-2.7 5.8-2.7 8.8-.4 3.5.2 7.6 2 11H59c1.4 2.6 2.9 5.2 5.3 7.1 2.3 2.1 5.5 3.2 8.4 4.1.2.1.5.2.7.3.3.1.5.1.8.1.5.1 1.1.1 1.6.1h3.1c3.8.3 7.3-1.3 10.2-3.6 1.4-.9 2.7-2 3.8-3.4.6-.6 1-1.3 1.5-2s.9-1.4 1.4-2c.2-.8.7-1.4 1-2.2l.6-1.2c.1-.4.3-.8.4-1.3h-.1c.4-.6 0-1.4.4-1.7v.1c.2-.3-.3-.8-.1-1v-.3c0-.4.1 0 .2-.3 0-.1-.2-.1-.1-.3.4 0 0-1 .4-1 0 .2.2-.3.2.2 0-.1.1-.8-.1-.8-.2-.1-.3-.3-.5.1l.1.1c-.1.1-.1.1-.2.1 0 .5-.2.6-.3 1 .1.3 0 .6 0 .8l-.1.1c-.2.1.2.6 0 .4-.1.5-.1 1.1-.2 1.7-.1.6-.3 1.1-.4 1.7 0 .2-.3.8 0 .7-.3.2-.6 1-.8 1.3v-.1c-.5.4-.1.8-.7 1.2.1.1 0 .3-.2.6-.2.2-.3.5-.3.7h-.2c-.5.9-1.3 1.8-1.9 2.5-.4.7-1.3 1.3-1.6 1.9-.2.2-.5.4-.8.6-.3.2-.7.5-.9.7v-.1c-.7.6-1.6 1.1-2 1.6-.4-.1-.7.1-1 .2-.2.2-.6.4-1 .6-.4.2-.9.4-1.3.6-.2-.1-.7.3-.8.1-2.2 1.1-5.5 1.3-8 .7-.3.1-.8.2-1.1.3 0 0 0-.1.1 0-.2 0-.5-.1-.7-.2-.2-.1-.4-.2-.7-.2h.1c-.5 0-.9-.4-1.4-.4v-.1h-.3c0-.1.1-.1.2-.1-2-.7-3.8-1.6-5.6-2.8-1.8-1.2-3.4-2.7-4.6-4.4l.1.1-.6-.7h.1c-.5-1-1.2-1.8-1.6-2.8 0 0 .2.1.1 0-.5-.6-.3-1.2-.7-1.4 0 0 .1-.1.1 0-.5-1-.7-2-1-3-.2-1.1-.3-2.1-.3-3.2-.2-.9-.1-1.8-.1-2.8 0-.5.1-.9.2-1.4 0-.5.1-.9.2-1.4h.1c.3-2.4 1.6-4.7 3-6.8.7-.8 1-1.5 1.7-2.2h.1c.5-.8 1.2-1.3 2-1.9.4-.3.8-.5 1.2-.8.2-.1.4-.3.5-.4.2-.1.4-.3.5-.4v.2c.2-.3 1-.5.7-.7l.3-.1c.5-.5 1-.7 1.6-.9.6-.2 1.2-.3 1.9-.7l-.1.1c.4-.2.8-.3 1.1-.4l-.1.1c.7 0 1.3-.2 2-.3.7-.1 1.3-.4 2-.3l-.1.1c.6-.2 1.8-.1 2.7-.1l-.1.1.4-.1v.1c.6 0 1.1.1 1.6.1.4-.1 1-.1 1.5.1zm9.8 5.2zM97.7 41v-.1.1z"/><path class="st3" d="M99.4 39.5v-.3zm-.1-1.1l.1.7c0-.3-.1-.5-.1-.7zm0-.2v-.4.4zM88.6 21.3zm-5.2-1.8c.4.1 1 .2 1.5.4l1.5.6h-.1c2.5 1 4.7 2.4 6.6 4.3 0 0-.1 0-.1-.1l.3.3H93c.4.4 1.2 1.2 1.4 1.5l.1.1c1.4 1.6 2.5 3.6 3.3 5.6v.1c.8 1.7 1.1 3.6 1.3 5.5 0 .1 0-.2 0 0 0-.6-.2-1.1-.2-1.7v.1c-.1-.4-.1-.1-.1-.5 0-.2 0 0 0 0-.2-.8-.4-1.7-.7-2.5 0-.2-.3-.9-.4-1.2-.1-.2-.2-.4-.2-.5-1.2-2.8-3-5.3-5.3-7.3-1.1-.9-2.5-2-3.9-2.8-.5-.2-1.2-.6-1.8-.9l-.5-.2c-3.7-1.5-7.9-1.8-11.9-1-2.3.5-4.3 1.3-6.1 2.4-.9.5-1.8 1.2-2.6 1.8-.8.7-1.6 1.5-2.3 2.3v-.1l-1.2 1.5-.3.8c-.2.3-.3.5-.5.8-1.5 2.6-2.7 5.7-2.9 8.6-.3 3.5.2 7.6 1.9 10.9 1.3 2.7 3.1 5.1 5.4 7 2.3 2 5.4 3.4 8.3 4.2 1.8.5 4.4.6 6.2.5 3.7-.1 7.2-1.4 10.2-3.5 2.8-1.9 5.1-4.6 6.7-7.4.3-.7.7-1.4 1-2.2.2-.4.3-.8.5-1.2l.3-1.3v.1c.2-.6.2-1.4.4-1.7v.1c.1-.3 0-.8.1-1v-.1c0-.4 0 0 .1-.4v-.3c.1 0 0-1 .1-1 0 .2.1-.3 0 .2v-.8c0-.1-.1-.3-.1.1v.3c0 .5-.1.6-.1 1v.9c-.1.1 0 .6-.1.4-.1.5-.1 1.1-.3 1.7-.1.6-.3 1.2-.4 1.7 0 .2-.3.9-.2.6-.2.3-.5 1.1-.6 1.4v-.1c-.3.6-.3.7-.6 1.2 0 .1-.1.3-.3.6-.2.3-.3.5-.4.7 0 .1-.1.1-.1 0-.5.9-1.3 1.9-1.9 2.6-.5.6-1.3 1.4-1.8 1.9-.2.2-.5.4-.8.7-.3.2-.6.5-1 .7l.1-.1c-.7.6-1.6 1.1-2.1 1.5-.2.1-.6.3-.9.4-.3.1-.7.3-1.1.6-.4.2-.9.4-1.4.5-.1 0-.7.3-.8.2-2.4.8-5.6 1.1-8.2.7-.3 0-.8 0-1.1-.1-.2 0-.5-.1-.7-.1-.2-.1-.5-.1-.7-.2h.1c-.4-.1-.9-.3-1.4-.4l-.3-.1h.2c-2-.6-3.9-1.6-5.7-2.9-1.8-1.2-3.3-2.8-4.6-4.6l.1.1-.5-.7.1.1c-.5-.9-1.2-1.8-1.6-2.8 0 0 .1.1 0 0-.4-.7-.5-1.1-.7-1.5 0 0 0-.1 0 0-.4-1-.7-2.1-.9-3.1-.2-1.1-.4-2.2-.4-3.2-.1-.9 0-1.9 0-2.8 0-.5.1-1 .2-1.4.1-.5.1-.9.3-1.4.5-2.4 1.6-4.8 3-6.8.6-.8 1-1.4 1.7-2.2.5-.7 1.3-1.3 2-1.9.4-.3.8-.6 1.1-.8l.6-.4.6-.4-.1.1c.2-.2 1-.6.8-.6l.3-.2c.5-.3 1.1-.6 1.6-.8.6-.2 1.2-.4 1.9-.7h-.1c.4-.2.8-.3 1.1-.3h-.1c1.2-.3 2.6-.6 4-.7h-.2c.6-.1 1.8-.1 2.7 0h-.1.4c.6 0 1.1.1 1.6.2.9.2 1.4.2 1.9.4zm9.8 5.4c0-.1 0-.1 0 0zm5.9 16v-.1.1z"/><defs><circle id="SVGID_1_" cx="78.1" cy="39.2" r="20.7"/></defs><clipPath id="SVGID_2_"><use xlink:href="#SVGID_1_" overflow="visible"/></clipPath><g class="st4"><path class="st3" d="M95.7 57.4zm.2-.3c-.1 0-.1 0 0 0l-.1.3c.1-.1 0-.3.1-.3zm0-.1c.1-.1.1-.1 0-.1.1 0-.1.1 0 .1zm4.5-6.2z"/><path class="st3" d="M99.4 49c.2.3.2.7.4 1.1.1.3.3.7.4.9-.3.5-.7 1-1 1.5 0 0 0 .1-.1.1-.2.1-.3.5-.5.6v.1c-.5.6-.9 1.3-1.4 2h-.1c-.3.6-.8 1.1-1.2 1.7h.1c.2-.1.2-.4.4-.5.1-.1 0-.1.1-.2.1 0 0 0 0 0 .2-.3.4-.5.5-.8.1 0 .2-.3.3-.3 0-.1.1-.1.1-.2.7-.8 1.3-1.8 2-2.6.1-.2.2-.4.4-.6l.3-.3.1-.2.2-.2-.1-.3c-.1-.2-.2-.4-.3-.7l-.1-.2c-.4-1.4-1.1-2.7-1.6-4.1-.3-.8-.6-1.5-.9-2.3l-.7-.1-.6-.1c-.4 0-.8-.1-1.2-.1-.5 0-.9-.1-1.3-.2-1.1 0-2.3-.3-3.3-.3-.3 0-.5-.1-.8-.1-.7.9-1.4 1.8-2 2.7-.6.9-1.4 1.7-2 2.5-.3.3-.5.7-.8 1.1.3.7.7 1.3.9 2 .1.7.8 1.4.9 2.1.3 1.1.8 2.2 1.3 3.2h.5c1.2.2 2.5.2 3.7.5.6 0 1.2.3 1.8.3.2.1.5-.1.6.1.1.1.3-.1.4 0 .1 0 0 0 .1.1 0 0 0-.1.1 0 0 .2.4 0 .3.2-.1 0 .1.1-.1.1h.3c0-.1.1-.1 0-.2-.2 0-.2-.1-.3-.2-.1.1-.2 0-.3 0 0-.1-.2.1-.2 0-.4 0-.8-.1-1.3-.1h-.3c-.1-.1-.4-.2-.5-.2-.2-.2-.3.1-.5-.1 0 .1-.4-.1-.5 0v-.1c-.4-.1-.8-.1-1.2-.2-.3.1-.7-.1-1 0-.2-.1-.5-.2-.8-.1h-.7c.1-.1 0-.2 0-.4-.1-.2-.3-.6-.5-.9 0-.1-.1-.2-.1-.3-.5-.8-.9-1.9-1.2-2.8l-.3-.3c-.1-.2-.1-.3-.2-.5-.1-.1-.1-.3-.2-.5l-.1-.1h.1l-.3-.7-.1-.6-.1-.2v-.1c.3-.4.6-.8.8-1.2.3-.4.6-.9 1-1.3v.1l.2-.3c.3-.3.5-.7.7-1 0 0 0 .1 0 0 .1-.3.4-.3.3-.5.4-.7.9-1.3 1.4-1.9 0-.1.1-.2.1-.2h.4l.4.1c.3 0 .6.1.9.1.9 0 1.8.2 2.7.3.4.1.6.1 1 .1.7 0 1.3.3 2 .2h-.1.4v.1c.3.4.2.8.6 1.3.1.1.2.3.2.4.1.5.4.9.6 1.4h-.1c.2.2.3.6.4.9l.1.1c.2.7.3 1 .5 1.4zm-.3 3.6c0-.1 0-.1 0 0zM95 56.9c0 .1 0 .1 0 0zm-10.2-7.8V49z"/><path class="st3" d="M85 48.7s-.1 0 0 0l-.1.3c.1-.1 0-.2.1-.3zm0 0c.1-.1.1-.1 0-.1.1 0 0 .1 0 .1zm4.5-6.3z"/><path class="st3" d="M88.5 40.6c.2.3.2.7.4 1.1.1.3.3.7.4.9-.3.5-.7 1-1 1.5 0 0 0 .1-.1.1-.2.1-.3.5-.5.6v.1c-.5.6-.9 1.3-1.4 2h-.1c-.3.6-.8 1.1-1.2 1.7h.1c.2-.2.2-.4.4-.5.1-.1 0-.1.1-.2.1 0 0 0 0 0 .2-.3.4-.5.5-.8.1 0 .2-.3.3-.3 0-.1.1-.1.1-.2.7-.8 1.3-1.8 2-2.6.1-.2.2-.4.4-.6l.3-.3.1-.2.2-.2-.1-.3c-.1-.2-.2-.4-.3-.7l-.1-.1c-.4-1.4-1.1-2.7-1.6-4.1-.3-.8-.6-1.6-.9-2.3l-.7-.1-.6-.1c-.4 0-.8-.1-1.2-.1-.5 0-.9-.1-1.3-.2-1.1 0-2.3-.3-3.3-.3-.2 0-.5-.1-.8-.1-.7.9-1.4 1.8-2 2.7-.6.9-1.4 1.7-2 2.5-.3.3-.5.7-.8 1.1.3.7.7 1.3.9 2 .1.7.8 1.4.9 2.1.3 1.1.8 2.2 1.3 3.2h.5c1.2.2 2.5.2 3.7.5.6 0 1.2.3 1.8.3.2.1.5-.1.6.1.1.1.3-.1.4 0 .1 0 0 0 .1.1 0 0 0-.1.1 0 0 .2.4 0 .3.2-.1 0 .1.1-.1.1h.3c0-.1.1-.1 0-.2-.2 0-.2-.1-.3-.2-.1.1-.2 0-.3 0 0-.1-.2.1-.2 0-.4 0-.8-.1-1.3-.1h-.3c-.1-.1-.4-.2-.5-.2-.2-.2-.3.1-.5-.1 0 .1-.4-.1-.5 0v-.1c-.4-.1-.8-.1-1.2-.2-.3.1-.7-.1-1 0-.2-.1-.5-.2-.8-.1H77c.1-.1 0-.2 0-.4-.1-.2-.3-.6-.5-.9 0-.1-.1-.2-.1-.3-.5-.8-.9-1.9-1.2-2.8l-.3-.3c-.1-.2-.1-.3-.2-.5-.1-.1-.1-.3-.2-.5l-.1-.1h.1l-.3-.7-.2-.4v-.5c.3-.4.6-.8.8-1.2.3-.4.6-.9 1-1.3v.1l.2-.3c.3-.3.5-.7.7-1 0 0 0 .1 0 0 .1-.3.4-.3.3-.5.4-.7.9-1.3 1.4-1.9 0-.1.1-.2.1-.2h.4l.4.1c.3 0 .6.1.9.1.9 0 1.8.2 2.7.3.4.1.6.1 1 .1.7-.1 1.3.3 2 .2h-.1.4v.1c.3.4.2.8.6 1.3.1.1.2.3.2.4.1.5.4.9.6 1.4h-.1c.2.2.3.6.4.9l.1.1c.2.6.3 1 .5 1.3zm-.3 3.6zm-4.1 4.4zm-1.3 14.1v-.1zm.1-.4l-.1.3c.2 0 .1-.2.1-.3zm.1 0c.1-.1.1-.1 0-.1.1 0-.1.1 0 .1zm4.4-6.3c.1 0 0 0 0 0z"/><path class="st3" d="M86.5 54.3c.2.3.2.7.4 1.1.1.3.3.7.4.9-.3.5-.7 1-1 1.5 0 0 0 .1-.1.1-.2.1-.3.5-.5.6v.1c-.5.6-.9 1.3-1.4 2h-.1c-.3.6-.8 1.1-1.2 1.7h.1c.2-.2.2-.4.4-.5.1-.1 0-.1.1-.2.1 0 0 0 0 0 .2-.3.4-.5.5-.8.1 0 .2-.3.3-.3 0-.1.1-.1.1-.2.7-.8 1.3-1.8 2-2.6.1-.2.2-.4.4-.6l.3-.3.1-.2.2-.2-.1-.4c-.1-.2-.2-.4-.3-.7l-.1-.1c-.4-1.4-1.1-2.7-1.6-4.1-.3-.8-.6-1.6-.9-2.3l-.7-.1-.6-.1c-.4 0-.8-.1-1.2-.1-.5 0-.9-.1-1.3-.2-1.1 0-2.3-.3-3.3-.3-.3 0-.5-.1-.8-.1-.7.9-1.4 1.8-2 2.7-.6.9-1.4 1.7-2 2.5-.3.3-.5.7-.8 1.1.3.7.7 1.3.9 2 .1.7.8 1.4.9 2.1.3 1.1.8 2.2 1.3 3.2h.5c1.2.2 2.5.2 3.7.5.6 0 1.2.3 1.8.3.2.1.5-.1.6.1.1.1.3-.1.4 0 .1 0 0 0 .1.1 0 0 0-.1.1 0 0 .2.4 0 .3.2-.1 0 .1.1-.1.1h.3c0-.1.1-.1 0-.2-.2 0-.2-.1-.3-.2-.1.1-.2 0-.3 0 0-.1-.2.1-.2 0-.4 0-.8-.1-1.3-.1h-.3c-.1-.1-.4-.2-.5-.2-.2-.2-.3.1-.5-.1 0 .1-.4-.1-.5 0v-.1c-.4-.1-.8-.1-1.2-.2-.3.1-.7-.1-1 0-.2-.1-.5-.2-.8-.1H75c.1-.1 0-.2 0-.4-.1-.2-.3-.6-.5-.9 0-.1-.1-.2-.1-.3-.5-.8-.9-1.9-1.2-2.8l-.3-.3c-.1-.2-.1-.3-.2-.5-.1-.1-.1-.3-.2-.5l-.1-.1h.1l-.3-.7-.2-.4v-.5c.3-.4.6-.8.8-1.2.3-.4.6-.9 1-1.3v.1l.2-.3c.3-.3.5-.7.7-1 0 0 0 .1 0 0 .1-.3.4-.3.3-.5.4-.7.9-1.3 1.4-1.9 0-.1.1-.2.1-.2h.4l.4.1c.3 0 .6.1.9.1.9 0 1.8.2 2.7.3.4.1.6.1 1 .1.7 0 1.3.3 2 .2l.1.3h.4v.1c.3.4.2.8.6 1.3.1.1.2.3.2.4.1.5.4.9.6 1.4h-.1c.2.2.3.6.4.9l.1.1c-.1.4.1.7.3 1.1zm-.3 3.5zm-4.1 4.4zm11.5 8.9l.1-.1zm.2-.4l-.1.3c.1-.1 0-.3.1-.3zm0-.1c.1-.1.1-.1 0-.1.1.1 0 .1 0 .1zm4.5-6.2z"/><path class="st3" d="M97.3 62.6c.2.3.2.7.4 1.1.1.3.3.7.4.9-.3.5-.7 1-1 1.5 0 0 0 .1-.1.1-.2.1-.3.5-.5.6v.1c-.5.6-.9 1.3-1.4 2H95c-.3.6-.8 1.1-1.2 1.7h.1c.2-.2.2-.4.4-.5.1-.1 0-.1.1-.2.1 0 0 0 0 0 .2-.3.4-.5.5-.8.1 0 .2-.3.3-.3 0-.1.1-.1.1-.2.7-.8 1.3-1.8 2-2.6.1-.2.2-.4.4-.6l.3-.3.1-.2.2-.2-.1-.3c-.1-.2-.2-.4-.3-.7l-.1-.2c-.4-1.4-1.1-2.7-1.6-4.1-.3-.8-.6-1.6-.9-2.3l-.7-.1H94c-.4 0-.8-.1-1.2-.1-.5 0-.9-.1-1.3-.2-1.1 0-2.3-.3-3.3-.3-.2 0-.5-.1-.8-.1-.7.9-1.4 1.8-2 2.7-.6.9-1.4 1.7-2 2.5-.3.3-.5.7-.8 1.1.3.7.7 1.3.9 2 .1.7.8 1.4.9 2.1.3 1.1.8 2.2 1.3 3.2h.5c1.2.2 2.5.2 3.7.5.6 0 1.2.3 1.8.3.2.1.5-.1.6.1.1.1.3-.1.4 0 .1 0 0 0 .1.1 0 0 0-.1.1 0 0 .2.4 0 .3.2-.1 0 .1.1-.1.1h.3c0-.1.1-.1 0-.2-.2 0-.2-.1-.3-.2-.1.1-.2 0-.3 0 0-.1-.2.1-.2 0-.4 0-.8-.1-1.3-.1H91c-.1-.1-.4-.2-.5-.2-.2-.2-.3.1-.5-.1 0 .1-.4-.1-.5 0v-.1c-.4-.1-.8-.1-1.2-.2-.3.1-.7-.1-1 0-.2-.1-.5-.2-.8-.1h-.7c.1-.1 0-.2 0-.4-.1-.2-.3-.6-.5-.9 0-.1-.1-.2-.1-.3-.5-.8-.9-1.9-1.2-2.8l-.3-.3c-.1-.2-.1-.3-.2-.5-.1-.1-.1-.3-.2-.5l-.1-.1h.1l-.3-.7-.2-.4-.1-.2v-.1c.3-.4.6-.8.8-1.2.3-.4.6-.9 1-1.3v.1l.2-.3c.3-.3.5-.7.7-1 0 0 0 .1 0 0 .1-.3.4-.3.3-.5.4-.7.9-1.3 1.4-1.9 0-.1.1-.2.1-.2h.4l.4.1c.3 0 .6.1.9.1.9 0 1.8.2 2.7.3.4.1.6.1 1 .1.7-.1 1.3.3 2 .2h-.1.4v.1c.3.4.2.8.6 1.3.1.1.2.3.2.4.1.5.4.9.6 1.4h-.1c.2.2.3.6.4.9l.1.1c.3.4.5.7.6 1.1zm-.3 3.6zm-4.1 4.4zM99.5 30.1h.1zm.2-.3l-.1.2c.1 0 0-.2.1-.2zm0-.1c.1-.1.1-.1 0-.1.1 0 0 .1 0 .1zm4.5-6.2z"/><path class="st3" d="M103.2 21.7c.2.3.2.7.4 1.1.1.3.3.7.4.9-.3.5-.7 1-1 1.5 0 0 0 .1-.1.1-.2.1-.3.5-.5.6v.1c-.5.6-.9 1.3-1.4 2h-.1c-.3.6-.8 1.1-1.2 1.7h.1c.2-.2.2-.4.4-.5.1-.1 0-.1.1-.2.1 0 0 0 0 0 .2-.3.4-.5.5-.8.1 0 .2-.3.3-.3 0-.1.1-.1.1-.2.7-.8 1.3-1.8 2-2.6.1-.2.2-.4.4-.6l.3-.3.1-.2.2-.2-.1-.3c-.1-.2-.2-.4-.3-.7l-.1-.2c-.4-1.4-1.1-2.7-1.6-4.1-.3-.8-.6-1.6-.9-2.3l-.7-.1-.6-.1c-.4 0-.8-.1-1.2-.1-.5 0-.9-.1-1.3-.2-1.1 0-2.3-.3-3.3-.3-.3 0-.5-.1-.8-.1-.7.9-1.4 1.8-2 2.7-.6.9-1.4 1.7-2 2.5-.3.3-.5.7-.8 1.1.3.7.7 1.3.9 2 .1.7.8 1.4.9 2.1.3 1.1.8 2.2 1.3 3.2h.5c1.2.2 2.5.2 3.7.5.6 0 1.2.3 1.8.3.2.1.5-.1.6.1.1.1.3-.1.4 0 .1 0 0 0 .1.1 0 0 0-.1.1 0 0 .2.4 0 .3.2-.1 0 .1.1-.1.1h.3c0-.1.1-.1 0-.2-.2 0-.2-.1-.3-.2-.1.1-.2 0-.3 0 0-.1-.2.1-.2 0-.4 0-.8-.1-1.3-.1h-.3c-.1-.1-.4-.2-.5-.2-.2-.2-.3.1-.5-.1 0 .1-.4-.1-.5 0v-.1c-.4-.1-.8-.1-1.2-.2-.3.1-.7-.1-1 0-.2-.1-.5-.2-.8-.1h-.7c.1-.1 0-.2 0-.4-.1-.2-.3-.6-.5-.9 0-.1-.1-.2-.1-.3-.5-.8-.9-1.9-1.2-2.8l-.3-.3c-.1-.2-.1-.3-.2-.5-.1-.1-.1-.3-.2-.5V23h.1l-.3-.7-.2-.4-.1-.2v-.1c.3-.4.6-.8.8-1.2.3-.4.6-.9 1-1.3v.1l.2-.3c.3-.3.5-.7.7-1 0 0 0 .1 0 0 .1-.3.4-.3.3-.5.4-.7.9-1.3 1.4-1.9 0-.1.1-.2.1-.2h.4l.4.1c.3 0 .6.1.9.1.9 0 1.8.2 2.7.3.4.1.6.1 1 .1.7-.1 1.3.3 2 .2h-.1.4v.1c.3.4.2.8.6 1.3.1.1.2.3.2.4.1.5.4.9.6 1.4h-.1c.2.2.3.6.4.9l.1.1c.2.7.4 1 .5 1.4zm-.2 3.6c0-.1 0 0 0 0z"/><path class="st3" d="M98.8 29.6c.1.1 0 .1 0 0zM97.5 43.8v-.1zm.1-.4l-.1.3c.2-.1 0-.3.1-.3zm.1-.1c.1-.1.1-.1 0-.1 0 .1-.1.1 0 .1zm4.4-6.2z"/><path class="st3" d="M101.2 35.3c.2.3.2.7.4 1.1.1.3.3.7.4.9-.3.5-.7 1-1 1.5 0 0 0 .1-.1.1-.2.1-.3.5-.5.6v.1c-.5.6-.9 1.3-1.4 2h-.1c-.3.6-.8 1.1-1.2 1.7h.1c.2-.2.2-.4.4-.5.1-.1 0-.1.1-.2.1 0 0 0 0 0 .2-.3.4-.5.5-.8.1 0 .2-.3.3-.3 0-.1.1-.1.1-.2.7-.8 1.3-1.8 2-2.6.1-.2.2-.4.4-.6l.3-.3.1-.2.2-.2-.1-.3c-.1-.2-.2-.4-.3-.7l-.1-.2c-.4-1.4-1.1-2.7-1.6-4.1-.3-.8-.6-1.6-.9-2.3l-.7-.1-.6-.1c-.4 0-.8-.1-1.2-.1-.5 0-.9-.1-1.3-.2-1.1 0-2.3-.3-3.3-.3-.3 0-.5-.1-.8-.1-.7.9-1.4 1.8-2 2.7-.6.9-1.4 1.7-2 2.5-.3.3-.5.7-.8 1.1.3.7.7 1.3.9 2 .1.7.8 1.4.9 2.1.3 1.1.8 2.2 1.3 3.2h.5c1.2.2 2.5.2 3.7.5.6 0 1.2.3 1.8.3.2.1.5-.1.6.1.1.1.3-.1.4 0 .1 0 0 0 .1.1 0 0 0-.1.1 0 0 .2.4 0 .3.2-.1 0 .1.1-.1.1h.3c0-.1.1-.1 0-.2-.2 0-.2-.1-.3-.2-.1.1-.2 0-.3 0 0-.1-.2.1-.2 0-.4 0-.8-.1-1.3-.1h-.3c-.1-.1-.4-.2-.5-.2-.2-.2-.3.1-.5-.1 0 .1-.4-.1-.5 0v-.1c-.4-.1-.8-.1-1.2-.2-.3.1-.7-.1-1 0-.2-.1-.5-.2-.8-.1h-.7c.1-.1 0-.2 0-.4-.1-.2-.3-.6-.5-.9 0-.1-.1-.2-.1-.3-.5-.8-.9-1.9-1.2-2.8l-.3-.3c-.1-.2-.1-.3-.2-.5-.1-.1-.1-.3-.2-.5l-.1-.1h.1l-.3-.7-.2-.4-.1-.2v-.1c.3-.4.6-.8.8-1.2.3-.4.6-.9 1-1.3v.1l.2-.3c.3-.3.5-.7.7-1 0 0 0 .1 0 0 .1-.3.4-.3.3-.5.4-.7.9-1.3 1.4-1.9 0-.1.1-.2.1-.2h.4l.4.1c.3 0 .6.1.9.1.9 0 1.8.2 2.7.3.4.1.6.1 1 .1.7 0 1.3.3 2 .2h-.1.4v.1c.3.4.2.8.6 1.3.1.1.2.3.2.4.1.5.4.9.6 1.4h-.1c.2.2.3.6.4.9l.1.1c.2.5.4.8.6 1.2zm-.3 3.6zm-4.2 4.4c.1 0 .1 0 0 0zM88.9 21.9v-.1zm.1-.3s0-.1 0 0l-.1.3c.2-.1 0-.3.1-.3zm.1-.1c.1-.1.1-.1 0-.1 0 0-.1.1 0 .1zm4.4-6.3z"/><path class="st3" d="M92.5 13.5c.2.3.2.7.4 1.1.1.3.3.7.4.9-.3.5-.7 1-1 1.5 0 0 0 .1-.1.1-.2.1-.3.5-.5.6v.1c-.5.6-.9 1.3-1.4 2h-.1c-.3.6-.8 1.1-1.2 1.7h.1c.2-.2.2-.4.4-.5.1-.1 0-.1.1-.2.1 0 0 0 0 0 .2-.3.4-.5.5-.8.1 0 .2-.3.3-.3 0-.1.1-.1.1-.2.7-.8 1.3-1.8 2-2.6.1-.2.2-.4.4-.6l.3-.3.1-.2.2-.2-.1-.3c-.1-.2-.2-.4-.3-.7l-.1-.2c-.4-1.4-1.1-2.7-1.6-4.1-.3-.8-.6-1.6-.9-2.3l-.7-.1-.6-.1c-.4 0-.8-.1-1.2-.1-.5 0-.9-.1-1.3-.2-1.1 0-2.3-.3-3.3-.3-.3 0-.5-.1-.8-.1-.7.9-1.4 1.8-2 2.7-.6.9-1.4 1.7-2 2.5-.3.3-.5.7-.8 1.1.3.7.7 1.3.9 2 .1.7.8 1.4.9 2.1.3 1.1.8 2.2 1.3 3.2h.5c1.2.2 2.5.2 3.7.5.6 0 1.2.3 1.8.3.2.1.5-.1.6.1.1.1.3-.1.4 0 .1 0 0 0 .1.1 0 0 0-.1.1 0 0 .2.4 0 .3.2-.1 0 .1.1-.1.1h.3c0-.1.1-.1 0-.2-.2 0-.2-.1-.3-.2-.1.1-.2 0-.3 0 0-.1-.2.1-.2 0-.4 0-.8-.1-1.3-.1h-.3c-.1-.1-.4-.2-.5-.2-.2-.2-.3.1-.5-.1 0 .1-.4-.1-.5 0v-.1c-.4-.1-.8-.1-1.2-.2-.3.1-.7-.1-1 0-.2-.1-.5-.2-.8-.1H81c.1-.1 0-.2 0-.4-.1-.2-.3-.6-.5-.9 0-.1-.1-.2-.1-.3-.5-.8-.9-1.9-1.2-2.8l-.3-.3c-.1-.2-.1-.3-.2-.5-.1-.1-.1-.3-.2-.5l-.1-.1h.1l-.3-.7-.2-.4-.1-.2v-.1c.3-.4.6-.8.8-1.2.3-.4.6-.9 1-1.3v.1l.2-.3c.3-.3.5-.7.7-1 0 0 0 .1 0 0 .1-.3.4-.3.3-.5.4-.7.9-1.3 1.4-1.9 0-.1.1-.2.1-.2h.4l.4.1c.3 0 .6.1.9.1.9 0 1.8.2 2.7.3.4.1.6.1 1 .1.7-.1 1.3.3 2 .2h-.1.4v.1c.3.4.2.8.6 1.3.1.1.2.3.2.4.1.5.4.9.6 1.4h-.1c.2.2.3.6.4.9l.1.1c.3.5.5.8.6 1.2zm-.2 3.5zm-4.2 4.4c.1 0 0 0 0 0zM86.8 35.5zm.1-.3l-.1.3c.2-.1 0-.3.1-.3zm.1-.1V35s-.1.1 0 .1zm4.4-6.3c0 .1 0 0 0 0z"/><path class="st3" d="M90.5 27.1c.2.3.2.7.4 1.1.1.3.3.7.4.9-.3.5-.7 1-1 1.5 0 0 0 .1-.1.1-.2.1-.3.5-.5.6v.1c-.5.6-.9 1.3-1.4 2h-.1c-.3.6-.8 1.1-1.2 1.7h.1c.2-.2.2-.4.4-.5.1-.1 0-.1.1-.2.1 0 0 0 0 0 .2-.3.4-.5.5-.8.1 0 .2-.3.3-.3 0-.1.1-.1.1-.2.7-.8 1.3-1.8 2-2.6.1-.2.2-.4.4-.6l.3-.3.1-.2.2-.2-.1-.3c-.1-.2-.2-.4-.3-.7L91 28c-.4-1.4-1.1-2.7-1.6-4.1-.3-.8-.6-1.6-.9-2.3l-.7-.1-.6-.1c-.4 0-.8-.1-1.2-.1-.5 0-.9-.1-1.3-.2-1.1 0-2.3-.3-3.3-.3-.2 0-.5-.1-.8-.1-.7.9-1.4 1.8-2 2.7-.6.9-1.4 1.7-2 2.5-.3.3-.5.7-.8 1.1.3.7.7 1.3.9 2 .1.7.8 1.4.9 2.1.3 1.1.8 2.2 1.3 3.2h.5c1.2.2 2.5.2 3.7.5.6 0 1.2.3 1.8.3.2.1.5-.1.6.1.1.1.3-.1.4 0 .1 0 0 0 .1.1 0 0 0-.1.1 0 0 .2.4 0 .3.2-.1 0 .1.1-.1.1h.3c0-.1.1-.1 0-.2-.2 0-.2-.1-.3-.2-.1.1-.2 0-.3 0 0-.1-.2.1-.2 0-.4 0-.8-.1-1.3-.1h-.3c-.1-.1-.4-.2-.5-.2-.2-.2-.3.1-.5-.1 0 .1-.4-.1-.5 0v-.1c-.4-.1-.8-.1-1.2-.2-.3.1-.7-.1-1 0-.2-.1-.5-.2-.8-.1H79c.1-.1 0-.2 0-.4-.1-.2-.3-.6-.5-.9 0-.1-.1-.2-.1-.3-.5-.8-.9-1.9-1.2-2.8l-.3-.3c-.1-.2-.1-.3-.2-.5-.1-.1-.1-.3-.2-.5l-.1-.1h.1l-.3-.7-.2-.4V27c.3-.4.6-.8.8-1.2.3-.4.6-.9 1-1.3v.1l.2-.3c.3-.3.5-.7.7-1 0 0 0 .1 0 0 .1-.3.4-.3.3-.5.4-.7.9-1.3 1.4-1.9 0-.1.1-.2.1-.2h.4l.4.1c.3 0 .6.1.9.1.9 0 1.8.2 2.7.3.4.1.6.1 1 .1.7 0 1.3.3 2 .2h-.1.4v.1c.3.4.2.8.6 1.3.1.1.2.3.2.4.1.5.4.9.6 1.4h-.1c.2.2.3.6.4.9l.1.4c.1.4.3.7.5 1.1zm-.3 3.6c0-.1 0-.1 0 0zM86 35c.1 0 .1 0 0 0zM72.1 54.4v-.1zm.1-.4l-.1.3c.2-.1.1-.3.1-.3zm.1-.1c.1-.1.1-.1 0-.1.1.1-.1.1 0 .1zm4.4-6.2c.1 0 0 0 0 0z"/><path class="st3" d="M75.8 45.9c.2.3.2.7.4 1.1.1.3.3.7.4.9-.3.5-.7 1-1 1.5 0 0 0 .1-.1.1-.2.1-.3.5-.5.6v.1c-.5.6-.9 1.3-1.4 2h-.1c-.3.6-.8 1.1-1.2 1.7h.1c.2-.2.2-.4.4-.5.1-.1 0-.1.1-.2.1 0 0 0 0 0 .2-.3.4-.5.5-.8.1 0 .2-.3.3-.3 0-.1.1-.1.1-.2.7-.8 1.3-1.8 2-2.6.1-.2.2-.4.4-.6l.3-.3.1-.2.2-.2-.1-.3c-.1-.2-.2-.4-.3-.7l-.1-.2c-.4-1.4-1.1-2.7-1.6-4.1-.3-.8-.6-1.6-.9-2.3l-.7-.1-.6-.1c-.4 0-.8-.1-1.2-.1-.5 0-.9-.1-1.3-.2-1.1 0-2.3-.3-3.3-.3-.2 0-.5-.1-.8-.1-.7.9-1.4 1.8-2 2.7-.6.9-1.4 1.7-2 2.5-.3.3-.5.7-.8 1.1.3.7.7 1.3.9 2 .1.7.8 1.4.9 2.1.3 1.1.8 2.2 1.3 3.2h.5c1.2.2 2.5.2 3.7.5.6 0 1.2.3 1.8.3.2.1.5-.1.6.1.1.1.3-.1.4 0 .1 0 0 0 .1.1 0 0 0-.1.1 0 0 .2.4 0 .3.2-.1 0 .1.1-.1.1h.3c0-.1.1-.1 0-.2-.2 0-.2-.1-.3-.2-.1.1-.2 0-.3 0 0-.1-.2.1-.2 0-.4 0-.8-.1-1.3-.1h-.3c-.1-.1-.4-.2-.5-.2-.2-.2-.3.1-.5-.1 0 .1-.4-.1-.5 0v-.1c-.4-.1-.8-.1-1.2-.2-.3.1-.7-.1-1 0-.2-.1-.5-.2-.8-.1h-.7c.1-.1 0-.2 0-.4-.1-.2-.3-.6-.5-.9 0-.1-.1-.2-.1-.3-.5-.8-.9-1.9-1.2-2.8l-.3-.3c-.1-.2-.1-.3-.2-.5-.1-.1-.1-.3-.2-.5l-.1-.1h.1l-.3-.7-.2-.4v-.4c.3-.4.6-.8.8-1.2.3-.4.6-.9 1-1.3v.1l.2-.3c.3-.3.5-.7.7-1 0 0 0 .1 0 0 .1-.3.4-.3.3-.5.4-.7.9-1.3 1.4-1.9 0-.1.1-.2.1-.2h.4l.4.1c.3 0 .6.1.9.1.9 0 1.8.2 2.7.3.4.1.6.1 1 .1.7 0 1.3.3 2 .2h-.1.4v.1c.3.4.2.8.6 1.3.1.1.2.3.2.4.1.5.4.9.6 1.4h-.1c.2.2.3.6.4.9l.1.1c.1.6.3.9.5 1.3zm-.3 3.6zm-4.1 4.4zM70.1 68v-.1zm.1-.4l-.1.3c.2-.1 0-.3.1-.3zm.1 0c.1-.1.1-.1 0-.1 0 0-.1 0 0 .1zm4.4-6.3z"/><path class="st3" d="M73.8 59.5c.2.3.2.7.4 1.1.1.3.3.7.4.9-.3.5-.7 1-1 1.5 0 0 0 .1-.1.1-.2.1-.3.5-.5.6v.1c-.5.6-.9 1.3-1.4 2h-.1c-.3.6-.8 1.1-1.2 1.7h.1c.2-.2.2-.4.4-.5.1-.1 0-.1.1-.2.1 0 0 0 0 0 .2-.3.4-.5.5-.8.1 0 .2-.3.3-.3 0-.1.1-.1.1-.2.7-.8 1.3-1.8 2-2.6.1-.2.2-.4.4-.6l.3-.3.1-.2.2-.2-.1-.3c-.1-.2-.2-.4-.3-.7l-.1-.2c-.4-1.4-1.1-2.7-1.6-4.1-.3-.8-.6-1.5-.9-2.3l-.7-.1-.6-.1c-.4 0-.8-.1-1.2-.1-.5 0-.9-.1-1.3-.2-1.1 0-2.3-.3-3.3-.3-.2 0-.5-.1-.8-.1-.7.9-1.4 1.8-2 2.7-.6.9-1.4 1.7-2 2.5-.3.3-.5.7-.8 1.1.3.7.7 1.3.9 2 .1.7.8 1.4.9 2.1.3 1.1.8 2.2 1.3 3.2h.5c1.2.2 2.5.2 3.7.5.6 0 1.2.3 1.8.3.2.1.5-.1.6.1.1.1.3-.1.4 0 .1 0 0 0 .1.1 0 0 0-.1.1 0 0 .2.4 0 .3.2-.1 0 .1.1-.1.1h.3c0-.1.1-.1 0-.2-.2 0-.2-.1-.3-.2-.1.1-.2 0-.3 0 0-.1-.2.1-.2 0-.4 0-.8-.1-1.3-.1h-.3c-.1-.1-.4-.2-.5-.2-.2-.2-.3.1-.5-.1 0 .1-.4-.1-.5 0v-.1c-.4-.1-.8-.1-1.2-.2-.3.1-.7-.1-1 0-.2-.1-.5-.2-.8-.1h-.7c.1-.1 0-.2 0-.4-.1-.2-.3-.6-.5-.9 0-.1-.1-.2-.1-.3-.5-.8-.9-1.9-1.2-2.8l-.3-.3c-.1-.2-.1-.3-.2-.5-.1-.1-.1-.3-.2-.5l-.1-.1h.1l-.3-.7-.2-.4-.1-.2v-.1c.3-.4.6-.8.8-1.2.3-.4.6-.9 1-1.3v.1l.2-.3c.3-.3.5-.7.7-1 0 0 0 .1 0 0 .1-.3.4-.3.3-.5.4-.7.9-1.3 1.4-1.9 0-.1.1-.2.1-.2h.4l.4.1c.3 0 .6.1.9.1.9 0 1.8.2 2.7.3.4.1.6.1 1 .1.7 0 1.3.3 2 .2H71h.4v.1c.3.4.2.8.6 1.3.1.1.2.3.2.4.1.5.4.9.6 1.4h-.1c.2.2.3.6.4.9l.1.1c.2.5.4.8.6 1.2zm-.3 3.6zm-4.1 4.4zM76.1 27.2h.1v-.1zm.2-.4l-.1.3c.1-.1 0-.3.1-.3zm0 0c.1-.1.1-.1 0-.1.1 0 0 0 0 .1zm4.5-6.3z"/><path class="st3" d="M79.8 18.7c.2.3.2.7.4 1.1.1.3.3.7.4.9-.3.5-.7 1-1 1.5 0 0 0 .1-.1.1-.2.1-.3.5-.5.6v.1c-.5.6-.9 1.3-1.4 2h-.1c-.3.6-.8 1.1-1.2 1.7h.1c.2-.2.2-.4.4-.5.1-.1 0-.1.1-.2.1 0 0 0 0 0 .2-.3.4-.5.5-.8.1 0 .2-.3.3-.3 0-.1.1-.1.1-.2.7-.8 1.3-1.8 2-2.6.1-.2.2-.4.4-.6l.3-.3.1-.2.2-.2-.1-.3c-.1-.2-.2-.4-.3-.7l-.1-.2c-.4-1.4-1.1-2.7-1.6-4.1-.3-.8-.6-1.6-.9-2.3l-.7-.1-.6-.1c-.4 0-.8-.1-1.2-.1-.5 0-.9-.1-1.3-.2-1.1 0-2.3-.3-3.3-.3-.2 0-.5-.1-.8-.1-.7.9-1.4 1.8-2 2.7-.6.9-1.4 1.7-2 2.5-.3.3-.5.7-.8 1.1.3.7.7 1.3.9 2 .1.7.8 1.4.9 2.1.3 1.1.8 2.2 1.3 3.2h.5c1.2.2 2.5.2 3.7.5.6 0 1.2.3 1.8.3.2.1.5-.1.6.1.1.1.3-.1.4 0 .1 0 0 0 .1.1 0 0 0-.1.1 0 0 .2.4 0 .3.2-.1 0 .1.1-.1.1h.3c0-.1.1-.1 0-.2-.2 0-.2-.1-.3-.2-.1.1-.2 0-.3 0 0-.1-.2.1-.2 0-.4 0-.8-.1-1.3-.1h-.3c-.1-.1-.4-.2-.5-.2-.2-.2-.3.1-.5-.1 0 .1-.4-.1-.5 0v-.1c-.4-.1-.8-.1-1.2-.2-.3.1-.7-.1-1 0-.2-.1-.5-.2-.8-.1h-.7c.1-.1 0-.2 0-.4-.1-.2-.3-.6-.5-.9 0-.1-.1-.2-.1-.3-.5-.8-.9-1.9-1.2-2.8l-.3-.3c-.1-.2-.1-.3-.2-.5-.1-.1-.1-.3-.2-.5V20h.1l-.3-.7-.2-.3-.1-.2v-.1c.3-.4.6-.8.8-1.2.3-.4.6-.9 1-1.3v.1l.2-.3c.3-.3.5-.7.7-1 0 0 0 .1 0 0 .1-.3.4-.3.3-.5.4-.7.9-1.3 1.4-1.9 0-.1.1-.2.1-.2h.4l.4.1c.3 0 .6.1.9.1.9 0 1.8.2 2.7.3.4.1.6.1 1 .1.7-.1 1.3.3 2 .2h-.1.4v.1c.3.4.2.8.6 1.3.1.1.2.3.2.4.1.5.4.9.6 1.4h-.1c.2.2.3.6.4.9l.1.1c.2.6.4 1 .5 1.3zm-.3 3.6zm-4.1 4.4c.1 0 0 0 0 0zM74.1 40.8v-.1zm.1-.4l-.1.3c.2-.1 0-.3.1-.3zm.1 0c.1-.1.1-.1 0-.1 0 0-.1.1 0 .1zm4.4-6.3z"/><path class="st3" d="M77.7 32.3c.2.3.2.7.4 1.1.1.3.3.7.4.9-.3.5-.7 1-1 1.5 0 0 0 .1-.1.1-.2.1-.3.5-.5.6v.1c-.5.6-.9 1.3-1.4 2h-.1c-.3.6-.8 1.1-1.2 1.7h.1c.2-.2.2-.4.4-.5.1-.1 0-.1.1-.2.1 0 0 0 0 0 .2-.3.4-.5.5-.8.1 0 .2-.3.3-.3 0-.1.1-.1.1-.2.7-.8 1.3-1.8 2-2.6.1-.2.2-.4.4-.6l.3-.3.1-.2.2-.2-.1-.3c-.1-.2-.2-.4-.3-.7l-.1-.2c-.4-1.4-1.1-2.7-1.6-4.1-.3-.8-.6-1.6-.9-2.3H75l-.6-.1c-.4 0-.8-.1-1.2-.1-.5 0-.9-.1-1.3-.2-1.1 0-2.3-.3-3.3-.3-.2 0-.5-.1-.8-.1-.7.9-1.4 1.8-2 2.7-.6.9-1.4 1.7-2 2.5-.3.3-.5.7-.8 1.1.3.7.7 1.3.9 2 .1.7.8 1.4.9 2.1.3 1.1.8 2.2 1.3 3.2h.5c1.2.2 2.5.2 3.7.5.6 0 1.2.3 1.8.3.2.1.5-.1.6.1.1.1.3-.1.4 0 .1 0 0 0 .1.1 0 0 0-.1.1 0 0 .2.4 0 .3.2-.1 0 .1.1-.1.1h.3c0-.1.1-.1 0-.2-.2 0-.2-.1-.3-.2-.1.1-.2 0-.3 0 0-.1-.2.1-.2 0-.4 0-.8-.1-1.3-.1h-.3c-.1-.1-.4-.2-.5-.2-.2-.2-.3.1-.5-.1 0 .1-.4-.1-.5 0V40c-.4-.1-.8-.1-1.2-.2-.3.1-.7-.1-1 0-.2-.1-.5-.2-.8-.1h-.7c.1-.1 0-.2 0-.4-.1-.2-.3-.6-.5-.9 0-.1-.1-.2-.1-.3-.5-.8-.9-1.9-1.2-2.8l-.3-.3c-.1-.4-.1-.6-.1-.8-.1-.1-.1-.3-.2-.5l-.1-.1h.1l-.3-.7-.2-.4-.1-.2v-.1c.3-.4.6-.8.8-1.2.3-.4.6-.9 1-1.3v.1l.2-.3c.3-.3.5-.7.7-1 0 0 0 .1 0 0 .1-.3.4-.3.3-.5.4-.7.9-1.3 1.4-1.9 0-.1.1-.2.1-.2h.4l.4.1c.3 0 .6.1.9.1.9 0 1.8.2 2.7.3.4.1.6.1 1 .1.7 0 1.3.3 2 .2H75h.4v.1c.3.4.2.8.6 1.3.1.1.2.3.2.4.1.5.4.9.6 1.4h-.1c.2.2.3.6.4.9l.1.1c.2.7.4 1.1.5 1.4zm-.2 3.6zm-4.2 4.4c.1 0 0 0 0 0zM61.6 45.8v-.1zm.1-.4l-.1.3c.2 0 0-.2.1-.3zm.1 0c.1-.1.1-.1 0-.1 0 0-.1.1 0 .1zm4.4-6.3z"/><path class="st3" d="M65.3 37.4c.2.3.2.7.4 1.1.1.3.3.7.4.9-.3.5-.7 1-1 1.5 0 0 0 .1-.1.1-.2.1-.3.5-.5.6v.1c-.5.6-.9 1.3-1.4 2H63c-.3.6-.8 1.1-1.2 1.7h.1c.2-.2.2-.4.4-.5.1-.1 0-.1.1-.2.1 0 0 0 0 0 .2-.3.4-.5.5-.8.1 0 .2-.3.3-.3 0-.1.1-.1.1-.2.7-.8 1.3-1.8 2-2.6.1-.2.2-.4.4-.6l.3-.3.1-.2.2-.2-.1-.3c-.1-.2-.2-.4-.3-.7l-.1-.2c-.4-1.4-1.1-2.7-1.6-4.1-.3-.8-.6-1.5-.9-2.3l-.7-.1-.6-.1c-.4 0-.8-.1-1.2-.1-.5 0-.9-.1-1.3-.2-1.1 0-2.3-.3-3.3-.3-.3 0-.5-.1-.8-.1-.7.9-1.4 1.8-2 2.7-.6.9-1.4 1.7-2 2.5-.3.3-.5.7-.8 1.1.3.7.7 1.3.9 2 .1.7.8 1.4.9 2.1.3 1.1.8 2.2 1.3 3.2h.5c1.2.2 2.5.2 3.7.5.6 0 1.2.3 1.8.3.2.1.5-.1.6.1.1.1.3-.1.4 0 .1 0 0 0 .1.1 0 0 0-.1.1 0 0 .2.4 0 .3.2-.1 0 .1.1-.1.1h.3c0-.1.1-.1 0-.2-.2 0-.2-.1-.3-.2-.1.1-.2 0-.3 0 0-.1-.2.1-.2 0-.4 0-.8-.1-1.3-.1H59c-.1-.1-.4-.2-.5-.2-.2-.2-.3.1-.5-.1 0 .1-.4-.1-.5 0V45c-.4-.1-.8-.1-1.2-.2-.3.1-.7-.1-1 0-.2-.1-.5-.2-.8-.1h-.7c.1-.1 0-.2 0-.4-.1-.2-.3-.6-.5-.9 0-.1-.1-.2-.1-.3-.5-.8-.9-1.9-1.2-2.8l-.3-.3c-.1-.2-.1-.3-.2-.5-.1-.1-.1-.3-.2-.5l-.1-.1h.1L51 38l-.2-.4-.1-.2v-.1c.3-.4.6-.8.8-1.2.3-.4.6-.9 1-1.3v.1l.2-.3c.3-.3.5-.7.7-1 0 0 0 .1 0 0 .1-.3.4-.3.3-.5.4-.7.9-1.3 1.4-1.9 0-.1.1-.2.1-.2h.4l.4.1c.3 0 .6.1.9.1.9 0 1.8.2 2.7.3.4.1.6.1 1 .1.7 0 1.3.3 2 .2h-.1.4v.1c.3.4.2.8.6 1.3.1.1.2.3.2.4.1.5.4.9.6 1.4h-.1c.2.2.3.6.4.9l.1.1c.2.6.4 1 .6 1.4zm-.3 3.5zm-4.2 4.4c.1 0 .1 0 0 0z"/><g><path class="st3" d="M59.6 59.4v-.1zm.1-.3s0-.1 0 0l-.1.3c.2-.1 0-.3.1-.3zm.1-.1c.1-.1.1-.1 0-.1 0 0-.1.1 0 .1zm4.4-6.3z"/><path class="st3" d="M63.2 51c.2.3.2.7.4 1.1.1.3.3.7.4.9-.3.5-.7 1-1 1.5 0 0 0 .1-.1.1-.2.1-.3.5-.5.6v.1c-.5.6-.9 1.3-1.4 2h-.1c-.3.6-.8 1.1-1.2 1.7h.1c.2-.2.2-.4.4-.5.1-.1 0-.1.1-.2.1 0 0 0 0 0 .2-.3.4-.5.5-.8.1 0 .2-.3.3-.3 0-.1.1-.1.1-.2.7-.8 1.3-1.8 2-2.6.1-.2.2-.4.4-.6l.3-.3.1-.2.2-.2-.1-.3c-.1-.2-.2-.4-.3-.7l-.1-.2c-.4-1.4-1.1-2.7-1.6-4.1-.3-.8-.6-1.6-.9-2.3l-.7-.1-.6-.1c-.4 0-.8-.1-1.2-.1-.5 0-.9-.1-1.3-.2-1.1 0-2.3-.3-3.3-.3-.2 0-.5-.1-.8-.1-.7.9-1.4 1.8-2 2.7-.6.9-1.4 1.7-2 2.5-.3.3-.5.7-.8 1.1.3.7.7 1.3.9 2 .1.7.8 1.4.9 2.1.3 1.1.8 2.2 1.3 3.2h.5c1.2.2 2.5.2 3.7.5.6 0 1.2.3 1.8.3.2.1.5-.1.6.1.1.1.3-.1.4 0 .1 0 0 0 .1.1 0 0 0-.1.1 0 0 .2.4 0 .3.2-.1 0 .1.1-.1.1h.3c0-.1.1-.1 0-.2-.2 0-.2-.1-.3-.2-.1.1-.2 0-.3 0 0-.1-.2.1-.2 0-.4 0-.8-.1-1.3-.1h-.3c-.1-.1-.4-.2-.5-.2-.2-.2-.3.1-.5-.1 0 .1-.4-.1-.5 0v-.1c-.4-.1-.8-.1-1.2-.2-.3.1-.7-.1-1 0-.2-.1-.5-.2-.8-.1h-.7c.1-.1 0-.2 0-.4-.1-.2-.3-.6-.5-.9 0-.1-.1-.2-.1-.3-.5-.8-.9-1.9-1.2-2.8l-.3-.3c-.1-.2-.1-.3-.2-.5-.1-.1-.1-.3-.2-.5l-.1-.1h.1l-.2-.9-.2-.4v-.3c.3-.4.6-.8.8-1.2.3-.4.6-.9 1-1.3v.1l.2-.3c.3-.3.5-.7.7-1 0 0 0 .1 0 0 .1-.3.4-.3.3-.5.4-.7.9-1.3 1.4-1.9 0-.1.1-.2.1-.2h.4l.4.1c.3 0 .6.1.9.1.9 0 1.8.2 2.7.3.4.1.6.1 1 .1.7 0 1.3.3 2 .2h-.1.4v.1c.3.4.2.8.6 1.3.1.1.2.3.2.4.1.5.4.9.6 1.4h-.1c.2.2.3.6.4.9l.1.1c.1.7.3 1 .4 1.4zm-.2 3.5zm-4.2 4.4c.1 0 0 0 0 0z"/></g><g><path class="st3" d="M65.6 18.6v-.1zm.2-.3c-.1 0-.1 0 0 0l-.1.3c.1-.1 0-.3.1-.3zm0-.1c.1-.1.1-.1 0-.1.1 0-.1.1 0 .1zm4.5-6.3c0 .1 0 0 0 0z"/><path class="st3" d="M69.3 10.2c.2.3.2.7.4 1.1.1.3.3.7.4.9-.3.5-.7 1-1 1.5 0 0 0 .1-.1.1-.2.1-.3.5-.5.6v.1c-.5.6-.9 1.3-1.4 2H67c-.3.6-.8 1.1-1.2 1.7h.1c.2-.1.2-.4.4-.5.1-.1 0-.1.1-.2.1 0 0 0 0 0 .2-.3.4-.5.5-.8.1 0 .2-.3.3-.3 0-.1.1-.1.1-.2.7-.8 1.3-1.8 2-2.6.1-.2.2-.4.4-.6l.3-.3.1-.2.2-.2-.1-.3c-.1-.2-.2-.4-.3-.7l-.1-.2c-.4-1.4-1.1-2.7-1.6-4.1-.3-.8-.6-1.6-.9-2.3l-.7-.1-.6-.1c-.4 0-.8-.1-1.2-.1-.5 0-.9-.1-1.3-.2-1.1 0-2.3-.3-3.3-.3-.3 0-.5-.1-.8-.1-.7.9-1.4 1.8-2 2.7-.6.9-1.4 1.7-2 2.5-.3.3-.5.7-.8 1.1.3.7.7 1.3.9 2 .1.7.8 1.4.9 2.1.3 1.1.8 2.2 1.3 3.2h.5c1.2.2 2.5.2 3.7.5.6 0 1.2.3 1.8.3.2.1.5-.1.6.1.1.1.3-.1.4 0 .1 0 0 0 .1.1 0 0 0-.1.1 0 0 .2.4 0 .3.2-.1 0 .1.1-.1.1h.3c0-.1.1-.1 0-.2-.2 0-.2-.1-.3-.2-.1.1-.2 0-.3 0 0-.1-.2.1-.2 0-.4 0-.8-.1-1.3-.1H63c-.1-.1-.4-.2-.5-.2-.2-.2-.3.1-.5-.1 0 .1-.4-.1-.5 0v-.1c-.4-.1-.8-.1-1.2-.2-.3.1-.7-.1-1 0-.2-.1-.5-.2-.8-.1h-.7c.1-.1 0-.2 0-.4-.1-.2-.3-.6-.5-.9 0-.1-.1-.2-.1-.3-.5-.8-.9-1.9-1.2-2.8l-.3-.3c-.1-.2-.1-.3-.2-.5-.1-.1-.1-.3-.2-.5l-.1-.1h.1L55 11l-.2-.4-.1-.2v-.1c.3-.4.6-.8.8-1.2.3-.4.6-.9 1-1.3v.1l.2-.3c.3-.3.5-.7.7-1 0 0 0 .1 0 0 .1-.3.4-.3.3-.5.4-.7.9-1.3 1.4-1.9 0-.1.1-.2.1-.2h.4l.4.1c.3 0 .6.1.9.1.9 0 1.8.2 2.7.3.4.1.6.1 1 .1.7-.1 1.3.3 2 .2h-.1.4v.1c.3.4.2.8.6 1.3.1.1.2.3.2.4.1.5.4.9.6 1.4h-.1c.2.2.3.6.4.9l.1.1c.3.5.4.8.6 1.2zm-.3 3.6c0-.1 0-.1 0 0zm-4.1 4.3z"/></g><g><path class="st3" d="M63.5 32.2h.1zm.2-.3l-.1.3c.1-.1 0-.3.1-.3zm0-.1c.1-.1.1-.1 0-.1.1 0 0 .1 0 .1zm4.5-6.2z"/><path class="st3" d="M67.2 23.8c.2.3.2.7.4 1.1.1.3.3.7.4.9-.3.5-.7 1-1 1.5 0 0 0 .1-.1.1-.2.1-.3.5-.5.6v.1c-.5.6-.9 1.3-1.4 2h-.1c-.3.6-.8 1.1-1.2 1.7h.1c.2-.2.2-.4.4-.5.1-.1 0-.1.1-.2.1 0 0 0 0 0 .2-.3.4-.5.5-.8.1 0 .2-.3.3-.3 0-.1.1-.1.1-.2.7-.8 1.3-1.8 2-2.6.1-.2.2-.4.4-.6l.3-.3.1-.2.2-.2-.1-.3c-.1-.2-.2-.4-.3-.7l-.1-.2c-.4-1.4-1.1-2.7-1.6-4.1-.3-.8-.6-1.6-.9-2.3l-.7-.1-.6-.1c-.4 0-.8-.1-1.2-.1-.5 0-.9-.1-1.3-.2-1.1 0-2.3-.3-3.3-.3-.3 0-.5-.1-.8-.1-.7.9-1.4 1.8-2 2.7-.6.9-1.4 1.7-2 2.5-.3.3-.5.7-.8 1.1.3.7.7 1.3.9 2 .1.7.8 1.4.9 2.1.3 1.1.8 2.2 1.3 3.2h.5c1.2.2 2.5.2 3.7.5.6 0 1.2.3 1.8.3.2.1.5-.1.6.1.1.1.3-.1.4 0 .1 0 0 0 .1.1 0 0 0-.1.1 0 0 .2.4 0 .3.2-.1 0 .1.1-.1.1h.3c0-.1.1-.1 0-.2-.2 0-.2-.1-.3-.2-.1.1-.2 0-.3 0 0-.1-.2.1-.2 0-.4 0-.8-.1-1.3-.1h-.3c-.1-.1-.4-.2-.5-.2-.2-.2-.3.1-.5-.1 0 .1-.4-.1-.5 0v-.1c-.4-.1-.8-.1-1.2-.2-.3.1-.7-.1-1 0-.2-.1-.5-.2-.8-.1h-.7c.1-.1 0-.2 0-.4-.1-.2-.3-.6-.5-.9 0-.1-.1-.2-.1-.3-.5-.8-.9-1.9-1.2-2.8l-.3-.3c-.1-.2-.1-.3-.2-.5-.1-.1-.1-.3-.2-.5l-.1-.1h.1l-.2-.9-.2-.4-.1-.2v-.1c.3-.4.6-.8.8-1.2.3-.4.6-.9 1-1.3v.1l.2-.3c.3-.3.5-.7.7-1 0 0 0 .1 0 0 .1-.3.4-.3.3-.5.4-.7.9-1.3 1.4-1.9 0-.1.1-.2.1-.2h.4l.4.1c.3 0 .6.1.9.1.9 0 1.8.2 2.7.3.4.1.6.1 1 .1.7-.1 1.3.3 2 .2h-.1.4v.1c.3.4.2.8.6 1.3.1.1.2.3.2.4.1.5.4.9.6 1.4h-.1c.2.2.3.6.4.9l.1.1c.2.7.4 1 .5 1.4zm-.3 3.6c0-.1 0 0 0 0zm-4.1 4.3c0 .1 0 .1 0 0z"/></g><g><path class="st5" d="M78.5 34.5l.3-.2c0 .1-2.1 2.2-2 2.3.1.1 3.9-2.3 3.9-2.3.1.2-5.3 4-5.2 4.2.1.2 6.4-3.9 6.5-3.7.1.2-7.9 5.4-7.8 5.6.2.3 9.4-5.7 9.5-5.5.1.3-9.5 6.3-9.3 6.5.2.3 10.7-6.5 10.8-6.3.1.2-10.4 6.8-10.3 7 .2.3 11.1-6.8 11.3-6.5.2.3-11.3 7.3-11.1 7.5.2.3 11.6-7.1 11.8-6.8.2.3-11.8 7.6-11.6 7.9.2.3 11.9-7.3 12.1-7 .2.3-11.6 7.5-11.4 7.7.2.3 11.6-7.1 11.8-6.8.2.3-11.6 7.4-11.4 7.8.2.3 11.8-7.2 12-6.9.2.3-11.9 7.6-11.8 7.9.2.3 11.9-7.3 12.1-7 .2.3-11.6 7.5-11.4 7.8.1.2 11.6-7.1 11.8-6.8.1.2-10.7 7-10.5 7.3.2.3 10.7-6.6 10.9-6.3.1.2-9.5 6.3-9.3 6.5.1.2 8.8-5.3 8.9-5.1.1.2-6.9 4.9-6.8 5.1.1.1 5.5-3.3 5.6-3.2.1.1-4.1 3.3-4.1 3.4 0 .1 2.4-1.4 2.4-1.4"/></g><g><path class="st5" d="M87.5 56.1l.3-.2c0 .1-1.9 2.1-1.9 2.2 0 .1 3.3-2 3.4-1.9.1.2-4.9 3.7-4.8 3.9.1.1 6.5-4 6.6-3.8.1.3-8.6 5.7-8.5 6 .1.2 9.9-6 10.1-5.8.1.2-9.4 6.3-9.2 6.5.2.3 10.8-6.6 11-6.3.2.3-11.2 7.2-11 7.5.1.2 12-7.4 12.2-7 .2.3-12.1 7.7-11.9 8 .1.2 11.9-7.3 12.1-7 .1.2-11.8 7.6-11.7 7.8.2.3 12.2-7.5 12.4-7.2.2.4-11.9 7.6-11.7 7.9.2.3 11.8-7.2 11.9-6.9.1.2-11.7 7.6-11.6 7.8.1.2 11.9-7.2 12-6.9.2.3-11.8 7.6-11.6 7.9.1.2 11.6-7.1 11.8-6.8.1.2-11.8 7.5-11.6 7.8.2.3 12-7.2 12.1-7 .2.3-10.6 6.9-10.4 7.1.1.2 10.5-6.4 10.7-6.2.2.3-9.2 6-9 6.3.1.2 8.4-5.2 8.6-4.9.1.2-7.1 4.9-7 5.1.1.1 5.5-3.3 5.6-3.2.1.1-4 3.3-3.9 3.4 0 .1 2.4-1.5 2.4-1.4"/></g><g><path class="st5" d="M93.2 15.3l.4-.2c0 .1-2.1 2.3-2.1 2.3.1.1 3.7-2.2 3.7-2.2.1.1-5.3 4-5.2 4.1.1.2 6.5-4 6.6-3.8.1.2-8.5 5.7-8.4 6 .1.2 10.1-6.2 10.3-6 .1.2-9.8 6.5-9.7 6.7.1.2 10.5-6.5 10.7-6.2.1.2-10.7 7-10.6 7.3.2.3 11.8-7.2 12-6.9.2.3-11.5 7.4-11.3 7.7.2.3 11.8-7.2 12-6.9.2.3-11.7 7.5-11.6 7.8.2.3 11.5-7 11.6-6.7.2.3-11.1 7.2-11 7.5.2.3 11.6-7.1 11.8-6.8.2.3-11.7 7.5-11.5 7.8.1.2 11.4-6.9 11.6-6.7.2.3-11.6 7.4-11.4 7.7.2.3 11.8-7.3 12-6.9.2.3-11.6 7.4-11.4 7.7.1.2 11.7-7.1 11.9-6.8.2.3-10.8 7-10.6 7.2.2.3 11-6.7 11.1-6.4.1.2-9.1 6.1-9 6.3.1.2 8.2-5 8.3-4.8.1.2-7.2 5.1-7.1 5.3.1.1 5.6-3.4 5.6-3.3.1.1-3.8 3.3-3.8 3.4 0 .1 2.4-1.5 2.5-1.4"/></g><g><path class="st5" d="M70.4 12.2s0-.1 0 0c.1 0-1.6 2-1.6 2.1.1.1 3.2-1.9 3.2-1.9.1.2-5.4 4-5.3 4.2.1.1 6.9-4.2 6.9-4 .1.2-8.2 5.7-8.1 5.8.2.3 9.6-5.9 9.8-5.6.1.2-9.7 6.3-9.5 6.6.2.3 10.6-6.5 10.8-6.2.1.2-10.2 6.7-10.1 6.9.2.4 11.2-6.8 11.3-6.5.2.3-11.4 7.4-11.2 7.6.2.3 11.5-7.1 11.7-6.8.2.3-11.2 7.3-11.1 7.6.2.3 11.7-7.1 11.8-6.8.2.4-11.7 7.5-11.5 7.8.2.3 11.7-7.2 11.9-6.9.2.3-11.6 7.5-11.5 7.7.1.2 11.6-7 11.7-6.8.2.3-11.9 7.6-11.7 7.9.1.2 11.8-7.2 12-6.9.1.2-11.1 7.2-10.9 7.5.2.3 11.1-6.7 11.3-6.5.1.3-9.8 6.5-9.7 6.7.1.2 10.2-6.3 10.4-6 .1.2-9.5 6.3-9.3 6.5.1.2 8.7-5.3 8.9-5.1.1.2-6.9 4.9-6.8 5.1.1.1 5.1-3.1 5.1-3 .1.1-3.9 3.3-3.8 3.4 0 .1 2.2-1.3 2.2-1.3"/></g><g><path class="st5" d="M55.7 31c.1.1-2.2 2.3-2.1 2.3 0 .1 3.5-2.2 3.6-2.1.1.1-4.8 3.8-4.8 3.9.1.2 6.4-3.9 6.4-3.7.1.2-8.1 5.6-8 5.7.1.2 9.5-5.8 9.6-5.6.1.2-9.8 6.4-9.6 6.7.1.3 11-6.7 11.1-6.4.2.3-10.7 6.9-10.5 7.2.2.3 11.4-7 11.5-6.7.1.2-11.4 7.3-11.2 7.6.2.3 11.5-7 11.7-6.7.1.2-11.7 7.5-11.5 7.8.2.3 11.9-7.2 12-6.9.2.3-11.6 7.5-11.5 7.8.2.3 11.5-7 11.7-6.7.2.3-11.5 7.4-11.3 7.7.2.3 11.8-7.3 12-6.9.2.3-11.6 7.4-11.4 7.7.1.2 11.5-7.1 11.7-6.7.2.3-11.3 7.2-11.1 7.5.2.3 11.6-7.1 11.8-6.8.1.2-10.6 6.9-10.5 7.2.1.2 10.7-6.5 10.8-6.2.1.2-9.1 6-8.9 6.2.1.2 8.6-5.3 8.8-5.1.1.2-7.2 5.1-7.1 5.2.1.1 4.9-3 5-2.9.1.1-3.9 3.2-3.9 3.3 0 .1 2.7-1.7 2.8-1.6"/></g><g><path class="st5" d="M64.2 53.3l.5-.3c0 .1-2.2 2.3-2.1 2.4.1.1 3.5-2.1 3.5-2 .1.1-5 3.8-4.9 3.9.1.2 6.1-3.8 6.3-3.6.1.2-8.2 5.7-8.1 5.9.1.2 10.1-6.2 10.2-5.9.1.3-9.7 6.3-9.6 6.6.2.3 10.6-6.4 10.7-6.2.1.2-10.4 6.9-10.3 7.1.2.3 11.8-7.2 12-6.9.1.3-11.8 7.6-11.6 7.9.2.3 11.5-7.1 11.7-6.8.2.3-11.6 7.4-11.4 7.7.2.3 11.9-7.3 12.1-7 .2.4-11.9 7.6-11.7 7.9.2.3 11.8-7.2 11.9-6.9.2.3-11.5 7.4-11.3 7.7.2.3 11.2-6.8 11.4-6.6.2.3-11.3 7.4-11.2 7.6.2.3 11.5-7 11.6-6.7.2.3-11.7 7.5-11.5 7.7.2.3 12-7.3 12.1-7 .2.3-10.5 6.8-10.3 7.1.1.2 10.6-6.5 10.8-6.2.1.2-9 6.1-8.9 6.3.1.2 8.7-5.3 8.8-5.1.1.2-7.4 5.1-7.3 5.4.1.2 5.6-3.4 5.7-3.3.1.1-3.9 3.3-3.9 3.4 0 .1 2.2-1.3 2.2-1.3"/></g></g></g><g><path class="st6" d="M28.7 34.7v-.1.1zm-.1.2v-.2c-.1 0 .1.2 0 .2zm0 0c-.1 0 0 .1 0 0 0 0 0 .1 0 0zM27 39s-.1-.1 0 0c-.1 0-.1 0 0 0z"/><path class="st6" d="M27.5 40c-.1-.2-.1-.4-.2-.7-.1-.6-.3-1.1-.4-1.7l-.1-.1c.1-.1-.1-.4 0-.4 0 0 0-.1-.1 0 0-.1 0-.3.1-.4l.2-.2.1-.1.1-.1.1-.1v-.1l.1-.1h.1v-.1h.1c0-.2.1-.4.3-.6.2-.2.5-.3.6-.3v-.1s-.1 0-.1.1c-.1.1-.1.1-.2.1s0 .1-.1.1 0-.1 0 0c-.2.2-.4.3-.4.6-.1 0-.1.2-.2.2v.1l.1-.1-.1.1c-.1.2-.1.2-.2.3l-.1.1s.1.1.1 0l-.1.1c0 .1.1-.1-.1.1-.1.1-.2.3-.2.5v.7c.2.3 0 .7.2 1.1.1.1.1.3.1.4l.1.1c0 .9.7 1.7 1.3 2.3.3.4.6.8 1 1.1.4.3.9.5 1.4.5.3 0 .5.1.8.1.3-.1.7-.1 1-.1.3 0 .7-.1.9-.4.3-.3.6-.5.9-.9.2-.4.3-.8.5-1.1.1-.2.2-.4.3-.7.1-.1.1-.3.2-.4l.1-.2v-.1c-.2.1-.4.1-.6.2-.2 0-.4.1-.5.1-.2 0-.3.1-.5.1-.3.1-.7.2-1 .2-.2 0-.4.1-.7.1-.2 0-.5 0-.7-.1-.7-.5-1.4-.6-2-1.2-.4-.6-.8-1.3-.7-2.1-.2-.3.1-.7.1-1.1.1-.1-.2-.3 0-.4.1-.1-.2-.2-.1-.2h-.1c0-.1.1 0 .1-.1 0 0-.1 0-.1-.1.2 0 0-.2.2-.2 0 0 .1-.1.1.1 0 0 0-.2-.1-.2s-.2-.1-.3 0h.1-.1c0 .1-.1.1-.2.2.1.1 0 .1 0 .2-.1 0 .2.2 0 .1v.8c.1 0 0 .2.1.1-.1.1-.2.3-.1.4-.2.2.2.2 0 .3.1 0 0 .3.2.3h-.1c0 .2.1.5.1.7.2.1.1.4.3.5 0 .1.1.4.2.5.1.2.3.4.5.4-.1.2 0 .2.1.3.2 0 .4.2.6.3 0 .1.2 0 .1.2.6 0 1.2.4 1.9.5.1-.1.2-.2.2-.3h.3c.1-.1.2 0 .3-.1l.1-.1v.1c.2 0 .3-.1.5-.1s.4-.1.6-.1c.5-.1.5-.2.7-.3v.4c-.1 0-.1.4-.2.5 0 0 0-.1-.1 0 0 .2-.2.2-.1.4h-.1c-.1.2-.1.5-.2.7-.1.2-.3.3-.5.5-.1.4-.5.6-.8.8-.5.3-1.1.1-1.6.1-.2 0-.4 0-.6-.1-.4.1-.7-.4-1.1-.4h.1c-.1.1-.2-.2-.3 0v-.1c-.4 0-.3-.4-.6-.5-.1 0-.2-.1-.2-.2-.1-.3-.4-.4-.6-.6h.1c-.2 0-.3-.3-.4-.4h-.1.1c-.2-.3-.4-.5-.5-.7zm-.5-2.3zm1.6-2.5z"/><path class="st7" d="M27.2 37c0 1.1.6 2.1.9 3.2.2.7.7 1.1 1.3 1.5.4.3.8.9 1.3 1 2.1.6 4-.4 3.9-2.6"/><path class="st6" d="M37.6 37.2v-.1.1zm-.1.1l.1-.1c0-.1-.1.2-.1.1zm0 0c0-.1 0 0 0 0s0 .1 0 0zm-1.4-.4zm-.5.1c.1 0 .1.1.2.1.2.1.4 0 .6.1 0 0 0-.1 0 0s.1 0 .1.1v-.1c.2 0 .3.1.5 0v.1c.2-.1.3 0 .4 0v-.1c0-.1-.1.1-.1 0 0 0 0 .1 0 0v-.1c-.1 0-.1-.1-.2 0 0-.1-.1 0-.1-.1l-.1.1c0-.1-.3-.1-.5-.1-.2.1-.2-.1-.4-.1h-.2l-.1.1c-.2-.3-.5-.2-.8-.4-.3-.2-.5-.4-.9-.2-.1 0-.2-.1-.3-.1-.3.1-.4-.2-.7-.1-.2-.1-.5-.2-.8-.3-.2 0-.3-.3-.5-.3-.1-.2-.5-.1-.6-.3 0-.2-.4 0-.4-.2-.1-.4-.5-.4-.7-.2-.2-.1-.4.3-.7.2-.1.1-.2-.2-.4-.1-.1-.1 0 .2-.1 0-.1-.1.1.2 0 .1l-.1-.1s.1.1 0 .1c-.1-.2 0 .1-.2-.1 0 0-.1 0-.1-.1 0 0-.1.1 0 .1.1.1.2.1.2.2h-.1c.1 0 0 0 .1.1l.1.1c-.1-.1 0 0 0 0 0 .1-.1-.2 0 0l.1-.1c0-.1.1 0 0-.1 0 .1.1.2.1.2.1.2.1-.2.1 0 0-.1.1 0 .1-.1v.1h.3c0-.1.1 0 .1-.2 0 0 .1.1.1 0 0 0 .1 0 .1-.1v.2c0-.1.1 0 .2-.1 0 .1.1 0 0 .1.2-.1.4 0 .5.3 0 0 .2-.1.2-.2v.1c.1 0 0 .1.1.1l-.1.1c.2.2.6.2.9.4h.1c0 .1.2 0 .2.1v.1c.1-.1 0 .2.1 0v.1c.2 0 .3.1.5.1.2-.1.3.1.5 0s.3.1.5.2h.2c.2-.1.2.2.4.1v.1c.1-.1.1.1.1-.1v.1c.2-.2.1.2.3 0h.1c0 .2.2 0 .3.1v.1c.1-.1.1 0 .2 0v.1c.4-.2.5-.2.6-.2zm.8.2zm-7.3-2zM42 38.4h-.1zm-.2-.1s0 .1 0 0h.1c.1 0-.2.1-.1 0zm0 0s-.1.1 0 0zm-.8-1.2z"/><path class="st6" d="M40.5 37c.1 0 0 .2.1.2.1.1.3.2.4.3h.1c-.1.1.1 0 .1.1h.1c.1.1.2.2.4.3h-.1c.2 0 .2.2.2.3h.1c0-.1-.1 0-.1-.1h-.1.1c0-.1 0-.1-.2-.1.1-.1 0-.1 0-.1h-.1c-.1-.2-.3-.3-.4-.5-.2 0-.1-.2-.2-.2s-.1 0-.1-.1h-.1c0-.3-.3-.4-.4-.7-.1-.1-.2-.3-.4-.4-.2-.1-.5.1-.6.2-.1.1-.2.1-.2.1-.1.2-.4.1-.5.4-.2.1-.4.3-.6.4-.1.2-.4.2-.5.3-.2.1-.2.4-.4.5-.2-.1-.1.4-.3.3-.4-.1-.4.3-.5.5-.2.1-.2.4-.5.5 0 .2-.3.1-.3.2-.1-.1.1.2-.1.1l.1.1h-.1s.1.1 0 .1c-.2-.1 0 .1-.2-.1 0 0-.1 0-.1-.1v.1c.1.1.1.2.2.2l-.1-.1c.1 0 0 0 .1.1 0 0 .1.1.2.1-.1-.1 0-.1 0-.1.1.1-.1-.2 0 0 0-.1.1-.1.1-.2l-.1-.1c.1.1.2 0 .2 0 .2.1-.1-.1.1 0-.1-.1.1 0 0-.2 0 0 .1 0 .1.1 0-.1.1-.1.2-.1-.1-.1.1-.1 0-.2.1 0 .1 0 .1-.1 0 0 .1-.1 0-.2.1.1.1.1.2.1v-.2c.1.1 0-.1.1 0 0-.3.2-.4.4-.3 0-.1-.1-.2-.1-.3h.1c0-.1.1 0 .1-.1 0 0 .1.1 0 .1.2-.2.3-.5.6-.7v-.1c.1 0 .1-.1.1-.2v.1c0-.1.1.1 0-.1v.1l.3-.3c0-.2.2-.1.2-.3.1-.2.3-.1.4-.2.1 0 .1-.1.1-.1 0-.1.1-.1.1-.1.1 0 .1.1.2 0v.1c0-.1 0 .1.1-.1v.1c.2-.2.1.2.2.1h.1c-.1.2.1.1.2.2h-.1c.1 0 .1.1.1.1h.1-.1c.8.3.9.3.9.3zm.6.5zm-5.2 2.3c-.1 0 0 0 0 0z"/><path class="st6" d="M41.1 39H41zm-.2-.1zm0 0c.1 0 0 0 0 0zm-.9-.7zm-.3.3c0-.1.1.1.1 0 .1 0 .2-.1.4-.1v-.1c0 .1.1 0 .1 0v-.1c.1 0 .2 0 .4.1l-.1.1c.2 0 .3.2.2.3h.1c0-.1-.1-.1-.1-.1h-.1.1c0-.1-.1-.1-.2-.1.1-.1 0-.1 0-.1h-.1c-.1-.2-.3-.1-.5-.2-.1.2-.1-.1-.2 0 0 0-.1.1-.1 0v.1c-.2-.2-.4-.1-.6-.1-.2 0-.4-.1-.6.1h-.2c-.1.2-.3.1-.4.3-.2 0-.3.1-.5.2-.1.1-.3 0-.4.1-.2 0-.2.3-.4.2-.1-.1-.1.3-.3.1-.3-.2-.3 0-.4.2-.2 0-.2.2-.4.1 0 .1-.2-.1-.3 0-.1-.1 0 .2-.1 0-.1-.1.1.2 0 .1l-.1-.1v.1c-.1-.2 0 .1-.1-.1l-.1-.1v.1c.1.1.1.2.2.2v-.1c0 .1 0 0 .1.1l.1.1c0-.1 0 0 0 0 .1.1-.1-.2 0 0 0-.1.1-.1.1-.1v-.1l.1.1c.1.1 0-.2.1 0-.1-.1.1 0 0-.1v.1h.1c0-.1.1 0 .1-.2 0 0 .1.1.1 0 0 0 .1 0 .1-.2.1.2.1.1.1.2 0-.1.1-.1.1-.2 0 .1 0 0 .1.1 0-.2.2-.2.4-.1 0-.1 0-.2-.1-.3 0 0 .1.1.1 0s.1.1.1 0v.1c.2 0 .3-.3.5-.3v-.1c.1 0 .1-.1.1-.1v.1c0-.1.1.1 0-.1v.1c.1-.1.1-.1.2-.1 0-.2.1-.1.2-.2.1-.2.2-.1.3-.1 0 0 .1 0 .1-.1 0-.2.2.1.2-.1v.1c0-.1.1 0 0-.1v.1c0-.2.1.1.2-.1 0 0 0-.1.1 0 .1.2.1 0 .2 0v.1c0-.1.1 0 .1-.1V38v.1c.7.5.8.4.8.4zm.5 0zM35.7 40z"/><path class="st7" d="M35.4 40.1c.3-.2.8-.4 1.2-.5.2-.1.6-.2.8-.3.5-.2.9-.4 1.3-.5.4-.1 1.9-.2 1.9.5"/><path class="st6" d="M42.9 37.9l-.1-.1zm-.1-.1c-.1 0-.1 0 0 0zm0 0s-.1 0 0 0c0 0-.1 0 0 0zm-.1-.5zm-.3-.1s-.1.1 0 0c0 .1.1.2.1.2h.1c-.1 0 .1 0 0 0h.1l.1.1h-.1c.2 0 .1.1.1.2h.1c.1 0-.1 0 0-.1h-.1.1s0-.1-.1-.1c0-.1-.1-.2-.1-.2-.2 0 0-.1-.1-.1h-.2c.1-.1 0-.2 0-.3 0-.1.1-.3-.2-.3-.1 0 0-.1-.1-.1s-.1-.1-.2 0h-.3c-.1.1-.2-.1-.2 0-.1-.1-.1.2-.2.2-.1-.2 0 .2-.1.1-.2-.2-.2 0-.2.2-.1-.1-.1.2-.2 0 0 .1-.1-.1-.1-.1 0-.1 0 .2 0 0v.2c0-.2 0 .1-.1-.2v-.1.4-.1.1s0 .1.1.2c0-.1 0 0 0 0 0 .1 0-.2 0 0l.1-.1v-.1c0 .1.1.1.1.1.1.2 0-.2.1 0v-.1.1h.1c0-.1.1 0 0-.1 0 0 .1.1.1 0v-.1c.1.2.1.1.1.2v-.1.1c0-.2.1-.2.2 0 0-.1-.1-.2-.1-.3 0 0 0 .1.1.1 0-.1 0 .1 0 0v.1c.1 0 .1-.2.2-.2v-.1c0 .1 0 0 .1 0v.1c0-.1.1-.1.1 0 .1-.2.1 0 .2-.1s.1 0 .1 0h.1c.2-.1-.1.1.1.1h-.1.1c.2-.1-.1.1.1.1 0 0 .1 0 0 0-.1.1 0 0 0 .1h-.1c.1-.1 0-.1.1 0-.1 0 0 0 0 0zm.1.2zm-1.8-.2zM43 37.9h.1zm.3-.1s0-.1 0 0c0-.1-.1 0 0 0l-.1.1c0 .1.1-.2.1-.1zm0 0s0-.1 0 0zm3.3 4.4z"/><path class="st6" d="M46.5 43.3c.2-.2.6-.3.6-.7 0-.5-.3-.7-.5-1-.3-.3-.5-.5-.8-.7h-.1c0-.2-.3-.3-.3-.5h-.1c-.3-.4-.7-.9-1.1-1.4 0 0 0-.1.1-.1-.4-.3-.7-.8-.9-1.2l-.1.1c0 .1.2.1.3.3 0 .1.1-.1.1.1 0 .1-.1 0 0 0 .1.2.2.4.4.5-.1.1.1.2.1.3.1 0 .1.1.2.1.2.4.5.7.7 1 .2.3.5.7.8 1 .4.2.6.6.9 1 .1.1.2.3.2.4l.1.1c-.3.3-.8.6-1.3.9-.5.3-1 .5-1.5.8-1.1.6-2.1 1.1-3.1 1.8-.3.2-.6.2-.9.4-.3.3-.7.6-1 .8-.3.2-.7.4-1.1.6-.5.1-1 .3-1.5.2-.5-.1-1-.4-1.3-.7-.6-.6-1-1.3-1.3-2-.1-.4-.2-.8-.2-1.2 0-.4.2-.9.6-1.1.5-.2.8-.9 1.3-1.1.5-.2.9-.5 1.3-.8l1.2-.9c.9-.3 1.5-1 2.4-1.4.3-.4.8-.4 1.2-.6.2.1.3-.3.4-.2.1 0 0-.3.2-.2v-.1c.1-.1 0 0 .1 0v-.1c.1.2.2-.2.3 0 0 0 .1.1 0 .1 0 0 .2-.1.1-.1 0-.1 0-.2-.1-.3v.1l-.1-.1h-.3c0 .1-.1.1-.2.1-.1-.1 0 .2-.1.1-.2.2-.5.3-.8.5 0 .1-.2.1-.1.2-.1-.1-.4 0-.5.1-.3 0-.1.3-.4.2.1.1-.3.1-.3.3 0 0-.1 0-.1-.1-.2.2-.5.3-.7.4-.1.2-.5.2-.5.5-.2 0-.4.1-.6.3-.2.1-.5.3-.6.4-.1-.1-.2 0-.3 0-.1.1-.4.3-.6.5-.1 0-.2.2-.2.1-.2.3-.5.6-.8.8-.3.2-.7.4-1 .6 0 .1 0 .3-.1.4-.1.1-.3.1-.4.2-.1.1-.3.1-.3.3v.1s-.1-.1 0-.1c-.5.6-.5 1.3-.3 1.9.2.7.5 1.2.9 1.7h-.1l.2.1c.1.3.4.4.6.7h-.1c.2.1.2.4.4.3 0 0 0 .1-.1.1.5.4 1.2.6 1.9.5.5-.3 1-.3 1.5-.7.5-.4 1.1-.8 1.7-1.1.3-.1.4-.2.7-.3.4-.4 1-.3 1.3-.7v.1c0-.1.3-.1.2-.3h.1c.2-.4.6-.2.9-.6.1-.1.2-.2.3-.2.4 0 .6-.4 1-.6v.1c.1-.2.4-.2.6-.4l.1-.1v.1c.3-.2.6-.4.8-.6zm-.8-2.4c.1 0 0 0 0 0zm-3.2-3.5c.1 0 0 0 0 0z"/><path class="st7" d="M43.3 38.1c-.4.1-.8.4-1.2.6-.4.2-1 .5-1.4.8-1 .7-2 1.3-3.1 1.8-.5.2-1 .7-1.4 1-.3.2-.6.5-.9.7-.4.3-.5.4-.8.8-.3.4-.5.8-.3 1.3.2.7.7 1.2 1.2 1.7.6.6 1.3 1.1 2.5.8.5-.1 1.1-.5 1.5-.8.6-.4 1-.7 1.7-.9 1.5-.5 2.6-1.6 4-2.3.4-.2 1.2-.8 1.7-1.2"/><path class="st7" d="M35 46.5c.7-.6 1.9-.9 2.6-1.6.3-.3.5-.3.9-.6.5-.3.9-.8 1.4-1 .4-.2.7-.5 1-.7.8-.6 1.8-.9 2.6-1.5.5-.3 1.3-.7 1.8-1m-10.6 6c.7-.6 1.9-.9 2.6-1.6.3-.3.5-.3.9-.6.5-.2.9-.8 1.4-1 .4-.2.7-.5 1-.7.8-.6 1.8-.9 2.6-1.5.5-.3 1.3-.7 1.8-1"/><path class="st6" d="M46.4 43.2v.1h.1zm.4.3c0-.1.1-.1 0 0l-.3-.1c.1.1.3-.1.3.1zm.1 0c0 .1.1.1.2.1-.1 0-.2-.2-.2-.1zm7.3 6.6zm2.2 1.5c-.3-.4-.6-.8-1.1-1.1-1-.8-2.1-1.4-3.1-2.2h.1c-.1 0-.1 0-.2-.1h.1c-.1-.3-.7-.4-.8-.6h-.1c-.4-.3-.9-.5-1.3-.8l-.7-.4-.3-.2c-.1-.1-.2-.2-.3-.4 0-.1 0-.1.1-.1-.1-.2-.2-.4-.3-.5l-.5-.5c-.3-.3-.6-.7-.9-1-.1 0 0 .1-.1.1.2.2.4.3.5.6h-.1c.1.2.1 0 .2.1 0 .1-.1 0 0 .1.3.3.5.7.8.8 0 .1.1.3.1.6.1.1.2.2.3.2 1.2 1 2.5 1.5 3.5 2.5.6.3 1.2.9 1.9 1.4.2.1.6.3.8.5l.3.1c.4.3.7.6.9 1 .2.4.4.9.6 1.3.2.4.3.8.3 1.3 0 .4-.2.8-.5 1.2-.7.8-1.6 1.2-2.5 1.6-.9.4-1.9.5-2.9.7-.6.1-1.2 0-1.7 0-1.4.1-3-.3-4.3-.3-1.7-.3-3.6-.5-5.1-1.4-1.3-.7-2.1-1.8-3.2-2.7-.5-.5-1.2-.9-1.7-1.5s-1.1-1.1-1.5-1.7c-.2-.4-.6-.8-1-1.1-.4-.3-.9-.5-1.1-.9-.5-.7-1.3-1.3-2-1.7-.8-.4-1.6-.7-2.3-1.2-.6-.5-1.4-.8-1.9-1.5-.2-.4-.3-.8-.3-1.2 0-.4.1-.8.2-1.2 0-.4.1-.8.3-1.1.2-.4.4-.7.6-1.1h-.1c.3-.2.1-.7.4-.8.2-.1-.1-.4.1-.5.1-.2.1 0 .1-.1s-.1-.1 0-.1c.2.1.2-.4.4-.4 0 .1.2-.1.1.1.1-.1.2-.3.1-.4-.1-.1-.1-.2-.3-.1l.1.1H27c-.1.2-.2.2-.4.4 0 .1-.1.3-.1.4h-.1c-.1 0 0 .3-.1.2-.2.5-.4 1-.7 1.5 0 .1-.2.4 0 .3-.2.1-.4.5-.4.7-.2.3.1.4-.2.6.1.1-.2.5 0 .7h-.1c-.1.5-.2 1.2 0 1.7.3.4.6.9 1 1 .2.2.6.5.9.6.3.2.8.5 1.1.6 0 .2.2.3.3.4.3.1.8.4 1.2.5 0 .1.3.1.3.3.6.2 1.1.5 1.6 1s1.1.9 1.4 1.4c.2.1.4.1.5.2.2.2.2.4.4.6h-.1c.2.1.2.4.5.5l.1.1s-.1.1-.1 0c.3.4.7.7 1 1.1.3.4.8.8 1.2 1.1.8.6 1.6 1.3 2.4 2h-.1l.4.2h-.1c.4.4.9.6 1.3.9 0 0-.1 0 0 .1.4.1.5.4.8.3v.1c1 .4 2 .6 3.1.8.9 0 1.8.3 2.7.2 1.2 0 2.4.3 3.6.3.5 0 .8 0 1.3-.1.8-.2 1.8 0 2.6-.5v.1c.1-.1.5-.2.4-.3h.2c.4-.5 1-.4 1.5-1v.1l.4-.4v.1c.6-.3.9-1 .9-1.7l.1.1c-.1-.3-.1-.9-.3-1.3l-.3.1h.1c-.3-.6-.5-1-.8-1.4z"/><path class="st6" d="M52.1 48.2c.1.1.1 0 0 0zM26.4 37.6s0-.1 0 0c0-.1 0 0 0 0zM44.1 44.7h.1zm.2 0h-.2c0 .1.2 0 .2 0zm0 0c0 .1 0 0 0 0 0 .1.1 0 0 0zm.1 2.4z"/><path class="st6" d="M44.4 47.8c0-.1.2-.2.2-.4.1-.3.1-.7.1-1 0 0-.1 0 0-.1s0-.2.1-.3h-.1c0-.3 0-.5-.2-.8h.1c-.2-.2-.2-.4-.3-.6h-.1c0 .1.2.1.1.1 0 .1.1 0 .1 0h-.1c.1.1 0 .2.2.2-.1 0 0 .1-.1.2h.1c0 .3.1.7 0 1.1.1.2-.1.4-.1.6v.3l.1.1c-.3.4-.5.9-.8 1.2-.2.2-.4.3-.7.5-.2.2-.4.4-.4.7l-.3.3c-.1.2-.2.3-.4.3-.1 0-.2-.1-.5-.1-.4-.3-.8-.5-1.3-.7-.4-.1-.6-.5-1-.6-.4-.3-.8-.1-1.2-.2-.2-.2-.6.2-.8 0-.5-.3-1-.1-1.4.1-.5 0-.8.3-1.2.3-.1.2-.4.1-.6.2-.2-.1 0 .3-.2.1-.1-.1.1.2 0 .2h-.1s.1.1 0 .1c-.2-.1-.1.1-.2 0 0 0-.1 0-.1-.1 0 0-.1.1 0 .1.1.1.1.2.2.2l-.1-.1c.1 0 0 0 .1.1h.2c0-.1 0-.1.1-.1.1.1-.1-.2 0-.1l.3-.3c0-.1.1-.1 0-.1.1.1.2.1.2 0 .1.1 0-.2.2 0-.1-.1.1 0 .1-.2v.1c.1-.1.3 0 .4-.1 0-.2.2 0 .3-.2.1 0 .2.1.3 0 .1 0 .2-.1.3-.2.1.2.1.1.1.2.1-.1.2-.1.3-.2 0 .1.1 0 .1.1.3-.2.7-.1 1 .1 0-.1.1-.2.2-.3.1 0 .1.1.2.1s.1.1.2 0v.1c.5.1 1 .1 1.5.4h.1c.1.1.3.1.4.2v.1c.1 0 .1.2.2 0v.1c.3.1.5.2.7.4.3-.1.4.3.7.2.2 0 .3-.1.5-.2.1-.1.3-.2.4-.3.1-.1.1-.2.2-.3 0-.3.4-.3.4-.6v.1c-.1-.1.1-.1 0-.2h.1c0-.3.3-.1.3-.4 0-.1 0-.1.1-.1.2 0 .2-.3.3-.4v.1c0-.1.1-.2.2-.3v-.1h.1c.2.7.2.6.2.4zm.4-1.4zm-10.9 3.8z"/><path class="st8" d="M33.3 49.7c1.2-1.3 3.1-1.3 4.7-1.1.8.1 1.4.5 2 .9.3.2.6.3.9.5.5.3.6.5 1 .1.5-.4.7-.9 1.2-1.3s.9-.9 1.1-1.5c.4-1.1.6-1.7-.1-2.7"/><path class="st6" d="M49.2 45.8h.1l-.1-.1zm-.1-.1zm0 0c.1 0 0 0 0 0s-.1 0 0 0zm-.5-.7zm-.3.2c.1 0 .1.1 0 0 .1.1.2 0 .3 0 0 0 0-.1 0 0s.1 0 0 0l.1-.1c.1 0 .1.1.3.1h-.1c.2 0 .2.2.1.2h.1c.1 0-.1-.1 0-.1H49h.1s0-.1-.1-.1c.1 0 0 0 .1-.1H49c0-.2-.2-.2-.3-.2-.1.1-.1-.1-.2-.1h-.1v.1c-.1-.2-.2-.1-.3-.2-.1-.1-.2-.2-.3 0h-.1c-.1.1-.1-.1-.3 0-.1-.1-.2-.1-.3-.2-.1 0 0-.2-.1-.2 0-.1-.3 0-.3-.1.1-.2-.2.1-.1-.1.1-.3-.1-.2-.3-.2 0-.1-.2 0-.2-.2-.1.1.1-.2 0-.2.1-.1-.2.1 0 0l-.1.1.1-.1s-.1.1-.1 0c.2-.2-.1 0 .1-.2l.1-.1h-.1c-.1.1-.2.1-.2.2l.1-.1-.1.1-.1.1c.1-.1 0 0 0 0-.1.1.1-.1 0 0h.1l.1-.1-.1.1c-.1.1.1-.1 0 .1.1-.1 0 .1.1-.1l-.1.1v.1c.1-.1 0 .1.1 0 0 0-.1.1 0 .1h.1c-.1.1-.1.1-.1.2h.1c-.1.1 0 0 0 .1.2-.1.2 0 .1.2.1 0 .2-.1.2-.2v.1s0 .1 0 0l-.1.1c.1.1.3.1.4.2h.1c0 .1.1 0 .1 0l-.1.1c.1-.1-.1.1.1 0l-.1.1c.1 0 .1 0 .2.1.2-.1.1.1.2 0s.1.1.2.1h.1c.1-.2 0 .2.2 0v.1c0-.1 0 0 .1-.1v.1c.1-.2 0 .1.1 0 0 .2.1 0 .1 0v.1c.2.1.2.1.3.1h-.1.1-.1c.1.1.1 0 .1 0zm.4.1zm-2.8-1.6zM55.5 51.2zm.1 0s0-.1 0 0l-.1.1c-.1 0 .1-.2.1-.1zm0 0s.1 0 0 0c0 0 .1-.1 0 0zm-1 1.7z"/><path class="st6" d="M54.2 53.4c.1-.1.3-.1.4-.2.3-.2.5-.5.7-.8v-.1c.1 0 .1-.2.2-.2 0 0 0-.1-.1-.1.2-.2.3-.4.3-.7h.1c-.1-.2 0-.3-.1-.4l-.1.1c0 .1.1 0 .1.1s0 .1.1.1c-.1 0 0 .1-.1.1l.1.1c-.2.2-.4.5-.7.8 0 .3-.3.2-.4.4 0 .1-.1.2-.2.2v.1c-.5.1-.9.3-1.4.4-.6.1-1.1.2-1.5.5-.1.1-.3 0-.4.1-.4.2-.7-.1-1.1 0-.4-.1-.9-.2-1.4-.3-.4-.1-.6-.4-.9-.6-.3-.3-.8-.3-1-.6-.1-.3-.6-.1-.7-.4-.2-.5-.7-.6-1.1-.7-.3-.3-.8-.4-1-.8-.2 0-.2-.4-.4-.5 0-.2-.3 0-.2-.1 0-.1-.2.1-.2 0v-.1s-.1.1-.1 0c.1-.2-.1 0 0-.2 0 0 0-.1.1-.1 0 0-.1-.1-.1 0-.1.1-.2.1-.2.2l.1-.1v.3c.1-.1.1 0 .1 0 0 .1.2-.1.1 0 .1.1.2.1.4.2.1 0 .1.1.1 0-.1.1 0 .2.1.2 0 .2.2-.1.1.1.1-.1.1.1.2 0v.1l.3.3c.2 0 .2.2.3.1 0 .1.1.2.2.2.1.1.2.1.3.1-.1.2 0 .2 0 .2.1 0 .2.1.3.1 0 .1.1 0 0 .1.4 0 .6.3.9.6.1 0 .2-.1.3-.2.1 0 .1.1.1.1.1 0 .1.1.2.1h.1l-.1.1c.4.3 1 .5 1.4.8h.1c.1.1.3.1.4.1v.1c.1-.1.1.2.2 0v.1c.3 0 .6.1.8.2.3-.1.5.1.7 0 .3-.1.6.1 1 .1.1 0 .2-.1.3-.1.2-.2.5 0 .7-.2v.1c0-.1.1 0 .1-.2h.1c.1-.3.3 0 .4-.2l.1-.1c.2.1.3-.1.5-.1v.1c.1-.1.2-.1.3-.1v-.1.1c-.2.7-.1.6.1.5zm1-.9zm-12.3-2.3c-.1 0-.1 0 0 0z"/><path class="st7" d="M42.5 50.2c.8.9 1.9 1.3 2.7 2 .5.5 1.1.8 1.7 1.2.7.4 1.3.9 2.2 1.1.8.2 1.4.2 2.2.2 1.4 0 2.4-.5 3.5-1.2.5-.3 1.7-.7 1.6-1.6"/><g><path class="st6" d="M57 54.5h.1zm.3 0h-.2c0 .2.2 0 .2 0zm.1.1c0 .1.1 0 .1 0-.1.1-.1-.1-.1 0zm-4.5 4.2z"/><path class="st6" d="M51.1 59.3c.3-.1.7 0 1.1 0 1-.1 1.8-.4 2.6-1 0 0 0-.1.1-.1.2 0 .4-.4.6-.4v-.1c.5-.5 1.2-1 1.7-1.6h.1c.3-.6.6-1.1.3-1.6 0 0 0 .1-.1.1 0 .1.2.2.1.4 0 .1.1 0 0 .1h-.1c0 .2-.2.4-.2.7-.1 0-.2.2-.3.2 0 .1-.1.1-.1.2-.4.3-.8.7-1.2 1-.4.4-.7.7-1.2.9-.3.4-1 .4-1.5.6-.2.1-.4.2-.7.2l-.2.1c-1.4 0-2.8-.1-4.2-.2-.8 0-1.5-.1-2.3-.2-.7-.1-1.4-.2-2.2-.3l-1.2-.3c-1.1-.1-2.1-.7-3-1-1.1-.6-2.1-1.5-3.1-2.4-.8-.7-1.3-1.6-2.1-2.3-.6-.9-1.8-1.3-2.5-2.2-.4-.6-1.3-.9-1.7-1.4-.9-1-2-1.5-3.2-2.2-.4-.4-.9-.8-1.3-1.3-.4-.4-.9-.9-.9-1.5-.1-.3 0-.6 0-.9.1-.3.1-.6.2-.9.2-.2-.1-.5.2-.6.1-.1-.1-.3 0-.4.1-.1.1 0 .1-.1 0 0-.1-.1 0-.1.2.1.1-.3.4-.2 0 .1.1 0 .1.1 0 0 .2-.2.1-.3-.1-.1-.1-.2-.3-.1v.1h-.1c-.1.2-.2.1-.3.2 0 .1-.1.2-.1.3h-.1c-.1 0 .1.3-.1.2-.1.4-.3.9-.3 1.3.1.1 0 .3.1.2-.1.1-.2.4-.2.5-.2.2.1.3 0 .6.1 0 .1.5.3.6 0 0 0 .1-.1.1.2.4.5.8.7 1 .3.1.4.6.7.6.1.2.3.5.6.6.2.2.6.4.8.5 0 .2.1.2.2.4.2.1.5.3.8.5 0 .1.2.1.2.2.9.3 1.7 1 2.3 1.7h.5c.1.1.2.3.3.4.2.1.2.3.4.4h.1s-.1.1-.1 0c.6.5 1.2.9 1.7 1.4.5.5 1.1 1.1 1.6 1.7H35l.3.2c.2.3.6.5.8.8H36c.3.1.2.4.5.3 0 0 0 .1-.1.1l1.8 1.5c.6.2 1.2.7 1.8.9.8.2 1.7.6 2.5.8.4.1.6.1 1 .2.6-.1 1.3.4 1.9.3l-.1.1c.1-.1.4.1.4-.1l.1.1c.5-.2.8.2 1.3 0h.4c.4.2 1 0 1.4 0l-.1.1c.2-.1.6 0 1 0h.2v.1c.3.3.7.2 1.1.2zm3.8-1zM24.8 40.7z"/></g><path class="st7" d="M24.4 43.8v.5c.1.5.5.9.8 1.3.7.8 1.5 1.6 2.4 2.2 1.3 1 2.7 1.8 3.8 2.9.7.7 1.7 1.4 2.4 2.2 1 1.2 2 2.3 3.2 3.3.9.8 2 1.6 3 2 1.5.7 2.9.9 4.5 1.3 1.5.3 3.1.3 4.6.3 1.2 0 2.5.1 3.7-.1 1.1-.2 2-.5 2.8-1.3.5-.4.9-.8 1.4-1.2.4-.3.7-.7.8-1.2"/><g><path class="st6" d="M57.6 55.1v.1l.1-.1zm.3.2l-.2-.1c0 .1.2 0 .2.1zm0 .1c0 .1.1.1.1.1 0-.1 0-.2-.1-.1zm-4.4 5zm-1.9.7c.2-.1.4-.3.4-.4.1-.1.4 0 .6-.1h.8c.3 0 .5-.1.8-.2.2-.1.5-.2.7-.4.1-.1.2-.2.3-.2.1-.1.1-.2.2-.3l.1-.1v.1c.3 0 .6-.3.7-.3v-.1c.2-.2.3-.4.7-.5.4 0 .3-.1.5-.4.3-.3.6-.4.6-.6h.1c.1-.4.3-.7.2-.7-.2-.4-.2-.9-.3-1.2-.1 0 0 .1-.1 0 0 .2.2.3.2.6 0 .2.1 0 .1.2 0 .1-.1 0-.1 0 0 .1.1.4.2.4 0 0 0 .1-.1.2-.1 0-.1.1-.2.2 0 .1-.1.1-.1.2s0 .1-.1.1v.1c-.1.1-.3.2-.6.4-.1.1-.2.2-.2.3l-.1.1s-.2 0-.4.1c-.1.1-.2.2-.3.2 0 0-.2.2-.3.2-.1.1-.4.1-.6.3-.2.1-.2.4-.2.4-.1.2-.4.4-.7.5-.3.1-.6.2-.9.2-.2.1-.5.1-.8 0l-.2.1H52s-.1 0-.1.1c-.1 0-.1.1-.1.1-.1.2-.2.2-.4.3-.3.1-.7.2-1.1.3-.7.1-1.5-.4-2.4-.1-.5.2-.7.3-1.2.2-.2 0-.4-.1-.5-.1-.1-.1-.4-.3-.6-.3-.5-.1-.9-.1-1.4-.1-.1 0-.3.1-.4.2 0-.1-.1-.1-.1-.1-.1.1-.3 0-.5 0-.5-.1-.8-.4-1.3-.6-.6-.2-1.3-.2-1.9-.2-.6-.1-1-.4-1.5-.8-.2-.3-.6-.5-1-.5-.4.1-.7-.2-.9-.5-.3-.3-.5-.6-.8-.8-.3-.3-.7-.4-1-.6-.3-.1-.5-.3-.6-.6 0-.1 0-.3-.1-.4 0-.1 0-.4-.1-.5-.4 0-.6 0-.8-.2-.2-.2-.3-.5-.5-.7l-.6-.6-.3-.3s0-.1-.1 0c.1 0 0 0 0-.1s0-.2-.1-.2c-.2-.1-.4-.1-.5-.1-.2-.1-.3-.1-.5-.2-.3-.2-.7 0-1-.1-.3-.2-.7-.4-1.2-.5-.2-.1-.4-.2-.5-.4-.1-.2-.2-.2-.4-.3-.2 0-.4-.1-.5-.1-.1-.1-.3-.2-.4-.3-.1-.1-.3-.2-.4-.4-.1-.1-.2-.3-.4-.4-.3-.3-.7-.4-1-.5-.4 0-.7-.2-1-.5-.1-.2-.3-.5-.4-.7-.2-.2-.2-.5-.4-.6-.1-.1-.5-.1-.6-.3-.1-.3-.1-.4-.1-.7 0-.3-.2-.8.1-1.2.1-.6.6-1.2.8-1.8h-.1c.2-.2.1-.6.3-.6.2-.1-.1-.4.1-.4.1-.1.1 0 .1-.1 0 0-.1-.1 0-.1.2.1.2-.3.4-.2-.1.1.2 0 .1.1.1 0 .2-.2.1-.3-.1-.1-.1-.2-.2-.2v.1h-.1c-.1.2-.3.1-.4.2 0 .1-.1.2-.2.3h-.1c-.1 0 0 .3-.1.2-.2.4-.4.9-.6 1.3 0 .1-.1.3 0 .3-.2.1-.3.4-.4.5-.2.2 0 .3-.2.5.1 0 0 .1 0 .3-.1.1-.1.4 0 .4 0 0-.1.1-.1 0v.7c0 .2-.1.4 0 .7.1.2.2.3.4.4l.2.1h.1l.1.1c0 .1.1.3.2.4.1.1.2.3.3.4.2.3.6.7.9.7.1.2.2.2.3.3.2 0 .6.2.9.3 0 .1.2.2.1.2.1 0 .2.2.3.3.1.1.2.2.4.3l.4.2c.6.3.8.3.9.3h.3c.1 0 0 0 .1.2.2.4.5.5.8.7.2 0 .3-.1.5-.1.2.1.3.3.5.3h-.1c.2 0 .5.1.7 0h.1s0 .1-.1.1c.2 0 .3.1.5.2.1.1.3.1.4.2h.2l.1.2.1.1.3.3.6.6c.2.2.3.4.5.7.1.1.3.3.5.3h.3s0 .1.1.1c0 0 .1.1.1.2 0 .2 0 .5.2.7.2.2.4.3.6.4 0 0-.1 0 0 .1.3 0 .4.3.6.2v.1c.3.1.6.5.9.8l.5.5c.1.1.2.2.3.2.1.1.3.1.4.1.3-.1.7.1.9.3.3.3.6.6.9.7.5.2 1 .2 1.5.2s1 .2 1.4.4c.4.2.7.3 1.1.4.2 0 .4.1.6 0 .2 0 .4-.2.5-.2.3 0 .7.1 1.1 0l-.1.1c.1-.1.4.1.4 0l.1.1c.3 0 .4.2.7.3.2.1.5.1.8.1.2 0 .3-.1.5-.1.3 0 .5-.2.7-.2.3-.1.5-.1.8 0l-.1.1c.3-.1.7.2 1.1.1l.2-.1v.1c.4 0 .8-.1 1.2-.4zm3.8-1.7c0 .1 0 .1 0 0zM23.7 42.9c0-.1 0-.1 0 0 0-.1 0-.1 0 0z"/></g></g></svg>