<svg id="Layer_1" xmlns="http://www.w3.org/2000/svg" viewBox="0 0 128 128"><style>.st0{fill:#FFF}.st1{fill:#bcbdbe}.st2{fill:#666}.st3{fill:#6ea2c9}.st4{fill:none;stroke:#6097bf;stroke-width:.2154;stroke-linecap:round;stroke-linejoin:round}</style><ellipse class="st0" cx="64" cy="64" rx="62.4" ry="64"/><path class="st1" d="M123.1 69.2h.1-.1zM122.9 69.2c-.1 0-.1 0 0 0h0zM122.9 69.2h-.1c.1-.1-.1-.1.1 0zM122.9 68.3zM122.3 68.1h-.1c.2.1 0 .1.1.1-.1.1.2.2.3.3h-.1 0c-.2 0 .1.1 0 .1h.2c.1.1.1.2.3.3h-.2c.4.1.2.2.1.2h.2c.1 0-.2-.1-.1-.1h.1s0-.1-.2-.1h.2-.2c.1-.1-.1-.2-.1-.4-.4-.1.1-.1 0-.2-.1 0-.1-.1-.1-.1h-.2c.3-.1.1-.3.3-.5.1-.2.4-.3-.1-.5h.1c-.1-.1.1-.1 0-.1-.3-.1.1-.2-.3-.4 0-.1 0-.3-.1-.5h.1c-.2-.1.3-.2.1-.3.2-.1-.4-.3-.2-.4.4-.1-.4-.2 0-.2.6-.1.2-.3-.1-.4.2-.1-.3-.3.1-.4-.3-.1.3-.1.3-.2h-.1c.3 0-.4-.1 0-.1H122.3 122.9h-.6.2-.2-.4c.2 0 .1 0 0 0h-.1c-.2 0 .4 0 0 0 .1 0 .1.1.1.1h.2c-.3 0-.3 0-.3.1 0 0-.1 0 0 0-.3 0 .3 0-.1.1.3 0-.1 0 .3.1h-.2l-.1.1c.3 0-.1.1.2.1-.1 0-.2.1-.1.1 0 0 0 .1.3.1h-.4c.2 0 .1.1.3.1h-.2c.4.1.3.2-.1.3.1 0 .4 0 .6.1h-.1s-.2 0-.1.1h-.1c.1 0-.2 0 0 .1h-.1.1-.2c-.1.2.3.3.2.5h-.1 0c-.1 0 .1.1 0 .1h-.2c.2 0-.3 0 .2.1h-.2c.1.1.1.2.1.3.4.1 0 .2.3.2h-.1c.3.1 0 .2 0 .3l.1.1h-.1c.4.1-.3.1.1.2h-.1c.2 0-.1 0 .3.1h-.1c.5.1-.2.1.1.2h-.1c.1 0 .1 0 0 0h-.1c-.3 0 0 .1 0 .2h-.2c.2 0 0 .1.1.1h-.1.1-.1c.3-.1.4-.1.4 0zM122.4 68.5zM121.9 64.1zM120.9 81.1h-.1zM120.6 81l.3.1c.2 0-.4-.1-.3-.1zM120.7 81c.1 0-.1 0-.1-.1.1.1-.1.1.1.1zM120.8 80.2z"/><path class="st1" d="M120.3 79.8h-.1c.2.1 0 .1.1.2-.1.1.1.2.2.4h-.1 0c-.2 0 .1.1 0 .1 0 0 .1 0 .2.1 0 .1.1.2.2.3h-.2c.3.2.2.2.1.3.1 0 .1 0 .2.1.1 0-.2-.1 0-.1h.1c.1 0-.2-.1-.1-.1h.1s.1-.1-.1-.1h.2c-.1 0-.1 0-.2-.1.1-.1 0-.3 0-.4-.4-.2.1-.1 0-.2-.1 0-.1-.1-.1-.1l-.1-.1c.4-.1.2-.3.3-.4.1-.2.4-.2 0-.5h.1c-.1-.1.1-.1 0-.1-.3-.2.1-.2-.2-.4.1-.1.1-.3 0-.5h.1c-.1-.2.3-.2.2-.3.2-.1-.4-.3-.1-.4.4 0-.4-.3 0-.2.6 0 .3-.2 0-.5.2-.1-.3-.3.2-.4-.2-.1.4-.1.3-.1h-.1c.3 0-.4-.1 0-.1.2 0-.5-.1-.2-.1h-.1.1c.4.1-.1-.1.4 0 0 0 .2 0 .3.1.1 0 0 0-.2-.1-.2 0-.4-.1-.6-.1h.2-.2-.4c.2 0 .1 0 0 0h-.1c-.2 0 .4.1 0 0 .1.1.1.1 0 .2.1 0 0 0 .2.1h-.3s-.1 0 0 0c-.3 0 .3.1-.1 0 .3.1-.1 0 .2.1h-.2s-.1.1-.2.1c.2.1-.1 0 .2.1-.1 0-.2 0-.1.1 0 0 0 .1.2.2-.3-.1-.3 0-.4 0 .2.1.1.1.2.2h-.2c.4.2.2.3-.1.3.1 0 .4.1.5.2h-.1-.2-.1c.1 0-.2 0 0 .1h-.1.1-.2c-.1.1.2.4.1.6h-.1l.1.1h-.1c-.1 0 .1.1 0 .1h-.1c.2.1-.3 0 .1.1h-.1c.1.1.1.2 0 .3.4.2 0 .2.3.3h-.1c.2.2-.1.2 0 .3v.1h-.1c.3.2-.4.1 0 .2h-.1c.2.1-.1 0 .3.1h-.1c.4.2-.2 0 0 .2h-.1c.1 0 .1.1 0 .1h-.1c-.3 0 0 .1 0 .2h-.1c.2.1 0 .1.1.1h-.1.1-.1c.4-.8.5-.7.5-.7zM120.4 80.3c-.1 0-.1 0 0 0zM120.7 75.8zM116.3 92.3h-.1zM116 92.1l.2.2c.3.1-.3-.2-.2-.2zM116.1 92.1c.1 0-.1-.1-.1-.1.1.1-.1.1.1.1zM116.4 91.4z"/><path class="st1" d="M116 90.9l-.1-.1c.1.2-.1.1.1.1l-.1.1c-.1.1.1.3.1.4h-.1l.1.1h-.1c-.2-.1.1.1-.1.1 0 0 .1.1.2.1 0 .1 0 .2.1.4 0 0-.1 0-.1-.1.3.2.1.2 0 .3.1 0 .1 0 .2.1.1 0-.2-.1 0-.1h.1c.1 0-.2-.1-.1-.1s.1.1.1.1.1 0-.1-.2c.2.1 0 0 .2 0-.1 0 0 0-.2-.1.1-.1 0-.3.1-.4-.3-.2.1-.1 0-.2s-.1-.1 0-.1l-.1-.1c.4 0 .2-.2.4-.3.2-.1.5-.1.1-.5h.1c0-.1.1-.1 0-.1-.2-.2.1-.2-.1-.5.1-.1.1-.3.1-.4h.1c-.1-.2.3-.1.3-.3.2 0-.3-.4 0-.4.4.1-.3-.3.1-.2.6.1.3-.2.1-.4.2 0-.2-.4.3-.3-.2-.2.4 0 .3-.1h-.1c.3.1-.3-.2.1-.1.2.1-.5-.2-.2-.1h-.1s.1 0 .2.1c0 0-.2-.1-.1-.1.4.2-.1-.1.4.1 0 0 .2.1.3.1l-.2-.1c-.2-.1-.4-.2-.5-.2l.1.1c-.1-.1-.1 0-.2-.1 0 0-.2-.1-.3-.1.2.1.1.1 0 0h-.1c-.2-.1.3.2 0 0 .1.1 0 .1 0 .2.1.1 0 0 .2.1-.2-.1-.3-.1-.3-.1-.3-.1.3.2-.1 0 .3.1-.1 0 .2.2-.1 0-.1 0-.2-.1 0 0-.1 0-.2.1.2.1-.1 0 .2.2h-.1s0 .1.2.2c-.3-.1-.3-.1-.4-.1l.2.2c-.1-.1 0 .1-.2 0 .4.3.2.3-.2.3.1.1.4.2.5.3h-.1-.2-.1c.1.1-.2 0 0 .1h-.1.1c-.1 0-.2-.1-.1-.1-.1.1.1.4 0 .6h-.1l.1.1h-.1c-.1 0 0 .1 0 .1l-.1-.1c.2.1-.3-.1.1.1l-.1-.1c.1.1 0 .2-.1.3.3.2 0 .2.2.4h-.1c.2.2-.1.2-.1.3v.1h-.1c.3.2-.4 0 0 .2l-.1-.1c.2.1-.1 0 .2.2h-.1c.4.3-.2 0 0 .2h-.1c.1 0 .1.1 0 .1h-.1c-.3-.1 0 .1-.1.2l-.1-.1c.2.1 0 .1 0 .1h-.1l.1.1-.1-.1c.2-.6.3-.5.3-.5zM115.9 91.4zM117.1 87.1c.1 0 .1 0 0 0 0 0 .1 0 0 0zM109.5 102.3v.1l-.1-.1zM109.3 102.1l.2.2c.2.1-.3-.3-.2-.2z"/><path class="st1" d="M109.3 102.1c.1 0-.1-.1-.1-.1l.1.1zM109.8 101.4z"/><path class="st1" d="M109.5 100.9l-.1-.1c.2.2-.1.1 0 .2-.1.1 0 .3 0 .4h-.1l.1.1-.1-.1c-.2-.1.1.1-.1 0l.1.1c0 .1 0 .2.1.4l-.1-.1c.2.3.1.3 0 .3.1.1.1.1.2.1.1.1-.2-.2 0-.1l.1.1c.1 0-.2-.1-.1-.1s.1.1.1.1c0-.1.1 0-.1-.2l.2.1c-.1-.1 0-.1-.1-.1.2 0 .1-.2.2-.3-.3-.3.1-.1.1-.2-.1-.1-.1-.1 0-.1l-.1-.1c.4.1.3-.2.5-.2.2-.1.5 0 .2-.5h.1c0-.1.1 0 .1-.1-.2-.3.2-.2 0-.5.1-.1.2-.2.2-.4h.1c-.1-.2.3 0 .3-.2.2 0-.2-.5.1-.4.3.2-.2-.4.1-.2.6.2.3-.1.1-.4.3 0-.1-.4.3-.3-.2-.2.4.1.3 0l-.2-.1c.2.1-.3-.3.1 0 .2.1-.4-.3-.2-.2l-.1-.1.1.1s-.2-.1-.1-.1c.4.2-.1-.1.3.2 0 0 .2.1.2.2l-.1-.1c-.2-.1-.3-.2-.5-.3l.1.1c-.1-.1-.1 0-.2-.1 0 0-.2-.1-.3-.2.2.1 0 .1 0 .1h-.1c-.2-.1.3.2 0 0v.2c.1.1 0 0 .2.1-.2-.1-.3-.2-.3-.1-.3-.2.2.2-.1 0 .2.2-.1 0 .2.2-.1 0-.1-.1-.1-.1h-.2c.2.2-.1 0 .1.2-.1 0-.2-.1-.1 0 0 0 0 .1.2.2-.3-.2-.2-.1-.3-.2.1.1 0 .1.1.2-.1-.1 0 .1-.2-.1.3.3.1.3-.2.2l.4.4s-.2-.1-.1 0h-.1c.1.1-.2-.1 0 0h-.1l.1.1c-.1 0-.2-.1-.1-.1-.2.1.1.5-.1.6h-.1l.1.1h-.1c-.1 0 0 .1 0 .1l-.1-.1c.1.2-.2-.1.1.1l-.1-.1c.1.2 0 .2-.1.2.3.3-.1.1.1.4h-.1c.2.2-.1.1-.2.3v.1l-.1-.1c.3.3-.4-.1-.1.2l-.1-.1c.2.1-.1 0 .2.2l-.1-.1c.3.3-.2-.1 0 .2l-.1-.1c0 .1.1.1 0 .1-.3-.2 0 .1-.1.1l-.1-.1c.1.1 0 .1 0 .1h-.1.1v-.2c-.1 0 0 .1 0 .2zM109.3 101.3zM111.4 97.4zM100.9 110.8l-.1-.1zM100.7 110.5l.2.2c.1.2-.3-.3-.2-.2zM100.7 110.6c.1.1 0-.1-.1-.1.1 0 0-.1.1.1zM101.3 110z"/><path class="st1" d="M101.1 109.4l-.1-.1c.1.2-.1.1 0 .2-.1 0 0 .3-.1.4v-.1l.1.1v-.1c-.2-.2 0 .2-.1 0l.1.1c0 .1-.1.2 0 .4l-.1-.1c.2.3 0 .3-.1.3.1.1.1.1.1.2.1.1-.1-.2 0-.1l.1.1s-.1-.2-.1-.1l.1.1c0-.1.1 0 0-.2.1.1 0 0 .2.1 0-.1 0-.1-.1-.2.2 0 .1-.2.2-.3-.2-.3.1 0 .1-.2v-.1l-.1-.1c.3.2.3-.1.5-.1s.5.1.3-.4v.1c0-.1.1 0 .1-.1-.1-.3.2-.1.1-.5.1-.1.2-.2.3-.4l.1.1c0-.2.3 0 .3-.1.2 0-.1-.5.1-.4.3.2-.2-.4.2-.2.5.3.4 0 .2-.4.2.1 0-.4.4-.2-.1-.2.3.2.3.1l-.1-.1c.2.2-.2-.3.1 0 .2.1-.3-.4-.1-.2l-.1-.1.1.1-.1-.1c.3.3 0-.1.3.3l.2.2-.1-.2c-.1-.2-.3-.3-.4-.4l.1.1-.1-.1s-.2-.2-.3-.2c.1.1 0 .1 0 .1l-.1-.1c-.1-.1.2.3 0 0 0 .1 0 .1-.1.1.1.1 0 0 .1.2-.2-.2-.3-.2-.3-.2-.3-.2.2.3-.1 0 .2.2-.1 0 .1.2l-.1-.1h-.2c.2.2-.1 0 .1.2-.1 0-.2-.1-.1 0 0 0 0 .1.1.3l-.3-.3c.1.1 0 .1.1.3-.1-.1 0 .1-.1-.1.2.4 0 .4-.3.2.1.1.3.3.4.5 0 0-.2-.1-.1-.1v-.1c.1.1-.2-.1 0 0v.1l-.1-.1c-.2.1 0 .5-.2.5v-.1l.1.1v-.1c-.1-.1 0 .1-.1.1l-.1-.1c.1.2-.2-.2.1.2l-.1-.1c0 .2 0 .2-.2.2.2.3-.1.1.1.4l-.1-.1c.1.3-.2.1-.2.2-.1 0 0 .1 0 .1l-.1-.1c.2.3-.3-.2-.1.2l-.1-.1c.1.2-.1 0 .2.2l-.1-.1c.3.4-.2-.1-.1.2l-.1-.1v.1c-.3-.2-.1.1-.1.1l-.1-.1c.1.2 0 .1 0 .1v-.1l.1.1-.1-.1c-.3 0-.3.1-.3.2zM100.9 109.8zM103.7 106.3z"/><g><path class="st1" d="M90.7 117.3v.1-.1zM90.6 117.1s0-.1 0 0l.1.3c.1.1-.2-.4-.1-.3z"/><path class="st1" d="M90.6 117.1c0 .1 0-.1-.1-.1.1.1 0-.1.1.1zM91.3 116.6zM91.2 116l-.1-.1c.1.2-.1 0-.1.2-.1 0-.1.3-.1.4v-.1s.1.1 0 .1v-.1c-.1-.2 0 .2-.1 0 0 0 0 .1.1.2 0 .1-.1.2-.1.4 0 0 0-.1-.1-.1.1.4 0 .3-.1.3 0 .1.1.1.1.2.1.1-.1-.2 0-.1v.1s-.1-.2 0-.1c0 .1.1.1.1.1s.1 0 0-.2c.1.2 0 0 .1.1 0-.1 0-.1-.1-.2.2 0 .2-.2.3-.2-.1-.4.1 0 .1-.1v-.1l-.1-.2c.3.2.3-.1.5 0 .2 0 .5.2.4-.4v.1c0-.1.1 0 .1-.1 0-.3.2-.1.2-.4.1 0 .3-.1.3-.3v.1c0-.2.3.1.4-.1.2.1 0-.5.2-.4.3.3-.1-.5.2-.2.4.4.4 0 .3-.3.2.1.1-.4.4-.1-.1-.3.3.2.3.1l-.1-.1c.2.2-.2-.4.1 0l-.1-.2-.1-.1.1.1s-.1-.2-.1-.1c.2.4 0-.1.2.3l.1.2-.1-.2c-.1-.2-.2-.4-.3-.5l.1.1c-.1-.1 0-.1-.1-.2 0 0-.2-.2-.2-.3.1.2 0 .1 0 .1v-.1c-.1-.2.2.3 0 0 0 .1 0 .1-.1.1.1.1 0 0 .1.2-.2-.2-.2-.3-.2-.2-.2-.3.1.3-.1-.1.2.3-.1-.1.1.2 0-.1-.1-.1-.1-.2 0 0-.1-.1-.2 0 .1.2-.1-.1 0 .3-.1-.1-.2-.2-.1 0v.3c-.2-.3-.2-.2-.2-.3.1.1 0 .1 0 .3-.1-.1 0 .1-.1-.1.1.4 0 .4-.3.1.1.1.2.4.3.5v-.1l-.1-.1v-.1c0 .1-.1-.1-.1 0v-.1.1c0-.1-.1-.2-.1-.1-.2 0-.1.4-.3.5v-.1 0c-.1-.1 0 .1-.1.1 0 0 0-.1-.1-.1.1.2-.2-.2 0 .2l-.1-.1c0 .2-.1.2-.2.2.1.4-.1.1 0 .4v-.1c.1.3-.2.1-.2.2-.1 0 0 .1-.1.1v-.1c.1.4-.3-.2-.2.2l-.1-.1c.1.2-.1 0 .1.3l-.1-.1c.2.4-.2-.1-.1.2v-.1 0c-.2-.3-.1.1-.1.1l-.1-.1c.1.2-.1 0 0 .1v-.1.1l-.1-.1c.3 0 .4.2.3.2zM90.9 116.4zM94.4 113.6z"/></g><g><path class="st1" d="M79.4 121.7v.1-.2zM79.4 121.4v.3c.1.2-.1-.4 0-.3zM79.4 121.5v-.1.1zM80.2 121.1zM80.2 120.5v-.1c0 .2-.1 0-.1.1-.1 0-.1.2-.2.4v-.1 0c-.1-.2 0 .2-.1 0v.2c-.1.1-.1.1-.2.3v-.2c0 .4-.1.3-.2.2 0 .1 0 .1.1.2s0-.2 0-.1v.1c0 .1-.1-.2 0-.1v.1s.1 0 0-.2l.1.2v-.2c.1.1.2-.2.3-.2-.1-.4.1 0 .2-.1 0-.1 0-.1.1-.1v-.2c.2.3.3 0 .5.1.2 0 .4.2.5-.3v.1c0-.1.1 0 .1-.1 0-.3.3 0 .3-.4.1 0 .3-.1.4-.2v.1c.1-.2.3.2.4 0 .2.1.1-.5.3-.3.2.3 0-.5.2-.1.3.5.3.1.4-.3.2.2.1-.4.4 0 0-.3.2.3.3.2v-.1c.1.3-.1-.4.1 0 .1.2-.1-.5 0-.2v-.1s0 .1.1.1c0 0-.1-.2 0-.1.2.4 0-.1.2.4 0 0 .1.2.1.3v-.2c-.1-.2-.1-.4-.2-.5l.1.2c-.1-.1 0-.1-.1-.2 0 0-.1-.2-.2-.3.1.2 0 .1 0 .1v-.1c-.1-.2.1.3 0 0 0 .1-.1.1-.1.1 0 .1 0 0 .1.2-.1-.2-.2-.3-.2-.3s0-.1 0 0c-.1-.3.1.3-.1-.1.1.3-.1-.1 0 .3 0-.1 0-.1-.1-.2 0 0-.1-.1-.2-.1.1.3-.1-.1 0 .3 0-.1-.1-.2-.1-.1 0 0-.1.1 0 .3-.1-.3-.1-.3-.2-.4v.3c-.1-.1 0 .1-.1-.1.1.5-.1.3-.3.1 0 .1.1.4.1.6v-.1s-.1-.2-.1-.1v-.1c0 .1-.1-.2-.1 0v-.1.1c0-.1-.1-.2 0-.2-.2 0-.2.4-.4.4v-.1 0c-.1-.1-.1.1-.1.1v-.1c0 .2-.1-.2 0 .2v-.1c0 .2-.1.2-.2.1.1.4-.1.1-.1.4v-.1c0 .3-.2 0-.3.1 0 0 0 .1-.1.1v-.1c0 .4-.2-.3-.2.1v-.1c0 .2-.1-.1 0 .3v-.1c.1.5-.1-.2-.1.1v-.1 0c-.1-.3-.1.1-.1.1v-.2c0 .2-.1 0-.1.1v-.1.1-.1c-.7.2-.7.3-.8.3zM79.8 120.8zM83.8 118.7c0 .1 0 .1 0 0 0 0 0 .1 0 0z"/></g><g><path class="st1" d="M67.5 123.7v.1-.2zM67.5 123.4v0zM67.5 123.5v-.1.1zM68.3 123.3zM68.5 122.7v-.1c0 .2-.1 0-.1.1-.1 0-.2.2-.3.3v-.1 0c0-.2-.1.1-.1 0v.2c-.1.1-.2.1-.2.3v-.2c0 .4-.1.2-.2.2v.2c0 .1 0-.2.1-.1v.1s.1 0 .1-.2c0 .2 0 0 .1.2v-.2c.1.1.2-.1.4-.1 0-.4.1.1.2-.1 0-.1 0-.1.1-.1v-.2c.2.3.3.1.5.2s.4.3.5-.2v.1c0-.1.1 0 .1 0 .1-.3.3 0 .3-.3.1 0 .3 0 .4-.1v.1c.1-.2.3.2.4.1.1.2.2-.5.3-.2.1.4.1-.4.2-.1.2.6.3.2.4-.2.2.2.2-.3.4.1 0-.3.2.3.2.2v-.1c.1.3 0-.4.1 0v-.4.1c.1.4 0-.1.1.4V122.7c0-.2 0-.4-.1-.6v0s-.1-.2-.1-.3v.1-.1c0-.2 0 .4 0 0 0 .1-.1.1-.1.1v.2l-.1-.3s0-.1 0 0c-.1-.3 0 .3-.1-.1 0 .3-.1-.1 0 .3v-.2l-.1-.1c0 .3-.1-.1-.1.3 0-.1-.1-.2-.1-.1 0 0-.1 0-.1.3-.1-.3-.1-.3-.1-.4 0 .2-.1.1-.1.3 0-.2 0 .1-.1-.2 0 .5-.2.3-.3 0v.5s-.1-.2-.1-.1v-.1c0 .1-.1-.2-.1 0v-.1-.1c-.2-.1-.3.4-.5.3v-.1 0c-.1-.1-.1.1-.1.1v-.2c0 .2-.1-.3 0 .2v-.2c-.1.2-.2.2-.2.1 0 .4-.1.1-.2.4v-.1c-.1.3-.2 0-.3.1l-.1.1v-.1c0 .4-.2-.3-.2.1v-.1c0 .2-.1-.1 0 .3v-.1c0 .5-.1-.2-.1.1v-.1c0 .1 0 .1 0 0v-.1c-.1-.3-.1 0-.2 0v-.2c0 .2-.1 0-.1.1v-.1.1-.1c-.2 0-.2.2-.3.2zM68.1 122.9zM72.4 121.7z"/></g><g><path class="st1" d="M55.4 123.3v-.1zM55.5 123l-.1.3c0 .2.1-.4.1-.3zM55.5 123v-.1.1zM56.3 123c0 .1 0 .1 0 0zM56.6 122.5v-.1c-.1.2-.1 0-.1.1-.1-.1-.2.2-.3.2v-.1 0c0-.2-.1.1-.1 0v.2c-.1 0-.2.1-.3.2v-.2c-.1.3-.2.2-.2.1v.2c0 .1.1-.2.1-.1v.1s.1.1.1-.2v0c.1.1.3-.1.4 0 .1-.4.1.1.2 0 0-.1.1-.1.1-.1v-.2c.1.3.3.1.5.3.2.1.3.4.5-.1v.1c.1-.1.1.1.1 0 .2-.3.2.1.4-.3.1 0 .3 0 .5-.1v.1c.1-.1.2.3.3.2.1.2.3-.4.4-.2 0 .4.2-.4.2 0 .1.6.3.2.4-.1.1.2.3-.3.4.1.1-.3.1.3.2.3v-.1c0 .3.1-.4.1 0 0 .2.1-.5.1-.2v-.1V122.1c0 .2 0 .1 0 0v-.1c0-.2 0 .4 0 0 0 .1-.1.1-.1.1V122s0-.1 0 0v-.1c0 .3 0-.1-.1.3v-.2l-.1-.1c0 .3-.1-.1-.1.2 0-.1 0-.2-.1-.1 0 0-.1 0-.1.3v-.4c0 .2-.1.1-.1.2v-.2c-.1.4-.2.3-.3-.1 0 .1-.1.4-.1.6v-.1-.1-.1c0 .1 0-.2-.1 0v-.1-.1c-.2-.1-.4.3-.5.2v-.1 0c0-.1-.1.1-.1 0v-.2c0 .2 0-.3-.1.2v-.2c-.1.1-.2.1-.3 0-.1.4-.2 0-.3.3v-.1c-.1.3-.2 0-.3 0l-.1.1v-.1c-.1.4-.1-.3-.2.1v-.1c0 .2 0-.1-.1.3v-.1c-.1.5-.1-.2-.2.1v-.1c0 .1 0 .1-.1 0v-.1c0-.3-.1 0-.2 0v-.2c0 .2-.1 0-.1.1v-.1.1-.1c-.1.5-.2.6-.2.6zM56.1 122.6zM60.6 122.3z"/></g><g><path class="st1" d="M43.6 120.4v.1l.1-.1z"/><path class="st1" d="M43.8 120.2s0-.1 0 0l-.1.2c-.1.2.1-.3.1-.2zM43.8 120.2c0 .1 0-.1.1-.1-.1.1-.1-.1-.1.1zM44.6 120.4z"/><path class="st1" d="M45 119.9v-.1c-.1.2-.1 0-.2.1-.1-.1-.3.1-.4.2v-.1l-.1.1v-.1c0-.2-.1.1-.1-.1 0 0 0 .1-.1.2-.1 0-.2 0-.3.2 0 0 0-.1.1-.2-.2.3-.2.2-.3.1 0 .1 0 .1-.1.2 0 .1.1-.2.1 0v.1c0 .1.1-.2.1-.1v.1s.1.1.2-.1c-.1.2 0 0 0 .2 0-.1 0 0 .1-.2.1.1.3 0 .4 0 .2-.3.1.1.2 0l.1-.1.1-.1c0 .4.3.2.4.4.1.1.2.5.5 0v.1c.1-.1.1.1.1 0 .2-.3.2.1.4-.2.1.1.3.1.5 0v.1c.2-.1.2.3.3.2.1.2.4-.3.4-.1 0 .4.3-.4.2 0 0 .6.2.3.5 0 .1.2.3-.2.4.2.1-.2 0 .4.1.3v-.1c0 .3.2-.4.1 0 0 .2.2-.5.1-.2v-.1.2s.1-.2 0-.1c-.1.4.1-.1-.1.4 0 0 0 .2-.1.3l.1-.2c.1-.2.1-.4.1-.6v0s0-.3.1-.3c-.1.2 0 .1 0 0v-.1c0-.2-.1.3 0 0-.1.1-.1 0-.2 0 0 .1 0 0-.1.2.1-.3 0-.3 0-.3s0-.1 0 0c.1-.3-.1.3 0-.1-.1.3 0-.1-.1.2v-.2s-.1-.1-.1-.2c-.1.2 0-.1-.2.2 0-.1 0-.2-.1-.1 0 0-.1 0-.2.2.1-.3 0-.3.1-.4l-.2.2v-.2c-.2.4-.3.2-.3-.1 0 .1-.1.4-.2.5v-.1-.2-.1c0 .1 0-.2-.1 0v-.1.1c0-.1.1-.2.1-.2-.1-.1-.4.2-.6.1v-.1l-.1.1v-.1c0-.1-.1.1-.1 0v-.1c-.1.2 0-.3-.1.1v-.1c-.1.1-.2.1-.3 0-.2.4-.2 0-.3.3v-.1c-.2.2-.2-.1-.3-.1h-.1v-.1c-.2.3 0-.4-.2 0v-.1c-.1.2 0-.1-.1.3v-.1c-.2.4 0-.2-.2 0v-.1c0 .1-.1.1-.1 0v-.1c.1-.3-.1 0-.2 0l.1-.1c-.1.2-.1 0-.1.1v-.1.1-.1c.5.4.4.5.4.5zM44.5 119.9zM48.9 120.5z"/></g><g><path class="st1" d="M32.7 115.3v-.1zM32.9 115l-.2.2c-.1.2.2-.3.2-.2zM32.9 115.1c0 .1.1-.1.1-.1-.1.1 0-.1-.1.1zM33.6 115.4z"/><path class="st1" d="M34.1 115l.1-.1c-.2.2-.1 0-.1.1l-.1-.1c-.1-.1-.3 0-.4.1v-.1l-.1.1v-.1c.1-.2-.1.1-.1-.1 0 0-.1.1-.1.2-.1 0-.2 0-.4.1 0 0 0-.1.1-.1-.2.3-.2.1-.3 0-.1.1 0 .1-.1.2 0 .1.2-.2.1 0v.1c0 .1.1-.2.1-.1s-.1.1-.1.1 0 .1.2-.1l-.1.2c0-.1 0 0 .1-.2.1.1.3 0 .4.1.2-.3.1.1.2 0s.1-.1.1 0l.1-.1c0 .4.2.2.3.4.1.2.1.5.5.1v.1c.1 0 .1.1.1.1.3-.2.2.2.5-.1.1.1.3.1.4.1v.1c.2-.1.1.3.3.3 0 .2.4-.3.4 0-.1.4.3-.3.2.1-.1.6.2.3.4.1 0 .2.4-.2.3.3.2-.2 0 .4.1.3v-.1c-.1.3.2-.3.1.1l.1-.2v-.1s-.1.1-.1.2c0 0 .1-.2.1-.1-.2.4.1-.1-.1.4 0 0-.1.2-.1.3l.1-.1c.1-.2.2-.4.3-.5l-.1.1c.1-.1 0-.1.1-.2 0 0 .1-.2.1-.3-.1.2-.1.1-.1 0v-.1c.1-.2-.2.3 0 0-.1.1-.1 0-.2 0-.1.1 0 0-.1.2.1-.2.1-.3.1-.3.1-.3-.2.3 0-.1-.1.3 0-.1-.2.2 0-.1.1-.1.1-.2 0 0 0-.1-.1-.2-.1.2 0-.1-.2.2 0-.1.1-.2 0-.1 0 0-.1 0-.2.2.1-.3.1-.3.1-.4l-.2.2c.1-.1-.1 0 0-.2-.3.4-.3.2-.3-.2-.1.1-.2.3-.3.5v-.1s.1-.2 0-.2v-.1c-.1.1.1-.2 0 0v-.1l-.1.1c0-.1.1-.2.1-.1-.1-.1-.4.1-.6 0v-.1l-.1.1v-.1c0-.1-.1 0-.1 0l.1-.1c-.1.2.1-.3-.1.1l.1-.1c-.1.1-.2 0-.3-.1-.3.3-.2 0-.4.2v-.1c-.2.2-.2-.1-.3-.1h-.1v-.1c-.2.3 0-.4-.2 0l.1-.1c-.1.2 0-.1-.2.2v-.1c-.3.4 0-.2-.2 0v-.1s-.1.1-.1 0c.1-.3-.1 0-.2-.1l.1-.1c-.1.1-.1 0-.1 0v-.1l-.1.1.1-.1c.8-.1.7 0 .6 0zM33.6 114.9zM37.9 116.4s-.1 0 0 0z"/></g><g><path class="st1" d="M23 108l.1-.1zM23.2 107.8c.1 0 .1 0 0 0l-.2.2c-.1.2.3-.3.2-.2z"/><path class="st1" d="M23.2 107.8c0 .1.1-.1.1-.1l-.1.1zM23.9 108.3zM24.5 108c-.1.1 0-.2-.1-.1 0-.1-.3 0-.4 0l-.1.1.1-.1c.1-.2-.1.1 0-.1l-.1.1h-.4l.1-.1c-.3.2-.3.1-.3 0l-.1.1c-.1.1.2-.1.1 0l-.1.1c0 .1.2-.2.1-.1 0 .1-.1.1-.1.1.1 0 0 .1.2-.1l-.1.2c.1-.1.1 0 .1-.1 0 .2.2.1.3.2.3-.2 0 .1.2.1.1-.1.1-.1.1 0l.1-.1c-.1.3.2.3.2.5.1.2 0 .5.5.2l-.1.1c.1 0 0 .1.1.1.3-.2.2.2.5 0 .1.1.2.2.4.2v.1c.2 0 0 .3.2.3 0 .2.5-.2.4.1-.2.3.4-.2.2.1-.3.5.1.3.4.2 0 .2.4-.1.2.3.2-.2-.1.3 0 .3l.1-.1c-.2.2.3-.3 0 .1-.1.2.3-.4.2-.2l.1-.1-.1.1s.1-.2.1-.1c-.3.3.1 0-.2.3 0 0-.1.2-.2.2l.1-.1c.1-.2.3-.3.4-.5l-.1.1c.1-.1 0-.1.1-.2 0 0 .1-.2.2-.3-.1.1-.1 0-.1 0l.1-.1c.1-.2-.2.3 0 0h-.2l-.2.2c.2-.2.2-.3.2-.3.2-.3-.2.2 0-.1-.2.2 0-.1-.2.2 0-.1.1-.1.1-.1v-.2c-.2.2 0-.1-.2.1 0-.1.1-.2 0-.1 0 0-.1 0-.2.1.2-.3.2-.2.2-.3-.1.1-.1 0-.2.1.1-.1-.1 0 .1-.1-.4.3-.4.1-.2-.2l-.4.4s.1-.2 0-.1v-.1c-.1.1.1-.2 0 0l-.1.1c0-.1.1-.1.1-.1-.1-.2-.5 0-.6-.1l.1-.1-.1.1.1-.1c.1-.1-.1 0-.1 0l.1-.1c-.2.1.1-.2-.2.1l.1-.1c-.2.1-.2 0-.2-.1-.3.3-.1-.1-.4.1l.1-.1c-.3.1-.1-.1-.3-.2 0-.1-.1 0-.1 0l.1-.1c-.3.2.1-.3-.2-.1l.1-.1c-.1.1 0-.1-.2.2l.1-.1c-.3.3.1-.2-.2 0l.1-.1c-.1 0-.1.1-.1 0 .2-.3-.1 0-.1-.1l.1-.1c-.1.1-.1 0-.1 0l.1-.1-.3-.1h.2c-.1 0-.2.1-.2 0zM24 107.9zM27.9 110.1c-.1 0-.1.1 0 0 0 0-.1 0 0 0z"/></g><g><path class="st1" d="M15 98.9v.1l.1-.1zM15.3 98.8l-.3.2c-.1.1.4-.3.3-.2zM15.2 98.8c-.1.1.1 0 .1-.1-.1.1.1 0-.1.1zM15.8 99.4c0 .1 0 .1 0 0zM16.4 99.3l.1-.1c-.2.1 0-.1-.2 0 0-.1-.3-.1-.4-.1h.1l-.1.1h.1c.2-.1-.2 0 0-.1 0 0-.1.1-.2.1s-.2-.1-.4 0l.1-.1c-.3.2-.3 0-.3-.1-.1.1-.1.1-.2.1-.1.1.2-.1.1 0l.1-.1s.2-.1.1 0c-.1 0-.1.1-.1.1.1 0 0 .1.2 0-.2.1 0 0-.1.2.1 0 .1 0 .2-.1 0 .2.2.1.3.2.3-.2 0 .1.2.1h.1l.1-.1c-.2.3.1.3.1.5s-.1.5.4.3h-.1c.1 0 0 .1.1.1.3-.1.1.2.5.1.1.1.2.2.4.3h-.1c.2 0 0 .3.1.4-.1.2.5-.1.4.2-.2.3.4-.1.2.2-.4.5 0 .4.4.3-.1.2.4 0 .2.4.2-.1-.2.3-.1.3l.1-.1c-.2.2.3-.2 0 .1-.2.2.4-.3.2-.1l.1-.1-.1.1.1-.1c-.3.3.1 0-.3.3l-.2.2.2-.1c.2-.1.3-.3.4-.4l-.1.1.1-.1s.2-.2.2-.3c-.2.1-.1 0-.1 0l.1-.1c.1-.1-.3.2 0 0-.1 0-.1 0-.1-.1-.1.1 0 0-.2.1.2-.2.2-.3.2-.3.2-.2-.3.2 0-.1-.2.2 0-.1-.2.1.1 0 .1-.1.1-.1v-.2c-.2.1 0-.1-.2.1 0-.1.1-.2 0-.1 0 0-.1 0-.3.1.3-.2.2-.2.3-.3-.1.1-.1 0-.3.1.1-.1-.1 0 .1-.1-.4.2-.4 0-.2-.3-.1.1-.3.2-.5.3l.1-.1h.1c-.1.1.1-.1 0-.1h-.1c.1 0 .1-.1.1-.1 0-.2-.5-.1-.5-.2h.1l-.1.1h.1c.1-.1-.1 0-.1-.1l.1-.1c-.2.1.2-.2-.2.1l.1-.1c-.2 0-.2-.1-.2-.2-.4.2-.1-.1-.4 0h.1c-.3.1-.1-.2-.2-.2 0-.1-.1 0-.1 0l.1-.1c-.3.2.2-.3-.2-.1l.1-.1c-.2.1 0-.1-.2.1l.1-.1c-.4.2.1-.2-.2-.1h.1-.1c.2-.2-.1-.1-.1-.1l.1-.1c-.2.1-.1 0-.1 0h.1-.1l.1-.1c-.1-.1-.3-.1-.3-.1zM16 99zM19.3 102z"/></g><g><path class="st1" d="M9 88.5h-.1l.1-.1zM9.2 88.4c.1 0 .1 0 0 0l-.2.1.2-.1zM9.2 88.4h.1c-.1 0 .1-.1-.1 0zM9.7 89.1c-.1 0-.1 0 0 0z"/><path class="st1" d="M10.3 89.1l.1-.1c-.2.1 0-.1-.1-.1 0-.1-.2-.1-.4-.2h.1c.2-.1-.2 0 0-.1 0 0-.1 0-.2.1-.1-.1-.2-.1-.4-.1 0 0 .1 0 .1-.1-.4.1-.3 0-.2-.1-.1 0-.1 0-.2.1s.2-.1.1 0h-.1s.2-.1.1 0c-.1 0-.1 0-.1.1 0 0 0 .1.2 0l-.2.1c.1 0 .1 0 .2-.1 0 .1.2.2.2.3.4-.1 0 .1.1.1H9.9c-.2.3.1.3 0 .5 0 .2-.2.5.4.4h-.1c.1 0 0 .1.1.1.3 0 .1.2.4.2 0 .1.1.3.3.4h-.1c.2 0-.1.3.1.4-.1.2.5 0 .3.2-.3.2.5 0 .1.2-.4.6 0 .6.4.5-.1.2.4.1.1.4.3-.1-.2.3-.1.3h.1c-.2.2.4-.1 0 .1-.2.1.5-.2.2-.1h.1l-.1.1s.2-.1.1-.1c-.4.2.1 0-.3.2 0 0-.2.1-.3.1l.2-.1c.2-.1.4-.2.5-.3l-.1.1c.1-.1.1 0 .2-.1 0 0 .2-.1.3-.2-.2.1-.1 0-.1 0h.1c.2-.1-.3.2 0 0-.1 0-.1 0-.1-.1-.1.1 0 0-.2.1.2-.1.3-.2.3-.2.3-.2-.3.1.1-.1-.3.1.1-.1-.2.1.1 0 .1-.1.2-.1 0 0 .1-.1.1-.2-.2.1.1-.1-.3 0 .1-.1.2-.2 0-.1 0 0-.1-.1-.3 0 .3-.2.2-.2.3-.2-.2.1-.1 0-.3 0 .1-.1-.1 0 .1-.1-.4.1-.4-.1-.1-.3-.1.1-.4.2-.5.2h.1l.1-.1h.1c-.1 0 .1-.1 0-.1h.1-.1c.1 0 .2-.1.2-.1 0-.2-.4-.2-.5-.3h.1-.1.1c.1-.1-.1 0-.1-.1 0 0 .1 0 .1-.1-.2.1.2-.2-.2 0l.1-.1c-.2 0-.2-.1-.2-.2-.4.1-.1-.1-.4 0h.1c-.3 0-.1-.2-.2-.3 0-.1-.1 0-.1-.1h.1c-.4.1.2-.3-.2-.2l.1-.1c-.2.1 0-.1-.3.1l.1-.1c-.4.2.2-.2-.1-.1h.1-.1.1c.3-.2-.1-.1-.1-.1l.1-.1c-.2.1 0-.1-.1-.1h.1-.1l.1-.1c-.4.1-.5.1-.5.1zM9.9 88.7zM12.6 92.3z"/></g><g><path class="st1" d="M5.2 77h-.1.2zM5.5 77s0-.1 0 0h-.3c-.2 0 .4-.1.3 0z"/><path class="st1" d="M5.4 77h.1c-.1 0 .1-.1-.1 0zM5.7 77.8z"/><path class="st1" d="M6.3 77.8h.1c-.2 0 0-.1-.1-.1 0-.1-.2-.2-.3-.2h.1c.2-.1-.2 0 0-.1h-.2c-.1-.1-.1-.1-.3-.2h.2c-.4 0-.2-.1-.2-.2h-.2c-.1 0 .2 0 .1.1h0-.1s0 .1.2.1l-.2.1h.2c-.1.1.1.2.2.3.4 0 0 .1.1.2.1 0 .1 0 .1.1h.2c-.3.2 0 .3-.1.5 0 .2-.3.4.3.5h-.1c.1 0 0 .1.1.1.3 0 0 .3.4.3 0 .1.1.3.2.4h-.1c.2.1-.2.3 0 .4-.1.2.5.1.3.3-.3.2.5.1.1.2-.5.3-.1.3.2.4-.2.2.4.2 0 .4.3 0-.3.2-.2.3h.1c-.3.1.4-.1 0 .1-.2.1.5-.1.2 0h.1s-.1 0-.2.1c0 0 .2-.1.1 0-.4.1.1 0-.4.2 0 0-.2.1-.3.1h.2c.2-.1.4-.1.6-.2h-.2c.2-.1.1 0 .2-.1 0 0 .2-.1.3-.1h-.1.1c.2-.1-.4.1 0 0-.1 0-.1-.1-.1-.1h-.2c.3-.1.3-.1.3-.2 0 0 .1 0 0 0 .3-.1-.3.1.1-.1-.3.1.1-.1-.3 0 .1 0 .1 0 .2-.1 0 0 .1-.1.1-.2-.3 0 .1-.1-.3 0 .1 0 .2-.1.1-.1 0 0-.1-.1-.3 0 .3-.1.3-.1.4-.1h-.3c.2-.1-.1 0 .1-.1-.5 0-.3-.1 0-.3-.1 0-.4.1-.6.1h.1s.2-.1.1-.1h.1c-.1 0 .2-.1 0-.1h.1-.1c.1 0 .2-.1.2 0 0-.2-.4-.2-.4-.4h.1-.1.1c.1-.1-.1-.1-.1-.1h.1c-.2 0 .2-.1-.2 0h.1c-.2 0-.2-.1-.1-.2-.4 0-.1-.1-.4-.1h.1c-.3 0 0-.2-.1-.3l-.1-.1h.1c-.4 0 .3-.2-.1-.2h.1c-.2 0 .1-.1-.3 0h.1c-.5.1.2-.1-.1-.1h.1-.1.1c.3-.1-.1-.1-.1-.2h.2c-.2 0 0-.1-.1-.1h.1-.1.1c-.2-.7-.3-.7-.4-.8zM6 77.4c.1 0 .1 0 0 0zM7.9 81.5z"/></g><g><path class="st1" d="M3.8 65h-.1.2zM4.1 65h0zM4 65h.1H4zM4.1 65.8zM4.7 66h.1c-.2 0 0-.1-.1-.1 0-.1-.2-.2-.3-.3h.1c.2 0-.1-.1 0-.1h-.2c-.1-.1-.1-.2-.3-.3h.2c-.3 0-.2-.1-.1-.2h-.2c-.1 0 .2 0 .1.1h0-.1s0 .1.2.1c-.2 0 0 0-.2.1h.2c-.1.1.1.2.1.4.4 0-.1.1.1.2.1 0 .1 0 .1.1h.2c-.3.2-.1.3-.2.5s-.3.4.2.5h-.1c.1 0-.1.1 0 .1.3.1 0 .3.3.3 0 .1 0 .3.1.4h-.1c.2.1-.2.2-.1.4-.2.1.4.2.2.4-.4.1.4.1.1.2-.7.2-.4.3 0 .5-.2.2.3.2-.1.4.3 0-.3.2-.2.2h.1c-.3.1.4 0 0 .1H5.1c-.4 0 .1 0-.4.1h-.3.2c.2 0 .4 0 .6-.1H5h.2s.3 0 .3-.1h-.1.1c.2 0-.4 0 0 0-.1 0-.1-.1-.1-.1h-.2c.3 0 .3-.1.3-.1s.1 0 0 0c.3-.1-.3 0 .1-.1-.3 0 .1-.1-.3 0h.2l.1-.1c-.3 0 .1-.1-.2-.1.1 0 .2-.1.1-.1 0 0 0-.1-.3-.1.3 0 .3 0 .4-.1-.2 0-.1-.1-.3-.1h.2c-.5-.1-.3-.2 0-.3h-.6.1s.2-.1.1-.1h.1c-.1 0 .2-.1 0-.1h.1-.1.2c.1-.2-.3-.3-.3-.5h.1-.1.1c.1-.1-.1-.1-.1-.1h.2c-.2 0 .3-.1-.2-.1h.2c-.1-.1-.1-.2-.1-.3-.4 0 0-.1-.4-.2h.1c-.3-.1 0-.2-.1-.3l-.1-.1h.1c-.4-.1.3-.2-.1-.2h.1-.3.1c-.5 0 .2-.1-.1-.1h.1c-.1 0-.1 0 0 0h.1c.3-.1 0-.1 0-.2h.2c-.2 0 0-.1-.1-.1h.1-.1.1c0-.2-.2-.2-.2-.3zM4.5 65.6zM5.5 69.9z"/></g><g><path class="st1" d="M4.8 52.9h.1zM5.1 53l-.3-.1c-.2 0 .4.1.3.1zM5 53h.1H5zM5 53.8zM5.5 54.1h.1c-.2-.1 0-.1-.1-.1.1-.1-.1-.2-.2-.4h.1c.2 0-.1-.1 0-.1h-.2c0-.1-.1-.2-.2-.3h.2c-.3-.1-.2-.1-.1-.2h-.2c-.1 0 .2.1 0 .1h0-.1s-.1.1.2.1h-.2c.1 0 .1 0 .2.1-.1.1.1.3 0 .4.4.1-.1.1 0 .2.1 0 .1.1.1.1h.2c-.3.1-.1.3-.3.4-.2.2-.5.3 0 .6h-.1c.1 0-.1 0 0 .1.3.2-.1.2.2.4-.1.1 0 .3 0 .5H5c.1.1-.3.2-.2.3-.2.1.4.3.1.4-.4 0 .4.2 0 .2-.6.1-.2.3.1.4-.2.1.3.3-.2.4.3.1-.4.1-.3.2h.1c-.3 0 .4.1 0 .1-.1 0 .6.1.4 0h-.1.1-.4H4.5c.2 0 .4.1.6.1h-.2H5.5c-.2 0-.1 0 0 0h.1c.2 0-.4-.1 0 0-.2-.1-.2-.1-.2-.2h-.2.3s.1 0 0 0c.3 0-.3-.1.1 0-.3 0 .1 0-.2-.1h.2l.1-.1c-.3-.1.1-.1-.2-.1.1 0 .2 0 .1-.1 0 0 0-.1-.3-.1h.4c-.2 0-.1-.1-.2-.1h.2c-.4-.2-.3-.3.1-.3-.1 0-.4-.1-.6-.1H5.5c-.1 0 .2 0 0-.1h.1-.1.2c.1-.2-.3-.4-.2-.5h.1l-.1-.1h.1c.1 0-.1-.1 0-.1h.2c-.3-.1.2-.1-.3-.2h.2c-.1-.1-.1-.2 0-.3-.4-.1 0-.2-.3-.3h.1c-.3-.1 0-.2 0-.3 0 0-.1-.1 0-.1h.1c-.4-.1.4-.1 0-.2h.1c-.2 0 .1 0-.3-.1h.1c-.5-.1.2-.1-.1-.2h.1c-.1 0-.1-.1 0-.1h.1c.3 0 0-.1 0-.2h.2c-.2-.1 0-.1-.1-.1h.1-.1.1c-.1.3-.3.2-.3.1zM5.4 53.7zM5.5 58.1z"/></g><g><path class="st1" d="M8.2 41.3h.1zM8.5 41.4c0 .1 0 .1 0 0l-.2-.1c-.3 0 .3.2.2.1z"/><path class="st1" d="M8.4 41.4c-.1 0 .1 0 .1.1 0 0 .1 0-.1-.1zM8.2 42.3c0-.1 0 0 0 0z"/><path class="st1" d="M8.7 42.7l.1.1c-.2-.1 0-.1 0-.2.1-.1-.1-.3-.1-.4h.1l-.1-.1h.1c.2.1-.1-.1.1-.1 0 0-.1-.1-.2-.1 0-.1 0-.2-.2-.3 0 0 .1 0 .2.1-.3-.2-.1-.2-.1-.3-.1 0-.1 0-.2-.1-.1 0 .2.1 0 .1h-.1c-.1 0 .2.1.1.1h-.1s-.1 0 .1.2c-.2-.1 0 0-.2 0 .1 0 0 0 .2.1-.1.1 0 .3-.1.4.3.2-.1.1 0 .2l.1.1.1.1c-.4 0-.2.3-.4.4-.2-.1-.5 0-.1.3h-.1c.1.1-.1.1 0 .1.3.2-.1.2.2.4-.2.2-.2.4-.1.5h-.1c.1.2-.3.1-.2.3-.2.1.3.4 0 .4-.4 0 .3.3 0 .2-.6 0-.3.2 0 .5-.2.1.2.4-.2.3.2.1-.4 0-.3.1h.1c-.3-.1.4.2 0 .1-.2-.1.5.2.2.1h-.1s.2.1.1.1c-.5-.1 0 .1-.5-.1 0 0-.2 0-.3-.1l.2.1c.2.1.4.1.6.2l-.2-.1c.2 0 .1 0 .2.1 0 0 .2.1.3.1-.2-.1-.1 0 0 0h.1c.2.1-.3-.1 0 0-.1-.1 0-.1 0-.2-.1 0 0 0-.2-.1.3.1.3.1.3 0 0 0 .1 0 0 0 .3.1-.3-.1.1 0-.3-.1.1 0-.2-.1.1 0 .1 0 .2.1 0 0 .1 0 .2-.1-.3-.2.1-.1-.3-.2.1 0 .2 0 .1-.1 0 0 0-.1-.2-.2.3.1.3.1.4.1l-.2-.2h.2c-.4-.2-.2-.3.2-.3-.1-.1-.4-.2-.5-.2h.4c-.1-.1.2 0 0-.1h.1-.1c.1 0 .2.1.2.1.1-.1-.2-.4-.1-.6h.1l-.1-.1h.1c.1 0-.1-.1 0-.1 0 0 .1 0 .1.1-.2-.1.3 0-.1-.1 0 0 .1 0 .1.1-.1-.1-.1-.2 0-.3-.3-.2 0-.2-.3-.3h.1c-.2-.2.1-.2.1-.3v-.1h.1c-.3-.2.4 0 0-.2l.1.1c-.2-.1.1 0-.2-.1h.1c-.4-.2.2 0 0-.2h.1c-.1 0-.1-.1 0-.1h.1c.3.1 0-.1 0-.2l.1.1c-.2-.1 0-.1-.1-.1H9l-.1-.1.1.1c-.2.1-.3 0-.3 0zM8.7 42.2zM7.9 46.6z"/></g><g><path class="st1" d="M14 30.6h-.1l.1.1z"/><path class="st1" d="M14.2 30.8s0 .1 0 0l-.2-.2c-.2 0 .3.3.2.2zM14.1 30.8c-.1 0 .1.1.1.1-.1-.1.1 0-.1-.1zM13.8 31.6c-.1 0 0 0 0 0z"/><path class="st1" d="M14.1 32.1l.1.1c-.1-.2.1-.1-.1-.1l.1-.1c.1-.1 0-.3-.1-.4h.1l-.1-.1h.1c.2.1-.1-.1.1-.1 0 0-.1-.1-.2-.1 0-.1 0-.2-.1-.4 0 0 .1 0 .1.1-.3-.3-.1-.2 0-.3-.1-.1-.1 0-.2-.1-.1 0 .2.2 0 .1l-.1-.1c-.1 0 .2.1.1.1s-.1-.1-.1-.1-.1 0 .1.2l-.2-.1.1.1c-.1 0-.1.3-.1.3.3.3-.1.1-.1.2.1.1.1.1 0 .1l.1.1c-.4 0-.2.2-.4.3-.2.1-.5.1-.2.5H13c0 .1-.1.1-.1.1.2.3-.2.2.1.5-.1.1-.2.3-.2.4h-.1c.1.2-.3.1-.3.2-.2 0 .2.4 0 .4-.4-.1.3.4-.1.2-.6-.2-.3.1-.1.4-.3 0 .1.4-.3.3.2.2-.4-.1-.3 0h.1c-.3-.1.3.2-.1 0-.2-.1.4.3.2.2l.1.1-.1-.1s.2.1.1.1c-.4-.2.1.1-.4-.2 0 0-.2-.1-.3-.1l.1.1c.2.1.4.2.5.3l.2.3c.1.1.1 0 .2.1 0 0 .2.1.3.1-.2-.1-.1-.1 0-.1h.1c.2.1-.3-.2 0 0v-.2c-.1-.1 0 0-.2-.1.2.1.3.1.3.1.3.1-.3-.2.1 0-.3-.1.1 0-.2-.2.1 0 .1.1.2.1h.2c-.2-.2.1 0-.2-.2.1 0 .2.1.1 0 0 0 0-.1-.2-.2.3.2.3.1.4.2-.1-.1 0-.1-.1-.2.1.1 0-.1.2.1-.3-.3-.1-.3.2-.3-.1-.1-.3-.2-.5-.3 0 0 .2.1.2 0h.1c-.1-.1.2.1 0 0h.1l-.1-.1c.1 0 .2.1.1.1.2-.1-.1-.5 0-.6h.1l-.1-.1h.1c.1 0 0-.1 0-.1l.1.1c-.2-.1.3.1-.1-.1l.1.1c-.1-.1 0-.2.1-.3-.3-.3 0-.1-.2-.4h.1c-.2-.2.1-.2.1-.3v-.1l.1.1c-.3-.3.4.1.1-.2l.1.1c-.2-.1.1 0-.2-.2h.1c-.4-.3.2 0 0-.2h.1s-.1-.1 0-.1c.3.1 0-.1.1-.1l.1.1c-.1-.1 0-.1 0-.1h.1l-.2.2.1.1c.1-.1 0-.2 0-.2zM14.2 31.6zM12.6 35.7s-.1 0 0 0z"/></g><g><path class="st1" d="M21.7 21.3v.1zM21.9 21.6l-.2-.2.2.2zM21.8 21.6c-.1-.1 0 .1.1.1-.1-.1.1 0-.1-.1zM21.3 22.2zM21.6 22.8c0-.1.2 0 .1-.1.1 0 0-.3 0-.4v.1l-.1-.1.1.1c.2.1-.1-.1.1 0l-.1-.1v-.4l.1.1c-.2-.3 0-.3 0-.3l-.1-.1c-.1-.1.1.2 0 .1l-.1-.1c-.1 0 .2.2.1.1-.1 0-.1-.1-.1-.1 0 .1-.1 0 .1.2-.1-.1 0 0-.2-.1 0 .1 0 .1.1.1-.2 0-.1.2-.2.3.2.3-.1 0-.1.2.1.1.1.1 0 .1l.1.1c-.3-.1-.3.2-.5.2-.2.1-.5 0-.3.5l-.1-.1c0 .1-.1 0-.1.1.1.3-.2.2 0 .5-.1.1-.2.2-.2.4V24c0 .2-.3 0-.3.2-.2 0 .1.5-.1.4-.3-.2.2.4-.1.2-.5-.3-.4.1-.2.4-.2 0 .1.4-.3.2.2.2-.3-.1-.3 0l.1.1c-.2-.2.3.3-.1 0-.2-.1.4.4.2.2l.1.1-.1-.1.1.1c-.3-.3 0 .1-.3-.2 0 0-.2-.1-.2-.2l.1.1c.2.1.3.3.4.4l-.1-.1c.1.1.1.1.2.1 0 0 .2.1.3.2-.1-.1 0-.1 0-.1l.1.1c.1.1-.3-.3 0 0v-.2l-.2-.2c.2.2.3.2.3.2.3.2-.2-.2.1 0-.2-.2.1 0-.2-.2.1 0 .1.1.1.1h.2c-.2-.2.1 0-.1-.2.1 0 .2.1.1 0 0 0 0-.1-.1-.3.3.2.2.2.3.2-.1-.1 0-.1-.1-.2.1.1 0-.1.1.1-.4-.4-.2-.4.1-.2l-.4-.4s.2.1.1.1l.1.1c-.1-.1.2.1 0 0l-.1-.1.1.1c.2-.1 0-.5.2-.6v.1l-.1-.1.1.1c.1.1 0-.1 0-.1l.1.1c-.1-.2.2.1-.1-.2l.1.1c0-.2 0-.2.1-.2-.2-.3.1-.1-.1-.4l.1.1c-.1-.3.1-.1.2-.2.1 0 0-.1 0-.1l.1.1c-.2-.3.3.1.1-.2l.1.1c-.1-.2.1 0-.2-.2l.1.1c-.3-.4.2.1 0-.2l.1.1c0-.1-.1-.1 0-.1.3.2 0-.1.1-.1l.1.1c-.1-.1 0-.1 0-.1l.1.1.3-.5v0zM21.8 22.3zM19.3 26.1s0-.1 0 0z"/></g><g><path class="st1" d="M31.1 13.8l.1.1zM31.3 14c0 .1 0 .1 0 0l-.1-.2c-.2-.2.1.4.1.2z"/><path class="st1" d="M31.2 14c-.1-.1 0 .1.1.1-.1-.1 0 .1-.1-.1zM30.6 14.6zM30.7 15.2l.1.1c-.1-.2.1 0 0-.2.1 0 .1-.3.1-.4v.1l-.1-.1v.1c.1.2 0-.2.1 0 0 0-.1-.1-.1-.2s.1-.2.1-.4l.1.1c-.1-.3 0-.3.1-.3 0-.1-.1-.1-.1-.2-.1-.1.1.2 0 .1v-.1s.1.2 0 .1c0-.1-.1-.1-.1-.1 0 .1-.1 0 0 .2-.1-.2 0 0-.1-.1 0 .1 0 .1.1.2-.2 0-.1.2-.3.3.2.4-.1 0-.1.2v.1l.1.1c-.3-.2-.3.1-.5.1s-.5-.1-.3.4v-.1c0 .1-.1 0-.1.1.1.3-.2.1-.1.5l-.3.3V16c0 .2-.3-.1-.4.1-.2-.1.1.5-.2.4-.3-.3.1.4-.2.2-.5-.4-.4 0-.3.4-.2-.1 0 .4-.4.2.1.3-.3-.2-.3-.1l.1.1c-.2-.2.2.3-.1 0-.1-.2.3.4.1.2l.1.1-.1-.1s.1.2.1.1c-.3-.3 0 .1-.3-.3l-.2-.2.1.2c.1.2.2.3.4.5l-.1-.1c.1.1.1.1.1.2 0 0 .2.2.2.3-.1-.2 0-.1 0-.1l.1.1c.1.1-.2-.3 0 0 0-.1 0-.1.1-.1-.1-.1 0 0-.1-.2l.2.2c.2.3-.2-.3.1.1-.2-.2.1.1-.1-.2 0 .1.1.1.1.1h.2c-.1-.2.1.1-.1-.3.1 0 .2.1.1 0 0 0 0-.1-.1-.3.2.3.2.2.3.3-.1-.1 0-.1-.1-.3.1.1 0-.1.1.1-.2-.4 0-.4.3-.2-.1-.1-.2-.3-.3-.5l.1.1v.1c0-.1.1.1.1 0V17c0 .1.1.2.1.1.2 0 .1-.5.3-.5v.1-.1.1c.1.1 0-.1.1-.1l.1.1c-.1-.2.2.2 0-.2l.1.1c0-.2.1-.2.2-.2-.2-.4.1-.1 0-.4v.1c-.1-.3.2-.1.2-.2.1 0 0-.1.1-.1l.1.1c-.2-.3.3.2.1-.2l.1.1c-.1-.2.1 0-.1-.3l.1.1c-.2-.4.2.1.1-.2v.1c.2.2.1-.1.1-.1l.1.1c-.1-.2.1-.1 0-.1v.1-.1l.1.1c-.1-.2-.1-.3-.1-.3zM31 14.8zM27.9 17.9z"/></g><g><path class="st1" d="M41.9 8.3v-.1.2zM42 8.6l-.1-.3c-.1-.2.1.4.1.3zM41.9 8.5v.1c0-.1.1.1 0-.1zM41.2 8.9zM41.2 9.6v.1c-.1-.2.1 0 .1-.1.1 0 .1-.2.2-.4v.1c.1.2 0-.2.1 0 0 0 0-.1-.1-.2.1-.1.1-.2.1-.4 0 0 0 .1.1.2-.1-.4.1-.3.1-.2 0-.1 0-.1-.1-.2s0 .2 0 .1v-.1s.1.2 0 .1v-.1s-.1 0 0 .2l-.1-.2c0 .1 0 .1.1.2-.1 0-.2.2-.3.2.1.4-.1 0-.2.1V9.3c-.3-.2-.3 0-.5 0s-.5-.2-.4.3v-.1c0 .1-.1 0-.1.1 0 .3-.2.1-.2.4-.1 0-.3.1-.4.3v-.1c0 .2-.3-.1-.4 0-.2-.1 0 .5-.3.3-.2-.3 0 .5-.2.1-.4-.5-.4-.1-.3.3-.2-.1-.1.4-.4.1.1.3-.3-.2-.3-.2v.1c-.1-.2.1.4-.1 0-.1-.2.2.5.1.2v.1l-.1-.1s.1.2 0 .1c-.2-.4 0 .1-.2-.3 0 0-.1-.2-.1-.3l.1.2c.1.2.2.4.3.5l-.1-.1c.1.1 0 .1.1.2 0 0 .1.2.2.3-.1-.2 0-.1 0-.1v.1c.1.2-.1-.3 0 0 0-.1.1-.1.1-.1 0-.1 0 0-.1-.2.1.2.2.3.2.3.2.3-.1-.3.1.1-.1-.3.1.1-.1-.3 0 .1.1.1.1.2 0 0 .1.1.2.1-.1-.2.1.1 0-.3.1.1.2.2.1 0 0 0 .1-.1 0-.3.2.3.1.2.2.3v-.3c.1.1 0-.1.1.1-.1-.4.1-.4.3-.1 0-.1-.1-.4-.2-.5v.1s.1.2.1.1v.1c0-.1.1.2.1 0v.1-.1c0 .1.1.2.1.2.2 0 .2-.4.4-.4v.1-.1.1c.1.1 0-.1.1-.1 0 0 0 .1.1.1-.1-.2.2.2 0-.2 0 0 0 .1.1.1 0-.2.1-.2.2-.2-.1-.4.1-.1.1-.4v.1c0-.3.2-.1.3-.2.1 0 0-.1.1-.1v.1c-.1-.4.3.2.2-.2v.1c-.1-.2.1 0-.1-.3l.1.1c-.1-.4.2.2.1-.1v.1c.1.2 0-.2.1-.2v.2c0-.2.1 0 .1-.1v.1-.1l.1.1v-.2zM41.6 9.2zM37.9 11.7z"/></g><g><path class="st1" d="M53.6 5.1V5v.2zM53.6 5.4v-.3c-.1-.2 0 .4 0 .3z"/><path class="st1" d="M53.6 5.3v.1c-.1-.1 0 .1 0-.1zM52.8 5.6zM52.6 6.2v.1c0-.2.1 0 .1-.1.2.1.3-.2.3-.3V6c.1.2 0-.2.1 0v-.2c.1-.1.2-.1.2-.3v.2c0-.4.1-.2.2-.2v-.2c0-.1 0 .2-.1.1v-.1 0s-.1 0-.1.2c0-.2 0 0-.1-.2v.2c-.1-.1-.2.1-.3.1 0 .4-.1 0-.2.1 0 .1 0 .1-.1.1V6c-.2-.3-.3 0-.5-.1-.1-.2-.3-.5-.4.1v-.1c0 .1-.1 0-.1 0-.1.3-.3 0-.3.4-.1 0-.3.1-.4.2v-.1c-.1.2-.3-.2-.4 0-.2-.1-.1.5-.3.3-.2-.3-.1.5-.2.1-.3-.5-.3-.1-.4.2-.2-.2-.2.4-.4 0 0 .3-.2-.3-.3-.2v.1c-.1-.3 0 .4-.1 0-.1-.2.1.5 0 .3v.1s0-.1-.1-.2v.1c-.1-.4 0 .1-.1-.4 0 0-.1-.2-.1-.3v.2c.1.2.1.4.1.6v-.2c0 .2 0 .1.1.2 0 0 .1.2.1.3v-.1.1c.1.2-.1-.4 0 0 0-.1.1-.1.1-.1v-.2l.1.3s0 .1 0 0c.1.3 0-.3.1.1-.1-.3.1.1 0-.3v.2s.1.1.2.1c0-.3.1.1 0-.3 0 .1.1.2.1.1 0 0 .1-.1 0-.3.1.3.1.3.1.4v-.3c0 .2 0-.1.1.2 0-.5.2-.3.3 0 0-.1-.1-.4-.1-.6V7s.1.2.1.1v.1c0-.1.1.2.1 0v.1-.1.2c.2 0 .3-.4.4-.4v.1V7v.1c.1.1.1-.1.1-.1v.2c0-.2.1.3 0-.2v.1c.1-.2.1-.2.2-.1 0-.4.1-.1.1-.4v.1c0-.3.2 0 .3-.1l.1-.1v.1c0-.4.2.3.2-.1v.1c0-.2.1.1 0-.3v.1c0-.5.1.2.1-.1v.1c0-.1 0-.1 0 0v.1c.1.3.1-.1.2-.1v.2c0-.2.1 0 .1-.1v.1-.1.1c.8-.3.8-.4.8-.4zM53.1 5.9zM48.9 7.6z"/></g><g><path class="st1" d="M65.6 4.3v-.1.2zM65.6 4.5c0 .1 0 .1 0 0v-.3.3zM65.6 4.5v0zM64.7 4.6zM64.5 5.1v.1c0-.2.1 0 .1-.1.1.2.2 0 .4-.1v-.1.1c0 .2 0-.2 0 0v-.2c.1-.1.2-.1.3-.3v.2c.1-.4.2-.2.2-.2v-.2c0-.1-.1.2-.1.1v-.1 0s-.1 0-.1.2v-.2.2c-.1-.1-.2.1-.4.1-.1.4-.1-.1-.2.1 0 .1-.1.1-.1.1V5c-.2-.3-.3-.1-.5-.2s-.3-.4-.5.1v-.1c-.1.1-.1-.1-.1 0-.1.3-.3 0-.4.3-.1 0-.3 0-.4.1v-.1c-.1.2-.2-.2-.4-.1-.1-.2-.2.4-.4.2-.1-.4-.2.4-.2 0-.2-.6-.3-.2-.4.2-.1-.2-.3.3-.4-.1 0 .3-.1-.3-.2-.3v.1c0-.3 0 .4-.1 0V5.4c0-.4 0 .1-.1-.4v-.3.8-.2.2s0 .3.1.3v-.1.1c0 .2 0-.4 0 0 0-.1.1-.1.1-.1v-.2c0 .3.1.3.1.3s0 .1 0 0c0 .3 0-.3.1.1v-.3.2l.1.1c0-.3.1.1.1-.2 0 .1.1.2.1.1 0 0 .1 0 .1-.3 0 .3 0 .3.1.4 0-.2.1-.1.1-.3v.2c.1-.5.2-.3.3 0v-.6.1s0 .2.1.1v.1c0-.1 0 .2.1 0v.1-.1.2c.2.1.3-.3.5-.3v.1-.1.1c0 .1.1-.1.1-.1v.2c0-.2.1.3.1-.2v.2c.1-.1.2-.1.3-.1.1-.4.2 0 .2-.4v.1c.1-.3.2 0 .3 0l.1-.1v.1c.1-.4.1.3.2-.1V4.9 5c.2-.4.2.3.3 0v.1c0-.1 0-.1 0 0v.1c0 .3.1 0 .2 0v.2c0-.2.1 0 .1-.1v.1-.1.1c0-.1.1-.2.1-.3zM65 5zM60.6 5.8z"/></g><g><path class="st1" d="M77.6 5.9V6zM77.5 6.2l.1-.3c.1-.2-.1.4-.1.3zM77.5 6.1v0zM76.7 6z"/><path class="st1" d="M76.4 6.6v.1c.1-.2.1 0 .1-.1.1.1.2-.1.4-.2v.1c0 .2.1-.1.1 0v-.2c.1 0 .2-.1.3-.2v.2c.2-.3.2-.2.3-.1V6c0-.1-.1.2-.1 0v-.1c0-.1-.1.2 0 .1v-.1s-.1-.1-.1.2v-.2c0 .1 0 .1-.1.2-.1-.1-.3 0-.4 0-.1.4-.1-.1-.2 0 0 .1-.1.1-.1.1l-.1.2c-.1-.4-.3-.2-.4-.3-.2-.1-.3-.4-.5 0V6c-.1.1-.1-.1-.1 0-.2.3-.2-.1-.4.2-.1-.1-.3-.1-.5 0v-.1c-.1.1-.2-.3-.3-.2-.1-.2-.3.4-.4.1 0-.4-.2.4-.2 0 0-.6-.3-.3-.4.1-.1-.2-.3.3-.4-.2-.1.3-.1-.4-.2-.3v.1c0-.3-.1.4-.1 0 0-.2-.1.5-.1.2v-.1.1c.1-.4-.1.1 0-.4v-.3c0-.1 0 0-.1.2 0 .2-.1.4-.1.6v-.2V6.4c0-.2 0-.1 0 0v.1c0 .2.1-.4 0 0l.1-.1c0-.1 0 0 .1-.2v.3s0 .1 0 0c0 .3.1-.3 0 .1.1-.3 0 .1.1-.2v.2s.1.1.1.2c.1-.3.1.1.1-.2 0 .1 0 .2.1.1 0 0 .1 0 .1-.2v.4c0-.2.1-.1.1-.2v.2c.2-.4.3-.2.3.1 0-.1.1-.4.1-.6v.4c0-.1 0 .2.1 0v.1-.1.2c.1.1.4-.3.5-.2v.1l.1-.1v.1c0 .1.1-.1.1 0v.2c.1-.2 0 .3.1-.1v.2c.1-.1.2-.1.3 0 .1-.4.2 0 .3-.3V7c.1-.3.2.1.3 0h.1v.1c.1-.4.1.4.2 0v.1c.1-.2 0 .1.1-.3V7c.1-.4 0 .2.2-.1V7c0-.1.1-.1.1 0v.1c0 .3.1 0 .2 0v.2c.1-.2.1 0 .1-.1v.1-.1.1c-.1-.6 0-.7.1-.7zM76.8 6.5zM72.4 6.4z"/></g><g><path class="st1" d="M89 9.9h.1l-.1.1z"/><path class="st1" d="M88.9 10.2l.1-.3c.1-.2-.2.4-.1.3zM88.9 10.1c0-.1 0 .1-.1.1.1-.1 0 .1.1-.1zM88.1 9.9z"/><path class="st1" d="M87.7 10.3l-.1.1c.1-.2.1 0 .2 0 .1.1.3-.1.4-.1v.1l.1-.1v.1c-.1.2.1-.1.1.1 0 0 .1-.1.1-.2.1 0 .2 0 .4-.1 0 0 0 .1-.1.2.2-.3.2-.1.3-.1 0-.1 0-.1.1-.2 0-.1-.1.2-.1 0V10c0-.1-.1.2-.1.1s.1-.1.1-.1 0-.1-.2.1c.1-.2 0 0 0-.2 0 .1 0 0-.1.2-.1-.1-.3 0-.4-.1-.2.3-.1-.1-.2 0-.2 0-.2 0-.2-.1l-.1.1c0-.4-.3-.2-.3-.4-.1-.2-.2-.5-.5-.1v-.1c-.1.1-.1-.1-.1 0-.2.2-.2-.1-.5.1-.1-.1-.3-.1-.4-.1v-.1c-.2.1-.1-.3-.3-.2 0-.2-.4.3-.4 0 .1-.4-.3.3-.2-.1.1-.6-.2-.3-.5 0-.1-.2-.4.2-.3-.2-.2.2 0-.4-.1-.3v.1c0-.2-.3.4-.2 0l-.1.2v-.1s-.1.2-.1.1c.1-.4-.1.1.1-.4 0 0 .1-.2.1-.3l-.1.2c-.1.2-.2.4-.2.5l.1-.1c-.1.2 0 .1-.1.2 0 0-.1.2-.1.3.1-.2 0-.1 0 0v.1c-.1.2.1-.3 0 0 .1-.1.1 0 .2 0 0-.1 0 0 .1-.2 0 .2 0 .3.1.3-.1.3.1-.3 0 .1.1-.3 0 .1.1-.2 0 .1 0 .1-.1.2 0 0 0 .1.1.2.1-.2 0 .1.2-.2 0 .1 0 .2.1.1 0 0 .1 0 .2-.2-.1.3-.1.3-.1.4l.2-.2c-.1.2.1-.1 0 .2.1-.4.2-.2.2.1.1-.1.2-.4.3-.5v.4c.1-.1 0 .2.1 0v.1-.1c0 .1-.1.2-.1.2.1.1.4-.2.6 0v.1l.1-.1v.1c0 .1.1 0 .1 0s0 .1-.1.1c.1-.2-.1.3.1-.1 0 0 0 .1-.1.1.1-.1.2-.1.3 0 .2-.3.2 0 .3-.2v.1c.2-.2.2.1.3.1h.1v.1c.2-.3 0 .4.2 0l-.2-.1c.1-.2 0 .1.1-.2v.1c.2-.4 0 .2.2 0v.1c0-.1.1-.1.1 0v.1c-.1.3.1 0 .2 0l-.1.1c.1-.2.1 0 .1 0v.1l.1-.1-.1.1c-.1-.1 0-.2.1-.2zM88.1 10.3zM83.8 9.3z"/></g><g><path class="st1" d="M99.4 16.2v-.1.1zM99.2 16.4l.2-.2c.1-.2-.3.3-.2.2zM99.2 16.3c0-.1-.1.1-.1.1.1-.1 0 .1.1-.1zM98.5 15.9z"/><path class="st1" d="M98 16.3l-.1.1c.2-.2.1 0 .1-.1l.1.1c.1.1.3 0 .4 0v.1l.1-.1v.1c-.1.2.1-.1 0 .1l.1-.1c.1 0 .2 0 .4-.1 0 0 0 .1-.1.1.3-.2.3-.1.3 0 .1-.1.1-.1.1-.2.1-.1-.2.2-.1 0l.1-.1c0-.1-.1.2-.1.1s.1-.1.1-.1c-.1 0 0-.1-.2.1l.1-.2-.1.1c0-.2-.3-.1-.3-.1-.3.3-.1-.1-.2-.1-.1.1-.1.1-.1 0l-.1.1c.1-.4-.2-.3-.3-.5-.1-.2-.1-.5-.5-.2v-.1c-.1 0 0-.1-.1-.1-.3.2-.2-.2-.5 0-.1-.1-.2-.2-.4-.2v-.1c-.2.1-.1-.3-.2-.3 0-.2-.4.2-.4 0 .1-.4-.4.3-.2-.1.2-.6-.1-.3-.4-.1 0-.3-.4.1-.3-.3-.2.2.1-.4 0-.3v.1c.1-.3-.3.3 0-.1.1-.2-.3.4-.2.2l-.1.1.1-.1s-.1.2-.1.1c.2-.4-.1.1.2-.4 0 0 .1-.2.2-.2l-.1.1c-.1.2-.2.3-.3.5l.1-.1c-.1.1 0 .1-.1.2 0 0-.1.2-.2.3.1-.2.1-.1.1 0v.1c-.1.2.2-.3 0 0h.2c.1-.1 0 0 .1-.2-.1.2-.1.3-.1.3-.2.3.2-.3 0 .1.2-.3 0 .1.2-.2 0 .1-.1.1-.1.2v.2c.2-.2 0 .1.2-.1 0 .1-.1.2 0 .1 0 0 .1 0 .2-.2-.5.3-.5.2-.5.3l.2-.2c-.1.1.1 0-.1.2.3-.3.3-.1.2.2.1-.1.2-.3.4-.5 0 0-.1.2 0 .2v.1c.1-.1-.1.2 0 0v.1l.1-.1c0 .1-.1.2-.1.1.1.2.5-.1.6.1v.1l.1-.1v.1c0 .1.1 0 .1 0l-.1.1c.1-.2-.1.3.1-.1l-.1.1c.2-.1.2 0 .2.1.3-.3.1.1.4-.2v.1c.2-.2.2.1.3.1h.1l-.1.1c.3-.3-.1.4.2.1l-.1.2c.1-.2 0 .1.2-.2l-.1.1c.3-.4 0 .2.2 0l-.1.1c.1 0 .1-.1.1 0-.2.3.1 0 .1.1l-.1.1c.1-.1.1 0 .1 0v.1h.2-.2.2zM98.4 16.4zM94.4 14.5z"/></g><g><path class="st1" d="M108.3 24.4v-.1l-.1.1zM108.1 24.5s-.1.1 0 0l.2-.2-.2.2zM108.1 24.5c.1-.1-.1 0-.1.1l.1-.1zM107.4 23.9s.1 0 0 0c.1 0 .1 0 0 0zM106.9 24.2c.1 0 0 .2.1.1 0 .1.3 0 .4 0h-.1l.1-.1h-.1c-.1.2.2 0 0 .1l.1-.1c.1 0 .2.1.4 0l-.1.1c.3-.2.3 0 .3.1l.1-.1c.1-.1-.2.1-.1 0l.1-.1c0-.1-.2.2-.1.1l.1-.1c-.1 0 0-.1-.2 0 .1-.1 0 0 .1-.2-.1 0-.1 0-.2.1 0-.2-.2-.1-.3-.2-.3.2 0-.1-.2-.1-.1 0-.1.1-.1 0l-.1.1c.1-.3-.1-.3-.2-.5s0-.5-.5-.3h.1c-.1 0 0-.1-.1-.1-.3.1-.1-.2-.5-.1-.1-.1-.2-.2-.4-.3l.1-.1c-.2 0 0-.3-.2-.3 0-.2-.5.1-.4-.1.2-.3-.4.2-.2-.1.3-.5-.1-.4-.4-.2 0-.2-.4 0-.2-.4-.2.2.1-.3 0-.3l-.1.1c.2-.2-.3.2 0-.1.1-.2-.4.3-.2.2l-.1.1.1-.1-.1.1c.3-.3-.1 0 .2-.3l.2-.2-.1.1-.4.4.1-.1-.1.1s-.2.2-.2.3c.1-.1.1 0 .1 0l-.1.1c-.1.1.3-.2 0 0h.2c.1-.1 0 0 .2-.1-.2.2-.2.3-.2.3-.2.3.2-.2 0 .1.2-.2 0 .1.2-.1l-.1.1v.2c.2-.2 0 .1.2-.1 0 .1-.1.2 0 .1 0 0 .1 0 .3-.1-.2.3-.2.2-.2.3.1-.1.1 0 .3-.1-.1.1.1 0-.1.1.4-.2.4 0 .2.3l.4-.4s-.1.2-.1.1l-.1.1c.1-.1-.1.2 0 0l.1-.1-.1.1c.1.2.5 0 .5.2h-.1l.1-.1-.1.1c-.1.1.1 0 .1.1l-.1.1c.2-.1-.2.2.2-.1l-.1.1c.2 0 .2 0 .2.1.3-.2.1.1.4-.1l-.1.1c.3-.1.1.2.2.2 0 .1.1 0 .1 0l-.1.1c.3-.2-.1.3.2.1l-.1.1c.2-.1 0 .1.2-.2l-.1.1c.4-.3-.1.2.2 0l-.1.1c.1 0 .1-.1.1 0-.2.3.1.1.1.1l-.1.1c.2-.1.1 0 .1 0h-.1l.1-.1-.1.1c.4.4.5.3.6.4zM107.3 24.4zM103.7 21.7z"/></g><g><path class="st1" d="M115.4 34.2v-.1l-.1.1z"/><path class="st1" d="M115.1 34.3l.3-.1c.1-.2-.4.1-.3.1zM115.1 34.2c.1 0-.1 0-.1.1l.1-.1zM114.6 33.6z"/><path class="st1" d="M114 33.7l-.1.1c.2-.1 0 .1.2.1 0 .1.3.1.4.1h-.1s.1-.1.1 0h-.1c-.2.1.2 0 0 .1 0 0 .1-.1.2-.1s.2.1.4.1c0 0-.1 0-.1.1.3-.1.3 0 .3.1.1 0 .1-.1.2-.1.1-.1-.2.1-.1 0h.1s-.2.1-.1 0c.1 0 .1-.1.1-.1-.1 0 0-.1-.2 0 .2-.1 0 0 .1-.1-.1 0-.1 0-.2.1 0-.2-.2-.2-.3-.3-.4.1 0-.1-.2-.1h-.1l-.2.1c.2-.3-.1-.3-.1-.5s.1-.5-.4-.4h.1c-.1 0 0-.1-.1-.1-.3.1-.1-.2-.4-.1 0-.1-.2-.3-.3-.3h.1c-.2 0 .1-.3-.1-.4.1-.2-.5 0-.4-.2.3-.3-.4.1-.2-.2.4-.4 0-.4-.3-.3.1-.2-.4 0-.1-.4-.3.1.2-.3.1-.3l-.1.1c.2-.2-.4.2 0-.1.2-.1-.4.3-.2.1l-.1.1.1-.1s-.2.1-.1.1c.4-.2-.1 0 .3-.3l.2-.2-.2.1c-.2.1-.3.2-.5.3l.1-.1c-.1.1-.1 0-.2.1 0 0-.2.2-.3.2.2-.1.1 0 .1 0l-.1.1c-.2.1.3-.2 0 0 .1 0 .1 0 .1.1.1-.1 0 0 .2-.1l-.2.2c-.3.2.3-.2-.1.1.2-.2-.1.1.2-.1-.1 0-.1.1-.1.1v.2c.2-.1-.1.1.3-.1-.1.1-.2.2 0 .1 0 0 .1 0 .3-.1-.3.2-.2.2-.3.3.1-.1.1 0 .3-.1-.1.1.1 0-.1.1.4-.2.4 0 .1.3.1-.1.4-.2.5-.3l-.1.1h-.1c.1 0-.1.1 0 .1h-.1.1c-.1 0-.2.1-.1.1 0 .2.5.1.5.3h-.1 0c-.1.1.1 0 .1.1l-.1.1c.2-.1-.2.2.2 0l-.1.1c.2 0 .2.1.2.2.4-.2.1.1.4 0h-.1c.3-.1.1.2.2.2 0 .1.1 0 .1.1l-.1.1c.4-.1-.2.3.2.1l-.1.1c.2-.1 0 .1.3-.1l-.1.1c.4-.2-.1.2.2.1h-.1 0c-.3.2.1.1.1.1l-.1.1c.2-.1.1.1.1 0h-.1.1l-.1.1c.2-.1.3-.1.3-.1zM114.4 34zM111.4 30.7z"/></g><g><path class="st1" d="M120.3 45.2h.1-.1zM120.1 45.2c-.1 0-.1.1 0 0l.3-.1c.1 0-.5.2-.3.1z"/><path class="st1" d="M120.1 45.2h-.1c.1 0-.1.1.1 0zM119.7 44.5z"/><path class="st1" d="M119.1 44.5h-.1c.2 0 0 .1.1.1 0 .1.2.1.4.2h-.1 0c-.2.1.2 0 0 .1 0 0 .1 0 .2-.1.1.1.2.1.3.2 0 0-.1 0-.2.1.4 0 .3.1.2.2.1 0 .1 0 .2-.1s-.2 0-.1 0h.1s-.2.1-.1 0h.1s0-.1-.2 0l.2-.1h-.2c.1-.1-.2-.2-.2-.3-.4.1 0-.1-.1-.2H119.3c.3-.3 0-.3.1-.5 0-.2.2-.4-.3-.4h.1c-.1 0 0-.1-.1-.1-.3 0 0-.2-.4-.2 0-.1-.1-.3-.2-.4h.1c-.2-.1.1-.3 0-.4.1-.2-.5-.1-.3-.3.3-.2-.5 0-.1-.2.5-.4.1-.3-.3-.4.1-.2-.4-.1-.1-.4-.3 0 .3-.3.2-.3h-.1c.3-.1-.4.1 0-.1.2-.1-.5.2-.2.1h-.1s.1 0 .1-.1c0 0-.2.1-.1 0 .4-.2-.1 0 .3-.2 0 0 .2-.1.3-.1h-.2c-.2.1-.4.2-.5.2l.1-.1c-.1.1-.1 0-.2.1 0 0-.2.1-.3.2.2-.1.1 0 .1 0h-.1c-.2.1.3-.1 0 0 .1 0 .1.1.1.1.1 0 0 0 .2-.1-.2.1-.3.2-.3.2-.3.2.3-.1-.1.1.3-.1-.1.1.3 0-.1 0-.1.1-.2.1 0 0-.1.1-.1.2.3-.1-.1.1.3 0-.1.1-.2.1 0 .1 0 0 .1.1.3 0-.3.1-.2.1-.3.2h.3c-.1.1.1 0-.1.1.4-.1.3.1.1.3.1 0 .4-.1.5-.2h-.1s-.2.1-.1.1h-.1c.1 0-.2.1 0 .1h-.1.1c-.1 0-.2.1-.2.1 0 .2.4.2.4.4h-.1 0c-.1.1.1 0 .1.1 0 0-.1 0-.1.1.2 0-.2.1.2 0 0 0-.1 0-.1.1.2 0 .2.1.2.2.4-.1.1.1.4.1h-.1c.3 0 .1.2.1.3 0 0 .1 0 .1.1h-.1c.4-.1-.3.3.1.2h-.1c.2-.1-.1.1.3-.1h-.1c.5-.1-.2.2.1.1h-.1 0c-.3.2.1.1.1.1h-.1c.2 0 0 .1.1.1h-.1.1-.1c.1.2.3.2.3.3zM119.4 44.8zM117.1 41s.1 0 0 0z"/></g><g><path class="st1" d="M123 57h-.1zM122.7 57s-.1 0 0 0h0zM122.7 57h-.1.1zM122.5 56.2zM121.9 56h-.1c.2 0 0 .1.1.1 0 .1.2.2.3.3h-.1 0c-.2.1.1 0 0 .1h.2c.1.1.1.2.3.2h-.2c.4 0 .2.1.2.2h.2c.1 0-.2 0-.1-.1h.1s0-.1-.2-.1c.2 0 0 0 .2-.1h-.2c.1-.1-.1-.2-.1-.3-.4 0 .1-.1-.1-.2-.1 0-.1 0-.1-.1h-.2c.3-.2 0-.3.2-.5.1-.2.3-.4-.2-.5h.1c-.1 0 0-.1 0-.1-.3-.1 0-.3-.4-.3 0-.1 0-.3-.2-.4h.1c-.2-.1.2-.3.1-.4.2-.2-.5-.2-.3-.3.4-.1-.4-.1-.1-.2.5-.3.2-.3-.2-.4.2-.2-.4-.2 0-.4-.3 0 .3-.2.2-.2h-.1c.3-.1-.4 0 0-.1.2-.1-.5.1-.3 0h-.1.1c.4-.1-.1 0 .4-.1 0 0 .2-.1.3-.1h-.2c-.2 0-.4.1-.6.1h.2-.2s-.2.1-.3.1h.1-.1c-.2 0 .4 0 0 0 .1 0 .1.1.1.1h.2l-.3.1s-.1 0 0 0c-.3.1.3 0-.1.1.3-.1-.1.1.3 0h-.2l-.1.1c.3 0-.1.1.3.1-.1 0-.2.1-.1.1 0 0 .1.1.3.1-.3.1-.3.1-.4.1.2 0 .1 0 .3.1-.2 0 .1 0-.2.1.5 0 .3.2 0 .3.1 0 .4 0 .6-.1h-.1s-.2.1-.1.1h-.1c.1 0-.2.1 0 .1h-.1.1-.2c0 .2.4.3.3.5h-.1 0c-.1.1.1.1.1.1h-.2c.2 0-.3.1.2 0h-.2c.2.1.2.1.1.2.4 0 .1.1.4.2h-.1c.3.1 0 .2.1.3l.1.1h-.1c.4 0-.3.2.1.2h-.1c.2 0-.1.1.3 0h-.1c.5 0-.2.1.1.1h-.1c.1 0 .1 0 0 0h-.1c-.3.1.1.1 0 .2h-.2c.2 0 0 .1.1.1h-.1.1-.1c.4.4.6.4.6.4zM122.1 56.5zM120.7 52.2z"/></g><g><path class="st2" d="M48.8 71.5c1.3 0 2.3.3 3 1 .7.7 1 1.6 1 2.8 0 1.2-.3 2.2-1 2.8-.7.7-1.7 1-3 1h-4v5.3h-1.7v-13h5.7zm-.6 6.2c1 0 1.7-.2 2.2-.6.5-.4.7-1 .7-1.8s-.2-1.4-.7-1.8c-.5-.4-1.2-.6-2.2-.6h-3.4v4.8h3.4zM56.7 71.5v13h-1.5v-13h1.5zM66.7 84.7c-.4 0-.7-.1-1-.3-.2-.2-.4-.6-.4-1.1-.4.5-.9.9-1.5 1.1-.6.2-1.2.3-1.8.3-.4 0-.8 0-1.2-.1-.4-.1-.7-.2-1-.5-.3-.2-.5-.5-.7-.8-.2-.3-.2-.7-.2-1.2s.1-1 .3-1.3c.2-.3.4-.6.7-.8.3-.2.6-.4 1-.5l1.2-.3c.4-.1.8-.1 1.2-.2.4 0 .7-.1 1-.2.3-.1.5-.2.7-.3.2-.2.3-.4.3-.7 0-.3-.1-.6-.2-.8-.1-.2-.3-.4-.5-.5-.2-.1-.4-.2-.7-.2-.2 0-.5-.1-.7-.1-.7 0-1.2.1-1.6.4-.4.2-.7.7-.7 1.4h-1.5c0-.6.1-1.1.4-1.5.2-.4.5-.7.9-1 .4-.2.8-.4 1.3-.5.5-.1 1-.2 1.5-.2.4 0 .8 0 1.3.1.4.1.8.2 1.1.4.3.2.6.5.8.8.2.3.3.8.3 1.3v4.8c0 .4 0 .6.1.8 0 .2.2.3.4.3.1 0 .3 0 .5-.1v1.2c-.5.2-.9.3-1.3.3zm-2.2-4.8c-.3.1-.6.1-1 .2-.3 0-.7.1-1 .1-.4.1-.7.1-.9.3-.3.1-.5.3-.7.5-.2.2-.3.5-.3.9 0 .3.1.5.2.6.1.2.2.3.4.4.2.1.4.2.6.2.2 0 .5.1.7.1.5 0 .9-.1 1.3-.2s.7-.3.9-.5c.2-.2.4-.4.5-.7.1-.2.2-.5.2-.7v-1.6c-.3.3-.6.4-.9.4zM72.7 86.9c-.2.3-.4.6-.6.8-.2.2-.4.3-.7.4-.3.1-.6.1-.9.1H70c-.2 0-.4-.1-.5-.1v-1.4c.1 0 .3.1.4.1.2 0 .3.1.5.1.3 0 .6-.1.8-.2.2-.1.4-.4.5-.6l.6-1.6-3.7-9.4h1.7l2.7 7.7 2.6-7.7h1.6l-4.1 10.7c0 .4-.2.8-.4 1.1zM80.2 82.4c.1.2.3.4.6.6.2.1.5.2.8.3.3.1.6.1.9.1.2 0 .5 0 .8-.1.3 0 .5-.1.7-.2.2-.1.4-.2.6-.4.1-.2.2-.4.2-.7 0-.4-.2-.7-.5-.9-.3-.2-.7-.4-1.1-.5l-1.5-.3c-.5-.1-1-.2-1.5-.4s-.8-.5-1.1-.8c-.3-.3-.5-.8-.5-1.4 0-.5.1-.9.3-1.2.2-.3.5-.6.8-.8.3-.2.7-.4 1.1-.5.4-.1.8-.2 1.2-.2.5 0 1 0 1.5.1s.8.2 1.2.5c.3.2.6.5.8.9.2.4.3.9.4 1.4h-1.5c0-.3-.1-.6-.2-.8-.1-.2-.3-.4-.5-.5-.2-.1-.4-.2-.7-.3-.2-.1-.5-.1-.8-.1-.2 0-.5 0-.7.1-.2 0-.5.1-.6.2-.2.1-.4.2-.5.4-.1.2-.2.3-.2.6s.1.5.3.7c.2.2.4.3.7.4.3.1.6.2 1 .3.4.1.7.2 1.1.2.4.1.8.2 1.1.3.4.1.7.3 1 .5.3.2.5.5.7.8.2.3.3.7.3 1.1 0 .6-.1 1-.4 1.4-.2.4-.5.7-.9.9-.4.2-.8.4-1.3.5-.5.1-1 .1-1.4.1-.5 0-1-.1-1.5-.2s-.9-.3-1.3-.5-.7-.6-.9-1c-.2-.4-.3-.9-.4-1.5H80c0 .4.1.6.2.9zM43 89.7l4.1 10.9 4.1-10.9h2.4v13H52V91.9l-4.1 10.8h-1.5l-4.1-10.8v10.8h-1.6v-13H43zM62.9 102.7v-1.5c-.3.6-.7 1-1.3 1.3-.5.3-1.1.4-1.8.4-.6 0-1.1-.1-1.5-.2-.4-.2-.7-.4-1-.7-.3-.3-.4-.7-.5-1.1-.1-.4-.2-.9-.2-1.4v-6.2h1.5v6.4c0 .6.2 1 .5 1.4.3.3.8.5 1.4.5.5 0 .9-.1 1.2-.2.3-.1.6-.4.9-.6.2-.3.4-.6.5-.9.1-.4.2-.7.2-1.2v-5.3h1.5v9.4h-1.4zM68.2 100.6c.1.2.3.4.6.6.2.1.5.2.8.3.3.1.6.1.9.1.2 0 .5 0 .8-.1.3 0 .5-.1.7-.2.2-.1.4-.2.6-.4.1-.2.2-.4.2-.7 0-.4-.2-.7-.5-.9-.3-.2-.7-.4-1.1-.5-.5-.1-.9-.2-1.5-.3-.5-.1-1-.2-1.5-.4s-.8-.5-1.1-.8c-.3-.3-.5-.8-.5-1.4 0-.5.1-.9.3-1.2.2-.3.5-.6.8-.8.3-.2.7-.4 1.1-.5.4-.1.8-.2 1.2-.2.5 0 1 0 1.5.1s.8.2 1.2.5c.3.2.6.5.8.9.3.3.5.7.5 1.3h-1.5c0-.3-.1-.6-.2-.8-.1-.2-.3-.4-.5-.5-.2-.1-.4-.2-.7-.3-.2-.1-.5-.1-.8-.1-.2 0-.5 0-.7.1-.2 0-.5.1-.6.2-.2.1-.4.2-.5.4-.1.2-.2.3-.2.6s.1.5.3.7c.2.2.4.3.7.4.3.1.6.2 1 .3.4.1.7.2 1.1.2.4.1.8.2 1.1.3.4.1.7.3 1 .5.3.2.5.5.7.8.2.3.3.7.3 1.1 0 .6-.1 1-.4 1.4-.2.4-.5.7-.9.9-.4.2-.8.4-1.3.5-.5.1-1 .1-1.4.1-.5 0-1-.1-1.5-.2s-.9-.3-1.3-.5-.7-.6-.9-1c-.2-.4-.3-.9-.4-1.5H68c0 .5.1.8.2 1zM76.6 91.6v-1.9h1.5v1.9h-1.5zm1.5 1.7v9.4h-1.5v-9.4h1.5zM86.5 94.9c-.4-.3-.9-.5-1.6-.5-.6 0-1 .1-1.4.3-.4.2-.7.5-.9.8-.2.3-.4.7-.5 1.2-.1.4-.1.9-.1 1.4 0 .4.1.9.2 1.3s.3.8.5 1.1c.2.3.5.6.9.8.4.2.8.3 1.3.3.8 0 1.4-.2 1.8-.6.4-.4.7-1 .8-1.7H89c-.2 1.2-.6 2.1-1.3 2.7-.7.6-1.6.9-2.9.9-.7 0-1.3-.1-1.9-.3-.6-.2-1-.6-1.4-1-.4-.4-.6-.9-.8-1.5-.2-.6-.3-1.2-.3-1.9s.1-1.4.3-2c.2-.6.5-1.1.8-1.6.4-.5.8-.8 1.4-1.1.6-.3 1.2-.4 1.9-.4.5 0 1 .1 1.5.2s.9.3 1.2.6c.4.3.7.6.9 1 .2.4.4.9.4 1.4h-1.6c0-.6-.3-1-.7-1.4z"/></g><g><path class="st3" d="M45.8 57.3h.1l-.2-.1zM45.4 57h-.1l.6.1c.2 0-.7 0-.5-.1zM45.4 57c.1-.1-.1-.1-.2-.1.2 0-.1.1.2.1zM43 53.3z"/><path class="st3" d="M41.6 53.8v.2c.3-.3.3.1.6 0v.1c.4.2.9.2 1.4.4l-.1.1c.1 0 .2-.1.2-.1l-.1.1c-.2.3.4.1.2.3 0 0 .2-.1.2-.2.3.3.6.6 1.1 1 0 0-.1.1-.2.1.7.2.6.7.5 1.1.2 0 .2-.1.3 0 .2-.2-.4-.2-.1-.4h.1c.1-.1-.4 0-.2-.1.1-.1.2 0 .2 0-.1-.2 0-.4-.4-.5.3-.1-.1-.2.2-.4-.1 0-.1-.1-.3 0-.1-.7-.8-1.1-1.3-1.6-.6.3-.5-.5-.9-.5v-.1c-.2.1-.4.1-.5-.1l-.2.2c-.3-.4-.7-.5-1.1-.6h-1.3c-.5 0-1 .1-1.4.3-.4.2-.8.6-.8 1.2l-.1-.1c-.1.3-.4.3-.4.6h-.1c0 .4-.1.7-.2 1-.1.3-.2.6.1.9-.1.7.1 1.5.5 2l-.1.1c.2.2.3.5.4.8.1.3.2.6.5.7.2.3.5.3.9.3.3 0 .6-.1.9.2.1.3.4.2.6.1.2-.2.4-.3.5 0 .4.4.8.4 1.1.2.3-.2.5-.6.6-1 .3 0 .5-.3.6-.6.1-.3.2-.5.7-.6-.1-.2.1-.3.3-.4.2-.1.5-.2.4-.4h-.1c.5 0-.6-.4.1-.3.3 0-.8-.2-.4-.2h-.2c0-.1.2 0 .3 0 0 0-.3 0-.2-.1.7 0-.1-.2.6-.1 0 0 .3-.1.5 0 .1 0 0-.2-.3-.2s-.7-.1-.9 0h.3-.3c0 .1-.4.1-.6.1.3.1.1.1.1.1h-.1c-.3 0 .6.1.1.1.1.2.1.3 0 .5.2.1-.1.1.3.2-.4-.1-.6 0-.6 0h-.1c-.5-.2.4.3-.2.1.4.2-.2 0 .3.4-.1 0-.2-.1-.2-.1-.1.1-.3.1-.4.2.2.3-.3 0 .1.5-.1 0-.4-.2-.3.1v-.1c-.1.1-.2.2-.1.5-.3-.5-.3-.3-.4-.5.1.3-.1.3-.1.5-.1-.2-.1.1-.2-.2-.1.8-.8.6-1 0-.1.2-.2.6-.3.9v-.1c-.1.1-.1-.3-.2-.3V60c-.1.1 0-.3-.2-.1v-.1l-.3.2c0-.1.1-.3.1-.2-.2-.1-.5-.1-.9-.2-.3-.1-.7-.2-.8-.5h.1-.2c.1 0 .1 0 .1-.1.1-.2-.3-.2-.3-.4.1 0 .2-.1.2-.1-.4 0 .3-.3-.3-.1l.2-.1c-.3-.2-.4-.6-.3-.9-.3-.1-.3-.3-.3-.4 0-.2.1-.3-.1-.5h.1c-.3-.5.3-.8.5-1.2.1-.1.1-.3.2-.4l.1.1c-.1-.3.1-.3.3-.4.2 0 .4 0 .3-.3l.1.2c-.1-.3.2 0-.1-.5l.1.1c-.1-.8.5.1.6-.4v.1c0-.1.1-.2.2-.1v.1c.3.5.4-.2.7-.2v.2c.1-.3.3 0 .5-.2v.1l.1-.2v.2c.2.3.4.1.5.1zM43.5 54.5c0 .1 0 .1 0 0zM43.5 57.5c0-.1 0 0 0 0z"/><g><path class="st3" d="M62.5 50.6l-.2-.1zM62 50.3h-.1l.6.1c.3 0-.7 0-.5-.1zM62.1 50.3c.1-.1-.1-.1-.2-.1.1 0-.1.1.2.1zM59.6 46.6z"/><path class="st3" d="M58.3 47.1l-.1.2c.3-.3.3.1.6 0v.1c.4.2.9.2 1.4.4l-.1.1c.1 0 .2-.1.2-.1l-.1.1c-.2.3.4.1.2.3 0 0 .2-.1.2-.2l1 1s-.1.1-.2.1c.7.2.6.7.5 1.1.2 0 .2-.1.3 0 .2-.2-.4-.2-.1-.4h.1c.1-.1-.4 0-.2-.1.1-.1.2 0 .2 0-.1-.2 0-.4-.4-.5.3-.1-.1-.2.2-.4-.1 0-.1-.1-.3 0-.1-.7-.8-1.1-1.2-1.6-.6.3-.5-.5-.9-.5v-.1c-.2.1-.4.1-.5-.1l-.2.2c-.3-.4-.7-.5-1.1-.6h-1.3c-.5 0-1 .1-1.4.3-.4.2-.8.6-.8 1.2l-.1-.1c-.1.3-.4.3-.4.6h-.1c0 .4-.1.7-.2 1-.1.3-.2.6.1.9-.1.7 0 1.5.5 2l-.1.2c.2.2.3.5.4.8.1.3.2.6.5.7.1.3.5.3.8.3.3 0 .6-.1.9.2.1.3.4.2.6.1.2-.2.4-.3.5 0 .4.4.8.4 1.1.2.3-.2.5-.6.6-1 .3 0 .5-.3.6-.6.1-.3.2-.5.7-.6-.1-.2.1-.3.3-.4.2-.1.5-.2.4-.4h-.1c.5 0-.6-.4.1-.3.3 0-.8-.2-.4-.2h-.2c0-.1.2 0 .3 0 0 0-.3 0-.2-.1.7 0-.1-.2.6-.1 0 0 .3-.1.5 0 .1 0 0-.2-.3-.2s-.7-.1-.9 0h.3-.3c0 .1-.4.1-.6.1.3.1.1.1.1.1h-.1c-.3 0 .6.1.1.1.1.2.1.3 0 .5.2.1-.1.1.3.2-.4-.1-.6 0-.6 0h-.1c-.5-.2.4.3-.2.1.4.2-.2 0 .3.4-.1 0-.2-.1-.2-.1-.1.1-.3.1-.4.2.2.3-.3 0 .1.5-.1 0-.4-.2-.3.1v-.1c-.1.1-.2.2-.1.5-.3-.5-.3-.3-.4-.5.1.3-.1.3-.2.5-.1-.2-.1.1-.2-.2-.1.8-.8.6-1 0-.1.2-.2.6-.3.9v-.1c-.1.1-.1-.3-.2-.3v-.1c-.1.1 0-.3-.2-.1v-.1l-.1.1c0-.1.1-.3.1-.2-.2-.1-.5-.1-.9-.2-.3-.1-.7-.2-.8-.5h.1-.2c.1 0 .1 0 .1-.1.1-.2-.3-.2-.3-.4.1 0 .2-.1.2-.1-.4 0 .3-.3-.3-.1l.2-.1c-.3-.2-.4-.6-.3-.9-.3-.1-.3-.3-.3-.4 0-.2.1-.3-.1-.5h.1c-.3-.5.3-.8.5-1.2.1-.1.1-.3.2-.4l.1.1c-.1-.3.1-.3.3-.3.2 0 .4 0 .3-.3l.1.2c-.1-.3.2 0-.1-.5l.1.1c-.1-.8.5.1.6-.4v.1c0-.1.1-.2.2-.1v.1c.3.5.4-.2.7-.2v.2c.1-.3.3 0 .5-.2v.1l.1-.2v.2c.2.2.4 0 .6 0zM60.2 47.8c0 .1 0 .1 0 0zM60.1 50.8c0-.1 0 0 0 0z"/></g><g><path class="st3" d="M61.9 52.5v-.1l-.2-.1zM61.5 51.8h-.1l.5.4c.3-.1-.7-.3-.4-.4zM61.5 51.7c.1-.1-.1-.2-.2-.2.2 0-.1.2.2.2zM64.4 39.8zM64 36.3h-.2c.4.6 0 1.3 0 1.9l-.1-.1c-.4 1.5-.8 3-1.2 4.6l-.1-.1c0 .1.1.2.1.3-.1 0-.1-.1-.1-.1-.5.2-.1 1-.4 1.1 0 .1.1.2.3.2-.3 1.2-.6 2.5-.5 3.8-.1.1-.2 0-.3 0 .4 1.2 0 2.2-.1 3.4.1.1.2-.1.3 0 .2-.3-.3-.7 0-1l.1.1c.1-.2-.4-.1-.1-.3.1-.1.2 0 .2 0 0-.5.2-1-.1-1.5.3-.1.1-.5.4-.7-.1-.1 0-.3-.2-.4.5-1.7.7-3.4 1.3-5.1-.1-.5.1-.9.3-1.3.3-.4.6-.8.7-1.4h.1c0-.4 0-.9.2-1.3l-.2-.4c.5-1.2.4-2.6.2-3.8-.2-1.2-.5-2.3-.3-3.4l.1-.4c0-.2.2-.4.2-.6.2-.4.3-.8.6-1.3s.5-.9.8-1.4c.3-.4.5-.9.8-1.3-.1 0-.2 0-.3.1l-.5.4-1 .5c-.7.3-1.4.6-2.1 1-.7.3-1.4.6-1.7.8-.4.2-.7.4-1.1.7v-.1c-.7.3-1.4.3-2.1.5v-.1c-.8.4-1.7.5-2.7.6-.9.1-1.8.1-2.7.5-1 0-2.2.1-3.3 0-.1 0-.3-.1-.4-.1h-.5c-.3 0-.6-.1-.8-.1-.6-.1-1.1-.1-1.7-.2v-.1c-.9 0-1.6-.2-2.6-.3-.5 0-1.1-.1-1.5.1-.2.1-.4.2-.6.4-.1.1 0 .2 0 .3 0 .1.1.2.1.3.1.1.2.2.2.3.1.3.3.5.4.8.1.1.1.2.2.4l.1.3c.2.4.4.8.6 1.3.3.9.6 1.8.5 2.8-.5 1.2.8 2.6.2 3.7-.9 2.2-.5 4.4.2 6.6-.2 2.1.9 4 .4 6 .5.9-.3 2-.1 3l.1-.1c-.4.4.7.8.1 1.1-.3.2.8.4.5.5h.2c.1.2-.2 0-.2.2 0 .1.3 0 .2.2-.7.1.2.6-.6.7 0-.1-.3.2-.5 0-.1.1 0 .5.3.4.4 0 .7.1.9-.1h-.3c.2-.1.1-.1.3-.1 0-.3.4-.4.5-.6-.3-.1-.2-.4-.1-.5l.1-.1c.3-.1-.6-.3-.1-.3-.2-.6-.3-1.4-.4-2.1-.2-.1 0-.6-.4-.4.4-.2.4-.8.4-1h.1c.5-.5-.6-.4.1-.8-.5 0 .1-.7-.5-.8.3-.4.4-.4.5-.4-.1-.7 0-1.4 0-1.9-.5-.4.1-1.1-.5-1.5.1-.3.3-.9 0-1.3h.1c-.1-.5-.1-1.2-.5-1.5.6-.2.4-.4.6-.6-.3-.3-.2-1.1-.4-1.6.3-.1-.1-.4.3-.5-.7-1.5-.4-3.4.1-5.1-.2-.2-.7-.4-.9-.6h.1c-.1-.3.3-.6.2-.9h.1c-.2-.3.3-.6-.1-.9h.1l-.2-.2c.1 0 .3 0 .3.1-.1-.8-.2-1.7-.5-2.6-.1-.4-.3-.8-.5-1.2l-.1-.1v-.1l-.1-.1c-.1-.1-.1-.2-.2-.2l-.3-.2-.1-.1v-.1c.1-.1.2-.1.3-.2.2-.1.5-.1.7-.1v.1s0-.1.2-.1c.1-.1.2-.1.2-.1 0 .1 0 .1-.1.1.6.2 1.3 0 1.9.1 0 .1-.1.2 0 .2.5-.3.7.5 1-.1v.2h2c.1 0 .3.1.5.1s.4.1.6.1l1 .1c1.1-.7 2.3-.2 3.4-.8v.1c1.4-.6 3-.2 4.5-.7.6-.1 1-.4 1.6-.5l.1.1c.4-.4 1-.5 1.5-.5s.7 0 1.4-.6l-.3.7c.2-.3.3-.3.4-.3.1-.1.2-.1.6-.6l-.1.2c.3-.2.5-.4.7-.6l.1-.1v.1c-.2.3-.6.8-.8 1.1-.2.3-.3.5-.2.7h-.1c0 .2.1.5-.1.6 0 0-.1 0-.1-.1-.2.2-.3.3-.3.5s-.1.4 0 .6c.1.4.2.8.3 1.3l-.3-.1c.3.4.2 1.1.4 1.6h-.1l.2.2-.2.1c.1.9.4 1.5.4 2.1zM62.5 42.9s0-.1 0 0c0-.1 0-.1 0 0zM45.8 57.9z"/></g><g><path class="st4" d="M38 53.9l.6-.4-.8 1.7c.1.1 3.9-2.4 4-2.3.1.1-4 3.5-4 3.6.1.1 4.7-2.9 4.8-2.8.1.2-6.4 4.8-6.3 5 .1.1 7.9-4.8 8-4.6.1.1-6.8 4.9-6.7 5.1.1.1 6.3-3.8 6.4-3.7.1.2-5.4 4.2-5.3 4.4.1.1 5.2-3.2 5.3-3.1 0 .1-2.9 2.9-2.8 3 0 .1 2.1-1.3 2.2-1.3"/></g><g><path class="st4" d="M54.3 47.4l1.2-.7s-.9 1.7-.9 1.8c.1.1 4.2-2.5 4.2-2.4.1.2-5.6 4.6-5.5 4.7.1.1 5.1-3.2 5.2-3 .1.2-5.1 4.2-5 4.3.1.1 7.7-4.6 7.8-4.5.1.2-6.4 4.7-6.3 4.9.1.1 4.5-2.9 4.6-2.7.1.1-3.9 3.5-3.8 3.6.1.1 5.8-3.5 5.9-3.4.1.1-3.8 3.3-3.8 3.5 0 0 2.8-1.7 2.8-1.6"/></g><g><path class="st3" d="M84.1 54.6l.1-.1H84zM83.7 54.3h-.1l.6.1c.2 0-.7 0-.5-.1zM83.7 54.3c.1-.1-.1-.1-.2-.1.2 0 0 .1.2.1zM81.3 50.6z"/><path class="st3" d="M80 51.1l-.1.2c.3-.3.3.1.6 0v.1c.4.2.9.2 1.4.4l-.1.1c.1 0 .2-.1.2-.1l-.1.1c-.2.3.4.1.2.3 0 0 .2-.1.2-.2l1 1s-.1.1-.2.1c.7.2.6.7.5 1.1.2 0 .2-.1.3 0 .2-.2-.4-.2-.1-.4h.1c.1-.1-.4 0-.2-.1.1-.1.2 0 .2 0-.1-.2 0-.4-.4-.5.3-.1-.1-.2.2-.4-.1 0-.1-.1-.3 0-.1-.7-.8-1.1-1.2-1.6-.6.3-.5-.5-.9-.5v-.1c-.2.1-.4.1-.5-.1l-.2.2c-.3-.4-.7-.5-1.1-.6h-1.3c-.5 0-1 .1-1.4.3-.4.2-.8.6-.8 1.2l-.1-.1c-.1.3-.4.3-.4.6h-.1c0 .4-.1.7-.2 1-.1.3-.2.6.1.9-.1.7 0 1.5.5 2l-.1.1c.2.2.3.5.4.8.1.3.2.6.5.7.2.3.5.3.9.3.3 0 .6-.1.9.2.1.3.4.2.6.1.2-.2.4-.3.6 0 .4.4.8.4 1.1.2.3-.2.5-.6.6-1 .3 0 .5-.3.6-.6.1-.3.2-.5.7-.6-.1-.2.1-.3.3-.4.2-.1.5-.2.4-.4h-.1c.5 0-.6-.4.1-.3.3 0-.8-.2-.4-.2h-.2c0-.1.2 0 .3 0 0 0-.3 0-.2-.1.7 0-.1-.2.6-.1 0 0 .3-.1.5 0 .1 0 0-.2-.3-.2s-.7-.1-.9 0h.3-.3c0 .1-.4.1-.6.1.3.1.1.1.1.1h-.1c-.3 0 .6.1.1.1.1.2.1.3 0 .5.2.1-.1.1.3.2-.4-.1-.6 0-.6 0h-.1c-.5-.2.4.3-.2.1.4.2-.2 0 .3.4-.1 0-.2-.1-.2-.1-.4.1-.7.1-.7.2.2.3-.3 0 .1.5-.1 0-.4-.2-.3.1v-.1c-.1.1-.2.2-.1.5-.3-.5-.3-.3-.4-.5.1.3-.1.3-.1.5-.1-.2-.1.1-.2-.2-.1.8-.8.6-1 0-.1.2-.2.6-.3.9v-.1c-.1.1-.1-.3-.2-.3v-.1c-.1.1 0-.3-.2-.1v-.1l-.1.1c0-.1.1-.3.1-.2-.2-.1-.5-.1-.9-.2-.3-.1-.7-.2-.8-.5h.1-.2c.1 0 .1 0 .1-.1.1-.2-.3-.2-.3-.4.1 0 .2-.1.2-.1-.4 0 .3-.3-.3-.1l.2-.1c-.3-.2-.4-.6-.3-.9-.3-.1-.3-.3-.3-.4 0-.2.1-.3-.1-.5h.1c-.3-.5.3-.8.5-1.2.1-.1.1-.3.2-.4l.1.1c-.1-.3.1-.3.3-.4.2 0 .4 0 .3-.3l.1.2c-.1-.3.2 0-.1-.5l.1.1c-.1-.8.5.1.6-.4v.1c0-.1.1-.2.2-.1v.1c.3.5.4-.2.7-.2v.2c.1-.3.3 0 .5-.2v.1l.1-.2v.2c.2.3.4.2.6.2zM81.8 51.8zM81.8 54.7z"/><g><path class="st3" d="M90.4 26.7v.2zM90.2 27.2v.1l.2-.6c-.2-.3-.2.7-.2.5zM90.1 27.1c-.1-.1-.1.2-.1.3 0-.2.1 0 .1-.3zM83.9 26.6z"/><path class="st3" d="M82.1 27.4v.2c.3-.4.6 0 1-.1v.1c.8.2 1.6-.1 2.5-.1v.1c.1-.1.1-.2.2-.2v.1c.1.4.5-.1.6.2.1 0 .1-.2.1-.3H88c.1 0 .3-.1.4-.1v.3c.5-.5 1.1-.3 1.7-.3 0-.2-.1-.2 0-.3-.2-.2-.3.4-.5.1V27c-.1-.1 0 .4-.1.2-.1-.1 0-.2 0-.2-.2.1-.5-.1-.7.3 0-.3-.3 0-.3-.3-.1.1-.1.1-.2.3-.2-.1-.3-.1-.5-.2-.2 0-.4-.1-.5-.1h-.1-.1c-.4 0-.9 0-1.4-.1-.5.5-.9-.3-1.5-.1v-.1c-.2.1-.4.2-.6.1l-.6.1c-.3-.2-.6-.3-.9-.3-.4-.1-.9 0-1.3 0-.4.1-.8.2-1.1.4-.2.1-.3.2-.5.4-.1.1-.1.2-.1.4v.1c.3.4.5.9.8 1.4.1.1.1.2.1.3l.1.2c0 .1.1.3.1.4.1.6.4 1.1.9 1.7H81c.2.4 0 .7.2 1.1H81c.6.9.1 1.9.7 2.7 0 1.1 0 2.3.2 3.4h-.1c.2.9-.4 1.8-.2 2.7-.3 1 .7 1.9.4 2.9-.5.6.8 1.3.2 1.9-.8 1.2-.1 2.3.6 3.3-.2 1.1.8 2 .2 3.1.5.4-.4 1.1-.2 1.6h.1c-.4.2.7.4 0 .5-.3.1.8.2.4.3h.2c.1.1-.2 0-.2.1 0 0 .3 0 .2.1-.7.1.2.3-.6.4 0-.1-.3.1-.5 0-.1 0 0 .2.3.2s.7 0 .9-.1h-.3c.2-.1.1 0 .3-.1 0-.2.4-.2.5-.4-.3-.1-.1-.2-.1-.2h.1c.3-.1-.6-.1-.1-.1-.2-.3-.2-.7-.2-1.1-.2 0 0-.3-.4-.2.4-.1.5-.4.5-.5h.1c.5-.3-.5-.2.1-.4-.5 0 .1-.4-.5-.4.1 0 .2-.1.3-.1 0-.3.1-.7.1-1-.4-.2.1-.6-.5-.7.1-.2.3-.5 0-.7h.1c-.1-.3-.1-.6-.5-.7.5-.1.4-.2.6-.4-.3-.2-.2-.5-.5-.8.2-.1-.1-.2.2-.3-.8-.7-.6-1.7-.2-2.5-.2-.1-.7-.2-.9-.3h.1c-.1-.1.3-.3.2-.5h.1c-.2-.1.3-.3 0-.5h.1l-.1-.1h.3c0-1.2-.6-2.6-.4-3.9l.1.1-.2-.3h.1c.2-.3-.1-.7-.1-1 .1 0 .2.1.2 0-.3-.2.4-.4-.3-.5h.2c-.2-.7-.2-1.4-.1-2-.6-.5-.1-1.2-.6-1.8h.1c-.5-.7-.1-1.5-.3-2.3 0-.3-.2-.5-.2-.8h.2c-.3-.2-.3-.5-.2-.8 0-.3.1-.6-.3-.8h.2c-.3 0 0-.4-.5-.2l.1-.1c-.8-.1.1-.7-.6-1h.2c-.2-.1-.4-.3-.2-.3h.1c.1 0 .1-.1.1-.1 0-.1-.2-.2-.4-.3-.1-.1-.1-.3.1-.4l.3.2c-.1-.2 0-.2.1-.2s.3 0 .4-.1l.1.1v-.2l.2.2c.2 0 .4-.2.7-.2zM85.6 27.5zM84.1 55.6z"/></g><g><path class="st4" d="M75.9 51.4l2.7-1.6c.1.1-4.3 3.7-4.2 3.9.1.1 5.7-3.5 5.8-3.3.1.2-5.4 4.4-5.3 4.5.1.2 6.8-4.1 6.9-4 .1.1-5.2 4.2-5.1 4.4.1.2 5.3-3.2 5.4-3.1.1.1-6.6 4.8-6.5 5 .1.2 6-3.6 6.1-3.5.1.1-3.6 3.4-3.6 3.5.1.1 5.1-3.1 5.2-3 0 .1-2.9 2.9-2.9 3l2.1-1.2"/></g></g></g></svg>