<svg id="Layer_1" xmlns="http://www.w3.org/2000/svg" viewBox="0 0 128 128"><style>.st0{fill:#fff}.st1{fill:#bcbdbe}.st2{fill:#666}.st3{fill:#878787}.st4{fill:none;stroke:#636464;stroke-width:1.221;stroke-miterlimit:10;stroke-dasharray:1.628,1.221}.st5{stroke:#9bd3e7}.st5,.st6{fill:none;stroke-width:.2121;stroke-linecap:round;stroke-linejoin:round}.st6{stroke:#e36f25}</style><ellipse class="st0" cx="64" cy="64" rx="62.4" ry="64"/><path class="st1" d="M123.1 69.2h.1-.2zm-.3 0zm.1 0h-.1c.1-.1-.1-.1.1 0zm-.1-.9c.1 0 0 0 0 0zm-.5-.2h-.1c.2.1 0 .1.1.1-.1.1.2.2.3.3h-.1c-.2 0 .1.1 0 .1h.2c.1.1.1.2.3.3h-.2c.4.1.2.2.1.2h.2c.1 0-.2-.1-.1-.1h.1s0-.1-.2-.1h.2-.2c.1-.1-.1-.2-.1-.4-.4-.1.1-.1 0-.2-.1 0-.1-.1-.1-.1h-.2c.3-.1.1-.3.3-.5.1-.2.4-.3-.1-.5h.1c-.1-.1.1-.1 0-.1-.3-.1.1-.2-.3-.4 0-.1 0-.3-.1-.5h.1c-.2-.1.3-.2.1-.3.2-.1-.4-.3-.2-.4.4-.1-.4-.2 0-.2.6-.1.2-.3-.1-.4.2-.1-.3-.3.1-.4-.3-.1.3-.1.3-.2h-.1c.3 0-.4-.1 0-.1h-.3.6-.6.2H121.9c.2 0 .1 0 0 0h-.1c-.2 0 .4 0 0 0 .1 0 .1.1.1.1h.2c-.3 0-.3 0-.3.1 0 0-.1 0 0 0-.3 0 .3 0-.1.1.3 0-.1 0 .3.1h-.2l-.1.1c.3 0-.1.1.2.1-.1 0-.2.1-.1.1 0 0 0 .1.3.1h-.4c.2 0 .1.1.3.1h-.2c.4.1.3.2-.1.3.1 0 .4 0 .6.1h-.1s-.2 0-.1.1h-.1c.1 0-.2 0 0 .1h-.1.1-.2c-.1.2.3.3.2.5h-.1c-.1 0 .1.1 0 .1h-.2c.2 0-.3 0 .2.1h-.2c.1.1.1.2.1.3.4.1 0 .2.3.2h-.1c.3.1 0 .2 0 .3l.1.1h-.1c.4.1-.3.1.1.2h-.1c.2 0-.1 0 .3.1h-.1c.5.1-.2.1.1.2h-.1c.1 0 .1 0 0 0h-.1c-.3 0 0 .1 0 .2h-.2c.2 0 0 .1.1.1h-.1.1-.1c.2-.1.4-.1.4 0zm.1.4zm-.5-4.4zm-1 17h-.1zm-.3-.1l.3.1c.2 0-.4-.1-.3-.1zm0 0c.1 0-.1 0-.1-.1.1.1 0 .1.1.1zm.2-.8z"/><path class="st1" d="M120.3 79.8h-.1c.2.1 0 .1.1.2-.1.1.1.2.2.4h-.1c-.2 0 .1.1 0 .1 0 0 .1 0 .2.1 0 .1.1.2.2.3h-.2c.3.2.2.2.1.3.1 0 .1 0 .2.1.1 0-.2-.1 0-.1h.1c.1 0-.2-.1-.1-.1h.1s.1-.1-.1-.1h.2c-.1 0-.1 0-.2-.1.1-.1 0-.3 0-.4-.4-.2.1-.1 0-.2-.1 0-.1-.1-.1-.1l-.1-.1c.4-.1.2-.3.3-.4.1-.2.4-.2 0-.5h.1c-.1-.1.1-.1 0-.1-.3-.2.1-.2-.2-.4.1-.1.1-.3 0-.5h.1c-.1-.2.3-.2.2-.3.2-.1-.4-.3-.1-.4.4 0-.4-.3 0-.2.6 0 .3-.2 0-.5.2-.1-.3-.3.2-.4-.2-.1.4-.1.3-.1h-.1c.3 0-.4-.1 0-.1.2 0-.5-.1-.2-.1h-.1.1c.4.1-.1-.1.4 0 0 0 .2 0 .3.1.1 0 0 0-.2-.1-.2 0-.4-.1-.6-.1h.2H120.8c.2 0 .1 0 0 0h-.1c-.2 0 .4.1 0 0 .1.1.1.1 0 .2.1 0 0 0 .2.1h-.3s-.1 0 0 0c-.3 0 .3.1-.1 0 .3.1-.1 0 .2.1h-.2s-.1.1-.2.1c.2.1-.1 0 .2.1-.1 0-.2 0-.1.1 0 0 0 .1.2.2-.3-.1-.3 0-.4 0 .2.1.1.1.2.2h-.2c.4.2.2.3-.1.3.1 0 .4.1.5.2h-.4c.1 0-.2 0 0 .1h-.1.1-.2c-.1.1.2.4.1.6h-.1l.1.1h-.1c-.1 0 .1.1 0 .1h-.1c.2.1-.3 0 .1.1h-.1c.1.1.1.2 0 .3.4.2 0 .2.3.3h-.1c.2.2-.1.2 0 .3v.1h-.1c.3.2-.4.1 0 .2h-.1c.2.1-.1 0 .3.1h-.1c.4.2-.2 0 0 .2h-.1c.1 0 .1.1 0 .1h-.1c-.3 0 0 .1 0 .2h-.1c.2.1 0 .1.1.1h-.1.1-.1c.4-.8.5-.7.5-.7zm0 .5zm.4-4.5zm-4.4 16.5h-.1zm-.3-.2l.2.2c.2.1-.3-.2-.2-.2zm.1 0c.1 0-.1-.1-.1-.1.1.1-.1.1.1.1zm.3-.7z"/><path class="st1" d="M115.9 90.9l-.1-.1c.2.2 0 .1.1.1l-.1.1c-.1.1.1.3.1.4h-.1l.1.1h-.1c-.2-.1.1.1-.1.1 0 0 .1.1.2.1 0 .1 0 .2.1.4 0 0-.1 0-.1-.1.3.2.1.2 0 .3.1 0 .1 0 .2.1.1 0-.2-.1 0-.1h.1c.1 0-.2-.1-.1-.1s.1.1.1.1.1 0-.1-.2c.2.1 0 0 .2 0-.1 0 0 0-.2-.1.1-.1 0-.3.1-.4-.3-.2.1-.1 0-.2s-.1-.1 0-.1l-.1-.1c.4 0 .2-.2.4-.3.2-.1.5-.1.1-.5h.1c0-.1.1-.1 0-.1-.2-.2.1-.2-.1-.5.1-.1.1-.3.1-.4h.1c-.1-.2.3-.1.3-.3.2 0-.3-.4 0-.4.4.1-.3-.3.1-.2.6.1.3-.2.1-.4.2 0-.2-.4.3-.3-.2-.2.4 0 .3-.1h-.1c.3.1-.3-.2.1-.1.2.1-.5-.2-.2-.1h-.1s.1 0 .2.1c0 0-.2-.1-.1-.1.4.2-.1-.1.4.1 0 0 .2.1.3.1l-.2-.1c-.2-.1-.4-.2-.5-.2l.1.1c-.1-.1-.1 0-.2-.1 0 0-.2-.1-.3-.1.2.1.1.1 0 0h-.1c-.2-.1.3.2 0 0 .1.1 0 .1 0 .2.1.1 0 0 .2.1-.2-.1-.3-.1-.3-.1-.3-.1.3.2-.1 0 .3.1-.1 0 .2.2-.1 0-.1 0-.2-.1 0 0-.1 0-.2.1.2.1-.1 0 .2.2h-.1s0 .1.2.2c-.3-.1-.3-.1-.4-.1l.2.2c-.1-.1 0 .1-.2 0 .4.3.2.3-.2.3.1.1.4.2.5.3h-.4c.1.1-.2 0 0 .1h-.1.1c-.1 0-.2-.1-.1-.1-.1.1.1.4 0 .6h-.1l.1.1h-.1c-.1 0 0 .1 0 .1l-.1-.1c.2.1-.3-.1.1.1l-.1-.1c.1.1 0 .2-.1.3.3.2 0 .2.2.4h-.1c.2.2-.1.2-.1.3v.1h-.1c.3.2-.4 0 0 .2l-.1-.1c.2.1-.1 0 .2.2h-.1c.4.3-.2 0 0 .2h-.1c.1 0 .1.1 0 .1h-.1c-.3-.1 0 .1-.1.2l-.1-.1c.2.1 0 .1 0 .1h-.1l.1.1-.1-.1c.2-.6.3-.5.3-.5zm0 .5zm1.2-4.3zm-7.6 15.2v.1l-.1-.1zm-.2-.2s-.1 0 0 0l.2.2-.2-.2zm0 0c.1 0-.1-.1-.1-.1l.1.1zm.5-.7z"/><path class="st1" d="M109.5 100.9l-.1-.1c.2.2-.1.1 0 .2-.1.1 0 .3 0 .4h-.1l.1.1-.1-.1c-.2-.1.1.1-.1 0l.1.1c0 .1 0 .2.1.4l-.1-.1c.2.3.1.3 0 .3.1.1.1.1.2.1.1.1-.2-.2 0-.1l.1.1c.1 0-.2-.1-.1-.1s.1.1.1.1c0-.1.1 0-.1-.2l.2.1c-.1-.1 0-.1-.1-.1.2 0 .1-.2.2-.3-.3-.3.1-.1.1-.2-.1-.1-.1-.1 0-.1l-.1-.1c.4.1.3-.2.5-.2.2-.1.5 0 .2-.5h.1c0-.1.1 0 .1-.1-.2-.3.2-.2 0-.5.1-.1.2-.2.2-.4h.1c-.1-.2.3 0 .3-.2.2 0-.2-.5.1-.4.3.2-.2-.4.1-.2.6.2.3-.1.1-.4.3 0-.1-.4.3-.3-.2-.2.4.1.3 0l-.1-.1c.2.1-.3-.3.1 0 .2.1-.4-.3-.2-.2l-.1-.1.1.1s-.2-.1-.1-.1c.4.2-.1-.1.3.2 0 0 .2.1.2.2l-.1-.1c-.2-.1-.3-.2-.5-.3l.1.1c-.1-.1-.1 0-.2-.1 0 0-.2-.1-.3-.2.2.1 0 .1 0 .1h-.1c-.2-.1.3.2 0 0v.2c.1.1 0 0 .2.1-.2-.1-.3-.2-.3-.1-.3-.2.2.2-.1 0 .2.2-.1 0 .2.2-.1 0-.1-.1-.1-.1h-.2c.2.2-.1 0 .1.2-.1 0-.2-.1-.1 0 0 0 0 .1.2.2-.3-.2-.2-.1-.3-.2.1.1 0 .1.1.2-.1-.1 0 .1-.2-.1.3.3.1.3-.2.2l.4.4s-.2-.1-.1 0h-.1c.1.1-.2-.1 0 0h-.1l.1.1c-.1 0-.2-.1-.1-.1-.2.1.1.5-.1.6h-.1l.1.1h-.1c-.1 0 0 .1 0 .1l-.1-.1c.1.2-.2-.1.1.1l-.1-.1c.1.2 0 .2-.1.2.3.3-.1.1.1.4h-.1c.2.2-.1.1-.2.3v.1l-.1-.1c.3.3-.4-.1-.1.2l-.1-.1c.2.1-.1 0 .2.2l-.1-.1c.3.3-.2-.1 0 .2l-.1-.1c0 .1.1.1 0 .1-.3-.2 0 .1-.1.1l-.1-.1c.1.1 0 .1 0 .1h-.1v-.2c-.1 0 0 .1 0 .2zm-.2.4zm2.1-3.9zm-10.6 13.4h.1l-.1-.1zm-.1-.3l.2.2c.1.2-.3-.3-.2-.2zm0 .1c.1.1 0-.1-.1-.1.1 0 0-.1.1.1zm.6-.6z"/><path class="st1" d="M101.1 109.4l-.1-.1c.1.2-.1.1 0 .2-.1 0 0 .3-.1.4v-.1l.1.1v-.1c-.2-.2 0 .2-.1 0l.1.1c0 .1-.1.2 0 .4l-.1-.1c.2.3 0 .3-.1.3.1.1.1.1.1.2.1.1-.1-.2 0-.1l.1.1s-.1-.2-.1-.1l.1.1c0-.1.1 0 0-.2.1.1 0 0 .2.1 0-.1 0-.1-.1-.2.2 0 .1-.2.2-.3-.2-.3.1 0 .1-.2v-.1l-.1-.1c.3.2.3-.1.5-.1s.5.1.3-.4v.1c0-.1.1 0 .1-.1-.1-.3.2-.1.1-.5.1-.1.2-.2.3-.4l.1.1c0-.2.3 0 .3-.1.2 0-.1-.5.1-.4.3.2-.2-.4.2-.2.5.3.4 0 .2-.4.2.1 0-.4.4-.2-.1-.2.3.2.3.1l-.1-.1c.2.2-.2-.3.1 0 .2.1-.3-.4-.1-.2l-.1-.1.1.1-.1-.1c.3.3 0-.1.3.3l.2.2-.1-.2c-.1-.2-.3-.3-.4-.4l.1.1-.1-.1s-.2-.2-.3-.2c.1.1 0 .1 0 .1l-.1-.1c-.1-.1.2.3 0 0 0 .1 0 .1-.1.1.1.1 0 0 .1.2-.2-.2-.3-.2-.3-.2-.3-.2.2.3-.1 0 .2.2-.1 0 .1.2l-.1-.1h-.2c.2.2-.1 0 .1.2-.1 0-.2-.1-.1 0 0 0 0 .1.1.3l-.3-.3c.1.1 0 .1.1.3-.1-.1 0 .1-.1-.1.2.4 0 .4-.3.2.1.1.3.3.4.5 0 0-.2-.1-.1-.1v-.1c.1.1-.2-.1 0 0v.1l-.1-.1c-.2.1 0 .5-.2.5v-.1l.1.1v-.1c-.1-.1 0 .1-.1.1l-.1-.1c.1.2-.2-.2.1.2l-.1-.1c0 .2 0 .2-.2.2.2.3-.1.1.1.4l-.1-.1c.1.3-.2.1-.2.2-.1 0 0 .1 0 .1l-.1-.1c.2.3-.3-.2-.1.2l-.1-.1c.1.2-.1 0 .2.2l-.1-.1c.3.4-.2-.1-.1.2l-.1-.1v.1c-.3-.2-.1.1-.1.1l-.1-.1c.1.2 0 .1 0 .1v-.1l.1.1-.1-.1c-.3 0-.3.1-.3.2zm-.2.4zm2.8-3.5zM90.7 117.3v.1l-.1-.1z"/><path class="st1" d="M90.6 117.1s0-.1 0 0l.1.3c.1.1-.2-.4-.1-.3z"/><path class="st1" d="M90.6 117.1c0 .1 0-.1-.1-.1.1.1 0-.1.1.1zm.7-.5zm-.1-.6l-.1-.1c.1.2-.1 0-.1.2-.1 0-.1.3-.1.4v-.1s.1.1 0 .1v-.1c-.1-.2 0 .2-.1 0 0 0 0 .1.1.2 0 .1-.1.2-.1.4 0 0 0-.1-.1-.1.1.4 0 .3-.1.3 0 .1.1.1.1.2.1.1-.1-.2 0-.1v.1s-.1-.2 0-.1c0 .1.1.1.1.1s.1 0 0-.2c.1.2 0 0 .1.1 0-.1 0-.1-.1-.2.2 0 .2-.2.3-.2-.1-.4.1 0 .1-.1v-.1l-.1-.2c.3.2.3-.1.5 0 .2 0 .5.2.4-.4v.1c0-.1.1 0 .1-.1 0-.3.2-.1.2-.4.1 0 .3-.1.3-.3v.1c0-.2.3.1.4-.1.2.1 0-.5.2-.4.3.3-.1-.5.2-.2.4.4.4 0 .3-.3.2.1.1-.4.4-.1-.1-.3.3.2.3.1l-.1-.1c.2.2-.2-.4.1 0l-.1-.2-.1-.1.1.1s-.1-.2-.1-.1c.2.4 0-.1.2.3l.1.2-.1-.2c-.1-.2-.2-.4-.3-.5l.1.1c-.1-.1 0-.1-.1-.2 0 0-.2-.2-.2-.3.1.2 0 .1 0 .1v-.1c-.1-.2.2.3 0 0 0 .1 0 .1-.1.1.1.1 0 0 .1.2-.2-.2-.2-.3-.2-.2-.2-.3.1.3-.1-.1.2.3-.1-.1.1.2 0-.1-.1-.1-.1-.2 0 0-.1-.1-.2 0 .1.2-.1-.1 0 .3-.1-.1-.2-.2-.1 0v.3c-.2-.3-.2-.2-.2-.3.1.1 0 .1 0 .3-.1-.1 0 .1-.1-.1.1.4 0 .4-.3.1.1.1.2.4.3.5v-.1l-.1-.1v-.1c0 .1-.1-.1-.1 0v-.1.1c0-.1-.1-.2-.1-.1-.2 0-.1.4-.3.5v-.1c-.1-.1 0 .1-.1.1 0 0 0-.1-.1-.1.1.2-.2-.2 0 .2l-.1-.1c0 .2-.1.2-.2.2.1.4-.1.1 0 .4v-.1c.1.3-.2.1-.2.2-.1 0 0 .1-.1.1v-.1c.1.4-.3-.2-.2.2l-.1-.1c.1.2-.1 0 .1.3l-.1-.1c.2.4-.2-.1-.1.2v-.1c-.2-.3-.1.1-.1.1l-.1-.1c.1.2-.1 0 0 .1v-.1.1l-.1-.1c.3 0 .3.2.3.2zm-.3.4zm3.5-2.8zM79.4 121.7v.1-.2zm0-.3s-.1 0 0 0v.3c.1.2-.1-.4 0-.3z"/><path class="st1" d="M79.4 121.5v-.1s-.1-.1 0 .1zm.8-.4zm0-.6v-.1c0 .2-.1 0-.1.1-.1 0-.1.2-.2.4v-.1c-.1-.2 0 .2-.1 0v.2c-.1.1-.1.1-.2.3v-.2c0 .4-.1.3-.2.2 0 .1 0 .1.1.2s0-.2 0-.1v.1c0 .1-.1-.2 0-.1v.1s.1 0 0-.2l.1.2v-.2c.1.1.2-.2.3-.2-.1-.4.1 0 .2-.1 0-.1 0-.1.1-.1v-.2c.2.3.3 0 .5.1.2 0 .4.2.5-.3v.1c0-.1.1 0 .1-.1 0-.3.3 0 .3-.4.1 0 .3-.1.4-.2v.1c.1-.2.3.2.4 0 .2.1.1-.5.3-.3.2.3 0-.5.2-.1.3.5.3.1.4-.3.2.2.1-.4.4 0 0-.3.2.3.3.2v-.1c.1.3-.1-.4.1 0 .1.2-.1-.5 0-.2v-.1s0 .1.1.1c0 0-.1-.2 0-.1.2.4 0-.1.2.4 0 0 .1.2.1.3v-.2c-.1-.2-.1-.4-.2-.5l.1.2c-.1-.1 0-.1-.1-.2 0 0-.1-.2-.2-.3.1.2 0 .1 0 .1v-.1c-.1-.2.1.3 0 0 0 .1-.1.1-.1.1 0 .1 0 0 .1.2-.1-.2-.2-.3-.2-.3s0-.1 0 0c-.1-.3.1.3-.1-.1.1.3-.1-.1 0 .3 0-.1 0-.1-.1-.2 0 0-.1-.1-.2-.1.1.3-.1-.1 0 .3 0-.1-.1-.2-.1-.1 0 0-.1.1 0 .3-.1-.3-.1-.3-.2-.4v.3c-.1-.1 0 .1-.1-.1.1.5-.1.3-.3.1 0 .1.1.4.1.6v-.1s-.1-.2-.1-.1v-.1c0 .1-.1-.2-.1 0v-.1.1c0-.1-.1-.2 0-.2-.2 0-.2.4-.4.4v-.1c-.1-.1-.1.1-.1.1v-.1c0 .2-.1-.2 0 .2v-.1c0 .2-.1.2-.2.1.1.4-.1.1-.1.4v-.1c0 .3-.2 0-.3.1 0 0 0 .1-.1.1v-.1c0 .4-.2-.3-.2.1v-.1c0 .2-.1-.1 0 .3v-.1c.1.5-.1-.2-.1.1v-.1c-.1-.3-.1.1-.1.1v-.2c0 .2-.1 0-.1.1v-.1.1-.1c-.8.2-.8.3-.8.3zm-.4.3zm4-2.1c0 .1 0 .1 0 0 0 0 0 .1 0 0zM67.5 123.7v.1-.2zm0-.3zm0 .1v-.1.1zm.8-.2zm.2-.6v-.1c0 .2-.1 0-.1.1-.1 0-.2.2-.3.3v-.1c0-.2-.1.1-.1 0v.2c-.1.1-.2.1-.2.3v-.2c0 .4-.1.2-.2.2v.2c0 .1 0-.2.1-.1v.1s.1 0 .1-.2c0 .2 0 0 .1.2v-.2c.1.1.2-.1.4-.1 0-.4.1.1.2-.1 0-.1 0-.1.1-.1v-.2c.2.3.3.1.5.2s.4.3.5-.2v.1c0-.1.1 0 .1 0 .1-.3.3 0 .3-.3.1 0 .3 0 .4-.1v.1c.1-.2.3.2.4.1.1.2.2-.5.3-.2.1.4.1-.4.2-.1.2.6.3.2.4-.2.2.2.2-.3.4.1 0-.3.2.3.2.2v-.1c.1.3 0-.4.1 0v-.4.1c.1.4 0-.1.1.4v.1c0-.2 0-.4-.1-.6s-.1-.2-.1-.3v.1-.1c0-.2 0 .4 0 0 0 .1-.1.1-.1.1v.2l-.1-.3s0-.1 0 0c-.1-.3 0 .3-.1-.1 0 .3-.1-.1 0 .3v-.2l-.1-.1c0 .3-.1-.1-.1.3 0-.1-.1-.2-.1-.1 0 0-.1 0-.1.3-.1-.3-.1-.3-.1-.4 0 .2-.1.1-.1.3 0-.2 0 .1-.1-.2 0 .5-.2.3-.3 0v.5s-.1-.2-.1-.1v-.1c0 .1-.1-.2-.1 0v-.2c-.2-.1-.3.4-.5.3v-.1c-.1-.1-.1.1-.1.1v-.2c0 .2-.1-.3 0 .2v-.2c-.1.2-.2.2-.2.1 0 .4-.1.1-.2.4v-.1c-.1.3-.2 0-.3.1l-.1.1v-.1c0 .4-.2-.3-.2.1v-.1c0 .2-.1-.1 0 .3v-.1c0 .5-.1-.2-.1.1v-.1c0 .1 0 .1 0 0v-.1c-.1-.3-.1 0-.2 0v-.2c0 .2-.1 0-.1.1v-.1.1-.1c-.2 0-.3.2-.3.2zm-.4.2zm4.3-1.2zM55.4 123.3v-.1zm.1-.3l-.1.3c0 .2.1-.4.1-.3zm0 0v-.1.1zm.8 0c0 .1 0 .1 0 0zm.3-.5v-.1c-.1.2-.1 0-.1.1-.1-.1-.2.2-.3.2v-.1c0-.2-.1.1-.1 0v.2c-.1 0-.2.1-.3.2v-.2c-.1.3-.2.2-.2.1v.2c0 .1.1-.2.1-.1v.1s.1.1.1-.2c.1.1.3-.1.4 0 .1-.4.1.1.2 0 0-.1.1-.1.1-.1v-.2c.1.3.3.1.5.3.2.1.3.4.5-.1v.1c.1-.1.1.1.1 0 .2-.3.2.1.4-.3.1 0 .3 0 .5-.1v.1c.1-.1.2.3.3.2.1.2.3-.4.4-.2 0 .4.2-.4.2 0 .1.6.3.2.4-.1.1.2.3-.3.4.1.1-.3.1.3.2.3v-.1c0 .3.1-.4.1 0 0 .2.1-.5.1-.2v-.5c0 .2 0 .1 0 0v-.1c0-.2 0 .4 0 0 0 .1-.1.1-.1.1v-.1s0-.1 0 0v-.1c0 .3 0-.1-.1.3v-.2l-.1-.1c0 .3-.1-.1-.1.2 0-.1 0-.2-.1-.1 0 0-.1 0-.1.3v-.4c0 .2-.1.1-.1.2v-.2c-.1.4-.2.3-.3-.1 0 .1-.1.4-.1.6V122.1c0 .1 0-.2-.1 0v-.2c-.2-.1-.4.3-.5.2v-.1c0-.1-.1.1-.1 0v-.2c0 .2 0-.3-.1.2v-.2c-.1.1-.2.1-.3 0-.1.4-.2 0-.3.3v-.1c-.1.3-.2 0-.3 0l-.1.1v-.1c-.1.4-.1-.3-.2.1v-.1c0 .2 0-.1-.1.3v-.1c-.1.5-.1-.2-.2.1v-.1c0 .1 0 .1-.1 0v-.1c0-.3-.1 0-.2 0v-.2c0 .2-.1 0-.1.1v-.1.1-.1c-.1.5-.2.6-.2.6zm-.5.1zm4.5-.3zM43.6 120.4v.1-.1zm.1-.2c.1 0 .1-.1 0 0l-.1.2c0 .2.2-.3.1-.2z"/><path class="st1" d="M43.7 120.2c0 .1 0-.1.1-.1 0 .1 0-.1-.1.1zm.9.2z"/><path class="st1" d="M45 119.9v-.1c-.1.2-.1 0-.2.1-.1-.1-.3.1-.4.2v-.1l-.1.1v-.1c0-.2-.1.1-.1-.1 0 0 0 .1-.1.2-.1 0-.2 0-.3.2 0 0 0-.1.1-.2-.2.3-.2.2-.3.1 0 .1 0 .1-.1.2 0 .1.1-.2.1 0v.1c0 .1.1-.2.1-.1v.1s.1.1.2-.1c-.1.2 0 0 0 .2 0-.1 0 0 .1-.2.1.1.3 0 .4 0 .2-.3.1.1.2 0l.1-.1.1-.1c0 .4.3.2.4.4.1.1.2.5.5 0v.1c.1-.1.1.1.1 0 .2-.3.2.1.4-.2.1.1.3.1.5 0v.1c.2-.1.2.3.3.2.1.2.4-.3.4-.1 0 .4.3-.4.2 0 0 .6.2.3.5 0 .1.2.3-.2.4.2.1-.2 0 .4.1.3v-.1c0 .3.2-.4.1 0 0 .2.2-.5.1-.2v-.1.2s.1-.2 0-.1c-.1.4.1-.1-.1.4 0 0 0 .2-.1.3l.1-.2c.1-.2.1-.4.1-.6s0-.3.1-.3c-.1.2 0 .1 0 0v-.1c0-.2-.1.3 0 0-.1.1-.1 0-.2 0 0 .1 0 0-.1.2.1-.3 0-.3 0-.3s0-.1 0 0c.1-.3-.1.3 0-.1-.1.3 0-.1-.1.2v-.2s-.1-.1-.1-.2c-.1.2 0-.1-.2.2 0-.1 0-.2-.1-.1 0 0-.1 0-.2.2.1-.3 0-.3.1-.4l-.2.2v-.2c-.2.4-.3.2-.3-.1 0 .1-.1.4-.2.5v-.4c0 .1 0-.2-.1 0v-.1.1c0-.1.1-.2.1-.2-.1-.1-.4.2-.6.1v-.1l-.1.1v-.1c0-.1-.1.1-.1 0v-.1c-.1.2 0-.3-.1.1v-.1c-.1.1-.2.1-.3 0-.2.4-.2 0-.3.3v-.1c-.2.2-.2-.1-.3-.1h-.1v-.1c-.2.3 0-.4-.2 0v-.1c-.1.2 0-.1-.1.3v-.1c-.2.4 0-.2-.2 0v-.1c0 .1-.1.1-.1 0v-.1c.1-.3-.1 0-.2 0l.1-.1c-.1.2-.1 0-.1.1v-.1.1-.1c.5.4.4.5.4.5zm-.5 0zm4.4.6zM32.7 115.3v-.1zm.2-.3l-.2.2c-.1.2.2-.3.2-.2z"/><path class="st1" d="M32.8 115.1c0 .1.1-.1.1-.1 0 .1 0-.1-.1.1zm.8.3z"/><path class="st1" d="M34.1 115l.1-.1c-.2.2-.1 0-.1.1l-.1-.1c-.1-.1-.3 0-.4.1v-.1l-.1.1v-.1c.1-.2-.1.1-.1-.1 0 0-.1.1-.1.2-.1 0-.2 0-.4.1 0 0 0-.1.1-.1-.2.3-.2.1-.3 0-.1.1 0 .1-.1.2 0 .1.2-.2.1 0v.1c0 .1.1-.2.1-.1s-.1.1-.1.1 0 .1.2-.1l-.1.2c0-.1 0 0 .1-.2.1.1.3 0 .4.1.2-.3.1.1.2 0s.1-.1.1 0l.1-.1c0 .4.2.2.3.4.1.2.1.5.5.1v.1c.1 0 .1.1.1.1.3-.2.2.2.5-.1.1.1.3.1.4.1v.1c.2-.1.1.3.3.3 0 .2.4-.3.4 0-.1.4.3-.3.2.1-.1.6.2.3.4.1 0 .2.4-.2.3.3.2-.2 0 .4.1.3v-.1c-.1.3.2-.3.1.1l.1-.2v-.1s-.1.1-.1.2c0 0 .1-.2.1-.1-.2.4.1-.1-.1.4 0 0-.1.2-.1.3l.1-.1c.1-.2.2-.4.3-.5l-.1.1c.1-.1 0-.1.1-.2 0 0 .1-.2.1-.3-.1.2-.1.1-.1 0v-.1c.1-.2-.2.3 0 0-.1.1-.1 0-.2 0-.1.1 0 0-.1.2.1-.2.1-.3.1-.3.1-.3-.2.3 0-.1-.1.3 0-.1-.2.2 0-.1.1-.1.1-.2 0 0 0-.1-.1-.2-.1.2 0-.1-.2.2 0-.1.1-.2 0-.1 0 0-.1 0-.2.2.1-.3.1-.3.1-.4l-.2.2c.1-.1-.1 0 0-.2-.3.4-.3.2-.3-.2-.1.1-.2.3-.3.5v-.1s.1-.2 0-.2v-.1c-.1.1.1-.2 0 0v-.1l-.1.1c0-.1.1-.2.1-.1-.1-.1-.4.1-.6 0v-.1l-.1.1v-.1c0-.1-.1 0-.1 0l.1-.1c-.1.2.1-.3-.1.1l.1-.1c-.1.1-.2 0-.3-.1-.3.3-.2 0-.4.2v-.1c-.2.2-.2-.1-.3-.1h-.1v-.1c-.2.3 0-.4-.2 0l.1-.1c-.1.2 0-.1-.2.2v-.1c-.3.4 0-.2-.2 0v-.1s-.1.1-.1 0c.1-.3-.1 0-.2-.1l.1-.1c-.1.1-.1 0-.1 0v-.1l-.1.1.1-.1c.7-.1.6 0 .6 0zm-.5-.1zm4.2 1.5zM23 108l.1-.1zm.2-.2s.1 0 0 0l-.2.2c-.1.2.3-.3.2-.2z"/><path class="st1" d="M23.2 107.8c0 .1.1-.1.1-.1l-.1.1zm.7.5z"/><path class="st1" d="M24.4 108c-.1.1 0-.2-.1-.1 0-.1-.3 0-.4 0l-.1.1.1-.1c.1-.2-.1.1 0-.1l-.1.1h-.4l.1-.1c-.3.2-.3.1-.3 0l-.1.1c-.1.1.2-.1.1 0l-.1.1c0 .1.2-.2.1-.1 0 .1-.1.1-.1.1.1 0 0 .1.2-.1l-.1.2c.1-.1.1 0 .1-.1 0 .2.2.1.3.2.3-.2 0 .1.2.1.1-.1.1-.1.1 0l.1-.1c-.1.3.2.3.2.5.1.2 0 .5.5.2l-.1.1c.1 0 0 .1.1.1.3-.2.2.2.5 0 .1.1.2.2.4.2v.1c.2 0 0 .3.2.3 0 .2.5-.2.4.1-.2.3.4-.2.2.1-.3.5.1.3.4.2 0 .2.4-.1.2.3.2-.2-.1.3 0 .3l.1-.1c-.2.2.3-.3 0 .1-.1.2.3-.4.2-.2l.1-.1-.1.1s.1-.2.1-.1c-.3.3.1 0-.2.3 0 0-.1.2-.2.2l.1-.1c.1-.2.3-.3.4-.5l-.1.1c.1-.1 0-.1.1-.2 0 0 .1-.2.2-.3-.1.1-.1 0-.1 0l.1-.1c.1-.2-.2.3 0 0h-.2l-.2.2c.2-.2.2-.3.2-.3.2-.3-.2.2 0-.1-.2.2 0-.1-.2.2 0-.1.1-.1.1-.1v-.2c-.2.2 0-.1-.2.1 0-.1.1-.2 0-.1 0 0-.1 0-.2.1.2-.3.2-.2.2-.3-.1.1-.1 0-.2.1.1-.1-.1 0 .1-.1-.4.3-.4.1-.2-.2l-.4.4s.1-.2 0-.1v-.1c-.1.1.1-.2 0 0l-.1.1c0-.1.1-.1.1-.1-.1-.2-.5 0-.6-.1l.1-.1-.1.1.1-.1c.1-.1-.1 0-.1 0l.1-.1c-.2.1.1-.2-.2.1l.1-.1c-.2.1-.2 0-.2-.1-.3.3-.1-.1-.4.1l.1-.1c-.3.1-.1-.1-.3-.2 0-.1-.1 0-.1 0l.1-.1c-.3.2.1-.3-.2-.1l.1-.1c-.1.1 0-.1-.2.2l.1-.1c-.3.3.1-.2-.2 0l.1-.1c-.1 0-.1.1-.1 0 .2-.3-.1 0-.1-.1l.1-.1c-.1.1-.1 0-.1 0l.1-.1-.3-.1h.2s-.1.1-.2 0zm-.4-.1zm3.8 2.2s0 .1 0 0zM15 98.9l-.1.1.2-.1z"/><path class="st1" d="M15.2 98.8c.1 0 .1 0 0 0l-.2.2c-.2.1.3-.3.2-.2z"/><path class="st1" d="M15.2 98.8c-.1.1.1 0 .1-.1-.1.1.1 0-.1.1zm.6.6c0 .1 0 .1 0 0zm.6-.1l.1-.1c-.2.1 0-.1-.2 0 0-.1-.3-.1-.4-.1h.1l-.1.1h.1c.2-.1-.2 0 0-.1 0 0-.1.1-.2.1s-.2-.1-.4 0l.1-.1c-.3.2-.3 0-.3-.1-.1.1-.1.1-.2.1-.1.1.2-.1.1 0V99s.2-.1.1 0c-.1 0-.1.1-.1.1.1 0 0 .1.2 0-.2.1 0 0-.1.2.1 0 .1 0 .2-.1 0 .2.2.1.3.2.3-.2 0 .1.2.1h.1l.1-.1c-.2.3.1.3.1.5s-.1.5.4.3h-.1c.1 0 0 .1.1.1.3-.1.1.2.5.1.1.1.2.2.4.3h-.1c.2 0 0 .3.1.4-.1.2.5-.1.4.2-.2.3.4-.1.2.2-.4.5 0 .4.4.3-.1.2.4 0 .2.4.2-.1-.2.3-.1.3l.1-.1c-.2.2.3-.2 0 .1-.2.2.4-.3.2-.1l.1-.1-.1.1.1-.1c-.3.3.1 0-.3.3l-.2.2.2-.1c.2-.1.3-.3.4-.4l-.1.1.1-.1s.2-.2.2-.3c-.2.1-.1 0-.1 0l.1-.1c.1-.1-.3.2 0 0-.1 0-.1 0-.1-.1-.1.1 0 0-.2.1.2-.2.2-.3.2-.3.2-.2-.3.2 0-.1-.2.2 0-.1-.2.1.1 0 .1-.1.1-.1v-.2c-.2.1 0-.1-.2.1 0-.1.1-.2 0-.1 0 0-.1 0-.3.1.3-.2.2-.2.3-.3-.1.1-.1 0-.3.1.1-.1-.1 0 .1-.1-.4.2-.4 0-.2-.3-.1.1-.3.2-.5.3l.1-.1h.1c-.1.1.1-.1 0-.1h-.1c.1 0 .1-.1.1-.1 0-.2-.5-.1-.5-.2h.1l-.1.1h.1c.1-.1-.1 0-.1-.1l.1-.1c-.2.1.2-.2-.2.1l.1-.1c-.2 0-.2-.1-.2-.2-.4.2-.1-.1-.4 0h.1c-.3.1-.1-.2-.2-.2 0-.1-.1 0-.1 0l.1-.1c-.3.2.2-.3-.2-.1l.1-.1c-.2.1 0-.1-.2.1l.1-.1c-.4.2.1-.2-.2-.1h.1-.1c.2-.2-.1-.1-.1-.1l.1-.1c-.2.1-.1 0-.1 0h.1-.1l.1-.1c0-.1-.2-.1-.2-.1zM16 99zm3.3 3zM8.9 88.5l.1-.1zm.3-.1s.1 0 0 0l-.2.1c-.2.1.3-.2.2-.1z"/><path class="st1" d="M9.2 88.4h.1c-.1 0 .1-.1-.1 0zm.4.7zm.7 0l.1-.1c-.2.1 0-.1-.1-.1 0-.1-.2-.1-.4-.2h.1c.2-.1-.2 0 0-.1 0 0-.1 0-.2.1-.1-.1-.2-.1-.4-.1 0 0 .1 0 .1-.1-.4.1-.3 0-.2-.1-.1 0-.1 0-.2.1s.2-.1.1 0h-.1s.2-.1.1 0c-.1 0-.1 0-.1.1 0 0 0 .1.2 0l-.2.1c.1 0 .1 0 .2-.1 0 .1.2.2.2.3.4-.1 0 .1.1.1h.3c-.2.3.1.3 0 .5 0 .2-.2.5.4.4h-.1c.1 0 0 .1.1.1.3 0 .1.2.4.2 0 .1.1.3.3.4h-.1c.2 0-.1.3.1.4-.1.2.5 0 .3.2-.3.2.5 0 .1.2-.4.6 0 .6.4.5-.1.2.4.1.1.4.3-.1-.2.3-.1.3h.1c-.2.2.4-.1 0 .1-.2.1.5-.2.2-.1h.1l-.1.1s.2-.1.1-.1c-.4.2.1 0-.3.2 0 0-.2.1-.3.1l.2-.1c.2-.1.4-.2.5-.3l-.1.1c.1-.1.1 0 .2-.1 0 0 .2-.1.3-.2-.2.1-.1 0-.1 0h.1c.2-.1-.3.2 0 0-.1 0-.1 0-.1-.1-.1.1 0 0-.2.1.2-.1.3-.2.3-.2.3-.2-.3.1.1-.1-.3.1.1-.1-.2.1.1 0 .1-.1.2-.1 0 0 .1-.1.1-.2-.2.1.1-.1-.3 0 .1-.1.2-.2 0-.1 0 0-.1-.1-.3 0 .3-.2.2-.2.3-.2-.2.1-.1 0-.3 0 .1-.1-.1 0 .1-.1-.4.1-.4-.1-.1-.3-.1.1-.4.2-.5.2h.1l.1-.1h.1c-.1 0 .1-.1 0-.1h.1-.1c.1 0 .2-.1.2-.1 0-.2-.4-.2-.5-.3h.1-.1.1c.1-.1-.1 0-.1-.1 0 0 .1 0 .1-.1-.2.1.2-.2-.2 0l.1-.1c-.2 0-.2-.1-.2-.2-.4.1-.1-.1-.4 0h.1c-.3 0-.1-.2-.2-.3 0-.1-.1 0-.1-.1h.1c-.4.1.2-.3-.2-.2l.1-.1c-.2.1 0-.1-.3.1l.1-.1c-.4.2.2-.2-.1-.1h.1-.1.1c.3-.2-.1-.1-.1-.1l.1-.1c-.2.1 0-.1-.1-.1h.1-.1l.1-.1c-.4.1-.5.1-.5.1zm-.4-.4zm2.6 3.6zM5.2 77h-.1.1zm.2 0c.1 0 .1-.1 0 0h-.3c-.1 0 .5-.1.3 0z"/><path class="st1" d="M5.4 77h.1c-.1 0 .1-.1-.1 0zm.3.8z"/><path class="st1" d="M6.3 77.8h.1c-.2 0 0-.1-.1-.1 0-.1-.2-.2-.3-.2h.1c.2-.1-.2 0 0-.1h-.2c-.1-.1-.1-.1-.3-.2h.2c-.4 0-.2-.1-.2-.2h-.2c-.1 0 .2 0 .1.1h-.1s0 .1.2.1l-.2.1h.2c-.1.1.1.2.2.3.4 0 0 .1.1.2.1 0 .1 0 .1.1h.2c-.3.2 0 .3-.1.5 0 .2-.3.4.3.5h-.1c.1 0 0 .1.1.1.3 0 0 .3.4.3 0 .1.1.3.2.4h-.1c.2.1-.2.3 0 .4-.1.2.5.1.3.3-.3.2.5.1.1.2-.5.3-.1.3.2.4-.2.2.4.2 0 .4.3 0-.3.2-.2.3h.1c-.3.1.4-.1 0 .1-.2.1.5-.1.2 0h.1s-.1 0-.2.1c0 0 .2-.1.1 0-.4.1.1 0-.4.2 0 0-.2.1-.3.1h.2c.2-.1.4-.1.6-.2h-.2c.2-.1.1 0 .2-.1 0 0 .2-.1.3-.1h-.1.1c.2-.1-.4.1 0 0-.1 0-.1-.1-.1-.1h-.2c.3-.1.3-.1.3-.2 0 0 .1 0 0 0 .3-.1-.3.1.1-.1-.3.1.1-.1-.3 0 .1 0 .1 0 .2-.1 0 0 .1-.1.1-.2-.3 0 .1-.1-.3 0 .1 0 .2-.1.1-.1 0 0-.1-.1-.3 0 .3-.1.3-.1.4-.1h-.3c.2-.1-.1 0 .1-.1-.5 0-.3-.1 0-.3-.1 0-.4.1-.6.1h.1s.2-.1.1-.1h.1c-.1 0 .2-.1 0-.1h.1-.1c.1 0 .2-.1.2 0 0-.2-.4-.2-.4-.4h.1-.1.1c-.2-.4-.4-.4-.4-.5h.1c-.2 0 .2-.1-.2 0H7v-.3c-.4 0-.1-.1-.4-.1h.1c-.3 0 0-.2-.1-.3l-.1-.1h.1c-.4 0 .3-.2-.1-.2h.1c-.2 0 .1-.1-.3 0h.1c-.5.1.2-.1-.1-.1h.1-.1.1c.3-.1-.1-.1-.1-.2h.2c-.2 0 0-.1-.1-.1h.1-.1.1c0-.2-.2-.2-.2-.3zm-.3-.4zm1.9 4.1zM3.8 65h-.1.1zm.2 0c.1 0 .1 0 0 0zm0 0h.1H4zm.1.8zm.6.2h.1c-.2 0 0-.1-.1-.1 0-.1-.2-.2-.3-.3h.1c.2 0-.1-.1 0-.1h-.2c-.1-.1-.1-.2-.3-.3h.2c-.3 0-.2-.1-.1-.2h-.2c-.1 0 .2 0 .1.1h-.1s0 .1.2.1c-.2 0 0 0-.2.1h.2c-.1.1.1.2.1.4.4 0-.1.1.1.2.1 0 .1 0 .1.1h.2c-.3.2-.1.3-.2.5s-.3.4.2.5h-.1c.1 0-.1.1 0 .1.3.1 0 .3.3.3 0 .1 0 .3.1.4h-.1c.2.1-.2.2-.1.4-.2.1.4.2.2.4-.4.1.4.1.1.2-.8.2-.4.3 0 .5-.2.2.3.2-.1.4.3 0-.3.2-.2.2h.1c-.3.1.4 0 0 .1h.3c-.4 0 .1 0-.4.1h-.3.2c.2 0 .4 0 .6-.1H5h.2s.3 0 .3-.1h-.1.1c.2 0-.4 0 0 0-.1 0-.1-.1-.1-.1h-.2c.3 0 .3-.1.3-.1s.1 0 0 0c.3-.1-.3 0 .1-.1-.3 0 .1-.1-.3 0h.2l.1-.1c-.3 0 .1-.1-.2-.1.1 0 .2-.1.1-.1 0 0 0-.1-.3-.1.3 0 .3 0 .4-.1-.2 0-.1-.1-.3-.1h.2c-.5-.1-.3-.2 0-.3h-.6.1s.2-.1.1-.1h.1c-.1 0 .2-.1 0-.1h.1-.1.2c.1-.2-.3-.3-.3-.5h.1-.1.1c.1-.1-.1-.1-.1-.1h.2c-.2 0 .3-.1-.2-.1h.2c-.1-.1-.1-.2-.1-.3-.4 0 0-.1-.4-.2h.1c-.3-.1 0-.2-.1-.3l-.1-.1h.1c-.4-.1.3-.2-.1-.2h.1-.3.1c-.5 0 .2-.1-.1-.1h.1c-.1 0-.1 0 0 0h.1c.3-.1 0-.1 0-.2h.2c-.2 0 0-.1-.1-.1h.1-.1.1c0-.2-.2-.2-.2-.3zm-.2-.4zm1 4.3zM4.8 52.9h-.1.2zm.2.1c.1 0 .1 0 0 0l-.3-.1c-.1 0 .5.1.3.1zm0 0h.1H5zm0 .8z"/><path class="st1" d="M5.5 54.1h.1c-.2-.1 0-.1-.1-.1.1-.1-.1-.2-.2-.4h.1c.2 0-.1-.1 0-.1h-.2c0-.1-.1-.2-.2-.3h.2c-.3-.1-.2-.1-.1-.2h-.2c-.1 0 .2.1 0 .1h-.1s-.1.1.2.1h-.2c.1 0 .1 0 .2.1-.1.1.1.3 0 .4.4.1-.1.1 0 .2.1 0 .1.1.1.1h.2c-.3.1-.1.3-.3.4-.2.2-.5.3 0 .6h-.1c.1 0-.1 0 0 .1.3.2-.1.2.2.4-.1.1 0 .3 0 .5H5c.1.1-.3.2-.2.3-.2.1.4.3.1.4-.4 0 .4.2 0 .2-.6.1-.2.3.1.4-.2.1.3.3-.2.4.3.1-.4.1-.3.2h.1c-.3 0 .4.1 0 .1-.1 0 .6.1.4 0h-.1.1-.5c.2 0 .4.1.6.1h-.2.6c-.2 0-.1 0 0 0h.1c.2 0-.4-.1 0 0-.2-.1-.2-.1-.2-.2h-.2.3s.1 0 0 0c.3 0-.3-.1.1 0-.3 0 .1 0-.2-.1h.2l.1-.1c-.3-.1.1-.1-.2-.1.1 0 .2 0 .1-.1 0 0 0-.1-.3-.1h.4c-.2 0-.1-.1-.2-.1h.2c-.4-.2-.3-.3.1-.3-.1 0-.4-.1-.6-.1h.3c-.1 0 .2 0 0-.1h.1-.1.2c.1-.2-.3-.4-.2-.5h.1l-.1-.1h.1c.1 0-.1-.1 0-.1h.2c-.2-.1.3 0-.2-.1h.2c-.1-.1-.1-.2 0-.3-.4-.1 0-.2-.3-.3h.1c-.3-.1 0-.2 0-.3 0 0-.1-.1 0-.1h.1c-.4-.1.4-.1 0-.2h.1c-.2 0 .1 0-.3-.1h.1c-.5-.1.2-.1-.1-.2h.1c-.1 0-.1-.1 0-.1h.1c.3 0 0-.1 0-.2h.2c-.2-.1 0-.1-.1-.1h.1-.1.1c-.3.2-.4.1-.4 0zm-.1-.4zm.1 4.4zM8.2 41.3h.1zm.3.1c0 .1 0 .1 0 0l-.2-.1c-.3 0 .3.2.2.1z"/><path class="st1" d="M8.4 41.4c-.1 0 .1 0 .1.1-.1 0 .1 0-.1-.1zm-.2.9c0-.1 0 0 0 0z"/><path class="st1" d="M8.7 42.7l.1.1c-.2-.1 0-.1 0-.2.1-.1-.1-.3-.1-.4h.1l-.1-.1h.1c.2.1-.1-.1.1-.1 0 0-.1-.1-.2-.1 0-.1 0-.2-.2-.3 0 0 .1 0 .2.1-.3-.2-.1-.2-.1-.3-.1 0-.1 0-.2-.1-.1 0 .2.1 0 .1h-.1c-.1 0 .2.1.1.1h-.1s-.1 0 .1.2c-.2-.1 0 0-.2 0 .1 0 0 0 .2.1-.1.1 0 .3-.1.4.3.2-.1.1 0 .2l.1.1.1.1c-.4 0-.2.3-.4.4-.2-.1-.5 0-.1.3h-.1c.1.1-.1.1 0 .1.3.2-.1.2.2.4-.1.1-.1.3-.1.5h-.1c.1.2-.3.1-.2.3-.3.1.3.4 0 .4-.4 0 .3.3 0 .2-.6 0-.3.2 0 .5-.2.1.2.4-.2.3.2.1-.4 0-.3.1h.1c-.3-.1.4.2 0 .1-.2-.1.5.2.2.1h-.1s.2.1.1.1c-.5-.1 0 .1-.5-.1 0 0-.2 0-.3-.1l.2.1c.2.1.4.1.6.2l-.2-.1c.2 0 .1 0 .2.1 0 0 .2.1.3.1-.2-.1-.1 0 0 0h.1c.2.1-.3-.1 0 0-.1-.1 0-.1 0-.2-.1 0 0 0-.2-.1.3.1.3.1.3 0 0 0 .1 0 0 0 .3.1-.3-.1.1 0-.3-.1.1 0-.2-.1.1 0 .1 0 .2.1 0 0 .1 0 .2-.1-.3-.2.1-.1-.3-.2.1 0 .2 0 .1-.1 0 0 0-.1-.2-.2.3.1.3.1.4.1l-.2-.2h.2c-.4-.2-.2-.3.2-.3-.1-.1-.4-.2-.5-.2h.4c-.1-.1.2 0 0-.1h.1-.1c.1 0 .2.1.2.1.1-.1-.2-.4-.1-.6h.1l-.1-.1h.1c.1 0-.1-.1 0-.1 0 0 .1 0 .1.1-.2-.1.3 0-.1-.1 0 0 .1 0 .1.1-.1-.1-.1-.2 0-.3-.3-.2 0-.2-.3-.3h.1c-.2-.2.1-.2.1-.3v-.1h.1c-.3-.2.4 0 0-.2l.1.1c-.2-.1.1 0-.2-.1h.1c-.4-.2.2 0 0-.2h.1c-.1 0-.1-.1 0-.1h.1c.3.1 0-.1 0-.2l.1.1c-.2-.1 0-.1-.1-.1H9l-.1-.1.1.1c-.2.1-.3 0-.3 0zm0-.5zm-.8 4.4z"/><g><path class="st1" d="M13.9 30.6l.1.1zm.2.2c.1 0 .1.1 0 0l-.2-.2c-.1 0 .4.3.2.2z"/><path class="st1" d="M14.1 30.8c-.1 0 .1.1.1.1-.1-.1.1 0-.1-.1zm-.4.8z"/><path class="st1" d="M14.1 32.1l.1.1c-.2-.2.1-.1-.1-.1l.1-.1c.1-.1 0-.3-.1-.4h.1l-.1-.1h.1c.2.1-.1-.1.1-.1 0 0-.1-.1-.2-.1 0-.1 0-.2-.1-.4 0 0 .1 0 .1.1-.3-.3-.1-.2 0-.3-.1-.1-.1 0-.2-.1-.1 0 .2.2 0 .1l-.1-.1c-.1 0 .2.1.1.1s-.1-.1-.1-.1-.1 0 .1.2l-.2-.1.1.1c-.1 0-.1.3-.1.3.3.3-.1.1-.1.2.1.1.1.1 0 .1l.1.1c-.4 0-.2.2-.4.3-.2.1-.5.1-.2.5H13c0 .1-.1.1-.1.1.2.3-.2.2.1.5-.1.1-.2.3-.2.4h-.1c.1.2-.3.1-.3.2-.2 0 .2.4 0 .4-.4-.1.3.4-.1.2-.6-.2-.3.1-.1.4-.3 0 .1.4-.3.3.2.2-.4-.1-.3 0h.1c-.3-.1.3.2-.1 0-.2-.1.4.3.2.2l.1.1-.1-.1s.2.1.1.1c-.4-.2.1.1-.4-.2 0 0-.2-.1-.3-.1l.1.1c.2.1.4.2.5.3l.2.3c.1.1.1 0 .2.1 0 0 .2.1.3.1-.2-.1-.1-.1 0-.1h.1c.2.1-.3-.2 0 0v-.2c-.1-.1 0 0-.2-.1.2.1.3.1.3.1.3.1-.3-.2.1 0-.3-.1.1 0-.2-.2.1 0 .1.1.2.1h.2c-.2-.2.1 0-.2-.2.1 0 .2.1.1 0 0 0 0-.1-.2-.2.3.2.3.1.4.2-.1-.1 0-.1-.1-.2.1.1 0-.1.2.1-.3-.3-.1-.3.2-.3-.1-.1-.3-.2-.5-.3 0 0 .2.1.2 0h.1c-.1-.1.2.1 0 0h.1l-.1-.1c.1 0 .2.1.1.1.2-.1-.1-.5 0-.6h.1l-.1-.1h.1c.1 0 0-.1 0-.1l.1.1c-.2-.1.3.1-.1-.1l.1.1c-.1-.1 0-.2.1-.3-.3-.3 0-.1-.2-.4h.1c-.2-.2.1-.2.1-.3v-.1l.1.1c-.3-.3.4.1.1-.2l.1.1c-.2-.1.1 0-.2-.2h.1c-.4-.3.2 0 0-.2h.1s-.1-.1 0-.1c.3.1 0-.1.1-.1l.1.1c-.1-.1 0-.1 0-.1h.1l-.2.2.1.1c.1-.1 0-.2 0-.2zm.1-.5zm-1.7 4.1z"/></g><g><path class="st1" d="M21.7 21.3h-.1l.1.1zm.1.3c.1 0 .1 0 0 0l-.2-.2c-.1-.2.3.3.2.2z"/><path class="st1" d="M21.8 21.6c-.1-.1 0 .1.1.1l-.1-.1zm-.5.6zm.3.6c0-.1.2 0 .1-.1.1 0 0-.3 0-.4v.1l-.1-.1.1.1c.2.1-.1-.1.1 0l-.1-.1v-.4l.1.1c-.2-.3 0-.3 0-.3l-.1-.1c-.1-.1.1.2 0 .1l-.1-.1c-.1 0 .2.2.1.1-.1 0-.1-.1-.1-.1 0 .1-.1 0 .1.2-.1-.1 0 0-.2-.1 0 .1 0 .1.1.1-.2 0-.1.2-.2.3.2.3-.1 0-.1.2.1.1.1.1 0 .1l.1.1c-.3-.1-.3.2-.5.2-.2.1-.5 0-.3.5l-.1-.1c0 .1-.1 0-.1.1.1.3-.2.2 0 .5-.1.1-.2.2-.2.4V24c0 .2-.3 0-.3.2-.2 0 .1.5-.1.4-.3-.2.2.4-.1.2-.5-.3-.4.1-.2.4-.2 0 .1.4-.3.2.2.2-.3-.1-.3 0l.1.1c-.2-.2.3.3-.1 0-.2-.1.4.4.2.2l.1.1-.1-.1.1.1c-.3-.3 0 .1-.3-.2 0 0-.2-.1-.2-.2l.1.1c.2.1.3.3.4.4l-.1-.1c.1.1.1.1.2.1 0 0 .2.1.3.2-.1-.1 0-.1 0-.1l.1.1c.1.1-.3-.3 0 0v-.2l-.2-.2c.2.2.3.2.3.2.3.2-.2-.2.1 0-.2-.2.1 0-.2-.2.1 0 .1.1.1.1h.2c-.2-.2.1 0-.1-.2.1 0 .2.1.1 0 0 0 0-.1-.1-.3.3.2.2.2.3.2-.1-.1 0-.1-.1-.2.1.1 0-.1.1.1-.3-.4-.1-.4.3-.2l-.4-.4s.2.1.1.1l.1.1c-.1-.1.2.1 0 0l-.1-.1.1.1c.2-.1 0-.5.2-.6v.1l-.1-.1.1.1c.1.1 0-.1 0-.1l.1.1c-.1-.2.2.1-.1-.2l.1.1c0-.2 0-.2.1-.2-.2-.3.1-.1-.1-.4l.1.1c-.1-.3.1-.1.2-.2.1 0 0-.1 0-.1l.1.1c-.2-.3.3.1.1-.2l.1.1c-.1-.2.1 0-.2-.2l.1.1c-.3-.4.2.1 0-.2l.1.1c0-.1-.1-.1 0-.1.3.2 0-.1.1-.1l.1.1c-.1-.1 0-.1 0-.1l.1.1.1-.5v.2c0-.1-.1-.2 0-.2zm.1-.5zm-2.4 3.8s0-.1 0 0z"/></g><g><path class="st1" d="M31.1 13.8v.1zm.1.2c0 .1.1.1 0 0l-.1-.2.1.2z"/><path class="st1" d="M31.2 14c-.1-.1 0 .1.1.1-.1-.1 0 .1-.1-.1zm-.6.6zm.1.6l.1.1c-.1-.2.1 0 0-.2.1 0 .1-.3.1-.4v.1l-.1-.1v.1c.1.2 0-.2.1 0 0 0-.1-.1-.1-.2s.1-.2.1-.4l.1.1c-.1-.3 0-.3.1-.3 0-.1-.1-.1-.1-.2-.1-.1.1.2 0 .1v-.1s.1.2 0 .1c0-.1-.1-.1-.1-.1 0 .1-.1 0 0 .2-.1-.2 0 0-.1-.1 0 .1 0 .1.1.2-.2 0-.1.2-.3.3.2.4-.1 0-.1.2v.1l.1.1c-.3-.2-.3.1-.5.1s-.5-.1-.3.4v-.1c0 .1-.1 0-.1.1.1.3-.2.1-.1.5l-.3.3V16c0 .2-.3-.1-.4.1-.2-.1.1.5-.2.4-.3-.3.1.4-.2.2-.5-.4-.4 0-.3.4-.2-.1 0 .4-.4.2.1.3-.3-.2-.3-.1l.1.1c-.2-.2.2.3-.1 0-.1-.2.3.4.1.2l.1.1-.1-.1s.1.2.1.1c-.3-.3 0 .1-.3-.3l-.2-.2.1.2c.1.2.2.3.4.5l-.1-.1c.1.1.1.1.1.2 0 0 .2.2.2.3-.1-.2 0-.1 0-.1l.1.1c.1.1-.2-.3 0 0 0-.1 0-.1.1-.1-.1-.1 0 0-.1-.2l.2.2c.2.3-.2-.3.1.1-.2-.2.1.1-.1-.2 0 .1.1.1.1.1h.2c-.1-.2.1.1-.1-.3.1 0 .2.1.1 0 0 0 0-.1-.1-.3.2.3.2.2.3.3-.1-.1 0-.1-.1-.3.1.1 0-.1.1.1-.2-.4 0-.4.3-.2-.1-.1-.2-.3-.3-.5l.1.1v.1c0-.1.1.1.1 0V17c0 .1.1.2.1.1.2 0 .1-.5.3-.5v.1-.1.1c.1.1 0-.1.1-.1l.1.1c-.1-.2.2.2 0-.2l.1.1c0-.2.1-.2.2-.2-.2-.4.1-.1 0-.4v.1c-.1-.3.2-.1.2-.2.1 0 0-.1.1-.1l.1.1c-.2-.3.3.2.1-.2l.1.1c-.1-.2.1 0-.1-.3l.1.1c-.2-.4.2.1.1-.2v.1c.2.2.1-.1.1-.1l.1.1c-.1-.2.1-.1 0-.1v.1-.1l.1.1c-.1-.2-.1-.3-.1-.3zm.3-.4zm-3.2 3.1z"/></g><g><path class="st1" d="M41.9 8.3v-.1.2zm0 .3c.1 0 .1 0 0 0l-.1-.3c0-.2.2.4.1.3z"/><path class="st1" d="M41.9 8.5v.1c0-.1.1.1 0-.1zm-.7.4zm0 .7v.1c-.1-.2.1 0 .1-.1.1 0 .1-.2.2-.4v.1c.1.2 0-.2.1 0 0 0 0-.1-.1-.2.1-.1.1-.2.1-.4 0 0 0 .1.1.2-.1-.4.1-.3.1-.2 0-.1 0-.1-.1-.2s0 .2 0 .1v-.1s.1.2 0 .1v-.1s-.1 0 0 .2l-.1-.2c0 .1 0 .1.1.2-.1 0-.2.2-.3.2.1.4-.1 0-.2.1v.3c-.3-.2-.3 0-.5 0s-.5-.2-.4.3v-.1c0 .1-.1 0-.1.1 0 .3-.2.1-.2.4-.1 0-.3.1-.4.3v-.1c0 .2-.3-.1-.4 0-.2-.1 0 .5-.3.3-.2-.3 0 .5-.2.1-.4-.5-.4-.1-.3.3-.2-.1-.1.4-.4.1.1.3-.3-.2-.3-.2v.1c-.1-.2.1.4-.1 0-.1-.2.2.5.1.2v.1l-.1-.1s.1.2 0 .1c-.2-.4 0 .1-.2-.3 0 0-.1-.2-.1-.3l.1.2c.1.2.2.4.3.5l-.1-.1c.1.1 0 .1.1.2 0 0 .1.2.2.3-.1-.2 0-.1 0-.1v.1c.1.2-.1-.3 0 0 0-.1.1-.1.1-.1 0-.1 0 0-.1-.2.1.2.2.3.2.3.2.3-.1-.3.1.1-.1-.3.1.1-.1-.3 0 .1.1.1.1.2 0 0 .1.1.2.1-.1-.2.1.1 0-.3.1.1.2.2.1 0 0 0 .1-.1 0-.3.2.3.1.2.2.3v-.3c.1.1 0-.1.1.1-.1-.4.1-.4.3-.1 0-.1-.1-.4-.2-.5v.1s.1.2.1.1v.1c0-.1.1.2.1 0v.1-.1c0 .1.1.2.1.2.2 0 .2-.4.4-.4v.1-.1.1c.1.1 0-.1.1-.1 0 0 0 .1.1.1-.1-.2.2.2 0-.2 0 0 0 .1.1.1 0-.2.1-.2.2-.2-.1-.4.1-.1.1-.4v.1c0-.3.2-.1.3-.2.1 0 0-.1.1-.1v.1c-.1-.4.3.2.2-.2v.1c-.1-.2.1 0-.1-.3l.1.1c-.1-.4.2.2.1-.1v.1c.1.2 0-.2.1-.2v.2c0-.2.1 0 .1-.1v.1-.1l.1.1v-.2zm.4-.4zm-3.8 2.5z"/></g><g><path class="st1" d="M53.5 5.1V5v.2zm0 .3c.1 0 .1 0 0 0v-.3c0-.2.1.4 0 .3z"/><path class="st1" d="M53.5 5.3v.1c0-.1.1.1 0-.1zm-.8.3z"/><path class="st1" d="M52.6 6.2v.1c0-.2.1 0 .1-.1.1 0 .2-.2.3-.3V6c.1.2 0-.2.1 0v-.2c.1-.1.2-.1.2-.3v.2c0-.4.1-.2.2-.2v-.2c0-.1 0 .2-.1.1v-.1s-.1 0-.1.2c0-.2 0 0-.1-.2v.2c-.1-.1-.2.1-.3.1 0 .4-.1 0-.2.1 0 .1 0 .1-.1.1V6c-.2-.3-.3 0-.5-.1-.1-.2-.3-.5-.4.1v-.1c0 .1-.1 0-.1 0-.1.3-.3 0-.3.4-.1 0-.3.1-.4.2v-.1c-.1.2-.3-.2-.4 0-.2-.1-.1.5-.3.3-.2-.3-.1.5-.2.1-.3-.5-.3-.1-.4.2-.2-.2-.2.4-.4 0 0 .3-.2-.3-.3-.2v.1c-.1-.3 0 .4-.1 0-.1-.2.1.5 0 .3v.1s0-.1-.1-.2v.1c-.1-.4 0 .1-.1-.4 0 0-.1-.2-.1-.3v.2c.1.2.1.4.1.6v-.2c0 .2 0 .1.1.2 0 0 .1.2.1.3v-.1.1c.1.2-.1-.4 0 0 0-.1.1-.1.1-.1v-.2l.1.3s0 .1 0 0c.1.3 0-.3.1.1-.1-.3.1.1 0-.3v.2s.1.1.2.1c0-.3.1.1 0-.3 0 .1.1.2.1.1 0 0 .1-.1 0-.3.1.3.1.3.1.4v-.3c0 .2 0-.1.1.2 0-.5.2-.3.3 0 0-.1-.1-.4-.1-.6V7s.1.2.1.1v.1c0-.1.1.2.1 0v.1-.1.2c.2 0 .3-.4.4-.4v.1V7v.1c.1.1.1-.1.1-.1v.2c0-.2.1.3 0-.2v.1c.1-.2.1-.2.2-.1 0-.4.1-.1.1-.4v.1c0-.3.2 0 .3-.1l.1-.1v.1c0-.4.2.3.2-.1v.1c0-.2.1.1 0-.3v.1c0-.5.1.2.1-.1v.1c0-.1 0-.1 0 0v.1c.1.3.1-.1.2-.1v.2c0-.2.1 0 .1-.1v.1-.1.1c.8-.3.8-.4.8-.4zm.4-.3zm-4.1 1.7z"/></g><g><path class="st1" d="M65.6 4.3v-.1.2zm0 .2c0 .1 0 .1 0 0v-.3.3zm0 0v.1c-.1-.1 0 .1 0-.1zm-.9.1zm-.2.5v.1c0-.2.1 0 .1-.1.1.1.2-.2.3-.3v.1c.1.3.1-.1.1.1v-.2c.1-.1.2-.1.3-.3v.2c.1-.4.2-.2.2-.2v-.2c0-.1-.1.2-.1.1v-.1s-.1 0-.1.2v-.2.2c-.1-.1-.2.1-.4.1-.1.4-.1-.1-.2.1 0 .1-.1.1-.1.1V5c-.2-.3-.3-.1-.5-.2s-.3-.4-.5.1v-.1c-.1.1-.1-.1-.1 0-.1.3-.3 0-.4.3-.1 0-.3 0-.4.1v-.1c-.1.2-.2-.2-.4-.1-.1-.2-.2.4-.4.2-.1-.4-.2.4-.2 0-.2-.6-.3-.2-.4.2-.1-.2-.3.3-.4-.1 0 .3-.1-.3-.2-.3v.1c0-.3 0 .4-.1 0v.3c0-.4 0 .1-.1-.4v-.3.8-.2.2s0 .3.1.3v-.1.1c0 .2 0-.4 0 0 0-.1.1-.1.1-.1v-.2c0 .3.1.3.1.3s0 .1 0 0c0 .3 0-.3.1.1v-.3.2l.1.1c0-.3.1.1.1-.2 0 .1.1.2.1.1 0 0 .1 0 .1-.3 0 .3 0 .3.1.4 0-.2.1-.1.1-.3v.2c.1-.5.2-.3.3 0v-.6.1s0 .2.1.1v.1c0-.1 0 .2.1 0v.1-.1.2c.2.1.3-.3.5-.3v.1-.1.1c0 .1.1-.1.1-.1v.2c0-.2.1.3.1-.2v.2c.1-.1.2-.1.3-.1.1-.4.2 0 .2-.4v.1c.1-.3.2 0 .3 0l.1-.1v.1c.1-.4.1.3.2-.1v-.2.1c.2-.4.2.3.3 0v.1c0-.1 0-.1 0 0v.1c0 .3.1 0 .2 0v.2c0-.2.1 0 .1-.1v.1-.1.1c0-.1.1-.2.1-.3zm.4-.1zm-4.3.8z"/></g><g><path class="st1" d="M77.6 5.9V6zm-.1.3l.1-.3c0-.2-.1.4-.1.3zm0-.1zm-.8-.1zm-.4.6v.1c.1-.2.1 0 .1-.1.1.1.2-.1.4-.2v.1c0 .2.1-.1.1 0v-.2c.1 0 .2-.1.3-.2v.2c.2-.3.2-.2.3-.1V6c0-.1-.1.2-.1 0v-.1c0-.1-.1.2 0 .1v-.1s-.1-.1-.1.2v-.2c0 .1 0 .1-.1.2-.1-.1-.3 0-.4 0-.1.4-.1-.1-.2 0 0 .1-.1.1-.1.1l-.1.2c-.1-.4-.3-.2-.4-.3-.2-.1-.3-.4-.5 0V6c-.1.1-.1-.1-.1 0-.2.3-.2-.1-.4.2-.1-.1-.3-.1-.5 0v-.1c-.1.1-.2-.3-.3-.2-.1-.2-.3.4-.4.1 0-.4-.2.4-.2 0 0-.6-.3-.3-.4.1-.1-.2-.3.3-.4-.2-.1.3-.1-.4-.2-.3v.1c0-.3-.1.4-.1 0 0-.2-.1.5-.1.2v-.1.1c.1-.4-.1.1 0-.4v-.3c0-.1 0 0-.1.2 0 .2-.1.4-.1.6v-.2.6c0-.2 0-.1 0 0v.1c0 .2.1-.4 0 0l.1-.1c0-.1 0 0 .1-.2v.3s0 .1 0 0c0 .3.1-.3 0 .1.1-.3 0 .1.1-.2v.2s.1.1.1.2c.1-.3.1.1.1-.2 0 .1 0 .2.1.1 0 0 .1 0 .1-.2v.4c0-.2.1-.1.1-.2v.2c.2-.4.3-.2.3.1 0-.1.1-.4.1-.6v.4c0-.1 0 .2.1 0v.1-.1.2c.1.1.4-.3.5-.2v.1l.1-.1v.1c0 .1.1-.1.1 0v.2c.1-.2 0 .3.1-.1v.2c.1-.1.2-.1.3 0 .1-.4.2 0 .3-.3V7c.1-.3.2.1.3 0h.1v.1c.1-.4.1.4.2 0v.1c.1-.2 0 .1.1-.3V7c.1-.4 0 .2.2-.1V7c0-.1.1-.1.1 0v.1c0 .3.1 0 .2 0v.2c.1-.2.1 0 .1-.1v.1-.1.1c0-.6.1-.7.1-.7zm.5-.1zm-4.5-.1z"/></g><g><path class="st1" d="M89 9.9v.1zm-.1.3s-.1 0 0 0l.1-.3c.1-.2-.2.4-.1.3z"/><path class="st1" d="M88.9 10.1c0-.1 0 .1-.1.1.1-.1 0 .1.1-.1zm-.8-.2z"/><path class="st1" d="M87.6 10.3l-.1.1c.1-.2.1 0 .2 0 .1.1.3-.1.4-.1v.1l.1-.1v.1c-.1.2.1-.1.1.1 0 0 .1-.1.1-.2.1 0 .2 0 .4-.1 0 0 0 .1-.1.2.2-.3.2-.1.3-.1 0-.1 0-.1.1-.2 0-.1-.1.2-.1 0V10c0-.1-.1.2-.1.1s.1-.1.1-.1 0-.1-.2.1c.1-.2 0 0 0-.2 0 .1 0 0-.1.2-.1-.1-.3 0-.4-.1-.2.3-.1-.1-.2 0-.1 0-.1 0-.1-.1l-.1.1c0-.4-.3-.2-.3-.4-.1-.2-.2-.5-.5-.1v-.1c-.1.1-.1-.1-.1 0-.2.2-.2-.1-.5.1-.1-.1-.3-.1-.4-.1v-.1c-.2.1-.1-.3-.3-.2 0-.2-.4.3-.4 0 .1-.4-.3.3-.2-.1.1-.6-.2-.3-.5 0-.1-.2-.4.2-.3-.2-.2.2 0-.4-.1-.3v.1c-.1-.2-.3.4-.2 0l-.1.2v-.1s-.1.2-.1.1c.1-.4-.1.1.1-.4 0 0 .1-.2.1-.3l-.1.2c-.1.2-.2.4-.2.5l.1-.1c-.1.2 0 .1-.1.2 0 0-.1.2-.1.3.1-.2 0-.1 0 0v.1c-.1.2.1-.3 0 0 .1-.1.1 0 .2 0 0-.1 0 0 .1-.2v.3c-.1.3.1-.3 0 .1.1-.3 0 .1.1-.2 0 .1 0 .1-.1.2 0 0 0 .1.1.2.1-.2 0 .1.2-.2 0 .1 0 .2.1.1 0 0 .1 0 .2-.2-.1.3-.1.3-.1.4l.2-.2c-.1.2.1-.1 0 .2.3-.4.3-.2.3.2.1-.1.2-.4.3-.5v.4c.1-.1 0 .2.1 0v.1-.1c0 .1-.1.2-.1.2.1.1.4-.2.6 0v.1l.1-.1v.1c0 .1.1 0 .1 0s0 .1-.1.1c.1-.2-.1.3.1-.1 0 0 0 .1-.1.1.1-.1.2-.1.3 0 .2-.3.2 0 .3-.2v.1c.2-.2.2.1.3.1h.1v.1c.2-.3 0 .4.2 0l-.2-.2c.1-.2 0 .1.1-.2v.1c.2-.4 0 .2.2 0v.1c0-.1.1-.1.1 0v.1c-.1.3.1 0 .2 0l-.1.1c.1-.2.1 0 .1 0v.1l.1-.1-.1.1c-.1-.1 0-.2 0-.2zm.5 0zm-4.3-1z"/></g><g><path class="st1" d="M99.4 16.2v-.1l-.1.1z"/><path class="st1" d="M99.2 16.4l.2-.2c.1-.2-.3.3-.2.2zm0-.1c0-.1-.1.1-.1.1.1-.1 0 .1.1-.1zm-.7-.4z"/><path class="st1" d="M98 16.3l-.1.1c.1-.2 0 0 .1-.1l.1.1c.1.1.3 0 .4 0v.1l.1-.1v.1c-.1.2.1-.1 0 .1l.1-.1c.1 0 .2 0 .4-.1 0 0 0 .1-.1.1.3-.2.3-.1.3 0 .1-.1.1-.1.1-.2.1-.1-.2.2-.1 0l.1-.1c0-.1-.1.2-.1.1s.1-.1.1-.1c-.1 0 0-.1-.2.1l.1-.2-.1.1c0-.2-.3-.1-.3-.1-.3.3-.1-.1-.2-.1-.1.1-.1.1-.1 0l-.1.1c.1-.4-.2-.3-.3-.5-.1-.2-.1-.5-.5-.2v-.1c-.1 0 0-.1-.1-.1-.3.2-.2-.2-.5 0-.1-.1-.2-.2-.4-.2v-.1c-.2.1-.1-.3-.2-.3 0-.2-.4.2-.4 0 .1-.4-.4.3-.2-.1.2-.6-.1-.3-.4-.1 0-.3-.4.1-.3-.3-.2.2.1-.4 0-.3v.1c.1-.3-.3.3 0-.1.1-.2-.3.4-.2.2l-.1.1.1-.1s-.1.2-.1.1c.2-.4-.1.1.2-.4 0 0 .1-.2.2-.2l-.1.1c-.1.2-.2.3-.3.5l.1-.1c-.1.1 0 .1-.1.2 0 0-.1.2-.2.3.1-.2.1-.1.1 0v.1c-.1.2.2-.3 0 0h.2c.1-.1 0 0 .1-.2-.1.2-.1.3-.1.3-.2.3.2-.3 0 .1.2-.3 0 .1.2-.2 0 .1-.1.1-.1.2v.2c.2-.2 0 .1.2-.1 0 .1-.1.2 0 .1 0 0 .1 0 .2-.2-.5.3-.5.2-.5.3l.2-.2c-.1.1.1 0-.1.2.3-.3.3-.1.2.2.1-.1.2-.3.4-.5 0 0-.1.2 0 .2v.1c.1-.1-.1.2 0 0v.1l.1-.1c0 .1-.1.2-.1.1.1.2.5-.1.6.1v.1l.1-.1v.1c0 .1.1 0 .1 0l-.1.1c.1-.2-.1.3.1-.1l-.1.1c.2-.1.2 0 .2.1.3-.3.1.1.4-.2v.1c.2-.2.2.1.3.1h.1l-.1.1c.3-.3-.1.4.2.1l-.2.2c.1-.2 0 .1.2-.2l-.1.1c.3-.4 0 .2.2 0v.1c.1 0 .1-.1.1 0-.2.3.1 0 .1.1l-.1.1c.1-.1.1 0 .1 0v.1h.2-.2.2zm.4.1zm-4-1.9z"/></g><g><path class="st1" d="M108.3 24.4v-.1l-.1.1zm-.3.1s0 .1 0 0l.2-.2c.2-.1-.2.3-.2.2z"/><path class="st1" d="M108.1 24.5c.1-.1-.1 0-.1.1.1-.1-.1 0 .1-.1zm-.7-.6zm-.5.3c.1 0 0 .2.1.1 0 .1.3 0 .4 0h-.1l.1-.1h-.1c-.1.2.2 0 0 .1l.1-.1c.1 0 .2.1.4 0l-.1.1c.3-.2.3 0 .3.1l.1-.1c.1-.1-.2.1-.1 0l.1-.1c0-.1-.2.2-.1.1l.1-.1c-.1 0 0-.1-.2 0 .1-.1 0 0 .1-.2-.1 0-.1 0-.2.1 0-.2-.2-.1-.3-.2-.3.2 0-.1-.2-.1-.1 0-.1.1-.1 0l-.1.1c.1-.3-.1-.3-.2-.5s0-.5-.5-.3h.1c-.1 0 0-.1-.1-.1-.3.1-.1-.2-.5-.1-.1-.1-.2-.2-.4-.3l.1-.1c-.2 0 0-.3-.2-.3 0-.2-.5.1-.4-.1.2-.3-.4.2-.2-.1.3-.5-.1-.4-.4-.2 0-.2-.4 0-.2-.4-.2.2.1-.3 0-.3l-.1.1c.2-.2-.3.2 0-.1.1-.2-.4.3-.2.2l-.1.1.1-.1-.1.1c.3-.3-.1 0 .2-.3l.2-.2-.1.1-.4.4.1-.1-.1.1s-.2.2-.2.3c.1-.1.1 0 .1 0l-.1.1c-.1.1.3-.2 0 0h.2c.1-.1 0 0 .2-.1-.2.2-.2.3-.2.3-.2.3.2-.2 0 .1.2-.2 0 .1.2-.1l-.1.1v.2c.2-.2 0 .1.2-.1 0 .1-.1.2 0 .1 0 0 .1 0 .3-.1-.2.3-.2.2-.2.3.1-.1.1 0 .3-.1-.1.1.1 0-.1.1.4-.2.4 0 .2.3l.4-.4s-.1.2-.1.1l-.1.1c.1-.1-.1.2 0 0l.1-.1-.1.1c.1.2.5 0 .5.2h-.1l.1-.1-.1.1c-.1.1.1 0 .1.1l-.1.1c.2-.1-.2.2.2-.1l-.1.1c.2 0 .2 0 .2.1.3-.2.1.1.4-.1l-.1.1c.3-.1.1.2.2.2 0 .1.1 0 .1 0l-.1.1c.3-.2-.1.3.2.1l-.1.1c.2-.1 0 .1.2-.2l-.1.1c.4-.3-.1.2.2 0l-.1.1c.1 0 .1-.1.1 0-.2.3.1.1.1.1l-.1.1c.2-.1.1 0 .1 0h-.1l.1-.1-.1.1c.4.4.5.3.6.4zm.4.2zm-3.6-2.7z"/></g><g><path class="st1" d="M115.4 34.2v-.1l-.1.1z"/><path class="st1" d="M115.1 34.3s-.1 0 0 0l.3-.1c.1-.2-.4.1-.3.1zm0-.1c.1 0-.1 0-.1.1l.1-.1zm-.5-.6z"/><path class="st1" d="M114 33.7l-.1.1c.2-.1 0 .1.2.1 0 .1.3.1.4.1h-.1s.1-.1.1 0h-.1c-.2.1.2 0 0 .1 0 0 .1-.1.2-.1s.2.1.4.1c0 0-.1 0-.1.1.3-.1.3 0 .3.1.1 0 .1-.1.2-.1.1-.1-.2.1-.1 0h.1s-.2.1-.1 0c.1 0 .1-.1.1-.1-.1 0 0-.1-.2 0 .2-.1 0 0 .1-.1-.1 0-.1 0-.2.1 0-.2-.2-.2-.3-.3-.4.1 0-.1-.2-.1h-.1l-.2.1c.2-.3-.1-.3-.1-.5s.1-.5-.4-.4h.1c-.1 0 0-.1-.1-.1-.3.1-.1-.2-.4-.1 0-.1-.2-.3-.3-.3h.1c-.2 0 .1-.3-.1-.4.1-.2-.5 0-.4-.2.3-.3-.4.1-.2-.2.4-.4 0-.4-.3-.3.1-.2-.4 0-.1-.4-.3.1.2-.3.1-.3l-.1.1c.2-.2-.4.2 0-.1.2-.1-.4.3-.2.1l-.1.1.1-.1s-.2.1-.1.1c.4-.2-.1 0 .3-.3l.2-.2-.2.1c-.2.1-.3.2-.5.3l.1-.1c-.1.1-.1 0-.2.1 0 0-.2.2-.3.2.2-.1.1 0 .1 0l-.1.1c-.1.1.3-.2 0 0 .1 0 .1 0 .1.1.1-.1 0 0 .2-.1l-.2.2c-.3.2.3-.2-.1.1.2-.2-.1.1.2-.1-.1 0-.1.1-.1.1v.2c.2-.1-.1.1.3-.1-.1.1-.2.2 0 .1 0 0 .1 0 .3-.1-.3.2-.2.2-.3.3.1-.1.1 0 .3-.1-.1.1.1 0-.1.1.4-.2.4 0 .1.3.1-.1.4-.2.5-.3l-.1.1h-.1c.1 0-.1.1 0 .1h-.1.1c-.1 0-.2.1-.1.1 0 .2.5.1.5.3h-.1c-.1.1.1 0 .1.1l-.1.1c.2-.1-.2.2.2 0l-.1.1c.2 0 .2.1.2.2.4-.2.1.1.4 0h-.1c.3-.1.1.2.2.2 0 .1.1 0 .1.1l-.1.1c.4-.1-.2.3.2.1l-.1.1c.2-.1 0 .1.3-.1l-.1.1c.4-.2-.1.2.2.1h-.1c-.3.2.1.1.1.1l-.1.1c.2-.1.1.1.1 0h-.1.1l-.1.1c.1-.1.3-.1.3-.1zm.4.3zm-3-3.3z"/></g><g><path class="st1" d="M120.3 45.2h.1-.2zm-.3 0s0 .1 0 0l.3-.1c.2 0-.4.2-.3.1z"/><path class="st1" d="M120.1 45.2h-.1c.1 0-.1.1.1 0zm-.4-.7z"/><path class="st1" d="M119.1 44.5h-.1c.2 0 0 .1.1.1 0 .1.2.1.4.2h-.1c-.2.1.2 0 0 .1 0 0 .1 0 .2-.1.1.1.2.1.3.2 0 0-.1 0-.2.1.4 0 .3.1.2.2.1 0 .1 0 .2-.1s-.2 0-.1 0h.1s-.2.1-.1 0h.1s0-.1-.2 0l.2-.1h-.2c.1-.1-.2-.2-.2-.3-.4.1 0-.1-.1-.2h-.3c.3-.3 0-.3.1-.5 0-.2.2-.4-.3-.4h.1c-.1 0 0-.1-.1-.1-.3 0 0-.2-.4-.2 0-.1-.1-.3-.2-.4h.1c-.2-.1.1-.3 0-.4.1-.2-.5-.1-.3-.3.3-.2-.5 0-.1-.2.5-.4.1-.3-.3-.4.1-.2-.4-.1-.1-.4-.3 0 .3-.3.2-.3h-.1c.3-.1-.4.1 0-.1.2-.1-.5.2-.2.1h-.1s.1 0 .1-.1c0 0-.2.1-.1 0 .4-.2-.1 0 .3-.2 0 0 .2-.1.3-.1h-.2c-.2.1-.4.2-.5.2l.1-.1c-.1.1-.1 0-.2.1 0 0-.2.1-.3.2.2-.1.1 0 .1 0h-.1c-.2.1.3-.1 0 0 .1 0 .1.1.1.1.1 0 0 0 .2-.1-.2.1-.3.2-.3.2-.3.2.3-.1-.1.1.3-.1-.1.1.3 0-.1 0-.1.1-.2.1 0 0-.1.1-.1.2.3-.1-.1.1.3 0-.1.1-.2.1 0 .1 0 0 .1.1.3 0-.3.1-.2.1-.3.2h.3c-.1.1.1 0-.1.1.4-.1.3.1.1.3.1 0 .4-.1.5-.2h-.1s-.2.1-.1.1h-.1c.1 0-.2.1 0 .1h-.1.1c-.1 0-.2.1-.2.1 0 .2.4.2.4.4h-.1c-.1.1.1 0 .1.1 0 0-.1 0-.1.1.2 0-.2.1.2 0 0 0-.1 0-.1.1.2 0 .2.1.2.2.4-.1.1.1.4.1h-.1c.3 0 .1.2.1.3 0 0 .1 0 .1.1h-.1c.4-.1-.3.3.1.2h-.1c.2-.1-.1.1.3-.1h-.1c.5-.1-.2.2.1.1h-.1c-.3.2.1.1.1.1h-.1c.2 0 0 .1.1.1h-.1.1-.1c.1.2.2.2.3.3zm.3.3zm-2.3-3.8z"/></g><g><path class="st1" d="M122.9 57h.1-.1zm-.2 0c-.1 0-.1 0 0 0zm0 0h-.1.1zm-.2-.8zm-.6-.2h-.1c.2 0 0 .1.1.1 0 .1.2.2.3.3h-.1c-.2.1.1 0 0 .1h.2c.1.1.1.2.3.2h-.2c.4 0 .2.1.2.2h.2c.1 0-.2 0-.1-.1h.1s0-.1-.2-.1c.2 0 0 0 .2-.1h-.2c.1-.1-.1-.2-.1-.3-.4 0 .1-.1-.1-.2-.1 0-.1 0-.1-.1h-.2c.3-.2 0-.3.2-.5.1-.2.3-.4-.2-.5h.1c-.1 0 0-.1 0-.1-.3-.1 0-.3-.4-.3 0-.1 0-.3-.2-.4h.1c-.2-.1.2-.3.1-.4.2-.2-.5-.2-.3-.3.4-.1-.4-.1-.1-.2.5-.3.2-.3-.2-.4.2-.2-.4-.2 0-.4-.3 0 .3-.2.2-.2h-.1c.3-.1-.4 0 0-.1.2-.1-.5.1-.3 0h-.1.1c.4-.1-.1 0 .4-.1 0 0 .2-.1.3-.1h-.2c-.2 0-.4.1-.6.1h.2-.2s-.2.1-.3.1h.1-.1c-.2 0 .4 0 0 0 .1 0 .1.1.1.1h.2l-.3.1s-.1 0 0 0c-.3.1.3 0-.1.1.3-.1-.1.1.3 0h-.2l-.1.1c.3 0-.1.1.3.1-.1 0-.2.1-.1.1 0 0 .1.1.3.1-.3.1-.3.1-.4.1.2 0 .1 0 .3.1-.2 0 .1 0-.2.1.5 0 .3.2 0 .3.1 0 .4 0 .6-.1h-.1s-.2.1-.1.1h-.1c.1 0-.2.1 0 .1h-.1.1-.2c0 .2.4.3.3.5h-.1c-.1.1.1.1.1.1h-.2c.2 0-.3.1.2 0h-.2c.2.1.2.1.1.2.4 0 .1.1.4.2h-.1c.3.1 0 .2.1.3l.1.1h-.1c.4 0-.3.2.1.2h-.1c.2 0-.1.1.3 0h-.1c.5 0-.2.1.1.1h-.1c.1 0 .1 0 0 0h-.1c-.3.1.1.1 0 .2h-.2c.2 0 0 .1.1.1h-.1.1-.1c.4.4.6.4.6.4zm.2.5zm-1.4-4.3z"/></g><g><path class="st2" d="M54.6 74.3v1.5h-7.2v4.1h6.8v1.5h-6.8v4.5h7.3v1.5h-9v-13h8.9zm9.5 13.2c-.4 0-.7-.1-1-.3-.2-.2-.4-.6-.4-1.1-.4.5-.9.9-1.5 1.1-.6.2-1.2.3-1.8.3-.4 0-.8 0-1.2-.1-.4-.1-.7-.2-1-.5-.3-.2-.5-.5-.7-.8-.2-.3-.2-.7-.2-1.2s.1-1 .3-1.3c.2-.3.4-.6.7-.8.3-.2.6-.4 1-.5l1.2-.3c.4-.1.8-.1 1.2-.2.4 0 .7-.1 1-.2.3-.1.5-.2.7-.3.2-.2.3-.4.3-.7 0-.3-.1-.6-.2-.8-.1-.2-.3-.4-.5-.5-.2-.1-.4-.2-.7-.2-.2 0-.5-.1-.7-.1-.7 0-1.2.1-1.6.4-.4.2-.7.7-.7 1.4h-1.5c0-.6.1-1.1.4-1.5.2-.4.5-.7.9-1 .4-.2.8-.4 1.3-.5.5-.1 1-.2 1.5-.2.4 0 .8 0 1.3.1.4.1.8.2 1.1.4.3.2.6.5.8.8.2.3.3.8.3 1.3V85c0 .4 0 .6.1.8 0 .2.2.3.4.3.1 0 .3 0 .5-.1v1.2c-.5.2-.8.3-1.3.3zm-2.2-4.8c-.3.1-.6.1-1 .2-.3 0-.7.1-1 .1-.4.1-.7.1-.9.3-.3.1-.5.3-.7.5-.2.2-.3.5-.3.9 0 .3.1.5.2.6.1.2.2.3.4.4.2.1.4.2.6.2.2 0 .5.1.7.1.5 0 .9-.1 1.3-.2s.7-.3.9-.5c.2-.2.4-.4.5-.7.1-.2.2-.5.2-.7v-1.6c-.3.3-.5.4-.9.4zm6.3 2.5c.1.2.3.4.6.6.2.1.5.2.8.3.3.1.6.1.9.1.2 0 .5 0 .8-.1.3 0 .5-.1.7-.2.2-.1.4-.2.6-.4.1-.2.2-.4.2-.7 0-.4-.2-.7-.5-.9-.3-.2-.7-.4-1.1-.5l-1.5-.3c-.5-.1-1-.2-1.5-.4s-.8-.5-1.1-.8c-.3-.3-.5-.8-.5-1.4 0-.5.1-.9.3-1.2.2-.3.5-.6.8-.8.3-.2.7-.4 1.1-.5.4-.1.8-.2 1.2-.2.5 0 1 0 1.5.1.4.1.8.2 1.2.5.3.2.6.5.8.9.2.4.3.9.4 1.4h-1.5c0-.3-.1-.6-.2-.8-.1-.2-.3-.4-.5-.5-.2-.1-.4-.2-.7-.3-.2-.1-.5-.1-.8-.1-.2 0-.5 0-.7.1-.2 0-.5.1-.6.2-.2.1-.4.2-.5.4-.1.2-.2.4-.2.6 0 .3.1.5.3.7.2.2.4.3.7.4.3.1.6.2 1 .3.4.1.7.2 1.1.2.4.1.8.2 1.1.3.4.1.7.3 1 .5.3.2.5.5.7.8.2.3.3.7.3 1.1 0 .6-.1 1-.4 1.4-.2.4-.5.7-.9.9-.4.2-.8.4-1.3.5-.5.1-1 .1-1.4.1-.5 0-1-.1-1.5-.2s-.9-.3-1.3-.5-.7-.6-.9-1c-.2-.4-.3-.9-.4-1.5H68c0 .4.1.7.2.9zm11.4 4.5c-.2.3-.4.6-.6.8-.2.2-.4.3-.7.4-.2.1-.5.1-.8.1H77c-.2 0-.4-.1-.5-.1v-1.4c.1 0 .3.1.4.1.2 0 .3.1.5.1.3 0 .6-.1.8-.2.2-.1.4-.4.5-.6l.6-1.6-3.7-9.4h1.7l2.7 7.7 2.6-7.7h1.6l-4.1 10.7c-.1.4-.3.8-.5 1.1zm-28.3 2.8v13h-1.7v-13h1.7zm4.4 3.6v2c.4-.8.8-1.3 1.4-1.7.5-.4 1.2-.5 2.1-.5v1.6c-.6 0-1.1.1-1.6.3-.4.2-.8.4-1.1.7-.3.3-.5.7-.6 1.2-.1.5-.2 1-.2 1.6v4.2h-1.5v-9.4h1.5zm4.9 2.8c.2-.6.5-1.1.9-1.6.4-.4.9-.8 1.4-1 .6-.3 1.2-.4 2-.4s1.4.1 2 .4c.6.3 1 .6 1.4 1 .4.4.7 1 .9 1.6.2.6.3 1.2.3 1.9s-.1 1.3-.3 1.9c-.2.6-.5 1.1-.9 1.6-.4.4-.9.8-1.4 1-.6.2-1.2.4-2 .4-.7 0-1.4-.1-2-.4-.6-.2-1.1-.6-1.4-1-.4-.4-.7-1-.9-1.6-.2-.6-.3-1.2-.3-1.9s.1-1.3.3-1.9zm1.5 3.4c.2.4.4.8.6 1.1.3.3.6.5.9.7.4.2.7.2 1.1.2.4 0 .8-.1 1.1-.2.4-.2.7-.4.9-.7.3-.3.5-.7.6-1.1.2-.4.2-.9.2-1.5s-.1-1.1-.2-1.5c-.2-.4-.4-.8-.6-1.1-.3-.3-.6-.5-.9-.7-.4-.2-.7-.2-1.1-.2-.4 0-.8.1-1.1.2-.4.2-.7.4-.9.7-.3.3-.5.7-.6 1.1s-.2.9-.2 1.5.1 1.1.2 1.5zM73 96.1v1.5c.6-1.1 1.7-1.7 3.1-1.7.6 0 1.1.1 1.5.3.4.2.7.4 1 .7.3.3.4.7.5 1.1.1.4.2.9.2 1.4v6.2h-1.5v-6.4c0-.6-.2-1-.5-1.4-.3-.3-.8-.5-1.4-.5-.5 0-.9.1-1.2.2-.3.1-.6.4-.9.6-.2.3-.4.6-.5.9-.1.4-.2.7-.2 1.2v5.3h-1.5v-9.4H73z"/></g><g><path class="st3" d="M25.6 49.3l.1.1.2-.1zm1.2-.2c-.1 0-.1 0 0 0l-.8.2c.3.2.6-.3.8-.2zm.1.1c.3.1.4-.1.4-.1s-.4-.1-.4.1zm22.7-.3s-.1 0 0 0c-.1 0 0 0 0 0z"/><path class="st3" d="M55.5 48.3c-1 .1-2.3 0-3.4.1h.1c-3 0-5.7.2-8.6.3h.1c-.1 0-.3.1-.5.1l.1-.1c-.6-.2-1.8.1-2.2 0-.2 0-.3.1-.2.1-2.3.1-4.8.1-7.1.3-.1 0-.1-.1-.1-.1-2 .3-4.1.2-6.1.2-.1.1.2.1 0 .1.7.1 1.2-.2 1.8-.1l-.1.1c.4 0 .1-.2.5-.1.2.1 0 .1 0 .1.9 0 1.9 0 2.8-.1.2.1 1 0 1.3.1.2-.1.5 0 .6-.1 3.2 0 6.5-.1 9.8-.1 1.5-.3 3.4 0 5.2-.1.6-.1 1.5-.1 2.2-.1l.6-.1c4.3.1 8.7-.5 13-1 2.5-.2 4.8-.5 7.1-.9S77 46 79.2 45l-.1.1c.3-.1.7-.2 1-.4l.2-.1.3-.1.3-.1.2-.1c.1 0 0-.1 0-.1-.1-.4-.3-.7-.4-1.1-.1-.3-.3-.6-.4-.9-.4-.7-.7-1.5-1-2.3-.3-.8-.4-1.6-.6-2.4-.2-.8-.4-1.7-.8-2.4-.3-.8-.9-1.4-1.3-2.1-.9-1.6-1.4-3.8-3-5.2-1.6-1.3-3.7-2.1-5.6-2.4v-.1c-1.4-.3-3-.3-4.6-.2-1.6.1-3.2.2-4.8.4-1.7.1-3.4.3-5.1.6-.8.1-1.7.3-2.5.5s-1.6.4-2.5.7c-1 .2-2.2.6-3.3 1-1.1.5-2 1.3-2.9 1.7l-1.2.6c-.4.2-.9.3-1.1.3-.1-.1-.1-.2-.2-.3-.1-.1-.2-.3-.3-.4l-.6-.8c-.2-.2-.4-.5-.5-.8-.1-.1-.1-.2-.2-.4s-.1-.4-.2-.6c-1.2.2-1.7 1-2.3 1.7-.3.3-.6.7-.9 1-.1.1-.2.1-.2.2s.1.2.1.3c.1.2.2.4.4.5.2.4.5.8.8 1.1l.3.6c.1.1.1.2.2.4 0 .1.1.1 0 .2l-.2.1c-.8.6-1.4 1.2-2.1 1.8-1.3 1.2-2.6 2.5-3.9 3.8-1 1.4-2.4 2.6-3.3 4.4h.1c-.5.5-.4 1.5-.8 1.8v-.1c-.3.3.1.9-.2 1.1l.1.1c-.1.4-.1 0-.2.3 0 .1.1.1 0 .3-.2 0-.2.3-.2.5 0 .3 0 .5-.2.5 0-.2-.2.4-.2-.2-.1.2-.1.9 0 .8.2.1.3.4.4-.1l-.1-.1.2-.2c.1-.6.2-.6.4-1-.1-.3.1-.6.2-.8l.1-.1c.2-.1 0-.7.1-.5.3-1.1.9-2.3 1.6-3.4 0-.2.6-.8.3-.7.3-.2.9-.9 1.1-1.2v.1c.6-.4.3-.8 1-1.1-.1-.2.8-.8.9-1.3h.1c.8-.8 1.8-1.7 2.5-2.3.5-.7 1.6-1.3 2-1.9.1 0 .1-.1.2-.1.1-.1.3-.2.4-.3.5-.2.1-.6 0-.9-.2-.5-.5-.9-.8-1.2h.1c-.1-.2-.3-.4-.4-.6l-.2-.3-.1-.1v-.1l-.1-.1v-.1l.1-.1c.1-.1.1-.2.2-.2.4 0 .7-.4 1-.6.1-.2.4-.5.7-.8.1-.1.3-.2.4-.3l.1-.1s0 .1.1.1c0 .2.5.7.4.9.3.3.5.6.8.9.3.3.4.5.8 1.2l.6-.2c.2-.1.3-.1.5-.2.3-.1.5-.2.8-.4l1.5-.9c1-.6 1.9-1.1 2.9-1.2.4-.2.7-.5 1.1-.7v.1c.5-.2 1-.2 1.5-.4l-.1.1c.5-.2 1-.2 1.6-.5l.3-.2c0 .1 0 .1-.2.2 1.1-.3 2.2-.5 3.3-.6 1.1-.2 2.3-.3 3.5-.4 2.3-.2 4.7-.5 7.1-.7l-.2.1.9-.2-.1.1c1.1 0 2.3-.1 3.4.2 0 0-.2 0 0 .1.8 0 1.2.5 1.7.3 0 0 0 .1-.1.1 2.2.6 4.4 1.9 5.3 4 .6.8.9 1.8 1.4 2.7.2.5.5.9.8 1.4.3.4.5.9.7 1.3h-.1c.6 1.2.7 2.6 1.1 3.9.4 1.3.9 2.6 1.4 3.9.1.2.2.5.3.7 0 .1 0 .1-.1.1l-.1.1-.3.1c-.4.2-.9.4-1.4.5v-.1c-1.8.8-3.9.8-5.9 1.5l.1-.1c-.3.2-1.2.2-1 .4h-.4c-1.3.6-2.5.3-4.1.7l.1-.1c-.4.1-.9.2-1.3.2.1 0 0 0 .1-.1-1.4-.1-2.9.4-4.4.5l.2-.1c-.7.2-2 .2-2.9.4l.1-.1-.4.1v-.1c-1.2.1-2.3.3-3.5.4zm-12.2.4z"/><path class="st3" d="M26.3 47.3c0 .1 0 .1-.1.1.1 0 .1-.1.1-.1zm-1.4 3.8h.1l.1-.2zm.5-.5s0-.1 0 0c-.1-.1-.1 0-.1.1l-.1.2c.1 0 .1 0 .2-.1v-.2zm.2 0c.2.1.3 0 .4-.1-.1.1-.4 0-.4.1zm19.9-.1z"/><path class="st3" d="M50.7 49.9c-.9.1-2-.1-3 0h.1c-2.6 0-5 .3-7.6.4 0 0 .1 0 .1-.1-.1 0-.3.1-.4.1l.1-.1c-.5-.1-1.6.1-1.9 0-.2 0-.2.1-.1.1-2 .1-4.2.2-6.2.3-.1 0-.1-.1-.1-.1-1.8.2-3.6.1-5.4 0-.1.1.2.1 0 .1.6.1 1.1-.1 1.6 0l-.1.1c.4.1.1-.2.5-.1.2.1 0 .1 0 .1.8 0 1.7.1 2.4-.1.2.1.9 0 1.2.1.2-.1.4 0 .5-.1 2.8.1 5.7-.1 8.6-.2 1.3-.3 3 0 4.6-.2.5-.1 1.3-.1 1.9-.1l.5-.1c3.8.1 7.6.1 11.5-.1 2.2-.1 4.2-.3 6.2-.6s4-.8 6-1.3l-.1.1c1.2-.3 2.3-.3 3.4-.6 1.4-.4 2.9-.7 4.3-1.1.4-.1.7-.2 1.1-.3.2-.1.3-.1.5-.2l.4-.1c.2.3.6 1.1.6 1.7 0 .8-.8 1.4-1.6 1.6-.8.3-1.7.5-2.5.9-1.7.7-3.3 1.7-4.7 2.7l-1.8 1.2-.4.3-.2.1c-.1 0-.1.1-.2 0-.2-.2-.6-.3-.9-.4-1.4-.4-2.8-.5-4.2-.5-1.5-.1-3 .1-4.5.2s-3 .2-4.5.2c-1.8-.2-4.2.5-5.9.3-3.5-.3-6.9-.4-10.4-.2-1.6-.1-3.2.1-4.8.2-1.6.1-3.2.1-4.8-.1-1.5.1-3.1-.4-4.8-.4l.1.1c-.3-.1-.6-.1-.9 0h-.4c-.1 0-.3 0-.2-.1.1-.2 0-.2-.1-.4s-.1-.3 0-.4l-.1-.1c0-.4.1 0 .2-.3 0-.1-.1-.1 0-.3.3 0 .2-.9.5-.9-.1.2.2-.3.2.2.1-.1.2-.7.1-.7-.1-.1-.2-.4-.4-.1l.1.1c-.2.1-.1.1-.2.1-.2.5-.3.5-.5.9.1.3-.1.6-.1.8l-.1.1c-.1.1 0 .2 0 .3 0 .2.1.3 0 .2v1h1.4c.6 0 1.1.1 1.7.1.2-.1.9.1.6-.1.3.2 1.1.3 1.5.3H29c.6.3.7-.2 1.3.1.1-.2 1.1.1 1.4-.1.1 0 .1.1.1.1 1 0 2.2.1 3.1.1.7-.2 1.9 0 2.5-.3.5 0 1.4.1 2.1 0h-.1c.8 0 1.9 0 2.5-.1.2.3.6.2 1 .3.6-.1 1.7 0 2.6-.1.1.1.7 0 .8.1 2.4-.2 5.4-.2 8-.1.3-.1.7-.3 1-.5.5-.1.9.1 1.4 0l-.1.1c.4-.1.9.1 1.4-.1v.1c0 .1 0 .1-.2.1 1 0 2 0 3-.1s2-.1 3.1-.2c1 0 2.1-.1 3.1 0 1 0 2.1.1 2.9.5h-.1c-.1-.1.9.5.9.2 0 0 0 .1-.1.1.4-.2.6-.3.8-.5l.6-.4c.4-.3.8-.6 1.3-.9 0 0-.1.2 0 .1.5-.5 1.1-.5 1.3-.9 0 0 .1 0 0 .1.8-.6 1.7-1.1 2.7-1.5.9-.4 1.9-.7 2.9-1 .4-.2.8-.4 1.2-.7.4-.3.7-.7.8-1.2.1-.5-.1-1-.3-1.4-.1-.2-.2-.5-.4-.7l-.1-.2c-.1 0-.1.1-.2.1l-.4.2v-.1c-2.1 1-4.6 1.3-6.9 1.8-1 .2-1.6.3-2.6.5v-.1c-1.6.5-3.5.4-5.2 1l.1-.1c-.2.2-1.1.1-.9.3H65c-1.1.5-2.2.2-3.6.5l.1-.1c-.4.1-.8.2-1.1.1l.1-.1c-1.2-.1-2.6.2-3.9.3l.1-.1c-.6.2-1.8.1-2.6.1v-.1l-.4.1v-.1c-1 .2-2 .3-3 .3zm-10.8.4c.1 0 .1 0 0 0zm-16.2 1.5s0-.1.1-.1c0 0 0 .1-.1.1zM71.6 58.7l-.1-.1zm-.2-.8c0 .1-.1 0 0 0l.2.5c.1-.2-.3-.3-.2-.5zm0-.1c.1-.2-.1-.3-.1-.3.1 0 0 .3.1.3zM56.3 56s.1-.1 0 0c.1-.1 0-.1 0 0z"/><path class="st3" d="M52.1 56.4c.7-.1 1.6.1 2.5 0h-.1c2.1 0 4.1-.1 6.2-.2h-.1c.1 0 .2-.1.3-.1l-.1.1c.4.2 1.3-.1 1.6 0 .1 0 .2-.1.1-.1 1.6 0 3.4-.1 5.1-.2.1 0 .1.1.1.1.5-.1 1.1-.1 1.6-.2h2v1.4c.1.1.1-.1.1 0v-.6c0-.3-.1-.6-.1-.9h-.4l.1-.1c-.6 0-.2.2-.7.1-.2-.1.1-.1 0-.1-.7 0-1.4 0-2 .1-.2-.1-.7 0-1-.1-.2.1-.3 0-.4.1-2.3-.1-4.7.1-7 .1-1.1.3-2.4-.1-3.7 0-.4.1-1.1.1-1.6.1l-.4.1c-3.1-.2-6.2-.1-9.3-.2-3.5-.1-6.7-.3-10.1.1l.1-.1c-1 .1-1.9 0-2.8 0-2.3.2-4.8 0-7.1.2h-1.7v2.6c1.5 0 3.2 0 4.7-.1v.1c2.3-.1 4.6.2 6.9.1 2.4.1 4.9-.3 7.3-.1 1.5.3 3.4-.3 4.8 0 2.9.4 5.6.1 8.5-.1 2.6.1 5.3-.2 7.8.1 1.2-.2 2.5.2 3.9.2v-.1c.5.2 1.1-.3 1.4 0h-.1c.3.2.6-.4.8-.2v-.1c.3 0 0 .1.3.1.1 0 0-.1.2-.1 0 .3.8-.1.8.3-.2 0 .3.1-.1.2.1 0 .6 0 .6-.1 0-.2.2-.3-.1-.4l-.1.1-.1-.1c-.4 0-.5-.2-.8-.2-.2.1-.5.1-.6 0l-.1-.1c-.1-.1-.5.3-.3 0-.8.1-1.8.1-2.7.1-.1.1-.7 0-.5.2-.2-.2-.9-.2-1.2-.2h.1c-.5-.2-.6.2-1.1-.1-.1.2-.9-.1-1.1.2-.1 0-.1-.1-.1-.1-.8 0-1.8-.1-2.5-.1-.6.2-1.5-.1-2 .2-.4-.1-1.1-.2-1.8-.1h.1c-.7 0-1.5 0-2 .2-.2-.2-.5-.2-.8-.3-.5.1-1.4.1-2.1.2-.1-.1-.6 0-.6-.1-2 .3-4.4.2-6.5 0-.3.1-.6.3-.9.4-.4 0-.7-.1-1.1-.1l.1-.1c-.4.1-.7-.1-1.2 0l-.3.1c0-.1 0-.1.2-.1-3.3-.1-6.7.2-10.1.2l.1-.1-.7.1.1-.1c-.8-.1-1.7.1-2.5 0 0 0 .1-.1 0-.1-.6.1-1-.2-1.3.1v-.1c-.5 0-1.1.1-1.6.1h-1.4V57c0-.2-.1-.3-.1-.5.3-.1 1.1 0 1.7 0 .6 0 1.3 0 1.9-.1v.1c1.9-.2 3.9 0 5.8 0h2.2v.1c1.4-.3 2.9.2 4.3-.1l-.1.1c.2-.1.9.1.8-.2l.3.1c1-.3 1.8.2 3-.1l-.1.1c.3 0 .7-.1.9 0h-.1c1 .2 2.1 0 3.1 0l-.1.1c.5-.1 1.4 0 2.1-.1v.1l.3-.1v.1c.9-.1 1.8-.2 2.6-.2zm8.8-.2c-.1 0-.1 0 0 0zm9 2.1zM50.9 39.7h.1l-.1-.1zm.1-.5s0-.1 0 0v.4c.2-.1-.1-.4 0-.4zm.1-.1c.1-.1 0-.2 0-.2.1.1-.1.2 0 .2zm8.1-1.9z"/><path class="st3" d="M61.7 37.2c-.4-.3-.9-.6-1.4-.5-1.4 0-2.5.4-3.8.5-.1 0-.1.1-.2.1v-.1c-.3-.2-.8.1-1 0-.1 0-.1.1-.1.1-1 0-2.1 0-3.1.1 0 0-.1-.1 0-.1-.2.1-.4.1-.5.1-.1 0-.2 0-.1.1v.4c0 .2-.1.2 0 .6l-.3.4c0 .1.1 0 .1.1.1 0 .2-.3.3-.5-.1-.3-.2-.4-.1-.5h.1c0-.2-.2 0-.1-.2.1-.1.1 0 .1 0v-.2l.1-.1c.1.1.4 0 .6.1.1-.1.2 0 .2-.1 1.4.1 2.9.1 4.4 0 .7-.3 1.5-.1 2.3-.3.2-.1.6-.2.9-.1l.3-.1c.4.1.9.2 1.1.5.2.3.3.7.3 1.2v1h6.6s.1 0 .1-.1c0-.4.1-1 0-1.1 0-.5 0-1.1-.1-1.6h.1c-.1-.6 0-1.2-.2-1.8-.2-.4-.3-.7-.4-1l-.3-1.1c-.1-.4-.3-.7-.5-1-.1-.3-.3-.7-.6-.9-.5-.8-1.5-1-2.4-1.1-.9-.1-1.9 0-2.7.2v-.1c-1.4.2-2.8.2-4.2.5-1.5 0-3 .6-4.5.7-1-.1-2 .8-2.9.8-.9.1-1.7.5-2.4 1s-1.3 1.3-1.5 2.2c-.4.7-.3 1.6-.3 2.4v1.2c0 .2 0 .4-.1.5 0 .1-.1.2 0 .2l.2.1c.7-.2 1.6.1 2.4 0v-.1c.3.2.6-.4.8-.1.2.1.3-.4.4-.2v-.1c.2 0 0 .1.2.1.1 0 0-.1.1-.1 0 .3.5-.1.5.3-.1 0 .2.1-.1.2.1 0 .4 0 .3-.1 0-.2.2-.3 0-.4v.1l-.1-.1c-.2 0-.2-.2-.4-.2-.1.1-.3.1-.4.1V39c-.1-.1-.3.3-.2.1-.5.1-1.1.2-1.7.3-.1.1-.4 0-.3.2-.2-.2-.6-.2-.7-.2-.2-.1-.2-.1-.3 0-.2 0-.2 0-.2-.2 0 .1-.1.1-.1.1h-.1c.1 0 .1-.1.1-.1v-.5c0-.3 0-.5.1-.8-.2-.4.1-.9-.2-1.2.1-.3.2-.6.2-1 .1-.4.3-.8.3-1.1.3 0 .3-.1.5-.2.1-.3.5-.6.8-.9.1.1.3-.2.4-.1.8-.9 2.3-1.4 3.6-1.4.1-.1.3-.4.4-.5.2-.1.5 0 .7 0v.1c.2-.1.5 0 .7-.1l.2-.1c0 .1 0 .1-.1.1 1-.1 2-.3 3-.4 1.1-.2 2.1-.4 3.1-.5l-.1.1.4-.1v.1c.5 0 1-.2 1.5-.2 0 0-.1.1 0 .1.4-.2.6.1.8-.2v.1c1-.2 2.1-.2 3 .1.4 0 .9.1 1.1.5.3.3.4.8.7 1.1h-.1c.4.5.5 1.1.7 1.6.1.6.4 1.2.4 1.8 0 .5.1.8.1 1.3H68c.1.4.1.9 0 1.3-.1.5 0 .8-.4.8v-.1c-.1.1-.5 0-.4.2L67 39c-.6.3-1.1-.1-1.8.1V39c-.2.1-.4.1-.6 0h.1c-.6-.2-1.3.1-2 .1l.1-.1c-.2.1-.3.1-.6.1h-.1c-.1 0 0-.1 0-.1v-.3h.1l-.1-.2h.1c0-.3-.1-.9-.5-1.3zm-5.4-.1c.1 0 .1 0 0 0z"/><path class="st3" d="M49.7 38.9c.1.1.1.1 0 0 .1 0 0 0 0 0zM70.1 25.5h.1-.1zm-.1-.2l.1.2c.2 0-.2-.2-.1-.2zm0-.1c.1 0 0-.1-.1-.1.2.1 0 .1.1.1zm2.8-2.3z"/><path class="st3" d="M73.7 21.9c-.2.1-.5.1-.7.3-.5.4-.9.9-1.3 1.4v.1c-.2 0-.1.4-.3.4l.1.1c-.1.2-.1.5-.1.7l.2.9-.6-.9c-.1-.1-.3-.2-.3-.2h-.1v-.1s-.1.1-.1.2c-.1.1 0 .1-.2.2l-.3.3c.1 0 .1 0 .1.1.1 0 0-.3.1-.3s-.1-.1 0-.1.1.1.1.1c.1-.1.1 0 .1-.2v-.1.2c0-.1 0 0 .1-.1l.2.2 1 1.6-.2-1.9c0-.4.1-.8.4-1.1 0-.4.5-.4.8-.7.1-.1.2-.3.3-.4v-.2c.4-.1.8-.2 1.3-.3.2-.1.5-.1.7-.3.2-.1.4-.1.4-.1s.1.1.2.1c.1.1.2.1.3.2.2.1.4.1.6.1.5.2.5-.4.6-.8l.1-.3c0-.1.1-.1.1-.2.1-.1.2-.2.4-.2.3 0 .4.2.7.3.7.2.9 1 1.3 1.5 0 .2.1.4.1.6v.6c-.3.1-.8.1-1.3.2v-.1h-.9c0 .2-.1.4-.1.6-.1 0-.2-.1-.4-.1-.5-.2-1.1 0-1.6.2.2.1.3.3.3.5s0 .3.1.4c-.1 0-.2.2-.3.3-.1.1-.2.2-.4.2s-.4.1-.6.1c0 0-.1 0-.1.1l.1.1c.1.1.1.2.2.3.1.2.4.4.5.4.3.2.6.4 1 .5.3.3.6.5.9.8.1.2.3.3.3.6 0 .2-.1.5-.3.6-.1.4-.7.4-1 .6-.2-.1-.1.4-.4.2-.1-.1 0 .4-.1.3v.1c-.1.1 0-.1-.1-.1 0 0 .1.1 0 .1-.2-.3-.2.2-.3-.1 0 0-.1-.1-.1-.2 0 0-.2.1-.1.2s.1.3.2.4v-.1l.1.1c.1 0 .2.1.3.1 0-.1.1-.1.2-.1.1.1 0-.3.1-.1.2-.2.5-.3.7-.5 0-.1.2-.1 0-.2.2.1.4 0 .5-.1.3 0 0-.3.3-.2-.2-.1.3-.3.1-.5h.1c.1-.2.1-.4.1-.7 0-.2-.1-.4-.2-.5-.3-.1-.3-.5-.6-.4-.1-.1-.2-.4-.4-.4-.2-.1-.4-.3-.6-.3.1-.2 0-.2 0-.4-.2 0-.4-.2-.5-.3.1-.1-.1 0 .1-.1h-.2c-.1 0-.2-.1-.1-.1s.2-.1.3-.1c.1 0 .2-.1.4-.1s.5-.1.8-.1v-.1c-.2-.1-.4-.3-.5-.4h.1c-.1-.2 0-.3-.1-.5h.1c-.1-.1 0-.4-.2-.5l-.2.1s.1-.1.1 0c-.1-.1-.1-.2-.2-.2l-.3.8c.3 0 .6-.1 1-.1h.5c.3 0 .6.1.8.1v-.8.1-.2.1h.2s.2-.1.3 0v.1c.2-.2.3.2.4-.1v.1c.2 0 .3-.1.5-.1l.7-.1c0-.3.1-.5.1-.8-.2-.3-.2-.5-.3-.7-.1-.2-.2-.5-.4-.6-.4-.4-.7-1-1.3-1.3-.2-.2-.4-.2-.7-.2v-.1c-.1 0-.2.1-.3.1-.1 0-.2 0-.3.1-.2.1-.4.4-.3.6l.1-.1c.1.1-.1.2.1.3h-.1c.1.1.1.2.1.3 0 .1 0 .2-.1.1-.2 0-.3-.1-.5 0v-.1c-.1 0-.2 0-.2-.1s0-.1-.1-.2-.2-.1-.3-.1c-.2.1-.3.2-.5.3v-.1c-.1.2-.4.2-.6.3v-.1l-.1.1v-.1c-.2 0-.4.2-.6.3zm-2.1 1.7c.1 0 0 0 0 0zm4.2 7.3z"/><path class="st4" d="M79.6 21.7c2.5 0 5.7-.5 7.3 1.9 1.3 1.9.7 5 .7 7.2 0 5.8-.9 11.9-.2 17.7.8 6.5 5.7 9.6 12 10.1 4.1.3 7.4-2.5 8.7-6.3 1.1-3.1 1.6-11.6-2.2-13"/><g><path class="st3" d="M39.5 30.7l-.1-.1.1.1zm.1.1l-.1-.2c-.1 0 .2.3.1.2z"/><path class="st3" d="M39.6 30.8c-.1 0 0 .1 0 0 0 0 .1.1 0 0zm-.5.5z"/><path class="st3" d="M39.2 31.7c0-.1.1 0 .1 0 .1 0 .1-.2.1-.3v-.1c.1.1 0-.1.1 0 0 0 0-.1-.1-.1 0-.1.1-.1 0-.3l.1.1c-.1-.2 0-.2.1-.2 0 0-.1 0-.1-.1-.1 0 .1.1 0 .1 0 0 .1.1 0 .1l-.1-.1s-.1 0 0 .1l-.1-.1.1.1c-.1 0-.1.2-.2.2.1.2-.1 0-.1.1v.1l.1.1c-.2-.1-.3.1-.4.1-.2 0-.4-.1-.3.3 0 .1-.1 0-.1.1 0 .2-.2.1-.2.3-.1 0-.2.1-.3.2 0 .1-.3-.1-.3.1-.2-.1 0 .4-.2.3-.2-.2 0 .3-.2.1-.3-.3-.3 0-.3.3-.2-.1 0 .3-.3.1.1.2-.2-.1-.2 0-.1-.1.1.2-.1 0-.1-.1.2.3.1.2v.1l-.1-.1.1.1c-.2-.2 0 .1-.2-.2 0 0-.1-.1-.1-.2l.1.1.3.3-.1-.1.1.1.2.2c-.1-.1 0-.1 0 0 .1.1-.2-.2 0 0v-.1l-.1-.1c.1.1.2.2.2.1.2.2-.1-.2.1 0-.1-.2.1 0-.1-.2l.1.1h.1c-.1-.2.1 0 0-.2 0 0 .1.1.1 0v-.2c.1.2.1.1.2.2v-.2c.1.1 0-.1.1.1-.1-.3 0-.3.2-.1 0-.1-.1-.3-.2-.4l.1.1c0-.1.1.1 0 0v-.1l.1.1c.1 0 .1-.3.3-.4v-.1c.1.1 0-.1.1-.1 0 0 0 .1.1.1 0-.1.1.1 0-.1 0 0 0 .1.1.1 0-.1.1-.2.2-.1-.1-.3.1-.1.1-.3 0-.2.2-.1.2-.1s0-.1.1-.1v.1c-.1-.3.2.1.1-.1v.1c-.1-.1.1 0-.1-.2v.1c-.1-.3.1.1.1-.1v.1s0-.1 0 0c.2.2.1-.1.1-.1l.1.1c-.1 0 0 0 .1-.1l-.1.1.1-.1v.1s-.1-.1 0-.1zm.2-.3zm-2.8 2.4z"/></g><g><path class="st5" d="M49.3 32.3c.1.2 11.3-6.9 11.5-6.6.1.2-8.6 5.6-8.5 5.8.2.3 10.3-6.2 10.4-6 .1.2-8.3 5.5-8.2 5.7.1.2 10.2-6.2 10.3-6 .1.2-8.3 5.5-8.2 5.7.1.2 9.8-5.9 9.9-5.7.1.2-7.3 4.9-7.1 5.1.1.2 8.3-5.1 8.4-4.8.1.2-6.7 4.5-6.6 4.7.1.2 8-4.8 8.1-4.7.1.2-6.1 4.4-6 4.5.1.2 6.7-4.1 6.8-3.9.1.2-5.5 3.9-5.4 4 .1.2 6.4-3.9 6.4-3.7.1.1-5.3 3.9-5.2 4 .1.2 6.3-3.9 6.4-3.7.1.2-5.8 4.2-5.8 4.4.1.1 6.7-4 6.8-3.9.1.2-6.4 4.5-6.3 4.6.1.2 6.5-4 6.6-3.8.1.2-6.8 4.7-6.7 4.9.1.2 6.9-4.3 7.1-4.1.1.2-6.8 4.7-6.7 4.9.1.2 7.6-4.6 7.7-4.4.1.2-7.7 5.2-7.6 5.4.1.2 8-4.8 8-4.6.1.2-7.3 5-7.2 5.2.1.2 7-4.3 7.1-4.1.1.2-7.5 5-7.4 5.2.1.2 8.1-4.9 8.2-4.7.1.2-8.2 5.4-8.1 5.6.1.2 8.6-5.2 8.7-5 .1.2-8.8 5.8-8.7 6 .1.2 8.6-5.2 8.7-5 .1.2-8.8 5.8-8.7 6 .2.3 9.2-5.7 9.4-5.4M51.2 37l.2-.1s-.4 1.2-.3 1.2c0 .1 1.7-1.1 1.7-1"/><path class="st5" d="M39.1 31.6l.9-.5c.1.1-6 4.2-5.9 4.4.2.3 13.4-8.3 13.7-7.9.2.4-16.8 10.1-16.6 10.5.3.5 19.8-12.1 20.1-11.6.4.6-22.3 13-21.9 13.6.3.6 23.4-14.2 23.7-13.7.3.6-24.8 14.3-24.4 15 .4.6 26.2-16.2 26.7-15.4.4.7-28.4 16.6-28.1 17.1.5.8 29.4-18.1 29.9-17.2.4.6-30.8 17.8-30.4 18.5.5.8 32.3-19.8 32.8-18.9.5.8-33.9 19.4-33.4 20.3.3.5 19.8-12 20.1-11.6.3.5-20.4 12-20 12.5.3.5 19-11.7 19.3-11.2.3.6-19.9 11.8-19.6 12.4.3.4 18.9-11.5 19.2-11.1.3.5-19 11.3-18.7 11.8.3.5 18.6-11.4 18.9-10.9.2.4-17.2 10.4-16.9 10.8.2.4 16.5-10.2 16.8-9.7.2.4-16 9.7-15.8 10.1.2.3 16-9.8 16.3-9.4.2.3-14 8.6-13.8 8.9.2.4 14.8-9.1 15-8.7.2.4-14.1 8.7-13.9 9 .3.4 16-9.7 16.2-9.4.2.3-14.8 9.1-14.6 9.4.3.6 20.1-12.2 20.4-11.8.3.5-18.7 11.2-18.4 11.6.3.5 19.9-12.1 20.2-11.6.2.4-18.8 11.1-18.5 11.6.3.6 20-12.1 20.2-11.7.3.5-18.3 11-18.1 11.4.3.5 19.5-11.9 19.8-11.4.3.5-18.6 11.2-18.3 11.6.1.7 18.7-11.4 19-11 .3.4-17.5 10.5-17.3 11 .2.4 17.5-10.8 17.8-10.3.3.5-16.8 10.2-16.6 10.6.2.3 16.5-10.1 16.8-9.7.2.4-14.9 9.1-14.7 9.5.2.4 15.7-9.7 16-9.2.2.4-14.4 8.7-14.2 9.1.2.4 15.8-9.6 16-9.2.2.4-14.4 8.9-14.2 9.2.2.4 16-9.7 16.2-9.3.2.4-14.7 9-14.5 9.4.3.6 24.6-15.1 25-14.4.4.7-23.5 13.7-23.2 14.3.4.6 23.2-14.4 23.6-13.7.4.6-22.4 13.1-22.1 13.7.3.5 21.9-13.5 22.3-12.8.3.5-20.1 11.8-19.7 12.4.3.6 19.9-12 20.2-11.6.3.5-18.6 11.1-18.4 11.6.2.4 18.5-11.3 18.8-10.8.2.4-16.9 10.1-16.6 10.6.2.4 16.2-9.9 16.4-9.5.2.4-14.5 8.9-14.3 9.2.2.4 14.7-9.1 14.9-8.6.2.3-13.2 8.1-13 8.5.2.3 12.6-7.7 12.8-7.4.2.3-10.9 6.9-10.7 7.2.2.3 10.7-6.5 10.8-6.3.2.3-8.8 5.8-8.7 6 .1.2 9.1-5.6 9.2-5.3.1.2-6.2 4.4-6.1 4.5.1.2 6.9-4.2 6.9-4 .1.1-4.1 3.2-4.1 3.4.1.1 4.3-2.7 4.4-2.5 0 0-1.1 1.6-1.1 1.7l1.5-.9"/></g><g><path class="st6" d="M37.8 28.1l.1-.1c0 .1-1.6 1.8-1.6 1.9 0 0 1.9-1.2 1.9-1.1 0 .1-1.9 2-1.9 2.1 0 .1 2.8-1.7 2.8-1.6.1.1-3 2.6-2.9 2.7 0 .1 3.4-2.1 3.4-2 0 .1-1.7 1.8-1.7 1.9l1.8-1.1"/></g></g></svg>