<svg id="Layer_1" xmlns="http://www.w3.org/2000/svg" viewBox="0 0 128 128"><style>.st0{fill:#FFF}.st1{fill:#bcbdbe}.st2{fill:#666}.st3{fill:none;stroke:#6d80a3;stroke-width:.2839;stroke-linecap:round;stroke-linejoin:round}.st4{fill:#646363}</style><ellipse class="st0" cx="64" cy="64" rx="62.4" ry="64"/><path class="st1" d="M123.1 69.2h.1-.1zM122.9 69.2c-.1 0-.1 0 0 0h0zM122.9 69.2h-.1c.1-.1-.1-.1.1 0zM122.9 68.3zM122.3 68.1h-.1c.2.1 0 .1.1.1-.1.1.2.2.3.3h-.1 0c-.2 0 .1.1 0 .1h.2c.1.1.1.2.3.3h-.2c.4.1.2.2.1.2h.2c.1 0-.2-.1-.1-.1h.1s0-.1-.2-.1h.2-.2c.1-.1-.1-.2-.1-.4-.4-.1.1-.1 0-.2-.1 0-.1-.1-.1-.1h-.2c.3-.1.1-.3.3-.5.1-.2.4-.3-.1-.5h.1c-.1-.1.1-.1 0-.1-.3-.1.1-.2-.3-.4 0-.1 0-.3-.1-.5h.1c-.2-.1.3-.2.1-.3.2-.1-.4-.3-.2-.4.4-.1-.4-.2 0-.2.6-.1.2-.3-.1-.4.2-.1-.3-.3.1-.4-.3-.1.3-.1.3-.2h-.1c.3 0-.4-.1 0-.1H122.3 122.9h-.6.2-.2-.4c.2 0 .1 0 0 0h-.1c-.2 0 .4 0 0 0 .1 0 .1.1.1.1h.2c-.3 0-.3 0-.3.1 0 0-.1 0 0 0-.3 0 .3 0-.1.1.3 0-.1 0 .3.1h-.2l-.1.1c.3 0-.1.1.2.1-.1 0-.2.1-.1.1 0 0 0 .1.3.1h-.4c.2 0 .1.1.3.1h-.2c.4.1.3.2-.1.3.1 0 .4 0 .6.1h-.1s-.2 0-.1.1h-.1c.1 0-.2 0 0 .1h-.1.1-.2c-.1.2.3.3.2.5h-.1 0c-.1 0 .1.1 0 .1h-.2c.2 0-.3 0 .2.1h-.2c.1.1.1.2.1.3.4.1 0 .2.3.2h-.1c.3.1 0 .2 0 .3l.1.1h-.1c.4.1-.3.1.1.2h-.1c.2 0-.1 0 .3.1h-.1c.5.1-.2.1.1.2h-.1c.1 0 .1 0 0 0h-.1c-.3 0 0 .1 0 .2h-.2c.2 0 0 .1.1.1h-.1.1-.1c.3-.1.4-.1.4 0zM122.4 68.5zM121.9 64.1zM120.9 81.1h-.1zM120.6 81l.3.1c.2 0-.4-.1-.3-.1zM120.7 81c.1 0-.1 0-.1-.1.1.1-.1.1.1.1zM120.8 80.2z"/><path class="st1" d="M120.3 79.8h-.1c.2.1 0 .1.1.2-.1.1.1.2.2.4h-.1 0c-.2 0 .1.1 0 .1 0 0 .1 0 .2.1 0 .1.1.2.2.3h-.2c.3.2.2.2.1.3.1 0 .1 0 .2.1.1 0-.2-.1 0-.1h.1c.1 0-.2-.1-.1-.1h.1s.1-.1-.1-.1h.2c-.1 0-.1 0-.2-.1.1-.1 0-.3 0-.4-.4-.2.1-.1 0-.2-.1 0-.1-.1-.1-.1l-.1-.1c.4-.1.2-.3.3-.4.1-.2.4-.2 0-.5h.1c-.1-.1.1-.1 0-.1-.3-.2.1-.2-.2-.4.1-.1.1-.3 0-.5h.1c-.1-.2.3-.2.2-.3.2-.1-.4-.3-.1-.4.4 0-.4-.3 0-.2.6 0 .3-.2 0-.5.2-.1-.3-.3.2-.4-.2-.1.4-.1.3-.1h-.1c.3 0-.4-.1 0-.1.2 0-.5-.1-.2-.1h-.1.1c.4.1-.1-.1.4 0 0 0 .2 0 .3.1.1 0 0 0-.2-.1-.2 0-.4-.1-.6-.1h.2-.2-.4c.2 0 .1 0 0 0h-.1c-.2 0 .4.1 0 0 .1.1.1.1 0 .2.1 0 0 0 .2.1h-.3s-.1 0 0 0c-.3 0 .3.1-.1 0 .3.1-.1 0 .2.1h-.2s-.1.1-.2.1c.2.1-.1 0 .2.1-.1 0-.2 0-.1.1 0 0 0 .1.2.2-.3-.1-.3 0-.4 0 .2.1.1.1.2.2h-.2c.4.2.2.3-.1.3.1 0 .4.1.5.2h-.1-.2-.1c.1 0-.2 0 0 .1h-.1.1-.2c-.1.1.2.4.1.6h-.1l.1.1h-.1c-.1 0 .1.1 0 .1h-.1c.2.1-.3 0 .1.1h-.1c.1.1.1.2 0 .3.4.2 0 .2.3.3h-.1c.2.2-.1.2 0 .3v.1h-.1c.3.2-.4.1 0 .2h-.1c.2.1-.1 0 .3.1h-.1c.4.2-.2 0 0 .2h-.1c.1 0 .1.1 0 .1h-.1c-.3 0 0 .1 0 .2h-.1c.2.1 0 .1.1.1h-.1.1-.1c.4-.8.5-.7.5-.7zM120.4 80.3c-.1 0-.1 0 0 0zM120.7 75.8zM116.3 92.3h-.1zM116 92.1l.2.2c.3.1-.3-.2-.2-.2zM116.1 92.1c.1 0-.1-.1-.1-.1.1.1-.1.1.1.1zM116.4 91.4z"/><path class="st1" d="M116 90.9l-.1-.1c.1.2-.1.1.1.1l-.1.1c-.1.1.1.3.1.4h-.1l.1.1h-.1c-.2-.1.1.1-.1.1 0 0 .1.1.2.1 0 .1 0 .2.1.4 0 0-.1 0-.1-.1.3.2.1.2 0 .3.1 0 .1 0 .2.1.1 0-.2-.1 0-.1h.1c.1 0-.2-.1-.1-.1s.1.1.1.1.1 0-.1-.2c.2.1 0 0 .2 0-.1 0 0 0-.2-.1.1-.1 0-.3.1-.4-.3-.2.1-.1 0-.2s-.1-.1 0-.1l-.1-.1c.4 0 .2-.2.4-.3.2-.1.5-.1.1-.5h.1c0-.1.1-.1 0-.1-.2-.2.1-.2-.1-.5.1-.1.1-.3.1-.4h.1c-.1-.2.3-.1.3-.3.2 0-.3-.4 0-.4.4.1-.3-.3.1-.2.6.1.3-.2.1-.4.2 0-.2-.4.3-.3-.2-.2.4 0 .3-.1h-.1c.3.1-.3-.2.1-.1.2.1-.5-.2-.2-.1h-.1s.1 0 .2.1c0 0-.2-.1-.1-.1.4.2-.1-.1.4.1 0 0 .2.1.3.1l-.2-.1c-.2-.1-.4-.2-.5-.2l.1.1c-.1-.1-.1 0-.2-.1 0 0-.2-.1-.3-.1.2.1.1.1 0 0h-.1c-.2-.1.3.2 0 0 .1.1 0 .1 0 .2.1.1 0 0 .2.1-.2-.1-.3-.1-.3-.1-.3-.1.3.2-.1 0 .3.1-.1 0 .2.2-.1 0-.1 0-.2-.1 0 0-.1 0-.2.1.2.1-.1 0 .2.2h-.1s0 .1.2.2c-.3-.1-.3-.1-.4-.1l.2.2c-.1-.1 0 .1-.2 0 .4.3.2.3-.2.3.1.1.4.2.5.3h-.1-.2-.1c.1.1-.2 0 0 .1h-.1.1c-.1 0-.2-.1-.1-.1-.1.1.1.4 0 .6h-.1l.1.1h-.1c-.1 0 0 .1 0 .1l-.1-.1c.2.1-.3-.1.1.1l-.1-.1c.1.1 0 .2-.1.3.3.2 0 .2.2.4h-.1c.2.2-.1.2-.1.3v.1h-.1c.3.2-.4 0 0 .2l-.1-.1c.2.1-.1 0 .2.2h-.1c.4.3-.2 0 0 .2h-.1c.1 0 .1.1 0 .1h-.1c-.3-.1 0 .1-.1.2l-.1-.1c.2.1 0 .1 0 .1h-.1l.1.1-.1-.1c.2-.6.3-.5.3-.5zM115.9 91.4zM117.1 87.1c.1 0 .1 0 0 0 0 0 .1 0 0 0zM109.5 102.3v.1l-.1-.1zM109.3 102.1l.2.2c.2.1-.3-.3-.2-.2z"/><path class="st1" d="M109.3 102.1c.1 0-.1-.1-.1-.1l.1.1zM109.8 101.4z"/><path class="st1" d="M109.5 100.9l-.1-.1c.2.2-.1.1 0 .2-.1.1 0 .3 0 .4h-.1l.1.1-.1-.1c-.2-.1.1.1-.1 0l.1.1c0 .1 0 .2.1.4l-.1-.1c.2.3.1.3 0 .3.1.1.1.1.2.1.1.1-.2-.2 0-.1l.1.1c.1 0-.2-.1-.1-.1s.1.1.1.1c0-.1.1 0-.1-.2l.2.1c-.1-.1 0-.1-.1-.1.2 0 .1-.2.2-.3-.3-.3.1-.1.1-.2-.1-.1-.1-.1 0-.1l-.1-.1c.4.1.3-.2.5-.2.2-.1.5 0 .2-.5h.1c0-.1.1 0 .1-.1-.2-.3.2-.2 0-.5.1-.1.2-.2.2-.4h.1c-.1-.2.3 0 .3-.2.2 0-.2-.5.1-.4.3.2-.2-.4.1-.2.6.2.3-.1.1-.4.3 0-.1-.4.3-.3-.2-.2.4.1.3 0l-.2-.1c.2.1-.3-.3.1 0 .2.1-.4-.3-.2-.2l-.1-.1.1.1s-.2-.1-.1-.1c.4.2-.1-.1.3.2 0 0 .2.1.2.2l-.1-.1c-.2-.1-.3-.2-.5-.3l.1.1c-.1-.1-.1 0-.2-.1 0 0-.2-.1-.3-.2.2.1 0 .1 0 .1h-.1c-.2-.1.3.2 0 0v.2c.1.1 0 0 .2.1-.2-.1-.3-.2-.3-.1-.3-.2.2.2-.1 0 .2.2-.1 0 .2.2-.1 0-.1-.1-.1-.1h-.2c.2.2-.1 0 .1.2-.1 0-.2-.1-.1 0 0 0 0 .1.2.2-.3-.2-.2-.1-.3-.2.1.1 0 .1.1.2-.1-.1 0 .1-.2-.1.3.3.1.3-.2.2l.4.4s-.2-.1-.1 0h-.1c.1.1-.2-.1 0 0h-.1l.1.1c-.1 0-.2-.1-.1-.1-.2.1.1.5-.1.6h-.1l.1.1h-.1c-.1 0 0 .1 0 .1l-.1-.1c.1.2-.2-.1.1.1l-.1-.1c.1.2 0 .2-.1.2.3.3-.1.1.1.4h-.1c.2.2-.1.1-.2.3v.1l-.1-.1c.3.3-.4-.1-.1.2l-.1-.1c.2.1-.1 0 .2.2l-.1-.1c.3.3-.2-.1 0 .2l-.1-.1c0 .1.1.1 0 .1-.3-.2 0 .1-.1.1l-.1-.1c.1.1 0 .1 0 .1h-.1.1v-.2c-.1 0 0 .1 0 .2zM109.3 101.3zM111.4 97.4zM100.9 110.8l-.1-.1zM100.7 110.5l.2.2c.1.2-.3-.3-.2-.2zM100.7 110.6c.1.1 0-.1-.1-.1.1 0 0-.1.1.1zM101.3 110z"/><path class="st1" d="M101.1 109.4l-.1-.1c.1.2-.1.1 0 .2-.1 0 0 .3-.1.4v-.1l.1.1v-.1c-.2-.2 0 .2-.1 0l.1.1c0 .1-.1.2 0 .4l-.1-.1c.2.3 0 .3-.1.3.1.1.1.1.1.2.1.1-.1-.2 0-.1l.1.1s-.1-.2-.1-.1l.1.1c0-.1.1 0 0-.2.1.1 0 0 .2.1 0-.1 0-.1-.1-.2.2 0 .1-.2.2-.3-.2-.3.1 0 .1-.2v-.1l-.1-.1c.3.2.3-.1.5-.1s.5.1.3-.4v.1c0-.1.1 0 .1-.1-.1-.3.2-.1.1-.5.1-.1.2-.2.3-.4l.1.1c0-.2.3 0 .3-.1.2 0-.1-.5.1-.4.3.2-.2-.4.2-.2.5.3.4 0 .2-.4.2.1 0-.4.4-.2-.1-.2.3.2.3.1l-.1-.1c.2.2-.2-.3.1 0 .2.1-.3-.4-.1-.2l-.1-.1.1.1-.1-.1c.3.3 0-.1.3.3l.2.2-.1-.2c-.1-.2-.3-.3-.4-.4l.1.1-.1-.1s-.2-.2-.3-.2c.1.1 0 .1 0 .1l-.1-.1c-.1-.1.2.3 0 0 0 .1 0 .1-.1.1.1.1 0 0 .1.2-.2-.2-.3-.2-.3-.2-.3-.2.2.3-.1 0 .2.2-.1 0 .1.2l-.1-.1h-.2c.2.2-.1 0 .1.2-.1 0-.2-.1-.1 0 0 0 0 .1.1.3l-.3-.3c.1.1 0 .1.1.3-.1-.1 0 .1-.1-.1.2.4 0 .4-.3.2.1.1.3.3.4.5 0 0-.2-.1-.1-.1v-.1c.1.1-.2-.1 0 0v.1l-.1-.1c-.2.1 0 .5-.2.5v-.1l.1.1v-.1c-.1-.1 0 .1-.1.1l-.1-.1c.1.2-.2-.2.1.2l-.1-.1c0 .2 0 .2-.2.2.2.3-.1.1.1.4l-.1-.1c.1.3-.2.1-.2.2-.1 0 0 .1 0 .1l-.1-.1c.2.3-.3-.2-.1.2l-.1-.1c.1.2-.1 0 .2.2l-.1-.1c.3.4-.2-.1-.1.2l-.1-.1v.1c-.3-.2-.1.1-.1.1l-.1-.1c.1.2 0 .1 0 .1v-.1l.1.1-.1-.1c-.3 0-.3.1-.3.2zM100.9 109.8zM103.7 106.3z"/><g><path class="st1" d="M90.7 117.3v.1-.1zM90.6 117.1s0-.1 0 0l.1.3c.1.1-.2-.4-.1-.3z"/><path class="st1" d="M90.6 117.1c0 .1 0-.1-.1-.1.1.1 0-.1.1.1zM91.3 116.6zM91.2 116l-.1-.1c.1.2-.1 0-.1.2-.1 0-.1.3-.1.4v-.1s.1.1 0 .1v-.1c-.1-.2 0 .2-.1 0 0 0 0 .1.1.2 0 .1-.1.2-.1.4 0 0 0-.1-.1-.1.1.4 0 .3-.1.3 0 .1.1.1.1.2.1.1-.1-.2 0-.1v.1s-.1-.2 0-.1c0 .1.1.1.1.1s.1 0 0-.2c.1.2 0 0 .1.1 0-.1 0-.1-.1-.2.2 0 .2-.2.3-.2-.1-.4.1 0 .1-.1v-.1l-.1-.2c.3.2.3-.1.5 0 .2 0 .5.2.4-.4v.1c0-.1.1 0 .1-.1 0-.3.2-.1.2-.4.1 0 .3-.1.3-.3v.1c0-.2.3.1.4-.1.2.1 0-.5.2-.4.3.3-.1-.5.2-.2.4.4.4 0 .3-.3.2.1.1-.4.4-.1-.1-.3.3.2.3.1l-.1-.1c.2.2-.2-.4.1 0l-.1-.2-.1-.1.1.1s-.1-.2-.1-.1c.2.4 0-.1.2.3l.1.2-.1-.2c-.1-.2-.2-.4-.3-.5l.1.1c-.1-.1 0-.1-.1-.2 0 0-.2-.2-.2-.3.1.2 0 .1 0 .1v-.1c-.1-.2.2.3 0 0 0 .1 0 .1-.1.1.1.1 0 0 .1.2-.2-.2-.2-.3-.2-.2-.2-.3.1.3-.1-.1.2.3-.1-.1.1.2 0-.1-.1-.1-.1-.2 0 0-.1-.1-.2 0 .1.2-.1-.1 0 .3-.1-.1-.2-.2-.1 0v.3c-.2-.3-.2-.2-.2-.3.1.1 0 .1 0 .3-.1-.1 0 .1-.1-.1.1.4 0 .4-.3.1.1.1.2.4.3.5v-.1l-.1-.1v-.1c0 .1-.1-.1-.1 0v-.1.1c0-.1-.1-.2-.1-.1-.2 0-.1.4-.3.5v-.1 0c-.1-.1 0 .1-.1.1 0 0 0-.1-.1-.1.1.2-.2-.2 0 .2l-.1-.1c0 .2-.1.2-.2.2.1.4-.1.1 0 .4v-.1c.1.3-.2.1-.2.2-.1 0 0 .1-.1.1v-.1c.1.4-.3-.2-.2.2l-.1-.1c.1.2-.1 0 .1.3l-.1-.1c.2.4-.2-.1-.1.2v-.1 0c-.2-.3-.1.1-.1.1l-.1-.1c.1.2-.1 0 0 .1v-.1.1l-.1-.1c.3 0 .4.2.3.2zM90.9 116.4zM94.4 113.6z"/></g><g><path class="st1" d="M79.4 121.7v.1-.2zM79.4 121.4v.3c.1.2-.1-.4 0-.3zM79.4 121.5v-.1.1zM80.2 121.1zM80.2 120.5v-.1c0 .2-.1 0-.1.1-.1 0-.1.2-.2.4v-.1 0c-.1-.2 0 .2-.1 0v.2c-.1.1-.1.1-.2.3v-.2c0 .4-.1.3-.2.2 0 .1 0 .1.1.2s0-.2 0-.1v.1c0 .1-.1-.2 0-.1v.1s.1 0 0-.2l.1.2v-.2c.1.1.2-.2.3-.2-.1-.4.1 0 .2-.1 0-.1 0-.1.1-.1v-.2c.2.3.3 0 .5.1.2 0 .4.2.5-.3v.1c0-.1.1 0 .1-.1 0-.3.3 0 .3-.4.1 0 .3-.1.4-.2v.1c.1-.2.3.2.4 0 .2.1.1-.5.3-.3.2.3 0-.5.2-.1.3.5.3.1.4-.3.2.2.1-.4.4 0 0-.3.2.3.3.2v-.1c.1.3-.1-.4.1 0 .1.2-.1-.5 0-.2v-.1s0 .1.1.1c0 0-.1-.2 0-.1.2.4 0-.1.2.4 0 0 .1.2.1.3v-.2c-.1-.2-.1-.4-.2-.5l.1.2c-.1-.1 0-.1-.1-.2 0 0-.1-.2-.2-.3.1.2 0 .1 0 .1v-.1c-.1-.2.1.3 0 0 0 .1-.1.1-.1.1 0 .1 0 0 .1.2-.1-.2-.2-.3-.2-.3s0-.1 0 0c-.1-.3.1.3-.1-.1.1.3-.1-.1 0 .3 0-.1 0-.1-.1-.2 0 0-.1-.1-.2-.1.1.3-.1-.1 0 .3 0-.1-.1-.2-.1-.1 0 0-.1.1 0 .3-.1-.3-.1-.3-.2-.4v.3c-.1-.1 0 .1-.1-.1.1.5-.1.3-.3.1 0 .1.1.4.1.6v-.1s-.1-.2-.1-.1v-.1c0 .1-.1-.2-.1 0v-.1.1c0-.1-.1-.2 0-.2-.2 0-.2.4-.4.4v-.1 0c-.1-.1-.1.1-.1.1v-.1c0 .2-.1-.2 0 .2v-.1c0 .2-.1.2-.2.1.1.4-.1.1-.1.4v-.1c0 .3-.2 0-.3.1 0 0 0 .1-.1.1v-.1c0 .4-.2-.3-.2.1v-.1c0 .2-.1-.1 0 .3v-.1c.1.5-.1-.2-.1.1v-.1 0c-.1-.3-.1.1-.1.1v-.2c0 .2-.1 0-.1.1v-.1.1-.1c-.7.2-.7.3-.8.3zM79.8 120.8zM83.8 118.7c0 .1 0 .1 0 0 0 0 0 .1 0 0z"/></g><g><path class="st1" d="M67.5 123.7v.1-.2zM67.5 123.4v0zM67.5 123.5v-.1.1zM68.3 123.3zM68.5 122.7v-.1c0 .2-.1 0-.1.1-.1 0-.2.2-.3.3v-.1 0c0-.2-.1.1-.1 0v.2c-.1.1-.2.1-.2.3v-.2c0 .4-.1.2-.2.2v.2c0 .1 0-.2.1-.1v.1s.1 0 .1-.2c0 .2 0 0 .1.2v-.2c.1.1.2-.1.4-.1 0-.4.1.1.2-.1 0-.1 0-.1.1-.1v-.2c.2.3.3.1.5.2s.4.3.5-.2v.1c0-.1.1 0 .1 0 .1-.3.3 0 .3-.3.1 0 .3 0 .4-.1v.1c.1-.2.3.2.4.1.1.2.2-.5.3-.2.1.4.1-.4.2-.1.2.6.3.2.4-.2.2.2.2-.3.4.1 0-.3.2.3.2.2v-.1c.1.3 0-.4.1 0v-.4.1c.1.4 0-.1.1.4V122.7c0-.2 0-.4-.1-.6v0s-.1-.2-.1-.3v.1-.1c0-.2 0 .4 0 0 0 .1-.1.1-.1.1v.2l-.1-.3s0-.1 0 0c-.1-.3 0 .3-.1-.1 0 .3-.1-.1 0 .3v-.2l-.1-.1c0 .3-.1-.1-.1.3 0-.1-.1-.2-.1-.1 0 0-.1 0-.1.3-.1-.3-.1-.3-.1-.4 0 .2-.1.1-.1.3 0-.2 0 .1-.1-.2 0 .5-.2.3-.3 0v.5s-.1-.2-.1-.1v-.1c0 .1-.1-.2-.1 0v-.1-.1c-.2-.1-.3.4-.5.3v-.1 0c-.1-.1-.1.1-.1.1v-.2c0 .2-.1-.3 0 .2v-.2c-.1.2-.2.2-.2.1 0 .4-.1.1-.2.4v-.1c-.1.3-.2 0-.3.1l-.1.1v-.1c0 .4-.2-.3-.2.1v-.1c0 .2-.1-.1 0 .3v-.1c0 .5-.1-.2-.1.1v-.1c0 .1 0 .1 0 0v-.1c-.1-.3-.1 0-.2 0v-.2c0 .2-.1 0-.1.1v-.1.1-.1c-.2 0-.2.2-.3.2zM68.1 122.9zM72.4 121.7z"/></g><g><path class="st1" d="M55.4 123.3v-.1zM55.5 123l-.1.3c0 .2.1-.4.1-.3zM55.5 123v-.1.1zM56.3 123c0 .1 0 .1 0 0zM56.6 122.5v-.1c-.1.2-.1 0-.1.1-.1-.1-.2.2-.3.2v-.1 0c0-.2-.1.1-.1 0v.2c-.1 0-.2.1-.3.2v-.2c-.1.3-.2.2-.2.1v.2c0 .1.1-.2.1-.1v.1s.1.1.1-.2v0c.1.1.3-.1.4 0 .1-.4.1.1.2 0 0-.1.1-.1.1-.1v-.2c.1.3.3.1.5.3.2.1.3.4.5-.1v.1c.1-.1.1.1.1 0 .2-.3.2.1.4-.3.1 0 .3 0 .5-.1v.1c.1-.1.2.3.3.2.1.2.3-.4.4-.2 0 .4.2-.4.2 0 .1.6.3.2.4-.1.1.2.3-.3.4.1.1-.3.1.3.2.3v-.1c0 .3.1-.4.1 0 0 .2.1-.5.1-.2v-.1V122.1c0 .2 0 .1 0 0v-.1c0-.2 0 .4 0 0 0 .1-.1.1-.1.1V122s0-.1 0 0v-.1c0 .3 0-.1-.1.3v-.2l-.1-.1c0 .3-.1-.1-.1.2 0-.1 0-.2-.1-.1 0 0-.1 0-.1.3v-.4c0 .2-.1.1-.1.2v-.2c-.1.4-.2.3-.3-.1 0 .1-.1.4-.1.6v-.1-.1-.1c0 .1 0-.2-.1 0v-.1-.1c-.2-.1-.4.3-.5.2v-.1 0c0-.1-.1.1-.1 0v-.2c0 .2 0-.3-.1.2v-.2c-.1.1-.2.1-.3 0-.1.4-.2 0-.3.3v-.1c-.1.3-.2 0-.3 0l-.1.1v-.1c-.1.4-.1-.3-.2.1v-.1c0 .2 0-.1-.1.3v-.1c-.1.5-.1-.2-.2.1v-.1c0 .1 0 .1-.1 0v-.1c0-.3-.1 0-.2 0v-.2c0 .2-.1 0-.1.1v-.1.1-.1c-.1.5-.2.6-.2.6zM56.1 122.6zM60.6 122.3z"/></g><g><path class="st1" d="M43.6 120.4v.1l.1-.1z"/><path class="st1" d="M43.8 120.2s0-.1 0 0l-.1.2c-.1.2.1-.3.1-.2zM43.8 120.2c0 .1 0-.1.1-.1-.1.1-.1-.1-.1.1zM44.6 120.4z"/><path class="st1" d="M45 119.9v-.1c-.1.2-.1 0-.2.1-.1-.1-.3.1-.4.2v-.1l-.1.1v-.1c0-.2-.1.1-.1-.1 0 0 0 .1-.1.2-.1 0-.2 0-.3.2 0 0 0-.1.1-.2-.2.3-.2.2-.3.1 0 .1 0 .1-.1.2 0 .1.1-.2.1 0v.1c0 .1.1-.2.1-.1v.1s.1.1.2-.1c-.1.2 0 0 0 .2 0-.1 0 0 .1-.2.1.1.3 0 .4 0 .2-.3.1.1.2 0l.1-.1.1-.1c0 .4.3.2.4.4.1.1.2.5.5 0v.1c.1-.1.1.1.1 0 .2-.3.2.1.4-.2.1.1.3.1.5 0v.1c.2-.1.2.3.3.2.1.2.4-.3.4-.1 0 .4.3-.4.2 0 0 .6.2.3.5 0 .1.2.3-.2.4.2.1-.2 0 .4.1.3v-.1c0 .3.2-.4.1 0 0 .2.2-.5.1-.2v-.1.2s.1-.2 0-.1c-.1.4.1-.1-.1.4 0 0 0 .2-.1.3l.1-.2c.1-.2.1-.4.1-.6v0s0-.3.1-.3c-.1.2 0 .1 0 0v-.1c0-.2-.1.3 0 0-.1.1-.1 0-.2 0 0 .1 0 0-.1.2.1-.3 0-.3 0-.3s0-.1 0 0c.1-.3-.1.3 0-.1-.1.3 0-.1-.1.2v-.2s-.1-.1-.1-.2c-.1.2 0-.1-.2.2 0-.1 0-.2-.1-.1 0 0-.1 0-.2.2.1-.3 0-.3.1-.4l-.2.2v-.2c-.2.4-.3.2-.3-.1 0 .1-.1.4-.2.5v-.1-.2-.1c0 .1 0-.2-.1 0v-.1.1c0-.1.1-.2.1-.2-.1-.1-.4.2-.6.1v-.1l-.1.1v-.1c0-.1-.1.1-.1 0v-.1c-.1.2 0-.3-.1.1v-.1c-.1.1-.2.1-.3 0-.2.4-.2 0-.3.3v-.1c-.2.2-.2-.1-.3-.1h-.1v-.1c-.2.3 0-.4-.2 0v-.1c-.1.2 0-.1-.1.3v-.1c-.2.4 0-.2-.2 0v-.1c0 .1-.1.1-.1 0v-.1c.1-.3-.1 0-.2 0l.1-.1c-.1.2-.1 0-.1.1v-.1.1-.1c.5.4.4.5.4.5zM44.5 119.9zM48.9 120.5z"/></g><g><path class="st1" d="M32.7 115.3v-.1zM32.9 115l-.2.2c-.1.2.2-.3.2-.2zM32.9 115.1c0 .1.1-.1.1-.1-.1.1 0-.1-.1.1zM33.6 115.4z"/><path class="st1" d="M34.1 115l.1-.1c-.2.2-.1 0-.1.1l-.1-.1c-.1-.1-.3 0-.4.1v-.1l-.1.1v-.1c.1-.2-.1.1-.1-.1 0 0-.1.1-.1.2-.1 0-.2 0-.4.1 0 0 0-.1.1-.1-.2.3-.2.1-.3 0-.1.1 0 .1-.1.2 0 .1.2-.2.1 0v.1c0 .1.1-.2.1-.1s-.1.1-.1.1 0 .1.2-.1l-.1.2c0-.1 0 0 .1-.2.1.1.3 0 .4.1.2-.3.1.1.2 0s.1-.1.1 0l.1-.1c0 .4.2.2.3.4.1.2.1.5.5.1v.1c.1 0 .1.1.1.1.3-.2.2.2.5-.1.1.1.3.1.4.1v.1c.2-.1.1.3.3.3 0 .2.4-.3.4 0-.1.4.3-.3.2.1-.1.6.2.3.4.1 0 .2.4-.2.3.3.2-.2 0 .4.1.3v-.1c-.1.3.2-.3.1.1l.1-.2v-.1s-.1.1-.1.2c0 0 .1-.2.1-.1-.2.4.1-.1-.1.4 0 0-.1.2-.1.3l.1-.1c.1-.2.2-.4.3-.5l-.1.1c.1-.1 0-.1.1-.2 0 0 .1-.2.1-.3-.1.2-.1.1-.1 0v-.1c.1-.2-.2.3 0 0-.1.1-.1 0-.2 0-.1.1 0 0-.1.2.1-.2.1-.3.1-.3.1-.3-.2.3 0-.1-.1.3 0-.1-.2.2 0-.1.1-.1.1-.2 0 0 0-.1-.1-.2-.1.2 0-.1-.2.2 0-.1.1-.2 0-.1 0 0-.1 0-.2.2.1-.3.1-.3.1-.4l-.2.2c.1-.1-.1 0 0-.2-.3.4-.3.2-.3-.2-.1.1-.2.3-.3.5v-.1s.1-.2 0-.2v-.1c-.1.1.1-.2 0 0v-.1l-.1.1c0-.1.1-.2.1-.1-.1-.1-.4.1-.6 0v-.1l-.1.1v-.1c0-.1-.1 0-.1 0l.1-.1c-.1.2.1-.3-.1.1l.1-.1c-.1.1-.2 0-.3-.1-.3.3-.2 0-.4.2v-.1c-.2.2-.2-.1-.3-.1h-.1v-.1c-.2.3 0-.4-.2 0l.1-.1c-.1.2 0-.1-.2.2v-.1c-.3.4 0-.2-.2 0v-.1s-.1.1-.1 0c.1-.3-.1 0-.2-.1l.1-.1c-.1.1-.1 0-.1 0v-.1l-.1.1.1-.1c.8-.1.7 0 .6 0zM33.6 114.9zM37.9 116.4s-.1 0 0 0z"/></g><g><path class="st1" d="M23 108l.1-.1zM23.2 107.8c.1 0 .1 0 0 0l-.2.2c-.1.2.3-.3.2-.2z"/><path class="st1" d="M23.2 107.8c0 .1.1-.1.1-.1l-.1.1zM23.9 108.3zM24.5 108c-.1.1 0-.2-.1-.1 0-.1-.3 0-.4 0l-.1.1.1-.1c.1-.2-.1.1 0-.1l-.1.1h-.4l.1-.1c-.3.2-.3.1-.3 0l-.1.1c-.1.1.2-.1.1 0l-.1.1c0 .1.2-.2.1-.1 0 .1-.1.1-.1.1.1 0 0 .1.2-.1l-.1.2c.1-.1.1 0 .1-.1 0 .2.2.1.3.2.3-.2 0 .1.2.1.1-.1.1-.1.1 0l.1-.1c-.1.3.2.3.2.5.1.2 0 .5.5.2l-.1.1c.1 0 0 .1.1.1.3-.2.2.2.5 0 .1.1.2.2.4.2v.1c.2 0 0 .3.2.3 0 .2.5-.2.4.1-.2.3.4-.2.2.1-.3.5.1.3.4.2 0 .2.4-.1.2.3.2-.2-.1.3 0 .3l.1-.1c-.2.2.3-.3 0 .1-.1.2.3-.4.2-.2l.1-.1-.1.1s.1-.2.1-.1c-.3.3.1 0-.2.3 0 0-.1.2-.2.2l.1-.1c.1-.2.3-.3.4-.5l-.1.1c.1-.1 0-.1.1-.2 0 0 .1-.2.2-.3-.1.1-.1 0-.1 0l.1-.1c.1-.2-.2.3 0 0h-.2l-.2.2c.2-.2.2-.3.2-.3.2-.3-.2.2 0-.1-.2.2 0-.1-.2.2 0-.1.1-.1.1-.1v-.2c-.2.2 0-.1-.2.1 0-.1.1-.2 0-.1 0 0-.1 0-.2.1.2-.3.2-.2.2-.3-.1.1-.1 0-.2.1.1-.1-.1 0 .1-.1-.4.3-.4.1-.2-.2l-.4.4s.1-.2 0-.1v-.1c-.1.1.1-.2 0 0l-.1.1c0-.1.1-.1.1-.1-.1-.2-.5 0-.6-.1l.1-.1-.1.1.1-.1c.1-.1-.1 0-.1 0l.1-.1c-.2.1.1-.2-.2.1l.1-.1c-.2.1-.2 0-.2-.1-.3.3-.1-.1-.4.1l.1-.1c-.3.1-.1-.1-.3-.2 0-.1-.1 0-.1 0l.1-.1c-.3.2.1-.3-.2-.1l.1-.1c-.1.1 0-.1-.2.2l.1-.1c-.3.3.1-.2-.2 0l.1-.1c-.1 0-.1.1-.1 0 .2-.3-.1 0-.1-.1l.1-.1c-.1.1-.1 0-.1 0l.1-.1-.3-.1h.2c-.1 0-.2.1-.2 0zM24 107.9zM27.9 110.1c-.1 0-.1.1 0 0 0 0-.1 0 0 0z"/></g><g><path class="st1" d="M15 98.9v.1l.1-.1zM15.3 98.8l-.3.2c-.1.1.4-.3.3-.2zM15.2 98.8c-.1.1.1 0 .1-.1-.1.1.1 0-.1.1zM15.8 99.4c0 .1 0 .1 0 0zM16.4 99.3l.1-.1c-.2.1 0-.1-.2 0 0-.1-.3-.1-.4-.1h.1l-.1.1h.1c.2-.1-.2 0 0-.1 0 0-.1.1-.2.1s-.2-.1-.4 0l.1-.1c-.3.2-.3 0-.3-.1-.1.1-.1.1-.2.1-.1.1.2-.1.1 0l.1-.1s.2-.1.1 0c-.1 0-.1.1-.1.1.1 0 0 .1.2 0-.2.1 0 0-.1.2.1 0 .1 0 .2-.1 0 .2.2.1.3.2.3-.2 0 .1.2.1h.1l.1-.1c-.2.3.1.3.1.5s-.1.5.4.3h-.1c.1 0 0 .1.1.1.3-.1.1.2.5.1.1.1.2.2.4.3h-.1c.2 0 0 .3.1.4-.1.2.5-.1.4.2-.2.3.4-.1.2.2-.4.5 0 .4.4.3-.1.2.4 0 .2.4.2-.1-.2.3-.1.3l.1-.1c-.2.2.3-.2 0 .1-.2.2.4-.3.2-.1l.1-.1-.1.1.1-.1c-.3.3.1 0-.3.3l-.2.2.2-.1c.2-.1.3-.3.4-.4l-.1.1.1-.1s.2-.2.2-.3c-.2.1-.1 0-.1 0l.1-.1c.1-.1-.3.2 0 0-.1 0-.1 0-.1-.1-.1.1 0 0-.2.1.2-.2.2-.3.2-.3.2-.2-.3.2 0-.1-.2.2 0-.1-.2.1.1 0 .1-.1.1-.1v-.2c-.2.1 0-.1-.2.1 0-.1.1-.2 0-.1 0 0-.1 0-.3.1.3-.2.2-.2.3-.3-.1.1-.1 0-.3.1.1-.1-.1 0 .1-.1-.4.2-.4 0-.2-.3-.1.1-.3.2-.5.3l.1-.1h.1c-.1.1.1-.1 0-.1h-.1c.1 0 .1-.1.1-.1 0-.2-.5-.1-.5-.2h.1l-.1.1h.1c.1-.1-.1 0-.1-.1l.1-.1c-.2.1.2-.2-.2.1l.1-.1c-.2 0-.2-.1-.2-.2-.4.2-.1-.1-.4 0h.1c-.3.1-.1-.2-.2-.2 0-.1-.1 0-.1 0l.1-.1c-.3.2.2-.3-.2-.1l.1-.1c-.2.1 0-.1-.2.1l.1-.1c-.4.2.1-.2-.2-.1h.1-.1c.2-.2-.1-.1-.1-.1l.1-.1c-.2.1-.1 0-.1 0h.1-.1l.1-.1c-.1-.1-.3-.1-.3-.1zM16 99zM19.3 102z"/></g><g><path class="st1" d="M9 88.5h-.1l.1-.1zM9.2 88.4c.1 0 .1 0 0 0l-.2.1.2-.1zM9.2 88.4h.1c-.1 0 .1-.1-.1 0zM9.7 89.1c-.1 0-.1 0 0 0z"/><path class="st1" d="M10.3 89.1l.1-.1c-.2.1 0-.1-.1-.1 0-.1-.2-.1-.4-.2h.1c.2-.1-.2 0 0-.1 0 0-.1 0-.2.1-.1-.1-.2-.1-.4-.1 0 0 .1 0 .1-.1-.4.1-.3 0-.2-.1-.1 0-.1 0-.2.1s.2-.1.1 0h-.1s.2-.1.1 0c-.1 0-.1 0-.1.1 0 0 0 .1.2 0l-.2.1c.1 0 .1 0 .2-.1 0 .1.2.2.2.3.4-.1 0 .1.1.1H9.9c-.2.3.1.3 0 .5 0 .2-.2.5.4.4h-.1c.1 0 0 .1.1.1.3 0 .1.2.4.2 0 .1.1.3.3.4h-.1c.2 0-.1.3.1.4-.1.2.5 0 .3.2-.3.2.5 0 .1.2-.4.6 0 .6.4.5-.1.2.4.1.1.4.3-.1-.2.3-.1.3h.1c-.2.2.4-.1 0 .1-.2.1.5-.2.2-.1h.1l-.1.1s.2-.1.1-.1c-.4.2.1 0-.3.2 0 0-.2.1-.3.1l.2-.1c.2-.1.4-.2.5-.3l-.1.1c.1-.1.1 0 .2-.1 0 0 .2-.1.3-.2-.2.1-.1 0-.1 0h.1c.2-.1-.3.2 0 0-.1 0-.1 0-.1-.1-.1.1 0 0-.2.1.2-.1.3-.2.3-.2.3-.2-.3.1.1-.1-.3.1.1-.1-.2.1.1 0 .1-.1.2-.1 0 0 .1-.1.1-.2-.2.1.1-.1-.3 0 .1-.1.2-.2 0-.1 0 0-.1-.1-.3 0 .3-.2.2-.2.3-.2-.2.1-.1 0-.3 0 .1-.1-.1 0 .1-.1-.4.1-.4-.1-.1-.3-.1.1-.4.2-.5.2h.1l.1-.1h.1c-.1 0 .1-.1 0-.1h.1-.1c.1 0 .2-.1.2-.1 0-.2-.4-.2-.5-.3h.1-.1.1c.1-.1-.1 0-.1-.1 0 0 .1 0 .1-.1-.2.1.2-.2-.2 0l.1-.1c-.2 0-.2-.1-.2-.2-.4.1-.1-.1-.4 0h.1c-.3 0-.1-.2-.2-.3 0-.1-.1 0-.1-.1h.1c-.4.1.2-.3-.2-.2l.1-.1c-.2.1 0-.1-.3.1l.1-.1c-.4.2.2-.2-.1-.1h.1-.1.1c.3-.2-.1-.1-.1-.1l.1-.1c-.2.1 0-.1-.1-.1h.1-.1l.1-.1c-.4.1-.5.1-.5.1zM9.9 88.7zM12.6 92.3z"/></g><g><path class="st1" d="M5.2 77h-.1.2zM5.5 77s0-.1 0 0h-.3c-.2 0 .4-.1.3 0z"/><path class="st1" d="M5.4 77h.1c-.1 0 .1-.1-.1 0zM5.7 77.8z"/><path class="st1" d="M6.3 77.8h.1c-.2 0 0-.1-.1-.1 0-.1-.2-.2-.3-.2h.1c.2-.1-.2 0 0-.1h-.2c-.1-.1-.1-.1-.3-.2h.2c-.4 0-.2-.1-.2-.2h-.2c-.1 0 .2 0 .1.1h0-.1s0 .1.2.1l-.2.1h.2c-.1.1.1.2.2.3.4 0 0 .1.1.2.1 0 .1 0 .1.1h.2c-.3.2 0 .3-.1.5 0 .2-.3.4.3.5h-.1c.1 0 0 .1.1.1.3 0 0 .3.4.3 0 .1.1.3.2.4h-.1c.2.1-.2.3 0 .4-.1.2.5.1.3.3-.3.2.5.1.1.2-.5.3-.1.3.2.4-.2.2.4.2 0 .4.3 0-.3.2-.2.3h.1c-.3.1.4-.1 0 .1-.2.1.5-.1.2 0h.1s-.1 0-.2.1c0 0 .2-.1.1 0-.4.1.1 0-.4.2 0 0-.2.1-.3.1h.2c.2-.1.4-.1.6-.2h-.2c.2-.1.1 0 .2-.1 0 0 .2-.1.3-.1h-.1.1c.2-.1-.4.1 0 0-.1 0-.1-.1-.1-.1h-.2c.3-.1.3-.1.3-.2 0 0 .1 0 0 0 .3-.1-.3.1.1-.1-.3.1.1-.1-.3 0 .1 0 .1 0 .2-.1 0 0 .1-.1.1-.2-.3 0 .1-.1-.3 0 .1 0 .2-.1.1-.1 0 0-.1-.1-.3 0 .3-.1.3-.1.4-.1h-.3c.2-.1-.1 0 .1-.1-.5 0-.3-.1 0-.3-.1 0-.4.1-.6.1h.1s.2-.1.1-.1h.1c-.1 0 .2-.1 0-.1h.1-.1c.1 0 .2-.1.2 0 0-.2-.4-.2-.4-.4h.1-.1.1c.1-.1-.1-.1-.1-.1h.1c-.2 0 .2-.1-.2 0h.1c-.2 0-.2-.1-.1-.2-.4 0-.1-.1-.4-.1h.1c-.3 0 0-.2-.1-.3l-.1-.1h.1c-.4 0 .3-.2-.1-.2h.1c-.2 0 .1-.1-.3 0h.1c-.5.1.2-.1-.1-.1h.1-.1.1c.3-.1-.1-.1-.1-.2h.2c-.2 0 0-.1-.1-.1h.1-.1.1c-.2-.7-.3-.7-.4-.8zM6 77.4c.1 0 .1 0 0 0zM7.9 81.5z"/></g><g><path class="st1" d="M3.8 65h-.1.2zM4.1 65h0zM4 65h.1H4zM4.1 65.8zM4.7 66h.1c-.2 0 0-.1-.1-.1 0-.1-.2-.2-.3-.3h.1c.2 0-.1-.1 0-.1h-.2c-.1-.1-.1-.2-.3-.3h.2c-.3 0-.2-.1-.1-.2h-.2c-.1 0 .2 0 .1.1h0-.1s0 .1.2.1c-.2 0 0 0-.2.1h.2c-.1.1.1.2.1.4.4 0-.1.1.1.2.1 0 .1 0 .1.1h.2c-.3.2-.1.3-.2.5s-.3.4.2.5h-.1c.1 0-.1.1 0 .1.3.1 0 .3.3.3 0 .1 0 .3.1.4h-.1c.2.1-.2.2-.1.4-.2.1.4.2.2.4-.4.1.4.1.1.2-.7.2-.4.3 0 .5-.2.2.3.2-.1.4.3 0-.3.2-.2.2h.1c-.3.1.4 0 0 .1H5.1c-.4 0 .1 0-.4.1h-.3.2c.2 0 .4 0 .6-.1H5h.2s.3 0 .3-.1h-.1.1c.2 0-.4 0 0 0-.1 0-.1-.1-.1-.1h-.2c.3 0 .3-.1.3-.1s.1 0 0 0c.3-.1-.3 0 .1-.1-.3 0 .1-.1-.3 0h.2l.1-.1c-.3 0 .1-.1-.2-.1.1 0 .2-.1.1-.1 0 0 0-.1-.3-.1.3 0 .3 0 .4-.1-.2 0-.1-.1-.3-.1h.2c-.5-.1-.3-.2 0-.3h-.6.1s.2-.1.1-.1h.1c-.1 0 .2-.1 0-.1h.1-.1.2c.1-.2-.3-.3-.3-.5h.1-.1.1c.1-.1-.1-.1-.1-.1h.2c-.2 0 .3-.1-.2-.1h.2c-.1-.1-.1-.2-.1-.3-.4 0 0-.1-.4-.2h.1c-.3-.1 0-.2-.1-.3l-.1-.1h.1c-.4-.1.3-.2-.1-.2h.1-.3.1c-.5 0 .2-.1-.1-.1h.1c-.1 0-.1 0 0 0h.1c.3-.1 0-.1 0-.2h.2c-.2 0 0-.1-.1-.1h.1-.1.1c0-.2-.2-.2-.2-.3zM4.5 65.6zM5.5 69.9z"/></g><g><path class="st1" d="M4.8 52.9h.1zM5.1 53l-.3-.1c-.2 0 .4.1.3.1zM5 53h.1H5zM5 53.8zM5.5 54.1h.1c-.2-.1 0-.1-.1-.1.1-.1-.1-.2-.2-.4h.1c.2 0-.1-.1 0-.1h-.2c0-.1-.1-.2-.2-.3h.2c-.3-.1-.2-.1-.1-.2h-.2c-.1 0 .2.1 0 .1h0-.1s-.1.1.2.1h-.2c.1 0 .1 0 .2.1-.1.1.1.3 0 .4.4.1-.1.1 0 .2.1 0 .1.1.1.1h.2c-.3.1-.1.3-.3.4-.2.2-.5.3 0 .6h-.1c.1 0-.1 0 0 .1.3.2-.1.2.2.4-.1.1 0 .3 0 .5H5c.1.1-.3.2-.2.3-.2.1.4.3.1.4-.4 0 .4.2 0 .2-.6.1-.2.3.1.4-.2.1.3.3-.2.4.3.1-.4.1-.3.2h.1c-.3 0 .4.1 0 .1-.1 0 .6.1.4 0h-.1.1-.4H4.5c.2 0 .4.1.6.1h-.2H5.5c-.2 0-.1 0 0 0h.1c.2 0-.4-.1 0 0-.2-.1-.2-.1-.2-.2h-.2.3s.1 0 0 0c.3 0-.3-.1.1 0-.3 0 .1 0-.2-.1h.2l.1-.1c-.3-.1.1-.1-.2-.1.1 0 .2 0 .1-.1 0 0 0-.1-.3-.1h.4c-.2 0-.1-.1-.2-.1h.2c-.4-.2-.3-.3.1-.3-.1 0-.4-.1-.6-.1H5.5c-.1 0 .2 0 0-.1h.1-.1.2c.1-.2-.3-.4-.2-.5h.1l-.1-.1h.1c.1 0-.1-.1 0-.1h.2c-.3-.1.2-.1-.3-.2h.2c-.1-.1-.1-.2 0-.3-.4-.1 0-.2-.3-.3h.1c-.3-.1 0-.2 0-.3 0 0-.1-.1 0-.1h.1c-.4-.1.4-.1 0-.2h.1c-.2 0 .1 0-.3-.1h.1c-.5-.1.2-.1-.1-.2h.1c-.1 0-.1-.1 0-.1h.1c.3 0 0-.1 0-.2h.2c-.2-.1 0-.1-.1-.1h.1-.1.1c-.1.3-.3.2-.3.1zM5.4 53.7zM5.5 58.1z"/></g><g><path class="st1" d="M8.2 41.3h.1zM8.5 41.4c0 .1 0 .1 0 0l-.2-.1c-.3 0 .3.2.2.1z"/><path class="st1" d="M8.4 41.4c-.1 0 .1 0 .1.1 0 0 .1 0-.1-.1zM8.2 42.3c0-.1 0 0 0 0z"/><path class="st1" d="M8.7 42.7l.1.1c-.2-.1 0-.1 0-.2.1-.1-.1-.3-.1-.4h.1l-.1-.1h.1c.2.1-.1-.1.1-.1 0 0-.1-.1-.2-.1 0-.1 0-.2-.2-.3 0 0 .1 0 .2.1-.3-.2-.1-.2-.1-.3-.1 0-.1 0-.2-.1-.1 0 .2.1 0 .1h-.1c-.1 0 .2.1.1.1h-.1s-.1 0 .1.2c-.2-.1 0 0-.2 0 .1 0 0 0 .2.1-.1.1 0 .3-.1.4.3.2-.1.1 0 .2l.1.1.1.1c-.4 0-.2.3-.4.4-.2-.1-.5 0-.1.3h-.1c.1.1-.1.1 0 .1.3.2-.1.2.2.4-.2.2-.2.4-.1.5h-.1c.1.2-.3.1-.2.3-.2.1.3.4 0 .4-.4 0 .3.3 0 .2-.6 0-.3.2 0 .5-.2.1.2.4-.2.3.2.1-.4 0-.3.1h.1c-.3-.1.4.2 0 .1-.2-.1.5.2.2.1h-.1s.2.1.1.1c-.5-.1 0 .1-.5-.1 0 0-.2 0-.3-.1l.2.1c.2.1.4.1.6.2l-.2-.1c.2 0 .1 0 .2.1 0 0 .2.1.3.1-.2-.1-.1 0 0 0h.1c.2.1-.3-.1 0 0-.1-.1 0-.1 0-.2-.1 0 0 0-.2-.1.3.1.3.1.3 0 0 0 .1 0 0 0 .3.1-.3-.1.1 0-.3-.1.1 0-.2-.1.1 0 .1 0 .2.1 0 0 .1 0 .2-.1-.3-.2.1-.1-.3-.2.1 0 .2 0 .1-.1 0 0 0-.1-.2-.2.3.1.3.1.4.1l-.2-.2h.2c-.4-.2-.2-.3.2-.3-.1-.1-.4-.2-.5-.2h.4c-.1-.1.2 0 0-.1h.1-.1c.1 0 .2.1.2.1.1-.1-.2-.4-.1-.6h.1l-.1-.1h.1c.1 0-.1-.1 0-.1 0 0 .1 0 .1.1-.2-.1.3 0-.1-.1 0 0 .1 0 .1.1-.1-.1-.1-.2 0-.3-.3-.2 0-.2-.3-.3h.1c-.2-.2.1-.2.1-.3v-.1h.1c-.3-.2.4 0 0-.2l.1.1c-.2-.1.1 0-.2-.1h.1c-.4-.2.2 0 0-.2h.1c-.1 0-.1-.1 0-.1h.1c.3.1 0-.1 0-.2l.1.1c-.2-.1 0-.1-.1-.1H9l-.1-.1.1.1c-.2.1-.3 0-.3 0zM8.7 42.2zM7.9 46.6z"/></g><g><path class="st1" d="M14 30.6h-.1l.1.1z"/><path class="st1" d="M14.2 30.8s0 .1 0 0l-.2-.2c-.2 0 .3.3.2.2zM14.1 30.8c-.1 0 .1.1.1.1-.1-.1.1 0-.1-.1zM13.8 31.6c-.1 0 0 0 0 0z"/><path class="st1" d="M14.1 32.1l.1.1c-.1-.2.1-.1-.1-.1l.1-.1c.1-.1 0-.3-.1-.4h.1l-.1-.1h.1c.2.1-.1-.1.1-.1 0 0-.1-.1-.2-.1 0-.1 0-.2-.1-.4 0 0 .1 0 .1.1-.3-.3-.1-.2 0-.3-.1-.1-.1 0-.2-.1-.1 0 .2.2 0 .1l-.1-.1c-.1 0 .2.1.1.1s-.1-.1-.1-.1-.1 0 .1.2l-.2-.1.1.1c-.1 0-.1.3-.1.3.3.3-.1.1-.1.2.1.1.1.1 0 .1l.1.1c-.4 0-.2.2-.4.3-.2.1-.5.1-.2.5H13c0 .1-.1.1-.1.1.2.3-.2.2.1.5-.1.1-.2.3-.2.4h-.1c.1.2-.3.1-.3.2-.2 0 .2.4 0 .4-.4-.1.3.4-.1.2-.6-.2-.3.1-.1.4-.3 0 .1.4-.3.3.2.2-.4-.1-.3 0h.1c-.3-.1.3.2-.1 0-.2-.1.4.3.2.2l.1.1-.1-.1s.2.1.1.1c-.4-.2.1.1-.4-.2 0 0-.2-.1-.3-.1l.1.1c.2.1.4.2.5.3l.2.3c.1.1.1 0 .2.1 0 0 .2.1.3.1-.2-.1-.1-.1 0-.1h.1c.2.1-.3-.2 0 0v-.2c-.1-.1 0 0-.2-.1.2.1.3.1.3.1.3.1-.3-.2.1 0-.3-.1.1 0-.2-.2.1 0 .1.1.2.1h.2c-.2-.2.1 0-.2-.2.1 0 .2.1.1 0 0 0 0-.1-.2-.2.3.2.3.1.4.2-.1-.1 0-.1-.1-.2.1.1 0-.1.2.1-.3-.3-.1-.3.2-.3-.1-.1-.3-.2-.5-.3 0 0 .2.1.2 0h.1c-.1-.1.2.1 0 0h.1l-.1-.1c.1 0 .2.1.1.1.2-.1-.1-.5 0-.6h.1l-.1-.1h.1c.1 0 0-.1 0-.1l.1.1c-.2-.1.3.1-.1-.1l.1.1c-.1-.1 0-.2.1-.3-.3-.3 0-.1-.2-.4h.1c-.2-.2.1-.2.1-.3v-.1l.1.1c-.3-.3.4.1.1-.2l.1.1c-.2-.1.1 0-.2-.2h.1c-.4-.3.2 0 0-.2h.1s-.1-.1 0-.1c.3.1 0-.1.1-.1l.1.1c-.1-.1 0-.1 0-.1h.1l-.2.2.1.1c.1-.1 0-.2 0-.2zM14.2 31.6zM12.6 35.7s-.1 0 0 0z"/></g><g><path class="st1" d="M21.7 21.3v.1zM21.9 21.6l-.2-.2.2.2zM21.8 21.6c-.1-.1 0 .1.1.1-.1-.1.1 0-.1-.1zM21.3 22.2zM21.6 22.8c0-.1.2 0 .1-.1.1 0 0-.3 0-.4v.1l-.1-.1.1.1c.2.1-.1-.1.1 0l-.1-.1v-.4l.1.1c-.2-.3 0-.3 0-.3l-.1-.1c-.1-.1.1.2 0 .1l-.1-.1c-.1 0 .2.2.1.1-.1 0-.1-.1-.1-.1 0 .1-.1 0 .1.2-.1-.1 0 0-.2-.1 0 .1 0 .1.1.1-.2 0-.1.2-.2.3.2.3-.1 0-.1.2.1.1.1.1 0 .1l.1.1c-.3-.1-.3.2-.5.2-.2.1-.5 0-.3.5l-.1-.1c0 .1-.1 0-.1.1.1.3-.2.2 0 .5-.1.1-.2.2-.2.4V24c0 .2-.3 0-.3.2-.2 0 .1.5-.1.4-.3-.2.2.4-.1.2-.5-.3-.4.1-.2.4-.2 0 .1.4-.3.2.2.2-.3-.1-.3 0l.1.1c-.2-.2.3.3-.1 0-.2-.1.4.4.2.2l.1.1-.1-.1.1.1c-.3-.3 0 .1-.3-.2 0 0-.2-.1-.2-.2l.1.1c.2.1.3.3.4.4l-.1-.1c.1.1.1.1.2.1 0 0 .2.1.3.2-.1-.1 0-.1 0-.1l.1.1c.1.1-.3-.3 0 0v-.2l-.2-.2c.2.2.3.2.3.2.3.2-.2-.2.1 0-.2-.2.1 0-.2-.2.1 0 .1.1.1.1h.2c-.2-.2.1 0-.1-.2.1 0 .2.1.1 0 0 0 0-.1-.1-.3.3.2.2.2.3.2-.1-.1 0-.1-.1-.2.1.1 0-.1.1.1-.4-.4-.2-.4.1-.2l-.4-.4s.2.1.1.1l.1.1c-.1-.1.2.1 0 0l-.1-.1.1.1c.2-.1 0-.5.2-.6v.1l-.1-.1.1.1c.1.1 0-.1 0-.1l.1.1c-.1-.2.2.1-.1-.2l.1.1c0-.2 0-.2.1-.2-.2-.3.1-.1-.1-.4l.1.1c-.1-.3.1-.1.2-.2.1 0 0-.1 0-.1l.1.1c-.2-.3.3.1.1-.2l.1.1c-.1-.2.1 0-.2-.2l.1.1c-.3-.4.2.1 0-.2l.1.1c0-.1-.1-.1 0-.1.3.2 0-.1.1-.1l.1.1c-.1-.1 0-.1 0-.1l.1.1.3-.5v0zM21.8 22.3zM19.3 26.1s0-.1 0 0z"/></g><g><path class="st1" d="M31.1 13.8l.1.1zM31.2 14c.1.1.1.1 0 0l-.1-.2.1.2z"/><path class="st1" d="M31.2 14c-.1-.1 0 .1.1.1-.1-.1 0 .1-.1-.1zM30.6 14.6zM30.7 15.2l.1.1c-.1-.2.1 0 0-.2.1 0 .1-.3.1-.4v.1l-.1-.1v.1c.1.2 0-.2.1 0 0 0-.1-.1-.1-.2s.1-.2.1-.4l.1.1c-.1-.3 0-.3.1-.3 0-.1-.1-.1-.1-.2-.1-.1.1.2 0 .1v-.1s.1.2 0 .1c0-.1-.1-.1-.1-.1 0 .1-.1 0 0 .2-.1-.2 0 0-.1-.1 0 .1 0 .1.1.2-.2 0-.1.2-.3.3.2.4-.1 0-.1.2v.1l.1.1c-.3-.2-.3.1-.5.1s-.5-.1-.3.4v-.1c0 .1-.1 0-.1.1.1.3-.2.1-.1.5l-.3.3V16c0 .2-.3-.1-.4.1-.2-.1.1.5-.2.4-.3-.3.1.4-.2.2-.5-.4-.4 0-.3.4-.2-.1 0 .4-.4.2.1.3-.3-.2-.3-.1l.1.1c-.2-.2.2.3-.1 0-.1-.2.3.4.1.2l.1.1-.1-.1s.1.2.1.1c-.3-.3 0 .1-.3-.3l-.2-.2.1.2c.1.2.2.3.4.5l-.1-.1c.1.1.1.1.1.2 0 0 .2.2.2.3-.1-.2 0-.1 0-.1l.1.1c.1.1-.2-.3 0 0 0-.1 0-.1.1-.1-.1-.1 0 0-.1-.2l.2.2c.2.3-.2-.3.1.1-.2-.2.1.1-.1-.2 0 .1.1.1.1.1h.2c-.1-.2.1.1-.1-.3.1 0 .2.1.1 0 0 0 0-.1-.1-.3.2.3.2.2.3.3-.1-.1 0-.1-.1-.3.1.1 0-.1.1.1-.2-.4 0-.4.3-.2-.1-.1-.2-.3-.3-.5l.1.1v.1c0-.1.1.1.1 0V17c0 .1.1.2.1.1.2 0 .1-.5.3-.5v.1-.1.1c.1.1 0-.1.1-.1l.1.1c-.1-.2.2.2 0-.2l.1.1c0-.2.1-.2.2-.2-.2-.4.1-.1 0-.4v.1c-.1-.3.2-.1.2-.2.1 0 0-.1.1-.1l.1.1c-.2-.3.3.2.1-.2l.1.1c-.1-.2.1 0-.1-.3l.1.1c-.2-.4.2.1.1-.2v.1c.2.2.1-.1.1-.1l.1.1c-.1-.2.1-.1 0-.1v.1-.1l.1.1c-.1-.2-.1-.3-.1-.3zM31 14.8zM27.9 17.9z"/></g><g><path class="st1" d="M41.9 8.3v-.1.2zM42 8.6l-.1-.3c-.1-.2.1.4.1.3zM41.9 8.5v.1c0-.1.1.1 0-.1zM41.2 8.9zM41.2 9.6v.1c-.1-.2.1 0 .1-.1.1 0 .1-.2.2-.4v.1c.1.2 0-.2.1 0 0 0 0-.1-.1-.2.1-.1.1-.2.1-.4 0 0 0 .1.1.2-.1-.4.1-.3.1-.2 0-.1 0-.1-.1-.2s0 .2 0 .1v-.1s.1.2 0 .1v-.1s-.1 0 0 .2l-.1-.2c0 .1 0 .1.1.2-.1 0-.2.2-.3.2.1.4-.1 0-.2.1V9.3c-.3-.2-.3 0-.5 0s-.5-.2-.4.3v-.1c0 .1-.1 0-.1.1 0 .3-.2.1-.2.4-.1 0-.3.1-.4.3v-.1c0 .2-.3-.1-.4 0-.2-.1 0 .5-.3.3-.2-.3 0 .5-.2.1-.4-.5-.4-.1-.3.3-.2-.1-.1.4-.4.1.1.3-.3-.2-.3-.2v.1c-.1-.2.1.4-.1 0-.1-.2.2.5.1.2v.1l-.1-.1s.1.2 0 .1c-.2-.4 0 .1-.2-.3 0 0-.1-.2-.1-.3l.1.2c.1.2.2.4.3.5l-.1-.1c.1.1 0 .1.1.2 0 0 .1.2.2.3-.1-.2 0-.1 0-.1v.1c.1.2-.1-.3 0 0 0-.1.1-.1.1-.1 0-.1 0 0-.1-.2.1.2.2.3.2.3.2.3-.1-.3.1.1-.1-.3.1.1-.1-.3 0 .1.1.1.1.2 0 0 .1.1.2.1-.1-.2.1.1 0-.3.1.1.2.2.1 0 0 0 .1-.1 0-.3.2.3.1.2.2.3v-.3c.1.1 0-.1.1.1-.1-.4.1-.4.3-.1 0-.1-.1-.4-.2-.5v.1s.1.2.1.1v.1c0-.1.1.2.1 0v.1-.1c0 .1.1.2.1.2.2 0 .2-.4.4-.4v.1-.1.1c.1.1 0-.1.1-.1 0 0 0 .1.1.1-.1-.2.2.2 0-.2 0 0 0 .1.1.1 0-.2.1-.2.2-.2-.1-.4.1-.1.1-.4v.1c0-.3.2-.1.3-.2.1 0 0-.1.1-.1v.1c-.1-.4.3.2.2-.2v.1c-.1-.2.1 0-.1-.3l.1.1c-.1-.4.2.2.1-.1v.1c.1.2 0-.2.1-.2v.2c0-.2.1 0 .1-.1v.1-.1l.1.1v-.2zM41.6 9.2zM37.9 11.7z"/></g><g><path class="st1" d="M53.6 5.1V5v.2zM53.6 5.4v-.3c-.1-.2 0 .4 0 .3z"/><path class="st1" d="M53.6 5.3v.1c-.1-.1 0 .1 0-.1zM52.8 5.6zM52.6 6.2v.1c0-.2.1 0 .1-.1.2.1.3-.2.3-.3V6c.1.2 0-.2.1 0v-.2c.1-.1.2-.1.2-.3v.2c0-.4.1-.2.2-.2v-.2c0-.1 0 .2-.1.1v-.1 0s-.1 0-.1.2c0-.2 0 0-.1-.2v.2c-.1-.1-.2.1-.3.1 0 .4-.1 0-.2.1 0 .1 0 .1-.1.1V6c-.2-.3-.3 0-.5-.1-.1-.2-.3-.5-.4.1v-.1c0 .1-.1 0-.1 0-.1.3-.3 0-.3.4-.1 0-.3.1-.4.2v-.1c-.1.2-.3-.2-.4 0-.2-.1-.1.5-.3.3-.2-.3-.1.5-.2.1-.3-.5-.3-.1-.4.2-.2-.2-.2.4-.4 0 0 .3-.2-.3-.3-.2v.1c-.1-.3 0 .4-.1 0-.1-.2.1.5 0 .3v.1s0-.1-.1-.2v.1c-.1-.4 0 .1-.1-.4 0 0-.1-.2-.1-.3v.2c.1.2.1.4.1.6v-.2c0 .2 0 .1.1.2 0 0 .1.2.1.3v-.1.1c.1.2-.1-.4 0 0 0-.1.1-.1.1-.1v-.2l.1.3s0 .1 0 0c.1.3 0-.3.1.1-.1-.3.1.1 0-.3v.2s.1.1.2.1c0-.3.1.1 0-.3 0 .1.1.2.1.1 0 0 .1-.1 0-.3.1.3.1.3.1.4v-.3c0 .2 0-.1.1.2 0-.5.2-.3.3 0 0-.1-.1-.4-.1-.6V7s.1.2.1.1v.1c0-.1.1.2.1 0v.1-.1.2c.2 0 .3-.4.4-.4v.1V7v.1c.1.1.1-.1.1-.1v.2c0-.2.1.3 0-.2v.1c.1-.2.1-.2.2-.1 0-.4.1-.1.1-.4v.1c0-.3.2 0 .3-.1l.1-.1v.1c0-.4.2.3.2-.1v.1c0-.2.1.1 0-.3v.1c0-.5.1.2.1-.1v.1c0-.1 0-.1 0 0v.1c.1.3.1-.1.2-.1v.2c0-.2.1 0 .1-.1v.1-.1.1c.8-.3.8-.4.8-.4zM53.1 5.9zM48.9 7.6z"/></g><g><path class="st1" d="M65.6 4.3v-.1.2zM65.6 4.5c0 .1 0 .1 0 0v-.3.3zM65.6 4.5v0zM64.7 4.6zM64.5 5.1v.1c0-.2.1 0 .1-.1.1.2.2 0 .4-.1v-.1.1c0 .2 0-.2 0 0v-.2c.1-.1.2-.1.3-.3v.2c.1-.4.2-.2.2-.2v-.2c0-.1-.1.2-.1.1v-.1 0s-.1 0-.1.2v-.2.2c-.1-.1-.2.1-.4.1-.1.4-.1-.1-.2.1 0 .1-.1.1-.1.1V5c-.2-.3-.3-.1-.5-.2s-.3-.4-.5.1v-.1c-.1.1-.1-.1-.1 0-.1.3-.3 0-.4.3-.1 0-.3 0-.4.1v-.1c-.1.2-.2-.2-.4-.1-.1-.2-.2.4-.4.2-.1-.4-.2.4-.2 0-.2-.6-.3-.2-.4.2-.1-.2-.3.3-.4-.1 0 .3-.1-.3-.2-.3v.1c0-.3 0 .4-.1 0V5.4c0-.4 0 .1-.1-.4v-.3.8-.2.2s0 .3.1.3v-.1.1c0 .2 0-.4 0 0 0-.1.1-.1.1-.1v-.2c0 .3.1.3.1.3s0 .1 0 0c0 .3 0-.3.1.1v-.3.2l.1.1c0-.3.1.1.1-.2 0 .1.1.2.1.1 0 0 .1 0 .1-.3 0 .3 0 .3.1.4 0-.2.1-.1.1-.3v.2c.1-.5.2-.3.3 0v-.6.1s0 .2.1.1v.1c0-.1 0 .2.1 0v.1-.1.2c.2.1.3-.3.5-.3v.1-.1.1c0 .1.1-.1.1-.1v.2c0-.2.1.3.1-.2v.2c.1-.1.2-.1.3-.1.1-.4.2 0 .2-.4v.1c.1-.3.2 0 .3 0l.1-.1v.1c.1-.4.1.3.2-.1V4.9 5c.2-.4.2.3.3 0v.1c0-.1 0-.1 0 0v.1c0 .3.1 0 .2 0v.2c0-.2.1 0 .1-.1v.1-.1.1c0-.1.1-.2.1-.3zM65 5zM60.6 5.8z"/></g><g><path class="st1" d="M77.6 5.9V6zM77.5 6.2l.1-.3c.1-.2-.1.4-.1.3zM77.5 6.1v0zM76.7 6z"/><path class="st1" d="M76.4 6.6v.1c.1-.2.1 0 .1-.1.1.1.2-.1.4-.2v.1c0 .2.1-.1.1 0v-.2c.1 0 .2-.1.3-.2v.2c.2-.3.2-.2.3-.1V6c0-.1-.1.2-.1 0v-.1c0-.1-.1.2 0 .1v-.1s-.1-.1-.1.2v-.2c0 .1 0 .1-.1.2-.1-.1-.3 0-.4 0-.1.4-.1-.1-.2 0 0 .1-.1.1-.1.1l-.1.2c-.1-.4-.3-.2-.4-.3-.2-.1-.3-.4-.5 0V6c-.1.1-.1-.1-.1 0-.2.3-.2-.1-.4.2-.1-.1-.3-.1-.5 0v-.1c-.1.1-.2-.3-.3-.2-.1-.2-.3.4-.4.1 0-.4-.2.4-.2 0 0-.6-.3-.3-.4.1-.1-.2-.3.3-.4-.2-.1.3-.1-.4-.2-.3v.1c0-.3-.1.4-.1 0 0-.2-.1.5-.1.2v-.1.1c.1-.4-.1.1 0-.4v-.3c0-.1 0 0-.1.2 0 .2-.1.4-.1.6v-.2V6.4c0-.2 0-.1 0 0v.1c0 .2.1-.4 0 0l.1-.1c0-.1 0 0 .1-.2v.3s0 .1 0 0c0 .3.1-.3 0 .1.1-.3 0 .1.1-.2v.2s.1.1.1.2c.1-.3.1.1.1-.2 0 .1 0 .2.1.1 0 0 .1 0 .1-.2v.4c0-.2.1-.1.1-.2v.2c.2-.4.3-.2.3.1 0-.1.1-.4.1-.6v.4c0-.1 0 .2.1 0v.1-.1.2c.1.1.4-.3.5-.2v.1l.1-.1v.1c0 .1.1-.1.1 0v.2c.1-.2 0 .3.1-.1v.2c.1-.1.2-.1.3 0 .1-.4.2 0 .3-.3V7c.1-.3.2.1.3 0h.1v.1c.1-.4.1.4.2 0v.1c.1-.2 0 .1.1-.3V7c.1-.4 0 .2.2-.1V7c0-.1.1-.1.1 0v.1c0 .3.1 0 .2 0v.2c.1-.2.1 0 .1-.1v.1-.1.1c-.1-.6 0-.7.1-.7zM76.8 6.5zM72.4 6.4z"/></g><g><path class="st1" d="M89 9.9h.1l-.1.1z"/><path class="st1" d="M88.9 10.2l.1-.3c.1-.2-.2.4-.1.3zM88.9 10.1c0-.1 0 .1-.1.1.1-.1 0 .1.1-.1zM88.1 9.9z"/><path class="st1" d="M87.7 10.3l-.1.1c.1-.2.1 0 .2 0 .1.1.3-.1.4-.1v.1l.1-.1v.1c-.1.2.1-.1.1.1 0 0 .1-.1.1-.2.1 0 .2 0 .4-.1 0 0 0 .1-.1.2.2-.3.2-.1.3-.1 0-.1 0-.1.1-.2 0-.1-.1.2-.1 0V10c0-.1-.1.2-.1.1s.1-.1.1-.1 0-.1-.2.1c.1-.2 0 0 0-.2 0 .1 0 0-.1.2-.1-.1-.3 0-.4-.1-.2.3-.1-.1-.2 0-.2 0-.2 0-.2-.1l-.1.1c0-.4-.3-.2-.3-.4-.1-.2-.2-.5-.5-.1v-.1c-.1.1-.1-.1-.1 0-.2.2-.2-.1-.5.1-.1-.1-.3-.1-.4-.1v-.1c-.2.1-.1-.3-.3-.2 0-.2-.4.3-.4 0 .1-.4-.3.3-.2-.1.1-.6-.2-.3-.5 0-.1-.2-.4.2-.3-.2-.2.2 0-.4-.1-.3v.1c0-.2-.3.4-.2 0l-.1.2v-.1s-.1.2-.1.1c.1-.4-.1.1.1-.4 0 0 .1-.2.1-.3l-.1.2c-.1.2-.2.4-.2.5l.1-.1c-.1.2 0 .1-.1.2 0 0-.1.2-.1.3.1-.2 0-.1 0 0v.1c-.1.2.1-.3 0 0 .1-.1.1 0 .2 0 0-.1 0 0 .1-.2 0 .2 0 .3.1.3-.1.3.1-.3 0 .1.1-.3 0 .1.1-.2 0 .1 0 .1-.1.2 0 0 0 .1.1.2.1-.2 0 .1.2-.2 0 .1 0 .2.1.1 0 0 .1 0 .2-.2-.1.3-.1.3-.1.4l.2-.2c-.1.2.1-.1 0 .2.3-.4.3-.2.3.2.1-.1.2-.4.3-.5v.4c.1-.1 0 .2.1 0v.1-.1c0 .1-.1.2-.1.2.1.1.4-.2.6 0v.1l.1-.1v.1c0 .1.1 0 .1 0s0 .1-.1.1c.1-.2-.1.3.1-.1 0 0 0 .1-.1.1.1-.1.2-.1.3 0 .2-.3.2 0 .3-.2v.1c.2-.2.2.1.3.1h.1v.1c.2-.3 0 .4.2 0l-.3-.2c.1-.2 0 .1.1-.2v.1c.2-.4 0 .2.2 0v.1c0-.1.1-.1.1 0v.1c-.1.3.1 0 .2 0l-.1.1c.1-.2.1 0 .1 0v.1l.1-.1-.1.1c-.1-.1 0-.2.1-.2zM88.1 10.3zM83.8 9.3z"/></g><g><path class="st1" d="M99.4 16.2v-.1.1zM99.2 16.4l.2-.2c.1-.2-.3.3-.2.2zM99.2 16.3c0-.1-.1.1-.1.1.1-.1 0 .1.1-.1zM98.5 15.9z"/><path class="st1" d="M98 16.3l-.1.1c.2-.2.1 0 .1-.1l.1.1c.1.1.3 0 .4 0v.1l.1-.1v.1c-.1.2.1-.1 0 .1l.1-.1c.1 0 .2 0 .4-.1 0 0 0 .1-.1.1.3-.2.3-.1.3 0 .1-.1.1-.1.1-.2.1-.1-.2.2-.1 0l.1-.1c0-.1-.1.2-.1.1s.1-.1.1-.1c-.1 0 0-.1-.2.1l.1-.2-.1.1c0-.2-.3-.1-.3-.1-.3.3-.1-.1-.2-.1-.1.1-.1.1-.1 0l-.1.1c.1-.4-.2-.3-.3-.5-.1-.2-.1-.5-.5-.2v-.1c-.1 0 0-.1-.1-.1-.3.2-.2-.2-.5 0-.1-.1-.2-.2-.4-.2v-.1c-.2.1-.1-.3-.2-.3 0-.2-.4.2-.4 0 .1-.4-.4.3-.2-.1.2-.6-.1-.3-.4-.1 0-.3-.4.1-.3-.3-.2.2.1-.4 0-.3v.1c.1-.3-.3.3 0-.1.1-.2-.3.4-.2.2l-.1.1.1-.1s-.1.2-.1.1c.2-.4-.1.1.2-.4 0 0 .1-.2.2-.2l-.1.1c-.1.2-.2.3-.3.5l.1-.1c-.1.1 0 .1-.1.2 0 0-.1.2-.2.3.1-.2.1-.1.1 0v.1c-.1.2.2-.3 0 0h.2c.1-.1 0 0 .1-.2-.1.2-.1.3-.1.3-.2.3.2-.3 0 .1.2-.3 0 .1.2-.2 0 .1-.1.1-.1.2v.2c.2-.2 0 .1.2-.1 0 .1-.1.2 0 .1 0 0 .1 0 .2-.2-.5.3-.5.2-.5.3l.2-.2c-.1.1.1 0-.1.2.3-.3.3-.1.2.2.1-.1.2-.3.4-.5 0 0-.1.2 0 .2v.1c.1-.1-.1.2 0 0v.1l.1-.1c0 .1-.1.2-.1.1.1.2.5-.1.6.1v.1l.1-.1v.1c0 .1.1 0 .1 0l-.1.1c.1-.2-.1.3.1-.1l-.1.1c.2-.1.2 0 .2.1.3-.3.1.1.4-.2v.1c.2-.2.2.1.3.1h.1l-.1.1c.3-.3-.1.4.2.1l-.1.2c.1-.2 0 .1.2-.2l-.1.1c.3-.4 0 .2.2 0l-.1.1c.1 0 .1-.1.1 0-.2.3.1 0 .1.1l-.1.1c.1-.1.1 0 .1 0v.1h.2-.2.2zM98.4 16.4zM94.4 14.5z"/></g><g><path class="st1" d="M108.3 24.4v-.1l-.1.1zM108.1 24.5s-.1.1 0 0l.2-.2-.2.2zM108.1 24.5c.1-.1-.1 0-.1.1l.1-.1zM107.4 23.9s.1 0 0 0c.1 0 .1 0 0 0zM106.9 24.2c.1 0 0 .2.1.1 0 .1.3 0 .4 0h-.1l.1-.1h-.1c-.1.2.2 0 0 .1l.1-.1c.1 0 .2.1.4 0l-.1.1c.3-.2.3 0 .3.1l.1-.1c.1-.1-.2.1-.1 0l.1-.1c0-.1-.2.2-.1.1l.1-.1c-.1 0 0-.1-.2 0 .1-.1 0 0 .1-.2-.1 0-.1 0-.2.1 0-.2-.2-.1-.3-.2-.3.2 0-.1-.2-.1-.1 0-.1.1-.1 0l-.1.1c.1-.3-.1-.3-.2-.5s0-.5-.5-.3h.1c-.1 0 0-.1-.1-.1-.3.1-.1-.2-.5-.1-.1-.1-.2-.2-.4-.3l.1-.1c-.2 0 0-.3-.2-.3 0-.2-.5.1-.4-.1.2-.3-.4.2-.2-.1.3-.5-.1-.4-.4-.2 0-.2-.4 0-.2-.4-.2.2.1-.3 0-.3l-.1.1c.2-.2-.3.2 0-.1.1-.2-.4.3-.2.2l-.1.1.1-.1-.1.1c.3-.3-.1 0 .2-.3l.2-.2-.1.1-.4.4.1-.1-.1.1s-.2.2-.2.3c.1-.1.1 0 .1 0l-.1.1c-.1.1.3-.2 0 0h.2c.1-.1 0 0 .2-.1-.2.2-.2.3-.2.3-.2.3.2-.2 0 .1.2-.2 0 .1.2-.1l-.1.1v.2c.2-.2 0 .1.2-.1 0 .1-.1.2 0 .1 0 0 .1 0 .3-.1-.2.3-.2.2-.2.3.1-.1.1 0 .3-.1-.1.1.1 0-.1.1.4-.2.4 0 .2.3l.4-.4s-.1.2-.1.1l-.1.1c.1-.1-.1.2 0 0l.1-.1-.1.1c.1.2.5 0 .5.2h-.1l.1-.1-.1.1c-.1.1.1 0 .1.1l-.1.1c.2-.1-.2.2.2-.1l-.1.1c.2 0 .2 0 .2.1.3-.2.1.1.4-.1l-.1.1c.3-.1.1.2.2.2 0 .1.1 0 .1 0l-.1.1c.3-.2-.1.3.2.1l-.1.1c.2-.1 0 .1.2-.2l-.1.1c.4-.3-.1.2.2 0l-.1.1c.1 0 .1-.1.1 0-.2.3.1.1.1.1l-.1.1c.2-.1.1 0 .1 0h-.1l.1-.1-.1.1c.4.4.5.3.6.4zM107.3 24.4zM103.7 21.7z"/></g><g><path class="st1" d="M115.4 34.2v-.1l-.1.1z"/><path class="st1" d="M115.1 34.3l.3-.1c.1-.2-.4.1-.3.1zM115.1 34.2c.1 0-.1 0-.1.1l.1-.1zM114.6 33.6z"/><path class="st1" d="M114 33.7l-.1.1c.2-.1 0 .1.2.1 0 .1.3.1.4.1h-.1s.1-.1.1 0h-.1c-.2.1.2 0 0 .1 0 0 .1-.1.2-.1s.2.1.4.1c0 0-.1 0-.1.1.3-.1.3 0 .3.1.1 0 .1-.1.2-.1.1-.1-.2.1-.1 0h.1s-.2.1-.1 0c.1 0 .1-.1.1-.1-.1 0 0-.1-.2 0 .2-.1 0 0 .1-.1-.1 0-.1 0-.2.1 0-.2-.2-.2-.3-.3-.4.1 0-.1-.2-.1h-.1l-.2.1c.2-.3-.1-.3-.1-.5s.1-.5-.4-.4h.1c-.1 0 0-.1-.1-.1-.3.1-.1-.2-.4-.1 0-.1-.2-.3-.3-.3h.1c-.2 0 .1-.3-.1-.4.1-.2-.5 0-.4-.2.3-.3-.4.1-.2-.2.4-.4 0-.4-.3-.3.1-.2-.4 0-.1-.4-.3.1.2-.3.1-.3l-.1.1c.2-.2-.4.2 0-.1.2-.1-.4.3-.2.1l-.1.1.1-.1s-.2.1-.1.1c.4-.2-.1 0 .3-.3l.2-.2-.2.1c-.2.1-.3.2-.5.3l.1-.1c-.1.1-.1 0-.2.1 0 0-.2.2-.3.2.2-.1.1 0 .1 0l-.1.1c-.2.1.3-.2 0 0 .1 0 .1 0 .1.1.1-.1 0 0 .2-.1l-.2.2c-.3.2.3-.2-.1.1.2-.2-.1.1.2-.1-.1 0-.1.1-.1.1v.2c.2-.1-.1.1.3-.1-.1.1-.2.2 0 .1 0 0 .1 0 .3-.1-.3.2-.2.2-.3.3.1-.1.1 0 .3-.1-.1.1.1 0-.1.1.4-.2.4 0 .1.3.1-.1.4-.2.5-.3l-.1.1h-.1c.1 0-.1.1 0 .1h-.1.1c-.1 0-.2.1-.1.1 0 .2.5.1.5.3h-.1 0c-.1.1.1 0 .1.1l-.1.1c.2-.1-.2.2.2 0l-.1.1c.2 0 .2.1.2.2.4-.2.1.1.4 0h-.1c.3-.1.1.2.2.2 0 .1.1 0 .1.1l-.1.1c.4-.1-.2.3.2.1l-.1.1c.2-.1 0 .1.3-.1l-.1.1c.4-.2-.1.2.2.1h-.1 0c-.3.2.1.1.1.1l-.1.1c.2-.1.1.1.1 0h-.1.1l-.1.1c.2-.1.3-.1.3-.1zM114.4 34zM111.4 30.7z"/></g><g><path class="st1" d="M120.3 45.2h.1-.1zM120.1 45.2c-.1 0-.1.1 0 0l.3-.1c.1 0-.5.2-.3.1z"/><path class="st1" d="M120.1 45.2h-.1c.1 0-.1.1.1 0zM119.7 44.5z"/><path class="st1" d="M119.1 44.5h-.1c.2 0 0 .1.1.1 0 .1.2.1.4.2h-.1 0c-.2.1.2 0 0 .1 0 0 .1 0 .2-.1.1.1.2.1.3.2 0 0-.1 0-.2.1.4 0 .3.1.2.2.1 0 .1 0 .2-.1s-.2 0-.1 0h.1s-.2.1-.1 0h.1s0-.1-.2 0l.2-.1h-.2c.1-.1-.2-.2-.2-.3-.4.1 0-.1-.1-.2H119.3c.3-.3 0-.3.1-.5 0-.2.2-.4-.3-.4h.1c-.1 0 0-.1-.1-.1-.3 0 0-.2-.4-.2 0-.1-.1-.3-.2-.4h.1c-.2-.1.1-.3 0-.4.1-.2-.5-.1-.3-.3.3-.2-.5 0-.1-.2.5-.4.1-.3-.3-.4.1-.2-.4-.1-.1-.4-.3 0 .3-.3.2-.3h-.1c.3-.1-.4.1 0-.1.2-.1-.5.2-.2.1h-.1s.1 0 .1-.1c0 0-.2.1-.1 0 .4-.2-.1 0 .3-.2 0 0 .2-.1.3-.1h-.2c-.2.1-.4.2-.5.2l.1-.1c-.1.1-.1 0-.2.1 0 0-.2.1-.3.2.2-.1.1 0 .1 0h-.1c-.2.1.3-.1 0 0 .1 0 .1.1.1.1.1 0 0 0 .2-.1-.2.1-.3.2-.3.2-.3.2.3-.1-.1.1.3-.1-.1.1.3 0-.1 0-.1.1-.2.1 0 0-.1.1-.1.2.3-.1-.1.1.3 0-.1.1-.2.1 0 .1 0 0 .1.1.3 0-.3.1-.2.1-.3.2h.3c-.1.1.1 0-.1.1.4-.1.3.1.1.3.1 0 .4-.1.5-.2h-.1s-.2.1-.1.1h-.1c.1 0-.2.1 0 .1h-.1.1c-.1 0-.2.1-.2.1 0 .2.4.2.4.4h-.1 0c-.1.1.1 0 .1.1 0 0-.1 0-.1.1.2 0-.2.1.2 0 0 0-.1 0-.1.1.2 0 .2.1.2.2.4-.1.1.1.4.1h-.1c.3 0 .1.2.1.3 0 0 .1 0 .1.1h-.1c.4-.1-.3.3.1.2h-.1c.2-.1-.1.1.3-.1h-.1c.5-.1-.2.2.1.1h-.1 0c-.3.2.1.1.1.1h-.1c.2 0 0 .1.1.1h-.1.1-.1c.1.2.3.2.3.3zM119.4 44.8zM117.1 41s.1 0 0 0z"/></g><g><path class="st1" d="M123 57h-.1zM122.7 57s-.1 0 0 0h0zM122.7 57h-.1.1zM122.5 56.2zM121.9 56h-.1c.2 0 0 .1.1.1 0 .1.2.2.3.3h-.1 0c-.2.1.1 0 0 .1h.2c.1.1.1.2.3.2h-.2c.4 0 .2.1.2.2h.2c.1 0-.2 0-.1-.1h.1s0-.1-.2-.1c.2 0 0 0 .2-.1h-.2c.1-.1-.1-.2-.1-.3-.4 0 .1-.1-.1-.2-.1 0-.1 0-.1-.1h-.2c.3-.2 0-.3.2-.5.1-.2.3-.4-.2-.5h.1c-.1 0 0-.1 0-.1-.3-.1 0-.3-.4-.3 0-.1 0-.3-.2-.4h.1c-.2-.1.2-.3.1-.4.2-.2-.5-.2-.3-.3.4-.1-.4-.1-.1-.2.5-.3.2-.3-.2-.4.2-.2-.4-.2 0-.4-.3 0 .3-.2.2-.2h-.1c.3-.1-.4 0 0-.1.2-.1-.5.1-.3 0h-.1.1c.4-.1-.1 0 .4-.1 0 0 .2-.1.3-.1h-.2c-.2 0-.4.1-.6.1h.2-.2s-.2.1-.3.1h.1-.1c-.2 0 .4 0 0 0 .1 0 .1.1.1.1h.2l-.3.1s-.1 0 0 0c-.3.1.3 0-.1.1.3-.1-.1.1.3 0h-.2l-.1.1c.3 0-.1.1.3.1-.1 0-.2.1-.1.1 0 0 .1.1.3.1-.3.1-.3.1-.4.1.2 0 .1 0 .3.1-.2 0 .1 0-.2.1.5 0 .3.2 0 .3.1 0 .4 0 .6-.1h-.1s-.2.1-.1.1h-.1c.1 0-.2.1 0 .1h-.1.1-.2c0 .2.4.3.3.5h-.1 0c-.1.1.1.1.1.1h-.2c.2 0-.3.1.2 0h-.2c.2.1.2.1.1.2.4 0 .1.1.4.2h-.1c.3.1 0 .2.1.3l.1.1h-.1c.4 0-.3.2.1.2h-.1c.2 0-.1.1.3 0h-.1c.5 0-.2.1.1.1h-.1c.1 0 .1 0 0 0h-.1c-.3.1.1.1 0 .2h-.2c.2 0 0 .1.1.1h-.1.1-.1c.4.4.6.4.6.4zM122.1 56.5zM120.7 52.2z"/></g><g><path class="st2" d="M47.1 74.7c-.6-.4-1.3-.6-2.2-.6-.4 0-.7 0-1.1.1-.4.1-.7.2-.9.4-.3.2-.5.4-.7.7-.2.2-.2.5-.2 1 0 .4.1.7.4 1 .2.2.6.5.9.6.4.2.8.3 1.3.4l1.5.3c.5.1 1 .3 1.5.4.5.2.9.4 1.3.7.4.3.7.6.9 1.1.2.4.4 1 .4 1.6 0 .7-.2 1.3-.5 1.8s-.7.9-1.2 1.2c-.5.3-1 .5-1.6.7-.6.1-1.2.2-1.8.2-.7 0-1.4-.1-2.1-.3-.6-.2-1.2-.5-1.7-.8-.5-.4-.9-.8-1.2-1.4-.3-.6-.4-1.3-.4-2h1.6c0 .5.1 1 .3 1.4.2.4.5.7.8 1 .3.3.7.4 1.2.6.5.1.9.2 1.4.2.4 0 .8 0 1.2-.1.4-.1.7-.2 1.1-.4.3-.2.6-.4.8-.7.2-.3.3-.7.3-1.2 0-.4-.1-.8-.4-1.1-.2-.3-.6-.5-.9-.7-.4-.2-.8-.3-1.3-.4l-1.5-.3c-.5-.1-1-.2-1.5-.4s-.9-.4-1.3-.6c-.4-.2-.7-.6-.9-1-.2-.4-.4-.9-.4-1.5 0-.7.1-1.2.4-1.7.3-.5.6-.9 1.1-1.2.4-.3.9-.5 1.5-.7.6-.2 1.1-.2 1.7-.2.7 0 1.3.1 1.9.2.6.2 1.1.4 1.5.7.4.3.8.8 1 1.3.2.5.4 1.1.4 1.8h-1.6c-.1-1-.4-1.7-1-2.1zM53.9 76.5v1.4c.7-1.1 1.7-1.6 3-1.6.6 0 1.1.1 1.6.4.5.2.8.7 1 1.2.3-.5.7-.9 1.2-1.2.5-.3 1.1-.4 1.7-.4.5 0 .9.1 1.3.2s.7.3 1 .5c.3.2.5.5.6.8.2.3.2.8.2 1.2v6.9H64v-6.2c0-.3 0-.6-.1-.8 0-.3-.1-.5-.3-.7-.1-.2-.3-.3-.6-.4-.2-.1-.5-.2-.9-.2-.8 0-1.4.2-1.8.7-.4.4-.7 1-.7 1.7v5.9h-1.5v-6.2c0-.3 0-.6-.1-.8-.1-.3-.2-.5-.3-.7-.1-.2-.3-.3-.5-.4-.2-.1-.5-.2-.9-.2s-.8.1-1.2.3c-.3.2-.6.4-.8.7-.2.3-.3.5-.4.8.2.2.1.4.1.6v5.9h-1.5v-9.4h1.4zM75.6 86.1c-.4 0-.7-.1-1-.3-.2-.2-.4-.6-.4-1.1-.4.5-.9.9-1.5 1.1-.6.2-1.2.3-1.8.3-.4 0-.8 0-1.2-.1-.4-.1-.7-.2-1-.5-.3-.2-.5-.5-.7-.8s-.2-.7-.2-1.2.1-1 .3-1.3.4-.6.7-.8c.3-.2.6-.4 1-.5l1.2-.3c.4-.1.8-.1 1.2-.2.4 0 .7-.1 1-.2.3-.1.5-.2.7-.3.2-.2.3-.4.3-.7 0-.3-.1-.6-.2-.8-.1-.2-.3-.4-.5-.5-.2-.1-.4-.2-.7-.2-.2 0-.5-.1-.7-.1-.7 0-1.2.1-1.6.4-.4.2-.7.7-.7 1.4h-1.5c0-.6.1-1.1.4-1.5.2-.4.5-.7.9-1 .4-.2.8-.4 1.3-.5.5-.1 1-.2 1.5-.2.4 0 .8 0 1.3.1.4.1.8.2 1.1.4.3.2.6.5.8.8.2.3.3.8.3 1.3v4.8c0 .4 0 .6.1.8 0 .2.2.3.4.3.1 0 .3 0 .5-.1v1.2c-.4.2-.8.3-1.3.3zm-2.2-4.8c-.3.1-.6.1-1 .2-.3 0-.7.1-1 .1-.4.1-.7.1-.9.3-.3.1-.5.3-.7.5-.2.2-.3.5-.3.9 0 .3.1.5.2.6.1.2.2.3.4.4.2.1.4.2.6.2.2 0 .5.1.7.1.5 0 .9-.1 1.3-.2s.7-.3.9-.5c.2-.2.4-.4.5-.7.1-.2.2-.5.2-.7V81c-.3.2-.5.3-.9.3zM79.9 76.5v2c.4-.8.8-1.3 1.4-1.7.5-.4 1.2-.5 2.1-.5v1.6c-.6 0-1.1.1-1.6.3-.4.2-.8.4-1.1.7-.3.3-.5.7-.6 1.2-.1.5-.2 1-.2 1.6v4.2h-1.5v-9.4h1.5zM89 76.5v1.4h-1.9v6.2c0 .1.1.2.2.3.1.1.2.1.4.1H89v1.4h-1.2c-.4 0-.7 0-1-.1-.3-.1-.5-.2-.7-.3-.2-.1-.3-.4-.4-.6-.1-.3-.1-.6-.1-1.1v-6H84v-1.4h1.6v-2.8h1.5v2.8H89zM43.9 92.9c-.7-.5-1.4-.7-2.4-.7-.8 0-1.4.1-2 .4-.6.3-1 .7-1.4 1.2-.4.5-.6 1.1-.8 1.7-.2.6-.3 1.3-.3 2s.1 1.4.3 2.1c.2.7.4 1.2.8 1.7s.8.9 1.4 1.2c.6.3 1.2.4 2 .4.6 0 1.1-.1 1.5-.3.4-.2.8-.4 1.1-.8.3-.3.6-.7.8-1.2.2-.5.3-1 .3-1.5H47c-.2 1.6-.7 2.9-1.7 3.8-1 .9-2.3 1.4-3.9 1.4-1 0-1.9-.2-2.6-.5-.8-.3-1.4-.8-1.9-1.4-.5-.6-.9-1.3-1.1-2.1-.2-.8-.4-1.7-.4-2.7 0-.9.1-1.8.4-2.7.3-.8.7-1.6 1.2-2.2.5-.6 1.2-1.1 1.9-1.5.8-.4 1.7-.5 2.7-.5.7 0 1.3.1 1.9.3.6.2 1.1.4 1.6.8s.9.8 1.2 1.3c.3.5.5 1.1.6 1.8h-1.7c-.2-.8-.7-1.5-1.3-2zM50.7 94.7v2c.4-.8.8-1.3 1.4-1.7.5-.4 1.2-.5 2.1-.5v1.6c-.6 0-1.1.1-1.6.3-.4.2-.8.4-1.1.7-.3.3-.5.7-.6 1.2-.1.5-.2 1-.2 1.6v4.2h-1.5v-9.4h1.5zM62.4 103.5c-.7.5-1.6.8-2.7.8-.8 0-1.4-.1-2-.4-.6-.2-1-.6-1.4-1-.4-.4-.7-1-.8-1.6-.2-.6-.3-1.3-.3-2s.1-1.4.3-2c.2-.6.5-1.1.9-1.5.4-.4.9-.8 1.4-1 .5-.2 1.1-.4 1.8-.4.8 0 1.5.2 2.1.5.6.3 1 .8 1.3 1.3.3.5.6 1.1.7 1.7.1.6.2 1.2.2 1.8h-7c0 .4 0 .8.1 1.2.1.4.3.7.5 1 .2.3.6.5.9.7.4.2.8.3 1.3.3.7 0 1.2-.2 1.6-.5.4-.3.7-.8.8-1.4h1.5c-.1 1.2-.5 2-1.2 2.5zm-.4-6c-.1-.3-.3-.6-.6-.8-.2-.2-.5-.4-.8-.6-.3-.1-.7-.2-1.1-.2-.4 0-.8.1-1.1.2-.3.1-.6.3-.8.6-.2.2-.4.5-.5.8-.1.3-.2.7-.2 1h5.4c-.1-.4-.2-.7-.3-1zM73.1 104.3c-.4 0-.7-.1-1-.3-.2-.2-.4-.6-.4-1.1-.4.5-.9.9-1.5 1.1-.6.2-1.2.3-1.8.3-.4 0-.8 0-1.2-.1-.4-.1-.7-.2-1-.5-.3-.2-.5-.5-.7-.8-.2-.3-.2-.7-.2-1.2s.1-1 .3-1.3c.2-.3.4-.6.7-.8.3-.2.6-.4 1-.5l1.2-.3c.4-.1.8-.1 1.2-.2.4 0 .7-.1 1-.2.3-.1.5-.2.7-.3.2-.2.3-.4.3-.7 0-.3-.1-.6-.2-.8-.1-.2-.3-.4-.5-.5-.2-.1-.4-.2-.7-.2-.2 0-.5-.1-.7-.1-.7 0-1.2.1-1.6.4-.4.2-.7.7-.7 1.4h-1.5c0-.6.1-1.1.4-1.5.2-.4.5-.7.9-1 .4-.2.8-.4 1.3-.5.5-.1 1-.2 1.5-.2.4 0 .8 0 1.3.1.4.1.8.2 1.1.4.3.2.6.5.8.8.2.3.3.8.3 1.3v4.8c0 .4 0 .6.1.8 0 .2.2.3.4.3.1 0 .3 0 .5-.1v1.2c-.5.2-.8.3-1.3.3zm-2.2-4.7c-.3.1-.6.1-1 .2-.3 0-.7.1-1 .1-.4.1-.7.1-.9.3-.3.1-.5.3-.7.5-.2.2-.3.5-.3.9 0 .3.1.5.2.6.1.2.2.3.4.4.2.1.4.2.6.2.2 0 .5.1.7.1.5 0 .9-.1 1.3-.2s.7-.3.9-.5c.2-.2.4-.4.5-.7.1-.2.2-.5.2-.7v-1.6c-.3.2-.6.3-.9.4zM77.2 102c.1.2.3.4.6.6.2.1.5.2.8.3.3.1.6.1.9.1.2 0 .5 0 .8-.1.3 0 .5-.1.7-.2.2-.1.4-.2.6-.4.1-.2.2-.4.2-.7 0-.4-.2-.7-.5-.9-.3-.2-.7-.4-1.1-.5l-1.5-.3c-.5-.1-1-.2-1.5-.4s-.8-.5-1.1-.8c-.3-.3-.5-.8-.5-1.4 0-.5.1-.9.3-1.2.2-.3.5-.6.8-.8.3-.2.7-.4 1.1-.5.4-.1.8-.2 1.2-.2.5 0 1 0 1.5.1.4.1.8.2 1.2.5.3.2.6.5.8.9.2.4.3.9.4 1.4h-1.5c0-.3-.1-.6-.2-.8-.1-.2-.3-.4-.5-.5-.2-.1-.4-.2-.7-.3-.2-.1-.5-.1-.8-.1-.2 0-.5 0-.7.1-.2 0-.5.1-.6.2s-.4.2-.5.4c-.1.2-.2.3-.2.6s.1.5.3.7c.2.2.4.3.7.4.3.1.6.2 1 .3.4.1.7.2 1.1.2.4.1.8.2 1.1.3.4.1.7.3 1 .5.3.2.5.5.7.8s.3.7.3 1.1c0 .6-.1 1-.4 1.4-.2.4-.5.7-.9.9-.4.2-.8.4-1.3.5-.5.1-1 .1-1.4.1-.5 0-1-.1-1.5-.2s-.9-.3-1.3-.5-.7-.6-.9-1c-.2-.4-.3-.9-.4-1.5h1.5c.2.4.2.7.4.9zM92.1 103.5c-.7.5-1.6.8-2.7.8-.8 0-1.4-.1-2-.4-.6-.2-1-.6-1.4-1-.4-.4-.7-1-.8-1.6-.2-.6-.3-1.3-.3-2s.1-1.4.3-2c.2-.6.5-1.1.9-1.5.4-.4.9-.8 1.4-1 .5-.2 1.1-.4 1.8-.4.8 0 1.5.2 2.1.5.6.3 1 .8 1.3 1.3.3.5.6 1.1.7 1.7.1.6.2 1.2.2 1.8h-7c0 .4 0 .8.1 1.2.1.4.3.7.5 1 .2.3.6.5.9.7.4.2.8.3 1.3.3.7 0 1.2-.2 1.6-.5.4-.3.7-.8.8-1.4h1.5c0 1.2-.5 2-1.2 2.5zm-.3-6c-.1-.3-.3-.6-.6-.8-.2-.2-.5-.4-.8-.6-.3-.1-.7-.2-1.1-.2-.4 0-.8.1-1.1.2-.3.1-.6.3-.8.6-.2.2-.4.5-.5.8-.1.3-.2.7-.2 1H92c0-.4-.1-.7-.2-1z"/></g><g><path class="st3" d="M50.4 22.9l.8-.5c0 .1-2.1 2.7-2.1 2.7.1.1 4.7-2.8 4.7-2.7.1.2-5.3 4.5-5.3 4.6.1.2 6.9-4.2 7-4 .1.2-7.8 5.8-7.6 6 .1.2 9.6-5.8 9.7-5.6.1.2-10 7.1-9.9 7.3.2.3 11.4-7 11.6-6.7.2.3-12 8.1-11.8 8.4.2.4 14.1-8.7 14.3-8.3.2.4-15.3 9.8-15 10.3.3.5 18-11.1 18.3-10.5.3.5-18.8 11.7-18.5 12.2.2.4 21.2-12.9 21.4-12.4.3.5-22.1 13.7-21.9 14.2.3.5 24.8-15 25.1-14.5.4.7-25.6 15.6-25.3 16.2.4.7 29.3-18.1 29.8-17.2.4.7-30.2 18.1-29.8 18.8.7.8 30.6-18.7 31.1-17.8.5.9-32.2 18.9-31.7 19.8.4.7 32-19.4 32.4-18.7.4.7-33.4 19.6-32.9 20.6.6 1 33.3-20.4 33.8-19.5.5.9-34.7 20.5-34.2 21.4.5.9 33.8-20.8 34.3-19.8.4.7-35.1 20.8-34.7 21.6.5.8 34.3-21 34.8-20.1.6 1-35.7 20.9-35.2 21.9.6 1 34.5-21.3 35.1-20.2.6 1-36.8 21.9-36.4 22.6.6 1 36-22.1 36.6-21.1.5.8-37.5 22.1-37 22.9.4.8 36.6-22.2 37.1-21.4.6 1-38.2 22.5-37.7 23.3.5.9 37.3-22.7 37.8-21.8.7 1.1-37.8 22.1-37.2 23 .6 1 37.1-22.5 37.6-21.7.5.8-36 21.4-35.5 22.1.5.9 35.6-21.9 36.2-20.9.5.8-34.9 20.4-34.3 21.4.4.7 34-20.7 34.5-19.9.5.8-32.6 19.2-32.1 20.1.4.8 32.1-19.8 32.6-18.8.5.8-30.9 18.3-30.5 19.1.4.7 30.4-18.4 30.7-17.7.5.8-28.8 17.4-28.5 18 .5.9 28.9-17.7 29.3-16.9.4.6-27.9 16.7-27.5 17.4.4.7 27.3-16.6 27.7-16 .4.7-25.9 15.5-25.5 16.2.4.8 25.6-15.6 26-15 .3.5-24.3 14.8-23.9 15.4.4.6 23.9-14.4 24.1-13.9.3.6-21.9 13.6-21.7 14 .3.5 21.5-13.3 21.9-12.6.3.5-19.7 12.2-19.4 12.8.3.4 20-12.1 20.3-11.7.3.4-16.6 10.7-16.4 11.1.2.3 16-9.9 16.3-9.4.2.4-13.3 8.8-13 9.1.2.3 13.8-8.4 14-8.1.2.3-10.7 7.4-10.5 7.6.2.3 10.3-6.3 10.4-6 .1.2-8.2 6-8.1 6.2.1.2 8.1-5 8.3-4.8.1.1-4.5 3.9-4.4 4.1.1.1 5.2-3.2 5.3-3 0 0-.8 1.9-.7 2 0 0 1.3-.8 1.3-.7"/><path class="st4" d="M49.4 21.6v.1zM49.4 22.3v-.4c-.2.1.1.3 0 .4zM49.4 22.4c-.1.2 0 .2 0 .3-.1-.1.1-.3 0-.3zM50.2 32.6z"/><path class="st4" d="M53.7 32.6c-.6 0-1.3-.2-2-.2-.9-.1-1.7-.1-2.5-.2-.4 0-.8-.1-1.2-.1h-.6c-.1 0-.2 0-.3-.1-.1-.1-.1-.2-.1-.4V31.4v.1c.1-.2.2-.4.2-.6 0-.2.1-.5.2-.6 0-.1 0-.2-.1-.1.1-.3.2-.6.3-1 .1-.3.1-.7.2-1 .1-.7.3-1.4.5-2 0-.1.1-.1.1 0 .2-1.2.6-2.3.9-3.4 0-.1-.1.1-.1 0-.1.3 0 .7-.2 1v-.1c-.1.2.1.1 0 .3-.1.1 0 0-.1 0-.1.5-.3 1-.4 1.5-.1.1-.2.5-.3.7 0 .1-.1.3 0 .3-.3.9-.5 1.8-.7 2.7-.1.4-.3.9-.4 1.4-.1.2-.1.4-.2.7-.1.3-.1.8.3.9h.8c.2 0 .5.1.7.1.5.1 1 .2 1.6.2.4 0 .9 0 1.3.1l.4-.1c1.2.2 2.5.4 3.7.5 1.3.1 2.5.1 3.8.3 1.4.2 2.8.2 4.1.2 1.3 0 2.7-.1 4.1-.2h-.1c.8-.1 1.5 0 2.3-.1 1.9-.2 3.9-.4 5.7-.9.5-.1 1.1-.2 1.7-.3.6 0 1.2 0 1.8-.1.2 0 .3 0 .5-.1.1-.1.3-.2.3-.4 0-.3-.1-.6-.2-.9-.2-.6-.4-1.1-.5-1.7-.1-.5-.1-.9-.2-1.4-.1-.5-.3-.9-.4-1.3-.1-.4-.2-.9-.3-1.3-.1-.5-.3-.9-.4-1.3-.1-.5-.3-.9-.4-1.4-.1-.2-.2-.5-.5-.6-.3-.2-.6-.1-.8 0-1.2.5-2.2.7-3.2.8-.6.1-1.3.1-2 .2s-1.3.2-1.9.2c-1.2 0-2.3.1-3.4.1-1.1.1-2.3.1-3.4.2-1.1-.1-2.1-.1-3.2-.2-.5 0-1.1-.1-1.6-.1s-1.1 0-1.6-.2c-1 0-2-.4-3.1-.5v.1c-.3-.1-.8.2-1-.1-.2-.1-.5.2-.6 0-.3 0 0-.1-.2-.1-.1 0 0 .1-.2 0 0-.2-.6-.1-.6-.3.1 0-.2-.1.1-.1-.1 0-.5-.1-.5 0-.1.1-.3.1 0 .3l.1-.1.1.1c.3.1.3.2.6.3.2-.1.4 0 .5.1v.1c.1.1.4-.1.3 0 .7.1 1.5.1 2.2.2.1-.1.6.1.4-.1.2.2.7.3.9.3.4.2.5-.1.8.2.1-.1.7.2.9 0 0 0 .1.1 0 .1.7 0 1.4.1 2 .2.5-.1 1.2.2 1.6 0 .4.1.9.2 1.4.1.6 0 1.3 0 1.6-.1.2.2.4.1.6.2.4-.1 1.1 0 1.7-.1.1.1.5-.1.5.1.8-.2 1.7-.3 2.6-.4.4 0 .9-.1 1.3-.1s.9 0 1.3.1c.2-.1.5-.2.7-.3.3 0 .6 0 .9-.1.3-.1.6 0 .9-.2l.2-.1s0 .1-.1.1c.7-.1 1.3-.2 2-.5.5-.3.7.1.9.9.2.7.5 1.3.7 1.9.2.6.3 1.3.6 2l-.1-.1.3.5h-.1c.2.6.3 1.3.4 1.9 0 0-.1-.1-.1 0 .2.5.1.8.4 1 0 0 0 .1-.1 0 .1.3.3.6.4.9.1.3.2.6 0 .6-.2.1-.6.1-.9.1h-1c-1.2.3-2.4.5-3.5.8-1.5.4-3.1.5-4.7.5-.7 0-1.1.1-1.8.1-1.1.2-2.3-.1-3.5.1l.1-.1c-.2.1-.7 0-.6.2l-.2-.1c-.8.2-1.4-.1-2.4 0h.1-.7.1c-.8-.1-1.7-.1-2.6-.1l.1-.1c-.4.1-1.2-.1-1.7-.1h-.3v-.1c-.6 0-1.3 0-1.9-.1zM47 31.5zM50.7 22.3c-.1 0-.1 0 0 0-.1 0-.1 0 0 0zM79.4 31.5zM79.4 31.5c.1.1 0 0 0 0zM79.4 31.5zM79.5 31.5z"/><path class="st4" d="M79.4 31.4v.1c.1 0 .1 0 0-.1 0 0 .1.1 0 0 .1 0 .1 0 0 0 .1.1.1 0 0 0 .1 0 .2.1 0 0 .1 0 .1 0 0 0h.1c0-.1.1 0-.1 0 .1-.1.1-.1 0 0 .1-.1.1 0 .1-.1 0 0-.1 0 0 0s-.1 0 0 0c0 0-.1 0 0 0 0 0 .1 0 0 0 0 0-.1 0 0 0 0 0-.1 0 0 0h-.1s.1 0 0 0h-.1c-.1 0 .1 0 0 0h-.1c.1 0 0 0 0 0h.1c.1-.1.2 0 .1.1v-.1c.1 0 0-.1 0 .1v-.1c.1 0 .1 0 0 .1.1-.1 0-.1 0 0 .1-.1.1-.1 0 0 .1-.1.1-.1 0 0 .1 0 0-.1 0 0 .1 0 0-.1 0 0 .1 0 0-.1 0 0 .1 0 .1 0 0 0 0-.1 0 0 0 0s0-.1 0 0zM79.4 31.4zM79.4 31.2zM78.3 31.7zM78.3 31.7c0 .1 0 0 0 0zM78.3 31.7zM78.3 31.7zM78.3 31.6s0-.1 0 0c0-.1 0 0 0 0v0c0 .1-.1.1-.1.1.1-.1.1 0 .1-.1 0 .1 0 0 0 0 0 .1.1 0 0 0 .1.1.1.1 0 0 .1 0 .1.1 0 0 .1 0 .1.1 0 0 .1 0 .1.1 0 0h.1s0-.1 0 0 0-.1 0 0c0 0 0-.1 0 0 0 0 0 .1 0 0 0 0 0-.1 0 0 0 0 0-.1 0 0v-.1s0 .1 0 0v-.1c0-.1 0 .1 0 0 0 .1 0 0 0 0v-.1c0 .1 0 0 0 0v.1s0 .1 0 0c0 .1 0 .1-.1.2.1 0 .1-.1 0 0 .1 0 .1-.1 0 0 .1 0 .1 0 0 0 .1 0 .1-.1 0 0 .1 0 .1-.1 0 0 .1.1.1-.1 0 0 .1 0 .1 0 0 0 .1-.1.1 0 0 0 .1 0 0 0 0 0zM78.3 31.6zM78.6 31.5zM77.2 31.7zM77.2 31.7c0 .1 0 0 0 0zM77.2 31.7zM77.2 31.7zM77.2 31.6v0c0 .1 0 .1-.1.1.1 0 .1 0 .1-.1 0 0 0 .1 0 0 0 .1 0 0 0 0 0 .1 0 0 0 0 0 .1.1.1 0 0 .1.1.1.1 0 0 .1 0 .1.1 0 0 .1 0 .1.1 0 0h.1s0-.1 0 0 0-.1 0 0c0 0 0-.1 0 0 0 0 0 .1 0 0 0 0 0-.1 0 0 0 0 0-.1 0 0v-.1s0 .1 0 0v-.1c0-.1 0 .1 0 0 0 .1 0 0 0 0v-.1c0 .1 0 .1 0 0v.1s0 .1 0 0c0 .1 0 .1-.1.2.1 0 .1-.1 0 0 .1 0 .1 0 0 0 .1 0 .1 0 0 0 .1 0 0-.1 0 0 0 0 0-.1 0 0s0-.1 0 0c0-.1 0 0 0 0zM77.2 31.6zM77.4 31.5zM76.1 31.9zM76.1 31.9c0 .1 0 0 0 0zM76.1 31.9zM76.1 31.9zM76.1 31.8s0-.1 0 0c0-.1 0 0 0 0v0c0 .1 0 0 0 0 .1.1.1.1 0 0 .1 0 .1 0 0 0 .1 0 .1 0 0 0 .1 0 .1 0 0 0h.1s0-.1 0 0 0-.1 0 0c0 0 0-.1 0 0 0 0 0 .1 0 0 0 0 0-.1 0 0 0 0 0-.1 0 0v-.1s0 .1 0 0v-.1c0-.1 0 .1 0 0v-.1c0 .1 0 .1 0 0v.2l-.1.1c.1-.1.1-.1 0 0 .1-.1.1-.2 0 0 .1-.1.1-.1 0 0 .1-.1.1-.1 0 0 .1-.1.1-.1 0 0 .1 0 .1-.1 0 0 .1-.1.1 0 0 0 .1 0 0-.1 0 0 0 0 0-.1 0 0 0 0 0-.1 0 0 0-.1 0 0 0 0s0-.1 0 0zM76.1 31.8zM76.3 31.6zM75 32.1zM75 32.1c0 .1 0 0 0 0zM75 32.1zM75 32.1zM75 32v0c0 .1 0 .1 0 0 0 .1 0 0 0 0 0 .1 0 0 0 0 .1.1.1.1 0 0 .1 0 .1 0 0 0 .1 0 .1.1 0 0 .1 0 .1 0 0 0h.1s0-.1 0 0 0-.1 0 0c0 0 0-.1 0 0 0 0 0 .1 0 0 0 0 0-.1 0 0 0 0 0-.1 0 0v-.1s0 .1 0 0v-.1c0-.1 0 .1 0 0v-.1c0 .1 0 .1 0 0v.2l-.1.1c.1-.1.1-.1 0 0 .1-.1.1-.2 0 0 .1-.1.1-.1 0 0 .1-.1.1-.1 0 0 .1 0 .1-.1 0 0 .1 0 .1-.1 0 0 .1-.1.1 0 0 0 .1 0 0-.1 0 0 0 0 0-.1 0 0 0 0 0-.1 0 0 0-.1 0 0 0 0 0-.1 0 0 0 0zM75 32zM75.2 31.8z"/><g><path class="st4" d="M73.9 32.3v.1-.1zM73.9 32.3c0 .1 0 0 0 0zM73.9 32.3zM73.9 32.3zM73.9 32.2v0c0 .1 0 .1 0 0 0 .1 0 .1 0 0 0 .1 0 .1 0 0 .1.1.1.1 0 0 .1.1.1.1 0 0 .1 0 .1.1 0 0 .1 0 .1.1 0 0h.1s0-.1 0 0 0-.1 0 0c0 0 0-.1 0 0 0 0 0 .1 0 0 0 0 0-.1 0 0 0 0 0-.1 0 0v-.1s0 .1 0 0V32c0-.1 0 .1 0 0v-.1c0 .1 0 .1 0 0v.2l-.1.1c.1-.1.1-.1 0 0 .1-.1.1-.2 0 0 .1-.1.1-.1 0 0 .1-.1.1-.1 0 0 .1 0 .1-.1 0 0 .1 0 .1 0 0 0 .1 0 .1 0 0 0 .1 0 0-.1 0 0 0 0 0-.1 0 0s0-.1 0 0c0-.1 0 0 0 0zM73.9 32.2zM74.1 32z"/></g><g><path class="st4" d="M72.8 32.5zM72.7 32.5c.1.1 0 0 0 0zM72.7 32.5c.1 0 0 0 0 0zM72.8 32.5zM72.8 32.4v0c0 .1 0 .1 0 0 0 .1 0 0 0 0 0 .1.1.1 0 0 .1 0 .1.1 0 0 .1 0 .1.1 0 0 .1 0 .1.1 0 0h.1s0-.1 0 0 0-.1 0 0c0 0 0-.1 0 0 0 0 0 .1 0 0 0 0 0-.1 0 0 0 0 0-.1 0 0v-.1s0 .1 0 0v-.1c0-.1 0 .1 0 0 0 .1 0 0 0 0v-.1c0 .1 0 .1 0 0v.1s0 .1 0 0c0 .1 0 .1-.1.2.1-.1.1-.2 0 0 .1-.1.1-.1 0 0 .1-.1.1-.1 0 0 .1 0 .1-.1 0 0 .1 0 .1 0 0 0 0 0 0-.1 0 0 0 0 0-.1 0 0s0-.1 0 0c0-.1 0 0 0 0zM72.8 32.4zM73 32.2z"/></g><g><path class="st4" d="M71.6 32.7zM71.6 32.7s0-.1 0 0zM71.6 32.7s0-.1 0 0c0 0 0-.1 0 0zM71.7 32.6zM71.7 32.5c0 .1 0 0 0 0s0 .1 0 0c0 .1 0 .1 0 0 0 .1 0 .1 0 0 0 0 0 .1 0 0 0 .1 0 .1 0 0v.1c-.1 0-.1 0 0-.1v0c0 .1 0 .1 0 0 0 .2 0 .1 0 0 0 .1 0 .2 0 0 0 .1 0 .1 0 0 0 .1.1.1 0 0 .1.1.1.1 0 0h.1s0-.1 0 0 0-.1 0 0c0 0 0-.1 0 0 0 0 0 .1 0 0 0 0 0-.1 0 0 0 0 0-.1 0 0v-.1s0 .1 0 0v-.1c0-.1 0 .1 0 0 0 .1 0 0 0 0v-.1c0 .1 0 .1 0 0v.1s0 .1 0 0c0 .2 0 .2-.1.2.1 0 .1-.1 0 0 .1 0 .1 0 0 0 .1 0 .1 0 0 0 .1 0 .1 0 0 0 .1.1 0 0 0 0 0 .1 0 0 0 0 0 .1 0 0 0 0 0 .1 0 0 0 0 0 .1 0 .1 0 0 0 .1 0 0 0 0zM71.7 32.6zM71.9 32.4z"/></g><g><path class="st4" d="M70.5 32.8zM70.5 32.8s0-.1 0 0zM70.5 32.8s0-.1 0 0c0 0 0-.1 0 0zM70.6 32.7zM70.6 32.6c0 .1 0 0 0 0-.1 0-.1.1 0 0-.1.1-.1.1 0 0-.1.1-.1.1 0 0-.1 0-.1.1 0 0-.1.1-.1.1 0 0v.1c-.1 0-.1 0 0-.1 0 .1-.1.1-.1.1s0 .1.1-.1c0 .1 0 .1 0 0 0 .2 0 .1 0 0 0 .2 0 .2 0 0 0 .1 0 .1 0 0 0 .1 0 .1 0 0 0 .1 0 .1 0 0h.1s0-.1 0 0 0-.1 0 0c0 0 0-.1 0 0 0 0 0 .1 0 0 0 0 0-.1 0 0 0 0 0-.1 0 0v-.1s0 .1 0 0v-.1c0-.1 0 .1 0 0 0 .1 0 0 0 0v-.1c0 .1 0 .1 0 0v.1s0 .1 0 0c0 .2 0 .2-.1.2 0 .1 0 0 0 0 0 .1 0 0 0 0 0 .1 0 0 0 0 0 .1 0 0 0 0 0 .1 0 .1 0 0 0 0 0 .1 0 0 0 .1 0 0 0 0zM70.5 32.7zM70.8 32.5z"/></g><g><path class="st4" d="M69.4 32.8v.1-.1zM69.4 32.8c0 .1 0 0 0 0zM69.4 32.8zM69.4 32.8zM69.4 32.7v0c0 .1-.1.1-.1.1.1-.1.1 0 .1-.1 0 .1 0 .1 0 0 0 .1 0 .1 0 0 0 .1.1.1 0 0 .1.1.1.1 0 0 .1.1.1.1 0 0 .1.1.1.1 0 0 .1 0 .1.1 0 0h.1s0-.1 0 0 0-.1 0 0c0 0 0-.1 0 0 0 0 0 .1 0 0 0 0 0-.1 0 0 0 0 0-.1 0 0v-.1s0 .1 0 0v-.1c0-.1 0 .1 0 0 0 .1 0 0 0 0v-.1c0 .1 0 0 0 0v.1s0 .1 0 0c0 .1 0 .1-.1.2.1 0 .1-.1 0 0 .1 0 .1 0 0 0 .1 0 .1 0 0 0 .1 0 .1-.1 0 0 .1 0 .1 0 0 0 .1.1.1 0 0 0 .1 0 .1 0 0 0 .1 0 .1 0 0 0 .1-.1.1 0 0 0zM69.4 32.7zM69.7 32.6z"/></g><g><path class="st4" d="M68.3 32.9zM68.3 32.8c0 .1 0 0 0 0zM68.3 32.8c0 .1 0 0 0 0zM68.3 32.8zM68.3 32.7c0 .1 0 .1 0 0 0 .1 0 .1 0 0 0 .1 0 .1 0 0 0 0 0 .1 0 0 0 .1 0 .1 0 0v0c0 .1-.1.1-.1.1.1.1.1 0 .1-.1 0 .1 0 .1 0 0 0 .1 0 .1 0 0 0 .1 0 .1 0 0 0 .1 0 .1 0 0 .1.1.1.2 0 0 .1.1.1.1 0 0 .1.1.1.1 0 0 .1.1.1.1 0 0h.1s0-.1 0 0 0-.1 0 0c0 0 0-.1 0 0 0 0 0 .1 0 0 0 0 0-.1 0 0 0 0 0-.1 0 0v-.1s0 .1 0 0v-.1c0-.1 0 .1 0 0 0 .1 0 0 0 0v-.1c0 .1 0 0 0 0v.1s0 .1 0 0c0 .2 0 .2-.1.2.1 0 .1 0 0 0 .1.1.1 0 0 0 .1 0 .1 0 0 0 .1.1.1 0 0 0 .1 0 0 0 0 0 .1.1 0 0 0 0s0 .1 0 0zM68.3 32.8zM68.5 32.6z"/></g><g><path class="st4" d="M67.1 32.9zM67.1 32.9s0-.1 0 0zM67.1 32.9s0-.1 0 0zM67.2 32.9zM67.2 32.8s0-.1 0 0c0-.1 0 0 0 0v.1c-.1 0-.1-.1 0-.1 0 .1-.1.1-.1.1.1 0 .1 0 .1-.1 0 0 0 .1 0 0 0 .1 0 .1 0 0 0 .1 0 0 0 0 0 .1 0 .1 0 0 .1 0 .1.1 0 0 .1 0 .1.1 0 0h.1s0-.1 0 0 0-.1 0 0c0 0 0-.1 0 0 0 0 0 .1 0 0 0 0 0-.1 0 0 0 0 0-.1 0 0v-.1s0 .1 0 0v-.1c0-.1 0 .1 0 0 0 .1 0 0 0 0v-.1c0 .1 0 0 0 0v.1s0 .1 0 0c0 .1 0 .1-.1.2.1 0 .1-.1 0 0 .1 0 .1-.1 0 0 0-.1 0 0 0 0s0-.1 0 0c0 0 0-.1 0 0 0 0 0-.1 0 0 0-.1 0 0 0 0s0-.1 0 0c0-.1 0 0 0 0zM67.2 32.8zM67.4 32.7z"/></g><g><path class="st4" d="M66 32.9zM66 32.9c0 .1 0 0 0 0zM66 32.9zM66.1 32.9zM66.1 32.8c-.1 0-.1 0 0 0-.1 0-.1 0 0 0-.1 0-.1 0 0 0-.1 0-.1 0 0 0-.1 0-.1 0 0 0v.1c-.1 0-.1 0 0-.1 0 .1-.1.1-.1.1l.1-.1s0 .1 0 0c0 .1 0 .1 0 0 0 .1 0 .1 0 0 0 .1 0 .1 0 0 0 .1 0 .1 0 0 0 .1 0 .1 0 0 0 .1 0 .1 0 0 0 0 .1.1 0 0h.1s0-.1 0 0 0-.1 0 0c0 0 0-.1 0 0 0 0 0 .1 0 0 0 0 0-.1 0 0 0 0 0-.1 0 0v-.1s0 .1 0 0v-.1c0-.1 0 .1 0 0 0 .1 0 0 0 0v-.1c0 .1 0 0 0 0v.1s0 .1 0 0c0 .1 0 .1-.1.2.1 0 .1-.1 0 0 0 0 0-.1 0 0 0-.1 0 0 0 0zM66 32.8zM66.3 32.7z"/></g><g><path class="st4" d="M64.9 33v-.1zM64.9 32.9c0 .1 0 0 0 0zM64.9 32.9zM64.9 32.9zM65 32.8c-.1 0-.1 0 0 0-.1 0-.1 0 0 0-.1 0-.1 0 0 0-.1 0-.1 0 0 0-.1 0-.1 0 0 0-.1 0-.1.1 0 0-.1 0-.1 0 0 0v.1c-.1 0-.1 0 0-.1 0 .1-.1.1-.1.1l.1-.1c-.1 0-.1.1 0 0-.1.1-.1.1 0 0-.1.1-.1.1 0 0 0 .1 0 .1 0 0 0 .1 0 .2 0 0 0 .1 0 .1 0 0 0 .1 0 .1 0 0 0 0 0 .1 0 0h.1s0-.1 0 0 0-.1 0 0c0 0 0-.1 0 0 0 0 0 .1 0 0 0 0 0-.1 0 0 0 0 0-.1 0 0v-.1s0 .1 0 0v-.1c0-.1 0 .1 0 0 0 .1 0 0 0 0v-.1c0 .1 0 0 0 0v.1s0 .1 0 0c0 .2-.1.2-.1.2s0-.1 0 0 0-.1 0 0zM64.9 32.8zM65.2 32.7z"/></g><g><path class="st4" d="M63.8 33zM63.8 32.9c0 .1 0 0 0 0zM63.8 32.9zM63.8 32.9zM63.8 32.8c0 .1 0 0 0 0 0 .1 0 .1 0 0 0 .1 0 .1 0 0 0 0 0 .1 0 0 0 .1 0 .1 0 0v0c0 .1-.1.1-.1.1.1.1.1 0 .1-.1 0 .1 0 .1 0 0 0 .1 0 .1 0 0 0 .1 0 .1 0 0 0 .1 0 .1 0 0 .1.1.1.2 0 0 .1.1.1.1 0 0 .1.1.1.1 0 0 .1.1.1.1 0 0h.1s0-.1 0 0 0-.1 0 0c0 0 0-.1 0 0 0 0 0 .1 0 0 0 0 0-.1 0 0 0 0 0-.1 0 0v-.1s0 .1 0 0v-.1c0-.1 0 .1 0 0 0 .1 0 0 0 0v-.1c0 .1 0 0 0 0v.1s0 .1 0 0c0 .2 0 .2-.1.2.1 0 .1 0 0 0 .1.1.1 0 0 0 .1 0 .1 0 0 0 .1.1.1 0 0 0 .1 0 .1 0 0 0 .1.1.1 0 0 0 .1 0 .1 0 0 0 .1 0 .1 0 0 0zM63.8 32.9zM64.1 32.7z"/></g><g><path class="st4" d="M62.6 33zM62.6 32.9c0 .1 0 0 0 0zM62.6 32.9c0 .1 0 0 0 0zM62.7 32.9zM62.7 32.8c0 .1 0 0 0 0s0 .1 0 0c0 .1 0 .1 0 0 0 .1 0 .1 0 0 0 .1 0 .1 0 0 0 0 0 .1 0 0 0 .1 0 .1 0 0v0l-.1.1c.1.1.1 0 .1-.1 0 .1 0 .1 0 0 0 .1 0 .1 0 0 0 .1 0 .1 0 0 0 .1 0 .1 0 0 0 .1 0 .2 0 0 .1.1.1.1 0 0 .1.1.1.1 0 0 .1.1.1.1 0 0h.1s0-.1 0 0 0-.1 0 0c0 0 0-.1 0 0 0 0 0 .1 0 0 0 0 0-.1 0 0 0 0 0-.1 0 0v-.1s0 .1 0 0v-.1c0-.1 0 .1 0 0 0 .1 0 0 0 0v-.1c0 .1 0 0 0 0v.1s0 .1 0 0c0 .2 0 .2-.1.2.1 0 .1 0 0 0 .1.1.1 0 0 0 .1 0 .1 0 0 0 .1.1 0 0 0 0 0 .1 0 0 0 0 0 .1 0 .1 0 0zM62.7 32.9zM62.9 32.7z"/></g><g><path class="st4" d="M61.5 33zM61.5 32.9c0 .1 0 0 0 0zM61.5 32.9c0 .1 0 0 0 0zM61.6 32.9zM61.6 32.8c0 .1 0 0 0 0-.1.1-.1.1 0 0-.1.1-.1.1 0 0-.1 0-.1.1 0 0-.1.1-.1.1 0 0v.1c-.1 0-.1 0 0-.1-.1.2-.1.1 0 0l-.1.1c0 .1 0 0 .1-.1 0 .1 0 .1 0 0 0 .1 0 .1 0 0 0 .1 0 .1 0 0 0 .1 0 .2 0 0 0 .1 0 .1 0 0 0 .1 0 .1 0 0 0 .1 0 .1 0 0h.1s0-.1 0 0 0-.1 0 0c0 0 0-.1 0 0 0 0 0 .1 0 0 0 0 0-.1 0 0 0 0 0-.1 0 0v-.1s0 .1 0 0v-.1c0-.1 0 .1 0 0 0 .1 0 0 0 0v-.1c0 .1 0 0 0 0v.1s0 .1 0 0c0 .2 0 .2-.1.2.1 0 .1 0 0 0 0 .1 0 0 0 0 0 .1 0 0 0 0 0 .1 0 0 0 0 0 .1 0 .1 0 0zM61.5 32.9zM61.8 32.7z"/></g><g><path class="st4" d="M60.4 32.9v.1-.1zM60.4 32.9c0 .1 0 0 0 0zM60.4 32.9zM60.4 32.9zM60.4 32.8c0 .1 0 .1 0 0 0 .1 0 .1 0 0 0 .1 0 .1 0 0l-.1.1c.1 0 .1 0 .1-.1 0 0 0 .1 0 0 0 .1 0 .1 0 0 0 .1.1.1 0 0 .1.1.1.2 0 0 .1.1.1.1 0 0 .1.1.1.1 0 0 .1 0 .1.1 0 0h.1s0-.1 0 0 0-.1 0 0c0 0 0-.1 0 0 0 0 0 .1 0 0 0 0 0-.1 0 0 0 0 0-.1 0 0v-.1s0 .1 0 0v-.1c0-.1 0 .1 0 0 0 .1 0 0 0 0v-.1c0 .1 0 0 0 0v.1s0 .1 0 0c0 .2 0 .2-.1.2.1 0 .1-.1 0 0 .1 0 .1 0 0 0 .1 0 .1 0 0 0 .1 0 .1-.1 0 0 .1 0 .1 0 0 0 .1.1.1 0 0 0 .1 0 .1 0 0 0 .1-.1.1 0 0 0 .1 0 .1 0 0 0zM60.4 32.8zM60.7 32.7z"/></g><g><path class="st4" d="M59.2 32.9v-.1zM59.2 32.8c0 .1.1 0 0 0zM59.2 32.8s.1 0 0 0c0 0 .1 0 0 0zM59.3 32.8z"/><path class="st4" d="M59.3 32.7s0 .1 0 0c0 0 0 .1 0 0 0 0 0 .1 0 0 0 .1 0 .1 0 0 0 .1 0 .1 0 0 0 .1 0 .1 0 0l-.1.1c.1 0 .1 0 .1-.1 0 0 0 .1 0 0 0 .1 0 .1 0 0 0 .1 0 .1 0 0 0 .1 0 .2 0 0 .1.1.1.1 0 0 .1.1.1.1 0 0 .1.1.1.1 0 0 .1.1.1 0 .1 0s0-.1 0 0 0-.1 0 0c0 0 0-.1 0 0 0 0 0 .1 0 0 0 0 0-.1 0 0 0 0 0-.1 0 0v-.1s0 .1 0 0v-.1c0-.1 0 .1 0 0 0 .1 0 0 0 0v-.1c0 .1 0 0 0 0v.1s0 .1 0 0c0 .2 0 .2-.1.2.1 0 .1 0 0 0 .1.1.1 0 0 0 .1 0 .1 0 0 0 .1.1.1-.1 0 0 .1 0 .1 0 0 0 0 .1.1 0 0 0zM59.3 32.7zM59.6 32.6z"/></g><g><path class="st4" d="M58.1 32.7zM58.1 32.7c0 .1 0 0 0 0zM58.1 32.7zM58.2 32.7zM58.2 32.6c0 .1 0 .1 0 0-.1.1-.1.1 0 0-.1.1-.1.1 0 0l-.1.1s.1 0 .1-.1c0 0 0 .1 0 0 0 .1 0 .1 0 0 0 .1 0 .1 0 0 0 .1 0 .2 0 0 0 .1 0 .1 0 0 0 .1 0 .1 0 0 .1 0 .1.1 0 0 .1.1.1 0 .1 0s0-.1 0 0 0-.1 0 0c0 0 0-.1 0 0 0 0 0 .1 0 0 0 0 0-.1 0 0 0 0 0-.1 0 0v-.1s0 .1 0 0v-.1c0-.1 0 .1 0 0 0 .1 0 0 0 0v-.1c0 .1 0 0 0 0v.1s0 .1 0 0c0 .2 0 .2-.1.2.1 0 .1-.1 0 0 .1 0 .1 0 0 0 .1 0 .1 0 0 0 0 0 0-.1 0 0 0-.1 0 0 0 0zM58.2 32.6zM58.4 32.5z"/></g><g><path class="st4" d="M57 32.6v.1-.1zM57 32.6c0 .1 0 0 0 0zM57 32.6zM57.1 32.6zM57.1 32.5s-.1 0 0 0c-.1 0-.1 0 0 0-.1.1-.1.1 0 0-.1.1-.1.1 0 0-.1.1-.1.1 0 0l-.1.1.1-.1s0 .1 0 0c0 .1 0 .1 0 0 0 .1 0 .1 0 0 0 .1 0 .1 0 0 0 .1 0 .2 0 0 0 .1 0 .1 0 0 0 .1 0 .1 0 0 0 0 .1.1 0 0h.1s0-.1 0 0 0-.1 0 0c0 0 0-.1 0 0 0 0 0 .1 0 0 0 0 0-.1 0 0 0 0 0-.1 0 0v-.1s0 .1 0 0v-.1c0-.1 0 .1 0 0 0 .1 0 0 0 0v-.1c0 .1 0 0 0 0v.1s0 .1 0 0c0 .2 0 .2-.1.2.1 0 .1 0 0 0 0 .1 0-.1 0 0 0-.1 0 0 0 0zM57.1 32.5zM57.3 32.4z"/></g><g><path class="st4" d="M55.9 32.6zM55.9 32.5c0 .1 0 0 0 0zM55.9 32.5zM55.9 32.5zM56 32.4s-.1 0 0 0c-.1.1-.1 0 0 0-.1.1-.1.1 0 0-.1.1-.1.1 0 0-.1 0-.1.1 0 0-.1 0-.1.1 0 0-.1.1-.1.1 0 0-.1.1-.1.1 0 0-.1.2-.1.1 0 0l-.1.1.1-.1c-.1.1-.1.1 0 0-.1.1-.1.1 0 0-.1.1 0 .1 0 0 0 .1 0 .1 0 0 0 .1 0 .2 0 0 0 .1 0 .1 0 0 0 .1 0 .1 0 0 0 .1 0 .1 0 0h.1s0-.1 0 0 0-.1 0 0c0 0 0-.1 0 0 0 0 0 .1 0 0 0 0 0-.1 0 0 0 0 0-.1 0 0v-.1s0 .1 0 0v-.1c0-.1 0 .1 0 0 0 .1 0 0 0 0v-.1c0 .1 0 0 0 0v.1s0 .1 0 0c0 .2 0 .2-.1.2 0 .1 0 0 0 0 0 .1 0 0 0 0 0 .1 0 0 0 0s0 .1 0 0zM55.9 32.4zM56.2 32.3z"/></g><g><path class="st4" d="M54.8 32.5zM54.8 32.4c0 .1 0 0 0 0zM54.8 32.4zM54.8 32.4zM54.8 32.3c0 .1 0 .1 0 0 0 .1 0 .1 0 0 0 0 0 .1 0 0 0 0 0 .1 0 0 0 .1 0 .1 0 0 0 .1 0 .1 0 0 0 .2 0 .1 0 0l-.1.1c.1.1.1 0 .1-.1 0 .1 0 .1 0 0 0 .1 0 .1 0 0 0 .1.1.1 0 0 .1.1.1.2 0 0 .1.1.1.1 0 0 .1.1.1.1 0 0 .1.1.1.1 0 0 .1.1.1 0 .1 0s0-.1 0 0 0-.1 0 0c0 0 0-.1 0 0 0 0 0 .1 0 0 0 0 0-.1 0 0 0 0 0-.1 0 0v-.1s0 .1 0 0v-.1c0-.1 0 .1 0 0 0 .1 0 0 0 0V32c0 .1 0 0 0 0v.1s0 .1 0 0c.1.2 0 .2-.1.2.1 0 .1 0 0 0 .1.1.1 0 0 0 .1 0 .1 0 0 0 .1.1.1 0 0 0 .1 0 .1 0 0 0 .1.1.1 0 0 0 .1 0 .1.1 0 0 .1 0 .1 0 0 0 .1 0 .1 0 0 0zM54.8 32.4zM55.1 32.3z"/></g><g><path class="st4" d="M53.7 32.3zM53.7 32.3c-.1.1 0 0 0 0zM53.7 32.3zM53.7 32.3zM53.7 32.2c0 .1 0 .1 0 0 0 .1 0 .1 0 0 0 .1 0 .1 0 0l-.1.1c.1 0 .1 0 .1-.1 0 0 0 .1 0 0 0 .1 0 .1 0 0 0 .1 0 .1 0 0 .1.1.1.2 0 0 .1.1.1.1 0 0 .1.1.1.1 0 0 .1 0 .1.1 0 0 .1.1.1 0 .1 0s0-.1 0 0 0-.1 0 0c0 0 0-.1 0 0 0 0 0 .1 0 0 0 0 0-.1 0 0 0 0 0-.1 0 0v-.1s0 .1 0 0V32c0-.1 0 .1 0 0 0 .1 0 0 0 0v-.1c0 .1 0 0 0 0v.1s0 .1 0 0c0 .2 0 .2-.1.2.1 0 .1-.1 0 0 .1 0 .1 0 0 0 .1 0 .1 0 0 0 .1 0 .1-.1 0 0 .1 0 .1 0 0 0 .1.1.1 0 0 0 .1 0 .1 0 0 0 .1-.1 0 0 0 0zM53.7 32.2zM54 32.1z"/></g><g><path class="st4" d="M52.5 32.2zM52.5 32.2c0 .1 0 0 0 0zM52.5 32.2zM52.6 32.2zM52.6 32.1c0 .1 0 .1 0 0-.1.1-.1.1 0 0l-.1.1c.1 0 .1 0 .1-.1 0 0 0 .1 0 0 0 .1 0 0 0 0 0 .1 0 0 0 0 0 .1 0 .1 0 0 .1.1.1.1 0 0 .1.1.1.1 0 0 .1 0 .1.1 0 0 .1.1.1 0 .1 0s0-.1 0 0 0-.1 0 0c0 0 0-.1 0 0 0 0 0 .1 0 0 0 0 0-.1 0 0 0 0 0-.1 0 0V32s0 .1 0 0v-.1c0-.1 0 .1 0 0 0 .1 0 0 0 0v-.1c0 .1 0 0 0 0v.1s0 .1 0 0c0 .1 0 .1-.1.2.1 0 .1-.1 0 0 .1 0 .1 0 0 0 .1 0 .1 0 0 0 .1 0 .1-.1 0 0 .1 0 .1-.1 0 0 0 .1 0-.1 0 0 0-.1 0 0 0 0zM52.6 32.1zM52.9 32z"/></g><g><path class="st4" d="M51.4 32.1zM51.4 32.1c0 .1 0 0 0 0zM51.4 32.1zM51.5 32.1zM51.5 32c-.1 0-.1.1 0 0-.1.1-.1.1 0 0-.1.1-.1.1 0 0l-.1.1.1-.1s0 .1 0 0c0 .1 0 .1 0 0 0 .1 0 .1 0 0 0 .1 0 .1 0 0 0 .1 0 .1 0 0 0 .1 0 .1 0 0 0 .1 0 .1 0 0 .1 0 .1.1 0 0h.1s0-.1 0 0 0-.1 0 0c0 0 0-.1 0 0 0 0 0 .1 0 0 0 0 0-.1 0 0 0 0 0-.1 0 0v-.1s0 .1 0 0v-.1c0-.1 0 .1 0 0 0 .1 0 0 0 0v-.1c0 .1 0 0 0 0v.1s0 .1 0 0c0 .1 0 .1-.1.2.1 0 .1-.1 0 0 .1 0 .1 0 0 0 0 0 0-.1 0 0 0-.1 0 0 0 0zM51.5 32zM51.7 31.9z"/></g><g><path class="st4" d="M50.3 32zM50.3 32c0 .1 0 0 0 0zM50.3 32zM50.3 32zM50.4 31.9s-.1 0 0 0c-.1 0-.1 0 0 0-.1 0-.1 0 0 0-.1 0-.1 0 0 0-.1 0-.1 0 0 0-.1.1-.1.1 0 0-.1.1-.1.1 0 0-.1.1-.1.1 0 0l-.1.1.1-.1c-.1 0-.1.1 0 0-.1.1-.1.1 0 0 0 .1 0 .1 0 0 0 .1 0 .2 0 0 0 .1 0 .1 0 0 0 .1 0 .1 0 0 0 0 0 .1 0 0h.1s0-.1 0 0 0-.1 0 0c0 0 0-.1 0 0 0 0 0 .1 0 0 0 0 0-.1 0 0 0 0 0-.1 0 0v-.1s0 .1 0 0v-.1c0-.1 0 .1 0 0 0 .1 0 0 0 0v-.1c0 .1 0 0 0 0v.1s0 .1 0 0c0 .2 0 .2-.1.2 0 0 0-.1 0 0s0-.1 0 0c0-.1 0 0 0 0zM50.3 31.9zM50.6 31.8z"/></g><g><path class="st4" d="M49.2 31.9zM49.2 31.9c0 .1 0 0 0 0zM49.2 31.9zM49.2 31.9zM49.2 31.8c0 .1 0 .1 0 0 0 .1 0 .1 0 0l-.1.1c.1 0 .1 0 .1-.1 0 0 0 .1 0 0 0 .1 0 .1 0 0 0 .1 0 .1 0 0 .1.1.1.1 0 0 .1.1.1.1 0 0 .1.1.1.1 0 0 .1 0 .1.1 0 0 .1.1.1 0 .1 0s0-.1 0 0 0-.1 0 0c0 0 0-.1 0 0 0 0 0 .1 0 0 0 0 0-.1 0 0 0 0 0-.1 0 0v-.1s0 .1 0 0v-.1c0-.1 0 .1 0 0 0 .1 0 0 0 0v-.1c0 .1 0 0 0 0v.1s0 .1 0 0c0 .1 0 .1-.1.2.1 0 .1-.1 0 0 .1 0 .1 0 0 0 .1 0 .1 0 0 0 .1 0 .1-.1 0 0 .1 0 .1-.1 0 0 .1.1.1 0 0 0 .1 0 .1 0 0 0 .1-.1.1 0 0 0 .1 0 .1 0 0 0zM49.2 31.8zM49.5 31.7z"/></g><g><path class="st4" d="M48 31.8v-.1zM48 31.7c0 .1.1 0 0 0zM48 31.7s.1 0 0 0zM48.1 31.7z"/><path class="st4" d="M48.1 31.6s0 .1 0 0c0 0 0 .1 0 0 0 0 0 .1 0 0 0 .1 0 .1 0 0 0 .1 0 .1 0 0 0 .1 0 .1 0 0l-.1.1c.1 0 .1.1.1-.1l-.1.1c.1 0 .1 0 .1-.1 0 0 0 .1 0 0 0 .1 0 .1 0 0 0 .1 0 .1 0 0 0 .1 0 .2 0 0 .1.1.1.1 0 0 .1.1.1.1 0 0 .1.1.1.1 0 0 .1.1.1.1.1 0 0 0 0-.1 0 0s0-.1 0 0c0 0 0-.1 0 0 0 0 0 .1 0 0 0 0 0-.1 0 0 0 0 0-.1 0 0v-.1s0 .1 0 0v-.1c0-.1 0 .1 0 0v-.1c0 .1 0 0 0 0v.1s0 .1 0 0c0 .2 0 .2-.1.2.1 0 .1 0 0 0 .1.1.1 0 0 0 .1 0 .1 0 0 0 .1.1.1 0 0 0 .1 0 .1 0 0 0 0 .1.1 0 0 0 .1 0 0 0 0 0 .1 0 0 0 0 0zM48.1 31.6zM48.4 31.6z"/></g><g><path class="st4" d="M46.9 31.4zM46.9 31.4c-.1.1 0 0 0 0zM46.9 31.4zM47 31.5zM47 31.4s.1 0 0 0c.1 0 0 0 0 0h-.1.1-.1c0 .1 0 .1.1 0 0 0-.1.1 0 0 0 .1 0 .1 0 0 0 .1 0 .1 0 0 0 .1 0 .2 0 0v.1c.1 0 .1.1 0-.1.1.1.1.1 0 0l.1.1s0-.1 0 0 0-.1 0 0c0 0 0-.1 0 0 0 0 0 .1 0 0 0 0 0-.1 0 0 0 0 0-.1 0 0v-.1s0 .1 0 0v-.1c0-.1 0 .1 0 0v-.1c0 .1 0 0 0 0v.1c0 .2.1.1-.1.1h0c.1.1.1 0 0 0 .1.1.1.1 0 0 .1.1.1.1 0 0 0 .1.1 0 0 0 .1.1.1 0 0 0 0 .1.1 0 0 0 0 .1 0 .1 0 0 .1 0 0 0 0 0 0 .1.1 0 0 0zM47 31.4zM47.3 31.4z"/></g><g><path class="st4" d="M50.7 32.5l.1.1zM50.8 33c0-.1.1 0 0 0l-.1-.3c-.1.1.2.2.1.3zM50.8 33c-.1.1 0 .2 0 .2s.1-.2 0-.2zM49.1 42.4z"/><path class="st4" d="M48.9 44.9c0-.4.2-1 .3-1.4.4-1.2.5-2.4.6-3.6v-.1c.2-.2.1-.8.2-.9 0-.1 0-.1-.1-.1.1-1 .4-2 .5-3h.1c0-.9.2-1.7.3-2.6 0 0-.1.1-.1 0-.1.3.1.5-.1.7-.1.2.1.1 0 .2 0 .1-.1 0-.1 0 0 .4-.1.8-.1 1.1-.1.1-.1.4-.2.5v.3c-.4 1.3-.5 2.7-.8 4.1.1.7-.3 1.4-.4 2.2 0 .3-.1.6-.2.9v.3c-.1.4-.2.9-.3 1.4-.1.5-.2.9-.3 1.3-.2.9-.3 1.8-.5 2.7-.4 2.1-.9 3.8-1 5.9-.1.6-.2 1.1-.3 1.6-.1.4-.1.9-.1 1.3s-.1.9-.2 1.1c-.1 0-.2 0-.3-.1l-.4-.1c-.3 0-.5-.1-.8-.1l-.9-.3c-.3-.1-.7-.1-1-.2-.3 0-.6-.1-1-.3-.2-.1-.3-.2-.5-.2h-.5c.1-.3.2-.7.3-1 .3-1.3.9-2.5 1.2-3.9.4-1.3.5-2.9 1-4.2.4-.8.3-2 .7-2.8.4-.8.4-1.7.6-2.4.2-.8.3-1.7.3-2.5.2-1.6.6-3.1 1-4.5 0-.4 0-.8.2-1.1.2-.4.4-.7.5-1.1h-.1c.2-.2 0-.7.2-.8.1-.1-.2-.4 0-.5 0-.2.1 0 .1-.1s-.1 0 0-.1c.2 0 0-.5.3-.4 0 .1.1-.1.1.1 0-.1.1-.3 0-.3-.1-.1-.1-.2-.3-.1l.2.2h-.1c-.1.2-.2.2-.3.4.1.1 0 .3 0 .4h-.1c-.1 0 .1.3 0 .2 0 .5-.2 1-.4 1.5 0 .1-.2.4 0 .3-.2.1-.3.5-.3.7-.2.3.1.4-.1.7.2.1-.1.5 0 .6h-.1c-.1.5-.3 1-.4 1.4 0 .4-.3.8-.2 1.2-.1.2-.3.7-.2 1 0 .5-.1.9 0 1.2-.2.1-.2.3-.3.4 0 .3-.1.8-.2 1.2-.1 0-.1.3-.2.3-.1.7 0 1.3-.2 1.9-.2.6-.4 1.3-.7 1.8 0 .2.1.4.1.6 0 .2-.2.4-.2.6 0 .2-.2.4-.2.7v.2s-.1 0-.1-.1c-.5 1.9-.8 3.9-1.4 5.8v-.1.4c-.2.5-.2 1-.4 1.4 0 0 0-.1-.1 0 0 .2-.1.3-.1.4 0 .1-.1.3 0 .4 0 0-.1.1-.1 0 0 .2-.1.3-.1.5h.9c.2 0 .4.2.6.3.5.2.9.2 1.4.3h.6c.2 0 .4.1.6.2.4.1.9.2 1.3.2.1 0 .3 0 .4.1.1-.6.2-1 .2-1.6l.3-1.5c.1-.5.1-.8.2-1.3h.1c0-.8.5-1.7.4-2.5l.1.1c-.1-.2.1-.5-.1-.5l.1-.1c-.1-.6.3-1 .3-1.7v.1c0-.2 0-.4.1-.5v.1c.3-.5.2-1.2.3-1.8l.1.1c0-.3.2-.8.2-1.2v-.2h.1c0-.7 0-1.2.1-1.7zM49.8 39.8c0 .1 0 .1 0 0z"/><path class="st4" d="M46.5 32.6c.1-.1.1-.1 0 0 .1-.1 0-.1 0 0z"/></g><g><path class="st4" d="M41.5 56.4v.1zM41.5 56.5c0-.1 0 0 0 0zM41.5 56.5zM41.5 56.5zM41.4 56.6s.1 0 0 0c.1 0 .1-.1 0 0 .1-.1.1 0 0 0 .1 0 .1-.1 0 0 .1 0 .1-.1 0 0 .1-.1.1-.1 0 0 .1-.1.1-.1 0 0 .1-.1.1-.1 0 0l.1-.1s0-.1-.1.1l.1-.1-.1.1c.1-.1.1-.1 0 0 .1-.1.1-.1 0 0 .1-.1.1-.1 0 0 .1-.1 0-.1 0 0 0-.1 0-.2 0 0 0-.1 0-.1 0 0 0-.1 0-.1 0 0 0-.1 0-.1 0 0-.1-.1-.1-.1-.1 0h.1c-.1 0-.1-.1-.1-.1s0 .1 0 0 0 .1 0 0c0 0 0 .1 0 0 0 0 0-.1 0 0 0 0 0 .1 0 0 0 0 0 .1 0 0v-.1.2s0-.1 0 0v.1c0 .1 0-.1 0 0v.1c0-.1 0 0 0 0v-.1c0-.1 0-.1.1-.1 0-.1 0 0 0 0 0-.1 0 0 0 0 0-.1 0 0 0 0s0-.1 0 0zM41.5 56.6zM41.2 56.6z"/><g><path class="st4" d="M42.6 56.8v-.1.1zM42.6 56.8c0-.1 0 0 0 0zM42.6 56.8zM42.6 56.8zM42.5 56.9s.1 0 0 0c.1 0 0 0 0 0s.1-.1 0 0c.1 0 .1 0 0 0 .1-.1.1-.1 0 0 .1-.1.1-.1 0 0 .1-.1.1-.1 0 0l.1-.1-.1.1.1-.1-.1.1c.1-.1.1-.1 0 0 0 0 .1-.1 0 0 0-.1 0-.1 0 0 0-.1 0-.1 0 0 0-.1 0-.2 0 0 0-.1 0-.1 0 0 0-.1 0-.1 0 0v-.1.1c-.1-.1-.1-.1 0 0-.1 0-.1-.1-.1-.1s0 .1 0 0 0 .1 0 0c0 0 0-.1 0 0 0 0 0 .1 0 0 0 0 0 .1 0 0v-.1.2s0-.1 0 0v.1c0 .1 0-.1 0 0v.1c0-.1 0 0 0 0V57c0-.1 0-.1.1-.1 0-.1 0 0 0 0 0-.1 0 0 0 0 0-.1 0 0 0 0zM42.5 56.9zM42.3 56.9z"/></g><g><path class="st4" d="M43.7 57zM43.7 57c0-.1 0 0 0 0zM43.7 57zM43.6 57zM43.6 57.1s.1 0 0 0c0 0 .1 0 0 0 .1 0 .1 0 0 0 .1 0 .1-.1 0 0 .1-.1.1-.1 0 0 .1-.1.1-.1 0 0l.1-.1-.1.1.1-.1-.1.1c.1-.1.1-.1 0 0 0 0 .1-.1 0 0 0-.1 0-.1 0 0 0-.1 0-.1 0 0 0-.1 0-.2 0 0 0-.1 0-.1 0 0 0-.1 0-.1 0 0 0 0 0-.1 0 0-.1-.1-.1-.1-.1 0 0 0 0 .1 0 0s0 .1 0 0c0 0 0 .1 0 0 0 0 0-.1 0 0 0 0 0 .1 0 0 0 0 0 .1 0 0V57v.2s0-.1 0 0v.1c0 .1 0-.1 0 0v.1c0-.1 0 0 0 0v-.1c0-.2 0-.2.1-.2 0 0-.1 0 0 0 0 0 0 .1 0 0 0 .1 0 0 0 0zM43.6 57.1zM43.4 57.2z"/></g><g><path class="st4" d="M44.8 57.2zM44.8 57.3c0-.1 0 0 0 0zM44.8 57.3zM44.7 57.3zM44.7 57.4c0-.1 0 0 0 0 0-.1 0-.1 0 0 0-.1 0-.1 0 0 0 0 .1-.1 0 0 0-.1.1-.1 0 0 .1-.1.1-.1 0 0 .1-.1.1-.1 0 0 .1-.2.1-.1 0 0l.1-.1c0-.1 0-.1-.1.1l.1-.1c0-.1 0-.1-.1.1.1-.2.1-.1 0 0 0-.1.1-.1 0 0 0-.1 0-.1 0 0 0-.1 0-.1 0 0 0-.2 0-.2 0 0 0-.1 0-.1 0 0 0-.1 0-.1 0 0 0-.1 0-.1 0 0-.1-.1-.1-.1-.1 0h.1c-.1 0-.1-.1-.1-.1s0 .1 0 0 0 .1 0 0c0 0 0-.1 0 0 0 0 0 .1 0 0 0 0 0 .1 0 0v-.1.2s0-.1 0 0v.1c0 .1 0-.1 0 0v.1c0-.1 0 0 0 0v-.1c0-.2 0-.1.1-.1 0-.1-.1 0 0 0 0 0 0-.1 0 0 0-.1 0 0 0 0 0-.1 0 0 0 0 0-.1 0 0 0 0 0-.1 0-.1 0 0 0-.1 0 0 0 0zM44.7 57.3zM44.5 57.4z"/></g><g><path class="st4" d="M45.9 57.6zM45.9 57.7c0-.1 0 0 0 0zM45.9 57.6s0 .1 0 0c0 .1-.1.1 0 0zM45.8 57.6z"/><path class="st4" d="M45.8 57.7s0 .1 0 0c0 .1 0 0 0 0 0 .1 0 0 0 0 .1-.1.1-.1 0 0l.1-.1-.1.1.1-.1c-.1 0-.1 0-.1.1 0-.1 0 0 0 0s0-.1 0 0c0-.1 0 0 0 0 0-.1 0-.1 0 0-.1 0-.1-.1 0 0-.1 0-.1-.1 0 0-.1 0-.1-.1 0 0-.1-.1-.1-.1-.1 0h.1c-.1 0-.1-.1-.1-.1s0 .1 0 0 0 .1 0 0c0 0 0 .1 0 0 0 0 0-.1 0 0 0 0 0 .1 0 0 0 0 0 .1 0 0v-.1.2s0-.1 0 0v.1c0 .1 0-.1 0 0v.1c0-.1 0 0 0 0v-.1l.1-.1c-.1 0-.1.1 0 0-.1 0-.1 0 0 0-.1 0-.1 0 0 0-.1 0-.1.1 0 0-.1 0-.1.1 0 0 0 0-.1.1 0 0-.1 0 0 0 0 0-.1.1 0 0 0 0s0 .1 0 0zM45.8 57.7zM45.5 57.8z"/></g></g><g><path class="st4" d="M56.6 32.8l.1.1zM56.7 33.1l-.1-.2c-.1 0 .2.2.1.2zM56.6 33.2c-.1.1 0 .1 0 .1 0-.1.1-.1 0-.1zM55.6 38.6zM55.7 40c0-.3.2-.5.1-.8.1-.7.1-1.4.2-2.1V37c.1-.1.1-.4.2-.5 0 0 0-.1-.1-.1.2-.5.2-1.1.1-1.7h.1c-.1-.5 0-1 .2-1.5h-.1c-.1.2 0 .3-.1.5-.1.1.1 0 0 .1h-.1c0 .2-.1.5 0 .7-.1 0 0 .2-.1.3 0 .1 0 .1.1.1 0 .4-.1.7-.2 1.1l-.3 1.2c.1.4-.2.8-.2 1.3v.5l.1.2c-.3 1-.3 2.1-.5 3.1-.2 1.2-.4 2.2-.4 3.4 0 .3-.1.6-.2.9 0 .8-.3 1.6-.2 2.4-.2.9-.3 2-.4 2.9 0 .8-.4 1.5-.4 2.3-.2.8 0 1.7-.3 2.5-.3.5.1 1.2-.1 1.6-.2.5-.2 1-.3 1.3-.1.2-.3.1-.6.1h-.7c-.9-.3-1.8-.1-2.6-.5-.4.1-.8-.3-1.3-.3-.1-.2-.4.1-.5-.1-.1-.1-.2.2-.3.1v.1c-.1 0 0-.1-.1-.1 0 0 0 .1-.1.1 0-.2-.3 0-.2-.3.1 0-.1-.1.1-.1 0 0-.2-.1-.2 0s-.1.2 0 .3v-.1.1c.1 0 .1.2.2.2.1-.1.2 0 .2 0 0 .1.2-.2.1 0 .3 0 .6.1.9.1.1-.1.2 0 .2-.1.1.1.3.2.4.2.1.2.2-.1.4.1 0-.1.3.1.4-.1v.1c.3 0 .6.2.8.2.2-.1.5.1.7 0 .1.1.4.2.6.1.2 0 .5.1.7 0 0 .2.1.2.2.3h.4c.2 0 .5-.1.6-.3.1 0 .1-.3.2-.3 0-.8 0-1.6.2-2.3l-.3-.3c0-.1.1-.2.1-.4 0-.1.1-.2.1-.4v-.1s.1 0 .1.1c.2-1.1.2-2.3.4-3.4v-.2c.1-.3 0-.6.1-.8h.1c-.1-.2.2-.3 0-.4h.1c0-.6.1-1.1.2-1.7-.1-.5.1-1 0-1.5 0-.7.2-1.3.3-2 .1-.3 0-.5.1-.7h.1c-.1-.5.3-.9.2-1.5h.1c-.1-.1.1-.3-.1-.3l.1-.1c-.2-.4.2-.6.1-1v-.3c.2-.3.1-.7.1-1.1h.1c-.1-.2 0-.5 0-.7v-.1h.1c.1.4.1.1.1-.2zM56.1 37.1zM46.6 59.2z"/></g><g><path class="st4" d="M46.9 57.5zM46.9 57.5c0-.1 0 0 0 0zM46.9 57.5zM46.8 57.5zM46.8 57.6s.1-.1 0 0c.1-.1.1-.1 0 0 .1-.1.1-.1 0 0l.1-.1s-.1 0-.1.1c0 0 0-.1 0 0 0-.1 0-.1 0 0 0-.1 0-.1 0 0 0-.1 0-.2 0 0 0-.1 0-.1 0 0 0-.1 0-.1 0 0-.1 0-.1-.1 0 0-.1-.1-.1-.1-.1 0 0 0 0 .1 0 0s0 .1 0 0c0 0 0 .1 0 0 0 0 0-.1 0 0 0 0 0 .1 0 0 0 0 0 .1 0 0v-.1.2s0-.1 0 0v.1c0 .1 0-.1 0 0 0-.1 0 0 0 0v.1c0-.1 0 0 0 0v-.1s0-.1 0 0c0-.2 0-.2.1-.2-.1 0-.1 0 0 0-.1 0-.1 0 0 0-.1 0-.1 0 0 0 0 0-.1.1 0 0 0-.1 0 0 0 0 0 .1 0 0 0 0zM46.8 57.6zM46.6 57.7z"/><g><path class="st4" d="M48 57.8zM48 57.8c0-.1 0 0 0 0zM48 57.8zM47.9 57.8zM47.9 57.9c0-.1 0-.1 0 0 .1-.1.1-.1 0 0 .1-.1.1-.1 0 0l.1-.1-.1.1.1-.1-.1.1.1-.1-.1.1c.1-.1 0-.1 0 0 0 0 0-.1 0 0 0-.1 0-.1 0 0 0-.1 0-.1 0 0 0-.1 0-.1 0 0 0-.1 0-.2 0 0 0-.1 0-.1 0 0-.1-.1 0-.1 0 0v-.1c-.1 0-.1 0 0 .1-.1-.1-.1-.1 0 0-.1 0-.1-.1-.1-.1s0 .1 0 0 0 .1 0 0c0 0 0-.1 0 0 0 0 0 .1 0 0 0 0 0 .1 0 0v-.1.2s0-.1 0 0v.1c0 .1 0-.1 0 0v.1c0-.1 0 0 0 0V58c0-.1 0-.1.1-.1-.1-.1-.1 0 0 0-.1 0-.1 0 0 0 0-.1-.1 0 0 0-.1 0-.1 0 0 0 0-.1-.1 0 0 0-.1 0 0 0 0 0zM47.9 57.9zM47.6 57.9z"/></g><g><path class="st4" d="M49.1 58zM49.1 58.1c0-.1-.1 0 0 0zM49.1 58.1s-.1 0 0 0c0 0-.1 0 0 0zM49 58.1z"/><path class="st4" d="M49 58.2c0-.1 0-.1 0 0 0-.1 0-.1 0 0 0 0 0-.1 0 0 0 0 0-.1 0 0 0-.1 0-.1 0 0 0-.1 0-.1 0 0 0-.2 0-.1 0 0l.1-.1c-.1-.1-.1-.1-.1.1V58v.2c0-.1 0-.1 0 0 0-.1 0-.1 0 0 0-.1 0-.1 0 0 0-.1 0-.2 0 0-.1-.1-.1-.1 0 0-.1-.1-.1-.1 0 0-.1-.1-.1-.1 0 0-.1-.1-.1-.1-.1 0 0 0 0 .1 0 0s0 .1 0 0c0 0 0 .1 0 0 0 0 0-.1 0 0 0 0 0 .1 0 0 0 0 0 .1 0 0v-.1.2s0-.1 0 0v.1c0 .1 0-.1 0 0v.1c0-.1 0 0 0 0v-.1c0-.2 0-.2.1-.2-.1-.1-.1 0 0 0-.1-.1-.1 0 0 0-.1 0-.1 0 0 0-.1-.1-.1 0 0 0-.1 0-.1 0 0 0 0-.1-.1 0 0 0 0-.1 0-.1 0 0-.1 0 0 0 0 0zM49 58.1zM48.7 58.2z"/></g><g><path class="st4" d="M50.2 58.1v.1zM50.2 58.2c0-.1 0 0 0 0zM50.2 58.2zM50.1 58.2zM50.1 58.3s0-.1 0 0c0-.1 0 0 0 0s0-.1 0 0c0 0 0-.1 0 0 0-.1 0-.1 0 0 .1-.1.1-.1 0 0 .1-.1.1-.1 0 0l.1-.1s-.1 0-.1.1c0 0 0-.1 0 0 0-.1 0-.1 0 0 0-.1 0-.1 0 0 0-.1 0-.2 0 0 0-.1 0-.1 0 0-.1-.1-.1-.1 0 0-.1-.1-.1-.1 0 0-.1-.1-.1 0-.1 0s0 .1 0 0 0 .1 0 0c0 0 0 .1 0 0 0 0 0-.1 0 0 0 0 0 .1 0 0 0 0 0 .1 0 0v-.1.2s0-.1 0 0v.1c0 .1 0-.1 0 0 0-.1 0 0 0 0v.1c0-.1 0 0 0 0v-.1s0-.1 0 0c0-.2 0-.2.1-.2-.1 0-.1 0 0 0-.1-.1-.1 0 0 0-.1 0-.1 0 0 0 0-.1-.1 0 0 0 0-.1 0 0 0 0zM50.1 58.3zM49.8 58.4z"/></g><g><path class="st4" d="M51.3 58.3zM51.3 58.4c0-.1 0 0 0 0zM51.3 58.4zM51.2 58.4zM51.2 58.5c0-.1 0 0 0 0 0-.1 0-.1 0 0 0-.1 0-.1 0 0 0 0 0-.1 0 0 0-.1 0-.1 0 0 0-.1.1-.1 0 0 .1-.1.1-.1 0 0 .1-.2.1-.1 0 0l.1-.1c0-.1-.1 0-.1.1 0-.1 0-.1 0 0 0-.1 0-.1 0 0 0-.1 0-.1 0 0 0-.2 0-.2 0 0 0-.1 0-.1 0 0 0-.1 0-.1 0 0-.1-.1-.1-.1 0 0-.1-.1-.1-.1-.1 0 0 0 0 .1 0 0s0 .1 0 0c0 0 0 .1 0 0 0 0 0-.1 0 0 0 0 0 .1 0 0 0 0 0 .1 0 0v-.1.2s0-.1 0 0v.1c0 .1 0-.1 0 0v.1c0-.1 0 0 0 0v-.1s0-.1 0 0c0-.2 0-.2.1-.2-.1-.1-.1 0 0 0-.1-.1-.1 0 0 0-.1 0-.1 0 0 0 0-.1-.1 0 0 0 0-.1 0 0 0 0 0-.1 0 0 0 0 0-.1 0-.1 0 0 0-.1 0 0 0 0zM51.2 58.4zM50.9 58.5z"/></g><g><path class="st4" d="M52.4 58.5v.1zM52.4 58.6c0-.1 0 0 0 0zM52.4 58.6zM52.3 58.6zM52.3 58.7s0-.1 0 0c0 0 0-.1 0 0 0 0 0-.1 0 0 .1-.1.1-.1 0 0 .1-.1.1-.1 0 0 .1-.1.1-.1 0 0l.1-.1s0-.1-.1.1l.1-.1-.1.1c.1-.1.1-.1 0 0 0 0 0-.1 0 0 0-.1 0-.1 0 0 0-.1 0-.1 0 0 0-.1 0-.2 0 0 0-.1 0-.1 0 0 0-.1 0-.1 0 0-.1-.1 0-.1 0 0-.1-.1-.1-.1-.1 0 0 0 0 .1 0 0s0 .1 0 0c0 0 0 .1 0 0 0 0 0-.1 0 0 0 0 0 .1 0 0 0 0 0 .1 0 0v-.1.2s0-.1 0 0v.1c0 .1 0-.1 0 0v.1c0-.1 0 0 0 0v-.1c0-.2 0-.2.1-.2-.1-.1-.1 0 0 0-.1 0 0 0 0 0 0-.1-.1 0 0 0 0-.1 0 0 0 0zM52.3 58.7zM52 58.7z"/></g></g><g><path class="st4" d="M62.6 33.3v.1zM62.7 33.6l-.1-.2c-.1 0 .1.2.1.2zM62.6 33.7c-.1.1 0 .1 0 .1s.1-.1 0-.1zM62.2 39.5c-.1 0-.1 0 0 0zM62.4 41c-.1-.3.1-.6 0-.9.1-.8 0-1.5 0-2.2 0 0-.1-.1 0-.1.1-.1 0-.5.1-.6 0 0 0-.1-.1-.1.1-.6.1-1.2 0-1.8h.1c-.2-.5-.1-1.1 0-1.6h-.1c-.1.2.1.3 0 .5 0 .1.1 0 0 .1h-.1c0 .2-.1.5.1.7-.1.1 0 .3-.1.4 0 .1 0 .1.1.1 0 .8-.2 1.6-.3 2.5.2.4-.1.9 0 1.4 0 .2.1.4 0 .6l.1.2c-.2 1.1-.1 2.2-.2 3.3-.1 1.3-.2 2.4-.1 3.6 0 .4-.1.7-.1 1 .1.8-.1 1.7 0 2.6-.1 1-.1 2.1-.1 3.1 0 .8-.2 1.6-.2 2.5-.1.8.1 1.8 0 2.6-.1.3 0 .6.1.9 0 .3.1.7-.1.8-.2.2-.4 0-.7-.1-.3-.1-.5-.1-.8-.1-.5 0-1 0-1.5.1-.9-.2-1.9 0-2.8-.3-.4.1-.9-.3-1.4-.3-.2-.2-.4.2-.5-.1-.1-.1-.2.2-.3.1v.1c-.1 0 0-.1-.1-.1 0 0 0 .1-.1.1 0-.2-.3 0-.3-.2.1 0-.1-.1.1-.1 0 0-.2 0-.2.1s-.1.2 0 .3V60v.1c.1 0 .2.1.3.2.1-.1.2 0 .2 0 0 .1.2-.2.1 0 .3 0 .6 0 1 .1.1-.1.3 0 .2-.1.1.1.3.2.4.2.2.2.2-.1.4.1 0-.1.3.1.4-.1v.1c.3 0 .6.1.9.2.2-.1.5.1.7 0 .2.1.4.2.6.1.2 0 .6 0 .7-.1.1.2.2.2.3.2.2-.1.5 0 .8-.1 0 .1.2 0 .2.1.2 0 .4-.1.5-.1h.7c.3-.1.4-.5.4-.7.1-.2.1-.4.1-.6l-.3-.3c0-.1.1-.3 0-.4-.1-.1.1-.3 0-.4v-.1s.1 0 .1.1v-1.8-1.8l-.1-.2c.1-.3 0-.6 0-.9h.1c-.1-.2.2-.3-.1-.5h.1c0-.6 0-1.2.1-1.8-.2-.5 0-1.1-.1-1.6-.1-.7.1-1.4.1-2.1V47h.1c-.2-.5.2-1 .1-1.6h.1c-.1-.1.1-.3-.1-.3l.1-.1c-.2-.4.1-.6 0-1.1 0-.1-.1-.2 0-.3.2-.4 0-.8 0-1.1h.1c-.1-.2 0-.5 0-.8l-.1-.1h.1c.4 0 .3-.3.3-.6zM62.5 37.9zM53.3 60.2z"/></g><g><path class="st4" d="M53.5 58.4zM53.5 58.4s0 .1 0 0zM53.5 58.4s0 .1 0 0zM53.5 58.4zM53.4 58.5s0 .1 0 0c.1.1.1 0 0 0 .1 0 .1 0 0 0 .1 0 .1 0 0 0 .1.1.1 0 0 0 .1 0 .1 0 0 0 .1 0 .1 0 0 0 .1-.1.1 0 0 0 .1-.1.1-.1 0 0l.1-.1-.1.1c.1 0 .1-.1 0 0 .1 0 .1 0 0 0 .1-.1 0 0 0 0 0-.1 0-.1 0 0 0 0 0-.1 0 0 0 0 0-.1 0 0h-.1s0 .1 0 0 0 .1 0 0c0 0 0 .1 0 0 0 0 0-.1 0 0 0 0 0 .1 0 0 0 0 0 .1 0 0v-.1.2s0-.1 0 0v.1c0 .1 0-.1 0 0 0-.1 0 0 0 0v.1c0-.1 0 0 0 0v-.1s0-.1 0 0c0-.1 0-.1.1-.2 0 0 0 .1 0 0 0 0 0 .1 0 0 0 0 0 .1 0 0 0 0 0 .1 0 0 0 0 0 .1 0 0 0 .1 0 0 0 0s0 .1 0 0zM53.5 58.5zM53.2 58.6zM54.6 58.6zM54.6 58.6c0-.1 0 0 0 0zM54.6 58.6zM54.6 58.6zM54.6 58.7c0-.1 0-.1 0 0 0-.1 0-.1 0 0l.1-.1c-.1 0-.1 0-.1.1l.1-.1c-.1 0-.1 0-.1.1 0 0 0-.1 0 0 0-.1 0-.1 0 0 0-.1 0-.1 0 0-.1-.1-.1-.1 0 0-.1-.1-.1-.1 0 0-.1-.1-.1-.1 0 0-.1 0-.1-.1 0 0-.1-.1-.1-.1-.1 0 0 0 0 .1 0 0s0 .1 0 0c0 0 0 .1 0 0 0 0 0-.1 0 0 0 0 0 .1 0 0 0 0 0 .1 0 0v-.1.2s0-.1 0 0v.1c0 .1 0-.1 0 0v.1c0-.1 0 0 0 0v-.1s0-.1 0 0c-.1-.2-.1-.2.1-.2-.1 0-.1.1 0 0-.1 0-.1 0 0 0-.1 0-.1 0 0 0-.1 0-.1.1 0 0-.1 0-.1 0 0 0-.1-.1-.1 0 0 0-.1 0-.1 0 0 0-.1.1-.1 0 0 0-.1 0-.1 0 0 0zM54.6 58.7zM54.3 58.8z"/><g><path class="st4" d="M55.7 58.8zM55.7 58.8c0-.1 0 0 0 0zM55.7 58.8zM55.7 58.8zM55.7 58.9s0-.1 0 0c0-.1 0-.1 0 0 0-.1 0-.1 0 0l.1-.1c-.1 0-.1 0-.1.1 0 0 0-.1 0 0 0-.1 0-.1 0 0 0-.1 0-.1 0 0-.1-.1-.1-.1 0 0-.1-.1-.1-.1 0 0-.1-.1-.1-.1 0 0-.1 0-.1-.1 0 0-.1-.1-.1-.1-.1 0 0 0 0 .1 0 0s0 .1 0 0c0 0 0 .1 0 0 0 0 0-.1 0 0 0 0 0 .1 0 0 0 0 0 .1 0 0v-.1.2s0-.1 0 0v.1c0 .1 0-.1 0 0 0-.1 0 0 0 0v.1c0-.1 0 0 0 0v-.1s0-.1 0 0c0-.2 0-.2.1-.2-.1 0-.1.1 0 0-.1 0-.1 0 0 0-.1 0-.1 0 0 0-.1 0-.1.1 0 0-.1 0-.1 0 0 0-.1-.1-.1 0 0 0-.1 0-.1 0 0 0-.1.1-.1 0 0 0-.1 0-.1 0 0 0zM55.7 58.9zM55.4 59z"/></g><g><path class="st4" d="M56.9 58.9zM56.9 58.9c0-.1-.1 0 0 0zM56.9 58.9s-.1 0 0 0c-.1 0-.1 0 0 0zM56.8 58.9z"/><path class="st4" d="M56.8 59c0-.1 0-.1 0 0 0-.1 0-.1 0 0 0-.1 0-.1 0 0l.1-.1c-.1 0-.1 0-.1.1 0 0 0-.1 0 0 0-.1 0-.1 0 0 0-.1 0-.1 0 0 0-.1-.1-.2 0 0-.1-.1-.1-.1 0 0-.1-.1-.1-.1 0 0-.1 0-.1-.1 0 0h-.1s0 .1 0 0 0 .1 0 0c0 0 0 .1 0 0 0 0 0-.1 0 0 0 0 0 .1 0 0 0 0 0 .1 0 0v-.1.2s0-.1 0 0v.1c0 .1 0-.1 0 0 0-.1 0 0 0 0v.1c0-.1 0 0 0 0v-.1s0-.1 0 0c0-.2 0-.2.1-.2-.1 0-.1.1 0 0-.1 0-.1 0 0 0-.1 0-.1 0 0 0-.1 0-.1.1 0 0-.1 0-.1 0 0 0 0-.1-.1 0 0 0 0 .1 0 0 0 0zM56.8 59zM56.5 59.1z"/></g><g><path class="st4" d="M58 59zM58 59c0-.1 0 0 0 0zM58 59zM57.9 59zM57.9 59.1c0-.1 0-.1 0 0 .1-.1.1-.1 0 0 .1-.1.1-.1 0 0l.1-.1c-.1 0-.1 0-.1.1 0 0 0-.1 0 0 0-.1 0-.1 0 0 0-.1 0-.1 0 0 0-.1 0-.1 0 0 0-.1 0-.1 0 0-.1-.1-.1-.1 0 0-.1 0-.1-.1 0 0h-.1s0 .1 0 0 0 .1 0 0c0 0 0 .1 0 0 0 0 0-.1 0 0 0 0 0 .1 0 0 0 0 0 .1 0 0V59v.2s0-.1 0 0v.1c0 .1 0-.1 0 0 0-.1 0 0 0 0v.1c0-.1 0 0 0 0v-.1s0-.1 0 0c0-.2 0-.1.1-.2-.1 0-.1.1 0 0-.1 0-.1 0 0 0-.1 0-.1 0 0 0 0 0-.1.1 0 0 0-.1 0 0 0 0 0 .1 0 0 0 0zM57.9 59.1zM57.7 59.2z"/></g><g><path class="st4" d="M59.1 59zM59.1 59.1c0-.1 0 0 0 0zM59.1 59.1zM59 59.1zM59 59.2s0-.1 0 0c0-.1 0 0 0 0s.1-.1 0 0c.1 0 .1-.1 0 0 .1-.1.1-.1 0 0 .1-.1.1-.1 0 0 .1-.1.1-.1 0 0l.1-.1-.1.1c0-.1 0-.1 0 0 0-.1 0-.1 0 0 0-.1 0-.1 0 0 0-.1 0-.1 0 0 0-.1 0-.2 0 0 0-.1 0-.1 0 0 0-.1 0-.1 0 0 0-.1-.1-.1 0 0h-.1s0 .1 0 0 0 .1 0 0c0 0 0 .1 0 0 0 0 0-.1 0 0 0 0 0 .1 0 0 0 0 0 .1 0 0v-.1.2s0-.1 0 0v.1c0 .1 0-.1 0 0 0-.1 0 0 0 0v.1c0-.1 0 0 0 0v-.1s0-.1 0 0c0-.2 0-.2.1-.2-.1 0-.1 0 0 0-.1-.1 0 0 0 0 0-.1 0 0 0 0 0-.1 0 0 0 0zM59 59.2zM58.8 59.3z"/></g><g><path class="st4" d="M60.2 59.1zM60.2 59.2c0-.1 0 0 0 0zM60.2 59.2c0-.1 0 0 0 0zM60.2 59.2zM60.1 59.3c0-.1 0 0 0 0 .1 0 .1-.1 0 0 .1-.1.1-.1 0 0 .1-.1.1-.1 0 0 .1 0 .1-.1 0 0 .1-.1.1-.1 0 0 .1-.1.1-.1 0 0 .1-.1.1-.1 0 0 .1-.2.1-.1 0 0l.1-.1c0-.1 0 0-.1.1.1-.1.1-.2 0 0 .1-.1.1-.1 0 0 0-.2 0-.1 0 0 0-.2 0-.2 0 0 0-.1 0-.1 0 0 0-.1 0-.1 0 0 0-.1 0-.1 0 0H60s0 .1 0 0 0 .1 0 0c0 0 0 .1 0 0 0 0 0-.1 0 0 0 0 0 .1 0 0 0 0 0 .1 0 0v-.1.2s0-.1 0 0v.1c0 .1 0-.1 0 0 0-.1 0 0 0 0v.1c0-.1 0 0 0 0v-.1s0-.1 0 0c0-.2 0-.2.1-.2 0-.1 0 0 0 0 0-.1 0 0 0 0 0-.1 0 0 0 0 0-.1 0 0 0 0 0-.1 0 0 0 0 0-.1 0-.1 0 0 0-.1 0 0 0 0zM60.2 59.2zM59.9 59.3z"/></g><g><path class="st4" d="M61.3 59.2zM61.3 59.3c0-.1 0 0 0 0zM61.3 59.3zM61.3 59.3zM61.3 59.4c0-.1 0-.1 0 0 0-.1 0-.1 0 0 0 0 0-.1 0 0 0 0 0-.1 0 0 0-.1 0-.1 0 0 0-.1 0-.1 0 0 0-.2 0-.1 0 0l.1-.1c-.1-.1-.1 0-.1.1 0-.1 0-.1 0 0 0-.1 0-.1 0 0 0-.1 0-.1 0 0-.1-.1-.1-.2 0 0-.1-.1-.1-.1 0 0-.1-.1-.1-.1 0 0-.1-.1-.1-.1 0 0-.1-.1-.1 0-.1 0s0 .1 0 0 0 .1 0 0c0 0 0 .1 0 0 0 0 0-.1 0 0 0 0 0 .1 0 0 0 0 0 .1 0 0v-.1.2s0-.1 0 0v.1c0 .1 0-.1 0 0 0-.1 0 0 0 0v.1c0-.1 0 0 0 0v-.1s0-.1 0 0c0-.2 0-.2.1-.2-.1 0-.1 0 0 0-.1-.1-.1 0 0 0-.1 0-.1 0 0 0-.1-.1-.1 0 0 0-.1 0-.1 0 0 0-.1-.1-.1 0 0 0-.1 0-.1-.1 0 0-.1 0-.1 0 0 0-.1 0-.1 0 0 0zM61.3 59.3zM61 59.4z"/></g></g><g><path class="st4" d="M68.7 33.2h-.1l.1.1z"/><path class="st4" d="M68.8 33.5l-.1-.2c-.1.1.2.1.1.2zM68.8 33.5c0 .1 0 .1.1.1-.1 0 0-.1-.1-.1zM68.6 39.1z"/><path class="st4" d="M68.9 40.6c-.1-.3.1-.6 0-.9.1-.7-.1-1.4-.1-2.1 0 0-.1-.1 0-.1.1-.1 0-.5.1-.5 0 0 0-.1-.1-.1 0-.3.1-.6.1-.9 0-.3-.1-.6-.1-.9h.1c-.2-.5-.1-1-.1-1.5 0 0 0 .1-.1 0-.1.2.1.3 0 .4 0 .1.1 0 .1.1h-.1c0 .2 0 .5.1.7-.1.1 0 .2-.1.3 0 .1 0 .1.1.1 0 .8-.1 1.5-.2 2.4.1.4-.1.9 0 1.3 0 .1.1.4 0 .5l.1.2c-.2 1.1 0 2.2-.1 3.2 0 1.2-.2 2.3 0 3.5 0 .3-.1.7 0 1 .1.8-.1 1.7.1 2.5v3c.1.8-.2 1.6-.1 2.4-.1.8.2 1.7 0 2.5-.2.5.3 1.2.2 1.7-.1.2-.1.5-.1.7 0 .1 0 .2-.1.2-.1.1-.2 0-.2 0-.5 0-1 .1-1.5.1-.9-.2-1.8 0-2.7-.2-.4.1-.9-.2-1.3-.2-.2-.2-.4.2-.5 0-.1-.1-.2.2-.3.1v.1c-.1 0 0-.1-.1-.1 0 0 0 .1-.1.1 0-.2-.3 0-.3-.2.1 0-.1-.1.1-.1 0 0-.2 0-.2.1s-.1.2 0 .3v-.1.1c.1 0 .2.1.2.2.1-.1.2 0 .2 0 0 .1.2-.2.1 0h1c.1-.1.2 0 .2-.1.1.1.3.2.4.2.2.2.2-.1.4.1 0-.1.3.1.4-.1v.1c.3 0 .6.1.9.1.2-.1.5.1.7-.1.1 0 .4.1.6.1.2 0 .5 0 .7-.1.1.2.2.2.3.2.2-.1.4 0 .8-.1.1.1.3 0 .4.1.3-.1.3-.5.3-.8v-.6c0-.4 0-.8.1-1.2l-.3-.3c0-.1.1-.3.1-.4-.1-.1.1-.2 0-.4v-.1s.1 0 .1.1c.1-1.1-.1-2.3 0-3.5l-.1-.2c.1-.3 0-.6 0-.9h.1c-.1-.2.1-.3-.1-.4h.1c-.1-.6 0-1.2 0-1.8-.2-.5 0-1-.1-1.5-.1-.7 0-1.3 0-2v-.8c-.2-.5.2-1 0-1.5h.1c-.1-.1 0-.3-.1-.3l.1-.1c-.2-.3.1-.6-.1-1 0-.1-.1-.2 0-.3.2-.3 0-.7 0-1.1h.1c-.1-.2 0-.5-.1-.7l-.1-.1h.1c0 .1-.1-.1-.1-.4zM68.9 37.5zM61.8 60.6z"/></g><g><path class="st4" d="M62 58.7zM62 58.7s0 .1 0 0zM62 58.7s0 .1 0 0c0 0 0 .1 0 0zM62 58.8zM62 58.8s0 .1 0 0c0 .1 0 0 0 0 0 .1 0 0 0 0 0-.1 0-.1 0 0l.1-.1c-.1 0-.1.1-.1.1s0-.1 0 0c0-.1-.1 0 0 0-.1-.1-.1-.1 0 0-.1 0-.1 0 0 0-.1 0-.1 0 0 0-.1 0-.1 0 0 0h-.1s0 .1 0 0 0 .1 0 0c0 0 0 .1 0 0 0 0 0-.1 0 0 0 0 0 .1 0 0 0 0 0 .1 0 0v-.1.2s0-.1 0 0v.1c0 .1 0-.1 0 0 0-.1 0 0 0 0v.1c0-.1 0 0 0 0V59s0-.1 0 0c0-.1 0-.1.1-.2-.1 0-.1.1 0 0-.1 0-.1.1 0 0-.1.1-.1 0 0 0-.1 0-.1.1 0 0-.1 0-.1.1 0 0-.1 0-.1.1 0 0-.1 0-.1 0 0 0-.1.1-.1 0 0 0-.1 0-.1.1 0 0zM62 58.8zM61.7 58.9z"/><g><path class="st4" d="M63.1 58.8zM63.1 58.9c0-.1 0 0 0 0zM63.1 58.9zM63.1 58.9zM63.1 59c0-.1 0-.1 0 0 0-.1 0-.1 0 0 0 0 0-.1 0 0 0 0 0-.1 0 0 0-.1 0-.1 0 0 0-.1 0-.1 0 0 0-.2 0-.1 0 0l.1-.1c-.1 0-.1 0-.1.1 0-.1 0-.1 0 0 0-.1 0-.1 0 0 0-.1 0-.1 0 0-.1-.1-.1-.2 0 0-.1-.1-.1-.1 0 0-.1-.1-.1-.1 0 0-.1-.1-.1-.1 0 0-.1-.1-.1 0-.1 0s0 .1 0 0 0 .1 0 0c0 0 0 .1 0 0 0 0 0-.1 0 0 0 0 0 .1 0 0 0 0 0 .1 0 0v-.1.2s0-.1 0 0v.1c0 .1 0-.1 0 0 0-.1 0 0 0 0v.1c0-.1 0 0 0 0v-.1s0-.1 0 0c0-.2 0-.2.1-.2-.1 0-.1 0 0 0-.1-.1-.1 0 0 0-.1 0-.1 0 0 0-.1-.1-.1 0 0 0-.1 0-.1 0 0 0-.1-.1-.1 0 0 0-.1 0-.1-.1 0 0-.1 0-.1 0 0 0 0 0-.1 0 0 0zM63.1 58.9zM62.8 59z"/></g><g><path class="st4" d="M64.3 58.9zM64.3 58.9c0-.1 0 0 0 0zM64.3 58.9s-.1 0 0 0c0 0-.1 0 0 0zM64.2 58.9zM64.2 59s0 .1 0 0c0 .1 0 0 0 0 0-.1 0-.1 0 0 0-.1 0-.1 0 0l.1-.1c-.1 0-.1 0-.1.1 0 0 0-.1 0 0 0-.1 0 0 0 0 0-.1 0 0 0 0 0-.1-.1-.1 0 0-.1 0-.1-.1 0 0-.1 0-.1-.1 0 0-.1 0-.1-.1 0 0h-.1s0 .1 0 0 0 .1 0 0c0 0 0 .1 0 0 0 0 0-.1 0 0 0 0 0 .1 0 0 0 0 0 .1 0 0v-.1.2s0-.1 0 0v.1c0 .1 0-.1 0 0 0-.1 0 0 0 0v.1c0-.1 0 0 0 0v-.1s0-.1 0 0c0-.1 0-.1.1-.2-.1 0-.1.1 0 0-.1 0-.1 0 0 0-.1 0-.1 0 0 0-.1 0-.1.1 0 0-.1 0-.1.1 0 0 0-.1 0 .1 0 0 0 .1 0 0 0 0zM64.2 59zM63.9 59.1z"/></g><g><path class="st4" d="M65.4 58.9zM65.4 59c0-.1 0 0 0 0zM65.4 59zM65.3 59zM65.3 59.1c0-.1 0 0 0 0 0-.1 0-.1 0 0 0-.1 0-.1 0 0 0 0 0-.1 0 0 0 0 0-.1 0 0 0-.1 0-.1 0 0 .1-.1.1-.1 0 0 .1-.2.1-.1 0 0l.1-.1c-.1-.1-.1 0-.1.1 0-.1 0-.1 0 0 0-.1 0-.1 0 0 0-.1 0-.1 0 0 0-.1 0-.1 0 0 0-.1 0-.2 0 0 0-.1 0-.1 0 0 0-.1-.1-.1 0 0-.1-.1-.1-.1 0 0h-.1s0 .1 0 0 0 .1 0 0c0 0 0 .1 0 0 0 0 0-.1 0 0 0 0 0 .1 0 0 0 0 0 .1 0 0V59v.2s0-.1 0 0v.1c0 .1 0-.1 0 0 0-.1 0 0 0 0v.1c0-.1 0 0 0 0v-.1s0-.1 0 0c0-.2 0-.2.1-.2-.1 0-.1 0 0 0-.1-.1-.1 0 0 0-.1 0-.1 0 0 0 0-.1 0 0 0 0 0-.1 0 0 0 0s0-.1 0 0zM65.3 59c0 .1 0 0 0 0zM65.1 59.2z"/></g><g><path class="st4" d="M66.5 59zM66.5 59c0-.1 0 0 0 0zM66.5 59zM66.4 59zM66.4 59.1c.1 0 .1 0 0 0 .1 0 .1 0 0 0 .1 0 .1 0 0 0 .1 0 .1 0 0 0 .1 0 .1 0 0 0 .1-.1.1-.1 0 0 .1-.1.1-.1 0 0 .1-.1.1-.1 0 0l.1-.1-.1.1s0-.1 0 0c0-.1 0-.1 0 0 0-.1 0-.1 0 0 0-.1 0-.1 0 0 0-.1 0-.1 0 0 0-.1 0-.1 0 0 0-.1 0-.1 0 0 0 0 0-.1 0 0h-.1s0 .1 0 0 0 .1 0 0c0 0 0 .1 0 0 0 0 0-.1 0 0 0 0 0 .1 0 0 0 0 0 .1 0 0V59v.2s0-.1 0 0v.1c0 .1 0-.1 0 0 0-.1 0 0 0 0v.1c0-.1 0 0 0 0v-.1s0-.1 0 0c0-.1 0-.1.1-.2-.1 0-.1.1 0 0 0 0 0 .1 0 0 0 .1 0 0 0 0zM66.5 59.1zM66.2 59.2z"/></g><g><path class="st4" d="M67.6 59zM67.6 59.1c0-.1 0 0 0 0zM67.6 59.1c0-.1 0 0 0 0zM67.6 59.1zM67.6 59.2c0-.1 0 0 0 0s0-.1 0 0c0-.1 0-.1 0 0 0-.1 0-.1 0 0 0 0 0-.1 0 0 0-.1 0-.1 0 0 0-.1 0-.1 0 0 0-.1 0-.1 0 0 0-.2 0-.1 0 0l.1-.1c-.1-.1-.1 0-.1.1 0-.1 0-.1 0 0 0-.1 0-.1 0 0 0-.1-.1-.1 0 0-.1-.1-.1-.2 0 0-.1-.1-.1-.1 0 0-.1-.1-.1-.1 0 0-.1-.1-.1-.1 0 0h-.1s0 .1 0 0 0 .1 0 0c0 0 0 .1 0 0 0 0 0-.1 0 0 0 0 0 .1 0 0 0 0 0 .1 0 0v-.1.2s0-.1 0 0v.1c0 .1 0-.1 0 0 0-.1 0 0 0 0v.1c0-.1 0 0 0 0v-.1s0-.1 0 0c-.1-.2 0-.2.1-.2-.1 0-.1 0 0 0-.1-.1-.1 0 0 0-.1 0-.1 0 0 0-.1-.1-.1 0 0 0-.1-.1-.1 0 0 0-.1-.1-.1 0 0 0-.1-.1-.1-.1 0 0-.1 0-.1 0 0 0-.1-.1-.1 0 0 0zM67.6 59.1zM67.3 59.2z"/></g><g><path class="st4" d="M68.8 59.1zM68.8 59.2c0-.1-.1 0 0 0z"/><path class="st4" d="M68.8 59.2c0-.1-.1 0 0 0 0 0-.1 0 0 0zM68.7 59.2z"/><path class="st4" d="M68.7 59.3c0-.1 0 0 0 0s0-.1 0 0c0-.1 0-.1 0 0 0-.1 0-.1 0 0 0 0 0-.1 0 0 0-.1 0-.1 0 0 0-.1 0-.1 0 0 0-.1 0-.1 0 0 0-.2 0-.1 0 0l.1-.1c-.1-.1-.1 0-.1.1 0-.1 0-.1 0 0 0-.1 0-.1 0 0 0-.1 0-.1 0 0 0-.2 0-.2 0 0-.1-.1-.1-.1 0 0-.1-.1-.1-.1 0 0-.1-.1-.1-.1 0 0-.1-.1-.1 0-.1 0s0 .1 0 0 0 .1 0 0c0 0 0 .1 0 0 0 0 0-.1 0 0 0 0 0 .1 0 0 0 0 0 .1 0 0v-.1.2s0-.1 0 0v.1c0 .1 0-.1 0 0 0-.1 0 0 0 0v.1c0-.1 0 0 0 0v-.1s0-.1 0 0c0-.2 0-.2.1-.2-.1-.1-.1 0 0 0-.1-.1-.1 0 0 0-.1 0-.1 0 0 0-.1-.1-.1 0 0 0-.1-.1-.1 0 0 0 0-.1-.1 0 0 0-.1-.1 0-.1 0 0-.1 0 0 0 0 0 0-.1 0 0 0 0zM68.7 59.2zM68.4 59.3z"/></g></g><g><path class="st4" d="M74.5 32.8h.1zM74.7 32.9c.1 0 .1 0 0 0l-.2-.1c0 .1.3.1.2.1zM74.7 33c0 .1.1.1 0 0 .1.1.1-.1 0 0zM75.3 38.8zM75.8 40.2c-.1-.3 0-.6-.1-.9 0-.8-.2-1.4-.3-2.2l-.1-.1c.1-.2-.1-.5 0-.6 0 0-.1-.1-.1 0 0-.3 0-.6-.1-.9-.1-.3-.2-.6-.2-.9h.1c-.2-.5-.2-1.1-.3-1.5-.1 0 0 .1-.1 0 0 .2.2.3.1.4 0 .1.1 0 .1.1h-.1c0 .2 0 .5.2.7-.1.1 0 .3-.1.4 0 .1 0 .1.1.1.1.8.2 1.6.2 2.5.2.4 0 .9.2 1.4.1.1.1.4.1.6l.1.1c-.1 1.1.3 2.2.3 3.4.1 1.3.1 2.4.4 3.6.1.4 0 .7.1 1 .2.8.1 1.8.4 2.6.1 1 .2 2.1.4 3.1.2.8 0 1.7.2 2.5 0 .9.4 1.7.3 2.6-.1.3 0 .6.1.9 0 .2.1.3.1.5s0 .3-.1.4c-1-.2-2 0-3.1.2-1-.1-1.9.2-2.8 0-.4.2-.9-.1-1.4-.1-.2-.1-.4.2-.5 0-.1-.1-.2.3-.3.1v.1c-.1 0 0-.1-.1-.1 0 0 0 .1-.1.1 0-.2-.3.1-.3-.2.1 0-.1-.1 0-.1 0 0-.2 0-.2.1s-.1.2 0 .3v-.1.1c.1 0 .2.1.3.2.1-.1.2 0 .2 0 0 .1.2-.2.1 0 .3 0 .7-.1 1-.1 0-.1.3 0 .2-.1.1.1.3.2.4.2.2.2.2-.2.4 0 0-.2.3 0 .4-.1v.1h.9c.2-.1.5 0 .7-.1.2 0 .4.1.6 0 .2 0 .6 0 .7-.2.1.2.2.1.3.2.2-.1.5-.1.8-.2 0 .1.2 0 .2.1.2-.1.4-.1.5-.1h.7c.3 0 .4-.5.4-.7 0-.2 0-.4.1-.6l-.3-.3c0-.1.1-.3 0-.4-.1-.1.1-.3 0-.4l-.1-.1s.1 0 .1.1c0-1.2-.4-2.4-.4-3.6l.3-.3c0-.3-.1-.6-.1-.9h.1c-.1-.2.1-.4-.1-.4h.1c-.1-.6-.2-1.2-.2-1.8-.2-.5-.1-1.1-.3-1.6-.2-.7-.1-1.4-.2-2.1 0-.3-.1-.5-.1-.8-.2-.5.1-1.1-.2-1.6h.1c-.1-.1 0-.3-.2-.3v-.1c-.3-.3 0-.7-.2-1.1 0-.1-.1-.2-.1-.3.1-.4-.1-.8-.2-1.1h.1c-.1-.2-.1-.5-.2-.7l-.1-.1h.1c.3-.3.1-.5.1-.9zM75.4 37.1zM69.3 60.6z"/></g><g><path class="st4" d="M69.6 58.8zM69.6 58.9c0-.1 0 0 0 0zM69.6 58.9zM69.5 58.9zM69.5 59s0-.1 0 0c.1 0 .1-.1 0 0 .1 0 .1-.1 0 0v-.1c.1 0 .1 0 0 .1 0-.1.1-.1.1-.1-.1.1-.1 0-.1.1 0-.1 0-.1 0 0 0-.1 0-.1 0 0 0-.1 0-.2 0 0 0-.1 0-.1 0 0 0-.1 0-.1 0 0 0 0-.1-.1 0 0h-.1s0 .1 0 0 0 .1 0 0c0 0 0 .1 0 0 0 0 0-.1 0 0 0 0 0 .1 0 0 0 0 0 .1 0 0v-.1.2s0-.1 0 0v.1c0 .1 0-.1 0 0 0-.1 0 0 0 0v.1c0-.1 0-.1 0 0v-.1s0-.1 0 0c0-.2 0-.1.1-.2-.1 0-.1 0 0 0-.1 0-.1 0 0 0 0-.1 0 .1 0 0zM69.5 59zM69.3 59.1zM70.7 58.9v-.1.1zM70.7 58.9c0-.1 0 0 0 0zM70.7 58.9zM70.7 58.9zM70.6 59c.1 0 .1 0 0 0 .1 0 .1 0 0 0 .1 0 .1 0 0 0 .1 0 .1 0 0 0 .1 0 .1 0 0 0 .1-.1.1-.1 0 0 .1-.1.1-.1 0 0 .1-.1.1-.1 0 0l.1-.1-.1.1c.1 0 .1-.1 0 0 .1-.1.1-.1 0 0 0-.1 0-.1 0 0 0-.1 0-.2 0 0 0-.1 0-.1 0 0 0-.1 0-.1 0 0 0 0 0-.1 0 0h-.1s0 .1 0 0 0 .1 0 0c0 0 0 .1 0 0 0 0 0-.1 0 0 0 0 0 .1 0 0 0 0 0 .1 0 0v-.1.2s0-.1 0 0v.1c0 .1 0-.1 0 0 0-.1 0 0 0 0v.1c0-.1 0 0 0 0v-.1s0-.1 0 0c0-.2 0-.2.1-.2 0 0 0 .1 0 0s0 .1 0 0c0 .1 0 0 0 0zM70.7 59zM70.4 59.1z"/><g><path class="st4" d="M71.8 58.9zM71.8 58.9s0 .1 0 0zM71.8 58.9s0 .1 0 0zM71.8 58.9zM71.8 59s0 .1 0 0c0 .1 0 0 0 0v-.1.1c0-.1 0-.1 0 0l.1-.1c-.1 0-.1 0-.1.1 0 0 0-.1 0 0 0-.1 0 0 0 0-.1-.1-.1-.1 0 0-.1 0-.1 0 0 0-.1 0-.1-.1 0 0-.1 0-.1-.1 0 0h-.1s0 .1 0 0 0 .1 0 0c0 0 0 .1 0 0 0 0 0-.1 0 0 0 0 0 .1 0 0 0 0 0 .1 0 0v-.1.2s0-.1 0 0v.1c0 .1 0-.1 0 0 0-.1 0 0 0 0v.1c0-.1 0 0 0 0v-.1s0-.1 0 0c0-.1 0-.1.1-.2-.1 0-.1.1 0 0-.1 0-.1.1 0 0-.1.1-.1 0 0 0-.1 0-.1.1 0 0-.1 0-.1.1 0 0-.1 0-.1.1 0 0-.1 0-.1 0 0 0-.1.1 0 0 0 0s0 .1 0 0zM71.8 59zM71.5 59.1z"/></g><g><path class="st4" d="M72.9 58.8zM72.9 58.9c0-.1.1 0 0 0zM72.9 58.9c0-.1 0 0 0 0zM72.9 58.9z"/><path class="st4" d="M72.9 59c0-.1 0-.1 0 0 0-.1 0-.1 0 0 0 0 0-.1 0 0 0-.1 0-.1 0 0v-.1.1c0-.1.1-.1.1-.1-.1 0-.1 0-.1.1 0-.1 0-.1 0 0 0-.1 0-.1 0 0 0-.1-.1-.2 0 0-.1-.1-.1-.1 0 0-.1-.1-.1-.1 0 0-.1-.1-.1-.1 0 0h-.1s0 .1 0 0 0 .1 0 0c0 0 0 .1 0 0 0 0 0-.1 0 0 0 0 0 .1 0 0 0 0 0 .1 0 0v-.1.2s0-.1 0 0v.1c0 .1 0-.1 0 0 0-.1 0 0 0 0v.1c0-.1 0-.1 0 0v-.1s0-.1 0 0c0-.2 0-.2.1-.2-.1 0-.1 0 0 0-.1-.1-.1 0 0 0-.1 0-.1 0 0 0-.1-.1 0 0 0 0 0-.1 0 0 0 0s0-.1 0 0zM72.9 58.9zM72.7 59.1z"/></g><g><path class="st4" d="M74.1 58.8zM74.1 58.8c0-.1 0 0 0 0zM74.1 58.8zM74 58.8zM74 58.9v-.1c.1 0 .1 0 0 .1 0-.1 0-.1.1-.1-.1.1-.1 0-.1.1 0-.1 0-.1 0 0 0-.1 0-.1 0 0 0-.1 0-.1 0 0 0-.1 0-.1 0 0 0 0 0-.1 0 0-.1 0-.1-.1 0 0h-.1s0 .1 0 0 0 .1 0 0c0 0 0 .1 0 0 0 0 0-.1 0 0 0 0 0 .1 0 0 0 0 0 .1 0 0v-.1.2s0-.1 0 0v.1c0 .1 0-.1 0 0 0-.1 0 0 0 0v.1c0-.1 0-.1 0 0v-.1s0-.1 0 0c0-.1 0-.1.1-.2-.1 0-.1.1 0 0-.1 0 0 0 0 0s0 .1 0 0c0 0 0 .1 0 0s0 .1 0 0c0 .1 0 0 0 0zM74 58.9zM73.8 59z"/></g><g><path class="st4" d="M75.2 58.7zM75.2 58.7c0-.1 0 0 0 0zM75.2 58.7zM75.1 58.7zM75.1 58.8s.1 0 0 0c.1 0 .1 0 0 0 .1 0 .1 0 0 0 .1 0 .1 0 0 0 .1 0 .1 0 0 0 .1 0 .1 0 0 0v-.1c.1 0 .1 0 0 .1 0-.1 0-.1.1-.1 0 .1-.1 0-.1.1 0-.1 0-.1 0 0 0-.1 0 0 0 0 0-.1 0 0 0 0 0-.1 0-.1 0 0 0 0 0-.1 0 0 0 0 0-.1 0 0H75s0 .1 0 0 0 .1 0 0c0 0 0 .1 0 0 0 0 0-.1 0 0 0 0 0 .1 0 0 0 0 0 .1 0 0v-.1.2s0-.1 0 0v.1c0 .1 0-.1 0 0 0-.1 0 0 0 0v.1c0-.1 0-.1 0 0V59s0-.1 0 0c0-.1 0-.1.1-.2-.1.1-.1.1 0 0-.1 0 0 .1 0 0 0 0 0 .1 0 0 0 0 0 .1 0 0s0 .1 0 0c0 .1 0 0 0 0 0 .1 0 0 0 0zM75.2 58.8zM74.9 58.9z"/></g><g><path class="st4" d="M76.3 58.6zM76.3 58.6s0 .1 0 0zM76.3 58.6s0 .1 0 0zM76.3 58.6zM76.3 58.7s0 .1 0 0c0 .1 0 0 0 0v-.1.1c0-.1 0-.1.1-.1-.1.1-.1 0-.1.1-.1-.1-.1 0 0 0-.1-.1-.1-.1 0 0-.1 0-.1 0 0 0-.1 0-.1 0 0 0-.1 0-.1 0 0 0h-.1s0 .1 0 0 0 .1 0 0c0 0 0 .1 0 0 0 0 0-.1 0 0 0 0 0 .1 0 0 0 0 0 .1 0 0v-.1.2s0-.1 0 0v.1c0 .1 0-.1 0 0 0-.1 0 0 0 0v.1c0-.1 0-.1 0 0v-.1s0-.1 0 0c0-.1 0-.1.1-.2-.1 0-.1.1 0 0-.1 0-.1.1 0 0-.1.1-.1 0 0 0-.1 0-.1.1 0 0-.1 0-.1.1 0 0-.1 0-.1.1 0 0-.1 0-.1 0 0 0-.1.1-.1 0 0 0-.1 0-.1.1 0 0zM76.3 58.7zM76 58.9z"/></g><g><path class="st4" d="M77.4 58.5v.1zM77.4 58.6c0-.1 0 0 0 0zM77.4 58.6zM77.4 58.6zM77.4 58.7s0-.1 0 0c0 0 0-.1 0 0v-.1.1l.1-.1c-.1 0-.1 0-.1.1 0 0 0-.1 0 0 0-.1 0-.1 0 0 0-.1 0-.1 0 0-.1-.1-.1-.2 0 0-.1-.1-.1-.1 0 0-.1-.1-.1-.1 0 0-.1 0-.1-.1 0 0h-.1s0 .1 0 0 0 .1 0 0c0 0 0 .1 0 0 0 0 0-.1 0 0 0 0 0 .1 0 0 0 0 0 .1 0 0v-.1.2s0-.1 0 0v.1c0 .1 0-.1 0 0 0-.1 0 0 0 0v.1c0-.1 0 0 0 0v-.1s0-.1 0 0c0-.2 0-.2.1-.2-.1 0-.1 0 0 0-.1 0-.1 0 0 0-.1 0-.1 0 0 0-.1-.1-.1.1 0 0-.1 0-.1 0 0 0-.1-.1-.1 0 0 0zM77.4 58.7zM77.1 58.8z"/></g></g><g><path class="st4" d="M79.2 31.7v.1zM79.4 32l-.2-.1c-.1 0 .2 0 .2.1zM79.4 32c0 .1 0 .1 0 0 0 .1.1 0 0 0zM80.8 37.6zM81.4 39c-.1-.2-.1-.6-.2-.9-.1-.7-.3-1.4-.6-2.1l-.1-.1c.1-.2-.2-.4-.1-.5h-.1c-.2-.6-.3-1.1-.6-1.7h.1c-.3-.5-.3-1-.4-1.5-.1 0 0 .1-.1 0 0 .2.2.3.1.4 0 .1.1 0 .1.1s-.1 0-.1 0c.1.2.1.5.2.7-.1.1.1.3 0 .4l.1.1c.2.8.5 1.6.7 2.4.3.3.2.8.3 1.3.1.1.1.4.2.5l.1.1c.1 1.1.5 2.2.7 3.3.3 1.2.4 2.3.9 3.5.1.3.1.7.2 1 .3.8.3 1.7.7 2.4.2 1 .4 2 .7 3 .3.8.3 1.6.6 2.4.1.4.3.8.4 1.2.1.4.3.8.4 1.2 0 .3.2.5.3.8.1.3.2.6 0 .8-.2.2-.5.1-.7.2-.2.1-.5.1-.7.2-.5.2-.9.4-1.4.6-.9.1-1.8.5-2.7.5-.4.2-.9 0-1.4 0-.2-.1-.4.2-.5 0-.1-.1-.2.3-.3.2v.1c-.1 0 0-.1-.1-.1 0 0 0 .1-.1.1 0-.2-.3.1-.3-.2.1 0-.1-.1 0-.2 0 0-.2 0-.2.1s-.1.2 0 .3v-.1c0 .1 0 0 .1.1.1 0 .2.1.3.2.1-.1.2-.1.2 0s.2-.2.1 0c.3-.1.6-.1 1-.1 0-.1.3 0 .2-.1.1.1.4.1.4.1.2.1.2-.2.4 0 0-.2.3 0 .4-.2v.1c.3 0 .6-.1.9-.1.2-.2.5 0 .7-.3.2 0 .4 0 .6-.1.2 0 .5-.2.7-.3.1.2.2.1.3.1.1-.1.5-.2.7-.3.1.1.2-.1.2 0 .2-.1.3-.2.5-.3.1 0 .2-.1.3-.1.1 0 .2-.1.3-.2.1-.1.2-.2.2-.4v-.4-.6c-.1-.1-.3-.1-.4-.2-.1-.1 0-.3-.1-.4-.1-.1 0-.3-.1-.4l-.1-.1h.1c-.1-.5-.3-1.1-.5-1.7-.2-.6-.5-1.1-.6-1.7l-.1-.2c0-.3-.2-.6-.2-.8h.1c-.1-.2.1-.4-.2-.4h.1c-.2-.6-.3-1.2-.4-1.8-.3-.4-.2-1-.5-1.5-.3-.6-.3-1.4-.5-2-.1-.3-.1-.5-.2-.7-.3-.4-.1-1-.4-1.5h.1c-.1-.1 0-.3-.2-.2v-.1c-.3-.3 0-.6-.3-1-.1-.1-.1-.2-.1-.3.1-.4-.2-.7-.3-1.1h.1c-.1-.2-.1-.5-.2-.7l-.1-.1h.1c.5-.2.4-.4.3-.7zM80.6 36zM78.1 60c-.1 0-.1 0 0 0z"/></g><g><path class="st4" d="M77.6 58.3zM77.6 58.3c0-.1 0 0 0 0zM77.6 58.3zM77.6 58.3zM77.6 58.4s0 .1 0 0c0 .1 0 0 0 0v-.1.1c0-.1 0 0 0 0-.1-.1-.1-.1 0 0-.1 0-.1 0 0 0-.1 0-.1 0 0 0-.1 0-.1 0 0 0h-.1s0 .1 0 0 0 .1 0 0c0 0 0 .1 0 0 0 0 0-.1 0 0 0 0 0 .1 0 0 0 0 0 .1 0 0v-.1.2s0-.1 0 0v.1c0 .1 0-.1 0 0v.1c0-.1 0-.1 0 0v-.1-.1l.1-.1-.1.1.1-.1c-.1.1-.1.1 0 0-.1.1-.1.2 0 0-.1.1-.1.1 0 0-.1.1-.1.1 0 0-.1.1-.1.1 0 0-.1 0-.1.1 0 0-.1.1-.1 0 0 0-.1 0 0 .1 0 0-.1 0 0 .1 0 0-.1 0 0 .1 0 0 0 .1 0 0 0 0s0 .1 0 0zM77.6 58.4zM77.4 58.6zM78.7 58.1v.1zM78.7 58.2c0-.1.1 0 0 0zM78.7 58.2zM78.7 58.2z"/><path class="st4" d="M78.7 58.3s0-.1 0 0c0 0 0-.1 0 0v-.1.1c0-.1 0-.1.1-.1-.1.1-.1 0-.1.1 0-.1 0-.1 0 0 0-.1 0-.1 0 0 0-.1-.1-.2 0 0-.1-.1-.1-.1 0 0-.1-.1-.1-.1 0 0-.1 0-.1-.1 0 0h-.1s0 .1 0 0 0 .1 0 0c0 0 0 .1 0 0 0 0 0-.1 0 0 0 0 0 .1 0 0 0 0 0 .1 0 0v-.1.2s0-.1 0 0v.1c0 .1 0-.1 0 0 0-.1 0 0 0 0v.1c0-.1 0-.1 0 0v-.1s0-.1 0 0c0-.2 0-.1.1-.2-.1.1-.1.1 0 0-.1 0-.1.1 0 0-.1 0-.1 0 0 0-.1 0-.1 0 0 0-.1-.1 0 .1 0 0zM78.7 58.3zM78.5 58.4z"/><g><path class="st4" d="M79.9 58zM79.9 58.1c0-.1 0 0 0 0zM79.9 58.1c0-.1 0 0 0 0zM79.8 58.1zM79.8 58.2c0-.1 0-.1 0 0 0-.1 0-.1 0 0 0 0 0-.1 0 0 0-.1 0-.1 0 0v-.1.1c0-.1 0-.1 0 0 0-.1 0-.1 0 0 0-.1 0-.2 0 0 0-.1 0-.1 0 0-.1-.1-.1-.1 0 0-.1-.1-.1-.1 0 0h-.1s0 .1 0 0 0 .1 0 0c0 0 0 .1 0 0 0 0 0-.1 0 0 0 0 0 .1 0 0 0 0 0 .1 0 0v-.1.2s0-.1 0 0v.1c0 .1 0-.1 0 0 0-.1 0 0 0 0v.1c0-.1 0-.1 0 0v-.1s0-.1 0 0c0-.2 0-.1.1-.2-.1 0-.1.1 0 0-.1 0-.1.1 0 0-.1 0-.1 0 0 0-.1 0-.1 0 0 0-.1-.1 0 0 0 0 0-.1 0 0 0 0 0-.1 0 0 0 0s0-.1 0 0zM79.8 58.1zM79.6 58.3z"/></g><g><path class="st4" d="M80.9 57.8h.1zM81 57.8c-.1 0 0 .1 0 0zM81 57.8s0 .1 0 0zM80.9 57.9zM80.9 57.9s0 .1 0 0c0 .1 0 0 0 0 0 .1 0 0 0 0v-.1.1c0-.1 0 0 0 0 0-.1-.1-.1 0 0-.1 0-.1 0 0 0-.1 0-.1 0 0 0-.1 0-.1 0 0 0h-.1s0 .1 0 0 0 .1 0 0c0 0 0 .1 0 0 0 0 0-.1 0 0 0 0 0 .1 0 0 0 0 0 .1 0 0v-.1.2s0-.1 0 0v.1c0 .1 0-.1 0 0v.1c0-.1 0-.1 0 0v-.1-.1l.1-.1c-.1.1-.1.1 0 0-.1.1-.1.2 0 0-.1.1-.1.1 0 0-.1.1-.1.1 0 0-.1.1-.1.1 0 0-.1 0 0 .1 0 0 0 .1 0 .1 0 0 0 0 0 .1 0 0 0 0 0 .1 0 0 0 0 0 .1 0 0 0 .1 0 0 0 0s0 .1 0 0zM80.9 57.9zM80.7 58.1z"/></g><g><path class="st4" d="M82 57.6h.1zM82.1 57.6c-.1-.1 0 0 0 0zM82.1 57.6zM82 57.6zM82 57.7s0 .1 0 0c0 .1 0 0 0 0v-.1.1c0-.1 0 0 0 0 0-.1-.1-.1 0 0 0 0-.1 0 0 0-.1 0-.1 0 0 0-.1 0-.1 0 0 0h-.1s0 .1 0 0 0 .1 0 0c0 0 0 .1 0 0 0 0 0-.1 0 0 0 0 0 .1 0 0 0 0 0 .1 0 0v-.1.2s0-.1 0 0v.1c0 .1 0-.1 0 0v.1c0-.1 0-.1 0 0v-.1-.1l.1-.1c-.1.1-.1.1 0 0-.1.1-.1.2 0 0-.1.1-.1.1 0 0-.1.1-.1.1 0 0-.1 0 0 .1 0 0-.1 0 0 .1 0 0 0 .1 0 0 0 0s0 .1 0 0c0 0 0 .1 0 0 0 0 0 .1 0 0 0 .1 0 0 0 0s0 .1 0 0zM82 57.7zM81.8 57.9z"/></g><g><path class="st4" d="M83.1 57.3zM83.2 57.4c-.1-.1 0 0 0 0zM83.1 57.4c0-.1.1 0 0 0 0 0 .1 0 0 0zM83.1 57.4zM83.1 57.5c0-.1 0 0 0 0s0-.1 0 0c0-.1 0-.1 0 0 0 0 0-.1 0 0 0 0 0-.1 0 0v-.1.1c0-.1 0-.1 0 0 0-.1 0-.1 0 0 0-.1 0-.1 0 0 0-.1-.1-.2 0 0-.1-.1-.1-.1 0 0-.1-.1-.1-.1 0 0-.1 0-.1-.1 0 0H83s0 .1 0 0 0 .1 0 0c0 0 0 .1 0 0 0 0 0-.1 0 0 0 0 0 .1 0 0 0 0 0 .1 0 0v-.1.2s0-.1 0 0v.1c0 .1 0-.1 0 0v.1c0-.1 0-.1 0 0v-.1-.1s0-.1.1-.1c-.1.1-.1.1 0 0-.1 0-.1.1 0 0-.1.1-.1.1 0 0-.1.1-.1.1 0 0-.1 0-.1.1 0 0-.1 0 0 0 0 0 0-.1 0 .1 0 0zM83.1 57.5zM82.9 57.6z"/></g><g><path class="st4" d="M84.2 57.1zM84.3 57.1c-.1-.1 0 .1 0 0zM84.2 57.1s.1 0 0 0c0 0 .1.1 0 0zM84.2 57.1zM84.2 57.2s0 .1 0 0c0 .1 0 0 0 0v-.1.1c0-.1 0 0 0 0 0-.1-.1-.1 0 0-.1 0-.1 0 0 0-.1 0-.1 0 0 0-.1 0-.1 0 0 0h-.1s0 .1 0 0 0 .1 0 0c0 0 0 .1 0 0 0 0 0-.1 0 0 0 0 0 .1 0 0 0 0 0 .1 0 0v-.1.2s0-.1 0 0v.1c0 .1 0-.1 0 0v.1c0-.1 0-.1 0 0v-.1-.1l.1-.1c-.1.1-.1.1 0 0-.1.1-.1.2 0 0-.1.1-.1.1 0 0-.1.1-.1.1 0 0-.1.1-.1.1 0 0-.1 0 0 .1 0 0 0 .1 0 .1 0 0 0 0 0 .1 0 0 0 0 0 .1 0 0 0 0 0 .1 0 0 0 .1 0 0 0 0s0 .1 0 0zM84.2 57.2zM84 57.4z"/></g><g><path class="st4" d="M85.4 56.9zM85.4 56.9c0-.1 0 0 0 0zM85.4 56.9zM85.3 56.9zM85.3 57s0 .1 0 0c0 .1 0 0 0 0v-.1.1c0-.1 0 0 0 0 0-.1-.1-.1 0 0-.1 0-.1 0 0 0-.1 0-.1 0 0 0h-.1s0 .1 0 0 0 .1 0 0c0 0 0 .1 0 0 0 0 0-.1 0 0 0 0 0 .1 0 0 0 0 0 .1 0 0v-.1.2s0-.1 0 0v.1c0 .1 0-.1 0 0 0-.1 0 0 0 0v.1c0-.1 0-.1 0 0v-.1s0-.1 0 0c0-.1 0-.1.1-.2-.1.1-.1.2 0 0-.1.1-.1.1 0 0-.1.1-.1.1 0 0-.1 0-.1.1 0 0-.1 0 0 .1 0 0 0 .1 0 0 0 0s0 .1 0 0c0 0 0 .1 0 0 0 0 0 .1 0 0 0 .1 0 0 0 0s0 .1 0 0zM85.3 57zM85.1 57.2z"/></g></g></g></svg>