<svg id="Layer_1" xmlns="http://www.w3.org/2000/svg" viewBox="0 0 128 128"><style>.st0{fill:#fff}.st1{fill:#bcbdbe}.st2{fill:#666}.st3{fill:none;stroke:#6d80a3;stroke-width:.2839;stroke-linecap:round;stroke-linejoin:round}.st4{fill:#646363}</style><ellipse class="st0" cx="64" cy="64" rx="62.4" ry="64"/><path class="st1" d="M123.1 69.2h.1-.1zm-.2 0c-.1 0-.1 0 0 0zm0 0h-.1c.1-.1-.1-.1.1 0zm0-.9zm-.6-.2h-.1c.2.1 0 .1.1.1-.1.1.2.2.3.3h-.1c-.2 0 .1.1 0 .1h.2c.1.1.1.2.3.3h-.2c.4.1.2.2.1.2h.2c.1 0-.2-.1-.1-.1h.1s0-.1-.2-.1h.2-.2c.1-.1-.1-.2-.1-.4-.4-.1.1-.1 0-.2-.1 0-.1-.1-.1-.1h-.2c.3-.1.1-.3.3-.5.1-.2.4-.3-.1-.5h.1c-.1-.1.1-.1 0-.1-.3-.1.1-.2-.3-.4 0-.1 0-.3-.1-.5h.1c-.2-.1.3-.2.1-.3.2-.1-.4-.3-.2-.4.4-.1-.4-.2 0-.2.6-.1.2-.3-.1-.4.2-.1-.3-.3.1-.4-.3-.1.3-.1.3-.2h-.1c.3 0-.4-.1 0-.1h-.3.6-.6.2H121.9c.2 0 .1 0 0 0h-.1c-.2 0 .4 0 0 0 .1 0 .1.1.1.1h.2c-.3 0-.3 0-.3.1 0 0-.1 0 0 0-.3 0 .3 0-.1.1.3 0-.1 0 .3.1h-.2l-.1.1c.3 0-.1.1.2.1-.1 0-.2.1-.1.1 0 0 0 .1.3.1h-.4c.2 0 .1.1.3.1h-.2c.4.1.3.2-.1.3.1 0 .4 0 .6.1h-.1s-.2 0-.1.1h-.1c.1 0-.2 0 0 .1h-.1.1-.2c-.1.2.3.3.2.5h-.1c-.1 0 .1.1 0 .1h-.2c.2 0-.3 0 .2.1h-.2c.1.1.1.2.1.3.4.1 0 .2.3.2h-.1c.3.1 0 .2 0 .3l.1.1h-.1c.4.1-.3.1.1.2h-.1c.2 0-.1 0 .3.1h-.1c.5.1-.2.1.1.2h-.1c.1 0 .1 0 0 0h-.1c-.3 0 0 .1 0 .2h-.2c.2 0 0 .1.1.1h-.1.1-.1c.3-.1.4-.1.4 0zm.1.4zm-.5-4.4zm-1 17h-.1zm-.3-.1l.3.1c.2 0-.4-.1-.3-.1zm.1 0c.1 0-.1 0-.1-.1.1.1-.1.1.1.1zm.1-.8z"/><path class="st1" d="M120.3 79.8h-.1c.2.1 0 .1.1.2-.1.1.1.2.2.4h-.1c-.2 0 .1.1 0 .1 0 0 .1 0 .2.1 0 .1.1.2.2.3h-.2c.3.2.2.2.1.3.1 0 .1 0 .2.1.1 0-.2-.1 0-.1h.1c.1 0-.2-.1-.1-.1h.1s.1-.1-.1-.1h.2c-.1 0-.1 0-.2-.1.1-.1 0-.3 0-.4-.4-.2.1-.1 0-.2-.1 0-.1-.1-.1-.1l-.1-.1c.4-.1.2-.3.3-.4.1-.2.4-.2 0-.5h.1c-.1-.1.1-.1 0-.1-.3-.2.1-.2-.2-.4.1-.1.1-.3 0-.5h.1c-.1-.2.3-.2.2-.3.2-.1-.4-.3-.1-.4.4 0-.4-.3 0-.2.6 0 .3-.2 0-.5.2-.1-.3-.3.2-.4-.2-.1.4-.1.3-.1h-.1c.3 0-.4-.1 0-.1.2 0-.5-.1-.2-.1h-.1.1c.4.1-.1-.1.4 0 0 0 .2 0 .3.1.1 0 0 0-.2-.1-.2 0-.4-.1-.6-.1h.2H120.8c.2 0 .1 0 0 0h-.1c-.2 0 .4.1 0 0 .1.1.1.1 0 .2.1 0 0 0 .2.1h-.3s-.1 0 0 0c-.3 0 .3.1-.1 0 .3.1-.1 0 .2.1h-.2s-.1.1-.2.1c.2.1-.1 0 .2.1-.1 0-.2 0-.1.1 0 0 0 .1.2.2-.3-.1-.3 0-.4 0 .2.1.1.1.2.2h-.2c.4.2.2.3-.1.3.1 0 .4.1.5.2h-.4c.1 0-.2 0 0 .1h-.1.1-.2c-.1.1.2.4.1.6h-.1l.1.1h-.1c-.1 0 .1.1 0 .1h-.1c.2.1-.3 0 .1.1h-.1c.1.1.1.2 0 .3.4.2 0 .2.3.3h-.1c.2.2-.1.2 0 .3v.1h-.1c.3.2-.4.1 0 .2h-.1c.2.1-.1 0 .3.1h-.1c.4.2-.2 0 0 .2h-.1c.1 0 .1.1 0 .1h-.1c-.3 0 0 .1 0 .2h-.1c.2.1 0 .1.1.1h-.1.1-.1c.4-.8.5-.7.5-.7zm.1.5c-.1 0-.1 0 0 0zm.3-4.5zm-4.4 16.5h-.1zm-.3-.2l.2.2c.3.1-.3-.2-.2-.2zm.1 0c.1 0-.1-.1-.1-.1.1.1-.1.1.1.1zm.3-.7z"/><path class="st1" d="M116 90.9l-.1-.1c.1.2-.1.1.1.1l-.1.1c-.1.1.1.3.1.4h-.1l.1.1h-.1c-.2-.1.1.1-.1.1 0 0 .1.1.2.1 0 .1 0 .2.1.4 0 0-.1 0-.1-.1.3.2.1.2 0 .3.1 0 .1 0 .2.1.1 0-.2-.1 0-.1h.1c.1 0-.2-.1-.1-.1s.1.1.1.1.1 0-.1-.2c.2.1 0 0 .2 0-.1 0 0 0-.2-.1.1-.1 0-.3.1-.4-.3-.2.1-.1 0-.2s-.1-.1 0-.1l-.1-.1c.4 0 .2-.2.4-.3.2-.1.5-.1.1-.5h.1c0-.1.1-.1 0-.1-.2-.2.1-.2-.1-.5.1-.1.1-.3.1-.4h.1c-.1-.2.3-.1.3-.3.2 0-.3-.4 0-.4.4.1-.3-.3.1-.2.6.1.3-.2.1-.4.2 0-.2-.4.3-.3-.2-.2.4 0 .3-.1h-.1c.3.1-.3-.2.1-.1.2.1-.5-.2-.2-.1h-.1s.1 0 .2.1c0 0-.2-.1-.1-.1.4.2-.1-.1.4.1 0 0 .2.1.3.1l-.2-.1c-.2-.1-.4-.2-.5-.2l.1.1c-.1-.1-.1 0-.2-.1 0 0-.2-.1-.3-.1.2.1.1.1 0 0h-.1c-.2-.1.3.2 0 0 .1.1 0 .1 0 .2.1.1 0 0 .2.1-.2-.1-.3-.1-.3-.1-.3-.1.3.2-.1 0 .3.1-.1 0 .2.2-.1 0-.1 0-.2-.1 0 0-.1 0-.2.1.2.1-.1 0 .2.2h-.1s0 .1.2.2c-.3-.1-.3-.1-.4-.1l.2.2c-.1-.1 0 .1-.2 0 .4.3.2.3-.2.3.1.1.4.2.5.3h-.4c.1.1-.2 0 0 .1h-.1.1c-.1 0-.2-.1-.1-.1-.1.1.1.4 0 .6h-.1l.1.1h-.1c-.1 0 0 .1 0 .1l-.1-.1c.2.1-.3-.1.1.1l-.1-.1c.1.1 0 .2-.1.3.3.2 0 .2.2.4h-.1c.2.2-.1.2-.1.3v.1h-.1c.3.2-.4 0 0 .2l-.1-.1c.2.1-.1 0 .2.2h-.1c.4.3-.2 0 0 .2h-.1c.1 0 .1.1 0 .1h-.1c-.3-.1 0 .1-.1.2l-.1-.1c.2.1 0 .1 0 .1h-.1l.1.1-.1-.1c.2-.6.3-.5.3-.5zm-.1.5zm1.2-4.3c.1 0 .1 0 0 0 0 0 .1 0 0 0zm-7.6 15.2v.1l-.1-.1zm-.2-.2l.2.2c.2.1-.3-.3-.2-.2z"/><path class="st1" d="M109.3 102.1c.1 0-.1-.1-.1-.1l.1.1zm.5-.7z"/><path class="st1" d="M109.5 100.9l-.1-.1c.2.2-.1.1 0 .2-.1.1 0 .3 0 .4h-.1l.1.1-.1-.1c-.2-.1.1.1-.1 0l.1.1c0 .1 0 .2.1.4l-.1-.1c.2.3.1.3 0 .3.1.1.1.1.2.1.1.1-.2-.2 0-.1l.1.1c.1 0-.2-.1-.1-.1s.1.1.1.1c0-.1.1 0-.1-.2l.2.1c-.1-.1 0-.1-.1-.1.2 0 .1-.2.2-.3-.3-.3.1-.1.1-.2-.1-.1-.1-.1 0-.1l-.1-.1c.4.1.3-.2.5-.2.2-.1.5 0 .2-.5h.1c0-.1.1 0 .1-.1-.2-.3.2-.2 0-.5.1-.1.2-.2.2-.4h.1c-.1-.2.3 0 .3-.2.2 0-.2-.5.1-.4.3.2-.2-.4.1-.2.6.2.3-.1.1-.4.3 0-.1-.4.3-.3-.2-.2.4.1.3 0l-.2-.1c.2.1-.3-.3.1 0 .2.1-.4-.3-.2-.2l-.1-.1.1.1s-.2-.1-.1-.1c.4.2-.1-.1.3.2 0 0 .2.1.2.2l-.1-.1c-.2-.1-.3-.2-.5-.3l.1.1c-.1-.1-.1 0-.2-.1 0 0-.2-.1-.3-.2.2.1 0 .1 0 .1h-.1c-.2-.1.3.2 0 0v.2c.1.1 0 0 .2.1-.2-.1-.3-.2-.3-.1-.3-.2.2.2-.1 0 .2.2-.1 0 .2.2-.1 0-.1-.1-.1-.1h-.2c.2.2-.1 0 .1.2-.1 0-.2-.1-.1 0 0 0 0 .1.2.2-.3-.2-.2-.1-.3-.2.1.1 0 .1.1.2-.1-.1 0 .1-.2-.1.3.3.1.3-.2.2l.4.4s-.2-.1-.1 0h-.1c.1.1-.2-.1 0 0h-.1l.1.1c-.1 0-.2-.1-.1-.1-.2.1.1.5-.1.6h-.1l.1.1h-.1c-.1 0 0 .1 0 .1l-.1-.1c.1.2-.2-.1.1.1l-.1-.1c.1.2 0 .2-.1.2.3.3-.1.1.1.4h-.1c.2.2-.1.1-.2.3v.1l-.1-.1c.3.3-.4-.1-.1.2l-.1-.1c.2.1-.1 0 .2.2l-.1-.1c.3.3-.2-.1 0 .2l-.1-.1c0 .1.1.1 0 .1-.3-.2 0 .1-.1.1l-.1-.1c.1.1 0 .1 0 .1h-.1.1v-.2c-.1 0 0 .1 0 .2zm-.2.4zm2.1-3.9zm-10.5 13.4l-.1-.1zm-.2-.3l.2.2c.1.2-.3-.3-.2-.2zm0 .1c.1.1 0-.1-.1-.1.1 0 0-.1.1.1zm.6-.6zM101.1 109.4l-.1-.1c.1.2-.1.1 0 .2-.1 0 0 .3-.1.4v-.1l.1.1v-.1c-.2-.2 0 .2-.1 0l.1.1c0 .1-.1.2 0 .4l-.1-.1c.2.3 0 .3-.1.3.1.1.1.1.1.2.1.1-.1-.2 0-.1l.1.1s-.1-.2-.1-.1l.1.1c0-.1.1 0 0-.2.1.1 0 0 .2.1 0-.1 0-.1-.1-.2.2 0 .1-.2.2-.3-.2-.3.1 0 .1-.2v-.1l-.1-.1c.3.2.3-.1.5-.1s.5.1.3-.4v.1c0-.1.1 0 .1-.1-.1-.3.2-.1.1-.5.1-.1.2-.2.3-.4l.1.1c0-.2.3 0 .3-.1.2 0-.1-.5.1-.4.3.2-.2-.4.2-.2.5.3.4 0 .2-.4.2.1 0-.4.4-.2-.1-.2.3.2.3.1l-.1-.1c.2.2-.2-.3.1 0 .2.1-.3-.4-.1-.2l-.1-.1.1.1-.1-.1c.3.3 0-.1.3.3l.2.2-.1-.2c-.1-.2-.3-.3-.4-.4l.1.1-.1-.1s-.2-.2-.3-.2c.1.1 0 .1 0 .1l-.1-.1c-.1-.1.2.3 0 0 0 .1 0 .1-.1.1.1.1 0 0 .1.2-.2-.2-.3-.2-.3-.2-.3-.2.2.3-.1 0 .2.2-.1 0 .1.2l-.1-.1h-.2c.2.2-.1 0 .1.2-.1 0-.2-.1-.1 0 0 0 0 .1.1.3l-.3-.3c.1.1 0 .1.1.3-.1-.1 0 .1-.1-.1.2.4 0 .4-.3.2.1.1.3.3.4.5 0 0-.2-.1-.1-.1v-.1c.1.1-.2-.1 0 0v.1l-.1-.1c-.2.1 0 .5-.2.5v-.1l.1.1v-.1c-.1-.1 0 .1-.1.1l-.1-.1c.1.2-.2-.2.1.2l-.1-.1c0 .2 0 .2-.2.2.2.3-.1.1.1.4l-.1-.1c.1.3-.2.1-.2.2-.1 0 0 .1 0 .1l-.1-.1c.2.3-.3-.2-.1.2l-.1-.1c.1.2-.1 0 .2.2l-.1-.1c.3.4-.2-.1-.1.2l-.1-.1v.1c-.3-.2-.1.1-.1.1l-.1-.1c.1.2 0 .1 0 .1v-.1l.1.1-.1-.1c-.3 0-.3.1-.3.2zm-.2.4zm2.8-3.5zM90.7 117.3v.1-.1zm-.1-.2s0-.1 0 0l.1.3c.1.1-.2-.4-.1-.3z"/><path class="st1" d="M90.6 117.1c0 .1 0-.1-.1-.1.1.1 0-.1.1.1zm.7-.5zm-.1-.6l-.1-.1c.1.2-.1 0-.1.2-.1 0-.1.3-.1.4v-.1s.1.1 0 .1v-.1c-.1-.2 0 .2-.1 0 0 0 0 .1.1.2 0 .1-.1.2-.1.4 0 0 0-.1-.1-.1.1.4 0 .3-.1.3 0 .1.1.1.1.2.1.1-.1-.2 0-.1v.1s-.1-.2 0-.1c0 .1.1.1.1.1s.1 0 0-.2c.1.2 0 0 .1.1 0-.1 0-.1-.1-.2.2 0 .2-.2.3-.2-.1-.4.1 0 .1-.1v-.1l-.1-.2c.3.2.3-.1.5 0 .2 0 .5.2.4-.4v.1c0-.1.1 0 .1-.1 0-.3.2-.1.2-.4.1 0 .3-.1.3-.3v.1c0-.2.3.1.4-.1.2.1 0-.5.2-.4.3.3-.1-.5.2-.2.4.4.4 0 .3-.3.2.1.1-.4.4-.1-.1-.3.3.2.3.1l-.1-.1c.2.2-.2-.4.1 0l-.1-.2-.1-.1.1.1s-.1-.2-.1-.1c.2.4 0-.1.2.3l.1.2-.1-.2c-.1-.2-.2-.4-.3-.5l.1.1c-.1-.1 0-.1-.1-.2 0 0-.2-.2-.2-.3.1.2 0 .1 0 .1v-.1c-.1-.2.2.3 0 0 0 .1 0 .1-.1.1.1.1 0 0 .1.2-.2-.2-.2-.3-.2-.2-.2-.3.1.3-.1-.1.2.3-.1-.1.1.2 0-.1-.1-.1-.1-.2 0 0-.1-.1-.2 0 .1.2-.1-.1 0 .3-.1-.1-.2-.2-.1 0v.3c-.2-.3-.2-.2-.2-.3.1.1 0 .1 0 .3-.1-.1 0 .1-.1-.1.1.4 0 .4-.3.1.1.1.2.4.3.5v-.1l-.1-.1v-.1c0 .1-.1-.1-.1 0v-.1.1c0-.1-.1-.2-.1-.1-.2 0-.1.4-.3.5v-.1c-.1-.1 0 .1-.1.1 0 0 0-.1-.1-.1.1.2-.2-.2 0 .2l-.1-.1c0 .2-.1.2-.2.2.1.4-.1.1 0 .4v-.1c.1.3-.2.1-.2.2-.1 0 0 .1-.1.1v-.1c.1.4-.3-.2-.2.2l-.1-.1c.1.2-.1 0 .1.3l-.1-.1c.2.4-.2-.1-.1.2v-.1c-.2-.3-.1.1-.1.1l-.1-.1c.1.2-.1 0 0 .1v-.1.1l-.1-.1c.3 0 .4.2.3.2zm-.3.4zm3.5-2.8zM79.4 121.7v.1-.2zm0-.3v.3c.1.2-.1-.4 0-.3zm0 .1v-.1.1zm.8-.4zm0-.6v-.1c0 .2-.1 0-.1.1-.1 0-.1.2-.2.4v-.1c-.1-.2 0 .2-.1 0v.2c-.1.1-.1.1-.2.3v-.2c0 .4-.1.3-.2.2 0 .1 0 .1.1.2s0-.2 0-.1v.1c0 .1-.1-.2 0-.1v.1s.1 0 0-.2l.1.2v-.2c.1.1.2-.2.3-.2-.1-.4.1 0 .2-.1 0-.1 0-.1.1-.1v-.2c.2.3.3 0 .5.1.2 0 .4.2.5-.3v.1c0-.1.1 0 .1-.1 0-.3.3 0 .3-.4.1 0 .3-.1.4-.2v.1c.1-.2.3.2.4 0 .2.1.1-.5.3-.3.2.3 0-.5.2-.1.3.5.3.1.4-.3.2.2.1-.4.4 0 0-.3.2.3.3.2v-.1c.1.3-.1-.4.1 0 .1.2-.1-.5 0-.2v-.1s0 .1.1.1c0 0-.1-.2 0-.1.2.4 0-.1.2.4 0 0 .1.2.1.3v-.2c-.1-.2-.1-.4-.2-.5l.1.2c-.1-.1 0-.1-.1-.2 0 0-.1-.2-.2-.3.1.2 0 .1 0 .1v-.1c-.1-.2.1.3 0 0 0 .1-.1.1-.1.1 0 .1 0 0 .1.2-.1-.2-.2-.3-.2-.3s0-.1 0 0c-.1-.3.1.3-.1-.1.1.3-.1-.1 0 .3 0-.1 0-.1-.1-.2 0 0-.1-.1-.2-.1.1.3-.1-.1 0 .3 0-.1-.1-.2-.1-.1 0 0-.1.1 0 .3-.1-.3-.1-.3-.2-.4v.3c-.1-.1 0 .1-.1-.1.1.5-.1.3-.3.1 0 .1.1.4.1.6v-.1s-.1-.2-.1-.1v-.1c0 .1-.1-.2-.1 0v-.1.1c0-.1-.1-.2 0-.2-.2 0-.2.4-.4.4v-.1c-.1-.1-.1.1-.1.1v-.1c0 .2-.1-.2 0 .2v-.1c0 .2-.1.2-.2.1.1.4-.1.1-.1.4v-.1c0 .3-.2 0-.3.1 0 0 0 .1-.1.1v-.1c0 .4-.2-.3-.2.1v-.1c0 .2-.1-.1 0 .3v-.1c.1.5-.1-.2-.1.1v-.1c-.1-.3-.1.1-.1.1v-.2c0 .2-.1 0-.1.1v-.1.1-.1c-.7.2-.7.3-.8.3zm-.4.3zm4-2.1c0 .1 0 .1 0 0 0 0 0 .1 0 0zM67.5 123.7v.1-.2zm0-.3zm0 .1v-.1.1zm.8-.2zm.2-.6v-.1c0 .2-.1 0-.1.1-.1 0-.2.2-.3.3v-.1c0-.2-.1.1-.1 0v.2c-.1.1-.2.1-.2.3v-.2c0 .4-.1.2-.2.2v.2c0 .1 0-.2.1-.1v.1s.1 0 .1-.2c0 .2 0 0 .1.2v-.2c.1.1.2-.1.4-.1 0-.4.1.1.2-.1 0-.1 0-.1.1-.1v-.2c.2.3.3.1.5.2s.4.3.5-.2v.1c0-.1.1 0 .1 0 .1-.3.3 0 .3-.3.1 0 .3 0 .4-.1v.1c.1-.2.3.2.4.1.1.2.2-.5.3-.2.1.4.1-.4.2-.1.2.6.3.2.4-.2.2.2.2-.3.4.1 0-.3.2.3.2.2v-.1c.1.3 0-.4.1 0v-.4.1c.1.4 0-.1.1.4v.1c0-.2 0-.4-.1-.6s-.1-.2-.1-.3v.1-.1c0-.2 0 .4 0 0 0 .1-.1.1-.1.1v.2l-.1-.3s0-.1 0 0c-.1-.3 0 .3-.1-.1 0 .3-.1-.1 0 .3v-.2l-.1-.1c0 .3-.1-.1-.1.3 0-.1-.1-.2-.1-.1 0 0-.1 0-.1.3-.1-.3-.1-.3-.1-.4 0 .2-.1.1-.1.3 0-.2 0 .1-.1-.2 0 .5-.2.3-.3 0v.5s-.1-.2-.1-.1v-.1c0 .1-.1-.2-.1 0v-.2c-.2-.1-.3.4-.5.3v-.1c-.1-.1-.1.1-.1.1v-.2c0 .2-.1-.3 0 .2v-.2c-.1.2-.2.2-.2.1 0 .4-.1.1-.2.4v-.1c-.1.3-.2 0-.3.1l-.1.1v-.1c0 .4-.2-.3-.2.1v-.1c0 .2-.1-.1 0 .3v-.1c0 .5-.1-.2-.1.1v-.1c0 .1 0 .1 0 0v-.1c-.1-.3-.1 0-.2 0v-.2c0 .2-.1 0-.1.1v-.1.1-.1c-.2 0-.2.2-.3.2zm-.4.2zm4.3-1.2zM55.4 123.3v-.1zm.1-.3l-.1.3c0 .2.1-.4.1-.3zm0 0v-.1.1zm.8 0c0 .1 0 .1 0 0zm.3-.5v-.1c-.1.2-.1 0-.1.1-.1-.1-.2.2-.3.2v-.1c0-.2-.1.1-.1 0v.2c-.1 0-.2.1-.3.2v-.2c-.1.3-.2.2-.2.1v.2c0 .1.1-.2.1-.1v.1s.1.1.1-.2c.1.1.3-.1.4 0 .1-.4.1.1.2 0 0-.1.1-.1.1-.1v-.2c.1.3.3.1.5.3.2.1.3.4.5-.1v.1c.1-.1.1.1.1 0 .2-.3.2.1.4-.3.1 0 .3 0 .5-.1v.1c.1-.1.2.3.3.2.1.2.3-.4.4-.2 0 .4.2-.4.2 0 .1.6.3.2.4-.1.1.2.3-.3.4.1.1-.3.1.3.2.3v-.1c0 .3.1-.4.1 0 0 .2.1-.5.1-.2v-.5c0 .2 0 .1 0 0v-.1c0-.2 0 .4 0 0 0 .1-.1.1-.1.1v-.1s0-.1 0 0v-.1c0 .3 0-.1-.1.3v-.2l-.1-.1c0 .3-.1-.1-.1.2 0-.1 0-.2-.1-.1 0 0-.1 0-.1.3v-.4c0 .2-.1.1-.1.2v-.2c-.1.4-.2.3-.3-.1 0 .1-.1.4-.1.6V122.1c0 .1 0-.2-.1 0v-.2c-.2-.1-.4.3-.5.2v-.1c0-.1-.1.1-.1 0v-.2c0 .2 0-.3-.1.2v-.2c-.1.1-.2.1-.3 0-.1.4-.2 0-.3.3v-.1c-.1.3-.2 0-.3 0l-.1.1v-.1c-.1.4-.1-.3-.2.1v-.1c0 .2 0-.1-.1.3v-.1c-.1.5-.1-.2-.2.1v-.1c0 .1 0 .1-.1 0v-.1c0-.3-.1 0-.2 0v-.2c0 .2-.1 0-.1.1v-.1.1-.1c-.1.5-.2.6-.2.6zm-.5.1zm4.5-.3zM43.6 120.4v.1l.1-.1z"/><path class="st1" d="M43.8 120.2s0-.1 0 0l-.1.2c-.1.2.1-.3.1-.2zm0 0c0 .1 0-.1.1-.1-.1.1-.1-.1-.1.1zm.8.2z"/><path class="st1" d="M45 119.9v-.1c-.1.2-.1 0-.2.1-.1-.1-.3.1-.4.2v-.1l-.1.1v-.1c0-.2-.1.1-.1-.1 0 0 0 .1-.1.2-.1 0-.2 0-.3.2 0 0 0-.1.1-.2-.2.3-.2.2-.3.1 0 .1 0 .1-.1.2 0 .1.1-.2.1 0v.1c0 .1.1-.2.1-.1v.1s.1.1.2-.1c-.1.2 0 0 0 .2 0-.1 0 0 .1-.2.1.1.3 0 .4 0 .2-.3.1.1.2 0l.1-.1.1-.1c0 .4.3.2.4.4.1.1.2.5.5 0v.1c.1-.1.1.1.1 0 .2-.3.2.1.4-.2.1.1.3.1.5 0v.1c.2-.1.2.3.3.2.1.2.4-.3.4-.1 0 .4.3-.4.2 0 0 .6.2.3.5 0 .1.2.3-.2.4.2.1-.2 0 .4.1.3v-.1c0 .3.2-.4.1 0 0 .2.2-.5.1-.2v-.1.2s.1-.2 0-.1c-.1.4.1-.1-.1.4 0 0 0 .2-.1.3l.1-.2c.1-.2.1-.4.1-.6s0-.3.1-.3c-.1.2 0 .1 0 0v-.1c0-.2-.1.3 0 0-.1.1-.1 0-.2 0 0 .1 0 0-.1.2.1-.3 0-.3 0-.3s0-.1 0 0c.1-.3-.1.3 0-.1-.1.3 0-.1-.1.2v-.2s-.1-.1-.1-.2c-.1.2 0-.1-.2.2 0-.1 0-.2-.1-.1 0 0-.1 0-.2.2.1-.3 0-.3.1-.4l-.2.2v-.2c-.2.4-.3.2-.3-.1 0 .1-.1.4-.2.5v-.4c0 .1 0-.2-.1 0v-.1.1c0-.1.1-.2.1-.2-.1-.1-.4.2-.6.1v-.1l-.1.1v-.1c0-.1-.1.1-.1 0v-.1c-.1.2 0-.3-.1.1v-.1c-.1.1-.2.1-.3 0-.2.4-.2 0-.3.3v-.1c-.2.2-.2-.1-.3-.1h-.1v-.1c-.2.3 0-.4-.2 0v-.1c-.1.2 0-.1-.1.3v-.1c-.2.4 0-.2-.2 0v-.1c0 .1-.1.1-.1 0v-.1c.1-.3-.1 0-.2 0l.1-.1c-.1.2-.1 0-.1.1v-.1.1-.1c.5.4.4.5.4.5zm-.5 0zm4.4.6zM32.7 115.3v-.1zm.2-.3l-.2.2c-.1.2.2-.3.2-.2zm0 .1c0 .1.1-.1.1-.1-.1.1 0-.1-.1.1zm.7.3z"/><path class="st1" d="M34.1 115l.1-.1c-.2.2-.1 0-.1.1l-.1-.1c-.1-.1-.3 0-.4.1v-.1l-.1.1v-.1c.1-.2-.1.1-.1-.1 0 0-.1.1-.1.2-.1 0-.2 0-.4.1 0 0 0-.1.1-.1-.2.3-.2.1-.3 0-.1.1 0 .1-.1.2 0 .1.2-.2.1 0v.1c0 .1.1-.2.1-.1s-.1.1-.1.1 0 .1.2-.1l-.1.2c0-.1 0 0 .1-.2.1.1.3 0 .4.1.2-.3.1.1.2 0s.1-.1.1 0l.1-.1c0 .4.2.2.3.4.1.2.1.5.5.1v.1c.1 0 .1.1.1.1.3-.2.2.2.5-.1.1.1.3.1.4.1v.1c.2-.1.1.3.3.3 0 .2.4-.3.4 0-.1.4.3-.3.2.1-.1.6.2.3.4.1 0 .2.4-.2.3.3.2-.2 0 .4.1.3v-.1c-.1.3.2-.3.1.1l.1-.2v-.1s-.1.1-.1.2c0 0 .1-.2.1-.1-.2.4.1-.1-.1.4 0 0-.1.2-.1.3l.1-.1c.1-.2.2-.4.3-.5l-.1.1c.1-.1 0-.1.1-.2 0 0 .1-.2.1-.3-.1.2-.1.1-.1 0v-.1c.1-.2-.2.3 0 0-.1.1-.1 0-.2 0-.1.1 0 0-.1.2.1-.2.1-.3.1-.3.1-.3-.2.3 0-.1-.1.3 0-.1-.2.2 0-.1.1-.1.1-.2 0 0 0-.1-.1-.2-.1.2 0-.1-.2.2 0-.1.1-.2 0-.1 0 0-.1 0-.2.2.1-.3.1-.3.1-.4l-.2.2c.1-.1-.1 0 0-.2-.3.4-.3.2-.3-.2-.1.1-.2.3-.3.5v-.1s.1-.2 0-.2v-.1c-.1.1.1-.2 0 0v-.1l-.1.1c0-.1.1-.2.1-.1-.1-.1-.4.1-.6 0v-.1l-.1.1v-.1c0-.1-.1 0-.1 0l.1-.1c-.1.2.1-.3-.1.1l.1-.1c-.1.1-.2 0-.3-.1-.3.3-.2 0-.4.2v-.1c-.2.2-.2-.1-.3-.1h-.1v-.1c-.2.3 0-.4-.2 0l.1-.1c-.1.2 0-.1-.2.2v-.1c-.3.4 0-.2-.2 0v-.1s-.1.1-.1 0c.1-.3-.1 0-.2-.1l.1-.1c-.1.1-.1 0-.1 0v-.1l-.1.1.1-.1c.8-.1.7 0 .6 0zm-.5-.1zm4.3 1.5s-.1 0 0 0zM23 108l.1-.1zm.2-.2c.1 0 .1 0 0 0l-.2.2c-.1.2.3-.3.2-.2z"/><path class="st1" d="M23.2 107.8c0 .1.1-.1.1-.1l-.1.1zm.7.5zm.6-.3c-.1.1 0-.2-.1-.1 0-.1-.3 0-.4 0l-.1.1.1-.1c.1-.2-.1.1 0-.1l-.1.1h-.4l.1-.1c-.3.2-.3.1-.3 0l-.1.1c-.1.1.2-.1.1 0l-.1.1c0 .1.2-.2.1-.1 0 .1-.1.1-.1.1.1 0 0 .1.2-.1l-.1.2c.1-.1.1 0 .1-.1 0 .2.2.1.3.2.3-.2 0 .1.2.1.1-.1.1-.1.1 0l.1-.1c-.1.3.2.3.2.5.1.2 0 .5.5.2l-.1.1c.1 0 0 .1.1.1.3-.2.2.2.5 0 .1.1.2.2.4.2v.1c.2 0 0 .3.2.3 0 .2.5-.2.4.1-.2.3.4-.2.2.1-.3.5.1.3.4.2 0 .2.4-.1.2.3.2-.2-.1.3 0 .3l.1-.1c-.2.2.3-.3 0 .1-.1.2.3-.4.2-.2l.1-.1-.1.1s.1-.2.1-.1c-.3.3.1 0-.2.3 0 0-.1.2-.2.2l.1-.1c.1-.2.3-.3.4-.5l-.1.1c.1-.1 0-.1.1-.2 0 0 .1-.2.2-.3-.1.1-.1 0-.1 0l.1-.1c.1-.2-.2.3 0 0h-.2l-.2.2c.2-.2.2-.3.2-.3.2-.3-.2.2 0-.1-.2.2 0-.1-.2.2 0-.1.1-.1.1-.1v-.2c-.2.2 0-.1-.2.1 0-.1.1-.2 0-.1 0 0-.1 0-.2.1.2-.3.2-.2.2-.3-.1.1-.1 0-.2.1.1-.1-.1 0 .1-.1-.4.3-.4.1-.2-.2l-.4.4s.1-.2 0-.1v-.1c-.1.1.1-.2 0 0l-.1.1c0-.1.1-.1.1-.1-.1-.2-.5 0-.6-.1l.1-.1-.1.1.1-.1c.1-.1-.1 0-.1 0l.1-.1c-.2.1.1-.2-.2.1l.1-.1c-.2.1-.2 0-.2-.1-.3.3-.1-.1-.4.1l.1-.1c-.3.1-.1-.1-.3-.2 0-.1-.1 0-.1 0l.1-.1c-.3.2.1-.3-.2-.1l.1-.1c-.1.1 0-.1-.2.2l.1-.1c-.3.3.1-.2-.2 0l.1-.1c-.1 0-.1.1-.1 0 .2-.3-.1 0-.1-.1l.1-.1c-.1.1-.1 0-.1 0l.1-.1-.3-.1h.2c-.1 0-.2.1-.2 0zm-.5-.1zm3.9 2.2c-.1 0-.1.1 0 0 0 0-.1 0 0 0zM15 98.9v.1l.1-.1zm.3-.1l-.3.2c-.1.1.4-.3.3-.2zm-.1 0c-.1.1.1 0 .1-.1-.1.1.1 0-.1.1zm.6.6c0 .1 0 .1 0 0zm.6-.1l.1-.1c-.2.1 0-.1-.2 0 0-.1-.3-.1-.4-.1h.1l-.1.1h.1c.2-.1-.2 0 0-.1 0 0-.1.1-.2.1s-.2-.1-.4 0l.1-.1c-.3.2-.3 0-.3-.1-.1.1-.1.1-.2.1-.1.1.2-.1.1 0l.1-.1s.2-.1.1 0c-.1 0-.1.1-.1.1.1 0 0 .1.2 0-.2.1 0 0-.1.2.1 0 .1 0 .2-.1 0 .2.2.1.3.2.3-.2 0 .1.2.1h.1l.1-.1c-.2.3.1.3.1.5s-.1.5.4.3h-.1c.1 0 0 .1.1.1.3-.1.1.2.5.1.1.1.2.2.4.3h-.1c.2 0 0 .3.1.4-.1.2.5-.1.4.2-.2.3.4-.1.2.2-.4.5 0 .4.4.3-.1.2.4 0 .2.4.2-.1-.2.3-.1.3l.1-.1c-.2.2.3-.2 0 .1-.2.2.4-.3.2-.1l.1-.1-.1.1.1-.1c-.3.3.1 0-.3.3l-.2.2.2-.1c.2-.1.3-.3.4-.4l-.1.1.1-.1s.2-.2.2-.3c-.2.1-.1 0-.1 0l.1-.1c.1-.1-.3.2 0 0-.1 0-.1 0-.1-.1-.1.1 0 0-.2.1.2-.2.2-.3.2-.3.2-.2-.3.2 0-.1-.2.2 0-.1-.2.1.1 0 .1-.1.1-.1v-.2c-.2.1 0-.1-.2.1 0-.1.1-.2 0-.1 0 0-.1 0-.3.1.3-.2.2-.2.3-.3-.1.1-.1 0-.3.1.1-.1-.1 0 .1-.1-.4.2-.4 0-.2-.3-.1.1-.3.2-.5.3l.1-.1h.1c-.1.1.1-.1 0-.1h-.1c.1 0 .1-.1.1-.1 0-.2-.5-.1-.5-.2h.1l-.1.1h.1c.1-.1-.1 0-.1-.1l.1-.1c-.2.1.2-.2-.2.1l.1-.1c-.2 0-.2-.1-.2-.2-.4.2-.1-.1-.4 0h.1c-.3.1-.1-.2-.2-.2 0-.1-.1 0-.1 0l.1-.1c-.3.2.2-.3-.2-.1l.1-.1c-.2.1 0-.1-.2.1l.1-.1c-.4.2.1-.2-.2-.1h.1-.1c.2-.2-.1-.1-.1-.1l.1-.1c-.2.1-.1 0-.1 0h.1-.1l.1-.1c-.1-.1-.3-.1-.3-.1zM16 99zm3.3 3zM9 88.5h-.1l.1-.1zm.2-.1c.1 0 .1 0 0 0l-.2.1.2-.1zm0 0h.1c-.1 0 .1-.1-.1 0zm.5.7c-.1 0-.1 0 0 0z"/><path class="st1" d="M10.3 89.1l.1-.1c-.2.1 0-.1-.1-.1 0-.1-.2-.1-.4-.2h.1c.2-.1-.2 0 0-.1 0 0-.1 0-.2.1-.1-.1-.2-.1-.4-.1 0 0 .1 0 .1-.1-.4.1-.3 0-.2-.1-.1 0-.1 0-.2.1s.2-.1.1 0h-.1s.2-.1.1 0c-.1 0-.1 0-.1.1 0 0 0 .1.2 0l-.2.1c.1 0 .1 0 .2-.1 0 .1.2.2.2.3.4-.1 0 .1.1.1h.3c-.2.3.1.3 0 .5 0 .2-.2.5.4.4h-.1c.1 0 0 .1.1.1.3 0 .1.2.4.2 0 .1.1.3.3.4h-.1c.2 0-.1.3.1.4-.1.2.5 0 .3.2-.3.2.5 0 .1.2-.4.6 0 .6.4.5-.1.2.4.1.1.4.3-.1-.2.3-.1.3h.1c-.2.2.4-.1 0 .1-.2.1.5-.2.2-.1h.1l-.1.1s.2-.1.1-.1c-.4.2.1 0-.3.2 0 0-.2.1-.3.1l.2-.1c.2-.1.4-.2.5-.3l-.1.1c.1-.1.1 0 .2-.1 0 0 .2-.1.3-.2-.2.1-.1 0-.1 0h.1c.2-.1-.3.2 0 0-.1 0-.1 0-.1-.1-.1.1 0 0-.2.1.2-.1.3-.2.3-.2.3-.2-.3.1.1-.1-.3.1.1-.1-.2.1.1 0 .1-.1.2-.1 0 0 .1-.1.1-.2-.2.1.1-.1-.3 0 .1-.1.2-.2 0-.1 0 0-.1-.1-.3 0 .3-.2.2-.2.3-.2-.2.1-.1 0-.3 0 .1-.1-.1 0 .1-.1-.4.1-.4-.1-.1-.3-.1.1-.4.2-.5.2h.1l.1-.1h.1c-.1 0 .1-.1 0-.1h.1-.1c.1 0 .2-.1.2-.1 0-.2-.4-.2-.5-.3h.1-.1.1c.1-.1-.1 0-.1-.1 0 0 .1 0 .1-.1-.2.1.2-.2-.2 0l.1-.1c-.2 0-.2-.1-.2-.2-.4.1-.1-.1-.4 0h.1c-.3 0-.1-.2-.2-.3 0-.1-.1 0-.1-.1h.1c-.4.1.2-.3-.2-.2l.1-.1c-.2.1 0-.1-.3.1l.1-.1c-.4.2.2-.2-.1-.1h.1-.1.1c.3-.2-.1-.1-.1-.1l.1-.1c-.2.1 0-.1-.1-.1h.1-.1l.1-.1c-.4.1-.5.1-.5.1zm-.4-.4zm2.7 3.6zM5.2 77h-.1.2zm.3 0s0-.1 0 0h-.3c-.2 0 .4-.1.3 0z"/><path class="st1" d="M5.4 77h.1c-.1 0 .1-.1-.1 0zm.3.8z"/><path class="st1" d="M6.3 77.8h.1c-.2 0 0-.1-.1-.1 0-.1-.2-.2-.3-.2h.1c.2-.1-.2 0 0-.1h-.2c-.1-.1-.1-.1-.3-.2h.2c-.4 0-.2-.1-.2-.2h-.2c-.1 0 .2 0 .1.1h-.1s0 .1.2.1l-.2.1h.2c-.1.1.1.2.2.3.4 0 0 .1.1.2.1 0 .1 0 .1.1h.2c-.3.2 0 .3-.1.5 0 .2-.3.4.3.5h-.1c.1 0 0 .1.1.1.3 0 0 .3.4.3 0 .1.1.3.2.4h-.1c.2.1-.2.3 0 .4-.1.2.5.1.3.3-.3.2.5.1.1.2-.5.3-.1.3.2.4-.2.2.4.2 0 .4.3 0-.3.2-.2.3h.1c-.3.1.4-.1 0 .1-.2.1.5-.1.2 0h.1s-.1 0-.2.1c0 0 .2-.1.1 0-.4.1.1 0-.4.2 0 0-.2.1-.3.1h.2c.2-.1.4-.1.6-.2h-.2c.2-.1.1 0 .2-.1 0 0 .2-.1.3-.1h-.1.1c.2-.1-.4.1 0 0-.1 0-.1-.1-.1-.1h-.2c.3-.1.3-.1.3-.2 0 0 .1 0 0 0 .3-.1-.3.1.1-.1-.3.1.1-.1-.3 0 .1 0 .1 0 .2-.1 0 0 .1-.1.1-.2-.3 0 .1-.1-.3 0 .1 0 .2-.1.1-.1 0 0-.1-.1-.3 0 .3-.1.3-.1.4-.1h-.3c.2-.1-.1 0 .1-.1-.5 0-.3-.1 0-.3-.1 0-.4.1-.6.1h.1s.2-.1.1-.1h.1c-.1 0 .2-.1 0-.1h.1-.1c.1 0 .2-.1.2 0 0-.2-.4-.2-.4-.4h.1-.1.1c.1-.1-.1-.1-.1-.1h.1c-.2 0 .2-.1-.2 0h.1c-.2 0-.2-.1-.1-.2-.4 0-.1-.1-.4-.1h.1c-.3 0 0-.2-.1-.3l-.1-.1h.1c-.4 0 .3-.2-.1-.2h.1c-.2 0 .1-.1-.3 0h.1c-.5.1.2-.1-.1-.1h.1-.1.1c.3-.1-.1-.1-.1-.2h.2c-.2 0 0-.1-.1-.1h.1-.1.1c-.2-.7-.3-.7-.4-.8zm-.3-.4c.1 0 .1 0 0 0zm1.9 4.1zM3.8 65h-.1.2zm.3 0zM4 65h.1H4zm.1.8zm.6.2h.1c-.2 0 0-.1-.1-.1 0-.1-.2-.2-.3-.3h.1c.2 0-.1-.1 0-.1h-.2c-.1-.1-.1-.2-.3-.3h.2c-.3 0-.2-.1-.1-.2h-.2c-.1 0 .2 0 .1.1h-.1s0 .1.2.1c-.2 0 0 0-.2.1h.2c-.1.1.1.2.1.4.4 0-.1.1.1.2.1 0 .1 0 .1.1h.2c-.3.2-.1.3-.2.5s-.3.4.2.5h-.1c.1 0-.1.1 0 .1.3.1 0 .3.3.3 0 .1 0 .3.1.4h-.1c.2.1-.2.2-.1.4-.2.1.4.2.2.4-.4.1.4.1.1.2-.7.2-.4.3 0 .5-.2.2.3.2-.1.4.3 0-.3.2-.2.2h.1c-.3.1.4 0 0 .1h.3c-.4 0 .1 0-.4.1h-.3.2c.2 0 .4 0 .6-.1H5h.2s.3 0 .3-.1h-.1.1c.2 0-.4 0 0 0-.1 0-.1-.1-.1-.1h-.2c.3 0 .3-.1.3-.1s.1 0 0 0c.3-.1-.3 0 .1-.1-.3 0 .1-.1-.3 0h.2l.1-.1c-.3 0 .1-.1-.2-.1.1 0 .2-.1.1-.1 0 0 0-.1-.3-.1.3 0 .3 0 .4-.1-.2 0-.1-.1-.3-.1h.2c-.5-.1-.3-.2 0-.3h-.6.1s.2-.1.1-.1h.1c-.1 0 .2-.1 0-.1h.1-.1.2c.1-.2-.3-.3-.3-.5h.1-.1.1c.1-.1-.1-.1-.1-.1h.2c-.2 0 .3-.1-.2-.1h.2c-.1-.1-.1-.2-.1-.3-.4 0 0-.1-.4-.2h.1c-.3-.1 0-.2-.1-.3l-.1-.1h.1c-.4-.1.3-.2-.1-.2h.1-.3.1c-.5 0 .2-.1-.1-.1h.1c-.1 0-.1 0 0 0h.1c.3-.1 0-.1 0-.2h.2c-.2 0 0-.1-.1-.1h.1-.1.1c0-.2-.2-.2-.2-.3zm-.2-.4zm1 4.3zM4.8 52.9h.1zm.3.1l-.3-.1c-.2 0 .4.1.3.1zM5 53h.1H5zm0 .8zm.5.3h.1c-.2-.1 0-.1-.1-.1.1-.1-.1-.2-.2-.4h.1c.2 0-.1-.1 0-.1h-.2c0-.1-.1-.2-.2-.3h.2c-.3-.1-.2-.1-.1-.2h-.2c-.1 0 .2.1 0 .1h-.1s-.1.1.2.1h-.2c.1 0 .1 0 .2.1-.1.1.1.3 0 .4.4.1-.1.1 0 .2.1 0 .1.1.1.1h.2c-.3.1-.1.3-.3.4-.2.2-.5.3 0 .6h-.1c.1 0-.1 0 0 .1.3.2-.1.2.2.4-.1.1 0 .3 0 .5H5c.1.1-.3.2-.2.3-.2.1.4.3.1.4-.4 0 .4.2 0 .2-.6.1-.2.3.1.4-.2.1.3.3-.2.4.3.1-.4.1-.3.2h.1c-.3 0 .4.1 0 .1-.1 0 .6.1.4 0h-.1.1-.5c.2 0 .4.1.6.1h-.2.6c-.2 0-.1 0 0 0h.1c.2 0-.4-.1 0 0-.2-.1-.2-.1-.2-.2h-.2.3s.1 0 0 0c.3 0-.3-.1.1 0-.3 0 .1 0-.2-.1h.2l.1-.1c-.3-.1.1-.1-.2-.1.1 0 .2 0 .1-.1 0 0 0-.1-.3-.1h.4c-.2 0-.1-.1-.2-.1h.2c-.4-.2-.3-.3.1-.3-.1 0-.4-.1-.6-.1h.3c-.1 0 .2 0 0-.1h.1-.1.2c.1-.2-.3-.4-.2-.5h.1l-.1-.1h.1c.1 0-.1-.1 0-.1h.2c-.3-.1.2-.1-.3-.2h.2c-.1-.1-.1-.2 0-.3-.4-.1 0-.2-.3-.3h.1c-.3-.1 0-.2 0-.3 0 0-.1-.1 0-.1h.1c-.4-.1.4-.1 0-.2h.1c-.2 0 .1 0-.3-.1h.1c-.5-.1.2-.1-.1-.2h.1c-.1 0-.1-.1 0-.1h.1c.3 0 0-.1 0-.2h.2c-.2-.1 0-.1-.1-.1h.1-.1.1c-.1.3-.3.2-.3.1zm-.1-.4zm.1 4.4zM8.2 41.3h.1zm.3.1c0 .1 0 .1 0 0l-.2-.1c-.3 0 .3.2.2.1z"/><path class="st1" d="M8.4 41.4c-.1 0 .1 0 .1.1 0 0 .1 0-.1-.1zm-.2.9c0-.1 0 0 0 0z"/><path class="st1" d="M8.7 42.7l.1.1c-.2-.1 0-.1 0-.2.1-.1-.1-.3-.1-.4h.1l-.1-.1h.1c.2.1-.1-.1.1-.1 0 0-.1-.1-.2-.1 0-.1 0-.2-.2-.3 0 0 .1 0 .2.1-.3-.2-.1-.2-.1-.3-.1 0-.1 0-.2-.1-.1 0 .2.1 0 .1h-.1c-.1 0 .2.1.1.1h-.1s-.1 0 .1.2c-.2-.1 0 0-.2 0 .1 0 0 0 .2.1-.1.1 0 .3-.1.4.3.2-.1.1 0 .2l.1.1.1.1c-.4 0-.2.3-.4.4-.2-.1-.5 0-.1.3h-.1c.1.1-.1.1 0 .1.3.2-.1.2.2.4-.2.2-.2.4-.1.5h-.1c.1.2-.3.1-.2.3-.2.1.3.4 0 .4-.4 0 .3.3 0 .2-.6 0-.3.2 0 .5-.2.1.2.4-.2.3.2.1-.4 0-.3.1h.1c-.3-.1.4.2 0 .1-.2-.1.5.2.2.1h-.1s.2.1.1.1c-.5-.1 0 .1-.5-.1 0 0-.2 0-.3-.1l.2.1c.2.1.4.1.6.2l-.2-.1c.2 0 .1 0 .2.1 0 0 .2.1.3.1-.2-.1-.1 0 0 0h.1c.2.1-.3-.1 0 0-.1-.1 0-.1 0-.2-.1 0 0 0-.2-.1.3.1.3.1.3 0 0 0 .1 0 0 0 .3.1-.3-.1.1 0-.3-.1.1 0-.2-.1.1 0 .1 0 .2.1 0 0 .1 0 .2-.1-.3-.2.1-.1-.3-.2.1 0 .2 0 .1-.1 0 0 0-.1-.2-.2.3.1.3.1.4.1l-.2-.2h.2c-.4-.2-.2-.3.2-.3-.1-.1-.4-.2-.5-.2h.4c-.1-.1.2 0 0-.1h.1-.1c.1 0 .2.1.2.1.1-.1-.2-.4-.1-.6h.1l-.1-.1h.1c.1 0-.1-.1 0-.1 0 0 .1 0 .1.1-.2-.1.3 0-.1-.1 0 0 .1 0 .1.1-.1-.1-.1-.2 0-.3-.3-.2 0-.2-.3-.3h.1c-.2-.2.1-.2.1-.3v-.1h.1c-.3-.2.4 0 0-.2l.1.1c-.2-.1.1 0-.2-.1h.1c-.4-.2.2 0 0-.2h.1c-.1 0-.1-.1 0-.1h.1c.3.1 0-.1 0-.2l.1.1c-.2-.1 0-.1-.1-.1H9l-.1-.1.1.1c-.2.1-.3 0-.3 0zm0-.5zm-.8 4.4zM14 30.6h-.1l.1.1z"/><path class="st1" d="M14.2 30.8s0 .1 0 0l-.2-.2c-.2 0 .3.3.2.2zm-.1 0c-.1 0 .1.1.1.1-.1-.1.1 0-.1-.1zm-.3.8c-.1 0 0 0 0 0z"/><path class="st1" d="M14.1 32.1l.1.1c-.1-.2.1-.1-.1-.1l.1-.1c.1-.1 0-.3-.1-.4h.1l-.1-.1h.1c.2.1-.1-.1.1-.1 0 0-.1-.1-.2-.1 0-.1 0-.2-.1-.4 0 0 .1 0 .1.1-.3-.3-.1-.2 0-.3-.1-.1-.1 0-.2-.1-.1 0 .2.2 0 .1l-.1-.1c-.1 0 .2.1.1.1s-.1-.1-.1-.1-.1 0 .1.2l-.2-.1.1.1c-.1 0-.1.3-.1.3.3.3-.1.1-.1.2.1.1.1.1 0 .1l.1.1c-.4 0-.2.2-.4.3-.2.1-.5.1-.2.5H13c0 .1-.1.1-.1.1.2.3-.2.2.1.5-.1.1-.2.3-.2.4h-.1c.1.2-.3.1-.3.2-.2 0 .2.4 0 .4-.4-.1.3.4-.1.2-.6-.2-.3.1-.1.4-.3 0 .1.4-.3.3.2.2-.4-.1-.3 0h.1c-.3-.1.3.2-.1 0-.2-.1.4.3.2.2l.1.1-.1-.1s.2.1.1.1c-.4-.2.1.1-.4-.2 0 0-.2-.1-.3-.1l.1.1c.2.1.4.2.5.3l.2.3c.1.1.1 0 .2.1 0 0 .2.1.3.1-.2-.1-.1-.1 0-.1h.1c.2.1-.3-.2 0 0v-.2c-.1-.1 0 0-.2-.1.2.1.3.1.3.1.3.1-.3-.2.1 0-.3-.1.1 0-.2-.2.1 0 .1.1.2.1h.2c-.2-.2.1 0-.2-.2.1 0 .2.1.1 0 0 0 0-.1-.2-.2.3.2.3.1.4.2-.1-.1 0-.1-.1-.2.1.1 0-.1.2.1-.3-.3-.1-.3.2-.3-.1-.1-.3-.2-.5-.3 0 0 .2.1.2 0h.1c-.1-.1.2.1 0 0h.1l-.1-.1c.1 0 .2.1.1.1.2-.1-.1-.5 0-.6h.1l-.1-.1h.1c.1 0 0-.1 0-.1l.1.1c-.2-.1.3.1-.1-.1l.1.1c-.1-.1 0-.2.1-.3-.3-.3 0-.1-.2-.4h.1c-.2-.2.1-.2.1-.3v-.1l.1.1c-.3-.3.4.1.1-.2l.1.1c-.2-.1.1 0-.2-.2h.1c-.4-.3.2 0 0-.2h.1s-.1-.1 0-.1c.3.1 0-.1.1-.1l.1.1c-.1-.1 0-.1 0-.1h.1l-.2.2.1.1c.1-.1 0-.2 0-.2zm.1-.5zm-1.6 4.1s-.1 0 0 0zM21.7 21.3v.1zm.2.3l-.2-.2.2.2zm-.1 0c-.1-.1 0 .1.1.1-.1-.1.1 0-.1-.1zm-.5.6zm.3.6c0-.1.2 0 .1-.1.1 0 0-.3 0-.4v.1l-.1-.1.1.1c.2.1-.1-.1.1 0l-.1-.1v-.4l.1.1c-.2-.3 0-.3 0-.3l-.1-.1c-.1-.1.1.2 0 .1l-.1-.1c-.1 0 .2.2.1.1-.1 0-.1-.1-.1-.1 0 .1-.1 0 .1.2-.1-.1 0 0-.2-.1 0 .1 0 .1.1.1-.2 0-.1.2-.2.3.2.3-.1 0-.1.2.1.1.1.1 0 .1l.1.1c-.3-.1-.3.2-.5.2-.2.1-.5 0-.3.5l-.1-.1c0 .1-.1 0-.1.1.1.3-.2.2 0 .5-.1.1-.2.2-.2.4V24c0 .2-.3 0-.3.2-.2 0 .1.5-.1.4-.3-.2.2.4-.1.2-.5-.3-.4.1-.2.4-.2 0 .1.4-.3.2.2.2-.3-.1-.3 0l.1.1c-.2-.2.3.3-.1 0-.2-.1.4.4.2.2l.1.1-.1-.1.1.1c-.3-.3 0 .1-.3-.2 0 0-.2-.1-.2-.2l.1.1c.2.1.3.3.4.4l-.1-.1c.1.1.1.1.2.1 0 0 .2.1.3.2-.1-.1 0-.1 0-.1l.1.1c.1.1-.3-.3 0 0v-.2l-.2-.2c.2.2.3.2.3.2.3.2-.2-.2.1 0-.2-.2.1 0-.2-.2.1 0 .1.1.1.1h.2c-.2-.2.1 0-.1-.2.1 0 .2.1.1 0 0 0 0-.1-.1-.3.3.2.2.2.3.2-.1-.1 0-.1-.1-.2.1.1 0-.1.1.1-.4-.4-.2-.4.1-.2l-.4-.4s.2.1.1.1l.1.1c-.1-.1.2.1 0 0l-.1-.1.1.1c.2-.1 0-.5.2-.6v.1l-.1-.1.1.1c.1.1 0-.1 0-.1l.1.1c-.1-.2.2.1-.1-.2l.1.1c0-.2 0-.2.1-.2-.2-.3.1-.1-.1-.4l.1.1c-.1-.3.1-.1.2-.2.1 0 0-.1 0-.1l.1.1c-.2-.3.3.1.1-.2l.1.1c-.1-.2.1 0-.2-.2l.1.1c-.3-.4.2.1 0-.2l.1.1c0-.1-.1-.1 0-.1.3.2 0-.1.1-.1l.1.1c-.1-.1 0-.1 0-.1l.1.1.3-.5zm.2-.5zm-2.5 3.8s0-.1 0 0zM31.1 13.8l.1.1zm.1.2c.1.1.1.1 0 0l-.1-.2.1.2zM31.2 14c-.1-.1 0 .1.1.1-.1-.1 0 .1-.1-.1zm-.6.6zm.1.6l.1.1c-.1-.2.1 0 0-.2.1 0 .1-.3.1-.4v.1l-.1-.1v.1c.1.2 0-.2.1 0 0 0-.1-.1-.1-.2s.1-.2.1-.4l.1.1c-.1-.3 0-.3.1-.3 0-.1-.1-.1-.1-.2-.1-.1.1.2 0 .1v-.1s.1.2 0 .1c0-.1-.1-.1-.1-.1 0 .1-.1 0 0 .2-.1-.2 0 0-.1-.1 0 .1 0 .1.1.2-.2 0-.1.2-.3.3.2.4-.1 0-.1.2v.1l.1.1c-.3-.2-.3.1-.5.1s-.5-.1-.3.4v-.1c0 .1-.1 0-.1.1.1.3-.2.1-.1.5l-.3.3V16c0 .2-.3-.1-.4.1-.2-.1.1.5-.2.4-.3-.3.1.4-.2.2-.5-.4-.4 0-.3.4-.2-.1 0 .4-.4.2.1.3-.3-.2-.3-.1l.1.1c-.2-.2.2.3-.1 0-.1-.2.3.4.1.2l.1.1-.1-.1s.1.2.1.1c-.3-.3 0 .1-.3-.3l-.2-.2.1.2c.1.2.2.3.4.5l-.1-.1c.1.1.1.1.1.2 0 0 .2.2.2.3-.1-.2 0-.1 0-.1l.1.1c.1.1-.2-.3 0 0 0-.1 0-.1.1-.1-.1-.1 0 0-.1-.2l.2.2c.2.3-.2-.3.1.1-.2-.2.1.1-.1-.2 0 .1.1.1.1.1h.2c-.1-.2.1.1-.1-.3.1 0 .2.1.1 0 0 0 0-.1-.1-.3.2.3.2.2.3.3-.1-.1 0-.1-.1-.3.1.1 0-.1.1.1-.2-.4 0-.4.3-.2-.1-.1-.2-.3-.3-.5l.1.1v.1c0-.1.1.1.1 0V17c0 .1.1.2.1.1.2 0 .1-.5.3-.5v.1-.1.1c.1.1 0-.1.1-.1l.1.1c-.1-.2.2.2 0-.2l.1.1c0-.2.1-.2.2-.2-.2-.4.1-.1 0-.4v.1c-.1-.3.2-.1.2-.2.1 0 0-.1.1-.1l.1.1c-.2-.3.3.2.1-.2l.1.1c-.1-.2.1 0-.1-.3l.1.1c-.2-.4.2.1.1-.2v.1c.2.2.1-.1.1-.1l.1.1c-.1-.2.1-.1 0-.1v.1-.1l.1.1c-.1-.2-.1-.3-.1-.3zm.3-.4zm-3.1 3.1z"/><g><path class="st1" d="M41.9 8.3v-.1.2zm.1.3l-.1-.3c-.1-.2.1.4.1.3zm-.1-.1v.1c0-.1.1.1 0-.1zm-.7.4zm0 .7v.1c-.1-.2.1 0 .1-.1.1 0 .1-.2.2-.4v.1c.1.2 0-.2.1 0 0 0 0-.1-.1-.2.1-.1.1-.2.1-.4 0 0 0 .1.1.2-.1-.4.1-.3.1-.2 0-.1 0-.1-.1-.2s0 .2 0 .1v-.1s.1.2 0 .1v-.1s-.1 0 0 .2l-.1-.2c0 .1 0 .1.1.2-.1 0-.2.2-.3.2.1.4-.1 0-.2.1v.3c-.3-.2-.3 0-.5 0s-.5-.2-.4.3v-.1c0 .1-.1 0-.1.1 0 .3-.2.1-.2.4-.1 0-.3.1-.4.3v-.1c0 .2-.3-.1-.4 0-.2-.1 0 .5-.3.3-.2-.3 0 .5-.2.1-.4-.5-.4-.1-.3.3-.2-.1-.1.4-.4.1.1.3-.3-.2-.3-.2v.1c-.1-.2.1.4-.1 0-.1-.2.2.5.1.2v.1l-.1-.1s.1.2 0 .1c-.2-.4 0 .1-.2-.3 0 0-.1-.2-.1-.3l.1.2c.1.2.2.4.3.5l-.1-.1c.1.1 0 .1.1.2 0 0 .1.2.2.3-.1-.2 0-.1 0-.1v.1c.1.2-.1-.3 0 0 0-.1.1-.1.1-.1 0-.1 0 0-.1-.2.1.2.2.3.2.3.2.3-.1-.3.1.1-.1-.3.1.1-.1-.3 0 .1.1.1.1.2 0 0 .1.1.2.1-.1-.2.1.1 0-.3.1.1.2.2.1 0 0 0 .1-.1 0-.3.2.3.1.2.2.3v-.3c.1.1 0-.1.1.1-.1-.4.1-.4.3-.1 0-.1-.1-.4-.2-.5v.1s.1.2.1.1v.1c0-.1.1.2.1 0v.1-.1c0 .1.1.2.1.2.2 0 .2-.4.4-.4v.1-.1.1c.1.1 0-.1.1-.1 0 0 0 .1.1.1-.1-.2.2.2 0-.2 0 0 0 .1.1.1 0-.2.1-.2.2-.2-.1-.4.1-.1.1-.4v.1c0-.3.2-.1.3-.2.1 0 0-.1.1-.1v.1c-.1-.4.3.2.2-.2v.1c-.1-.2.1 0-.1-.3l.1.1c-.1-.4.2.2.1-.1v.1c.1.2 0-.2.1-.2v.2c0-.2.1 0 .1-.1v.1-.1l.1.1v-.2zm.4-.4zm-3.7 2.5z"/></g><g><path class="st1" d="M53.6 5.1V5v.2zm0 .3v-.3c-.1-.2 0 .4 0 .3z"/><path class="st1" d="M53.6 5.3v.1c-.1-.1 0 .1 0-.1zm-.8.3zm-.2.6v.1c0-.2.1 0 .1-.1.2.1.3-.2.3-.3V6c.1.2 0-.2.1 0v-.2c.1-.1.2-.1.2-.3v.2c0-.4.1-.2.2-.2v-.2c0-.1 0 .2-.1.1v-.1s-.1 0-.1.2c0-.2 0 0-.1-.2v.2c-.1-.1-.2.1-.3.1 0 .4-.1 0-.2.1 0 .1 0 .1-.1.1V6c-.2-.3-.3 0-.5-.1-.1-.2-.3-.5-.4.1v-.1c0 .1-.1 0-.1 0-.1.3-.3 0-.3.4-.1 0-.3.1-.4.2v-.1c-.1.2-.3-.2-.4 0-.2-.1-.1.5-.3.3-.2-.3-.1.5-.2.1-.3-.5-.3-.1-.4.2-.2-.2-.2.4-.4 0 0 .3-.2-.3-.3-.2v.1c-.1-.3 0 .4-.1 0-.1-.2.1.5 0 .3v.1s0-.1-.1-.2v.1c-.1-.4 0 .1-.1-.4 0 0-.1-.2-.1-.3v.2c.1.2.1.4.1.6v-.2c0 .2 0 .1.1.2 0 0 .1.2.1.3v-.1.1c.1.2-.1-.4 0 0 0-.1.1-.1.1-.1v-.2l.1.3s0 .1 0 0c.1.3 0-.3.1.1-.1-.3.1.1 0-.3v.2s.1.1.2.1c0-.3.1.1 0-.3 0 .1.1.2.1.1 0 0 .1-.1 0-.3.1.3.1.3.1.4v-.3c0 .2 0-.1.1.2 0-.5.2-.3.3 0 0-.1-.1-.4-.1-.6V7s.1.2.1.1v.1c0-.1.1.2.1 0v.1-.1.2c.2 0 .3-.4.4-.4v.1V7v.1c.1.1.1-.1.1-.1v.2c0-.2.1.3 0-.2v.1c.1-.2.1-.2.2-.1 0-.4.1-.1.1-.4v.1c0-.3.2 0 .3-.1l.1-.1v.1c0-.4.2.3.2-.1v.1c0-.2.1.1 0-.3v.1c0-.5.1.2.1-.1v.1c0-.1 0-.1 0 0v.1c.1.3.1-.1.2-.1v.2c0-.2.1 0 .1-.1v.1-.1.1c.8-.3.8-.4.8-.4zm.5-.3zm-4.2 1.7z"/></g><g><path class="st1" d="M65.6 4.3v-.1.2zm0 .2c0 .1 0 .1 0 0v-.3.3zm0 0zm-.9.1zm-.2.5v.1c0-.2.1 0 .1-.1.1.2.2 0 .4-.1v-.1.1c0 .2 0-.2 0 0v-.2c.1-.1.2-.1.3-.3v.2c.1-.4.2-.2.2-.2v-.2c0-.1-.1.2-.1.1v-.1s-.1 0-.1.2v-.2.2c-.1-.1-.2.1-.4.1-.1.4-.1-.1-.2.1 0 .1-.1.1-.1.1V5c-.2-.3-.3-.1-.5-.2s-.3-.4-.5.1v-.1c-.1.1-.1-.1-.1 0-.1.3-.3 0-.4.3-.1 0-.3 0-.4.1v-.1c-.1.2-.2-.2-.4-.1-.1-.2-.2.4-.4.2-.1-.4-.2.4-.2 0-.2-.6-.3-.2-.4.2-.1-.2-.3.3-.4-.1 0 .3-.1-.3-.2-.3v.1c0-.3 0 .4-.1 0v.3c0-.4 0 .1-.1-.4v-.3.8-.2.2s0 .3.1.3v-.1.1c0 .2 0-.4 0 0 0-.1.1-.1.1-.1v-.2c0 .3.1.3.1.3s0 .1 0 0c0 .3 0-.3.1.1v-.3.2l.1.1c0-.3.1.1.1-.2 0 .1.1.2.1.1 0 0 .1 0 .1-.3 0 .3 0 .3.1.4 0-.2.1-.1.1-.3v.2c.1-.5.2-.3.3 0v-.6.1s0 .2.1.1v.1c0-.1 0 .2.1 0v.1-.1.2c.2.1.3-.3.5-.3v.1-.1.1c0 .1.1-.1.1-.1v.2c0-.2.1.3.1-.2v.2c.1-.1.2-.1.3-.1.1-.4.2 0 .2-.4v.1c.1-.3.2 0 .3 0l.1-.1v.1c.1-.4.1.3.2-.1v-.2.1c.2-.4.2.3.3 0v.1c0-.1 0-.1 0 0v.1c0 .3.1 0 .2 0v.2c0-.2.1 0 .1-.1v.1-.1.1c0-.1.1-.2.1-.3zM65 5zm-4.4.8z"/></g><g><path class="st1" d="M77.6 5.9V6zm-.1.3l.1-.3c.1-.2-.1.4-.1.3zm0-.1zm-.8-.1z"/><path class="st1" d="M76.4 6.6v.1c.1-.2.1 0 .1-.1.1.1.2-.1.4-.2v.1c0 .2.1-.1.1 0v-.2c.1 0 .2-.1.3-.2v.2c.2-.3.2-.2.3-.1V6c0-.1-.1.2-.1 0v-.1c0-.1-.1.2 0 .1v-.1s-.1-.1-.1.2v-.2c0 .1 0 .1-.1.2-.1-.1-.3 0-.4 0-.1.4-.1-.1-.2 0 0 .1-.1.1-.1.1l-.1.2c-.1-.4-.3-.2-.4-.3-.2-.1-.3-.4-.5 0V6c-.1.1-.1-.1-.1 0-.2.3-.2-.1-.4.2-.1-.1-.3-.1-.5 0v-.1c-.1.1-.2-.3-.3-.2-.1-.2-.3.4-.4.1 0-.4-.2.4-.2 0 0-.6-.3-.3-.4.1-.1-.2-.3.3-.4-.2-.1.3-.1-.4-.2-.3v.1c0-.3-.1.4-.1 0 0-.2-.1.5-.1.2v-.1.1c.1-.4-.1.1 0-.4v-.3c0-.1 0 0-.1.2 0 .2-.1.4-.1.6v-.2.6c0-.2 0-.1 0 0v.1c0 .2.1-.4 0 0l.1-.1c0-.1 0 0 .1-.2v.3s0 .1 0 0c0 .3.1-.3 0 .1.1-.3 0 .1.1-.2v.2s.1.1.1.2c.1-.3.1.1.1-.2 0 .1 0 .2.1.1 0 0 .1 0 .1-.2v.4c0-.2.1-.1.1-.2v.2c.2-.4.3-.2.3.1 0-.1.1-.4.1-.6v.4c0-.1 0 .2.1 0v.1-.1.2c.1.1.4-.3.5-.2v.1l.1-.1v.1c0 .1.1-.1.1 0v.2c.1-.2 0 .3.1-.1v.2c.1-.1.2-.1.3 0 .1-.4.2 0 .3-.3V7c.1-.3.2.1.3 0h.1v.1c.1-.4.1.4.2 0v.1c.1-.2 0 .1.1-.3V7c.1-.4 0 .2.2-.1V7c0-.1.1-.1.1 0v.1c0 .3.1 0 .2 0v.2c.1-.2.1 0 .1-.1v.1-.1.1c-.1-.6 0-.7.1-.7zm.4-.1zm-4.4-.1z"/></g><g><path class="st1" d="M89 9.9h.1l-.1.1z"/><path class="st1" d="M88.9 10.2l.1-.3c.1-.2-.2.4-.1.3zm0-.1c0-.1 0 .1-.1.1.1-.1 0 .1.1-.1zm-.8-.2z"/><path class="st1" d="M87.7 10.3l-.1.1c.1-.2.1 0 .2 0 .1.1.3-.1.4-.1v.1l.1-.1v.1c-.1.2.1-.1.1.1 0 0 .1-.1.1-.2.1 0 .2 0 .4-.1 0 0 0 .1-.1.2.2-.3.2-.1.3-.1 0-.1 0-.1.1-.2 0-.1-.1.2-.1 0V10c0-.1-.1.2-.1.1s.1-.1.1-.1 0-.1-.2.1c.1-.2 0 0 0-.2 0 .1 0 0-.1.2-.1-.1-.3 0-.4-.1-.2.3-.1-.1-.2 0-.2 0-.2 0-.2-.1l-.1.1c0-.4-.3-.2-.3-.4-.1-.2-.2-.5-.5-.1v-.1c-.1.1-.1-.1-.1 0-.2.2-.2-.1-.5.1-.1-.1-.3-.1-.4-.1v-.1c-.2.1-.1-.3-.3-.2 0-.2-.4.3-.4 0 .1-.4-.3.3-.2-.1.1-.6-.2-.3-.5 0-.1-.2-.4.2-.3-.2-.2.2 0-.4-.1-.3v.1c0-.2-.3.4-.2 0l-.1.2v-.1s-.1.2-.1.1c.1-.4-.1.1.1-.4 0 0 .1-.2.1-.3l-.1.2c-.1.2-.2.4-.2.5l.1-.1c-.1.2 0 .1-.1.2 0 0-.1.2-.1.3.1-.2 0-.1 0 0v.1c-.1.2.1-.3 0 0 .1-.1.1 0 .2 0 0-.1 0 0 .1-.2 0 .2 0 .3.1.3-.1.3.1-.3 0 .1.1-.3 0 .1.1-.2 0 .1 0 .1-.1.2 0 0 0 .1.1.2.1-.2 0 .1.2-.2 0 .1 0 .2.1.1 0 0 .1 0 .2-.2-.1.3-.1.3-.1.4l.2-.2c-.1.2.1-.1 0 .2.3-.4.3-.2.3.2.1-.1.2-.4.3-.5v.4c.1-.1 0 .2.1 0v.1-.1c0 .1-.1.2-.1.2.1.1.4-.2.6 0v.1l.1-.1v.1c0 .1.1 0 .1 0s0 .1-.1.1c.1-.2-.1.3.1-.1 0 0 0 .1-.1.1.1-.1.2-.1.3 0 .2-.3.2 0 .3-.2v.1c.2-.2.2.1.3.1h.1v.1c.2-.3 0 .4.2 0l-.3-.2c.1-.2 0 .1.1-.2v.1c.2-.4 0 .2.2 0v.1c0-.1.1-.1.1 0v.1c-.1.3.1 0 .2 0l-.1.1c.1-.2.1 0 .1 0v.1l.1-.1-.1.1c-.1-.1 0-.2.1-.2zm.4 0zm-4.3-1z"/></g><g><path class="st1" d="M99.4 16.2v-.1.1zm-.2.2l.2-.2c.1-.2-.3.3-.2.2zm0-.1c0-.1-.1.1-.1.1.1-.1 0 .1.1-.1zm-.7-.4z"/><path class="st1" d="M98 16.3l-.1.1c.2-.2.1 0 .1-.1l.1.1c.1.1.3 0 .4 0v.1l.1-.1v.1c-.1.2.1-.1 0 .1l.1-.1c.1 0 .2 0 .4-.1 0 0 0 .1-.1.1.3-.2.3-.1.3 0 .1-.1.1-.1.1-.2.1-.1-.2.2-.1 0l.1-.1c0-.1-.1.2-.1.1s.1-.1.1-.1c-.1 0 0-.1-.2.1l.1-.2-.1.1c0-.2-.3-.1-.3-.1-.3.3-.1-.1-.2-.1-.1.1-.1.1-.1 0l-.1.1c.1-.4-.2-.3-.3-.5-.1-.2-.1-.5-.5-.2v-.1c-.1 0 0-.1-.1-.1-.3.2-.2-.2-.5 0-.1-.1-.2-.2-.4-.2v-.1c-.2.1-.1-.3-.2-.3 0-.2-.4.2-.4 0 .1-.4-.4.3-.2-.1.2-.6-.1-.3-.4-.1 0-.3-.4.1-.3-.3-.2.2.1-.4 0-.3v.1c.1-.3-.3.3 0-.1.1-.2-.3.4-.2.2l-.1.1.1-.1s-.1.2-.1.1c.2-.4-.1.1.2-.4 0 0 .1-.2.2-.2l-.1.1c-.1.2-.2.3-.3.5l.1-.1c-.1.1 0 .1-.1.2 0 0-.1.2-.2.3.1-.2.1-.1.1 0v.1c-.1.2.2-.3 0 0h.2c.1-.1 0 0 .1-.2-.1.2-.1.3-.1.3-.2.3.2-.3 0 .1.2-.3 0 .1.2-.2 0 .1-.1.1-.1.2v.2c.2-.2 0 .1.2-.1 0 .1-.1.2 0 .1 0 0 .1 0 .2-.2-.5.3-.5.2-.5.3l.2-.2c-.1.1.1 0-.1.2.3-.3.3-.1.2.2.1-.1.2-.3.4-.5 0 0-.1.2 0 .2v.1c.1-.1-.1.2 0 0v.1l.1-.1c0 .1-.1.2-.1.1.1.2.5-.1.6.1v.1l.1-.1v.1c0 .1.1 0 .1 0l-.1.1c.1-.2-.1.3.1-.1l-.1.1c.2-.1.2 0 .2.1.3-.3.1.1.4-.2v.1c.2-.2.2.1.3.1h.1l-.1.1c.3-.3-.1.4.2.1l-.1.2c.1-.2 0 .1.2-.2l-.1.1c.3-.4 0 .2.2 0l-.1.1c.1 0 .1-.1.1 0-.2.3.1 0 .1.1l-.1.1c.1-.1.1 0 .1 0v.1h.2-.2.2zm.4.1zm-4-1.9z"/></g><g><path class="st1" d="M108.3 24.4v-.1l-.1.1zm-.2.1s-.1.1 0 0l.2-.2-.2.2zm0 0c.1-.1-.1 0-.1.1l.1-.1zm-.7-.6s.1 0 0 0c.1 0 .1 0 0 0zm-.5.3c.1 0 0 .2.1.1 0 .1.3 0 .4 0h-.1l.1-.1h-.1c-.1.2.2 0 0 .1l.1-.1c.1 0 .2.1.4 0l-.1.1c.3-.2.3 0 .3.1l.1-.1c.1-.1-.2.1-.1 0l.1-.1c0-.1-.2.2-.1.1l.1-.1c-.1 0 0-.1-.2 0 .1-.1 0 0 .1-.2-.1 0-.1 0-.2.1 0-.2-.2-.1-.3-.2-.3.2 0-.1-.2-.1-.1 0-.1.1-.1 0l-.1.1c.1-.3-.1-.3-.2-.5s0-.5-.5-.3h.1c-.1 0 0-.1-.1-.1-.3.1-.1-.2-.5-.1-.1-.1-.2-.2-.4-.3l.1-.1c-.2 0 0-.3-.2-.3 0-.2-.5.1-.4-.1.2-.3-.4.2-.2-.1.3-.5-.1-.4-.4-.2 0-.2-.4 0-.2-.4-.2.2.1-.3 0-.3l-.1.1c.2-.2-.3.2 0-.1.1-.2-.4.3-.2.2l-.1.1.1-.1-.1.1c.3-.3-.1 0 .2-.3l.2-.2-.1.1-.4.4.1-.1-.1.1s-.2.2-.2.3c.1-.1.1 0 .1 0l-.1.1c-.1.1.3-.2 0 0h.2c.1-.1 0 0 .2-.1-.2.2-.2.3-.2.3-.2.3.2-.2 0 .1.2-.2 0 .1.2-.1l-.1.1v.2c.2-.2 0 .1.2-.1 0 .1-.1.2 0 .1 0 0 .1 0 .3-.1-.2.3-.2.2-.2.3.1-.1.1 0 .3-.1-.1.1.1 0-.1.1.4-.2.4 0 .2.3l.4-.4s-.1.2-.1.1l-.1.1c.1-.1-.1.2 0 0l.1-.1-.1.1c.1.2.5 0 .5.2h-.1l.1-.1-.1.1c-.1.1.1 0 .1.1l-.1.1c.2-.1-.2.2.2-.1l-.1.1c.2 0 .2 0 .2.1.3-.2.1.1.4-.1l-.1.1c.3-.1.1.2.2.2 0 .1.1 0 .1 0l-.1.1c.3-.2-.1.3.2.1l-.1.1c.2-.1 0 .1.2-.2l-.1.1c.4-.3-.1.2.2 0l-.1.1c.1 0 .1-.1.1 0-.2.3.1.1.1.1l-.1.1c.2-.1.1 0 .1 0h-.1l.1-.1-.1.1c.4.4.5.3.6.4zm.4.2zm-3.6-2.7z"/></g><g><path class="st1" d="M115.4 34.2v-.1l-.1.1z"/><path class="st1" d="M115.1 34.3l.3-.1c.1-.2-.4.1-.3.1zm0-.1c.1 0-.1 0-.1.1l.1-.1zm-.5-.6z"/><path class="st1" d="M114 33.7l-.1.1c.2-.1 0 .1.2.1 0 .1.3.1.4.1h-.1s.1-.1.1 0h-.1c-.2.1.2 0 0 .1 0 0 .1-.1.2-.1s.2.1.4.1c0 0-.1 0-.1.1.3-.1.3 0 .3.1.1 0 .1-.1.2-.1.1-.1-.2.1-.1 0h.1s-.2.1-.1 0c.1 0 .1-.1.1-.1-.1 0 0-.1-.2 0 .2-.1 0 0 .1-.1-.1 0-.1 0-.2.1 0-.2-.2-.2-.3-.3-.4.1 0-.1-.2-.1h-.1l-.2.1c.2-.3-.1-.3-.1-.5s.1-.5-.4-.4h.1c-.1 0 0-.1-.1-.1-.3.1-.1-.2-.4-.1 0-.1-.2-.3-.3-.3h.1c-.2 0 .1-.3-.1-.4.1-.2-.5 0-.4-.2.3-.3-.4.1-.2-.2.4-.4 0-.4-.3-.3.1-.2-.4 0-.1-.4-.3.1.2-.3.1-.3l-.1.1c.2-.2-.4.2 0-.1.2-.1-.4.3-.2.1l-.1.1.1-.1s-.2.1-.1.1c.4-.2-.1 0 .3-.3l.2-.2-.2.1c-.2.1-.3.2-.5.3l.1-.1c-.1.1-.1 0-.2.1 0 0-.2.2-.3.2.2-.1.1 0 .1 0l-.1.1c-.2.1.3-.2 0 0 .1 0 .1 0 .1.1.1-.1 0 0 .2-.1l-.2.2c-.3.2.3-.2-.1.1.2-.2-.1.1.2-.1-.1 0-.1.1-.1.1v.2c.2-.1-.1.1.3-.1-.1.1-.2.2 0 .1 0 0 .1 0 .3-.1-.3.2-.2.2-.3.3.1-.1.1 0 .3-.1-.1.1.1 0-.1.1.4-.2.4 0 .1.3.1-.1.4-.2.5-.3l-.1.1h-.1c.1 0-.1.1 0 .1h-.1.1c-.1 0-.2.1-.1.1 0 .2.5.1.5.3h-.1c-.1.1.1 0 .1.1l-.1.1c.2-.1-.2.2.2 0l-.1.1c.2 0 .2.1.2.2.4-.2.1.1.4 0h-.1c.3-.1.1.2.2.2 0 .1.1 0 .1.1l-.1.1c.4-.1-.2.3.2.1l-.1.1c.2-.1 0 .1.3-.1l-.1.1c.4-.2-.1.2.2.1h-.1c-.3.2.1.1.1.1l-.1.1c.2-.1.1.1.1 0h-.1.1l-.1.1c.2-.1.3-.1.3-.1zm.4.3zm-3-3.3z"/></g><g><path class="st1" d="M120.3 45.2h.1-.1zm-.2 0c-.1 0-.1.1 0 0l.3-.1c.1 0-.5.2-.3.1z"/><path class="st1" d="M120.1 45.2h-.1c.1 0-.1.1.1 0zm-.4-.7z"/><path class="st1" d="M119.1 44.5h-.1c.2 0 0 .1.1.1 0 .1.2.1.4.2h-.1c-.2.1.2 0 0 .1 0 0 .1 0 .2-.1.1.1.2.1.3.2 0 0-.1 0-.2.1.4 0 .3.1.2.2.1 0 .1 0 .2-.1s-.2 0-.1 0h.1s-.2.1-.1 0h.1s0-.1-.2 0l.2-.1h-.2c.1-.1-.2-.2-.2-.3-.4.1 0-.1-.1-.2h-.3c.3-.3 0-.3.1-.5 0-.2.2-.4-.3-.4h.1c-.1 0 0-.1-.1-.1-.3 0 0-.2-.4-.2 0-.1-.1-.3-.2-.4h.1c-.2-.1.1-.3 0-.4.1-.2-.5-.1-.3-.3.3-.2-.5 0-.1-.2.5-.4.1-.3-.3-.4.1-.2-.4-.1-.1-.4-.3 0 .3-.3.2-.3h-.1c.3-.1-.4.1 0-.1.2-.1-.5.2-.2.1h-.1s.1 0 .1-.1c0 0-.2.1-.1 0 .4-.2-.1 0 .3-.2 0 0 .2-.1.3-.1h-.2c-.2.1-.4.2-.5.2l.1-.1c-.1.1-.1 0-.2.1 0 0-.2.1-.3.2.2-.1.1 0 .1 0h-.1c-.2.1.3-.1 0 0 .1 0 .1.1.1.1.1 0 0 0 .2-.1-.2.1-.3.2-.3.2-.3.2.3-.1-.1.1.3-.1-.1.1.3 0-.1 0-.1.1-.2.1 0 0-.1.1-.1.2.3-.1-.1.1.3 0-.1.1-.2.1 0 .1 0 0 .1.1.3 0-.3.1-.2.1-.3.2h.3c-.1.1.1 0-.1.1.4-.1.3.1.1.3.1 0 .4-.1.5-.2h-.1s-.2.1-.1.1h-.1c.1 0-.2.1 0 .1h-.1.1c-.1 0-.2.1-.2.1 0 .2.4.2.4.4h-.1c-.1.1.1 0 .1.1 0 0-.1 0-.1.1.2 0-.2.1.2 0 0 0-.1 0-.1.1.2 0 .2.1.2.2.4-.1.1.1.4.1h-.1c.3 0 .1.2.1.3 0 0 .1 0 .1.1h-.1c.4-.1-.3.3.1.2h-.1c.2-.1-.1.1.3-.1h-.1c.5-.1-.2.2.1.1h-.1c-.3.2.1.1.1.1h-.1c.2 0 0 .1.1.1h-.1.1-.1c.1.2.3.2.3.3zm.3.3zm-2.3-3.8s.1 0 0 0z"/></g><g><path class="st1" d="M123 57h-.1zm-.3 0s-.1 0 0 0zm0 0h-.1.1zm-.2-.8zm-.6-.2h-.1c.2 0 0 .1.1.1 0 .1.2.2.3.3h-.1c-.2.1.1 0 0 .1h.2c.1.1.1.2.3.2h-.2c.4 0 .2.1.2.2h.2c.1 0-.2 0-.1-.1h.1s0-.1-.2-.1c.2 0 0 0 .2-.1h-.2c.1-.1-.1-.2-.1-.3-.4 0 .1-.1-.1-.2-.1 0-.1 0-.1-.1h-.2c.3-.2 0-.3.2-.5.1-.2.3-.4-.2-.5h.1c-.1 0 0-.1 0-.1-.3-.1 0-.3-.4-.3 0-.1 0-.3-.2-.4h.1c-.2-.1.2-.3.1-.4.2-.2-.5-.2-.3-.3.4-.1-.4-.1-.1-.2.5-.3.2-.3-.2-.4.2-.2-.4-.2 0-.4-.3 0 .3-.2.2-.2h-.1c.3-.1-.4 0 0-.1.2-.1-.5.1-.3 0h-.1.1c.4-.1-.1 0 .4-.1 0 0 .2-.1.3-.1h-.2c-.2 0-.4.1-.6.1h.2-.2s-.2.1-.3.1h.1-.1c-.2 0 .4 0 0 0 .1 0 .1.1.1.1h.2l-.3.1s-.1 0 0 0c-.3.1.3 0-.1.1.3-.1-.1.1.3 0h-.2l-.1.1c.3 0-.1.1.3.1-.1 0-.2.1-.1.1 0 0 .1.1.3.1-.3.1-.3.1-.4.1.2 0 .1 0 .3.1-.2 0 .1 0-.2.1.5 0 .3.2 0 .3.1 0 .4 0 .6-.1h-.1s-.2.1-.1.1h-.1c.1 0-.2.1 0 .1h-.1.1-.2c0 .2.4.3.3.5h-.1c-.1.1.1.1.1.1h-.2c.2 0-.3.1.2 0h-.2c.2.1.2.1.1.2.4 0 .1.1.4.2h-.1c.3.1 0 .2.1.3l.1.1h-.1c.4 0-.3.2.1.2h-.1c.2 0-.1.1.3 0h-.1c.5 0-.2.1.1.1h-.1c.1 0 .1 0 0 0h-.1c-.3.1.1.1 0 .2h-.2c.2 0 0 .1.1.1h-.1.1-.1c.4.4.6.4.6.4zm.2.5zm-1.4-4.3z"/></g><g><path class="st2" d="M47.1 74.7c-.6-.4-1.3-.6-2.2-.6-.4 0-.7 0-1.1.1-.4.1-.7.2-.9.4-.3.2-.5.4-.7.7-.2.2-.2.5-.2 1 0 .4.1.7.4 1 .2.2.6.5.9.6.4.2.8.3 1.3.4l1.5.3c.5.1 1 .3 1.5.4.5.2.9.4 1.3.7.4.3.7.6.9 1.1.2.4.4 1 .4 1.6 0 .7-.2 1.3-.5 1.8s-.7.9-1.2 1.2c-.5.3-1 .5-1.6.7-.6.1-1.2.2-1.8.2-.7 0-1.4-.1-2.1-.3-.6-.2-1.2-.5-1.7-.8-.5-.4-.9-.8-1.2-1.4-.3-.6-.4-1.3-.4-2h1.6c0 .5.1 1 .3 1.4.2.4.5.7.8 1 .3.3.7.4 1.2.6.5.1.9.2 1.4.2.4 0 .8 0 1.2-.1.4-.1.7-.2 1.1-.4.3-.2.6-.4.8-.7.2-.3.3-.7.3-1.2 0-.4-.1-.8-.4-1.1-.2-.3-.6-.5-.9-.7-.4-.2-.8-.3-1.3-.4l-1.5-.3c-.5-.1-1-.2-1.5-.4s-.9-.4-1.3-.6c-.4-.2-.7-.6-.9-1-.2-.4-.4-.9-.4-1.5 0-.7.1-1.2.4-1.7.3-.5.6-.9 1.1-1.2.4-.3.9-.5 1.5-.7.6-.2 1.1-.2 1.7-.2.7 0 1.3.1 1.9.2.6.2 1.1.4 1.5.7.4.3.8.8 1 1.3.2.5.4 1.1.4 1.8h-1.6c-.1-1-.4-1.7-1-2.1zm6.8 1.8v1.4c.7-1.1 1.7-1.6 3-1.6.6 0 1.1.1 1.6.4.5.2.8.7 1 1.2.3-.5.7-.9 1.2-1.2.5-.3 1.1-.4 1.7-.4.5 0 .9.1 1.3.2s.7.3 1 .5c.3.2.5.5.6.8.2.3.2.8.2 1.2v6.9H64v-6.2c0-.3 0-.6-.1-.8 0-.3-.1-.5-.3-.7-.1-.2-.3-.3-.6-.4-.2-.1-.5-.2-.9-.2-.8 0-1.4.2-1.8.7-.4.4-.7 1-.7 1.7v5.9h-1.5v-6.2c0-.3 0-.6-.1-.8-.1-.3-.2-.5-.3-.7-.1-.2-.3-.3-.5-.4-.2-.1-.5-.2-.9-.2s-.8.1-1.2.3c-.3.2-.6.4-.8.7-.2.3-.3.5-.4.8.2.2.1.4.1.6v5.9h-1.5v-9.4h1.4zm21.7 9.6c-.4 0-.7-.1-1-.3-.2-.2-.4-.6-.4-1.1-.4.5-.9.9-1.5 1.1-.6.2-1.2.3-1.8.3-.4 0-.8 0-1.2-.1-.4-.1-.7-.2-1-.5-.3-.2-.5-.5-.7-.8s-.2-.7-.2-1.2.1-1 .3-1.3.4-.6.7-.8c.3-.2.6-.4 1-.5l1.2-.3c.4-.1.8-.1 1.2-.2.4 0 .7-.1 1-.2.3-.1.5-.2.7-.3.2-.2.3-.4.3-.7 0-.3-.1-.6-.2-.8-.1-.2-.3-.4-.5-.5-.2-.1-.4-.2-.7-.2-.2 0-.5-.1-.7-.1-.7 0-1.2.1-1.6.4-.4.2-.7.7-.7 1.4h-1.5c0-.6.1-1.1.4-1.5.2-.4.5-.7.9-1 .4-.2.8-.4 1.3-.5.5-.1 1-.2 1.5-.2.4 0 .8 0 1.3.1.4.1.8.2 1.1.4.3.2.6.5.8.8.2.3.3.8.3 1.3v4.8c0 .4 0 .6.1.8 0 .2.2.3.4.3.1 0 .3 0 .5-.1v1.2c-.4.2-.8.3-1.3.3zm-2.2-4.8c-.3.1-.6.1-1 .2-.3 0-.7.1-1 .1-.4.1-.7.1-.9.3-.3.1-.5.3-.7.5-.2.2-.3.5-.3.9 0 .3.1.5.2.6.1.2.2.3.4.4.2.1.4.2.6.2.2 0 .5.1.7.1.5 0 .9-.1 1.3-.2s.7-.3.9-.5c.2-.2.4-.4.5-.7.1-.2.2-.5.2-.7V81c-.3.2-.5.3-.9.3zm6.5-4.8v2c.4-.8.8-1.3 1.4-1.7.5-.4 1.2-.5 2.1-.5v1.6c-.6 0-1.1.1-1.6.3-.4.2-.8.4-1.1.7-.3.3-.5.7-.6 1.2-.1.5-.2 1-.2 1.6v4.2h-1.5v-9.4h1.5zm9.1 0v1.4h-1.9v6.2c0 .1.1.2.2.3.1.1.2.1.4.1H89v1.4h-1.2c-.4 0-.7 0-1-.1-.3-.1-.5-.2-.7-.3-.2-.1-.3-.4-.4-.6-.1-.3-.1-.6-.1-1.1v-6H84v-1.4h1.6v-2.8h1.5v2.8H89zM43.9 92.9c-.7-.5-1.4-.7-2.4-.7-.8 0-1.4.1-2 .4-.6.3-1 .7-1.4 1.2-.4.5-.6 1.1-.8 1.7-.2.6-.3 1.3-.3 2s.1 1.4.3 2.1c.2.7.4 1.2.8 1.7s.8.9 1.4 1.2c.6.3 1.2.4 2 .4.6 0 1.1-.1 1.5-.3.4-.2.8-.4 1.1-.8.3-.3.6-.7.8-1.2.2-.5.3-1 .3-1.5H47c-.2 1.6-.7 2.9-1.7 3.8-1 .9-2.3 1.4-3.9 1.4-1 0-1.9-.2-2.6-.5-.8-.3-1.4-.8-1.9-1.4-.5-.6-.9-1.3-1.1-2.1-.2-.8-.4-1.7-.4-2.7 0-.9.1-1.8.4-2.7.3-.8.7-1.6 1.2-2.2.5-.6 1.2-1.1 1.9-1.5.8-.4 1.7-.5 2.7-.5.7 0 1.3.1 1.9.3.6.2 1.1.4 1.6.8s.9.8 1.2 1.3c.3.5.5 1.1.6 1.8h-1.7c-.2-.8-.7-1.5-1.3-2zm6.8 1.8v2c.4-.8.8-1.3 1.4-1.7.5-.4 1.2-.5 2.1-.5v1.6c-.6 0-1.1.1-1.6.3-.4.2-.8.4-1.1.7-.3.3-.5.7-.6 1.2-.1.5-.2 1-.2 1.6v4.2h-1.5v-9.4h1.5zm11.7 8.8c-.7.5-1.6.8-2.7.8-.8 0-1.4-.1-2-.4-.6-.2-1-.6-1.4-1-.4-.4-.7-1-.8-1.6-.2-.6-.3-1.3-.3-2s.1-1.4.3-2c.2-.6.5-1.1.9-1.5.4-.4.9-.8 1.4-1 .5-.2 1.1-.4 1.8-.4.8 0 1.5.2 2.1.5.6.3 1 .8 1.3 1.3.3.5.6 1.1.7 1.7.1.6.2 1.2.2 1.8h-7c0 .4 0 .8.1 1.2.1.4.3.7.5 1 .2.3.6.5.9.7.4.2.8.3 1.3.3.7 0 1.2-.2 1.6-.5.4-.3.7-.8.8-1.4h1.5c-.1 1.2-.5 2-1.2 2.5zm-.4-6c-.1-.3-.3-.6-.6-.8-.2-.2-.5-.4-.8-.6-.3-.1-.7-.2-1.1-.2-.4 0-.8.1-1.1.2-.3.1-.6.3-.8.6-.2.2-.4.5-.5.8-.1.3-.2.7-.2 1h5.4c-.1-.4-.2-.7-.3-1zm11.1 6.8c-.4 0-.7-.1-1-.3-.2-.2-.4-.6-.4-1.1-.4.5-.9.9-1.5 1.1-.6.2-1.2.3-1.8.3-.4 0-.8 0-1.2-.1-.4-.1-.7-.2-1-.5-.3-.2-.5-.5-.7-.8-.2-.3-.2-.7-.2-1.2s.1-1 .3-1.3c.2-.3.4-.6.7-.8.3-.2.6-.4 1-.5l1.2-.3c.4-.1.8-.1 1.2-.2.4 0 .7-.1 1-.2.3-.1.5-.2.7-.3.2-.2.3-.4.3-.7 0-.3-.1-.6-.2-.8-.1-.2-.3-.4-.5-.5-.2-.1-.4-.2-.7-.2-.2 0-.5-.1-.7-.1-.7 0-1.2.1-1.6.4-.4.2-.7.7-.7 1.4h-1.5c0-.6.1-1.1.4-1.5.2-.4.5-.7.9-1 .4-.2.8-.4 1.3-.5.5-.1 1-.2 1.5-.2.4 0 .8 0 1.3.1.4.1.8.2 1.1.4.3.2.6.5.8.8.2.3.3.8.3 1.3v4.8c0 .4 0 .6.1.8 0 .2.2.3.4.3.1 0 .3 0 .5-.1v1.2c-.5.2-.8.3-1.3.3zm-2.2-4.7c-.3.1-.6.1-1 .2-.3 0-.7.1-1 .1-.4.1-.7.1-.9.3-.3.1-.5.3-.7.5-.2.2-.3.5-.3.9 0 .3.1.5.2.6.1.2.2.3.4.4.2.1.4.2.6.2.2 0 .5.1.7.1.5 0 .9-.1 1.3-.2s.7-.3.9-.5c.2-.2.4-.4.5-.7.1-.2.2-.5.2-.7v-1.6c-.3.2-.6.3-.9.4zm6.3 2.4c.1.2.3.4.6.6.2.1.5.2.8.3.3.1.6.1.9.1.2 0 .5 0 .8-.1.3 0 .5-.1.7-.2.2-.1.4-.2.6-.4.1-.2.2-.4.2-.7 0-.4-.2-.7-.5-.9-.3-.2-.7-.4-1.1-.5l-1.5-.3c-.5-.1-1-.2-1.5-.4s-.8-.5-1.1-.8c-.3-.3-.5-.8-.5-1.4 0-.5.1-.9.3-1.2.2-.3.5-.6.8-.8.3-.2.7-.4 1.1-.5.4-.1.8-.2 1.2-.2.5 0 1 0 1.5.1.4.1.8.2 1.2.5.3.2.6.5.8.9.2.4.3.9.4 1.4h-1.5c0-.3-.1-.6-.2-.8-.1-.2-.3-.4-.5-.5-.2-.1-.4-.2-.7-.3-.2-.1-.5-.1-.8-.1-.2 0-.5 0-.7.1-.2 0-.5.1-.6.2s-.4.2-.5.4c-.1.2-.2.3-.2.6s.1.5.3.7c.2.2.4.3.7.4.3.1.6.2 1 .3.4.1.7.2 1.1.2.4.1.8.2 1.1.3.4.1.7.3 1 .5.3.2.5.5.7.8s.3.7.3 1.1c0 .6-.1 1-.4 1.4-.2.4-.5.7-.9.9-.4.2-.8.4-1.3.5-.5.1-1 .1-1.4.1-.5 0-1-.1-1.5-.2s-.9-.3-1.3-.5-.7-.6-.9-1c-.2-.4-.3-.9-.4-1.5h1.5c.2.4.2.7.4.9zm14.9 1.5c-.7.5-1.6.8-2.7.8-.8 0-1.4-.1-2-.4-.6-.2-1-.6-1.4-1-.4-.4-.7-1-.8-1.6-.2-.6-.3-1.3-.3-2s.1-1.4.3-2c.2-.6.5-1.1.9-1.5.4-.4.9-.8 1.4-1 .5-.2 1.1-.4 1.8-.4.8 0 1.5.2 2.1.5.6.3 1 .8 1.3 1.3.3.5.6 1.1.7 1.7.1.6.2 1.2.2 1.8h-7c0 .4 0 .8.1 1.2.1.4.3.7.5 1 .2.3.6.5.9.7.4.2.8.3 1.3.3.7 0 1.2-.2 1.6-.5.4-.3.7-.8.8-1.4h1.5c0 1.2-.5 2-1.2 2.5zm-.3-6c-.1-.3-.3-.6-.6-.8-.2-.2-.5-.4-.8-.6-.3-.1-.7-.2-1.1-.2-.4 0-.8.1-1.1.2-.3.1-.6.3-.8.6-.2.2-.4.5-.5.8-.1.3-.2.7-.2 1H92c0-.4-.1-.7-.2-1z"/></g><g><path class="st3" d="M50.4 22.9l.8-.5c0 .1-2.1 2.7-2.1 2.7.1.1 4.7-2.8 4.7-2.7.1.2-5.3 4.5-5.3 4.6.1.2 6.9-4.2 7-4 .1.2-7.8 5.8-7.6 6 .1.2 9.6-5.8 9.7-5.6.1.2-10 7.1-9.9 7.3.2.3 11.4-7 11.6-6.7.2.3-12 8.1-11.8 8.4.2.4 14.1-8.7 14.3-8.3.2.4-15.3 9.8-15 10.3.3.5 18-11.1 18.3-10.5.3.5-18.8 11.7-18.5 12.2.2.4 21.2-12.9 21.4-12.4.3.5-22.1 13.7-21.9 14.2.3.5 24.8-15 25.1-14.5.4.7-25.6 15.6-25.3 16.2.4.7 29.3-18.1 29.8-17.2.4.7-30.2 18.1-29.8 18.8.7.8 30.6-18.7 31.1-17.8.5.9-32.2 18.9-31.7 19.8.4.7 32-19.4 32.4-18.7.4.7-33.4 19.6-32.9 20.6.6 1 33.3-20.4 33.8-19.5.5.9-34.7 20.5-34.2 21.4.5.9 33.8-20.8 34.3-19.8.4.7-35.1 20.8-34.7 21.6.5.8 34.3-21 34.8-20.1.6 1-35.7 20.9-35.2 21.9.6 1 34.5-21.3 35.1-20.2.6 1-36.8 21.9-36.4 22.6.6 1 36-22.1 36.6-21.1.5.8-37.5 22.1-37 22.9.4.8 36.6-22.2 37.1-21.4.6 1-38.2 22.5-37.7 23.3.5.9 37.3-22.7 37.8-21.8.7 1.1-37.8 22.1-37.2 23 .6 1 37.1-22.5 37.6-21.7.5.8-36 21.4-35.5 22.1.5.9 35.6-21.9 36.2-20.9.5.8-34.9 20.4-34.3 21.4.4.7 34-20.7 34.5-19.9.5.8-32.6 19.2-32.1 20.1.4.8 32.1-19.8 32.6-18.8.5.8-30.9 18.3-30.5 19.1.4.7 30.4-18.4 30.7-17.7.5.8-28.8 17.4-28.5 18 .5.9 28.9-17.7 29.3-16.9.4.6-27.9 16.7-27.5 17.4.4.7 27.3-16.6 27.7-16 .4.7-25.9 15.5-25.5 16.2.4.8 25.6-15.6 26-15 .3.5-24.3 14.8-23.9 15.4.4.6 23.9-14.4 24.1-13.9.3.6-21.9 13.6-21.7 14 .3.5 21.5-13.3 21.9-12.6.3.5-19.7 12.2-19.4 12.8.3.4 20-12.1 20.3-11.7.3.4-16.6 10.7-16.4 11.1.2.3 16-9.9 16.3-9.4.2.4-13.3 8.8-13 9.1.2.3 13.8-8.4 14-8.1.2.3-10.7 7.4-10.5 7.6.2.3 10.3-6.3 10.4-6 .1.2-8.2 6-8.1 6.2.1.2 8.1-5 8.3-4.8.1.1-4.5 3.9-4.4 4.1.1.1 5.2-3.2 5.3-3 0 0-.8 1.9-.7 2 0 0 1.3-.8 1.3-.7"/><path class="st4" d="M49.4 21.6v.1zm0 .7v-.4c-.2.1.1.3 0 .4zm0 .1c-.1.2 0 .2 0 .3-.1-.1.1-.3 0-.3zm.8 10.2z"/><path class="st4" d="M53.7 32.6c-.6 0-1.3-.2-2-.2-.9-.1-1.7-.1-2.5-.2-.4 0-.8-.1-1.2-.1h-.6c-.1 0-.2 0-.3-.1-.1-.1-.1-.2-.1-.4v-.2.1c.1-.2.2-.4.2-.6 0-.2.1-.5.2-.6 0-.1 0-.2-.1-.1.1-.3.2-.6.3-1 .1-.3.1-.7.2-1 .1-.7.3-1.4.5-2 0-.1.1-.1.1 0 .2-1.2.6-2.3.9-3.4 0-.1-.1.1-.1 0-.1.3 0 .7-.2 1v-.1c-.1.2.1.1 0 .3-.1.1 0 0-.1 0-.1.5-.3 1-.4 1.5-.1.1-.2.5-.3.7 0 .1-.1.3 0 .3-.3.9-.5 1.8-.7 2.7-.1.4-.3.9-.4 1.4-.1.2-.1.4-.2.7-.1.3-.1.8.3.9h.8c.2 0 .5.1.7.1.5.1 1 .2 1.6.2.4 0 .9 0 1.3.1l.4-.1c1.2.2 2.5.4 3.7.5 1.3.1 2.5.1 3.8.3 1.4.2 2.8.2 4.1.2 1.3 0 2.7-.1 4.1-.2h-.1c.8-.1 1.5 0 2.3-.1 1.9-.2 3.9-.4 5.7-.9.5-.1 1.1-.2 1.7-.3.6 0 1.2 0 1.8-.1.2 0 .3 0 .5-.1.1-.1.3-.2.3-.4 0-.3-.1-.6-.2-.9-.2-.6-.4-1.1-.5-1.7-.1-.5-.1-.9-.2-1.4-.1-.5-.3-.9-.4-1.3-.1-.4-.2-.9-.3-1.3-.1-.5-.3-.9-.4-1.3-.1-.5-.3-.9-.4-1.4-.1-.2-.2-.5-.5-.6-.3-.2-.6-.1-.8 0-1.2.5-2.2.7-3.2.8-.6.1-1.3.1-2 .2s-1.3.2-1.9.2c-1.2 0-2.3.1-3.4.1-1.1.1-2.3.1-3.4.2-1.1-.1-2.1-.1-3.2-.2-.5 0-1.1-.1-1.6-.1s-1.1 0-1.6-.2c-1 0-2-.4-3.1-.5v.1c-.3-.1-.8.2-1-.1-.2-.1-.5.2-.6 0-.3 0 0-.1-.2-.1-.1 0 0 .1-.2 0 0-.2-.6-.1-.6-.3.1 0-.2-.1.1-.1-.1 0-.5-.1-.5 0-.1.1-.3.1 0 .3l.1-.1.1.1c.3.1.3.2.6.3.2-.1.4 0 .5.1v.1c.1.1.4-.1.3 0 .7.1 1.5.1 2.2.2.1-.1.6.1.4-.1.2.2.7.3.9.3.4.2.5-.1.8.2.1-.1.7.2.9 0 0 0 .1.1 0 .1.7 0 1.4.1 2 .2.5-.1 1.2.2 1.6 0 .4.1.9.2 1.4.1.6 0 1.3 0 1.6-.1.2.2.4.1.6.2.4-.1 1.1 0 1.7-.1.1.1.5-.1.5.1.8-.2 1.7-.3 2.6-.4.4 0 .9-.1 1.3-.1s.9 0 1.3.1c.2-.1.5-.2.7-.3.3 0 .6 0 .9-.1.3-.1.6 0 .9-.2l.2-.1s0 .1-.1.1c.7-.1 1.3-.2 2-.5.5-.3.7.1.9.9.2.7.5 1.3.7 1.9.2.6.3 1.3.6 2l-.1-.1.3.5h-.1c.2.6.3 1.3.4 1.9 0 0-.1-.1-.1 0 .2.5.1.8.4 1 0 0 0 .1-.1 0 .1.3.3.6.4.9.1.3.2.6 0 .6-.2.1-.6.1-.9.1h-1c-1.2.3-2.4.5-3.5.8-1.5.4-3.1.5-4.7.5-.7 0-1.1.1-1.8.1-1.1.2-2.3-.1-3.5.1l.1-.1c-.2.1-.7 0-.6.2l-.2-.1c-.8.2-1.4-.1-2.4 0h.1-.7.1c-.8-.1-1.7-.1-2.6-.1l.1-.1c-.4.1-1.2-.1-1.7-.1h-.3v-.1c-.6 0-1.3 0-1.9-.1zM47 31.5zm3.7-9.2c-.1 0-.1 0 0 0-.1 0-.1 0 0 0zm28.7 9.2zm0 0c.1.1 0 0 0 0zm0 0zm.1 0z"/><path class="st4" d="M79.4 31.4v.1c.1 0 .1 0 0-.1 0 0 .1.1 0 0 .1 0 .1 0 0 0 .1.1.1 0 0 0 .1 0 .2.1 0 0 .1 0 .1 0 0 0h.1c0-.1.1 0-.1 0 .1-.1.1-.1 0 0 .1-.1.1 0 .1-.1 0 0-.1 0 0 0s-.1 0 0 0c0 0-.1 0 0 0 0 0 .1 0 0 0 0 0-.1 0 0 0 0 0-.1 0 0 0h-.1s.1 0 0 0h-.1c-.1 0 .1 0 0 0h-.1c.1 0 0 0 0 0h.1c.1-.1.2 0 .1.1v-.1c.1 0 0-.1 0 .1v-.1c.1 0 .1 0 0 .1.1-.1 0-.1 0 0 .1-.1.1-.1 0 0 .1-.1.1-.1 0 0 .1 0 0-.1 0 0 .1 0 0-.1 0 0 .1 0 0-.1 0 0 .1 0 .1 0 0 0 0-.1 0 0 0 0s0-.1 0 0zm0 0zm0-.2zm-1.1.5zm0 0c0 .1 0 0 0 0zm0 0zm0 0zm0-.1s0-.1 0 0c0-.1 0 0 0 0 0 .1-.1.1-.1.1.1-.1.1 0 .1-.1 0 .1 0 0 0 0 0 .1.1 0 0 0 .1.1.1.1 0 0 .1 0 .1.1 0 0 .1 0 .1.1 0 0 .1 0 .1.1 0 0h.1s0-.1 0 0 0-.1 0 0c0 0 0-.1 0 0 0 0 0 .1 0 0 0 0 0-.1 0 0 0 0 0-.1 0 0v-.1s0 .1 0 0v-.1c0-.1 0 .1 0 0 0 .1 0 0 0 0v-.1c0 .1 0 0 0 0v.1s0 .1 0 0c0 .1 0 .1-.1.2.1 0 .1-.1 0 0 .1 0 .1-.1 0 0 .1 0 .1 0 0 0 .1 0 .1-.1 0 0 .1 0 .1-.1 0 0 .1.1.1-.1 0 0 .1 0 .1 0 0 0 .1-.1.1 0 0 0 .1 0 0 0 0 0zm0 0zm.3-.1zm-1.4.2zm0 0c0 .1 0 0 0 0zm0 0zm0 0zm0-.1c0 .1 0 .1-.1.1.1 0 .1 0 .1-.1 0 0 0 .1 0 0 0 .1 0 0 0 0 0 .1 0 0 0 0 0 .1.1.1 0 0 .1.1.1.1 0 0 .1 0 .1.1 0 0 .1 0 .1.1 0 0h.1s0-.1 0 0 0-.1 0 0c0 0 0-.1 0 0 0 0 0 .1 0 0 0 0 0-.1 0 0 0 0 0-.1 0 0v-.1s0 .1 0 0v-.1c0-.1 0 .1 0 0 0 .1 0 0 0 0v-.1c0 .1 0 .1 0 0v.1s0 .1 0 0c0 .1 0 .1-.1.2.1 0 .1-.1 0 0 .1 0 .1 0 0 0 .1 0 .1 0 0 0 .1 0 0-.1 0 0 0 0 0-.1 0 0s0-.1 0 0c0-.1 0 0 0 0zm0 0zm.2-.1zm-1.3.4zm0 0c0 .1 0 0 0 0zm0 0zm0 0zm0-.1s0-.1 0 0c0-.1 0 0 0 0 0 .1 0 0 0 0 .1.1.1.1 0 0 .1 0 .1 0 0 0 .1 0 .1 0 0 0 .1 0 .1 0 0 0h.1s0-.1 0 0 0-.1 0 0c0 0 0-.1 0 0 0 0 0 .1 0 0 0 0 0-.1 0 0 0 0 0-.1 0 0v-.1s0 .1 0 0v-.1c0-.1 0 .1 0 0v-.1c0 .1 0 .1 0 0v.2l-.1.1c.1-.1.1-.1 0 0 .1-.1.1-.2 0 0 .1-.1.1-.1 0 0 .1-.1.1-.1 0 0 .1-.1.1-.1 0 0 .1 0 .1-.1 0 0 .1-.1.1 0 0 0 .1 0 0-.1 0 0 0 0 0-.1 0 0 0 0 0-.1 0 0 0-.1 0 0 0 0s0-.1 0 0zm0 0zm.2-.2zm-1.3.5zm0 0c0 .1 0 0 0 0zm0 0zm0 0zm0-.1c0 .1 0 .1 0 0 0 .1 0 0 0 0 0 .1 0 0 0 0 .1.1.1.1 0 0 .1 0 .1 0 0 0 .1 0 .1.1 0 0 .1 0 .1 0 0 0h.1s0-.1 0 0 0-.1 0 0c0 0 0-.1 0 0 0 0 0 .1 0 0 0 0 0-.1 0 0 0 0 0-.1 0 0v-.1s0 .1 0 0v-.1c0-.1 0 .1 0 0v-.1c0 .1 0 .1 0 0v.2l-.1.1c.1-.1.1-.1 0 0 .1-.1.1-.2 0 0 .1-.1.1-.1 0 0 .1-.1.1-.1 0 0 .1 0 .1-.1 0 0 .1 0 .1-.1 0 0 .1-.1.1 0 0 0 .1 0 0-.1 0 0 0 0 0-.1 0 0 0 0 0-.1 0 0 0-.1 0 0 0 0 0-.1 0 0 0 0zm0 0zm.2-.2zM73.9 32.3v.1-.1zm0 0c0 .1 0 0 0 0zm0 0zm0 0zm0-.1c0 .1 0 .1 0 0 0 .1 0 .1 0 0 0 .1 0 .1 0 0 .1.1.1.1 0 0 .1.1.1.1 0 0 .1 0 .1.1 0 0 .1 0 .1.1 0 0h.1s0-.1 0 0 0-.1 0 0c0 0 0-.1 0 0 0 0 0 .1 0 0 0 0 0-.1 0 0 0 0 0-.1 0 0v-.1s0 .1 0 0V32c0-.1 0 .1 0 0v-.1c0 .1 0 .1 0 0v.2l-.1.1c.1-.1.1-.1 0 0 .1-.1.1-.2 0 0 .1-.1.1-.1 0 0 .1-.1.1-.1 0 0 .1 0 .1-.1 0 0 .1 0 .1 0 0 0 .1 0 .1 0 0 0 .1 0 0-.1 0 0 0 0 0-.1 0 0s0-.1 0 0c0-.1 0 0 0 0zm0 0zm.2-.2zM72.8 32.5zm-.1 0c.1.1 0 0 0 0zm0 0c.1 0 0 0 0 0zm.1 0zm0-.1c0 .1 0 .1 0 0 0 .1 0 0 0 0 0 .1.1.1 0 0 .1 0 .1.1 0 0 .1 0 .1.1 0 0 .1 0 .1.1 0 0h.1s0-.1 0 0 0-.1 0 0c0 0 0-.1 0 0 0 0 0 .1 0 0 0 0 0-.1 0 0 0 0 0-.1 0 0v-.1s0 .1 0 0v-.1c0-.1 0 .1 0 0 0 .1 0 0 0 0v-.1c0 .1 0 .1 0 0v.1s0 .1 0 0c0 .1 0 .1-.1.2.1-.1.1-.2 0 0 .1-.1.1-.1 0 0 .1-.1.1-.1 0 0 .1 0 .1-.1 0 0 .1 0 .1 0 0 0 0 0 0-.1 0 0 0 0 0-.1 0 0s0-.1 0 0c0-.1 0 0 0 0zm0 0zm.2-.2zM71.6 32.7zm0 0s0-.1 0 0zm0 0s0-.1 0 0c0 0 0-.1 0 0zm.1-.1zm0-.1c0 .1 0 0 0 0s0 .1 0 0c0 .1 0 .1 0 0 0 .1 0 .1 0 0 0 0 0 .1 0 0 0 .1 0 .1 0 0v.1c-.1 0-.1 0 0-.1 0 .1 0 .1 0 0 0 .2 0 .1 0 0 0 .1 0 .2 0 0 0 .1 0 .1 0 0 0 .1.1.1 0 0 .1.1.1.1 0 0h.1s0-.1 0 0 0-.1 0 0c0 0 0-.1 0 0 0 0 0 .1 0 0 0 0 0-.1 0 0 0 0 0-.1 0 0v-.1s0 .1 0 0v-.1c0-.1 0 .1 0 0 0 .1 0 0 0 0v-.1c0 .1 0 .1 0 0v.1s0 .1 0 0c0 .2 0 .2-.1.2.1 0 .1-.1 0 0 .1 0 .1 0 0 0 .1 0 .1 0 0 0 .1 0 .1 0 0 0 .1.1 0 0 0 0 0 .1 0 0 0 0 0 .1 0 0 0 0 0 .1 0 0 0 0 0 .1 0 .1 0 0 0 .1 0 0 0 0zm0 .1zm.2-.2zM70.5 32.8zm0 0s0-.1 0 0zm0 0s0-.1 0 0c0 0 0-.1 0 0zm.1-.1zm0-.1c0 .1 0 0 0 0-.1 0-.1.1 0 0-.1.1-.1.1 0 0-.1.1-.1.1 0 0-.1 0-.1.1 0 0-.1.1-.1.1 0 0v.1c-.1 0-.1 0 0-.1 0 .1-.1.1-.1.1s0 .1.1-.1c0 .1 0 .1 0 0 0 .2 0 .1 0 0 0 .2 0 .2 0 0 0 .1 0 .1 0 0 0 .1 0 .1 0 0 0 .1 0 .1 0 0h.1s0-.1 0 0 0-.1 0 0c0 0 0-.1 0 0 0 0 0 .1 0 0 0 0 0-.1 0 0 0 0 0-.1 0 0v-.1s0 .1 0 0v-.1c0-.1 0 .1 0 0 0 .1 0 0 0 0v-.1c0 .1 0 .1 0 0v.1s0 .1 0 0c0 .2 0 .2-.1.2 0 .1 0 0 0 0 0 .1 0 0 0 0 0 .1 0 0 0 0 0 .1 0 0 0 0 0 .1 0 .1 0 0 0 0 0 .1 0 0 0 .1 0 0 0 0zm-.1.1zm.3-.2zM69.4 32.8v.1-.1zm0 0c0 .1 0 0 0 0zm0 0zm0 0zm0-.1c0 .1-.1.1-.1.1.1-.1.1 0 .1-.1 0 .1 0 .1 0 0 0 .1 0 .1 0 0 0 .1.1.1 0 0 .1.1.1.1 0 0 .1.1.1.1 0 0 .1.1.1.1 0 0 .1 0 .1.1 0 0h.1s0-.1 0 0 0-.1 0 0c0 0 0-.1 0 0 0 0 0 .1 0 0 0 0 0-.1 0 0 0 0 0-.1 0 0v-.1s0 .1 0 0v-.1c0-.1 0 .1 0 0 0 .1 0 0 0 0v-.1c0 .1 0 0 0 0v.1s0 .1 0 0c0 .1 0 .1-.1.2.1 0 .1-.1 0 0 .1 0 .1 0 0 0 .1 0 .1 0 0 0 .1 0 .1-.1 0 0 .1 0 .1 0 0 0 .1.1.1 0 0 0 .1 0 .1 0 0 0 .1 0 .1 0 0 0 .1-.1.1 0 0 0zm0 0zm.3-.1zM68.3 32.9zm0-.1c0 .1 0 0 0 0zm0 0c0 .1 0 0 0 0zm0 0zm0-.1c0 .1 0 .1 0 0 0 .1 0 .1 0 0 0 .1 0 .1 0 0 0 0 0 .1 0 0 0 .1 0 .1 0 0 0 .1-.1.1-.1.1.1.1.1 0 .1-.1 0 .1 0 .1 0 0 0 .1 0 .1 0 0 0 .1 0 .1 0 0 0 .1 0 .1 0 0 .1.1.1.2 0 0 .1.1.1.1 0 0 .1.1.1.1 0 0 .1.1.1.1 0 0h.1s0-.1 0 0 0-.1 0 0c0 0 0-.1 0 0 0 0 0 .1 0 0 0 0 0-.1 0 0 0 0 0-.1 0 0v-.1s0 .1 0 0v-.1c0-.1 0 .1 0 0 0 .1 0 0 0 0v-.1c0 .1 0 0 0 0v.1s0 .1 0 0c0 .2 0 .2-.1.2.1 0 .1 0 0 0 .1.1.1 0 0 0 .1 0 .1 0 0 0 .1.1.1 0 0 0 .1 0 0 0 0 0 .1.1 0 0 0 0s0 .1 0 0zm0 .1zm.2-.2zM67.1 32.9zm0 0s0-.1 0 0zm0 0s0-.1 0 0zm.1 0zm0-.1s0-.1 0 0c0-.1 0 0 0 0v.1c-.1 0-.1-.1 0-.1 0 .1-.1.1-.1.1.1 0 .1 0 .1-.1 0 0 0 .1 0 0 0 .1 0 .1 0 0 0 .1 0 0 0 0 0 .1 0 .1 0 0 .1 0 .1.1 0 0 .1 0 .1.1 0 0h.1s0-.1 0 0 0-.1 0 0c0 0 0-.1 0 0 0 0 0 .1 0 0 0 0 0-.1 0 0 0 0 0-.1 0 0v-.1s0 .1 0 0v-.1c0-.1 0 .1 0 0 0 .1 0 0 0 0v-.1c0 .1 0 0 0 0v.1s0 .1 0 0c0 .1 0 .1-.1.2.1 0 .1-.1 0 0 .1 0 .1-.1 0 0 0-.1 0 0 0 0s0-.1 0 0c0 0 0-.1 0 0 0 0 0-.1 0 0 0-.1 0 0 0 0s0-.1 0 0c0-.1 0 0 0 0zm0 0zm.2-.1zM66 32.9zm0 0c0 .1 0 0 0 0zm0 0zm.1 0zm0-.1c-.1 0-.1 0 0 0-.1 0-.1 0 0 0-.1 0-.1 0 0 0-.1 0-.1 0 0 0-.1 0-.1 0 0 0v.1c-.1 0-.1 0 0-.1 0 .1-.1.1-.1.1l.1-.1s0 .1 0 0c0 .1 0 .1 0 0 0 .1 0 .1 0 0 0 .1 0 .1 0 0 0 .1 0 .1 0 0 0 .1 0 .1 0 0 0 .1 0 .1 0 0 0 0 .1.1 0 0h.1s0-.1 0 0 0-.1 0 0c0 0 0-.1 0 0 0 0 0 .1 0 0 0 0 0-.1 0 0 0 0 0-.1 0 0v-.1s0 .1 0 0v-.1c0-.1 0 .1 0 0 0 .1 0 0 0 0v-.1c0 .1 0 0 0 0v.1s0 .1 0 0c0 .1 0 .1-.1.2.1 0 .1-.1 0 0 0 0 0-.1 0 0 0-.1 0 0 0 0zm-.1 0zm.3-.1zM64.9 33v-.1zm0-.1c0 .1 0 0 0 0zm0 0zm0 0zm.1-.1c-.1 0-.1 0 0 0-.1 0-.1 0 0 0-.1 0-.1 0 0 0-.1 0-.1 0 0 0-.1 0-.1 0 0 0-.1 0-.1.1 0 0-.1 0-.1 0 0 0v.1c-.1 0-.1 0 0-.1 0 .1-.1.1-.1.1l.1-.1c-.1 0-.1.1 0 0-.1.1-.1.1 0 0-.1.1-.1.1 0 0 0 .1 0 .1 0 0 0 .1 0 .2 0 0 0 .1 0 .1 0 0 0 .1 0 .1 0 0 0 0 0 .1 0 0h.1s0-.1 0 0 0-.1 0 0c0 0 0-.1 0 0 0 0 0 .1 0 0 0 0 0-.1 0 0 0 0 0-.1 0 0v-.1s0 .1 0 0v-.1c0-.1 0 .1 0 0 0 .1 0 0 0 0v-.1c0 .1 0 0 0 0v.1s0 .1 0 0c0 .2-.1.2-.1.2s0-.1 0 0 0-.1 0 0zm-.1 0zm.3-.1zM63.8 33zm0-.1c0 .1 0 0 0 0zm0 0zm0 0zm0-.1c0 .1 0 0 0 0 0 .1 0 .1 0 0 0 .1 0 .1 0 0 0 0 0 .1 0 0 0 .1 0 .1 0 0 0 .1-.1.1-.1.1.1.1.1 0 .1-.1 0 .1 0 .1 0 0 0 .1 0 .1 0 0 0 .1 0 .1 0 0 0 .1 0 .1 0 0 .1.1.1.2 0 0 .1.1.1.1 0 0 .1.1.1.1 0 0 .1.1.1.1 0 0h.1s0-.1 0 0 0-.1 0 0c0 0 0-.1 0 0 0 0 0 .1 0 0 0 0 0-.1 0 0 0 0 0-.1 0 0v-.1s0 .1 0 0v-.1c0-.1 0 .1 0 0 0 .1 0 0 0 0v-.1c0 .1 0 0 0 0v.1s0 .1 0 0c0 .2 0 .2-.1.2.1 0 .1 0 0 0 .1.1.1 0 0 0 .1 0 .1 0 0 0 .1.1.1 0 0 0 .1 0 .1 0 0 0 .1.1.1 0 0 0 .1 0 .1 0 0 0 .1 0 .1 0 0 0zm0 .1zm.3-.2zM62.6 33zm0-.1c0 .1 0 0 0 0zm0 0c0 .1 0 0 0 0zm.1 0zm0-.1c0 .1 0 0 0 0s0 .1 0 0c0 .1 0 .1 0 0 0 .1 0 .1 0 0 0 .1 0 .1 0 0 0 0 0 .1 0 0 0 .1 0 .1 0 0l-.1.1c.1.1.1 0 .1-.1 0 .1 0 .1 0 0 0 .1 0 .1 0 0 0 .1 0 .1 0 0 0 .1 0 .1 0 0 0 .1 0 .2 0 0 .1.1.1.1 0 0 .1.1.1.1 0 0 .1.1.1.1 0 0h.1s0-.1 0 0 0-.1 0 0c0 0 0-.1 0 0 0 0 0 .1 0 0 0 0 0-.1 0 0 0 0 0-.1 0 0v-.1s0 .1 0 0v-.1c0-.1 0 .1 0 0 0 .1 0 0 0 0v-.1c0 .1 0 0 0 0v.1s0 .1 0 0c0 .2 0 .2-.1.2.1 0 .1 0 0 0 .1.1.1 0 0 0 .1 0 .1 0 0 0 .1.1 0 0 0 0 0 .1 0 0 0 0 0 .1 0 .1 0 0zm0 .1zm.2-.2zM61.5 33zm0-.1c0 .1 0 0 0 0zm0 0c0 .1 0 0 0 0zm.1 0zm0-.1c0 .1 0 0 0 0-.1.1-.1.1 0 0-.1.1-.1.1 0 0-.1 0-.1.1 0 0-.1.1-.1.1 0 0v.1c-.1 0-.1 0 0-.1-.1.2-.1.1 0 0l-.1.1c0 .1 0 0 .1-.1 0 .1 0 .1 0 0 0 .1 0 .1 0 0 0 .1 0 .1 0 0 0 .1 0 .2 0 0 0 .1 0 .1 0 0 0 .1 0 .1 0 0 0 .1 0 .1 0 0h.1s0-.1 0 0 0-.1 0 0c0 0 0-.1 0 0 0 0 0 .1 0 0 0 0 0-.1 0 0 0 0 0-.1 0 0v-.1s0 .1 0 0v-.1c0-.1 0 .1 0 0 0 .1 0 0 0 0v-.1c0 .1 0 0 0 0v.1s0 .1 0 0c0 .2 0 .2-.1.2.1 0 .1 0 0 0 0 .1 0 0 0 0 0 .1 0 0 0 0 0 .1 0 0 0 0 0 .1 0 .1 0 0zm-.1.1zm.3-.2zM60.4 32.9v.1-.1zm0 0c0 .1 0 0 0 0zm0 0zm0 0zm0-.1c0 .1 0 .1 0 0 0 .1 0 .1 0 0 0 .1 0 .1 0 0l-.1.1c.1 0 .1 0 .1-.1 0 0 0 .1 0 0 0 .1 0 .1 0 0 0 .1.1.1 0 0 .1.1.1.2 0 0 .1.1.1.1 0 0 .1.1.1.1 0 0 .1 0 .1.1 0 0h.1s0-.1 0 0 0-.1 0 0c0 0 0-.1 0 0 0 0 0 .1 0 0 0 0 0-.1 0 0 0 0 0-.1 0 0v-.1s0 .1 0 0v-.1c0-.1 0 .1 0 0 0 .1 0 0 0 0v-.1c0 .1 0 0 0 0v.1s0 .1 0 0c0 .2 0 .2-.1.2.1 0 .1-.1 0 0 .1 0 .1 0 0 0 .1 0 .1 0 0 0 .1 0 .1-.1 0 0 .1 0 .1 0 0 0 .1.1.1 0 0 0 .1 0 .1 0 0 0 .1-.1.1 0 0 0 .1 0 .1 0 0 0zm0 0zm.3-.1zM59.2 32.9v-.1zm0-.1c0 .1.1 0 0 0zm0 0s.1 0 0 0c0 0 .1 0 0 0zm.1 0z"/><path class="st4" d="M59.3 32.7s0 .1 0 0c0 0 0 .1 0 0 0 0 0 .1 0 0 0 .1 0 .1 0 0 0 .1 0 .1 0 0 0 .1 0 .1 0 0l-.1.1c.1 0 .1 0 .1-.1 0 0 0 .1 0 0 0 .1 0 .1 0 0 0 .1 0 .1 0 0 0 .1 0 .2 0 0 .1.1.1.1 0 0 .1.1.1.1 0 0 .1.1.1.1 0 0 .1.1.1 0 .1 0s0-.1 0 0 0-.1 0 0c0 0 0-.1 0 0 0 0 0 .1 0 0 0 0 0-.1 0 0 0 0 0-.1 0 0v-.1s0 .1 0 0v-.1c0-.1 0 .1 0 0 0 .1 0 0 0 0v-.1c0 .1 0 0 0 0v.1s0 .1 0 0c0 .2 0 .2-.1.2.1 0 .1 0 0 0 .1.1.1 0 0 0 .1 0 .1 0 0 0 .1.1.1-.1 0 0 .1 0 .1 0 0 0 0 .1.1 0 0 0zm0 0zm.3-.1zM58.1 32.7zm0 0c0 .1 0 0 0 0zm0 0zm.1 0zm0-.1c0 .1 0 .1 0 0-.1.1-.1.1 0 0-.1.1-.1.1 0 0l-.1.1s.1 0 .1-.1c0 0 0 .1 0 0 0 .1 0 .1 0 0 0 .1 0 .1 0 0 0 .1 0 .2 0 0 0 .1 0 .1 0 0 0 .1 0 .1 0 0 .1 0 .1.1 0 0 .1.1.1 0 .1 0s0-.1 0 0 0-.1 0 0c0 0 0-.1 0 0 0 0 0 .1 0 0 0 0 0-.1 0 0 0 0 0-.1 0 0v-.1s0 .1 0 0v-.1c0-.1 0 .1 0 0 0 .1 0 0 0 0v-.1c0 .1 0 0 0 0v.1s0 .1 0 0c0 .2 0 .2-.1.2.1 0 .1-.1 0 0 .1 0 .1 0 0 0 .1 0 .1 0 0 0 0 0 0-.1 0 0 0-.1 0 0 0 0zm0 0zm.2-.1zM57 32.6v.1-.1zm0 0c0 .1 0 0 0 0zm0 0zm.1 0zm0-.1s-.1 0 0 0c-.1 0-.1 0 0 0-.1.1-.1.1 0 0-.1.1-.1.1 0 0-.1.1-.1.1 0 0l-.1.1.1-.1s0 .1 0 0c0 .1 0 .1 0 0 0 .1 0 .1 0 0 0 .1 0 .1 0 0 0 .1 0 .2 0 0 0 .1 0 .1 0 0 0 .1 0 .1 0 0 0 0 .1.1 0 0h.1s0-.1 0 0 0-.1 0 0c0 0 0-.1 0 0 0 0 0 .1 0 0 0 0 0-.1 0 0 0 0 0-.1 0 0v-.1s0 .1 0 0v-.1c0-.1 0 .1 0 0 0 .1 0 0 0 0v-.1c0 .1 0 0 0 0v.1s0 .1 0 0c0 .2 0 .2-.1.2.1 0 .1 0 0 0 0 .1 0-.1 0 0 0-.1 0 0 0 0zm0 0zm.2-.1zM55.9 32.6zm0-.1c0 .1 0 0 0 0zm0 0zm0 0zm.1-.1s-.1 0 0 0c-.1.1-.1 0 0 0-.1.1-.1.1 0 0-.1.1-.1.1 0 0-.1 0-.1.1 0 0-.1 0-.1.1 0 0-.1.1-.1.1 0 0-.1.1-.1.1 0 0-.1.2-.1.1 0 0l-.1.1.1-.1c-.1.1-.1.1 0 0-.1.1-.1.1 0 0-.1.1 0 .1 0 0 0 .1 0 .1 0 0 0 .1 0 .2 0 0 0 .1 0 .1 0 0 0 .1 0 .1 0 0 0 .1 0 .1 0 0h.1s0-.1 0 0 0-.1 0 0c0 0 0-.1 0 0 0 0 0 .1 0 0 0 0 0-.1 0 0 0 0 0-.1 0 0v-.1s0 .1 0 0v-.1c0-.1 0 .1 0 0 0 .1 0 0 0 0v-.1c0 .1 0 0 0 0v.1s0 .1 0 0c0 .2 0 .2-.1.2 0 .1 0 0 0 0 0 .1 0 0 0 0 0 .1 0 0 0 0s0 .1 0 0zm-.1 0zm.3-.1zM54.8 32.5zm0-.1c0 .1 0 0 0 0zm0 0zm0 0zm0-.1c0 .1 0 .1 0 0 0 .1 0 .1 0 0 0 0 0 .1 0 0 0 0 0 .1 0 0 0 .1 0 .1 0 0 0 .1 0 .1 0 0 0 .2 0 .1 0 0l-.1.1c.1.1.1 0 .1-.1 0 .1 0 .1 0 0 0 .1 0 .1 0 0 0 .1.1.1 0 0 .1.1.1.2 0 0 .1.1.1.1 0 0 .1.1.1.1 0 0 .1.1.1.1 0 0 .1.1.1 0 .1 0s0-.1 0 0 0-.1 0 0c0 0 0-.1 0 0 0 0 0 .1 0 0 0 0 0-.1 0 0 0 0 0-.1 0 0v-.1s0 .1 0 0v-.1c0-.1 0 .1 0 0 0 .1 0 0 0 0V32c0 .1 0 0 0 0v.1s0 .1 0 0c.1.2 0 .2-.1.2.1 0 .1 0 0 0 .1.1.1 0 0 0 .1 0 .1 0 0 0 .1.1.1 0 0 0 .1 0 .1 0 0 0 .1.1.1 0 0 0 .1 0 .1.1 0 0 .1 0 .1 0 0 0 .1 0 .1 0 0 0zm0 .1zm.3-.1zM53.7 32.3zm0 0c-.1.1 0 0 0 0zm0 0zm0 0zm0-.1c0 .1 0 .1 0 0 0 .1 0 .1 0 0 0 .1 0 .1 0 0l-.1.1c.1 0 .1 0 .1-.1 0 0 0 .1 0 0 0 .1 0 .1 0 0 0 .1 0 .1 0 0 .1.1.1.2 0 0 .1.1.1.1 0 0 .1.1.1.1 0 0 .1 0 .1.1 0 0 .1.1.1 0 .1 0s0-.1 0 0 0-.1 0 0c0 0 0-.1 0 0 0 0 0 .1 0 0 0 0 0-.1 0 0 0 0 0-.1 0 0v-.1s0 .1 0 0V32c0-.1 0 .1 0 0 0 .1 0 0 0 0v-.1c0 .1 0 0 0 0v.1s0 .1 0 0c0 .2 0 .2-.1.2.1 0 .1-.1 0 0 .1 0 .1 0 0 0 .1 0 .1 0 0 0 .1 0 .1-.1 0 0 .1 0 .1 0 0 0 .1.1.1 0 0 0 .1 0 .1 0 0 0 .1-.1 0 0 0 0zm0 0zm.3-.1zM52.5 32.2zm0 0c0 .1 0 0 0 0zm0 0zm.1 0zm0-.1c0 .1 0 .1 0 0-.1.1-.1.1 0 0l-.1.1c.1 0 .1 0 .1-.1 0 0 0 .1 0 0 0 .1 0 0 0 0 0 .1 0 0 0 0 0 .1 0 .1 0 0 .1.1.1.1 0 0 .1.1.1.1 0 0 .1 0 .1.1 0 0 .1.1.1 0 .1 0s0-.1 0 0 0-.1 0 0c0 0 0-.1 0 0 0 0 0 .1 0 0 0 0 0-.1 0 0 0 0 0-.1 0 0V32s0 .1 0 0v-.1c0-.1 0 .1 0 0 0 .1 0 0 0 0v-.1c0 .1 0 0 0 0v.1s0 .1 0 0c0 .1 0 .1-.1.2.1 0 .1-.1 0 0 .1 0 .1 0 0 0 .1 0 .1 0 0 0 .1 0 .1-.1 0 0 .1 0 .1-.1 0 0 0 .1 0-.1 0 0 0-.1 0 0 0 0zm0 0zm.3-.1zM51.4 32.1zm0 0c0 .1 0 0 0 0zm0 0zm.1 0zm0-.1c-.1 0-.1.1 0 0-.1.1-.1.1 0 0-.1.1-.1.1 0 0l-.1.1.1-.1s0 .1 0 0c0 .1 0 .1 0 0 0 .1 0 .1 0 0 0 .1 0 .1 0 0 0 .1 0 .1 0 0 0 .1 0 .1 0 0 0 .1 0 .1 0 0 .1 0 .1.1 0 0h.1s0-.1 0 0 0-.1 0 0c0 0 0-.1 0 0 0 0 0 .1 0 0 0 0 0-.1 0 0 0 0 0-.1 0 0v-.1s0 .1 0 0v-.1c0-.1 0 .1 0 0 0 .1 0 0 0 0v-.1c0 .1 0 0 0 0v.1s0 .1 0 0c0 .1 0 .1-.1.2.1 0 .1-.1 0 0 .1 0 .1 0 0 0 0 0 0-.1 0 0 0-.1 0 0 0 0zm0 0zm.2-.1zM50.3 32zm0 0c0 .1 0 0 0 0zm0 0zm0 0zm.1-.1s-.1 0 0 0c-.1 0-.1 0 0 0-.1 0-.1 0 0 0-.1 0-.1 0 0 0-.1 0-.1 0 0 0-.1.1-.1.1 0 0-.1.1-.1.1 0 0-.1.1-.1.1 0 0l-.1.1.1-.1c-.1 0-.1.1 0 0-.1.1-.1.1 0 0 0 .1 0 .1 0 0 0 .1 0 .2 0 0 0 .1 0 .1 0 0 0 .1 0 .1 0 0 0 0 0 .1 0 0h.1s0-.1 0 0 0-.1 0 0c0 0 0-.1 0 0 0 0 0 .1 0 0 0 0 0-.1 0 0 0 0 0-.1 0 0v-.1s0 .1 0 0v-.1c0-.1 0 .1 0 0 0 .1 0 0 0 0v-.1c0 .1 0 0 0 0v.1s0 .1 0 0c0 .2 0 .2-.1.2 0 0 0-.1 0 0s0-.1 0 0c0-.1 0 0 0 0zm-.1 0zm.3-.1zM49.2 31.9zm0 0c0 .1 0 0 0 0zm0 0zm0 0zm0-.1c0 .1 0 .1 0 0 0 .1 0 .1 0 0l-.1.1c.1 0 .1 0 .1-.1 0 0 0 .1 0 0 0 .1 0 .1 0 0 0 .1 0 .1 0 0 .1.1.1.1 0 0 .1.1.1.1 0 0 .1.1.1.1 0 0 .1 0 .1.1 0 0 .1.1.1 0 .1 0s0-.1 0 0 0-.1 0 0c0 0 0-.1 0 0 0 0 0 .1 0 0 0 0 0-.1 0 0 0 0 0-.1 0 0v-.1s0 .1 0 0v-.1c0-.1 0 .1 0 0 0 .1 0 0 0 0v-.1c0 .1 0 0 0 0v.1s0 .1 0 0c0 .1 0 .1-.1.2.1 0 .1-.1 0 0 .1 0 .1 0 0 0 .1 0 .1 0 0 0 .1 0 .1-.1 0 0 .1 0 .1-.1 0 0 .1.1.1 0 0 0 .1 0 .1 0 0 0 .1-.1.1 0 0 0 .1 0 .1 0 0 0zm0 0zm.3-.1zM48 31.8v-.1zm0-.1c0 .1.1 0 0 0zm0 0s.1 0 0 0zm.1 0z"/><path class="st4" d="M48.1 31.6s0 .1 0 0c0 0 0 .1 0 0 0 0 0 .1 0 0 0 .1 0 .1 0 0 0 .1 0 .1 0 0 0 .1 0 .1 0 0l-.1.1c.1 0 .1.1.1-.1l-.1.1c.1 0 .1 0 .1-.1 0 0 0 .1 0 0 0 .1 0 .1 0 0 0 .1 0 .1 0 0 0 .1 0 .2 0 0 .1.1.1.1 0 0 .1.1.1.1 0 0 .1.1.1.1 0 0 .1.1.1.1.1 0 0 0 0-.1 0 0s0-.1 0 0c0 0 0-.1 0 0 0 0 0 .1 0 0 0 0 0-.1 0 0 0 0 0-.1 0 0v-.1s0 .1 0 0v-.1c0-.1 0 .1 0 0v-.1c0 .1 0 0 0 0v.1s0 .1 0 0c0 .2 0 .2-.1.2.1 0 .1 0 0 0 .1.1.1 0 0 0 .1 0 .1 0 0 0 .1.1.1 0 0 0 .1 0 .1 0 0 0 0 .1.1 0 0 0 .1 0 0 0 0 0 .1 0 0 0 0 0zm0 0zm.3 0zM46.9 31.4zm0 0c-.1.1 0 0 0 0zm0 0zm.1.1zm0-.1s.1 0 0 0c.1 0 0 0 0 0h-.1.1-.1c0 .1 0 .1.1 0 0 0-.1.1 0 0 0 .1 0 .1 0 0 0 .1 0 .1 0 0 0 .1 0 .2 0 0v.1c.1 0 .1.1 0-.1.1.1.1.1 0 0l.1.1s0-.1 0 0 0-.1 0 0c0 0 0-.1 0 0 0 0 0 .1 0 0 0 0 0-.1 0 0 0 0 0-.1 0 0v-.1s0 .1 0 0v-.1c0-.1 0 .1 0 0v-.1c0 .1 0 0 0 0v.1c0 .2.1.1-.1.1.1.1.1 0 0 0 .1.1.1.1 0 0 .1.1.1.1 0 0 0 .1.1 0 0 0 .1.1.1 0 0 0 0 .1.1 0 0 0 0 .1 0 .1 0 0 .1 0 0 0 0 0 0 .1.1 0 0 0zm0 0zm.3 0zM50.7 32.5l.1.1zm.1.5c0-.1.1 0 0 0l-.1-.3c-.1.1.2.2.1.3zm0 0c-.1.1 0 .2 0 .2s.1-.2 0-.2zm-1.7 9.4z"/><path class="st4" d="M48.9 44.9c0-.4.2-1 .3-1.4.4-1.2.5-2.4.6-3.6v-.1c.2-.2.1-.8.2-.9 0-.1 0-.1-.1-.1.1-1 .4-2 .5-3h.1c0-.9.2-1.7.3-2.6 0 0-.1.1-.1 0-.1.3.1.5-.1.7-.1.2.1.1 0 .2 0 .1-.1 0-.1 0 0 .4-.1.8-.1 1.1-.1.1-.1.4-.2.5v.3c-.4 1.3-.5 2.7-.8 4.1.1.7-.3 1.4-.4 2.2 0 .3-.1.6-.2.9v.3c-.1.4-.2.9-.3 1.4-.1.5-.2.9-.3 1.3-.2.9-.3 1.8-.5 2.7-.4 2.1-.9 3.8-1 5.9-.1.6-.2 1.1-.3 1.6-.1.4-.1.9-.1 1.3s-.1.9-.2 1.1c-.1 0-.2 0-.3-.1l-.4-.1c-.3 0-.5-.1-.8-.1l-.9-.3c-.3-.1-.7-.1-1-.2-.3 0-.6-.1-1-.3-.2-.1-.3-.2-.5-.2h-.5c.1-.3.2-.7.3-1 .3-1.3.9-2.5 1.2-3.9.4-1.3.5-2.9 1-4.2.4-.8.3-2 .7-2.8.4-.8.4-1.7.6-2.4.2-.8.3-1.7.3-2.5.2-1.6.6-3.1 1-4.5 0-.4 0-.8.2-1.1.2-.4.4-.7.5-1.1h-.1c.2-.2 0-.7.2-.8.1-.1-.2-.4 0-.5 0-.2.1 0 .1-.1s-.1 0 0-.1c.2 0 0-.5.3-.4 0 .1.1-.1.1.1 0-.1.1-.3 0-.3-.1-.1-.1-.2-.3-.1l.2.2h-.1c-.1.2-.2.2-.3.4.1.1 0 .3 0 .4h-.1c-.1 0 .1.3 0 .2 0 .5-.2 1-.4 1.5 0 .1-.2.4 0 .3-.2.1-.3.5-.3.7-.2.3.1.4-.1.7.2.1-.1.5 0 .6h-.1c-.1.5-.3 1-.4 1.4 0 .4-.3.8-.2 1.2-.1.2-.3.7-.2 1 0 .5-.1.9 0 1.2-.2.1-.2.3-.3.4 0 .3-.1.8-.2 1.2-.1 0-.1.3-.2.3-.1.7 0 1.3-.2 1.9-.2.6-.4 1.3-.7 1.8 0 .2.1.4.1.6 0 .2-.2.4-.2.6 0 .2-.2.4-.2.7v.2s-.1 0-.1-.1c-.5 1.9-.8 3.9-1.4 5.8v-.1.4c-.2.5-.2 1-.4 1.4 0 0 0-.1-.1 0 0 .2-.1.3-.1.4 0 .1-.1.3 0 .4 0 0-.1.1-.1 0 0 .2-.1.3-.1.5h.9c.2 0 .4.2.6.3.5.2.9.2 1.4.3h.6c.2 0 .4.1.6.2.4.1.9.2 1.3.2.1 0 .3 0 .4.1.1-.6.2-1 .2-1.6l.3-1.5c.1-.5.1-.8.2-1.3h.1c0-.8.5-1.7.4-2.5l.1.1c-.1-.2.1-.5-.1-.5l.1-.1c-.1-.6.3-1 .3-1.7v.1c0-.2 0-.4.1-.5v.1c.3-.5.2-1.2.3-1.8l.1.1c0-.3.2-.8.2-1.2v-.2h.1c0-.7 0-1.2.1-1.7zm.9-5.1c0 .1 0 .1 0 0z"/><path class="st4" d="M46.5 32.6c.1-.1.1-.1 0 0 .1-.1 0-.1 0 0zM41.5 56.4v.1zm0 .1c0-.1 0 0 0 0zm0 0zm0 0zm-.1.1s.1 0 0 0c.1 0 .1-.1 0 0 .1-.1.1 0 0 0 .1 0 .1-.1 0 0 .1 0 .1-.1 0 0 .1-.1.1-.1 0 0 .1-.1.1-.1 0 0 .1-.1.1-.1 0 0l.1-.1s0-.1-.1.1l.1-.1-.1.1c.1-.1.1-.1 0 0 .1-.1.1-.1 0 0 .1-.1.1-.1 0 0 .1-.1 0-.1 0 0 0-.1 0-.2 0 0 0-.1 0-.1 0 0 0-.1 0-.1 0 0 0-.1 0-.1 0 0-.1-.1-.1-.1-.1 0h.1c-.1 0-.1-.1-.1-.1s0 .1 0 0 0 .1 0 0c0 0 0 .1 0 0 0 0 0-.1 0 0 0 0 0 .1 0 0 0 0 0 .1 0 0v-.1.2s0-.1 0 0v.1c0 .1 0-.1 0 0v.1c0-.1 0 0 0 0v-.1c0-.1 0-.1.1-.1 0-.1 0 0 0 0 0-.1 0 0 0 0 0-.1 0 0 0 0s0-.1 0 0zm.1 0zm-.3 0zM42.6 56.8v-.1.1zm0 0c0-.1 0 0 0 0zm0 0zm0 0zm-.1.1s.1 0 0 0c.1 0 0 0 0 0s.1-.1 0 0c.1 0 .1 0 0 0 .1-.1.1-.1 0 0 .1-.1.1-.1 0 0 .1-.1.1-.1 0 0l.1-.1-.1.1.1-.1-.1.1c.1-.1.1-.1 0 0 0 0 .1-.1 0 0 0-.1 0-.1 0 0 0-.1 0-.1 0 0 0-.1 0-.2 0 0 0-.1 0-.1 0 0 0-.1 0-.1 0 0v-.1.1c-.1-.1-.1-.1 0 0-.1 0-.1-.1-.1-.1s0 .1 0 0 0 .1 0 0c0 0 0-.1 0 0 0 0 0 .1 0 0 0 0 0 .1 0 0v-.1.2s0-.1 0 0v.1c0 .1 0-.1 0 0v.1c0-.1 0 0 0 0V57c0-.1 0-.1.1-.1 0-.1 0 0 0 0 0-.1 0 0 0 0 0-.1 0 0 0 0zm0 0zm-.2 0zM43.7 57zm0 0c0-.1 0 0 0 0zm0 0zm-.1 0zm0 .1s.1 0 0 0c0 0 .1 0 0 0 .1 0 .1 0 0 0 .1 0 .1-.1 0 0 .1-.1.1-.1 0 0 .1-.1.1-.1 0 0l.1-.1-.1.1.1-.1-.1.1c.1-.1.1-.1 0 0 0 0 .1-.1 0 0 0-.1 0-.1 0 0 0-.1 0-.1 0 0 0-.1 0-.2 0 0 0-.1 0-.1 0 0 0-.1 0-.1 0 0 0 0 0-.1 0 0-.1-.1-.1-.1-.1 0 0 0 0 .1 0 0s0 .1 0 0c0 0 0 .1 0 0 0 0 0-.1 0 0 0 0 0 .1 0 0 0 0 0 .1 0 0V57v.2s0-.1 0 0v.1c0 .1 0-.1 0 0v.1c0-.1 0 0 0 0v-.1c0-.2 0-.2.1-.2 0 0-.1 0 0 0 0 0 0 .1 0 0 0 .1 0 0 0 0zm0 0zm-.2.1zM44.8 57.2zm0 .1c0-.1 0 0 0 0zm0 0zm-.1 0zm0 .1c0-.1 0 0 0 0 0-.1 0-.1 0 0 0-.1 0-.1 0 0 0 0 .1-.1 0 0 0-.1.1-.1 0 0 .1-.1.1-.1 0 0 .1-.1.1-.1 0 0 .1-.2.1-.1 0 0l.1-.1c0-.1 0-.1-.1.1l.1-.1c0-.1 0-.1-.1.1.1-.2.1-.1 0 0 0-.1.1-.1 0 0 0-.1 0-.1 0 0 0-.1 0-.1 0 0 0-.2 0-.2 0 0 0-.1 0-.1 0 0 0-.1 0-.1 0 0 0-.1 0-.1 0 0-.1-.1-.1-.1-.1 0h.1c-.1 0-.1-.1-.1-.1s0 .1 0 0 0 .1 0 0c0 0 0-.1 0 0 0 0 0 .1 0 0 0 0 0 .1 0 0v-.1.2s0-.1 0 0v.1c0 .1 0-.1 0 0v.1c0-.1 0 0 0 0v-.1c0-.2 0-.1.1-.1 0-.1-.1 0 0 0 0 0 0-.1 0 0 0-.1 0 0 0 0 0-.1 0 0 0 0 0-.1 0 0 0 0 0-.1 0-.1 0 0 0-.1 0 0 0 0zm0-.1zm-.2.1zM45.9 57.6zm0 .1c0-.1 0 0 0 0zm0-.1s0 .1 0 0c0 .1-.1.1 0 0zm-.1 0z"/><path class="st4" d="M45.8 57.7s0 .1 0 0c0 .1 0 0 0 0 0 .1 0 0 0 0 .1-.1.1-.1 0 0l.1-.1-.1.1.1-.1c-.1 0-.1 0-.1.1 0-.1 0 0 0 0s0-.1 0 0c0-.1 0 0 0 0 0-.1 0-.1 0 0-.1 0-.1-.1 0 0-.1 0-.1-.1 0 0-.1 0-.1-.1 0 0-.1-.1-.1-.1-.1 0h.1c-.1 0-.1-.1-.1-.1s0 .1 0 0 0 .1 0 0c0 0 0 .1 0 0 0 0 0-.1 0 0 0 0 0 .1 0 0 0 0 0 .1 0 0v-.1.2s0-.1 0 0v.1c0 .1 0-.1 0 0v.1c0-.1 0 0 0 0v-.1l.1-.1c-.1 0-.1.1 0 0-.1 0-.1 0 0 0-.1 0-.1 0 0 0-.1 0-.1.1 0 0-.1 0-.1.1 0 0 0 0-.1.1 0 0-.1 0 0 0 0 0-.1.1 0 0 0 0s0 .1 0 0zm0 0zm-.3.1zM56.6 32.8l.1.1zm.1.3l-.1-.2c-.1 0 .2.2.1.2zm-.1.1c-.1.1 0 .1 0 .1 0-.1.1-.1 0-.1zm-1 5.4zm.1 1.4c0-.3.2-.5.1-.8.1-.7.1-1.4.2-2.1V37c.1-.1.1-.4.2-.5 0 0 0-.1-.1-.1.2-.5.2-1.1.1-1.7h.1c-.1-.5 0-1 .2-1.5h-.1c-.1.2 0 .3-.1.5-.1.1.1 0 0 .1h-.1c0 .2-.1.5 0 .7-.1 0 0 .2-.1.3 0 .1 0 .1.1.1 0 .4-.1.7-.2 1.1l-.3 1.2c.1.4-.2.8-.2 1.3v.5l.1.2c-.3 1-.3 2.1-.5 3.1-.2 1.2-.4 2.2-.4 3.4 0 .3-.1.6-.2.9 0 .8-.3 1.6-.2 2.4-.2.9-.3 2-.4 2.9 0 .8-.4 1.5-.4 2.3-.2.8 0 1.7-.3 2.5-.3.5.1 1.2-.1 1.6-.2.5-.2 1-.3 1.3-.1.2-.3.1-.6.1h-.7c-.9-.3-1.8-.1-2.6-.5-.4.1-.8-.3-1.3-.3-.1-.2-.4.1-.5-.1-.1-.1-.2.2-.3.1v.1c-.1 0 0-.1-.1-.1 0 0 0 .1-.1.1 0-.2-.3 0-.2-.3.1 0-.1-.1.1-.1 0 0-.2-.1-.2 0s-.1.2 0 .3v-.1.1c.1 0 .1.2.2.2.1-.1.2 0 .2 0 0 .1.2-.2.1 0 .3 0 .6.1.9.1.1-.1.2 0 .2-.1.1.1.3.2.4.2.1.2.2-.1.4.1 0-.1.3.1.4-.1v.1c.3 0 .6.2.8.2.2-.1.5.1.7 0 .1.1.4.2.6.1.2 0 .5.1.7 0 0 .2.1.2.2.3h.4c.2 0 .5-.1.6-.3.1 0 .1-.3.2-.3 0-.8 0-1.6.2-2.3l-.3-.3c0-.1.1-.2.1-.4 0-.1.1-.2.1-.4v-.1s.1 0 .1.1c.2-1.1.2-2.3.4-3.4v-.2c.1-.3 0-.6.1-.8h.1c-.1-.2.2-.3 0-.4h.1c0-.6.1-1.1.2-1.7-.1-.5.1-1 0-1.5 0-.7.2-1.3.3-2 .1-.3 0-.5.1-.7h.1c-.1-.5.3-.9.2-1.5h.1c-.1-.1.1-.3-.1-.3l.1-.1c-.2-.4.2-.6.1-1v-.3c.2-.3.1-.7.1-1.1h.1c-.1-.2 0-.5 0-.7v-.1h.1c.1.4.1.1.1-.2zm.4-2.9zm-9.5 22.1z"/><g><path class="st4" d="M46.9 57.5zm0 0c0-.1 0 0 0 0zm0 0zm-.1 0zm0 .1s.1-.1 0 0c.1-.1.1-.1 0 0 .1-.1.1-.1 0 0l.1-.1s-.1 0-.1.1c0 0 0-.1 0 0 0-.1 0-.1 0 0 0-.1 0-.1 0 0 0-.1 0-.2 0 0 0-.1 0-.1 0 0 0-.1 0-.1 0 0-.1 0-.1-.1 0 0-.1-.1-.1-.1-.1 0 0 0 0 .1 0 0s0 .1 0 0c0 0 0 .1 0 0 0 0 0-.1 0 0 0 0 0 .1 0 0 0 0 0 .1 0 0v-.1.2s0-.1 0 0v.1c0 .1 0-.1 0 0 0-.1 0 0 0 0v.1c0-.1 0 0 0 0v-.1s0-.1 0 0c0-.2 0-.2.1-.2-.1 0-.1 0 0 0-.1 0-.1 0 0 0-.1 0-.1 0 0 0 0 0-.1.1 0 0 0-.1 0 0 0 0 0 .1 0 0 0 0zm0 0zm-.2.1zM48 57.8zm0 0c0-.1 0 0 0 0zm0 0zm-.1 0zm0 .1c0-.1 0-.1 0 0 .1-.1.1-.1 0 0 .1-.1.1-.1 0 0l.1-.1-.1.1.1-.1-.1.1.1-.1-.1.1c.1-.1 0-.1 0 0 0 0 0-.1 0 0 0-.1 0-.1 0 0 0-.1 0-.1 0 0 0-.1 0-.1 0 0 0-.1 0-.2 0 0 0-.1 0-.1 0 0-.1-.1 0-.1 0 0v-.1c-.1 0-.1 0 0 .1-.1-.1-.1-.1 0 0-.1 0-.1-.1-.1-.1s0 .1 0 0 0 .1 0 0c0 0 0-.1 0 0 0 0 0 .1 0 0 0 0 0 .1 0 0v-.1.2s0-.1 0 0v.1c0 .1 0-.1 0 0v.1c0-.1 0 0 0 0V58c0-.1 0-.1.1-.1-.1-.1-.1 0 0 0-.1 0-.1 0 0 0 0-.1-.1 0 0 0-.1 0-.1 0 0 0 0-.1-.1 0 0 0-.1 0 0 0 0 0zm0 0zm-.3 0zM49.1 58zm0 .1c0-.1-.1 0 0 0zm0 0s-.1 0 0 0c0 0-.1 0 0 0zm-.1 0z"/><path class="st4" d="M49 58.2c0-.1 0-.1 0 0 0-.1 0-.1 0 0 0 0 0-.1 0 0 0 0 0-.1 0 0 0-.1 0-.1 0 0 0-.1 0-.1 0 0 0-.2 0-.1 0 0l.1-.1c-.1-.1-.1-.1-.1.1V58v.2c0-.1 0-.1 0 0 0-.1 0-.1 0 0 0-.1 0-.1 0 0 0-.1 0-.2 0 0-.1-.1-.1-.1 0 0-.1-.1-.1-.1 0 0-.1-.1-.1-.1 0 0-.1-.1-.1-.1-.1 0 0 0 0 .1 0 0s0 .1 0 0c0 0 0 .1 0 0 0 0 0-.1 0 0 0 0 0 .1 0 0 0 0 0 .1 0 0v-.1.2s0-.1 0 0v.1c0 .1 0-.1 0 0v.1c0-.1 0 0 0 0v-.1c0-.2 0-.2.1-.2-.1-.1-.1 0 0 0-.1-.1-.1 0 0 0-.1 0-.1 0 0 0-.1-.1-.1 0 0 0-.1 0-.1 0 0 0 0-.1-.1 0 0 0 0-.1 0-.1 0 0-.1 0 0 0 0 0zm0-.1zm-.3.1zM50.2 58.1v.1zm0 .1c0-.1 0 0 0 0zm0 0zm-.1 0zm0 .1s0-.1 0 0c0-.1 0 0 0 0s0-.1 0 0c0 0 0-.1 0 0 0-.1 0-.1 0 0 .1-.1.1-.1 0 0 .1-.1.1-.1 0 0l.1-.1s-.1 0-.1.1c0 0 0-.1 0 0 0-.1 0-.1 0 0 0-.1 0-.1 0 0 0-.1 0-.2 0 0 0-.1 0-.1 0 0-.1-.1-.1-.1 0 0-.1-.1-.1-.1 0 0-.1-.1-.1 0-.1 0s0 .1 0 0 0 .1 0 0c0 0 0 .1 0 0 0 0 0-.1 0 0 0 0 0 .1 0 0 0 0 0 .1 0 0v-.1.2s0-.1 0 0v.1c0 .1 0-.1 0 0 0-.1 0 0 0 0v.1c0-.1 0 0 0 0v-.1s0-.1 0 0c0-.2 0-.2.1-.2-.1 0-.1 0 0 0-.1-.1-.1 0 0 0-.1 0-.1 0 0 0 0-.1-.1 0 0 0 0-.1 0 0 0 0zm0 0zm-.3.1zM51.3 58.3zm0 .1c0-.1 0 0 0 0zm0 0zm-.1 0zm0 .1c0-.1 0 0 0 0 0-.1 0-.1 0 0 0-.1 0-.1 0 0 0 0 0-.1 0 0 0-.1 0-.1 0 0 0-.1.1-.1 0 0 .1-.1.1-.1 0 0 .1-.2.1-.1 0 0l.1-.1c0-.1-.1 0-.1.1 0-.1 0-.1 0 0 0-.1 0-.1 0 0 0-.1 0-.1 0 0 0-.2 0-.2 0 0 0-.1 0-.1 0 0 0-.1 0-.1 0 0-.1-.1-.1-.1 0 0-.1-.1-.1-.1-.1 0 0 0 0 .1 0 0s0 .1 0 0c0 0 0 .1 0 0 0 0 0-.1 0 0 0 0 0 .1 0 0 0 0 0 .1 0 0v-.1.2s0-.1 0 0v.1c0 .1 0-.1 0 0v.1c0-.1 0 0 0 0v-.1s0-.1 0 0c0-.2 0-.2.1-.2-.1-.1-.1 0 0 0-.1-.1-.1 0 0 0-.1 0-.1 0 0 0 0-.1-.1 0 0 0 0-.1 0 0 0 0 0-.1 0 0 0 0 0-.1 0-.1 0 0 0-.1 0 0 0 0zm0-.1zm-.3.1z"/><g><path class="st4" d="M52.4 58.5v.1zm0 .1c0-.1 0 0 0 0zm0 0zm-.1 0zm0 .1s0-.1 0 0c0 0 0-.1 0 0 0 0 0-.1 0 0 .1-.1.1-.1 0 0 .1-.1.1-.1 0 0 .1-.1.1-.1 0 0l.1-.1s0-.1-.1.1l.1-.1-.1.1c.1-.1.1-.1 0 0 0 0 0-.1 0 0 0-.1 0-.1 0 0 0-.1 0-.1 0 0 0-.1 0-.2 0 0 0-.1 0-.1 0 0 0-.1 0-.1 0 0-.1-.1 0-.1 0 0-.1-.1-.1-.1-.1 0 0 0 0 .1 0 0s0 .1 0 0c0 0 0 .1 0 0 0 0 0-.1 0 0 0 0 0 .1 0 0 0 0 0 .1 0 0v-.1.2s0-.1 0 0v.1c0 .1 0-.1 0 0v.1c0-.1 0 0 0 0v-.1c0-.2 0-.2.1-.2-.1-.1-.1 0 0 0-.1 0 0 0 0 0 0-.1-.1 0 0 0 0-.1 0 0 0 0zm0 0zm-.3 0z"/></g></g><g><path class="st4" d="M62.6 33.3v.1zm.1.3l-.1-.2c-.1 0 .1.2.1.2zm-.1.1c-.1.1 0 .1 0 .1s.1-.1 0-.1zm-.4 5.8c-.1 0-.1 0 0 0zm.2 1.5c-.1-.3.1-.6 0-.9.1-.8 0-1.5 0-2.2 0 0-.1-.1 0-.1.1-.1 0-.5.1-.6 0 0 0-.1-.1-.1.1-.6.1-1.2 0-1.8h.1c-.2-.5-.1-1.1 0-1.6h-.1c-.1.2.1.3 0 .5 0 .1.1 0 0 .1h-.1c0 .2-.1.5.1.7-.1.1 0 .3-.1.4 0 .1 0 .1.1.1 0 .8-.2 1.6-.3 2.5.2.4-.1.9 0 1.4 0 .2.1.4 0 .6l.1.2c-.2 1.1-.1 2.2-.2 3.3-.1 1.3-.2 2.4-.1 3.6 0 .4-.1.7-.1 1 .1.8-.1 1.7 0 2.6-.1 1-.1 2.1-.1 3.1 0 .8-.2 1.6-.2 2.5-.1.8.1 1.8 0 2.6-.1.3 0 .6.1.9 0 .3.1.7-.1.8-.2.2-.4 0-.7-.1-.3-.1-.5-.1-.8-.1-.5 0-1 0-1.5.1-.9-.2-1.9 0-2.8-.3-.4.1-.9-.3-1.4-.3-.2-.2-.4.2-.5-.1-.1-.1-.2.2-.3.1v.1c-.1 0 0-.1-.1-.1 0 0 0 .1-.1.1 0-.2-.3 0-.3-.2.1 0-.1-.1.1-.1 0 0-.2 0-.2.1s-.1.2 0 .3V60v.1c.1 0 .2.1.3.2.1-.1.2 0 .2 0 0 .1.2-.2.1 0 .3 0 .6 0 1 .1.1-.1.3 0 .2-.1.1.1.3.2.4.2.2.2.2-.1.4.1 0-.1.3.1.4-.1v.1c.3 0 .6.1.9.2.2-.1.5.1.7 0 .2.1.4.2.6.1.2 0 .6 0 .7-.1.1.2.2.2.3.2.2-.1.5 0 .8-.1 0 .1.2 0 .2.1.2 0 .4-.1.5-.1h.7c.3-.1.4-.5.4-.7.1-.2.1-.4.1-.6l-.3-.3c0-.1.1-.3 0-.4-.1-.1.1-.3 0-.4v-.1s.1 0 .1.1v-3.6l-.1-.2c.1-.3 0-.6 0-.9h.1c-.1-.2.2-.3-.1-.5h.1c0-.6 0-1.2.1-1.8-.2-.5 0-1.1-.1-1.6-.1-.7.1-1.4.1-2.1V47h.1c-.2-.5.2-1 .1-1.6h.1c-.1-.1.1-.3-.1-.3l.1-.1c-.2-.4.1-.6 0-1.1 0-.1-.1-.2 0-.3.2-.4 0-.8 0-1.1h.1c-.1-.2 0-.5 0-.8l-.1-.1h.1c.4 0 .3-.3.3-.6zm.1-3.1zm-9.2 22.3z"/></g><g><path class="st4" d="M53.5 58.4zm0 0s0 .1 0 0zm0 0s0 .1 0 0zm0 0zm-.1.1s0 .1 0 0c.1.1.1 0 0 0 .1 0 .1 0 0 0 .1 0 .1 0 0 0 .1.1.1 0 0 0 .1 0 .1 0 0 0 .1 0 .1 0 0 0 .1-.1.1 0 0 0 .1-.1.1-.1 0 0l.1-.1-.1.1c.1 0 .1-.1 0 0 .1 0 .1 0 0 0 .1-.1 0 0 0 0 0-.1 0-.1 0 0 0 0 0-.1 0 0 0 0 0-.1 0 0h-.1s0 .1 0 0 0 .1 0 0c0 0 0 .1 0 0 0 0 0-.1 0 0 0 0 0 .1 0 0 0 0 0 .1 0 0v-.1.2s0-.1 0 0v.1c0 .1 0-.1 0 0 0-.1 0 0 0 0v.1c0-.1 0 0 0 0v-.1s0-.1 0 0c0-.1 0-.1.1-.2 0 0 0 .1 0 0 0 0 0 .1 0 0 0 0 0 .1 0 0 0 0 0 .1 0 0 0 0 0 .1 0 0 0 .1 0 0 0 0s0 .1 0 0zm.1 0zm-.3.1zm1.4 0zm0 0c0-.1 0 0 0 0zm0 0zm0 0zm0 .1c0-.1 0-.1 0 0 0-.1 0-.1 0 0l.1-.1c-.1 0-.1 0-.1.1l.1-.1c-.1 0-.1 0-.1.1 0 0 0-.1 0 0 0-.1 0-.1 0 0 0-.1 0-.1 0 0-.1-.1-.1-.1 0 0-.1-.1-.1-.1 0 0-.1-.1-.1-.1 0 0-.1 0-.1-.1 0 0-.1-.1-.1-.1-.1 0 0 0 0 .1 0 0s0 .1 0 0c0 0 0 .1 0 0 0 0 0-.1 0 0 0 0 0 .1 0 0 0 0 0 .1 0 0v-.1.2s0-.1 0 0v.1c0 .1 0-.1 0 0v.1c0-.1 0 0 0 0v-.1s0-.1 0 0c-.1-.2-.1-.2.1-.2-.1 0-.1.1 0 0-.1 0-.1 0 0 0-.1 0-.1 0 0 0-.1 0-.1.1 0 0-.1 0-.1 0 0 0-.1-.1-.1 0 0 0-.1 0-.1 0 0 0-.1.1-.1 0 0 0-.1 0-.1 0 0 0zm0 0zm-.3.1zM55.7 58.8zm0 0c0-.1 0 0 0 0zm0 0zm0 0zm0 .1s0-.1 0 0c0-.1 0-.1 0 0 0-.1 0-.1 0 0l.1-.1c-.1 0-.1 0-.1.1 0 0 0-.1 0 0 0-.1 0-.1 0 0 0-.1 0-.1 0 0-.1-.1-.1-.1 0 0-.1-.1-.1-.1 0 0-.1-.1-.1-.1 0 0-.1 0-.1-.1 0 0-.1-.1-.1-.1-.1 0 0 0 0 .1 0 0s0 .1 0 0c0 0 0 .1 0 0 0 0 0-.1 0 0 0 0 0 .1 0 0 0 0 0 .1 0 0v-.1.2s0-.1 0 0v.1c0 .1 0-.1 0 0 0-.1 0 0 0 0v.1c0-.1 0 0 0 0v-.1s0-.1 0 0c0-.2 0-.2.1-.2-.1 0-.1.1 0 0-.1 0-.1 0 0 0-.1 0-.1 0 0 0-.1 0-.1.1 0 0-.1 0-.1 0 0 0-.1-.1-.1 0 0 0-.1 0-.1 0 0 0-.1.1-.1 0 0 0-.1 0-.1 0 0 0zm0 0zm-.3.1zM56.9 58.9zm0 0c0-.1-.1 0 0 0zm0 0s-.1 0 0 0c-.1 0-.1 0 0 0zm-.1 0z"/><path class="st4" d="M56.8 59c0-.1 0-.1 0 0 0-.1 0-.1 0 0 0-.1 0-.1 0 0l.1-.1c-.1 0-.1 0-.1.1 0 0 0-.1 0 0 0-.1 0-.1 0 0 0-.1 0-.1 0 0 0-.1-.1-.2 0 0-.1-.1-.1-.1 0 0-.1-.1-.1-.1 0 0-.1 0-.1-.1 0 0h-.1s0 .1 0 0 0 .1 0 0c0 0 0 .1 0 0 0 0 0-.1 0 0 0 0 0 .1 0 0 0 0 0 .1 0 0v-.1.2s0-.1 0 0v.1c0 .1 0-.1 0 0 0-.1 0 0 0 0v.1c0-.1 0 0 0 0v-.1s0-.1 0 0c0-.2 0-.2.1-.2-.1 0-.1.1 0 0-.1 0-.1 0 0 0-.1 0-.1 0 0 0-.1 0-.1.1 0 0-.1 0-.1 0 0 0 0-.1-.1 0 0 0 0 .1 0 0 0 0zm0 0zm-.3.1zM58 59zm0 0c0-.1 0 0 0 0zm0 0zm-.1 0zm0 .1c0-.1 0-.1 0 0 .1-.1.1-.1 0 0 .1-.1.1-.1 0 0l.1-.1c-.1 0-.1 0-.1.1 0 0 0-.1 0 0 0-.1 0-.1 0 0 0-.1 0-.1 0 0 0-.1 0-.1 0 0 0-.1 0-.1 0 0-.1-.1-.1-.1 0 0-.1 0-.1-.1 0 0h-.1s0 .1 0 0 0 .1 0 0c0 0 0 .1 0 0 0 0 0-.1 0 0 0 0 0 .1 0 0 0 0 0 .1 0 0V59v.2s0-.1 0 0v.1c0 .1 0-.1 0 0 0-.1 0 0 0 0v.1c0-.1 0 0 0 0v-.1s0-.1 0 0c0-.2 0-.1.1-.2-.1 0-.1.1 0 0-.1 0-.1 0 0 0-.1 0-.1 0 0 0 0 0-.1.1 0 0 0-.1 0 0 0 0 0 .1 0 0 0 0zm0 0zm-.2.1zM59.1 59zm0 .1c0-.1 0 0 0 0zm0 0zm-.1 0zm0 .1s0-.1 0 0c0-.1 0 0 0 0s.1-.1 0 0c.1 0 .1-.1 0 0 .1-.1.1-.1 0 0 .1-.1.1-.1 0 0 .1-.1.1-.1 0 0l.1-.1-.1.1c0-.1 0-.1 0 0 0-.1 0-.1 0 0 0-.1 0-.1 0 0 0-.1 0-.1 0 0 0-.1 0-.2 0 0 0-.1 0-.1 0 0 0-.1 0-.1 0 0 0-.1-.1-.1 0 0h-.1s0 .1 0 0 0 .1 0 0c0 0 0 .1 0 0 0 0 0-.1 0 0 0 0 0 .1 0 0 0 0 0 .1 0 0v-.1.2s0-.1 0 0v.1c0 .1 0-.1 0 0 0-.1 0 0 0 0v.1c0-.1 0 0 0 0v-.1s0-.1 0 0c0-.2 0-.2.1-.2-.1 0-.1 0 0 0-.1-.1 0 0 0 0 0-.1 0 0 0 0 0-.1 0 0 0 0zm0 0zm-.2.1zM60.2 59.1zm0 .1c0-.1 0 0 0 0zm0 0c0-.1 0 0 0 0zm0 0zm-.1.1c0-.1 0 0 0 0 .1 0 .1-.1 0 0 .1-.1.1-.1 0 0 .1-.1.1-.1 0 0 .1 0 .1-.1 0 0 .1-.1.1-.1 0 0 .1-.1.1-.1 0 0 .1-.1.1-.1 0 0 .1-.2.1-.1 0 0l.1-.1c0-.1 0 0-.1.1.1-.1.1-.2 0 0 .1-.1.1-.1 0 0 0-.2 0-.1 0 0 0-.2 0-.2 0 0 0-.1 0-.1 0 0 0-.1 0-.1 0 0 0-.1 0-.1 0 0H60s0 .1 0 0 0 .1 0 0c0 0 0 .1 0 0 0 0 0-.1 0 0 0 0 0 .1 0 0 0 0 0 .1 0 0v-.1.2s0-.1 0 0v.1c0 .1 0-.1 0 0 0-.1 0 0 0 0v.1c0-.1 0 0 0 0v-.1s0-.1 0 0c0-.2 0-.2.1-.2 0-.1 0 0 0 0 0-.1 0 0 0 0 0-.1 0 0 0 0 0-.1 0 0 0 0 0-.1 0 0 0 0 0-.1 0-.1 0 0 0-.1 0 0 0 0zm.1-.1zm-.3.1z"/><g><path class="st4" d="M61.3 59.2zm0 .1c0-.1 0 0 0 0zm0 0zm0 0zm0 .1c0-.1 0-.1 0 0 0-.1 0-.1 0 0 0 0 0-.1 0 0 0 0 0-.1 0 0 0-.1 0-.1 0 0 0-.1 0-.1 0 0 0-.2 0-.1 0 0l.1-.1c-.1-.1-.1 0-.1.1 0-.1 0-.1 0 0 0-.1 0-.1 0 0 0-.1 0-.1 0 0-.1-.1-.1-.2 0 0-.1-.1-.1-.1 0 0-.1-.1-.1-.1 0 0-.1-.1-.1-.1 0 0-.1-.1-.1 0-.1 0s0 .1 0 0 0 .1 0 0c0 0 0 .1 0 0 0 0 0-.1 0 0 0 0 0 .1 0 0 0 0 0 .1 0 0v-.1.2s0-.1 0 0v.1c0 .1 0-.1 0 0 0-.1 0 0 0 0v.1c0-.1 0 0 0 0v-.1s0-.1 0 0c0-.2 0-.2.1-.2-.1 0-.1 0 0 0-.1-.1-.1 0 0 0-.1 0-.1 0 0 0-.1-.1-.1 0 0 0-.1 0-.1 0 0 0-.1-.1-.1 0 0 0-.1 0-.1-.1 0 0-.1 0-.1 0 0 0-.1 0-.1 0 0 0zm0-.1zm-.3.1z"/></g></g><g><path class="st4" d="M68.7 33.2h-.1l.1.1z"/><path class="st4" d="M68.8 33.5l-.1-.2c-.1.1.2.1.1.2zm0 0c0 .1 0 .1.1.1-.1 0 0-.1-.1-.1zm-.2 5.6z"/><path class="st4" d="M68.9 40.6c-.1-.3.1-.6 0-.9.1-.7-.1-1.4-.1-2.1 0 0-.1-.1 0-.1.1-.1 0-.5.1-.5 0 0 0-.1-.1-.1 0-.3.1-.6.1-.9 0-.3-.1-.6-.1-.9h.1c-.2-.5-.1-1-.1-1.5 0 0 0 .1-.1 0-.1.2.1.3 0 .4 0 .1.1 0 .1.1h-.1c0 .2 0 .5.1.7-.1.1 0 .2-.1.3 0 .1 0 .1.1.1 0 .8-.1 1.5-.2 2.4.1.4-.1.9 0 1.3 0 .1.1.4 0 .5l.1.2c-.2 1.1 0 2.2-.1 3.2 0 1.2-.2 2.3 0 3.5 0 .3-.1.7 0 1 .1.8-.1 1.7.1 2.5v3c.1.8-.2 1.6-.1 2.4-.1.8.2 1.7 0 2.5-.2.5.3 1.2.2 1.7-.1.2-.1.5-.1.7 0 .1 0 .2-.1.2-.1.1-.2 0-.2 0-.5 0-1 .1-1.5.1-.9-.2-1.8 0-2.7-.2-.4.1-.9-.2-1.3-.2-.2-.2-.4.2-.5 0-.1-.1-.2.2-.3.1v.1c-.1 0 0-.1-.1-.1 0 0 0 .1-.1.1 0-.2-.3 0-.3-.2.1 0-.1-.1.1-.1 0 0-.2 0-.2.1s-.1.2 0 .3v-.1.1c.1 0 .2.1.2.2.1-.1.2 0 .2 0 0 .1.2-.2.1 0h1c.1-.1.2 0 .2-.1.1.1.3.2.4.2.2.2.2-.1.4.1 0-.1.3.1.4-.1v.1c.3 0 .6.1.9.1.2-.1.5.1.7-.1.1 0 .4.1.6.1.2 0 .5 0 .7-.1.1.2.2.2.3.2.2-.1.4 0 .8-.1.1.1.3 0 .4.1.3-.1.3-.5.3-.8v-.6c0-.4 0-.8.1-1.2l-.3-.3c0-.1.1-.3.1-.4-.1-.1.1-.2 0-.4v-.1s.1 0 .1.1c.1-1.1-.1-2.3 0-3.5l-.1-.2c.1-.3 0-.6 0-.9h.1c-.1-.2.1-.3-.1-.4h.1c-.1-.6 0-1.2 0-1.8-.2-.5 0-1-.1-1.5-.1-.7 0-1.3 0-2v-.8c-.2-.5.2-1 0-1.5h.1c-.1-.1 0-.3-.1-.3l.1-.1c-.2-.3.1-.6-.1-1 0-.1-.1-.2 0-.3.2-.3 0-.7 0-1.1h.1c-.1-.2 0-.5-.1-.7l-.1-.1h.1c0 .1-.1-.1-.1-.4zm0-3.1zm-7.1 23.1z"/></g><g><path class="st4" d="M62 58.7zm0 0s0 .1 0 0zm0 0s0 .1 0 0c0 0 0 .1 0 0zm0 .1zm0 0s0 .1 0 0c0 .1 0 0 0 0 0 .1 0 0 0 0 0-.1 0-.1 0 0l.1-.1c-.1 0-.1.1-.1.1s0-.1 0 0c0-.1-.1 0 0 0-.1-.1-.1-.1 0 0-.1 0-.1 0 0 0-.1 0-.1 0 0 0-.1 0-.1 0 0 0h-.1s0 .1 0 0 0 .1 0 0c0 0 0 .1 0 0 0 0 0-.1 0 0 0 0 0 .1 0 0 0 0 0 .1 0 0v-.1.2s0-.1 0 0v.1c0 .1 0-.1 0 0 0-.1 0 0 0 0v.1c0-.1 0 0 0 0V59s0-.1 0 0c0-.1 0-.1.1-.2-.1 0-.1.1 0 0-.1 0-.1.1 0 0-.1.1-.1 0 0 0-.1 0-.1.1 0 0-.1 0-.1.1 0 0-.1 0-.1.1 0 0-.1 0-.1 0 0 0-.1.1-.1 0 0 0-.1 0-.1.1 0 0zm0 0zm-.3.1zM63.1 58.8zm0 .1c0-.1 0 0 0 0zm0 0zm0 0zm0 .1c0-.1 0-.1 0 0 0-.1 0-.1 0 0 0 0 0-.1 0 0 0 0 0-.1 0 0 0-.1 0-.1 0 0 0-.1 0-.1 0 0 0-.2 0-.1 0 0l.1-.1c-.1 0-.1 0-.1.1 0-.1 0-.1 0 0 0-.1 0-.1 0 0 0-.1 0-.1 0 0-.1-.1-.1-.2 0 0-.1-.1-.1-.1 0 0-.1-.1-.1-.1 0 0-.1-.1-.1-.1 0 0-.1-.1-.1 0-.1 0s0 .1 0 0 0 .1 0 0c0 0 0 .1 0 0 0 0 0-.1 0 0 0 0 0 .1 0 0 0 0 0 .1 0 0v-.1.2s0-.1 0 0v.1c0 .1 0-.1 0 0 0-.1 0 0 0 0v.1c0-.1 0 0 0 0v-.1s0-.1 0 0c0-.2 0-.2.1-.2-.1 0-.1 0 0 0-.1-.1-.1 0 0 0-.1 0-.1 0 0 0-.1-.1-.1 0 0 0-.1 0-.1 0 0 0-.1-.1-.1 0 0 0-.1 0-.1-.1 0 0-.1 0-.1 0 0 0 0 0-.1 0 0 0zm0-.1zm-.3.1zM64.3 58.9zm0 0c0-.1 0 0 0 0zm0 0s-.1 0 0 0c0 0-.1 0 0 0zm-.1 0zm0 .1s0 .1 0 0c0 .1 0 0 0 0 0-.1 0-.1 0 0 0-.1 0-.1 0 0l.1-.1c-.1 0-.1 0-.1.1 0 0 0-.1 0 0 0-.1 0 0 0 0 0-.1 0 0 0 0 0-.1-.1-.1 0 0-.1 0-.1-.1 0 0-.1 0-.1-.1 0 0-.1 0-.1-.1 0 0h-.1s0 .1 0 0 0 .1 0 0c0 0 0 .1 0 0 0 0 0-.1 0 0 0 0 0 .1 0 0 0 0 0 .1 0 0v-.1.2s0-.1 0 0v.1c0 .1 0-.1 0 0 0-.1 0 0 0 0v.1c0-.1 0 0 0 0v-.1s0-.1 0 0c0-.1 0-.1.1-.2-.1 0-.1.1 0 0-.1 0-.1 0 0 0-.1 0-.1 0 0 0-.1 0-.1.1 0 0-.1 0-.1.1 0 0 0-.1 0 .1 0 0 0 .1 0 0 0 0zm0 0zm-.3.1zM65.4 58.9zm0 .1c0-.1 0 0 0 0zm0 0zm-.1 0zm0 .1c0-.1 0 0 0 0 0-.1 0-.1 0 0 0-.1 0-.1 0 0 0 0 0-.1 0 0 0 0 0-.1 0 0 0-.1 0-.1 0 0 .1-.1.1-.1 0 0 .1-.2.1-.1 0 0l.1-.1c-.1-.1-.1 0-.1.1 0-.1 0-.1 0 0 0-.1 0-.1 0 0 0-.1 0-.1 0 0 0-.1 0-.1 0 0 0-.1 0-.2 0 0 0-.1 0-.1 0 0 0-.1-.1-.1 0 0-.1-.1-.1-.1 0 0h-.1s0 .1 0 0 0 .1 0 0c0 0 0 .1 0 0 0 0 0-.1 0 0 0 0 0 .1 0 0 0 0 0 .1 0 0V59v.2s0-.1 0 0v.1c0 .1 0-.1 0 0 0-.1 0 0 0 0v.1c0-.1 0 0 0 0v-.1s0-.1 0 0c0-.2 0-.2.1-.2-.1 0-.1 0 0 0-.1-.1-.1 0 0 0-.1 0-.1 0 0 0 0-.1 0 0 0 0 0-.1 0 0 0 0s0-.1 0 0zm0-.1c0 .1 0 0 0 0zm-.2.2zM66.5 59zm0 0c0-.1 0 0 0 0zm0 0zm-.1 0zm0 .1c.1 0 .1 0 0 0 .1 0 .1 0 0 0 .1 0 .1 0 0 0 .1 0 .1 0 0 0 .1 0 .1 0 0 0 .1-.1.1-.1 0 0 .1-.1.1-.1 0 0 .1-.1.1-.1 0 0l.1-.1-.1.1s0-.1 0 0c0-.1 0-.1 0 0 0-.1 0-.1 0 0 0-.1 0-.1 0 0 0-.1 0-.1 0 0 0-.1 0-.1 0 0 0-.1 0-.1 0 0 0 0 0-.1 0 0h-.1s0 .1 0 0 0 .1 0 0c0 0 0 .1 0 0 0 0 0-.1 0 0 0 0 0 .1 0 0 0 0 0 .1 0 0V59v.2s0-.1 0 0v.1c0 .1 0-.1 0 0 0-.1 0 0 0 0v.1c0-.1 0 0 0 0v-.1s0-.1 0 0c0-.1 0-.1.1-.2-.1 0-.1.1 0 0 0 0 0 .1 0 0 0 .1 0 0 0 0zm.1 0zm-.3.1zM67.6 59zm0 .1c0-.1 0 0 0 0zm0 0c0-.1 0 0 0 0zm0 0zm0 .1c0-.1 0 0 0 0s0-.1 0 0c0-.1 0-.1 0 0 0-.1 0-.1 0 0 0 0 0-.1 0 0 0-.1 0-.1 0 0 0-.1 0-.1 0 0 0-.1 0-.1 0 0 0-.2 0-.1 0 0l.1-.1c-.1-.1-.1 0-.1.1 0-.1 0-.1 0 0 0-.1 0-.1 0 0 0-.1-.1-.1 0 0-.1-.1-.1-.2 0 0-.1-.1-.1-.1 0 0-.1-.1-.1-.1 0 0-.1-.1-.1-.1 0 0h-.1s0 .1 0 0 0 .1 0 0c0 0 0 .1 0 0 0 0 0-.1 0 0 0 0 0 .1 0 0 0 0 0 .1 0 0v-.1.2s0-.1 0 0v.1c0 .1 0-.1 0 0 0-.1 0 0 0 0v.1c0-.1 0 0 0 0v-.1s0-.1 0 0c-.1-.2 0-.2.1-.2-.1 0-.1 0 0 0-.1-.1-.1 0 0 0-.1 0-.1 0 0 0-.1-.1-.1 0 0 0-.1-.1-.1 0 0 0-.1-.1-.1 0 0 0-.1-.1-.1-.1 0 0-.1 0-.1 0 0 0-.1-.1-.1 0 0 0zm0-.1zm-.3.1zM68.8 59.1zm0 .1c0-.1-.1 0 0 0z"/><path class="st4" d="M68.8 59.2c0-.1-.1 0 0 0 0 0-.1 0 0 0zm-.1 0z"/><path class="st4" d="M68.7 59.3c0-.1 0 0 0 0s0-.1 0 0c0-.1 0-.1 0 0 0-.1 0-.1 0 0 0 0 0-.1 0 0 0-.1 0-.1 0 0 0-.1 0-.1 0 0 0-.1 0-.1 0 0 0-.2 0-.1 0 0l.1-.1c-.1-.1-.1 0-.1.1 0-.1 0-.1 0 0 0-.1 0-.1 0 0 0-.1 0-.1 0 0 0-.2 0-.2 0 0-.1-.1-.1-.1 0 0-.1-.1-.1-.1 0 0-.1-.1-.1-.1 0 0-.1-.1-.1 0-.1 0s0 .1 0 0 0 .1 0 0c0 0 0 .1 0 0 0 0 0-.1 0 0 0 0 0 .1 0 0 0 0 0 .1 0 0v-.1.2s0-.1 0 0v.1c0 .1 0-.1 0 0 0-.1 0 0 0 0v.1c0-.1 0 0 0 0v-.1s0-.1 0 0c0-.2 0-.2.1-.2-.1-.1-.1 0 0 0-.1-.1-.1 0 0 0-.1 0-.1 0 0 0-.1-.1-.1 0 0 0-.1-.1-.1 0 0 0 0-.1-.1 0 0 0-.1-.1 0-.1 0 0-.1 0 0 0 0 0 0-.1 0 0 0 0zm0-.1zm-.3.1z"/></g><g><path class="st4" d="M74.5 32.8h.1zm.2.1c.1 0 .1 0 0 0l-.2-.1c0 .1.3.1.2.1zm0 .1c0 .1.1.1 0 0 .1.1.1-.1 0 0zm.6 5.8zm.5 1.4c-.1-.3 0-.6-.1-.9 0-.8-.2-1.4-.3-2.2l-.1-.1c.1-.2-.1-.5 0-.6 0 0-.1-.1-.1 0 0-.3 0-.6-.1-.9-.1-.3-.2-.6-.2-.9h.1c-.2-.5-.2-1.1-.3-1.5-.1 0 0 .1-.1 0 0 .2.2.3.1.4 0 .1.1 0 .1.1h-.1c0 .2 0 .5.2.7-.1.1 0 .3-.1.4 0 .1 0 .1.1.1.1.8.2 1.6.2 2.5.2.4 0 .9.2 1.4.1.1.1.4.1.6l.1.1c-.1 1.1.3 2.2.3 3.4.1 1.3.1 2.4.4 3.6.1.4 0 .7.1 1 .2.8.1 1.8.4 2.6.1 1 .2 2.1.4 3.1.2.8 0 1.7.2 2.5 0 .9.4 1.7.3 2.6-.1.3 0 .6.1.9 0 .2.1.3.1.5s0 .3-.1.4c-1-.2-2 0-3.1.2-1-.1-1.9.2-2.8 0-.4.2-.9-.1-1.4-.1-.2-.1-.4.2-.5 0-.1-.1-.2.3-.3.1v.1c-.1 0 0-.1-.1-.1 0 0 0 .1-.1.1 0-.2-.3.1-.3-.2.1 0-.1-.1 0-.1 0 0-.2 0-.2.1s-.1.2 0 .3v-.1.1c.1 0 .2.1.3.2.1-.1.2 0 .2 0 0 .1.2-.2.1 0 .3 0 .7-.1 1-.1 0-.1.3 0 .2-.1.1.1.3.2.4.2.2.2.2-.2.4 0 0-.2.3 0 .4-.1v.1h.9c.2-.1.5 0 .7-.1.2 0 .4.1.6 0 .2 0 .6 0 .7-.2.1.2.2.1.3.2.2-.1.5-.1.8-.2 0 .1.2 0 .2.1.2-.1.4-.1.5-.1h.7c.3 0 .4-.5.4-.7 0-.2 0-.4.1-.6l-.3-.3c0-.1.1-.3 0-.4-.1-.1.1-.3 0-.4l-.1-.1s.1 0 .1.1c0-1.2-.4-2.4-.4-3.6l.3-.3c0-.3-.1-.6-.1-.9h.1c-.1-.2.1-.4-.1-.4h.1c-.1-.6-.2-1.2-.2-1.8-.2-.5-.1-1.1-.3-1.6-.2-.7-.1-1.4-.2-2.1 0-.3-.1-.5-.1-.8-.2-.5.1-1.1-.2-1.6h.1c-.1-.1 0-.3-.2-.3v-.1c-.3-.3 0-.7-.2-1.1 0-.1-.1-.2-.1-.3.1-.4-.1-.8-.2-1.1h.1c-.1-.2-.1-.5-.2-.7l-.1-.1h.1c.3-.3.1-.5.1-.9zm-.4-3.1zm-6.1 23.5z"/></g><g><path class="st4" d="M69.6 58.8zm0 .1c0-.1 0 0 0 0zm0 0zm-.1 0zm0 .1s0-.1 0 0c.1 0 .1-.1 0 0 .1 0 .1-.1 0 0v-.1c.1 0 .1 0 0 .1 0-.1.1-.1.1-.1-.1.1-.1 0-.1.1 0-.1 0-.1 0 0 0-.1 0-.1 0 0 0-.1 0-.2 0 0 0-.1 0-.1 0 0 0-.1 0-.1 0 0 0 0-.1-.1 0 0h-.1s0 .1 0 0 0 .1 0 0c0 0 0 .1 0 0 0 0 0-.1 0 0 0 0 0 .1 0 0 0 0 0 .1 0 0v-.1.2s0-.1 0 0v.1c0 .1 0-.1 0 0 0-.1 0 0 0 0v.1c0-.1 0-.1 0 0v-.1s0-.1 0 0c0-.2 0-.1.1-.2-.1 0-.1 0 0 0-.1 0-.1 0 0 0 0-.1 0 .1 0 0zm0 0zm-.2.1zm1.4-.2v-.1.1zm0 0c0-.1 0 0 0 0zm0 0zm0 0zm-.1.1c.1 0 .1 0 0 0 .1 0 .1 0 0 0 .1 0 .1 0 0 0 .1 0 .1 0 0 0 .1 0 .1 0 0 0 .1-.1.1-.1 0 0 .1-.1.1-.1 0 0 .1-.1.1-.1 0 0l.1-.1-.1.1c.1 0 .1-.1 0 0 .1-.1.1-.1 0 0 0-.1 0-.1 0 0 0-.1 0-.2 0 0 0-.1 0-.1 0 0 0-.1 0-.1 0 0 0 0 0-.1 0 0h-.1s0 .1 0 0 0 .1 0 0c0 0 0 .1 0 0 0 0 0-.1 0 0 0 0 0 .1 0 0 0 0 0 .1 0 0v-.1.2s0-.1 0 0v.1c0 .1 0-.1 0 0 0-.1 0 0 0 0v.1c0-.1 0 0 0 0v-.1s0-.1 0 0c0-.2 0-.2.1-.2 0 0 0 .1 0 0s0 .1 0 0c0 .1 0 0 0 0zm.1 0zm-.3.1zM71.8 58.9zm0 0s0 .1 0 0zm0 0s0 .1 0 0zm0 0zm0 .1s0 .1 0 0c0 .1 0 0 0 0v-.1.1c0-.1 0-.1 0 0l.1-.1c-.1 0-.1 0-.1.1 0 0 0-.1 0 0 0-.1 0 0 0 0-.1-.1-.1-.1 0 0-.1 0-.1 0 0 0-.1 0-.1-.1 0 0-.1 0-.1-.1 0 0h-.1s0 .1 0 0 0 .1 0 0c0 0 0 .1 0 0 0 0 0-.1 0 0 0 0 0 .1 0 0 0 0 0 .1 0 0v-.1.2s0-.1 0 0v.1c0 .1 0-.1 0 0 0-.1 0 0 0 0v.1c0-.1 0 0 0 0v-.1s0-.1 0 0c0-.1 0-.1.1-.2-.1 0-.1.1 0 0-.1 0-.1.1 0 0-.1.1-.1 0 0 0-.1 0-.1.1 0 0-.1 0-.1.1 0 0-.1 0-.1.1 0 0-.1 0-.1 0 0 0-.1.1 0 0 0 0s0 .1 0 0zm0 0zm-.3.1zM72.9 58.8zm0 .1c0-.1.1 0 0 0zm0 0c0-.1 0 0 0 0zm0 0z"/><path class="st4" d="M72.9 59c0-.1 0-.1 0 0 0-.1 0-.1 0 0 0 0 0-.1 0 0 0-.1 0-.1 0 0v-.1.1c0-.1.1-.1.1-.1-.1 0-.1 0-.1.1 0-.1 0-.1 0 0 0-.1 0-.1 0 0 0-.1-.1-.2 0 0-.1-.1-.1-.1 0 0-.1-.1-.1-.1 0 0-.1-.1-.1-.1 0 0h-.1s0 .1 0 0 0 .1 0 0c0 0 0 .1 0 0 0 0 0-.1 0 0 0 0 0 .1 0 0 0 0 0 .1 0 0v-.1.2s0-.1 0 0v.1c0 .1 0-.1 0 0 0-.1 0 0 0 0v.1c0-.1 0-.1 0 0v-.1s0-.1 0 0c0-.2 0-.2.1-.2-.1 0-.1 0 0 0-.1-.1-.1 0 0 0-.1 0-.1 0 0 0-.1-.1 0 0 0 0 0-.1 0 0 0 0s0-.1 0 0zm0-.1zm-.2.2zM74.1 58.8zm0 0c0-.1 0 0 0 0zm0 0zm-.1 0zm0 .1v-.1c.1 0 .1 0 0 .1 0-.1 0-.1.1-.1-.1.1-.1 0-.1.1 0-.1 0-.1 0 0 0-.1 0-.1 0 0 0-.1 0-.1 0 0 0-.1 0-.1 0 0 0 0 0-.1 0 0-.1 0-.1-.1 0 0h-.1s0 .1 0 0 0 .1 0 0c0 0 0 .1 0 0 0 0 0-.1 0 0 0 0 0 .1 0 0 0 0 0 .1 0 0v-.1.2s0-.1 0 0v.1c0 .1 0-.1 0 0 0-.1 0 0 0 0v.1c0-.1 0-.1 0 0v-.1s0-.1 0 0c0-.1 0-.1.1-.2-.1 0-.1.1 0 0-.1 0 0 0 0 0s0 .1 0 0c0 0 0 .1 0 0s0 .1 0 0c0 .1 0 0 0 0zm0 0zm-.2.1zM75.2 58.7zm0 0c0-.1 0 0 0 0zm0 0zm-.1 0zm0 .1s.1 0 0 0c.1 0 .1 0 0 0 .1 0 .1 0 0 0 .1 0 .1 0 0 0 .1 0 .1 0 0 0 .1 0 .1 0 0 0v-.1c.1 0 .1 0 0 .1 0-.1 0-.1.1-.1 0 .1-.1 0-.1.1 0-.1 0-.1 0 0 0-.1 0 0 0 0 0-.1 0 0 0 0 0-.1 0-.1 0 0 0 0 0-.1 0 0 0 0 0-.1 0 0H75s0 .1 0 0 0 .1 0 0c0 0 0 .1 0 0 0 0 0-.1 0 0 0 0 0 .1 0 0 0 0 0 .1 0 0v-.1.2s0-.1 0 0v.1c0 .1 0-.1 0 0 0-.1 0 0 0 0v.1c0-.1 0-.1 0 0V59s0-.1 0 0c0-.1 0-.1.1-.2-.1.1-.1.1 0 0-.1 0 0 .1 0 0 0 0 0 .1 0 0 0 0 0 .1 0 0s0 .1 0 0c0 .1 0 0 0 0 0 .1 0 0 0 0zm.1 0zm-.3.1zM76.3 58.6zm0 0s0 .1 0 0zm0 0s0 .1 0 0zm0 0zm0 .1s0 .1 0 0c0 .1 0 0 0 0v-.1.1c0-.1 0-.1.1-.1-.1.1-.1 0-.1.1-.1-.1-.1 0 0 0-.1-.1-.1-.1 0 0-.1 0-.1 0 0 0-.1 0-.1 0 0 0-.1 0-.1 0 0 0h-.1s0 .1 0 0 0 .1 0 0c0 0 0 .1 0 0 0 0 0-.1 0 0 0 0 0 .1 0 0 0 0 0 .1 0 0v-.1.2s0-.1 0 0v.1c0 .1 0-.1 0 0 0-.1 0 0 0 0v.1c0-.1 0-.1 0 0v-.1s0-.1 0 0c0-.1 0-.1.1-.2-.1 0-.1.1 0 0-.1 0-.1.1 0 0-.1.1-.1 0 0 0-.1 0-.1.1 0 0-.1 0-.1.1 0 0-.1 0-.1.1 0 0-.1 0-.1 0 0 0-.1.1-.1 0 0 0-.1 0-.1.1 0 0zm0 0zm-.3.2z"/><g><path class="st4" d="M77.4 58.5v.1zm0 .1c0-.1 0 0 0 0zm0 0zm0 0zm0 .1s0-.1 0 0c0 0 0-.1 0 0v-.1.1l.1-.1c-.1 0-.1 0-.1.1 0 0 0-.1 0 0 0-.1 0-.1 0 0 0-.1 0-.1 0 0-.1-.1-.1-.2 0 0-.1-.1-.1-.1 0 0-.1-.1-.1-.1 0 0-.1 0-.1-.1 0 0h-.1s0 .1 0 0 0 .1 0 0c0 0 0 .1 0 0 0 0 0-.1 0 0 0 0 0 .1 0 0 0 0 0 .1 0 0v-.1.2s0-.1 0 0v.1c0 .1 0-.1 0 0 0-.1 0 0 0 0v.1c0-.1 0 0 0 0v-.1s0-.1 0 0c0-.2 0-.2.1-.2-.1 0-.1 0 0 0-.1 0-.1 0 0 0-.1 0-.1 0 0 0-.1-.1-.1.1 0 0-.1 0-.1 0 0 0-.1-.1-.1 0 0 0zm0 0zm-.3.1z"/></g></g><g><path class="st4" d="M79.2 31.7v.1zm.2.3l-.2-.1c-.1 0 .2 0 .2.1zm0 0c0 .1 0 .1 0 0 0 .1.1 0 0 0zm1.4 5.6zm.6 1.4c-.1-.2-.1-.6-.2-.9-.1-.7-.3-1.4-.6-2.1l-.1-.1c.1-.2-.2-.4-.1-.5h-.1c-.2-.6-.3-1.1-.6-1.7h.1c-.3-.5-.3-1-.4-1.5-.1 0 0 .1-.1 0 0 .2.2.3.1.4 0 .1.1 0 .1.1s-.1 0-.1 0c.1.2.1.5.2.7-.1.1.1.3 0 .4l.1.1c.2.8.5 1.6.7 2.4.3.3.2.8.3 1.3.1.1.1.4.2.5l.1.1c.1 1.1.5 2.2.7 3.3.3 1.2.4 2.3.9 3.5.1.3.1.7.2 1 .3.8.3 1.7.7 2.4.2 1 .4 2 .7 3 .3.8.3 1.6.6 2.4.1.4.3.8.4 1.2.1.4.3.8.4 1.2 0 .3.2.5.3.8.1.3.2.6 0 .8-.2.2-.5.1-.7.2-.2.1-.5.1-.7.2-.5.2-.9.4-1.4.6-.9.1-1.8.5-2.7.5-.4.2-.9 0-1.4 0-.2-.1-.4.2-.5 0-.1-.1-.2.3-.3.2v.1c-.1 0 0-.1-.1-.1 0 0 0 .1-.1.1 0-.2-.3.1-.3-.2.1 0-.1-.1 0-.2 0 0-.2 0-.2.1s-.1.2 0 .3v-.1c0 .1 0 0 .1.1.1 0 .2.1.3.2.1-.1.2-.1.2 0s.2-.2.1 0c.3-.1.6-.1 1-.1 0-.1.3 0 .2-.1.1.1.4.1.4.1.2.1.2-.2.4 0 0-.2.3 0 .4-.2v.1c.3 0 .6-.1.9-.1.2-.2.5 0 .7-.3.2 0 .4 0 .6-.1.2 0 .5-.2.7-.3.1.2.2.1.3.1.1-.1.5-.2.7-.3.1.1.2-.1.2 0 .2-.1.3-.2.5-.3.1 0 .2-.1.3-.1.1 0 .2-.1.3-.2.1-.1.2-.2.2-.4v-1c-.1-.1-.3-.1-.4-.2-.1-.1 0-.3-.1-.4-.1-.1 0-.3-.1-.4l-.1-.1h.1c-.1-.5-.3-1.1-.5-1.7-.2-.6-.5-1.1-.6-1.7l-.1-.2c0-.3-.2-.6-.2-.8h.1c-.1-.2.1-.4-.2-.4h.1c-.2-.6-.3-1.2-.4-1.8-.3-.4-.2-1-.5-1.5-.3-.6-.3-1.4-.5-2-.1-.3-.1-.5-.2-.7-.3-.4-.1-1-.4-1.5h.1c-.1-.1 0-.3-.2-.2v-.1c-.3-.3 0-.6-.3-1-.1-.1-.1-.2-.1-.3.1-.4-.2-.7-.3-1.1h.1c-.1-.2-.1-.5-.2-.7l-.1-.1h.1c.5-.2.4-.4.3-.7zm-.8-3zm-2.5 24c-.1 0-.1 0 0 0z"/></g><g><path class="st4" d="M77.6 58.3zm0 0c0-.1 0 0 0 0zm0 0zm0 0zm0 .1s0 .1 0 0c0 .1 0 0 0 0v-.1.1c0-.1 0 0 0 0-.1-.1-.1-.1 0 0-.1 0-.1 0 0 0-.1 0-.1 0 0 0-.1 0-.1 0 0 0h-.1s0 .1 0 0 0 .1 0 0c0 0 0 .1 0 0 0 0 0-.1 0 0 0 0 0 .1 0 0 0 0 0 .1 0 0v-.1.2s0-.1 0 0v.1c0 .1 0-.1 0 0v.1c0-.1 0-.1 0 0v-.2l.1-.1-.1.1.1-.1c-.1.1-.1.1 0 0-.1.1-.1.2 0 0-.1.1-.1.1 0 0-.1.1-.1.1 0 0-.1.1-.1.1 0 0-.1 0-.1.1 0 0-.1.1-.1 0 0 0-.1 0 0 .1 0 0-.1 0 0 .1 0 0-.1 0 0 .1 0 0 0 .1 0 0 0 0s0 .1 0 0zm0 0zm-.2.2zm1.3-.5v.1zm0 .1c0-.1.1 0 0 0zm0 0zm0 0z"/><path class="st4" d="M78.7 58.3s0-.1 0 0c0 0 0-.1 0 0v-.1.1c0-.1 0-.1.1-.1-.1.1-.1 0-.1.1 0-.1 0-.1 0 0 0-.1 0-.1 0 0 0-.1-.1-.2 0 0-.1-.1-.1-.1 0 0-.1-.1-.1-.1 0 0-.1 0-.1-.1 0 0h-.1s0 .1 0 0 0 .1 0 0c0 0 0 .1 0 0 0 0 0-.1 0 0 0 0 0 .1 0 0 0 0 0 .1 0 0v-.1.2s0-.1 0 0v.1c0 .1 0-.1 0 0 0-.1 0 0 0 0v.1c0-.1 0-.1 0 0v-.1s0-.1 0 0c0-.2 0-.1.1-.2-.1.1-.1.1 0 0-.1 0-.1.1 0 0-.1 0-.1 0 0 0-.1 0-.1 0 0 0-.1-.1 0 .1 0 0zm0 0zm-.2.1zM79.9 58zm0 .1c0-.1 0 0 0 0zm0 0c0-.1 0 0 0 0zm-.1 0zm0 .1c0-.1 0-.1 0 0 0-.1 0-.1 0 0 0 0 0-.1 0 0 0-.1 0-.1 0 0v-.1.1c0-.1 0-.1 0 0 0-.1 0-.1 0 0 0-.1 0-.2 0 0 0-.1 0-.1 0 0-.1-.1-.1-.1 0 0-.1-.1-.1-.1 0 0h-.1s0 .1 0 0 0 .1 0 0c0 0 0 .1 0 0 0 0 0-.1 0 0 0 0 0 .1 0 0 0 0 0 .1 0 0v-.1.2s0-.1 0 0v.1c0 .1 0-.1 0 0 0-.1 0 0 0 0v.1c0-.1 0-.1 0 0v-.1s0-.1 0 0c0-.2 0-.1.1-.2-.1 0-.1.1 0 0-.1 0-.1.1 0 0-.1 0-.1 0 0 0-.1 0-.1 0 0 0-.1-.1 0 0 0 0 0-.1 0 0 0 0 0-.1 0 0 0 0s0-.1 0 0zm0-.1zm-.2.2zM80.9 57.8h.1zm.1 0c-.1 0 0 .1 0 0zm0 0s0 .1 0 0zm-.1.1zm0 0s0 .1 0 0c0 .1 0 0 0 0 0 .1 0 0 0 0v-.1.1c0-.1 0 0 0 0 0-.1-.1-.1 0 0-.1 0-.1 0 0 0-.1 0-.1 0 0 0-.1 0-.1 0 0 0h-.1s0 .1 0 0 0 .1 0 0c0 0 0 .1 0 0 0 0 0-.1 0 0 0 0 0 .1 0 0 0 0 0 .1 0 0v-.1.2s0-.1 0 0v.1c0 .1 0-.1 0 0v.1c0-.1 0-.1 0 0V58l.1-.1c-.1.1-.1.1 0 0-.1.1-.1.2 0 0-.1.1-.1.1 0 0-.1.1-.1.1 0 0-.1.1-.1.1 0 0-.1 0 0 .1 0 0 0 .1 0 .1 0 0 0 0 0 .1 0 0 0 0 0 .1 0 0 0 0 0 .1 0 0 0 .1 0 0 0 0s0 .1 0 0zm0 0zm-.2.2zM82 57.6h.1zm.1 0c-.1-.1 0 0 0 0zm0 0zm-.1 0zm0 .1s0 .1 0 0c0 .1 0 0 0 0v-.1.1c0-.1 0 0 0 0 0-.1-.1-.1 0 0 0 0-.1 0 0 0-.1 0-.1 0 0 0-.1 0-.1 0 0 0h-.1s0 .1 0 0 0 .1 0 0c0 0 0 .1 0 0 0 0 0-.1 0 0 0 0 0 .1 0 0 0 0 0 .1 0 0v-.1.2s0-.1 0 0v.1c0 .1 0-.1 0 0v.1c0-.1 0-.1 0 0v-.2l.1-.1c-.1.1-.1.1 0 0-.1.1-.1.2 0 0-.1.1-.1.1 0 0-.1.1-.1.1 0 0-.1 0 0 .1 0 0-.1 0 0 .1 0 0 0 .1 0 0 0 0s0 .1 0 0c0 0 0 .1 0 0 0 0 0 .1 0 0 0 .1 0 0 0 0s0 .1 0 0zm0 0zm-.2.2zM83.1 57.3zm.1.1c-.1-.1 0 0 0 0zm-.1 0c0-.1.1 0 0 0 0 0 .1 0 0 0zm0 0zm0 .1c0-.1 0 0 0 0s0-.1 0 0c0-.1 0-.1 0 0 0 0 0-.1 0 0 0 0 0-.1 0 0v-.1.1c0-.1 0-.1 0 0 0-.1 0-.1 0 0 0-.1 0-.1 0 0 0-.1-.1-.2 0 0-.1-.1-.1-.1 0 0-.1-.1-.1-.1 0 0-.1 0-.1-.1 0 0H83s0 .1 0 0 0 .1 0 0c0 0 0 .1 0 0 0 0 0-.1 0 0 0 0 0 .1 0 0 0 0 0 .1 0 0v-.1.2s0-.1 0 0v.1c0 .1 0-.1 0 0v.1c0-.1 0-.1 0 0v-.2s0-.1.1-.1c-.1.1-.1.1 0 0-.1 0-.1.1 0 0-.1.1-.1.1 0 0-.1.1-.1.1 0 0-.1 0-.1.1 0 0-.1 0 0 0 0 0 0-.1 0 .1 0 0zm0 0zm-.2.1zM84.2 57.1zm.1 0c-.1-.1 0 .1 0 0zm-.1 0s.1 0 0 0c0 0 .1.1 0 0zm0 0zm0 .1s0 .1 0 0c0 .1 0 0 0 0v-.1.1c0-.1 0 0 0 0 0-.1-.1-.1 0 0-.1 0-.1 0 0 0-.1 0-.1 0 0 0-.1 0-.1 0 0 0h-.1s0 .1 0 0 0 .1 0 0c0 0 0 .1 0 0 0 0 0-.1 0 0 0 0 0 .1 0 0 0 0 0 .1 0 0v-.1.2s0-.1 0 0v.1c0 .1 0-.1 0 0v.1c0-.1 0-.1 0 0v-.2l.1-.1c-.1.1-.1.1 0 0-.1.1-.1.2 0 0-.1.1-.1.1 0 0-.1.1-.1.1 0 0-.1.1-.1.1 0 0-.1 0 0 .1 0 0 0 .1 0 .1 0 0 0 0 0 .1 0 0 0 0 0 .1 0 0 0 0 0 .1 0 0 0 .1 0 0 0 0s0 .1 0 0zm0 0zm-.2.2zM85.4 56.9zm0 0c0-.1 0 0 0 0zm0 0zm-.1 0zm0 .1s0 .1 0 0c0 .1 0 0 0 0v-.1.1c0-.1 0 0 0 0 0-.1-.1-.1 0 0-.1 0-.1 0 0 0-.1 0-.1 0 0 0h-.1s0 .1 0 0 0 .1 0 0c0 0 0 .1 0 0 0 0 0-.1 0 0 0 0 0 .1 0 0 0 0 0 .1 0 0v-.1.2s0-.1 0 0v.1c0 .1 0-.1 0 0 0-.1 0 0 0 0v.1c0-.1 0-.1 0 0v-.1s0-.1 0 0c0-.1 0-.1.1-.2-.1.1-.1.2 0 0-.1.1-.1.1 0 0-.1.1-.1.1 0 0-.1 0-.1.1 0 0-.1 0 0 .1 0 0 0 .1 0 0 0 0s0 .1 0 0c0 0 0 .1 0 0 0 0 0 .1 0 0 0 .1 0 0 0 0s0 .1 0 0zm0 0zm-.2.2z"/></g></g></svg>