<svg id="Layer_1" xmlns="http://www.w3.org/2000/svg" viewBox="0 0 128 128"><style>.st0{fill:#FFF}.st1{fill:#bcbdbe}.st2{fill:#666}.st3{fill:none;stroke:#d5d5d5;stroke-width:.3727;stroke-linecap:round;stroke-linejoin:round}.st4{fill:gray}.st5{fill:none;stroke:#676767;stroke-width:.213;stroke-miterlimit:10;stroke-dasharray:.5324,.5324}.st6{fill:none;stroke:#f3df69;stroke-width:.1857;stroke-linecap:round;stroke-linejoin:round}.st7{fill:#6c6c6c}</style><ellipse class="st0" cx="64" cy="64" rx="62.4" ry="64"/><path class="st1" d="M123.1 69.2h.1-.1zM122.9 69.2c-.1 0-.1 0 0 0h0zM122.9 69.2h-.1c.1-.1-.1-.1.1 0zM122.9 68.3zM122.3 68.1h-.1c.2.1 0 .1.1.1-.1.1.2.2.3.3h-.1 0c-.2 0 .1.1 0 .1h.2c.1.1.1.2.3.3h-.2c.4.1.2.2.1.2h.2c.1 0-.2-.1-.1-.1h.1s0-.1-.2-.1h.2-.2c.1-.1-.1-.2-.1-.4-.4-.1.1-.1 0-.2-.1 0-.1-.1-.1-.1h-.2c.3-.1.1-.3.3-.5.1-.2.4-.3-.1-.5h.1c-.1-.1.1-.1 0-.1-.3-.1.1-.2-.3-.4 0-.1 0-.3-.1-.5h.1c-.2-.1.3-.2.1-.3.2-.1-.4-.3-.2-.4.4-.1-.4-.2 0-.2.6-.1.2-.3-.1-.4.2-.1-.3-.3.1-.4-.3-.1.3-.1.3-.2h-.1c.3 0-.4-.1 0-.1H122.3 122.9h-.6.2-.2-.4c.2 0 .1 0 0 0h-.1c-.2 0 .4 0 0 0 .1 0 .1.1.1.1h.2c-.3 0-.3 0-.3.1 0 0-.1 0 0 0-.3 0 .3 0-.1.1.3 0-.1 0 .3.1h-.2l-.1.1c.3 0-.1.1.2.1-.1 0-.2.1-.1.1 0 0 0 .1.3.1h-.4c.2 0 .1.1.3.1h-.2c.4.1.3.2-.1.3.1 0 .4 0 .6.1h-.1s-.2 0-.1.1h-.1c.1 0-.2 0 0 .1h-.1.1-.2c-.1.2.3.3.2.5h-.1 0c-.1 0 .1.1 0 .1h-.2c.2 0-.3 0 .2.1h-.2c.1.1.1.2.1.3.4.1 0 .2.3.2h-.1c.3.1 0 .2 0 .3l.1.1h-.1c.4.1-.3.1.1.2h-.1c.2 0-.1 0 .3.1h-.1c.5.1-.2.1.1.2h-.1c.1 0 .1 0 0 0h-.1c-.3 0 0 .1 0 .2h-.2c.2 0 0 .1.1.1h-.1.1-.1c.3-.1.4-.1.4 0zM122.4 68.5zM121.9 64.1zM120.9 81.1h-.1zM120.6 81l.3.1c.2 0-.4-.1-.3-.1zM120.7 81c.1 0-.1 0-.1-.1.1.1-.1.1.1.1zM120.8 80.2z"/><path class="st1" d="M120.3 79.8h-.1c.2.1 0 .1.1.2-.1.1.1.2.2.4h-.1 0c-.2 0 .1.1 0 .1 0 0 .1 0 .2.1 0 .1.1.2.2.3h-.2c.3.2.2.2.1.3.1 0 .1 0 .2.1.1 0-.2-.1 0-.1h.1c.1 0-.2-.1-.1-.1h.1s.1-.1-.1-.1h.2c-.1 0-.1 0-.2-.1.1-.1 0-.3 0-.4-.4-.2.1-.1 0-.2-.1 0-.1-.1-.1-.1l-.1-.1c.4-.1.2-.3.3-.4.1-.2.4-.2 0-.5h.1c-.1-.1.1-.1 0-.1-.3-.2.1-.2-.2-.4.1-.1.1-.3 0-.5h.1c-.1-.2.3-.2.2-.3.2-.1-.4-.3-.1-.4.4 0-.4-.3 0-.2.6 0 .3-.2 0-.5.2-.1-.3-.3.2-.4-.2-.1.4-.1.3-.1h-.1c.3 0-.4-.1 0-.1.2 0-.5-.1-.2-.1h-.1.1c.4.1-.1-.1.4 0 0 0 .2 0 .3.1.1 0 0 0-.2-.1-.2 0-.4-.1-.6-.1h.2-.2-.4c.2 0 .1 0 0 0h-.1c-.2 0 .4.1 0 0 .1.1.1.1 0 .2.1 0 0 0 .2.1h-.3s-.1 0 0 0c-.3 0 .3.1-.1 0 .3.1-.1 0 .2.1h-.2s-.1.1-.2.1c.2.1-.1 0 .2.1-.1 0-.2 0-.1.1 0 0 0 .1.2.2-.3-.1-.3 0-.4 0 .2.1.1.1.2.2h-.2c.4.2.2.3-.1.3.1 0 .4.1.5.2h-.1-.2-.1c.1 0-.2 0 0 .1h-.1.1-.2c-.1.1.2.4.1.6h-.1l.1.1h-.1c-.1 0 .1.1 0 .1h-.1c.2.1-.3 0 .1.1h-.1c.1.1.1.2 0 .3.4.2 0 .2.3.3h-.1c.2.2-.1.2 0 .3v.1h-.1c.3.2-.4.1 0 .2h-.1c.2.1-.1 0 .3.1h-.1c.4.2-.2 0 0 .2h-.1c.1 0 .1.1 0 .1h-.1c-.3 0 0 .1 0 .2h-.1c.2.1 0 .1.1.1h-.1.1-.1c.4-.8.5-.7.5-.7zM120.4 80.3c-.1 0-.1 0 0 0zM120.7 75.8zM116.3 92.3h-.1zM116 92.1l.2.2c.3.1-.3-.2-.2-.2zM116.1 92.1c.1 0-.1-.1-.1-.1.1.1-.1.1.1.1zM116.4 91.4z"/><path class="st1" d="M116 90.9l-.1-.1c.1.2-.1.1.1.1l-.1.1c-.1.1.1.3.1.4h-.1l.1.1h-.1c-.2-.1.1.1-.1.1 0 0 .1.1.2.1 0 .1 0 .2.1.4 0 0-.1 0-.1-.1.3.2.1.2 0 .3.1 0 .1 0 .2.1.1 0-.2-.1 0-.1h.1c.1 0-.2-.1-.1-.1s.1.1.1.1.1 0-.1-.2c.2.1 0 0 .2 0-.1 0 0 0-.2-.1.1-.1 0-.3.1-.4-.3-.2.1-.1 0-.2s-.1-.1 0-.1l-.1-.1c.4 0 .2-.2.4-.3.2-.1.5-.1.1-.5h.1c0-.1.1-.1 0-.1-.2-.2.1-.2-.1-.5.1-.1.1-.3.1-.4h.1c-.1-.2.3-.1.3-.3.2 0-.3-.4 0-.4.4.1-.3-.3.1-.2.6.1.3-.2.1-.4.2 0-.2-.4.3-.3-.2-.2.4 0 .3-.1h-.1c.3.1-.3-.2.1-.1.2.1-.5-.2-.2-.1h-.1s.1 0 .2.1c0 0-.2-.1-.1-.1.4.2-.1-.1.4.1 0 0 .2.1.3.1l-.2-.1c-.2-.1-.4-.2-.5-.2l.1.1c-.1-.1-.1 0-.2-.1 0 0-.2-.1-.3-.1.2.1.1.1 0 0h-.1c-.2-.1.3.2 0 0 .1.1 0 .1 0 .2.1.1 0 0 .2.1-.2-.1-.3-.1-.3-.1-.3-.1.3.2-.1 0 .3.1-.1 0 .2.2-.1 0-.1 0-.2-.1 0 0-.1 0-.2.1.2.1-.1 0 .2.2h-.1s0 .1.2.2c-.3-.1-.3-.1-.4-.1l.2.2c-.1-.1 0 .1-.2 0 .4.3.2.3-.2.3.1.1.4.2.5.3h-.1-.2-.1c.1.1-.2 0 0 .1h-.1.1c-.1 0-.2-.1-.1-.1-.1.1.1.4 0 .6h-.1l.1.1h-.1c-.1 0 0 .1 0 .1l-.1-.1c.2.1-.3-.1.1.1l-.1-.1c.1.1 0 .2-.1.3.3.2 0 .2.2.4h-.1c.2.2-.1.2-.1.3v.1h-.1c.3.2-.4 0 0 .2l-.1-.1c.2.1-.1 0 .2.2h-.1c.4.3-.2 0 0 .2h-.1c.1 0 .1.1 0 .1h-.1c-.3-.1 0 .1-.1.2l-.1-.1c.2.1 0 .1 0 .1h-.1l.1.1-.1-.1c.2-.6.3-.5.3-.5zM115.9 91.4zM117.1 87.1c.1 0 .1 0 0 0 0 0 .1 0 0 0zM109.5 102.3v.1l-.1-.1zM109.3 102.1l.2.2c.2.1-.3-.3-.2-.2z"/><path class="st1" d="M109.3 102.1c.1 0-.1-.1-.1-.1l.1.1zM109.8 101.4z"/><path class="st1" d="M109.5 100.9l-.1-.1c.2.2-.1.1 0 .2-.1.1 0 .3 0 .4h-.1l.1.1-.1-.1c-.2-.1.1.1-.1 0l.1.1c0 .1 0 .2.1.4l-.1-.1c.2.3.1.3 0 .3.1.1.1.1.2.1.1.1-.2-.2 0-.1l.1.1c.1 0-.2-.1-.1-.1s.1.1.1.1c0-.1.1 0-.1-.2l.2.1c-.1-.1 0-.1-.1-.1.2 0 .1-.2.2-.3-.3-.3.1-.1.1-.2-.1-.1-.1-.1 0-.1l-.1-.1c.4.1.3-.2.5-.2.2-.1.5 0 .2-.5h.1c0-.1.1 0 .1-.1-.2-.3.2-.2 0-.5.1-.1.2-.2.2-.4h.1c-.1-.2.3 0 .3-.2.2 0-.2-.5.1-.4.3.2-.2-.4.1-.2.6.2.3-.1.1-.4.3 0-.1-.4.3-.3-.2-.2.4.1.3 0l-.2-.1c.2.1-.3-.3.1 0 .2.1-.4-.3-.2-.2l-.1-.1.1.1s-.2-.1-.1-.1c.4.2-.1-.1.3.2 0 0 .2.1.2.2l-.1-.1c-.2-.1-.3-.2-.5-.3l.1.1c-.1-.1-.1 0-.2-.1 0 0-.2-.1-.3-.2.2.1 0 .1 0 .1h-.1c-.2-.1.3.2 0 0v.2c.1.1 0 0 .2.1-.2-.1-.3-.2-.3-.1-.3-.2.2.2-.1 0 .2.2-.1 0 .2.2-.1 0-.1-.1-.1-.1h-.2c.2.2-.1 0 .1.2-.1 0-.2-.1-.1 0 0 0 0 .1.2.2-.3-.2-.2-.1-.3-.2.1.1 0 .1.1.2-.1-.1 0 .1-.2-.1.3.3.1.3-.2.2l.4.4s-.2-.1-.1 0h-.1c.1.1-.2-.1 0 0h-.1l.1.1c-.1 0-.2-.1-.1-.1-.2.1.1.5-.1.6h-.1l.1.1h-.1c-.1 0 0 .1 0 .1l-.1-.1c.1.2-.2-.1.1.1l-.1-.1c.1.2 0 .2-.1.2.3.3-.1.1.1.4h-.1c.2.2-.1.1-.2.3v.1l-.1-.1c.3.3-.4-.1-.1.2l-.1-.1c.2.1-.1 0 .2.2l-.1-.1c.3.3-.2-.1 0 .2l-.1-.1c0 .1.1.1 0 .1-.3-.2 0 .1-.1.1l-.1-.1c.1.1 0 .1 0 .1h-.1.1v-.2c-.1 0 0 .1 0 .2zM109.3 101.3zM111.4 97.4zM100.9 110.8l-.1-.1zM100.7 110.5l.2.2c.1.2-.3-.3-.2-.2zM100.7 110.6c.1.1 0-.1-.1-.1.1 0 0-.1.1.1zM101.3 110z"/><path class="st1" d="M101.1 109.4l-.1-.1c.1.2-.1.1 0 .2-.1 0 0 .3-.1.4v-.1l.1.1v-.1c-.2-.2 0 .2-.1 0l.1.1c0 .1-.1.2 0 .4l-.1-.1c.2.3 0 .3-.1.3.1.1.1.1.1.2.1.1-.1-.2 0-.1l.1.1s-.1-.2-.1-.1l.1.1c0-.1.1 0 0-.2.1.1 0 0 .2.1 0-.1 0-.1-.1-.2.2 0 .1-.2.2-.3-.2-.3.1 0 .1-.2v-.1l-.1-.1c.3.2.3-.1.5-.1s.5.1.3-.4v.1c0-.1.1 0 .1-.1-.1-.3.2-.1.1-.5.1-.1.2-.2.3-.4l.1.1c0-.2.3 0 .3-.1.2 0-.1-.5.1-.4.3.2-.2-.4.2-.2.5.3.4 0 .2-.4.2.1 0-.4.4-.2-.1-.2.3.2.3.1l-.1-.1c.2.2-.2-.3.1 0 .2.1-.3-.4-.1-.2l-.1-.1.1.1-.1-.1c.3.3 0-.1.3.3l.2.2-.1-.2c-.1-.2-.3-.3-.4-.4l.1.1-.1-.1s-.2-.2-.3-.2c.1.1 0 .1 0 .1l-.1-.1c-.1-.1.2.3 0 0 0 .1 0 .1-.1.1.1.1 0 0 .1.2-.2-.2-.3-.2-.3-.2-.3-.2.2.3-.1 0 .2.2-.1 0 .1.2l-.1-.1h-.2c.2.2-.1 0 .1.2-.1 0-.2-.1-.1 0 0 0 0 .1.1.3l-.3-.3c.1.1 0 .1.1.3-.1-.1 0 .1-.1-.1.2.4 0 .4-.3.2.1.1.3.3.4.5 0 0-.2-.1-.1-.1v-.1c.1.1-.2-.1 0 0v.1l-.1-.1c-.2.1 0 .5-.2.5v-.1l.1.1v-.1c-.1-.1 0 .1-.1.1l-.1-.1c.1.2-.2-.2.1.2l-.1-.1c0 .2 0 .2-.2.2.2.3-.1.1.1.4l-.1-.1c.1.3-.2.1-.2.2-.1 0 0 .1 0 .1l-.1-.1c.2.3-.3-.2-.1.2l-.1-.1c.1.2-.1 0 .2.2l-.1-.1c.3.4-.2-.1-.1.2l-.1-.1v.1c-.3-.2-.1.1-.1.1l-.1-.1c.1.2 0 .1 0 .1v-.1l.1.1-.1-.1c-.3 0-.3.1-.3.2zM100.9 109.8zM103.7 106.3z"/><g><path class="st1" d="M90.7 117.3v.1-.1zM90.6 117.1s0-.1 0 0l.1.3c.1.1-.2-.4-.1-.3z"/><path class="st1" d="M90.6 117.1c0 .1 0-.1-.1-.1.1.1 0-.1.1.1zM91.3 116.6zM91.2 116l-.1-.1c.1.2-.1 0-.1.2-.1 0-.1.3-.1.4v-.1s.1.1 0 .1v-.1c-.1-.2 0 .2-.1 0 0 0 0 .1.1.2 0 .1-.1.2-.1.4 0 0 0-.1-.1-.1.1.4 0 .3-.1.3 0 .1.1.1.1.2.1.1-.1-.2 0-.1v.1s-.1-.2 0-.1c0 .1.1.1.1.1s.1 0 0-.2c.1.2 0 0 .1.1 0-.1 0-.1-.1-.2.2 0 .2-.2.3-.2-.1-.4.1 0 .1-.1v-.1l-.1-.2c.3.2.3-.1.5 0 .2 0 .5.2.4-.4v.1c0-.1.1 0 .1-.1 0-.3.2-.1.2-.4.1 0 .3-.1.3-.3v.1c0-.2.3.1.4-.1.2.1 0-.5.2-.4.3.3-.1-.5.2-.2.4.4.4 0 .3-.3.2.1.1-.4.4-.1-.1-.3.3.2.3.1l-.1-.1c.2.2-.2-.4.1 0l-.1-.2-.1-.1.1.1s-.1-.2-.1-.1c.2.4 0-.1.2.3l.1.2-.1-.2c-.1-.2-.2-.4-.3-.5l.1.1c-.1-.1 0-.1-.1-.2 0 0-.2-.2-.2-.3.1.2 0 .1 0 .1v-.1c-.1-.2.2.3 0 0 0 .1 0 .1-.1.1.1.1 0 0 .1.2-.2-.2-.2-.3-.2-.2-.2-.3.1.3-.1-.1.2.3-.1-.1.1.2 0-.1-.1-.1-.1-.2 0 0-.1-.1-.2 0 .1.2-.1-.1 0 .3-.1-.1-.2-.2-.1 0v.3c-.2-.3-.2-.2-.2-.3.1.1 0 .1 0 .3-.1-.1 0 .1-.1-.1.1.4 0 .4-.3.1.1.1.2.4.3.5v-.1l-.1-.1v-.1c0 .1-.1-.1-.1 0v-.1.1c0-.1-.1-.2-.1-.1-.2 0-.1.4-.3.5v-.1 0c-.1-.1 0 .1-.1.1 0 0 0-.1-.1-.1.1.2-.2-.2 0 .2l-.1-.1c0 .2-.1.2-.2.2.1.4-.1.1 0 .4v-.1c.1.3-.2.1-.2.2-.1 0 0 .1-.1.1v-.1c.1.4-.3-.2-.2.2l-.1-.1c.1.2-.1 0 .1.3l-.1-.1c.2.4-.2-.1-.1.2v-.1 0c-.2-.3-.1.1-.1.1l-.1-.1c.1.2-.1 0 0 .1v-.1.1l-.1-.1c.3 0 .4.2.3.2zM90.9 116.4zM94.4 113.6z"/></g><g><path class="st1" d="M79.4 121.7v.1-.2zM79.4 121.4v.3c.1.2-.1-.4 0-.3zM79.4 121.5v-.1.1zM80.2 121.1zM80.2 120.5v-.1c0 .2-.1 0-.1.1-.1 0-.1.2-.2.4v-.1 0c-.1-.2 0 .2-.1 0v.2c-.1.1-.1.1-.2.3v-.2c0 .4-.1.3-.2.2 0 .1 0 .1.1.2s0-.2 0-.1v.1c0 .1-.1-.2 0-.1v.1s.1 0 0-.2l.1.2v-.2c.1.1.2-.2.3-.2-.1-.4.1 0 .2-.1 0-.1 0-.1.1-.1v-.2c.2.3.3 0 .5.1.2 0 .4.2.5-.3v.1c0-.1.1 0 .1-.1 0-.3.3 0 .3-.4.1 0 .3-.1.4-.2v.1c.1-.2.3.2.4 0 .2.1.1-.5.3-.3.2.3 0-.5.2-.1.3.5.3.1.4-.3.2.2.1-.4.4 0 0-.3.2.3.3.2v-.1c.1.3-.1-.4.1 0 .1.2-.1-.5 0-.2v-.1s0 .1.1.1c0 0-.1-.2 0-.1.2.4 0-.1.2.4 0 0 .1.2.1.3v-.2c-.1-.2-.1-.4-.2-.5l.1.2c-.1-.1 0-.1-.1-.2 0 0-.1-.2-.2-.3.1.2 0 .1 0 .1v-.1c-.1-.2.1.3 0 0 0 .1-.1.1-.1.1 0 .1 0 0 .1.2-.1-.2-.2-.3-.2-.3s0-.1 0 0c-.1-.3.1.3-.1-.1.1.3-.1-.1 0 .3 0-.1 0-.1-.1-.2 0 0-.1-.1-.2-.1.1.3-.1-.1 0 .3 0-.1-.1-.2-.1-.1 0 0-.1.1 0 .3-.1-.3-.1-.3-.2-.4v.3c-.1-.1 0 .1-.1-.1.1.5-.1.3-.3.1 0 .1.1.4.1.6v-.1s-.1-.2-.1-.1v-.1c0 .1-.1-.2-.1 0v-.1.1c0-.1-.1-.2 0-.2-.2 0-.2.4-.4.4v-.1 0c-.1-.1-.1.1-.1.1v-.1c0 .2-.1-.2 0 .2v-.1c0 .2-.1.2-.2.1.1.4-.1.1-.1.4v-.1c0 .3-.2 0-.3.1 0 0 0 .1-.1.1v-.1c0 .4-.2-.3-.2.1v-.1c0 .2-.1-.1 0 .3v-.1c.1.5-.1-.2-.1.1v-.1 0c-.1-.3-.1.1-.1.1v-.2c0 .2-.1 0-.1.1v-.1.1-.1c-.7.2-.7.3-.8.3zM79.8 120.8zM83.8 118.7c0 .1 0 .1 0 0 0 0 0 .1 0 0z"/></g><g><path class="st1" d="M67.5 123.7v.1-.2zM67.5 123.4v0zM67.5 123.5v-.1.1zM68.3 123.3zM68.5 122.7v-.1c0 .2-.1 0-.1.1-.1 0-.2.2-.3.3v-.1 0c0-.2-.1.1-.1 0v.2c-.1.1-.2.1-.2.3v-.2c0 .4-.1.2-.2.2v.2c0 .1 0-.2.1-.1v.1s.1 0 .1-.2c0 .2 0 0 .1.2v-.2c.1.1.2-.1.4-.1 0-.4.1.1.2-.1 0-.1 0-.1.1-.1v-.2c.2.3.3.1.5.2s.4.3.5-.2v.1c0-.1.1 0 .1 0 .1-.3.3 0 .3-.3.1 0 .3 0 .4-.1v.1c.1-.2.3.2.4.1.1.2.2-.5.3-.2.1.4.1-.4.2-.1.2.6.3.2.4-.2.2.2.2-.3.4.1 0-.3.2.3.2.2v-.1c.1.3 0-.4.1 0v-.4.1c.1.4 0-.1.1.4V122.7c0-.2 0-.4-.1-.6v0s-.1-.2-.1-.3v.1-.1c0-.2 0 .4 0 0 0 .1-.1.1-.1.1v.2l-.1-.3s0-.1 0 0c-.1-.3 0 .3-.1-.1 0 .3-.1-.1 0 .3v-.2l-.1-.1c0 .3-.1-.1-.1.3 0-.1-.1-.2-.1-.1 0 0-.1 0-.1.3-.1-.3-.1-.3-.1-.4 0 .2-.1.1-.1.3 0-.2 0 .1-.1-.2 0 .5-.2.3-.3 0v.5s-.1-.2-.1-.1v-.1c0 .1-.1-.2-.1 0v-.1-.1c-.2-.1-.3.4-.5.3v-.1 0c-.1-.1-.1.1-.1.1v-.2c0 .2-.1-.3 0 .2v-.2c-.1.2-.2.2-.2.1 0 .4-.1.1-.2.4v-.1c-.1.3-.2 0-.3.1l-.1.1v-.1c0 .4-.2-.3-.2.1v-.1c0 .2-.1-.1 0 .3v-.1c0 .5-.1-.2-.1.1v-.1c0 .1 0 .1 0 0v-.1c-.1-.3-.1 0-.2 0v-.2c0 .2-.1 0-.1.1v-.1.1-.1c-.2 0-.2.2-.3.2zM68.1 122.9zM72.4 121.7z"/></g><g><path class="st1" d="M55.4 123.3v-.1zM55.5 123l-.1.3c0 .2.1-.4.1-.3zM55.5 123v-.1.1zM56.3 123c0 .1 0 .1 0 0zM56.6 122.5v-.1c-.1.2-.1 0-.1.1-.1-.1-.2.2-.3.2v-.1 0c0-.2-.1.1-.1 0v.2c-.1 0-.2.1-.3.2v-.2c-.1.3-.2.2-.2.1v.2c0 .1.1-.2.1-.1v.1s.1.1.1-.2v0c.1.1.3-.1.4 0 .1-.4.1.1.2 0 0-.1.1-.1.1-.1v-.2c.1.3.3.1.5.3.2.1.3.4.5-.1v.1c.1-.1.1.1.1 0 .2-.3.2.1.4-.3.1 0 .3 0 .5-.1v.1c.1-.1.2.3.3.2.1.2.3-.4.4-.2 0 .4.2-.4.2 0 .1.6.3.2.4-.1.1.2.3-.3.4.1.1-.3.1.3.2.3v-.1c0 .3.1-.4.1 0 0 .2.1-.5.1-.2v-.1V122.1c0 .2 0 .1 0 0v-.1c0-.2 0 .4 0 0 0 .1-.1.1-.1.1V122s0-.1 0 0v-.1c0 .3 0-.1-.1.3v-.2l-.1-.1c0 .3-.1-.1-.1.2 0-.1 0-.2-.1-.1 0 0-.1 0-.1.3v-.4c0 .2-.1.1-.1.2v-.2c-.1.4-.2.3-.3-.1 0 .1-.1.4-.1.6v-.1-.1-.1c0 .1 0-.2-.1 0v-.1-.1c-.2-.1-.4.3-.5.2v-.1 0c0-.1-.1.1-.1 0v-.2c0 .2 0-.3-.1.2v-.2c-.1.1-.2.1-.3 0-.1.4-.2 0-.3.3v-.1c-.1.3-.2 0-.3 0l-.1.1v-.1c-.1.4-.1-.3-.2.1v-.1c0 .2 0-.1-.1.3v-.1c-.1.5-.1-.2-.2.1v-.1c0 .1 0 .1-.1 0v-.1c0-.3-.1 0-.2 0v-.2c0 .2-.1 0-.1.1v-.1.1-.1c-.1.5-.2.6-.2.6zM56.1 122.6zM60.6 122.3z"/></g><g><path class="st1" d="M43.6 120.4v.1l.1-.1z"/><path class="st1" d="M43.8 120.2s0-.1 0 0l-.1.2c-.1.2.1-.3.1-.2zM43.8 120.2c0 .1 0-.1.1-.1-.1.1-.1-.1-.1.1zM44.6 120.4z"/><path class="st1" d="M45 119.9v-.1c-.1.2-.1 0-.2.1-.1-.1-.3.1-.4.2v-.1l-.1.1v-.1c0-.2-.1.1-.1-.1 0 0 0 .1-.1.2-.1 0-.2 0-.3.2 0 0 0-.1.1-.2-.2.3-.2.2-.3.1 0 .1 0 .1-.1.2 0 .1.1-.2.1 0v.1c0 .1.1-.2.1-.1v.1s.1.1.2-.1c-.1.2 0 0 0 .2 0-.1 0 0 .1-.2.1.1.3 0 .4 0 .2-.3.1.1.2 0l.1-.1.1-.1c0 .4.3.2.4.4.1.1.2.5.5 0v.1c.1-.1.1.1.1 0 .2-.3.2.1.4-.2.1.1.3.1.5 0v.1c.2-.1.2.3.3.2.1.2.4-.3.4-.1 0 .4.3-.4.2 0 0 .6.2.3.5 0 .1.2.3-.2.4.2.1-.2 0 .4.1.3v-.1c0 .3.2-.4.1 0 0 .2.2-.5.1-.2v-.1.2s.1-.2 0-.1c-.1.4.1-.1-.1.4 0 0 0 .2-.1.3l.1-.2c.1-.2.1-.4.1-.6v0s0-.3.1-.3c-.1.2 0 .1 0 0v-.1c0-.2-.1.3 0 0-.1.1-.1 0-.2 0 0 .1 0 0-.1.2.1-.3 0-.3 0-.3s0-.1 0 0c.1-.3-.1.3 0-.1-.1.3 0-.1-.1.2v-.2s-.1-.1-.1-.2c-.1.2 0-.1-.2.2 0-.1 0-.2-.1-.1 0 0-.1 0-.2.2.1-.3 0-.3.1-.4l-.2.2v-.2c-.2.4-.3.2-.3-.1 0 .1-.1.4-.2.5v-.1-.2-.1c0 .1 0-.2-.1 0v-.1.1c0-.1.1-.2.1-.2-.1-.1-.4.2-.6.1v-.1l-.1.1v-.1c0-.1-.1.1-.1 0v-.1c-.1.2 0-.3-.1.1v-.1c-.1.1-.2.1-.3 0-.2.4-.2 0-.3.3v-.1c-.2.2-.2-.1-.3-.1h-.1v-.1c-.2.3 0-.4-.2 0v-.1c-.1.2 0-.1-.1.3v-.1c-.2.4 0-.2-.2 0v-.1c0 .1-.1.1-.1 0v-.1c.1-.3-.1 0-.2 0l.1-.1c-.1.2-.1 0-.1.1v-.1.1-.1c.5.4.4.5.4.5zM44.5 119.9zM48.9 120.5z"/></g><g><path class="st1" d="M32.7 115.3v-.1zM32.9 115l-.2.2c-.1.2.2-.3.2-.2zM32.9 115.1c0 .1.1-.1.1-.1-.1.1 0-.1-.1.1zM33.6 115.4z"/><path class="st1" d="M34.1 115l.1-.1c-.2.2-.1 0-.1.1l-.1-.1c-.1-.1-.3 0-.4.1v-.1l-.1.1v-.1c.1-.2-.1.1-.1-.1 0 0-.1.1-.1.2-.1 0-.2 0-.4.1 0 0 0-.1.1-.1-.2.3-.2.1-.3 0-.1.1 0 .1-.1.2 0 .1.2-.2.1 0v.1c0 .1.1-.2.1-.1s-.1.1-.1.1 0 .1.2-.1l-.1.2c0-.1 0 0 .1-.2.1.1.3 0 .4.1.2-.3.1.1.2 0s.1-.1.1 0l.1-.1c0 .4.2.2.3.4.1.2.1.5.5.1v.1c.1 0 .1.1.1.1.3-.2.2.2.5-.1.1.1.3.1.4.1v.1c.2-.1.1.3.3.3 0 .2.4-.3.4 0-.1.4.3-.3.2.1-.1.6.2.3.4.1 0 .2.4-.2.3.3.2-.2 0 .4.1.3v-.1c-.1.3.2-.3.1.1l.1-.2v-.1s-.1.1-.1.2c0 0 .1-.2.1-.1-.2.4.1-.1-.1.4 0 0-.1.2-.1.3l.1-.1c.1-.2.2-.4.3-.5l-.1.1c.1-.1 0-.1.1-.2 0 0 .1-.2.1-.3-.1.2-.1.1-.1 0v-.1c.1-.2-.2.3 0 0-.1.1-.1 0-.2 0-.1.1 0 0-.1.2.1-.2.1-.3.1-.3.1-.3-.2.3 0-.1-.1.3 0-.1-.2.2 0-.1.1-.1.1-.2 0 0 0-.1-.1-.2-.1.2 0-.1-.2.2 0-.1.1-.2 0-.1 0 0-.1 0-.2.2.1-.3.1-.3.1-.4l-.2.2c.1-.1-.1 0 0-.2-.3.4-.3.2-.3-.2-.1.1-.2.3-.3.5v-.1s.1-.2 0-.2v-.1c-.1.1.1-.2 0 0v-.1l-.1.1c0-.1.1-.2.1-.1-.1-.1-.4.1-.6 0v-.1l-.1.1v-.1c0-.1-.1 0-.1 0l.1-.1c-.1.2.1-.3-.1.1l.1-.1c-.1.1-.2 0-.3-.1-.3.3-.2 0-.4.2v-.1c-.2.2-.2-.1-.3-.1h-.1v-.1c-.2.3 0-.4-.2 0l.1-.1c-.1.2 0-.1-.2.2v-.1c-.3.4 0-.2-.2 0v-.1s-.1.1-.1 0c.1-.3-.1 0-.2-.1l.1-.1c-.1.1-.1 0-.1 0v-.1l-.1.1.1-.1c.8-.1.7 0 .6 0zM33.6 114.9zM37.9 116.4s-.1 0 0 0z"/></g><g><path class="st1" d="M23 108l.1-.1zM23.2 107.8c.1 0 .1 0 0 0l-.2.2c-.1.2.3-.3.2-.2z"/><path class="st1" d="M23.2 107.8c0 .1.1-.1.1-.1l-.1.1zM23.9 108.3zM24.5 108c-.1.1 0-.2-.1-.1 0-.1-.3 0-.4 0l-.1.1.1-.1c.1-.2-.1.1 0-.1l-.1.1h-.4l.1-.1c-.3.2-.3.1-.3 0l-.1.1c-.1.1.2-.1.1 0l-.1.1c0 .1.2-.2.1-.1 0 .1-.1.1-.1.1.1 0 0 .1.2-.1l-.1.2c.1-.1.1 0 .1-.1 0 .2.2.1.3.2.3-.2 0 .1.2.1.1-.1.1-.1.1 0l.1-.1c-.1.3.2.3.2.5.1.2 0 .5.5.2l-.1.1c.1 0 0 .1.1.1.3-.2.2.2.5 0 .1.1.2.2.4.2v.1c.2 0 0 .3.2.3 0 .2.5-.2.4.1-.2.3.4-.2.2.1-.3.5.1.3.4.2 0 .2.4-.1.2.3.2-.2-.1.3 0 .3l.1-.1c-.2.2.3-.3 0 .1-.1.2.3-.4.2-.2l.1-.1-.1.1s.1-.2.1-.1c-.3.3.1 0-.2.3 0 0-.1.2-.2.2l.1-.1c.1-.2.3-.3.4-.5l-.1.1c.1-.1 0-.1.1-.2 0 0 .1-.2.2-.3-.1.1-.1 0-.1 0l.1-.1c.1-.2-.2.3 0 0h-.2l-.2.2c.2-.2.2-.3.2-.3.2-.3-.2.2 0-.1-.2.2 0-.1-.2.2 0-.1.1-.1.1-.1v-.2c-.2.2 0-.1-.2.1 0-.1.1-.2 0-.1 0 0-.1 0-.2.1.2-.3.2-.2.2-.3-.1.1-.1 0-.2.1.1-.1-.1 0 .1-.1-.4.3-.4.1-.2-.2l-.4.4s.1-.2 0-.1v-.1c-.1.1.1-.2 0 0l-.1.1c0-.1.1-.1.1-.1-.1-.2-.5 0-.6-.1l.1-.1-.1.1.1-.1c.1-.1-.1 0-.1 0l.1-.1c-.2.1.1-.2-.2.1l.1-.1c-.2.1-.2 0-.2-.1-.3.3-.1-.1-.4.1l.1-.1c-.3.1-.1-.1-.3-.2 0-.1-.1 0-.1 0l.1-.1c-.3.2.1-.3-.2-.1l.1-.1c-.1.1 0-.1-.2.2l.1-.1c-.3.3.1-.2-.2 0l.1-.1c-.1 0-.1.1-.1 0 .2-.3-.1 0-.1-.1l.1-.1c-.1.1-.1 0-.1 0l.1-.1-.3-.1h.2c-.1 0-.2.1-.2 0zM24 107.9zM27.9 110.1c-.1 0-.1.1 0 0 0 0-.1 0 0 0z"/></g><g><path class="st1" d="M15 98.9v.1l.1-.1zM15.3 98.8l-.3.2c-.1.1.4-.3.3-.2zM15.2 98.8c-.1.1.1 0 .1-.1-.1.1.1 0-.1.1zM15.8 99.4c0 .1 0 .1 0 0zM16.4 99.3l.1-.1c-.2.1 0-.1-.2 0 0-.1-.3-.1-.4-.1h.1l-.1.1h.1c.2-.1-.2 0 0-.1 0 0-.1.1-.2.1s-.2-.1-.4 0l.1-.1c-.3.2-.3 0-.3-.1-.1.1-.1.1-.2.1-.1.1.2-.1.1 0l.1-.1s.2-.1.1 0c-.1 0-.1.1-.1.1.1 0 0 .1.2 0-.2.1 0 0-.1.2.1 0 .1 0 .2-.1 0 .2.2.1.3.2.3-.2 0 .1.2.1h.1l.1-.1c-.2.3.1.3.1.5s-.1.5.4.3h-.1c.1 0 0 .1.1.1.3-.1.1.2.5.1.1.1.2.2.4.3h-.1c.2 0 0 .3.1.4-.1.2.5-.1.4.2-.2.3.4-.1.2.2-.4.5 0 .4.4.3-.1.2.4 0 .2.4.2-.1-.2.3-.1.3l.1-.1c-.2.2.3-.2 0 .1-.2.2.4-.3.2-.1l.1-.1-.1.1.1-.1c-.3.3.1 0-.3.3l-.2.2.2-.1c.2-.1.3-.3.4-.4l-.1.1.1-.1s.2-.2.2-.3c-.2.1-.1 0-.1 0l.1-.1c.1-.1-.3.2 0 0-.1 0-.1 0-.1-.1-.1.1 0 0-.2.1.2-.2.2-.3.2-.3.2-.2-.3.2 0-.1-.2.2 0-.1-.2.1.1 0 .1-.1.1-.1v-.2c-.2.1 0-.1-.2.1 0-.1.1-.2 0-.1 0 0-.1 0-.3.1.3-.2.2-.2.3-.3-.1.1-.1 0-.3.1.1-.1-.1 0 .1-.1-.4.2-.4 0-.2-.3-.1.1-.3.2-.5.3l.1-.1h.1c-.1.1.1-.1 0-.1h-.1c.1 0 .1-.1.1-.1 0-.2-.5-.1-.5-.2h.1l-.1.1h.1c.1-.1-.1 0-.1-.1l.1-.1c-.2.1.2-.2-.2.1l.1-.1c-.2 0-.2-.1-.2-.2-.4.2-.1-.1-.4 0h.1c-.3.1-.1-.2-.2-.2 0-.1-.1 0-.1 0l.1-.1c-.3.2.2-.3-.2-.1l.1-.1c-.2.1 0-.1-.2.1l.1-.1c-.4.2.1-.2-.2-.1h.1-.1c.2-.2-.1-.1-.1-.1l.1-.1c-.2.1-.1 0-.1 0h.1-.1l.1-.1c-.1-.1-.3-.1-.3-.1zM16 99zM19.3 102z"/></g><g><path class="st1" d="M9 88.5h-.1l.1-.1zM9.2 88.4c.1 0 .1 0 0 0l-.2.1.2-.1zM9.2 88.4h.1c-.1 0 .1-.1-.1 0zM9.7 89.1c-.1 0-.1 0 0 0z"/><path class="st1" d="M10.3 89.1l.1-.1c-.2.1 0-.1-.1-.1 0-.1-.2-.1-.4-.2h.1c.2-.1-.2 0 0-.1 0 0-.1 0-.2.1-.1-.1-.2-.1-.4-.1 0 0 .1 0 .1-.1-.4.1-.3 0-.2-.1-.1 0-.1 0-.2.1s.2-.1.1 0h-.1s.2-.1.1 0c-.1 0-.1 0-.1.1 0 0 0 .1.2 0l-.2.1c.1 0 .1 0 .2-.1 0 .1.2.2.2.3.4-.1 0 .1.1.1H9.9c-.2.3.1.3 0 .5 0 .2-.2.5.4.4h-.1c.1 0 0 .1.1.1.3 0 .1.2.4.2 0 .1.1.3.3.4h-.1c.2 0-.1.3.1.4-.1.2.5 0 .3.2-.3.2.5 0 .1.2-.4.6 0 .6.4.5-.1.2.4.1.1.4.3-.1-.2.3-.1.3h.1c-.2.2.4-.1 0 .1-.2.1.5-.2.2-.1h.1l-.1.1s.2-.1.1-.1c-.4.2.1 0-.3.2 0 0-.2.1-.3.1l.2-.1c.2-.1.4-.2.5-.3l-.1.1c.1-.1.1 0 .2-.1 0 0 .2-.1.3-.2-.2.1-.1 0-.1 0h.1c.2-.1-.3.2 0 0-.1 0-.1 0-.1-.1-.1.1 0 0-.2.1.2-.1.3-.2.3-.2.3-.2-.3.1.1-.1-.3.1.1-.1-.2.1.1 0 .1-.1.2-.1 0 0 .1-.1.1-.2-.2.1.1-.1-.3 0 .1-.1.2-.2 0-.1 0 0-.1-.1-.3 0 .3-.2.2-.2.3-.2-.2.1-.1 0-.3 0 .1-.1-.1 0 .1-.1-.4.1-.4-.1-.1-.3-.1.1-.4.2-.5.2h.1l.1-.1h.1c-.1 0 .1-.1 0-.1h.1-.1c.1 0 .2-.1.2-.1 0-.2-.4-.2-.5-.3h.1-.1.1c.1-.1-.1 0-.1-.1 0 0 .1 0 .1-.1-.2.1.2-.2-.2 0l.1-.1c-.2 0-.2-.1-.2-.2-.4.1-.1-.1-.4 0h.1c-.3 0-.1-.2-.2-.3 0-.1-.1 0-.1-.1h.1c-.4.1.2-.3-.2-.2l.1-.1c-.2.1 0-.1-.3.1l.1-.1c-.4.2.2-.2-.1-.1h.1-.1.1c.3-.2-.1-.1-.1-.1l.1-.1c-.2.1 0-.1-.1-.1h.1-.1l.1-.1c-.4.1-.5.1-.5.1zM9.9 88.7zM12.6 92.3z"/></g><g><path class="st1" d="M5.2 77h-.1.2zM5.5 77s0-.1 0 0h-.3c-.2 0 .4-.1.3 0z"/><path class="st1" d="M5.4 77h.1c-.1 0 .1-.1-.1 0zM5.7 77.8z"/><path class="st1" d="M6.3 77.8h.1c-.2 0 0-.1-.1-.1 0-.1-.2-.2-.3-.2h.1c.2-.1-.2 0 0-.1h-.2c-.1-.1-.1-.1-.3-.2h.2c-.4 0-.2-.1-.2-.2h-.2c-.1 0 .2 0 .1.1h0-.1s0 .1.2.1l-.2.1h.2c-.1.1.1.2.2.3.4 0 0 .1.1.2.1 0 .1 0 .1.1h.2c-.3.2 0 .3-.1.5 0 .2-.3.4.3.5h-.1c.1 0 0 .1.1.1.3 0 0 .3.4.3 0 .1.1.3.2.4h-.1c.2.1-.2.3 0 .4-.1.2.5.1.3.3-.3.2.5.1.1.2-.5.3-.1.3.2.4-.2.2.4.2 0 .4.3 0-.3.2-.2.3h.1c-.3.1.4-.1 0 .1-.2.1.5-.1.2 0h.1s-.1 0-.2.1c0 0 .2-.1.1 0-.4.1.1 0-.4.2 0 0-.2.1-.3.1h.2c.2-.1.4-.1.6-.2h-.2c.2-.1.1 0 .2-.1 0 0 .2-.1.3-.1h-.1.1c.2-.1-.4.1 0 0-.1 0-.1-.1-.1-.1h-.2c.3-.1.3-.1.3-.2 0 0 .1 0 0 0 .3-.1-.3.1.1-.1-.3.1.1-.1-.3 0 .1 0 .1 0 .2-.1 0 0 .1-.1.1-.2-.3 0 .1-.1-.3 0 .1 0 .2-.1.1-.1 0 0-.1-.1-.3 0 .3-.1.3-.1.4-.1h-.3c.2-.1-.1 0 .1-.1-.5 0-.3-.1 0-.3-.1 0-.4.1-.6.1h.1s.2-.1.1-.1h.1c-.1 0 .2-.1 0-.1h.1-.1c.1 0 .2-.1.2 0 0-.2-.4-.2-.4-.4h.1-.1.1c.1-.1-.1-.1-.1-.1h.1c-.2 0 .2-.1-.2 0h.1c-.2 0-.2-.1-.1-.2-.4 0-.1-.1-.4-.1h.1c-.3 0 0-.2-.1-.3l-.1-.1h.1c-.4 0 .3-.2-.1-.2h.1c-.2 0 .1-.1-.3 0h.1c-.5.1.2-.1-.1-.1h.1-.1.1c.3-.1-.1-.1-.1-.2h.2c-.2 0 0-.1-.1-.1h.1-.1.1c-.2-.7-.3-.7-.4-.8zM6 77.4c.1 0 .1 0 0 0zM7.9 81.5z"/></g><g><path class="st1" d="M3.8 65h-.1.2zM4.1 65h0zM4 65h.1H4zM4.1 65.8zM4.7 66h.1c-.2 0 0-.1-.1-.1 0-.1-.2-.2-.3-.3h.1c.2 0-.1-.1 0-.1h-.2c-.1-.1-.1-.2-.3-.3h.2c-.3 0-.2-.1-.1-.2h-.2c-.1 0 .2 0 .1.1h0-.1s0 .1.2.1c-.2 0 0 0-.2.1h.2c-.1.1.1.2.1.4.4 0-.1.1.1.2.1 0 .1 0 .1.1h.2c-.3.2-.1.3-.2.5s-.3.4.2.5h-.1c.1 0-.1.1 0 .1.3.1 0 .3.3.3 0 .1 0 .3.1.4h-.1c.2.1-.2.2-.1.4-.2.1.4.2.2.4-.4.1.4.1.1.2-.7.2-.4.3 0 .5-.2.2.3.2-.1.4.3 0-.3.2-.2.2h.1c-.3.1.4 0 0 .1H5.1c-.4 0 .1 0-.4.1h-.3.2c.2 0 .4 0 .6-.1H5h.2s.3 0 .3-.1h-.1.1c.2 0-.4 0 0 0-.1 0-.1-.1-.1-.1h-.2c.3 0 .3-.1.3-.1s.1 0 0 0c.3-.1-.3 0 .1-.1-.3 0 .1-.1-.3 0h.2l.1-.1c-.3 0 .1-.1-.2-.1.1 0 .2-.1.1-.1 0 0 0-.1-.3-.1.3 0 .3 0 .4-.1-.2 0-.1-.1-.3-.1h.2c-.5-.1-.3-.2 0-.3h-.6.1s.2-.1.1-.1h.1c-.1 0 .2-.1 0-.1h.1-.1.2c.1-.2-.3-.3-.3-.5h.1-.1.1c.1-.1-.1-.1-.1-.1h.2c-.2 0 .3-.1-.2-.1h.2c-.1-.1-.1-.2-.1-.3-.4 0 0-.1-.4-.2h.1c-.3-.1 0-.2-.1-.3l-.1-.1h.1c-.4-.1.3-.2-.1-.2h.1-.3.1c-.5 0 .2-.1-.1-.1h.1c-.1 0-.1 0 0 0h.1c.3-.1 0-.1 0-.2h.2c-.2 0 0-.1-.1-.1h.1-.1.1c0-.2-.2-.2-.2-.3zM4.5 65.6zM5.5 69.9z"/></g><g><path class="st1" d="M4.8 52.9h.1zM5.1 53l-.3-.1c-.2 0 .4.1.3.1zM5 53h.1H5zM5 53.8zM5.5 54.1h.1c-.2-.1 0-.1-.1-.1.1-.1-.1-.2-.2-.4h.1c.2 0-.1-.1 0-.1h-.2c0-.1-.1-.2-.2-.3h.2c-.3-.1-.2-.1-.1-.2h-.2c-.1 0 .2.1 0 .1h0-.1s-.1.1.2.1h-.2c.1 0 .1 0 .2.1-.1.1.1.3 0 .4.4.1-.1.1 0 .2.1 0 .1.1.1.1h.2c-.3.1-.1.3-.3.4-.2.2-.5.3 0 .6h-.1c.1 0-.1 0 0 .1.3.2-.1.2.2.4-.1.1 0 .3 0 .5H5c.1.1-.3.2-.2.3-.2.1.4.3.1.4-.4 0 .4.2 0 .2-.6.1-.2.3.1.4-.2.1.3.3-.2.4.3.1-.4.1-.3.2h.1c-.3 0 .4.1 0 .1-.1 0 .6.1.4 0h-.1.1-.4H4.5c.2 0 .4.1.6.1h-.2H5.5c-.2 0-.1 0 0 0h.1c.2 0-.4-.1 0 0-.2-.1-.2-.1-.2-.2h-.2.3s.1 0 0 0c.3 0-.3-.1.1 0-.3 0 .1 0-.2-.1h.2l.1-.1c-.3-.1.1-.1-.2-.1.1 0 .2 0 .1-.1 0 0 0-.1-.3-.1h.4c-.2 0-.1-.1-.2-.1h.2c-.4-.2-.3-.3.1-.3-.1 0-.4-.1-.6-.1H5.5c-.1 0 .2 0 0-.1h.1-.1.2c.1-.2-.3-.4-.2-.5h.1l-.1-.1h.1c.1 0-.1-.1 0-.1h.2c-.3-.1.2-.1-.3-.2h.2c-.1-.1-.1-.2 0-.3-.4-.1 0-.2-.3-.3h.1c-.3-.1 0-.2 0-.3 0 0-.1-.1 0-.1h.1c-.4-.1.4-.1 0-.2h.1c-.2 0 .1 0-.3-.1h.1c-.5-.1.2-.1-.1-.2h.1c-.1 0-.1-.1 0-.1h.1c.3 0 0-.1 0-.2h.2c-.2-.1 0-.1-.1-.1h.1-.1.1c-.1.3-.3.2-.3.1zM5.4 53.7zM5.5 58.1z"/></g><g><path class="st1" d="M8.2 41.3h.1zM8.5 41.4c0 .1 0 .1 0 0l-.2-.1c-.3 0 .3.2.2.1z"/><path class="st1" d="M8.4 41.4c-.1 0 .1 0 .1.1 0 0 .1 0-.1-.1zM8.2 42.3c0-.1 0 0 0 0z"/><path class="st1" d="M8.7 42.7l.1.1c-.2-.1 0-.1 0-.2.1-.1-.1-.3-.1-.4h.1l-.1-.1h.1c.2.1-.1-.1.1-.1 0 0-.1-.1-.2-.1 0-.1 0-.2-.2-.3 0 0 .1 0 .2.1-.3-.2-.1-.2-.1-.3-.1 0-.1 0-.2-.1-.1 0 .2.1 0 .1h-.1c-.1 0 .2.1.1.1h-.1s-.1 0 .1.2c-.2-.1 0 0-.2 0 .1 0 0 0 .2.1-.1.1 0 .3-.1.4.3.2-.1.1 0 .2l.1.1.1.1c-.4 0-.2.3-.4.4-.2-.1-.5 0-.1.3h-.1c.1.1-.1.1 0 .1.3.2-.1.2.2.4-.2.2-.2.4-.1.5h-.1c.1.2-.3.1-.2.3-.2.1.3.4 0 .4-.4 0 .3.3 0 .2-.6 0-.3.2 0 .5-.2.1.2.4-.2.3.2.1-.4 0-.3.1h.1c-.3-.1.4.2 0 .1-.2-.1.5.2.2.1h-.1s.2.1.1.1c-.5-.1 0 .1-.5-.1 0 0-.2 0-.3-.1l.2.1c.2.1.4.1.6.2l-.2-.1c.2 0 .1 0 .2.1 0 0 .2.1.3.1-.2-.1-.1 0 0 0h.1c.2.1-.3-.1 0 0-.1-.1 0-.1 0-.2-.1 0 0 0-.2-.1.3.1.3.1.3 0 0 0 .1 0 0 0 .3.1-.3-.1.1 0-.3-.1.1 0-.2-.1.1 0 .1 0 .2.1 0 0 .1 0 .2-.1-.3-.2.1-.1-.3-.2.1 0 .2 0 .1-.1 0 0 0-.1-.2-.2.3.1.3.1.4.1l-.2-.2h.2c-.4-.2-.2-.3.2-.3-.1-.1-.4-.2-.5-.2h.4c-.1-.1.2 0 0-.1h.1-.1c.1 0 .2.1.2.1.1-.1-.2-.4-.1-.6h.1l-.1-.1h.1c.1 0-.1-.1 0-.1 0 0 .1 0 .1.1-.2-.1.3 0-.1-.1 0 0 .1 0 .1.1-.1-.1-.1-.2 0-.3-.3-.2 0-.2-.3-.3h.1c-.2-.2.1-.2.1-.3v-.1h.1c-.3-.2.4 0 0-.2l.1.1c-.2-.1.1 0-.2-.1h.1c-.4-.2.2 0 0-.2h.1c-.1 0-.1-.1 0-.1h.1c.3.1 0-.1 0-.2l.1.1c-.2-.1 0-.1-.1-.1H9l-.1-.1.1.1c-.2.1-.3 0-.3 0zM8.7 42.2zM7.9 46.6z"/></g><g><path class="st1" d="M14 30.6h-.1l.1.1z"/><path class="st1" d="M14.2 30.8s0 .1 0 0l-.2-.2c-.2 0 .3.3.2.2zM14.1 30.8c-.1 0 .1.1.1.1-.1-.1.1 0-.1-.1zM13.8 31.6c-.1 0 0 0 0 0z"/><path class="st1" d="M14.1 32.1l.1.1c-.1-.2.1-.1-.1-.1l.1-.1c.1-.1 0-.3-.1-.4h.1l-.1-.1h.1c.2.1-.1-.1.1-.1 0 0-.1-.1-.2-.1 0-.1 0-.2-.1-.4 0 0 .1 0 .1.1-.3-.3-.1-.2 0-.3-.1-.1-.1 0-.2-.1-.1 0 .2.2 0 .1l-.1-.1c-.1 0 .2.1.1.1s-.1-.1-.1-.1-.1 0 .1.2l-.2-.1.1.1c-.1 0-.1.3-.1.3.3.3-.1.1-.1.2.1.1.1.1 0 .1l.1.1c-.4 0-.2.2-.4.3-.2.1-.5.1-.2.5H13c0 .1-.1.1-.1.1.2.3-.2.2.1.5-.1.1-.2.3-.2.4h-.1c.1.2-.3.1-.3.2-.2 0 .2.4 0 .4-.4-.1.3.4-.1.2-.6-.2-.3.1-.1.4-.3 0 .1.4-.3.3.2.2-.4-.1-.3 0h.1c-.3-.1.3.2-.1 0-.2-.1.4.3.2.2l.1.1-.1-.1s.2.1.1.1c-.4-.2.1.1-.4-.2 0 0-.2-.1-.3-.1l.1.1c.2.1.4.2.5.3l.2.3c.1.1.1 0 .2.1 0 0 .2.1.3.1-.2-.1-.1-.1 0-.1h.1c.2.1-.3-.2 0 0v-.2c-.1-.1 0 0-.2-.1.2.1.3.1.3.1.3.1-.3-.2.1 0-.3-.1.1 0-.2-.2.1 0 .1.1.2.1h.2c-.2-.2.1 0-.2-.2.1 0 .2.1.1 0 0 0 0-.1-.2-.2.3.2.3.1.4.2-.1-.1 0-.1-.1-.2.1.1 0-.1.2.1-.3-.3-.1-.3.2-.3-.1-.1-.3-.2-.5-.3 0 0 .2.1.2 0h.1c-.1-.1.2.1 0 0h.1l-.1-.1c.1 0 .2.1.1.1.2-.1-.1-.5 0-.6h.1l-.1-.1h.1c.1 0 0-.1 0-.1l.1.1c-.2-.1.3.1-.1-.1l.1.1c-.1-.1 0-.2.1-.3-.3-.3 0-.1-.2-.4h.1c-.2-.2.1-.2.1-.3v-.1l.1.1c-.3-.3.4.1.1-.2l.1.1c-.2-.1.1 0-.2-.2h.1c-.4-.3.2 0 0-.2h.1s-.1-.1 0-.1c.3.1 0-.1.1-.1l.1.1c-.1-.1 0-.1 0-.1h.1l-.2.2.1.1c.1-.1 0-.2 0-.2zM14.2 31.6zM12.6 35.7s-.1 0 0 0z"/></g><g><path class="st1" d="M21.7 21.3v.1zM21.9 21.6l-.2-.2.2.2zM21.8 21.6c-.1-.1 0 .1.1.1-.1-.1.1 0-.1-.1zM21.3 22.2zM21.6 22.8c0-.1.2 0 .1-.1.1 0 0-.3 0-.4v.1l-.1-.1.1.1c.2.1-.1-.1.1 0l-.1-.1v-.4l.1.1c-.2-.3 0-.3 0-.3l-.1-.1c-.1-.1.1.2 0 .1l-.1-.1c-.1 0 .2.2.1.1-.1 0-.1-.1-.1-.1 0 .1-.1 0 .1.2-.1-.1 0 0-.2-.1 0 .1 0 .1.1.1-.2 0-.1.2-.2.3.2.3-.1 0-.1.2.1.1.1.1 0 .1l.1.1c-.3-.1-.3.2-.5.2-.2.1-.5 0-.3.5l-.1-.1c0 .1-.1 0-.1.1.1.3-.2.2 0 .5-.1.1-.2.2-.2.4V24c0 .2-.3 0-.3.2-.2 0 .1.5-.1.4-.3-.2.2.4-.1.2-.5-.3-.4.1-.2.4-.2 0 .1.4-.3.2.2.2-.3-.1-.3 0l.1.1c-.2-.2.3.3-.1 0-.2-.1.4.4.2.2l.1.1-.1-.1.1.1c-.3-.3 0 .1-.3-.2 0 0-.2-.1-.2-.2l.1.1c.2.1.3.3.4.4l-.1-.1c.1.1.1.1.2.1 0 0 .2.1.3.2-.1-.1 0-.1 0-.1l.1.1c.1.1-.3-.3 0 0v-.2l-.2-.2c.2.2.3.2.3.2.3.2-.2-.2.1 0-.2-.2.1 0-.2-.2.1 0 .1.1.1.1h.2c-.2-.2.1 0-.1-.2.1 0 .2.1.1 0 0 0 0-.1-.1-.3.3.2.2.2.3.2-.1-.1 0-.1-.1-.2.1.1 0-.1.1.1-.4-.4-.2-.4.1-.2l-.4-.4s.2.1.1.1l.1.1c-.1-.1.2.1 0 0l-.1-.1.1.1c.2-.1 0-.5.2-.6v.1l-.1-.1.1.1c.1.1 0-.1 0-.1l.1.1c-.1-.2.2.1-.1-.2l.1.1c0-.2 0-.2.1-.2-.2-.3.1-.1-.1-.4l.1.1c-.1-.3.1-.1.2-.2.1 0 0-.1 0-.1l.1.1c-.2-.3.3.1.1-.2l.1.1c-.1-.2.1 0-.2-.2l.1.1c-.3-.4.2.1 0-.2l.1.1c0-.1-.1-.1 0-.1.3.2 0-.1.1-.1l.1.1c-.1-.1 0-.1 0-.1l.1.1.3-.5v0zM21.8 22.3zM19.3 26.1s0-.1 0 0z"/></g><g><path class="st1" d="M31.1 13.8l.1.1zM31.3 14c0 .1 0 .1 0 0l-.1-.2c-.2-.2.1.4.1.2z"/><path class="st1" d="M31.2 14c-.1-.1 0 .1.1.1-.1-.1 0 .1-.1-.1zM30.6 14.6zM30.7 15.2l.1.1c-.1-.2.1 0 0-.2.1 0 .1-.3.1-.4v.1l-.1-.1v.1c.1.2 0-.2.1 0 0 0-.1-.1-.1-.2s.1-.2.1-.4l.1.1c-.1-.3 0-.3.1-.3 0-.1-.1-.1-.1-.2-.1-.1.1.2 0 .1v-.1s.1.2 0 .1c0-.1-.1-.1-.1-.1 0 .1-.1 0 0 .2-.1-.2 0 0-.1-.1 0 .1 0 .1.1.2-.2 0-.1.2-.3.3.2.4-.1 0-.1.2v.1l.1.1c-.3-.2-.3.1-.5.1s-.5-.1-.3.4v-.1c0 .1-.1 0-.1.1.1.3-.2.1-.1.5l-.3.3V16c0 .2-.3-.1-.4.1-.2-.1.1.5-.2.4-.3-.3.1.4-.2.2-.5-.4-.4 0-.3.4-.2-.1 0 .4-.4.2.1.3-.3-.2-.3-.1l.1.1c-.2-.2.2.3-.1 0-.1-.2.3.4.1.2l.1.1-.1-.1s.1.2.1.1c-.3-.3 0 .1-.3-.3l-.2-.2.1.2c.1.2.2.3.4.5l-.1-.1c.1.1.1.1.1.2 0 0 .2.2.2.3-.1-.2 0-.1 0-.1l.1.1c.1.1-.2-.3 0 0 0-.1 0-.1.1-.1-.1-.1 0 0-.1-.2l.2.2c.2.3-.2-.3.1.1-.2-.2.1.1-.1-.2 0 .1.1.1.1.1h.2c-.1-.2.1.1-.1-.3.1 0 .2.1.1 0 0 0 0-.1-.1-.3.2.3.2.2.3.3-.1-.1 0-.1-.1-.3.1.1 0-.1.1.1-.2-.4 0-.4.3-.2-.1-.1-.2-.3-.3-.5l.1.1v.1c0-.1.1.1.1 0V17c0 .1.1.2.1.1.2 0 .1-.5.3-.5v.1-.1.1c.1.1 0-.1.1-.1l.1.1c-.1-.2.2.2 0-.2l.1.1c0-.2.1-.2.2-.2-.2-.4.1-.1 0-.4v.1c-.1-.3.2-.1.2-.2.1 0 0-.1.1-.1l.1.1c-.2-.3.3.2.1-.2l.1.1c-.1-.2.1 0-.1-.3l.1.1c-.2-.4.2.1.1-.2v.1c.2.2.1-.1.1-.1l.1.1c-.1-.2.1-.1 0-.1v.1-.1l.1.1c-.1-.2-.1-.3-.1-.3zM31 14.8zM27.9 17.9z"/></g><g><path class="st1" d="M41.9 8.3v-.1.2zM42 8.6l-.1-.3c-.1-.2.1.4.1.3zM41.9 8.5v.1c0-.1.1.1 0-.1zM41.2 8.9zM41.2 9.6v.1c-.1-.2.1 0 .1-.1.1 0 .1-.2.2-.4v.1c.1.2 0-.2.1 0 0 0 0-.1-.1-.2.1-.1.1-.2.1-.4 0 0 0 .1.1.2-.1-.4.1-.3.1-.2 0-.1 0-.1-.1-.2s0 .2 0 .1v-.1s.1.2 0 .1v-.1s-.1 0 0 .2l-.1-.2c0 .1 0 .1.1.2-.1 0-.2.2-.3.2.1.4-.1 0-.2.1V9.3c-.3-.2-.3 0-.5 0s-.5-.2-.4.3v-.1c0 .1-.1 0-.1.1 0 .3-.2.1-.2.4-.1 0-.3.1-.4.3v-.1c0 .2-.3-.1-.4 0-.2-.1 0 .5-.3.3-.2-.3 0 .5-.2.1-.4-.5-.4-.1-.3.3-.2-.1-.1.4-.4.1.1.3-.3-.2-.3-.2v.1c-.1-.2.1.4-.1 0-.1-.2.2.5.1.2v.1l-.1-.1s.1.2 0 .1c-.2-.4 0 .1-.2-.3 0 0-.1-.2-.1-.3l.1.2c.1.2.2.4.3.5l-.1-.1c.1.1 0 .1.1.2 0 0 .1.2.2.3-.1-.2 0-.1 0-.1v.1c.1.2-.1-.3 0 0 0-.1.1-.1.1-.1 0-.1 0 0-.1-.2.1.2.2.3.2.3.2.3-.1-.3.1.1-.1-.3.1.1-.1-.3 0 .1.1.1.1.2 0 0 .1.1.2.1-.1-.2.1.1 0-.3.1.1.2.2.1 0 0 0 .1-.1 0-.3.2.3.1.2.2.3v-.3c.1.1 0-.1.1.1-.1-.4.1-.4.3-.1 0-.1-.1-.4-.2-.5v.1s.1.2.1.1v.1c0-.1.1.2.1 0v.1-.1c0 .1.1.2.1.2.2 0 .2-.4.4-.4v.1-.1.1c.1.1 0-.1.1-.1 0 0 0 .1.1.1-.1-.2.2.2 0-.2 0 0 0 .1.1.1 0-.2.1-.2.2-.2-.1-.4.1-.1.1-.4v.1c0-.3.2-.1.3-.2.1 0 0-.1.1-.1v.1c-.1-.4.3.2.2-.2v.1c-.1-.2.1 0-.1-.3l.1.1c-.1-.4.2.2.1-.1v.1c.1.2 0-.2.1-.2v.2c0-.2.1 0 .1-.1v.1-.1l.1.1v-.2zM41.6 9.2zM37.9 11.7z"/></g><g><path class="st1" d="M53.6 5.1V5v.2zM53.6 5.4v-.3c-.1-.2 0 .4 0 .3z"/><path class="st1" d="M53.6 5.3v.1c-.1-.1 0 .1 0-.1zM52.8 5.6zM52.6 6.2v.1c0-.2.1 0 .1-.1.2.1.3-.2.3-.3V6c.1.2 0-.2.1 0v-.2c.1-.1.2-.1.2-.3v.2c0-.4.1-.2.2-.2v-.2c0-.1 0 .2-.1.1v-.1 0s-.1 0-.1.2c0-.2 0 0-.1-.2v.2c-.1-.1-.2.1-.3.1 0 .4-.1 0-.2.1 0 .1 0 .1-.1.1V6c-.2-.3-.3 0-.5-.1-.1-.2-.3-.5-.4.1v-.1c0 .1-.1 0-.1 0-.1.3-.3 0-.3.4-.1 0-.3.1-.4.2v-.1c-.1.2-.3-.2-.4 0-.2-.1-.1.5-.3.3-.2-.3-.1.5-.2.1-.3-.5-.3-.1-.4.2-.2-.2-.2.4-.4 0 0 .3-.2-.3-.3-.2v.1c-.1-.3 0 .4-.1 0-.1-.2.1.5 0 .3v.1s0-.1-.1-.2v.1c-.1-.4 0 .1-.1-.4 0 0-.1-.2-.1-.3v.2c.1.2.1.4.1.6v-.2c0 .2 0 .1.1.2 0 0 .1.2.1.3v-.1.1c.1.2-.1-.4 0 0 0-.1.1-.1.1-.1v-.2l.1.3s0 .1 0 0c.1.3 0-.3.1.1-.1-.3.1.1 0-.3v.2s.1.1.2.1c0-.3.1.1 0-.3 0 .1.1.2.1.1 0 0 .1-.1 0-.3.1.3.1.3.1.4v-.3c0 .2 0-.1.1.2 0-.5.2-.3.3 0 0-.1-.1-.4-.1-.6V7s.1.2.1.1v.1c0-.1.1.2.1 0v.1-.1.2c.2 0 .3-.4.4-.4v.1V7v.1c.1.1.1-.1.1-.1v.2c0-.2.1.3 0-.2v.1c.1-.2.1-.2.2-.1 0-.4.1-.1.1-.4v.1c0-.3.2 0 .3-.1l.1-.1v.1c0-.4.2.3.2-.1v.1c0-.2.1.1 0-.3v.1c0-.5.1.2.1-.1v.1c0-.1 0-.1 0 0v.1c.1.3.1-.1.2-.1v.2c0-.2.1 0 .1-.1v.1-.1.1c.8-.3.8-.4.8-.4zM53.1 5.9zM48.9 7.6z"/></g><g><path class="st1" d="M65.6 4.3v-.1.2zM65.6 4.5c0 .1 0 .1 0 0v-.3.3zM65.6 4.5v0zM64.7 4.6zM64.5 5.1v.1c0-.2.1 0 .1-.1.1.2.2 0 .4-.1v-.1.1c0 .2 0-.2 0 0v-.2c.1-.1.2-.1.3-.3v.2c.1-.4.2-.2.2-.2v-.2c0-.1-.1.2-.1.1v-.1 0s-.1 0-.1.2v-.2.2c-.1-.1-.2.1-.4.1-.1.4-.1-.1-.2.1 0 .1-.1.1-.1.1V5c-.2-.3-.3-.1-.5-.2s-.3-.4-.5.1v-.1c-.1.1-.1-.1-.1 0-.1.3-.3 0-.4.3-.1 0-.3 0-.4.1v-.1c-.1.2-.2-.2-.4-.1-.1-.2-.2.4-.4.2-.1-.4-.2.4-.2 0-.2-.6-.3-.2-.4.2-.1-.2-.3.3-.4-.1 0 .3-.1-.3-.2-.3v.1c0-.3 0 .4-.1 0V5.4c0-.4 0 .1-.1-.4v-.3.8-.2.2s0 .3.1.3v-.1.1c0 .2 0-.4 0 0 0-.1.1-.1.1-.1v-.2c0 .3.1.3.1.3s0 .1 0 0c0 .3 0-.3.1.1v-.3.2l.1.1c0-.3.1.1.1-.2 0 .1.1.2.1.1 0 0 .1 0 .1-.3 0 .3 0 .3.1.4 0-.2.1-.1.1-.3v.2c.1-.5.2-.3.3 0v-.6.1s0 .2.1.1v.1c0-.1 0 .2.1 0v.1-.1.2c.2.1.3-.3.5-.3v.1-.1.1c0 .1.1-.1.1-.1v.2c0-.2.1.3.1-.2v.2c.1-.1.2-.1.3-.1.1-.4.2 0 .2-.4v.1c.1-.3.2 0 .3 0l.1-.1v.1c.1-.4.1.3.2-.1V4.9 5c.2-.4.2.3.3 0v.1c0-.1 0-.1 0 0v.1c0 .3.1 0 .2 0v.2c0-.2.1 0 .1-.1v.1-.1.1c0-.1.1-.2.1-.3zM65 5zM60.6 5.8z"/></g><g><path class="st1" d="M77.6 5.9V6zM77.5 6.2l.1-.3c.1-.2-.1.4-.1.3zM77.5 6.1v0zM76.7 6z"/><path class="st1" d="M76.4 6.6v.1c.1-.2.1 0 .1-.1.1.1.2-.1.4-.2v.1c0 .2.1-.1.1 0v-.2c.1 0 .2-.1.3-.2v.2c.2-.3.2-.2.3-.1V6c0-.1-.1.2-.1 0v-.1c0-.1-.1.2 0 .1v-.1s-.1-.1-.1.2v-.2c0 .1 0 .1-.1.2-.1-.1-.3 0-.4 0-.1.4-.1-.1-.2 0 0 .1-.1.1-.1.1l-.1.2c-.1-.4-.3-.2-.4-.3-.2-.1-.3-.4-.5 0V6c-.1.1-.1-.1-.1 0-.2.3-.2-.1-.4.2-.1-.1-.3-.1-.5 0v-.1c-.1.1-.2-.3-.3-.2-.1-.2-.3.4-.4.1 0-.4-.2.4-.2 0 0-.6-.3-.3-.4.1-.1-.2-.3.3-.4-.2-.1.3-.1-.4-.2-.3v.1c0-.3-.1.4-.1 0 0-.2-.1.5-.1.2v-.1.1c.1-.4-.1.1 0-.4v-.3c0-.1 0 0-.1.2 0 .2-.1.4-.1.6v-.2V6.4c0-.2 0-.1 0 0v.1c0 .2.1-.4 0 0l.1-.1c0-.1 0 0 .1-.2v.3s0 .1 0 0c0 .3.1-.3 0 .1.1-.3 0 .1.1-.2v.2s.1.1.1.2c.1-.3.1.1.1-.2 0 .1 0 .2.1.1 0 0 .1 0 .1-.2v.4c0-.2.1-.1.1-.2v.2c.2-.4.3-.2.3.1 0-.1.1-.4.1-.6v.4c0-.1 0 .2.1 0v.1-.1.2c.1.1.4-.3.5-.2v.1l.1-.1v.1c0 .1.1-.1.1 0v.2c.1-.2 0 .3.1-.1v.2c.1-.1.2-.1.3 0 .1-.4.2 0 .3-.3V7c.1-.3.2.1.3 0h.1v.1c.1-.4.1.4.2 0v.1c.1-.2 0 .1.1-.3V7c.1-.4 0 .2.2-.1V7c0-.1.1-.1.1 0v.1c0 .3.1 0 .2 0v.2c.1-.2.1 0 .1-.1v.1-.1.1c-.1-.6 0-.7.1-.7zM76.8 6.5zM72.4 6.4z"/></g><g><path class="st1" d="M89 9.9h.1l-.1.1z"/><path class="st1" d="M88.9 10.2l.1-.3c.1-.2-.2.4-.1.3zM88.9 10.1c0-.1 0 .1-.1.1.1-.1 0 .1.1-.1zM88.1 9.9z"/><path class="st1" d="M87.7 10.3l-.1.1c.1-.2.1 0 .2 0 .1.1.3-.1.4-.1v.1l.1-.1v.1c-.1.2.1-.1.1.1 0 0 .1-.1.1-.2.1 0 .2 0 .4-.1 0 0 0 .1-.1.2.2-.3.2-.1.3-.1 0-.1 0-.1.1-.2 0-.1-.1.2-.1 0V10c0-.1-.1.2-.1.1s.1-.1.1-.1 0-.1-.2.1c.1-.2 0 0 0-.2 0 .1 0 0-.1.2-.1-.1-.3 0-.4-.1-.2.3-.1-.1-.2 0-.2 0-.2 0-.2-.1l-.1.1c0-.4-.3-.2-.3-.4-.1-.2-.2-.5-.5-.1v-.1c-.1.1-.1-.1-.1 0-.2.2-.2-.1-.5.1-.1-.1-.3-.1-.4-.1v-.1c-.2.1-.1-.3-.3-.2 0-.2-.4.3-.4 0 .1-.4-.3.3-.2-.1.1-.6-.2-.3-.5 0-.1-.2-.4.2-.3-.2-.2.2 0-.4-.1-.3v.1c0-.2-.3.4-.2 0l-.1.2v-.1s-.1.2-.1.1c.1-.4-.1.1.1-.4 0 0 .1-.2.1-.3l-.1.2c-.1.2-.2.4-.2.5l.1-.1c-.1.2 0 .1-.1.2 0 0-.1.2-.1.3.1-.2 0-.1 0 0v.1c-.1.2.1-.3 0 0 .1-.1.1 0 .2 0 0-.1 0 0 .1-.2 0 .2 0 .3.1.3-.1.3.1-.3 0 .1.1-.3 0 .1.1-.2 0 .1 0 .1-.1.2 0 0 0 .1.1.2.1-.2 0 .1.2-.2 0 .1 0 .2.1.1 0 0 .1 0 .2-.2-.1.3-.1.3-.1.4l.2-.2c-.1.2.1-.1 0 .2.1-.4.2-.2.2.1.1-.1.2-.4.3-.5v.4c.1-.1 0 .2.1 0v.1-.1c0 .1-.1.2-.1.2.1.1.4-.2.6 0v.1l.1-.1v.1c0 .1.1 0 .1 0s0 .1-.1.1c.1-.2-.1.3.1-.1 0 0 0 .1-.1.1.1-.1.2-.1.3 0 .2-.3.2 0 .3-.2v.1c.2-.2.2.1.3.1h.1v.1c.2-.3 0 .4.2 0l-.2-.1c.1-.2 0 .1.1-.2v.1c.2-.4 0 .2.2 0v.1c0-.1.1-.1.1 0v.1c-.1.3.1 0 .2 0l-.1.1c.1-.2.1 0 .1 0v.1l.1-.1-.1.1c-.1-.1 0-.2.1-.2zM88.1 10.3zM83.8 9.3z"/></g><g><path class="st1" d="M99.4 16.2v-.1.1zM99.2 16.4l.2-.2c.1-.2-.3.3-.2.2zM99.2 16.3c0-.1-.1.1-.1.1.1-.1 0 .1.1-.1zM98.5 15.9z"/><path class="st1" d="M98 16.3l-.1.1c.2-.2.1 0 .1-.1l.1.1c.1.1.3 0 .4 0v.1l.1-.1v.1c-.1.2.1-.1 0 .1l.1-.1c.1 0 .2 0 .4-.1 0 0 0 .1-.1.1.3-.2.3-.1.3 0 .1-.1.1-.1.1-.2.1-.1-.2.2-.1 0l.1-.1c0-.1-.1.2-.1.1s.1-.1.1-.1c-.1 0 0-.1-.2.1l.1-.2-.1.1c0-.2-.3-.1-.3-.1-.3.3-.1-.1-.2-.1-.1.1-.1.1-.1 0l-.1.1c.1-.4-.2-.3-.3-.5-.1-.2-.1-.5-.5-.2v-.1c-.1 0 0-.1-.1-.1-.3.2-.2-.2-.5 0-.1-.1-.2-.2-.4-.2v-.1c-.2.1-.1-.3-.2-.3 0-.2-.4.2-.4 0 .1-.4-.4.3-.2-.1.2-.6-.1-.3-.4-.1 0-.3-.4.1-.3-.3-.2.2.1-.4 0-.3v.1c.1-.3-.3.3 0-.1.1-.2-.3.4-.2.2l-.1.1.1-.1s-.1.2-.1.1c.2-.4-.1.1.2-.4 0 0 .1-.2.2-.2l-.1.1c-.1.2-.2.3-.3.5l.1-.1c-.1.1 0 .1-.1.2 0 0-.1.2-.2.3.1-.2.1-.1.1 0v.1c-.1.2.2-.3 0 0h.2c.1-.1 0 0 .1-.2-.1.2-.1.3-.1.3-.2.3.2-.3 0 .1.2-.3 0 .1.2-.2 0 .1-.1.1-.1.2v.2c.2-.2 0 .1.2-.1 0 .1-.1.2 0 .1 0 0 .1 0 .2-.2-.5.3-.5.2-.5.3l.2-.2c-.1.1.1 0-.1.2.3-.3.3-.1.2.2.1-.1.2-.3.4-.5 0 0-.1.2 0 .2v.1c.1-.1-.1.2 0 0v.1l.1-.1c0 .1-.1.2-.1.1.1.2.5-.1.6.1v.1l.1-.1v.1c0 .1.1 0 .1 0l-.1.1c.1-.2-.1.3.1-.1l-.1.1c.2-.1.2 0 .2.1.3-.3.1.1.4-.2v.1c.2-.2.2.1.3.1h.1l-.1.1c.3-.3-.1.4.2.1l-.1.2c.1-.2 0 .1.2-.2l-.1.1c.3-.4 0 .2.2 0l-.1.1c.1 0 .1-.1.1 0-.2.3.1 0 .1.1l-.1.1c.1-.1.1 0 .1 0v.1h.2-.2.2zM98.4 16.4zM94.4 14.5z"/></g><g><path class="st1" d="M108.3 24.4v-.1l-.1.1zM108.1 24.5s-.1.1 0 0l.2-.2-.2.2zM108.1 24.5c.1-.1-.1 0-.1.1l.1-.1zM107.4 23.9s.1 0 0 0c.1 0 .1 0 0 0zM106.9 24.2c.1 0 0 .2.1.1 0 .1.3 0 .4 0h-.1l.1-.1h-.1c-.1.2.2 0 0 .1l.1-.1c.1 0 .2.1.4 0l-.1.1c.3-.2.3 0 .3.1l.1-.1c.1-.1-.2.1-.1 0l.1-.1c0-.1-.2.2-.1.1l.1-.1c-.1 0 0-.1-.2 0 .1-.1 0 0 .1-.2-.1 0-.1 0-.2.1 0-.2-.2-.1-.3-.2-.3.2 0-.1-.2-.1-.1 0-.1.1-.1 0l-.1.1c.1-.3-.1-.3-.2-.5s0-.5-.5-.3h.1c-.1 0 0-.1-.1-.1-.3.1-.1-.2-.5-.1-.1-.1-.2-.2-.4-.3l.1-.1c-.2 0 0-.3-.2-.3 0-.2-.5.1-.4-.1.2-.3-.4.2-.2-.1.3-.5-.1-.4-.4-.2 0-.2-.4 0-.2-.4-.2.2.1-.3 0-.3l-.1.1c.2-.2-.3.2 0-.1.1-.2-.4.3-.2.2l-.1.1.1-.1-.1.1c.3-.3-.1 0 .2-.3l.2-.2-.1.1-.4.4.1-.1-.1.1s-.2.2-.2.3c.1-.1.1 0 .1 0l-.1.1c-.1.1.3-.2 0 0h.2c.1-.1 0 0 .2-.1-.2.2-.2.3-.2.3-.2.3.2-.2 0 .1.2-.2 0 .1.2-.1l-.1.1v.2c.2-.2 0 .1.2-.1 0 .1-.1.2 0 .1 0 0 .1 0 .3-.1-.2.3-.2.2-.2.3.1-.1.1 0 .3-.1-.1.1.1 0-.1.1.4-.2.4 0 .2.3l.4-.4s-.1.2-.1.1l-.1.1c.1-.1-.1.2 0 0l.1-.1-.1.1c.1.2.5 0 .5.2h-.1l.1-.1-.1.1c-.1.1.1 0 .1.1l-.1.1c.2-.1-.2.2.2-.1l-.1.1c.2 0 .2 0 .2.1.3-.2.1.1.4-.1l-.1.1c.3-.1.1.2.2.2 0 .1.1 0 .1 0l-.1.1c.3-.2-.1.3.2.1l-.1.1c.2-.1 0 .1.2-.2l-.1.1c.4-.3-.1.2.2 0l-.1.1c.1 0 .1-.1.1 0-.2.3.1.1.1.1l-.1.1c.2-.1.1 0 .1 0h-.1l.1-.1-.1.1c.4.4.5.3.6.4zM107.3 24.4zM103.7 21.7z"/></g><g><path class="st1" d="M115.4 34.2v-.1l-.1.1z"/><path class="st1" d="M115.1 34.3l.3-.1c.1-.2-.4.1-.3.1zM115.1 34.2c.1 0-.1 0-.1.1l.1-.1zM114.6 33.6z"/><path class="st1" d="M114 33.7l-.1.1c.2-.1 0 .1.2.1 0 .1.3.1.4.1h-.1s.1-.1.1 0h-.1c-.2.1.2 0 0 .1 0 0 .1-.1.2-.1s.2.1.4.1c0 0-.1 0-.1.1.3-.1.3 0 .3.1.1 0 .1-.1.2-.1.1-.1-.2.1-.1 0h.1s-.2.1-.1 0c.1 0 .1-.1.1-.1-.1 0 0-.1-.2 0 .2-.1 0 0 .1-.1-.1 0-.1 0-.2.1 0-.2-.2-.2-.3-.3-.4.1 0-.1-.2-.1h-.1l-.2.1c.2-.3-.1-.3-.1-.5s.1-.5-.4-.4h.1c-.1 0 0-.1-.1-.1-.3.1-.1-.2-.4-.1 0-.1-.2-.3-.3-.3h.1c-.2 0 .1-.3-.1-.4.1-.2-.5 0-.4-.2.3-.3-.4.1-.2-.2.4-.4 0-.4-.3-.3.1-.2-.4 0-.1-.4-.3.1.2-.3.1-.3l-.1.1c.2-.2-.4.2 0-.1.2-.1-.4.3-.2.1l-.1.1.1-.1s-.2.1-.1.1c.4-.2-.1 0 .3-.3l.2-.2-.2.1c-.2.1-.3.2-.5.3l.1-.1c-.1.1-.1 0-.2.1 0 0-.2.2-.3.2.2-.1.1 0 .1 0l-.1.1c-.2.1.3-.2 0 0 .1 0 .1 0 .1.1.1-.1 0 0 .2-.1l-.2.2c-.3.2.3-.2-.1.1.2-.2-.1.1.2-.1-.1 0-.1.1-.1.1v.2c.2-.1-.1.1.3-.1-.1.1-.2.2 0 .1 0 0 .1 0 .3-.1-.3.2-.2.2-.3.3.1-.1.1 0 .3-.1-.1.1.1 0-.1.1.4-.2.4 0 .1.3.1-.1.4-.2.5-.3l-.1.1h-.1c.1 0-.1.1 0 .1h-.1.1c-.1 0-.2.1-.1.1 0 .2.5.1.5.3h-.1 0c-.1.1.1 0 .1.1l-.1.1c.2-.1-.2.2.2 0l-.1.1c.2 0 .2.1.2.2.4-.2.1.1.4 0h-.1c.3-.1.1.2.2.2 0 .1.1 0 .1.1l-.1.1c.4-.1-.2.3.2.1l-.1.1c.2-.1 0 .1.3-.1l-.1.1c.4-.2-.1.2.2.1h-.1 0c-.3.2.1.1.1.1l-.1.1c.2-.1.1.1.1 0h-.1.1l-.1.1c.2-.1.3-.1.3-.1zM114.4 34zM111.4 30.7z"/></g><g><path class="st1" d="M120.3 45.2h.1-.1zM120.1 45.2c-.1 0-.1.1 0 0l.3-.1c.1 0-.5.2-.3.1z"/><path class="st1" d="M120.1 45.2h-.1c.1 0-.1.1.1 0zM119.7 44.5z"/><path class="st1" d="M119.1 44.5h-.1c.2 0 0 .1.1.1 0 .1.2.1.4.2h-.1 0c-.2.1.2 0 0 .1 0 0 .1 0 .2-.1.1.1.2.1.3.2 0 0-.1 0-.2.1.4 0 .3.1.2.2.1 0 .1 0 .2-.1s-.2 0-.1 0h.1s-.2.1-.1 0h.1s0-.1-.2 0l.2-.1h-.2c.1-.1-.2-.2-.2-.3-.4.1 0-.1-.1-.2H119.3c.3-.3 0-.3.1-.5 0-.2.2-.4-.3-.4h.1c-.1 0 0-.1-.1-.1-.3 0 0-.2-.4-.2 0-.1-.1-.3-.2-.4h.1c-.2-.1.1-.3 0-.4.1-.2-.5-.1-.3-.3.3-.2-.5 0-.1-.2.5-.4.1-.3-.3-.4.1-.2-.4-.1-.1-.4-.3 0 .3-.3.2-.3h-.1c.3-.1-.4.1 0-.1.2-.1-.5.2-.2.1h-.1s.1 0 .1-.1c0 0-.2.1-.1 0 .4-.2-.1 0 .3-.2 0 0 .2-.1.3-.1h-.2c-.2.1-.4.2-.5.2l.1-.1c-.1.1-.1 0-.2.1 0 0-.2.1-.3.2.2-.1.1 0 .1 0h-.1c-.2.1.3-.1 0 0 .1 0 .1.1.1.1.1 0 0 0 .2-.1-.2.1-.3.2-.3.2-.3.2.3-.1-.1.1.3-.1-.1.1.3 0-.1 0-.1.1-.2.1 0 0-.1.1-.1.2.3-.1-.1.1.3 0-.1.1-.2.1 0 .1 0 0 .1.1.3 0-.3.1-.2.1-.3.2h.3c-.1.1.1 0-.1.1.4-.1.3.1.1.3.1 0 .4-.1.5-.2h-.1s-.2.1-.1.1h-.1c.1 0-.2.1 0 .1h-.1.1c-.1 0-.2.1-.2.1 0 .2.4.2.4.4h-.1 0c-.1.1.1 0 .1.1 0 0-.1 0-.1.1.2 0-.2.1.2 0 0 0-.1 0-.1.1.2 0 .2.1.2.2.4-.1.1.1.4.1h-.1c.3 0 .1.2.1.3 0 0 .1 0 .1.1h-.1c.4-.1-.3.3.1.2h-.1c.2-.1-.1.1.3-.1h-.1c.5-.1-.2.2.1.1h-.1 0c-.3.2.1.1.1.1h-.1c.2 0 0 .1.1.1h-.1.1-.1c.1.2.3.2.3.3zM119.4 44.8zM117.1 41s.1 0 0 0z"/></g><g><path class="st1" d="M123 57h-.1zM122.7 57s-.1 0 0 0h0zM122.7 57h-.1.1zM122.5 56.2zM121.9 56h-.1c.2 0 0 .1.1.1 0 .1.2.2.3.3h-.1 0c-.2.1.1 0 0 .1h.2c.1.1.1.2.3.2h-.2c.4 0 .2.1.2.2h.2c.1 0-.2 0-.1-.1h.1s0-.1-.2-.1c.2 0 0 0 .2-.1h-.2c.1-.1-.1-.2-.1-.3-.4 0 .1-.1-.1-.2-.1 0-.1 0-.1-.1h-.2c.3-.2 0-.3.2-.5.1-.2.3-.4-.2-.5h.1c-.1 0 0-.1 0-.1-.3-.1 0-.3-.4-.3 0-.1 0-.3-.2-.4h.1c-.2-.1.2-.3.1-.4.2-.2-.5-.2-.3-.3.4-.1-.4-.1-.1-.2.5-.3.2-.3-.2-.4.2-.2-.4-.2 0-.4-.3 0 .3-.2.2-.2h-.1c.3-.1-.4 0 0-.1.2-.1-.5.1-.3 0h-.1.1c.4-.1-.1 0 .4-.1 0 0 .2-.1.3-.1h-.2c-.2 0-.4.1-.6.1h.2-.2s-.2.1-.3.1h.1-.1c-.2 0 .4 0 0 0 .1 0 .1.1.1.1h.2l-.3.1s-.1 0 0 0c-.3.1.3 0-.1.1.3-.1-.1.1.3 0h-.2l-.1.1c.3 0-.1.1.3.1-.1 0-.2.1-.1.1 0 0 .1.1.3.1-.3.1-.3.1-.4.1.2 0 .1 0 .3.1-.2 0 .1 0-.2.1.5 0 .3.2 0 .3.1 0 .4 0 .6-.1h-.1s-.2.1-.1.1h-.1c.1 0-.2.1 0 .1h-.1.1-.2c0 .2.4.3.3.5h-.1 0c-.1.1.1.1.1.1h-.2c.2 0-.3.1.2 0h-.2c.2.1.2.1.1.2.4 0 .1.1.4.2h-.1c.3.1 0 .2.1.3l.1.1h-.1c.4 0-.3.2.1.2h-.1c.2 0-.1.1.3 0h-.1c.5 0-.2.1.1.1h-.1c.1 0 .1 0 0 0h-.1c-.3.1.1.1 0 .2h-.2c.2 0 0 .1.1.1h-.1.1-.1c.4.4.6.4.6.4zM122.1 56.5zM120.7 52.2z"/></g><g><path class="st2" d="M26.6 72.9l5.1 13h-1.9L28.3 82h-5.5l-1.5 3.9h-1.8l5.1-13h2zm1.2 7.6l-2.2-6.1-2.2 6.1h4.4zM39.9 85.9v-1.3c-.3.5-.7.9-1.2 1.1-.5.2-1.1.3-1.8.3s-1.4-.1-1.9-.4c-.5-.3-1-.6-1.3-1.1-.4-.4-.6-1-.8-1.6-.2-.6-.3-1.2-.3-1.9s.1-1.3.3-1.9c.2-.6.4-1.1.8-1.6.4-.4.8-.8 1.3-1.1.5-.3 1.2-.4 1.9-.4.2 0 .5 0 .8.1.3 0 .6.1.8.2.3.1.5.3.8.5.2.2.5.4.6.7v-4.8h1.5v13h-1.5zm-5.6-3.4c.1.4.3.8.5 1.1.2.3.5.6.9.8.4.2.8.3 1.3.3s1-.1 1.3-.3c.4-.2.7-.5.9-.8.2-.3.4-.7.5-1.1.1-.4.2-.9.2-1.3 0-.5-.1-.9-.2-1.3s-.3-.8-.5-1.1c-.2-.3-.5-.6-.9-.8-.4-.2-.8-.3-1.4-.3-.5 0-1 .1-1.3.3-.4.2-.7.5-.9.8-.2.3-.4.7-.5 1.2-.1.4-.1.9-.1 1.3.1.4.1.8.2 1.2zM45.2 88.9c-.4.4-1 .6-1.6.6-.3 0-.5 0-.8-.1v-1.3H43.4c.3 0 .6-.1.7-.3.1-.2.2-.5.2-1V76.5h1.5v10.6c0 .8-.2 1.4-.6 1.8zm-.9-14.1v-1.9h1.5v1.9h-1.5zM54.9 85.9v-1.5c-.3.6-.7 1-1.3 1.3-.5.3-1.1.4-1.8.4-.6 0-1.1-.1-1.5-.2-.4-.2-.7-.4-1-.7-.3-.3-.4-.7-.5-1.1-.1-.4-.2-.9-.2-1.4v-6.2h1.5v6.4c0 .6.2 1 .5 1.4.3.3.8.5 1.4.5.5 0 .9-.1 1.2-.2.3-.1.6-.4.9-.6.2-.3.4-.6.5-.9.1-.4.2-.7.2-1.2v-5.3h1.5V86h-1.4zM60.3 83.8c.1.2.3.4.6.6.2.1.5.2.8.3.3.1.6.1.9.1.2 0 .5 0 .8-.1.3 0 .5-.1.7-.2.2-.1.4-.2.6-.4.1-.2.2-.4.2-.7 0-.4-.2-.7-.5-.9-.3-.2-.7-.4-1.1-.5l-1.5-.3c-.5-.1-1-.2-1.5-.4s-.8-.5-1.1-.8c-.3-.3-.5-.8-.5-1.4 0-.5.1-.9.3-1.2.2-.3.5-.6.8-.8.3-.2.7-.4 1.1-.5.4-.1.8-.2 1.2-.2.5 0 1 0 1.5.1.4.1.8.2 1.2.5.3.2.6.5.8.9.2.4.3.9.4 1.4h-1.5c0-.3-.1-.6-.2-.8-.1-.2-.3-.4-.5-.5-.2-.1-.4-.2-.7-.3-.2-.1-.5-.1-.8-.1-.2 0-.5 0-.7.1-.2 0-.5.1-.6.2-.2.1-.4.2-.5.4-.1.2-.2.4-.2.6 0 .3.1.5.3.7.2.2.4.3.7.4.3.1.6.2 1 .3.4.1.7.2 1.1.2.4.1.8.2 1.1.3.4.1.7.3 1 .5.3.2.5.5.7.8.2.3.3.7.3 1.1 0 .6-.1 1-.4 1.4-.2.4-.5.7-.9.9-.4.2-.8.4-1.3.5-.5.1-1 .1-1.4.1-.5 0-1-.1-1.5-.2s-.9-.3-1.3-.5-.7-.6-.9-1c-.2-.4-.3-.9-.4-1.5H60c.1.4.1.7.3.9zM72.6 76.5v1.4h-1.9v6.2c0 .1.1.2.2.3.1.1.2.1.4.1H72.6v1.4h-1.2c-.4 0-.7 0-1-.1-.3-.1-.5-.2-.7-.3-.2-.1-.3-.4-.4-.6-.1-.3-.1-.6-.1-1.1v-6h-1.6v-1.4h1.6v-2.8h1.5v2.8h1.9zM81.9 86.1c-.4 0-.7-.1-1-.3-.2-.2-.4-.6-.4-1.1-.4.5-.9.9-1.5 1.1-.6.2-1.2.3-1.8.3-.4 0-.8 0-1.2-.1-.4-.1-.7-.2-1-.5-.3-.2-.5-.5-.7-.8-.2-.3-.2-.7-.2-1.2s.1-1 .3-1.3c.2-.3.4-.6.7-.8.3-.2.6-.4 1-.5l1.2-.3c.4-.1.8-.1 1.2-.2.4 0 .7-.1 1-.2.3-.1.5-.2.7-.3.2-.2.3-.4.3-.7 0-.3-.1-.6-.2-.8-.1-.2-.3-.4-.5-.5-.2-.1-.4-.2-.7-.2-.2 0-.5-.1-.7-.1-.7 0-1.2.1-1.6.4-.4.2-.7.7-.7 1.4h-1.5c0-.6.1-1.1.4-1.5.2-.4.5-.7.9-1 .4-.2.8-.4 1.3-.5.5-.1 1-.2 1.5-.2.4 0 .8 0 1.3.1.4.1.8.2 1.1.4.3.2.6.5.8.8.2.3.3.8.3 1.3v4.8c0 .4 0 .6.1.8 0 .2.2.3.4.3.1 0 .3 0 .5-.1v1.2c-.5.2-.8.3-1.3.3zm-2.2-4.8c-.3.1-.6.1-1 .2-.3 0-.7.1-1 .1-.4.1-.7.1-.9.3-.3.1-.5.3-.7.5-.2.2-.3.5-.3.9 0 .3.1.5.2.6.1.2.2.3.4.4.2.1.4.2.6.2.2 0 .5.1.7.1.5 0 .9-.1 1.3-.2s.7-.3.9-.5c.2-.2.4-.4.5-.7.1-.2.2-.5.2-.7V81c-.3.2-.6.3-.9.3zM86.4 72.9v4.9c.3-.5.7-.9 1.2-1.1.5-.2 1.1-.4 1.8-.4s1.4.1 1.9.4c.5.3 1 .6 1.3 1.1.4.5.6 1 .8 1.6.2.6.3 1.2.3 1.9s-.1 1.3-.3 1.9c-.2.6-.4 1.1-.8 1.6-.4.4-.8.8-1.3 1-.5.3-1.2.4-1.9.4-.2 0-.5 0-.8-.1-.3 0-.6-.1-.8-.2-.3-.1-.5-.3-.8-.4-.2-.2-.5-.4-.6-.7v1.3h-1.5v-13h1.5zm5.6 6.9c-.1-.4-.3-.8-.5-1.1-.2-.3-.5-.6-.9-.8-.4-.2-.8-.3-1.3-.3s-1 .1-1.3.3c-.4.2-.7.5-.9.8-.2.3-.4.7-.5 1.1-.1.4-.2.9-.2 1.3 0 .5.1.9.2 1.3s.3.8.5 1.1c.2.3.5.6.9.8.4.2.8.3 1.4.3.5 0 1-.1 1.3-.3.4-.2.6-.5.9-.8.2-.3.4-.7.5-1.2s.1-.9.1-1.3c-.1-.3-.1-.8-.2-1.2zM97.6 72.9v13h-1.5v-13h1.5zM107 85.3c-.7.5-1.6.8-2.7.8-.8 0-1.4-.1-2-.4-.6-.2-1-.6-1.4-1-.4-.4-.7-1-.8-1.6-.2-.6-.3-1.3-.3-2s.1-1.4.3-2c.2-.6.5-1.1.9-1.5.4-.4.9-.8 1.4-1 .5-.2 1.1-.4 1.8-.4.8 0 1.5.2 2.1.5.6.3 1 .8 1.3 1.3.3.5.6 1.1.7 1.7.1.6.2 1.2.2 1.8h-7c0 .4 0 .8.1 1.2.1.4.3.7.5 1 .2.3.6.5.9.7.4.2.8.3 1.3.3.7 0 1.2-.2 1.6-.5.4-.3.7-.8.8-1.4h1.5c0 1.2-.5 2-1.2 2.5zm-.3-6.1c-.1-.3-.3-.6-.6-.8-.2-.2-.5-.4-.8-.6-.3-.1-.7-.2-1.1-.2-.4 0-.8.1-1.1.2-.3.1-.6.3-.8.6-.2.2-.4.5-.5.8-.1.3-.2.7-.2 1h5.4c-.1-.3-.2-.6-.3-1zM52.2 105.5l-3-10.9-3 10.9h-1.8l-3.3-13h1.8l2.5 10.8 2.9-10.8h1.9l2.9 10.8 2.6-10.8h1.7l-3.5 13h-1.7zM66.5 105.7c-.4 0-.7-.1-1-.3-.2-.2-.4-.6-.4-1.1-.4.5-.9.9-1.5 1.1-.6.2-1.2.3-1.8.3-.4 0-.8 0-1.2-.1-.4-.1-.7-.2-1-.5-.3-.2-.5-.5-.7-.8-.2-.3-.2-.7-.2-1.2s.1-1 .3-1.3c.2-.3.4-.6.7-.8.3-.2.6-.4 1-.5l1.2-.3c.4-.1.8-.1 1.2-.2.4 0 .7-.1 1-.2.3-.1.5-.2.7-.3.2-.2.3-.4.3-.7 0-.3-.1-.6-.2-.8-.1-.2-.3-.4-.5-.5-.2-.1-.4-.2-.7-.2-.2 0-.5-.1-.7-.1-.7 0-1.2.1-1.6.4-.4.2-.7.7-.7 1.4h-1.5c0-.6.1-1.1.4-1.5.2-.4.5-.7.9-1 .4-.2.8-.4 1.3-.5.5-.1 1-.2 1.5-.2.4 0 .8 0 1.3.1.4.1.8.2 1.1.4.3.2.6.5.8.8.2.3.3.8.3 1.3v4.8c0 .4 0 .6.1.8 0 .2.2.3.4.3.1 0 .3 0 .5-.1v1.2c-.5.2-.9.3-1.3.3zm-2.2-4.7c-.3.1-.6.1-1 .2-.3 0-.7.1-1 .1-.4.1-.7.1-.9.3-.3.1-.5.3-.7.5-.2.2-.3.5-.3.9 0 .3.1.5.2.6.1.2.2.3.4.4.2.1.4.2.6.2.2 0 .5.1.7.1.5 0 .9-.1 1.3-.2s.7-.3.9-.5c.2-.2.4-.4.5-.7.1-.2.2-.5.2-.7v-1.6c-.3.2-.6.3-.9.4zM69.5 94.4v-1.9H71v1.9h-1.5zm1.5 1.7v9.4h-1.5v-9.4H71zM75 103.4c.1.2.3.4.6.6.2.1.5.2.8.3.3.1.6.1.9.1.2 0 .5 0 .8-.1.3 0 .5-.1.7-.2.2-.1.4-.2.6-.4.1-.2.2-.4.2-.7 0-.4-.2-.7-.5-.9-.3-.2-.7-.4-1.1-.5l-1.5-.3c-.5-.1-1-.2-1.5-.4s-.8-.5-1.1-.8c-.3-.3-.5-.8-.5-1.4 0-.5.1-.9.3-1.2.2-.3.5-.6.8-.8.3-.2.7-.4 1.1-.5.4-.1.8-.2 1.2-.2.5 0 1 0 1.5.1.4.1.8.2 1.2.5.3.2.6.5.8.9.2.4.3.9.4 1.4h-1.5c0-.3-.1-.6-.2-.8-.1-.2-.3-.4-.5-.5-.2-.1-.4-.2-.7-.3-.2-.1-.5-.1-.8-.1-.2 0-.5 0-.7.1-.2 0-.5.1-.6.2-.2.1-.4.2-.5.4-.1.1-.2.3-.2.5 0 .3.1.5.3.7.2.2.4.3.7.4.3.1.6.2 1 .3.4.1.7.2 1.1.2.4.1.8.2 1.1.3.4.1.7.3 1 .5.3.2.5.5.7.8.2.3.3.7.3 1.1 0 .6-.1 1-.4 1.4-.2.4-.5.7-.9.9-.4.2-.8.4-1.3.5-.5.1-1 .1-1.4.1-.5 0-1-.1-1.5-.2s-.9-.3-1.3-.5-.7-.6-.9-1c-.2-.4-.3-.9-.4-1.5h1.5c.2.5.2.8.4 1zM87.3 96.1v1.4h-1.9v6.2c0 .1.1.2.2.3.1.1.2.1.4.1H87.3v1.4h-1.2c-.4 0-.7 0-1-.1-.3-.1-.5-.2-.7-.3-.2-.1-.3-.4-.4-.6-.1-.3-.1-.6-.1-1.1v-6h-1.6V96h1.6v-2.8h1.5V96h1.9z"/></g><g><path class="st3" d="M60.3 49.6c.3.5 18.5-11.4 18.8-10.9.3.5-18.6 11.7-18.3 12.1.3.5 17.8-11 18.1-10.5.3.5-18.3 11.6-18.1 12 .2.4 18.4-11.2 18.6-10.8.3.5-18.2 11.4-17.9 11.9.3.5 17.8-11 18.1-10.5.3.4-18.3 11.5-18 12 .3.4 18.2-11.1 18.5-10.7.3.5-18 11.3-17.7 11.8.2.4 17.3-10.6 17.6-10.1.3.5-17.5 11.1-17.2 11.5.2.7 17.7-10.4 18-10 .3.5-18 11.4-17.7 11.8.2.4 17.4-10.7 17.7-10.2.3.5-17.5 11.1-17.3 11.5.2.4 17.6-10.8 17.9-10.3.2.4-17.8 11.2-17.5 11.7.3.5 17.7-10.9 18-10.4.2.4-14 9.2-13.8 9.6.2.3 13.6-8.4 13.8-8 .1.2-10.2 7.2-10.1 7.4.1.2 10.4-6.3 10.6-6.1.1.2-6.2 5-6.1 5.2.1.1 5.9-3.7 6-3.5 0 0-.3 1.7-.3 1.8l1.2-.7"/><path class="st3" d="M46.9 21.6l.4-.2c0 .1-1.6 2.4-1.6 2.5 0 .1 4-2.4 4-2.3.1.1-4.4 4-4.3 4.1.1.2 7-4.2 7.1-4.1.1.2-7.9 5.9-7.8 6.1.1.2 10.5-6.4 10.6-6.1.2.3-11.7 7.9-11.5 8.2.2.3 13.4-8.2 13.6-7.9.2.4-14 9.1-13.8 9.5.2.4 15.5-9.5 15.8-9.1.2.3-16.5 10.5-16.3 11 .3.6 19.6-12 19.9-11.5.2.4-21 13-20.6 13.5.4.7 23.7-14.4 24-13.8.4.7-24.6 15.1-24.3 15.7.4.6 26.8-16.2 27.1-15.6.4.6-28 16.7-27.5 17.5.5.8 30.2-18.6 30.7-17.7.3.6-31.4 18.6-30.9 19.4.4.7 31.9-19.6 32.4-18.7.5.8-33.4 19.6-32.9 20.5.5.9 33-20.2 33.5-19.3.4.7-34.8 20.4-34.2 21.4.4.7 34.3-20.8 34.7-20 .4.7-35.3 20.7-34.8 21.6.5.9 34.9-21.3 35.4-20.4.5.9-36.2 21.4-35.7 22.2.5.8 35.2-21.4 35.6-20.6.5.9-37 21.8-36.5 22.6.5 1 36.9-22.4 37.4-21.6.6 1-38.2 22.2-37.6 23.3.5.9 37.1-22.5 37.6-21.7.5.8-38.6 22.7-38 23.6.7 1.2 38.1-23.4 38.7-22.3.6 1.1-39.4 22.9-38.8 24 .5.9 38.5-23.3 38.9-22.5.6 1-40.1 23.4-39.5 24.4.6 1 39.4-23.9 39.9-23C78.2 35 38.5 57.2 39 58c.5.9 38.5-23.7 39.1-22.6.4.8-37.5 22-36.9 23 .6 1.1 36.8-22.7 37.4-21.6.5.9-36.4 21.4-35.8 22.3.4.8 35.5-21.4 35.9-20.7.6 1-34.4 20.2-33.8 21.1.2.3 14.9-9.1 15.1-8.7.2.4-13.3 8.8-13.1 9.1.2.3 12-7.4 12.2-7.1.2.3-10.2 7.1-10.1 7.4.1.2 9.3-5.7 9.5-5.5.1.2-7.6 5.7-7.5 5.9.1.2 6.8-4.1 6.9-4 .1.1-5.1 4.4-5 4.5.1.1 4.4-2.7 4.5-2.6 0 .1-2 2.7-2 2.7s1.4-.9 1.4-.8"/><path class="st4" d="M37.3 57.4l.1-.1v-.2zM37.5 56c0 .1 0 0 0 0l-.1.9c.2-.3 0-.7.1-.9zM37.6 55.8c.1-.3.1-.4.1-.5 0 .1-.2.6-.1.5zM43.5 29.6s0 .1 0 0z"/><path class="st4" d="M45.4 22.9c-.1.6-.4 1.2-.6 1.9-.3.7-.5 1.3-.8 2v-.1c-.6 1.6-1 3.3-1.3 5-.3 1.6-.8 3.3-1.2 5v-.1c0 .2 0 .4-.1.5V37c-.3.7-.3 2.1-.5 2.6 0 .2 0 .3.1.2-.3 1.3-.6 2.7-.9 4.1-.3 1.4-.5 2.8-.8 4.1 0 .1-.1.1-.1.1-.3 2.2-.8 4.5-1.4 6.8l-.1.3c0 .1.1-.2.1 0 0-.1.1-.2.1-.3.1-.6.1-1.2.3-1.7v.1c.1-.5-.1-.1.1-.6.1-.2 0 .1.1 0 .2-1.1.5-2.2.6-3.2.1-.2.3-1.1.5-1.5 0-.3.1-.6 0-.7.2-.9.4-1.9.6-2.8.2-.9.5-1.9.7-2.8.4-1.9.7-3.9 1.2-5.7.1-.9.4-1.9.7-2.9.3-1 .5-2.1.7-3.2.1-.7.4-1.7.7-2.5l.2-.7.7-1.8c.1-.3.2-.6.4-.9l.3-.9c.2-.6.3-1.3.8-1.5.2-.1.5 0 .8 0h1c1.3 0 2.6.1 3.9.1 1.3.1 2.6-.1 3.8.2.7.2 1.4.4 2.1.5.4.1.8 0 1.1 0 .3-.1.7-.1 1-.2 1.4-.2 2.7-.4 4.1-.4 1.4 0 2.7-.1 4.1-.2.7 0 1.4-.1 2.1-.1.7 0 1.4-.1 2.1 0h-.1c.8 0 .8 1 1 1.7.3.8.5 1.5.8 2.2.4.9.8 1.8 1.1 2.7.3.9.6 1.9.8 2.9.5 1.9.8 3.9 1.4 5.7.5 2.2 1 4.6 1.5 7 .5 2.4.9 4.9 1.7 7.1.4 1.1.6 2.2.8 3.3.1.6.2 1.1.2 1.7 0 .6.4 1.2.4 1.6-.2.1-.7.2-1 .3-.4.1-.7.2-1.1.2-.8.1-1.5.4-2.2.7-.9.3-1.9.4-2.9.8l-1.5.3c-.5.1-1 .3-1.5.4-2 .5-4 .5-6 1-.6.1-1.3.3-1.9.4l-.5.1h-.2c-.1 0-.1-.1-.1-.2-.1-.3-.3-.6-.3-1-.1-.7-.4-1.3-.6-2-.2-.6-.4-1.2-.5-1.8-.3-1.2-.6-2.3-.9-3.4l-.5-1.7-.6-1.9-.2-.6c0-.2-.1 0-.1.1l-.1.3c-.1.3-.3.7-.4 1-.2.6-.3 1.1-.4 1.7-.1.6-.2 1.2-.4 1.7-.2.6-.5 1.1-.6 1.7-.4 1-.7 2-.9 3.1-.3 1.1-.6 2.1-.9 3.2-.2-.1-.3-.1-.5-.2s-.3-.1-.4-.1c-.3-.1-.5-.1-.8-.2l-1.6-.2c-1.1-.2-2.2-.4-3.2-.7-2-.3-4.2-.8-6.3-1.4l.1.1c-.7-.3-1.7-.4-2.2-.7h.1c-.4-.2-1 .1-1.2-.1h-.1c-.5-.1 0-.1-.4-.2-.1 0-.1.1-.4 0 0-.2-1.2-.3-1.2-.6.3.1-.4-.2.2-.1-.3-.1-1-.4-1-.3-.1.1-.5 0 0 .3h.1c.1.1.1.1.1.2.7.3.7.4 1.2.6.3 0 .8.2 1 .3l.1.1c.1.1.8 0 .6.1.7.1 1.3.3 2.1.6.7.2 1.5.4 2.3.6.2 0 1.2.2.9.1.4.2 1.5.4 1.9.5h-.1c.8.3 1 0 1.7.4.2-.1 1.4.3 1.9.2l.1.1c.7.1 1.4.3 2.2.4.7.1 1.4.2 1.9.3.1 0 .2 0 .4.1.3.1.5.2.8.3.2-.6.3-1.2.5-1.7.1-.4.2-.8.2-1.2.2-.7.6-1.8.8-2.8v.1c.2-.5.3-1.1.6-1.7.2-.5.4-1.1.5-1.5.3-.3.4-.8.5-1.3 0-.4.2-.9.3-1.5l.1-.2v-.1V50.7s.1.3 0 .3c.6 1.5 1.2 3.3 1.7 5 .3.9.5 1.8.7 2.7.1.5.2.9.3 1.3.1.4.1.9.3 1.4 0 .1.1.1.1.2s.1.2.2.3l.2.3c.1 0 .2 0 .3-.1.1 0 .2-.1.3-.1l.2-.1c.1 0 .2-.1.3-.1h-.1l1.8-.3-.1.1c.6-.2 1.2-.2 1.9-.4l.4-.1s0 .1-.2.1c1.2-.2 2.4-.3 3.6-.5.6-.1 1.2-.3 1.8-.4.6-.1 1.2-.2 1.8-.4.6-.2 1.1-.3 1.8-.5.6-.1 1.2-.4 1.8-.6.6-.2 1.1-.4 1.8-.4l.9-.3.4-.2c.1 0 .4-.1.6-.2 0-.2-.1-.5-.1-.7l-.2-.5c-.1-.3-.1-.6-.2-1l.1.2-.2-1.1s0 .1.1.1c-.1-1.4-.6-2.8-.9-4.1 0 0 .1.2.1 0-.4-.9-.3-1.6-.6-2 0 0 0-.1.1 0-.4-1.3-.6-2.7-.9-4.1-.3-1.4-.6-2.8-.9-4.1-.4-1.1-.6-2.3-.9-3.5l-.9-3.6c-.4-1.5-.8-3.1-1.2-4.7-.5-1.6-1.1-3.1-1.7-4.6l-.3-.9c-.1-.3-.1-.6-.2-.8-.1-.3-.2-.6-.4-.8-.3-.4-.6-.5-1-.5v-.1c-2.3.1-4.8-.1-7.2.2l.2-.1c-.4.1-1.4 0-1.3.2h-.4c-1.6.4-2.9.3-4.9.7h.1c-.5.1-1.1 0-1.5-.2h.2c-.8-.3-1.6-.6-2.5-.6-.9 0-1.8.1-2.7.1l.2-.1c-.8.1-2.4-.1-3.5 0h.1-.6V21h-1.1c-.3 0-.7-.2-1.1 0-.4.2-.6.5-.6.9-.1.3-.2.6-.3 1zM41.5 36.9s0-.1 0 0c0-.1 0-.1 0 0z"/><path class="st4" d="M38.6 58.2c-.1 0-.1 0-.2-.1 0 .1.1.1.2.1zM60.1 49.3h.1l-.1-.1z"/><path class="st4" d="M60 49.1s-.1 0 0 0l.1.1c.1-.1-.2-.1-.1-.1zM60 49s-.1 0 0 0zM59.7 44.6zM59.2 43.5c.1.2 0 .5.1.7 0 .6.2 1.1.3 1.7 0 0 .1 0 .1.1-.1.1.1.3 0 .4h.1c.1.5.2.9.2 1.4h-.1c.2.4.1.8.1 1.2h.1c.1-.1-.1-.2 0-.3 0-.1-.1 0-.1-.1h.1c0-.2 0-.4-.1-.5.1 0 0-.2.1-.3 0 0 0-.1-.1-.1.1-.7-.2-1.3-.2-1.9-.2-.3 0-.7-.1-1-.1-.1-.1-.3-.1-.4l-.1-.1c.1-.9-.2-1.7-.2-2.6v-1.3c0-.5 0-.9-.2-1.4-.1-.3 0-.5 0-.8-.2-.6 0-1.3-.2-1.9 0-.7.1-1.6.1-2.4 0-.6.2-1.2.1-1.9.1-.7-.3-1.3-.3-2 .1-.4-.4-.9-.2-1.3.2-.8.1-1.5-.1-2.3.1-.7-.2-1.4-.1-2.1-.2-.3.1-.7 0-1.1.1-.1-.2-.3 0-.4.1-.1-.3-.2-.1-.2h-.1c0-.1.1 0 .1-.1 0 0-.1 0-.1-.1.2 0 0-.2.2-.2 0 0 .1 0 .1.1 0 0 .1-.1-.1-.2-.1 0-.2-.1-.3-.1h.1-.1c0 .1-.2.1-.2.2.1.1 0 .1 0 .2-.1 0 .2.2 0 .1 0 .3 0 .5.1.8.1 0 0 .2.1.1-.1.1-.1.3-.1.4-.2.2.2.1 0 .3.2 0 0 .2.2.3h-.1v.7c.2.1 0 .4.2.5 0 .1-.1.3 0 .5 0 .2 0 .4.1.5-.2.1-.1.1-.2.2.1.1.1.4.1.6-.1 0 0 .2-.1.2.2.6.3 1.2.2 1.8.1.1.2.1.3.2 0 .1-.1.2 0 .3.1.1-.1.2 0 .3l.1.1h-.1c.1.8.3 1.8.2 2.7l.1.2c-.1.2 0 .5 0 .7h-.1c.1.2-.2.2.1.3h-.1c0 .5 0 .9-.1 1.4.2.4 0 .8.2 1.2.2.5 0 1.1.1 1.6 0 .2 0 .4.1.6h-.1c.2.4-.2.8 0 1.2H59c.1.1 0 .2.1.2l-.1.1c.2.3-.1.5.1.8 0 .1.1.2.1.2-.1.3.1.6.1.9h-.1c.1.1.1.4.1.6l.1.1h-.1c-.2-.1-.1.1-.1.4zM59.6 45.8zM58 22.2c0-.1 0 0 0 0zM63.5 61.1v.1zM63.4 61.3c0 .1 0 .1 0 0l.1-.2c-.2 0-.1.3-.1.2zM63.8 61.5s-.1 0 0 0c0 0-.1.1 0 0zM63.1 58.7z"/><path class="st4" d="M62.7 58c.1.1 0 .3 0 .4 0 .4.2.7.3 1.1h.1c-.1.1.1.2 0 .3h.1l.3.9h-.1c.2.2.2.5.2.8h.1c0-.1-.2-.1-.1-.2 0-.1-.1 0-.1-.1h.1c0-.1 0-.2-.2-.3.1 0 0-.1.1-.2 0 0 0-.1-.1-.1 0-.4-.2-.8-.3-1.2-.2-.2-.1-.4-.2-.6-.1-.1-.1-.2-.1-.3l-.1-.1c.1-.6 0-1.1 0-1.7 0-.7.1-1.2-.3-1.8-.1-.2 0-.3-.1-.5-.2-.4-.1-.9-.3-1.3l-.3-1.5c-.2-.4 0-.8-.2-1.2 0-.4-.4-.8-.4-1.3.1-.3-.4-.5-.3-.8.1-.6-.3-1-.6-1.4-.1-.5-.5-.8-.5-1.3-.2-.1 0-.5-.2-.7.1-.1-.3-.1-.1-.2.1-.1-.3 0-.2-.1h-.1s.1 0 .1-.1h-.1c.2-.1-.1-.1.1-.2 0 0 .1-.1.1 0 0 0 0-.1-.1-.1s-.2 0-.3.1h.1l-.1.1c0 .1-.1.1-.1.2.1 0 .1.1.1.1-.1.1.2 0 0 0 .1.1.2.3.3.4.1 0 .1.1.1 0-.1.1-.1.2-.1.3-.1.2.2 0 0 .2.1-.1 0 .2.2.1 0 0-.1 0-.1.1.1.1.1.3.1.4.2 0 .1.3.3.3 0 .1 0 .2.1.3.1.1.1.2.3.3-.2.1-.1.1-.1.2.1 0 .2.2.3.3-.1.1.1.1 0 .1.4.2.4.7.4 1.1.1 0 .2 0 .3.1 0 .1-.1.2 0 .2s-.1.1 0 .2h0c.1.6.5 1.1.5 1.7l.1.1c0 .2.1.3.1.4h-.1c.1.1-.1.2.1.2h-.1c.1.3.2.6.2.9.2.2.1.5.3.8.2.3.1.7.2 1 0 .1.1.2.1.4h-.1c.2.2-.1.5.1.8h-.1c.1 0 0 .2.2.1l-.1.1c.3.1-.1.3.1.5 0 .1.1.1 0 .2-.2.2 0 .4 0 .6h-.1c.1.1 0 .3.1.4l.1.1h-.1c.1.1.2.2.2.4zM63.1 59.5zM59.1 44.6z"/><g><path class="st4" d="M59.1 46.7v.1h.1z"/><path class="st4" d="M59.3 46.9l-.1-.1c-.2 0 .1.1.1.1zM59.2 46.9s.1.1 0 0c0 0 .1 0 0 0zM58.6 49.3z"/><path class="st4" d="M58.8 50c0-.1.1-.2.1-.4.1-.3.1-.6.1-.9 0 0-.1-.1 0-.1s0-.2.1-.2H59c0-.2.1-.5.1-.8h.1c-.1-.3 0-.4.1-.7h-.1c-.1.1.1.1 0 .2 0 0 .1 0 0 .1h-.1c0 .1-.1.2 0 .3-.1 0 0 .1-.1.1 0 0 0 .1.1.1-.1.3-.1.7-.3 1 .1.2-.1.3-.1.6v.2l.1.1c-.3.4-.3.9-.5 1.3-.2.5-.6.9-.5 1.5 0 .2-.1.3-.1.4.1.4-.2.7-.1 1.1-.2.4-.3.8-.4 1.3 0 .4-.3.6-.4 1-.2.3 0 .8-.2 1.1-.2.2.1.6-.1.7-.4.4-.3.8-.2 1.3-.2.4 0 .8-.3 1.1.1.2-.3.3-.3.5-.2 0 .2.2-.1.2-.1 0 .2.2.1.1h.1c-.2 0 0 .1-.2.1 0 0-.1 0-.1-.1 0 0 0 .1.1.1s.2.1.3.1h-.1.1c0-.1.1 0 .2-.1-.1-.1 0-.1 0-.1.1 0-.2-.1 0-.1 0-.1 0-.3.1-.4-.1 0 0-.1-.1-.1.1 0 .2-.1.2-.1.2 0-.1-.1.1-.1-.1-.1.1-.1-.1-.2h.1c0-.1.1-.3.2-.4-.1-.1.1-.2-.1-.3.1-.1.2-.2.1-.3 0-.1 0-.2-.1-.3.2 0 .2 0 .2-.1-.1-.1 0-.2-.1-.3.1 0 0-.1.1-.1-.2-.3 0-.7.2-.9-.1-.1-.2-.1-.3-.2 0-.1.1-.1.1-.1 0-.1.1-.1 0-.2v-.1h.1c.2-.5.1-1 .3-1.5v-.1c.1-.1 0-.3.1-.4h.1c-.1-.1.2-.1 0-.2h.1c0-.3.1-.5.2-.7-.1-.3.2-.4.1-.7-.1-.3.2-.6.2-.9 0-.1 0-.2.1-.3h.1c-.1-.3.3-.3.2-.6h.1c-.1-.1.1-.1-.1-.2h.1c-.2-.2.2-.2.1-.4v-.1c.2-.1.1-.3.2-.5h.1c-.1-.1.1-.2.1-.3v-.1h.1c-.2.3-.2.2-.2.1zM59 48.7zM55.8 61.4z"/></g><g><path class="st4" d="M73.5 22.6v.1zM73.5 22.8v-.1c0-.2.1.2 0 .1zM73.5 22.8c0-.1 0 0 0 0s0 .1 0 0zM72.4 22.9zM72.1 23.2c0-.1.1.1.2 0 .2 0 .3-.1.4-.1V23c0 .1.1-.1.1 0v-.1c.1 0 .2-.1.3-.2v.1c.1-.2.2-.1.3-.1v-.1c0-.1 0 .1-.1 0v0s-.1 0-.1.1c0-.1 0 0-.1-.1v.1c-.2 0-.3.1-.5 0-.1.2-.2 0-.3 0l-.1.1v.1c-.3-.2-.5 0-.7-.1-.3 0-.5-.2-.7.1h-.2c-.2.2-.4 0-.5.2-.2 0-.4 0-.6.1-.2.1-.3-.1-.5 0-.2-.1-.3.3-.5.2-.1-.2-.2.3-.3.1-.2-.3-.4-.1-.6.1-.2-.1-.4.2-.6 0-.1.2-.2-.2-.3-.1-.1-.1 0 .2-.1 0v.2c0-.2 0 .1-.1-.2v-.2.1c0 .1 0 .2.1.3v-.1.1s.1.1.1.2c0-.1 0 0 0 0 0 .1 0-.2 0 0 .1 0 .1-.1.2-.1 0-.1.1 0 0-.1 0 .1.1.2.1.2.1.2 0-.2.1 0 0-.2.1 0 .1-.1v.1h.2c0-.1.1.1.1-.1 0 0 .1.1.1 0 0 0 .1 0 .1-.2 0 .2.1.1.1.2 0-.1.1-.1.1-.2 0 .1 0 0 .1.1.1-.3.3-.2.5 0v-.3l.1.1c0-.1.1.1.1 0v.1c.2 0 .5-.2.7-.2v-.1c.1.1.1-.1.2 0v.1c0-.1.1.1.1-.1v.1c.1-.1.2-.1.4-.1.1-.2.2 0 .3-.2.1-.2.3 0 .4 0h.2v.1c.1-.2.2.2.3-.1v.1c0-.1.1 0 0-.2v.1c.1-.3.1.1.2-.1 0 0 0-.1.1 0 .1.2.2 0 .2 0v.1c0-.1.1 0 .1-.1v-.1.1c.1.3.2.2.2.2zM72.8 23.1zM66.5 24z"/></g><g><path class="st4" d="M64.9 23.4v.1zM64.8 23.6v-.2.2zM64.8 23.6c0-.1 0 0 0 0s0 .1 0 0zM62.9 23.9zM62.5 24.3c.1-.1.2 0 .3 0 .3 0 .5-.2.7-.3v-.1c.1.1.1-.1.2 0v-.1c.2-.1.4-.1.6-.2v.1c.1-.2.3-.2.5-.2v-.1c-.1-.1-.1.1-.1.1v0c-.1 0-.2 0-.2.1 0-.1-.1 0-.1-.1v.1c-.3 0-.5.1-.8.2-.1.2-.3 0-.4.1 0 .1-.1.1-.2.1v.1c-.4-.1-.7.1-1.1.1-.4 0-.8-.1-1.2.3-.1.1-.2 0-.3.1-.3.2-.6 0-.8.2-.3 0-.7 0-1 .1-.3.1-.5-.1-.8-.1-.3-.1-.6.2-.9 0-.1-.2-.4.2-.6-.1-.3-.4-.6-.2-1-.1-.3-.2-.6.1-.9-.2-.2.1-.3-.2-.4-.2v.1c0-.2-.2.2-.2 0 0-.1-.1.3-.1.1v.1c0-.2-.1 0-.1-.2v-.2s-.1 0-.1.1-.1.2 0 .3v-.1.1s0 .1.1.2c0-.1.1 0 .1 0 0 .1.1-.2 0 0h.3c0-.1.1 0 .1-.1 0 .1.1.2.1.2 0 .2.1-.2.1.1 0-.2.1.1.2-.1v.1c.1 0 .2.1.3.1.1-.1.2.1.3-.1 0 0 .1.1.2.1s.2 0 .3-.1c0 .2 0 .2.1.2.1-.1.2 0 .3-.1 0 .1.1 0 .1.1.3-.2.5-.1.8.1 0-.1.1-.2.1-.3l.1.1s.1.1.1 0v.1c.4.1.8-.1 1.2 0l.1-.1c.1.1.2 0 .3 0v.1c.1-.1.1.1.2-.1v.1c.2-.1.4-.1.6 0 .2-.2.4 0 .5-.2.2-.2.5 0 .7-.1.1 0 .2-.1.3-.1v.1c.1-.2.4.1.5-.1v.1c0-.1.1 0 .1-.2v.1c.1-.3.2.1.3-.1 0 0 .1-.1.1 0 .1.2.2-.1.4-.1v.1c0-.1.2 0 .2-.1v-.1.1c-.4-.1-.3-.2-.2-.2zM63.5 24zM53.2 24.5z"/></g><g><path class="st4" d="M51.9 23.5l-.1.1zM51.8 23.7v-.1.1zM51.8 23.7c0-.1 0 0 0 0zM50.8 23.6zM50.4 23.9c.1 0 .1.1.2 0 .1 0 .3-.1.4-.1v-.1c0 .1.1-.1.1 0v-.1c.1 0 .2 0 .3-.1v.1c.1-.2.2-.1.3-.1v-.1c0-.1-.1.1-.1 0v0s-.1 0-.1.1c0-.1 0 0-.1-.1v.1c-.1-.1-.3 0-.4 0-.1.2-.2-.1-.2 0 0 0-.1.1-.1 0v.1c-.2-.2-.4-.1-.6-.2-.2-.1-.5-.2-.7 0h-.2c-.2.1-.3-.1-.5.1-.2-.1-.4-.1-.6 0-.2.1-.3-.1-.4-.1-.1-.1-.3.2-.5.1-.1-.2-.2.2-.3 0-.2-.3-.4-.1-.6 0-.2-.1-.3.2-.5-.1-.1.1-.2-.2-.3-.1 0-.2-.1.2-.1 0v.2c0-.2 0 .1-.1-.2v-.2.4-.1.1s0 .1.1.2c0-.1 0 0 0 0 0 .1 0-.2 0 0h.2v-.1c0 .1.1.2.1.2 0 .2 0-.2.1.1 0-.2.1.1.1-.1v.1c.1 0 .1.1.2.1 0-.1.1.1.1-.1 0 0 .1.1.1 0 0 0 .1 0 .1-.1v.2c0-.1.1-.1.1-.1v.1c.1-.2.3-.1.4.1 0-.1.1-.2.1-.3 0 0 0 .1.1.1 0-.1 0 .1.1 0v.1c.2.1.5-.1.7-.1v-.1c.1.1.1 0 .2 0v.1c0-.1 0 .1.1-.1v.1c.1-.1.2 0 .3 0 .1-.2.2 0 .3-.1.1-.1.3.1.4 0h.1v.1c.1-.2.2.2.3 0v.1c0-.1.1 0 .1-.1v.1c.1-.2.1.1.2 0 0 0 0-.1.1 0 0 .2.1 0 .2 0v.1c0-.1.1 0 .1 0V24v.1c0-.2.1-.2.1-.2zM51 23.9zM45.4 23.8z"/></g><g><path class="st4" d="M38.2 53.6v-.1zM38.2 53.2l.1.2c.1 0-.2-.1-.1-.2zM38.2 53.2c.1 0 0-.1 0-.1s-.1.1 0 .1zM39.5 48.4zM39.6 47.1c0 .2-.1.5-.2.7l-.3.9c0 .3-.1.6-.1.9v.1c-.2.1-.1.4-.2.5 0 0 0 .1.1.1-.2.5-.3 1-.3 1.5h-.1c.1.5 0 .9-.2 1.4h.1c.1-.1 0-.3.1-.4.1-.1-.1 0 0-.1h.1c0-.2.1-.4 0-.6.1 0 0-.2.2-.3 0-.1 0-.1-.1-.1.2-.6.4-1.3.6-2 0-.2 0-.4.1-.6.1-.2.2-.3.2-.5 0-.1 0-.3.1-.5v-.2c.2-.5.3-.9.4-1.4.1-.4.3-.9.5-1.3.5-1 .8-2 .7-3.1 0-.3.1-.6.2-.8 0-.8.3-1.5.3-2.2.2-.8.3-1.8.3-2.7 0-.7.4-1.3.5-2 .1-.3.2-.7.2-1.1 0-.4 0-.8.1-1.1.3-.4 0-1.1.3-1.5.2-.4.4-.8.5-1.2.2-.4.1-.9.1-1.3.1-.4.3-.8.5-1.1.2-.4.2-.7.4-1.1-.1-.4.3-.7.4-1.1H45c.2-.1-.1-.4.2-.4.1-.1-.2-.2-.1-.3H45c0-.1.1 0 .1-.1 0 0-.1 0-.1-.1.2 0 0-.2.2-.2 0 .1.1-.1.2 0 0 0 0-.2-.1-.2s-.2-.1-.3 0h.1-.1c0 .1-.1.1-.2.2.1.1 0 .1 0 .2-.1 0 .2.2 0 .1 0 .2-.1.5-.2.8 0 .1-.1.2.1.2-.2 0-.2.3-.3.3-.2.1.1.2-.1.3.2.1-.1.2.1.4h-.1c0 .1-.1.3-.1.4 0 .1-.1.2-.1.3.1.2-.2.4-.2.6-.1.1-.3.3-.3.5-.1.2-.1.5 0 .7-.2 0-.2.1-.2.2.1.2 0 .4-.1.6-.1 0 0 .2-.2.2 0 .7-.2 1.4-.5 2 0 .1.2.2.2.3 0 .1-.2.2-.2.3 0 .1-.1.2-.1.4v.1s-.1 0-.1-.1c-.1.5-.1 1-.2 1.5l-.3 1.5v.2c-.1.2-.1.5-.1.8h-.1c.1.2-.2.3 0 .4h-.1c0 .5-.1 1-.2 1.5.1.5-.2.9-.1 1.4.1.6-.2 1.2-.3 1.8-.1.2-.1.4-.1.7l.1-.4c.1.5-.3.8-.2 1.3h-.1c.1.1-.1.2.1.3l-.1.1c.2.4-.3.5-.2.9 0 .1 0 .2-.1.3-.3.2-.2.6-.3.9l-.1-.2c0 .2-.2.4-.2.6v.1h-.1c-.1.2-.1.5-.1.8zM38.9 49.7zM45 23.9c0-.1 0-.1 0 0z"/></g><g><path class="st4" d="M49.6 23.2v-.1.1zM49.5 23.4v-.2c-.1-.1 0 .2 0 .2zM49.4 23.4s0 .1 0 0c0 0 .1.1 0 0zM48.1 25zM48.1 25.6c0-.1.2-.1.2-.2.2-.2.2-.5.3-.7v-.1c.1 0 0-.2.1-.1 0 0 0-.1-.1-.1l.3-.6.1.1c0-.3.2-.4.3-.5 0 0-.1 0-.1-.1-.1 0 0 .2-.1.2s.1.1 0 .1c-.1.1-.1.1-.1.3-.1-.1-.1.1-.2 0v.1c-.2.2-.3.5-.5.7.1.2-.2.2-.3.4 0 .1 0 .1-.1.2v.1c-.4.2-.5.6-.8.9-.1.2-.3.3-.4.5-.1.1-.2.3-.2.6 0 .1-.2.2-.2.3 0 .3-.4.5-.4.8l-.6.9c-.1.3-.4.4-.5.7-.2.2-.1.6-.4.8-.3 0 0 .5-.3.5-.4.1-.5.5-.5.9-.2.2-.2.7-.5.8 0 .2-.3.1-.4.3-.2 0 .1.2-.1.1-.1 0 .2.2.1.2h-.1s.1.1 0 .1c-.2-.1 0 .1-.2 0 0 0-.1 0-.1-.1 0 0-.1.1 0 .1.1.1.2.2.3.2l-.1-.1c.1 0 0 0 .1.1h.2c-.1-.1 0-.1 0-.1.1 0-.1-.2 0 0 0-.1.1-.2.2-.3 0-.1.1-.1-.1-.1.1.1.2 0 .2 0 .2.1-.1-.2.1-.1-.1-.1.1-.1 0-.2h.1l.2-.2c-.1-.1.2-.1 0-.3.1 0 .2-.1.1-.2v-.3c.2.1.2 0 .2 0v-.3c.1 0 0-.1.1 0-.1-.3.2-.5.5-.6 0-.1-.1-.2-.2-.3 0-.1.1 0 .1-.1s.1 0 .1-.1v-.1l.1.1c.3-.3.3-.8.6-1.1v-.1c.1 0 .1-.2.1-.3h.1c-.1-.1.2 0 0-.2h.1c.1-.2.2-.4.3-.5-.1-.3.2-.3.2-.5 0-.3.3-.4.4-.6.1-.1.1-.2.1-.2-.1-.3.4-.2.3-.5h.1c-.1-.1.1-.1-.1-.2h.1c-.1-.2.2-.1.2-.3v-.1c.2 0 .1-.2.2-.3l.1.1c0-.1.1-.1.1-.2v-.1h.1c.5.1.5 0 .6-.1zM48.6 24.7zM42.9 33.6z"/></g><path class="st5" d="M42.4 35c.4-.5 1.7-1.6 1.9-2.2.2-.4 1.4-2.1 1.6-2.6.3-.5 1.4-2.4 1.7-2.8.3-.5 2-3.4 2.3-3.6"/><g><path class="st4" d="M76.2 32.5l.1-.1-.1.1zM76.1 32.5l.1-.1c.1 0-.2.2-.1.1z"/><path class="st4" d="M76.1 32.5c0-.1-.1 0 0 0 0 0-.1.1 0 0zM75.1 30.8z"/><path class="st4" d="M74.6 30.5c.1 0 0 .2.1.3.1.2.3.4.5.6h.1c-.1.1.1.1.1.2h.1c.1.2.2.4.4.5h-.1c.2.1.3.2.3.4l.1-.1c0-.1-.2 0-.1-.1 0 0-.1.1-.1 0h.1c-.1 0-.1-.1-.2-.1.1-.1 0-.1 0-.1h-.1c-.1-.3-.3-.5-.4-.8-.2 0-.1-.3-.2-.4-.1 0-.1-.1-.1-.1H75c-.1-.4-.4-.7-.5-1-.2-.4-.3-.8-.8-.9-.1-.1-.1-.2-.2-.3-.3-.1-.4-.5-.7-.6-.2-.3-.5-.5-.7-.8-.3-.2-.3-.5-.5-.7-.1-.3-.6-.3-.7-.5 0-.3-.5-.1-.5-.4-.1-.5-.5-.5-.9-.6-.2-.3-.6-.3-.7-.7-.2 0-.1-.4-.2-.4.1-.1-.3 0-.1-.1.1-.1-.3.1-.2 0h-.1s.1 0 .1-.1h-.1c.2-.1-.1-.1.2-.2 0 0 .1-.1.1 0 0 0 0-.1-.1 0-.1 0-.2 0-.3.1h.1-.1c0 .1-.1.1-.1.2.1 0 .1 0 .1.1-.1.1.2 0 0 0 .1.1.2.2.2.3.1 0 .1.1.1 0-.1.1-.1.2 0 .2-.1.2.2-.1.1.1.1-.1 0 .1.2 0 0 0 0 .1-.1.1.1.1.1.2.2.3.2-.1.1.2.3.1 0 .1 0 .2.1.2s.2.1.3 0c-.1.2 0 .2 0 .2.1 0 .2.1.3 0 0 .1.1 0 0 .1.3 0 .5.2.6.5.1 0 .2-.1.3-.2 0 0 0 .1.1.1s0 .1.1.1h.1l-.1.1c.3.3.7.4 1 .8h.1c0 .1.2.1.2.2 0 0-.1 0-.1.1.1 0 0 .2.2.1l-.1.1c.2.1.3.3.4.4.3 0 .3.3.5.3.3.1.3.4.5.5l.2.2c.3 0 .1.4.4.4h-.1c.1 0 0 .1.2 0v.1c.3-.1 0 .2.3.3.1 0 .1 0 .1.1-.1.2.2.2.2.3h-.1c.1 0 .1.1.2.2h.1-.1c-.6.2-.5.2-.4.3zM75.2 31.4zM67.9 23.7c0-.1 0 0 0 0z"/></g><path class="st5" d="M67.3 23.6c.2.8 1.7 1.8 2.3 2.3 1.2 1 2.3 1.8 3.4 3 .5.6 1.1 1.4 1.5 2.1.3.5.7 1.7 1.5 2.3"/><g><path class="st4" d="M82.3 57.3v-.1zM82.1 57c0 .1 0 0 0 0l.2.2c.1-.1-.2-.1-.2-.2zM82.1 57c.1-.1 0-.1 0 0 0-.1 0 0 0 0zM80.4 51.6zM79.7 50.2c.1.2.1.6.2.8l.6 2.1.1.1c-.1.2.2.4.1.5h.1c.2.5.4 1.1.8 1.6 0 0 0 .1-.1.1.2.2.4.4.5.6.1.3.2.6.2.9.1 0 0-.1.1 0 0-.2-.2-.3-.1-.5h.1c0-.1-.1 0-.1-.1s.1 0 .1 0c-.1-.3-.2-.5-.4-.6.1-.1-.1-.2-.1-.3-.1 0-.1-.1-.2-.1-.3-.7-.7-1.4-.8-2.3-.3-.3-.1-.8-.2-1.3-.1-.1-.2-.4-.2-.5l-.1-.1c-.2-1.1-.6-2.1-.7-3.2-.1-.6-.1-1.2-.2-1.8-.1-.6-.4-1.2-.7-1.7-.2-.3-.2-.6-.3-.9-.3-.7-.3-1.7-.6-2.4l-.6-3c-.3-.8-.1-1.6-.3-2.4 0-.4-.3-.8-.4-1.2-.2-.4-.3-.8-.3-1.2.1-.6-.5-1.1-.5-1.6s-.2-1-.4-1.5c-.1-.5-.3-1-.5-1.4-.1-.9-.7-1.8-.7-2.7-.3-.4-.1-.9-.2-1.4.1-.2-.3-.3-.1-.5.1-.1-.3-.1-.2-.2h-.1c0-.1.1 0 .1-.1 0 0-.1 0-.1-.1.2-.1-.1-.2.1-.3 0 .1.1-.1.2 0 0 0 0-.2-.1-.2s-.2 0-.3.1h.1l-.1.1c0 .1-.1.2-.1.3.1 0 .1.2.1.2-.1.1.2.1.1.1l.3.9c.1 0 .1.2.2.1-.1.1-.1.4-.1.5-.1.2.2.2 0 .4.2 0 0 .3.2.3H74c.1.3.1.6.2.9.2.2.1.5.3.7 0 .2 0 .4.1.6.1.2.1.5.3.6-.2.1-.1.2-.1.3.1.1.2.4.3.7-.1.1.1.2 0 .2.4.6.8 1.4.7 2.2.1.1.3.1.4.2.1.1 0 .3 0 .4.1.1 0 .3.1.4l.1.1h-.1c.1.6.3 1.2.6 1.7.2.5.3 1.1.3 1.7l.1.2c0 .3.2.6.2.9h-.1c.1.2-.1.4.2.4h-.1c.2.6.3 1.2.4 1.8.3.5.2 1 .5 1.5.3.6.2 1.4.4 2 .1.3.2.4.3.7.4.4.2 1 .5 1.4h-.1c.1.1 0 .3.2.2v.1c.3.3 0 .6.2 1 .1.1.1.2.1.3-.1.4.1.7.2 1.1h-.1c.1.2.1.5.2.7l.1.1h-.1c-.9.2-.7.5-.6.8zM80.5 53.2c-.1 0-.1 0 0 0zM73 23.6c0-.1 0 0 0 0z"/></g><g><path class="st4" d="M52.2 25.5zM52.1 25.4s-.1 0 0 0l.1.1c.1 0-.2-.1-.1-.1zM52.1 25.4c.1-.1 0-.1 0 0 0-.1-.1-.1 0 0zM52.2 23.8z"/><path class="st4" d="M52.1 23.4c0 .1-.1.1-.1.2-.1.2 0 .4 0 .6h.1c-.1 0 .1.1 0 .1h.1c0 .2 0 .3.1.5h-.1c.2.2.1.3 0 .5h.1c.1 0-.1-.1 0-.2 0 0-.1 0-.1-.1h.1c0-.1 0-.2-.1-.2.1 0 0-.1.1-.1h-.1c.1-.2 0-.4 0-.6-.2-.1.1-.2 0-.3v-.1l-.1-.1c.3-.2.3-.6.4-.9.1-.4.2-.6.1-.8 0-.1.1 0 .1-.1s.2-.1.3-.1c.1 0 .1 0 .3-.1h.1v.6c0 .2-.3.3-.3.6-.2.2.1.5 0 .7-.2.1.2.4 0 .5-.3.3-.1.5 0 .8-.1.2-.1.4-.2.5-.1.1-.3.2-.4.1-.1.2-.2-.2-.4-.1 0-.2-.1.2-.1 0 0-.1-.1.3-.1.1v.1c0-.2-.1 0-.1-.2v-.2s-.1 0-.1.1v.3-.1.1s0 .1.1.2c0-.1 0 0 .1 0 0 .1.1-.2 0 0h.3c0-.1.1 0 .1-.1 0 .1.1.2.1.2.1.2.1-.2.1.1 0-.2.1 0 .1-.2v.1c.1 0 .3-.1.4-.2 0-.2.2-.2.1-.3.1 0 .2-.1.1-.2 0-.1 0-.2-.1-.3.2 0 .2 0 .2-.1-.1-.1-.1-.2-.1-.2.1 0 0-.1.1-.1-.2-.2-.1-.4.1-.6-.1 0-.2-.1-.3-.1l.1-.1c-.1 0 .1-.1 0-.1h.1c.1-.3-.1-.5.1-.8v-.1c.1-.1 0-.2.1-.3h.1c-.1-.1.2-.1-.1-.2h.1v-.7c-.1 0-.1 0-.1-.1-.2 0-.3-.1-.4 0-.2.1-.4 0-.6.1-.1 0-.1.1-.1.2.1.2-.3.2-.1.4h-.1c.1 0-.1.1.1.1h-.1c.2.1-.1.2 0 .3 0 0 .1.1 0 .1-.2.1 0 .2 0 .3h-.1c.1.1 0 .1 0 .2H52c.1.2.1.3.1.4zM51.9 24.2zM51.9 25.7z"/></g><g><path class="st4" d="M66.8 25zM66.6 25h.1c.2-.1-.1 0-.1 0z"/><path class="st4" d="M66.7 25c0-.1-.1-.1 0 0 0-.1-.1 0 0 0zM66.4 23.4z"/><path class="st4" d="M66 23.2c.1 0 0 .2.1.2 0 .2.2.3.3.5h.1c-.1.1.1.1 0 .2h.1c0 .2.1.3.2.5h-.1c.2.1.1.2.1.4h.1c.1 0-.1 0-.1-.1h-.1.1s0-.1-.1-.1c.1 0 0-.1.1-.1h-.1c0-.2 0-.4-.1-.7-.2-.1 0-.3-.1-.4-.1 0-.1-.1-.1-.1h-.1c.1-.4-.2-.5-.1-.8 0-.2.1-.3 0-.5 0-.2-.1-.4-.3-.5-.1-.1-.2-.2-.3-.2h-.4c-.1 0-.3 0-.4.1h-.1c0 .2 0 .6.1.8.1.2.1.5.2.6 0 .2.3.4.2.6-.2.2.3.3.1.5-.3.3-.1.6.1.8 0 .1.1.2.1.3.1.1.1.1.3.2.1-.1.2.2.4.1.1.1.1-.2.1 0 0 .1 0-.3.1-.1v-.1 0c0 .2.1-.1.1.2v.2s.1 0 0-.1v-.3 0s-.1-.1-.1-.2c0 .1 0 0-.1 0 0-.1 0 .2 0 0-.1 0-.2.1-.3.1 0 .1-.1 0 0 .1 0-.1-.1-.2-.1-.2 0-.2 0 .2-.1-.1 0 .2 0-.1-.1.1V25v-.1c-.1.1.1 0-.1 0 0 0 .1-.1 0-.1 0 0 0-.1-.2-.1.2 0 .1-.1.2-.1-.1 0-.1-.1-.1-.2.1 0 0-.1.1-.1-.2-.2-.2-.5 0-.7h-.3l.1-.1c-.1 0 .1-.1 0-.1h.1c0-.3-.3-.7-.4-1H65c0-.1-.1-.1-.1-.2h.1c-.1 0 .1-.1-.1-.1h.1c-.1-.1-.1-.2-.1-.3-.1 0-.1-.1-.1-.1 0-.1.2 0 .2-.1.1-.2.4 0 .5 0 0 0 .1 0 .2.1.2 0-.1.3.2.3h-.1c.1 0 0 .1.2.1h-.1c.3.1-.1.2.1.3 0 0 .1.1 0 .1-.2.1 0 .2 0 .3h-.1c.1 0 0 .1.1.2h.1-.1c-.1 0 0 .1 0 .2zM66.3 23.9zM66.3 24.8z"/></g><path class="st5" d="M58.6 37.5c1.1 0 2.2 0 2.9-.8.8-1 .9-1.7.9-3 0-1.6 0-3.1-.1-4.7-.1-.9 0-1.8-.2-2.7-.1-.6-.1-1.4-.4-2"/><g><path class="st4" d="M51.2 35.3zM51.3 35.5s.1 0 0 0l-.1-.1c-.1 0 .2.1.1.1zM51.3 35.5c-.1 0 0 .1 0 0 0 .1.1 0 0 0zM50.4 39.4z"/><path class="st4" d="M50.4 40.5c0-.2.2-.4.2-.6.2-.5.2-1 .3-1.5 0 0-.1-.1 0-.1.1-.1 0-.3.1-.4 0 0 0-.1-.1-.1.1-.4.2-.8.2-1.3h.1c-.1-.4 0-.7.2-1.1h-.1c-.1.1.1.2 0 .3 0 .1.1 0 0 .1h-.1c0 .2-.1.3 0 .5-.1 0 0 .2-.2.2 0 .1 0 .1.1.1-.2.5-.2 1.1-.4 1.7.1.3-.2.6-.2.9 0 .1 0 .3-.1.4l.1.1c-.4.7-.5 1.5-.8 2.2-.3.8-.7 1.5-.7 2.4 0 .3-.2.4-.2.7 0 .6-.4 1.2-.4 1.7-.2.6-.4 1.4-.6 2.1-.1.6-.4 1.1-.5 1.6-.3.5-.1 1.2-.4 1.8-.3.3 0 .9-.3 1.2-.6.8-.6 1.6-.6 2.3-.2.6-.1 1.3-.5 1.9.1.3-.3.6-.4.9h.1c-.2.1.2.3-.1.3-.1.1.2.2.1.2h.1c0 .1-.1 0-.1.1 0 0 .1 0 .1.1-.2 0 0 .2-.2.2 0 0-.1.1-.2 0 0 0 0 .2.1.2s.2.1.3 0h-.1.1c0-.1.1-.1.2-.2-.1-.1 0-.1 0-.1.1 0-.2-.1 0-.1 0-.2 0-.4.1-.6-.1 0 0-.2-.1-.1.2 0 .2-.2.2-.2.2-.1-.1-.2.1-.2-.1-.1.1-.2-.1-.3h.1c.1-.2.2-.4.2-.6-.1-.2.2-.4 0-.5.1-.1.2-.2.1-.4 0-.2.1-.4 0-.5.2 0 .2-.1.2-.1-.1-.1 0-.4 0-.5.1 0 0-.1.1-.1-.1-.5.2-1.1.5-1.5 0-.1-.2-.2-.2-.3 0-.1.1-.1.2-.2 0-.1.1-.1.1-.3v-.1s.1 0 .1.1c.3-.8.3-1.6.6-2.4v-.2c.1-.2.1-.4.1-.6h.1c-.1-.2.2-.2 0-.3h.1c0-.4.2-.8.3-1.2-.1-.4.2-.7.1-1.1 0-.5.3-.9.4-1.4.1-.2.1-.3.1-.5h.1c-.1-.4.4-.6.3-1h.1c-.1-.1.1-.2-.1-.2h.1c-.2-.3.2-.4.2-.7V43c.2-.2.1-.5.2-.8l.1.1c-.1-.1.1-.3.1-.5v-.1h.1c.2-.8.2-1 .3-1.2zM50.9 38.4zM45.5 59.2z"/></g><g><path class="st4" d="M66.7 36.2v.1h.1z"/><path class="st4" d="M66.9 36.4s.1 0 0 0l-.2-.1c0 .1.3 0 .2.1zM66.9 36.4c0 .1.1.1 0 0 .1.1.1 0 0 0zM68.2 40.1zM68.8 41c-.1-.2 0-.4-.2-.6-.1-.5-.4-.9-.6-1.4 0 0-.1 0-.1-.1.1-.1-.2-.3-.1-.4h-.1c-.2-.4-.2-.8-.5-1.1h.1c-.3-.2-.4-.6-.5-.9-.1 0 0 .1-.1 0 0 .1.2.1.2.3 0 .1.1 0 .1.1h-.1c.1.1.1.3.3.4-.1.1.1.2 0 .2.1 0 .1.1.1 0 .1.3.1.5.2.8.1.3.2.6.3.8.3.2.1.6.3.9.1.1.1.2.2.4l.1.1c0 .8.4 1.5.5 2.2.2.8.3 1.6.8 2.3.1.2.1.5.2.7.3.5.3 1.1.6 1.6.2.6.4 1.4.7 2 .2.5.2 1.1.4 1.6.1.6.6 1.1.6 1.7-.1.4.5.7.4 1.1 0 .7.4 1.3.8 1.9.1.6.6 1.1.6 1.8.2.2.1.6.2.9-.1.2.3.2.1.3-.1.1.3.1.2.1h.1c0 .1-.1 0-.1.1h.1c-.2.1.1.1-.1.3 0 0 0 .1-.1.1 0 0 .1.2.2.1s.2-.1.2-.2h-.1l.1-.1c0-.1.1-.1.1-.2-.1 0-.1-.1-.1-.1.1 0-.2 0 0-.1-.1-.2-.1-.4-.2-.6-.1 0-.1-.2-.2-.1.1-.1.1-.3.1-.3.1-.2-.2-.1 0-.3-.2 0 0-.2-.2-.2h.1c-.1-.2-.1-.4-.2-.6-.2-.1-.1-.4-.3-.4 0-.1 0-.3-.1-.4-.1-.1-.2-.3-.3-.4.2-.1.1-.2.1-.3-.1-.1-.2-.3-.3-.4.1-.1-.1-.1 0-.2-.4-.4-.5-.9-.5-1.5-.1 0-.2-.1-.4-.1v-.3c-.1-.1 0-.2-.1-.3h-.1.1c-.2-.8-.6-1.5-.8-2.3l-.1-.1c0-.2-.2-.4-.2-.6h.1c-.1-.1.1-.3-.2-.3h.1c-.2-.4-.3-.8-.4-1.2-.3-.3-.2-.7-.5-1-.3-.4-.3-.9-.4-1.4 0-.2-.1-.3-.2-.5-.3-.3 0-.7-.3-1h.1c-.1 0 0-.2-.2-.1v-.1c-.3-.2 0-.4-.3-.7-.1-.1-.1-.1-.1-.2.1-.3-.2-.5-.2-.7h.1c-.1-.1-.1-.3-.2-.5l-.1-.1h.1c.4 0 .2-.2.2-.4zM68.1 39zM74.9 58.9c0 .1 0 0 0 0z"/></g></g><g><path class="st6" d="M86.8 18.9l.1-.1-.4 1 1.1-.6s-1.7 1.7-1.6 1.7c0 .1 2.5-1.6 2.6-1.5 0 .1-2.9 2.3-2.8 2.4.1.1 3.6-2.2 3.7-2.1.1.1-4 2.9-3.9 3 .1.1 4.7-2.9 4.8-2.8.1.1-4.8 3.3-4.7 3.5.1.1 5.6-3.4 5.7-3.3.1.2-6.1 4.2-6.1 4.3.1.2 6.9-4.3 7-4.1.1.2-7.4 4.8-7.3 5 .1.2 8-4.9 8.2-4.7.1.2-8.6 5.5-8.5 5.7.1.2 9.4-5.7 9.5-5.5.1.2-9.8 6.1-9.7 6.4.1.2 9.3-5.7 9.4-5.4.2.3-9.9 6.2-9.8 6.4.1.2 9.3-5.7 9.5-5.5.2.3-10 6.2-9.8 6.5.1.2 9.4-5.8 9.5-5.5.2.3-10 6.2-9.8 6.5.1.2 9.4-5.8 9.6-5.5.2.3-9.7 6-9.5 6.3.1.2 9.4-5.7 9.5-5.5.1.2-10.2 6.3-10 6.5.1.2 9.3-5.7 9.5-5.5.1.2-9.9 6.2-9.8 6.4.1.2 9.4-5.8 9.5-5.5.1.2-9.7 6-9.5 6.3.1.2 9.3-5.6 9.4-5.4.1.2-10.1 6.2-9.9 6.5.1.2 9.6-5.9 9.8-5.6.2.3-10 6.3-9.9 6.5.1.2 9.3-5.7 9.4-5.4.2.3-9.9 6.2-9.8 6.4.1.2 9.5-5.8 9.6-5.5.1.3-10.1 6.3-10 6.5.1.2 9.5-5.8 9.7-5.6.1.2-10.1 6.3-9.9 6.5.1.2 9.5-5.7 9.6-5.5.1.2-9.7 6.1-9.6 6.3.1.2 9.2-5.7 9.4-5.4.1.2-10 6.2-9.8 6.5.1.2 9.3-5.6 9.4-5.4.2.3-9.7 6.1-9.6 6.3.2.3 9.4-5.7 9.6-5.5.1.2-9.8 6.1-9.6 6.3.2.3 9.1-5.5 9.2-5.3.2.3-9.9 6.2-9.8 6.4.1.2 9.6-5.8 9.7-5.6.1.3-10 6.2-9.8 6.5.1.2 9.2-5.7 9.3-5.4.2.3-9.7 6-9.6 6.3.1.2 9.4-5.8 9.6-5.5.1.2-10 6.2-9.8 6.4.1.2 9.4-5.8 9.5-5.5.1.2-10.2 6.3-10 6.6.1.2 9.5-5.8 9.6-5.6.1.2-10 6.2-9.9 6.4.1.2 9.6-5.9 9.7-5.6.2.3-10.2 6.4-10.1 6.6.1.2 9.5-5.7 9.6-5.5.1.2-9.7 6-9.5 6.2.2.3 9.4-5.8 9.6-5.5.1.2-10 6.2-9.9 6.4.2.3 9.3-5.7 9.4-5.4.1.2-9.7 6-9.6 6.3.1.2 9.3-5.7 9.5-5.5.2.3-10 6.2-9.9 6.5.1.3 9.4-5.7 9.5-5.5.1.2-9.8 6-9.6 6.3.1.2 9.2-5.6 9.4-5.4.2.3-9.8 6.1-9.7 6.4.1.2 9.4-5.7 9.5-5.5.1.2-10 6.2-9.8 6.4.1.2 9.2-5.7 9.4-5.4.1.2-9.7 6.1-9.6 6.3.1.2 9.3-5.6 9.4-5.4.2.3-10.2 6.3-10 6.6.2.3 9.7-5.9 9.8-5.7.2.3-10.1 6.3-10 6.5.1.3 9.6-5.9 9.7-5.6.1.2-10 6.2-9.9 6.5.1.2 9.6-5.8 9.7-5.6.1.2-10.3 6.4-10.2 6.6.2.3 9.8-6 10-5.8.2.3-10.4 6.4-10.2 6.7.2.3 9.8-6 9.9-5.7.1.3-10.1 6.3-10 6.5.1.2 9.4-5.8 9.6-5.5.2.3-10.1 6.3-10 6.5.2.3 9.4-5.8 9.6-5.5.1.2-9.3 5.8-9.1 6 .1.2 8.8-5.5 9-5.2.1.2-8.4 5.4-8.3 5.6.1.2 8-4.9 8.1-4.7.1.2-7.3 4.7-7.2 4.9.1.2 6.7-4.1 6.8-3.9.1.2-6 4.1-5.9 4.2.1.1 5.5-3.4 5.6-3.2.1.1-4.4 3.2-4.4 3.3.1.1 4-2.4 4.1-2.3.1.1-3.5 2.6-3.4 2.8 0 .1 2.9-1.8 3-1.7 0 .1-1.9 1.8-1.9 1.9 0 0 1.9-1.2 2-1.1 0 0-1.2 1.4-1.2 1.5 0 0 .9-.6 1-.6"/><path class="st7" d="M81.6 65.4h.1v-.2zM81.8 64.6l-.1.6c.2-.3 0-.5.1-.6zM81.8 64.4c.1-.2 0-.3 0-.3.1.1 0 .3 0 .3zM86.6 47.7c0 .1 0 .1 0 0 0 .1 0 .1 0 0z"/><path class="st7" d="M87.6 43.3c-.2.8-.5 1.7-.7 2.5v-.1c-.6 2.2-1.1 4.2-1.7 6.4V52c0 .1 0 .2-.1.3v-.1c-.2.4-.3 1.4-.5 1.6v.1c-.5 1.7-1 3.5-1.4 5.2 0 .1-.1.1-.1.1-.3 1.5-.8 3-1.2 4.5 0 .1.1-.1.1 0 .2-.5.2-.9.4-1.3v.1c.1-.3-.1-.1.1-.4.1-.1 0 0 .1 0 .2-.7.4-1.4.5-2 .1-.1.2-.7.3-1 0-.2.1-.4.1-.4.7-2.4 1.3-4.8 2-7.2.2-1.2.7-2.5 1.1-3.9.1-.5.3-1.1.4-1.6l.1-.5c1-3.1 1.9-6.4 2.8-9.6 1.1-3.6 2.1-6.8 2.9-10.4v.1c.3-1 .6-2 .8-2.9.1-.3.1-.5.2-.8.1-.3.2-.6.2-.9l-3-.9c-1-.3-1.9-.5-2.8-.7-.5-.2-1.1-.3-1.7-.5-.7 2.3-1.4 4.9-2.1 7.3-.6 2.4-1.4 4.7-2.1 7.1-.8 2.4-1.3 5.1-2.1 7.5-.6 1.5-.9 3.6-1.4 5-1 2.9-1.7 5.8-2.4 8.8-.8 2.7-1.4 5.5-2.3 8.1 0 .2-.1.3-.1.5 1 .3 2.2.8 3.4 1.1.5.2 1.2.2 1.4.4h-.1c.2.2.7 0 .8.1h.1c.3.1 0 .1.3.1.1 0 .1-.1.2 0 0 .2.8.2.8.4-.2 0 .3.1-.1.1.1 0 .6.2.6.1.1-.1.3-.1 0-.2h-.1l-.1-.1c-.4-.1-.5-.2-.8-.3-.2 0-.5-.1-.7-.2l-.1-.1c-.1-.1-.5 0-.4-.1-.9-.2-1.9-.5-2.8-.8-.1 0-.7-.2-.6-.1-.2-.2-.9-.4-1.2-.5h.1c-.2-.1-.3-.1-.4-.2h-.1l.1-.1c-.1-.1.3-.9.2-1.2 0-.1.1-.1.1 0 .3-.9.6-1.8.8-2.6.1-.7.5-1.5.5-2.1.2-.4.4-1.2.5-1.8v.1c.2-.7.4-1.6.5-2.1.2-.2.2-.5.4-.8.1-.5.4-1.4.5-2.2.1-.1.1-.6.2-.6.4-2.1 1.2-4.5 1.9-6.7v-.9c.1-.4.3-.7.4-1.1v.1c.1-.4.3-.7.3-1.2v-.3s.1 0 0 .2c1-3.4 1.8-6.9 2.9-10.4v.1l.1-.7v.1c.3-.8.5-1.8.7-2.6 0 0 0 .1.1 0 .1-.6.4-1 .3-1.3h.1c.4-1.7.9-3.5 1.5-5.2 0-.2.1-.4.1-.6.1 0 .5.1.9.2.3.1.6.2 1 .3.7.2 1.3.4 2 .5 1.2.3 2.4.6 3.5 1-.2.8-.5 1.6-.7 2.4-.3.8-.4 1.4-.6 2.2-.3 1.5-1 2.9-1.2 4.5V30c0 .2-.3.9-.1.8l-.1.2c-.1 1.1-.6 1.8-.8 3.1V34c-.1.3-.2.7-.3 1v-.1c-.4 1-.6 2.2-.9 3.2V38c-.1.5-.4 1.5-.6 2.2l-.1.4h-.1c-.3 1-.5 1.9-.7 2.7zM85.1 52.4c0-.1 0-.1 0 0zM80.3 64.8h0zM90.8 22.6v-.1.1zM90.8 22.6c0-.1 0 .1 0 0zM90.8 22.6s0 .1 0 0zM90 22.4z"/><path class="st7" d="M89.7 22.5s.1.1.1 0h.3c0 .1.1 0 .1 0v-.1h.3c.1-.1.2 0 .2 0v-.1s-.1.1-.1 0c0 0 0 .1 0 0h-.1v-.1c-.1-.1-.2 0-.3-.1-.1.1-.1-.1-.2 0h-.1c-.1-.1-.3-.1-.4-.2-.2-.1-.3-.2-.5-.1h-.1c-.1.1-.2-.1-.4 0-.1-.1-.3-.1-.4-.1-.1 0-.2-.1-.3-.1-.1-.1-.3.1-.4-.1 0-.1-.2.1-.2-.1-.1-.2-.3-.1-.4-.1-.1-.1-.3 0-.4-.1-.1.1-.1-.1-.2-.1 0-.1-.1.1-.1 0s-.1.1-.1.1v-.1s0 .1 0 0V21v-.1.4c0-.1 0 0 0 0 0 .1.1-.1 0 0h.1v-.1.1c0 .1.1-.1 0 0 0-.1 0 0 .1-.1v.1l.1.1c.1-.1.1.1.1 0 0 0 0 .1.1.1h.1v.1h.1v.1c.1-.1.2 0 .3.1 0 0 .1-.1.1-.2v.1s0 .1.1 0c0 0 0 .1 0 0 .2.1.3 0 .5.1 0 .1.1 0 .1 0 0-.1 0 .1.1 0 .1 0 .2 0 .2.1.1-.1.1 0 .2 0 .1-.1.2.1.3.1h.1c.1-.1.1.1.2 0 0-.1 0 0 .1-.1s.1.1.1 0c0 .1.1 0 .2 0h.1c.2.6.3.6.3.6zM90.2 22.6zM86 21.5zM89.1 28.3zM89.1 28.4c0-.2 0 0 0 0zM89.1 28.4c0-.1-.1 0 0 0-.1 0-.1 0 0 0zM88.3 28.1zM88 28.2s.1.1.1 0h.3c0 .1.1 0 .1 0v-.1h.3c.1-.1.2 0 .2 0V28s-.1.1-.1 0c0 0 0 .1 0 0h-.1v-.1c-.1-.1-.2 0-.3-.1-.1.1-.1-.1-.2 0h-.1c-.2.2-.3.3-.5.2-.2-.1-.3-.2-.5-.1h-.1c-.1.1-.2-.1-.4 0-.1-.1-.3-.1-.4-.1-.1 0-.2-.1-.3-.1-.1-.1-.3.1-.4-.1 0-.1-.2.1-.2-.1-.1-.2-.3-.1-.4-.1-.1-.1-.3 0-.4-.1-.1.1-.1-.1-.2-.1 0-.1-.1.1-.1 0s-.1.1-.1.1v-.1s0 .1 0 0v-.1-.1.4c0-.1 0 0 0 0 0 .1.1-.1 0 0h.1v-.1.1c0 .1.1-.1 0 0 0-.1 0 0 .1-.1v.1l.1.1c.1-.1.1.1.1 0 0 0 0 .1.1.1h.1v.1h.1v.1c.1-.1.2 0 .3.1 0 0 .1-.1.1-.2v.1s0 .1.1 0c0 0 0 .1 0 0 .2.1.3 0 .5.1 0 .1.1 0 .1 0 0-.1 0 .1.1 0 .1 0 .2 0 .2.1.1-.1.1 0 .2 0 .1-.1.2.1.3.1h.1c.1-.1.1.1.2 0 0-.1 0 0 .1-.1s.1.1.1 0c0 .1.1 0 .2 0h.1c.3.3.4.2.4.2zM88.5 28.3zM84.3 27.2zM88.3 23.5v.1zM88.2 23.6c.1-.1 0 .1 0 0zM88.2 23.6s0 .1 0 0zM87.8 23.5zM87.7 23.6s0 .1 0 0c.1.1.2 0 .2 0 0 .1 0 0 0 0v-.1h.2c.1-.1.1 0 .1 0v-.1s0 .1 0 0c0 0 0 .1 0 0h-.1v-.1.1c0-.1-.1 0-.2 0-.1.1 0 0-.1 0l-.1.2c.1-.2 0-.2-.1-.2-.1-.1-.1-.2-.3-.1h-.1c-.1.1-.1-.1-.2 0-.1 0-.1-.1-.2-.1s-.1-.1-.2-.1c0-.1-.2.1-.2 0s-.1.1-.1 0c0-.2-.1-.1-.2 0 0-.1-.2 0-.2-.1-.1.1 0-.1-.1-.1 0-.1-.1.1 0 0 0-.1-.1.1 0 .1 0 0 0 .1 0 0v-.1-.1c0 .1-.1.1-.1.2v.2c0-.1 0 0 0 0 0 .1.1-.1 0 0h.1v-.1.1c0 .1.1-.1 0 0 0-.1 0 0 .1-.1v.2c0-.1 0 0 .1-.1 0 0 0 .1 0 0l.1-.1v.1l.1-.1v.1c.1-.1.1 0 .1.1 0 0 .1-.1.1-.2v.1s0 .1 0 0c0 0 0 .1 0 0 .1.1.2 0 .3 0h.1c0-.1 0 .1 0 0h.1c.1-.1.1 0 .1-.1.1-.1.1 0 .1 0h.1c.1-.1 0 .1.1 0 0-.1 0 0 .1-.1s0 .1.1 0c0 .1.1 0 .1 0 0 .5 0 .6.1.6-.1 0 0 0 0 0zM87.9 23.6zM85.8 23zM87.8 24.9zM87.7 24.9s0 .1 0 0c.1-.1 0 .1 0 0z"/><path class="st7" d="M87.7 24.9c.1 0 0 0 0 0s0 .1 0 0zM87.4 24.8zM87.2 24.9s0 .1 0 0c.1.1.2 0 .2 0 0 .1 0 0 0 0v-.1h.2c.1-.1.1 0 .1 0v-.1s0 .1 0 0c0 0 0 .1 0 0h-.1v-.1.1c0-.1-.1 0-.2 0-.1.1 0 0-.1 0l-.1.2c.1-.2 0-.2-.1-.2-.1-.1-.1-.2-.3-.1h-.1c-.1.1-.1-.1-.2 0-.1 0-.1-.1-.2-.1s-.1-.1-.2-.1c0-.1-.2.1-.2 0s-.1.1-.1 0c0-.2-.1-.1-.2 0 0-.1-.2 0-.2-.1-.1.1 0-.1-.1-.1 0-.1-.1.1 0 0 0-.1-.1.1 0 .1 0 0 0 .1 0 0v-.1-.1c0 .1-.1.1-.1.2v.2c0-.1 0 0 0 0 0 .1.1-.1 0 0h.1v-.1.1c0 .1 0-.1 0 0 0-.1 0 0 .1-.1v.2c0-.1 0 0 .1-.1 0 0 0 .1 0 0l.1-.1v.1l.1-.1v.1c.1-.1.1 0 .1.1 0 0 .1-.1.1-.2v.1s0 .1 0 0c0 0 0 .1 0 0 .1.1.2 0 .3 0h.1c0-.1 0 .1 0 0h.1c.1-.1.1 0 .1-.1.1-.1.1 0 .1 0h.1c.1-.1 0 .1.1 0v-.1c.1-.1 0 .1.1 0 0 .1.1 0 .1 0 .1.6.1.6.2.6-.1.1 0 0 0 0zM87.4 25zM85.3 24.4z"/><g><path class="st7" d="M87.3 26.3v.1zM87.3 26.4c0-.1 0 0 0 0zM87.3 26.4zM86.9 26.3zM86.7 26.4c.1.1.2 0 .2 0 0 .1 0 0 0 0v-.1h.2c.1-.1.1 0 .1 0v-.1s0 .1 0 0c0 0 0 .1 0 0h-.1v-.1.1c0-.1-.1 0-.2 0-.1.1 0 0-.1 0l-.1.2c.1-.2 0-.2-.1-.2-.1-.1-.1-.2-.3-.1h-.1c-.1.1-.1-.1-.2 0 0-.1-.1-.1-.1-.1-.1 0-.1-.1-.2-.1 0-.1-.2.1-.2 0s-.1.1-.1 0c0-.2-.1-.1-.2 0 0-.1-.2 0-.2-.1-.1.1 0-.1-.1-.1 0-.1-.1.1 0 0 0-.1-.1.1 0 .1 0 0 0 .1 0 0v-.1-.1c0 .1-.1.1-.1.2v.2c0-.1 0 0 0 0 0 .1.1-.1 0 0h.1v-.1.1c0 .1.1-.1 0 0 0-.1 0 0 .1-.1v.2c0-.1 0 0 .1-.1 0 0 0 .1 0 0l.1-.1v.1l.1-.1v.1c.1-.1.1 0 .1.1 0 0 .1-.1.1-.2v.1s0 .1 0 0c0 0 0 .1 0 0 .1.1.2 0 .3 0h.1c0-.1 0 .1 0 0h.1c.1-.1.1 0 .1-.1.1-.1.1 0 .1 0h.1c.1-.1 0 .1.1 0 0-.1 0 0 .1-.1s0 .1.1 0c0 .1.1 0 .1 0-.1.5-.1.6 0 .6zM86.9 26.4zM84.8 25.8z"/></g><g><path class="st7" d="M87.6 34l-.1.1zM87.5 34.1c.1-.1 0 .1 0 0zM87.5 34.1zM86.7 33.9zM86.5 34s.1.1.1 0h.3c0 .1.1 0 .1 0v-.1h.3c.1-.1.2 0 .2 0v-.1s-.1.1-.1 0c0 0 0 .1 0 0h-.1v-.1c-.1-.1-.2 0-.3-.1-.1.1-.1-.1-.2 0h-.1c-.1-.1-.3-.1-.4-.2-.2-.1-.3-.2-.5-.1h-.1c-.1.1-.2-.1-.4 0-.1-.1-.3-.1-.4-.1-.1 0-.2-.1-.3-.1-.1-.1-.3.1-.4-.1 0-.1-.2.1-.2-.1-.1-.2-.3-.1-.4-.1-.1-.1-.3 0-.4-.1-.2.3-.2.1-.3.1 0-.1-.1.1-.1 0s-.1.1-.1.1v-.1s0 .1 0 0v-.1-.1.4c0-.1 0 0 0 0 0 .1.1-.1 0 0h.1v-.1.1c0 .1.1-.1 0 0 0-.1 0 0 .1-.1v.1l.1.1c.1-.1.1.1.1 0 0 0 0 .1.1.1h.1v.1h.1v.1c.1-.1.2 0 .3.1 0 0 .1-.1.1-.2v.1s0 .1.1 0c0 0 0 .1 0 0 .2.1.3 0 .5.1 0 .1.1 0 .1 0 0-.1 0 .1.1 0 .1 0 .2 0 .2.1.1-.1.1 0 .2 0 .1-.1.2.1.3.1h.1c.1-.1.1.1.2 0 0-.1 0 0 .1-.1s.1.1.1 0c0 .1.1 0 .2 0h.1c.3.4.3.4.4.4zM86.9 34.1zM82.7 33z"/></g><g><path class="st7" d="M86.7 29.3zM86.7 29.3c0 .1 0 .1 0 0s0 .1 0 0zM86.7 29.3s0 .1 0 0c0 0 0 .1 0 0zM86.3 29.2zM86.1 29.3s0 .1 0 0c.1.1.2 0 .2 0 0 .1 0 0 0 0v-.1h.2c.1-.1.1 0 .1 0v-.1s0 .1 0 0c0 0 0 .1 0 0h-.1V29v.1c0-.1-.1 0-.2 0-.1.1 0 0-.1 0l-.1.2c.1-.2 0-.2-.1-.2-.1-.1-.1-.2-.3-.1h-.1c-.1.1-.1-.1-.2 0-.1 0-.1-.1-.2-.1s-.1-.1-.2-.1c0-.1-.2.1-.2 0s-.1.1-.1 0c0-.2-.1-.1-.2 0 0-.1-.2 0-.2-.1-.1.1 0-.1-.1-.1 0-.1-.1.1 0 0 0-.1-.1.1 0 .1 0 0 0 .1 0 0v-.1-.1c0 .1-.1.1-.1.2v.2c0-.1 0 0 0 0 0 .1.1-.1 0 0h.1v-.1.1c0 .1 0-.1 0 0 0-.1 0 0 .1-.1v.2c0-.1 0 0 .1-.1 0 0 0 .1 0 0l.1-.1v.1l.1-.1v.1c.1-.1.1 0 .1.1 0 0 .1-.1.1-.2v.1s0 .1 0 0c0 0 0 .1 0 0 .1.1.2 0 .3 0h.1c0-.1 0 .1 0 0h.1c.1-.1.1 0 .1-.1.1-.1.1 0 .1 0h.1c.1-.1 0 .1.1 0v-.1c.1-.1 0 .1.1 0 0 .1.1 0 .1 0 .1.6.1.6.2.6 0 .1 0 0 0 0zM86.3 29.4zM84.2 28.8z"/></g><g><path class="st7" d="M86.2 30.6zM86.2 30.7c0-.2 0 0 0 0zM86.2 30.7c0-.1 0 0 0 0zM85.8 30.5zM85.6 30.7c.1-.1 0 0 0 0 .1.1.2 0 .2 0 0 .1 0 0 0 0v-.1h.2c.1-.1.1 0 .1 0v-.1s0 .1 0 0c0 0 0 .1 0 0H86v-.1.1c0-.1-.1 0-.2 0-.1.1 0 0-.1 0l-.1.2c.1-.2 0-.2-.1-.2-.1-.1-.1-.2-.3-.1h-.1c-.1.1-.1-.1-.2 0-.1 0-.1-.1-.2-.1s-.1-.1-.2-.1c0-.1-.2.1-.2 0s-.1.1-.1 0c0-.2-.1-.1-.2 0 0-.1-.2 0-.2-.1-.1.1 0-.1-.1-.1 0-.1-.1.1 0 0 0-.1-.1.1 0 .1 0 0 0 .1 0 0V30v-.1c0 .1-.1.1-.1.2v.2c0-.1 0 0 0 0 0 .1.1-.1 0 0h.1v-.1.1c0 .1 0-.1 0 0 0-.1 0 0 .1-.1v.2c0-.1 0 0 .1-.1 0 0 0 .1 0 0l.1-.1v.1l.1-.1v.1c.1-.1.1 0 .1.1 0 0 .1-.1.1-.2v.1s0 .1 0 0c0 0 0 .1 0 0 .1.1.2 0 .3 0h.1c0-.1 0 .1 0 0h.1c.1-.1.1 0 .1-.1.1-.1.1 0 .1 0h.1c.1-.1 0 .1.1 0v-.1c.1-.1 0 .1.1 0 0 .1.1 0 .1 0 .1.5.1.6.2.6zM85.9 30.7c-.1 0 0 0 0 0zM83.7 30.1z"/></g><g><path class="st7" d="M85.8 32.1h-.1zM85.7 32.1c0 .1 0 .1 0 0 .1-.1 0 .1 0 0zM85.7 32.1s0 .1 0 0c0 0 0 .1 0 0zM85.3 32zM85.1 32.1c.1 0 .1.1 0 0 .1.1.2 0 .2 0 0 .1 0 0 0 0V32h.2c.1-.1.1 0 .1 0v-.1s0 .1 0 0c0 0 0 .1 0 0h-.1v-.1.1c0-.1-.1 0-.2 0-.1.1 0 0-.1 0l-.1.2c.1-.2 0-.2-.1-.2-.1-.1-.1-.2-.3-.1h-.1c-.1.1-.1-.1-.2 0-.1 0-.1-.1-.2-.1s-.1-.1-.2-.1c0-.1-.2.1-.2 0s-.1.1-.1 0c0-.2-.1-.1-.2 0 0-.1-.2 0-.2-.1-.1.1 0-.1-.1-.1 0-.1-.1.1 0 0 0-.1-.1.1 0 .1 0 0 0 .1 0 0v-.1-.1c0 .1-.1.1-.1.2v.2c0-.1 0 0 0 0 0 .1.1-.1 0 0h.1v-.1.1c0 .1.1-.1 0 0 0-.1 0 0 .1-.1v.2c0-.1 0 0 .1-.1 0 0 0 .1 0 0l.1-.1v.1l.1-.1v.1c.1-.1.1 0 .1.1 0 0 .1-.1.1-.2v.1s0 .1 0 0c0 0 0 .1 0 0 .1.1.2 0 .3 0h.1c0-.1 0 .1 0 0h.1c.1-.1.1 0 .1-.1.1-.1.1 0 .1 0h.1c.1-.1 0 .1.1 0 0-.1 0 0 .1-.1s0 .1.1 0c0 .1.1 0 .1 0l.1.6c0 .1 0 0 0 0zM85.4 32.2zM83.2 31.6z"/></g><g><path class="st7" d="M86 39.8zM85.9 39.8c0 .1 0 .1 0 0 .1-.1 0 .1 0 0zM85.9 39.8s0 .1 0 0c0 0 0 .1 0 0zM85.1 39.6s.1 0 0 0c.1 0 .1 0 0 0zM84.9 39.7s.1.1.1 0h.3c0 .1.1 0 .1 0v-.1h.3c.1-.1.2 0 .2 0v-.1s-.1.1-.1 0c0 0 0 .1 0 0h-.1v-.1c-.1-.1-.2 0-.3-.1-.1.1-.1-.1-.2 0h-.1c-.1-.1-.3-.1-.4-.2-.2-.1-.3-.2-.5-.1h-.1c-.1.1-.2-.1-.4 0-.1-.1-.3-.1-.4-.1-.1 0-.2-.1-.3-.1-.1-.1-.3.1-.4-.1 0-.1-.2.1-.2-.1-.1-.2-.3-.1-.4-.1-.1-.1-.3 0-.4-.1-.1.1-.1-.1-.2-.1 0-.1-.1.1-.1 0s-.1.1-.1.1v-.1s0 .1 0 0v-.1-.1.4c0-.1 0 0 0 0 0 .1.1-.1 0 0h.1v-.1.1c0 .1.1-.1 0 0 0-.1 0 0 .1-.1v.1l.1.1c.1-.1.1.1.1 0 0 0 0 .1.1.1h.1v.1h.1v.1c.1-.1.2 0 .3.1 0 0 .1-.1.1-.2v.1s0 .1.1 0c0 0 0 .1 0 0 .2.1.3 0 .5.1 0 .1.1 0 .1 0 0-.1 0 .1.1 0 .1 0 .2 0 .2.1.1-.1.1 0 .2 0 .1-.1.2.1.3.1h.1c.1-.1.1.1.2 0 0-.1 0 0 .1-.1s.1.1.1 0c0 .1.1 0 .2 0h.1c.2.6.3.6.3.6zM85.3 39.8zM81.1 38.7z"/></g><g><path class="st7" d="M85.2 35h-.1zM85.1 35.1c.1-.1 0 0 0 0zM85.1 35.1c0-.1 0 0 0 0zM84.7 34.9zM84.5 35.1c.1-.1.1 0 0 0 .1.1.2 0 .2 0 0 .1 0 0 0 0V35h.2c.1-.1.1 0 .1 0v-.1s0 .1 0 0c0 0 0 .1 0 0h-.1v-.1.1c0-.1-.1 0-.2 0-.1.1 0 0-.1 0l-.1.2c.1-.2 0-.2-.1-.2-.1-.1-.1-.2-.3-.1H84c-.1.1-.1-.1-.2 0-.1 0-.1-.1-.2-.1s-.1-.1-.2-.1c0-.1-.2.1-.2 0s-.1.1-.1 0c0-.2-.1-.1-.2 0 0-.1-.2 0-.2-.1-.1.1 0-.1-.1-.1 0-.1-.1.1 0 0 0-.1-.1.1 0 .1 0 0 0 .1 0 0v-.1-.1c0 .1-.1.1-.1.2v.2c0-.1 0 0 0 0 0 .1.1-.1 0 0h.1v-.1.1c0 .1.1-.1 0 0 0-.1 0 0 .1-.1v.2c0-.1 0 0 .1-.1 0 0 0 .1 0 0l.1-.1v.1l.1-.1v.1c.1-.1.1 0 .1.1 0 0 .1-.1.1-.2v.1s0 .1 0 0c0 0 0 .1 0 0 .1.1.2 0 .3 0h.1c0-.1 0 .1 0 0h.1c.1-.1.1 0 .1-.1.1-.1.1 0 .1 0h.1c.1-.1 0 .1.1 0 0-.1 0 0 .1-.1s0 .1.1 0c0 .1.1 0 .1 0 0 .5.1.6.1.6zM84.8 35.1zM82.6 34.5z"/></g><g><path class="st7" d="M84.7 36.3v.1zM84.6 36.4c.1-.1 0 .1 0 0zM84.6 36.4s0 .1 0 0zM84.2 36.3zM84.1 36.4s0 .1 0 0c.1.1.2 0 .2 0 0 .1 0 0 0 0v-.1h.2c.1-.1.1 0 .1 0v-.1s0 .1 0 0c0 0 0 .1 0 0h-.1v-.1.1c0-.1-.1 0-.2 0-.1.1 0 0-.1 0l-.1.2c.1-.2 0-.2-.1-.2-.1-.1-.1-.2-.3-.1h-.1c-.1.1-.1-.1-.2 0-.1 0-.1-.1-.2-.1s-.1-.1-.2-.1c0-.1-.2.1-.2 0s-.1.1-.1 0c0-.2-.1-.1-.2 0 0-.1-.2 0-.2-.1-.1.1 0-.1-.1-.1 0-.1-.1.1 0 0 0-.1-.1.1 0 .1 0 0 0 .1 0 0v-.1-.1c0 .1-.1.1-.1.2v.2c0-.1 0 0 0 0 0 .1.1-.1 0 0h.1v-.1.1c0 .1.1-.1 0 0 0-.1 0 0 .1-.1v.2c0-.1 0 0 .1-.1 0 0 0 .1 0 0l.1-.1v.1l.1-.1v.1c.1-.1.1 0 .1.1 0 0 .1-.1.1-.2v.1s0 .1 0 0c0 0 0 .1 0 0 .1.1.2 0 .3 0h.1c0-.1 0 .1 0 0h.1c.1-.1.1 0 .1-.1.1-.1.1 0 .1 0h.1c.1-.1 0 .1.1 0 0-.1 0 0 .1-.1s0 .1.1 0c0 .1.1 0 .1 0 0 .5 0 .6.1.6-.1 0-.1 0 0 0zM84.3 36.4zM82.1 35.8z"/></g><g><path class="st7" d="M84.2 37.8zM84.1 37.9c.1-.2 0 0 0 0zM84.1 37.9c0-.1 0 0 0 0zM83.7 37.7c.1 0 0 0 0 0zM83.6 37.9c0-.1 0 0 0 0 .1.1.2 0 .2 0 0 .1 0 0 0 0v-.1h.2c.1-.1.1 0 .1 0v-.1s0 .1 0 0c0 0 0 .1 0 0H84v-.1.1c0-.1-.1 0-.2 0-.1.1 0 0-.1 0l-.1.2c.1-.2 0-.2-.1-.2-.1-.1-.1-.2-.3-.1h-.1c-.1.1-.1-.1-.2 0-.1 0-.1-.1-.2-.1s-.1-.1-.2-.1c0-.1-.2.1-.2 0s-.1.1-.1 0c0-.2-.1-.1-.2 0 0-.1-.2 0-.2-.1-.1.1 0-.1-.1-.1 0-.1-.1.1 0 0 0-.1-.1.1 0 .1 0 0 0 .1 0 0v-.1-.1c0 .1-.1.1-.1.2v.2c0-.1 0 0 0 0 0 .1.1-.1 0 0h.1v-.1.1c0 .1.1-.1 0 0 0-.1 0 0 .1-.1v.2c0-.1 0 0 .1-.1 0 0 0 .1 0 0l.1-.1v.1l.1-.1v.1c.1-.1.1 0 .1.1 0 0 .1-.1.1-.2v.1s0 .1 0 0c0 0 0 .1 0 0 .1.1.2 0 .3 0h.1c0-.1 0 .1 0 0h.1c.1-.1.1 0 .1-.1.1-.1.1 0 .1 0h.1c.1-.1 0 .1.1 0 0-.1 0 0 .1-.1s0 .1.1 0c0 .1.1 0 .1 0 0 .5 0 .6.1.6-.1 0 0 0 0 0zM83.8 37.9zM81.7 37.3z"/></g><g><path class="st7" d="M84.4 45.4v-.1.1zM84.3 45.4c.1-.1 0 .1 0 0zM84.3 45.4s0 .1 0 0zM83.6 45.2zM83.3 45.3s.1.1.1 0h.3c0 .1.1 0 .1 0v-.1h.3c.1-.1.2 0 .2 0v-.1s-.1.1-.1 0c0 0 0 .1 0 0h-.1V45c-.1-.1-.2 0-.3-.1-.1.1-.1-.1-.2 0h-.1c-.1-.1-.3-.1-.4-.2-.2-.1-.3-.2-.5-.1h-.1c-.1.1-.2-.1-.4 0-.1-.1-.3-.1-.4-.1-.1 0-.2-.1-.3-.1-.1-.1-.3.1-.4-.1 0-.1-.2.1-.2-.1-.1-.2-.3-.1-.4-.1-.1-.1-.3 0-.4-.1-.1.1-.1-.1-.2-.1 0-.1-.1.1-.1 0s-.1.1-.1.1v-.1s0 .1 0 0v-.1-.1.4c0-.1 0 0 0 0 0 .1.1-.1 0 0h.1V44v.1c0 .1.1-.1 0 0 0-.1 0 0 .1-.1v.1l.1.1c.1-.1.1.1.1 0 0 0 0 .1.1.1h.1v.1h.1v.1c.1-.1.2 0 .3.1 0 0 .1-.1.1-.2v.1s0 .1.1 0c0 0 0 .1 0 0 .2.1.3 0 .5.1 0 .1.1 0 .1 0 0-.1 0 .1.1 0 .1 0 .2 0 .2.1.1-.1.1 0 .2 0 .1-.1.2.1.3.1h.1c.1-.1.1.1.2 0 0-.1 0 0 .1-.1s.1.1.1 0c0 .1.1 0 .2 0h.1c.2.6.3.6.3.6zM83.7 45.4zM79.5 44.3z"/></g><g><path class="st7" d="M83.6 40.6h-.1zM83.5 40.7c.1-.2 0 0 0 0zM83.5 40.6s0 .1 0 0c0 0 0 .1 0 0zM83.1 40.5zM83 40.6s0 .1 0 0c.1.1.2 0 .2 0 0 .1 0 0 0 0v-.1h.2c.1-.1.1 0 .1 0v-.1s0 .1 0 0c0 0 0 .1 0 0h-.1v-.1.1c0-.1-.1 0-.2 0-.1.1 0 0-.1 0l-.1.2c.1-.2 0-.2-.1-.2-.1-.1-.1-.2-.3-.1h-.1c-.1.1-.1-.1-.2 0-.1 0-.1-.1-.2-.1s-.1-.1-.2-.1c0-.1-.2.1-.2 0s-.1.1-.1 0c0-.2-.1-.1-.2 0 0-.1-.2 0-.2-.1-.1.1 0-.1-.1-.1 0-.1-.1.1 0 0 0-.1-.1.1 0 .1 0 0 0 .1 0 0v-.1-.1c0 .1-.1.1-.1.2v.2c0-.1 0 0 0 0 0 .1.1-.1 0 0h.1v-.1.1c0 .1.1-.1 0 0 0-.1 0 0 .1-.1v.2c0-.1 0 0 .1-.1 0 0 0 .1 0 0l.1-.1v.1l.1-.1v.1c.1-.1.1 0 .1.1 0 0 .1-.1.1-.2v.1s0 .1 0 0c0 0 0 .1 0 0 .1.1.2 0 .3 0h.1c0-.1 0 .1 0 0h.1c.1-.1.1 0 .1-.1.1-.1.1 0 .1 0h.1c.1-.1 0 .1.1 0 0-.1 0 0 .1-.1s0 .1.1 0c0 .1.1 0 .1 0 0 .6 0 .6.1.6-.1.1-.1 0 0 0zM83.2 40.7zM81 40.1z"/></g><g><path class="st7" d="M83.1 41.9zM83 42c.1-.1 0 0 0 0zM83 42c0-.1 0 0 0 0zM82.6 41.8zM82.5 42c0-.1 0 0 0 0 .1.1.2 0 .2 0 0 .1 0 0 0 0v-.1h.2c.1-.1.1 0 .1 0v-.1s0 .1 0 0c0 0 0 .1 0 0h-.1v-.1.1c0-.1-.1 0-.2 0-.1.1 0 0-.1 0l-.1.2c.1-.2 0-.2-.1-.2-.1-.1-.1-.2-.3-.1H82c-.1.1-.1-.1-.2 0-.1 0-.1-.1-.2-.1s-.1-.1-.2-.1c0-.1-.2.1-.2 0s-.1.1-.1 0c0-.2-.1-.1-.2 0 0-.1-.2 0-.2-.1-.1.1 0-.1-.1-.1 0-.1-.1.1 0 0 0-.1-.1.1 0 .1 0 0 0 .1 0 0v-.1-.1c0 .1-.1.1-.1.2v.2c0-.1 0 0 0 0 0 .1.1-.1 0 0h.1v-.1.1c0 .1 0-.1 0 0 0-.1 0 0 .1-.1v.2c0-.1 0 0 .1-.1 0 0 0 .1 0 0l.1-.1v.1l.1-.1v.1c.1-.1.1 0 .1.1 0 0 .1-.1.1-.2v.1s0 .1 0 0c0 0 0 .1 0 0 .1.1.2 0 .3 0h.1c0-.1 0 .1 0 0h.1c.1-.1.1 0 .1-.1.1-.1.1 0 .1 0h.1c.1-.1 0 .1.1 0v-.1c.1-.1 0 .1.1 0 0 .1.1 0 .1 0 .1.5.1.6.2.6-.1 0-.1 0 0 0zM82.7 42zM80.5 41.4z"/></g><g><path class="st7" d="M82.6 43.4zM82.5 43.5c.1-.2 0 0 0 0zM82.5 43.4c.1 0 0 .1 0 0 0 0 0 .1 0 0zM82.2 43.3zM82 43.4s0 .1 0 0c.1.1.2 0 .2 0 0 .1 0 0 0 0v-.1h.2c.1-.1.1 0 .1 0v-.1s0 .1 0 0c0 0 0 .1 0 0h-.1v-.1.1c0-.1-.1 0-.2 0-.1.1 0 0-.1 0l-.1.2c.1-.2 0-.2-.1-.2-.1-.1-.1-.2-.3-.1h-.1c-.1.1-.1-.1-.2 0-.1 0-.1-.1-.2-.1s-.1-.1-.2-.1c0-.1-.2.1-.2 0s-.1.1-.1 0c0-.2-.1-.1-.2 0 0-.1-.2 0-.2-.1-.1.1 0-.1-.1-.1 0-.1-.1.1 0 0 0-.1-.1.1 0 .1 0 0 0 .1 0 0v-.1-.1c0 .1-.1.1-.1.2v.2c0-.1 0 0 0 0 0 .1.1-.1 0 0h.1v-.1.1c0 .1.1-.1 0 0 0-.1 0 0 .1-.1v.2c0-.1 0 0 .1-.1 0 0 0 .1 0 0l.1-.1v.1l.1-.1v.1c.1-.1.1 0 .1.1 0 0 .1-.1.1-.2v.1s0 .1 0 0c0 0 0 .1 0 0 .1.1.2 0 .3 0h.1c0-.1 0 .1 0 0h.1c.1-.1.1 0 .1-.1.1-.1.1 0 .1 0h.1c.1-.1 0 .1.1 0 0-.1 0 0 .1-.1s0 .1.1 0c0 .1.1 0 .1 0 0 .6 0 .6.1.6-.1.1 0 0 0 0zM82.2 43.5zM80.1 42.9z"/></g><g><path class="st7" d="M82.7 51v.1zM82.6 51.1c.1-.1 0 .1 0 0zM82.6 51.1s0 .1 0 0zM81.8 50.9zM81.6 51s.1.1.1 0h.3c0 .1.1 0 .1 0v-.1h.3c.1-.1.2 0 .2 0v-.1s-.1.1-.1 0c0 0 0 .1 0 0h-.1v-.1c-.1-.1-.2 0-.3-.1-.1.1-.1-.1-.2 0h-.1c-.1-.1-.3-.1-.4-.2-.2-.1-.3-.2-.5-.1h-.1c-.1.1-.2-.1-.4 0-.1-.1-.3-.1-.4-.1-.1 0-.2-.1-.3-.1-.1-.1-.3.1-.4-.1 0-.1-.2.1-.2-.1-.1-.2-.3-.1-.4-.1-.1-.1-.3 0-.4-.1-.1.1-.1-.1-.2-.1 0-.1-.1.1-.1 0s-.1.1-.1.1v-.1s0 .1 0 0v-.1-.1.4c0-.1 0 0 0 0 0 .1.1-.1 0 0h.1v-.1.1c0 .1.1-.1 0 0 0-.1 0 0 .1-.1v.1l.1.1c.1-.1.1.1.1 0 0 0 0 .1.1.1h.1v.1h.1v.1c.1-.1.2 0 .3.1 0 0 .1-.1.1-.2v.1s0 .1.1 0c0 0 0 .1 0 0 .2.1.3 0 .5.1 0 .1.1 0 .1 0 0-.1 0 .1.1 0 .1 0 .2 0 .2.1.1-.1.1 0 .2 0 .1-.1.2.1.3.1h.1c.1-.1.1.1.2 0 0-.1 0 0 .1-.1s.1.1.1 0c0 .1.1 0 .2 0h.1c.2.6.3.6.3.6zM82 51.1zM77.8 50z"/></g><g><path class="st7" d="M81.9 46.3h-.1zM81.8 46.4c.1-.2 0 0 0 0zM81.8 46.3s0 .1 0 0c0 0 0 .1 0 0zM81.4 46.2zM81.2 46.3c.1 0 .1.1 0 0 .1.1.2 0 .2 0 0 .1 0 0 0 0v-.1h.2c.1-.1.1 0 .1 0v-.1s0 .1 0 0c0 0 0 .1 0 0h-.1V46v.1c0-.1-.1 0-.2 0-.1.1 0 0-.1 0l-.1.2c.1-.2 0-.2-.1-.2-.1-.1-.1-.2-.3-.1h-.1c-.1.1-.1-.1-.2 0-.1 0-.1-.1-.2-.1s-.1-.1-.2-.1c0-.1-.2.1-.2 0s-.1.1-.1 0c0-.2-.1-.1-.2 0 0-.1-.2 0-.2-.1-.1.1 0-.1-.1-.1 0-.1-.1.1 0 0 0-.1-.1.1 0 .1 0 0 0 .1 0 0v-.1-.1c0 .1-.1.1-.1.2v.2c0-.1 0 0 0 0 0 .1.1-.1 0 0h.1v-.1.1c0 .1 0-.1 0 0 0-.1 0 0 .1-.1v.2c0-.1 0 0 .1-.1 0 0 0 .1 0 0l.1-.1v.1l.1-.1v.1c.1-.1.1 0 .1.1 0 0 .1-.1.1-.2v.1s0 .1 0 0c0 0 0 .1 0 0 .1.1.2 0 .3 0h.1c0-.1 0 .1 0 0h.1c.1-.1.1 0 .1-.1.1-.1.1 0 .1 0h.1c.1-.1 0 .1.1 0v-.1c.1-.1 0 .1.1 0 0 .1.1 0 .1 0 .1.6.2.6.2.6 0 .1 0 0 0 0zM81.5 46.4zM79.3 45.8z"/></g><g><path class="st7" d="M81.4 47.6zM81.3 47.7c.1-.2 0 0 0 0zM81.3 47.7c0-.1 0 0 0 0zM80.9 47.5zM80.8 47.7c0-.1 0 0 0 0 .1.1.2 0 .2 0 0 .1 0 0 0 0v-.1h.2c.1-.1.1 0 .1 0v-.1s0 .1 0 0c0 0 0 .1 0 0h-.1v-.1.1c0-.1-.1 0-.2 0-.1.1 0 0-.1 0l-.1.2c.1-.2 0-.2-.1-.2-.1-.1-.1-.2-.3-.1h-.1c-.1.1-.1-.1-.2 0-.1 0-.1-.1-.2-.1s-.1-.1-.2-.1c0-.1-.2.1-.2 0s-.1.1-.1 0c0-.2-.1-.1-.2 0 0-.1-.2 0-.2-.1-.1.1 0-.1-.1-.1 0-.1-.1.1 0 0 0-.1-.1.1 0 .1 0 0 0 .1 0 0V47v-.1c0 .1-.1.1-.1.2v.2c0-.1 0 0 0 0 0 .1.1-.1 0 0h.1v-.1.1c0 .1.1-.1 0 0 0-.1 0 0 .1-.1v.2c0-.1 0 0 .1-.1 0 0 0 .1 0 0l.1-.1v.1l.1-.1v.1c.1-.1.1 0 .1.1 0 0 .1-.1.1-.2v.1s0 .1 0 0c0 0 0 .1 0 0 .1.1.2 0 .3 0h.1c0-.1 0 .1 0 0h.1c.1-.1.1 0 .1-.1.1-.1.1 0 .1 0h.1c.1-.1 0 .1.1 0 0-.1 0 0 .1-.1s0 .1.1 0c0 .1.1 0 .1 0 0 .5 0 .6.1.6-.1 0-.1 0 0 0zM81 47.7zM78.8 47.1z"/></g><g><path class="st7" d="M80.9 49.1zM80.8 49.2c.1-.2 0 0 0 0zM80.8 49.1s0 .1 0 0c0 0 0 .1 0 0zM80.4 49zM80.3 49.1s0 .1 0 0c.1.1.2 0 .2 0 0 .1 0 0 0 0V49h.2c.1-.1.1 0 .1 0v-.1s0 .1 0 0c0 0 0 .1 0 0h-.1v-.1.1c0-.1-.1 0-.2 0-.1.1 0 0-.1 0l-.1.2c.1-.2 0-.2-.1-.2-.1-.1-.1-.2-.3-.1h-.1c-.1.1-.1-.1-.2 0-.1 0-.1-.1-.2-.1s-.1-.1-.2-.1c0-.1-.2.1-.2 0s-.1.1-.1 0c0-.2-.1-.1-.2 0 0-.1-.2 0-.2-.1-.1.1 0-.1-.1-.1 0-.1-.1.1 0 0 0-.1-.1.1 0 .1 0 0 0 .1 0 0v-.1-.1c0 .1-.1.1-.1.2v.2c0-.1 0 0 0 0 0 .1.1-.1 0 0h.1v-.1.1c0 .1.1-.1 0 0 0-.1 0 0 .1-.1v.2c0-.1 0 0 .1-.1 0 0 0 .1 0 0l.1-.1v.1l.1-.1v.1c.1-.1.1 0 .1.1 0 0 .1-.1.1-.2v.1s0 .1 0 0c0 0 0 .1 0 0 .1.1.2 0 .3 0h.1c0-.1 0 .1 0 0h.1c.1-.1.1 0 .1-.1.1-.1.1 0 .1 0h.1c.1-.1 0 .1.1 0 0-.1 0 0 .1-.1s0 .1.1 0c0 .1.1 0 .1 0 0 .6 0 .6.1.6-.1.1 0 0 0 0zM80.5 49.2zM78.4 48.6z"/></g><g><path class="st7" d="M81 56.7v.1zM80.9 56.8c.1-.1 0 .1 0 0zM80.9 56.8s0 .1 0 0zM80.1 56.6zM79.9 56.7s.1.1.1 0h.3c0 .1.1 0 .1 0v-.1h.3c.1-.1.2 0 .2 0v-.1s-.1.1-.1 0c0 0 0 .1 0 0h-.1v-.1c-.1-.1-.2 0-.3-.1-.1.1-.1-.1-.2 0h-.1c-.1-.1-.3-.1-.4-.2-.2-.1-.3-.2-.5-.1h-.1c-.1.1-.2-.1-.4 0-.1-.1-.3-.1-.4-.1-.1 0-.2-.1-.3-.1-.1-.1-.3.1-.4-.1 0-.1-.2.1-.2-.1-.1-.2-.3-.1-.4-.1-.1-.1-.3 0-.4-.1-.1.1-.1-.1-.2-.1 0-.1-.1.1-.1 0s-.1.1-.1.1v-.1s0 .1 0 0v-.1-.1.4c0-.1 0 0 0 0 0 .1.1-.1 0 0h.1v-.1.1c0 .1.1-.1 0 0 0-.1 0 0 .1-.1v.1l.1.1c.1-.1.1.1.1 0 0 0 0 .1.1.1h.1v.1h.1v.1c.1-.1.2 0 .3.1 0 0 .1-.1.1-.2v.1s0 .1.1 0c0 0 0 .1 0 0 .2.1.3 0 .5.1 0 .1.1 0 .1 0 0-.1 0 .1.1 0 .1 0 .2 0 .2.1.1-.1.1 0 .2 0 .1-.1.2.1.3.1h.1c.1-.1.1.1.2 0 0-.1 0 0 .1-.1s.1.1.1 0c0 .1.1 0 .2 0h.1c.2.6.2.6.3.6zM80.3 56.8zM76.1 55.7z"/></g><g><path class="st7" d="M80.1 52h.1-.1zM80.1 52.1c.1-.2 0 0 0 0zM80.1 52s0 .1 0 0c0 0 0 .1 0 0zM79.7 51.9zM79.5 52c.1 0 .1.1 0 0 .1.1.2 0 .2 0 0 .1 0 0 0 0v-.1h.2c.1-.1.1 0 .1 0v-.1s0 .1 0 0c0 0 0 .1 0 0h-.1v-.1.1c0-.1-.1 0-.2 0-.1.1 0 0-.1 0l-.1.2c.1-.2 0-.2-.1-.2-.1-.1-.1-.2-.3-.1H79c-.1.1-.1-.1-.2 0-.1 0-.1-.1-.2-.1s-.1-.1-.2-.1c0-.1-.2.1-.2 0s-.1.1-.1 0c0-.2-.1-.1-.2 0 0-.1-.2 0-.2-.1-.1.1 0-.1-.1-.1 0-.1-.1.1 0 0 0-.1-.1.1 0 .1 0 0 0 .1 0 0v-.1-.1c0 .1-.1.1-.1.2v.2c0-.1 0 0 0 0 0 .1.1-.1 0 0h.1v-.1.1c0 .1 0-.1 0 0 0-.1 0 0 .1-.1v.2c0-.1 0 0 .1-.1 0 0 0 .1 0 0l.1-.1v.1l.1-.1v.1c.1-.1.1 0 .1.1 0 0 .1-.1.1-.2v.1s0 .1 0 0c0 0 0 .1 0 0 .1.1.2 0 .3 0h.1c0-.1 0 .1 0 0h.1c.1-.1.1 0 .1-.1.1-.1.1 0 .1 0h.1c.1-.1 0 .1.1 0v-.1c.1-.1 0 .1.1 0 0 .1.1 0 .1 0 .1.6.1.6.2.6 0 .1 0 0 0 0zM79.8 52.1zM77.6 51.5z"/></g><g><path class="st7" d="M79.7 53.3h-.1zM79.6 53.4c.1-.2 0 0 0 0zM79.6 53.4c0-.1 0 0 0 0zM79.2 53.2zM79.1 53.4c0-.1 0 0 0 0 .1.1.2 0 .2 0 0 .1 0 0 0 0v-.1h.2c.1-.1.1 0 .1 0v-.1s0 .1 0 0c0 0 0 .1 0 0h-.1v-.1.1c0-.1-.1 0-.2 0-.1.1 0 0-.1 0l-.1.2c.1-.2 0-.2-.1-.2-.1-.1-.1-.2-.3-.1h-.1c-.1.1-.1-.1-.2 0-.1 0-.1-.1-.2-.1s-.1-.1-.2-.1c0-.1-.2.1-.2 0s-.1.1-.1 0c0-.2-.1-.1-.2 0 0-.1-.2 0-.2-.1-.1.1 0-.1-.1-.1 0-.1-.1.1 0 0 0-.1-.1.1 0 .1 0 0 0 .1 0 0v-.1-.1c0 .1-.1.1-.1.2v.2c0-.1 0 0 0 0 0 .1.1-.1 0 0h.1v-.1.1c0 .1.1-.1 0 0 0-.1 0 0 .1-.1v.2c0-.1 0 0 .1-.1 0 0 0 .1 0 0l.1-.1v.1l.1-.1v.1c.1-.1.1 0 .1.1 0 0 .1-.1.1-.2v.1s0 .1 0 0c0 0 0 .1 0 0 .1.1.2 0 .3 0h.1c0-.1 0 .1 0 0h.1c.1-.1.1 0 .1-.1.1-.1.1 0 .1 0h.1c.1-.1 0 .1.1 0 0-.1 0 0 .1-.1s0 .1.1 0c0 .1.1 0 .1 0 0 .5 0 .6.1.6-.1 0-.1 0 0 0zM79.3 53.4zM77.1 52.8z"/></g><g><path class="st7" d="M79.2 54.8zM79.1 54.8c0 .1 0 .1 0 0 .1-.1 0 .1 0 0zM79.1 54.8s0 .1 0 0c0 0 0 .1 0 0zM78.7 54.7zM78.6 54.8s0 .1 0 0c.1.1.2 0 .2 0 0 .1 0 0 0 0v-.1h.2c.1-.1.1 0 .1 0v-.1s0 .1 0 0c0 0 0 .1 0 0H79v-.1.1c0-.1-.1 0-.2 0-.1.1 0 0-.1 0l-.1.2c.1-.2 0-.2-.1-.2-.1-.1-.1-.2-.3-.1h-.1c-.1.1-.1-.1-.2 0-.1 0-.1-.1-.2-.1s-.1-.1-.2-.1c0-.1-.2.1-.2 0s-.1.1-.1 0c0-.2-.1-.1-.2 0 0-.1-.2 0-.2-.1-.1.1 0-.1-.1-.1 0-.1-.1.1 0 0 0-.1-.1.1 0 .1 0 0 0 .1 0 0v-.1-.1c0 .1-.1.1-.1.2v.2c0-.1 0 0 0 0 0 .1.1-.1 0 0h.1v-.1.1c0 .1.1-.1 0 0 0-.1 0 0 .1-.1v.2c0-.1 0 0 .1-.1 0 0 0 .1 0 0l.1-.1v.1l.1-.1v.1c.1-.1.1 0 .1.1 0 0 .1-.1.1-.2v.1s0 .1 0 0c0 0 0 .1 0 0 .1.1.2 0 .3 0h.1c0-.1 0 .1 0 0h.1c.1-.1.1 0 .1-.1.1-.1.1 0 .1 0h.1c.1-.1 0 .1.1 0 0-.1 0 0 .1-.1s0 .1.1 0c0 .1.1 0 .1 0 0 .6 0 .6.1.6-.1.1 0 0 0 0zM78.8 54.9zM76.7 54.3z"/></g><g><path class="st7" d="M79.6 62.3h-.1zM79.5 62.4c0-.2 0 0 0 0zM79.5 62.3s0 .1 0 0c0 0 0 .1 0 0zM78.7 62.1zM78.5 62.2s.1.1.1 0h.3c0 .1.1 0 .1 0v-.1h.3c.1-.1.2 0 .2 0V62s-.1.1-.1 0c0 0 0 .1 0 0h-.1v-.1c-.1-.1-.2 0-.3-.1-.1.1-.1-.1-.2 0h-.1c-.2.2-.4.2-.5.2-.2-.1-.3-.2-.5-.1h-.1c-.1.1-.2-.1-.4 0-.1-.1-.3-.1-.4-.1-.1 0-.2-.1-.3-.1-.1-.1-.3.1-.4-.1 0-.1-.2.1-.2-.1-.1-.2-.3-.1-.4-.1-.1-.1-.3 0-.4-.1-.1-.1-.1-.3-.2-.3 0-.1-.1.1-.1 0s-.1.1-.1.1V61s0 .1 0 0v-.1-.1.4c0-.1 0 0 0 0 0 .1.1-.1 0 0h.1v-.1.1c0 .1.1-.1 0 0 0-.1 0 0 .1-.1v.1l.1.1c.1-.1.1.1.1 0 0 0 0 .1.1.1h.1v.1h.1v.1c.1-.1.2 0 .3.1 0 0 .1-.1.1-.2v.1s0 .1.1 0c0 0 0 .1 0 0 .2.1.3 0 .5.1 0 .1.1 0 .1 0 0-.1 0 .1.1 0 .1 0 .2 0 .2.1.1-.1.1 0 .2 0 .1-.1.2.1.3.1h.1c.1-.1.1.1.2 0 0-.1 0 0 .1-.1s.1.1.1 0c0 .1.1 0 .2 0h.1c.3.4.3.4.4.4zM78.9 62.3zM74.7 61.2z"/></g><g><path class="st7" d="M78.7 57.5zM78.7 57.6c0-.1 0 0 0 0zM78.7 57.6s-.1 0 0 0zM78.3 57.5zM78.1 57.6c.1.1.2 0 .2 0 0 .1 0 0 0 0v-.1h.2c.1-.1.1 0 .1 0v-.1s0 .1 0 0c0 0 0 .1 0 0h-.1v-.1.1c0-.1-.1 0-.2 0-.1.1 0 0-.1 0l-.1.2c.1-.2 0-.2-.1-.2-.1-.1-.1-.2-.3-.1h-.1c-.1.1-.1-.1-.2 0-.1 0-.1-.1-.2-.1s-.1-.1-.2-.1c0-.1-.2.1-.2 0s-.1.1-.1 0c0-.2-.1-.1-.2 0 0-.1-.2 0-.2-.1-.1.1 0-.1-.1-.1 0-.1-.1.1 0 0 0-.1-.1.1 0 .1 0 0 0 .1 0 0v-.1-.1c0 .1-.1.1-.1.2v.2c0-.1 0 0 0 0 0 .1.1-.1 0 0h.1v-.1.1c0 .1.1-.1 0 0 0-.1 0 0 .1-.1v.2c0-.1 0 0 .1-.1 0 0 0 .1 0 0l.1-.1v.1l.1-.1v.1c.1-.1.1 0 .1.1 0 0 .1-.1.1-.2v.1s0 .1 0 0c0 0 0 .1 0 0 .1.1.2 0 .3 0h.1c0-.1 0 .1 0 0h.1c.1-.1.1 0 .1-.1.1-.1.1 0 .1 0h.1c.1-.1 0 .1.1 0 0-.1 0 0 .1-.1s0 .1.1 0c0 .1.1 0 .1 0 0 .5 0 .6.1.6zM78.3 57.6zM76.2 57z"/></g><g><path class="st7" d="M78.2 58.9v-.1.1zM78.2 58.9c0-.1 0 .1 0 0zM78.2 58.9s0 .1 0 0zM77.8 58.8zM77.6 58.9s0 .1 0 0c.1.1.2 0 .2 0 0 .1 0 0 0 0v-.1h.2c.1-.1.1 0 .1 0v-.1s0 .1 0 0c0 0 0 .1 0 0H78v-.1.1c0-.1-.1 0-.2 0-.1.1 0 0-.1 0l-.1.2c.1-.2 0-.2-.1-.2-.1-.1-.1-.2-.3-.1h-.1c-.1.1-.1-.1-.2 0-.1 0-.1-.1-.2-.1s-.1-.1-.2-.1c0-.1-.2.1-.2 0s-.1.1-.1 0c0-.2-.1-.1-.2 0 0-.1-.2 0-.2-.1-.1.1 0-.1-.1-.1 0-.1-.1.1 0 0 0-.1-.1.1 0 .1 0 0 0 .1 0 0v-.1-.1c0 .1-.1.1-.1.2v.2c0-.1 0 0 0 0 0 .1.1-.1 0 0h.1v-.1.1c0 .1.1-.1 0 0 0-.1 0 0 .1-.1v.2c0-.1 0 0 .1-.1 0 0 0 .1 0 0l.1-.1v.1l.1-.1v.1c.1-.1.1 0 .1.1 0 0 .1-.1.1-.2v.1s0 .1 0 0c0 0 0 .1 0 0 .1.1.2 0 .3 0h.1c0-.1 0 .1 0 0h.1c.1-.1.1 0 .1-.1.1-.1.1 0 .1 0h.1c.1-.1 0 .1.1 0 0-.1 0 0 .1-.1s0 .1.1 0c0 .1.1 0 .1 0 0 .6 0 .6.1.6zM77.8 58.9zM75.7 58.4z"/></g><g><path class="st7" d="M77.8 60.3h-.1zM77.7 60.4c.1-.1 0 0 0 0zM77.7 60.4zM77.3 60.3c0-.1 0 0 0 0zM77.1 60.4c.1 0 .1 0 0 0 .1.1.2 0 .2 0 0 .1 0 0 0 0v-.1h.2c.1-.1.1 0 .1 0v-.1s0 .1 0 0c0 0 0 .1 0 0h-.1v-.1.1c0-.1-.1 0-.2 0-.1.1 0 0-.1 0l-.1.2c.1-.2 0-.2-.1-.2-.1-.1-.1-.2-.3-.1h-.1c-.1.1-.1-.1-.2 0-.1 0-.1-.1-.2-.1s-.1-.1-.2-.1c0-.1-.2.1-.2 0s-.1.1-.1 0c0-.2-.1-.1-.2 0 0-.1-.2 0-.2-.1-.1.1 0-.1-.1-.1 0-.1-.1.1 0 0 0-.1-.1.1 0 .1 0 0 0 .1 0 0v-.1-.1c0 .1-.1.1-.1.2v.2c0-.1 0 0 0 0 0 .1.1-.1 0 0h.1v-.1.1c0 .1.1-.1 0 0 0-.1 0 0 .1-.1v.2c0-.1 0 0 .1-.1 0 0 0 .1 0 0l.1-.1v.1l.1-.1v.1c.1-.1.1 0 .1.1 0 0 .1-.1.1-.2v.1s0 .1 0 0c0 0 0 .1 0 0 .1.1.2 0 .3 0h.1c0-.1 0 .1 0 0h.1c.1-.1.1 0 .1-.1.1-.1.1 0 .1 0h.1c.1-.1 0 .1.1 0 0-.1 0 0 .1-.1s0 .1.1 0c0 .1.1 0 .1 0 0 .5 0 .6.1.6zM77.4 60.4zM75.2 59.8z"/></g></g></svg>