<svg id="Layer_1" xmlns="http://www.w3.org/2000/svg" viewBox="0 0 128 128"><style>.st0{fill:#FFF}.st1{fill:#bcbdbe}.st2{fill:#666}.st3{fill:none;stroke-width:.2416;stroke-linecap:round;stroke-linejoin:round}.st3,.st4{stroke:#6cbae5}.st4{stroke-width:.3275}.st4,.st5{fill:none;stroke-linecap:round;stroke-linejoin:round}.st5{stroke:#d32a2a;stroke-width:.2472}.st6{fill:#727272}</style><ellipse class="st0" cx="64" cy="64" rx="62.4" ry="64"/><path class="st1" d="M123.1 69.2h.1-.1zM122.9 69.2c-.1 0-.1 0 0 0h0zM122.9 69.2h-.1c.1-.1-.1-.1.1 0zM122.9 68.3zM122.3 68.1h-.1c.2.1 0 .1.1.1-.1.1.2.2.3.3h-.1 0c-.2 0 .1.1 0 .1h.2c.1.1.1.2.3.3h-.2c.4.1.2.2.1.2h.2c.1 0-.2-.1-.1-.1h.1s0-.1-.2-.1h.2-.2c.1-.1-.1-.2-.1-.4-.4-.1.1-.1 0-.2-.1 0-.1-.1-.1-.1h-.2c.3-.1.1-.3.3-.5.1-.2.4-.3-.1-.5h.1c-.1-.1.1-.1 0-.1-.3-.1.1-.2-.3-.4 0-.1 0-.3-.1-.5h.1c-.2-.1.3-.2.1-.3.2-.1-.4-.3-.2-.4.4-.1-.4-.2 0-.2.6-.1.2-.3-.1-.4.2-.1-.3-.3.1-.4-.3-.1.3-.1.3-.2h-.1c.3 0-.4-.1 0-.1H122.3 122.9h-.6.2-.2-.4c.2 0 .1 0 0 0h-.1c-.2 0 .4 0 0 0 .1 0 .1.1.1.1h.2c-.3 0-.3 0-.3.1 0 0-.1 0 0 0-.3 0 .3 0-.1.1.3 0-.1 0 .3.1h-.2l-.1.1c.3 0-.1.1.2.1-.1 0-.2.1-.1.1 0 0 0 .1.3.1h-.4c.2 0 .1.1.3.1h-.2c.4.1.3.2-.1.3.1 0 .4 0 .6.1h-.1s-.2 0-.1.1h-.1c.1 0-.2 0 0 .1h-.1.1-.2c-.1.2.3.3.2.5h-.1 0c-.1 0 .1.1 0 .1h-.2c.2 0-.3 0 .2.1h-.2c.1.1.1.2.1.3.4.1 0 .2.3.2h-.1c.3.1 0 .2 0 .3l.1.1h-.1c.4.1-.3.1.1.2h-.1c.2 0-.1 0 .3.1h-.1c.5.1-.2.1.1.2h-.1c.1 0 .1 0 0 0h-.1c-.3 0 0 .1 0 .2h-.2c.2 0 0 .1.1.1h-.1.1-.1c.3-.1.4-.1.4 0zM122.4 68.5zM121.9 64.1zM120.9 81.1h-.1zM120.6 81l.3.1c.2 0-.4-.1-.3-.1zM120.7 81c.1 0-.1 0-.1-.1.1.1-.1.1.1.1zM120.8 80.2z"/><path class="st1" d="M120.3 79.8h-.1c.2.1 0 .1.1.2-.1.1.1.2.2.4h-.1 0c-.2 0 .1.1 0 .1 0 0 .1 0 .2.1 0 .1.1.2.2.3h-.2c.3.2.2.2.1.3.1 0 .1 0 .2.1.1 0-.2-.1 0-.1h.1c.1 0-.2-.1-.1-.1h.1s.1-.1-.1-.1h.2c-.1 0-.1 0-.2-.1.1-.1 0-.3 0-.4-.4-.2.1-.1 0-.2-.1 0-.1-.1-.1-.1l-.1-.1c.4-.1.2-.3.3-.4.1-.2.4-.2 0-.5h.1c-.1-.1.1-.1 0-.1-.3-.2.1-.2-.2-.4.1-.1.1-.3 0-.5h.1c-.1-.2.3-.2.2-.3.2-.1-.4-.3-.1-.4.4 0-.4-.3 0-.2.6 0 .3-.2 0-.5.2-.1-.3-.3.2-.4-.2-.1.4-.1.3-.1h-.1c.3 0-.4-.1 0-.1.2 0-.5-.1-.2-.1h-.1.1c.4.1-.1-.1.4 0 0 0 .2 0 .3.1.1 0 0 0-.2-.1-.2 0-.4-.1-.6-.1h.2-.2-.4c.2 0 .1 0 0 0h-.1c-.2 0 .4.1 0 0 .1.1.1.1 0 .2.1 0 0 0 .2.1h-.3s-.1 0 0 0c-.3 0 .3.1-.1 0 .3.1-.1 0 .2.1h-.2s-.1.1-.2.1c.2.1-.1 0 .2.1-.1 0-.2 0-.1.1 0 0 0 .1.2.2-.3-.1-.3 0-.4 0 .2.1.1.1.2.2h-.2c.4.2.2.3-.1.3.1 0 .4.1.5.2h-.1-.2-.1c.1 0-.2 0 0 .1h-.1.1-.2c-.1.1.2.4.1.6h-.1l.1.1h-.1c-.1 0 .1.1 0 .1h-.1c.2.1-.3 0 .1.1h-.1c.1.1.1.2 0 .3.4.2 0 .2.3.3h-.1c.2.2-.1.2 0 .3v.1h-.1c.3.2-.4.1 0 .2h-.1c.2.1-.1 0 .3.1h-.1c.4.2-.2 0 0 .2h-.1c.1 0 .1.1 0 .1h-.1c-.3 0 0 .1 0 .2h-.1c.2.1 0 .1.1.1h-.1.1-.1c.4-.8.5-.7.5-.7zM120.4 80.3c-.1 0-.1 0 0 0zM120.7 75.8zM116.3 92.3h-.1zM116 92.1l.2.2c.3.1-.3-.2-.2-.2zM116.1 92.1c.1 0-.1-.1-.1-.1.1.1-.1.1.1.1zM116.4 91.4z"/><path class="st1" d="M116 90.9l-.1-.1c.1.2-.1.1.1.1l-.1.1c-.1.1.1.3.1.4h-.1l.1.1h-.1c-.2-.1.1.1-.1.1 0 0 .1.1.2.1 0 .1 0 .2.1.4 0 0-.1 0-.1-.1.3.2.1.2 0 .3.1 0 .1 0 .2.1.1 0-.2-.1 0-.1h.1c.1 0-.2-.1-.1-.1s.1.1.1.1.1 0-.1-.2c.2.1 0 0 .2 0-.1 0 0 0-.2-.1.1-.1 0-.3.1-.4-.3-.2.1-.1 0-.2s-.1-.1 0-.1l-.1-.1c.4 0 .2-.2.4-.3.2-.1.5-.1.1-.5h.1c0-.1.1-.1 0-.1-.2-.2.1-.2-.1-.5.1-.1.1-.3.1-.4h.1c-.1-.2.3-.1.3-.3.2 0-.3-.4 0-.4.4.1-.3-.3.1-.2.6.1.3-.2.1-.4.2 0-.2-.4.3-.3-.2-.2.4 0 .3-.1h-.1c.3.1-.3-.2.1-.1.2.1-.5-.2-.2-.1h-.1s.1 0 .2.1c0 0-.2-.1-.1-.1.4.2-.1-.1.4.1 0 0 .2.1.3.1l-.2-.1c-.2-.1-.4-.2-.5-.2l.1.1c-.1-.1-.1 0-.2-.1 0 0-.2-.1-.3-.1.2.1.1.1 0 0h-.1c-.2-.1.3.2 0 0 .1.1 0 .1 0 .2.1.1 0 0 .2.1-.2-.1-.3-.1-.3-.1-.3-.1.3.2-.1 0 .3.1-.1 0 .2.2-.1 0-.1 0-.2-.1 0 0-.1 0-.2.1.2.1-.1 0 .2.2h-.1s0 .1.2.2c-.3-.1-.3-.1-.4-.1l.2.2c-.1-.1 0 .1-.2 0 .4.3.2.3-.2.3.1.1.4.2.5.3h-.1-.2-.1c.1.1-.2 0 0 .1h-.1.1c-.1 0-.2-.1-.1-.1-.1.1.1.4 0 .6h-.1l.1.1h-.1c-.1 0 0 .1 0 .1l-.1-.1c.2.1-.3-.1.1.1l-.1-.1c.1.1 0 .2-.1.3.3.2 0 .2.2.4h-.1c.2.2-.1.2-.1.3v.1h-.1c.3.2-.4 0 0 .2l-.1-.1c.2.1-.1 0 .2.2h-.1c.4.3-.2 0 0 .2h-.1c.1 0 .1.1 0 .1h-.1c-.3-.1 0 .1-.1.2l-.1-.1c.2.1 0 .1 0 .1h-.1l.1.1-.1-.1c.2-.6.3-.5.3-.5zM115.9 91.4zM117.1 87.1c.1 0 .1 0 0 0 0 0 .1 0 0 0zM109.5 102.3v.1l-.1-.1zM109.3 102.1l.2.2c.2.1-.3-.3-.2-.2z"/><path class="st1" d="M109.3 102.1c.1 0-.1-.1-.1-.1l.1.1zM109.8 101.4z"/><path class="st1" d="M109.5 100.9l-.1-.1c.2.2-.1.1 0 .2-.1.1 0 .3 0 .4h-.1l.1.1-.1-.1c-.2-.1.1.1-.1 0l.1.1c0 .1 0 .2.1.4l-.1-.1c.2.3.1.3 0 .3.1.1.1.1.2.1.1.1-.2-.2 0-.1l.1.1c.1 0-.2-.1-.1-.1s.1.1.1.1c0-.1.1 0-.1-.2l.2.1c-.1-.1 0-.1-.1-.1.2 0 .1-.2.2-.3-.3-.3.1-.1.1-.2-.1-.1-.1-.1 0-.1l-.1-.1c.4.1.3-.2.5-.2.2-.1.5 0 .2-.5h.1c0-.1.1 0 .1-.1-.2-.3.2-.2 0-.5.1-.1.2-.2.2-.4h.1c-.1-.2.3 0 .3-.2.2 0-.2-.5.1-.4.3.2-.2-.4.1-.2.6.2.3-.1.1-.4.3 0-.1-.4.3-.3-.2-.2.4.1.3 0l-.2-.1c.2.1-.3-.3.1 0 .2.1-.4-.3-.2-.2l-.1-.1.1.1s-.2-.1-.1-.1c.4.2-.1-.1.3.2 0 0 .2.1.2.2l-.1-.1c-.2-.1-.3-.2-.5-.3l.1.1c-.1-.1-.1 0-.2-.1 0 0-.2-.1-.3-.2.2.1 0 .1 0 .1h-.1c-.2-.1.3.2 0 0v.2c.1.1 0 0 .2.1-.2-.1-.3-.2-.3-.1-.3-.2.2.2-.1 0 .2.2-.1 0 .2.2-.1 0-.1-.1-.1-.1h-.2c.2.2-.1 0 .1.2-.1 0-.2-.1-.1 0 0 0 0 .1.2.2-.3-.2-.2-.1-.3-.2.1.1 0 .1.1.2-.1-.1 0 .1-.2-.1.3.3.1.3-.2.2l.4.4s-.2-.1-.1 0h-.1c.1.1-.2-.1 0 0h-.1l.1.1c-.1 0-.2-.1-.1-.1-.2.1.1.5-.1.6h-.1l.1.1h-.1c-.1 0 0 .1 0 .1l-.1-.1c.1.2-.2-.1.1.1l-.1-.1c.1.2 0 .2-.1.2.3.3-.1.1.1.4h-.1c.2.2-.1.1-.2.3v.1l-.1-.1c.3.3-.4-.1-.1.2l-.1-.1c.2.1-.1 0 .2.2l-.1-.1c.3.3-.2-.1 0 .2l-.1-.1c0 .1.1.1 0 .1-.3-.2 0 .1-.1.1l-.1-.1c.1.1 0 .1 0 .1h-.1.1v-.2c-.1 0 0 .1 0 .2zM109.3 101.3zM111.4 97.4zM100.9 110.8l-.1-.1zM100.7 110.5l.2.2c.1.2-.3-.3-.2-.2zM100.7 110.6c.1.1 0-.1-.1-.1.1 0 0-.1.1.1zM101.3 110z"/><path class="st1" d="M101.1 109.4l-.1-.1c.1.2-.1.1 0 .2-.1 0 0 .3-.1.4v-.1l.1.1v-.1c-.2-.2 0 .2-.1 0l.1.1c0 .1-.1.2 0 .4l-.1-.1c.2.3 0 .3-.1.3.1.1.1.1.1.2.1.1-.1-.2 0-.1l.1.1s-.1-.2-.1-.1l.1.1c0-.1.1 0 0-.2.1.1 0 0 .2.1 0-.1 0-.1-.1-.2.2 0 .1-.2.2-.3-.2-.3.1 0 .1-.2v-.1l-.1-.1c.3.2.3-.1.5-.1s.5.1.3-.4v.1c0-.1.1 0 .1-.1-.1-.3.2-.1.1-.5.1-.1.2-.2.3-.4l.1.1c0-.2.3 0 .3-.1.2 0-.1-.5.1-.4.3.2-.2-.4.2-.2.5.3.4 0 .2-.4.2.1 0-.4.4-.2-.1-.2.3.2.3.1l-.1-.1c.2.2-.2-.3.1 0 .2.1-.3-.4-.1-.2l-.1-.1.1.1-.1-.1c.3.3 0-.1.3.3l.2.2-.1-.2c-.1-.2-.3-.3-.4-.4l.1.1-.1-.1s-.2-.2-.3-.2c.1.1 0 .1 0 .1l-.1-.1c-.1-.1.2.3 0 0 0 .1 0 .1-.1.1.1.1 0 0 .1.2-.2-.2-.3-.2-.3-.2-.3-.2.2.3-.1 0 .2.2-.1 0 .1.2l-.1-.1h-.2c.2.2-.1 0 .1.2-.1 0-.2-.1-.1 0 0 0 0 .1.1.3l-.3-.3c.1.1 0 .1.1.3-.1-.1 0 .1-.1-.1.2.4 0 .4-.3.2.1.1.3.3.4.5 0 0-.2-.1-.1-.1v-.1c.1.1-.2-.1 0 0v.1l-.1-.1c-.2.1 0 .5-.2.5v-.1l.1.1v-.1c-.1-.1 0 .1-.1.1l-.1-.1c.1.2-.2-.2.1.2l-.1-.1c0 .2 0 .2-.2.2.2.3-.1.1.1.4l-.1-.1c.1.3-.2.1-.2.2-.1 0 0 .1 0 .1l-.1-.1c.2.3-.3-.2-.1.2l-.1-.1c.1.2-.1 0 .2.2l-.1-.1c.3.4-.2-.1-.1.2l-.1-.1v.1c-.3-.2-.1.1-.1.1l-.1-.1c.1.2 0 .1 0 .1v-.1l.1.1-.1-.1c-.3 0-.3.1-.3.2zM100.9 109.8zM103.7 106.3z"/><g><path class="st1" d="M90.7 117.3v.1-.1zM90.6 117.1s0-.1 0 0l.1.3c.1.1-.2-.4-.1-.3z"/><path class="st1" d="M90.6 117.1c0 .1 0-.1-.1-.1.1.1 0-.1.1.1zM91.3 116.6zM91.2 116l-.1-.1c.1.2-.1 0-.1.2-.1 0-.1.3-.1.4v-.1s.1.1 0 .1v-.1c-.1-.2 0 .2-.1 0 0 0 0 .1.1.2 0 .1-.1.2-.1.4 0 0 0-.1-.1-.1.1.4 0 .3-.1.3 0 .1.1.1.1.2.1.1-.1-.2 0-.1v.1s-.1-.2 0-.1c0 .1.1.1.1.1s.1 0 0-.2c.1.2 0 0 .1.1 0-.1 0-.1-.1-.2.2 0 .2-.2.3-.2-.1-.4.1 0 .1-.1v-.1l-.1-.2c.3.2.3-.1.5 0 .2 0 .5.2.4-.4v.1c0-.1.1 0 .1-.1 0-.3.2-.1.2-.4.1 0 .3-.1.3-.3v.1c0-.2.3.1.4-.1.2.1 0-.5.2-.4.3.3-.1-.5.2-.2.4.4.4 0 .3-.3.2.1.1-.4.4-.1-.1-.3.3.2.3.1l-.1-.1c.2.2-.2-.4.1 0l-.1-.2-.1-.1.1.1s-.1-.2-.1-.1c.2.4 0-.1.2.3l.1.2-.1-.2c-.1-.2-.2-.4-.3-.5l.1.1c-.1-.1 0-.1-.1-.2 0 0-.2-.2-.2-.3.1.2 0 .1 0 .1v-.1c-.1-.2.2.3 0 0 0 .1 0 .1-.1.1.1.1 0 0 .1.2-.2-.2-.2-.3-.2-.2-.2-.3.1.3-.1-.1.2.3-.1-.1.1.2 0-.1-.1-.1-.1-.2 0 0-.1-.1-.2 0 .1.2-.1-.1 0 .3-.1-.1-.2-.2-.1 0v.3c-.2-.3-.2-.2-.2-.3.1.1 0 .1 0 .3-.1-.1 0 .1-.1-.1.1.4 0 .4-.3.1.1.1.2.4.3.5v-.1l-.1-.1v-.1c0 .1-.1-.1-.1 0v-.1.1c0-.1-.1-.2-.1-.1-.2 0-.1.4-.3.5v-.1 0c-.1-.1 0 .1-.1.1 0 0 0-.1-.1-.1.1.2-.2-.2 0 .2l-.1-.1c0 .2-.1.2-.2.2.1.4-.1.1 0 .4v-.1c.1.3-.2.1-.2.2-.1 0 0 .1-.1.1v-.1c.1.4-.3-.2-.2.2l-.1-.1c.1.2-.1 0 .1.3l-.1-.1c.2.4-.2-.1-.1.2v-.1 0c-.2-.3-.1.1-.1.1l-.1-.1c.1.2-.1 0 0 .1v-.1.1l-.1-.1c.3 0 .4.2.3.2zM90.9 116.4zM94.4 113.6z"/></g><g><path class="st1" d="M79.4 121.7v.1-.2zM79.4 121.4v.3c.1.2-.1-.4 0-.3zM79.4 121.5v-.1.1zM80.2 121.1zM80.2 120.5v-.1c0 .2-.1 0-.1.1-.1 0-.1.2-.2.4v-.1 0c-.1-.2 0 .2-.1 0v.2c-.1.1-.1.1-.2.3v-.2c0 .4-.1.3-.2.2 0 .1 0 .1.1.2s0-.2 0-.1v.1c0 .1-.1-.2 0-.1v.1s.1 0 0-.2l.1.2v-.2c.1.1.2-.2.3-.2-.1-.4.1 0 .2-.1 0-.1 0-.1.1-.1v-.2c.2.3.3 0 .5.1.2 0 .4.2.5-.3v.1c0-.1.1 0 .1-.1 0-.3.3 0 .3-.4.1 0 .3-.1.4-.2v.1c.1-.2.3.2.4 0 .2.1.1-.5.3-.3.2.3 0-.5.2-.1.3.5.3.1.4-.3.2.2.1-.4.4 0 0-.3.2.3.3.2v-.1c.1.3-.1-.4.1 0 .1.2-.1-.5 0-.2v-.1s0 .1.1.1c0 0-.1-.2 0-.1.2.4 0-.1.2.4 0 0 .1.2.1.3v-.2c-.1-.2-.1-.4-.2-.5l.1.2c-.1-.1 0-.1-.1-.2 0 0-.1-.2-.2-.3.1.2 0 .1 0 .1v-.1c-.1-.2.1.3 0 0 0 .1-.1.1-.1.1 0 .1 0 0 .1.2-.1-.2-.2-.3-.2-.3s0-.1 0 0c-.1-.3.1.3-.1-.1.1.3-.1-.1 0 .3 0-.1 0-.1-.1-.2 0 0-.1-.1-.2-.1.1.3-.1-.1 0 .3 0-.1-.1-.2-.1-.1 0 0-.1.1 0 .3-.1-.3-.1-.3-.2-.4v.3c-.1-.1 0 .1-.1-.1.1.5-.1.3-.3.1 0 .1.1.4.1.6v-.1s-.1-.2-.1-.1v-.1c0 .1-.1-.2-.1 0v-.1.1c0-.1-.1-.2 0-.2-.2 0-.2.4-.4.4v-.1 0c-.1-.1-.1.1-.1.1v-.1c0 .2-.1-.2 0 .2v-.1c0 .2-.1.2-.2.1.1.4-.1.1-.1.4v-.1c0 .3-.2 0-.3.1 0 0 0 .1-.1.1v-.1c0 .4-.2-.3-.2.1v-.1c0 .2-.1-.1 0 .3v-.1c.1.5-.1-.2-.1.1v-.1 0c-.1-.3-.1.1-.1.1v-.2c0 .2-.1 0-.1.1v-.1.1-.1c-.7.2-.7.3-.8.3zM79.8 120.8zM83.8 118.7c0 .1 0 .1 0 0 0 0 0 .1 0 0z"/></g><g><path class="st1" d="M67.5 123.7v.1-.2zM67.5 123.4v0zM67.5 123.5v-.1.1zM68.3 123.3zM68.5 122.7v-.1c0 .2-.1 0-.1.1-.1 0-.2.2-.3.3v-.1 0c0-.2-.1.1-.1 0v.2c-.1.1-.2.1-.2.3v-.2c0 .4-.1.2-.2.2v.2c0 .1 0-.2.1-.1v.1s.1 0 .1-.2c0 .2 0 0 .1.2v-.2c.1.1.2-.1.4-.1 0-.4.1.1.2-.1 0-.1 0-.1.1-.1v-.2c.2.3.3.1.5.2s.4.3.5-.2v.1c0-.1.1 0 .1 0 .1-.3.3 0 .3-.3.1 0 .3 0 .4-.1v.1c.1-.2.3.2.4.1.1.2.2-.5.3-.2.1.4.1-.4.2-.1.2.6.3.2.4-.2.2.2.2-.3.4.1 0-.3.2.3.2.2v-.1c.1.3 0-.4.1 0v-.4.1c.1.4 0-.1.1.4V122.7c0-.2 0-.4-.1-.6v0s-.1-.2-.1-.3v.1-.1c0-.2 0 .4 0 0 0 .1-.1.1-.1.1v.2l-.1-.3s0-.1 0 0c-.1-.3 0 .3-.1-.1 0 .3-.1-.1 0 .3v-.2l-.1-.1c0 .3-.1-.1-.1.3 0-.1-.1-.2-.1-.1 0 0-.1 0-.1.3-.1-.3-.1-.3-.1-.4 0 .2-.1.1-.1.3 0-.2 0 .1-.1-.2 0 .5-.2.3-.3 0v.5s-.1-.2-.1-.1v-.1c0 .1-.1-.2-.1 0v-.1-.1c-.2-.1-.3.4-.5.3v-.1 0c-.1-.1-.1.1-.1.1v-.2c0 .2-.1-.3 0 .2v-.2c-.1.2-.2.2-.2.1 0 .4-.1.1-.2.4v-.1c-.1.3-.2 0-.3.1l-.1.1v-.1c0 .4-.2-.3-.2.1v-.1c0 .2-.1-.1 0 .3v-.1c0 .5-.1-.2-.1.1v-.1c0 .1 0 .1 0 0v-.1c-.1-.3-.1 0-.2 0v-.2c0 .2-.1 0-.1.1v-.1.1-.1c-.2 0-.2.2-.3.2zM68.1 122.9zM72.4 121.7z"/></g><g><path class="st1" d="M55.4 123.3v-.1zM55.5 123l-.1.3c0 .2.1-.4.1-.3zM55.5 123v-.1.1zM56.3 123c0 .1 0 .1 0 0zM56.6 122.5v-.1c-.1.2-.1 0-.1.1-.1-.1-.2.2-.3.2v-.1 0c0-.2-.1.1-.1 0v.2c-.1 0-.2.1-.3.2v-.2c-.1.3-.2.2-.2.1v.2c0 .1.1-.2.1-.1v.1s.1.1.1-.2v0c.1.1.3-.1.4 0 .1-.4.1.1.2 0 0-.1.1-.1.1-.1v-.2c.1.3.3.1.5.3.2.1.3.4.5-.1v.1c.1-.1.1.1.1 0 .2-.3.2.1.4-.3.1 0 .3 0 .5-.1v.1c.1-.1.2.3.3.2.1.2.3-.4.4-.2 0 .4.2-.4.2 0 .1.6.3.2.4-.1.1.2.3-.3.4.1.1-.3.1.3.2.3v-.1c0 .3.1-.4.1 0 0 .2.1-.5.1-.2v-.1V122.1c0 .2 0 .1 0 0v-.1c0-.2 0 .4 0 0 0 .1-.1.1-.1.1V122s0-.1 0 0v-.1c0 .3 0-.1-.1.3v-.2l-.1-.1c0 .3-.1-.1-.1.2 0-.1 0-.2-.1-.1 0 0-.1 0-.1.3v-.4c0 .2-.1.1-.1.2v-.2c-.1.4-.2.3-.3-.1 0 .1-.1.4-.1.6v-.1-.1-.1c0 .1 0-.2-.1 0v-.1-.1c-.2-.1-.4.3-.5.2v-.1 0c0-.1-.1.1-.1 0v-.2c0 .2 0-.3-.1.2v-.2c-.1.1-.2.1-.3 0-.1.4-.2 0-.3.3v-.1c-.1.3-.2 0-.3 0l-.1.1v-.1c-.1.4-.1-.3-.2.1v-.1c0 .2 0-.1-.1.3v-.1c-.1.5-.1-.2-.2.1v-.1c0 .1 0 .1-.1 0v-.1c0-.3-.1 0-.2 0v-.2c0 .2-.1 0-.1.1v-.1.1-.1c-.1.5-.2.6-.2.6zM56.1 122.6zM60.6 122.3z"/></g><g><path class="st1" d="M43.6 120.4v.1l.1-.1z"/><path class="st1" d="M43.8 120.2s0-.1 0 0l-.1.2c-.1.2.1-.3.1-.2zM43.8 120.2c0 .1 0-.1.1-.1-.1.1-.1-.1-.1.1zM44.6 120.4z"/><path class="st1" d="M45 119.9v-.1c-.1.2-.1 0-.2.1-.1-.1-.3.1-.4.2v-.1l-.1.1v-.1c0-.2-.1.1-.1-.1 0 0 0 .1-.1.2-.1 0-.2 0-.3.2 0 0 0-.1.1-.2-.2.3-.2.2-.3.1 0 .1 0 .1-.1.2 0 .1.1-.2.1 0v.1c0 .1.1-.2.1-.1v.1s.1.1.2-.1c-.1.2 0 0 0 .2 0-.1 0 0 .1-.2.1.1.3 0 .4 0 .2-.3.1.1.2 0l.1-.1.1-.1c0 .4.3.2.4.4.1.1.2.5.5 0v.1c.1-.1.1.1.1 0 .2-.3.2.1.4-.2.1.1.3.1.5 0v.1c.2-.1.2.3.3.2.1.2.4-.3.4-.1 0 .4.3-.4.2 0 0 .6.2.3.5 0 .1.2.3-.2.4.2.1-.2 0 .4.1.3v-.1c0 .3.2-.4.1 0 0 .2.2-.5.1-.2v-.1.2s.1-.2 0-.1c-.1.4.1-.1-.1.4 0 0 0 .2-.1.3l.1-.2c.1-.2.1-.4.1-.6v0s0-.3.1-.3c-.1.2 0 .1 0 0v-.1c0-.2-.1.3 0 0-.1.1-.1 0-.2 0 0 .1 0 0-.1.2.1-.3 0-.3 0-.3s0-.1 0 0c.1-.3-.1.3 0-.1-.1.3 0-.1-.1.2v-.2s-.1-.1-.1-.2c-.1.2 0-.1-.2.2 0-.1 0-.2-.1-.1 0 0-.1 0-.2.2.1-.3 0-.3.1-.4l-.2.2v-.2c-.2.4-.3.2-.3-.1 0 .1-.1.4-.2.5v-.1-.2-.1c0 .1 0-.2-.1 0v-.1.1c0-.1.1-.2.1-.2-.1-.1-.4.2-.6.1v-.1l-.1.1v-.1c0-.1-.1.1-.1 0v-.1c-.1.2 0-.3-.1.1v-.1c-.1.1-.2.1-.3 0-.2.4-.2 0-.3.3v-.1c-.2.2-.2-.1-.3-.1h-.1v-.1c-.2.3 0-.4-.2 0v-.1c-.1.2 0-.1-.1.3v-.1c-.2.4 0-.2-.2 0v-.1c0 .1-.1.1-.1 0v-.1c.1-.3-.1 0-.2 0l.1-.1c-.1.2-.1 0-.1.1v-.1.1-.1c.5.4.4.5.4.5zM44.5 119.9zM48.9 120.5z"/></g><g><path class="st1" d="M32.7 115.3v-.1zM32.9 115l-.2.2c-.1.2.2-.3.2-.2zM32.9 115.1c0 .1.1-.1.1-.1-.1.1 0-.1-.1.1zM33.6 115.4z"/><path class="st1" d="M34.1 115l.1-.1c-.2.2-.1 0-.1.1l-.1-.1c-.1-.1-.3 0-.4.1v-.1l-.1.1v-.1c.1-.2-.1.1-.1-.1 0 0-.1.1-.1.2-.1 0-.2 0-.4.1 0 0 0-.1.1-.1-.2.3-.2.1-.3 0-.1.1 0 .1-.1.2 0 .1.2-.2.1 0v.1c0 .1.1-.2.1-.1s-.1.1-.1.1 0 .1.2-.1l-.1.2c0-.1 0 0 .1-.2.1.1.3 0 .4.1.2-.3.1.1.2 0s.1-.1.1 0l.1-.1c0 .4.2.2.3.4.1.2.1.5.5.1v.1c.1 0 .1.1.1.1.3-.2.2.2.5-.1.1.1.3.1.4.1v.1c.2-.1.1.3.3.3 0 .2.4-.3.4 0-.1.4.3-.3.2.1-.1.6.2.3.4.1 0 .2.4-.2.3.3.2-.2 0 .4.1.3v-.1c-.1.3.2-.3.1.1l.1-.2v-.1s-.1.1-.1.2c0 0 .1-.2.1-.1-.2.4.1-.1-.1.4 0 0-.1.2-.1.3l.1-.1c.1-.2.2-.4.3-.5l-.1.1c.1-.1 0-.1.1-.2 0 0 .1-.2.1-.3-.1.2-.1.1-.1 0v-.1c.1-.2-.2.3 0 0-.1.1-.1 0-.2 0-.1.1 0 0-.1.2.1-.2.1-.3.1-.3.1-.3-.2.3 0-.1-.1.3 0-.1-.2.2 0-.1.1-.1.1-.2 0 0 0-.1-.1-.2-.1.2 0-.1-.2.2 0-.1.1-.2 0-.1 0 0-.1 0-.2.2.1-.3.1-.3.1-.4l-.2.2c.1-.1-.1 0 0-.2-.3.4-.3.2-.3-.2-.1.1-.2.3-.3.5v-.1s.1-.2 0-.2v-.1c-.1.1.1-.2 0 0v-.1l-.1.1c0-.1.1-.2.1-.1-.1-.1-.4.1-.6 0v-.1l-.1.1v-.1c0-.1-.1 0-.1 0l.1-.1c-.1.2.1-.3-.1.1l.1-.1c-.1.1-.2 0-.3-.1-.3.3-.2 0-.4.2v-.1c-.2.2-.2-.1-.3-.1h-.1v-.1c-.2.3 0-.4-.2 0l.1-.1c-.1.2 0-.1-.2.2v-.1c-.3.4 0-.2-.2 0v-.1s-.1.1-.1 0c.1-.3-.1 0-.2-.1l.1-.1c-.1.1-.1 0-.1 0v-.1l-.1.1.1-.1c.8-.1.7 0 .6 0zM33.6 114.9zM37.9 116.4s-.1 0 0 0z"/></g><g><path class="st1" d="M23 108l.1-.1zM23.2 107.8c.1 0 .1 0 0 0l-.2.2c-.1.2.3-.3.2-.2z"/><path class="st1" d="M23.2 107.8c0 .1.1-.1.1-.1l-.1.1zM23.9 108.3zM24.5 108c-.1.1 0-.2-.1-.1 0-.1-.3 0-.4 0l-.1.1.1-.1c.1-.2-.1.1 0-.1l-.1.1h-.4l.1-.1c-.3.2-.3.1-.3 0l-.1.1c-.1.1.2-.1.1 0l-.1.1c0 .1.2-.2.1-.1 0 .1-.1.1-.1.1.1 0 0 .1.2-.1l-.1.2c.1-.1.1 0 .1-.1 0 .2.2.1.3.2.3-.2 0 .1.2.1.1-.1.1-.1.1 0l.1-.1c-.1.3.2.3.2.5.1.2 0 .5.5.2l-.1.1c.1 0 0 .1.1.1.3-.2.2.2.5 0 .1.1.2.2.4.2v.1c.2 0 0 .3.2.3 0 .2.5-.2.4.1-.2.3.4-.2.2.1-.3.5.1.3.4.2 0 .2.4-.1.2.3.2-.2-.1.3 0 .3l.1-.1c-.2.2.3-.3 0 .1-.1.2.3-.4.2-.2l.1-.1-.1.1s.1-.2.1-.1c-.3.3.1 0-.2.3 0 0-.1.2-.2.2l.1-.1c.1-.2.3-.3.4-.5l-.1.1c.1-.1 0-.1.1-.2 0 0 .1-.2.2-.3-.1.1-.1 0-.1 0l.1-.1c.1-.2-.2.3 0 0h-.2l-.2.2c.2-.2.2-.3.2-.3.2-.3-.2.2 0-.1-.2.2 0-.1-.2.2 0-.1.1-.1.1-.1v-.2c-.2.2 0-.1-.2.1 0-.1.1-.2 0-.1 0 0-.1 0-.2.1.2-.3.2-.2.2-.3-.1.1-.1 0-.2.1.1-.1-.1 0 .1-.1-.4.3-.4.1-.2-.2l-.4.4s.1-.2 0-.1v-.1c-.1.1.1-.2 0 0l-.1.1c0-.1.1-.1.1-.1-.1-.2-.5 0-.6-.1l.1-.1-.1.1.1-.1c.1-.1-.1 0-.1 0l.1-.1c-.2.1.1-.2-.2.1l.1-.1c-.2.1-.2 0-.2-.1-.3.3-.1-.1-.4.1l.1-.1c-.3.1-.1-.1-.3-.2 0-.1-.1 0-.1 0l.1-.1c-.3.2.1-.3-.2-.1l.1-.1c-.1.1 0-.1-.2.2l.1-.1c-.3.3.1-.2-.2 0l.1-.1c-.1 0-.1.1-.1 0 .2-.3-.1 0-.1-.1l.1-.1c-.1.1-.1 0-.1 0l.1-.1-.3-.1h.2c-.1 0-.2.1-.2 0zM24 107.9zM27.9 110.1c-.1 0-.1.1 0 0 0 0-.1 0 0 0z"/></g><g><path class="st1" d="M15 98.9v.1l.1-.1zM15.3 98.8l-.3.2c-.1.1.4-.3.3-.2zM15.2 98.8c-.1.1.1 0 .1-.1-.1.1.1 0-.1.1zM15.8 99.4c0 .1 0 .1 0 0zM16.4 99.3l.1-.1c-.2.1 0-.1-.2 0 0-.1-.3-.1-.4-.1h.1l-.1.1h.1c.2-.1-.2 0 0-.1 0 0-.1.1-.2.1s-.2-.1-.4 0l.1-.1c-.3.2-.3 0-.3-.1-.1.1-.1.1-.2.1-.1.1.2-.1.1 0l.1-.1s.2-.1.1 0c-.1 0-.1.1-.1.1.1 0 0 .1.2 0-.2.1 0 0-.1.2.1 0 .1 0 .2-.1 0 .2.2.1.3.2.3-.2 0 .1.2.1h.1l.1-.1c-.2.3.1.3.1.5s-.1.5.4.3h-.1c.1 0 0 .1.1.1.3-.1.1.2.5.1.1.1.2.2.4.3h-.1c.2 0 0 .3.1.4-.1.2.5-.1.4.2-.2.3.4-.1.2.2-.4.5 0 .4.4.3-.1.2.4 0 .2.4.2-.1-.2.3-.1.3l.1-.1c-.2.2.3-.2 0 .1-.2.2.4-.3.2-.1l.1-.1-.1.1.1-.1c-.3.3.1 0-.3.3l-.2.2.2-.1c.2-.1.3-.3.4-.4l-.1.1.1-.1s.2-.2.2-.3c-.2.1-.1 0-.1 0l.1-.1c.1-.1-.3.2 0 0-.1 0-.1 0-.1-.1-.1.1 0 0-.2.1.2-.2.2-.3.2-.3.2-.2-.3.2 0-.1-.2.2 0-.1-.2.1.1 0 .1-.1.1-.1v-.2c-.2.1 0-.1-.2.1 0-.1.1-.2 0-.1 0 0-.1 0-.3.1.3-.2.2-.2.3-.3-.1.1-.1 0-.3.1.1-.1-.1 0 .1-.1-.4.2-.4 0-.2-.3-.1.1-.3.2-.5.3l.1-.1h.1c-.1.1.1-.1 0-.1h-.1c.1 0 .1-.1.1-.1 0-.2-.5-.1-.5-.2h.1l-.1.1h.1c.1-.1-.1 0-.1-.1l.1-.1c-.2.1.2-.2-.2.1l.1-.1c-.2 0-.2-.1-.2-.2-.4.2-.1-.1-.4 0h.1c-.3.1-.1-.2-.2-.2 0-.1-.1 0-.1 0l.1-.1c-.3.2.2-.3-.2-.1l.1-.1c-.2.1 0-.1-.2.1l.1-.1c-.4.2.1-.2-.2-.1h.1-.1c.2-.2-.1-.1-.1-.1l.1-.1c-.2.1-.1 0-.1 0h.1-.1l.1-.1c-.1-.1-.3-.1-.3-.1zM16 99zM19.3 102z"/></g><g><path class="st1" d="M9 88.5h-.1l.1-.1zM9.2 88.4c.1 0 .1 0 0 0l-.2.1.2-.1zM9.2 88.4h.1c-.1 0 .1-.1-.1 0zM9.7 89.1c-.1 0-.1 0 0 0z"/><path class="st1" d="M10.3 89.1l.1-.1c-.2.1 0-.1-.1-.1 0-.1-.2-.1-.4-.2h.1c.2-.1-.2 0 0-.1 0 0-.1 0-.2.1-.1-.1-.2-.1-.4-.1 0 0 .1 0 .1-.1-.4.1-.3 0-.2-.1-.1 0-.1 0-.2.1s.2-.1.1 0h-.1s.2-.1.1 0c-.1 0-.1 0-.1.1 0 0 0 .1.2 0l-.2.1c.1 0 .1 0 .2-.1 0 .1.2.2.2.3.4-.1 0 .1.1.1H9.9c-.2.3.1.3 0 .5 0 .2-.2.5.4.4h-.1c.1 0 0 .1.1.1.3 0 .1.2.4.2 0 .1.1.3.3.4h-.1c.2 0-.1.3.1.4-.1.2.5 0 .3.2-.3.2.5 0 .1.2-.4.6 0 .6.4.5-.1.2.4.1.1.4.3-.1-.2.3-.1.3h.1c-.2.2.4-.1 0 .1-.2.1.5-.2.2-.1h.1l-.1.1s.2-.1.1-.1c-.4.2.1 0-.3.2 0 0-.2.1-.3.1l.2-.1c.2-.1.4-.2.5-.3l-.1.1c.1-.1.1 0 .2-.1 0 0 .2-.1.3-.2-.2.1-.1 0-.1 0h.1c.2-.1-.3.2 0 0-.1 0-.1 0-.1-.1-.1.1 0 0-.2.1.2-.1.3-.2.3-.2.3-.2-.3.1.1-.1-.3.1.1-.1-.2.1.1 0 .1-.1.2-.1 0 0 .1-.1.1-.2-.2.1.1-.1-.3 0 .1-.1.2-.2 0-.1 0 0-.1-.1-.3 0 .3-.2.2-.2.3-.2-.2.1-.1 0-.3 0 .1-.1-.1 0 .1-.1-.4.1-.4-.1-.1-.3-.1.1-.4.2-.5.2h.1l.1-.1h.1c-.1 0 .1-.1 0-.1h.1-.1c.1 0 .2-.1.2-.1 0-.2-.4-.2-.5-.3h.1-.1.1c.1-.1-.1 0-.1-.1 0 0 .1 0 .1-.1-.2.1.2-.2-.2 0l.1-.1c-.2 0-.2-.1-.2-.2-.4.1-.1-.1-.4 0h.1c-.3 0-.1-.2-.2-.3 0-.1-.1 0-.1-.1h.1c-.4.1.2-.3-.2-.2l.1-.1c-.2.1 0-.1-.3.1l.1-.1c-.4.2.2-.2-.1-.1h.1-.1.1c.3-.2-.1-.1-.1-.1l.1-.1c-.2.1 0-.1-.1-.1h.1-.1l.1-.1c-.4.1-.5.1-.5.1zM9.9 88.7zM12.6 92.3z"/></g><g><path class="st1" d="M5.2 77h-.1.2zM5.5 77s0-.1 0 0h-.3c-.2 0 .4-.1.3 0z"/><path class="st1" d="M5.4 77h.1c-.1 0 .1-.1-.1 0zM5.7 77.8z"/><path class="st1" d="M6.3 77.8h.1c-.2 0 0-.1-.1-.1 0-.1-.2-.2-.3-.2h.1c.2-.1-.2 0 0-.1h-.2c-.1-.1-.1-.1-.3-.2h.2c-.4 0-.2-.1-.2-.2h-.2c-.1 0 .2 0 .1.1h0-.1s0 .1.2.1l-.2.1h.2c-.1.1.1.2.2.3.4 0 0 .1.1.2.1 0 .1 0 .1.1h.2c-.3.2 0 .3-.1.5 0 .2-.3.4.3.5h-.1c.1 0 0 .1.1.1.3 0 0 .3.4.3 0 .1.1.3.2.4h-.1c.2.1-.2.3 0 .4-.1.2.5.1.3.3-.3.2.5.1.1.2-.5.3-.1.3.2.4-.2.2.4.2 0 .4.3 0-.3.2-.2.3h.1c-.3.1.4-.1 0 .1-.2.1.5-.1.2 0h.1s-.1 0-.2.1c0 0 .2-.1.1 0-.4.1.1 0-.4.2 0 0-.2.1-.3.1h.2c.2-.1.4-.1.6-.2h-.2c.2-.1.1 0 .2-.1 0 0 .2-.1.3-.1h-.1.1c.2-.1-.4.1 0 0-.1 0-.1-.1-.1-.1h-.2c.3-.1.3-.1.3-.2 0 0 .1 0 0 0 .3-.1-.3.1.1-.1-.3.1.1-.1-.3 0 .1 0 .1 0 .2-.1 0 0 .1-.1.1-.2-.3 0 .1-.1-.3 0 .1 0 .2-.1.1-.1 0 0-.1-.1-.3 0 .3-.1.3-.1.4-.1h-.3c.2-.1-.1 0 .1-.1-.5 0-.3-.1 0-.3-.1 0-.4.1-.6.1h.1s.2-.1.1-.1h.1c-.1 0 .2-.1 0-.1h.1-.1c.1 0 .2-.1.2 0 0-.2-.4-.2-.4-.4h.1-.1.1c.1-.1-.1-.1-.1-.1h.1c-.2 0 .2-.1-.2 0h.1c-.2 0-.2-.1-.1-.2-.4 0-.1-.1-.4-.1h.1c-.3 0 0-.2-.1-.3l-.1-.1h.1c-.4 0 .3-.2-.1-.2h.1c-.2 0 .1-.1-.3 0h.1c-.5.1.2-.1-.1-.1h.1-.1.1c.3-.1-.1-.1-.1-.2h.2c-.2 0 0-.1-.1-.1h.1-.1.1c-.2-.7-.3-.7-.4-.8zM6 77.4c.1 0 .1 0 0 0zM7.9 81.5z"/></g><g><path class="st1" d="M3.8 65h-.1.2zM4.1 65h0zM4 65h.1H4zM4.1 65.8zM4.7 66h.1c-.2 0 0-.1-.1-.1 0-.1-.2-.2-.3-.3h.1c.2 0-.1-.1 0-.1h-.2c-.1-.1-.1-.2-.3-.3h.2c-.3 0-.2-.1-.1-.2h-.2c-.1 0 .2 0 .1.1h0-.1s0 .1.2.1c-.2 0 0 0-.2.1h.2c-.1.1.1.2.1.4.4 0-.1.1.1.2.1 0 .1 0 .1.1h.2c-.3.2-.1.3-.2.5s-.3.4.2.5h-.1c.1 0-.1.1 0 .1.3.1 0 .3.3.3 0 .1 0 .3.1.4h-.1c.2.1-.2.2-.1.4-.2.1.4.2.2.4-.4.1.4.1.1.2-.7.2-.4.3 0 .5-.2.2.3.2-.1.4.3 0-.3.2-.2.2h.1c-.3.1.4 0 0 .1H5.1c-.4 0 .1 0-.4.1h-.3.2c.2 0 .4 0 .6-.1H5h.2s.3 0 .3-.1h-.1.1c.2 0-.4 0 0 0-.1 0-.1-.1-.1-.1h-.2c.3 0 .3-.1.3-.1s.1 0 0 0c.3-.1-.3 0 .1-.1-.3 0 .1-.1-.3 0h.2l.1-.1c-.3 0 .1-.1-.2-.1.1 0 .2-.1.1-.1 0 0 0-.1-.3-.1.3 0 .3 0 .4-.1-.2 0-.1-.1-.3-.1h.2c-.5-.1-.3-.2 0-.3h-.6.1s.2-.1.1-.1h.1c-.1 0 .2-.1 0-.1h.1-.1.2c.1-.2-.3-.3-.3-.5h.1-.1.1c.1-.1-.1-.1-.1-.1h.2c-.2 0 .3-.1-.2-.1h.2c-.1-.1-.1-.2-.1-.3-.4 0 0-.1-.4-.2h.1c-.3-.1 0-.2-.1-.3l-.1-.1h.1c-.4-.1.3-.2-.1-.2h.1-.3.1c-.5 0 .2-.1-.1-.1h.1c-.1 0-.1 0 0 0h.1c.3-.1 0-.1 0-.2h.2c-.2 0 0-.1-.1-.1h.1-.1.1c0-.2-.2-.2-.2-.3zM4.5 65.6zM5.5 69.9z"/></g><g><path class="st1" d="M4.8 52.9h.1zM5.1 53l-.3-.1c-.2 0 .4.1.3.1zM5 53h.1H5zM5 53.8zM5.5 54.1h.1c-.2-.1 0-.1-.1-.1.1-.1-.1-.2-.2-.4h.1c.2 0-.1-.1 0-.1h-.2c0-.1-.1-.2-.2-.3h.2c-.3-.1-.2-.1-.1-.2h-.2c-.1 0 .2.1 0 .1h0-.1s-.1.1.2.1h-.2c.1 0 .1 0 .2.1-.1.1.1.3 0 .4.4.1-.1.1 0 .2.1 0 .1.1.1.1h.2c-.3.1-.1.3-.3.4-.2.2-.5.3 0 .6h-.1c.1 0-.1 0 0 .1.3.2-.1.2.2.4-.1.1 0 .3 0 .5H5c.1.1-.3.2-.2.3-.2.1.4.3.1.4-.4 0 .4.2 0 .2-.6.1-.2.3.1.4-.2.1.3.3-.2.4.3.1-.4.1-.3.2h.1c-.3 0 .4.1 0 .1-.1 0 .6.1.4 0h-.1.1-.4H4.5c.2 0 .4.1.6.1h-.2H5.5c-.2 0-.1 0 0 0h.1c.2 0-.4-.1 0 0-.2-.1-.2-.1-.2-.2h-.2.3s.1 0 0 0c.3 0-.3-.1.1 0-.3 0 .1 0-.2-.1h.2l.1-.1c-.3-.1.1-.1-.2-.1.1 0 .2 0 .1-.1 0 0 0-.1-.3-.1h.4c-.2 0-.1-.1-.2-.1h.2c-.4-.2-.3-.3.1-.3-.1 0-.4-.1-.6-.1H5.5c-.1 0 .2 0 0-.1h.1-.1.2c.1-.2-.3-.4-.2-.5h.1l-.1-.1h.1c.1 0-.1-.1 0-.1h.2c-.3-.1.2-.1-.3-.2h.2c-.1-.1-.1-.2 0-.3-.4-.1 0-.2-.3-.3h.1c-.3-.1 0-.2 0-.3 0 0-.1-.1 0-.1h.1c-.4-.1.4-.1 0-.2h.1c-.2 0 .1 0-.3-.1h.1c-.5-.1.2-.1-.1-.2h.1c-.1 0-.1-.1 0-.1h.1c.3 0 0-.1 0-.2h.2c-.2-.1 0-.1-.1-.1h.1-.1.1c-.1.3-.3.2-.3.1zM5.4 53.7zM5.5 58.1z"/></g><g><path class="st1" d="M8.2 41.3h.1zM8.5 41.4c0 .1 0 .1 0 0l-.2-.1c-.3 0 .3.2.2.1z"/><path class="st1" d="M8.4 41.4c-.1 0 .1 0 .1.1 0 0 .1 0-.1-.1zM8.2 42.3c0-.1 0 0 0 0z"/><path class="st1" d="M8.7 42.7l.1.1c-.2-.1 0-.1 0-.2.1-.1-.1-.3-.1-.4h.1l-.1-.1h.1c.2.1-.1-.1.1-.1 0 0-.1-.1-.2-.1 0-.1 0-.2-.2-.3 0 0 .1 0 .2.1-.3-.2-.1-.2-.1-.3-.1 0-.1 0-.2-.1-.1 0 .2.1 0 .1h-.1c-.1 0 .2.1.1.1h-.1s-.1 0 .1.2c-.2-.1 0 0-.2 0 .1 0 0 0 .2.1-.1.1 0 .3-.1.4.3.2-.1.1 0 .2l.1.1.1.1c-.4 0-.2.3-.4.4-.2-.1-.5 0-.1.3h-.1c.1.1-.1.1 0 .1.3.2-.1.2.2.4-.2.2-.2.4-.1.5h-.1c.1.2-.3.1-.2.3-.2.1.3.4 0 .4-.4 0 .3.3 0 .2-.6 0-.3.2 0 .5-.2.1.2.4-.2.3.2.1-.4 0-.3.1h.1c-.3-.1.4.2 0 .1-.2-.1.5.2.2.1h-.1s.2.1.1.1c-.5-.1 0 .1-.5-.1 0 0-.2 0-.3-.1l.2.1c.2.1.4.1.6.2l-.2-.1c.2 0 .1 0 .2.1 0 0 .2.1.3.1-.2-.1-.1 0 0 0h.1c.2.1-.3-.1 0 0-.1-.1 0-.1 0-.2-.1 0 0 0-.2-.1.3.1.3.1.3 0 0 0 .1 0 0 0 .3.1-.3-.1.1 0-.3-.1.1 0-.2-.1.1 0 .1 0 .2.1 0 0 .1 0 .2-.1-.3-.2.1-.1-.3-.2.1 0 .2 0 .1-.1 0 0 0-.1-.2-.2.3.1.3.1.4.1l-.2-.2h.2c-.4-.2-.2-.3.2-.3-.1-.1-.4-.2-.5-.2h.4c-.1-.1.2 0 0-.1h.1-.1c.1 0 .2.1.2.1.1-.1-.2-.4-.1-.6h.1l-.1-.1h.1c.1 0-.1-.1 0-.1 0 0 .1 0 .1.1-.2-.1.3 0-.1-.1 0 0 .1 0 .1.1-.1-.1-.1-.2 0-.3-.3-.2 0-.2-.3-.3h.1c-.2-.2.1-.2.1-.3v-.1h.1c-.3-.2.4 0 0-.2l.1.1c-.2-.1.1 0-.2-.1h.1c-.4-.2.2 0 0-.2h.1c-.1 0-.1-.1 0-.1h.1c.3.1 0-.1 0-.2l.1.1c-.2-.1 0-.1-.1-.1H9l-.1-.1.1.1c-.2.1-.3 0-.3 0zM8.7 42.2zM7.9 46.6z"/></g><g><path class="st1" d="M14 30.6h-.1l.1.1z"/><path class="st1" d="M14.2 30.8s0 .1 0 0l-.2-.2c-.2 0 .3.3.2.2zM14.1 30.8c-.1 0 .1.1.1.1-.1-.1.1 0-.1-.1zM13.8 31.6c-.1 0 0 0 0 0z"/><path class="st1" d="M14.1 32.1l.1.1c-.1-.2.1-.1-.1-.1l.1-.1c.1-.1 0-.3-.1-.4h.1l-.1-.1h.1c.2.1-.1-.1.1-.1 0 0-.1-.1-.2-.1 0-.1 0-.2-.1-.4 0 0 .1 0 .1.1-.3-.3-.1-.2 0-.3-.1-.1-.1 0-.2-.1-.1 0 .2.2 0 .1l-.1-.1c-.1 0 .2.1.1.1s-.1-.1-.1-.1-.1 0 .1.2l-.2-.1.1.1c-.1 0-.1.3-.1.3.3.3-.1.1-.1.2.1.1.1.1 0 .1l.1.1c-.4 0-.2.2-.4.3-.2.1-.5.1-.2.5H13c0 .1-.1.1-.1.1.2.3-.2.2.1.5-.1.1-.2.3-.2.4h-.1c.1.2-.3.1-.3.2-.2 0 .2.4 0 .4-.4-.1.3.4-.1.2-.6-.2-.3.1-.1.4-.3 0 .1.4-.3.3.2.2-.4-.1-.3 0h.1c-.3-.1.3.2-.1 0-.2-.1.4.3.2.2l.1.1-.1-.1s.2.1.1.1c-.4-.2.1.1-.4-.2 0 0-.2-.1-.3-.1l.1.1c.2.1.4.2.5.3l.2.3c.1.1.1 0 .2.1 0 0 .2.1.3.1-.2-.1-.1-.1 0-.1h.1c.2.1-.3-.2 0 0v-.2c-.1-.1 0 0-.2-.1.2.1.3.1.3.1.3.1-.3-.2.1 0-.3-.1.1 0-.2-.2.1 0 .1.1.2.1h.2c-.2-.2.1 0-.2-.2.1 0 .2.1.1 0 0 0 0-.1-.2-.2.3.2.3.1.4.2-.1-.1 0-.1-.1-.2.1.1 0-.1.2.1-.3-.3-.1-.3.2-.3-.1-.1-.3-.2-.5-.3 0 0 .2.1.2 0h.1c-.1-.1.2.1 0 0h.1l-.1-.1c.1 0 .2.1.1.1.2-.1-.1-.5 0-.6h.1l-.1-.1h.1c.1 0 0-.1 0-.1l.1.1c-.2-.1.3.1-.1-.1l.1.1c-.1-.1 0-.2.1-.3-.3-.3 0-.1-.2-.4h.1c-.2-.2.1-.2.1-.3v-.1l.1.1c-.3-.3.4.1.1-.2l.1.1c-.2-.1.1 0-.2-.2h.1c-.4-.3.2 0 0-.2h.1s-.1-.1 0-.1c.3.1 0-.1.1-.1l.1.1c-.1-.1 0-.1 0-.1h.1l-.2.2.1.1c.1-.1 0-.2 0-.2zM14.2 31.6zM12.6 35.7s-.1 0 0 0z"/></g><g><path class="st1" d="M21.7 21.3v.1zM21.9 21.6l-.2-.2.2.2zM21.8 21.6c-.1-.1 0 .1.1.1-.1-.1.1 0-.1-.1zM21.3 22.2zM21.6 22.8c0-.1.2 0 .1-.1.1 0 0-.3 0-.4v.1l-.1-.1.1.1c.2.1-.1-.1.1 0l-.1-.1v-.4l.1.1c-.2-.3 0-.3 0-.3l-.1-.1c-.1-.1.1.2 0 .1l-.1-.1c-.1 0 .2.2.1.1-.1 0-.1-.1-.1-.1 0 .1-.1 0 .1.2-.1-.1 0 0-.2-.1 0 .1 0 .1.1.1-.2 0-.1.2-.2.3.2.3-.1 0-.1.2.1.1.1.1 0 .1l.1.1c-.3-.1-.3.2-.5.2-.2.1-.5 0-.3.5l-.1-.1c0 .1-.1 0-.1.1.1.3-.2.2 0 .5-.1.1-.2.2-.2.4V24c0 .2-.3 0-.3.2-.2 0 .1.5-.1.4-.3-.2.2.4-.1.2-.5-.3-.4.1-.2.4-.2 0 .1.4-.3.2.2.2-.3-.1-.3 0l.1.1c-.2-.2.3.3-.1 0-.2-.1.4.4.2.2l.1.1-.1-.1.1.1c-.3-.3 0 .1-.3-.2 0 0-.2-.1-.2-.2l.1.1c.2.1.3.3.4.4l-.1-.1c.1.1.1.1.2.1 0 0 .2.1.3.2-.1-.1 0-.1 0-.1l.1.1c.1.1-.3-.3 0 0v-.2l-.2-.2c.2.2.3.2.3.2.3.2-.2-.2.1 0-.2-.2.1 0-.2-.2.1 0 .1.1.1.1h.2c-.2-.2.1 0-.1-.2.1 0 .2.1.1 0 0 0 0-.1-.1-.3.3.2.2.2.3.2-.1-.1 0-.1-.1-.2.1.1 0-.1.1.1-.4-.4-.2-.4.1-.2l-.4-.4s.2.1.1.1l.1.1c-.1-.1.2.1 0 0l-.1-.1.1.1c.2-.1 0-.5.2-.6v.1l-.1-.1.1.1c.1.1 0-.1 0-.1l.1.1c-.1-.2.2.1-.1-.2l.1.1c0-.2 0-.2.1-.2-.2-.3.1-.1-.1-.4l.1.1c-.1-.3.1-.1.2-.2.1 0 0-.1 0-.1l.1.1c-.2-.3.3.1.1-.2l.1.1c-.1-.2.1 0-.2-.2l.1.1c-.3-.4.2.1 0-.2l.1.1c0-.1-.1-.1 0-.1.3.2 0-.1.1-.1l.1.1c-.1-.1 0-.1 0-.1l.1.1.3-.5v0zM21.8 22.3zM19.3 26.1s0-.1 0 0z"/></g><g><path class="st1" d="M31.1 13.8l.1.1zM31.3 14c0 .1 0 .1 0 0l-.1-.2c-.2-.2.1.4.1.2z"/><path class="st1" d="M31.2 14c-.1-.1 0 .1.1.1-.1-.1 0 .1-.1-.1zM30.6 14.6zM30.7 15.2l.1.1c-.1-.2.1 0 0-.2.1 0 .1-.3.1-.4v.1l-.1-.1v.1c.1.2 0-.2.1 0 0 0-.1-.1-.1-.2s.1-.2.1-.4l.1.1c-.1-.3 0-.3.1-.3 0-.1-.1-.1-.1-.2-.1-.1.1.2 0 .1v-.1s.1.2 0 .1c0-.1-.1-.1-.1-.1 0 .1-.1 0 0 .2-.1-.2 0 0-.1-.1 0 .1 0 .1.1.2-.2 0-.1.2-.3.3.2.4-.1 0-.1.2v.1l.1.1c-.3-.2-.3.1-.5.1s-.5-.1-.3.4v-.1c0 .1-.1 0-.1.1.1.3-.2.1-.1.5l-.3.3V16c0 .2-.3-.1-.4.1-.2-.1.1.5-.2.4-.3-.3.1.4-.2.2-.5-.4-.4 0-.3.4-.2-.1 0 .4-.4.2.1.3-.3-.2-.3-.1l.1.1c-.2-.2.2.3-.1 0-.1-.2.3.4.1.2l.1.1-.1-.1s.1.2.1.1c-.3-.3 0 .1-.3-.3l-.2-.2.1.2c.1.2.2.3.4.5l-.1-.1c.1.1.1.1.1.2 0 0 .2.2.2.3-.1-.2 0-.1 0-.1l.1.1c.1.1-.2-.3 0 0 0-.1 0-.1.1-.1-.1-.1 0 0-.1-.2l.2.2c.2.3-.2-.3.1.1-.2-.2.1.1-.1-.2 0 .1.1.1.1.1h.2c-.1-.2.1.1-.1-.3.1 0 .2.1.1 0 0 0 0-.1-.1-.3.2.3.2.2.3.3-.1-.1 0-.1-.1-.3.1.1 0-.1.1.1-.2-.4 0-.4.3-.2-.1-.1-.2-.3-.3-.5l.1.1v.1c0-.1.1.1.1 0V17c0 .1.1.2.1.1.2 0 .1-.5.3-.5v.1-.1.1c.1.1 0-.1.1-.1l.1.1c-.1-.2.2.2 0-.2l.1.1c0-.2.1-.2.2-.2-.2-.4.1-.1 0-.4v.1c-.1-.3.2-.1.2-.2.1 0 0-.1.1-.1l.1.1c-.2-.3.3.2.1-.2l.1.1c-.1-.2.1 0-.1-.3l.1.1c-.2-.4.2.1.1-.2v.1c.2.2.1-.1.1-.1l.1.1c-.1-.2.1-.1 0-.1v.1-.1l.1.1c-.1-.2-.1-.3-.1-.3zM31 14.8zM27.9 17.9z"/></g><g><path class="st1" d="M41.9 8.3v-.1.2zM42 8.6l-.1-.3c-.1-.2.1.4.1.3zM41.9 8.5v.1c0-.1.1.1 0-.1zM41.2 8.9zM41.2 9.6v.1c-.1-.2.1 0 .1-.1.1 0 .1-.2.2-.4v.1c.1.2 0-.2.1 0 0 0 0-.1-.1-.2.1-.1.1-.2.1-.4 0 0 0 .1.1.2-.1-.4.1-.3.1-.2 0-.1 0-.1-.1-.2s0 .2 0 .1v-.1s.1.2 0 .1v-.1s-.1 0 0 .2l-.1-.2c0 .1 0 .1.1.2-.1 0-.2.2-.3.2.1.4-.1 0-.2.1V9.3c-.3-.2-.3 0-.5 0s-.5-.2-.4.3v-.1c0 .1-.1 0-.1.1 0 .3-.2.1-.2.4-.1 0-.3.1-.4.3v-.1c0 .2-.3-.1-.4 0-.2-.1 0 .5-.3.3-.2-.3 0 .5-.2.1-.4-.5-.4-.1-.3.3-.2-.1-.1.4-.4.1.1.3-.3-.2-.3-.2v.1c-.1-.2.1.4-.1 0-.1-.2.2.5.1.2v.1l-.1-.1s.1.2 0 .1c-.2-.4 0 .1-.2-.3 0 0-.1-.2-.1-.3l.1.2c.1.2.2.4.3.5l-.1-.1c.1.1 0 .1.1.2 0 0 .1.2.2.3-.1-.2 0-.1 0-.1v.1c.1.2-.1-.3 0 0 0-.1.1-.1.1-.1 0-.1 0 0-.1-.2.1.2.2.3.2.3.2.3-.1-.3.1.1-.1-.3.1.1-.1-.3 0 .1.1.1.1.2 0 0 .1.1.2.1-.1-.2.1.1 0-.3.1.1.2.2.1 0 0 0 .1-.1 0-.3.2.3.1.2.2.3v-.3c.1.1 0-.1.1.1-.1-.4.1-.4.3-.1 0-.1-.1-.4-.2-.5v.1s.1.2.1.1v.1c0-.1.1.2.1 0v.1-.1c0 .1.1.2.1.2.2 0 .2-.4.4-.4v.1-.1.1c.1.1 0-.1.1-.1 0 0 0 .1.1.1-.1-.2.2.2 0-.2 0 0 0 .1.1.1 0-.2.1-.2.2-.2-.1-.4.1-.1.1-.4v.1c0-.3.2-.1.3-.2.1 0 0-.1.1-.1v.1c-.1-.4.3.2.2-.2v.1c-.1-.2.1 0-.1-.3l.1.1c-.1-.4.2.2.1-.1v.1c.1.2 0-.2.1-.2v.2c0-.2.1 0 .1-.1v.1-.1l.1.1v-.2zM41.6 9.2zM37.9 11.7z"/></g><g><path class="st1" d="M53.6 5.1V5v.2zM53.6 5.4v-.3c-.1-.2 0 .4 0 .3z"/><path class="st1" d="M53.6 5.3v.1c-.1-.1 0 .1 0-.1zM52.8 5.6zM52.6 6.2v.1c0-.2.1 0 .1-.1.2.1.3-.2.3-.3V6c.1.2 0-.2.1 0v-.2c.1-.1.2-.1.2-.3v.2c0-.4.1-.2.2-.2v-.2c0-.1 0 .2-.1.1v-.1 0s-.1 0-.1.2c0-.2 0 0-.1-.2v.2c-.1-.1-.2.1-.3.1 0 .4-.1 0-.2.1 0 .1 0 .1-.1.1V6c-.2-.3-.3 0-.5-.1-.1-.2-.3-.5-.4.1v-.1c0 .1-.1 0-.1 0-.1.3-.3 0-.3.4-.1 0-.3.1-.4.2v-.1c-.1.2-.3-.2-.4 0-.2-.1-.1.5-.3.3-.2-.3-.1.5-.2.1-.3-.5-.3-.1-.4.2-.2-.2-.2.4-.4 0 0 .3-.2-.3-.3-.2v.1c-.1-.3 0 .4-.1 0-.1-.2.1.5 0 .3v.1s0-.1-.1-.2v.1c-.1-.4 0 .1-.1-.4 0 0-.1-.2-.1-.3v.2c.1.2.1.4.1.6v-.2c0 .2 0 .1.1.2 0 0 .1.2.1.3v-.1.1c.1.2-.1-.4 0 0 0-.1.1-.1.1-.1v-.2l.1.3s0 .1 0 0c.1.3 0-.3.1.1-.1-.3.1.1 0-.3v.2s.1.1.2.1c0-.3.1.1 0-.3 0 .1.1.2.1.1 0 0 .1-.1 0-.3.1.3.1.3.1.4v-.3c0 .2 0-.1.1.2 0-.5.2-.3.3 0 0-.1-.1-.4-.1-.6V7s.1.2.1.1v.1c0-.1.1.2.1 0v.1-.1.2c.2 0 .3-.4.4-.4v.1V7v.1c.1.1.1-.1.1-.1v.2c0-.2.1.3 0-.2v.1c.1-.2.1-.2.2-.1 0-.4.1-.1.1-.4v.1c0-.3.2 0 .3-.1l.1-.1v.1c0-.4.2.3.2-.1v.1c0-.2.1.1 0-.3v.1c0-.5.1.2.1-.1v.1c0-.1 0-.1 0 0v.1c.1.3.1-.1.2-.1v.2c0-.2.1 0 .1-.1v.1-.1.1c.8-.3.8-.4.8-.4zM53.1 5.9zM48.9 7.6z"/></g><g><path class="st1" d="M65.6 4.3v-.1.2zM65.6 4.5c0 .1 0 .1 0 0v-.3.3zM65.6 4.5v0zM64.7 4.6zM64.5 5.1v.1c0-.2.1 0 .1-.1.1.2.2 0 .4-.1v-.1.1c0 .2 0-.2 0 0v-.2c.1-.1.2-.1.3-.3v.2c.1-.4.2-.2.2-.2v-.2c0-.1-.1.2-.1.1v-.1 0s-.1 0-.1.2v-.2.2c-.1-.1-.2.1-.4.1-.1.4-.1-.1-.2.1 0 .1-.1.1-.1.1V5c-.2-.3-.3-.1-.5-.2s-.3-.4-.5.1v-.1c-.1.1-.1-.1-.1 0-.1.3-.3 0-.4.3-.1 0-.3 0-.4.1v-.1c-.1.2-.2-.2-.4-.1-.1-.2-.2.4-.4.2-.1-.4-.2.4-.2 0-.2-.6-.3-.2-.4.2-.1-.2-.3.3-.4-.1 0 .3-.1-.3-.2-.3v.1c0-.3 0 .4-.1 0V5.4c0-.4 0 .1-.1-.4v-.3.8-.2.2s0 .3.1.3v-.1.1c0 .2 0-.4 0 0 0-.1.1-.1.1-.1v-.2c0 .3.1.3.1.3s0 .1 0 0c0 .3 0-.3.1.1v-.3.2l.1.1c0-.3.1.1.1-.2 0 .1.1.2.1.1 0 0 .1 0 .1-.3 0 .3 0 .3.1.4 0-.2.1-.1.1-.3v.2c.1-.5.2-.3.3 0v-.6.1s0 .2.1.1v.1c0-.1 0 .2.1 0v.1-.1.2c.2.1.3-.3.5-.3v.1-.1.1c0 .1.1-.1.1-.1v.2c0-.2.1.3.1-.2v.2c.1-.1.2-.1.3-.1.1-.4.2 0 .2-.4v.1c.1-.3.2 0 .3 0l.1-.1v.1c.1-.4.1.3.2-.1V4.9 5c.2-.4.2.3.3 0v.1c0-.1 0-.1 0 0v.1c0 .3.1 0 .2 0v.2c0-.2.1 0 .1-.1v.1-.1.1c0-.1.1-.2.1-.3zM65 5zM60.6 5.8z"/></g><g><path class="st1" d="M77.6 5.9V6zM77.5 6.2l.1-.3c.1-.2-.1.4-.1.3zM77.5 6.1v0zM76.7 6z"/><path class="st1" d="M76.4 6.6v.1c.1-.2.1 0 .1-.1.1.1.2-.1.4-.2v.1c0 .2.1-.1.1 0v-.2c.1 0 .2-.1.3-.2v.2c.2-.3.2-.2.3-.1V6c0-.1-.1.2-.1 0v-.1c0-.1-.1.2 0 .1v-.1s-.1-.1-.1.2v-.2c0 .1 0 .1-.1.2-.1-.1-.3 0-.4 0-.1.4-.1-.1-.2 0 0 .1-.1.1-.1.1l-.1.2c-.1-.4-.3-.2-.4-.3-.2-.1-.3-.4-.5 0V6c-.1.1-.1-.1-.1 0-.2.3-.2-.1-.4.2-.1-.1-.3-.1-.5 0v-.1c-.1.1-.2-.3-.3-.2-.1-.2-.3.4-.4.1 0-.4-.2.4-.2 0 0-.6-.3-.3-.4.1-.1-.2-.3.3-.4-.2-.1.3-.1-.4-.2-.3v.1c0-.3-.1.4-.1 0 0-.2-.1.5-.1.2v-.1.1c.1-.4-.1.1 0-.4v-.3c0-.1 0 0-.1.2 0 .2-.1.4-.1.6v-.2V6.4c0-.2 0-.1 0 0v.1c0 .2.1-.4 0 0l.1-.1c0-.1 0 0 .1-.2v.3s0 .1 0 0c0 .3.1-.3 0 .1.1-.3 0 .1.1-.2v.2s.1.1.1.2c.1-.3.1.1.1-.2 0 .1 0 .2.1.1 0 0 .1 0 .1-.2v.4c0-.2.1-.1.1-.2v.2c.2-.4.3-.2.3.1 0-.1.1-.4.1-.6v.4c0-.1 0 .2.1 0v.1-.1.2c.1.1.4-.3.5-.2v.1l.1-.1v.1c0 .1.1-.1.1 0v.2c.1-.2 0 .3.1-.1v.2c.1-.1.2-.1.3 0 .1-.4.2 0 .3-.3V7c.1-.3.2.1.3 0h.1v.1c.1-.4.1.4.2 0v.1c.1-.2 0 .1.1-.3V7c.1-.4 0 .2.2-.1V7c0-.1.1-.1.1 0v.1c0 .3.1 0 .2 0v.2c.1-.2.1 0 .1-.1v.1-.1.1c-.1-.6 0-.7.1-.7zM76.8 6.5zM72.4 6.4z"/></g><g><path class="st1" d="M89 9.9h.1l-.1.1z"/><path class="st1" d="M88.9 10.2l.1-.3c.1-.2-.2.4-.1.3zM88.9 10.1c0-.1 0 .1-.1.1.1-.1 0 .1.1-.1zM88.1 9.9z"/><path class="st1" d="M87.7 10.3l-.1.1c.1-.2.1 0 .2 0 .1.1.3-.1.4-.1v.1l.1-.1v.1c-.1.2.1-.1.1.1 0 0 .1-.1.1-.2.1 0 .2 0 .4-.1 0 0 0 .1-.1.2.2-.3.2-.1.3-.1 0-.1 0-.1.1-.2 0-.1-.1.2-.1 0V10c0-.1-.1.2-.1.1s.1-.1.1-.1 0-.1-.2.1c.1-.2 0 0 0-.2 0 .1 0 0-.1.2-.1-.1-.3 0-.4-.1-.2.3-.1-.1-.2 0-.2 0-.2 0-.2-.1l-.1.1c0-.4-.3-.2-.3-.4-.1-.2-.2-.5-.5-.1v-.1c-.1.1-.1-.1-.1 0-.2.2-.2-.1-.5.1-.1-.1-.3-.1-.4-.1v-.1c-.2.1-.1-.3-.3-.2 0-.2-.4.3-.4 0 .1-.4-.3.3-.2-.1.1-.6-.2-.3-.5 0-.1-.2-.4.2-.3-.2-.2.2 0-.4-.1-.3v.1c0-.2-.3.4-.2 0l-.1.2v-.1s-.1.2-.1.1c.1-.4-.1.1.1-.4 0 0 .1-.2.1-.3l-.1.2c-.1.2-.2.4-.2.5l.1-.1c-.1.2 0 .1-.1.2 0 0-.1.2-.1.3.1-.2 0-.1 0 0v.1c-.1.2.1-.3 0 0 .1-.1.1 0 .2 0 0-.1 0 0 .1-.2 0 .2 0 .3.1.3-.1.3.1-.3 0 .1.1-.3 0 .1.1-.2 0 .1 0 .1-.1.2 0 0 0 .1.1.2.1-.2 0 .1.2-.2 0 .1 0 .2.1.1 0 0 .1 0 .2-.2-.1.3-.1.3-.1.4l.2-.2c-.1.2.1-.1 0 .2.3-.4.3-.2.3.2.1-.1.2-.4.3-.5v.4c.1-.1 0 .2.1 0v.1-.1c0 .1-.1.2-.1.2.1.1.4-.2.6 0v.1l.1-.1v.1c0 .1.1 0 .1 0s0 .1-.1.1c.1-.2-.1.3.1-.1 0 0 0 .1-.1.1.1-.1.2-.1.3 0 .2-.3.2 0 .3-.2v.1c.2-.2.2.1.3.1h.1v.1c.2-.3 0 .4.2 0l-.3-.2c.1-.2 0 .1.1-.2v.1c.2-.4 0 .2.2 0v.1c0-.1.1-.1.1 0v.1c-.1.3.1 0 .2 0l-.1.1c.1-.2.1 0 .1 0v.1l.1-.1-.1.1c-.1-.1 0-.2.1-.2zM88.1 10.3zM83.8 9.3z"/></g><g><path class="st1" d="M99.4 16.2v-.1.1zM99.2 16.4l.2-.2c.1-.2-.3.3-.2.2zM99.2 16.3c0-.1-.1.1-.1.1.1-.1 0 .1.1-.1zM98.5 15.9z"/><path class="st1" d="M98 16.3l-.1.1c.2-.2.1 0 .1-.1l.1.1c.1.1.3 0 .4 0v.1l.1-.1v.1c-.1.2.1-.1 0 .1l.1-.1c.1 0 .2 0 .4-.1 0 0 0 .1-.1.1.3-.2.3-.1.3 0 .1-.1.1-.1.1-.2.1-.1-.2.2-.1 0l.1-.1c0-.1-.1.2-.1.1s.1-.1.1-.1c-.1 0 0-.1-.2.1l.1-.2-.1.1c0-.2-.3-.1-.3-.1-.3.3-.1-.1-.2-.1-.1.1-.1.1-.1 0l-.1.1c.1-.4-.2-.3-.3-.5-.1-.2-.1-.5-.5-.2v-.1c-.1 0 0-.1-.1-.1-.3.2-.2-.2-.5 0-.1-.1-.2-.2-.4-.2v-.1c-.2.1-.1-.3-.2-.3 0-.2-.4.2-.4 0 .1-.4-.4.3-.2-.1.2-.6-.1-.3-.4-.1 0-.3-.4.1-.3-.3-.2.2.1-.4 0-.3v.1c.1-.3-.3.3 0-.1.1-.2-.3.4-.2.2l-.1.1.1-.1s-.1.2-.1.1c.2-.4-.1.1.2-.4 0 0 .1-.2.2-.2l-.1.1c-.1.2-.2.3-.3.5l.1-.1c-.1.1 0 .1-.1.2 0 0-.1.2-.2.3.1-.2.1-.1.1 0v.1c-.1.2.2-.3 0 0h.2c.1-.1 0 0 .1-.2-.1.2-.1.3-.1.3-.2.3.2-.3 0 .1.2-.3 0 .1.2-.2 0 .1-.1.1-.1.2v.2c.2-.2 0 .1.2-.1 0 .1-.1.2 0 .1 0 0 .1 0 .2-.2-.5.3-.5.2-.5.3l.2-.2c-.1.1.1 0-.1.2.3-.3.3-.1.2.2.1-.1.2-.3.4-.5 0 0-.1.2 0 .2v.1c.1-.1-.1.2 0 0v.1l.1-.1c0 .1-.1.2-.1.1.1.2.5-.1.6.1v.1l.1-.1v.1c0 .1.1 0 .1 0l-.1.1c.1-.2-.1.3.1-.1l-.1.1c.2-.1.2 0 .2.1.3-.3.1.1.4-.2v.1c.2-.2.2.1.3.1h.1l-.1.1c.3-.3-.1.4.2.1l-.1.2c.1-.2 0 .1.2-.2l-.1.1c.3-.4 0 .2.2 0l-.1.1c.1 0 .1-.1.1 0-.2.3.1 0 .1.1l-.1.1c.1-.1.1 0 .1 0v.1h.2-.2.2zM98.4 16.4zM94.4 14.5z"/></g><g><path class="st1" d="M108.3 24.4v-.1l-.1.1zM108.1 24.5s-.1.1 0 0l.2-.2-.2.2zM108.1 24.5c.1-.1-.1 0-.1.1l.1-.1zM107.4 23.9s.1 0 0 0c.1 0 .1 0 0 0zM106.9 24.2c.1 0 0 .2.1.1 0 .1.3 0 .4 0h-.1l.1-.1h-.1c-.1.2.2 0 0 .1l.1-.1c.1 0 .2.1.4 0l-.1.1c.3-.2.3 0 .3.1l.1-.1c.1-.1-.2.1-.1 0l.1-.1c0-.1-.2.2-.1.1l.1-.1c-.1 0 0-.1-.2 0 .1-.1 0 0 .1-.2-.1 0-.1 0-.2.1 0-.2-.2-.1-.3-.2-.3.2 0-.1-.2-.1-.1 0-.1.1-.1 0l-.1.1c.1-.3-.1-.3-.2-.5s0-.5-.5-.3h.1c-.1 0 0-.1-.1-.1-.3.1-.1-.2-.5-.1-.1-.1-.2-.2-.4-.3l.1-.1c-.2 0 0-.3-.2-.3 0-.2-.5.1-.4-.1.2-.3-.4.2-.2-.1.3-.5-.1-.4-.4-.2 0-.2-.4 0-.2-.4-.2.2.1-.3 0-.3l-.1.1c.2-.2-.3.2 0-.1.1-.2-.4.3-.2.2l-.1.1.1-.1-.1.1c.3-.3-.1 0 .2-.3l.2-.2-.1.1-.4.4.1-.1-.1.1s-.2.2-.2.3c.1-.1.1 0 .1 0l-.1.1c-.1.1.3-.2 0 0h.2c.1-.1 0 0 .2-.1-.2.2-.2.3-.2.3-.2.3.2-.2 0 .1.2-.2 0 .1.2-.1l-.1.1v.2c.2-.2 0 .1.2-.1 0 .1-.1.2 0 .1 0 0 .1 0 .3-.1-.2.3-.2.2-.2.3.1-.1.1 0 .3-.1-.1.1.1 0-.1.1.4-.2.4 0 .2.3l.4-.4s-.1.2-.1.1l-.1.1c.1-.1-.1.2 0 0l.1-.1-.1.1c.1.2.5 0 .5.2h-.1l.1-.1-.1.1c-.1.1.1 0 .1.1l-.1.1c.2-.1-.2.2.2-.1l-.1.1c.2 0 .2 0 .2.1.3-.2.1.1.4-.1l-.1.1c.3-.1.1.2.2.2 0 .1.1 0 .1 0l-.1.1c.3-.2-.1.3.2.1l-.1.1c.2-.1 0 .1.2-.2l-.1.1c.4-.3-.1.2.2 0l-.1.1c.1 0 .1-.1.1 0-.2.3.1.1.1.1l-.1.1c.2-.1.1 0 .1 0h-.1l.1-.1-.1.1c.4.4.5.3.6.4zM107.3 24.4zM103.7 21.7z"/></g><g><path class="st1" d="M115.4 34.2v-.1l-.1.1z"/><path class="st1" d="M115.1 34.3l.3-.1c.1-.2-.4.1-.3.1zM115.1 34.2c.1 0-.1 0-.1.1l.1-.1zM114.6 33.6z"/><path class="st1" d="M114 33.7l-.1.1c.2-.1 0 .1.2.1 0 .1.3.1.4.1h-.1s.1-.1.1 0h-.1c-.2.1.2 0 0 .1 0 0 .1-.1.2-.1s.2.1.4.1c0 0-.1 0-.1.1.3-.1.3 0 .3.1.1 0 .1-.1.2-.1.1-.1-.2.1-.1 0h.1s-.2.1-.1 0c.1 0 .1-.1.1-.1-.1 0 0-.1-.2 0 .2-.1 0 0 .1-.1-.1 0-.1 0-.2.1 0-.2-.2-.2-.3-.3-.4.1 0-.1-.2-.1h-.1l-.2.1c.2-.3-.1-.3-.1-.5s.1-.5-.4-.4h.1c-.1 0 0-.1-.1-.1-.3.1-.1-.2-.4-.1 0-.1-.2-.3-.3-.3h.1c-.2 0 .1-.3-.1-.4.1-.2-.5 0-.4-.2.3-.3-.4.1-.2-.2.4-.4 0-.4-.3-.3.1-.2-.4 0-.1-.4-.3.1.2-.3.1-.3l-.1.1c.2-.2-.4.2 0-.1.2-.1-.4.3-.2.1l-.1.1.1-.1s-.2.1-.1.1c.4-.2-.1 0 .3-.3l.2-.2-.2.1c-.2.1-.3.2-.5.3l.1-.1c-.1.1-.1 0-.2.1 0 0-.2.2-.3.2.2-.1.1 0 .1 0l-.1.1c-.2.1.3-.2 0 0 .1 0 .1 0 .1.1.1-.1 0 0 .2-.1l-.2.2c-.3.2.3-.2-.1.1.2-.2-.1.1.2-.1-.1 0-.1.1-.1.1v.2c.2-.1-.1.1.3-.1-.1.1-.2.2 0 .1 0 0 .1 0 .3-.1-.3.2-.2.2-.3.3.1-.1.1 0 .3-.1-.1.1.1 0-.1.1.4-.2.4 0 .1.3.1-.1.4-.2.5-.3l-.1.1h-.1c.1 0-.1.1 0 .1h-.1.1c-.1 0-.2.1-.1.1 0 .2.5.1.5.3h-.1 0c-.1.1.1 0 .1.1l-.1.1c.2-.1-.2.2.2 0l-.1.1c.2 0 .2.1.2.2.4-.2.1.1.4 0h-.1c.3-.1.1.2.2.2 0 .1.1 0 .1.1l-.1.1c.4-.1-.2.3.2.1l-.1.1c.2-.1 0 .1.3-.1l-.1.1c.4-.2-.1.2.2.1h-.1 0c-.3.2.1.1.1.1l-.1.1c.2-.1.1.1.1 0h-.1.1l-.1.1c.2-.1.3-.1.3-.1zM114.4 34zM111.4 30.7z"/></g><g><path class="st1" d="M120.3 45.2h.1-.1zM120.1 45.2c-.1 0-.1.1 0 0l.3-.1c.1 0-.5.2-.3.1z"/><path class="st1" d="M120.1 45.2h-.1c.1 0-.1.1.1 0zM119.7 44.5z"/><path class="st1" d="M119.1 44.5h-.1c.2 0 0 .1.1.1 0 .1.2.1.4.2h-.1 0c-.2.1.2 0 0 .1 0 0 .1 0 .2-.1.1.1.2.1.3.2 0 0-.1 0-.2.1.4 0 .3.1.2.2.1 0 .1 0 .2-.1s-.2 0-.1 0h.1s-.2.1-.1 0h.1s0-.1-.2 0l.2-.1h-.2c.1-.1-.2-.2-.2-.3-.4.1 0-.1-.1-.2H119.3c.3-.3 0-.3.1-.5 0-.2.2-.4-.3-.4h.1c-.1 0 0-.1-.1-.1-.3 0 0-.2-.4-.2 0-.1-.1-.3-.2-.4h.1c-.2-.1.1-.3 0-.4.1-.2-.5-.1-.3-.3.3-.2-.5 0-.1-.2.5-.4.1-.3-.3-.4.1-.2-.4-.1-.1-.4-.3 0 .3-.3.2-.3h-.1c.3-.1-.4.1 0-.1.2-.1-.5.2-.2.1h-.1s.1 0 .1-.1c0 0-.2.1-.1 0 .4-.2-.1 0 .3-.2 0 0 .2-.1.3-.1h-.2c-.2.1-.4.2-.5.2l.1-.1c-.1.1-.1 0-.2.1 0 0-.2.1-.3.2.2-.1.1 0 .1 0h-.1c-.2.1.3-.1 0 0 .1 0 .1.1.1.1.1 0 0 0 .2-.1-.2.1-.3.2-.3.2-.3.2.3-.1-.1.1.3-.1-.1.1.3 0-.1 0-.1.1-.2.1 0 0-.1.1-.1.2.3-.1-.1.1.3 0-.1.1-.2.1 0 .1 0 0 .1.1.3 0-.3.1-.2.1-.3.2h.3c-.1.1.1 0-.1.1.4-.1.3.1.1.3.1 0 .4-.1.5-.2h-.1s-.2.1-.1.1h-.1c.1 0-.2.1 0 .1h-.1.1c-.1 0-.2.1-.2.1 0 .2.4.2.4.4h-.1 0c-.1.1.1 0 .1.1 0 0-.1 0-.1.1.2 0-.2.1.2 0 0 0-.1 0-.1.1.2 0 .2.1.2.2.4-.1.1.1.4.1h-.1c.3 0 .1.2.1.3 0 0 .1 0 .1.1h-.1c.4-.1-.3.3.1.2h-.1c.2-.1-.1.1.3-.1h-.1c.5-.1-.2.2.1.1h-.1 0c-.3.2.1.1.1.1h-.1c.2 0 0 .1.1.1h-.1.1-.1c.1.2.3.2.3.3zM119.4 44.8zM117.1 41s.1 0 0 0z"/></g><g><path class="st1" d="M123 57h-.1zM122.7 57s-.1 0 0 0h0zM122.7 57h-.1.1zM122.5 56.2zM121.9 56h-.1c.2 0 0 .1.1.1 0 .1.2.2.3.3h-.1 0c-.2.1.1 0 0 .1h.2c.1.1.1.2.3.2h-.2c.4 0 .2.1.2.2h.2c.1 0-.2 0-.1-.1h.1s0-.1-.2-.1c.2 0 0 0 .2-.1h-.2c.1-.1-.1-.2-.1-.3-.4 0 .1-.1-.1-.2-.1 0-.1 0-.1-.1h-.2c.3-.2 0-.3.2-.5.1-.2.3-.4-.2-.5h.1c-.1 0 0-.1 0-.1-.3-.1 0-.3-.4-.3 0-.1 0-.3-.2-.4h.1c-.2-.1.2-.3.1-.4.2-.2-.5-.2-.3-.3.4-.1-.4-.1-.1-.2.5-.3.2-.3-.2-.4.2-.2-.4-.2 0-.4-.3 0 .3-.2.2-.2h-.1c.3-.1-.4 0 0-.1.2-.1-.5.1-.3 0h-.1.1c.4-.1-.1 0 .4-.1 0 0 .2-.1.3-.1h-.2c-.2 0-.4.1-.6.1h.2-.2s-.2.1-.3.1h.1-.1c-.2 0 .4 0 0 0 .1 0 .1.1.1.1h.2l-.3.1s-.1 0 0 0c-.3.1.3 0-.1.1.3-.1-.1.1.3 0h-.2l-.1.1c.3 0-.1.1.3.1-.1 0-.2.1-.1.1 0 0 .1.1.3.1-.3.1-.3.1-.4.1.2 0 .1 0 .3.1-.2 0 .1 0-.2.1.5 0 .3.2 0 .3.1 0 .4 0 .6-.1h-.1s-.2.1-.1.1h-.1c.1 0-.2.1 0 .1h-.1.1-.2c0 .2.4.3.3.5h-.1 0c-.1.1.1.1.1.1h-.2c.2 0-.3.1.2 0h-.2c.2.1.2.1.1.2.4 0 .1.1.4.2h-.1c.3.1 0 .2.1.3l.1.1h-.1c.4 0-.3.2.1.2h-.1c.2 0-.1.1.3 0h-.1c.5 0-.2.1.1.1h-.1c.1 0 .1 0 0 0h-.1c-.3.1.1.1 0 .2h-.2c.2 0 0 .1.1.1h-.1.1-.1c.4.4.6.4.6.4zM122.1 56.5zM120.7 52.2z"/></g><g><path class="st2" d="M50.8 73.3c-.6-.4-1.3-.6-2.2-.6-.4 0-.7 0-1.1.1-.4.1-.7.2-.9.4-.3.2-.5.4-.7.7-.2.3-.2.6-.2 1.1 0 .4.1.7.4 1 .2.2.6.5.9.6.4.2.8.3 1.3.4l1.5.3c.5.1 1 .3 1.5.4.5.2.9.4 1.3.7.4.3.7.6.9 1.1.2.4.4 1 .4 1.6 0 .7-.2 1.3-.5 1.8s-.7.9-1.2 1.2c-.5.3-1 .5-1.6.7-.6.1-1.2.2-1.8.2-.7 0-1.4-.1-2.1-.3-.6-.2-1.2-.5-1.7-.8-.5-.4-.9-.8-1.2-1.4-.3-.6-.4-1.3-.4-2H45c0 .5.1 1 .3 1.4.2.4.5.7.8 1 .3.3.7.4 1.2.6.5.1.9.2 1.4.2.4 0 .8 0 1.2-.1.4-.1.7-.2 1.1-.4.3-.2.6-.4.8-.7.2-.3.3-.7.3-1.2s-.1-.8-.4-1.1c-.2-.3-.6-.5-.9-.7-.4-.2-.8-.3-1.3-.4l-1.5-.3c-.5-.1-1-.2-1.5-.4s-.9-.4-1.3-.6c-.4-.2-.7-.6-.9-1-.2-.7-.3-1.2-.3-1.8 0-.7.1-1.2.4-1.7.3-.5.6-.9 1.1-1.2.4-.3.9-.5 1.5-.7.6-.2 1.1-.2 1.7-.2.7 0 1.3.1 1.9.2.6.2 1.1.4 1.5.7.4.3.8.8 1 1.3.2.5.4 1.1.4 1.8h-1.6c-.2-.8-.5-1.5-1.1-1.9zM60.2 75.1v1.4h-1.9v6.2c0 .1.1.2.2.3.1.1.2.1.4.1H60.2v1.4H59c-.4 0-.7 0-1-.1-.3-.1-.5-.2-.7-.3-.2-.1-.3-.4-.4-.6-.1-.3-.1-.6-.1-1.1v-6h-1.6V75h1.6v-2.8h1.5V75h1.9zM69.5 84.7c-.4 0-.7-.1-1-.3-.2-.2-.4-.6-.4-1.1-.4.5-.9.9-1.5 1.1-.6.2-1.2.3-1.8.3-.4 0-.8 0-1.2-.1-.4-.1-.7-.2-1-.5-.3-.2-.5-.5-.7-.8-.2-.3-.2-.7-.2-1.2s.1-1 .3-1.3c.2-.3.4-.6.7-.8.3-.2.6-.4 1-.5l1.2-.3c.4-.1.8-.1 1.2-.2.4 0 .7-.1 1-.2.3-.1.5-.2.7-.3.2-.2.3-.4.3-.7 0-.3-.1-.6-.2-.8-.1-.2-.3-.4-.5-.5-.2-.1-.4-.2-.7-.2-.2 0-.5-.1-.7-.1-.7 0-1.2.1-1.6.4-.4.2-.7.7-.7 1.4h-1.5c0-.6.1-1.1.4-1.5.2-.4.5-.7.9-1 .4-.2.8-.4 1.3-.5.5-.1 1-.2 1.5-.2.4 0 .8 0 1.3.1.4.1.8.2 1.1.4.3.2.6.5.8.8.2.3.3.8.3 1.3v4.8c0 .4 0 .6.1.8 0 .2.2.3.4.3.1 0 .3 0 .5-.1v1.2c-.4.2-.8.3-1.3.3zm-2.1-4.8c-.3.1-.6.1-1 .2-.3 0-.7.1-1 .1-.4.1-.7.1-.9.3-.3.1-.5.3-.7.5-.2.2-.3.5-.3.9 0 .3.1.5.2.6.1.2.2.3.4.4.2.1.4.2.6.2.2 0 .5.1.7.1.5 0 .9-.1 1.3-.2s.7-.3.9-.5c.2-.2.4-.4.5-.7.1-.2.2-.5.2-.7v-1.6c-.4.3-.6.4-.9.4zM72.5 73.4v-1.9H74v1.9h-1.5zm1.6 1.7v9.4h-1.5v-9.4h1.5zM78.3 75.1v1.5c.6-1.1 1.7-1.7 3.1-1.7.6 0 1.1.1 1.5.3.4.2.7.4 1 .7.3.3.4.7.5 1.1.1.4.2.9.2 1.4v6.2h-1.5v-6.4c0-.6-.2-1-.5-1.4-.3-.3-.8-.5-1.4-.5-.5 0-.9.1-1.2.2-.3.1-.6.4-.9.6-.2.3-.4.6-.5.9-.1.4-.2.7-.2 1.2v5.3h-1.5v-9.4h1.4zM32.5 89.7c1.2 0 2.2.3 2.9.9.7.6 1 1.4 1 2.5 0 .8-.2 1.5-.5 2.1-.4.6-.9 1-1.7 1.2.4.1.7.2.9.4l.6.6c.1.2.2.5.3.8.1.3.1.6.2.9 0 .3 0 .6.1 1 0 .3 0 .6.1 1 0 .3.1.6.2.9.1.3.2.5.4.8h-2c-.1-.1-.2-.3-.2-.5s-.1-.5-.1-.8v-.9c0-.3 0-.6-.1-1 0-.3-.1-.6-.2-.9-.1-.3-.2-.5-.3-.7-.2-.2-.4-.4-.6-.5-.3-.1-.6-.2-1-.2h-4.2v5.6h-1.7v-13h5.9zm.4 5.9c.4-.1.7-.2 1-.4.3-.2.5-.4.7-.7.2-.3.2-.7.2-1.2 0-.7-.2-1.2-.5-1.6-.4-.4-1-.6-1.8-.6h-4.3v4.5h3.6c.3.1.7.1 1.1 0zM45.6 102.1c-.7.5-1.6.8-2.7.8-.8 0-1.4-.1-2-.4-.6-.2-1-.6-1.4-1-.4-.4-.7-1-.8-1.6-.2-.6-.3-1.3-.3-2s.1-1.4.3-2c.2-.6.5-1.1.9-1.5.4-.4.9-.8 1.4-1 .5-.2 1.1-.4 1.8-.4.8 0 1.5.2 2.1.5.6.3 1 .8 1.3 1.3.3.5.6 1.1.7 1.7.1.6.2 1.2.2 1.8h-7c0 .4 0 .8.1 1.2.1.4.3.7.5 1 .2.3.6.5.9.7.4.2.8.3 1.3.3.7 0 1.2-.2 1.6-.5.4-.3.7-.8.8-1.4H47c-.2 1.2-.7 2-1.4 2.5zm-.4-6c-.1-.3-.3-.6-.6-.8-.2-.2-.5-.4-.8-.6-.3-.1-.7-.2-1.1-.2-.4 0-.8.1-1.1.2s-.6.3-.8.6c-.2.2-.4.5-.5.8-.1.3-.2.7-.2 1h5.4c0-.4-.1-.7-.3-1zM50.3 100.6c.1.2.3.4.6.6.2.1.5.2.8.3.3.1.6.1.9.1.2 0 .5 0 .8-.1.3 0 .5-.1.7-.2.2-.1.4-.2.6-.4.1-.2.2-.4.2-.7 0-.4-.2-.7-.5-.9-.3-.2-.7-.4-1.1-.5-.5-.1-.9-.2-1.5-.3-.5-.1-1-.2-1.5-.4s-.8-.5-1.1-.8c-.3-.3-.5-.8-.5-1.4 0-.5.1-.9.3-1.2.2-.3.5-.6.8-.8.3-.2.7-.4 1.1-.5.4-.1.8-.2 1.2-.2.5 0 1 0 1.5.1s.8.2 1.2.5c.3.2.6.5.8.9.2.4.3.9.4 1.4h-1.5c0-.3-.1-.6-.2-.8-.1-.2-.3-.4-.5-.5-.2-.1-.4-.2-.7-.3-.2-.1-.5-.1-.8-.1-.2 0-.5 0-.7.1-.2 0-.5.1-.6.2-.2.1-.4.2-.5.4-.1.2-.2.4-.2.6 0 .3.1.5.3.7.2.2.4.3.7.4.3.1.6.2 1 .3.4.1.7.2 1.1.2.4.1.8.2 1.1.3.4.1.7.3 1 .5.3.2.5.5.7.8.2.3.3.7.3 1.1 0 .6-.1 1-.4 1.4-.2.4-.5.7-.9.9-.4.2-.8.4-1.3.5-.5.1-1 .1-1.4.1-.5 0-1-.1-1.5-.2s-.9-.3-1.3-.5-.7-.6-.9-1c-.2-.4-.3-.9-.4-1.5H50c.1.4.1.7.3.9zM58.7 91.6v-1.9h1.5v1.9h-1.5zm1.5 1.7v9.4h-1.5v-9.4h1.5zM64.2 100.6c.1.2.3.4.6.6.2.1.5.2.8.3.3.1.6.1.9.1.2 0 .5 0 .8-.1.3 0 .5-.1.7-.2.2-.1.4-.2.6-.4.1-.2.2-.4.2-.7 0-.4-.2-.7-.5-.9-.3-.2-.7-.4-1.1-.5l-1.5-.3c-.5-.1-1-.2-1.5-.4s-.8-.5-1.1-.8c-.3-.3-.5-.8-.5-1.4 0-.5.1-.9.3-1.2.2-.3.5-.6.8-.8.3-.2.7-.4 1.1-.5.4-.1.8-.2 1.2-.2.5 0 1 0 1.5.1s.8.2 1.2.5c.3.2.6.5.8.9.2.4.3.9.4 1.4h-1.5c0-.3-.1-.6-.2-.8-.1-.2-.3-.4-.5-.5-.2-.1-.4-.2-.7-.3-.2-.1-.5-.1-.8-.1-.2 0-.5 0-.7.1-.2 0-.5.1-.6.2-.2.1-.4.2-.5.4-.1.2-.2.4-.2.6 0 .3.1.5.3.7.2.2.4.3.7.4.3.1.6.2 1 .3.4.1.7.2 1.1.2.4.1.8.2 1.1.3.4.1.7.3 1 .5.3.2.5.5.7.8.2.3.3.7.3 1.1 0 .6-.1 1-.4 1.4-.2.4-.5.7-.9.9-.4.2-.8.4-1.3.5-.5.1-1 .1-1.4.1-.5 0-1-.1-1.5-.2s-.9-.3-1.3-.5-.7-.6-.9-1c-.2-.4-.3-.9-.4-1.5h1.5c.1.4.2.7.4.9zM76.5 93.3v1.4h-1.9v6.2c0 .1.1.2.2.3.1.1.2.1.4.1H76.5v1.4h-1.2c-.4 0-.7 0-1-.1-.3-.1-.5-.2-.7-.3-.2-.1-.3-.4-.4-.6-.1-.3-.1-.6-.1-1.1v-6h-1.6v-1.4H73v-2.8h1.5v2.8h2zM85.8 102.9c-.4 0-.7-.1-1-.3-.2-.2-.4-.6-.4-1.1-.4.5-.9.9-1.5 1.1-.6.2-1.2.3-1.8.3-.4 0-.8 0-1.2-.1-.4-.1-.7-.2-1-.5-.3-.2-.5-.5-.7-.8-.2-.3-.2-.7-.2-1.2s.1-1 .3-1.3c.2-.3.4-.6.7-.8.3-.2.6-.4 1-.5l1.2-.3c.4-.1.8-.1 1.2-.2.4 0 .7-.1 1-.2.3-.1.5-.2.7-.3.2-.2.3-.4.3-.7 0-.3-.1-.6-.2-.8-.1-.2-.3-.4-.5-.5-.2-.1-.4-.2-.7-.2-.2 0-.5-.1-.7-.1-.7 0-1.2.1-1.6.4-.4.2-.7.7-.7 1.4h-1.5c0-.6.1-1.1.4-1.5.2-.4.5-.7.9-1 .4-.2.8-.4 1.3-.5.5-.1 1-.2 1.5-.2.4 0 .8 0 1.3.1.4.1.8.2 1.1.4.3.2.6.5.8.8.2.3.3.8.3 1.3v4.8c0 .4 0 .6.1.8 0 .2.2.3.4.3.1 0 .3 0 .5-.1v1.2c-.5.2-.9.3-1.3.3zm-2.2-4.7c-.3.1-.6.1-1 .2-.3 0-.7.1-1 .1-.4.1-.7.1-.9.3-.3.1-.5.3-.7.5-.2.2-.3.5-.3.9 0 .3.1.5.2.6.1.2.2.3.4.4.2.1.4.2.6.2.2 0 .5.1.7.1.5 0 .9-.1 1.3-.2s.7-.3.9-.5c.2-.2.4-.4.5-.7.1-.2.2-.5.2-.7v-1.6c-.3.2-.6.3-.9.4zM90.1 93.3v1.5c.6-1.1 1.7-1.7 3.1-1.7.6 0 1.1.1 1.5.3.4.2.7.4 1 .7.3.3.4.7.5 1.1.1.4.2.9.2 1.4v6.2h-1.5v-6.4c0-.6-.2-1-.5-1.4-.3-.3-.8-.5-1.4-.5-.5 0-.9.1-1.2.2-.3.1-.6.4-.9.6-.2.3-.4.6-.5.9-.1.4-.2.7-.2 1.2v5.3h-1.5v-9.4h1.4zM103.2 93.3v1.4h-1.9v6.2c0 .1.1.2.2.3.1.1.2.1.4.1H103.2v1.4H102c-.4 0-.7 0-1-.1-.3-.1-.5-.2-.7-.3-.2-.1-.3-.4-.4-.6-.1-.3-.1-.6-.1-1.1v-6h-1.6v-1.4h1.6v-2.8h1.5v2.8h1.9z"/></g><g><path class="st3" d="M70.2 50.1l.7-.4s-.8 1.1-.8 1.2l1-.6"/><path class="st4" d="M94.3 49.6c0 .1 2.7-1.6 2.7-1.6 0 .1-1.2 1.6-1.1 1.7l2-1.2S97 50 97 50.1c0 .1 1.5-.9 1.5-.9l-.4 1.2s1.6-1 1.6-.9c0 0-.4 1.1-.4 1.2l.9-.5"/><path class="st4" d="M89.9 51.9c.1.2 6.6-4 6.7-3.9.1.1-5.8 4.1-5.7 4.3 0 .1 2.6-1.6 2.7-1.5 0 .1-2.5 2.4-2.5 2.5 0 .1 2.9-1.8 2.9-1.7 0 .1-2 2.1-1.9 2.2 0 .1 2.5-1.5 2.5-1.5 0 .1-2.4 2.3-2.4 2.4 0 .1 2.8-1.7 2.9-1.7 0 .1-1.7 1.9-1.7 2 0 .1 2.5-1.5 2.5-1.5 0 .1-2 2.1-1.9 2.1 0 .1 2.4-1.5 2.4-1.4 0 .1-1.9 2.1-1.9 2.1 0 .1 2.4-1.5 2.5-1.4l-1.4 1.8 1.8-1.1"/><path class="st4" d="M72.5 44.3l.3-.2-.2 1.1 1.9-1.1s-.7 1.4-.6 1.4l1.9-1.1s-.4 1.2-.4 1.3c0 0 1.8-1.1 1.8-1 0 0-.9 1.5-.8 1.5 0 .1 2.5-1.5 2.5-1.5s-1.1 1.6-1.1 1.7c.2.4 14.2-8.6 14.4-8.3.2.3-14.2 8.8-14 9.1.2.3 14-8.6 14.2-8.2.2.4-15.1 9.3-15 9.6.3.4 14.8-9.1 15.1-8.7.2.3-15.7 9.6-15.5 9.9.3.4 16-9.7 16.2-9.4.2.4-15.9 9.6-15.6 10.1.3.5 16.1-9.7 16.3-9.4.2.4-16.6 10.1-16.3 10.4.3.5 16.7-10.2 17-9.8.2.3-17.2 10.3-17 10.8.2.4 18.1-11.2 18.4-10.6.2.4-18.5 11.2-18.3 11.6.3.5 18.6-11.4 18.9-10.9.3.6-18.4 11-18.2 11.5.3.4 16.2-9.8 16.4-9.5.2.3-11.2 7-11 7.3.1.2 11-6.7 11.2-6.4.2.3-10.6 6.8-10.4 7.1.2.3 10.6-6.4 10.7-6.2.2.3-10.3 6.7-10.2 6.9.2.3 10.2-6.2 10.3-6 .2.3-10.6 6.8-10.5 7.1.2.3 11.4-6.9 11.6-6.7.2.3-11.4 7.3-11.3 7.5.1.1 3.2-2 3.3-1.9.1.1-3 2.6-3 2.7 0 .1 2.3-1.4 2.3-1.3.1.1-2.6 2.4-2.5 2.5 0 0 2.4-1.5 2.4-1.4 0 .1-2.2 2.2-2.1 2.3l1.5-.9c0 .1-1.5 1.8-1.5 1.9l1.4-.8M92.1 33l.3-.2c.1.1-2.5 2.4-2.5 2.5 0 .1 3.1-1.9 3.1-1.8M83.5 34.6s1.1-.7 1.1-.6c0 0-1.3 1.7-1.3 1.8 0 .1 2-1.2 2-1.2.1.1-2.8 2.5-2.7 2.6 0 .1 2.8-1.7 2.8-1.6 0 .1-2.3 2.3-2.3 2.3 0 .1 2.4-1.5 2.5-1.4.1.1-3 2.6-3 2.7 0 .1 2.7-1.7 2.8-1.6"/><path class="st4" d="M75.2 35l.2-.1-.1 1 .6-.4v1l1.1-.7-1.1 1.6 1.5-.9-.7 1.4s1.6-1 1.6-.9c0 0-1 1.5-1 1.6l1.1-.7-.7 1.4s1.5-1 1.6-.9l-1.5 1.9c0 .1 2.2-1.3 2.2-1.3 0 .1-1.5 1.8-1.5 1.9 0 0 2.6-1.6 2.7-1.5 0 .1-2.5 2.3-2.4 2.4.1.2 7.5-4.6 7.6-4.4.1.2-6.8 4.7-6.7 4.9.2.3 12.2-7.5 12.4-7.1.2.4-12.5 7.7-12.3 8.1.1.2 12.3-7.5 12.5-7.2.2.3-12.7 7.9-12.5 8.2.2.3 11.8-7.3 12-6.9"/><g><path class="st5" d="M59 48.6c0 .1 2.7-1.6 2.7-1.6L60 48.7c0 .1 2-1.2 2-1.1 0 0-1.2 1.4-1.1 1.4 0 0 1.4-.9 1.4-.8 0 0-.9 1.2-.9 1.3l.8-.5-.6 1.1 1.3-.8-.6 1.1s.9-.6 1-.6c0 0-.7 1.1-.7 1.2l.8-.5-.5 1s1.3-.8 1.3-.7c0 0-1 1.3-1 1.4 0 0 1.5-.9 1.5-.8l-.9 1.3 1-.6-.6 1.1 1.2-.7-.8 1.2 1-.6s-.6 1.1-.6 1.2c0 0 1-.6 1.1-.6M61.4 44.7c0 .1 2.7-1.7 2.7-1.6l-.8 1.2 1.1-.7"/><path class="st5" d="M51.3 50.2c.2.3 12.3-7.4 12.4-7.2.2.3-11.1 6.7-10.9 7.1.1.2 8.6-5.2 8.7-5 .1.2-7.7 4.9-7.6 5.1.1.2 7.3-4.4 7.4-4.3.1.2-7 4.6-7 4.8.1.2 7.4-4.5 7.5-4.3.1.2-7.5 4.8-7.4 5 .1.1 3.6-2.2 3.7-2.1 0 .1-3.3 2.5-3.2 2.6.1.1 3.3-2 3.3-1.9 0 .1-3.4 2.6-3.3 2.7 0 .1 3.4-2.1 3.4-2 0 .1-3.4 2.6-3.3 2.7l1.2-.7s-1.1 1.3-1 1.4l1-.6M64.6 41c0 .1 3-1.8 3.1-1.8"/><path class="st5" d="M38.6 50.6c.4.7 25.3-15.4 25.6-14.8.3.5-18.7 11-18.5 11.4.3.6 18.5-11.2 18.7-10.8.2.4-18.5 10.8-18.2 11.3.3.5 18-11.1 18.3-10.6.3.5-18.3 10.7-18 11.2.2.4 17.9-10.9 18.1-10.5.2.4-17.8 10.4-17.5 10.9.2.4 17.7-10.7 17.9-10.3.2.4-17.9 10.4-17.6 10.9.3.5 18.2-11 18.4-10.6.3.5-18.8 10.9-18.5 11.4.3.6 19.2-11.8 19.5-11.3.3.5-20.3 11.8-20 12.3.3.4 16.4-10.1 16.7-9.6.4.4-17.7 10.5-17.5 10.9.2.4 16.9-10.4 17.2-9.9.3.5-18.2 10.7-17.9 11.2.1.1 5.3-3.3 5.4-3.1.1.2-6.3 4.2-6.3 4.4.1.1 4.6-2.8 4.7-2.7.1.1-4.8 3.3-4.7 3.5.1.1 4-2.4 4.1-2.3.1.1-4.1 2.9-4 3.1.1.1 3.5-2.1 3.6-2.1.1.1-3.3 2.6-3.3 2.7 0 .1 2.3-1.4 2.3-1.3 0 .1-2.2 2-2.2 2l1.7-1M60.8 29.6l.7-.4c0 .1-1.7 1.7-1.7 1.7 0 .1 2.9-1.8 2.9-1.7 0 .1-3.3 2.6-3.3 2.7.1.1 3.7-2.3 3.7-2.2"/><path class="st5" d="M34.4 41.1l.5-.3S34 42 34.1 42c0 .1 2.3-1.4 2.3-1.3 0 .1-2.1 1.9-2.1 2 .1.1 3.1-1.9 3.1-1.8 0 .1-2.6 2.2-2.6 2.2 0 .1 3.8-2.3 3.8-2.2 0 .1-2.5 2.1-2.4 2.2.1.1 3.5-2.1 3.5-2 0 .1-2.2 1.9-2.2 2 .1.1 3.7-2.3 3.8-2.2 0 .1-2.2 1.9-2.2 2 .2.4 17.6-10.8 17.8-10.3.3.5-17.5 10.3-17.2 10.7.3.5 18.1-11 18.3-10.6.3.5-18.6 10.9-18.3 11.3.3.6 23.1-14.1 23.4-13.5.3.5-23.4 13.4-23 14.1.5.4 22.6-13.6 22.9-13.2.4.7-24.5 14-24.1 14.7.4.7 23.2-14.2 23.6-13.6.4.6-24.1 14-23.8 14.5.3.6 22.9-13.9 23.2-13.4.3.6-23.7 13.8-23.4 14.3.3.6 22.2-13.7 22.6-13 .3.6-23.2 13.4-22.9 14 .4.6 22.9-14.1 23.3-13.5.4.7-25.9 14.9-25.5 15.5.4.7 25.2-15.5 25.6-14.8.4.7-26.4 15-25.9 15.7.4.8 27.2-16.5 27.6-15.9.5.8-27.7 15.8-27.3 16.5 0 0 .9-.6.9-.5M56.1 29.5s.6-.4.6-.3M52.4 25.8l.3-.2-1.1 1.4s1.6-1 1.6-.9c0 .1-1.5 1.6-1.5 1.6s1.8-1.1 1.9-1.1c0 .1-2.1 1.8-2 1.9 0 .1 2.2-1.3 2.2-1.3 0 .1-2.3 2-2.3 2.1 0 .1 2.7-1.7 2.8-1.6"/><path class="st5" d="M50 29.9l.2-.1.3.6c.1.1 3.9-2.4 3.9-2.3.1.1-4 2.9-3.9 3 .1.1 3.9-2.3 3.9-2.3.1.1-4 2.9-3.9 3.1.1.1 4-2.5 4.1-2.4"/><path class="st5" d="M36.2 33.6l.3-.2-.4 1 1.9-1.1s-1.1 1.3-1.1 1.4c0 0 1.6-1 1.6-.9 0 0-.3.9-.3 1 0 0 1.2-.8 1.2-.7 0 0-.4.9-.3 1 0 0 1.1-.7 1.1-.6l-.1.8 1.2-.7-.5 1 1-.6v.8s1-.6 1.1-.6l-.4 1c0 .1 1.8-1.1 1.9-1.1 0 .1-1.5 1.6-1.5 1.6.1.1 6.9-4.2 7-4.1.1.1-6.4 4.2-6.3 4.4.1.2 11.3-6.9 11.5-6.6.2.3-11.2 6.9-11.1 7.2.2.4 13.1-8 13.3-7.7.2.4-13.6 8.1-13.4 8.5.2.3 13.3-8.1 13.5-7.8.2.4-13.6 8.1-13.4 8.5.2.4 13.2-8 13.4-7.7"/><path class="st5" d="M38.6 19.6s.8-.5.8-.4c0 .1-1.4 1.5-1.4 1.5 0 .1 2.5-1.5 2.5-1.5 0 .1-2.6 2.1-2.6 2.2.1.1 3.3-2 3.4-2 .1.1-3.5 2.7-3.5 2.8.1.1 3.4-2.1 3.4-2 .1.1-3.4 2.6-3.3 2.7.1.1 3.8-2.3 3.9-2.2.1.1-3.7 2.8-3.6 2.8.1.1 3.8-2.3 3.8-2.2.1.1-3.6 2.7-3.6 2.8 0 .1 3.7-2.2 3.7-2.2.1.1-3.1 2.5-3.1 2.5 0 .1 3.3-2 3.3-1.9 0 .1-2.8 2.3-2.7 2.3.1.1 2.8-1.7 2.8-1.6 0 .1-2.6 2.1-2.5 2.2 0 .1 2.8-1.7 2.9-1.7 0 .1-2.3 2-2.3 2.1 0 .1 2.7-1.7 2.8-1.6 0 .1-2.3 2-2.3 2.1 0 .1 2.4-1.5 2.5-1.4 0 .1-2 1.8-2 1.9 0 0 2-1.2 2.1-1.2 0 0-1.5 1.5-1.4 1.6 0 .1 1.9-1.2 1.9-1.1l-1.5 1.6 2-1.2-1.9 1.8c0 .1 2.4-1.5 2.4-1.4 0 .1-1.9 1.8-1.9 1.8 0 .1 2.3-1.4 2.3-1.3 0 .1-2 1.8-1.9 1.9 0 .1 2.4-1.5 2.5-1.4 0 .1-2.2 1.9-2.2 2 0 .1 2.4-1.5 2.5-1.4 0 .1-2.6 2.2-2.5 2.2 0 .1 2.8-1.7 2.9-1.7 0 .1-2.6 2.2-2.5 2.2 0 .1 3-1.9 3.1-1.8 0 .1-2.6 2.2-2.5 2.3 0 .1 3.2-2 3.2-1.9 0 .1-3.3 2.5-3.2 2.6.1.1 3.4-2.1 3.5-2 .1.1-3.4 2.6-3.4 2.7.1.1 3.7-2.2 3.7-2.1.1.1-4 2.9-3.9 3 .1.1 4.2-2.5 4.2-2.4"/><g><path class="st5" d="M49.9 59.3s.9-.6.9-.5l-1.4 1.5c0 .1 2.6-1.6 2.7-1.5 0 .1-2.8 2.3-2.7 2.3.1.1 3-1.9 3.1-1.8.1.1-3.2 2.5-3.2 2.6.1.1 3.5-2.1 3.5-2 0 .1-3.3 2.6-3.3 2.7.1.1 3.8-2.3 3.8-2.2 0 .1-3.1 2.5-3.1 2.5.1.1 3.9-2.4 4-2.3.1.1-3.1 2.5-3.1 2.6.1.1 3.3-2 3.3-1.9 0 .1-2 1.8-1.9 1.8 0 0 1.7-1.1 1.8-1"/></g><g><path class="st5" d="M62.5 56.9l.3-.2-.8 1.2 1.2-.7s-.4.9-.3.9l.7-.4"/></g><g><path class="st5" d="M66.4 54.7l.6-.4v.8l.3-.2"/></g><g><path class="st5" d="M34.5 53.3l.5-.3-.3.9.7-.4"/></g><g><path class="st5" d="M32.6 24.9l.9-.5-1 1.3 1.5-.9-1.1 1.4s1.5-.9 1.6-.9"/></g><g><path class="st5" d="M63.6 23.1l.1-.1-.4 1s1.1-.7 1.1-.6l-.5 1 .3-.2"/></g></g><g><path class="st6" d="M52.5 49.8h-.1s-.1 0-.1.1l-.1.1s.1 0 .1-.1c.1 0 .2-.1.2-.1zM50.8 50.7h.1l.4-.4c.2-.2.5-.3.5-.3-.6 0-.7.6-1 .7zM50.5 50.9c-.4.2-.4.5-.5.6.1-.2.6-.6.5-.6zM35.8 51.8z"/><path class="st6" d="M39.8 44.3l-.1-.1c.2.4.4.8.3 1.2-.1.2-.3.3-.4.4-.2 0-.5.2-.6.4-.5.8-.6 1.8-.9 2.6v-.1c-.2.5-.4 1.1-.9 1.4-.4.4-.9.6-1.4 1-.2.2-.4.4-.5.7-.1.3 0 .6.1.9.1.1.1.3.2.4h.5c.3-.1.6-.2.7-.5.5-1.1 1.7-1.4 2.6-1.9 1-.4 1.9-1.2 3-1.7-.1 0-.1.1-.1.1.2-.1.4-.3.6-.4.1 0 0 .1-.1.1.7-.2 1.7-.7 2.5-1 .3-.2.6-.2.8-.1.3 0 .4.1.3 0 .5.3.7.7.9 1.1.2.4.4.8.6 1.3.2.5 0 1.1-.3 1.5-.3.4-.6.7-.9 1.1-.6.7-1.1 1.5-1.5 2.3-.4.8-.7 1.7-.4 2.4 0 .1 0 .2-.1.2.1.1.2.3.3.4l.2.2s.1 0 .2.1c.3.1.5-.1.7-.3.5-.5.8-1.3 1.2-2 .7-1.4 1.4-3 2.5-4.2 0-.1-.3.2-.1-.1-.8.8-1 1.7-1.6 2.5v-.1c-.4.6.1.2-.3.8-.2.2 0-.1-.1 0-.3.7-.6 1.3-1 1.9-.3.6-.7 1.2-1 1.4h-.2s-.1 0-.1-.1l-.1-.1c-.2-.2-.3-.6-.3-.8-.1-.3-.1-.6-.1-.7.1-.8.6-1.6 1.1-2.3.5-.7 1.1-1.5 1.6-2.2.3-.4.7-.8.7-1.5 0-.3-.1-.6-.2-.8l-.4-.7c-.2-.4-.4-.9-.8-1.3-.2-.2-.5-.4-.8-.4-.3 0-.6.1-.9.2-1.3.6-2.7 1.1-4.1 1.8-.5.4-1 .7-1.6 1-.6.3-1.2.5-1.9.8-.3.1-.7.4-.9.8-.2.3-.4.5-.6.6h-.3c-.1 0-.1-.1-.1-.2-.1-.2-.1-.5 0-.7.1-.3.6-.6 1.1-.9.3-.2.5-.4.8-.6.2-.3.4-.5.5-.8 0 0 .1-.2.1-.5.1-.2.1-.5.1-.5.2-.5.3-1 .5-1.5.1-.2.2-.5.3-.6.1-.1.1-.2.2-.2h.1c.1 0 .2 0 .2-.1.3-.1.5-.5.5-.8 0-.3-.1-.6-.2-.9-.2-.6-.4-.8-.6-1.7-.9.2-1.3.3-2 .4-.6.1-1.2.1-1.7.1-.6 0-1.2-.1-1.5-.3-.2-.1-.3-.3-.3-.5v-.4c.1-.1.1-.2.1-.3.3-.3.8-.5 1.4-.5.6-.1 1.1 0 1.7 0 .6.1 1.2.1 1.8.2.3 0 .6.1.9.1.4 0 .7 0 1-.1.7-.1 1.3-.3 2-.7.6-.3 1.2-.8 1.6-1.5.3-.8.1-1.6-.3-2.2-.4-.6-1-1-1.6-1.3-1.2-.6-2.4-1-3.7-1.2-.6-.1-1.3-.2-1.9-.3l-.4-.1h-.2-.1v-.2-.1l.1-.1c.1 0 .2 0 .3-.1.2 0 .5 0 .7.1.5.1 1.1.3 1.6.4 1.1.3 2.2.8 3.3 1 0 0 0 .1-.2 0 .5.1 1.1.3 1.7.3.3 0 .6-.1.9-.3.3-.2.4-.5.5-.8.1-.6 0-1.1-.1-1.6s-.3-1-.5-1.5c-.5-1.2-1.2-2.3-1.8-3.5-.3-.6-.7-1.2-1.2-1.6-.5-.5-1.1-.8-1.6-1.2-1.1-.7-2-1.7-2.2-2.9-.2-1.2.2-2.5 1.2-3.2.3-.1.5-.3.9-.4.3-.1.6 0 .9.2.2.2.4.6.6.9.3.7.5 1.4.8 2.1.5 1.4 1 2.9 1.9 4.2.5.6 1.1 1.1 1.6 1.7.5.6 1 1.1 1.6 1.7.5.6 1.1 1.1 1.5 1.7.4.6.8 1.3 1.3 1.9v.1l.2.2c.2-.1.4-.5.5-.7.1-.3.1-.6.1-.9-.1-.6-.2-1.2-.3-1.6.4-.2 1-.3 1.7-.2-.1-.9-.2-1.7-.2-2.4 0-.4.1-.8.4-1.1.1-.2.3-.3.4-.4.1 0 .1-.1.2-.1s.1.1.2.1c.6.4 1 1.2 1.2 1.9.3.7.4 1.5.7 2.3.1.2.1.5.2.8.3.1.7-.1 1-.4.3-.2.5-.5.6-.8.1-.2.3-.3.6-.3.2.1.2.4.3.6v1.9c0 .2 0 .3.1.5 0 .1 0 .2.1.3 0 .1 0 .2.2.2.4 0 .7.1 1 0 .7-.2 1-.9 1.3-1.4.3-.6.5-1.2 1-1.6.2-.2.5-.4.8-.5.3-.1.6-.3.9-.3.3 0 .6.2.8.5.2.3.3.6.3.9 0 .8-.5 1.6-1 2.3-.3.4-.5.8-.7 1.2-.2.4-.4.8-.5 1.3-.1.5.1 1 .5 1.1.4.1.9 0 1.3-.1s.9-.2 1.3-.1c.2.1.4.2.5.4.1.2.1.4 0 .6-.1.3-.3.5-.3.9 0 .3.1.6.4.8.5.5 1.1.5 1.7.6.3 0 .6.1.9.1.3.1.5.2.6.4.2.4-.5.7-1 .8-1.1.3-2.3.5-3.3 1.3-.2.2-.5.4-.6.8-.1.4.2.7.4.8.5.4 1 .7 1 1.2-.6.3-1.4.2-2.1.3-.4 0-.7.1-1 .2l-.2.1.1.2.1.5c.3 1.4.7 2.8 1.5 4 .8 1.2 2.1 1.9 3 3.1.2.3.4.6.5 1 0 .1.1.2 0 .3 0 .1-.1.2-.2.3-.1.2-.3.3-.5.4-.2.1-.5.1-.7 0-.2-.1-.3-.3-.4-.5l-.6-.9c-.8-1.2-1.6-2.3-2.5-3.3-.5-.4-1-.8-1.7-1.1-.2-.1-.3-.1-.5-.1h-.5c-.3.1-.7.2-.9.5-.2.3-.1.7-.3 1 0 .1-.1.2-.1.3 0 .1.1.2.1.2.1.1 0 .3-.1.4-.1.1-.3.1-.5.2-.2 0-.4.2-.5.4-.2.3-.5.6-.7.9l.1-.1c-.2.2-.3.4-.4.6-.1.2-.1.4-.1.7 0 .3-.2.5-.4.6-.3.2-.3-.1-.3-.3v-.3.1c0-.3-.1-.4-.3-.7-.2-.3-.3-.5-.3-.7l-.1-.1c-.2-.6.1-.1-.1-.6-.1-.2-.1 0-.3-.4.1-.1-.1-.5-.4-.8-.3-.3-.7-.5-.6-.6.4.2-.6-.4.3-.1-.1-.1-.5-.3-.8-.3-.4 0-.6 0-.6.1-.1.2-.5.3.2.4l.1-.1c.2.1.2.1.2.2.4.1.6.3.7.4.1.2.2.3.3.5.3.2.5.8.6 1.1v.1c-.1.2.5.9.2.7 0 .1.1.5.2.8.1.3.2.6.3 1 .1.1.8 0 1.1-.4.1-.2.2-.3.3-.6 0-.2 0-.4.1-.5 0-.1.1-.2.1-.2.2-.4.4-.7.7-1l.2-.2.1-.1c.1 0 .1-.1.2-.1s.3-.1.4-.2c.1-.1.2-.2.3-.4.1-.2-.1-.5-.2-.6h-.2c-.1-.1.2.1.2.1v-.1c0-.1 0-.1-.1 0 .3-.2.3-1 .4-1.1.1-.1.3-.2.4-.2.1-.1.3 0 .4-.1h-.1c.4.1.6.2.9.3.3.1.5.2.8.6.3-.1 1.2 1.3 1.7 1.6v.2c.6.7 1.1 1.5 1.6 2.3l.2.3.1.1c0 .1.1.1.2.2.1.2.3.3.6.4.3 0 .5 0 .7-.1.4-.2.6-.4.7-.7.3-.3.1-.9.1-1-.3-.8-.9-1.5-1.5-2.1-.6-.6-1.1-1.1-1.6-1.4-.1-.2-.3-.4-.4-.6-.1-.2-.3-.5-.4-.8-.2-.6-.5-1.3-.7-1.9l.1.1c-.1-.3-.2-.7-.3-1.1l-.2-.6v-.1l.1-.1c.2 0 .3-.1.5-.1.3 0 .6-.1.9-.1.2.1.4.1.7.1.4 0 .9-.2 1.4-.3 0-.2-.1-.4-.1-.5 0-.1-.1-.2-.1-.3-.1-.1-.1-.2-.2-.4l-.3-.3c-.1-.1-.2-.1-.2-.2-.3-.2-.7-.5-.6-.5l.1-.2c.1-.1.2-.3.3-.4.3-.2.6-.4.9-.5.2 0 1.2-.4 1.3-.2.5-.2 1.1-.3 1.7-.7.1-.1.2-.1.2-.2l.2-.3c0-.1.1-.2.1-.3v-.4c0-.1-.1-.2-.1-.3 0-.1-.1-.1-.1-.2l-.2-.1c-.2-.1-.4-.2-.5-.2-.7-.2-1.3-.1-1.8-.2s-1-.4-1-.8c0-.2.1-.4.2-.8 0-.2.1-.4 0-.6-.1-.2-.2-.4-.4-.5-.3-.3-.8-.4-1.1-.3-.4 0-.7.1-1 .2-.3.1-.6.1-.7.1-.2 0-.3-.1-.3-.3-.1-.2.1-.8.4-1.2v.1c0-.1.1-.3.1-.4l.1-.3.1-.2c.1-.3.2-.6.4-.9 0 0 .1 0 0 .1.2-.4.5-.7.7-1 .2-.4.4-.8.3-1.3l.1.2c0-.5-.2-1-.5-1.4-.1-.2-.3-.4-.7-.6-.3-.1-.7-.1-.9.1H62l-.6.3c0-.1 0-.1.3-.3-.5.2-1.1.5-1.4 1-.4.5-.6 1-.8 1.5-.2.5-.4.9-.7 1-.1.1-.3.1-.5.1h-.2-.1v-.2-.4-1.6-.5c0-.2-.1-.4-.2-.6-.1-.2-.3-.3-.5-.4-.2 0-.4 0-.6.1-.2.1-.4.2-.5.4-.1.2-.1.3-.2.4-.1.1-.1.2-.2.3l-.2.2c-.1.1-.2.1-.3.1l-.1-.2-.1-.5c-.1-.4-.2-.8-.3-1.1-.2-.8-.5-1.5-1-2.2-.1-.2-.3-.3-.5-.5-.1-.1-.2-.2-.3-.2l.1-.2H53h-.1c-.6.2-.8.6-1 1-.3.8-.3 1.7-.2 2.4l-.1-.3c0 .2.1.5.1.6 0 .1.1.3.1.3H51c-.1 0-.2 0-.3.1-.2.1-.4.1-.6.2.2 1 .4 1.4.4 1.9.1.6-.1.9-.3 1.1-.1 0-.1-.1-.1-.2 0 0 .1 0 0-.1l-.1-.1c-.1-.1-.2-.2-.2-.3-.1-.2-.2-.4-.4-.6-.2-.4-.4-.7-.8-.9 0-.1 0-.1.1 0-1.3-1.3-2.5-2.7-3.9-4-1.2-1.3-1.8-3.1-2.3-4.9-.3-.6-.5-1.2-.8-1.9-.2-.3-.3-.6-.6-.9-.1-.1-.3-.3-.5-.3s-.4 0-.6.1c-.5.1-.9.3-1.3.7-.4.3-.7.8-.8 1.2-.4.9-.3 2 .1 2.8h-.1c.4 1 1.3 1.7 2.1 2.3.9.6 1.8 1.2 2.4 2.1 1.1 1.9 2.1 3.8 2.6 5.9.1.4.1.8 0 1.2-.1.4-.3.6-.7.7-.7.2-1.5 0-2.3-.3v-.1c-1-.2-1.9-.6-2.9-1-.5-.2-1-.4-1.5-.5-.5-.1-1.1-.2-1.7.2l-.1.5c0 .2 0 .3.1.5.1.1.2.3.4.3l.4.1c.5.1 1.1.1 1.6.2H38c.5-.1 1.8.4 1.7.1l.5.2c1.1.1 2 .5 2.8 1.2.4.3.7.8 1 1.3.2.5.2 1.2-.1 1.7v-.2c-.3.6-1.1 1.1-1.5 1.2.1 0 0 0 .2-.1-.5.2-1 .3-1.6.5-.3.1-.6.1-.8.1-.3 0-.6 0-.8-.1-1.2-.1-2.3-.2-3.5-.2l.3-.1c-.3 0-.6.1-1 .1-.4.1-.8.2-1.1.5-.2.1-.3.4-.3.6v.7c.1.4.6.7.9.8h-.1s.2 0 .4.1h.4v.1c.7.1 1.4 0 2.1-.1.7-.1 1.4-.3 2-.4-.1.4.2.8.3 1.3zM42.8 48.9c-.1 0 0 0 0 0z"/><path class="st6" d="M54.3 51.7c0-.1-.1-.1-.1-.2 0 .1 0 .2.1.2zM51.4 64.7zM51.6 64.5l-.1.2c0 .2.1-.3.1-.2zM51.6 64.6s.1-.1 0 0c.1 0 0-.2 0 0zM54.3 63.7z"/><path class="st6" d="M54.6 63c0 .1-.2.1-.3.2-.3.2-.5.5-.8.7v0c-.1-.1-.2.2-.2.1v.1c-.2.1-.5.2-.8.4v-.1c-.2.3-.5.2-.8.2v.1c.1.1.2-.2.2 0v.1c.1 0 0-.2.1-.1v.1c.1 0 .3 0 .4-.2.1.1.1 0 .2.1 0-.1.1-.1 0-.1.4 0 .8-.3 1.1-.4.1-.3.4-.1.6-.3 0-.1.1-.2.2-.2v-.1c.3-.1.5-.3.6-.6.1-.3.1-.7 0-1-.1-.4-.5-.7-.7-.8-.2-.1-.3-.1-.6-.2-.1-.1-.1-.2-.2-.4-.3-.2-.3-.8-.8-.9-.4-.3-1-.3-1.4-.1v-.1c-.3.2-.8.1-1.1.4-.2.1-.3.3-.4.5-.1.2-.1.4-.2.6-.3.2.2.6-.2.8-.5.4-.2 1 .1 1.3 0 .2.1.4.3.5.2.1.3.2.4.5.2-.1.3.4.5.4v-.1c0 .2.2-.3.2.1 0 .2.1-.3.1-.2v-.1 0c0 .3.1-.1.1.3v.2s.1 0 .1-.1v-.4 0c-.1 0-.1-.2-.1-.2 0 .1-.1.1-.1 0v-.1c0-.1-.1.3 0 0h-.4c0 .1-.1 0-.1.1 0-.2 0-.3-.1-.3.1-.2-.2.2-.1-.1-.1.2 0-.1-.2.1 0 0 0-.1.1-.1-.1-.1-.1-.2-.1-.2-.2.1 0-.2-.3-.1 0-.1.1-.2 0-.2 0-.1-.1-.2-.3-.2.2-.1.2-.1.3-.2-.1 0-.1-.2-.2-.3.1 0 0-.1.1-.1-.3-.3-.1-.6.2-.9-.1-.1-.3-.2-.4-.2 0-.1.2-.1.1-.1-.1-.1.2-.1.1-.2v-.1l.1.1c.1-.2.1-.3.3-.5.1-.2.3-.3.6-.4v.1l.1-.1v.1c.1 0 .2-.1.3-.1v.1c.1-.2.2.2.2-.1v.1c.2-.1.5-.1.7 0 .1-.1.2-.1.3 0 .1.1.1.1.3.2.3.1.3.5.4.8 0 .1.1.2.2.3h-.1c.2 0 .2.1.3.3.1.1.2.3.3.2l.2-.4c.1-.1.1.1.2-.1v.1c.3-.2.2.2.4.2h-.1c.1 0 .1 0 .1.1-.1.2.2.3.2.4h-.1c.1.1 0 .2 0 .3l.1.1h-.1c-.1.1 0 .3-.1.4zM53.5 63.8zM51.3 63.7z"/><g><path class="st6" d="M64.7 57.9h.1-.1zM64.5 57.9h.2c.2-.1-.3 0-.2 0z"/><path class="st6" d="M64.6 57.9h-.1c0-.1-.1 0 .1 0zM63.7 57.1z"/><path class="st6" d="M63.4 57.5c0-.1.1.1.1 0h-.1c.2.1.3 0 .4 0l.1-.1c-.1.1.1 0 .1.1l.1-.1c.1 0 .2.1.4.1l-.1.1c.3-.1.2.1.2.2h.1c.1-.1-.2 0-.1-.1h.1s-.1.1-.1 0h.1s0-.1-.2-.1l.1-.1c-.1 0 0 0-.1.1 0-.2-.3-.2-.4-.3-.2.2-.1-.1-.3-.1 0 .1-.1.1-.1 0v.1c-.2-.3-.4-.1-.6 0-.2.1-.6.2-.4.6 0 .1-.1.1 0 .2.2.2-.1.3.2.4 0 .2.1.3.2.4.2 0 .1.3.2.3.1.2.3-.2.4 0 .1.3.1-.3.2-.1.3.3.4-.1.2-.3.2-.1-.1-.3.2-.3-.2-.1.2-.1.2-.2h-.1c.2-.1-.3 0 0-.1H64.1h0c.3-.1-.1 0 .3-.1 0 0 .1-.1.2 0h-.1c-.1 0-.3.1-.4.1h.1-.1l-.2.1c.1 0 .1 0 0 0h-.1c-.1 0 .3 0 0 0 .1 0 .1 0 .1.1h.2H63.8c.2 0-.1 0 .2.1h-.1-.1c.2.1-.1 0 .1.1-.1 0-.2-.1-.1 0l.1.1c-.2-.1-.2-.1-.2-.2.1.1 0 .1.1.2l-.1-.1c.2.3 0 .2-.1 0V58.8c0 .1 0-.1 0 0v0s-.2.2-.3.1l-.1.1c0-.1-.1 0-.1 0s.1 0 .1-.1c-.1.1.1-.1-.1 0 0 0 .1 0 .1-.1-.1 0-.1-.1-.1-.1-.3 0-.1-.1-.3-.1h.1c-.2-.1 0-.2 0-.3v-.1h.1c-.2-.2.3 0 0-.2l.1.1c-.1-.1.1 0-.1-.1h.1c-.2-.3.2 0 .1-.1 0 0 0-.1 0 0 .2.2.1-.1.1-.1v.1c0-.1.1 0 .1-.1v.1-.1V57.5zM63.9 57.5zM63.7 58.2z"/></g><g><path class="st6" d="M68.6 55.2h-.1zM68.4 55.2c-.1 0-.1.1 0 0h.2c.1-.1-.3.1-.2 0z"/><path class="st6" d="M68.4 55.2s-.1 0 0 0c0 0-.1.1 0 0zM67.8 54.7z"/><path class="st6" d="M67.6 55.1s0 .1 0 0c.1.1.2 0 .3-.1v-.1c-.1.1.1-.1 0 0l.1-.1h.3l-.1.1c.2-.1.2 0 .2.1.1 0 .1 0 .1-.1.1-.1-.2 0-.1-.1h.1s-.1.1-.1 0h.1s0-.1-.2 0l.1-.1-.1.1c0-.1-.2-.1-.3-.2-.2.2-.1-.1-.2 0 0 .1-.1.1-.1.1v.1c0-.1-.1-.1-.2-.1h-.1-.1c-.2 0-.5.1-.2.4 0 .1-.1.1 0 .1.2.1-.1.2.2.3 0 .1.1.2.2.2s0 .2.1.2c.1.2.2-.2.3-.1.1.3 0-.3.1-.1.2.4.3 0 .1-.2.2 0-.2-.2.1-.1-.2 0 .2 0 .2-.1h-.1c.2 0-.3 0 0 0H68h0c.3-.1-.1 0 .3-.1h.1c-.2 0-.3.1-.4.1h.1-.1l-.2.1c.1 0 .1 0 0 0 .1 0 .1 0 0 0h.2-.2 0l.1.1-.1-.1v0c0-.1 0 0 0 0V55.5c0 .1 0-.1 0 0v0c0-.1-.1.2-.1.1l-.1.1c.1-.1-.1 0 0 0l.1-.1-.1.1s.1 0 .1-.1c-.1.1-.1 0-.1 0h-.1-.1.1c-.2 0 0-.1 0-.1v-.1h.1c-.2-.2.2.1 0-.1l.1.1-.1-.1h.1c-.2-.3.1.1 0-.1 0 0 0-.1 0 0 .1.2 0 0 .1 0l-.2-.1c-.1 0-.1.1 0 0v.1s-.1-.1 0-.1zM67.8 55.1zM67.6 55.5z"/></g><g><path class="st6" d="M72.5 49.9h-.1zM72.2 49.9h.3c.2-.1-.4.1-.3 0zM72.2 49.9h-.1.1zM71 48.9z"/><path class="st6" d="M70.7 49.5v.1c0-.2.1 0 .1-.1.1.1.3-.1.4-.1v.1l.1-.1v.1c-.1.2.1-.1.1.1l.1-.1c.1 0 .3.1.5.1l-.1.1c.4-.1.3.1.3.3.1 0 .1-.1.2-.1.1-.1-.2 0-.1-.1h.1c0-.1-.2.1-.1 0 .1 0 .1 0 .1-.1-.1 0 0-.2-.3-.1.1-.1 0-.1.1-.2-.1 0-.1 0-.2.1-.1-.3-.4-.3-.6-.4-.2.3-.2-.1-.4-.1 0 0-.1.1-.1 0v.2c-.3-.3-.5-.1-.8-.1-.3 0-.8.2-.5.7h-.1c0 .1-.1.1-.1.2.2.2-.1.5.3.6 0 .2.1.4.4.5l-.1.1c.2 0 .1.4.4.4.1.1.2 0 .3 0 .1-.1.2-.2.3-.1.1.2.1.1.2 0 0-.1 0-.2.1-.1.4.5.5-.1.3-.4.1 0 .1-.1.1-.2s0-.1.2-.2c-.3-.1.4-.1.3-.2h-.1c.3-.1-.4 0 0-.1.2-.1-.5 0-.3 0h-.1.1c.4-.1-.1 0 .4-.1 0 0 .2-.1.3-.1 0 0 0-.1-.2 0s-.4.1-.5.2h.2c-.2 0-.1 0-.2.1 0 0-.2.1-.3.1h.1-.1c-.2 0 .4 0 0 0 .1 0 .1 0 .1.1h.2-.3s-.1 0 0 0c-.3 0 .3.1-.1 0 .3.1-.1 0 .2.1h-.2-.1c.2.1-.1 0 .2.2-.1 0-.2-.1-.1 0l.2.2-.3-.3c.1.1.1.1.1.2-.1-.1 0 .1-.1-.1.2.4 0 .3-.1 0 0 .1.1.4.1.6v-.1s-.1-.2-.1-.1v-.1c0 .1 0-.2 0 0v-.1-.1c0-.1-.3.3-.4.1V51h-.5v-.1c.1-.1-.1 0-.1 0l.1-.1c-.2.1.2-.2-.2.1l.1-.1c-.1 0-.2 0-.1-.1-.4 0-.1-.1-.4-.1h.1c-.3-.1 0-.2 0-.3v-.1h.1c-.3-.3.3.1.1-.2l.1.1c-.1-.1.1 0-.2-.2l.1.1c-.3-.4.2.1.1-.2v.1c.2.3.1-.1.2-.1v.1c0-.2.1 0 .1-.1v.1-.1.1c.2-.3.2-.4.3-.4zM71.3 49.4zM71.1 50.3z"/></g><g><path class="st6" d="M35.8 53.7h.1-.1zM35.6 53.7h.2c.2-.1-.2 0-.2 0z"/><path class="st6" d="M35.7 53.7c0-.1-.1 0 0 0 0 0-.2 0 0 0zM35.1 53.2c0-.1 0-.1 0 0z"/><path class="st6" d="M34.8 53.5c.1-.1.1.1 0 0 .1.1.2 0 .3 0l.1-.1c-.1.1.1 0 0 0l.1-.1h.3s-.1 0-.1.1c.2-.1.2.1.2.1h.1c.1-.1-.2 0-.1 0h.1s-.1.1-.1 0h.1s0-.1-.2 0l.1-.1c-.1 0 0 0-.1.1 0-.1-.2-.1-.3-.2-.2.2-.1-.1-.2 0 0 .1-.1.1-.1 0-.1-.3-.2-.1-.4-.1-.1 0-.4-.1-.3.4 0 .1-.1.1 0 .1.1.1.1.2.1.2 0 .1 0 .1.1.2 0 .1.1.2.2.2.1-.1.1.3.2.2.1.2.1-.3.2-.1v.1c.1.1-.1-.3.1-.1.4.3.3 0 .1-.2.2 0-.2-.2.1-.2-.2 0 .2-.1.2-.1h-.1c.2 0-.3 0 0 0H35.2h0c.3-.1-.1 0 .3-.1h.1c-.1 0-.3.1-.4.1h.1-.1l-.2.1c.1 0 .1 0 0 0h-.1c-.1 0 .3 0 0 0H35.2 34.9h0c.2.1-.1 0 .2.1-.1 0-.1-.1-.1 0l.2.1c-.5-.2-.4-.2-.5-.2.1.1.1 0 .1.1l-.1-.1c.2.2.1.2 0 0 0 .1.1.2.2.3 0 .1 0-.1 0 0v-.1s0 .1-.1.1c0-.1 0 0 0 0 0 .1 0-.1 0 0 0 0-.1 0 0 0-.1 0 0 0-.1-.1s0-.1 0-.1V54c-.1-.2.1.1 0-.1v.1c0-.1 0 0-.1-.2v.1c-.1-.3.1.1 0-.1v.1s0-.1 0 0c0 .2 0 0 .1-.1v.1c0-.4 0-.3.1-.4 0 .1 0 0 0 0zM35.1 53.5zM34.8 54z"/></g><g><path class="st6" d="M34.8 24.7h-.1zM34.6 24.7c-.1 0-.1 0 0 0h.2c.1-.1-.3 0-.2 0zM34.6 24.7h-.1.1zM33.6 23.8z"/><path class="st6" d="M33.2 24.1c0-.1.1.1.1 0 .1.1.3-.1.4 0l.1-.1c-.1.1.1 0 .1.1l.1-.1c.1 0 .2.1.4.2l-.1.1c.3 0 .3.1.3.3h.1c.1-.1-.2 0-.1-.1h.1s-.1.1-.1 0h.1s0-.1-.2-.1c.1-.1 0-.1.1-.1h-.1c-.2-.3-.5-.3-.6-.4-.2.2-.2-.1-.3-.1-.1.1-.1.1-.1 0l-.1.1c-.2-.3-.5-.1-.8 0-.3.1-.7.3-.5.7 0 .1-.1.1-.1.2.2.2-.1.4.2.5 0 .2.1.4.3.5.2 0 .1.4.3.4.1.2.4-.2.5 0 .1.3.2-.3.3-.1.4.3.5-.1.3-.4.2-.1-.1-.3.2-.4-.2-.1.3-.1.2-.3h-.1c.2-.1-.3 0 0-.1H33.9h0c.3-.1-.1 0 .3-.1 0 0 .1-.1.2 0 0 0 0-.1-.1 0-.1 0-.3.1-.4.1h.1-.1l-.2.1c.1 0 .1 0 0 0h-.1c-.1 0 .3 0 0 0 .1 0 .1.1.1.1h.2H33.6c.2 0-.1 0 .2.1h-.1s-.1 0-.1.1c.2.1-.1 0 .1.1h-.1s0 .1.1.2c-.2-.2-.2-.1-.2-.2.1.1 0 .1.1.2-.1-.1 0 .1-.1-.1.1.3-.1.3-.2 0v.4s0-.1-.1-.1v-.1c0 .1 0-.1 0 0v0c-.1 0-.3.2-.4 0h-.1c0-.1-.1 0-.1-.1 0 0 .1 0 .1-.1-.1.1.1-.1-.1 0 0 0 .1 0 .1-.1-.1 0-.2-.1-.1-.2-.3 0-.1-.1-.3-.2h.1c-.2-.1 0-.2 0-.3v-.1h.1c-.2-.2.3 0 .1-.2l.1.1c-.1-.1.1 0-.1-.2h.1c-.2-.3.2 0 .1-.2v0c.2.2.1-.1.2-.1v.1c0-.1.1 0 .1-.1v.1-.1.1c0 .1.1 0 .1 0zM33.8 24.2zM33.8 25z"/></g><g><path class="st6" d="M65.9 23h-.1zM65.7 23c-.1 0-.1 0 0 0h.2c.1-.1-.3 0-.2 0zM65.7 23h-.1.1zM64.8 22.3z"/><path class="st6" d="M64.5 22.7c0-.1.1.1.1 0 .1 0 .2-.1.3-.1l.1-.1c-.1.1.1 0 .1.1l.1-.1c.1 0 .2.1.4.1l-.1.1c.3-.1.2.1.2.2.1 0 .1 0 .1-.1.1-.1-.2 0-.1-.1h.1s-.1.1-.1 0h.1s0-.1-.2-.1l.1-.1c-.1 0 0 0-.1.1-.1-.2-.3-.2-.4-.3-.2.2-.1-.1-.3-.1 0 .1-.1.1-.1 0v.1c-.2-.3-.4-.1-.6 0-.2 0-.6.2-.4.5 0 .1-.1.1 0 .2.2.2-.1.3.2.4 0 .1.1.3.3.4.1 0 .1.3.3.3.1.2.3-.2.4-.1.1.3.1-.3.2-.1.3.3.4-.1.2-.3.2 0-.1-.3.2-.3-.2-.1.3-.1.2-.2h-.1c.2 0-.3 0 0-.1H65.4h0c.3-.1-.1 0 .3-.1 0 0 .1-.1.2 0h-.1c-.1 0-.3.1-.4.1h.1-.1l-.2.1c.1 0 .1 0 0 0h-.1c-.1 0 .3 0 0 0 .1 0 .1 0 .1.1h.2H65.1c.2 0-.1 0 .2.1h-.1-.1c.2.1-.1 0 .1.1-.1 0-.1-.1-.1 0l.1.2-.2-.2c.1.1 0 .1.1.2l-.1-.1c.1.3 0 .2-.1 0V23.7c0 .1 0-.1 0 0v0s-.2.2-.3.1l-.1.1c0-.1-.1 0-.1 0l.1-.1c-.1.1.1-.1-.1 0 0 0 .1 0 .1-.1-.1 0-.1 0-.1-.1-.3 0-.1-.1-.3-.1h.1c-.2-.1 0-.2 0-.2v-.1h.1c-.2-.2.3 0 .1-.2l.1.1c-.1-.1.1 0-.1-.2h.1c-.2-.3.2.1.1-.1v.1s0-.1 0 0c.2.2.1-.1.1-.1v.1c0-.1.1 0 .1-.1v.1-.1.1c-.3-.1-.3-.2-.3-.2zM65 22.6zM64.9 23.3z"/></g><g><path class="st6" d="M74.6 45.8h.1l.2-.1zM75.7 45.7v-.1s-.2 0-.4.1c-.3 0-.2.2-.2.1 0 .1 0 0 0 0 .1 0 .2 0 .2-.1.1-.1.3-.1.4 0zM75.8 45.8c.2.2.4 0 .4 0s-.4-.3-.4 0zM84.7 58.9v-.1c-.1.1-.1.1 0 .1z"/><path class="st6" d="M87.5 56.8l-.1-.1c0 .6-.2 1.2-.4 1.8-.2.6-.3 1-.6 1.6v-.2c-.1.1-.2.3-.4.3s-.3-.1-.4-.3c-.1-.1-.2-.3-.2-.4-.1-.1-.1-.3-.1-.4v-2.2c-.1-1.5-.1-3.1-.8-4.6 0 0 .1 0 .1.1-.1-.1-.2-.2-.3-.4 0-.1.1 0 .1 0 0-.3-.4-.7-.9-.8-.5-.1-.8.1-1 .1-.2.1-.2.2-.1.3-.8.5-1.5 1.1-2.3 1.7-.4.3-.9.6-1.5.7-.6.1-1.3 0-1.7-.4-.4-.3-.5-.7-.6-1.1-.1-.4-.1-.7-.1-1 0-.1.1-.1.2-.1 0-.4-.2-.7-.3-1.1l-.2-.6c0-.2-.1-.4-.1-.8 0-.7.3-1.1.5-1.5l.3-.6.1-.2v-.1c0-.2-.2-.5-.5-.7-.1.1.1.2-.1.2.2.1.3.2.4.2.1 0 .2.2.2.3 0 0 0 .1-.1.1l-.1-.1v.2s.1.1-.1.3c-.2.1-.1-.1-.1 0-.2.5-.5.9-.7 1.7 0 .5.1.7.1 1 .1.2.2.5.3.7-.1.1 0 .4 0 .6 0 .2 0 .5-.1.7.1.3.1.6.2.7 0 .4.1.9.6 1.4.4.4 1 .6 1.5.6s1-.2 1.4-.4c.8-.4 1.4-1 2-1.4.3-.2.6-.5.9-.6.3-.2.5-.2.7-.1.4.1.8.8 1 1.5.4.7.4 1.7.4 2.6 0 .5-.1 1-.1 1.4V59c0 .2.1.5.1.7.1.2.2.5.4.7l.2.3c.1.1.2.2.3.2.2.1.5.2.7.1 0 0 .2-.1.3-.3l.2-.4c.4-.5.6-1.4.8-1.9.2-.6.3-1.1.5-1.7.3-1.1.6-2.3 1.1-3.3.2-.5.5-1 .9-1.2.2-.1.3-.1.5-.1.2.1.4.2.6.4.9.7 1.4 1.7 2.3 2.6.5.5 1 .9 1.6 1.3.6.4 1.3.8 2.1.8.4 0 .8-.1 1.2-.3.2-.1.3-.1.5-.3l.3-.2c.1-.1.3-.1.2-.3 0-.3.1-.5.1-.8 0-.3-.1-.5-.1-.7-.2-.4-.4-.7-.6-1-1-1-2.2-1.6-3.1-2.3-.5-.4-.8-.7-.9-1.1 0-.4.2-.9.7-1l-.1.1c.6-.2 1.3 0 1.9.2.3.1.6.2 1 .4l.6.2.7.3c1 .3 1.6.4 2.4.4 0 0 .1 0 .1-.1l-.1-.3c0-.2-.1-.4-.1-.6-.1-.4-.3-.7-.6-.9l-.4-.4c-.1-.1-.3-.3-.5-.4-.4-.3-.8-.5-1.1-.7-.6-.3-1.3-.7-1.8-1-.6-.4-1.1-.7-1.5-1.3-.2-.4-.3-1-.2-1.4.1-.5.5-.8.9-1.2l.7-.5c.2-.2.5-.4.4-.8-.1-.3-.4-.5-.7-.6-.3-.2-.5-.2-.8-.4-1-.4-2-1-2.6-1.9-.6-.9-.8-2.1-.6-3.2h.1c.1-.9.4-1.7.7-2.5l.6-1.2c.2-.4.5-.9.6-1.3.1-.2.1-.5 0-.7 0-.2-.3-.4-.5-.4-.4 0-.8.3-1.3.6-.2.2-.4.4-.6.5l-.5.5c-.3.3-.6.7-.9 1-.5.5-.9 1-1.3 1.5-.2.3-.4.6-.6.8-.2.2-.5.4-.8.6-.5.4-1.1.7-1.7 1-.3.1-.6.2-1 .2-.1 0-.2-.1-.2-.1 0-.1-.1-.1-.1-.2v-.5c.1-.5.1-1 .1-1.5s.1-1-.1-1.5c-.1-.2-.2-.3-.4-.3-.6-.2-1.3 0-1.7.5-.4.5-.6 1.1-.7 1.7-.1 1.2 0 2.4-.4 3.3-.1.4-.3.8-.5 1-.2.1-.4 0-.6-.1-.2-.1-.3-.2-.5-.4l-1-1c-.7-.7-1.3-1.4-2-2.1-.7-.7-1.4-1.3-2.2-1.9-.4-.3-.8-.6-1.2-.8-.2-.1-.5-.1-.6 0-.2.1-.2.3-.2.6 0 .4.2.9.4 1.3s.5.9.7 1.3c.5.9 1.1 1.7 1.6 2.5s1.1 1.7 1.5 2.6c.2.4.4.9.6 1.4.1.5.2 1 .1 1.5 0 .3-.1.5-.4.7-.2.1-.5.2-.7.3-.5.1-1 0-1.5-.2-1-.3-1.9-.8-2.9-1v.1c-.5-.4-1.2-.1-1.7-.1 0 .2-.1.3-.2.4v-.1c-.1.2 0 .5.3.6.2.1.4.1.4.3l.1-.1c.4.2 0 .1.3.3.1 0 .1-.2.4 0-.1.5 1.1.1 1.1.6-.3 0 .4.2-.2.3.2.1 1 .1.9-.1.1-.2.4-.4-.1-.6l-.1.2c-.1-.2-.1-.1-.2-.2-.6-.1-.7-.3-1-.5-.3.2-.6-.1-.7-.2v-.1c0-.1-.1-.1-.2-.1s-.2 0 0-.1c-.1-.1-.1-.2-.1-.5l-.6.5c.8-.1 1.8.3 2.8.6.2-.1 1.1.3.8 0 .3.4 1.4.7 1.9.6 0 0 0 .1-.1.1.5.2.8 0 1-.1.2-.2.6-.3 1.1-.7-.1-.2.2-.7.2-1.2s-.1-.9-.4-1.1c0-.1.1-.2.2-.2-.5-1.3-1.1-2.6-1.7-3.6-.7-.7-1.1-2-1.8-2.5-.3-.6-.7-1.6-1.1-2.3l.1.1c-.1-.2-.2-.6-.2-.6v-.1l-.1-.1h-.1l-.1-.1v.2c.1 0 .4.1.6.1 0 .5.4.7.6 1 .6.3 1.5 1.4 2.4 2.1 0 .2.7.6.5.8.5.4 1.1.9 1.6 1.3.3.2.5.5 1 .7.5.3 1 .5 1.5.2.3-.2.4-.5.5-.9.1-.4.1-.6.2-.8.1-.5.2-1 .2-1.4.1-.5.1-1 .2-1.3.1-.4.3-.7.4-1 0-.3 0-.8.2-1.1 0 0 .1 0 0 .1.3-.2.8-.1.9 0 .1 0 .1 0 .2.1h-.1c.1 0 .1.2.1.3 0 .3-.1.5 0 .8h-.1l.1.4c-.1 0-.2 0-.2-.3l-.1.6c0 .3-.1.5-.1.8 0 .5 0 .9.4 1.2.4.3.9.3 1.3.2.6-.1.8-.3 1.1-.4.3-.1.6-.3.8-.4.5-.3 1-.6 1.6-1.2.2-.2.2-.3.3-.4l.3-.4.5-.7c.4-.5.7-.9 1.1-1.4.2-.2.4-.4.6-.7l.3-.3.2-.2c.1-.1.2-.2.4-.3.1-.1.3-.2.4-.1.2.3 0 .6-.1.9l-.1-.1v.2c-.1.2-.1.5-.1.5v-.1c-.7 1.1-1 2.5-1.2 3.7 0 0-.1-.2-.2 0 .1.5-.1.9-.1 1.2 0 .3 0 .6.3.8 0 0-.1.1-.2 0 .3 1.4 1.5 2.5 2.7 3.1l.9.4.4.2.2.1c.1.1.3.2.2.4-.1.1-.2.2-.4.3-.3.4-.9.8-1.1 1.4-.1.3-.2.7-.2 1 0 .3.1.6.2.9.5 1.2 1.6 1.8 2.7 2.2l-.1.1c.4.2.8.3 1.2.5.4.2.7.4 1.1.6.4.2.6.5.9.9.1.2.2.4.2.5v.4H100.6c-.6-.1-1.1-.3-1.6-.5s-.8-.4-1.5-.6c-.6-.2-1.1-.4-1.6-.5-.5-.1-1.1-.1-1.7.1l-.1-.1c-.5.4-.7.9-.7 1.5s.4 1.1.8 1.5c.8.8 1.7 1.4 2.7 1.9h-.2c.2 0 .4.2.6.4.2.2.3.3.4.2l.1.4c.3.3.4.7.3 1.1 0 .1-.1.2-.2.2l-.3.2c-.2.1-.3.2-.5.2-.7.2-1.5.1-2.3-.2h.1c-.5-.2-1-.5-1.2-.7h.2c-.2-.3-.5-.6-.8-.8-.3-.2-.5-.5-.8-.8-.6-.6-1.1-1.2-1.7-1.7h.3c-.4-.2-.8-.6-1.5-.6-.3 0-.6.2-.9.4-.2.2-.4.5-.5.7v-.1l-.1.5.6.4c-.5 1.3-.7 2.5-1 3.8zM84.5 52.1z"/><path class="st6" d="M73.1 44s.1 0 .1.1c0-.1 0-.1-.1-.1z"/></g></g></g></svg>