<svg id="Layer_1" xmlns="http://www.w3.org/2000/svg" viewBox="0 0 128 128"><style>.st0{fill:#b2b3b5}.st1{fill:#FFF}</style><ellipse class="st0" cx="64" cy="64" rx="64" ry="64"/><path class="st1" d="M41.2 60.2V48.6H37V47c.5 0 1.1 0 1.6-.1s1-.2 1.4-.5c.4-.2.8-.5 1.1-.9.3-.4.5-.9.6-1.5h1.5v16.2h-2zM48.5 50.4c0-.6.1-1.3.2-1.9.1-.6.3-1.2.5-1.7s.5-1 .9-1.4c.4-.4.9-.7 1.5-1 .6-.2 1.3-.4 2.2-.4s1.6.1 2.2.4 1.1.6 1.5 1c.4.4.7.9.9 1.4.2.5.4 1.1.5 1.7.1.6.2 1.2.2 1.9v3.8c0 .6-.1 1.3-.2 1.9-.1.6-.3 1.2-.5 1.7s-.5 1-.9 1.4c-.4.4-.9.7-1.5 1-.6.2-1.3.4-2.2.4-.8 0-1.6-.1-2.2-.4-.6-.2-1.1-.6-1.5-1-.4-.4-.7-.9-.9-1.4-.2-.5-.4-1.1-.5-1.7-.1-.6-.2-1.2-.2-1.9v-1.9c-.1-.6-.1-1.2 0-1.9zm2 3.9c0 .8.2 1.5.4 2.1.2.7.5 1.2 1 1.7s1.1.7 1.9.7c.8 0 1.5-.2 1.9-.7.5-.5.8-1 1-1.7.2-.7.3-1.4.4-2.1 0-.8.1-1.4.1-2V51c0-.5 0-1-.1-1.4-.1-.5-.2-.9-.3-1.4-.1-.5-.3-.9-.6-1.2-.3-.3-.6-.6-.9-.8-.4-.2-.8-.3-1.4-.3s-1 .1-1.4.3c-.4.2-.7.5-.9.8-.3.3-.4.7-.6 1.2-.1.5-.2.9-.3 1.4-.1.5-.1 1-.1 1.4v1.3c-.1.6-.1 1.3-.1 2zM61 50.4c0-.6.1-1.3.2-1.9.1-.6.3-1.2.5-1.7s.5-1 .9-1.4c.4-.4.9-.7 1.5-1 .6-.2 1.3-.4 2.2-.4.8 0 1.6.1 2.2.4.6.2 1.1.6 1.5 1 .4.4.7.9.9 1.4.2.5.4 1.1.5 1.7.1.6.2 1.2.2 1.9v3.8c0 .6-.1 1.3-.2 1.9-.1.6-.3 1.2-.5 1.7s-.5 1-.9 1.4c-.4.4-.9.7-1.5 1-.6.2-1.3.4-2.2.4-.8 0-1.6-.1-2.2-.4-.6-.2-1.1-.6-1.5-1-.4-.4-.7-.9-.9-1.4-.2-.5-.4-1.1-.5-1.7-.1-.6-.2-1.2-.2-1.9v-1.9c-.1-.6-.1-1.2 0-1.9zm2 3.9c0 .8.2 1.5.4 2.1.2.7.5 1.2 1 1.7s1.1.7 1.9.7c.8 0 1.5-.2 1.9-.7.5-.5.8-1 1-1.7.2-.7.3-1.4.4-2.1 0-.8.1-1.4.1-2V51c0-.5 0-1-.1-1.4-.1-.5-.2-.9-.3-1.4-.1-.5-.3-.9-.6-1.2-.3-.3-.6-.6-.9-.8-.4-.2-.8-.3-1.4-.3-.5 0-1 .1-1.4.3-.4.2-.7.5-.9.8-.3.3-.4.7-.6 1.2-.1.5-.2.9-.3 1.4-.2.4-.2.9-.2 1.4v3.3zM74.7 46.9c.1-.6.3-1 .6-1.5.3-.4.7-.8 1.1-1 .5-.3 1.1-.4 1.8-.4s1.3.1 1.8.4c.5.2.8.6 1.1 1 .3.4.5.9.6 1.5.1.6.2 1.1.2 1.8 0 .6-.1 1.2-.2 1.7-.1.6-.3 1-.6 1.5-.3.4-.7.8-1.1 1-.5.3-1 .4-1.7.4s-1.3-.1-1.7-.4c-.5-.2-.9-.6-1.1-1-.3-.4-.5-.9-.6-1.4-.1-.5-.2-1.1-.2-1.8-.2-.6-.1-1.2 0-1.8zm1.6 2.8c0 .4.1.7.3 1.1.1.3.3.6.6.8.3.2.6.3 1 .3s.8-.1 1.1-.3c.3-.2.5-.5.6-.8.1-.3.2-.7.3-1.1 0-.4.1-.8.1-1.1 0-.3 0-.7-.1-1.1 0-.4-.1-.7-.3-1.1s-.3-.6-.6-.8c-.3-.2-.6-.3-1-.3s-.8.1-1 .3c-.3.2-.5.5-.6.8-.1.3-.2.7-.3 1.1 0 .4-.1.8-.1 1.1-.1.4 0 .7 0 1.1zm14.7-6l-12.3 17h-2l12.3-17h2zm-5 10.5c.1-.6.3-1 .6-1.5.3-.4.7-.8 1.1-1 .5-.3 1.1-.4 1.8-.4s1.3.1 1.8.4c.5.2.8.6 1.1 1 .3.4.5.9.6 1.5.1.6.2 1.1.2 1.8 0 .6-.1 1.2-.2 1.7-.1.6-.3 1-.6 1.5-.3.4-.7.8-1.1 1-.5.3-1 .4-1.7.4s-1.3-.1-1.7-.4c-.5-.2-.9-.6-1.1-1-.3-.4-.5-.9-.6-1.4-.1-.5-.2-1.1-.2-1.8-.2-.6-.1-1.2 0-1.8zm1.6 2.8c0 .4.1.7.3 1.1.1.3.3.6.6.8.3.2.6.3 1 .3s.8-.1 1.1-.3c.3-.2.5-.5.6-.8.1-.3.2-.7.3-1.1 0-.4.1-.8.1-1.1 0-.3 0-.7-.1-1.1 0-.4-.1-.7-.3-1.1-.1-.3-.3-.6-.6-.8-.3-.2-.6-.3-1-.3s-.8.1-1 .3c-.3.2-.5.5-.6.8-.1.3-.2.7-.3 1.1 0 .4-.1.8-.1 1.1-.1.4 0 .7 0 1.1zM42.4 72.6c-.8-.6-1.8-.9-3-.9-1 0-1.8.2-2.5.5-.7.4-1.3.9-1.7 1.5-.4.6-.8 1.3-1 2.1-.2.8-.3 1.6-.3 2.5 0 .9.1 1.8.3 2.6.2.8.5 1.6 1 2.2.4.6 1 1.1 1.7 1.5.7.4 1.5.5 2.5.5.7 0 1.4-.1 1.9-.4.6-.2 1-.6 1.4-1 .4-.4.7-.9.9-1.5.2-.6.4-1.2.4-1.9h2.2c-.2 2.1-.9 3.7-2.1 4.8-1.1 1.3-2.7 1.9-4.8 1.9-1.3 0-2.4-.2-3.3-.7-.9-.4-1.7-1-2.4-1.8-.6-.8-1.1-1.7-1.4-2.7-.3-1-.5-2.1-.5-3.3 0-1.2.2-2.3.5-3.3s.8-2 1.5-2.7c.6-.8 1.5-1.4 2.4-1.8 1-.4 2.1-.7 3.3-.7.9 0 1.7.1 2.4.3.8.2 1.4.6 2 1 .6.4 1.1 1 1.5 1.7.4.7.7 1.4.8 2.3H44c-.2-1.2-.7-2.1-1.6-2.7zM48.2 78.3c.2-.8.6-1.4 1.1-2 .5-.6 1.1-1 1.8-1.3.7-.3 1.5-.5 2.5-.5.9 0 1.8.2 2.5.5s1.3.8 1.8 1.3c.5.6.9 1.2 1.1 2 .2.8.4 1.6.4 2.4 0 .9-.1 1.7-.4 2.4-.2.7-.6 1.4-1.1 2-.5.6-1.1 1-1.8 1.3-.7.3-1.5.5-2.5.5-.9 0-1.8-.2-2.5-.5s-1.3-.7-1.8-1.3c-.5-.6-.9-1.2-1.1-2s-.4-1.6-.4-2.4c.1-.9.2-1.7.4-2.4zm2 4.3c.2.6.5 1 .8 1.4.3.4.7.7 1.2.9.4.2.9.3 1.4.3.5 0 1-.1 1.4-.3.4-.2.8-.5 1.2-.9.3-.4.6-.8.8-1.4.2-.6.3-1.2.3-1.9s-.1-1.4-.3-1.9c-.2-.6-.5-1-.8-1.4-.3-.4-.7-.7-1.2-.9-.4-.2-.9-.3-1.4-.3-.5 0-1 .1-1.4.3-.4.2-.8.5-1.2.9-.3.4-.6.8-.8 1.4-.2.6-.3 1.2-.3 1.9s.1 1.4.3 1.9zM66.5 74.8v1.7h-2.4v7.3c0 .2 0 .4.1.5 0 .1.1.2.2.3.1.1.3.1.4.1h1.6v1.7H65c-.5 0-.9 0-1.3-.1s-.6-.2-.9-.4c-.2-.2-.4-.4-.5-.8-.1-.3-.2-.8-.2-1.3v-7.5h-2v-1.7h2v-3.5H64v3.5h2.5zM73.4 74.8v1.7H71v7.3c0 .2 0 .4.1.5 0 .1.1.2.2.3.1.1.3.1.4.1h1.6v1.7h-1.5c-.5 0-.9 0-1.3-.1s-.6-.2-.9-.4c-.2-.2-.4-.4-.5-.8-.1-.3-.2-.8-.2-1.3v-7.5h-2v-1.7h2v-3.5h1.9v3.5h2.6zM75.1 78.3c.2-.8.6-1.4 1.1-2 .5-.6 1.1-1 1.8-1.3.7-.3 1.5-.5 2.5-.5.9 0 1.8.2 2.5.5s1.3.8 1.8 1.3c.5.6.9 1.2 1.1 2 .2.8.4 1.6.4 2.4 0 .9-.1 1.7-.4 2.4-.2.7-.6 1.4-1.1 2-.5.6-1.1 1-1.8 1.3-.7.3-1.5.5-2.5.5-.9 0-1.8-.2-2.5-.5s-1.3-.7-1.8-1.3c-.5-.6-.9-1.2-1.1-2-.2-.7-.4-1.6-.4-2.4 0-.9.1-1.7.4-2.4zm2 4.3c.2.6.5 1 .8 1.4.3.4.7.7 1.2.9.4.2.9.3 1.4.3.5 0 1-.1 1.4-.3.4-.2.8-.5 1.2-.9.3-.4.6-.8.8-1.4.2-.6.3-1.2.3-1.9s-.1-1.4-.3-1.9c-.2-.6-.5-1-.8-1.4-.3-.4-.7-.7-1.2-.9-.4-.2-.9-.3-1.4-.3-.5 0-1 .1-1.4.3-.4.2-.8.5-1.2.9-.3.4-.6.8-.8 1.4-.2.6-.3 1.2-.3 1.9s.1 1.4.3 1.9zM90.1 74.8v1.9c.8-1.4 2.1-2.1 3.8-2.1.8 0 1.4.1 1.9.3.5.2.9.5 1.3.9.3.4.5.8.7 1.4.1.5.2 1.1.2 1.7v7.8h-1.9v-8c0-.7-.2-1.3-.6-1.7-.4-.4-1-.6-1.8-.6-.6 0-1.1.1-1.5.3-.4.2-.8.4-1.1.8-.3.3-.5.7-.7 1.2-.1.4-.2.9-.2 1.5v6.7h-1.9V74.8h1.8z"/></svg>