<svg id="Layer_1" xmlns="http://www.w3.org/2000/svg" viewBox="0 0 128 128"><style>.st0{fill-rule:evenodd;clip-rule:evenodd;fill:#FFF}.st1{fill:#383838}</style><path class="st0" d="M0 25.7h128v76.6H0z"/><path class="st1" d="M22.4 41.9h2l4.1 10.7h-2l-1-2.8h-4.3l-1 2.8h-1.9l4.1-10.7zm-.6 6.4H25l-1.6-4.6-1.6 4.6zM31.5 49c0 .4.1.8.2 1 .1.3.3.5.6.7.2.2.5.3.9.4.3.1.7.1 1.1.1.4 0 .8 0 1-.1.3-.1.5-.2.7-.4.2-.1.3-.3.4-.5.1-.2.1-.4.1-.6 0-.4-.1-.7-.3-.9-.2-.2-.4-.3-.6-.4-.4-.1-.8-.3-1.3-.4-.5-.1-1.1-.3-1.9-.5-.5-.1-.8-.3-1.1-.5-.3-.2-.5-.4-.7-.7-.2-.2-.3-.5-.4-.8-.1-.3-.1-.5-.1-.8 0-.5.1-1 .3-1.4.2-.4.5-.7.9-1 .4-.3.8-.5 1.3-.6.5-.1.9-.2 1.4-.2.6 0 1.1.1 1.6.2s.9.4 1.3.7c.4.3.7.6.9 1.1.2.4.3.9.3 1.5h-1.9c-.1-.7-.3-1.2-.7-1.5-.4-.3-1-.4-1.6-.4-.2 0-.4 0-.7.1-.2 0-.4.1-.6.2-.2.1-.3.2-.5.4-.1.2-.2.4-.2.7 0 .4.1.7.4.9.2.2.5.4.9.5 0 0 .2.1.5.1.3.1.6.2.9.2.3.1.7.2 1 .3.3.1.6.1.7.2.3.1.7.3.9.4.3.2.5.4.7.7.2.2.3.5.4.8.1.3.1.6.1.8 0 .6-.1 1.1-.4 1.5-.2.4-.6.8-1 1-.4.3-.9.5-1.4.6-.5.1-1 .2-1.6.2-.6 0-1.2-.1-1.7-.2s-1-.4-1.4-.7c-.4-.3-.7-.7-1-1.2-.2-.5-.4-1.1-.4-1.7h2zM46.9 49c0 .4.1.8.2 1 .1.3.3.5.6.7.2.2.5.3.9.4.3.1.7.1 1.1.1.4 0 .8 0 1-.1.3-.1.5-.2.7-.4.2-.1.3-.3.4-.5.1-.2.1-.4.1-.6 0-.4-.1-.7-.3-.9-.2-.2-.4-.3-.6-.4-.4-.1-.8-.3-1.3-.4-.5-.1-1.1-.3-1.9-.5-.5-.1-.8-.3-1.1-.5-.3-.2-.5-.4-.7-.7-.2-.2-.3-.5-.4-.8-.1-.3-.1-.5-.1-.8 0-.5.1-1 .3-1.4.2-.4.5-.7.9-1 .4-.3.8-.5 1.3-.6.5-.1.9-.2 1.4-.2.6 0 1.1.1 1.6.2s.9.4 1.3.7c.4.3.7.6.9 1.1.2.4.3.9.3 1.5h-1.9c-.1-.7-.3-1.2-.7-1.5-.4-.3-1-.4-1.6-.4-.2 0-.4 0-.7.1-.2 0-.4.1-.6.2-.2.1-.3.2-.5.4-.1.2-.2.4-.2.7 0 .4.1.7.4.9.2.2.5.4.9.5 0 0 .2.1.5.1.3.1.6.2.9.2.3.1.7.2 1 .3.3.1.6.1.7.2.3.1.7.3.9.4.3.2.5.4.7.7.2.2.3.5.4.8.1.3.1.6.1.8 0 .6-.1 1.1-.4 1.5-.2.4-.6.8-1 1-.4.3-.9.5-1.4.6-.5.1-1 .2-1.6.2-.6 0-1.2-.1-1.7-.2s-1-.4-1.4-.7c-.4-.3-.7-.7-1-1.2-.1-.3-.3-.9-.3-1.5h1.9zM56.1 41.9h7.7v1.6H58v2.8h5.4v1.5H58v3.1h5.9v1.6h-7.8V41.9zM66.3 41.9H74v1.6h-5.8v2.8h5.4v1.5h-5.4v3.1h5.9v1.6h-7.8V41.9zM76.4 41.9h2l4.9 7.9v-7.9h1.8v10.7h-2l-4.9-7.9v7.9h-1.8V41.9zM92.9 41.9h1.9v10.7h-1.9V41.9zM97.8 41.9h2l4.9 7.9v-7.9h1.8v10.7h-2l-4.9-7.9v7.9h-1.8V41.9z"/><g><path class="st1" d="M20.6 85.8v.5H9.7v-.5h3.1V63.1H9.7v-.5h3.1c1.1 0 2.3 0 3.4-.1 1.1 0 2.3-.1 3.4-.1 1 0 2.1.1 3.2.2 1.2.2 2.2.5 3.2.9 1 .5 1.8 1.1 2.4 1.9.7.8 1 1.9 1 3.1 0 .9-.2 1.7-.6 2.4-.4.8-1.1 1.4-1.9 2-.9.6-2 1-3.3 1.3-1.3.3-2.8.5-4.6.5h-1.4v10.8h3zm-2-11.2c1.9 0 3.2-.4 4.1-1.3.8-.9 1.3-2.3 1.3-4.3 0-1.9-.4-3.4-1.1-4.4-.7-1-2.1-1.5-4-1.5h-.7c-.2 0-.4 0-.6.1v11.5h1zM30.4 63.1v-.5h5c.9 0 1.8 0 2.8-.1.9 0 1.8-.1 2.8-.1.9 0 1.8.1 2.7.3 1 .2 1.8.5 2.6.9s1.5 1 2 1.7.8 1.7.8 2.8c0 .9-.2 1.6-.6 2.3-.4.6-.9 1.1-1.5 1.5-.6.4-1.3.7-2.1.9-.8.2-1.5.3-2.3.4v.2c1.1.2 2.1.4 2.9.6.9.2 1.6.5 2.2.9.6.4 1.1 1 1.5 1.7.4.7.6 1.7.7 2.9.1 1.4.2 2.5.3 3.4.1.8.2 1.5.3 2 .1.5.3.8.5.9.2.2.5.2.9.2s.8-.1 1.1-.4c.3-.3.5-.5.8-.7l.3.3-.6.6c-.2.2-.5.3-.7.5-.3.1-.6.2-1 .3-.4.1-.9.1-1.5.1-1.2 0-2.2-.2-2.9-.6-.7-.4-1.2-.9-1.5-1.4-.3-.6-.5-1.2-.6-1.9-.1-.7-.1-1.3-.2-1.9 0-.9-.1-1.8-.2-2.6-.1-.9-.3-1.6-.5-2.3-.3-.7-.7-1.2-1.3-1.6-.6-.4-1.4-.6-2.4-.6h-2.2v12h3.1v.5H30.4v-.5h3.1V63.1h-3.1zm9.2 10.3c1 0 1.8-.1 2.4-.4.6-.3 1-.6 1.3-1.1.3-.5.5-1 .5-1.5.1-.6.1-1.2.1-1.8 0-1-.1-1.8-.2-2.5s-.4-1.3-.7-1.7c-.3-.5-.7-.8-1.3-1-.5-.2-1.2-.3-2.1-.3h-.7c-.2 0-.5 0-.7.1v10.3h1.4z"/><path class="st1" d="M73.5 62.6v5.7h-.4c-.1-.4-.3-.9-.6-1.4-.3-.6-.6-1.2-1.1-1.7-.5-.6-1.1-1-1.8-1.4-.8-.4-1.7-.6-2.8-.6h-5.3v10.3h1.9c.8 0 1.5-.1 2.1-.3s1-.6 1.4-1c.4-.4.7-1 .9-1.6.2-.6.4-1.3.6-2h.4v10.3h-.4c-.2-.6-.3-1.3-.5-1.9-.2-.6-.5-1.1-.8-1.6-.4-.5-.8-.8-1.3-1.1-.5-.3-1.2-.4-1.9-.4h-2.2v12H67c1 0 1.9-.2 2.8-.5.8-.3 1.5-.8 2.2-1.4.6-.6 1.2-1.3 1.6-2.2.4-.8.7-1.7 1-2.7h.4v7.3H53.6v-.5h3.1V63.1h-3.1v-.5h19.9zM78.2 78.9c0 .3.1.6.2 1s.3.9.5 1.4c.2.5.5 1 .8 1.5.3.5.7 1 1.2 1.4.5.5 1 .9 1.5 1.2.5.3.9.5 1.4.6.4.1.8.2 1.2.2h1.1c1.2 0 2.1-.2 2.9-.5.8-.4 1.3-.8 1.8-1.3.4-.5.7-1.1.9-1.7.2-.6.3-1.1.3-1.5 0-.8-.2-1.5-.6-2-.4-.5-.9-1-1.5-1.3-.6-.4-1.4-.7-2.2-.9-.8-.2-1.7-.5-2.5-.7-.9-.3-1.7-.6-2.5-.9-.8-.3-1.6-.8-2.2-1.3-.6-.5-1.2-1.2-1.5-2-.4-.8-.6-1.8-.6-3 0-.9.2-1.7.6-2.6.4-.8 1-1.5 1.7-2.2.7-.6 1.6-1.1 2.5-1.5 1-.4 2.1-.6 3.2-.6.7 0 1.4.1 1.9.2.6.1 1 .3 1.5.4.4.1.8.3 1.1.4.3.1.6.2.9.2.3 0 .5-.1.6-.1.1-.1.2-.3.3-.5h.3V69h-.4c-.3-.8-.5-1.5-.8-2.3-.3-.8-.7-1.4-1.1-2-.5-.6-1.1-1.1-1.8-1.5-.7-.4-1.6-.6-2.7-.6-.9 0-1.7.1-2.3.4-.7.2-1.2.6-1.7 1s-.8.8-1.1 1.3c-.2.5-.4 1-.4 1.5 0 .8.2 1.4.6 1.9.4.5.9.9 1.6 1.3.7.4 1.4.7 2.3.9.9.3 1.7.5 2.6.8.9.3 1.8.6 2.6.9.9.3 1.6.8 2.3 1.3.7.5 1.2 1.2 1.6 1.9.4.8.6 1.7.6 2.8 0 1.1-.2 2.1-.7 3.1-.4 1-1.1 1.8-1.9 2.6-.8.7-1.8 1.3-2.9 1.7-1.1.4-2.4.6-3.7.6-.7 0-1.4-.1-2-.2-.7-.1-1.3-.3-1.9-.4-.6-.1-1.1-.3-1.6-.4-.5-.1-.8-.2-1-.2-.3 0-.5.1-.7.1-.1.1-.3.3-.4.6h-.5v-7.4h.6zM98.9 78.9c0 .3.1.6.2 1s.3.9.5 1.4c.2.5.5 1 .8 1.5.3.5.7 1 1.2 1.4.5.5 1 .9 1.5 1.2.5.3.9.5 1.4.6.4.1.8.2 1.2.2h1.1c1.2 0 2.1-.2 2.9-.5.8-.4 1.3-.8 1.8-1.3.4-.5.7-1.1.9-1.7.2-.6.3-1.1.3-1.5 0-.8-.2-1.5-.6-2-.4-.5-.9-1-1.5-1.3-.6-.4-1.4-.7-2.2-.9-.8-.2-1.7-.5-2.5-.7-.9-.3-1.7-.6-2.5-.9-.8-.3-1.6-.8-2.2-1.3-.6-.5-1.2-1.2-1.5-2-.4-.8-.6-1.8-.6-3 0-.9.2-1.7.6-2.6.4-.8 1-1.5 1.7-2.2.7-.6 1.6-1.1 2.5-1.5 1-.4 2.1-.6 3.2-.6.7 0 1.4.1 1.9.2.6.1 1 .3 1.5.4.4.1.8.3 1.1.4.3.1.6.2.9.2.3 0 .5-.1.6-.1.1-.1.2-.3.3-.5h.5V69h-.4c-.3-.8-.5-1.5-.8-2.3-.3-.8-.7-1.4-1.1-2-.5-.6-1.1-1.1-1.8-1.5-.7-.4-1.6-.6-2.7-.6-.9 0-1.7.1-2.3.4-.7.2-1.2.6-1.7 1s-.8.8-1.1 1.3c-.2.5-.4 1-.4 1.5 0 .8.2 1.4.6 1.9.4.5.9.9 1.6 1.3.7.4 1.4.7 2.3.9.9.3 1.7.5 2.6.8.9.3 1.8.6 2.6.9.9.3 1.6.8 2.3 1.3.7.5 1.2 1.2 1.6 1.9.4.8.6 1.7.6 2.8 0 1.1-.2 2.1-.7 3.1-.4 1-1.1 1.8-1.9 2.6-.8.7-1.8 1.3-2.9 1.7-1.1.4-2.4.6-3.7.6-.7 0-1.4-.1-2-.2-.7-.1-1.3-.3-1.9-.4-.6-.1-1.1-.3-1.6-.4-.5-.1-.8-.2-1-.2-.3 0-.5.1-.7.1-.1.1-.3.3-.4.6h-.5v-7.4h.4z"/></g></svg>