<svg id="Layer_1" xmlns="http://www.w3.org/2000/svg" viewBox="0 0 128 128"><style>.st0{fill:#d1cece}.st1{fill:#7b7b7b}</style><path class="st0" d="M45.7 0h36.6v128H45.7z"/><path class="st1" d="M59.9 102.5c-.4.6-.7 1.4-.7 2.4 0 .4 0 .8.1 1.1.1.4.2.7.4 1 .2.3.4.5.7.7.3.2.7.3 1.1.3.4 0 .8-.1 1-.4.3-.3.5-.6.6-1 .2-.4.3-.9.4-1.4.1-.5.2-1.1.4-1.6.1-.5.3-1.1.5-1.6s.4-1 .7-1.4c.3-.4.7-.8 1.1-1 .5-.3 1-.4 1.7-.4s1.4.2 1.9.5.9.8 1.3 1.3c.3.5.6 1.1.7 1.7.1.6.2 1.3.2 1.9 0 .8-.1 1.5-.3 2.2-.2.7-.5 1.3-.9 1.8s-.9.9-1.5 1.2c-.6.3-1.3.5-2.2.5v-1.7c.6 0 1.1-.1 1.5-.3.4-.2.8-.5 1-.9.3-.4.5-.8.6-1.3.1-.5.2-1 .2-1.5 0-.4 0-.8-.1-1.2-.1-.4-.2-.8-.4-1.1-.2-.3-.4-.6-.8-.8-.3-.2-.7-.3-1.2-.3s-.9.1-1.2.4c-.3.3-.5.6-.7 1-.2.4-.3.9-.5 1.4-.1.5-.2 1.1-.4 1.6-.1.5-.3 1.1-.4 1.6-.2.5-.4 1-.6 1.4-.3.4-.6.8-1 1-.4.3-.9.4-1.6.4-.7 0-1.3-.1-1.8-.4-.5-.3-.9-.7-1.3-1.1-.3-.5-.6-1-.7-1.6-.2-.6-.2-1.2-.2-1.8 0-.7.1-1.4.3-2 .2-.6.4-1.1.8-1.6s.8-.8 1.4-1.1c.5-.3 1.2-.4 2-.4v1.7c-.9-.2-1.7.2-2.1.8zM60 97.1h-2v-1.6h2v1.6zm1.8-1.7h10V97h-10v-1.6zM63.3 87.6v5.7h-1.5v-7.8h1.1l7.4 6.1v-6.4h1.5v8.4h-1.3l-7.2-6zM71.2 76.5c.6.7.9 1.7.9 2.8 0 .8-.1 1.5-.4 2.1-.3.6-.6 1.1-1.1 1.5-.5.4-1 .7-1.7.9-.6.2-1.3.3-2.1.3s-1.5-.1-2.1-.3c-.6-.2-1.2-.6-1.6-1-.5-.4-.8-.9-1.1-1.5-.3-.6-.4-1.2-.4-1.9 0-.9.2-1.6.6-2.2.4-.6.8-1.1 1.4-1.4.6-.4 1.2-.6 1.9-.7.7-.1 1.3-.2 1.9-.2v7.5c.4 0 .9 0 1.2-.2.4-.1.7-.3 1-.6.3-.3.5-.6.7-1 .2-.4.3-.9.3-1.4 0-.7-.2-1.3-.5-1.7-.3-.4-.8-.7-1.5-.9V75c1.2.2 2 .7 2.6 1.5zm-6.4.4c-.3.1-.6.3-.9.6-.3.3-.5.5-.6.9-.1.3-.2.7-.2 1.1 0 .4.1.8.2 1.2.1.3.4.6.6.9l.9.6c.3.1.7.2 1.1.3v-5.8c-.4-.1-.8 0-1.1.2zM71.8 63.8H62v3.6h-1.3c0-.5 0-.9-.1-1.4-.1-.4-.2-.8-.4-1.2-.2-.4-.5-.7-.8-.9-.3-.2-.8-.4-1.3-.5v-1.3h13.7v1.7zM60.1 56.7c-.4-.2-.8-.5-1.1-.9-.3-.4-.5-.8-.7-1.3-.2-.5-.2-1-.2-1.5 0-.7.1-1.4.3-1.9.2-.5.5-1 .8-1.3.3-.3.7-.6 1.1-.7.4-.2.8-.2 1.3-.2.6 0 1.2.2 1.7.5s.9.8 1.2 1.4c.3-.8.7-1.4 1.3-1.8.6-.4 1.3-.6 2.2-.6.7 0 1.3.1 1.8.4.5.2 1 .6 1.3 1 .4.4.6.9.8 1.4.2.6.3 1.1.3 1.8s-.1 1.3-.3 1.8c-.2.6-.4 1.1-.8 1.5-.3.4-.8.7-1.3 1-.5.2-1.1.4-1.8.4-.8 0-1.5-.2-2.1-.6-.6-.4-1-1-1.3-1.8-.2.6-.6 1-1.1 1.4-.5.3-1.1.5-1.7.5-.8-.2-1.3-.3-1.7-.5zm2.5-1.6c.3-.1.5-.3.7-.5.2-.2.3-.5.4-.8.1-.3.1-.6.1-.9 0-.7-.2-1.2-.6-1.6-.4-.4-.9-.6-1.6-.6-.7 0-1.2.2-1.6.6-.4.4-.5 1-.5 1.7 0 .3 0 .6.1.9.1.3.2.6.4.8.2.2.4.4.7.5.3.1.6.2.9.2.4-.1.8-.2 1-.3zm7.3-.2c.5-.5.7-1.2.7-2.1 0-.4-.1-.8-.2-1.1-.1-.3-.3-.6-.6-.9-.2-.3-.5-.4-.8-.6-.3-.1-.7-.2-1.1-.2-.4 0-.7.1-1 .2-.3.1-.6.4-.8.6l-.6.9c-.1.3-.2.7-.2 1.1 0 .4.1.8.2 1.1.1.4.3.7.5.9.2.3.5.5.8.6.3.1.7.2 1.1.2.9.1 1.5-.1 2-.7zM65.7 40.9h1.5v5.6h-1.5v-5.6zM64 35.6V35c0-.3 0-.7-.1-1-.1-.3-.2-.6-.4-.8-.2-.2-.4-.4-.7-.6-.3-.1-.6-.2-1-.2-.7 0-1.3.2-1.7.7-.4.5-.6 1-.6 1.7 0 .4.1.8.2 1.2.2.3.4.6.6.8.3.2.6.4.9.5.4.1.7.2 1.1.2v1.6c-.7 0-1.3-.1-1.8-.3-.5-.2-1-.5-1.4-.8-.4-.3-.7-.8-.9-1.3-.2-.5-.3-1.1-.3-1.8 0-.6.1-1.1.2-1.7.1-.5.4-1 .7-1.3.3-.4.7-.7 1.1-.9.5-.2 1-.3 1.6-.3.6 0 1.2.2 1.6.5.5.4.8.8 1.1 1.4.2-.8.6-1.5 1.2-1.9.6-.4 1.3-.6 2.1-.6.7 0 1.3.1 1.8.4.5.3 1 .6 1.3 1 .3.4.6.9.8 1.5.2.6.3 1.2.3 1.8 0 .7-.1 1.3-.3 1.9-.2.6-.5 1.1-.9 1.5-.4.4-.8.7-1.4.9-.6.2-1.2.3-1.9.3v-1.6c.9 0 1.6-.3 2.2-.8.6-.5.8-1.2.8-2.1 0-.4-.1-.8-.2-1.1-.1-.4-.3-.7-.5-.9-.2-.3-.5-.5-.8-.6-.3-.2-.7-.2-1.1-.2-.4 0-.8.1-1.1.2-.3.2-.6.4-.8.6-.2.3-.4.6-.5.9-.1.4-.2.7-.2 1.2 0 .3 0 .7.1 1H64v-.4zM63.5 28.3c-.5 0-1.1-.1-1.6-.2s-1-.3-1.5-.4c-.5-.2-.9-.5-1.2-.8-.3-.3-.6-.8-.8-1.3-.2-.5-.3-1.1-.3-1.8s.1-1.3.3-1.8c.2-.5.5-.9.8-1.3.3-.3.8-.6 1.2-.8.5-.2 1-.3 1.5-.4.5-.1 1-.2 1.6-.2h3.2c.5 0 1.1.1 1.6.2s1 .3 1.5.4c.5.2.9.5 1.2.8.3.3.6.8.8 1.3.2.5.3 1.1.3 1.8s-.1 1.3-.3 1.8c-.2.5-.5.9-.8 1.3-.3.3-.8.6-1.2.8-.5.2-.9.3-1.5.4-.5.1-1 .2-1.6.2h-1.6c-.5.1-1 .1-1.6 0zm3.3-1.7c.6 0 1.2-.1 1.8-.3.6-.2 1-.5 1.4-.8.4-.4.6-.9.6-1.6 0-.7-.2-1.2-.6-1.6-.4-.4-.9-.7-1.4-.8-.6-.2-1.2-.3-1.8-.3H64c-.4 0-.8 0-1.2.1-.4.1-.8.1-1.2.3-.4.1-.7.3-1 .5-.3.2-.5.5-.7.8-.2.3-.3.7-.3 1.2s.1.9.3 1.2c.2.3.4.6.7.8.3.2.6.4 1 .5l1.2.3c.4.1.8.1 1.2.1h1.1c.5-.4 1.1-.4 1.7-.4z"/></svg>