<svg id="Layer_1" xmlns="http://www.w3.org/2000/svg" viewBox="0 0 128 128"><style>.st0{fill:#e27151}.st1{fill:#fff}</style><ellipse class="st0" cx="64" cy="64" rx="64" ry="64"/><path class="st1" d="M37.1 43.9c2.5 0 4.4.6 5.8 1.9 1.4 1.3 2 3.2 2 5.9 0 1.4-.2 2.6-.5 3.6-.3 1.1-.8 2-1.4 2.7-.6.7-1.5 1.3-2.4 1.7-1 .4-2.2.6-3.5.6h-5.6V43.9h5.6zm.2 14.5c.2 0 .5 0 .9-.1.4 0 .8-.1 1.2-.3.4-.1.8-.4 1.2-.6.4-.3.8-.6 1.1-1.1.3-.5.6-1.1.8-1.8s.3-1.6.3-2.6-.1-1.8-.3-2.6c-.2-.8-.5-1.4-.9-2-.4-.5-1-1-1.7-1.2-.7-.3-1.5-.4-2.5-.4h-3.7v12.7h3.6zm17.8 1.1c-.9.7-2 1-3.3 1-.9 0-1.8-.2-2.5-.5s-1.3-.7-1.7-1.3c-.5-.5-.8-1.2-1.1-2-.2-.8-.4-1.6-.4-2.5 0-.9.1-1.7.4-2.5.3-.7.7-1.4 1.2-1.9s1.1-1 1.8-1.3c.7-.3 1.4-.5 2.2-.5 1.1 0 1.9.2 2.6.7.7.4 1.2 1 1.7 1.7.4.7.7 1.4.9 2.2.2.8.2 1.5.2 2.3h-8.8c0 .5 0 1 .2 1.5.1.5.4.9.7 1.2.3.4.7.6 1.2.9.5.2 1 .3 1.7.3.8 0 1.5-.2 2-.6.5-.4.9-1 1-1.7H57c-.5 1.3-1 2.3-1.9 3zm-.5-7.6c-.2-.4-.4-.8-.7-1.1-.3-.3-.6-.5-1.1-.7-.4-.2-.8-.3-1.3-.3s-1 .1-1.4.3c-.4.2-.8.4-1 .7-.3.3-.5.7-.7 1.1-.2.4-.3.8-.3 1.3h6.8c0-.5-.1-.9-.3-1.3zm12.9 8.6c-.5 0-.9-.1-1.2-.4-.3-.3-.4-.7-.4-1.4-.5.6-1.2 1.1-1.9 1.4-.7.3-1.5.4-2.3.4-.5 0-1-.1-1.5-.2s-.9-.3-1.2-.6c-.4-.3-.6-.6-.8-1s-.3-.9-.3-1.5c0-.7.1-1.2.3-1.6.2-.4.5-.8.9-1 .4-.3.8-.5 1.3-.6.5-.1 1-.3 1.5-.3.5-.1 1-.2 1.5-.2.5-.1.9-.1 1.3-.2s.7-.2.9-.4c.2-.2.3-.5.3-.8 0-.4-.1-.8-.2-1-.2-.3-.4-.5-.6-.6-.3-.1-.5-.2-.8-.3-.3 0-.6-.1-.9-.1-.8 0-1.5.2-2.1.5-.5.3-.8.9-.9 1.8h-1.9c0-.7.2-1.3.5-1.9.3-.5.6-.9 1.1-1.2.5-.3 1-.5 1.6-.7.6-.1 1.2-.2 1.9-.2.5 0 1.1 0 1.6.1s1 .2 1.4.5c.4.2.8.6 1 1 .3.4.4 1 .4 1.7v6.1c0 .5 0 .8.1 1 .1.2.2.3.5.3.2 0 .4 0 .6-.1v1.5c-.7-.1-1.1 0-1.7 0zm-2.7-6c-.4.1-.8.2-1.2.2-.4.1-.9.1-1.3.2l-1.2.3c-.4.2-.6.4-.9.7-.2.3-.3.7-.3 1.2 0 .3.1.6.2.8.1.2.3.4.5.5.2.1.4.2.7.3.3.1.6.1.9.1.6 0 1.2-.1 1.6-.3.5-.2.8-.4 1.1-.7.3-.3.5-.6.6-.9.1-.3.2-.6.2-.9v-2c-.2.3-.5.5-.9.5zm7.4-10.6v16.3h-1.9V43.9h1.9zm7.9 8c.2-.8.6-1.4 1.1-2 .5-.6 1.1-1 1.8-1.3.7-.3 1.5-.5 2.5-.5.9 0 1.8.2 2.5.5s1.3.8 1.8 1.3c.5.6.9 1.2 1.1 2 .2.8.4 1.6.4 2.4 0 .9-.1 1.7-.4 2.4-.2.7-.6 1.4-1.1 2-.5.6-1.1 1-1.8 1.3-.7.3-1.5.5-2.5.5-.9 0-1.8-.2-2.5-.5s-1.3-.7-1.8-1.3c-.5-.6-.9-1.2-1.1-2-.2-.7-.4-1.6-.4-2.4.1-.8.2-1.6.4-2.4zm2 4.4c.2.6.5 1 .8 1.4.3.4.7.7 1.2.9.4.2.9.3 1.4.3.5 0 1-.1 1.4-.3.4-.2.8-.5 1.2-.9.3-.4.6-.8.8-1.4.2-.6.3-1.2.3-1.9s-.1-1.4-.3-1.9c-.2-.6-.5-1-.8-1.4-.3-.4-.7-.7-1.2-.9-.4-.2-.9-.3-1.4-.3-.5 0-1 .1-1.4.3-.4.2-.8.5-1.2.9-.3.4-.6.8-.8 1.4-.2.6-.3 1.2-.3 1.9s.1 1.3.3 1.9zm9.7-6.2v-1.7h2v-1.8c0-1 .3-1.7.8-2.2.6-.5 1.4-.7 2.4-.7h.6c.2 0 .4.1.6.1v1.7c-.2-.1-.4-.1-.5-.1h-.5c-.5 0-.8.1-1.1.3-.3.2-.4.5-.4 1.1v1.6H98v1.7h-2.3v10.1h-1.9V50.1h-2zM25.1 74.8v1.7h-2.4v7.3c0 .2 0 .4.1.5 0 .1.1.2.2.3.1.1.3.1.4.1H25v1.7h-1.5c-.5 0-.9 0-1.3-.1s-.6-.2-.9-.4c-.2-.2-.4-.4-.5-.8-.1-.3-.2-.8-.2-1.3v-7.5h-2v-1.7h2v-3.5h1.9v3.5h2.6zm3.5-4.5v6.2c.2-.4.4-.7.6-.9.3-.3.6-.5.9-.6.3-.2.7-.3 1.1-.4.4-.1.7-.1 1.1-.1.8 0 1.4.1 1.9.3.5.2.9.5 1.3.9.3.4.5.8.7 1.4.1.5.2 1.1.2 1.7v7.8h-1.9v-8c0-.7-.2-1.3-.6-1.7-.4-.4-1-.6-1.8-.6-.6 0-1.1.1-1.5.3-.4.2-.8.4-1.1.8-.3.3-.5.7-.7 1.2-.1.4-.2.9-.2 1.5v6.7h-1.9V70.3h1.9zm18.6 15.6c-.9.7-2 1-3.3 1-.9 0-1.8-.2-2.5-.5s-1.3-.7-1.7-1.3c-.5-.5-.8-1.2-1.1-2-.2-.8-.4-1.6-.4-2.5 0-.9.1-1.7.4-2.5.3-.7.7-1.4 1.2-1.9s1.1-1 1.8-1.3c.7-.3 1.4-.5 2.2-.5 1.1 0 1.9.2 2.6.7.7.4 1.2 1 1.7 1.7.4.7.7 1.4.9 2.2.2.8.2 1.5.2 2.3h-8.8c0 .5 0 1 .2 1.5.1.5.4.9.7 1.2.3.4.7.6 1.2.9.5.2 1 .3 1.7.3.8 0 1.5-.2 2-.6.5-.4.9-1 1-1.7h1.9c-.5 1.3-1 2.3-1.9 3zm-.5-7.6c-.2-.4-.4-.8-.7-1.1-.3-.3-.6-.5-1.1-.7-.4-.2-.8-.3-1.3-.3s-1 .1-1.4.3c-.4.2-.8.4-1 .7-.3.3-.5.7-.7 1.1-.2.4-.3.8-.3 1.3H47c0-.5-.1-.9-.3-1.3zm22.4 8.3l-3.7-13.7-3.8 13.7h-2.3l-4.2-16.3h2.2l3.2 13.6 3.7-13.6h2.4l3.6 13.6 3.3-13.6h2.2l-4.4 16.3h-2.2zm14.9-.7c-.9.7-2 1-3.3 1-.9 0-1.8-.2-2.5-.5s-1.3-.7-1.7-1.3c-.5-.5-.8-1.2-1.1-2-.2-.8-.4-1.6-.4-2.5 0-.9.1-1.7.4-2.5.3-.7.7-1.4 1.2-1.9s1.1-1 1.8-1.3c.7-.3 1.4-.5 2.2-.5 1.1 0 1.9.2 2.6.7.7.4 1.2 1 1.7 1.7.4.7.7 1.4.9 2.2.2.8.2 1.5.2 2.3h-9c0 .5 0 1 .2 1.5.1.5.4.9.7 1.2.3.4.7.6 1.2.9.5.2 1 .3 1.7.3.8 0 1.5-.2 2-.6.5-.4.9-1 1-1.7h1.9c-.3 1.3-.9 2.3-1.7 3zm-.5-7.6c-.2-.4-.4-.8-.7-1.1-.3-.3-.6-.5-1.1-.7-.4-.2-.8-.3-1.3-.3s-1 .1-1.4.3c-.4.2-.8.4-1 .7-.3.3-.5.7-.7 1.1-.2.4-.3.8-.3 1.3h6.8c0-.5-.1-.9-.3-1.3zm12.2 7.6c-.9.7-2 1-3.3 1-.9 0-1.8-.2-2.5-.5s-1.3-.7-1.7-1.3c-.5-.5-.8-1.2-1.1-2-.2-.8-.4-1.6-.4-2.5 0-.9.1-1.7.4-2.5.3-.7.7-1.4 1.2-1.9s1.1-1 1.8-1.3c.7-.3 1.4-.5 2.2-.5 1.1 0 1.9.2 2.6.7.7.4 1.2 1 1.7 1.7.4.7.7 1.4.9 2.2.2.8.2 1.5.2 2.3h-8.8c0 .5 0 1 .2 1.5.1.5.4.9.7 1.2.3.4.7.6 1.2.9.5.2 1 .3 1.7.3.8 0 1.5-.2 2-.6.5-.4.9-1 1-1.7h1.9c-.5 1.3-1.1 2.3-1.9 3zm-.5-7.6c-.2-.4-.4-.8-.7-1.1-.3-.3-.6-.5-1.1-.7-.4-.2-.8-.3-1.3-.3s-1 .1-1.4.3c-.4.2-.8.4-1 .7-.3.3-.5.7-.7 1.1s-.3.8-.3 1.3h6.8c0-.5-.1-.9-.3-1.3zm5.8-8V80l5.4-5.2h2.6l-4.7 4.3 5 7.5h-2.5l-4-6.2-1.8 1.7v4.5h-1.9V70.3h1.9z"/></svg>