<svg id="Layer_1" xmlns="http://www.w3.org/2000/svg" viewBox="0 0 128 128"><style>.st0{fill:#b2b3b5}.st1{fill:#FFF}.st2{fill:none;stroke:#FFF;stroke-width:2.1095;stroke-miterlimit:10}</style><ellipse class="st0" cx="64" cy="64" rx="64" ry="64"/><path class="st1" d="M53.5 15.8c1.6 0 2.8.4 3.6 1.1.9.8 1.3 1.8 1.3 3.1 0 1-.2 1.9-.7 2.6-.4.7-1.2 1.3-2.2 1.5.5.1.9.2 1.2.5.3.2.5.5.7.8.2.3.3.6.4 1 .1.4.1.7.2 1.1 0 .4.1.8.1 1.2 0 .4.1.8.1 1.2.1.4.1.8.3 1.1.1.4.3.7.5.9h-2.4c-.2-.2-.3-.4-.3-.7-.1-.3-.1-.6-.1-1V29c0-.4-.1-.8-.1-1.2-.1-.4-.1-.8-.2-1.1-.1-.4-.2-.7-.4-.9-.2-.3-.5-.5-.8-.6-.3-.2-.7-.2-1.3-.2H48v7h-2.2V15.8h7.7zm.5 7.4c.5-.1.9-.2 1.2-.4.3-.2.6-.5.8-.9.2-.4.3-.9.3-1.5 0-.8-.2-1.5-.7-2-.5-.5-1.2-.8-2.2-.8H48v5.7h4.5c.5 0 1 0 1.5-.1zM69.3 31.4c-.9.7-2 1-3.3 1-.9 0-1.8-.2-2.5-.5s-1.3-.7-1.7-1.3c-.5-.5-.8-1.2-1.1-2-.2-.8-.4-1.6-.4-2.5 0-.9.1-1.7.4-2.5.3-.7.7-1.4 1.2-1.9s1.1-1 1.8-1.3c.7-.3 1.4-.5 2.2-.5 1.1 0 1.9.2 2.6.7.7.4 1.2 1 1.7 1.7.4.7.7 1.4.9 2.2.2.8.2 1.5.2 2.3h-8.8c0 .5 0 1 .2 1.5.1.5.4.9.7 1.2.3.4.7.6 1.2.9.5.2 1 .3 1.7.3.8 0 1.5-.2 2-.6.5-.4.9-1 1-1.7H71c-.3 1.3-.8 2.3-1.7 3zm-.5-7.6c-.2-.4-.4-.8-.7-1.1-.3-.3-.6-.5-1.1-.7-.4-.2-.8-.3-1.3-.3s-1 .1-1.4.3c-.4.2-.8.4-1 .7-.3.3-.5.7-.7 1.1-.2.4-.3.8-.3 1.3h6.8c0-.5-.1-.9-.3-1.3zM82 32.4c-.5 0-.9-.1-1.2-.4-.3-.3-.4-.7-.4-1.4-.5.6-1.2 1.1-1.9 1.4-.7.3-1.5.4-2.3.4-.5 0-1-.1-1.5-.2s-.9-.3-1.2-.6c-.4-.3-.6-.6-.8-1-.2-.4-.3-.9-.3-1.5 0-.7.1-1.2.3-1.6.2-.4.5-.8.9-1 .4-.3.8-.5 1.3-.6.5-.1 1-.3 1.5-.3.5-.1 1-.2 1.5-.2.5-.1.9-.1 1.3-.2s.7-.2.9-.4c.2-.2.3-.5.3-.8 0-.4-.1-.8-.2-1-.2-.3-.4-.5-.6-.6-.3-.1-.5-.2-.8-.3-.3 0-.6-.1-.9-.1-.8 0-1.5.2-2.1.5-.5.3-.8.9-.9 1.8H73c0-.7.2-1.3.5-1.9.3-.5.6-.9 1.1-1.2.5-.3 1-.5 1.6-.7.6-.1 1.2-.2 1.9-.2.5 0 1.1 0 1.6.1s1 .2 1.4.5c.4.2.8.6 1 1 .3.4.4 1 .4 1.7v6.1c0 .5 0 .8.1 1 .1.2.2.3.5.3.2 0 .4 0 .6-.1v1.5c-.6-.1-1.1 0-1.7 0zm-2.7-6c-.4.1-.8.2-1.2.2-.4.1-.9.1-1.3.2l-1.2.3c-.4.2-.6.4-.9.7-.2.3-.3.7-.3 1.2 0 .3.1.6.2.8.1.2.3.4.5.5.2.1.4.2.7.3.3.1.6.1.9.1.6 0 1.2-.1 1.6-.3.5-.2.8-.4 1.1-.7.3-.3.5-.6.6-.9.1-.3.2-.6.2-.9v-2c-.2.3-.5.4-.9.5zM87.1 15.8v16.3h-1.9V15.8h1.9zM32.5 42.2v14.5h8.6v1.8H30.3V42.2h2.2zM50.8 57.7c-.9.7-2 1-3.3 1-.9 0-1.8-.2-2.5-.5s-1.3-.7-1.7-1.3c-.5-.5-.8-1.2-1.1-2-.2-.8-.4-1.6-.4-2.5 0-.9.1-1.7.4-2.5.3-.7.7-1.4 1.2-1.9s1.1-1 1.8-1.3c.7-.3 1.4-.5 2.2-.5 1.1 0 1.9.2 2.6.7.7.4 1.2 1 1.7 1.7.4.7.7 1.4.9 2.2.2.8.2 1.5.2 2.3H44c0 .5 0 1 .2 1.5.1.5.4.9.7 1.2.3.4.7.6 1.2.9.5.2 1 .3 1.7.3.8 0 1.5-.2 2-.6.5-.4.9-1 1-1.7h1.9c-.4 1.4-1 2.4-1.9 3zm-.5-7.6c-.2-.4-.4-.8-.7-1.1-.3-.3-.6-.5-1.1-.7-.4-.2-.8-.3-1.3-.3s-1 .1-1.4.3c-.4.2-.8.4-1 .7-.3.3-.5.7-.7 1.1-.2.4-.3.8-.3 1.3h6.8c0-.4-.1-.8-.3-1.3zM63.6 58.7c-.5 0-.9-.1-1.2-.4-.3-.3-.4-.7-.4-1.4-.5.6-1.2 1.1-1.9 1.4-.7.3-1.5.4-2.3.4-.5 0-1-.1-1.5-.2s-.9-.3-1.2-.6c-.4-.3-.6-.6-.8-1-.2-.4-.3-.9-.3-1.5 0-.7.1-1.2.3-1.6.2-.4.5-.8.9-1 .4-.3.8-.5 1.3-.6.5-.1 1-.3 1.5-.3.5-.1 1-.2 1.5-.2.5-.1.9-.1 1.3-.2s.7-.2.9-.4c.2-.2.3-.5.3-.8 0-.4-.1-.8-.2-1-.2-.3-.4-.5-.6-.6-.3-.1-.5-.2-.8-.3-.3 0-.6-.1-.9-.1-.8 0-1.5.2-2.1.5-.5.3-.8.9-.9 1.8h-1.9c0-.7.2-1.3.5-1.9.3-.5.6-.9 1.1-1.2.5-.3 1-.5 1.6-.7.6-.1 1.2-.2 1.9-.2.5 0 1.1 0 1.6.1s1 .2 1.4.5c.4.2.8.6 1 1 .3.4.4 1 .4 1.7V56c0 .5 0 .8.1 1 .1.2.2.3.5.3.2 0 .4 0 .6-.1v1.5c-.7-.1-1.2 0-1.7 0zm-2.8-5.9c-.4.1-.8.2-1.2.2-.4.1-.9.1-1.3.2l-1.2.3c-.4.2-.6.4-.9.7-.2.3-.3.7-.3 1.2 0 .3.1.6.2.8.1.2.3.4.5.5.2.1.4.2.7.3.3.1.6.1.9.1.6 0 1.2-.1 1.6-.3.5-.2.8-.4 1.1-.7.3-.3.5-.6.6-.9.1-.3.2-.6.2-.9v-2c-.1.3-.5.4-.9.5zM71.6 46.7v1.7h-2.4v7.3c0 .2 0 .4.1.5 0 .1.1.2.2.3.1.1.3.1.4.1h1.6v1.7H70c-.5 0-.9 0-1.3-.1s-.6-.2-.9-.4c-.2-.2-.4-.4-.5-.8-.1-.3-.2-.8-.2-1.3v-7.5h-2v-1.7h2V43H69v3.5h2.6zM75.4 42.2v6.2c.2-.4.4-.7.6-.9.3-.3.6-.5.9-.6.3-.2.7-.3 1.1-.4.4-.1.7-.1 1.1-.1.8 0 1.4.1 1.9.3.5.2.9.5 1.3.9.3.4.5.8.7 1.4.1.5.2 1.1.2 1.7v7.8h-1.9v-8c0-.7-.2-1.3-.6-1.7-.4-.4-1-.6-1.8-.6-.6 0-1.1.1-1.5.3-.4.2-.8.4-1.1.8-.3.3-.5.7-.7 1.2-.1.4-.2.9-.2 1.5v6.7h-1.9V42.2h1.9zM94.3 57.7c-.9.7-2 1-3.3 1-.9 0-1.8-.2-2.5-.5s-1.3-.7-1.7-1.3c-.5-.5-.8-1.2-1.1-2-.2-.8-.4-1.6-.4-2.5 0-.9.1-1.7.4-2.5.3-.7.7-1.4 1.2-1.9s1.1-1 1.8-1.3c.7-.3 1.4-.5 2.2-.5 1.1 0 1.9.2 2.6.7.7.4 1.2 1 1.7 1.7.4.7.7 1.4.9 2.2.2.8.2 1.5.2 2.3h-8.8c0 .5 0 1 .2 1.5.1.5.4.9.7 1.2.3.4.7.6 1.2.9.5.2 1 .3 1.7.3.8 0 1.5-.2 2-.6.5-.4.9-1 1-1.7h1.9c-.4 1.4-1 2.4-1.9 3zm-.4-7.6c-.2-.4-.4-.8-.7-1.1-.3-.3-.6-.5-1.1-.7-.4-.2-.8-.3-1.3-.3s-1 .1-1.4.3c-.4.2-.8.4-1 .7-.3.3-.5.7-.7 1.1-.2.4-.3.8-.3 1.3h6.8c-.1-.4-.2-.8-.3-1.3zM99.8 46.7v2.5c.5-1 1.1-1.7 1.7-2.1.7-.5 1.6-.7 2.6-.6v2.1c-.8 0-1.4.1-2 .3-.5.2-1 .5-1.3.9-.3.4-.6.9-.7 1.5-.2.6-.2 1.3-.2 2v5.3H98V46.7h1.8z"/><g><path class="st2" d="M72 88.2c0-3.9 2.3-6.6 5.6-7.3l.1-8.3c-5 .3-10-2.5-10.4-5.2h-4.4c-.5 3.1-6 6.2-10.6 5.9l.1 8.3c3.3.6 5.9 3.4 5.9 7.3 0 4-2.7 8.2-6 8.8l.1 10.1c3.6.4 10.5.9 12.3 7.9h.3c1.3-6.3 10.6-7.7 12.8-8.2V95.9c-3.3-.6-5.8-3.8-5.8-7.7z"/></g></svg>