<svg id="Layer_1" xmlns="http://www.w3.org/2000/svg" viewBox="0 0 128 128"><style>.st0{fill:#fff}.st1{fill:#bcbdbe}.st2{fill:#666}.st3{stroke:#a3d9f3;stroke-width:.2103}.st3,.st4{fill:none;stroke-linecap:round;stroke-linejoin:round}.st4{stroke-width:.1213}.st4,.st5{stroke:#a3d9f3}.st5{stroke-width:.137}.st5,.st6{fill:none;stroke-linecap:round;stroke-linejoin:round}.st6{stroke:#e5e5e4;stroke-width:.2103}.st7{fill:#8d8d8d}.st8{fill:#777878}</style><ellipse class="st0" cx="64" cy="64" rx="62.3" ry="64"/><path class="st1" d="M123.1 69.2h.1-.1zm-.3 0zm.2 0s-.2 0 0 0c-.2 0-.3 0 0 0zm-.2-.9zm-.5-.2c.1 0-.2.1 0 0-.1.3.1.3.1.4-.3 0 .1.1 0 .1h.1c0 .1.1.1.3.3h-.1c.4.1.1.1.1.3h.1c.1 0-.3 0 0-.1h.1l-.1-.1h.1-.1c.1-.1-.1-.3 0-.4-.4-.1.1-.1 0-.1s-.1 0-.1-.1h-.1c.3-.1.1-.3.3-.4.1-.1.4-.3-.1-.6h.1c-.1 0 0-.1 0-.1-.3-.1 0-.3-.3-.4 0-.1 0-.3-.1-.4h.1c-.1-.1.3-.3.1-.3.1-.1-.4-.3-.1-.4.4 0-.4-.1 0-.3.6-.1.3-.3-.1-.4.3-.1-.3-.3.1-.4-.3 0 .3-.1.3-.1h-.1c.3 0-.4 0 0-.1h-.4.1-.1.6-.6.1-.5c.1 0 .1 0 0 0h-.1c-.1 0 .4 0 0 0 .1 0 .1.1.1.1h.3-.4.3-.3l-.1.1c.3 0-.1.1.3.1-.1 0-.3 0-.1.1 0 0 0 .1.3.1h-.4c.1 0 .1.1.3.1h-.1c.4.1.3.3 0 .3h.6-.2c.1 0-.1 0 0 0h.1-.1c-.1.1.3.3.3.6h-.1c-.1 0 .1.1 0 .1h-.1c.1 0-.3 0 .1.1h-.1c.1.1.1.1 0 .3.4.1 0 .1.3.3h-.1c.3.1 0 .1 0 .3v.1h-.1c.4.1-.3.1 0 .3h-.1.3-.1c.4.1-.3.1.1.1h-.1s.1 0 0 0c-.3 0 0 .1 0 .1h-.1c.1 0 0 .1.1.1h-.1l-.5.3c-.2-.2 0 0 0 0zm.1.4zm-.6-4.4zm-.9 17zm-.3-.2l.3.1c.2.1-.5-.1-.3-.1zm.1 0s-.1 0 0 0c0 0-.3 0 0 0zm0-.8c.2 0 .2 0 0 0zm-.4-.3c.1 0-.1 0 0 0-.1.1 0 .3.1.4-.3 0 .1.1 0 .1h.1c0 .1 0 .1.1.3h-.1c.3.1.1.1.1.3h.1c.1 0-.3-.1 0-.1h.1l-.1-.1h.1c-.1 0 0 0-.1-.1.1-.1 0-.3 0-.4-.4-.1.1-.1 0-.1s-.1-.1 0-.1h-.1c.4 0 .1-.3.3-.4.1-.1.4-.3 0-.6h.1s.1-.1 0-.1c-.3-.1.1-.3-.1-.4 0-.1.1-.3 0-.4h.1c-.1-.1.3-.1.1-.3.1-.1-.4-.3-.1-.4.4 0-.4-.3 0-.3.6 0 .3-.3 0-.4.3-.1-.3-.3.1-.4-.3-.1.4 0 .3-.1h-.1c.3 0-.4-.1 0 0 .3 0-.4-.1-.3-.1h.1-.1c.4.1-.1 0 .4 0h.2c-.3 0-.4-.1-.6-.1h.1-.5c.1 0 .1 0 0 0h-.1c-.1 0 .3.1 0 0v.1c.1 0 0 0 .3.1h-.3c-.3 0 .3.1-.1 0 .3 0-.1 0 .3.1h-.1s-.1 0-.1.1c.3.1-.1 0 .3.1h-.1s0 .1.3.1h-.4c.1 0 .1.1.3.1h-.1c.4.1.3.3-.1.3.1 0 .4.1.6.1h-.2c.1 0-.1 0 0 0h.1-.1c-.1.1.3.4.1.6-.1 0 0 .1 0 .1h-.1c.1.1-.3 0 .1.1h-.1c.1.1.1.1 0 .3.4.1 0 .1.3.3h-.1c.3.1 0 .1 0 .3v.1h-.1c.3.1-.4 0 0 .3h-.1c.1 0-.1 0 .3.1h-.1c.4.1-.3 0 0 .1h-.1s.1 0 0 0c-.3 0 0 .1 0 .1h-.1c.1.1 0 .1 0 .1l-.8.2-.1-.1s.1 0 .1.1zm0 .4zm.4-4.4zm-4.5 16.5zm-.1-.2c-.1 0-.1 0 0 0l.3.1c.1.2-.4-.2-.3-.1z"/><path class="st1" d="M116.1 92.1s-.1 0 0 0c0 0-.1-.1 0 0zm.3-.8zm-.4-.4c.1.1-.2 0 0 0-.3.1 0 .3 0 .4l.1.1c-.1-.1.1.1 0 0 0 0 .1 0 .1.1s0 .1.1.4c0 0-.1 0-.1-.1.3.3.1.3 0 .3.1 0 .1 0 .1.1.1 0-.1-.1 0-.1h.1l-.1-.1h.1l-.1-.1c.1.1 0 0 .1 0l-.1-.1c.1 0 0-.3.1-.4-.3-.3.1-.1 0-.1s-.1-.1 0-.1l-.1-.1c.4 0 .3-.3.4-.3.1-.1.4-.1.1-.6 0-.1.1 0 0-.1-.3-.3.1-.1-.1-.4.1-.1.1-.3.1-.4-.1-.1.3-.1.3-.3.1 0-.3-.4 0-.4.4.1-.3-.3.1-.3.6.1.3-.1 0-.4.3 0-.1-.4.3-.3-.3-.1.4 0 .3-.1h-.1c.3.1-.3-.1 0 0 .1.1-.4-.3-.3-.1h-.1.1s-.1-.1-.1 0c.4.1 0-.1.4.1 0 0 .1 0 .3.1l-.1-.1c-.1-.1-.4-.1-.6-.3h.1c-.1 0-.1 0-.1-.1l-.3-.1c.1.1 0 0 0 0h-.1c-.1 0 .3.1 0 0v.1c.1 0 0 0 .1.1l-.3-.1c-.3-.1.3.1-.1 0 .3.1-.1 0 .1.1h-.2c.3.1-.1 0 .1.1h-.1s0 .1.1.1c-.3-.1-.3-.1-.4-.1l.1.1h-.1c.4.3.1.3-.1.3.1 0 .4.1.6.3h-.1c.1 0-.1 0 0 0h.1l-.1-.1c-.1.1.1.4 0 .6l.1.1c-.1 0 0 .1 0 .1h-.1c.1.1-.3-.1.1.1h-.1c.1.1 0 .3 0 .3.3.3 0 .1.3.4.1.1-.1.1-.1.3v.1h-.1c.3.3-.4 0 0 .3h-.1c.1.1-.1 0 .3.1h-.1c.4.3-.3 0 0 .1h-.1s.1.1 0 0c-.3-.1 0 .1 0 .1l-.1-.1c-.5.3-.6.3-.6.5v-.1.1-.1c-.2-.1 0 .1 0 .1zm0 .4zm1.1-4.2zm-7.6 15.3l-.1-.2zm-.1-.3c-.2 0-.2 0 0 0l.1.1c.2.2-.3-.1-.1-.1z"/><path class="st1" d="M109.4 102.1c0 .1-.2 0 0 0 0 0-.2-.1 0 0zm.4-.7zm-.3-.6c0 .2-.1 0 0 0-.3.1-.1.3-.1.4l.1.1c-.1-.1 0 .1-.1 0l.1.1v.4s-.1 0-.1-.1c.3.3.1.3 0 .3.1 0 .1 0 .1.1.1 0-.1-.1 0-.1l-.1-.1.1.1s.1 0-.1-.1l.1.1-.1-.1c.1 0 .1-.3.1-.3-.3-.3.1 0 .1-.1s-.1-.1 0-.1l-.1-.1c.4.1.3-.1.4-.3.1-.1.6 0 .3-.6 0-.1.1 0 .1-.1-.1-.3.1-.1 0-.4.1-.1.1-.3.1-.4 0-.1.3 0 .3-.1.3 0-.1-.4 0-.4.3.1-.3-.4.1-.3.6.3.3-.1.1-.4.3 0-.1-.4.3-.3-.1-.1.4.1.3 0h-.1c.3.1-.3-.3 0 0 .1.1-.4-.3-.1-.1h-.1s.1 0 .1.1l-.1-.1c.4.3 0-.1.3.1 0 0 .1.1.3.1l-.1-.1c-.1-.1-.3-.3-.4-.3l.1.1-.1-.1-.3-.1c.1.1 0 0 0 0h-.1c-.1-.1.3.3 0 0v.1l.1.1c.4-.1.3-.1.3-.1-.3-.1.3.1-.1 0 .3.1-.1 0 .1.1l-.1-.1h-.1c.1.1-.1 0 .1.3-.1 0-.3-.1-.1 0 0 0 0 .1.1.3l-.3-.1c.1.1 0 .1.1.3l-.1-.1c.3.3.1.3-.3.3l.4.4s-.1-.1-.1 0c.1.1-.1-.1 0 0l-.1-.1c-.1.1 0 .4-.1.6l.1.1c-.1 0 0 .1 0 .1l-.1-.1c.1.1-.3-.1.1.1l-.1-.1c0 .1 0 .3-.1.3.3.3 0 .1.1.4.1.3-.1.1-.1.3v.1h-.1c.3.3-.4-.1-.1.3l-.1-.1c.1.1-.1 0 .1.1h-.1c.3.3-.3 0 0 .1 0 0 0 .1 0 0-.3-.1 0 .1-.1.1l-.1-.1c-.4-.5-.6-.5-.6-.4v-.1.1-.1c-.1 0 0 .1 0 .1zm-.1.6zm1.9-4.1zm-10.5 13.5v-.2zm-.1-.3l.1.3c.2.1-.1-.3-.1-.3zm0 0c.1.1 0 0 0 0s0-.1 0 0zm.6-.6c.1 0 .1 0 0 0z"/><path class="st1" d="M101.1 109.4c0 .1-.1 0 0 0h-.1c-.1 0 0 .3 0 .4 0 0 .1.1 0 .1-.1-.1 0 .1-.1 0 0 0 0 .1.1.1v.4l-.1-.1c.1.3 0 .3-.1.3 0 .1 0 .1.1.1.1.1-.1-.1 0-.1v.1s-.1-.1 0-.1l.1.1s.1 0 0-.1l.1.1-.1-.1c.1 0 .1-.3.3-.3-.1-.3.1 0 .1-.1v-.1l-.1-.1c.3.1.3-.1.6-.1.1 0 .6 0 .3-.4 0-.1.1 0 .1-.1-.1-.3.3-.1.1-.4.1 0 .3-.1.3-.4 0-.1.3 0 .3-.1.1 0-.1-.4.1-.4.3.3-.1-.4.1-.1.6.3.4 0 .3-.4.3 0 0-.4.4-.1-.1-.3.3.1.3 0 .3.1-.3-.3.1 0 .1.1-.3-.4-.1-.1l-.1-.1.1.1-.1-.1c.3.3 0-.1.3.3 0 0 .1.1.1.3l-.1-.1-.4-.4.1.1-.1-.1-.3-.3c.1.1 0 .1 0 0-.1-.1.3.3 0 0v.1l.1.1c-.1-.1-.3-.3-.3-.1-.3-.3.1.3-.1 0 .1.3-.1 0 .1.3l-.1-.1h-.1c.1.3-.1 0 .1.3 0 0-.1-.1-.1 0 0 0 0 .1.1.3l-.3-.3c.1.1 0 .1.1.3l-.1-.1c.3.4 0 .4-.3.1l.4.4s-.1-.1-.1 0-.1-.1 0 0v.1l-.1-.1c-.1 0 0 .4-.1.6v.1c-.1 0 0 .1 0 .1s0-.1-.1-.1c.1.1-.3-.1 0 .1l-.1-.1c0 .1 0 .3-.1.3.1.3-.1.1 0 .4.1.3-.1.1-.1.3v.1-.1c.1.3-.3-.1-.1.1l-.6-.8c.1.1-.1 0 .1.3l-.1-.1c.3.4-.1-.1 0 .1 0 0 0 .1 0 0-.3-.3 0 .1-.1.1l-.1-.1c-.2-.5-.3-.6-.5-.3v-.1.1-.1.1zm-.3.4zm2.8-3.5c.2 0 0 0 0 0zM90.7 117.4l-.1-.2zm-.1-.3s0-.2 0 0l.1.3c0 .1-.1-.5-.1-.3zm0 0c0 .1 0-.2 0 0 0 0 0-.2 0 0zm.7-.4zm0-.7c0 .1-.1 0 0 0h-.1c-.1 0-.1.3-.1.4v.1c-.1-.1 0 .1-.1 0 0 0 0 .1.1.1 0 .1-.1.1-.1.4 0 0 0-.1-.1-.1.1.4 0 .3-.1.3 0 .1 0 .1.1.1.1.1 0-.3 0-.1v.1s-.1-.1 0-.1v.1s.1 0 0-.1l.1.1v-.1c.1 0 .1-.1.3-.3-.1-.4.1 0 .1-.1v-.2c.3.3.3-.1.6 0 .1 0 .4.1.4-.4 0-.1.1 0 .1-.1 0-.3.3-.1.1-.4.1 0 .3-.1.3-.3 0-.1.3.1.4 0 .1.1 0-.6.3-.4.3.3 0-.4.1-.1.4.4.4 0 .3-.3.3.1 0-.4.4-.1-.1-.3.3.3.3.1v-.1c.1.3-.1-.4.1 0 .1.1-.3-.4-.1-.3v-.1s0 .1.1.1c0 0-.1-.1 0-.1.3.4 0-.1.3.3 0 0 .1.1.1.3v-.1c-.1-.1-.1-.4-.3-.4l.1.1-.1-.1-.3-.3c.1.1 0 .1 0 0v-.1c-.1-.1.1.3 0 0 0 .1 0 .1-.1.1 0 .1 0 0 .1.1-.1-.3-.3-.3-.3-.3-.1-.3.1.3-.1 0 .1.3-.1 0 .1.3 0 0 0-.1-.1-.1h-.1c.1.3-.1 0 0 .3 0 0-.1-.1-.1 0v.3c-.1-.3-.1-.3-.3-.3v.3c-.1-.1 0 .1-.1-.1.1.4 0 .4-.3.1 0 .1.1.4.3.6l-.1-.1c0 .1-.1-.1 0 0v.1l-.1-.1c-.1 0-.1.4-.3.4v.1c-.1-.1 0 .1-.1.1 0 0 0-.1-.1-.1.1.1-.1-.3 0 .1 0 0 0-.1-.1-.1 0 .1-.1.1-.1.1.1.4-.1.1 0 .4 0 .3-.1.1-.3.1v.1-.1c.1.4-.3-.3-.1.1v-.1c.1.1-.1 0 .1.3v-.4c.1.4-.1-.1-.1.1v-.1s0 .1 0 0c-.1-.3-.1.1-.1.1v-.1c-.8 0-.9-.2-.9 0l.1-.1-.1.1v-.1.1zm-.4.4zm3.5-2.8zM79.4 121.7v-.1zm0-.3v.3c.1.1 0-.4 0-.3zm0 0v-.1.1zm.8-.3zm0-.7c0 .2-.1 0 0 0-.3 0-.3.1-.4.3-.1-.1 0 .1-.1 0v.1c0 .1-.1.1-.1.3v-.1c0 .4-.1.3-.1.3v.1s.1 0 0-.1c0 .1 0 0 .1.1v-.1c.1 0 .1-.1.3-.1 0-.4.1 0 .1-.1v-.2c.3.3.3 0 .6.1.1 0 .4.3.4-.3v.1c0-.1.1 0 .1 0 0-.3.3 0 .3-.4.1 0 .3-.1.4-.3v.1c0-.1.3.1.4 0 .1.1.1-.4.3-.3.1.3 0-.4.3-.1.3.6.3.1.4-.3.1.1.1-.4.4 0 0-.3.3.3.3.1v-.1c.1.3-.1-.4.1 0 .1.1-.1-.4 0-.3v-.2.1-.1c.1.4 0-.1.1.4 0 0 .1.1.1.3v-.1c-.1-.1-.1-.4-.1-.6v.1c0-.1 0-.1-.1-.1l-.1-.3c0 .1 0 .1 0 0v-.1c0-.1.1.3 0 0 0 .1 0 .1-.1.1v.3l-.1-.3c-.1-.3.1.3-.1-.1.1.3-.1-.1 0 .3v-.1l-.1-.1c0 .3-.1-.1 0 .3 0 0-.1-.1-.1 0v.3c-.1-.3-.1-.3-.1-.4v.3c0-.1 0 .1-.1-.1 0 .4-.1.3-.3 0 0 .1.1.4.1.6l-.1-.1v-.1c0 .1-.1-.1 0 0-.1 0-.3.4-.4.4v-.1c-.1-.1 0 .1-.1.1v-.1c0 .1-.1-.3 0 .1v-.1c0 .1-.1.1-.3.1 0 .4-.1.1-.1.4v-.1c0 .3-.1 0-.3.1 0 0 0 .1-.1.1v-.4c0 .4-.3-.3-.1.1v-.1.3-.1c.1.4-.1-.1-.1.1v-.1s0 .1 0 0c-.1-.3-.1 0-.1.1v-.1c-.8.2-.9.1-1.1.2l.1-.1c-.1 0-.1.1-.1.1zm-.4.5zm3.9-2.1zM67.5 123.7v.1-.1zm0-.3zm0 .1v-.1.1zm.8-.3zm.2-.5c0 .1 0-.2 0 0-.3-.1-.3.1-.4.3 0-.3 0 .1-.1 0v.1c-.1 0-.1.1-.3.3v-.1c0 .4-.1.3-.3.1v.1c0 .1 0-.3 0 0v.1s.1 0 .1-.1c.1.1.3-.1.4-.1 0-.4.1 0 .1-.1s0-.1.1-.1v-.2c.1.3.3 0 .6.1.1.1.4.3.6-.1v.1c0-.1.1 0 .1 0 .1-.3.3 0 .3-.3.1 0 .3 0 .4-.1v.1c.1-.1.3.3.4.1.1.1.1-.4.3-.3.1.4.1-.4.3 0 .3.6.3.1.4-.1.1.1.3-.3.4 0 0-.3.1.3.3.3v-.1c0 .3 0-.4.1 0v-.4.1-.1c0 .4 0-.1.1.4v.2c0-.3 0-.4-.1-.6s0-.3-.1-.3c0 .1 0 .1 0 0v-.1c0-.1 0 .4 0 0 0 .1-.1.1-.1.1v.3c0-.3-.1-.3-.1-.3-.1-.3 0 .3 0-.1v.3-.2l-.1-.1c0 .3-.1-.1 0 .3 0-.1-.1-.3-.1-.1 0 0-.1 0 0 .3 0-.3 0-.3-.1-.4v.2c0 .4-.1.3-.3 0v.6s0-.1-.1-.1v-.1c0 .1 0-.1 0 0-.1 0-.3.4-.4.3v-.1c0-.1-.1.1-.1 0v-.1c0 .3-.1-.3 0 .1v-.1c0 .1-.1.1-.3.1 0 .4-.1 0-.1.4v-.1c0 .3-.1 0-.3 0l-.1.1v-.1c0 .4-.1-.3-.3.1v-.1.3-.1c0 .4-.1-.1-.1.1v-.1s0 .1 0 0c-.1-.3-.1 0-.1 0v-.1c0 .1-.1 0-.1.1l-.9-.6.1-.1c0-.1 0 .1-.1.1zm-.4.3zm4.3-1.3zM55.5 123.2v.1-.1zm0-.2zm0 .1s0-.1 0 0c0-.1 0-.3 0 0zm.8 0zm.3-.6s0-.1 0 0c-.3-.1-.3 0-.4.1 0-.3-.1.1-.1 0v.1c-.1 0-.1.1-.3.3-.1.3-.1.1-.3.1v.1c0 .1.1-.3.1 0v.1l.1-.1c.1.1.3 0 .4 0 .1-.4.1.1.1 0s.1-.1.1-.1v-.1c.1.3.3.1.4.3.1.1.3.4.6-.1v.1c0-.1.1 0 .1 0 .1-.3.3 0 .4-.3h.4v.1c.1-.1.3.3.3.1.1.1.3-.4.4-.1 0 .4.1-.4.3 0 .1.6.3.3.4-.1.1.3.3-.3.4.1.1-.3.1.3.1.3v-.1c0 .3.1-.4 0 0v-.4.1-.5c0 .1 0 .1 0 0v-.1c0-.1 0 .4 0 0 0 .1-.1 0-.1 0v-.1c0 .3 0-.1-.1.3v-.1l-.1-.1c0 .3 0-.1-.1.3 0-.1 0-.3-.1-.1 0 0-.1 0-.1.3v-.4c0 .1-.1.1-.1.3v-.1c-.1.4-.3.3-.3-.1 0 .1 0 .4-.1.6v-.2c0 .1 0-.1 0 0-.1-.1-.4.3-.6.3v-.1c0-.1-.1.1-.1 0v-.1c0 .1 0-.3-.1.1v-.1c-.1.1-.1.1-.3 0-.1.4-.1 0-.3.3v-.1c-.1.3-.1 0-.3 0h-.1v-.1c-.1.4-.1-.3-.3 0v-.1.3-.1c-.1.4 0-.3-.1.1v-.1s0 .1 0 0c0-.3-.1 0-.1 0v-.1c0 .1-.1 0-.1.1v-.8l.1-.1s0 .1-.1.1zm-.4.2c0-.2 0 0 0 0zm4.4-.4zM43.7 120.4v-.1zm.1-.2l-.1.3c-.1.1.1-.5.1-.3z"/><path class="st1" d="M43.8 120.2c-.1.1 0 0 0 0s0-.2 0 0zm.7.2zm.5-.5c0 .1 0-.2 0 0-.1-.1-.3 0-.4 0 0-.3-.1.1 0 0v.1c-.1 0-.1 0-.3.1v-.1c-.1.3-.3.1-.3.1v.1c0 .1.1-.1.1 0v.1s.1-.3 0-.1v.1l.1-.1v.1c0-.1 0 0 .1-.1.1.1.3 0 .4 0 .1-.3.1.1.1 0s.1-.1.1 0l.1-.1c0 .4.3.1.4.4.1.1.3.4.6 0 .1 0 .1.1.1 0 .1-.3.3.1.4-.1.1.1.3.1.4 0v.1c.1-.1.1.3.3.3 0 .1.4-.3.4-.1 0 .4.3-.4.3 0 0 .6.3.3.4 0 .1.3.3-.3.4.3.1-.3 0 .4.1.3v-.1c0 .3.1-.4 0 0 0 .3.1-.4.1-.3v-.1.1-.1c-.1.4 0-.1 0 .4 0 0 0 .1-.1.3l.1-.1c0-.3.1-.4.1-.6v-.3c0 .1 0 0 0 0v-.1c0-.1-.1.3 0 0h-.1c0 .1 0 0-.1.1v-.3c0-.3-.1.3 0-.1-.1.3 0-.1-.1.3v-.1s0-.1-.1-.1c-.1.3 0-.1-.1.1v-.1s-.1 0-.1.3c.1-.3 0-.3 0-.4 0 .1-.1.1-.1.3v-.1c-.3.4-.3.3-.3-.1 0 .1-.1.4-.1.6v-.2c0 .1 0-.1 0 0-.1-.1-.4.3-.6.1 0-.1-.1 0-.1 0v-.1c-.1.1 0-.3-.1.1v-.1c-.1.1-.1.1-.3 0-.1.4-.1 0-.3.3v-.1c-.1.3-.1-.1-.3 0h-.1v-.1c-.1.3 0-.4-.3 0v-.7c-.1.1 0-.1-.1.3v-.1c-.1.4 0-.3-.1 0v-.2s0 .1 0 0c0-.3-.1 0-.1 0v-.1c-.1.1-.1 0-.1 0H45l.1-.1c0-.1 0 .1-.1.1zm-.5 0zm4.4.5zM32.8 115.3h-.1.1zm.1-.3l-.1.3c-.2.1.1-.3.1-.3zm0 .1s0-.1 0 0c0 0 0-.1 0 0zm.7.3zm.6-.4c-.2.1 0-.2 0 0-.1-.3-.3-.1-.4 0l-.1.1c.1-.1-.1.1 0 0 0 0 0 .1-.1.1s-.1 0-.4.1c0 0 0-.1.1-.1-.3.3-.3.1-.3 0 0 .1 0 .1-.1.1 0 .1.1-.1.1 0v.1l.1-.1v.1s0 .1.1-.1c-.1.1 0 0 0 .1l.1-.1c0 .1.3 0 .4.1.3-.3.1.1.1 0s.1-.1.1 0l.1-.1c0 .4.3.3.3.4.1.1.1.4.6.1.1 0 0 .1.1 0 .3-.3.1.1.4-.1.1.1.3.1.4.1.1-.1.1.3.3.3 0 .3.4-.3.4 0-.1.4.3-.3.3.1-.1.6.1.3.4.1 0 .3.4-.1.3.3.1-.3 0 .4 0 .3v-.1c-.1.3.3-.3 0 0-.1.1.3-.4.1-.1v-.1.1s.1-.1 0-.1c-.1.4.1 0-.1.4 0 0-.1.1-.1.3l.1-.1c.1-.1.1-.4.3-.6l-.1.1c0-.1 0-.1.1-.1l.1-.3c-.1.1 0 0 0 0v-.1c.1-.1-.1.3 0 0h-.1c0 .1 0 0-.1.1l.1-.3c.1-.3-.1.3 0-.1-.1.3 0-.1-.1.1 0 0 0-.1.1-.1v-.1c-.1.3 0-.1-.1.1v-.1s-.1 0-.3.1c.1-.3.1-.3.1-.4-.1.1-.1 0-.3.1v-.1c-.3.4-.3.1-.3-.1 0 .1-.3.3-.3.4v-.1c0 .1 0-.1 0 0l.1-.1c-.1-.1-.4.1-.6 0l-.1.1c0-.1-.1 0-.1 0s0-.1.1-.1c-.1.1.1-.3-.1.1 0 0 0-.1.1-.1-.1.1-.3 0-.3 0-.3.3-.1 0-.4.1-.3.1-.1-.1-.3-.1h-.1v-.1c-.3.3 0-.4-.3 0v-.1c-.1.1 0-.1-.1.3v-.1c-.3.4 0-.3-.1 0v-.1s-.1.1 0 0c.1-.3-.1 0-.1 0l.1-.1c-.1-.3-.1-.4-.2-.4h.1-.1.1-.1zm-.6 0zm4.2 1.4zM23.1 108H23h.1zm.1-.2l-.1.1c-.1.2.3-.2.1-.1z"/><path class="st1" d="M23.2 107.8c0 .2 0 0 0 0s.2-.1 0 0zm.7.6zm.6-.4c-.1.1 0-.2 0 0-.1-.3-.3-.1-.4-.1l-.1.1c.1-.1-.1 0 0-.1l-.1.1h-.4l.1-.1c-.3.3-.3 0-.3 0s0 .1-.1.1c0 .1.1-.1.1 0 0 0 .1-.1.1 0l-.1.1s0 .1.1 0l-.1.1.1-.1c0 .1.3.1.3.1.3-.3 0 .1.1.1h.1l.1-.1c-.1.3.1.3.1.4.1.1 0 .6.4.3.1 0 0 .1.1.1.3-.1.1.1.4 0 .1.1.3.1.4.3.1 0 0 .3.1.3 0 .3.4-.1.4.1-.1.3.4-.3.3.1-.3.6.1.3.4.1 0 .3.4-.1.3.3.3-.1-.1.3 0 .3v-.1c-.1.3.3-.3 0 0-.1.1.3-.4.1-.1v-.1l-.1.1.1-.1c-.3.3.1 0-.3.3 0 0-.1.1-.1.3l.1-.1.4-.4.1.4.1-.1.1-.3c-.1.1 0 0 0 0v-.1c.1-.1-.3.3 0 0h-.1l-.1.1.1-.3c.1-.3-.3.3 0-.1-.1.3 0-.1-.1.1l.1-.1v-.1c-.1.1 0-.1-.3.1 0-.1.1-.3 0-.1 0 0-.1 0-.3.1.1-.3.1-.3.3-.3-.1.1-.1 0-.3.1l.1-.1c-.4.3-.4.1-.3-.3l-.4.4s.1-.1 0-.1.1-.1 0 0l.1-.1c-.1-.1-.4 0-.6-.1v-.1c0-.1-.1 0-.1 0l.1-.1c-.1.1.1-.3-.1.1l.1-.1c-.1 0-.3 0-.3-.1-.3.3-.1 0-.4.1-.3.1-.1-.1-.3-.1h-.1v-.1c-.3.3.1-.3-.3-.1l.1-.1c-.1.1 0-.1-.3.1v-.1c-.3.3.1-.3-.1 0 0 0-.1 0 0 0 .1-.3-.1 0-.1-.1l.1-.1c.7-.3.7-.5.6-.6h.1-.1.1s-.1.1-.1 0zm-.4-.2zm3.8 2.3zM15 99l.1-.1zm.3-.1s0-.2 0 0l-.3.1c-.2.2.4-.3.3-.1z"/><path class="st1" d="M15.3 98.9c-.2 0 0 0 0 0s.1-.2 0 0zm.5.5zm.6-.1c-.2 0 .1-.1 0 0v-.1c0-.1-.3 0-.4-.1h-.1c.1-.1-.1 0 0-.1 0 0-.1 0-.1.1-.1 0-.1-.1-.4 0l.1-.1c-.3.1-.3 0-.3-.1-.1 0-.1 0-.1.1-.1.1.3-.1.1 0H15s.1-.1.1 0c0 0-.1 0-.1.1 0 0 0 .1.1 0l-.1.1.1-.1c0 .1.3.1.3.3.3-.1 0 .1.1.1h.1l.1-.1c-.1.3.1.3.1.6 0 .1-.1.6.4.3.1 0 0 .1.1.1.3-.1.1.3.4.1 0 .1.1.3.4.3.1 0 0 .3.1.4 0 .1.6-.1.4.1-.3.3.4-.1.1.1-.4.4 0 .4.4.3-.1.3.4 0 .1.4.3-.1-.1.3-.1.3-.1.1.3-.3 0 .1-.1.1.4-.3.3-.1h.1l-.1.1.1-.1c-.3.3.1 0-.3.3 0 0-.1.1-.3.1l.1-.1.4-.4-.1.1.1-.1.3-.3c-.1.1-.1 0 0 0 .1-.1-.3.3 0 0h-.1l-.1.1c.3-.1.3-.3.3-.3.3-.3-.3.1 0-.1-.3.1 0-.1-.3.1l.1-.1v-.1c-.3.1 0-.1-.3.1 0 0 .1-.1 0-.1 0 0-.1 0-.3.1l.3-.3c-.1.1-.1 0-.3.1.1-.1-.1 0 .1-.1-.4.1-.4 0-.1-.3-.1.1-.3.3-.4.3l.1-.1c-.1 0 .1-.1 0 0h-.1l.1-.1c0-.1-.4 0-.6-.3H17c.1-.1-.1 0-.1 0s.1 0 .1-.1c-.1.1.1-.1-.1 0l.4-.3c-.1 0-.3 0-.3-.1-.4.1-.1-.1-.4 0-.3.1-.1-.1-.3-.3h-.1.1c-.3.1.1-.3-.1-.1l.1-.1c-.1.1 0-.1-.3.1l.1-.1c-.4.3.1-.1-.1 0 0 0-.1 0 0 0 .3-.3-.1 0-.1-.1l.1-.1c.5-.3.7-.4.4-.4h.1-.1zM16 99zm3.3 3zM9 88.5h.1zm.2-.1l-.2.1c-.2 0 .4-.1.2-.1z"/><path class="st1" d="M9.2 88.4c-.1.1 0 0 0 0s.2 0 0 0zm.5.7zm.5 0s.2-.2 0 0V89c0-.1-.3-.1-.4-.1h-.1.1c.1-.1-.1 0 0-.1 0 0-.1 0-.1.1-.1 0-.1-.1-.4-.1 0 0 .1 0 .1-.1-.4.1-.3 0-.3-.1-.1 0-.1 0-.1.1-.1.1.3 0 .1 0H9s.1-.1.1 0H9s0 .1.1 0l-.1.1h.1c0 .1.1.1.3.3.4-.1 0 .1.1.1h.2c-.3.3 0 .3 0 .6 0 .1-.1.4.4.4.1 0 0 .1.1.1.3 0 .1.3.4.1 0 .1.1.3.3.4.1 0-.1.3 0 .4-.1.1.6 0 .3.3s.4 0 .1.1c-.4.4 0 .4.3.3-.1.3.4.1.1.4.3-.1-.3.3-.1.3h.1c-.3.1.4-.1 0 .1-.1.1.4-.3.3-.1h.1s-.1 0-.1.1c0 0 .1-.1.1 0-.4.3.1 0-.3.3 0 0-.1.1-.3.1h.1c.1-.1.4-.1.6-.3l.1.2.1-.1.3-.1c-.1.1-.1 0 0 0h.1c.1-.1-.3.1 0 0-.1 0-.1 0-.1-.1-.1 0 0 0-.1.1l.3-.1c.3-.1-.3.1 0-.1-.3.1 0-.1-.3.1 0 0 .1 0 .1-.1v-.1c-.3.1.1-.1-.3 0 0 0 .1-.1 0-.1h-.3c.3-.1.3-.1.3-.3h-.3c.1-.1-.1 0 .1-.1-.4.1-.4 0-.1-.3-.1 0-.4.1-.6.3l.1-.1c-.1 0 .1-.1 0 0h-.1l.1-.1c0-.1-.4-.1-.4-.3h-.1c.1-.1-.1 0-.1-.1h.1c-.1 0 .3-.1-.1 0h.1c-.1 0-.1-.1-.1-.1-.4.1-.1-.1-.4 0-.3 0-.1-.1-.1-.3 0 0-.1 0-.1-.1h.1c-.4.1.3-.3-.1-.1h.1c-.1.1 0-.1-.3.1h.1c-.4.1.1-.1-.1-.1h.1s-.1 0 0 0c.3-.1-.1-.1-.1-.1h.1c.1-1.4.2-1.5-.1-1.6l.1.1-.1-.1zm-.3-.3zm2.7 3.5zM5.2 77h.1zm.3 0h-.3c-.2 0 .4-.1.3 0z"/><path class="st1" d="M5.5 77h.1c-.1 0 0-.1-.1 0zm.2.7zm.6.2c-.1 0 .1-.2 0 0 0-.3-.1-.3-.3-.4h-.1.1c.1-.1-.1 0 0-.1h-.1c-.1 0-.1-.1-.3-.1h.1c-.4 0-.3-.1-.3-.1h-.1.1-.1s0 .1.1 0c-.1 0 0 0-.1.1h.1c-.1.1.1.3.1.3.4 0 0 .1.1.1H6c-.3.3 0 .3-.1.6 0 .1-.3.4.3.4h-.1c.1 0 0 .1 0 .1.3 0 0 .3.4.3 0 .1.1.3.1.4h-.2c.1.1-.1.3 0 .4-.1.1.5.1.3.2-.3.1.4 0 .1.3-.6.3-.1.3.3.4-.1.1.4.1 0 .4.3 0-.3.3-.1.3h.1c-.3.1.4 0 0 .1-.1.1.4-.1.3 0h.1-.1.1c-.4.1.1 0-.4.1 0 0-.1 0-.3.1h.1c.1 0 .4-.1.6-.1h-.1.1l.3-.1c-.1 0-.1 0 0 0H8c.1 0-.4.1 0 0-.1 0-.1 0-.1-.1h-.3l.3-.1c.3-.1-.3 0 .1-.1-.3.1.1 0-.3 0h.1l.2-.2c-.3 0 .1-.1-.3 0 0 0 .1-.1 0-.1h-.3c.3-.1.3-.1.4-.1h-.3c.1 0-.1 0 .1-.1-.4 0-.3-.1 0-.3-.1 0-.4.1-.6.1l.1-.1h.1c-.1 0 .1-.1 0 0h.2c0-.3-.4-.4-.4-.5h.1H7h.1c.2-.2-.1 0-.1-.2h.1c-.1 0 .3-.1-.1 0h.1c-.1 0-.1-.1-.1-.3-.4 0-.1-.1-.4-.1h.1c-.3 0 0-.1-.1-.3 0 0-.1 0-.1-.1h.1c-.4 0 .3-.3-.1-.1h.1-.3.1c-.4 0 .1-.1-.1-.1h.1s-.1 0 0 0c.3-.1 0-.1 0-.1h.1c-.2-.6-.1-.7-.2-.8l.1.1c0-.1-.1-.1-.1-.1zm-.3-.5zm2 4.1zM3.8 65h.1zm.3 0zm0 0h.1-.1zm.1.8zm.6.3c-.2-.1.1-.1 0 0 .1-.3-.1-.3-.3-.4h-.2.1c.3 0-.1 0 0-.1h-.1c0-.1-.1-.1-.3-.3h.1c-.4 0-.3-.1-.1-.3h-.1c-.1 0 .3 0 0 0h-.1.1-.1s0 .1.1.1h-.1.1c-.1.1.1.3.1.4.4 0 0 .1 0 .1.1 0 .1 0 .1.1h.1c-.3.1-.1.3-.1.4-.1.1-.3.4.1.6h-.1c.1 0 0 .1 0 .1.3.1 0 .3.3.3 0 .1 0 .3.1.4.1.1-.3.3-.1.4-.1.1.4.3.3.4-.4.1.4.1 0 .3-.6.1-.1.3.1.4-.1.1.3.3-.1.4.3 0-.3.1-.3.3h.1c-.3 0 .4 0 0 .1h.4-.1.1c-.4 0 .1 0-.4.1h-.3.7-.1.1s.3 0 .3-.1c-.1 0-.1 0 0 0h.1c.1 0-.4 0 0 0-.1 0-.1-.1-.1-.1h-.3c.3 0 .3-.1.3-.1h.1H5h.1l.1-.1c-.3 0 .1-.1-.3-.1.1 0 .3-.1.1-.1 0 0 0-.1-.3-.1.3 0 .3 0 .4-.1-.1 0-.1 0-.3-.1h.1c-.4 0-.3-.1 0-.3h-.6.2c-.1 0 .1 0 0 0h.4c0-.1-.3-.3-.3-.4h.1-.1.1c.1 0-.1-.1 0-.1h.1-.1.1c.3-.4.3-.4.3-.6-.4 0 0-.1-.4-.1h.1c-.3-.1 0-.1 0-.3l-.1-.1h.1c-.4 0 .3-.1-.1-.3h.1-.3.1c-.4 0 .1-.1-.1-.1h.1s-.1 0 0 0c.3 0 0-.1 0-.1h.1c-.1 0 0-.1-.1-.1h.1l.1-.4.1.1c0-.1-.1-.1-.1-.1zm-.3-.6c.1 0 0 0 0 0zm1.1 4.4c0 .1 0 0 0 0zM4.8 52.9h.1zm.2.2s.2 0 0 0l-.3-.1c-.1-.1.5.1.3.1z"/><path class="st1" d="M5 53.1c-.1-.2.2 0 0 0 0 0 .2 0 0 0zm0 .8c0-.1 0 0 0 0zm.6.3c-.1-.1.1-.1 0 0 .1-.1 0-.3-.1-.4h-.2.1c.3 0-.1-.1 0-.1h-.1c0-.1-.1-.1-.3-.3h.1c-.2-.2-.1-.2-.1-.3h-.1c-.1 0 .3.1 0 .1h-.1.1-.1l.1.1h-.1.1c-.1.1 0 .3 0 .4.4.1-.1.1 0 .1.1.1.1.3.1.3h.1c-.3.1-.1.3-.3.4s-.4.3 0 .6h-.1s-.1.1 0 .1c.3.1-.1.3.3.4v.4h-.1c.1.1-.3.1-.1.3-.1.1.4.3.1.4-.4 0 .4.3 0 .3-.6.1-.3.3.1.4-.3.1.3.3-.1.4.3.2-.4.2-.3.2h.1c-.3 0 .4.1 0 0-.3 0 .6.1.3 0h.1H5h.1-.7.7H5h.5c-.1 0-.1 0 0 0h.1c.1 0-.4 0 0 0-.1 0 0-.1 0-.1h-.3.4c-.3 0 .1 0-.3-.1h.1l.1-.1c-.3 0 .1 0-.3-.1.1 0 .3 0 .1-.1 0 0 0-.1-.3-.1h.4c-.1 0-.1-.1-.3-.1h.1c-.4-.1-.3-.3.1-.3-.1 0-.4-.1-.6-.1H5c-.1 0 .1 0 0 0h.6c.1-.1-.3-.4-.1-.6h.1-.1.1c.1 0-.1-.1 0-.1h.1c-.1 0 .3 0-.1-.1h.1c-.1-.1-.1-.1 0-.3-.4-.1 0-.1-.3-.3h.1c-.3-.1 0-.1 0-.3v-.1h.1c-.4-.1.4-.1 0-.3h.1c-.1 0 .1 0-.3-.1h.1c-.4-.1.3 0 0-.1h.1s-.1 0 0 0c.3 0 0-.1 0-.1H6c-.1 0 0-.1-.1-.1H6l-.4-.2.1.1c-.1 0-.1-.1-.1-.1zm-.1-.6zm.1 4.5zM8.3 41.3zm.2.2l-.3-.1c-.1-.1.5.1.3.1zm-.1 0s.1 0 0 0c0 0 .3 0 0 0zm-.1.8zm.4.4c0-.1.1 0 0 0 .1-.1 0-.3 0-.4h-.2c.3 0-.1-.1 0 0 0 0-.1 0-.1-.1s0-.1-.1-.3h.1c-.3-.1-.1-.3 0-.3-.1 0-.1 0-.1-.1-.1 0 .1.1 0 .1h-.2s.3.1.1 0h-.1l.1.1h-.1l.1.1c-.1.1 0 .3 0 .4.3.1-.1.1 0 .1s.1.1 0 .1l.1.1c-.3.2 0 .5-.3.6 0-.1-.4-.1 0 .3 0 .1-.1.1 0 .1.3.3-.1.3.1.4-.1.1-.1.4-.1.5h-.2c.1.1-.3.1-.3.3-.1 0 .3.4 0 .4-.4 0 .3.3 0 .3-.6 0-.3.1 0 .4-.3 0 .3.4-.3.3.3.1-.4 0-.3.1H7c-.3 0 .4.1 0 0-.1 0 .4.1.3.1h.2c-.4-.1.1 0-.4-.1 0 0-.1 0-.3-.1l.1.1c.1 0 .4.1.6.1h-.1.4c-.1 0 0 0 0 0H8c.1 0-.3-.1 0 0v-.1c-.1 0 0 0-.1-.1h.3c.3.1-.3-.1.1 0-.3-.1.1 0-.3-.1h.1s.1 0 .1-.1c-.3-.1.1 0-.1-.1h.1s0-.1-.3-.1c.3.1.3 0 .4.1l-.1-.1h.1c-.4-.3-.1-.3.1-.3-.1 0-.4-.1-.6-.3h.1c-.1 0 .1 0 0 0h.2c.2-.3-.1-.6-.1-.7l-.1-.1c.1 0 0-.1 0-.1H8c-.1-.1.3 0-.1-.1H8c-.1-.1 0-.1 0-.3-.3-.1 0-.1-.3-.3h.1c-.3-.1.1-.1 0-.3V43H8c-.3-.1.4 0 0-.3h.1c-.1-.1.1 0-.3-.1H8c-.4-.3.3 0 0-.1h.1s-.1-.1 0 0c.3.1 0-.1 0-.1h.1c-.1-.1 0-.1 0-.1l.5.4.1.1c0 .1-.1-.1-.1-.1zm0-.5zM8 46.6zM14 30.7h-.1.1zm.1.1s.2 0 0 0l-.3-.1c-.1-.2.5.2.3.1z"/><path class="st1" d="M14.1 30.8c-.1 0 0 .1 0 0 0 0 .2.1 0 0zm-.4.8c0-.1 0 0 0 0zm.4.5c-.1-.2.2 0 0 0 .3-.1.1-.3 0-.4l-.1-.2c.1.1-.1-.1 0 0l-.1-.1c0-.1 0-.1-.1-.4 0 0 .1 0 .1.1-.3-.3-.1-.3 0-.3-.1 0-.1 0-.1-.1-.1 0 .1.1 0 .1h-.1l.1.1h-.1s-.1 0 .1.1c-.1-.1 0 0-.1 0l.1.1c-.1 0 0 .3-.1.3.3.3-.1 0 0 .1 0 .1.1.1 0 .1l.1.1c-.4 0-.3.3-.4.3-.1.1-.6.1-.1.6 0 .1-.1 0 0 .1.1.3-.1.1 0 .4-.3.4-.3.5-.3.7.1.1-.3.1-.3.3-.3 0 .3.4 0 .4-.4-.1.3.4-.1.3-.6-.1-.3.1-.1.4-.3 0 .1.4-.3.3.1.1-.4 0-.3 0h.1c-.3-.1.3.3 0 0-.1-.1.4.3.1.1h.1-.1l.1.1c-.4-.1 0 .1-.4-.1 0 0-.1-.1-.3-.1l.1.1c.1.1.4.1.6.3l-.1-.1c.1.1.1 0 .1.1l.3.1c-.1-.1 0 0 0 0h.1c.1.1-.3-.1 0 0v-.1c-.1 0 0 0-.1-.1l.3.1c.3.1-.3-.1.1 0-.3-.1.1 0-.1-.1 0 0 .1 0 .1.1h.1c-.3-.1.1 0-.1-.1h.1s0-.1-.1-.3c.3.1.3.1.4.1-.1-.1 0-.1-.1-.3.1.1 0 0 .1 0-.1-.3 0-.3.4-.3-.1-.1-.3-.3-.4-.3h.1c-.1 0 .1 0 0 0l.1.1c.1-.1-.1-.4 0-.6l-.1-.1c.1 0 0-.1 0-.1s.1 0 .1.1c-.1-.1.3.1-.1-.1 0 0 .1 0 .1.1-.1-.1 0-.3.1-.3-.3-.3 0-.1-.1-.4-.1-.3.1-.1.1-.3V33h.1c-.3-.3.4 0 0-.3l.1.1c-.1-.1.1 0-.3-.1h.1c-.4-.3.3 0 0-.1 0 0-.1-.1 0 0 .3.1 0-.1 0-.1l.1.1c.3-.4.4-.2.4-.5v.1-.1.1-.1zm.2-.5zm-1.7 4.1zM21.7 21.4v-.1.1zm.1.2l-.1-.3c-.1 0 .3.4.1.3zm0 0c-.1 0 0 .1 0 0 0 0 .2.1 0 0zm-.5.7zm.3.5c0-.1.1 0 0 0h.1c.1 0 0-.3 0-.4l-.1-.1c.1.1 0-.1.1 0l-.1-.1v-.4l.1.1c-.1-.3 0-.3 0-.3s-.1 0-.1-.1c-.1 0 .1.1 0 .1 0 0 .1.1 0 .1l-.1-.1s-.1 0 0 .1l-.1-.1.1.1c-.1 0-.1.3-.1.3.3.3-.1 0-.1.1v.1l.1.1c-.3-.1-.3.1-.6.1-.1 0-.6 0-.3.4 0 .1-.1 0-.1.1.1.3-.1.1 0 .4-.1.1-.1.3-.3.4 0 .1-.3 0-.3.1-.3 0 .1.4-.1.4-.3-.1.1.4-.1.1-.6-.3-.4.1-.1.4-.3 0 0 .4-.3.3.1.3-.3-.1-.3 0h.1c-.3-.1.3.3 0 0l.1.1.1.1-.2.3.1.1c-.3-.3 0 .1-.3-.3 0 0-.1-.1-.3-.1l.1.1.4.4v-.1l.1.1s.1.1.3.1c-.1-.1 0 0 0 0 .1.1-.3-.3 0 0v-.1l-.1-.1c.1.1.3.1.3.1.3.1-.3-.3.1 0-.3-.1.1 0-.1-.1l.1.1h.1c-.1-.1.1 0-.1-.3.1 0 .3.1.1 0 0 0 0-.1-.1-.3.3.3.3.1.3.3-.1-.1 0-.1-.1-.3l.1.1c-.3-.4 0-.4.3-.1l-.4-.4s.1.1.1 0 .1.1 0 0l.1.1c.1-.1 0-.4.1-.6l-.1-.1c.1 0 0-.1 0-.1l.1.1c-.1-.1.3.1-.1-.1l.1.1c0-.1 0-.3.1-.3-.3-.3.1-.1-.1-.4-.1-.3.1-.1.1-.3V23h.1c-.3-.3.3.1.1-.3l.1.1c-.1-.1.1 0-.1-.3h.1c-.3-.4.3.1 0-.1 0 0 0-.1 0 0 .3.1 0-.1.1-.1l.1.1c.6.6.8.6.8.4v.2-.2zm.1-.4zM19.3 26zM31.1 13.9v-.2l.1.2z"/><path class="st1" d="M31.2 14c0 .1 0 .1 0 0l-.1-.3c-.2-.1.3.4.1.3z"/><path class="st1" d="M31.2 14s0 .1 0 0c0 0 .2.1 0 0zm-.7.6zm.2.5s.1.2 0 0h.1c.1 0 .1-.3.1-.4v-.1c.1.1 0-.1.1 0 0 0 0-.1-.1-.1 0-.1.1-.1 0-.4 0 0 0 .1.1.1-.1-.3 0-.3.1-.3 0-.1 0-.1-.1-.1-.1-.1.1.3 0 .1v-.1s.1.1 0 .1v-.1s-.1 0 0 .1l-.1-.1c0 .1 0 0 .1.1-.1 0-.1.3-.3.3.1.4-.1 0-.1.1v.1l.1.1c-.4.1-.4.4-.7.4-.1 0-.6-.1-.3.4 0 .1-.1 0-.1.1.1.3-.3.1-.1.4-.1 0-.3.1-.3.3 0 .1-.3 0-.4.1-.1 0 0 .6-.1.4-.3-.3.1.4-.1.1-.4-.4-.4 0-.3.4-.3-.1 0 .4-.4.1.1.3-.3-.1-.3-.1v.1c-.1-.3.1.3-.1 0-.1-.1.3.4.1.3v.1l-.1-.1.1.1c-.3-.3 0 .1-.3-.3 0 0-.1-.1-.1-.3l.1.1.4.4-.1-.1.1.1.3.3c-.1-.1 0-.1 0 0 .1.1-.1-.3 0 0v-.1c0-.1 0 0-.1-.1l.3.3c.3.3-.1-.3.1 0-.1-.3.1 0-.1-.3l.1.1h.1c-.1-.3.1 0 0-.3 0 0 .1.1.1 0 0 0 0-.1-.1-.3l.3.3c-.1-.1 0-.1 0-.3.1.1 0-.1.1.1-.1-.4 0-.4.3-.1 0-.1-.3-.3-.3-.4l.1.1c0-.1.1.1 0 0v-.1l.1.1c.1 0 .1-.4.3-.6v-.1c.1.1 0-.1.1-.1 0 0 0 .1.1.1-.1-.1.1.1 0-.1 0 0 0 .1.1.1 0-.1 0-.3.1-.1-.1-.4.1-.1 0-.4-.1-.3.1-.1.3-.1v-.1.1c-.1-.3.3.1.1-.1l.1.1c-.1-.1.1 0-.1-.3l.1.1c-.3-.4.1.1.1-.1v.1s0-.1 0 0c.3.3 0-.1.1-.1l.1.1s.2.1.2-.2v.1-.1zm.2-.3zm-3 3.1zM41.9 8.3v.1zm.1.2s0 .2 0 0l-.1-.3c-.2-.1.1.5.1.3z"/><path class="st1" d="M41.9 8.5c0-.1.1.2 0 0 0 0 .1.2 0 0zm-.7.5zm0 .5s.1.2 0 0h.1c.1 0 .1-.3.1-.4V9v.1c.1.1 0-.1.1 0V9c0-.1.1-.1.1-.4v.1c0-.4 0-.3.1-.3 0-.1 0-.1-.1-.1v.1-.1s.1.3 0 .1v-.1s-.1 0 0 .1l-.1-.1v.1c-.1 0-.1.1-.3.3.1.4-.1 0-.1.1V9c-.3-.3-.3 0-.6 0-.1 0-.4-.1-.4.3 0 .1-.1 0-.1.1 0 .3-.3 0-.3.4-.1 0-.3.1-.4.3 0 .1-.3-.1-.4 0-.1-.1 0 .6-.3.3s0 .4-.1.1c-.4-.4-.4-.1-.3.3-.3-.1-.1.4-.4.1 0 .3-.3-.3-.3-.1v.1c-.1-.3.1.4-.1 0-.1-.1.1.4.1.3v.1s0-.1-.1-.1c0 0 .1.1 0 .1-.1-.4 0 .1-.1-.3 0 0-.1-.1-.1-.3v.1c.1.1.1.4.3.6v-.1c.1.1 0 .1.1.1l.1.3c-.1-.1 0-.1 0 0v.3c.1.1-.1-.3 0 0 0-.1 0-.1.1-.1 0-.1 0 0-.1-.3l.1.3c.1.3-.1-.3.1.1-.1-.3.1 0 0-.3 0 0 0 .1.1.1h.1c-.1-.3.1.1 0-.3 0 0 .1.1.1 0v-.3l.1.3v-.3c.1.1 0-.1.1.1-.1-.4.1-.4.3-.1 0-.1-.1-.4-.1-.6l.1.1c0-.1.1.1 0 0v-.1s.1.1 0 .1c.1 0 .1-.4.4-.4v-.1c.1.1 0-.1.1-.1v.1c0-.1.1.3 0-.1v.1c0-.1.1-.1.1-.1-.1-.4.1-.1 0-.4v.1c0-.3.1 0 .3-.1 0 0 0-.1.1-.1v.1c-.1-.4.3.3.1-.1v.1c0-.1 0 0-.1-.3v.1c-.1-.4.1.1.1-.1v.1s0-.1 0 0c.1.3.1-.1.1-.1v.1c1.1.2 1.1.3 1.3 0l-.2.2.2-.2zm.4-.3zm-3.8 2.6zM53.5 5v.2zm0 .3s.1.2 0 0V5c0-.1.1.5 0 .3z"/><path class="st1" d="M53.5 5.3v.1c0-.1.1.1 0-.1zm-.7.3zm-.1.6c0-.2.1.1 0 0 .3.1.3-.1.4-.3v-.2.1c0 .3 0-.1.1 0v-.1c.1-.1.1-.1.1-.3v.1c0-.4.1-.3.1-.1v-.1.1-.1s-.1 0 0 .1c0-.1 0 0-.1-.1v.1c-.1-.1-.3.1-.3.1 0 .4-.1 0-.1.1V6c-.3-.3-.3 0-.6-.1-.1 0-.4-.3-.4.3v-.1c0 .1-.1 0-.1 0 0 .3-.3 0-.3.4-.1 0-.3 0-.4.1v-.2c-.1.1-.3-.1-.4 0-.1-.1-.1.4-.3.3-.1-.3-.1.4-.3.1-.3-.6-.3-.1-.4.3-.1-.1-.1.4-.4 0 0 .3-.1-.3-.3-.1v.1c-.1-.3 0 .4-.1 0 0-.1.1.6 0 .3v.1-.1.1c-.1-.4 0 .1-.1-.4v-.3.1c0 .3.1.4.1.6v-.1.1l.1.3c0-.1 0-.1 0 0V8c0 .1 0-.4 0 0 0-.1.1-.1.1-.1v-.3l.1.3c.1.3 0-.3.1.1v-.3.1l.3.2c0-.3.1.1 0-.3 0 0 .1.1.1 0v-.3c.1.3.1.3.1.4v-.3.1c0-.4.1-.3.3 0 0-.1 0-.4-.1-.6l.1.1v.1c0-.1.1.1 0 0v.2c.1 0 .3-.4.4-.4v.1V7v.1c0 .1 0-.1.1-.1v.1c0-.3.1.3 0-.1v.1c.1-.1.2-.1.4-.1 0-.4.1 0 .1-.4v.1c0-.3.1 0 .3-.1 0 0 0-.1.1-.1v.1c0-.4.1.3.1-.1v-.2.1c0-.4.1.1.1-.1v.1s0-.1 0 0c.1.3.1 0 .1 0v.1c.6-.3.7-.2.9-.3l-.1.1c-.1 0 .1-.1.1-.1zm.4-.3zm-4.2 1.7z"/><g><path class="st1" d="M65.7 4.3v-.1l-.2.1zm-.2.3v-.3.3zm0-.1zm-.8.1z"/><path class="st1" d="M64.6 5.2c0-.2 0 .1 0 0 .2.1.2-.2.4-.2v-.1.1c0 .3 0-.1.1 0v-.1c.1 0 .1-.1.3-.3v.1c.1-.4.1-.3.3-.1v-.1c0-.1 0 .3 0 0v-.2l-.1.1v-.1.1c-.1-.1-.3.1-.4 0 0 .4-.1-.1-.1 0s0 .1-.1.1v.1c-.1-.3-.3-.1-.4-.3-.1-.1-.3-.4-.6.1v-.1c0 .1-.1 0-.1 0-.1.3-.3 0-.4.3-.1 0-.3 0-.4.1v.1c-.1.1-.3-.3-.4-.1-.4-.2-.5.3-.7.2-.1-.4-.1.4-.3 0-.1-.6-.3-.1-.4.1-.1-.1-.3.3-.4-.1 0 .3-.1-.3-.3-.3v.1c0-.3 0 .4-.1 0v.4-.7.7V5v.4c0-.1 0-.1 0 0v.1c0 .1 0-.4 0 0 0-.1.1-.1.1-.1v-.3c0 .3 0 .3.1.3v-.2.1l.1.1c0-.3.1.1.1-.3 0 .1 0 .3.1.1 0 0 .1 0 .1-.3v.4c0-.1 0-.1.1-.3v.1c.1-.4.3-.3.3 0v-.6.6c0-.1 0 .1 0 0V5v.1c.1.1.3-.3.6-.3V5v-.1.1c0 .1.1-.1.1 0v.1c.4-.1.4-.1.5-.1 0-.4.1 0 .3-.4v.1c.1-.3.1 0 .3 0h.1v.1c.1-.4.1.3.3-.1v-.2.1c0-.4.1.3.1-.1v.1s0-.1 0 0c0 .3.1 0 .1 0v.1c0-.1.1 0 .1-.1v.1l.6.5c-.2.1-.2 0 0 0zM65 5zm-4.5.7z"/></g><g><path class="st1" d="M77.6 5.9V6zm-.2.3l.1-.3c.1-.2-.1.4-.1.3z"/><path class="st1" d="M77.4 6.2c.2-.2 0 0 0 0s0 .1 0 0zm-.8-.2zm-.3.6c0-.2 0 .1 0 0 .1.1.3 0 .4-.1v-.2.1c0 .3.1-.1.1 0v-.1c.1 0 .1 0 .3-.3v.1c.2-.2.2-.1.3-.1v-.1c0-.1-.1.3-.1 0v-.2l-.1.1v-.1.1c-.1-.1-.3 0-.4 0-.1.4-.1-.1-.1 0-.1.2-.2.2-.2.2v.1c-.2-.4-.3-.1-.5-.2-.1-.1-.3-.4-.6 0v-.1s-.1-.1-.1 0c-.1.2-.2-.2-.4.2h-.4v-.1c-.1.1-.1-.3-.3-.1-.1-.1-.3.4-.4.1 0-.4-.3.4-.3 0 0-.6-.3-.3-.4 0-.1-.3-.3.3-.4-.1-.1.3-.1-.4-.1-.3v.1c0-.3-.1.4 0 0 0-.3-.1.6-.1.3V6v-.7.1c0 .3-.1.4-.1.6v-.1.5c0-.1 0-.1 0 0v.1c0 .1.1-.4 0 0 0-.1.1 0 .1 0v-.3.3c0 .3.1-.3 0 .1 0-.3 0 .1.1-.3v.1l.1.1c.1-.3 0 .1.1-.3 0 .1 0 .3.1.1 0 0 .1 0 .1-.3v.4c0-.1.1-.1.1-.3v.1c.1-.4.3-.3.3.1 0-.1.1-.4.1-.6v.2c0-.1 0 .1 0 0v.5c.1.1.4-.3.6-.1v.1-.1.1c0 .1.1 0 .1 0v.1c0-.1 0 .3.1-.1v.1c.1-.1.1-.1.3 0 .1-.4.1 0 .3-.3v.1c.1-.3.1 0 .3 0h.1v.1c.1-.4.1.4.3 0v.1c0-.1 0 .1.1-.3v.1c.1-.4 0 .3.1 0v.1s0-.1 0 0c0 .3.1 0 .1 0v.1c0-.1.1 0 .1-.1v.1l.3.1-.1.1.1-.1zm.4-.2zm-4.3 0z"/></g><g><path class="st1" d="M89.1 9.9h-.2zm-.2.3c-.1 0-.1 0 0 0l.1-.3c.1-.1-.2.3-.1.3zm0-.1s-.1.1 0 0c0 0-.1.1 0 0zm-.8-.2c0-.1 0-.1 0 0z"/><path class="st1" d="M87.7 10.4c0-.2 0 .1 0 0 .1.1.3 0 .4 0v-.1c-.1.1.1-.1 0 0 0 0 0-.1.1-.1s.1 0 .4-.1v.1c.3-.3.3-.1.3 0 0-.1 0-.1.1-.1 0-.1-.1.1-.1 0v-.3s-.1.1 0 .1v-.1l-.1.1c.1-.1 0 0 0-.1l-.1.1c0-.1-.3 0-.4-.1-.3.3-.1-.1-.1 0s-.1.1-.1 0l-.1.3c0-.4-.3-.3-.3-.4-.1-.1-.1-.4-.6-.1-.1 0 0-.1-.1 0-.3.3-.3-.1-.4.1-.1-.1-.3-.1-.4-.1v-.2c-.1.1-.1-.3-.3-.3 0-.1-.4.3-.4 0 0-.4-.3.3-.3 0 .1-.6-.1-.3-.4 0 0-.3-.4.1-.3-.3-.1.3 0-.4-.1-.3v.1c.1-.3-.1.4 0 0-.2-.1-.4.5-.4.4v.1V9v.1c.1-.4 0 .1.1-.4 0 0 0-.1.1-.3l-.1.1c-.1.2-.1.5-.1.6V9v.1s0 .3-.1.3c.1-.1 0 0 0 0v.1c0 .1.1-.3 0 0h.1c0-.1 0 0 .1-.1-.1.3-.1.3 0 .3-.1.3.1-.3 0 .1.1-.3 0 .1.1-.3v.1s0 .1.1.1c.1-.3 0 .1.1-.1v.1s.1 0 .1-.1c-.1.3-.1.3-.1.4l.1-.1v.1c.5-.3.5-.1.5.2 0-.1.1-.4.3-.6v.1c0-.1 0 .1 0 0 0 .1-.1.1 0 .1.1.1.4-.1.6 0l.1-.1c0 .1.1 0 .1 0v.1c.1-.1 0 .3.1-.1v.1c.1-.1.3 0 .3 0 .3-.3.1 0 .3-.3v.1c.2-.2.2.2.3.2h.1v.1c.3-.3 0 .4.3 0v.1c.1-.1 0 .1.1-.3v.1c.3-.4 0 .3.1 0v.1s.1-.1 0 0c-.1.3.1 0 .1 0v.1c.1-.1.1 0 .1 0l-.2.4-.1.1c-.1-.1-.1-.1.1-.1zm.4 0zm-4.4-1z"/></g><g><path class="st1" d="M99.4 16.1l-.1.1zm-.2.3l.1-.1c.1-.3-.1.2-.1.1z"/><path class="st1" d="M99.2 16.4c.1-.2 0 0 0 0s0 .1 0 0zm-.7-.4zm-.6.2c.1 0 0 .2 0 0 .1.3.3.1.4.1l.1-.1c-.1.1.1-.1 0 0l.1-.1c.1 0 .1 0 .4-.1 0 0 0 .1-.1.1.3-.3.3-.1.3 0 0-.1 0-.1.1-.1 0-.1-.1.1-.1 0v-.1l-.1.1s0-.1.1-.1c0 0 0-.1-.1.1l.1-.1-.1.1c0-.1-.3 0-.3-.1-.3.3 0-.1-.1 0-.1 0-.1.1-.1 0l-.2.1c0-.4-.1-.3-.3-.4-.1-.1-.1-.6-.6-.1-.1 0 0-.1-.1 0-.3.1-.1-.1-.4 0-.1-.1-.3-.1-.4-.1-.1 0 0-.3-.3-.3 0-.3-.4.3-.4 0 .1-.4-.4.3-.3-.1.1-.6-.1-.3-.4-.1 0-.3-.4.1-.3-.3-.1.1.1-.4 0-.3v.1c.1-.3-.3.3 0 0 .1-.1-.3.4-.1.1v.1s0-.1.1-.1l-.1.1c.3-.4-.1 0 .1-.4 0 0 .1-.1.1-.3l-.1.1c-.1.1-.3.3-.3.6l.1-.1-.1.1-.1.3c.1-.1 0 0 0 0v.1c-.1.1.3-.3 0 0h.1c0-.1 0 0 .1-.1l-.1.3c-.1.3.1-.3 0 .1.1-.3 0 .1.1-.1 0 0 0 .1-.1.1v.1c.1-.1 0 .1.3-.1 0 .1-.1.3 0 .1 0 0 .1 0 .3-.1l-.1.3c.1-.1.1 0 .3-.1-.1.1 0 0 0 .1.3-.3.3-.1.3.3l.4-.4s-.1.1 0 .1c.1-.1-.1.1 0 0l-.1.1c.1.1.4-.1.6 0l.1-.1c0 .1.1 0 .1 0s0 .1-.1.1c.1-.1-.1.3.1-.1 0 0 0 .1-.1.1.1-.1.3 0 .3.1.3-.3.1 0 .4-.1.3-.1.1.1.3.1h.1v.2c.3-.3-.1.4.3 0l-.1.1c.1-.1 0 .1.1-.1v.1c.3-.4 0 .3.1 0 0 0 .1-.1 0 0-.1.3.1 0 .1.1h-.6c.2-.1.2 0 .3 0h-.1.1-.1c0 .2.1 0 .1 0zm.6.2zm-4.1-1.8z"/></g><g><path class="st1" d="M108.3 24.4zm-.2.1c-.1 0-.1 0 0 0l.3-.1c0-.2-.4.2-.3.1z"/><path class="st1" d="M108.1 24.5c0-.1-.1 0 0 0 0 0-.1.1 0 0zm-.7-.6zm-.5.3c.1-.1 0 .2 0 0v.1c0 .1.3 0 .4 0 0 0 .1-.1.1 0-.1.1.1 0 0 .1l.1-.1h.4l-.1.1c.3-.1.3 0 .3 0 .1 0 0-.1.1-.1.1-.1-.1.1-.1 0 0 0-.1.1-.1 0l.1-.1s0-.1-.1 0l.1-.1-.1.1c0-.1-.3-.1-.3-.3-.3.3 0-.1-.1-.1h-.1l-.1.1c.1-.3-.1-.3-.1-.6 0-.1 0-.6-.4-.3-.1 0 0-.1-.1-.1-.3.1-.1-.1-.4 0-.1-.1-.1-.3-.4-.3-.1 0 0-.3-.1-.3 0-.1-.4.1-.4-.1.1-.3-.4.1-.1-.1.3-.6 0-.4-.4-.3 0-.3-.4 0-.1-.4-.3.1.1-.3 0-.3.1-.3-.3.3 0 0 .1-.1-.4.3-.1.1l-.1.1.1-.1-.1.1c.3-.3-.1 0 .3-.3l.1-.1-.1.1-.4.4.1-.1-.1.1-.3.3c.1-.1.1 0 0 0-.1.1.3-.3 0 0h.1l.1-.1c-.1.1-.1.3-.1.3-.3.3.3-.1 0 .1.1-.3 0 .1.3-.1l-.1.1v.1c.1-.1 0 .1.3-.1 0 .1-.1.1 0 .1 0 0 .1 0 .3-.1-.3.3-.1.3-.3.3.1-.1.1 0 .3-.1l-.1.1c.4-.3.4 0 .1.3l.4-.4s-.1.1 0 .1-.1.1 0 0h.1l-.1.1c0 .1.4 0 .6.1h.1c0 .1.1 0 .1 0l-.1.1c.1-.1-.1.3.1 0l-.1.1c.1 0 .3 0 .3.1.3-.3.1.1.4-.1.3-.1.1.1.3.1h.1c.3-.1-.1.3.1.1l-.1.1c.1-.1 0 .1.3-.1v.1c.4-.3-.1.3.1 0 0 0 .1 0 0 0-.1.3.1 0 .1.1l-.1.1c-1.1.7-1.1.9-.9 1h-.1.1-.1c-.1 0 .1-.1.1 0zm.4.2zm-3.7-2.7z"/></g><g><path class="st1" d="M115.4 34.2h-.1zm-.3.1s-.1 0 0 0l.3-.1c.1-.2-.4.1-.3.1z"/><path class="st1" d="M115.1 34.2c.2 0-.1.1 0 0 0 0-.1.1 0 0zm-.5-.6zm-.6 0c.1 0 0 .2 0 0v.1c0 .1.3.1.4.1h.1c-.1.1.1 0 0 .1 0 0 .1 0 .1-.1.1 0 .1.1.4.1 0 0-.1 0-.1.1.3-.1.3 0 .3.1.1 0 .1 0 .1-.1.1-.1-.3.1-.1 0h.1s-.1.1-.1 0h.1s0-.1-.1 0l.1-.1c-.1 0 0 0-.1.1 0-.1-.1-.1-.3-.3-.4.1 0-.1-.1-.1h-.2c.1-.3-.1-.3 0-.6 0-.1.1-.4-.4-.4-.1 0 0-.1-.1-.1-.3 0-.1-.3-.4-.1 0-.1-.1-.3-.3-.3-.1 0 .1-.3-.1-.4.1-.1-.6 0-.4-.1.3-.3-.4.1-.1-.1.4-.4 0-.4-.3-.3.1-.3-.4 0-.1-.4-.3.1.1-.3.1-.3h-.1c.3-.1-.4.1 0-.1.1-.1-.4.3-.3.1h-.1l.1-.1s-.1.1-.1 0c.4-.3-.1 0 .3-.3 0 0 .1-.1.3-.1l-.1.1c-.1.1-.3.3-.4.3l.1-.1-.1.1-.3.3c.1-.1.1 0 0 0h-.1c-.1.1.3-.1 0 0 .1 0 .1 0 .1.1.1 0 0 0 .1-.1-.3.1-.3.3-.3.3-.3.3.3-.1 0 .1.3-.1 0 .1.3-.1l-.1.1v.1c.3-.1 0 .1.3 0 0 0-.1.1 0 .1h.3c-.3.1-.3.1-.3.3.1-.1.1 0 .3 0-.1.1.1 0-.1.1.4-.1.4 0 .1.3.1 0 .4-.1.6-.3l-.1.1c.1 0-.1.1 0 0h.1l-.1.1c0 .1.4.1.6.3h.1c-.1.1.1 0 .1.1 0 0-.1 0-.1.1.1-.1-.1.1.1 0 0 0-.1 0-.1.1.1 0 .1.1.1.1.4-.1.1.1.4 0 .3 0 .1.1.1.3h.1-.1c.4-.1-.1.3.1.1h-.1c.1-.1 0 .1.3-.1h-.5c.4-.1-.1.1.1.1h-.1s.1 0 0 0c-.3.3.1.1.1.1l-.1.5c0-.1-.1 0 0 0l-.1-.1.1.1h-.1c0 .2.1 0 .1 0zm.4.4zm-3.1-3.3z"/></g><g><path class="st1" d="M120.3 45.2v-.1.1zm-.3 0h.3c.1-.1-.4 0-.3 0zm0 0c.2 0 0 0 0 0s-.1 0 0 0zm-.3-.8zm-.7 0c.2 0 0 .1 0 0v.1c0 .1.3.1.4.1-.1.1.1 0 0 .1h.1c.1 0 .1.1.3.1h-.1c.4 0 .3.1.3.1h.1s0-.1-.1 0l.1-.1h-.1c0-.1-.1-.1-.1-.3-.4.1 0-.1-.1-.1h-.2c.3-.3 0-.3 0-.6 0-.1.3-.4-.3-.4h.1c-.1 0 0-.1-.1-.1-.3 0 0-.3-.4-.3 0-.1-.1-.3-.3-.4h.1c-.1 0 .1-.3 0-.4.1-.1-.6-.1-.3-.3.3-.3-.4 0-.1-.3.4-.4.1-.3-.3-.4.1-.1-.4-.1 0-.4-.3 0 .3-.3.1-.3h-.1c.3-.1-.4.1 0-.1.1-.1-.4.1-.3 0h-.1s.1 0 .1-.1c0 0-.1.1-.1 0 .4-.1-.1 0 .3-.1 0 0 .1-.1.3-.1h-.1c-.1.1-.4.1-.6.3h.1c-.1 0-.1 0-.1.1l-.3.1c.1 0 .1 0 0 0h-.1c-.1.1.3-.1 0 0 .1 0 .1 0 .1.1h.3l-.3.1c-.3.1.3-.1-.1.1.3-.1-.1.1.3 0 0 0-.1 0-.1.1l-.1.1c.3-.1-.1.1.3 0 0 0-.1.1 0 .1h.3l-.3.1h.3c-.1 0 .1 0-.1.1.4-.1.3.1.1.3.1 0 .4-.1.6-.1l-.1.1h-.1c.1 0-.1.1 0 0h.1c-.1 0-.1.1-.1 0 0 .1.4.1.4.4-.1.1.1 0 .1.1h-.1c.1 0-.3.1.1 0h-.1c.1 0 .1.1.1.3.4-.1.1.1.4.1h-.1c.3 0 0 .1.1.3 0 0 .1 0 .1.1h-.1c.4 0-.3.3.1.1h-.1.3-.1c.4-.1-.1.1.1.1h-.1s.1 0 0 0c-.3.1.1.1.1.1h-.1c-.3 1-.4 1-.3 1.1l-.1-.1c0 .1.1.1.1.1zm.5.4zm-2.4-3.8z"/></g><g><path class="st1" d="M123 57h-.2zm-.3 0s-.2 0 0 0zm0 0h-.1.1zm-.2-.8zm-.7-.2c.2 0-.1.2 0 0-.1.3.1.3.3.4-.3 0 .1 0 0 .1h.1c0 .1.1.1.3.3h-.1c.4 0 .3.1.1.1h.1c.1 0-.3 0 0 0h.1s0-.1-.1-.1c.1 0 0 0 .1-.1h-.1c.1-.1-.1-.3-.1-.3-.4 0 0-.1-.1-.1h-.2c.3-.1 0-.3.1-.6 0-.1.3-.4-.3-.6h.1c-.1 0 0-.1 0-.1-.3 0 0-.3-.4-.3 0-.1 0-.3-.1-.4h.1c-.1-.1.1-.3 0-.4.1-.1-.4-.1-.3-.3.4-.1-.4-.1-.1-.3.6-.3.1-.3-.1-.4.1-.1-.4-.1 0-.4-.3 0 .3-.1.3-.3h-.1c.3-.1-.4 0 0-.1.1 0-.6.1-.3 0h-.1.1-.1c.4-.1-.1 0 .4-.1h.2c-.3 0-.4.1-.6.1h.1-.1l-.3.1c.1 0 .1 0 0 0h-.1c-.1 0 .4 0 0 0 .1 0 .1.1.1.1h.3c-.3 0-.3.1-.3.1-.3.1.3 0-.1.1h.3-.1l-.1.1c.3 0-.1.1.3 0-.1 0-.3.1 0 .1h.3c-.3.1-.3.1-.4.1h.3-.1c.4 0 .3.1 0 .3h.6l-.1.1h-.1c.1 0-.1.1 0 0h.1-.1c0 .1.4.3.3.4h-.1c-.1 0 .1.1.1.1h-.1c.3 0-.3.1.1 0h-.1c.1 0 .1.1.1.3.4 0 0 .1.4.1h-.1c.3 0 0 .1.1.3 0 0 .1 0 .1.1h-.1c.4 0-.3.1.1.1h-.1.3-.1c.4 0-.1.1.1.1h-.1s.1 0 0 0c-.3.1 0 .1 0 .1h-.1c.1 0 0 .1.1.1V56h-.6l-.1-.1.1.1zm.3.4zm-1.4-4.2z"/></g><g><path class="st2" d="M38.9 73.2c-.6-.4-1.3-.6-2.2-.6-.4 0-.7 0-1.1.1-.4.1-.7.1-1 .4-.3.1-.6.4-.7.7s-.3.7-.3 1.1.1.7.4 1c.3.3.6.4 1 .6.4.1.8.3 1.4.4.6.1 1 .3 1.5.3.6.1 1 .3 1.5.4.6.1 1 .4 1.4.7s.7.7 1 1.1c.3.4.4 1 .4 1.5 0 .7-.1 1.3-.4 1.8-.3.6-.7.8-1.3 1.3-.4.3-1 .6-1.7.7-.4.3-1.1.3-1.7.3-.7 0-1.4-.1-2.1-.3-.7-.1-1.3-.4-1.7-.8-.6-.4-.8-.8-1.1-1.4-.3-.6-.4-1.3-.4-2.1h1.7c0 .6.1 1 .3 1.4.3.4.6.7.8 1 .3.3.7.4 1.3.6.4.1 1 .1 1.4.1.4 0 .8 0 1.1-.1.4-.1.7-.1 1.1-.4.3-.1.6-.4.7-.7s.3-.7.3-1.1-.1-.8-.4-1.1c-.3-.3-.6-.6-1-.7-.4-.1-.8-.3-1.4-.4-.6-.1-1-.3-1.5-.3-.6-.1-1-.3-1.5-.4-.6-.1-1-.4-1.4-.6-.4-.3-.7-.6-1-1-.3-.4-.4-.8-.4-1.5s.1-1.3.4-1.7c.3-.4.6-.8 1.1-1.1.4-.3 1-.6 1.5-.7.6-.1 1.1-.3 1.7-.3.7 0 1.3.1 1.8.3.6.1 1.1.4 1.5.7.4.3.8.7 1 1.3.3.6.4 1.1.4 1.8h-1.7c.3-1.1-.1-1.8-.7-2.3zm7-1.8v4.9c.1-.3.3-.6.6-.7.3-.1.4-.4.7-.6.3-.1.6-.3.8-.3.3 0 .6-.1.8-.1.6 0 1.1.1 1.5.3.4.1.7.4 1 .7.3.3.4.7.6 1.1.1.4.1.8.1 1.4v6.2h-1.5V78c0-.6-.1-1-.6-1.4-.3-.3-.8-.6-1.4-.6-.4 0-.8.1-1.3.3-.3.1-.7.4-.8.6-.3.3-.4.6-.6 1-.1.4-.1.7-.1 1.1v5.3h-1.4v-13h1.5v.1zm8.7 6.5c.1-.6.4-1.1.8-1.5.4-.4.8-.8 1.4-1 .6-.3 1.3-.4 2-.4s1.4.1 2 .4c.6.3 1 .6 1.4 1 .4.4.7 1 .8 1.5.1.6.3 1.3.3 2s-.1 1.4-.3 2c-.1.6-.4 1.1-.8 1.5-.4.4-.8.8-1.4 1-.6.3-1.3.4-2 .4s-1.4-.1-2-.4c-.6-.3-1.1-.6-1.4-1-.4-.4-.7-1-.8-1.5-.1-.6-.3-1.3-.3-2s.2-1.5.3-2zm1.6 3.5c.1.4.4.8.6 1.1.3.3.6.6 1 .7.4.1.7.3 1.1.3.4 0 .8-.1 1.1-.3.4-.1.7-.4 1-.7.3-.3.4-.7.6-1.1.1-.4.3-1 .3-1.5 0-.6-.1-1.1-.3-1.5-.1-.4-.4-.8-.6-1.1-.3-.3-.6-.6-1-.7-.4-.1-.7-.3-1.1-.3-.4 0-.8.1-1.1.3-.4.1-.7.4-1 .7-.3.3-.4.7-.6 1.1-.1.4-.3 1-.3 1.5.1.5.1.9.3 1.5zm17.2 3l-2-7.4-2 7.4h-1.7L64.6 75h1.7l2.1 7.7 2-7.7h1.7l2 7.7 2.1-7.7H78l-2.9 9.4h-1.7zm13.1-.5c-.7.6-1.5.8-2.7.8-.7 0-1.4-.1-2-.4-.6-.3-1-.6-1.4-1-.4-.4-.7-1-.8-1.5-.1-.6-.3-1.3-.3-2s.1-1.4.3-2c.3-.6.6-1.1 1-1.5.4-.4.8-.8 1.4-1 .6-.3 1.1-.4 1.8-.4.8 0 1.5.1 2.1.6.6.3 1 .8 1.3 1.3.3.6.6 1.1.7 1.7.1.7.1 1.3.1 1.8h-7c0 .4 0 .8.1 1.1.1.4.3.7.6 1 .3.3.6.6 1 .7.4.1.8.3 1.3.3.7 0 1.3-.1 1.7-.4.4-.3.7-.7.8-1.4h1.3c-.1.9-.6 1.7-1.3 2.3zm-.4-6c-.1-.3-.3-.6-.6-.8-.3-.3-.6-.4-.8-.6-.3-.1-.7-.3-1.1-.3s-.7.1-1.1.3c-.3.1-.6.3-.8.6-.3.3-.4.6-.6.8-.1.3-.3.7-.3 1h5.6c-.1-.3-.1-.8-.3-1zm5.2-2.8v2c.4-.7.8-1.3 1.4-1.7.6-.4 1.3-.6 2.1-.6v1.7c-.6 0-1.1.1-1.5.3-.4.1-.8.4-1.1.7-.3.3-.4.7-.6 1.3-.1.4-.1 1-.1 1.7v4.2H90v-9.4h1.4v-.2zM47.2 89.6c1.3 0 2.2.3 2.9 1 .7.7 1 1.7 1 2.8 0 1.3-.3 2.1-1 2.8s-1.7 1-2.9 1h-3.9v5.3h-1.7v-13h5.6v.1zm-.6 6.3c1 0 1.7-.1 2.1-.6.4-.4.7-1 .7-1.8s-.3-1.4-.7-1.8c-.4-.4-1.1-.6-2.1-.6h-3.4v4.8h3.4zm8.3-2.6v2c.4-.7.8-1.3 1.4-1.7.6-.4 1.3-.6 2.1-.6v1.7c-.6 0-1.1.1-1.5.3-.4.1-.8.4-1.1.7-.3.3-.4.7-.6 1.3-.1.4-.1 1-.1 1.7v4.2h-1.5v-9.4H55v-.2zm4.8 2.8c.1-.6.4-1.1.8-1.5.4-.4.8-.8 1.4-1 .6-.3 1.3-.4 2-.4s1.4.1 2 .4c.6.3 1 .6 1.4 1 .4.4.7 1 .8 1.5.1.6.3 1.3.3 2s-.1 1.4-.3 2c-.1.6-.4 1.1-.8 1.5-.4.4-.8.8-1.4 1-.6.3-1.3.4-2 .4s-1.4-.1-2-.4c-.6-.3-1.1-.6-1.4-1-.4-.4-.7-1-.8-1.5-.1-.6-.3-1.3-.3-2s.1-1.5.3-2zm1.5 3.5c.1.4.4.8.6 1.1.3.3.6.6 1 .7.4.1.7.3 1.1.3s.8-.1 1.1-.3c.4-.1.7-.4 1-.7s.4-.7.6-1.1c.1-.4.3-1 .3-1.5 0-.6-.1-1.1-.3-1.5-.1-.4-.4-.8-.6-1.1-.3-.3-.6-.6-1-.7-.4-.1-.7-.3-1.1-.3s-.8.1-1.1.3c-.4.1-.7.4-1 .7-.3.3-.4.7-.6 1.1-.1.4-.3 1-.3 1.5.2.5.2.9.3 1.5zm9.2-3.5c.1-.6.4-1.1.8-1.5.4-.4.8-.8 1.4-1 .6-.3 1.3-.4 2-.4s1.4.1 2 .4c.6.3 1 .6 1.4 1 .4.4.7 1 .8 1.5.1.6.3 1.3.3 2s-.1 1.4-.3 2c-.1.6-.4 1.1-.8 1.5-.4.4-.8.8-1.4 1-.6.3-1.3.4-2 .4s-1.4-.1-2-.4c-.6-.3-1.1-.6-1.4-1-.4-.4-.7-1-.8-1.5-.1-.6-.3-1.3-.3-2s.2-1.5.3-2zm1.7 3.5c.1.4.4.8.6 1.1.3.3.6.6 1 .7.4.1.7.3 1.1.3s.8-.1 1.1-.3c.4-.1.7-.4 1-.7s.4-.7.6-1.1c.1-.4.3-1 .3-1.5 0-.6-.1-1.1-.3-1.5-.1-.4-.4-.8-.6-1.1-.3-.3-.6-.6-1-.7-.4-.1-.7-.3-1.1-.3s-.8.1-1.1.3c-.4.1-.7.4-1 .7-.3.3-.4.7-.6 1.1-.1.4-.3 1-.3 1.5s.2.9.3 1.5zm8.4-4.9v-1.4h1.7v-1.4c0-.7.3-1.4.7-1.7.4-.4 1.1-.6 2-.6h.6c.1 0 .4 0 .6.1v1.4c-.1 0-.3-.1-.4-.1h-.4c-.4 0-.7.1-.8.3-.1.1-.3.4-.3.8v1.3H86v1.4h-2v8h-1.8v-8h-1.7v-.1z"/></g><g><path class="st3" d="M79.5 45.9c.1 0-.8 1.4-.7 1.4l.4-.3s-.4 1.1-.4 1.3c0 0 .7-.4.8-.4l-.8 1.4s1.4-.8 1.5-.8c0 .1-2.9 2.5-2.8 2.7 0 .1 3.4-2.1 3.5-2 0 .1-4.2 3.2-4.1 3.4 0 .1 4.1-2.5 4.1-2.4s-3.8 2.9-3.6 3.1c0 .1 4.1-2.5 4.2-2.4 0 .1-4.1 3.2-4.1 3.4 0 .1 4.2-2.5 4.2-2.5 0 .1-3.9 3.1-3.9 3.2.1.1 4.5-2.8 4.6-2.7 0 .1-4.5 3.4-4.3 3.5 0 .1 4.2-2.5 4.3-2.5 0 .1-2.8 2.5-2.8 2.7 0 0 2.1-1.3 2.2-1.3"/><path class="st4" d="M87.2 53.2s0-.1 0 0l-.2.7.1-.1-.1.5s.6-.4.7-.4l-.8 1s1.1-.7 1.1-.6c0 0-2.1 1.7-2 1.7 0 0 2-1.3 2-1.1 0 0-2 1.5-1.8 1.7 0 0 2.2-1.4 2.2-1.3l-2.7 2.1 3.1-1.8c0 .1-2.8 2.1-2.8 2.1s2.9-1.8 2.9-1.7c0 0-2.5 2-2.4 2 0 0 2.7-1.7 2.7-1.5l-2 1.7s1.8-1.1 2-1.1l-1.1 1.1s.4-.3.6-.3m-20.5-10s-.3.7-.1.7l.1-.1v.5l.1-.1-.8 1 1.1-.7-1.8 1.5 1.8-1.1s-2.1 1.7-2 1.8c0 0 2.7-1.7 2.8-1.5 0 0-2.8 2.1-2.8 2.2s3.1-1.8 3.1-1.8c0 .1-2.8 2.1-2.8 2.2l2.8-1.7c0 .1-2.7 2-2.7 2.1 0 0 2.8-1.7 2.9-1.7l-2.1 1.7 1.8-1.1s-1.4 1.3-1.3 1.3l1.3-.7"/><path class="st5" d="M47.2 45.1s-.3.7-.3.8l.1-.1v.7l.1-.1-.8 1.1 1.3-.7s-2 1.7-2 1.8l2.1-1.3-2.4 2c0 .1 3.1-1.8 3.1-1.8 0 .1-3.2 2.4-3.1 2.5 0 .1 3.4-2.1 3.5-2 0 .1-3.4 2.4-3.2 2.5 0 .1 3.2-2 3.2-1.8 0 .1-3.1 2.2-2.9 2.4 0 0 3.2-2 3.2-1.8l-2.4 2s2.1-1.3 2.2-1.3c0 0-1.5 1.4-1.5 1.5 0 0 1.5-1 1.5-.8"/><path class="st3" d="M57.4 49.6s-.4 1.1-.4 1.3l.3-.1v1l.3-.1-1.3 1.7 1.8-1.1c0 .1-2.9 2.7-2.9 2.7 0 .1 3.1-1.8 3.1-1.8 0 .1-3.6 2.9-3.5 3.1 0 .1 4.8-2.8 4.8-2.8 0 .1-4.9 3.6-4.9 3.8.1.1 5.3-3.2 5.3-3.1.1.1-5 3.6-5 3.8.1.1 5-3.1 5-2.9.1.1-4.8 3.5-4.8 3.6 0 .1 4.9-3.1 5-2.9 0 .1-3.9 3.1-3.8 3.1 0 .1 3.5-2.1 3.6-2.1 0 .1-2.7 2.4-2.7 2.5 0 0 2.7-1.7 2.8-1.5"/><path class="st6" d="M60.9 21.3l1.1-.7c0 .1-3.8 2.9-3.8 3.1.1.1 6.6-4.1 6.7-3.8.1.3-8.3 5.5-8.3 5.6.1.3 10.4-6.3 10.5-6 .1.3-10.8 6.9-10.6 7.1.1.3 11.8-7.3 11.9-6.9"/><path class="st6" d="M44.8 25.9l.8-.4c0 .1-3.5 2.8-3.4 2.9.1.1 6.4-3.9 6.6-3.8s-6.9 4.8-6.7 4.9c.1.3 8.3-5 8.4-4.9.1.3-9 5.9-8.8 6 .1.3 10.1-6.2 10.2-5.9S41 31.6 41.2 31.9c.1.3 11.5-7 11.6-6.7s-11.6 7.1-11.5 7.6c.1.3 11.8-7.3 12-6.9.1.3-12.2 7.6-12 7.8.3.4 12.6-7.7 12.9-7.4.1.3-13.2 8.1-13 8.5.3.4 13.6-8.3 13.9-8 .3.4-13.6 8.4-13.3 8.7.1.3 13.6-8.3 13.7-8 .1.3-13.7 8.4-13.4 8.8.4.7 27.6-17.1 28.1-16.2.4.6-27.7 16.1-27.4 16.8.2.6 27.6-17 28.2-16.3.4.7-28.3 16.2-27.9 16.9.4.7 28.6-17.6 29.1-16.8.4.6-29.4 16.8-29 17.6.4.7 29.3-17.8 29.7-17.1.3.7-29.1 16.8-28.7 17.5.4.7 29.1-17.8 29.5-17.1.4.7-29.1 16.9-28.7 17.5.4.7 28.3-17.2 28.7-16.5.4.7-28.8 16.8-28.4 17.4.4.7 29.3-17.8 29.7-17.1.4.8-28.8 16.5-28.3 17.4.4.7 28.1-17.1 28.4-16.4.3.6-27.9 16.2-27.4 16.8.4.8 27.9-17.1 28.3-16.4.3.8-27.4 15.8-27 16.5s26.7-16.1 27-15.5c.4.7-26.5 15.4-26 16 .4.7 26.3-16 26.6-15.4.3.6-25.9 15.1-25.6 15.7.4.6 25.6-15.8 26-15 .3.6-24.8 14.4-24.4 15.1.4.7 24.5-15.1 24.9-14.4.4.6-24.4 14.3-23.9 14.8.3.6 23.7-14.3 23.9-13.9.5.8-22.5 13.3-22.2 14 .3.6 23.8-14.4 24.1-14 .4.7-23.1 13.6-22.8 14.1.4.6 23.2-14.4 23.7-13.7.3.6-22.5 13.2-22.1 13.7.3.6 23.1-14 23.4-13.4.4.7-22.3 13-22 13.7.3.6 22.8-13.9 23.1-13.3.3.6-22.1 13.2-22 13.7.3.6 22.4-13.7 22.7-13 .4.6-21 12.5-20.7 12.9.3.4 21.1-12.7 21.4-12.3.3.4-19.7 11.8-19.5 12.2.3.6 20-12.2 20.3-11.8.3.4-19 11.3-18.8 11.9.3.4 18.2-11.2 18.6-10.8.3.4-17.9 10.6-17.6 11.1.3.4 19.5-11.9 19.7-11.3.3.4-18.1 10.9-17.9 11.3.3.4 19.3-11.8 19.6-11.3.3.4-17.5 10.5-17.2 10.9.3.6 18.3-11.2 18.6-10.8.3.4-17.1 10.1-16.8 10.6.3.4 16.8-10.4 17.1-9.9.3.4-15.7 9.4-15.4 9.8.1.3 15.8-9.7 16-9.2.1.3-14.6 8.8-14.3 9.2.1.3 14.7-9 14.8-8.5.1.3-12.3 7.8-12.2 8.1.3.4 12.5-7.6 12.6-7.3.1.3-10.4 6.6-10.2 6.9.1.3 9.5-5.9 9.7-5.6.1.3-7.3 4.9-7.1 5.2.1.1 7.3-4.5 7.4-4.3 0 .1-3.5 2.8-3.4 2.9l1-.6"/><path class="st7" d="M91.6 35.2v.1l.1.1zm.1.9s.2 0 0 0c.1 0-.1-.6-.1-.6-.2.2.3.5.1.6zm0 .2c-.1.1 0 .3 0 .4-.1-.1.2-.4 0-.4zm-19.2 6s.2 0 0 0c.2 0 0 0 0 0z"/><path class="st7" d="M67.1 43c1-.1 2.1.1 3.2 0h-.1c2.8 0 5.3-.4 8.1-.8l-.1.1c.1 0 .3-.1.4-.1l-.1.1c.6.1 1.7-.3 2.1-.3.1 0 .3-.1.1-.1 2.1-.4 4.3-.8 6.4-1.7.1 0 .1 0 .1.1.8-.4 1.7-.8 2.4-1.4l.3-.3c.1-.1.3-.1.3-.1.1-.1.3-.3.6-.4.3-.3.6-.7.8-1 0-.1-.1.1-.1 0-.3.4-.4 1-.8 1.3v-.1c-.3.1.1.1-.3.3-.1 0 0-.1-.1 0-.1 0-.1.1-.3.1 0 0-.1 0-.1.1l-.1.1-.1.1c-.1.1-.3.3-.4.3-.3.3-.7.4-1 .7-.3-.1-.8.3-1.1.3-.1.1-.4.1-.4.3-2.9.8-5.9 1.4-9 1.8-1.4.6-3.2.3-4.9.4-.8.2-1.6.2-2.3.2l-.6.1c-4.1-.1-8.3 0-12.3-.6-4.1-.4-7.7-1.1-11.3-2.1-.6-.1-1.1-.3-1.5-.4h.1c-1.1-.4-2.1-1.3-2.8-2.1-1.1-1-1.8-2.5-2-4.1-.3-1.5 0-3.1.4-4.5.7-1.7 2-3.2 3.6-4.2 1.7-1 3.6-1.4 5.6-1.3 1.1.1 2.2.6 3.2 1.1 1 .7 1.7 1.3 2.7 2.5.1-.4.3-.8.4-1.4.1-.4.3-.7.4-1.1.7-1.4 1.7-2.7 2.9-3.8 1.1-1.1 2.7-2 4.2-2.2 1-.1 2.1-.3 3.2-.4 1.1-.1 2.2 0 3.1.4 3.5 1.5 6.3 3.9 7.8 7.6.1.4.1 1 .3 1.3.6-.1 1.4-.3 2.1-.3s1.5.1 2.2.4c1.4.6 2.7 1.7 3.1 3.1.1.3.3.6.4.8.4-.3 1.1-.6 1.8-.6s1.4.1 2 .3v-.1c.4.4 1.4.4 1.5 1 .1.3.8.3.8.6h.1c.3.4 0 .1 0 .4 0 .1.1 0 .3.3-.3.1.4 1 0 1.1 0-.1-.1.3-.3-.1 0 .1 0 .7.3.7.1 0 .4.3.6-.1l.1-.1c.1-.1 0-.1.1-.1 0-.6.1-.7.1-1.1-.3-.3-.3-.7-.4-.8v-.1c0-.3-.7-.4-.3-.4-.8-1-2.1-1.7-3.5-1.7-.1 0-1 0-.7.3-.1-.1-.6-.1-.8 0-.4 0-.7.3-.7.3 0-.1 0-.1-.1 0 0 .1-.1 0 0-.1-.1.1-.6-1.1-1-1.1 0-.1 0-.1.1-.1-.7-1-1.8-1.8-2.8-2.2-.8-.1-2.1-.7-2.9-.3H79l-.1-.1V27c0-.1-.1-.3-.1-.4-.1-.3-.1-.4-.3-.7-.3-.4-.4-.8-.7-1.1.1-.4-.1-.7-.3-1.1-.4-.4-1.3-1.5-2-2.1 0-.1-.6-.6-.6-.7-2.2-1.5-5.5-2.8-8.4-2.9-.4.1-.8.4-1.1.6-.6.1-1 0-1.5.1v-.1c-.4.3-1 .1-1.5.6H62s0-.1.1-.3c-1.7.7-3.2 1.8-4.3 3.2-.6.7-1.1 1.4-1.5 2.2-.1.4-.4.8-.6 1.3-.1.3-.1.4-.1.7l-.3-.3-.4-.4c-.4-.3-.8-.7-1.3-1h.1s-.1-.1-.4-.1c-.1-.1-.4-.1-.4-.1h.1c-1-.7-2.2-.8-3.2-1 0 0 .1-.1 0-.1-.8.1-1.3-.3-1.8.1 0 0-.1-.1 0-.1-2.4.3-4.5 1.4-6.2 3.1-.6.8-1.1 1.7-1.4 2.7-.4 1-.6 2-.6 2.9 0 2.5.8 5.3 2.9 7 .8.7 1.5 1.1 2.5 1.5v.1c.4.1.8.3 1.3.3 1.4.4 2.8 1.1 4.2 1.1l-.1.1c.3-.1 1.1.3 1.1 0l.3.1c1.4-.1 2.2.6 3.9.4h-.1c.4 0 1 0 1.3.1H57c1.3.4 2.8.1 4.2.3h-.7c.7-.1 2 .1 2.8 0l.4-.1v.1c1.1.1 2.3 0 3.4 0zm11.5-.8z"/><path class="st7" d="M92.6 33.5v.1c.1 0 0 0 0-.1zM92.6 35.6v.3zm-.2 1.1c0-.1.2 0 0 0V36c0 .3.2.4 0 .7zm0 .1c-.1.3-.1.3-.1.4 0-.1.1-.4.1-.4zM73 43.1s.1 0 0 0c.1 0 0 0 0 0zm-5.6.3h3.2-.1c2.8-.1 5.3-.3 8.1-.7h-.1c.1 0 .3 0 .4-.1h-.1c.6 0 1.7-.3 2.1-.3h.1c2.1-.3 4.5-.8 6.4-1.5h.1c.8-.4 1.8-.7 2.5-1.4.1-.1.4-.3.6-.4s.4-.3.6-.4c.3-.3.6-.7.8-1.1 0-.1-.1.1 0 0-.3.6-.6 1-1 1.3-.3.3 0 .1-.4.3-.1.1 0 0 0 0-.1 0-.1.1-.3.1l-.3.3c-.1.1-.3.3-.6.4-.3.3-.7.4-1.1.7-.1 0-.8.3-1.1.4h-.5c-2.9.8-6 1.4-9.1 1.7-1.4.3-3.2.3-4.9.4-.6 0-1.4.1-2.1.1H70c-4.1 0-8.3 0-12.3-.4-4.1-.4-7.7-1-11.5-2.1-.6-.1-1.1-.3-1.5-.6h.1c-1.3-.6-2.1-1.3-2.9-2.2-1-1.1-1.7-2.7-2-4.2-.3-1.5 0-3.2.4-4.5.7-1.7 2-3.2 3.6-4.2 1.7-1 3.6-1.4 5.6-1.1 1.1.1 2.2.6 3.2 1.1.4.3 1 .6 1.4 1 .3.1.4.4.6.6.1.1.4.4.6.7.1-.6.3-.8.4-1.1s.3-.7.4-1c1.4-2.8 4.1-5.2 7.3-5.9 1-.3 2.1-.4 3.2-.4s2.2.1 3.1.4c3.6 1.1 6.6 3.9 7.8 7.6.1.4.3.8.3 1.3v.1h.2l.3-.1c.3 0 .4-.1.7-.1.8-.1 1.8 0 2.7.3 1.7.4 3.1 1.7 3.8 3.2.1.1.1.4.3.6.1.1.1.4.3.3.3-.3.7-.4 1.1-.6.8-.3 1.8-.1 2.5.1.6.3 1.3.6 1.5 1 .1.3.6.6.7.7.3.4 0 0 .1.3 0 .1 0 0 .1.3 0 .1.3 1 .1 1 0-.3 0 .3-.1-.1 0 .1.1.8.1.7 0 0 .1.3.1-.1v-.2c0-.6 0-.7-.1-1-.1-.3-.3-.6-.4-.8v-.1c0-.1-.4-.4-.3-.4-.7-1-2-1.5-3.2-1.7-.1 0-1 0-.7.1-.3 0-1.3.3-1.5.4-.1 0-.3.1-.4.1 0 0-.1-.1-.1-.6-.1-.1-.6-1-.8-1.3v-.1c-.7-1-1.8-1.7-2.7-2.1-.8-.3-2-.6-2.7-.4-.3 0-.7 0-1.1.1h-.4l-.1-.4v.1c-.1-.8-.7-2-1-2.5 0-.3-.3-.7-.4-1-.3-.6-1.1-1.5-1.8-2.1l-.6-.6c-2.1-1.7-5.2-2.8-8.1-2.8-.4 0-.8.1-1.1.3-.6 0-1 .1-1.5.3h.1c-.4.1-1 .3-1.5.6l-.3.1.1-.1c-1.5.7-3.1 1.7-4.2 3.1-.6.7-1.1 1.4-1.5 2.1-.1.4-.4.8-.6 1.3-.1.1-.1.4-.3.6l.6.6-.1-.1-.3-.3c-.1-.1-.3-.4-.6-.6-.4-.3-.7-.7-1.1-1l.1.1s-.1-.1-.4-.3c-.1-.1-.3-.1-.3-.1h.1c-1-.6-2.1-.8-3.2-1 0 0 .1 0 0 0-.8 0-1.3-.1-1.7 0-2.2.1-4.5 1.3-6 2.9-1.3 1.4-2.1 3.4-2.1 5.3-.1 2.5.8 5.2 2.8 7 .8.7 1.4 1.1 2.4 1.5.4.1.8.3 1.3.4 1.4.4 2.8.8 4.2 1.1h-.1c.3 0 1.1.3 1 .1l.3.1c1.3.1 2.4.4 3.9.6h-.1c.4 0 .8.1 1.3.1H57c1.3.3 2.8.3 4.2.3h-.1c.7 0 2 .1 2.8.1h.1c1.3-.2 2.2-.2 3.4-.2zm11.6-.7zm13.6-8.5c.1 0 .1 0 0 0 .1 0 0 0 0 0z"/><path class="st8" d="M57.6 59.5zm.1-.1c0 .3 0 0 0 0zm.1 0c0 .1 0 0 0 0s-.1 0 0 0zm2.8-2.4z"/><path class="st8" d="M60.4 55.9c.1.1 0 .4 0 .6 0 .6 0 1-.3 1.5v.1c-.1 0-.1.3-.3.3-.3.4-.6.7-1 .8-.3.3-.8.3-1.1.1v.1c.1 0 .3-.1.3 0 .1 0 0-.1.1 0 .1 0 .4 0 .6-.1 0 .1.1 0 .3 0 0 0 .1 0 .1-.1.7-.3 1-.8 1.3-1.4 0-.4.3-.6.3-1v-.4l-.1-.1c.1-.8-.3-1.5-.7-2.2-.4-.8-.8-1.4-1.4-2.1-.1-.1-.1-.4-.3-.6-.4-.4-.4-1.1-.7-1.5 0-.1 0-.4-.1-.6l-.1-.4v.4c0 .4-.1 1-.1 1.5 0 .6-.3 1.1-.4 1.5-.3.6-.4 1.1-.8 1.5-.4.1-.4.7-.7 1-.6.6-.6 1.4-.3 2 0 .7.4 1.1.8 1.7.3.1.4.4.8.6.1.1.3-.1.3 0s.1-.1.1-.1c.1 0 0 0 0 0s0-.1 0 0 .1 0 .1.1c0 0 .1.1 0 .1 0 0 .1 0 .1-.1v-.4c-.1 0-.1-.1-.1-.1 0 .1-.1 0-.1 0 0-.1-.1.1-.1 0-.1 0-.4 0-.6-.1H56c0-.1-.1-.1-.1-.3 0-.1-.1 0-.1-.1-.1.1-.1-.1-.3-.1-.1-.1-.1-.3-.3-.4-.1 0-.1-.3-.3-.4v-.4c0-.1 0-.3-.1-.4.1 0 .1-.1.1-.1-.1-.1 0-.3 0-.4.1 0 0-.1.1-.1-.1-.6.1-1 .6-1.3v-.3c0-.1.1-.1.3-.1 0-.1.1-.1.1-.3v-.1.1c.6-.6.8-1.5 1-2.4V51c.1-.1 0-.4.1-.6 0-.1.1-.3 0-.3 0-.4 0-.8.1-1.3h-.4c.3.3.1.7.4 1 .3.4.3.8.6 1.4.1.1.1.3.3.4.3.1.3.7.6.8.1 0 .1.1.1.1v.1c.3.1.1.4.4.6l.1.1c0 .3.3.4.4.7h-.1c.1.1.1.3.3.4.3 1.1.5 1.3.5 1.5zm-.2 2.1zm-2.9.8s0 .2 0 0zM68.2 53.6zm.1 0c-.1.2 0 0 0 0zm0 0zm1.7-1.5zm-.1-.6v.4c0 .3 0 .6-.1.8-.1 0-.1.1-.1.1-.1.3-.3.4-.6.6-.1.1-.4.1-.7.1h.1c.1 0 .3 0 .3-.1h.1v-.1c.4-.1.6-.6.7-.8 0-.3.1-.4.1-.6v-.3c.1-.4-.1-1-.4-1.4-.3-.4-.4-.8-.8-1.3-.1-.1-.1-.3-.1-.4-.3-.3-.3-.7-.4-1v-.7 1.3c0 .3-.1.7-.3 1-.1.3-.3.7-.6 1-.3.1-.3.4-.4.6-.3.3-.3.8-.1 1.3 0 .4.3.7.4 1 .1 0 .3.3.4.3 0 .1.1 0 .1 0s.1-.1.1 0 .1 0 .1.1v.1h.1v-.1l-.1-.1h-.1s0 .1 0 0h-.5c0-.1-.1-.1-.1-.1 0-.1-.1 0-.1-.1 0 0 0-.1-.1 0-.1-.1-.1-.1-.1-.3-.1 0 0-.1-.1-.3v-.3c0-.1 0-.1-.1-.3.1 0 .1 0 .1-.1v-.4c0-.3.1-.6.4-.8v-.1s.1 0 .1-.1c0 0 .1 0 .1-.1.4-.4.4-1 .6-1.4v-.5c0-.1.1-.1 0-.1v-.7h-.3c.1.1.1.4.3.6.1.3.1.6.3.8 0 .1.1.1.1.3.1.1.1.4.4.6 0 0 0 .1.1 0 .1 0 .1.3.3.3 0 0 .1 0 .1.1s.1.3.3.4c.1 0 .1.1.1.3.4.3.4.4.4.5zm-.2 1.3zm-1.6.6zM79 55.7zm.3-.1c-.2.3-.2 0 0 0zm0 0c0 .1 0 0 0 0zm2.8-2.4c.1 0 0 0 0 0z"/><path class="st8" d="M81.9 52.1c.1.1 0 .4 0 .6 0 .6 0 1-.3 1.5v.1c-.1 0-.1.3-.3.3-.3.4-.6.7-1 .8-.3.3-.8.3-1.1.1v.1c.1 0 .3-.1.3 0 .1 0 0-.1.1 0 .1 0 .4 0 .6-.1 0 .1.1 0 .3 0 0 0 .1 0 .1-.1.7-.3 1-.8 1.3-1.4 0-.4.3-.6.3-1v-.4l-.1-.1c.1-.8-.3-1.5-.7-2.2-.4-.8-.8-1.4-1.4-2.1-.1-.1-.1-.4-.3-.6-.4-.4-.4-1.1-.7-1.5 0-.1 0-.4-.1-.6l-.1-.4v.4c0 .4-.1 1-.1 1.5 0 .6-.3 1.1-.4 1.5-.3.6-.4 1.1-.8 1.5-.4.1-.4.7-.7 1-.6.6-.6 1.4-.3 2 0 .7.4 1.1.8 1.7.3.1.4.4.8.6.1.1.3-.1.3 0s.1-.1.1-.1c.1 0 0 0 0 0s0-.1 0 0 .1 0 .1.1c0 0 .1.1 0 .1 0 0 .1 0 .1-.1v-.4c-.1 0-.1-.1-.1-.1 0 .1-.1 0-.1 0 0-.1-.1.1-.1 0-.1 0-.4 0-.6-.1h-.1c0-.1-.1-.1-.1-.3 0-.1-.1 0-.1-.1-.1.1-.1-.1-.3-.1-.1-.1-.1-.3-.3-.4-.1 0-.1-.3-.3-.4V53c0-.1 0-.3-.1-.4.1 0 .1-.1.1-.1-.1-.1 0-.3 0-.4.1 0 0-.1.1-.1-.1-.6.1-1 .6-1.3v-.3c0-.1.1-.1.3-.1 0-.1.1-.1.1-.3v-.1.1c.6-.6.8-1.5 1-2.4v-.1c.1-.1 0-.4.1-.6 0-.1.1-.3 0-.3 0-.4 0-.8.1-1.3h-.4c.3.3.1.7.4 1 .3.4.3.8.6 1.4.1.1.1.3.3.4.3.1.3.7.6.8.1 0 .1.1.1.1.3.1.1.4.4.6l.1.1c0 .3.3.4.4.7h-.1c.1.1.1.3.3.4.2.9.2 1.2.3 1.3zm-.3 2.1zm-2.9.8z"/><g><path class="st8" d="M47.3 52zm.2 0c-.2.1 0-.2 0 0zm0 0s0-.2 0 0zm2.2-2z"/><path class="st8" d="M49.4 49.2c.1.1 0 .3 0 .4 0 .4 0 .7-.1 1.1v.1c-.1 0-.1.3-.1.3-.1.3-.4.6-.7.7-.3.3-.6.1-.8.1h.3s0-.1.1 0c.1 0 .3 0 .4-.1h.3v-.1c.6-.1.7-.7 1-1 0-.3.1-.4.1-.7v-.4c.1-.6-.3-1.3-.6-1.7-.3-.6-.6-1.1-1.1-1.5-.1-.1-.1-.3-.3-.4-.3-.3-.3-.8-.6-1.3 0-.1 0-.3-.1-.4v-.4.4c0 .4 0 .8-.1 1.1 0 .4-.3.8-.3 1.3-.1.4-.3.8-.7 1.1-.3.1-.3.6-.6.7-.4.4-.4 1.1-.1 1.5 0 .6.4.8.6 1.3.3 0 .3.4.6.4.1.1.3-.1.3 0s.1-.1.1 0 .1 0 .1.1v.1h.1v-.1c-.1 0-.1-.1-.1-.1H47s-.1.1 0 0h-.5c0-.1-.1-.1-.1-.1 0-.1-.1 0-.1-.1-.1 0-.1-.1-.1 0-.1-.4-.1-.6-.1-.7-.1 0-.1-.3-.1-.3v-.3c0-.1 0-.3-.1-.3.1 0 .1-.1.1-.1v-.4s0-.1.1-.1c-.1-.4.1-.8.4-1V48s.1 0 .1-.1.1 0 .1-.1c.4-.4.6-1.3.7-1.8v-.1c.1-.1 0-.3 0-.4 0-.1.1-.1 0-.3v-1h-.3c.1.3.1.6.3.8.1.3.3.7.4 1 0 .1.1.3.3.3.3.1.1.6.4.7.1 0 .1.1.1 0 .3 0 .1.3.3.4l.1.1c0 .3.3.3.3.6.1 0 .1.3.1.3v.8zm-.1 1.6zm-2.2.7z"/></g><g><path class="st8" d="M87.4 58.8zm.1 0c-.1 0 0-.1 0 0zm0 0s0-.1 0 0zm1.7-1.5z"/><path class="st8" d="M89.1 56.7v.4c0 .3 0 .6-.1.8-.1 0-.1.1-.1.1-.1.3-.3.4-.6.6-.1.1-.4.1-.7.1h.1c.1 0 .3 0 .3-.1h.1v-.1c.4-.1.6-.6.7-.8 0-.3.1-.4.1-.6v-.3c.1-.4-.1-1-.4-1.4-.3-.4-.4-.8-.8-1.3.3.1.1 0 .1-.1-.3-.3-.3-.7-.4-1v-.7 1.3c0 .3-.1.7-.3 1-.1.3-.3.7-.6 1-.3.1-.3.4-.4.6-.3.3-.3.8-.1 1.3 0 .4.3.7.4 1 .1 0 .3.3.4.3 0 .1.1 0 .1 0s.1-.1.1 0 .1 0 .1.1v.1h.1v-.1l-.1-.1H87s0 .1 0 0h-.5c0-.1-.1-.1-.1-.1 0-.1-.1 0-.1-.1 0 0 0-.1-.1 0-.2-.3-.2-.3-.2-.5-.1 0 0-.1-.1-.3v-.3c0-.1 0-.1-.1-.3.1 0 .1 0 .1-.1v-.4c0-.3.1-.6.4-.8v-.1s.1 0 .1-.1c0 0 .1 0 .1-.1.4-.4.4-1 .6-1.4v-.5c0-.1.1-.1 0-.1v-.7h-.3c.1.1.1.4.3.6.1.3.1.6.3.8 0 .1.1.1.1.3.1.1.1.4.4.6 0 0 0 .1.1 0 .1 0 .1.3.3.3 0 0 .1 0 .1.1s.1.3.3.4c.1 0 .1.1.1.3.3.1.3.3.3.4zm-.2 1.3zm-1.7.4z"/></g></g></svg>