<svg id="Layer_1" xmlns="http://www.w3.org/2000/svg" viewBox="0 0 128 128"><style>.st0{fill:#b2b3b5}.st1{fill:#FFF}</style><ellipse class="st0" cx="64" cy="64" rx="64" ry="64"/><path class="st1" d="M46 46.2c-.8-.6-1.8-.9-3-.9-1 0-1.8.2-2.5.5-.7.4-1.3.9-1.7 1.5-.4.6-.8 1.3-1 2.1-.2.8-.3 1.6-.3 2.5 0 .9.1 1.8.3 2.6.2.8.5 1.6 1 2.2.4.6 1 1.1 1.7 1.5.7.4 1.5.5 2.5.5.7 0 1.4-.1 1.9-.4.6-.2 1-.6 1.4-1 .4-.4.7-.9.9-1.5.2-.6.4-1.2.4-1.9h2.2c-.2 2.1-.9 3.7-2.1 4.8-1.2 1.1-2.8 1.7-4.9 1.7-1.3 0-2.4-.2-3.3-.7-.9-.4-1.7-1-2.4-1.8-.6-.8-1.1-1.7-1.4-2.7-.3-1-.5-2.1-.5-3.3 0-1.2.2-2.3.5-3.3s.8-2 1.5-2.7c.6-.8 1.5-1.4 2.4-1.8 1-.4 2.1-.7 3.3-.7.9 0 1.7.1 2.4.3.8.2 1.4.6 2 1 .6.4 1.1 1 1.5 1.7.4.7.7 1.4.8 2.3h-2.2c0-1-.6-1.9-1.4-2.5zM61.2 60.5c-.5 0-.9-.1-1.2-.4-.3-.3-.4-.7-.4-1.4-.5.6-1.2 1.1-1.9 1.4-.7.3-1.5.4-2.3.4-.5 0-1-.1-1.5-.2s-.9-.3-1.2-.6c-.4-.3-.6-.6-.8-1-.2-.4-.3-.9-.3-1.5 0-.7.1-1.2.3-1.6.2-.4.5-.8.9-1 .4-.3.8-.5 1.3-.6.5-.1 1-.3 1.5-.3.5-.1 1-.2 1.5-.2.5-.1.9-.1 1.3-.2s.7-.2.9-.4c.2-.2.3-.5.3-.8 0-.4-.1-.8-.2-1-.2-.3-.4-.5-.6-.6-.3-.1-.5-.2-.8-.3-.3 0-.6-.1-.9-.1-.8 0-1.5.2-2.1.5-.5.3-.8.9-.9 1.8h-1.9c0-.7.2-1.3.5-1.9.3-.5.6-.9 1.1-1.2.5-.3 1-.5 1.6-.7.6-.1 1.2-.2 1.9-.2.5 0 1.1 0 1.6.1s1 .2 1.4.5c.4.2.8.6 1 1 .3.4.4 1 .4 1.7v6.1c0 .5 0 .8.1 1 .1.2.2.3.5.3.2 0 .4 0 .6-.1v1.5c-.7-.1-1.1 0-1.7 0zm-2.8-6c-.4.1-.8.2-1.2.2-.4.1-.9.1-1.3.2l-1.2.3c-.4.2-.6.4-.9.7-.2.3-.3.7-.3 1.2 0 .3.1.6.2.8.1.2.3.4.5.5.2.1.4.2.7.3.3.1.6.1.9.1.6 0 1.2-.1 1.6-.3.5-.2.8-.4 1.1-.7.3-.3.5-.6.6-.9.1-.3.2-.6.2-.9v-2c-.1.3-.5.5-.9.5zM66.1 43.9V50c.3-.7.8-1.1 1.5-1.4.7-.3 1.4-.4 2.3-.4.9 0 1.7.2 2.4.5s1.3.7 1.7 1.3c.4.6.8 1.2 1 2 .2.7.3 1.5.3 2.4 0 .8-.1 1.6-.3 2.4-.2.7-.6 1.4-1 2-.4.6-1 1-1.7 1.3-.7.3-1.5.5-2.4.5-.3 0-.6 0-1-.1s-.7-.2-1.1-.3c-.4-.1-.7-.3-1-.6-.3-.2-.6-.5-.8-.9v1.6h-1.9V43.9h2zm7 8.7c-.1-.5-.4-1-.7-1.4-.3-.4-.7-.7-1.1-1-.5-.2-1-.4-1.6-.4-.7 0-1.2.1-1.7.4-.5.3-.8.6-1.1 1-.3.4-.5.9-.6 1.4-.1.5-.2 1.1-.2 1.6 0 .6.1 1.1.2 1.7.1.5.4 1 .7 1.4.3.4.7.7 1.2 1 .5.3 1 .4 1.7.4s1.2-.1 1.7-.4c.4-.3.8-.6 1.1-1 .3-.4.5-.9.6-1.5.1-.5.2-1.1.2-1.7-.2-.4-.2-1-.4-1.5zM77.6 46.3v-2.4h1.9v2.4h-1.9zm1.9 2.1v11.8h-1.9V48.4h1.9zM84.1 48.4v1.9c.8-1.4 2.1-2.1 3.8-2.1.8 0 1.4.1 1.9.3.5.2.9.5 1.3.9.3.4.5.8.7 1.4.1.5.2 1.1.2 1.7v7.8h-1.9v-8c0-.7-.2-1.3-.6-1.7-.4-.4-1-.6-1.8-.6-.6 0-1.1.1-1.5.3-.4.2-.8.4-1.1.8-.3.3-.5.7-.7 1.2-.1.4-.2.9-.2 1.5v6.7h-1.9V48.4h1.8zM49.7 72.6c-.8-.6-1.8-.9-3-.9-1 0-1.8.2-2.5.5-.7.4-1.3.9-1.7 1.5-.4.6-.8 1.3-1 2.1-.2.8-.3 1.6-.3 2.5 0 .9.1 1.8.3 2.6.2.8.5 1.6 1 2.2.4.6 1 1.1 1.7 1.5.7.4 1.5.5 2.5.5.7 0 1.4-.1 1.9-.4.6-.2 1-.6 1.4-1 .4-.4.7-.9.9-1.5.2-.6.4-1.2.4-1.9h2.2c-.2 2.1-.9 3.7-2.1 4.8-1.2 1.1-2.8 1.7-4.9 1.7-1.3 0-2.4-.2-3.3-.7-.9-.4-1.7-1-2.4-1.8-.6-.8-1.1-1.7-1.4-2.7-.3-1-.5-2.1-.5-3.3 0-1.2.2-2.3.5-3.3s.8-2 1.5-2.7c.6-.8 1.5-1.4 2.4-1.8 1-.4 2.1-.7 3.3-.7.9 0 1.7.1 2.4.3.8.2 1.4.6 2 1 .6.4 1.1 1 1.5 1.7.4.7.7 1.4.8 2.3h-2.2c0-1-.6-1.9-1.4-2.5zM64.9 86.9c-.5 0-.9-.1-1.2-.4-.3-.3-.4-.7-.4-1.4-.5.6-1.2 1.1-1.9 1.4-.7.3-1.5.4-2.3.4-.5 0-1-.1-1.5-.2s-.9-.3-1.2-.6c-.4-.3-.6-.6-.8-1-.2-.4-.3-.9-.3-1.5 0-.7.1-1.2.3-1.6.2-.4.5-.8.9-1 .4-.3.8-.5 1.3-.6.5-.1 1-.3 1.5-.3.5-.1 1-.2 1.5-.2.5-.1.9-.1 1.3-.2s.7-.2.9-.4c.2-.2.3-.5.3-.8 0-.4-.1-.8-.2-1-.2-.3-.4-.5-.6-.6-.3-.1-.5-.2-.8-.3-.3 0-.6-.1-.9-.1-.8 0-1.5.2-2.1.5-.5.3-.8.9-.9 1.8h-1.9c0-.7.2-1.3.5-1.9.3-.5.6-.9 1.1-1.2.5-.3 1-.5 1.6-.7.6-.1 1.2-.2 1.9-.2.5 0 1.1 0 1.6.1s1 .2 1.4.5c.4.2.8.6 1 1 .3.4.4 1 .4 1.7v6.1c0 .5 0 .8.1 1 .1.2.2.3.5.3.2 0 .4 0 .6-.1v1.5c-.7-.1-1.1 0-1.7 0zm-2.8-6c-.4.1-.8.2-1.2.2-.4.1-.9.1-1.3.2l-1.2.3c-.4.2-.6.4-.9.7-.2.3-.3.7-.3 1.2 0 .3.1.6.2.8.1.2.3.4.5.5.2.1.4.2.7.3.3.1.6.1.9.1.6 0 1.2-.1 1.6-.3.5-.2.8-.4 1.1-.7.3-.3.5-.6.6-.9.1-.3.2-.6.2-.9v-2c-.1.3-.5.4-.9.5zM69.3 84c.2.3.4.5.7.7.3.2.6.3 1 .4.4.1.8.1 1.2.1.3 0 .6 0 1-.1.3 0 .6-.1.9-.3.3-.1.5-.3.7-.5.2-.2.3-.5.3-.9 0-.5-.2-.9-.6-1.1-.4-.3-.9-.5-1.4-.6-.6-.2-1.2-.3-1.9-.4-.7-.1-1.3-.3-1.9-.5-.6-.2-1-.6-1.4-1-.4-.4-.6-1-.6-1.8 0-.6.1-1.1.4-1.5.3-.4.6-.8 1-1 .4-.3.9-.5 1.4-.6.5-.1 1-.2 1.6-.2.7 0 1.3.1 1.9.2.6.1 1.1.3 1.5.6.4.3.8.7 1 1.1.3.5.4 1.1.5 1.8h-1.9c0-.4-.1-.7-.3-.9-.2-.3-.4-.5-.6-.6-.3-.2-.5-.3-.9-.3-.3-.1-.6-.1-.9-.1-.3 0-.6 0-.9.1-.3 0-.6.1-.8.2-.2.1-.4.3-.6.5-.2.2-.2.4-.2.7 0 .3.1.6.4.8.2.2.5.4.9.5.4.1.8.3 1.2.4.5.1.9.2 1.4.3.5.1 1 .2 1.4.4.5.2.9.4 1.2.6.4.3.6.6.9.9.2.4.3.9.3 1.4 0 .7-.1 1.3-.4 1.8-.3.5-.7.9-1.2 1.1-.5.3-1 .5-1.6.6-.6.1-1.2.2-1.8.2-.7 0-1.3-.1-1.9-.2-.6-.1-1.1-.4-1.6-.7-.5-.3-.8-.7-1.1-1.2-.3-.5-.4-1.1-.5-1.9H69c0 .3.1.7.3 1zM87.4 85.9c-.9.7-2 1-3.3 1-.9 0-1.8-.2-2.5-.5s-1.3-.7-1.7-1.3c-.5-.5-.8-1.2-1.1-2-.2-.8-.4-1.6-.4-2.5 0-.9.1-1.7.4-2.5.3-.7.7-1.4 1.2-1.9s1.1-1 1.8-1.3c.7-.3 1.4-.5 2.2-.5 1.1 0 1.9.2 2.6.7.7.4 1.2 1 1.7 1.7.4.7.7 1.4.9 2.2.2.8.2 1.5.2 2.3h-8.8c0 .5 0 1 .2 1.5.1.5.4.9.7 1.2.3.4.7.6 1.2.9.5.2 1 .3 1.7.3.8 0 1.5-.2 2-.6.5-.4.9-1 1-1.7h1.9c-.4 1.3-1 2.3-1.9 3zm-.5-7.6c-.2-.4-.4-.8-.7-1.1-.3-.3-.6-.5-1.1-.7-.4-.2-.8-.3-1.3-.3s-1 .1-1.4.3c-.4.2-.8.4-1 .7-.3.3-.5.7-.7 1.1-.2.4-.3.8-.3 1.3h6.8c0-.5-.1-.9-.3-1.3z"/></svg>