<svg id="Layer_1" xmlns="http://www.w3.org/2000/svg" viewBox="0 0 128 128"><style>.st0{fill-rule:evenodd;clip-rule:evenodd;fill:#FFF}.st1{fill:#383838}</style><path class="st0" d="M0 25.7h128v76.6H0z"/><path class="st1" d="M22.4 41.9h2l4.1 10.7h-2l-1-2.8h-4.3l-1 2.8h-1.9l4.1-10.7zm-.6 6.4H25l-1.6-4.6-1.6 4.6zM31.5 49c0 .4.1.8.2 1 .1.3.3.5.6.7.2.2.5.3.9.4.3.1.7.1 1.1.1.4 0 .8 0 1-.1.3-.1.5-.2.7-.4.2-.1.3-.3.4-.5.1-.2.1-.4.1-.6 0-.4-.1-.7-.3-.9-.2-.2-.4-.3-.6-.4-.4-.1-.8-.3-1.3-.4-.5-.1-1.1-.3-1.9-.5-.5-.1-.8-.3-1.1-.5-.3-.2-.5-.4-.7-.7-.2-.2-.3-.5-.4-.8-.1-.3-.1-.5-.1-.8 0-.5.1-1 .3-1.4.2-.4.5-.7.9-1 .4-.3.8-.5 1.3-.6.5-.1.9-.2 1.4-.2.6 0 1.1.1 1.6.2s.9.4 1.3.7c.4.3.7.6.9 1.1.2.4.3.9.3 1.5h-1.9c-.1-.7-.3-1.2-.7-1.5-.4-.3-1-.4-1.6-.4-.2 0-.4 0-.7.1-.2 0-.4.1-.6.2-.2.1-.3.2-.5.4-.1.2-.2.4-.2.7 0 .4.1.7.4.9.2.2.5.4.9.5 0 0 .2.1.5.1.3.1.6.2.9.2.3.1.7.2 1 .3.3.1.6.1.7.2.3.1.7.3.9.4.3.2.5.4.7.7.2.2.3.5.4.8.1.3.1.6.1.8 0 .6-.1 1.1-.4 1.5-.2.4-.6.8-1 1-.4.3-.9.5-1.4.6-.5.1-1 .2-1.6.2-.6 0-1.2-.1-1.7-.2s-1-.4-1.4-.7c-.4-.3-.7-.7-1-1.2-.2-.5-.4-1.1-.4-1.7h2zM46.9 49c0 .4.1.8.2 1 .1.3.3.5.6.7.2.2.5.3.9.4.3.1.7.1 1.1.1.4 0 .8 0 1-.1.3-.1.5-.2.7-.4.2-.1.3-.3.4-.5.1-.2.1-.4.1-.6 0-.4-.1-.7-.3-.9-.2-.2-.4-.3-.6-.4-.4-.1-.8-.3-1.3-.4-.5-.1-1.1-.3-1.9-.5-.5-.1-.8-.3-1.1-.5-.3-.2-.5-.4-.7-.7-.2-.2-.3-.5-.4-.8-.1-.3-.1-.5-.1-.8 0-.5.1-1 .3-1.4.2-.4.5-.7.9-1 .4-.3.8-.5 1.3-.6.5-.1.9-.2 1.4-.2.6 0 1.1.1 1.6.2s.9.4 1.3.7c.4.3.7.6.9 1.1.2.4.3.9.3 1.5h-1.9c-.1-.7-.3-1.2-.7-1.5-.4-.3-1-.4-1.6-.4-.2 0-.4 0-.7.1-.2 0-.4.1-.6.2-.2.1-.3.2-.5.4-.1.2-.2.4-.2.7 0 .4.1.7.4.9.2.2.5.4.9.5 0 0 .2.1.5.1.3.1.6.2.9.2.3.1.7.2 1 .3.3.1.6.1.7.2.3.1.7.3.9.4.3.2.5.4.7.7.2.2.3.5.4.8.1.3.1.6.1.8 0 .6-.1 1.1-.4 1.5-.2.4-.6.8-1 1-.4.3-.9.5-1.4.6-.5.1-1 .2-1.6.2-.6 0-1.2-.1-1.7-.2s-1-.4-1.4-.7c-.4-.3-.7-.7-1-1.2-.1-.3-.3-.9-.3-1.5h1.9zM56.1 41.9h7.7v1.6H58v2.8h5.4v1.5H58v3.1h5.9v1.6h-7.8V41.9zM66.3 41.9H74v1.6h-5.8v2.8h5.4v1.5h-5.4v3.1h5.9v1.6h-7.8V41.9zM76.4 41.9h2l4.9 7.9v-7.9h1.8v10.7h-2l-4.9-7.9v7.9h-1.8V41.9zM92.9 41.9h1.9v10.7h-1.9V41.9zM97.8 41.9h2l4.9 7.9v-7.9h1.8v10.7h-2l-4.9-7.9v7.9h-1.8V41.9z"/><g><path class="st1" d="M24.2 58.8h.2l.4 10.2h-.1c-.3-1.2-1.1-10.2-4.2-10.2-2.4 0-3.2 11-3.2 14.7 0 4.8.6 14.8 3.3 14.8 1.3 0 2-2.2 2-5.1V74H21v-.4h5.8v.4h-1.5v14.6h-.2c-.1-.6-.1-1.8-1.1-1.8S21.8 89 20.4 89c-4.8 0-6.5-8.9-6.5-15.3 0-5.3 1.9-15 6.5-15 .8 0 1.3.2 1.9 1.1.4.6 1.3.8 1.6 0 .2-.4.2-.7.3-1M89.3 88.1V59.4H88V59h5.5v.4h-1.3v28.7h1.3v.3H88v-.3h1.3V59.4M55.2 79.5h4.1l-2-11.5-2.1 11.5zm-2.1 8.6l5.5-29.5 5.1 29.5h1.2v.4h-5.3v-.4h1.2l-1.4-8.2h-4.2l-1.5 8.2h1.5v.4H52v-.3l1.1-.1zM102.2 79.5h4.1l-2-11.5-2.1 11.5zm-2.1 8.6l5.5-29.5 5.1 29.5h1.2v.4h-5.3v-.4h1.2l-1.4-8.2h-4.2l-1.5 8.2h1.5v.4H99v-.3l1.1-.1zM73.4 88.1h3.4c1.6-.1 3.6-1.6 3.6-5.8v-2.5h.3v8.6H70.3l7-29.1H74c-2.1 0-3.2 3.1-3.2 6v2.2h-.3V59h10.1l-7.2 29.1zM38.6 59.4v14.3c.6 0 1.6.1 2.6-1.3 1-1.2 1.3-4.3 1.3-6.6 0-2.5-1.2-6.4-2.8-6.4h-1.1zm-4.1-.4h6.1c2.9 0 4.8 3.3 4.8 7.2 0 3.9-1.6 7.5-4.1 7.5-.3 0-.3.2 0 .2 1.5 0 2.6 1.7 2.8 2.1.9 1.8.3 10.2 1.2 11 .8.7 1.3-.4 1.4-.6l.1.1c0 .1-.7 2.2-2.3 2.2-1.4 0-2.1-1.7-2.3-2.7-.3-1.7-.2-7-.4-8-.2-.9-.6-3.7-1.9-3.9-.5-.1-.6-.1-1.3-.1v14.1h1.3v.4h-5.6v-.4h1.4V59.4h-1.3V59z"/></g></svg>