<svg id="Layer_1" xmlns="http://www.w3.org/2000/svg" viewBox="0 0 128 128"><style>.st0{fill:#b2b3b5}.st1{fill:#FFF}</style><ellipse class="st0" cx="64" cy="64" rx="64" ry="64"/><path class="st1" d="M47.1 43.9l8.6 13.2V43.9h2.1v16.3h-2.4l-8.5-13.1v13.1h-2.1V43.9h2.3zM60.5 51.9c.2-.8.6-1.4 1.1-2 .5-.6 1.1-1 1.8-1.3.7-.3 1.5-.5 2.5-.5.9 0 1.8.2 2.5.5s1.3.8 1.8 1.3c.5.6.9 1.2 1.1 2 .2.8.4 1.6.4 2.4 0 .9-.1 1.7-.4 2.4-.2.7-.6 1.4-1.1 2-.5.6-1.1 1-1.8 1.3-.7.3-1.5.5-2.5.5-.9 0-1.8-.2-2.5-.5s-1.3-.7-1.8-1.3c-.5-.6-.9-1.2-1.1-2-.2-.7-.4-1.6-.4-2.4 0-.8.1-1.6.4-2.4zm1.9 4.4c.2.6.5 1 .8 1.4.3.4.7.7 1.2.9.4.2.9.3 1.4.3.5 0 1-.1 1.4-.3.4-.2.8-.5 1.2-.9.3-.4.6-.8.8-1.4.2-.6.3-1.2.3-1.9s-.1-1.4-.3-1.9c-.2-.6-.5-1-.8-1.4-.3-.4-.7-.7-1.2-.9-.4-.2-.9-.3-1.4-.3-.5 0-1 .1-1.4.3-.4.2-.8.5-1.2.9-.3.4-.6.8-.8 1.4-.2.6-.3 1.2-.3 1.9.1.7.2 1.3.3 1.9zM75.5 48.4v1.9c.8-1.4 2.1-2.1 3.8-2.1.8 0 1.4.1 1.9.3.5.2.9.5 1.3.9.3.4.5.8.7 1.4.1.5.2 1.1.2 1.7v7.8h-1.9v-8c0-.7-.2-1.3-.6-1.7-.4-.4-1-.6-1.8-.6-.6 0-1.1.1-1.5.3-.4.2-.8.4-1.1.8-.3.3-.5.7-.7 1.2-.1.4-.2.9-.2 1.5v6.7h-1.9V48.4h1.8zM48.9 70.3v16.3h-2.2V70.3h2.2zM53.7 74.8v2.5c.5-1 1.1-1.7 1.7-2.1.7-.5 1.6-.7 2.6-.6v2.1c-.8 0-1.4.1-2 .3-.5.2-1 .5-1.3.9-.3.4-.6.9-.7 1.5-.2.6-.2 1.3-.2 2v5.3h-1.9V74.8h1.8zM58.7 78.3c.2-.8.6-1.4 1.1-2 .5-.6 1.1-1 1.8-1.3.7-.3 1.5-.5 2.5-.5.9 0 1.8.2 2.5.5s1.3.8 1.8 1.3c.5.6.9 1.2 1.1 2 .2.8.4 1.6.4 2.4 0 .9-.1 1.7-.4 2.4-.2.7-.6 1.4-1.1 2-.5.6-1.1 1-1.8 1.3-.7.3-1.5.5-2.5.5-.9 0-1.8-.2-2.5-.5s-1.3-.7-1.8-1.3c-.5-.6-.9-1.2-1.1-2-.2-.7-.4-1.6-.4-2.4 0-.8.1-1.7.4-2.4zm1.9 4.3c.2.6.5 1 .8 1.4.3.4.7.7 1.2.9.4.2.9.3 1.4.3.5 0 1-.1 1.4-.3.4-.2.8-.5 1.2-.9.3-.4.6-.8.8-1.4.2-.6.3-1.2.3-1.9s-.1-1.4-.3-1.9c-.2-.6-.5-1-.8-1.4-.3-.4-.7-.7-1.2-.9-.4-.2-.9-.3-1.4-.3-.5 0-1 .1-1.4.3-.4.2-.8.5-1.2.9-.3.4-.6.8-.8 1.4-.2.6-.3 1.2-.3 1.9.1.7.2 1.4.3 1.9zM73.7 74.8v1.9c.8-1.4 2.1-2.1 3.8-2.1.8 0 1.4.1 1.9.3.5.2.9.5 1.3.9.3.4.5.8.7 1.4.1.5.2 1.1.2 1.7v7.8h-1.9v-8c0-.7-.2-1.3-.6-1.7-.4-.4-1-.6-1.8-.6-.6 0-1.1.1-1.5.3-.4.2-.8.4-1.1.8-.3.3-.5.7-.7 1.2-.1.4-.2.9-.2 1.5v6.7h-1.9V74.8h1.8z"/></svg>