<svg id="Layer_1" xmlns="http://www.w3.org/2000/svg" viewBox="0 0 128 128"><style>.st0{fill:#eb0000}.st1{fill:none;stroke:#eb0000;stroke-width:5.6414;stroke-miterlimit:10}</style><path class="st0" d="M16.1 27.9v1.4h-4v10.4h-1.6V29.3h-4v-1.4h9.6zm1.9 0h1.6v4.9h6.1v-4.9h1.6v11.8h-1.6v-5.5h-6.1v5.5H18V27.9zm12.6 0h1.6v11.8h-1.6V27.9zm5.7 8c0 .7.2 1.2.5 1.6.5.8 1.4 1.2 2.7 1.2.6 0 1.1-.1 1.6-.3.9-.3 1.4-.9 1.4-1.8 0-.6-.2-1.1-.6-1.4-.4-.3-1-.5-1.9-.7l-1.6-.4c-1-.2-1.7-.5-2.2-.8-.7-.5-1.1-1.2-1.1-2.2 0-1.1.4-1.9 1.1-2.6.7-.7 1.7-1 3-1 1.2 0 2.2.3 3.1.9.8.6 1.3 1.6 1.3 2.9h-1.5c-.1-.6-.2-1.1-.5-1.5-.5-.6-1.3-.9-2.4-.9-.9 0-1.6.2-2 .6-.4.4-.6.9-.6 1.4 0 .6.2 1 .7 1.3.3.2 1 .4 2.1.6l1.6.4c.8.2 1.4.4 1.8.7.7.6 1.1 1.4 1.1 2.4 0 1.3-.5 2.2-1.4 2.8-.9.6-2 .8-3.2.8-1.4 0-2.6-.4-3.4-1.1-.8-.7-1.2-1.8-1.2-3h1.6zm16.4 0c0 .7.2 1.2.5 1.6.5.8 1.4 1.2 2.7 1.2.6 0 1.1-.1 1.6-.3.9-.3 1.4-.9 1.4-1.8 0-.6-.2-1.1-.6-1.4-.4-.3-1-.5-1.9-.7l-1.6-.4c-1-.2-1.7-.5-2.2-.8-.7-.5-1.1-1.2-1.1-2.2 0-1.1.4-1.9 1.1-2.6.7-.7 1.7-1 3-1 1.2 0 2.2.3 3.1.9.8.6 1.3 1.6 1.3 2.9h-1.5c-.1-.6-.2-1.1-.5-1.5-.5-.6-1.3-.9-2.4-.9-.9 0-1.6.2-2 .6-.4.4-.6.9-.6 1.4 0 .6.2 1 .7 1.3.3.2 1 .4 2.1.6l1.6.4c.8.2 1.4.4 1.8.7.7.6 1.1 1.4 1.1 2.4 0 1.3-.5 2.2-1.4 2.8-.9.6-2 .8-3.2.8-1.4 0-2.6-.4-3.4-1.1-.8-.7-1.2-1.8-1.2-3h1.6zm10.5-8h8.6v1.4h-7v3.6h6.5v1.4h-6.5v4h7.1v1.4h-8.7V27.9zm14.7 0h1.8L84 39.7h-1.8L81 36.2h-4.6l-1.3 3.5h-1.6l4.4-11.8zm2.7 7l-1.8-5.2-1.9 5.2h3.7zm6.3 1c0 .7.2 1.2.5 1.6.5.8 1.4 1.2 2.7 1.2.6 0 1.1-.1 1.6-.3.9-.3 1.4-.9 1.4-1.8 0-.6-.2-1.1-.6-1.4-.4-.3-1-.5-1.9-.7l-1.6-.4c-1-.2-1.7-.5-2.2-.8-.7-.5-1.1-1.2-1.1-2.2 0-1.1.4-1.9 1.1-2.6.7-.7 1.7-1 3-1 1.2 0 2.2.3 3.1.9.8.6 1.3 1.6 1.3 2.9h-1.5c-.1-.6-.2-1.1-.5-1.5-.4-.5-1.2-.8-2.3-.8-.9 0-1.6.2-2 .6-.4.4-.6.9-.6 1.4 0 .6.2 1 .7 1.3.3.2 1 .4 2.1.6l1.6.4c.8.2 1.4.4 1.8.7.7.6 1.1 1.4 1.1 2.4 0 1.3-.5 2.2-1.4 2.8-.9.6-2 .8-3.2.8-1.4 0-2.6-.4-3.4-1.1-.8-.7-1.2-1.8-1.2-3h1.5zm20.1-6.3c.8 1 1.2 2.4 1.2 4 0 1.8-.4 3.2-1.3 4.4-1.1 1.4-2.6 2.1-4.5 2.1-1.8 0-3.2-.6-4.3-1.8-.9-1.2-1.4-2.6-1.4-4.4 0-1.6.4-3 1.2-4.1 1-1.5 2.5-2.2 4.5-2.2 2.1 0 3.6.6 4.6 2zm-1.4 7.5c.6-1 .9-2.2.9-3.5 0-1.4-.4-2.5-1.1-3.4-.7-.8-1.7-1.3-3-1.3-1.2 0-2.2.4-3 1.3-.8.8-1.2 2.1-1.2 3.7 0 1.3.3 2.4 1 3.3.7.9 1.7 1.3 3.2 1.3 1.6.1 2.6-.4 3.2-1.4zm4.9-9.2h1.9l5.9 9.5v-9.5h1.5v11.8H118l-6-9.5v9.5h-1.5V27.9z"/><path class="st1" d="M0 50.6h128"/><path class="st0" d="M45.8 65.5v-1.8h12.5v1.8h-5.2v13.9H51V65.5h-5.2zm15.6-1.7v6c.1-.4.4-.6.6-.9l.9-.6c.3-.2.7-.3 1-.3.4-.1.7-.1 1-.1.7 0 1.4.1 1.9.3.5.2.9.5 1.2.9.3.4.5.8.6 1.3.1.5.2 1.1.2 1.7v7.5h-1.9v-7.7c0-.7-.2-1.3-.6-1.7-.4-.4-1-.6-1.7-.6-.6 0-1.1.1-1.5.3-.4.2-.8.4-1 .7-.3.3-.5.7-.6 1.1-.1.4-.2.9-.2 1.4v6.4h-1.9V63.8h2zm18.2 15c-.8.6-1.9 1-3.2 1-.9 0-1.7-.1-2.4-.4-.7-.3-1.2-.7-1.7-1.2s-.8-1.2-1-1.9c-.2-.7-.4-1.5-.4-2.4 0-.9.1-1.7.4-2.4.3-.7.6-1.3 1.1-1.9.5-.5 1-.9 1.7-1.2.7-.3 1.4-.4 2.1-.4 1 0 1.8.2 2.5.6.7.4 1.2.9 1.6 1.6.4.6.7 1.3.8 2.1.2.8.2 1.5.2 2.2h-8.5c0 .5 0 1 .2 1.4.1.4.3.8.6 1.2.3.3.7.6 1.1.8.5.2 1 .3 1.6.3.8 0 1.4-.2 1.9-.5.5-.4.8-.9 1-1.7H81c0 1.2-.6 2.1-1.4 2.8zm-.5-7.3c-.2-.4-.4-.7-.7-1-.3-.3-.6-.5-1-.7-.4-.2-.8-.3-1.3-.3s-.9.1-1.3.3c-.4.2-.7.4-1 .7-.3.3-.5.6-.7 1-.2.4-.3.8-.3 1.2h6.5c.1-.4 0-.8-.2-1.2zm-60.9 15c-.7-.5-1.6-.8-2.7-.8-.4 0-.9 0-1.3.1s-.8.2-1.1.4c-.3.2-.6.5-.8.8-.2.3-.3.8-.3 1.3s.1.9.4 1.2c.3.3.7.5 1.1.7.5.2 1 .3 1.6.5.6.1 1.2.3 1.8.4.6.1 1.2.3 1.8.5.6.2 1.1.5 1.6.8.5.3.9.8 1.1 1.3.3.5.4 1.2.4 1.9 0 .8-.2 1.5-.6 2.1-.4.6-.9 1.1-1.4 1.5-.6.4-1.2.6-2 .8-.7.2-1.4.3-2.2.3-.9 0-1.7-.1-2.5-.3-.8-.2-1.5-.6-2.1-1-.6-.4-1.1-1-1.4-1.7-.3-.7-.5-1.5-.5-2.5h2c0 .7.1 1.2.4 1.7.3.5.6.9 1 1.2.4.3.9.5 1.5.7.6.1 1.1.2 1.7.2.5 0 .9 0 1.4-.1.5-.1.9-.2 1.3-.5.4-.2.7-.5.9-.9.2-.4.4-.8.4-1.4 0-.5-.1-1-.4-1.3-.3-.3-.7-.6-1.1-.8-.5-.2-1-.4-1.6-.5-.6-.1-1.2-.3-1.8-.4-.6-.1-1.2-.3-1.8-.5-.6-.2-1.1-.4-1.6-.7-.5-.3-.9-.7-1.1-1.2-.3-.5-.4-1.1-.4-1.8 0-.8.2-1.5.5-2.1.3-.6.8-1.1 1.3-1.4.5-.4 1.1-.7 1.8-.8.7-.2 1.4-.3 2.1-.3.8 0 1.6.1 2.2.3.7.2 1.3.5 1.8.9s.9.9 1.2 1.5c.3.6.5 1.4.5 2.2h-2c0-.9-.4-1.8-1.1-2.3zm10.7 2.2v1.6h-2.3v7.1c0 .2 0 .4.1.5 0 .1.1.2.2.3.1.1.2.1.4.1h1.6v1.6h-1.4c-.5 0-.9 0-1.2-.1-.3-.1-.6-.2-.8-.4-.2-.2-.4-.4-.5-.7-.1-.3-.2-.7-.2-1.3v-7.2h-1.9v-1.6h1.9v-3.4h1.9v3.4h2.2zm10.6 11.6c-.5 0-.9-.1-1.2-.4-.3-.3-.4-.7-.4-1.3-.5.6-1.1 1.1-1.8 1.3-.7.3-1.4.4-2.2.4-.5 0-1-.1-1.5-.2s-.9-.3-1.2-.5c-.3-.3-.6-.6-.8-1-.2-.4-.3-.9-.3-1.5s.1-1.2.3-1.6c.2-.4.5-.7.9-1 .4-.3.8-.5 1.2-.6.5-.1.9-.2 1.4-.3.5-.1 1-.2 1.5-.2.5-.1.9-.1 1.2-.2.4-.1.6-.2.8-.4.2-.2.3-.5.3-.8 0-.4-.1-.7-.2-1l-.6-.6c-.2-.1-.5-.2-.8-.3-.3 0-.6-.1-.9-.1-.8 0-1.4.2-2 .5-.5.3-.8.9-.9 1.7h-1.9c0-.7.2-1.3.4-1.8.3-.5.6-.9 1.1-1.2.4-.3.9-.5 1.5-.6.6-.1 1.2-.2 1.8-.2.5 0 1 0 1.5.1s1 .2 1.4.5c.4.2.7.5 1 1 .2.4.4.9.4 1.6v5.8c0 .4 0 .8.1 1 .1.2.2.3.5.3.2 0 .4 0 .6-.1v1.4c-.2.2-.6.3-1.2.3zm-2.6-5.7c-.4.1-.8.1-1.2.2-.4.1-.8.1-1.3.2-.4.1-.8.2-1.1.3-.3.1-.6.4-.8.6-.2.3-.3.6-.3 1.1 0 .3.1.6.2.8.1.2.3.4.5.5.2.1.4.2.7.3.3.1.5.1.8.1.6 0 1.1-.1 1.6-.3.4-.2.8-.4 1.1-.6.3-.3.5-.5.6-.8.1-.3.2-.6.2-.8v-1.9c-.3.1-.6.2-1 .3zm10.3-5.9v1.6H45v7.1c0 .2 0 .4.1.5 0 .1.1.2.2.3.1.1.2.1.4.1h1.6v1.6h-1.4c-.5 0-.9 0-1.2-.1-.3-.1-.6-.2-.8-.4-.2-.2-.4-.4-.5-.7-.1-.3-.2-.7-.2-1.3v-7.2h-1.9v-1.6h1.9v-3.4H45v3.4h2.2zm9.9 10.7c-.8.6-1.9 1-3.2 1-.9 0-1.7-.1-2.4-.4-.7-.3-1.2-.7-1.7-1.2s-.8-1.2-1-1.9-.4-1.5-.4-2.4c0-.9.1-1.7.4-2.4.3-.7.6-1.3 1.1-1.9.5-.5 1-.9 1.7-1.2.7-.3 1.4-.4 2.1-.4 1 0 1.8.2 2.5.6.7.4 1.2.9 1.6 1.6.4.6.7 1.3.8 2.1.2.8.2 1.5.2 2.2h-8.5c0 .5 0 1 .2 1.4.1.4.3.8.6 1.2.3.3.7.6 1.1.8.5.2 1 .3 1.6.3.8 0 1.4-.2 1.9-.5.5-.4.8-.9 1-1.7h1.8c0 1.1-.5 2.1-1.4 2.8zm-.4-7.3c-.2-.4-.4-.7-.7-1s-.6-.5-1-.7c-.4-.2-.8-.3-1.3-.3s-.9.1-1.3.3c-.4.2-.7.4-1 .7-.3.3-.5.6-.7 1-.2.4-.3.8-.3 1.2H57l-.3-1.2zm5.7-3.4v1.7c.8-1.3 2.1-1.9 3.7-1.9.7 0 1.3.1 1.9.4.6.3 1 .8 1.2 1.5.4-.6.9-1.1 1.5-1.4.6-.3 1.3-.5 2.1-.5.6 0 1.1.1 1.5.2.5.1.9.3 1.2.6.3.3.6.6.8 1 .2.4.3.9.3 1.5v8.3h-1.9v-7.4c0-.4 0-.7-.1-1-.1-.3-.2-.6-.3-.8-.2-.2-.4-.4-.7-.5-.3-.1-.7-.2-1.1-.2-.9 0-1.6.3-2.2.8-.5.5-.8 1.2-.8 2.1v7.1h-1.9v-7.4c0-.4 0-.7-.1-1-.1-.3-.2-.6-.3-.8-.2-.2-.4-.4-.6-.5-.3-.1-.6-.2-1-.2-.5 0-1 .1-1.4.3-.4.2-.7.5-.9.8-.2.3-.4.6-.5 1-.1.3-.2.6-.2.8v7.1h-1.9V88.7h1.7zm24.8 10.7c-.8.6-1.9 1-3.2 1-.9 0-1.7-.1-2.4-.4-.7-.3-1.2-.7-1.7-1.2s-.8-1.2-1-1.9c-.2-.7-.4-1.5-.4-2.4 0-.9.1-1.7.4-2.4.3-.7.6-1.3 1.1-1.9.5-.5 1-.9 1.7-1.2.7-.3 1.4-.4 2.1-.4 1 0 1.8.2 2.5.6.7.4 1.2.9 1.6 1.6.4.6.7 1.3.8 2.1.2.8.2 1.5.2 2.2h-8.5c0 .5 0 1 .2 1.4.1.4.3.8.6 1.2.3.3.7.6 1.1.8.5.2 1 .3 1.6.3.8 0 1.4-.2 1.9-.5.5-.4.8-.9 1-1.7h1.8c0 1.1-.5 2.1-1.4 2.8zm-.4-7.3c-.2-.4-.4-.7-.7-1-.3-.3-.6-.5-1-.7-.4-.2-.8-.3-1.3-.3s-.9.1-1.3.3c-.4.2-.7.4-1 .7-.3.3-.5.6-.7 1-.2.4-.3.8-.3 1.2H87c0-.4-.1-.8-.2-1.2zm5.7-3.4v1.8c.8-1.4 2-2.1 3.7-2.1.7 0 1.4.1 1.9.3.5.2.9.5 1.2.9.3.4.5.8.6 1.3.1.5.2 1.1.2 1.7v7.5h-1.9v-7.7c0-.7-.2-1.3-.6-1.7-.4-.4-1-.6-1.7-.6-.6 0-1.1.1-1.5.3-.4.2-.8.4-1 .7-.3.3-.5.7-.6 1.1-.1.4-.2.9-.2 1.4v6.4h-1.9V88.7h1.8zm15.1 0v1.6h-2.3v7.1c0 .2 0 .4.1.5 0 .1.1.2.2.3.1.1.2.1.4.1h1.6v1.6h-1.4c-.5 0-.9 0-1.2-.1-.3-.1-.6-.2-.8-.4-.2-.2-.4-.4-.5-.7-.1-.3-.2-.7-.2-1.3v-7.2h-1.9v-1.6h1.9v-3.4h1.9v3.4h2.2zm3.3 8.8c.2.3.4.5.7.7.3.2.6.3 1 .4.4.1.7.1 1.1.1.3 0 .6 0 .9-.1.3 0 .6-.1.9-.2.3-.1.5-.3.7-.5.2-.2.3-.5.3-.9 0-.5-.2-.8-.5-1.1-.4-.2-.8-.5-1.4-.6-.5-.2-1.1-.3-1.8-.4-.6-.1-1.2-.3-1.8-.5-.5-.2-1-.5-1.4-1-.4-.4-.5-1-.5-1.7 0-.6.1-1.1.4-1.5.3-.4.6-.7 1-1 .4-.3.9-.4 1.4-.6.5-.1 1-.2 1.5-.2.6 0 1.2.1 1.8.2.5.1 1 .3 1.4.6.4.3.8.6 1 1.1.2.5.4 1 .4 1.7h-2c0-.4-.1-.7-.3-.9l-.6-.6c-.2-.1-.5-.3-.8-.3-.3-.1-.6-.1-.9-.1-.3 0-.6 0-.8.1-.3 0-.5.1-.8.2-.2.1-.4.3-.6.4-.1.2-.2.4-.2.7 0 .3.1.6.3.8.2.2.5.4.9.5.4.1.7.3 1.2.4.4.1.9.2 1.3.3.5.1.9.2 1.4.4.4.1.8.3 1.2.6.3.2.6.5.8.9.2.4.3.8.3 1.4 0 .7-.1 1.3-.4 1.7-.3.5-.7.8-1.1 1.1-.5.3-1 .5-1.6.6-.6.1-1.2.2-1.7.2-.6 0-1.2-.1-1.8-.2-.6-.1-1.1-.3-1.5-.6-.4-.3-.8-.7-1.1-1.2-.3-.5-.4-1.1-.4-1.8h1.9c-.1.3 0 .7.2.9z"/></svg>