<svg id="Layer_1" xmlns="http://www.w3.org/2000/svg" viewBox="0 0 128 128"><style>.st0{fill:#ffb400}.st1{fill:#FFF}</style><ellipse class="st0" cx="64" cy="64" rx="64" ry="64"/><path class="st1" d="M29.7 48.2l16.5 25.4h.1V48.2h4v31.4h-4.6L29.3 54.4h-.1v25.2h-4V48.2h4.5zM72.1 78.1c-1.7 1.3-3.8 1.9-6.4 1.9-1.8 0-3.4-.3-4.7-.9-1.3-.6-2.5-1.4-3.4-2.5-.9-1.1-1.6-2.3-2-3.8-.5-1.5-.7-3.1-.8-4.8 0-1.7.3-3.3.8-4.7.5-1.4 1.3-2.7 2.2-3.7 1-1.1 2.1-1.9 3.4-2.5 1.3-.6 2.7-.9 4.3-.9 2 0 3.7.4 5 1.3 1.3.8 2.4 1.9 3.2 3.2.8 1.3 1.4 2.7 1.7 4.2.3 1.5.4 3 .4 4.4h-17c0 1 .1 1.9.4 2.8.3.9.7 1.7 1.3 2.4.6.7 1.3 1.2 2.2 1.6.9.4 2 .6 3.2.6 1.6 0 2.9-.4 3.9-1.1 1-.7 1.7-1.8 2-3.3h3.7c-.6 2.6-1.7 4.5-3.4 5.8zm-.9-14.6c-.3-.8-.8-1.5-1.4-2-.6-.6-1.2-1-2-1.4-.8-.3-1.6-.5-2.6-.5s-1.8.2-2.6.5-1.4.8-2 1.4c-.6.6-1 1.3-1.3 2-.3.8-.5 1.6-.6 2.5h13.1c-.1-.8-.3-1.7-.6-2.5zM97.7 79.6l-4.6-18.1H93l-4.6 18.1h-4l-7.3-22.7h4.1l5.1 18.6h.1L91 56.9h4.1l4.7 18.6h.1l5.1-18.6h3.9l-7.3 22.7h-3.9z"/></svg>