<svg id="Layer_1" xmlns="http://www.w3.org/2000/svg" viewBox="0 0 128 128"><style>.st0{fill:#b2b3b5}.st1{fill:#fff}</style><ellipse class="st0" cx="64" cy="64" rx="64" ry="64"/><path class="st1" d="M36.2 46.2c-.8-.6-1.8-.9-3-.9-1 0-1.8.2-2.5.5-.7.4-1.3.9-1.7 1.5-.4.6-.8 1.3-1 2.1-.2.8-.3 1.6-.3 2.5 0 .9.1 1.8.3 2.6.2.8.5 1.6 1 2.2.4.6 1 1.1 1.7 1.5.7.4 1.5.5 2.5.5.7 0 1.4-.1 1.9-.4.6-.2 1-.6 1.4-1 .4-.4.7-.9.9-1.5.2-.6.4-1.2.4-1.9H40c-.2 2.1-.9 3.7-2.1 4.8-1.2 1.1-2.8 1.7-4.9 1.7-1.3 0-2.4-.2-3.3-.7-.9-.4-1.7-1-2.4-1.8-.6-.8-1.1-1.7-1.4-2.7-.3-1-.5-2.1-.5-3.3 0-1.2.2-2.3.5-3.3s.8-2 1.5-2.7c.6-.8 1.5-1.4 2.4-1.8 1-.4 2.1-.7 3.3-.7.9 0 1.7.1 2.4.3.8.2 1.4.6 2 1 .6.4 1.1 1 1.5 1.7.4.7.7 1.4.8 2.3h-2.2c0-1-.6-1.9-1.4-2.5zm5.8 5.7c.2-.8.6-1.4 1.1-2 .5-.6 1.1-1 1.8-1.3.7-.3 1.5-.5 2.5-.5.9 0 1.8.2 2.5.5s1.3.8 1.8 1.3c.5.6.9 1.2 1.1 2 .2.8.4 1.6.4 2.4 0 .9-.1 1.7-.4 2.4-.2.7-.6 1.4-1.1 2-.5.6-1.1 1-1.8 1.3-.7.3-1.5.5-2.5.5-.9 0-1.8-.2-2.5-.5s-1.3-.7-1.8-1.3c-.5-.6-.9-1.2-1.1-2-.2-.7-.4-1.6-.4-2.4.1-.8.2-1.6.4-2.4zm2 4.4c.2.6.5 1 .8 1.4.3.4.7.7 1.2.9.4.2.9.3 1.4.3s1-.1 1.4-.3c.4-.2.8-.5 1.2-.9.3-.4.6-.8.8-1.4.2-.6.3-1.2.3-1.9s-.1-1.4-.3-1.9c-.2-.6-.5-1-.8-1.4-.3-.4-.7-.7-1.2-.9-.4-.2-.9-.3-1.4-.3s-1 .1-1.4.3c-.4.2-.8.5-1.2.9-.3.4-.6.8-.8 1.4-.2.6-.3 1.2-.3 1.9s.1 1.3.3 1.9zm13-7.9v1.7c.9-1.3 2.2-2 3.8-2 .7 0 1.4.2 2 .5.6.3 1 .8 1.3 1.6.4-.6.9-1.1 1.6-1.5.6-.4 1.4-.5 2.1-.5.6 0 1.1.1 1.6.2s.9.3 1.2.6c.3.3.6.6.8 1.1.2.4.3 1 .3 1.6v8.7h-1.9v-7.7c0-.4 0-.7-.1-1-.1-.3-.2-.6-.3-.8-.2-.2-.4-.4-.7-.6-.3-.1-.7-.2-1.2-.2-1 0-1.7.3-2.3.8-.5.5-.8 1.3-.8 2.2v7.4h-1.9v-7.7c0-.4 0-.7-.1-1.1-.1-.3-.2-.6-.4-.8-.2-.2-.4-.4-.7-.5-.3-.1-.6-.2-1.1-.2-.6 0-1 .1-1.5.3-.4.2-.7.5-1 .8-.3.3-.4.7-.5 1-.1.3-.2.6-.2.9v7.4h-1.9V48.4H57zm17.6-2.1v-2.4h1.9v2.4h-1.9zm1.9 2.1v11.8h-1.9V48.4h1.9zm4.6 0v1.9c.8-1.4 2.1-2.1 3.8-2.1.8 0 1.4.1 1.9.3.5.2.9.5 1.3.9.3.4.5.8.7 1.4.1.5.2 1.1.2 1.7v7.8h-1.9v-8c0-.7-.2-1.3-.6-1.7-.4-.4-1-.6-1.8-.6-.6 0-1.1.1-1.5.3-.4.2-.8.4-1.1.8-.3.3-.5.7-.7 1.2-.1.4-.2.9-.2 1.5v6.7h-1.9V48.4h1.8zm19.5 15.2c-.9 1-2.3 1.4-4.2 1.4-.5 0-1.1-.1-1.7-.2-.6-.1-1.1-.3-1.6-.6s-.8-.6-1.2-1.1c-.3-.4-.5-1-.5-1.6h1.9c0 .4.1.6.3.9.2.2.5.4.8.6.3.2.6.3 1 .3.4.1.7.1 1 .1.6 0 1.2-.1 1.6-.3.4-.2.8-.5 1.1-.9.3-.4.5-.9.6-1.4.1-.5.2-1.2.2-1.8v-.8c-.3.7-.8 1.3-1.5 1.6-.7.3-1.4.5-2.2.5-.9 0-1.7-.2-2.3-.5-.7-.3-1.2-.8-1.6-1.3-.4-.5-.8-1.2-1-1.9-.2-.7-.3-1.5-.3-2.3 0-.7.1-1.4.3-2.2.2-.7.5-1.4.9-2 .4-.6 1-1.1 1.7-1.5.7-.4 1.6-.6 2.6-.6.7 0 1.4.2 2.1.5.6.3 1.1.8 1.5 1.5v-1.7h1.8v10.8c.1 2.1-.4 3.5-1.3 4.5zm-2.4-5.3c.4-.3.8-.6 1.1-1.1.3-.4.5-.9.6-1.5.1-.5.2-1.1.2-1.6s-.1-1-.2-1.5-.3-1-.6-1.4c-.3-.4-.6-.7-1-1-.4-.2-.9-.4-1.6-.4-.6 0-1.2.1-1.6.4-.4.2-.8.6-1.1.9-.3.4-.5.9-.6 1.4-.1.5-.2 1.1-.2 1.6s.1 1.1.2 1.6.3 1 .5 1.5c.3.4.6.8 1 1.1.4.3 1 .4 1.6.4.7 0 1.2-.2 1.7-.4zM47.4 72.5c-.7-.5-1.6-.8-2.8-.8-.5 0-.9 0-1.3.1s-.8.2-1.2.5-.6.5-.8.9c-.2.3-.3.8-.3 1.3s.1.9.4 1.2c.3.3.7.6 1.2.8.5.2 1.1.4 1.7.5.6.1 1.3.3 1.9.4.6.2 1.3.3 1.9.5.6.2 1.2.5 1.7.8.5.4.9.8 1.2 1.3.3.5.4 1.2.4 2 0 .9-.2 1.6-.6 2.2-.4.6-.9 1.1-1.5 1.5-.6.4-1.3.7-2 .8-.8.4-1.5.5-2.3.5-.9 0-1.8-.1-2.6-.3-.8-.2-1.5-.6-2.1-1-.6-.5-1.1-1.1-1.5-1.8-.4-.7-.5-1.6-.5-2.6h2.1c0 .7.1 1.3.4 1.8.3.5.6.9 1.1 1.2.4.3.9.6 1.5.7.6.2 1.2.2 1.8.2.5 0 1 0 1.5-.1s.9-.2 1.3-.5c.4-.2.7-.5 1-.9.2-.4.4-.9.4-1.5s-.1-1-.4-1.4c-.3-.4-.7-.6-1.2-.9-.5-.2-1.1-.4-1.7-.5-.6-.1-1.3-.3-1.9-.4-.6-.1-1.3-.3-1.9-.5-.6-.2-1.2-.4-1.7-.8-.5-.3-.9-.7-1.2-1.2-.3-.5-.4-1.1-.4-1.9 0-.8.2-1.5.5-2.1.3-.6.8-1.1 1.3-1.5.6-.4 1.2-.7 1.9-.9.7-.2 1.4-.3 2.2-.3.8 0 1.6.1 2.3.3.7.2 1.3.5 1.9.9.5.4 1 1 1.3 1.6.3.6.5 1.4.5 2.3h-2.1c-.2-1-.7-1.9-1.4-2.4zm5.8 5.8c.2-.8.6-1.4 1.1-2 .5-.6 1.1-1 1.8-1.3.7-.3 1.5-.5 2.5-.5.9 0 1.8.2 2.5.5s1.3.8 1.8 1.3c.5.6.9 1.2 1.1 2 .2.8.4 1.6.4 2.4 0 .9-.1 1.7-.4 2.4-.2.7-.6 1.4-1.1 2-.5.6-1.1 1-1.8 1.3-.7.3-1.5.5-2.5.5-.9 0-1.8-.2-2.5-.5s-1.3-.7-1.8-1.3c-.5-.6-.9-1.2-1.1-2-.2-.7-.4-1.6-.4-2.4.1-.9.2-1.7.4-2.4zm2 4.3c.2.6.5 1 .8 1.4.3.4.7.7 1.2.9.4.2.9.3 1.4.3.5 0 1-.1 1.4-.3.4-.2.8-.5 1.2-.9.3-.4.6-.8.8-1.4.2-.6.3-1.2.3-1.9s-.1-1.4-.3-1.9c-.2-.6-.5-1-.8-1.4-.3-.4-.7-.7-1.2-.9-.4-.2-.9-.3-1.4-.3-.5 0-1 .1-1.4.3-.4.2-.8.5-1.2.9-.3.4-.6.8-.8 1.4-.2.6-.3 1.2-.3 1.9s.1 1.4.3 1.9zm10.9-4.3c.2-.8.6-1.4 1.1-2 .5-.6 1.1-1 1.8-1.3.7-.3 1.5-.5 2.5-.5.9 0 1.8.2 2.5.5s1.3.8 1.8 1.3c.5.6.9 1.2 1.1 2 .2.8.4 1.6.4 2.4 0 .9-.1 1.7-.4 2.4-.2.7-.6 1.4-1.1 2-.5.6-1.1 1-1.8 1.3-.7.3-1.5.5-2.5.5-.9 0-1.8-.2-2.5-.5s-1.3-.7-1.8-1.3c-.5-.6-.9-1.2-1.1-2-.2-.7-.4-1.6-.4-2.4.1-.9.2-1.7.4-2.4zm2 4.3c.2.6.5 1 .8 1.4.3.4.7.7 1.2.9.4.2.9.3 1.4.3.5 0 1-.1 1.4-.3.4-.2.8-.5 1.2-.9.3-.4.6-.8.8-1.4.2-.6.3-1.2.3-1.9s-.1-1.4-.3-1.9c-.2-.6-.5-1-.8-1.4-.3-.4-.7-.7-1.2-.9-.4-.2-.9-.3-1.4-.3-.5 0-1 .1-1.4.3-.4.2-.8.5-1.2.9-.3.4-.6.8-.8 1.4-.2.6-.3 1.2-.3 1.9s.1 1.4.3 1.9zm13-7.8v1.9c.8-1.4 2.1-2.1 3.8-2.1.8 0 1.4.1 1.9.3.5.2.9.5 1.3.9.3.4.5.8.7 1.4.1.5.2 1.1.2 1.7v7.8h-1.9v-8c0-.7-.2-1.3-.6-1.7-.4-.4-1-.6-1.8-.6-.6 0-1.1.1-1.5.3-.4.2-.8.4-1.1.8-.3.3-.5.7-.7 1.2-.1.4-.2.9-.2 1.5v6.7h-1.9V74.8h1.8z"/></svg>