<svg id="Layer_1" xmlns="http://www.w3.org/2000/svg" viewBox="0 0 128 128"><style>.st0{fill:#FFF}.st1{fill:#ed3023}</style><circle class="st0" cx="64" cy="64" r="64"/><path class="st1" d="M37.7 32.9c0-5.2 4.1-10.7 9.7-10.7 4.6 0 7.2 3.2 7.2 7.3 0 5.2-4.1 10.7-9.7 10.7-4.6.1-7.2-3.2-7.2-7.3zm15.4-3.2c0-3.2-1.8-6-5.8-6-4.6 0-8 4.6-8 9.2 0 3.2 1.8 6 5.8 6 4.5 0 8-4.6 8-9.2zM63.7 22.3c-.4.1-.8.3-1.2.6-.5.5-.9 1.4-1.2 2.5l-.8 3.5h5.6l1-4.3c.3-1.5.8-2.3 1.6-3 .6-.6 1.5-1 2.5-1 1.1 0 1.8.5 1.8 1.3 0 .6-.5 1.1-1.1 1.1-.7 0-1.1-.5-1.1-1.2-.4.1-.9.2-1.3.6-.5.5-.9 1.4-1.2 2.5l-.9 4h2.9l-.3 1.2h-2.9L65 40h-1.4l2.3-9.9h-5.6L58 40h-1.4l2.3-9.9h-2l.3-1.2h2l.9-3.7c.3-1.5.8-2.3 1.6-3 .6-.6 1.5-1 2.4-1 1.1 0 1.8.5 1.8 1.3 0 .6-.5 1.1-1.1 1.1-.6-.1-1.1-.5-1.1-1.3zM72.1 34.8v.7c0 2.3 1.9 3.5 3.8 3.5 1.3 0 2.2-.3 3.6-1l-.3 1.4c-1.2.6-2.1.8-3.6.8-2.6 0-4.9-1.7-4.9-4.7 0-3.8 2.9-6.9 6.2-6.9 2.5 0 4 1.6 4 3.9 0 .7-.2 1.4-.4 2.2h-8.4zm.3-1.2h7.1c.1-.4.2-.8.2-1.3 0-1.2-.8-2.5-2.9-2.5-2 .1-3.8 1.7-4.4 3.8zM85.7 30.1h-2.1l.3-1.2h3.4l-.7 3c1.5-2 2.7-3.2 3.8-3.2.9 0 1.3.5 1.3 1.2s-.6 1.3-1.2 1.3-1-.4-1.2-.9c-.9.5-2.8 2.3-3.5 4.9L84.6 40h-1.4l2.5-9.9z"/><g><path class="st1" d="M42.1 77v3.7h-9.7v4.7h8.4v3.4h-8.4v8.3H28V77h14.1zM56.2 77c.9 0 1.7.1 2.4.4.7.3 1.3.7 1.9 1.2.5.5.9 1.1 1.2 1.8.3.7.4 1.4.4 2.2 0 1.2-.3 2.2-.7 3.1-.5.9-1.3 1.5-2.4 2v.1c.5.2 1 .4 1.4.7.4.3.6.7.9 1.1.2.4.4.9.5 1.4.1.5.2 1 .2 1.5 0 .3 0 .7.1 1.1 0 .4.1.9.1 1.3 0 .5.1.9.2 1.3s.3.7.5 1h-4.4c-.2-.6-.4-1.4-.5-2.3-.1-.9-.1-1.7-.3-2.5-.2-1.1-.5-1.8-1-2.3-.5-.5-1.3-.7-2.4-.7h-4.4v7.9h-4.4V77h10.7zm-1.6 9.1c1 0 1.8-.2 2.3-.7.5-.5.8-1.2.8-2.2 0-1-.3-1.7-.8-2.1-.5-.4-1.3-.7-2.3-.7h-4.9v5.7h4.9zM81.5 77v3.7H70.9V85h9.8v3.4h-9.8v4.9h10.9V97H66.4V77h15.1zM100.5 77v3.7H89.9V85h9.8v3.4h-9.8v4.9h10.9V97H85.4V77h15.1z"/></g><g><path class="st1" d="M19.5 53.6v5c.3-.5.7-.9 1.2-1.2.6-.2 1.2-.4 1.8-.4.7 0 1.4.1 2 .4.6.3 1 .6 1.4 1.1.4.5.6 1 .8 1.6.2.6.3 1.3.3 1.9 0 .7-.1 1.3-.3 1.9-.2.6-.5 1.1-.8 1.6-.4.5-.8.8-1.4 1.1-.6.3-1.2.4-1.9.4-.2 0-.5 0-.8-.1-.3 0-.6-.1-.9-.2-.3-.1-.6-.3-.8-.5-.3-.2-.5-.4-.6-.7V67h-1.6V53.6h1.6zm5.7 7.1c-.1-.4-.3-.8-.5-1.1-.2-.3-.6-.6-.9-.8-.4-.2-.8-.3-1.3-.3s-1 .1-1.4.3c-.4.2-.7.5-.9.8-.2.3-.4.7-.5 1.2-.1.4-.2.9-.2 1.3 0 .5.1.9.2 1.4.1.4.3.8.5 1.2.2.3.6.6.9.8.4.2.9.3 1.4.3.5 0 1-.1 1.4-.3.4-.2.7-.5.9-.8.2-.3.4-.7.5-1.2.1-.4.1-.9.1-1.4 0-.5-.1-.9-.2-1.4zM35.6 67v-1.5c-.3.6-.8 1-1.3 1.3-.5.3-1.1.4-1.8.4-.6 0-1.2-.1-1.6-.3-.4-.2-.8-.4-1-.7-.3-.3-.4-.7-.6-1.1-.1-.4-.2-.9-.2-1.4v-6.4h1.6v6.5c0 .6.2 1.1.5 1.4.3.3.8.5 1.4.5.5 0 .9-.1 1.3-.2.4-.2.7-.4.9-.6.2-.3.4-.6.5-1 .1-.4.2-.8.2-1.2v-5.5h1.6V67h-1.5zM43 69.4c-.2.3-.4.6-.6.8-.2.2-.5.4-.7.4-.3.1-.6.1-.9.1h-.6c-.2 0-.4-.1-.5-.1v-1.5c.1.1.3.1.5.1.2.1.3.1.5.1.3 0 .6-.1.8-.2.2-.2.4-.4.5-.7l.7-1.6-3.8-9.6h1.8l2.8 7.9 2.7-7.9h1.7l-4.2 10.9c-.4.6-.6 1-.7 1.3zM58.5 67v-9.5h-3.4v-1.3c.4 0 .9 0 1.3-.1s.8-.2 1.1-.4c.3-.2.6-.4.9-.8.2-.3.4-.7.5-1.2h1.2V67h-1.6zM77.8 69.7c-.7.8-1.9 1.2-3.4 1.2-.4 0-.9 0-1.4-.1-.5-.1-.9-.3-1.3-.5s-.7-.5-.9-.9c-.2-.4-.4-.8-.4-1.3H72c0 .3.1.5.3.7.2.2.4.4.6.5.2.1.5.2.8.3.3.1.6.1.8.1.5 0 1-.1 1.3-.3.4-.2.7-.4.9-.7.2-.3.4-.7.5-1.1.1-.4.2-.9.2-1.5v-.6c-.3.6-.7 1-1.2 1.3-.6.3-1.1.4-1.8.4s-1.4-.1-1.9-.4c-.5-.3-1-.6-1.3-1.1-.4-.4-.6-1-.8-1.6-.2-.6-.3-1.2-.3-1.9 0-.6.1-1.2.2-1.8.1-.6.4-1.2.7-1.6.3-.5.8-.9 1.4-1.2.6-.3 1.3-.5 2.1-.5.6 0 1.2.1 1.7.4.5.3.9.7 1.2 1.2v-1.4h1.5v8.8c0 1.6-.3 2.8-1.1 3.6zm-2-4.3c.4-.2.7-.5.9-.9.2-.4.4-.8.5-1.2.1-.4.2-.9.2-1.3s0-.8-.1-1.3c-.1-.4-.3-.8-.5-1.1-.2-.3-.5-.6-.9-.8-.3-.2-.8-.3-1.3-.3s-.9.1-1.3.3c-.4.2-.7.5-.9.8-.2.3-.4.7-.5 1.1-.1.4-.2.9-.2 1.3s0 .9.1 1.3.2.8.4 1.2c.2.4.5.6.8.9.3.2.8.3 1.3.3.7 0 1.1-.1 1.5-.3zM88.3 66.4c-.7.5-1.6.8-2.7.8-.8 0-1.4-.1-2-.4-.6-.2-1-.6-1.4-1-.4-.4-.7-1-.9-1.6-.2-.6-.3-1.3-.3-2s.1-1.4.3-2c.2-.6.5-1.1.9-1.6.4-.4.9-.8 1.4-1 .6-.2 1.2-.4 1.8-.4.9 0 1.6.2 2.1.5.6.4 1 .8 1.4 1.4.3.5.6 1.1.7 1.8.1.6.2 1.3.2 1.9h-7.2c0 .4 0 .8.1 1.2.1.4.3.7.5 1 .2.3.6.5 1 .7.4.2.8.3 1.4.3.7 0 1.2-.2 1.7-.5.4-.3.7-.8.9-1.4h1.6c-.3.9-.7 1.7-1.5 2.3zm-.4-6.2c-.1-.3-.3-.6-.6-.9-.2-.2-.5-.4-.9-.6-.3-.1-.7-.2-1.1-.2-.4 0-.8.1-1.1.2-.3.1-.6.3-.9.6-.2.2-.4.5-.6.9-.1.3-.2.7-.2 1.1H88c.2-.4.1-.8-.1-1.1zM95.8 57.3v1.4h-1.9v6.4c0 .1.1.2.2.3.1.1.2.1.4.1H95.8V67h-1.2c-.4 0-.8 0-1.1-.1-.3-.1-.5-.2-.7-.3-.2-.1-.3-.4-.4-.6-.1-.3-.1-.6-.1-1.1v-6.1h-1.6v-1.4h1.6v-2.9h1.6v2.9h1.9zM107 67v-9.5h-3.4v-1.3c.4 0 .9 0 1.3-.1s.8-.2 1.1-.4c.3-.2.6-.4.9-.8.2-.3.4-.7.5-1.2h1.2V67H107z"/></g></svg>