<svg id="Layer_1" xmlns="http://www.w3.org/2000/svg" viewBox="0 0 128 128"><style>.st0{fill:#fff}.st1{fill:#ed3023}</style><ellipse class="st0" cx="64" cy="64" rx="64" ry="64"/><path class="st1" d="M38.7 33.5c0-5.2 4.1-10.7 9.7-10.7 4.6 0 7.2 3.2 7.2 7.3 0 5.2-4.1 10.7-9.7 10.7-4.6 0-7.2-3.2-7.2-7.3zm15.4-3.3c0-3.2-1.8-6-5.8-6-4.6 0-8 4.6-8 9.2 0 3.2 1.8 6 5.8 6 4.5 0 8-4.6 8-9.2zm10.6-7.4c-.4.1-.8.3-1.2.6-.5.5-.9 1.4-1.2 2.5l-.8 3.5h5.6l1-4.3c.3-1.5.8-2.3 1.6-3 .6-.6 1.5-1 2.5-1 1.1 0 1.8.5 1.8 1.3 0 .6-.5 1.1-1.1 1.1-.7 0-1.1-.5-1.1-1.2-.4.1-.9.2-1.3.6-.5.5-.9 1.4-1.2 2.5l-.9 4h2.9l-.3 1.2h-2.9L66 40.5h-1.4l2.3-9.9h-5.6L59 40.5h-1.4l2.3-9.9h-2l.3-1.2h2l.9-3.7c.3-1.5.8-2.3 1.6-3 .6-.6 1.5-1 2.4-1 1.1 0 1.8.5 1.8 1.3 0 .6-.5 1.1-1.1 1.1-.6 0-1.1-.5-1.1-1.3zm8.4 12.5v.7c0 2.3 1.9 3.5 3.8 3.5 1.3 0 2.2-.3 3.6-1l-.3 1.4c-1.2.6-2.1.8-3.6.8-2.6 0-4.9-1.7-4.9-4.6 0-3.8 2.9-6.9 6.2-6.9 2.5 0 4 1.6 4 3.9 0 .7-.2 1.4-.4 2.2h-8.4zm.3-1.2h7.1c.1-.4.2-.8.2-1.3 0-1.2-.8-2.5-2.9-2.5-1.9.1-3.7 1.7-4.4 3.8zm13.3-3.5h-2.1l.3-1.2h3.4l-.7 3c1.5-2 2.7-3.2 3.8-3.2.9 0 1.3.5 1.3 1.2s-.6 1.3-1.2 1.3-1-.4-1.2-.9c-.9.5-2.8 2.3-3.5 4.9l-1.2 4.9h-1.4l2.5-10zM42.8 102.7c.2.4.6.7 1 1 .4.2.9.4 1.4.5.5.1 1 .2 1.6.2.4 0 .9 0 1.3-.1.5-.1.9-.2 1.3-.3.4-.2.7-.4 1-.7.2-.3.4-.7.4-1.2 0-.7-.3-1.2-.8-1.6-.5-.4-1.2-.6-1.9-.9-.8-.2-1.6-.4-2.5-.6-.9-.2-1.8-.4-2.5-.7-.8-.3-1.4-.8-1.9-1.4-.5-.6-.8-1.4-.8-2.4 0-.8.2-1.5.5-2.1.4-.6.8-1.1 1.4-1.4.6-.4 1.2-.6 1.9-.8.7-.2 1.4-.3 2.1-.3.9 0 1.8.1 2.5.2.8.2 1.4.4 2 .8.6.4 1.1.9 1.4 1.6.4.7.6 1.5.6 2.4H50c0-.5-.2-.9-.4-1.3-.2-.3-.5-.6-.9-.8-.4-.2-.7-.4-1.2-.5-.4-.1-.9-.1-1.3-.1s-.8 0-1.2.1c-.4.1-.8.2-1.1.3-.3.2-.6.4-.8.6-.2.3-.3.6-.3 1 0 .5.2.8.5 1.1.3.3.7.6 1.2.7.5.2 1.1.4 1.7.5.6.1 1.2.3 1.9.4.7.1 1.3.3 1.9.5.6.2 1.2.5 1.7.8.5.3.9.8 1.2 1.3.3.5.5 1.2.5 1.9 0 1-.2 1.8-.6 2.4-.4.6-.9 1.2-1.6 1.6-.7.4-1.4.7-2.2.8-.8.2-1.6.2-2.4.2-.9 0-1.7-.1-2.6-.3-.8-.2-1.5-.5-2.1-.9-.6-.4-1.1-1-1.5-1.7-.4-.7-.6-1.5-.6-2.5h2.6c0 .8.1 1.3.4 1.7zm24.6 3.6v-2.6h-.1c-.6 1-1.3 1.7-2.1 2.2-.9.5-1.9.7-3.1.7-1.1 0-1.9-.1-2.6-.4-.7-.3-1.3-.7-1.7-1.2-.4-.5-.7-1.1-.9-1.9-.2-.7-.3-1.5-.3-2.4V90.2h2.6v10.9c0 1 .3 1.8.9 2.4.6.6 1.4.9 2.4.9.8 0 1.5-.1 2.1-.4.6-.2 1.1-.6 1.5-1.1.4-.5.7-1 .9-1.6.2-.6.3-1.3.3-2v-9.1h2.6v16.1h-2.5zm7-19v-3.2H77v3.2h-2.6zm2.6 2.9v16.1h-2.6V90.2H77zm11.3 0v2.3h-3.2v10c0 .3 0 .6.1.7.1.2.2.3.3.4.1.1.3.2.6.2h2.2v2.3h-2c-.7 0-1.3 0-1.8-.1s-.9-.3-1.2-.5c-.3-.2-.5-.6-.7-1.1-.1-.5-.2-1.1-.2-1.8v-10h-2.7v-2.3h2.7v-4.8H85v4.8h3.3zM35.2 64.4c-.5-.9-1-1.8-1.3-2.8-.3-1-.5-2.1-.5-3.3 0-1.2.2-2.4.7-3.3.5-1 1.1-1.8 1.9-2.5.8-.7 1.8-1.2 2.8-1.6s2.2-.5 3.4-.5c2.9 0 5.1.8 6.8 2.5 1.6 1.7 2.4 4.2 2.4 7.5h-3.3c-.1-2.3-.5-4-1.5-5.3-.9-1.2-2.3-1.8-4.2-1.8-.8 0-1.5.1-2.2.4-.7.3-1.3.6-1.8 1.1-.5.5-.9 1-1.2 1.6s-.4 1.3-.4 2c0 .6.1 1.2.2 1.7s.3 1 .5 1.5.4.9.6 1.4c.2.4.5.9.7 1.4H45v1.8h-5.3c.2.4.4.9.5 1.4.2.5.2 1 .2 1.6 0 .9-.1 1.7-.4 2.4-.3.7-.6 1.3-1 1.9-.4.6-.9 1.1-1.4 1.6-.5.5-1.1 1-1.7 1.4l.1.1c.7-.3 1.3-.5 2-.8.6-.2 1.3-.3 2.1-.3s1.4.1 2 .2c.6.1 1.2.3 1.7.4.5.2 1 .3 1.6.5.5.2 1.1.2 1.7.2.6 0 1.2-.1 1.8-.4.6-.3 1.1-.6 1.6-1l1.7 2.6c-.8.7-1.7 1.1-2.7 1.4-1 .2-2 .4-3 .4-.6 0-1.3-.1-1.9-.2-.6-.2-1.3-.3-1.9-.5-.6-.2-1.3-.4-2-.6-.7-.2-1.4-.3-2.1-.3s-1.4.1-2.1.4c-.6.2-1.2.6-1.8 1L33 76.7c.5-.4 1.1-.8 1.6-1.3s1-1 1.4-1.6c.4-.6.7-1.2 1-1.9.2-.7.3-1.4.3-2.1 0-.6-.1-1.2-.3-1.9-.2-.6-.4-1.2-.7-1.8H33v-1.8h2.2zM62 56.2l-1.1 6.2.1.1c.8-.8 1.6-1.3 2.4-1.6.9-.3 1.8-.5 2.9-.5 1.3 0 2.5.2 3.6.7 1 .5 1.9 1.2 2.6 2 .7.8 1.3 1.8 1.6 2.9.4 1.1.6 2.3.6 3.6 0 1.4-.3 2.7-.8 3.9-.5 1.2-1.3 2.3-2.2 3.1-.9.9-2 1.6-3.2 2-1.2.5-2.5.7-3.9.7-1.3 0-2.6-.2-3.8-.5-1.2-.3-2.3-.9-3.2-1.6-.9-.7-1.7-1.6-2.2-2.7-.6-1.1-.8-2.3-.9-3.8H60c.1 1.2.6 2.2 1.4 3 .8.7 1.8 1.1 3.1 1.1.7 0 1.4-.1 2-.4.6-.3 1.1-.7 1.5-1.2.4-.5.7-1 .9-1.7.2-.6.3-1.3.3-2s-.1-1.4-.3-2c-.2-.6-.5-1.2-.9-1.6-.4-.5-.9-.8-1.5-1.1-.6-.3-1.2-.4-2-.4-1 0-1.8.2-2.4.5-.6.3-1.2.9-1.8 1.7h-5l2.7-15h15.2v4.6H62zm16 2.3c.5-1.8 1.3-3.3 2.2-4.3.9-1.1 2-1.9 3.2-2.3 1.2-.5 2.5-.7 3.8-.7 1.4 0 2.7.2 3.9.7 1.2.5 2.3 1.2 3.2 2.3.9 1.1 1.6 2.5 2.2 4.3.5 1.8.8 4 .8 6.7s-.3 5-.8 6.8c-.5 1.8-1.3 3.3-2.2 4.4-.9 1.1-2 1.9-3.2 2.3-1.2.5-2.5.7-3.9.7s-2.6-.2-3.8-.7c-1.2-.5-2.3-1.2-3.2-2.3-.9-1.1-1.6-2.5-2.2-4.4-.5-1.8-.8-4.1-.8-6.8s.2-4.9.8-6.7zm4.8 9.5c.1 1.1.2 2.2.5 3.2s.7 1.9 1.3 2.6 1.5 1.1 2.6 1.1 2-.4 2.6-1.1c.6-.7 1.1-1.6 1.3-2.6.3-1 .4-2.1.5-3.2.1-1.1.1-2 .1-2.8v-1.7c0-.7-.1-1.3-.2-2s-.2-1.4-.4-2.1c-.2-.7-.4-1.3-.8-1.8-.3-.5-.8-1-1.3-1.3-.5-.3-1.2-.5-1.9-.5-.8 0-1.4.2-1.9.5s-.9.8-1.2 1.3c-.3.5-.6 1.2-.8 1.8-.2.7-.3 1.4-.4 2.1-.1.7-.1 1.4-.1 2v1.7c0 .7 0 1.6.1 2.8z"/></svg>