<svg id="Layer_1" xmlns="http://www.w3.org/2000/svg" viewBox="0 0 128 128"><style>.st0{fill:#FFF}.st1{fill:#ed3023}</style><circle class="st0" cx="64" cy="64" r="64"/><path class="st1" d="M37.7 32.9c0-5.2 4.1-10.7 9.7-10.7 4.6 0 7.2 3.2 7.2 7.3 0 5.2-4.1 10.7-9.7 10.7-4.6.1-7.2-3.2-7.2-7.3zm15.4-3.2c0-3.2-1.8-6-5.8-6-4.6 0-8 4.6-8 9.2 0 3.2 1.8 6 5.8 6 4.5 0 8-4.6 8-9.2zM63.7 22.3c-.4.1-.8.3-1.2.6-.5.5-.9 1.4-1.2 2.5l-.8 3.5h5.6l1-4.3c.3-1.5.8-2.3 1.6-3 .6-.6 1.5-1 2.5-1 1.1 0 1.8.5 1.8 1.3 0 .6-.5 1.1-1.1 1.1-.7 0-1.1-.5-1.1-1.2-.4.1-.9.2-1.3.6-.5.5-.9 1.4-1.2 2.5l-.9 4h2.9l-.3 1.2h-2.9L65 40h-1.4l2.3-9.9h-5.6L58 40h-1.4l2.3-9.9h-2l.3-1.2h2l.9-3.7c.3-1.5.8-2.3 1.6-3 .6-.6 1.5-1 2.4-1 1.1 0 1.8.5 1.8 1.3 0 .6-.5 1.1-1.1 1.1-.6-.1-1.1-.5-1.1-1.3zM72.1 34.8v.7c0 2.3 1.9 3.5 3.8 3.5 1.3 0 2.2-.3 3.6-1l-.3 1.4c-1.2.6-2.1.8-3.6.8-2.6 0-4.9-1.7-4.9-4.7 0-3.8 2.9-6.9 6.2-6.9 2.5 0 4 1.6 4 3.9 0 .7-.2 1.4-.4 2.2h-8.4zm.3-1.2h7.1c.1-.4.2-.8.2-1.3 0-1.2-.8-2.5-2.9-2.5-2 .1-3.8 1.7-4.4 3.8zM85.7 30.1h-2.1l.3-1.2h3.4l-.7 3c1.5-2 2.7-3.2 3.8-3.2.9 0 1.3.5 1.3 1.2s-.6 1.3-1.2 1.3-1-.4-1.2-.9c-.9.5-2.8 2.3-3.5 4.9L84.6 40h-1.4l2.5-9.9z"/><g><path class="st1" d="M42.9 58.7c.5 0 1-.2 1.4-.3.4-.2.8-.5 1.1-.8.3-.4.4-.8.4-1.4 0-.9-.3-1.6-.9-2-.6-.5-1.3-.7-2-.7-1.1 0-1.9.3-2.4 1s-.8 1.6-.8 2.6h-4c0-1.1.2-2 .6-2.9.3-.9.8-1.6 1.4-2.3.6-.6 1.4-1.1 2.2-1.5.9-.3 1.8-.5 2.9-.5.8 0 1.6.1 2.5.4.8.2 1.6.6 2.2 1.1.7.5 1.2 1.1 1.6 1.8.4.7.6 1.5.6 2.4 0 1-.2 1.9-.7 2.6-.5.8-1.2 1.3-2.2 1.6v.1c1.1.3 2 .8 2.7 1.6.6.8 1 1.9 1 3s-.2 2-.6 2.9c-.4.8-1 1.5-1.7 2.1-.7.6-1.5 1-2.4 1.3-.9.3-1.9.4-2.9.4-1.2 0-2.2-.2-3.2-.5s-1.8-.8-2.4-1.5c-.7-.6-1.2-1.4-1.5-2.3-.4-.9-.5-2-.5-3.2h4c0 .5.1 1.1.3 1.6.2.5.4.9.7 1.3.3.4.7.7 1.1.9.4.2 1 .3 1.6.3.9 0 1.7-.3 2.4-.9.6-.6 1-1.4 1-2.4 0-.8-.2-1.4-.5-1.8-.3-.4-.7-.7-1.2-.9-.5-.2-1-.3-1.5-.3h-1.6v-2.9c.3.1.8.1 1.3.1zM56.7 58v-2.2h2.6v-2.3c0-1.2.4-2.2 1.1-2.8.7-.6 1.8-1 3.1-1 .2 0 .5 0 .8.1.3 0 .6.1.8.2v2.2c-.2-.1-.5-.1-.7-.2h-.7c-.6 0-1.1.1-1.4.4-.3.2-.5.7-.5 1.4v2.1h2.9V58h-2.9v13h-2.5V58h-2.6zM66.8 60.2c.3-1 .8-1.8 1.4-2.5.6-.7 1.4-1.3 2.3-1.7.9-.4 2-.6 3.2-.6 1.2 0 2.3.2 3.2.6.9.4 1.7 1 2.3 1.7.6.7 1.1 1.6 1.4 2.5.3 1 .5 2 .5 3.1s-.2 2.2-.5 3.1c-.3 1-.8 1.8-1.4 2.5-.6.7-1.4 1.3-2.3 1.7-.9.4-2 .6-3.2.6-1.2 0-2.3-.2-3.2-.6-.9-.4-1.7-1-2.3-1.7-.6-.7-1.1-1.6-1.4-2.5-.3-1-.5-2-.5-3.1.1-1 .2-2.1.5-3.1zm2.6 5.6c.2.7.6 1.3 1 1.8s.9.8 1.5 1.1c.6.3 1.2.4 1.8.4.6 0 1.3-.1 1.8-.4.6-.3 1.1-.6 1.5-1.1.4-.5.8-1.1 1-1.8.2-.7.4-1.5.4-2.5s-.1-1.7-.4-2.5c-.2-.7-.6-1.3-1-1.8s-.9-.9-1.5-1.1c-.6-.3-1.2-.4-1.8-.4-.6 0-1.3.1-1.8.4-.6.3-1.1.6-1.5 1.1-.4.5-.8 1.1-1 1.8-.2.7-.4 1.5-.4 2.5s.1 1.8.4 2.5zM86.6 55.8V59h.1c.6-1.2 1.4-2.1 2.2-2.7.9-.6 2-.9 3.4-.8v2.6c-1 0-1.9.1-2.6.4-.7.3-1.3.7-1.7 1.2-.4.5-.7 1.2-.9 1.9-.2.8-.3 1.6-.3 2.6V71h-2.5V55.8h2.3z"/><g><path class="st1" d="M46.9 90.1c-.5-.8-.9-1.7-1.2-2.6-.3-.9-.5-1.9-.5-3.1 0-1.2.2-2.2.7-3.1.5-.9 1.1-1.7 1.8-2.3.8-.6 1.7-1.1 2.7-1.5 1-.3 2.1-.5 3.2-.5 2.7 0 4.9.8 6.4 2.4 1.6 1.6 2.3 4 2.3 7.1h-3.1c0-2.2-.5-3.8-1.4-5-.9-1.2-2.2-1.7-4-1.7-.7 0-1.4.1-2.1.4-.6.2-1.2.6-1.7 1s-.9.9-1.1 1.5c-.3.6-.4 1.2-.4 1.9 0 .6.1 1.1.2 1.6s.3 1 .5 1.4c.2.4.4.9.6 1.3.2.4.4.8.7 1.3h5.8v1.7h-5c.2.4.4.8.5 1.3.1.5.2 1 .2 1.5 0 .8-.1 1.6-.4 2.2-.2.7-.6 1.3-1 1.8-.4.6-.8 1.1-1.4 1.5-.5.5-1 .9-1.6 1.4l.1.1c.6-.3 1.3-.5 1.9-.7.6-.2 1.3-.3 2-.3s1.3.1 1.9.2c.6.1 1.1.2 1.6.4.5.1 1 .3 1.5.4.5.1 1 .2 1.6.2.6 0 1.2-.1 1.7-.4.6-.3 1.1-.6 1.5-.9L63 103c-.7.6-1.6 1.1-2.5 1.3-.9.2-1.9.3-2.8.3-.6 0-1.2-.1-1.8-.2-.6-.1-1.2-.3-1.8-.5-.6-.2-1.2-.4-1.9-.5-.6-.2-1.3-.2-2-.2s-1.4.1-1.9.3c-.6.2-1.2.5-1.7.9l-1.7-2.4c.5-.3 1-.7 1.5-1.2s.9-1 1.3-1.5c.4-.6.7-1.2.9-1.8.2-.6.3-1.3.3-2 0-.6-.1-1.2-.3-1.8-.2-.6-.4-1.2-.6-1.7h-3.1v-1.7h2zM77.5 82.4c-.6-.6-1.4-1-2.3-1-.9 0-1.7.3-2.3.8-.6.6-1.1 1.2-1.5 2-.4.8-.6 1.6-.8 2.6-.2.9-.3 1.7-.3 2.4l.1.1c.7-1 1.5-1.8 2.5-2.2 1-.4 2.1-.7 3.3-.7 1.1 0 2.2.2 3.2.7 1.1.5 1.9 1.1 2.7 1.9.7.8 1.2 1.7 1.5 2.7.3 1 .5 2 .5 3.1 0 1.3-.2 2.6-.6 3.7-.4 1.1-1 2.1-1.8 3-.8.8-1.7 1.5-2.8 2-1.1.5-2.3.7-3.7.7-1.9 0-3.5-.4-4.8-1.2-1.3-.8-2.3-1.8-3.1-3-.8-1.3-1.3-2.7-1.6-4.2-.3-1.6-.4-3.2-.4-4.8 0-1.6.2-3.2.6-4.8.4-1.6 1-3 1.8-4.3.8-1.3 1.8-2.3 3.1-3.1 1.3-.8 2.8-1.2 4.7-1.2 1.1 0 2.1.2 3.1.5s1.8.8 2.5 1.4c.7.6 1.3 1.3 1.8 2.2.5.9.8 1.9.9 3.1h-5c-.3-1-.7-1.8-1.3-2.4zm-4.4 8.4c-.5.3-1 .6-1.3 1-.3.4-.6.9-.8 1.5-.2.6-.3 1.2-.3 1.8 0 .6.1 1.2.3 1.7.2.6.5 1.1.8 1.5.4.5.8.8 1.3 1.1.5.3 1.1.4 1.8.4.6 0 1.2-.1 1.7-.4.5-.3.9-.6 1.2-1.1.3-.4.6-.9.8-1.5.2-.6.3-1.1.3-1.7 0-.6-.1-1.2-.2-1.8-.2-.6-.4-1.1-.7-1.5-.3-.5-.7-.8-1.2-1.1-.5-.3-1.1-.4-1.7-.4-.9.1-1.5.2-2 .5z"/></g></g></svg>