<svg id="Layer_1" xmlns="http://www.w3.org/2000/svg" viewBox="0 0 128 128"><style>.st0{fill:#FFF}.st1{fill:#ed3023}</style><circle class="st0" cx="64" cy="64" r="64"/><path class="st1" d="M36.5 32.2h2.2l3.4-14.7h-2.5l.3-1.3h12.5l-.8 3.8h-1.5l.6-2.6h-7.1l-1.5 6.5h5.8l-.3 1.3h-5.8l-1.6 6.9h7.1l.6-2.6h1.5l-.9 3.9H36.2l.3-1.2zM51.8 32.4c0-.6.5-1.1 1.1-1.1.6 0 1 .4 1.1 1 .6-.2 1.1-.9 2.1-2.2l1.7-2.4-1.5-4H54l.3-1.2h2.8l1.5 4.3 1.4-2c1-1.4 2.1-2.5 3.2-2.5s1.6.6 1.6 1.2-.5 1.1-1.1 1.1c-.7 0-1-.5-1.1-1-.4.2-1 .8-1.8 1.9l-1.6 2.2 1.3 3.2c.6 1.5.9 1.7 1.2 1.7.3 0 .8-.5 1.2-1.7l.8.2c-.5 1.8-1.3 2.5-2.2 2.5-1 0-1.6-.6-2.1-2.1l-1.1-3-1.7 2.5c-1.2 1.8-2.2 2.5-3.4 2.5-.9.1-1.4-.5-1.4-1.1zM70.5 23.6l-1.7 7.1c-.1.3-.1.6-.1 1s.3.8.9.8c.6 0 1.3-.4 2.4-1.1l.6.8c-1.3.9-2.2 1.5-3.3 1.5-1.2 0-2.1-.8-2.1-1.8 0-.3.1-.7.2-1.2l1.8-7.1h-2l.3-1.2h1.9l.7-2.7 1.5-.4-.8 3.1h3.4l-.3 1.2h-3.4zM77.7 23.6h-2.1l.3-1.2h3.4l-.7 3c1.5-2 2.7-3.2 3.8-3.2.9 0 1.3.5 1.3 1.2s-.6 1.3-1.2 1.3-1-.4-1.2-.9c-.9.5-2.8 2.3-3.5 4.9l-1.2 4.9h-1.4l2.5-10zM84.2 29.1c0-3.8 2.7-6.9 5.9-6.9 2 0 3.3 1.1 3.6 2.9l.7-2.8h1.4l-2.1 8.5c-.1.4-.2.8-.2 1.1 0 .5.3.9.8.9.6 0 1-.5 1.5-1.7l.8.3c-.5 1.6-1.3 2.5-2.5 2.5s-2-.7-2-1.8v-.4c-1 1.3-2.4 2.3-4 2.3-2.2-.3-3.9-2.1-3.9-4.9zm9.1-2.4c0-2-1.1-3.3-3.1-3.3-2.7 0-4.5 2.8-4.5 5.7 0 2.1 1 3.4 2.9 3.4 2.9-.1 4.7-3.3 4.7-5.8z"/><g><path class="st1" d="M24.2 53.2c.6-1.8 1.4-3.5 2.6-4.8 1.1-1.4 2.6-2.5 4.3-3.2 1.7-.8 3.7-1.2 6-1.2 1.7 0 3.4.3 4.9.8 1.6.5 2.9 1.3 4.1 2.3 1.2 1 2.1 2.2 2.8 3.7.7 1.5 1 3.1 1 4.9 0 1.9-.3 3.5-.9 4.9-.6 1.4-1.4 2.6-2.4 3.6-1 1.1-2.1 2-3.4 2.9-1.3.9-2.6 1.7-3.8 2.6-1.3.8-2.5 1.7-3.8 2.7-1.2 1-2.3 2.1-3.2 3.4h17.8v6.6H22.6c0-2.2.3-4.1.9-5.7.6-1.6 1.5-3.1 2.6-4.3 1.1-1.3 2.3-2.4 3.8-3.5s3-2.2 4.6-3.3c.8-.6 1.7-1.2 2.6-1.7.9-.6 1.8-1.2 2.6-2 .8-.7 1.4-1.5 1.9-2.4.5-.9.8-1.9.8-3.1 0-1.8-.5-3.3-1.6-4.3s-2.4-1.5-4.1-1.5c-1.1 0-2.1.3-2.8.8-.8.5-1.4 1.2-1.9 2s-.8 1.8-1 2.8c-.2 1-.3 2-.3 3h-7.3c-.1-2.1.2-4.1.8-6zM53.6 54.2c.7-2.5 1.7-4.5 3-6s2.7-2.6 4.4-3.2c1.7-.6 3.4-1 5.3-1s3.7.3 5.4 1c1.7.6 3.1 1.7 4.4 3.2 1.3 1.5 2.3 3.5 3 6 .7 2.5 1.1 5.6 1.1 9.2 0 3.8-.4 6.9-1.1 9.4-.7 2.5-1.7 4.5-3 6.1-1.3 1.5-2.7 2.6-4.4 3.2-1.7.6-3.5 1-5.4 1-1.9 0-3.6-.3-5.3-1-1.7-.6-3.1-1.7-4.4-3.2-1.3-1.5-2.3-3.5-3-6.1-.7-2.5-1.1-5.7-1.1-9.4 0-3.6.3-6.7 1.1-9.2zm6.6 13.1c.1 1.5.3 3 .7 4.4.4 1.4 1 2.6 1.8 3.6s2 1.5 3.6 1.5 2.8-.5 3.6-1.5c.8-1 1.5-2.2 1.8-3.6.4-1.4.6-2.9.7-4.4.1-1.5.1-2.8.1-3.9v-2.3c0-.9-.1-1.9-.2-2.8-.1-1-.3-1.9-.5-2.9s-.6-1.8-1-2.6c-.5-.8-1.1-1.4-1.8-1.8-.7-.5-1.6-.7-2.6-.7s-1.9.2-2.6.7c-.7.5-1.3 1.1-1.7 1.8-.4.8-.8 1.6-1 2.6-.3.9-.4 1.9-.5 2.9-.1 1-.2 1.9-.2 2.8v2.3c-.3 1.1-.3 2.4-.2 3.9z"/><g><path class="st1" d="M84.5 75.2c.2-.6.5-1.2.9-1.7s.9-.8 1.5-1.1c.6-.3 1.3-.4 2.1-.4s1.5.1 2.1.4c.6.3 1.1.6 1.5 1.1.4.5.7 1 .9 1.7.2.6.3 1.3.3 2.1 0 .7-.1 1.4-.3 2-.2.6-.5 1.2-.9 1.6-.4.5-.9.8-1.5 1.1-.6.3-1.3.4-2.1.4s-1.5-.1-2.1-.4c-.6-.3-1.1-.6-1.5-1.1-.4-.5-.7-1-.9-1.6-.2-.6-.3-1.3-.3-2 0-.8.1-1.5.3-2.1zm1.6 3.6c.2.5.4.9.7 1.2.3.3.6.6 1 .7.4.2.8.2 1.2.2.4 0 .8-.1 1.2-.2.4-.2.7-.4 1-.7.3-.3.5-.7.7-1.2.2-.5.2-1 .2-1.6 0-.6-.1-1.1-.2-1.6-.2-.5-.4-.9-.7-1.2-.3-.3-.6-.6-1-.7-.4-.2-.8-.2-1.2-.2-.4 0-.8.1-1.2.2-.4.2-.7.4-1 .7-.3.3-.5.7-.7 1.2-.2.5-.2 1-.2 1.6 0 .6.1 1.2.2 1.6zM95 73.7v-1.4h1.7v-1.5c0-.8.2-1.4.7-1.8.5-.4 1.2-.6 2.1-.6h.5c.2 0 .4.1.5.1v1.4c-.1-.1-.3-.1-.5-.1h-.5c-.4 0-.7.1-.9.2-.2.2-.3.5-.3.9v1.4h1.9v1.4h-1.9v8.5h-1.6v-8.5H95zM100.5 73.7v-1.4h1.7v-1.5c0-.8.2-1.4.7-1.8.5-.4 1.2-.6 2.1-.6h.5c.2 0 .4.1.5.1v1.4c-.1-.1-.3-.1-.5-.1h-.5c-.4 0-.7.1-.9.2-.2.2-.3.5-.3.9v1.4h1.9v1.4h-1.9v8.5h-1.6v-8.5h-1.7z"/><g><path class="st1" d="M84.3 48.2c.1-.7.4-1.2.7-1.7.3-.5.8-.9 1.3-1.2.5-.3 1.2-.4 2-.4s1.5.1 2 .4c.5.3 1 .7 1.3 1.2.3.5.5 1.1.7 1.7.1.7.2 1.4.2 2.1 0 .7-.1 1.4-.2 2-.1.7-.4 1.2-.7 1.7-.3.5-.8.9-1.3 1.2-.5.3-1.2.5-1.9.5-.8 0-1.4-.1-2-.4-.5-.3-1-.7-1.3-1.1-.3-.5-.6-1.1-.7-1.7-.1-.6-.2-1.3-.2-2.1-.2-.8-.1-1.5.1-2.2zm1.8 3.4c0 .5.1.9.3 1.3.2.4.4.7.7 1 .3.3.7.4 1.2.4s.9-.1 1.2-.4c.3-.2.5-.6.7-1 .2-.4.3-.8.3-1.3.1-.5.1-.9.1-1.3s0-.8-.1-1.3c0-.5-.1-.9-.3-1.3-.2-.4-.4-.7-.7-1-.3-.3-.7-.4-1.2-.4s-.9.1-1.2.4c-.3.3-.5.6-.7 1-.2.4-.3.8-.3 1.3-.1.4-.1.9-.1 1.3s0 .8.1 1.3zm16.7-7.1l-14 20h-2.2l14-20h2.2zm-5.7 12.4c.1-.7.4-1.2.7-1.7.3-.5.8-.9 1.3-1.2.5-.3 1.2-.4 2-.4s1.5.1 2 .4c.5.3 1 .7 1.3 1.2.3.5.5 1.1.7 1.7.1.7.2 1.4.2 2.1 0 .7-.1 1.4-.2 2-.1.7-.4 1.2-.7 1.7-.3.5-.8.9-1.3 1.2-.5.3-1.2.4-1.9.4-.8 0-1.4-.1-2-.4-.5-.3-1-.7-1.3-1.1-.3-.5-.6-1-.7-1.7-.1-.6-.2-1.3-.2-2.1-.1-.8 0-1.5.1-2.1zm1.8 3.3c0 .5.1.9.3 1.3.2.4.4.7.7 1 .3.3.7.4 1.2.4s.9-.1 1.2-.4c.3-.2.5-.6.7-1 .2-.4.3-.8.3-1.3.1-.5.1-.9.1-1.3s0-.8-.1-1.3c0-.5-.1-.9-.3-1.3-.2-.4-.4-.7-.7-1-.3-.3-.7-.4-1.2-.4s-.9.1-1.2.4c-.3.3-.5.6-.7 1-.2.4-.3.8-.3 1.3-.1.5-.1.9-.1 1.3.1.4.1.8.1 1.3z"/></g></g></g><g><path class="st1" d="M22.1 99.6c0-2.7 1.9-4.9 4.2-4.9 1.4 0 2.4.8 2.6 2l.5-2h1l-1.5 6c-.1.3-.1.6-.1.7 0 .4.2.6.6.6.4 0 .7-.4 1.1-1.2l.6.2c-.4 1.1-.9 1.8-1.8 1.8-.8 0-1.4-.5-1.4-1.3v-.3c-.7.9-1.7 1.6-2.8 1.6-1.8 0-3-1.2-3-3.2zm6.4-1.7c0-1.4-.7-2.4-2.2-2.4-1.9 0-3.2 2-3.2 4 0 1.5.7 2.4 2.1 2.4 2 .1 3.3-2.2 3.3-4zM34.7 95.7l-1.2 5c-.1.2-.1.5-.1.7 0 .3.2.6.7.6.4 0 .9-.3 1.7-.8l.4.6c-.9.7-1.6 1.1-2.3 1.1-.9 0-1.5-.6-1.5-1.3 0-.2.1-.5.1-.8l1.3-5h-1.4l.2-.9H34l.5-1.9 1-.3-.6 2.2h2.4l-.2.9h-2.4zM40.9 99.5c0-2.4 2-4.8 4.4-4.8 2 0 2.8 1.2 2.8 2 0 .5-.4 1-.9 1-.3 0-.6-.2-.6-.7 0-.2.1-.5.4-.6-.3-.5-.8-.8-1.7-.8-1.8 0-3.4 1.9-3.4 3.9 0 1.4.9 2.5 2.5 2.5.9 0 1.8-.4 2.6-1.1l-.1 1c-.8.6-1.7 1-2.7 1-1.8-.1-3.3-1.3-3.3-3.4zM51.7 89.9h-1.5l.2-.9h2.5l-1.8 7.6c.6-1 1.5-1.9 2.7-1.9 1.3 0 2.3.9 2.3 2 0 .4-.1.8-.2 1.2l-.7 2.8c-.1.3-.1.6-.1.7 0 .4.2.6.6.6.4 0 .7-.4 1.1-1.2l.6.2c-.4 1.1-.9 1.8-1.8 1.8-.8 0-1.4-.5-1.4-1.3 0-.2.1-.6.1-.8l.7-2.8c.1-.4.1-.7.1-1.1 0-.7-.6-1.2-1.4-1.2-1.2 0-2.7 1.2-3.2 3.4l-.9 3.7h-1l3.1-12.8zM59.1 99v.5c0 1.6 1.3 2.4 2.7 2.4.9 0 1.6-.2 2.6-.7l-.2 1c-.8.4-1.5.6-2.5.6-1.8 0-3.5-1.2-3.5-3.3 0-2.7 2.1-4.9 4.4-4.9 1.8 0 2.9 1.1 2.9 2.8 0 .5-.1 1-.3 1.6h-6.1zm.2-.8h5c.1-.3.1-.6.1-.9 0-.9-.6-1.7-2-1.7-1.3 0-2.6 1.1-3.1 2.6zM66.5 99.5c0-2.4 2-4.8 4.4-4.8 2 0 2.8 1.2 2.8 2 0 .5-.4 1-.9 1-.3 0-.6-.2-.6-.7 0-.2.1-.5.4-.6-.3-.5-.8-.8-1.7-.8-1.8 0-3.4 1.9-3.4 3.9 0 1.4.9 2.5 2.5 2.5.9 0 1.8-.4 2.6-1.1l-.1 1c-.8.6-1.7 1-2.7 1-1.9-.1-3.3-1.3-3.3-3.4zM74.3 102.7l3-12.8h-1.5l.2-.9h2.5l-2.3 9.8c2.4-1.1 3.8-2.1 4.1-2.6-.2-.1-.4-.4-.4-.7 0-.5.4-.9.9-.9.4 0 .8.3.8.9 0 1.1-1.7 2.3-3.4 3.1l.9 2.2c.2.5.3.8.5 1 .2.2.3.2.5.2.3 0 .6-.3.9-1.4l.6.2c-.3 1.5-.9 2-1.6 2-.4 0-.7-.1-1-.4-.2-.2-.5-.6-.7-1.1l-.9-2.3-1.4.7-.7 3h-1zM82.3 99.5c0-2.5 1.9-4.8 4.4-4.8 2.1 0 3.3 1.5 3.3 3.4 0 2.5-1.9 4.8-4.4 4.8-2.1-.1-3.3-1.6-3.3-3.4zm6.8-1.5c0-1.5-1-2.5-2.4-2.5-1.9 0-3.4 1.8-3.4 3.9 0 1.5 1 2.5 2.4 2.5 1.9.1 3.4-1.8 3.4-3.9zM94 94.8l-1.3 5.1c-.1.3-.1.6-.1 1 0 .6.5 1.1 1.3 1.1 1.2 0 2.7-1.3 3.2-3.4l.9-3.7h1l-1.5 5.9c-.1.3-.1.6-.1.7 0 .4.2.6.6.6.4 0 .7-.4 1.1-1.2l.6.2c-.4 1.1-.9 1.8-1.8 1.8-.8 0-1.3-.5-1.3-1.3 0-.2 0-.4.1-.7-.7 1.1-1.6 2-2.8 2-1.3 0-2.1-.8-2.1-1.9 0-.4.1-.8.2-1.1l1.1-4.1h-1.5l.2-.9H94zM103.3 95.7l-1.2 5c-.1.2-.1.5-.1.7 0 .3.2.6.7.6.4 0 .9-.3 1.7-.8l.4.6c-.9.7-1.6 1.1-2.3 1.1-.9 0-1.5-.6-1.5-1.3 0-.2.1-.5.1-.8l1.3-5H101l.2-.9h1.4l.5-1.9 1-.3-.6 2.2h2.4l-.2.9h-2.4z"/></g></svg>