<svg id="Layer_1" xmlns="http://www.w3.org/2000/svg" viewBox="0 0 128 128"><style>.st0{fill:#ed3023}.st1{fill:#fff}</style><circle class="st0" cx="64" cy="64" r="64"/><path class="st1" d="M12.4 59.5c.1.9.4 1.5.7 2 .7.8 1.8 1.2 3.4 1.2 1 0 1.8-.1 2.4-.3 1.2-.4 1.7-1.1 1.7-2.2 0-.6-.3-1.1-.8-1.5-.6-.3-1.5-.6-2.7-.9l-2.1-.5c-2.1-.5-3.5-.9-4.2-1.5-1.3-.9-2-2.3-2-4.2 0-1.7.6-3.2 1.9-4.3 1.3-1.1 3.1-1.7 5.6-1.7 2.1 0 3.8.5 5.3 1.6s2.2 2.6 2.3 4.7H20c-.1-1.2-.6-2-1.6-2.5-.6-.3-1.4-.5-2.4-.5-1.1 0-1.9.2-2.6.6-.6.4-1 1-1 1.8 0 .7.3 1.2.9 1.5.4.2 1.3.5 2.6.8l3.4.8c1.5.3 2.6.8 3.3 1.4 1.2.9 1.7 2.2 1.7 3.9 0 1.8-.7 3.2-2 4.4-1.4 1.2-3.3 1.8-5.8 1.8s-4.5-.6-6-1.7-2.2-2.7-2.2-4.7h4.1zm27.7-2.4c-1.1.9-2.7 1.4-4.8 1.4h-4v6.9h-4V46.2h8.3c1.9 0 3.4.5 4.6 1.5 1.1 1 1.7 2.5 1.7 4.6-.1 2.3-.6 3.9-1.8 4.8zM37 50.2c-.5-.4-1.2-.6-2.1-.6h-3.6v5.7h3.6c.9 0 1.6-.2 2.1-.7.5-.5.8-1.2.8-2.2s-.2-1.8-.8-2.2zm22.1-.6H48.9v4.1h9.4V57h-9.4v5h10.7v3.5H44.9V46.2h14.2v3.4zm5.2-1.4c1.6-1.6 3.5-2.4 5.9-2.4 3.2 0 5.6 1.1 7.1 3.2.8 1.2 1.3 2.4 1.3 3.6h-4c-.3-.9-.6-1.6-1-2.1-.7-.8-1.8-1.3-3.2-1.3-1.4 0-2.6.6-3.4 1.8-.8 1.2-1.2 2.9-1.2 5 0 2.2.4 3.8 1.3 4.9.9 1.1 2 1.6 3.3 1.6 1.4 0 2.4-.5 3.2-1.4.4-.5.7-1.2 1-2.2h4c-.3 2.1-1.2 3.8-2.7 5.1-1.4 1.3-3.2 2-5.5 2-2.7 0-4.9-.9-6.5-2.7-1.6-1.8-2.4-4.2-2.4-7.4.1-3.3 1-5.9 2.8-7.7zm20.9 17.3h-4V46.2h4v19.3zm9.1-19.3h4.6l6.8 19.3h-4.4l-1.3-4h-7.1l-1.3 4h-4.2l6.9-19.3zm-.3 12h4.9l-2.4-7.6-2.5 7.6zm13.9-12h4V62h9.6v3.5h-13.7V46.2zM53.2 81.7c.6.8.9 1.8.9 2.9 0 1.2-.3 2.1-.9 2.8-.3.4-.8.8-1.5 1.1 1 .4 1.7.9 2.2 1.7.5.8.8 1.7.8 2.8 0 1.1-.3 2.2-.9 3.1-.4.6-.8 1.1-1.4 1.5-.6.5-1.3.8-2.2 1-.8.2-1.7.3-2.7.3h-8.7V79.7h9.3c2.5 0 4.1.7 5.1 2zM42.7 83v4.3h4.7c.8 0 1.5-.2 2-.5s.8-.9.8-1.7c0-.9-.3-1.5-1-1.8-.6-.2-1.4-.3-2.3-.3h-4.2zm0 7.5v5.2h4.7c.8 0 1.5-.1 2-.3.8-.4 1.3-1.2 1.3-2.4 0-1-.4-1.7-1.2-2.1-.5-.2-1.1-.3-1.9-.3h-4.9zm15.2-10.8H62v11.9c0 1.3.2 2.3.5 2.9.5 1.1 1.6 1.6 3.2 1.6s2.7-.5 3.2-1.6c.3-.6.5-1.6.5-2.9V79.7h4.1v11.9c0 2.1-.3 3.7-1 4.8-1.2 2.1-3.5 3.1-6.8 3.1s-5.6-1-6.8-3.1c-.6-1.1-1-2.7-1-4.8V79.7zm30.2 0h4.6l-6.5 12.1V99h-4v-7.2l-6.7-12.1h4.8l4 8.4 3.8-8.4z"/><path class="st1" d="M16.6 38.8c9.3-16.9 27.2-28.4 47.8-28.4 20.6 0 38.6 11.5 47.8 28.4h3.5c-9.5-18.7-29-31.5-51.3-31.5S22.6 20.1 13.1 38.8h3.5zm101.7 33.8c-3.8 26.4-26.5 46.7-53.9 46.7S14.3 99 10.5 72.6H7.3c3.8 28.1 27.9 49.8 57.1 49.8 29.1 0 53.3-21.7 57.1-49.8h-3.2z"/></svg>