<svg id="Layer_1" xmlns="http://www.w3.org/2000/svg" viewBox="0 0 128 128"><style>.st0{fill:#FFF}.st1{fill:#ed3023}</style><ellipse class="st0" cx="64" cy="64" rx="64" ry="64"/><path class="st1" d="M37.7 32.9c0-5.2 4.1-10.7 9.7-10.7 4.6 0 7.2 3.2 7.2 7.3 0 5.2-4.1 10.7-9.7 10.7-4.6.1-7.2-3.2-7.2-7.3zM53 29.7c0-3.2-1.8-6-5.8-6-4.6 0-8 4.6-8 9.2 0 3.2 1.8 6 5.8 6 4.6 0 8-4.6 8-9.2zM63.7 22.3c-.4.1-.8.3-1.2.6-.5.5-.9 1.4-1.2 2.5l-.8 3.5h5.6l1-4.3c.3-1.5.8-2.3 1.6-3 .6-.6 1.5-1 2.5-1 1.1 0 1.8.5 1.8 1.3 0 .6-.5 1.1-1.1 1.1-.7 0-1.1-.5-1.1-1.2-.4.1-.9.2-1.3.6-.5.5-.9 1.4-1.2 2.5l-.9 4h2.9l-.3 1.2h-2.9L65 40h-1.4l2.3-9.9h-5.6L58 40h-1.4l2.3-9.9h-2l.3-1.2h2l.9-3.7c.3-1.5.8-2.3 1.6-3 .6-.6 1.5-1 2.4-1 1.1 0 1.8.5 1.8 1.3 0 .6-.5 1.1-1.1 1.1-.6-.1-1.1-.5-1.1-1.3zM72.1 34.8v.7c0 2.3 1.9 3.5 3.8 3.5 1.3 0 2.2-.3 3.6-1l-.3 1.4c-1.2.6-2.1.8-3.6.8-2.6 0-4.9-1.7-4.9-4.6 0-3.8 2.9-6.9 6.2-6.9 2.5 0 4 1.6 4 3.9 0 .7-.2 1.4-.4 2.2h-8.4zm.2-1.2h7.1c.1-.4.2-.8.2-1.3 0-1.2-.8-2.5-2.9-2.5-1.9.1-3.7 1.7-4.4 3.8zM85.7 30.1h-2.1l.3-1.2h3.4l-.7 3c1.5-2 2.7-3.2 3.8-3.2.9 0 1.3.5 1.3 1.2s-.6 1.3-1.2 1.3-1-.4-1.2-.9c-.9.5-2.8 2.3-3.5 4.9L84.6 40h-1.4l2.5-9.9z"/><g><path class="st1" d="M37.8 53.5l6 15.9 6-15.9h3.4v18.9h-2.4V56.7h-.1l-5.9 15.7h-2.1l-5.9-15.7h-.1v15.7h-2.4V53.5h3.5zM57.4 56.3v-2.8h2.3v2.8h-2.3zm2.2 2.4v13.7h-2.3V58.7h2.3zM62.3 58.7h2.9l3.3 4.8 3.4-4.8h2.7L69.9 65l5.3 7.4h-2.9l-3.8-5.7-3.8 5.7H62l5.1-7.2-4.8-6.5zM89.2 72.1c-1 .4-2 .7-3 .7-1.3 0-2.3-.2-3.1-.6-.8-.4-1.4-.9-1.8-1.4-.4-.5-.7-1.1-.8-1.7-.1-.6-.2-1.1-.2-1.5 0-.7.1-1.4.4-2 .2-.6.6-1.1 1-1.5.4-.5.9-.9 1.4-1.2.5-.4 1.1-.7 1.7-1-.3-.4-.5-.7-.8-1.1-.2-.3-.5-.7-.7-1-.2-.3-.4-.7-.5-1.1-.1-.4-.2-.8-.2-1.3s.1-1 .3-1.5c.2-.5.5-.9.8-1.2.4-.4.8-.6 1.3-.9.5-.2 1.1-.3 1.8-.3.6 0 1.1.1 1.7.2.6.2 1 .4 1.5.7.4.3.8.7 1 1.2.3.5.4 1 .4 1.7 0 .6-.1 1.1-.3 1.6-.2.5-.5.9-.8 1.3-.3.4-.7.8-1.1 1.1-.4.3-.9.6-1.3.9l3.4 4.2c.4-1 .6-2 .6-2.9H94c-.1.6-.1 1-.2 1.4-.1.4-.1.8-.2 1.1-.1.3-.2.7-.4 1-.1.3-.3.7-.5 1.1l3.7 4.3h-2.9l-2-2.4c-.6 1-1.4 1.6-2.3 2.1zm-4.6-8c-.4.3-.7.6-1 .9-.3.3-.5.7-.7 1.1s-.3.9-.3 1.5c0 .5.1.9.3 1.3.2.4.5.7.8 1 .3.3.7.5 1.2.6.4.2.9.2 1.3.2.9 0 1.6-.2 2.3-.6.7-.4 1.2-1 1.7-1.6l-4.3-5.2c-.4.2-.9.5-1.3.8zm2.9-3.9c.3-.2.6-.4.8-.7l.6-.9c.2-.3.2-.7.2-1.1 0-.5-.2-1-.6-1.4-.4-.4-.9-.6-1.6-.6-.5 0-1 .2-1.5.5s-.7.8-.7 1.5c0 .3.1.6.2.8.1.3.3.6.4.8.2.3.4.5.6.8.2.3.4.5.6.8.4-.1.7-.3 1-.5zM31.9 78.4l6 15.9 6-15.9h3.4v18.9h-2.4V81.6h-.1l-5.9 15.7h-2.1l-5.9-15.7h-.1v15.7h-2.4V78.4h3.5zM61.9 97.6c-.6 0-1-.2-1.4-.5-.3-.3-.5-.9-.5-1.6-.6.7-1.3 1.3-2.2 1.6-.8.3-1.7.5-2.7.5-.6 0-1.2-.1-1.7-.2s-1-.4-1.4-.7c-.4-.3-.7-.7-1-1.2-.2-.5-.4-1.1-.4-1.8 0-.8.1-1.4.4-1.9.3-.5.6-.9 1-1.2.4-.3.9-.5 1.5-.7.6-.2 1.1-.3 1.7-.4l1.8-.3c.6-.1 1-.1 1.5-.3.4-.1.8-.3 1-.5.2-.2.4-.5.4-1s-.1-.9-.3-1.2c-.2-.3-.4-.5-.7-.7-.3-.2-.6-.3-1-.3-.4-.1-.7-.1-1.1-.1-1 0-1.7.2-2.4.5-.6.4-1 1-1 2.1h-2.2c0-.8.2-1.6.5-2.1.3-.6.7-1.1 1.3-1.4.5-.4 1.1-.6 1.8-.8.7-.2 1.4-.2 2.2-.2.6 0 1.2 0 1.8.1.6.1 1.2.3 1.7.5.5.3.9.7 1.2 1.2.3.5.5 1.1.5 1.9v7c0 .5 0 .9.1 1.2.1.2.3.4.6.4.2 0 .4 0 .7-.1v1.7c-.5.4-1.1.5-1.7.5zm-3.2-6.9c-.5.1-.9.2-1.4.2-.5.1-1 .1-1.5.2s-1 .2-1.4.4c-.4.2-.7.4-1 .8-.3.3-.4.8-.4 1.3 0 .4.1.7.2.9.1.3.3.5.6.6.2.2.5.3.8.3.3.1.7.1 1 .1.7 0 1.4-.1 1.9-.3.5-.2 1-.5 1.3-.8.3-.3.6-.6.7-1 .2-.4.2-.7.2-1v-2.3c-.2.4-.5.5-1 .6zM71.7 83.7v2H69v8.5c0 .3 0 .5.1.6 0 .2.1.3.3.4.1.1.3.1.5.2h1.9v2H70c-.6 0-1.1 0-1.5-.1-.4-.1-.7-.2-1-.4-.3-.2-.4-.5-.6-.9-.1-.4-.2-.9-.2-1.5v-8.7h-2.3v-2h2.3v-4.1H69v4.1h2.7zM82.6 86c-.6-.5-1.3-.7-2.3-.7-.8 0-1.5.2-2 .4-.5.3-1 .7-1.3 1.2-.3.5-.6 1.1-.7 1.7-.1.6-.2 1.3-.2 2 0 .6.1 1.3.2 1.9.2.6.4 1.1.7 1.6.3.5.7.8 1.2 1.1.5.3 1.1.4 1.8.4 1.1 0 2-.3 2.6-.9.6-.6 1-1.4 1.2-2.5h2.3c-.2 1.7-.9 3-1.9 3.9-1 .9-2.4 1.4-4.1 1.4-1 0-2-.2-2.8-.5-.8-.3-1.5-.8-2-1.4-.5-.6-.9-1.4-1.2-2.2-.3-.9-.4-1.8-.4-2.8 0-1 .1-2 .4-2.9.3-.9.7-1.7 1.2-2.3.5-.7 1.2-1.2 2-1.6.8-.4 1.8-.6 2.8-.6.8 0 1.5.1 2.2.3.7.2 1.3.5 1.8.9s.9.9 1.3 1.5c.3.6.5 1.3.6 2.1h-2.3c-.2-.8-.5-1.5-1.1-2zM91.2 78.4v7.2h.1c.2-.4.4-.8.7-1.1.3-.3.7-.5 1.1-.7.4-.2.8-.3 1.2-.4.4-.1.9-.1 1.3-.1.9 0 1.6.1 2.3.4.6.2 1.1.6 1.5 1 .4.4.6 1 .8 1.6.1.6.2 1.3.2 2v9H98V88c0-.8-.2-1.5-.7-2-.5-.5-1.2-.7-2-.7-.7 0-1.3.1-1.8.3-.5.2-.9.5-1.3.9-.3.4-.6.8-.8 1.4-.2.5-.2 1.1-.2 1.7v7.7h-2.3V78.4h2.3z"/></g></svg>