<svg id="Layer_1" xmlns="http://www.w3.org/2000/svg" viewBox="0 0 128 128"><style>.st0{fill:#FFF}.st1{fill:#ed3023}</style><circle class="st0" cx="64" cy="64" r="64"/><path class="st1" d="M21.5 66.7c0-8.3 6.5-17 15.4-17 7.3 0 11.5 5.2 11.5 11.7 0 8.3-6.5 17-15.4 17-7.4 0-11.5-5.2-11.5-11.7zm24.4-5.2c0-5.1-2.9-9.6-9.2-9.6-7.3 0-12.7 7.4-12.7 14.7 0 5.1 2.9 9.6 9.2 9.6 7.2 0 12.7-7.4 12.7-14.7zM62.9 49.7c-.6.1-1.3.5-1.9 1-.8.8-1.5 2.3-1.8 3.9l-1.3 5.5h8.9l1.6-6.8c.5-2.4 1.3-3.7 2.5-4.8.9-.9 2.3-1.6 4-1.6 1.8 0 2.9.8 2.9 2.1 0 1-.8 1.7-1.7 1.7-1.1 0-1.8-.7-1.8-2-.7.1-1.4.4-2.1 1-.8.8-1.5 2.3-1.8 3.9L68.9 60h4.6l-.5 2.1h-4.6l-3.6 15.7h-2.2l3.7-15.7h-8.9l-3.6 15.7h-2.2l3.6-15.7H52l.5-1.9h3.2l1.4-5.9c.5-2.4 1.3-3.7 2.5-4.8.9-.9 2.4-1.6 3.9-1.6 1.8 0 2.9.8 2.9 2.1 0 1-.8 1.7-1.7 1.7-1.1 0-1.8-.7-1.8-2zM76.2 69.6v1.1c0 3.7 3 5.5 6 5.5 2.1 0 3.5-.4 5.8-1.6l-.5 2.3c-1.8.9-3.4 1.3-5.7 1.3-4.1 0-7.8-2.6-7.8-7.4 0-6 4.7-10.9 9.9-10.9 4 0 6.4 2.5 6.4 6.3 0 1.1-.3 2.2-.7 3.5H76.2zm.4-1.8h11.3c.2-.6.3-1.3.3-2 0-2-1.3-3.9-4.5-3.9-3.1-.1-6 2.5-7.1 5.9zM97.9 62.1h-3.4l.5-1.9h5.4L99.2 65c2.4-3.2 4.3-5.1 6-5.1 1.4 0 2.1.8 2.1 1.8 0 1.1-.9 2.1-2 2.1-1 0-1.6-.6-1.8-1.4-1.4.8-4.5 3.6-5.5 7.8l-1.9 7.7h-2.2l4-15.8z"/></svg>