<svg id="Layer_1" xmlns="http://www.w3.org/2000/svg" viewBox="0 0 128 128"><style>.st0{fill:#fff}.st1{fill:#ed3023}</style><ellipse class="st0" cx="64" cy="64" rx="64" ry="64"/><path class="st1" d="M37.7 32.9c0-5.2 4.1-10.7 9.7-10.7 4.6 0 7.2 3.2 7.2 7.3 0 5.2-4.1 10.7-9.7 10.7-4.6.1-7.2-3.2-7.2-7.3zM53 29.7c0-3.2-1.8-6-5.8-6-4.6 0-8 4.6-8 9.2 0 3.2 1.8 6 5.8 6 4.6 0 8-4.6 8-9.2zm10.7-7.4c-.4.1-.8.3-1.2.6-.5.5-.9 1.4-1.2 2.5l-.8 3.5h5.6l1-4.3c.3-1.5.8-2.3 1.6-3 .6-.6 1.5-1 2.5-1 1.1 0 1.8.5 1.8 1.3 0 .6-.5 1.1-1.1 1.1-.7 0-1.1-.5-1.1-1.2-.4.1-.9.2-1.3.6-.5.5-.9 1.4-1.2 2.5l-.9 4h2.9l-.3 1.2h-2.9L65 40h-1.4l2.3-9.9h-5.6L58 40h-1.4l2.3-9.9h-2l.3-1.2h2l.9-3.7c.3-1.5.8-2.3 1.6-3 .6-.6 1.5-1 2.4-1 1.1 0 1.8.5 1.8 1.3 0 .6-.5 1.1-1.1 1.1-.6-.1-1.1-.5-1.1-1.3zm8.4 12.5v.7c0 2.3 1.9 3.5 3.8 3.5 1.3 0 2.2-.3 3.6-1l-.3 1.4c-1.2.6-2.1.8-3.6.8-2.6 0-4.9-1.7-4.9-4.7 0-3.8 2.9-6.9 6.2-6.9 2.5 0 4 1.6 4 3.9 0 .7-.2 1.4-.4 2.2h-8.4zm.2-1.2h7.1c.1-.4.2-.8.2-1.3 0-1.2-.8-2.5-2.9-2.5-1.9.1-3.7 1.7-4.4 3.8zm13.4-3.5h-2.1l.3-1.2h3.4l-.7 3c1.5-2 2.7-3.2 3.8-3.2.9 0 1.3.5 1.3 1.2s-.6 1.3-1.2 1.3-1-.4-1.2-.9c-.9.5-2.8 2.3-3.5 4.9L84.6 40h-1.4l2.5-9.9zM49.8 52.9c2.4 0 4.3.6 5.6 1.8 1.3 1.2 2 3.1 2 5.6 0 1.3-.1 2.5-.4 3.5-.3 1-.7 1.9-1.4 2.6-.6.7-1.4 1.2-2.3 1.6-1 .4-2.1.5-3.4.5h-5.4V52.9h5.3zm.2 13.9c.2 0 .5 0 .9-.1.4 0 .7-.1 1.1-.3.4-.1.8-.3 1.2-.6.4-.3.7-.6 1-1.1.3-.5.6-1 .8-1.7.2-.7.3-1.5.3-2.5 0-.9-.1-1.8-.3-2.5-.2-.7-.5-1.4-.9-1.9s-1-.9-1.6-1.2c-.7-.3-1.5-.4-2.4-.4h-3.5v12.2H50zm17.8 1c-.9.6-1.9 1-3.2 1-.9 0-1.7-.1-2.4-.4-.7-.3-1.2-.7-1.7-1.2s-.8-1.2-1-1.9c-.2-.7-.4-1.5-.4-2.4 0-.9.1-1.7.4-2.4.3-.7.6-1.3 1.1-1.9.5-.5 1-.9 1.7-1.2.7-.3 1.4-.4 2.1-.4 1 0 1.8.2 2.5.6.7.4 1.2.9 1.6 1.6.4.6.7 1.3.8 2.1.2.8.2 1.5.2 2.2H61c0 .5 0 1 .2 1.4.1.4.3.8.6 1.2.3.3.7.6 1.1.8.5.2 1 .3 1.6.3.8 0 1.4-.2 1.9-.5.5-.4.8-.9 1-1.7h1.8c0 1.2-.5 2.2-1.4 2.8zm-.4-7.3c-.2-.4-.4-.7-.7-1-.3-.3-.6-.5-1-.7-.4-.2-.8-.3-1.3-.3s-.9.1-1.3.3c-.4.2-.7.4-1 .7-.3.3-.5.6-.7 1-.2.4-.3.8-.3 1.2h6.5c0-.3-.1-.8-.2-1.2zm13.1 8.3c-.5 0-.9-.1-1.2-.4-.3-.3-.4-.7-.4-1.3-.5.6-1.1 1.1-1.8 1.3-.7.3-1.4.4-2.2.4-.5 0-1-.1-1.4-.2-.5-.1-.9-.3-1.2-.5-.3-.3-.6-.6-.8-1-.2-.4-.3-.9-.3-1.5s.1-1.2.3-1.6c.2-.4.5-.7.9-1 .4-.3.8-.5 1.2-.6.5-.1.9-.2 1.4-.3.5-.1 1-.2 1.5-.2.5-.1.9-.1 1.2-.2.4-.1.6-.2.8-.4.2-.2.3-.5.3-.8 0-.4-.1-.7-.2-1l-.6-.6c-.2-.1-.5-.2-.8-.3-.3 0-.6-.1-.9-.1-.8 0-1.4.2-2 .5-.5.3-.8.9-.9 1.7h-1.9c0-.7.2-1.3.4-1.8.3-.5.6-.9 1.1-1.2.4-.3.9-.5 1.5-.6.6-.1 1.2-.2 1.8-.2.5 0 1 0 1.5.1s1 .2 1.4.5c.4.2.7.5 1 1 .2.4.4.9.4 1.6v5.8c0 .4 0 .8.1 1 .1.2.2.3.5.3.2 0 .4 0 .6-.1v1.4c-.3.2-.7.3-1.3.3zm-2.6-5.7c-.4.1-.8.1-1.2.2-.4.1-.8.1-1.3.2-.4.1-.8.2-1.1.3-.3.1-.6.4-.8.6-.2.3-.3.6-.3 1.1 0 .3.1.6.2.8.1.2.3.4.5.5.2.1.4.2.7.3.3.1.5.1.8.1.6 0 1.1-.1 1.6-.3.4-.2.8-.4 1.1-.6.3-.3.5-.5.6-.8.1-.3.2-.6.2-.8v-1.9c-.3.1-.6.2-1 .3zm7.9-10.2v15.7h-1.9V52.9h1.9zM37.5 81.2c.2-.7.6-1.4 1.1-1.9.5-.5 1-1 1.7-1.3.7-.3 1.5-.5 2.4-.5.9 0 1.7.2 2.4.5s1.3.7 1.7 1.3c.5.5.8 1.2 1.1 1.9.2.7.4 1.5.4 2.3 0 .8-.1 1.6-.4 2.3-.2.7-.6 1.3-1.1 1.9-.5.5-1 1-1.7 1.3-.7.3-1.5.5-2.4.5-.9 0-1.7-.2-2.4-.5s-1.3-.7-1.7-1.3c-.5-.5-.8-1.2-1.1-1.9-.2-.7-.4-1.5-.4-2.3.1-.8.2-1.6.4-2.3zm1.9 4.2c.2.5.4 1 .8 1.3.3.4.7.6 1.1.8.4.2.9.3 1.4.3.5 0 .9-.1 1.4-.3.4-.2.8-.5 1.1-.8.3-.4.6-.8.8-1.3.2-.5.3-1.1.3-1.8s-.1-1.3-.3-1.8c-.2-.5-.4-1-.8-1.4-.3-.4-.7-.6-1.1-.8s-.9-.3-1.4-.3c-.5 0-.9.1-1.4.3s-.8.5-1.1.8c-.3.4-.6.8-.8 1.4-.2.5-.3 1.1-.3 1.8.1.7.1 1.3.3 1.8zm10.1-5.9v-1.6h1.9v-1.7c0-.9.3-1.6.8-2.1s1.3-.7 2.3-.7h.6c.2 0 .4.1.6.1v1.6c-.2-.1-.3-.1-.5-.1h-.5c-.5 0-.8.1-1.1.3-.2.2-.4.5-.4 1v1.6h2.2v1.6h-2.2v9.7h-1.9v-9.7h-1.8zm19-1.6v1.6h-2.3v7c0 .2 0 .4.1.5 0 .1.1.2.2.3.1.1.2.1.4.1h1.6V89h-1.4c-.5 0-.9 0-1.2-.1-.3-.1-.6-.2-.8-.4-.2-.2-.4-.4-.5-.7-.1-.3-.2-.7-.2-1.3v-7.2h-1.9v-1.6h1.9v-3.4h1.9v3.4h2.2zm4.2-4.4v6c.1-.4.4-.6.6-.9l.9-.6c.3-.2.7-.3 1-.3.4-.1.7-.1 1-.1.7 0 1.4.1 1.9.3.5.2.9.5 1.2.9.3.4.5.8.6 1.3.1.5.2 1.1.2 1.7v7.5h-1.9v-7.7c0-.7-.2-1.3-.6-1.7-.4-.4-1-.6-1.7-.6-.6 0-1.1.1-1.5.3-.4.2-.8.4-1 .7-.3.3-.5.7-.6 1.1-.1.4-.2.9-.2 1.4v6.4h-1.9V73.5h2zm18.6 15c-.9.6-1.9 1-3.2 1-.9 0-1.7-.1-2.4-.4-.7-.3-1.2-.7-1.7-1.2s-.8-1.2-1-1.9c-.2-.7-.4-1.5-.4-2.4 0-.9.1-1.7.4-2.4.3-.7.6-1.3 1.1-1.9.5-.5 1-.9 1.7-1.2.7-.3 1.4-.4 2.1-.4 1 0 1.8.2 2.5.6.7.4 1.2.9 1.6 1.6.4.6.7 1.3.8 2.1.2.8.2 1.5.2 2.2h-8.5c0 .5 0 1 .2 1.4.1.4.3.8.6 1.2.3.3.7.6 1.1.8.5.2 1 .3 1.6.3.8 0 1.4-.2 1.9-.5.5-.4.8-.9 1-1.7h1.8c0 1.2-.6 2.2-1.4 2.8zm-.5-7.3c-.2-.4-.4-.7-.7-1-.3-.3-.6-.5-1-.7-.4-.2-.8-.3-1.3-.3s-.9.1-1.3.3c-.4.2-.7.4-1 .7-.3.3-.5.6-.7 1-.2.4-.3.8-.3 1.2H91c.1-.4 0-.8-.2-1.2zm-39.5 28.7l-3.6-13.2-3.6 13.2h-2.2l-4-15.7H40l3.1 13 3.5-13h2.3l3.5 13 3.2-13h2.1l-4.2 15.7h-2.2zm15.1-.7c-.9.6-1.9 1-3.2 1-.9 0-1.7-.1-2.4-.4-.7-.3-1.2-.7-1.7-1.2s-.8-1.2-1-1.9c-.2-.7-.4-1.5-.4-2.4 0-.9.1-1.7.4-2.4.3-.7.6-1.3 1.1-1.9.5-.5 1-.9 1.7-1.2.7-.3 1.4-.4 2.1-.4 1 0 1.8.2 2.5.6.7.4 1.2.9 1.6 1.6.4.6.7 1.3.8 2.1.2.8.2 1.5.2 2.2h-8.5c0 .5 0 1 .2 1.4.1.4.3.8.6 1.2.3.3.7.6 1.1.8.5.2 1 .3 1.6.3.8 0 1.4-.2 1.9-.5.5-.4.8-.9 1-1.7h2c-.2 1.2-.8 2.1-1.6 2.8zm-.5-7.3c-.2-.4-.4-.7-.7-1-.3-.3-.6-.5-1-.7-.4-.2-.8-.3-1.3-.3s-.9.1-1.3.3c-.4.2-.7.4-1 .7-.3.3-.5.6-.7 1-.2.4-.3.8-.3 1.2h6.5c.1-.4 0-.8-.2-1.2zm12.5 7.3c-.9.6-1.9 1-3.2 1-.9 0-1.7-.1-2.4-.4-.7-.3-1.2-.7-1.7-1.2s-.8-1.2-1-1.9c-.2-.7-.4-1.5-.4-2.4 0-.9.1-1.7.4-2.4.3-.7.6-1.3 1.1-1.9.5-.5 1-.9 1.7-1.2.7-.3 1.4-.4 2.1-.4 1 0 1.8.2 2.5.6.7.4 1.2.9 1.6 1.6.4.6.7 1.3.8 2.1.2.8.2 1.5.2 2.2h-8.5c0 .5 0 1 .2 1.4.1.4.3.8.6 1.2.3.3.7.6 1.1.8.5.2 1 .3 1.6.3.8 0 1.4-.2 1.9-.5.5-.4.8-.9 1-1.7h2c-.2 1.2-.8 2.1-1.6 2.8zm-.5-7.3c-.2-.4-.4-.7-.7-1-.3-.3-.6-.5-1-.7-.4-.2-.8-.3-1.3-.3s-.9.1-1.3.3c-.4.2-.7.4-1 .7-.3.3-.5.6-.7 1-.2.4-.3.8-.3 1.2h6.5c.1-.4 0-.8-.2-1.2zm6.4-7.7v9.3l5.2-5H92l-4.5 4.1 4.8 7.2H90l-3.9-5.9-1.8 1.6v4.3h-1.9V94.2h1.9z"/></svg>