<svg id="Layer_1" xmlns="http://www.w3.org/2000/svg" viewBox="0 0 128 128"><style>.st0{fill:#fff}.st1{fill:#ed3023}</style><circle class="st0" cx="64" cy="64" r="64"/><path class="st1" d="M37.7 32.9c0-5.2 4.1-10.7 9.7-10.7 4.6 0 7.2 3.2 7.2 7.3 0 5.2-4.1 10.7-9.7 10.7-4.6.1-7.2-3.2-7.2-7.3zM53 29.7c0-3.2-1.8-6-5.8-6-4.6 0-8 4.6-8 9.2 0 3.2 1.8 6 5.8 6 4.6 0 8-4.6 8-9.2zm10.7-7.4c-.4.1-.8.3-1.2.6-.5.5-.9 1.4-1.2 2.5l-.8 3.5h5.6l1-4.3c.3-1.5.8-2.3 1.6-3 .6-.6 1.5-1 2.5-1 1.1 0 1.8.5 1.8 1.3 0 .6-.5 1.1-1.1 1.1-.7 0-1.1-.5-1.1-1.2-.4.1-.9.2-1.3.6-.5.5-.9 1.4-1.2 2.5l-.9 4h2.9l-.3 1.2h-2.9L65 40h-1.4l2.3-9.9h-5.6L58 40h-1.4l2.3-9.9h-2l.3-1.2h2l.9-3.7c.3-1.5.8-2.3 1.6-3 .6-.6 1.5-1 2.4-1 1.1 0 1.8.5 1.8 1.3 0 .6-.5 1.1-1.1 1.1-.6-.1-1.1-.5-1.1-1.3zm8.4 12.5v.7c0 2.3 1.9 3.5 3.8 3.5 1.3 0 2.2-.3 3.6-1l-.3 1.4c-1.2.6-2.1.8-3.6.8-2.6 0-4.9-1.7-4.9-4.7 0-3.8 2.9-6.9 6.2-6.9 2.5 0 4 1.6 4 3.9 0 .7-.2 1.4-.4 2.2h-8.4zm.3-1.2h7.1c.1-.4.2-.8.2-1.3 0-1.2-.8-2.5-2.9-2.5-2 .1-3.8 1.7-4.4 3.8zm13.3-3.5h-2.1l.3-1.2h3.4l-.7 3c1.5-2 2.7-3.2 3.8-3.2.9 0 1.3.5 1.3 1.2s-.6 1.3-1.2 1.3-1-.4-1.2-.9c-.9.5-2.8 2.3-3.5 4.9L84.6 40h-1.4l2.5-9.9zM36.2 55c.3-1 .8-1.9 1.4-2.6.6-.8 1.4-1.3 2.4-1.8 1-.4 2-.6 3.3-.6.9 0 1.8.1 2.7.4.9.3 1.6.7 2.2 1.3.6.6 1.2 1.2 1.5 2 .4.8.6 1.7.6 2.7 0 1-.2 1.9-.5 2.7-.3.7-.8 1.4-1.3 2-.5.6-1.2 1.1-1.9 1.6s-1.4.9-2.1 1.4l-2.1 1.5c-.7.5-1.3 1.1-1.8 1.9h9.7V71h-15c0-1.2.2-2.2.5-3.1.3-.9.8-1.7 1.4-2.4.6-.7 1.3-1.3 2.1-1.9.8-.6 1.6-1.2 2.5-1.8.5-.3.9-.6 1.4-1 .5-.3 1-.7 1.4-1.1.4-.4.8-.8 1.1-1.3.3-.5.4-1 .4-1.7 0-1-.3-1.8-.9-2.3-.6-.6-1.3-.8-2.2-.8-.6 0-1.1.1-1.5.4-.4.3-.8.7-1 1.1-.3.5-.4 1-.5 1.5-.1.6-.2 1.1-.2 1.7h-4c0-1.2.1-2.3.4-3.3zm20.5 3v-2.2h2.6v-2.3c0-1.2.4-2.2 1.1-2.8.7-.6 1.8-1 3.1-1 .2 0 .5 0 .8.1.3 0 .6.1.8.2v2.2c-.2-.1-.5-.1-.7-.2h-.7c-.6 0-1.1.1-1.4.4-.3.2-.5.7-.5 1.4v2.1h2.9V58h-2.9v13h-2.5V58h-2.6zm10.1 2.2c.3-1 .8-1.8 1.4-2.5.6-.7 1.4-1.3 2.3-1.7.9-.4 2-.6 3.2-.6 1.2 0 2.3.2 3.2.6.9.4 1.7 1 2.3 1.7.6.7 1.1 1.6 1.4 2.5.3 1 .5 2 .5 3.1s-.2 2.2-.5 3.1c-.3 1-.8 1.8-1.4 2.5-.6.7-1.4 1.3-2.3 1.7-.9.4-2 .6-3.2.6-1.2 0-2.3-.2-3.2-.6-.9-.4-1.7-1-2.3-1.7-.6-.7-1.1-1.6-1.4-2.5-.3-1-.5-2-.5-3.1.1-1 .2-2.1.5-3.1zm2.6 5.6c.2.7.6 1.3 1 1.8s.9.8 1.5 1.1c.6.3 1.2.4 1.8.4.6 0 1.3-.1 1.8-.4.6-.3 1.1-.6 1.5-1.1.4-.5.8-1.1 1-1.8.2-.7.4-1.5.4-2.5s-.1-1.7-.4-2.5c-.2-.7-.6-1.3-1-1.8s-.9-.9-1.5-1.1c-.6-.3-1.2-.4-1.8-.4-.6 0-1.3.1-1.8.4-.6.3-1.1.6-1.5 1.1-.4.5-.8 1.1-1 1.8-.2.7-.4 1.5-.4 2.5s.1 1.8.4 2.5zm17.2-10V59h.1c.6-1.2 1.4-2.1 2.2-2.7.9-.6 2-.9 3.4-.8v2.6c-1 0-1.9.1-2.6.4-.7.3-1.3.7-1.7 1.2-.4.5-.7 1.2-.9 1.9-.2.8-.3 1.6-.3 2.6V71h-2.5V55.8h2.3zM46.9 90.1c-.5-.8-.9-1.7-1.2-2.6-.3-.9-.5-1.9-.5-3.1 0-1.2.2-2.2.7-3.1.5-.9 1.1-1.7 1.8-2.3.8-.6 1.7-1.1 2.7-1.5 1-.3 2.1-.5 3.2-.5 2.7 0 4.9.8 6.4 2.4 1.6 1.6 2.3 4 2.3 7.1h-3.1c0-2.2-.5-3.8-1.4-5-.9-1.2-2.2-1.7-4-1.7-.7 0-1.4.1-2.1.4-.6.2-1.2.6-1.7 1s-.9.9-1.1 1.5c-.3.6-.4 1.2-.4 1.9 0 .6.1 1.1.2 1.6s.3 1 .5 1.4c.2.4.4.9.6 1.3.2.4.4.8.7 1.3h5.8v1.7h-5c.2.4.4.8.5 1.3.1.5.2 1 .2 1.5 0 .8-.1 1.6-.4 2.2-.2.7-.6 1.3-1 1.8-.4.6-.8 1.1-1.4 1.5-.5.5-1 .9-1.6 1.4l.1.1c.6-.3 1.3-.5 1.9-.7.6-.2 1.3-.3 2-.3s1.3.1 1.9.2c.6.1 1.1.2 1.6.4.5.1 1 .3 1.5.4.5.1 1 .2 1.6.2.6 0 1.2-.1 1.7-.4.6-.3 1.1-.6 1.5-.9L63 103c-.7.6-1.6 1.1-2.5 1.3-.9.2-1.9.3-2.8.3-.6 0-1.2-.1-1.8-.2-.6-.1-1.2-.3-1.8-.5-.6-.2-1.2-.4-1.9-.5-.6-.2-1.3-.2-2-.2s-1.4.1-1.9.3c-.6.2-1.2.5-1.7.9l-1.7-2.4c.5-.3 1-.7 1.5-1.2s.9-1 1.3-1.5c.4-.6.7-1.2.9-1.8.2-.6.3-1.3.3-2 0-.6-.1-1.2-.3-1.8-.2-.6-.4-1.2-.6-1.7h-3.1v-1.7h2zm19 7.7V93l11.2-15h4.7v15.5h3.4v4.3h-3.4v6h-5v-6H65.9zm10.8-13.2L70 93.5h6.8v-8.9h-.1z"/></svg>