<svg id="Layer_1" xmlns="http://www.w3.org/2000/svg" viewBox="0 0 128 128"><style>.st0{fill:#FFF}.st1{fill:#ed3023}</style><circle class="st0" cx="64" cy="64" r="64"/><path class="st1" d="M37.7 32.9c0-5.2 4.1-10.7 9.7-10.7 4.6 0 7.2 3.2 7.2 7.3 0 5.2-4.1 10.7-9.7 10.7-4.6.1-7.2-3.2-7.2-7.3zm15.4-3.2c0-3.2-1.8-6-5.8-6-4.6 0-8 4.6-8 9.2 0 3.2 1.8 6 5.8 6 4.5 0 8-4.6 8-9.2zM63.7 22.3c-.4.1-.8.3-1.2.6-.5.5-.9 1.4-1.2 2.5l-.8 3.5h5.6l1-4.3c.3-1.5.8-2.3 1.6-3 .6-.6 1.5-1 2.5-1 1.1 0 1.8.5 1.8 1.3 0 .6-.5 1.1-1.1 1.1-.7 0-1.1-.5-1.1-1.2-.4.1-.9.2-1.3.6-.5.5-.9 1.4-1.2 2.5l-.9 4h2.9l-.3 1.2h-2.9L65 40h-1.4l2.3-9.9h-5.6L58 40h-1.4l2.3-9.9h-2l.3-1.2h2l.9-3.7c.3-1.5.8-2.3 1.6-3 .6-.6 1.5-1 2.4-1 1.1 0 1.8.5 1.8 1.3 0 .6-.5 1.1-1.1 1.1-.6-.1-1.1-.5-1.1-1.3zM72.1 34.8v.7c0 2.3 1.9 3.5 3.8 3.5 1.3 0 2.2-.3 3.6-1l-.3 1.4c-1.2.6-2.1.8-3.6.8-2.6 0-4.9-1.7-4.9-4.7 0-3.8 2.9-6.9 6.2-6.9 2.5 0 4 1.6 4 3.9 0 .7-.2 1.4-.4 2.2h-8.4zm.3-1.2h7.1c.1-.4.2-.8.2-1.3 0-1.2-.8-2.5-2.9-2.5-2 .1-3.8 1.7-4.4 3.8zM85.7 30.1h-2.1l.3-1.2h3.4l-.7 3c1.5-2 2.7-3.2 3.8-3.2.9 0 1.3.5 1.3 1.2s-.6 1.3-1.2 1.3-1-.4-1.2-.9c-.9.5-2.8 2.3-3.5 4.9L84.6 40h-1.4l2.5-9.9z"/><g><path class="st1" d="M53.2 95.7c1.3 0 2.3.3 3 .9.7.6 1.1 1.5 1.1 2.6 0 .8-.2 1.5-.6 2.1-.4.6-1 1-1.8 1.3.4.1.7.2.9.4l.6.6c.1.2.2.5.3.8.1.3.1.6.2.9 0 .3 0 .7.1 1 0 .3 0 .7.1 1 .1.3.1.6.2.9.1.3.2.6.4.8h-2c-.1-.1-.2-.3-.3-.6 0-.2-.1-.5-.1-.8v-.9c0-.3-.1-.7-.1-1-.1-.3-.1-.6-.2-.9-.1-.3-.2-.5-.4-.8-.2-.2-.4-.4-.6-.5-.3-.1-.6-.2-1-.2h-4.3v5.7h-1.8V95.7h6.3zm.3 6.1c.4-.1.7-.2 1-.4.3-.2.5-.4.7-.7.2-.3.3-.7.3-1.2 0-.7-.2-1.2-.6-1.6-.4-.4-1-.6-1.8-.6h-4.4v4.7h3.7c.4-.1.8-.2 1.1-.2zM66.2 95.7c1.3 0 2.3.3 3 .9.7.6 1.1 1.5 1.1 2.6 0 .8-.2 1.5-.6 2.1-.4.6-1 1-1.8 1.3.4.1.7.2.9.4l.6.6c.1.2.2.5.3.8.1.3.1.6.2.9 0 .3 0 .7.1 1 0 .3 0 .7.1 1 .1.3.1.6.2.9.1.3.2.6.4.8h-2c-.1-.1-.2-.3-.3-.6 0-.2-.1-.5-.1-.8v-.9c0-.3-.1-.7-.1-1-.1-.3-.1-.6-.2-.9-.1-.3-.2-.5-.4-.8-.2-.2-.4-.4-.6-.5-.3-.1-.6-.2-1-.2h-4.3v5.7h-1.8V95.7h6.3zm.3 6.1c.4-.1.7-.2 1-.4.3-.2.5-.4.7-.7.2-.3.3-.7.3-1.2 0-.7-.2-1.2-.6-1.6-.4-.4-1-.6-1.8-.6h-4.4v4.7h3.7c.4-.1.8-.2 1.1-.2zM78.7 95.7c1.3 0 2.4.3 3.1 1 .7.7 1 1.7 1 2.9s-.3 2.2-1 2.9c-.7.7-1.7 1-3.1 1h-4.1v5.5h-1.8V95.7h5.9zm-.6 6.4c1 0 1.7-.2 2.2-.6.5-.4.7-1 .7-1.8s-.2-1.4-.7-1.8c-.5-.4-1.2-.6-2.2-.6h-3.5v4.9h3.5z"/></g><g><path class="st1" d="M42.1 87.5V63h-9.5v-5.8c1.3 0 2.6-.1 3.8-.3 1.2-.2 2.3-.6 3.3-1.2s1.8-1.4 2.5-2.3c.7-1 1.1-2.2 1.3-3.6h6.1v37.7h-7.5zM72 48.1L56.1 88.3h-3.9l15.9-40.2H72zM72.5 58.3c.6-1.8 1.4-3.5 2.6-4.8 1.1-1.4 2.6-2.5 4.3-3.2 1.7-.8 3.7-1.2 6-1.2 1.7 0 3.4.3 4.9.8 1.6.5 2.9 1.3 4.1 2.3 1.2 1 2.1 2.2 2.8 3.7.7 1.5 1 3.1 1 4.9 0 1.9-.3 3.5-.9 4.9-.6 1.4-1.4 2.6-2.4 3.6-1 1.1-2.1 2-3.4 2.9-1.3.9-2.6 1.7-3.8 2.6-1.3.8-2.5 1.7-3.8 2.7-1.2 1-2.3 2.1-3.2 3.4h17.8v6.6H70.9c0-2.2.3-4.1.9-5.7.6-1.6 1.5-3.1 2.6-4.3 1.1-1.3 2.3-2.4 3.8-3.5s3-2.2 4.6-3.3c.8-.6 1.7-1.2 2.6-1.7.9-.6 1.8-1.2 2.6-2 .8-.7 1.4-1.5 1.9-2.4.5-.9.8-1.9.8-3.1 0-1.8-.5-3.3-1.6-4.3s-2.4-1.5-4.1-1.5c-1.1 0-2.1.3-2.8.8-.8.5-1.4 1.2-1.9 2s-.8 1.8-1 2.8c-.2 1-.3 2-.3 3h-7.3c-.1-2.2.2-4.2.8-6z"/></g></svg>