<svg id="Layer_1" xmlns="http://www.w3.org/2000/svg" viewBox="0 0 128 128"><style>.st0{fill:#FFF}.st1{fill:#ed3023}</style><ellipse class="st0" cx="64" cy="64" rx="64" ry="64"/><path class="st1" d="M38 34.2c0-5.2 4.1-10.7 9.7-10.7 4.6 0 7.2 3.2 7.2 7.3 0 5.2-4.1 10.7-9.7 10.7-4.6.1-7.2-3.2-7.2-7.3zM53.3 31c0-3.2-1.8-6-5.8-6-4.6 0-8 4.6-8 9.2 0 3.2 1.8 6 5.8 6 4.6 0 8-4.6 8-9.2zM64 23.6c-.4.1-.8.3-1.2.6-.5.5-.9 1.4-1.2 2.5l-.8 3.5h5.6l1-4.3c.3-1.5.8-2.3 1.6-3 .6-.6 1.5-1 2.5-1 1.1 0 1.8.5 1.8 1.3 0 .6-.5 1.1-1.1 1.1-.7 0-1.1-.5-1.1-1.2-.4.1-.9.2-1.3.6-.5.5-.9 1.4-1.2 2.5l-.9 4h2.9l-.3 1.2h-2.9l-2.3 9.9h-1.4l2.3-9.9h-5.6l-2.3 9.9h-1.4l2.3-9.9h-2l.3-1.2h2l.9-3.7c.3-1.5.8-2.3 1.6-3 .6-.6 1.5-1 2.4-1 1.1 0 1.8.5 1.8 1.3 0 .6-.5 1.1-1.1 1.1-.5-.1-.9-.5-.9-1.3zM72.4 36.1v.7c0 2.3 1.9 3.5 3.8 3.5 1.3 0 2.2-.3 3.6-1l-.3 1.4c-1.2.6-2.1.8-3.6.8-2.6 0-4.9-1.7-4.9-4.6 0-3.8 2.9-6.9 6.2-6.9 2.5 0 4 1.6 4 3.9 0 .7-.2 1.4-.4 2.2h-8.4zm.2-1.2h7.1c.1-.4.2-.8.2-1.3 0-1.2-.8-2.5-2.9-2.5-1.9.1-3.7 1.7-4.4 3.8zM86 31.4h-2.1l.3-1.2h3.4l-.7 3c1.5-2 2.7-3.2 3.8-3.2.9 0 1.3.5 1.3 1.2s-.6 1.3-1.2 1.3-1-.4-1.2-.9c-.9.5-2.8 2.3-3.5 4.9l-1.2 4.9h-1.4l2.5-10z"/><g><path class="st1" d="M45.6 70.1c-1.5 2.5-2.8 5.2-3.8 8s-1.8 5.7-2.4 8.6c-.6 2.9-.9 5.6-.9 8.1h-8.2c.4-5.6 1.7-11 4-16.2 2.2-5.2 5.1-10 8.7-14.3H25.1v-7.1h25.7v6.6c-2 1.7-3.7 3.8-5.2 6.3zM61.6 63.5l-1.5 8.6.1.1c1-1 2.2-1.8 3.3-2.2 1.2-.4 2.5-.7 4-.7 1.9 0 3.5.3 4.9 1 1.4.7 2.6 1.6 3.6 2.7s1.7 2.5 2.3 4.1c.5 1.6.8 3.2.8 5 0 1.9-.4 3.7-1.1 5.4-.8 1.7-1.8 3.1-3 4.3-1.3 1.2-2.8 2.2-4.4 2.8-1.7.7-3.5 1-5.4.9-1.8 0-3.6-.2-5.2-.7-1.7-.5-3.1-1.2-4.4-2.2-1.3-1-2.3-2.3-3.1-3.7-.8-1.5-1.2-3.2-1.2-5.2h7.6c.2 1.7.8 3.1 1.9 4.1 1.1 1 2.5 1.5 4.2 1.5 1 0 1.9-.2 2.7-.6.8-.4 1.5-1 2-1.6.6-.7 1-1.4 1.3-2.3.3-.9.5-1.8.5-2.7 0-1-.1-1.9-.4-2.7-.3-.9-.7-1.6-1.3-2.3-.6-.6-1.3-1.1-2-1.5-.8-.4-1.8-.6-2.8-.6-1.4 0-2.5.2-3.3.7-.9.5-1.7 1.3-2.5 2.3h-6.9L56 57.2h21v6.3H61.6z"/><g><path class="st1" d="M84.5 87.6c.2-.6.5-1.2.9-1.7s.9-.8 1.5-1.1c.6-.3 1.3-.4 2.1-.4s1.5.1 2.1.4c.6.3 1.1.6 1.5 1.1.4.5.7 1 .9 1.7.2.6.3 1.3.3 2.1 0 .7-.1 1.4-.3 2-.2.6-.5 1.2-.9 1.6-.4.5-.9.8-1.5 1.1-.6.3-1.3.4-2.1.4s-1.5-.1-2.1-.4c-.6-.3-1.1-.6-1.5-1.1-.4-.5-.7-1-.9-1.6-.2-.6-.3-1.3-.3-2 0-.8.1-1.4.3-2.1zm1.6 3.7c.2.5.4.9.7 1.2.3.3.6.6 1 .7.4.2.8.2 1.2.2.4 0 .8-.1 1.2-.2.4-.2.7-.4 1-.7.3-.3.5-.7.7-1.2.2-.5.2-1 .2-1.6 0-.6-.1-1.1-.2-1.6-.2-.5-.4-.9-.7-1.2-.3-.3-.6-.6-1-.7-.4-.2-.8-.2-1.2-.2-.4 0-.8.1-1.2.2-.4.2-.7.4-1 .7-.3.3-.5.7-.7 1.2-.2.5-.2 1-.2 1.6 0 .6.1 1.1.2 1.6zM95 86.1v-1.4h1.7v-1.5c0-.8.2-1.4.7-1.8.5-.4 1.2-.6 2.1-.6h.5c.2 0 .4.1.5.1v1.4c-.1-.1-.3-.1-.5-.1h-.5c-.4 0-.7.1-.9.2-.2.2-.3.5-.3.9v1.4h1.9v1.4h-1.9v8.5h-1.6v-8.5H95zM100.5 86.1v-1.4h1.7v-1.5c0-.8.2-1.4.7-1.8.5-.4 1.2-.6 2.1-.6h.5c.2 0 .4.1.5.1v1.4c-.1-.1-.3-.1-.5-.1h-.5c-.4 0-.7.1-.9.2-.2.2-.3.5-.3.9v1.4h1.9v1.4h-1.9v8.5h-1.6v-8.5h-1.7z"/><g><path class="st1" d="M84.3 60.7c.1-.7.4-1.2.7-1.7.3-.5.8-.9 1.3-1.2.5-.3 1.2-.4 2-.4s1.5.1 2 .4c.5.3 1 .7 1.3 1.2.3.5.5 1.1.7 1.7.1.7.2 1.4.2 2.1 0 .7-.1 1.4-.2 2-.1.7-.4 1.2-.7 1.7-.3.5-.8.9-1.3 1.2-.5.3-1.2.5-1.9.5-.8 0-1.4-.1-2-.4-.5-.3-1-.7-1.3-1.1-.3-.5-.6-1.1-.7-1.7-.1-.6-.2-1.3-.2-2.1-.2-.8-.1-1.5.1-2.2zm1.8 3.3c0 .5.1.9.3 1.3.2.4.4.7.7 1 .3.3.7.4 1.2.4s.9-.1 1.2-.4c.3-.3.5-.6.7-1 .2-.4.3-.8.3-1.3.1-.5.1-.9.1-1.3s0-.8-.1-1.3c0-.5-.1-.9-.3-1.3-.2-.4-.4-.7-.7-1-.3-.3-.7-.4-1.2-.4s-.9.1-1.2.4c-.3.3-.5.6-.7 1-.2.4-.3.8-.3 1.3-.1.5-.1.9-.1 1.3s0 .9.1 1.3zm16.7-7l-14 20h-2.2l14-20h2.2zm-5.7 12.3c.1-.7.4-1.2.7-1.7.3-.5.8-.9 1.3-1.2.5-.3 1.2-.4 2-.4s1.5.1 2 .4c.5.3 1 .7 1.3 1.2.3.5.5 1.1.7 1.7.1.7.2 1.4.2 2.1 0 .7-.1 1.4-.2 2-.1.7-.4 1.2-.7 1.7-.3.5-.8.9-1.3 1.2-.5.3-1.2.4-1.9.4-.8 0-1.4-.1-2-.4-.5-.3-1-.7-1.3-1.1-.3-.5-.6-1-.7-1.7-.1-.6-.2-1.3-.2-2.1-.1-.7 0-1.4.1-2.1zm1.8 3.3c0 .5.1.9.3 1.3.2.4.4.7.7 1 .3.3.7.4 1.2.4s.9-.1 1.2-.4c.3-.3.5-.6.7-1 .2-.4.3-.8.3-1.3.1-.5.1-.9.1-1.3s0-.8-.1-1.3c0-.5-.1-.9-.3-1.3-.2-.4-.4-.7-.7-1-.3-.3-.7-.4-1.2-.4s-.9.1-1.2.4c-.3.3-.5.6-.7 1-.2.4-.3.8-.3 1.3-.1.5-.1.9-.1 1.3.1.5.1.9.1 1.3z"/></g></g></g></svg>