<svg id="Layer_1" xmlns="http://www.w3.org/2000/svg" viewBox="0 0 128 128"><style>.st0{fill:#FFF}.st1{fill:#ed3023}</style><ellipse class="st0" cx="64" cy="64" rx="64" ry="64"/><path class="st1" d="M38.7 33.5c0-5.2 4.1-10.7 9.7-10.7 4.6 0 7.2 3.2 7.2 7.3 0 5.2-4.1 10.7-9.7 10.7-4.6 0-7.2-3.2-7.2-7.3zm15.4-3.3c0-3.2-1.8-6-5.8-6-4.6 0-8 4.6-8 9.2 0 3.2 1.8 6 5.8 6 4.5 0 8-4.6 8-9.2zM64.7 22.8c-.4.1-.8.3-1.2.6-.5.5-.9 1.4-1.2 2.5l-.8 3.5h5.6l1-4.3c.3-1.5.8-2.3 1.6-3 .6-.6 1.5-1 2.5-1 1.1 0 1.8.5 1.8 1.3 0 .6-.5 1.1-1.1 1.1-.7 0-1.1-.5-1.1-1.2-.4.1-.9.2-1.3.6-.5.5-.9 1.4-1.2 2.5l-.9 4h2.9l-.3 1.2h-2.9L66 40.5h-1.4l2.3-9.9h-5.6L59 40.5h-1.4l2.3-9.9h-2l.3-1.2h2l.9-3.7c.3-1.5.8-2.3 1.6-3 .6-.6 1.5-1 2.4-1 1.1 0 1.8.5 1.8 1.3 0 .6-.5 1.1-1.1 1.1-.6 0-1.1-.5-1.1-1.3zM73.1 35.3v.7c0 2.3 1.9 3.5 3.8 3.5 1.3 0 2.2-.3 3.6-1l-.3 1.4c-1.2.6-2.1.8-3.6.8-2.6 0-4.9-1.7-4.9-4.7 0-3.8 2.9-6.9 6.2-6.9 2.5 0 4 1.6 4 3.9 0 .7-.2 1.4-.4 2.2h-8.4zm.3-1.2h7.1c.1-.4.2-.8.2-1.3 0-1.2-.8-2.5-2.9-2.5-1.9.1-3.7 1.7-4.4 3.8zM86.7 30.6h-2.1l.3-1.2h3.4l-.7 3c1.5-2 2.7-3.2 3.8-3.2.9 0 1.3.5 1.3 1.2s-.6 1.3-1.2 1.3-1-.4-1.2-.9c-.9.5-2.8 2.3-3.5 4.9l-1.2 4.9h-1.4l2.5-10z"/><g><path class="st1" d="M48.1 95c.3-1 .8-1.9 1.5-2.7.7-.8 1.5-1.4 2.5-1.8 1-.4 2.1-.7 3.4-.7 1.3 0 2.4.2 3.4.7 1 .4 1.8 1 2.4 1.8.7.8 1.2 1.7 1.5 2.7.3 1 .5 2.1.5 3.3 0 1.2-.2 2.3-.5 3.3s-.8 1.9-1.5 2.7c-.7.8-1.5 1.4-2.4 1.8-1 .4-2.1.6-3.4.6-1.3 0-2.4-.2-3.4-.6-1-.4-1.8-1-2.5-1.8s-1.2-1.6-1.5-2.7c-.3-1-.5-2.1-.5-3.3 0-1.2.2-2.3.5-3.3zm2.7 5.9c.3.8.6 1.4 1.1 1.9.5.5 1 .9 1.6 1.2.6.3 1.3.4 1.9.4.7 0 1.3-.1 1.9-.4.6-.3 1.1-.7 1.6-1.2s.8-1.1 1.1-1.9c.3-.8.4-1.6.4-2.6s-.1-1.8-.4-2.6c-.3-.8-.6-1.4-1.1-1.9-.5-.5-1-.9-1.6-1.2-.6-.3-1.3-.4-1.9-.4-.7 0-1.3.1-1.9.4-.6.3-1.1.7-1.6 1.2s-.8 1.2-1.1 1.9c-.3.8-.4 1.6-.4 2.6.1 1 .2 1.9.4 2.6zM65.1 92.6v-2.3h2.7v-2.4c0-1.3.4-2.3 1.1-3 .8-.7 1.9-1 3.3-1 .2 0 .5 0 .9.1.3 0 .6.1.9.2v2.3c-.2-.1-.5-.1-.7-.2h-.7c-.6 0-1.1.1-1.5.4-.4.2-.5.7-.5 1.4v2.2h3.1v2.3h-3.1v13.8H68V92.6h-2.9zM74.1 92.6v-2.3h2.7v-2.4c0-1.3.4-2.3 1.1-3 .8-.7 1.9-1 3.3-1 .2 0 .5 0 .9.1.3 0 .6.1.9.2v2.3c-.2-.1-.5-.1-.7-.2h-.7c-.6 0-1.1.1-1.5.4-.4.2-.5.7-.5 1.4v2.2h3.1v2.3h-3.1v13.8H77V92.6h-2.9z"/></g><g><path class="st1" d="M38.3 64.4c-.5-.9-1-1.8-1.3-2.8-.3-1-.5-2.1-.5-3.3s.2-2.4.7-3.3c.5-1 1.1-1.8 1.9-2.5.8-.7 1.8-1.2 2.8-1.6 1.1-.4 2.2-.5 3.4-.5 2.9 0 5.1.8 6.8 2.5 1.6 1.7 2.4 4.2 2.4 7.5h-3.3c-.1-2.3-.5-4-1.5-5.3-.9-1.2-2.3-1.8-4.2-1.8-.8 0-1.5.1-2.2.4-.7.3-1.3.6-1.8 1.1-.5.5-.9 1-1.2 1.6-.3.6-.4 1.3-.4 2 0 .6.1 1.2.2 1.7s.3 1 .5 1.5.4.9.6 1.4c.2.4.5.9.7 1.4h6.2v1.8h-5.3c.2.4.4.9.5 1.4.2.5.2 1 .2 1.6 0 .9-.1 1.7-.4 2.4-.3.7-.6 1.3-1 1.9-.4.6-.9 1.1-1.4 1.6-.5.5-1.1 1-1.7 1.4l.1.1c.7-.3 1.3-.5 2-.8.6-.2 1.3-.3 2.1-.3s1.4.1 2 .2c.6.1 1.2.3 1.7.4.5.2 1 .3 1.6.5.5.2 1.1.2 1.7.2.6 0 1.2-.1 1.8-.4.6-.3 1.1-.6 1.6-1l1.7 2.6c-.8.7-1.7 1.1-2.7 1.4-1 .2-2 .4-3 .4-.7 0-1.3-.1-1.9-.2-.6-.2-1.3-.3-1.9-.5-.7-.2-1.3-.4-2-.6-.7-.2-1.4-.3-2.1-.3-.8 0-1.4.1-2.1.4-.6.2-1.2.6-1.8 1L36 77.1c.5-.4 1.1-.8 1.6-1.3s1-1 1.4-1.6c.4-.6.7-1.2 1-1.9.2-.7.3-1.4.3-2.1 0-.6-.1-1.2-.3-1.9-.2-.6-.4-1.2-.7-1.8H36v-1.8h2.3zM63.7 78.9V61.2h-6.9V57c1 0 1.9 0 2.8-.2.9-.2 1.7-.5 2.4-.9s1.3-1 1.8-1.7.8-1.6 1-2.6h4.4v27.2h-5.5zM75.2 58.5c.5-1.8 1.3-3.3 2.2-4.3.9-1.1 2-1.9 3.2-2.3 1.2-.5 2.5-.7 3.8-.7 1.4 0 2.7.2 3.9.7 1.2.5 2.3 1.2 3.2 2.3.9 1.1 1.6 2.5 2.2 4.3s.8 4 .8 6.7-.3 5-.8 6.8c-.5 1.8-1.3 3.3-2.2 4.4-.9 1.1-2 1.9-3.2 2.3-1.2.5-2.5.7-3.9.7s-2.6-.2-3.8-.7c-1.2-.5-2.3-1.2-3.2-2.3-.9-1.1-1.6-2.6-2.2-4.4-.5-1.8-.8-4.1-.8-6.8.1-2.7.3-4.9.8-6.7zm4.9 9.5c.1 1.1.2 2.2.5 3.2s.7 1.9 1.3 2.6c.6.7 1.5 1.1 2.6 1.1s2-.4 2.6-1.1c.6-.7 1-1.6 1.3-2.6.3-1 .4-2.1.5-3.2.1-1.1.1-2 .1-2.8v-1.7c0-.7-.1-1.3-.2-2s-.2-1.4-.4-2.1c-.2-.7-.4-1.3-.8-1.8-.3-.5-.8-1-1.3-1.3-.5-.3-1.2-.5-1.9-.5-.8 0-1.4.2-1.9.5s-.9.8-1.2 1.3c-.3.5-.6 1.2-.8 1.8-.2.7-.3 1.4-.4 2.1-.1.7-.1 1.4-.1 2v1.7c0 .7 0 1.6.1 2.8z"/></g></svg>