<svg id="Layer_1" xmlns="http://www.w3.org/2000/svg" viewBox="0 0 128 128"><style>.st0{fill:#fff}.st1{fill:#ed3023}</style><circle class="st0" cx="64" cy="64" r="64"/><path class="st1" d="M37.7 32.9c0-5.2 4.1-10.7 9.7-10.7 4.6 0 7.2 3.2 7.2 7.3 0 5.2-4.1 10.7-9.7 10.7-4.6.1-7.2-3.2-7.2-7.3zm15.4-3.2c0-3.2-1.8-6-5.8-6-4.6 0-8 4.6-8 9.2 0 3.2 1.8 6 5.8 6 4.5 0 8-4.6 8-9.2zm10.6-7.4c-.4.1-.8.3-1.2.6-.5.5-.9 1.4-1.2 2.5l-.8 3.5h5.6l1-4.3c.3-1.5.8-2.3 1.6-3 .6-.6 1.5-1 2.5-1 1.1 0 1.8.5 1.8 1.3 0 .6-.5 1.1-1.1 1.1-.7 0-1.1-.5-1.1-1.2-.4.1-.9.2-1.3.6-.5.5-.9 1.4-1.2 2.5l-.9 4h2.9l-.3 1.2h-2.9L65 40h-1.4l2.3-9.9h-5.6L58 40h-1.4l2.3-9.9h-2l.3-1.2h2l.9-3.7c.3-1.5.8-2.3 1.6-3 .6-.6 1.5-1 2.4-1 1.1 0 1.8.5 1.8 1.3 0 .6-.5 1.1-1.1 1.1-.6-.1-1.1-.5-1.1-1.3zm8.4 12.5v.7c0 2.3 1.9 3.5 3.8 3.5 1.3 0 2.2-.3 3.6-1l-.3 1.4c-1.2.6-2.1.8-3.6.8-2.6 0-4.9-1.7-4.9-4.7 0-3.8 2.9-6.9 6.2-6.9 2.5 0 4 1.6 4 3.9 0 .7-.2 1.4-.4 2.2h-8.4zm.3-1.2h7.1c.1-.4.2-.8.2-1.3 0-1.2-.8-2.5-2.9-2.5-2 .1-3.8 1.7-4.4 3.8zm13.3-3.5h-2.1l.3-1.2h3.4l-.7 3c1.5-2 2.7-3.2 3.8-3.2.9 0 1.3.5 1.3 1.2s-.6 1.3-1.2 1.3-1-.4-1.2-.9c-.9.5-2.8 2.3-3.5 4.9L84.6 40h-1.4l2.5-9.9zM46.2 99.4v1.3c.3-.5.7-.9 1.2-1.2.6-.2 1.2-.4 1.8-.4.7 0 1.4.1 2 .4.6.3 1 .6 1.4 1.1.4.5.6 1 .8 1.6.2.6.3 1.3.3 1.9 0 .7-.1 1.3-.3 1.9-.2.6-.5 1.1-.8 1.6-.4.5-.8.8-1.4 1.1-.6.3-1.2.4-1.9.4-.2 0-.5 0-.8-.1-.3-.1-.6-.1-.9-.2-.3-.1-.6-.3-.8-.5-.3-.2-.5-.4-.6-.7v5h-1.6V99.4h1.6zm5.7 3.4c-.1-.4-.3-.8-.5-1.1-.2-.3-.6-.6-.9-.8-.4-.2-.8-.3-1.3-.3s-1 .1-1.4.3c-.4.2-.7.5-.9.8-.2.3-.4.7-.5 1.2-.1.4-.2.9-.2 1.3 0 .5.1.9.2 1.4.1.4.3.8.5 1.2.2.3.6.6.9.8.4.2.9.3 1.4.3.5 0 1-.1 1.4-.3.4-.2.7-.5.9-.8.2-.3.4-.7.5-1.2.1-.5.1-.9.1-1.4 0-.5-.1-1-.2-1.4zm5.3-3.4v2c.4-.8.9-1.4 1.4-1.7.6-.4 1.3-.5 2.1-.5v1.7c-.6 0-1.2.1-1.6.3-.4.2-.8.4-1.1.8-.3.3-.5.7-.6 1.2-.1.5-.2 1-.2 1.7v4.3h-1.6v-9.7h1.6zm5.1-1.8v-1.9h1.6v1.9h-1.6zm1.6 1.8v9.7h-1.6v-9.7h1.6zm8.4 1.7c-.4-.3-.9-.5-1.6-.5-.6 0-1.1.1-1.4.3-.4.2-.7.5-.9.8-.2.3-.4.7-.5 1.2-.1.5-.1.9-.1 1.4 0 .4.1.9.2 1.3s.3.8.5 1.1c.2.3.5.6.9.8.4.2.8.3 1.3.3.8 0 1.4-.2 1.8-.6.4-.4.7-1 .8-1.7h1.6c-.2 1.2-.6 2.1-1.3 2.8-.7.6-1.7 1-2.9 1-.7 0-1.4-.1-2-.4-.6-.2-1-.6-1.4-1-.4-.4-.7-1-.9-1.6-.2-.6-.3-1.3-.3-2s.1-1.4.3-2c.2-.6.5-1.2.9-1.6.4-.5.9-.8 1.4-1.1.6-.3 1.2-.4 2-.4.5 0 1.1.1 1.5.2.5.1.9.3 1.3.6s.7.6.9 1c.2.4.4.9.4 1.5h-1.6c-.2-.6-.5-1.1-.9-1.4zm11.3 7.3c-.7.5-1.6.8-2.7.8-.8 0-1.4-.1-2-.4-.6-.2-1-.6-1.4-1-.4-.5-.7-1-.9-1.6-.2-.6-.3-1.3-.3-2s.1-1.4.3-2c.2-.6.5-1.1.9-1.6s.9-.8 1.4-1c.6-.2 1.2-.4 1.8-.4.9 0 1.6.2 2.1.5.6.4 1 .8 1.4 1.4.3.6.6 1.1.7 1.8.1.6.2 1.3.2 1.9h-7.2c0 .4 0 .8.1 1.2.1.4.3.7.5 1 .2.3.6.5 1 .7.4.2.8.3 1.4.3.7 0 1.2-.2 1.7-.5.4-.3.7-.8.9-1.4H85c-.2 1-.7 1.8-1.4 2.3zm-.4-6.2c-.1-.3-.3-.6-.6-.9-.2-.2-.5-.4-.9-.6-.3-.1-.7-.2-1.1-.2-.4 0-.8.1-1.1.2-.3.1-.6.3-.9.6-.2.2-.4.5-.6.9-.1.3-.2.7-.2 1.1h5.5c.2-.4.1-.7-.1-1.1zM42.1 87.5V63h-9.5v-5.8c1.3 0 2.6-.1 3.8-.3 1.2-.2 2.3-.6 3.3-1.2s1.8-1.4 2.5-2.3c.7-1 1.1-2.2 1.3-3.6h6.1v37.7h-7.5zM72 48.1L56.1 88.3h-3.9l15.9-40.2H72zm.5 10.2c.6-1.8 1.4-3.5 2.6-4.8 1.1-1.4 2.6-2.5 4.3-3.2 1.7-.8 3.7-1.2 6-1.2 1.7 0 3.4.3 4.9.8 1.6.5 2.9 1.3 4.1 2.3 1.2 1 2.1 2.2 2.8 3.7.7 1.5 1 3.1 1 4.9 0 1.9-.3 3.5-.9 4.9-.6 1.4-1.4 2.6-2.4 3.6-1 1.1-2.1 2-3.4 2.9-1.3.9-2.6 1.7-3.8 2.6-1.3.8-2.5 1.7-3.8 2.7-1.2 1-2.3 2.1-3.2 3.4h17.8v6.6H70.9c0-2.2.3-4.1.9-5.7.6-1.6 1.5-3.1 2.6-4.3 1.1-1.3 2.3-2.4 3.8-3.5s3-2.2 4.6-3.3c.8-.6 1.7-1.2 2.6-1.7.9-.6 1.8-1.2 2.6-2 .8-.7 1.4-1.5 1.9-2.4.5-.9.8-1.9.8-3.1 0-1.8-.5-3.3-1.6-4.3s-2.4-1.5-4.1-1.5c-1.1 0-2.1.3-2.8.8-.8.5-1.4 1.2-1.9 2s-.8 1.8-1 2.8c-.2 1-.3 2-.3 3h-7.3c-.1-2.2.2-4.2.8-6z"/></svg>