<?xml version="1.0" encoding="utf-8"?>
<!-- Generator: Adobe Illustrator 19.1.0, SVG Export Plug-In . SVG Version: 6.00 Build 0)  -->
<svg version="1.1" id="Layer_1" xmlns="http://www.w3.org/2000/svg" xmlns:xlink="http://www.w3.org/1999/xlink" x="0px" y="0px"
	 viewBox="0 0 198.8 97.1" style="enable-background:new 0 0 198.8 97.1;" xml:space="preserve">
<style type="text/css">
	.st0{fill:#9B0033;}
	.st1{fill-rule:evenodd;clip-rule:evenodd;fill:#9B0033;}
	.st2{fill-rule:evenodd;clip-rule:evenodd;}
	.st3{fill:#A10045;}
	.st4{fill:#FFFFFF;}
</style>
<g>
	<path class="st0" d="M68.7,24.6h93.7c9.4,0,17.2,3,23.9,9.1c6.5,6,9.7,13.2,9.8,22l1.3,0l-1.3,0c-0.1,8.6-3.3,15.7-9.8,21.8l0,0
		c-6.6,6.1-14.5,9.2-23.9,9.2H68.7c-0.7,0-1.3,0.6-1.3,1.3c0,0.7,0.6,1.3,1.3,1.3h93.7c10,0,18.6-3.3,25.7-9.9l0,0
		c7-6.5,10.6-14.5,10.6-23.8v0c-0.1-9.4-3.6-17.5-10.7-23.9c-7.1-6.5-15.7-9.8-25.7-9.8H68.7c-0.7,0-1.3,0.6-1.3,1.3
		C67.4,24,68,24.6,68.7,24.6z M68.7,24.6h93.7c9.4,0,17.2,3,23.9,9.1c6.5,6,9.7,13.2,9.8,22l1.3,0l-1.3,0
		c-0.1,8.6-3.3,15.7-9.8,21.8l0,0c-6.6,6.1-14.5,9.2-23.9,9.2H68.7c-0.7,0-1.3,0.6-1.3,1.3c0,0.7,0.6,1.3,1.3,1.3h93.7
		c10,0,18.6-3.3,25.7-9.9l0,0c7-6.5,10.6-14.5,10.6-23.8v0c-0.1-9.4-3.6-17.5-10.7-23.9c-7.1-6.5-15.7-9.8-25.7-9.8H68.7
		c-0.7,0-1.3,0.6-1.3,1.3C67.4,24,68,24.6,68.7,24.6z"/>
	<path class="st1" d="M60.4,23.9c5.4,3.1,9.6,7.4,12.7,12.6c3.1,5.4,4.7,11.3,4.8,17.8C77.8,61,76.2,67,73.1,72.2
		C70,77.5,65.8,81.8,60.4,85c-5.3,3.1-11.2,4.7-17.8,4.8C36,89.7,30.1,88.1,24.8,85c-5.4-3.2-9.6-7.5-12.6-12.7
		C8.9,67,7.4,61.1,7.3,54.4c0.1-6.5,1.6-12.5,4.9-17.8c3-5.3,7.3-9.5,12.6-12.6c5.3-3.1,11.3-4.8,17.8-4.9
		C49.1,19.1,55.1,20.8,60.4,23.9 M42.5,11.9c-7.9,0.1-15.1,2-21.5,5.8c-6.3,3.8-11.3,8.9-15.2,15.2C2,39.3,0.1,46.5,0,54.4
		c0.1,7.9,2,15.1,5.8,21.5c3.9,6.4,8.9,11.5,15.2,15.4c6.4,3.7,13.6,5.6,21.5,5.8c8-0.1,15.2-2,21.6-5.8c6.4-3.9,11.5-9,15.3-15.4
		c3.7-6.4,5.7-13.6,5.8-21.5c-0.1-7.9-2-15.1-5.8-21.5c-3.8-6.3-8.9-11.4-15.3-15.2C57.7,13.9,50.5,12,42.5,11.9z"/>
	<polyline class="st0" points="96,42.1 98.9,42.1 102.1,50.7 105.3,42.1 108.1,42.1 103.3,54.3 100.9,54.3 96,42.1 	"/>
	<path class="st0" d="M129.9,45h2.7v9.3h-2.7V45z M129.8,41.6h2.8v2.3h-2.8V41.6z M121.5,45h2.6v1.8c0.3-0.6,0.7-1.1,1.1-1.5
		c0.4-0.4,1-0.6,1.8-0.5v2.8h-0.1c-1,0-1.6,0.3-2.1,0.8c-0.5,0.5-0.8,1.4-0.8,2.5v3.4h-2.6V45z M115.8,48.9c-0.1-0.6-0.3-1-0.6-1.5
		c-0.3-0.3-0.8-0.5-1.3-0.5c-0.6,0-1,0.2-1.4,0.5c-0.3,0.4-0.6,0.9-0.7,1.5H115.8z M114.1,54.5c-0.6,0-1.3-0.2-1.9-0.4
		c-0.6-0.2-1.1-0.5-1.6-1c-0.4-0.4-0.7-0.9-1-1.5c-0.3-0.6-0.4-1.3-0.4-2c0-0.7,0.1-1.3,0.3-1.9c0.3-0.6,0.5-1.1,1-1.6
		c0.4-0.4,0.9-0.8,1.5-1c0.6-0.3,1.2-0.3,1.9-0.3c0.8,0,1.4,0.2,2,0.4c0.6,0.3,1,0.6,1.4,1.1c0.3,0.4,0.6,1,0.9,1.6
		c0.2,0.6,0.3,1.3,0.3,1.9l-0.1,0.3v0.3h-6.4c0.1,0.6,0.3,1,0.8,1.4c0.4,0.3,0.9,0.4,1.5,0.4c0.4,0,0.8-0.1,1.2-0.3
		c0.3-0.1,0.6-0.3,1-0.7l1.5,1.3c-0.4,0.6-1,1-1.6,1.3C115.7,54.3,115,54.5,114.1,54.5z"/>
	<path class="st0" d="M140.7,54.4c-1,0-1.8-0.2-2.8-0.5c-0.9-0.3-1.6-0.8-2.4-1.5l1.6-1.8c0.5,0.4,1,0.8,1.6,1
		c0.6,0.3,1.2,0.4,1.9,0.4c0.6,0,1-0.1,1.3-0.3c0.3-0.2,0.4-0.4,0.4-0.8v-0.5l-0.4-0.3l-0.7-0.3l-1.3-0.4l-1.6-0.4l-1.3-0.7l-0.8-1
		c-0.2-0.4-0.3-0.9-0.3-1.5v-0.1l0.3-1.5c0.3-0.4,0.5-0.9,1-1.1c0.3-0.3,0.8-0.6,1.3-0.8c0.5-0.2,1.1-0.3,1.7-0.3
		c0.9,0,1.6,0.2,2.4,0.4c0.8,0.3,1.5,0.6,2.1,1.1l-1.4,2l-1.6-0.9c-0.5-0.3-1-0.3-1.6-0.3c-0.5,0-0.9,0.1-1.1,0.3
		c-0.3,0.2-0.4,0.4-0.4,0.7v0.1l0.2,0.5l0.3,0.3l0.9,0.3l1.3,0.3l1.6,0.6c0.4,0.2,0.9,0.4,1.2,0.7l0.7,1c0.2,0.4,0.3,0.9,0.3,1.4
		v0.1c0,0.6-0.1,1.1-0.3,1.6c-0.2,0.4-0.4,0.9-0.9,1.2c-0.4,0.3-0.9,0.5-1.5,0.7C141.9,54.3,141.3,54.4,140.7,54.4"/>
	<path class="st0" d="M148.5,45h2.7v9.3h-2.7V45z M148.4,41.6h2.8v2.3h-2.8V41.6z"/>
	<path class="st0" d="M167.9,45h2.6v1.3l0.5-0.5l0.6-0.5l0.7-0.3l0.9-0.1c1,0,1.8,0.3,2.3,1c0.6,0.6,0.9,1.4,0.9,2.5v6h-2.7V49
		c0-0.6-0.1-1-0.3-1.4c-0.3-0.3-0.7-0.4-1.2-0.4c-0.5,0-1,0.2-1.2,0.4c-0.3,0.3-0.4,0.8-0.4,1.4v5.2h-2.6V45 M159.6,51.3l1-0.2
		c0.3-0.1,0.4-0.2,0.7-0.4c0.2-0.2,0.3-0.4,0.4-0.7c0.1-0.3,0.2-0.5,0.2-0.9l-0.2-0.9c-0.1-0.3-0.3-0.5-0.4-0.7l-0.7-0.4l-1-0.2
		l-0.9,0.2l-0.7,0.4c-0.3,0.2-0.4,0.4-0.5,0.7l-0.2,0.9c0,0.7,0.3,1.2,0.7,1.6C158.4,51.1,159,51.3,159.6,51.3z M159.3,57l-2.2-0.3
		c-0.8-0.1-1.4-0.3-2-0.7l1-2l1.5,0.7l1.6,0.2c0.9,0,1.6-0.2,2-0.6c0.4-0.4,0.6-1,0.6-1.9V52c-0.3,0.4-0.8,0.9-1.2,1.1
		c-0.4,0.3-1,0.3-1.8,0.3c-0.5,0-1-0.1-1.6-0.3c-0.4-0.2-0.9-0.4-1.3-0.9c-0.3-0.3-0.6-0.8-0.9-1.3c-0.3-0.6-0.3-1.2-0.3-1.9
		c0-0.7,0.1-1.3,0.3-1.8c0.3-0.6,0.5-1,0.9-1.4c0.4-0.4,0.9-0.7,1.4-0.9l1.5-0.3c0.8,0,1.4,0.2,1.8,0.4c0.4,0.3,0.9,0.5,1.2,1V45
		h2.6v7.2c0,1.6-0.3,2.9-1.1,3.6c-0.4,0.4-1,0.8-1.6,1L159.3,57z"/>
	<path class="st0" d="M102.7,69.6c-1,0-1.8-0.2-2.8-0.5c-0.9-0.3-1.6-0.8-2.4-1.5l1.6-1.8c0.5,0.4,1,0.8,1.6,1
		c0.6,0.3,1.2,0.4,1.9,0.4c0.6,0,1-0.1,1.3-0.3c0.3-0.2,0.4-0.4,0.4-0.8v-0.5l-0.4-0.3l-0.7-0.3l-1.3-0.4l-1.6-0.4l-1.3-0.7l-0.8-1
		c-0.2-0.4-0.3-0.9-0.3-1.5v-0.1l0.3-1.5c0.3-0.4,0.5-0.9,1-1.1c0.3-0.3,0.8-0.6,1.3-0.8c0.5-0.2,1.1-0.3,1.7-0.3
		c0.9,0,1.6,0.2,2.4,0.4c0.8,0.3,1.5,0.6,2.1,1.1l-1.4,2l-1.6-0.9c-0.5-0.3-1-0.3-1.6-0.3s-0.9,0.1-1.1,0.3
		c-0.3,0.2-0.4,0.4-0.4,0.7v0.1l0.2,0.5l0.3,0.3l0.9,0.3l1.3,0.3l1.6,0.6c0.4,0.2,0.9,0.4,1.2,0.7l0.7,1c0.2,0.4,0.3,0.9,0.3,1.4
		v0.1c0,0.6-0.1,1.1-0.3,1.6c-0.2,0.4-0.4,0.9-0.9,1.2c-0.4,0.3-0.9,0.5-1.5,0.7C104,69.5,103.4,69.6,102.7,69.6"/>
	<path class="st0" d="M127.3,69.7c-0.7,0-1.3-0.2-1.9-0.4c-0.6-0.3-1.1-0.6-1.6-1c-0.4-0.4-0.7-0.9-1-1.5c-0.3-0.6-0.4-1.3-0.4-1.9
		c0-0.7,0.2-1.3,0.4-1.9c0.3-0.6,0.5-1.1,1-1.6c0.4-0.4,1-0.8,1.6-1c0.6-0.3,1.2-0.3,2-0.3c0.9,0,1.6,0.2,2.2,0.4
		c0.6,0.3,1,0.6,1.5,1.1l-1.6,1.7c-0.3-0.3-0.6-0.6-1-0.8c-0.3-0.2-0.7-0.3-1.2-0.3l-0.9,0.2l-0.7,0.6l-0.5,0.8l-0.2,1v0.1
		c0,0.3,0.1,0.7,0.2,1c0.1,0.3,0.3,0.6,0.5,0.9c0.2,0.3,0.4,0.4,0.7,0.5c0.3,0.1,0.6,0.2,1,0.2c0.4,0,0.8-0.1,1.1-0.3l1-0.7l1.6,1.6
		c-0.4,0.4-1,0.9-1.6,1.2C128.9,69.5,128.2,69.7,127.3,69.7 M116.9,64c-0.1-0.6-0.3-1-0.6-1.5c-0.3-0.3-0.8-0.5-1.3-0.5
		c-0.6,0-1,0.2-1.4,0.5c-0.3,0.4-0.6,0.9-0.7,1.5H116.9z M115.1,69.7c-0.6,0-1.3-0.2-1.9-0.4c-0.6-0.2-1.1-0.5-1.6-1
		c-0.4-0.4-0.7-0.9-1-1.5c-0.3-0.6-0.4-1.3-0.4-2c0-0.7,0.1-1.3,0.3-1.9c0.3-0.6,0.5-1.1,1-1.6c0.4-0.4,0.9-0.8,1.5-1
		c0.6-0.3,1.2-0.3,1.9-0.3c0.8,0,1.4,0.2,2,0.4c0.6,0.3,1,0.6,1.4,1.1c0.3,0.4,0.6,1,0.9,1.6c0.2,0.6,0.3,1.3,0.3,1.9l-0.1,0.3v0.3
		H113c0.1,0.6,0.3,1,0.8,1.4c0.4,0.3,0.9,0.4,1.5,0.4c0.4,0,0.8-0.1,1.2-0.3c0.3-0.1,0.6-0.3,1-0.7l1.5,1.3c-0.4,0.6-1,1-1.6,1.3
		C116.8,69.5,116,69.7,115.1,69.7z"/>
	<path class="st0" d="M137.4,69.6c-1,0-1.7-0.3-2.3-1c-0.5-0.6-0.8-1.4-0.8-2.5v-6h2.6v5.2c0,0.6,0.2,1,0.4,1.4
		c0.3,0.3,0.7,0.4,1.2,0.4c0.4,0,0.9-0.2,1.2-0.4c0.3-0.3,0.4-0.8,0.4-1.4v-5.2h2.6v9.3h-2.6v-1.3l-0.5,0.5l-0.6,0.5l-0.7,0.3
		L137.4,69.6"/>
	<path class="st0" d="M172.2,67.3c0.3,0,0.7-0.1,1-0.2l0.7-0.5c0.2-0.3,0.3-0.5,0.4-0.8l0.2-1v-0.1l-0.2-1l-0.4-0.8l-0.7-0.5
		c-0.3-0.1-0.6-0.2-1-0.2l-0.9,0.2l-0.7,0.5l-0.5,0.8c-0.1,0.3-0.2,0.6-0.2,1v0.1l0.2,1c0.1,0.3,0.3,0.5,0.5,0.8l0.7,0.5L172.2,67.3
		 M171.6,69.6c-0.6,0-1.1-0.1-1.6-0.3c-0.4-0.2-0.9-0.4-1.3-0.9c-0.4-0.4-0.7-1-1-1.6c-0.3-0.6-0.3-1.2-0.3-2v-0.1
		c0-0.8,0.1-1.5,0.3-2.1c0.3-0.6,0.5-1,1-1.5c0.3-0.4,0.8-0.7,1.3-0.9c0.5-0.3,1-0.3,1.6-0.3c0.7,0,1.3,0.2,1.7,0.4
		c0.4,0.3,0.9,0.5,1.1,1v-4.6h2.6v12.6h-2.6v-1.3c-0.3,0.4-0.7,0.8-1.1,1C172.9,69.4,172.3,69.6,171.6,69.6z M161.7,64
		c-0.1-0.6-0.3-1-0.6-1.5c-0.3-0.3-0.8-0.5-1.3-0.5c-0.6,0-1,0.2-1.4,0.5c-0.3,0.4-0.6,0.9-0.7,1.5H161.7z M160,69.7
		c-0.6,0-1.3-0.2-1.9-0.4c-0.6-0.2-1.1-0.5-1.6-1c-0.4-0.4-0.7-0.9-1-1.5c-0.3-0.6-0.4-1.3-0.4-2c0-0.7,0.1-1.3,0.3-1.9
		c0.3-0.6,0.5-1.1,1-1.6c0.4-0.4,0.9-0.8,1.5-1c0.6-0.3,1.2-0.3,1.9-0.3c0.8,0,1.4,0.2,2,0.4c0.6,0.3,1,0.6,1.4,1.1
		c0.3,0.4,0.6,1,0.9,1.6c0.2,0.6,0.3,1.3,0.3,1.9l-0.1,0.3v0.3h-6.4c0.1,0.6,0.3,1,0.8,1.4c0.4,0.3,0.9,0.4,1.5,0.4
		c0.4,0,0.8-0.1,1.2-0.3c0.3-0.1,0.6-0.3,1-0.7l1.5,1.3c-0.4,0.6-1,1-1.6,1.3C161.7,69.5,160.9,69.7,160,69.7z M146.9,60.1h2.6v1.8
		c0.3-0.6,0.7-1.1,1.1-1.5c0.4-0.4,1-0.6,1.8-0.5v2.8h-0.1c-1,0-1.6,0.3-2.1,0.8c-0.5,0.5-0.8,1.4-0.8,2.5v3.4h-2.6V60.1z"/>
	<path class="st1" d="M181.6,20.8h3.7v0.9H184v3.6h-1v-3.6h-1.4V20.8 M190.8,20.8v4.4h-1v-2.9l-1.1,1.9h-0.2l-1.1-1.9v2.9h-1v-4.4
		h1.1l1.2,1.9l1.1-1.9H190.8z"/>
	<path class="st2" d="M67.8,33.9h-3.2v3.3h3.2V33.9z M64.6,25.6h3.2v3.2h-3.2V25.6z M72.9,17.1h-3.3v-3.2h3.3V17.1z M79.4,10.4h6.3
		V6.9h-6.3v10.1h-6.4v3.3h-5.5v2.3h-2.9v2.9h-3.5v5.1h-3.3v3.2h-2.2v3.3h-2.4c-4.9,7.2-8.7,14.3-11.4,21.5
		c-6.2-8.8-12-13.9-17.4-15.7c-1.5-0.4-2.5-0.1-3.1,1.2c-0.6,1.3-0.1,2.9,1.7,4.9c5.5,6,10.5,14.5,15.1,25.3
		c0.7,1.7,2.3,2.7,4.8,2.9c2.3,0.2,3.9-0.7,4.6-2.6c3.4-8.9,7.3-16.5,11.8-23v-3.7h2.6v-3.2h2.8v-3.9h3.2v-3.6h3.3v-3.3h2.6v-4h2.9
		v-2.7h2.8v-6.8h3.2v-3.3h3.7v-3.3h-3.7v3.3h-3.2v3.3h-3.2v3.2h-3.2v-3.2h3.2v-10H79.4z"/>
	<rect x="79.4" y="10.4" class="st3" width="3.2" height="3.4"/>
	<rect x="64.6" y="25.6" class="st4" width="3.2" height="3.2"/>
	<rect x="89.3" y="6.9" class="st0" width="3.5" height="3.5"/>
	<polyline points="89.4,6.9 89.4,3.5 85.9,3.5 85.9,6.9 	"/>
	<rect x="89.3" class="st0" width="3.5" height="3.5"/>
</g>
</svg>
