<svg id="Layer_1" xmlns="http://www.w3.org/2000/svg" viewBox="0 0 128 128"><style>.st0{fill:#facfe2}.st1{fill:#7b7b7b}</style><path class="st0" d="M45.7 0h36.6v128H45.7z"/><path class="st1" d="M56.4 110.3v-3.8l12.1-4.3-12.1-4.1v-3.8h15.4v2.6H59.9l11.9 4.3v2.2l-11.9 4.3h11.9v2.6H56.4zM69.4 82c.3 0 .5 0 .6-.1.1-.1.2-.2.2-.5v-.3-.3h1.7c0 .1.1.2.1.3 0 .1.1.3.1.4 0 .1.1.3.1.4v.4c0 .5-.1.9-.3 1.3-.2.3-.6.5-1.1.6.5.5.8 1.1 1 1.8.2.7.3 1.4.3 2.1 0 .5-.1 1-.2 1.4-.1.5-.3.9-.6 1.2-.3.4-.6.6-1 .8-.4.2-.9.3-1.4.3-.7 0-1.3-.1-1.7-.4-.4-.3-.8-.6-1-1-.2-.4-.4-.9-.5-1.4-.1-.5-.2-1-.2-1.5-.1-.4-.1-.9-.2-1.3 0-.4-.1-.8-.2-1.1-.1-.3-.2-.6-.4-.7-.2-.2-.5-.3-.8-.3-.3 0-.6.1-.8.2-.2.2-.4.3-.5.6-.1.2-.2.5-.2.7 0 .3-.1.5-.1.8 0 .7.1 1.3.4 1.7.3.4.7.7 1.3.8v2.5c-.7 0-1.3-.2-1.8-.5s-.9-.7-1.1-1.2c-.3-.5-.5-1-.6-1.6-.1-.6-.2-1.2-.2-1.8 0-.5.1-1.1.2-1.6s.3-1 .6-1.4c.3-.4.6-.8 1-1 .4-.3.9-.4 1.5-.4h5.8zm-3.2 2.5c.2.4.4.8.4 1.4.1.5.1 1.1.2 1.6 0 .3.1.5.2.8.1.2.2.5.3.6.1.2.3.3.5.4.2.1.5.2.8.2.3 0 .5-.1.7-.2.2-.2.3-.3.4-.6.1-.2.2-.5.2-.7 0-.3.1-.5.1-.7 0-.3 0-.6-.1-.9-.1-.3-.2-.6-.4-.9-.2-.3-.4-.5-.7-.7-.3-.2-.6-.3-1-.3h-1.6zM60.7 80.5v-1.9h-3.3v-2.5h3.3V74h1.8v2.2h6.7c.2 0 .3-.1.5-.2.1-.1.2-.2.3-.4V75v-.5c0-.2 0-.3-.1-.5h1.9c0 .3.1.5.1.8v.8c0 .6-.1 1.2-.2 1.6-.1.4-.3.7-.5.9-.2.2-.5.4-.9.5-.4.1-.8.1-1.2.1h-6.6v1.9h-1.8zM66.9 70.3c.4 0 .9-.1 1.3-.2s.8-.3 1.1-.6c.3-.2.5-.6.7-.9.2-.4.3-.8.3-1.3 0-.7-.2-1.3-.5-1.7-.3-.4-.8-.8-1.4-1v-2.3c.6.1 1.1.4 1.6.7.5.3.9.7 1.2 1.1.3.4.6.9.7 1.5.2.6.2 1.1.2 1.7 0 .9-.1 1.7-.4 2.3-.3.7-.7 1.3-1.2 1.7-.5.5-1.1.8-1.9 1.1-.7.2-1.5.4-2.4.4-.8 0-1.5-.1-2.3-.4-.7-.3-1.3-.6-1.9-1.1-.5-.5-1-1-1.3-1.7-.3-.7-.5-1.4-.5-2.2 0-.9.2-1.7.6-2.4.4-.7.9-1.3 1.5-1.7.6-.5 1.3-.8 2.1-1 .8-.2 1.6-.3 2.4-.2v8.2zm-1.6-5.8c-.4 0-.8.1-1.1.2-.4.1-.7.3-.9.6-.3.2-.5.5-.6.9-.2.3-.2.7-.2 1.1 0 .4.1.8.2 1.2.2.4.4.7.6.9.3.3.6.5.9.6.4.2.7.2 1.2.2v-5.7zM60.7 60.2v-2.3h2.2c-.3-.1-.6-.2-.9-.4-.3-.2-.6-.5-.8-.8-.2-.3-.4-.6-.6-1-.1-.4-.2-.7-.2-1.1V54v-.3h2.4c0 .2-.1.3-.1.5v.5c0 .4.1.8.2 1.2.2.4.4.7.7 1 .3.3.7.5 1.2.6.5.2 1 .2 1.6.2h5.3v2.5h-11zM60.7 52.2v-2.3h1.6c-.6-.4-1.1-.9-1.5-1.5-.4-.6-.5-1.3-.5-2 0-1.2.3-2.2 1-2.9.6-.7 1.6-1.1 2.9-1.1h7.7v2.5h-7c-.9 0-1.5.2-1.9.6-.4.3-.6.9-.6 1.6 0 .4.1.8.2 1.1.2.3.4.6.6.8.3.2.6.4.9.5.4.1.7.2 1.1.2h6.6v2.5H60.7zM56.4 39.7v-2.5h2.3v2.5h-2.3zm4.3 0v-2.5h11.2v2.5H60.7zM60.7 35.7v-1.9h-3.3v-2.5h3.3v-2.2h1.8v2.2h6.7c.2 0 .3-.1.5-.2.1-.1.2-.2.3-.4.1-.2.1-.4.1-.6v-.5c0-.2 0-.3-.1-.5h1.9c0 .3.1.5.1.8v.8c0 .6-.1 1.2-.2 1.6-.1.4-.3.7-.5.9-.2.2-.5.4-.9.5-.4.1-.8.1-1.2.1h-6.6v1.9h-1.9zM60.7 28.6v-2.7L69 23l-8.3-2.8v-2.6l11.8 4.3c.5.2 1 .4 1.4.6.5.2.9.4 1.2.7.4.3.6.6.8 1 .2.4.3 1 .3 1.6 0 .6 0 1.1-.1 1.7H74c0-.2.1-.4.1-.6 0-.2.1-.4.1-.6 0-.3 0-.5-.1-.7-.1-.2-.2-.3-.3-.5-.1-.1-.3-.2-.5-.3-.2-.1-.4-.2-.6-.2l-.9-.3-11.1 4.3z"/></svg>