<svg id="Layer_1" xmlns="http://www.w3.org/2000/svg" viewBox="0 0 128 128"><style>.st0{fill:#b2b3b5}.st1{fill:#fff}</style><circle class="st0" cx="64" cy="64" r="64"/><path class="st1" d="M37.4 39.6h13.1v2.8h-9.9v4.8h9.2v2.6h-9.2V55h10.1v2.8H37.4V39.6zm26.7 15.3c0 .4 0 .6.1.8.1.2.3.2.5.2h.3c.1 0 .3 0 .4-.1v2c-.1 0-.2.1-.4.1s-.3.1-.5.1-.3.1-.5.1h-.4c-.6 0-1.1-.1-1.5-.4-.4-.2-.6-.7-.8-1.3-.6.6-1.3 1-2.1 1.2-.8.3-1.7.4-2.4.4-.6 0-1.2-.1-1.7-.2-.5-.2-1-.4-1.4-.7-.4-.3-.7-.7-1-1.2-.2-.5-.4-1.1-.4-1.7 0-.8.1-1.5.4-2 .3-.5.7-.9 1.2-1.2.5-.3 1-.5 1.6-.6l1.8-.3c.5-.1 1-.2 1.5-.2s.9-.1 1.3-.2.7-.3.9-.5c.2-.2.3-.5.3-1 0-.4-.1-.7-.3-.9-.2-.2-.4-.4-.7-.5l-.9-.3c-.3 0-.6-.1-.9-.1-.8 0-1.5.2-2 .5s-.8.9-.9 1.6h-2.9c.1-.9.3-1.6.6-2.1.4-.6.8-1 1.4-1.4.6-.3 1.2-.6 1.9-.7.7-.1 1.4-.2 2.1-.2.6 0 1.3.1 1.9.2.6.1 1.2.4 1.7.7.5.3.9.7 1.2 1.2.3.5.5 1.1.5 1.8v6.9zm-2.9-3.7c-.4.3-1 .5-1.6.5-.6.1-1.3.1-1.9.3-.3.1-.6.1-.9.2-.3.1-.5.2-.8.4-.2.2-.4.4-.5.6-.1.3-.2.6-.2 1 0 .3.1.6.3.8.2.2.4.4.7.5l.9.3c.3.1.6.1.9.1.3 0 .7 0 1-.1.4-.1.7-.2 1.1-.4s.6-.5.8-.8c.2-.3.3-.7.3-1.2v-2.2zm8.2 2.4c.1.9.4 1.4 1 1.8.6.3 1.2.5 2 .5.3 0 .6 0 .9-.1.3 0 .7-.1 1-.2.3-.1.6-.3.8-.5.2-.2.3-.5.3-.9s-.2-.7-.4-.9c-.3-.2-.6-.4-1-.6-.4-.1-.9-.3-1.4-.4-.5-.1-1-.2-1.6-.3-.5-.1-1.1-.3-1.6-.4-.5-.2-1-.4-1.4-.7-.4-.3-.7-.7-1-1.1-.2-.5-.4-1-.4-1.7s.2-1.3.5-1.8.8-.9 1.3-1.2c.5-.3 1.1-.5 1.8-.6.7-.1 1.3-.2 1.9-.2.7 0 1.3.1 2 .2.6.1 1.2.4 1.7.7.5.3.9.7 1.3 1.3.3.5.5 1.1.6 1.9h-3c-.1-.7-.5-1.2-1-1.4-.5-.2-1.1-.4-1.7-.4-.2 0-.4 0-.7.1-.3 0-.5.1-.8.2-.2.1-.5.2-.6.4-.2.2-.3.4-.3.7 0 .4.1.6.4.9.2.2.6.4 1 .5.4.1.9.3 1.4.4.5.1 1 .2 1.6.3.5.1 1 .3 1.6.4.5.2 1 .4 1.4.7.4.3.7.7 1 1.1.2.4.4 1 .4 1.6 0 .8-.2 1.4-.5 2-.4.5-.8 1-1.4 1.3-.6.3-1.2.6-1.9.7-.7.2-1.4.2-2.1.2-.8 0-1.6-.1-2.3-.3-.7-.2-1.3-.5-1.8-.9s-.9-.9-1.2-1.4c-.3-.6-.5-1.2-.5-2h2.7zm9.6-9h3.2l3.4 9.9h.1l3.3-9.9h3l-5 13.9c-.2.6-.5 1.2-.7 1.7-.2.5-.5 1-.8 1.4-.3.4-.7.7-1.2 1-.5.2-1.1.4-1.9.4-.7 0-1.4-.1-2-.2v-2.5c.2 0 .5.1.7.1.2 0 .5.1.7.1.3 0 .6 0 .8-.1.2-.1.4-.2.5-.4.1-.2.3-.4.4-.6.1-.2.2-.5.3-.8l.3-1-5.1-13zM25.9 77.1h2.2v-4H31v4h2.6v2.2H31v7.9c0 .2.1.4.2.6.1.2.2.3.4.3.2.1.4.1.8.1h.6c.2 0 .4 0 .6-.1v2.2c-.3 0-.6.1-.9.1-.3 0-.6.1-.9.1-.8 0-1.4-.1-1.9-.2s-.8-.4-1.1-.6c-.3-.3-.4-.6-.5-1.1-.1-.4-.1-.9-.2-1.5v-7.8h-2.2v-2.2zm15.9 13.6c-1.1 0-2-.2-2.8-.5-.8-.3-1.5-.8-2.1-1.4-.6-.6-1-1.3-1.3-2.2-.3-.9-.4-1.8-.4-2.8 0-1 .1-1.9.4-2.8.3-.9.7-1.6 1.3-2.2.6-.6 1.3-1.1 2.1-1.4.8-.3 1.8-.5 2.8-.5 1.1 0 2 .2 2.8.5.8.3 1.5.8 2.1 1.4.6.6 1 1.3 1.3 2.2.3.9.4 1.8.4 2.8 0 1-.1 2-.4 2.8-.3.9-.7 1.6-1.3 2.2-.6.6-1.3 1.1-2.1 1.4-.8.3-1.7.5-2.8.5zm0-2.3c.6 0 1.2-.1 1.7-.4.5-.3.9-.6 1.2-1.1.3-.4.5-.9.7-1.5.1-.6.2-1.1.2-1.7 0-.6-.1-1.1-.2-1.7-.1-.6-.4-1.1-.7-1.5-.3-.4-.7-.8-1.2-1.1-.5-.3-1-.4-1.7-.4-.6 0-1.2.1-1.7.4-.5.3-.9.6-1.2 1.1-.3.4-.5.9-.7 1.5-.1.6-.2 1.1-.2 1.7 0 .6.1 1.1.2 1.7.1.6.4 1.1.7 1.5.3.4.7.8 1.2 1.1.5.2 1.1.4 1.7.4zm16.6-16.3h3.2v18.2h-3.2V72.1zm6.7 5h2.7v2.6h.1c.1-.4.3-.7.5-1 .2-.3.5-.7.9-.9.3-.3.7-.5 1.2-.7.4-.2.9-.3 1.3-.3h.7c.1 0 .3 0 .4.1v2.8c-.2 0-.4-.1-.6-.1h-.6c-.5 0-1 .1-1.4.3-.4.2-.8.5-1.1.9-.3.4-.6.9-.8 1.4-.3.4-.4 1.1-.4 1.8v6.3h-2.9V77.1zm14.6 13.6c-1.1 0-2-.2-2.8-.5-.8-.3-1.5-.8-2.1-1.4-.6-.6-1-1.3-1.3-2.2-.3-.9-.4-1.8-.4-2.8 0-1 .1-1.9.4-2.8.3-.9.7-1.6 1.3-2.2.6-.6 1.3-1.1 2.1-1.4.8-.3 1.8-.5 2.8-.5 1.1 0 2 .2 2.8.5.8.3 1.5.8 2.1 1.4.6.6 1 1.3 1.3 2.2.3.9.4 1.8.4 2.8 0 1-.1 2-.4 2.8-.3.9-.7 1.6-1.3 2.2-.6.6-1.3 1.1-2.1 1.4-.8.3-1.7.5-2.8.5zm0-2.3c.6 0 1.2-.1 1.7-.4.5-.3.9-.6 1.2-1.1.3-.4.5-.9.7-1.5.1-.6.2-1.1.2-1.7 0-.6-.1-1.1-.2-1.7-.1-.6-.4-1.1-.7-1.5-.3-.4-.7-.8-1.2-1.1-.5-.3-1-.4-1.7-.4-.6 0-1.2.1-1.7.4-.5.3-.9.6-1.2 1.1-.3.4-.5.9-.7 1.5-.1.6-.2 1.1-.2 1.7 0 .6.1 1.1.2 1.7.1.6.4 1.1.7 1.5.3.4.7.8 1.2 1.1.5.2 1.1.4 1.7.4zm9.1-11.3h2.8V79l.1.1c.4-.7 1-1.3 1.7-1.7.7-.4 1.5-.6 2.4-.6 1.4 0 2.6.4 3.4 1.1.8.7 1.3 1.9 1.3 3.4v9.1h-2.9V82c0-1-.3-1.8-.7-2.3-.4-.5-1-.7-1.9-.7-.5 0-.9.1-1.3.3-.4.2-.7.4-1 .7-.3.3-.5.7-.6 1.1-.2.4-.2.9-.2 1.4v7.8H89V77.1z"/></svg>