<svg id="Layer_1" xmlns="http://www.w3.org/2000/svg" viewBox="0 0 128 128"><style>.st0{fill:#b2b3b5}.st1{fill:#FFF}</style><circle class="st0" cx="64" cy="64" r="64"/><path class="st1" d="M40.7 36.1h8.7c2 0 3.5.4 4.5 1.3s1.5 2.1 1.5 3.6c0 .9-.1 1.6-.4 2.2-.3.6-.6 1-.9 1.4-.3.3-.7.6-1 .8-.3.2-.6.3-.7.3v.1c.3 0 .6.1.9.3.3.1.6.4.9.7.3.3.5.7.7 1.2.2.5.3 1.1.3 1.8 0 1.1.1 2 .2 2.9.2.9.4 1.5.8 1.9h-3.4c-.2-.4-.4-.8-.4-1.3s-.1-.9-.1-1.4c0-.8-.1-1.6-.2-2.2-.1-.6-.3-1.1-.6-1.5-.3-.4-.6-.7-1.1-.9-.5-.2-1.1-.3-1.8-.3h-4.7v7.5h-3.2V36.1zm3.2 8.3h5.2c1 0 1.8-.2 2.3-.7.5-.5.8-1.2.8-2.2 0-.6-.1-1.1-.3-1.4-.2-.4-.4-.7-.7-.9-.3-.2-.6-.3-1-.4-.4-.1-.8-.1-1.2-.1h-5.2v5.7zM60.5 48.5c0 .5.1 1 .2 1.5s.4.9.7 1.3c.3.4.7.6 1.1.9.4.2 1 .3 1.6.3.9 0 1.5-.2 2.1-.5.5-.4.9-.9 1.2-1.6h2.8c-.2.7-.4 1.4-.8 1.9-.4.6-.8 1-1.4 1.4-.5.4-1.1.7-1.8.9-.7.2-1.3.3-2.1.3-1 0-2-.2-2.8-.5-.8-.3-1.5-.8-2-1.4-.6-.6-1-1.3-1.3-2.2-.3-.9-.4-1.8-.4-2.8 0-.9.1-1.8.4-2.7.3-.8.7-1.6 1.3-2.2.6-.6 1.2-1.1 2-1.5.8-.4 1.7-.6 2.7-.6 1 0 2 .2 2.8.7.8.4 1.5 1 2.1 1.7.5.7.9 1.5 1.2 2.5.2.9.3 1.9.2 2.9h-9.8zm6.8-2c0-.5-.1-.9-.3-1.3-.2-.4-.4-.8-.7-1.1-.3-.3-.6-.6-1-.8-.3-.2-.8-.3-1.3-.3s-1 .1-1.4.3c-.4.2-.8.4-1.1.7-.3.3-.5.7-.7 1.1-.2.4-.3.9-.3 1.4h6.8zM83.5 51.4c0 .4 0 .6.1.8.1.2.3.2.6.2h.3c.1 0 .3 0 .4-.1v2c-.1 0-.2.1-.4.1s-.3.1-.5.1-.3.1-.5.1h-.4c-.6 0-1.1-.1-1.5-.4-.4-.2-.6-.7-.8-1.3-.6.6-1.3 1-2.1 1.2-.8.3-1.7.4-2.4.4-.6 0-1.2-.1-1.7-.2-.5-.2-1-.4-1.4-.7s-.7-.7-1-1.2c-.2-.5-.4-1.1-.4-1.7 0-.8.1-1.5.4-2 .3-.5.7-.9 1.2-1.2.5-.3 1-.5 1.6-.6l1.8-.3c.5-.1 1-.2 1.5-.2s.9-.1 1.3-.2.7-.3.9-.5c.2-.2.3-.5.3-1 0-.4-.1-.7-.3-.9-.2-.2-.4-.4-.7-.5l-.9-.3c-.3 0-.6-.1-.9-.1-.8 0-1.5.2-2 .5s-.8.9-.9 1.6h-2.9c.1-.9.3-1.6.6-2.1.4-.6.8-1 1.4-1.4.6-.3 1.2-.6 1.9-.7.7-.1 1.4-.2 2.1-.2.6 0 1.3.1 1.9.2.6.1 1.2.4 1.7.7.5.3.9.7 1.2 1.2.3.5.5 1.1.5 1.8v6.9zm-2.9-3.7c-.4.3-1 .5-1.6.5-.6.1-1.3.1-1.9.3-.3.1-.6.1-.9.2-.3.1-.5.2-.8.4s-.4.4-.5.6c-.1.3-.2.6-.2 1 0 .3.1.6.3.8.2.2.4.4.7.5l.9.3c.3.1.6.1.9.1.3 0 .7 0 1-.1.4-.1.7-.2 1.1-.4.3-.2.6-.5.8-.8.2-.3.3-.7.3-1.2v-2.2zM86.7 36.1h2.9v18.2h-2.9V36.1zM22.2 68.6h3.2v15.5h9.3v2.8H22.2V68.6zM38.8 81c0 .5.1 1 .2 1.5s.4.9.7 1.3c.3.4.7.6 1.1.9.4.2 1 .3 1.6.3.9 0 1.5-.2 2.1-.5.5-.4.9-.9 1.2-1.6h2.8c-.2.7-.4 1.4-.8 1.9-.4.6-.8 1-1.4 1.4-.5.4-1.1.7-1.8.9-.7.2-1.3.3-2.1.3-1 0-2-.2-2.8-.5-.8-.3-1.5-.8-2-1.4-.6-.6-1-1.3-1.3-2.2-.3-.9-.4-1.8-.4-2.8 0-.9.1-1.8.4-2.7.3-.8.7-1.6 1.3-2.2.6-.6 1.2-1.1 2-1.5.8-.4 1.7-.6 2.7-.6 1 0 2 .2 2.8.7.8.4 1.5 1 2.1 1.7.5.7.9 1.5 1.2 2.5.2.9.3 1.9.2 2.9h-9.8zm6.8-1.9c0-.5-.1-.9-.3-1.3-.2-.4-.4-.8-.7-1.1-.3-.3-.6-.6-1-.8-.4-.2-.8-.3-1.3-.3s-1 .1-1.4.3c-.4.2-.8.4-1.1.7-.3.3-.5.7-.7 1.1-.2.4-.3.9-.3 1.4h6.8zM61.8 83.9c0 .4 0 .6.1.8.1.2.3.2.5.2h.3c.1 0 .3 0 .4-.1v2c-.1 0-.2.1-.4.1s-.3.1-.5.1-.3.1-.5.1h-.4c-.6 0-1.1-.1-1.5-.4-.4-.2-.6-.7-.8-1.3-.6.6-1.3 1-2.1 1.2-.8.3-1.7.4-2.4.4-.6 0-1.2-.1-1.7-.2-.5-.2-1-.4-1.4-.7-.4-.3-.7-.7-1-1.2-.3-.4-.4-.9-.4-1.6 0-.8.1-1.5.4-2 .3-.5.7-.9 1.2-1.2.5-.3 1-.5 1.6-.6l1.8-.3c.5-.1 1-.2 1.5-.2s.9-.1 1.3-.2.7-.3.9-.5c.2-.2.3-.5.3-1 0-.4-.1-.7-.3-.9-.2-.2-.4-.4-.7-.5l-.9-.3c-.3 0-.6-.1-.9-.1-.8 0-1.5.2-2 .5s-.8.9-.9 1.6h-2.9c.1-.9.3-1.6.6-2.1.4-.6.8-1 1.4-1.4.6-.3 1.2-.6 1.9-.7.7-.1 1.4-.2 2.1-.2.6 0 1.3.1 1.9.2.6.1 1.2.4 1.7.7.5.3.9.7 1.2 1.2.3.5.5 1.1.5 1.8v6.8zm-2.9-3.7c-.4.3-1 .5-1.6.5-.6.1-1.3.1-1.9.3-.3.1-.6.1-.9.2-.3.1-.5.2-.8.4s-.4.4-.5.6c-.1.3-.2.6-.2 1 0 .3.1.6.3.8.2.2.4.4.7.5l.9.3c.3.1.6.1.9.1.3 0 .7 0 1-.1.4-.1.7-.2 1.1-.4.3-.2.6-.5.8-.8.2-.3.3-.7.3-1.2v-2.2zM63.6 73.6h2.2v-4h2.9v4h2.6v2.2h-2.6V83.7c0 .2.1.4.2.6.1.2.2.3.4.3.2.1.4.1.8.1h.6c.2 0 .4 0 .6-.1v2.2c-.3 0-.6.1-.9.1-.3 0-.6.1-.9.1-.8 0-1.4-.1-1.9-.2s-.8-.4-1.1-.6-.5-.7-.6-1.2c-.1-.4-.1-.9-.2-1.5v-7.8h-2.2v-2.1zM73.4 68.6h2.9v6.8h.1c.4-.6.9-1.1 1.6-1.5.7-.4 1.5-.6 2.4-.6 1.4 0 2.6.4 3.4 1.1.8.7 1.3 1.9 1.3 3.4v9.1h-2.9v-8.3c0-1-.3-1.8-.7-2.3-.4-.5-1-.7-1.9-.7-.5 0-.9.1-1.3.3-.4.2-.7.4-1 .7-.3.3-.5.7-.6 1.1-.2.4-.2.9-.2 1.4v7.8h-2.9V68.6zM90.3 81c0 .5.1 1 .2 1.5s.4.9.7 1.3c.3.4.7.6 1.1.9.4.2 1 .3 1.6.3.9 0 1.5-.2 2.1-.5.5-.4.9-.9 1.2-1.6h2.8c-.2.7-.4 1.4-.8 1.9-.4.6-.8 1-1.4 1.4-.5.4-1.1.7-1.8.9-.7.2-1.3.3-2.1.3-1 0-2-.2-2.8-.5s-1.5-.8-2-1.4c-.6-.6-1-1.3-1.3-2.2-.3-.9-.4-1.8-.4-2.8 0-.9.1-1.8.4-2.7.3-.8.7-1.6 1.3-2.2.6-.6 1.2-1.1 2-1.5.8-.4 1.7-.6 2.7-.6 1 0 2 .2 2.8.7.8.4 1.5 1 2.1 1.7.5.7.9 1.5 1.2 2.5.2.9.3 1.9.2 2.9h-9.8zm6.8-1.9c0-.5-.1-.9-.3-1.3-.2-.4-.4-.8-.7-1.1-.3-.3-.6-.6-1-.8-.4-.2-.8-.3-1.3-.3s-1 .1-1.4.3c-.4.2-.8.4-1.1.7-.3.3-.5.7-.7 1.1-.2.4-.3.9-.3 1.4h6.8zM102.3 73.6h2.7v2.6h.1c.1-.4.3-.7.5-1 .2-.3.5-.7.9-.9.3-.3.7-.5 1.2-.7.4-.2.9-.3 1.3-.3h.7c.1 0 .3 0 .4.1v2.8c-.2 0-.4-.1-.6-.1h-.6c-.5 0-1 .1-1.4.3-.4.2-.8.5-1.1.9-.3.4-.6.9-.8 1.4-.2.6-.3 1.2-.3 1.9v6.3h-2.9V73.6z"/></svg>