<svg id="Layer_1" xmlns="http://www.w3.org/2000/svg" viewBox="0 0 128 128"><style>.st0{fill:#b2b3b5}.st1{fill:#FFF}</style><circle class="st0" cx="64" cy="64" r="64"/><path class="st1" d="M43.5 45.4c-.1-.5-.3-1-.6-1.5-.2-.4-.5-.8-.9-1.1-.4-.3-.8-.6-1.3-.8-.5-.2-1.1-.3-1.7-.3-1 0-1.8.2-2.5.6-.7.4-1.3.9-1.7 1.6-.4.7-.8 1.4-1 2.2-.2.8-.3 1.7-.3 2.6 0 .9.1 1.7.3 2.6.2.8.5 1.6 1 2.2.4.7 1 1.2 1.7 1.6.7.4 1.5.6 2.5.6.7 0 1.3-.1 1.9-.4.5-.2 1-.6 1.4-1 .4-.4.7-.9.9-1.5.2-.6.4-1.2.4-1.9h3.1c-.1 1.1-.3 2.1-.7 3-.4.9-.9 1.7-1.6 2.3-.7.7-1.5 1.2-2.4 1.5-.9.4-1.9.5-3 .5-1.4 0-2.6-.3-3.7-.8s-2-1.2-2.7-2.1c-.7-.9-1.3-1.9-1.7-3-.4-1.2-.6-2.4-.6-3.7 0-1.3.2-2.5.6-3.7.4-1.2 1-2.2 1.7-3 .7-.9 1.7-1.6 2.7-2.1 1.1-.5 2.3-.8 3.7-.8 1 0 2 .1 2.9.4.9.3 1.7.7 2.4 1.2s1.2 1.2 1.7 2c.4.8.7 1.6.8 2.6h-3.3zM60.3 54.9c0 .4 0 .6.1.8.1.2.3.2.5.2h.3c.1 0 .3 0 .4-.1v2c-.1 0-.2.1-.4.1 0 .1-.2.1-.4.1s-.3.1-.5.1h-.4c-.6 0-1.1-.1-1.5-.4-.4-.2-.6-.7-.8-1.3-.6.6-1.3 1-2.1 1.2-.8.3-1.7.4-2.4.4-.6 0-1.2-.1-1.7-.2-.5-.2-1-.4-1.4-.7-.4-.3-.7-.7-1-1.2-.2-.5-.4-1.1-.4-1.7 0-.8.1-1.5.4-2 .3-.5.7-.9 1.2-1.2.5-.3 1-.5 1.6-.6l1.8-.3c.5-.1 1-.2 1.5-.2s.9-.1 1.3-.2.7-.3.9-.5c.2-.2.3-.5.3-1 0-.4-.1-.7-.3-.9-.2-.2-.4-.4-.7-.5l-.9-.3c-.3 0-.6-.1-.9-.1-.8 0-1.5.2-2 .5s-.8.9-.9 1.6H49c.1-.9.3-1.6.6-2.1.4-.6.8-1 1.4-1.4.6-.3 1.2-.6 1.9-.7.7-.1 1.4-.2 2.1-.2.6 0 1.3.1 1.9.2.6.1 1.2.4 1.7.7.5.3.9.7 1.2 1.2.3.5.5 1.1.5 1.8v6.9zm-2.9-3.7c-.4.3-1 .5-1.6.5-.6.1-1.3.1-1.9.3-.3.1-.6.1-.9.2-.3.1-.5.2-.8.4-.2.2-.4.4-.5.6-.1.3-.2.6-.2 1 0 .3.1.6.3.8.2.2.4.4.7.5l.9.3c.3.1.6.1.9.1.3 0 .7 0 1-.1.4-.1.7-.2 1.1-.4.3-.2.6-.5.8-.8.2-.3.3-.7.3-1.2v-2.2zM63.5 39.6h2.9v6.7h.1c.2-.3.5-.6.7-.9.3-.3.6-.5 1-.7.3-.2.7-.3 1.1-.4.4-.1.8-.1 1.1-.1 1 0 1.9.2 2.7.5.8.4 1.4.9 1.9 1.5s.9 1.4 1.1 2.2c.3.9.4 1.8.4 2.7 0 .9-.1 1.7-.3 2.6-.2.8-.6 1.6-1 2.2-.5.6-1.1 1.1-1.8 1.5-.7.4-1.6.6-2.5.6-.4 0-.9 0-1.3-.1-.5-.1-.9-.2-1.3-.3-.4-.2-.8-.4-1.1-.7-.3-.3-.6-.6-.8-1.1h-.1v1.8h-2.8v-18zm10.2 11.6c0-.6-.1-1.2-.2-1.7-.2-.6-.4-1.1-.7-1.5-.3-.4-.7-.8-1.1-1-.5-.3-1-.4-1.6-.4-1.2 0-2.1.4-2.8 1.3-.6.9-.9 2-.9 3.4 0 .7.1 1.3.2 1.9.2.6.4 1.1.7 1.5.3.4.7.7 1.2 1 .5.2 1 .4 1.6.4.7 0 1.2-.1 1.7-.4.5-.3.8-.6 1.1-1.1.3-.4.5-.9.6-1.5.1-.8.2-1.3.2-1.9zM79.2 39.6h2.9v2.8h-2.9v-2.8zm0 5h2.9v13.2h-2.9V44.6zM85.2 44.6H88v1.9l.1.1c.4-.7 1-1.3 1.7-1.7.7-.4 1.5-.6 2.4-.6 1.4 0 2.6.4 3.4 1.1.8.7 1.3 1.9 1.3 3.4v9.1H94v-8.3c0-1-.3-1.8-.7-2.3-.4-.5-1-.7-1.9-.7-.5 0-.9.1-1.3.3-.4.2-.7.4-1 .7-.3.3-.5.7-.6 1.1-.2.4-.2.9-.2 1.4v7.8h-2.9V44.6zM48 77.9c-.1-.5-.3-1-.6-1.5-.2-.4-.5-.8-.9-1.1-.4-.3-.8-.6-1.3-.8-.5-.2-1.1-.3-1.7-.3-1 0-1.8.2-2.5.6-.7.4-1.3.9-1.7 1.6-.4.7-.8 1.4-1 2.2-.2.8-.3 1.7-.3 2.6 0 .9.1 1.7.3 2.6.2.8.5 1.6 1 2.2.4.7 1 1.2 1.7 1.6.7.4 1.5.6 2.5.6.7 0 1.3-.1 1.9-.4.5-.2 1-.6 1.4-1 .4-.4.7-.9.9-1.5.2-.6.4-1.2.4-1.9h3.1c-.1 1.1-.3 2.1-.7 3-.4.9-.9 1.7-1.6 2.3-.7.7-1.5 1.2-2.4 1.5-.9.4-1.9.5-3 .5-1.4 0-2.6-.3-3.7-.8s-2-1.2-2.7-2.1c-.7-.9-1.3-1.9-1.7-3-.4-1.2-.6-2.4-.6-3.7 0-1.3.2-2.5.6-3.7.4-1.2 1-2.2 1.7-3 .7-.9 1.7-1.6 2.7-2.1 1.1-.5 2.3-.8 3.7-.8 1 0 2 .1 2.9.4.9.3 1.7.7 2.4 1.2s1.2 1.2 1.7 2c.4.8.7 1.6.8 2.6H48zM64.8 87.4c0 .4 0 .6.1.8.1.2.3.2.5.2h.3c.1 0 .3 0 .4-.1v2c-.1 0-.2.1-.4.1s-.3.1-.5.1-.3.1-.5.1h-.4c-.6 0-1.1-.1-1.5-.4-.4-.2-.6-.7-.8-1.3-.6.6-1.3 1-2.1 1.2-.8.3-1.7.4-2.4.4-.6 0-1.2-.1-1.7-.2-.5-.2-1-.4-1.4-.7-.4-.3-.7-.7-1-1.2-.2-.4-.4-.9-.4-1.6 0-.8.1-1.5.4-2 .3-.5.7-.9 1.2-1.2.5-.3 1-.5 1.6-.6l1.8-.3c.5-.1 1-.2 1.5-.2s.9-.1 1.3-.2.7-.3.9-.5c.2-.2.3-.5.3-1 0-.4-.1-.7-.3-.9-.2-.2-.4-.4-.7-.5l-.9-.3c-.3 0-.6-.1-.9-.1-.8 0-1.5.2-2 .5s-.8.9-.9 1.6h-2.9c.1-.9.3-1.6.6-2.1.4-.6.8-1 1.4-1.4.6-.3 1.2-.6 1.9-.7.7-.1 1.4-.2 2.1-.2.6 0 1.3.1 1.9.2.6.1 1.2.4 1.7.7.5.3.9.7 1.2 1.2.3.5.5 1.1.5 1.8v6.8zm-2.9-3.7c-.4.3-1 .5-1.6.5-.6.1-1.3.1-1.9.3-.3.1-.6.1-.9.2-.3.1-.5.2-.8.4-.2.2-.4.4-.5.6-.1.3-.2.6-.2 1 0 .3.1.6.3.8.2.2.4.4.7.5l.9.3c.3.1.6.1.9.1.3 0 .7 0 1-.1.4-.1.7-.2 1.1-.4.3-.2.6-.5.8-.8.2-.3.3-.7.3-1.2v-2.2zM70.1 86.1c.1.9.4 1.4 1 1.8.6.3 1.2.5 2 .5.3 0 .6 0 .9-.1.3 0 .7-.1 1-.2.3-.1.6-.3.8-.5.2-.2.3-.5.3-.9s-.2-.7-.4-.9c-.3-.2-.6-.4-1-.6-.4-.1-.9-.3-1.4-.4-.5-.1-1-.2-1.6-.3-.5-.1-1.1-.3-1.6-.4s-1-.4-1.4-.7c-.4-.3-.7-.7-1-1.1-.2-.5-.4-1-.4-1.7s.2-1.3.5-1.8.8-.9 1.3-1.2c.5-.3 1.1-.5 1.8-.6.7-.1 1.3-.2 1.9-.2.7 0 1.3.1 2 .2.6.1 1.2.4 1.7.7.5.3.9.7 1.3 1.3.3.5.5 1.1.6 1.9h-3c-.1-.7-.5-1.2-1-1.4-.5-.2-1.1-.4-1.7-.4-.2 0-.4 0-.7.1-.3 0-.5.1-.8.2-.2.1-.5.2-.6.4-.2.2-.3.4-.3.7 0 .4.1.6.4.9.2.2.6.4 1 .5.4.1.9.3 1.4.4.5.1 1 .2 1.6.3.5.1 1 .3 1.6.4.5.2 1 .4 1.4.7.4.3.7.7 1 1.1.2.4.4 1 .4 1.6 0 .8-.2 1.4-.5 2-.4.5-.8 1-1.4 1.3-.6.3-1.2.6-1.9.7-.7.2-1.4.2-2.1.2-.8 0-1.6-.1-2.3-.3-.7-.2-1.3-.5-1.8-.9s-.9-.9-1.2-1.4c-.3-.6-.5-1.2-.5-2h2.7zM83.5 84.5c0 .5.1 1 .2 1.5s.4.9.7 1.3c.3.4.7.6 1.1.9.4.2 1 .3 1.6.3.9 0 1.5-.2 2.1-.5.5-.4.9-.9 1.2-1.6H93c-.2.7-.4 1.4-.8 1.9-.4.6-.8 1-1.4 1.4-.5.4-1.1.7-1.8.9-.7.2-1.3.3-2.1.3-1 0-2-.2-2.8-.5-.8-.3-1.5-.8-2-1.4-.6-.6-1-1.3-1.3-2.2-.3-.9-.4-1.8-.4-2.8 0-.9.1-1.8.4-2.7.3-.8.7-1.6 1.3-2.2.6-.6 1.2-1.1 2-1.5.8-.4 1.7-.6 2.7-.6 1 0 2 .2 2.8.7.8.4 1.5 1 2.1 1.7.5.7.9 1.5 1.2 2.5.2.9.3 1.9.2 2.9h-9.6zm6.8-2c0-.5-.1-.9-.3-1.3-.2-.4-.4-.8-.7-1.1-.3-.3-.6-.6-1-.8-.4-.2-.9-.3-1.3-.3-.5 0-1 .1-1.4.3-.4.2-.8.4-1.1.7-.3.3-.5.7-.7 1.1-.2.4-.3.9-.3 1.4h6.8z"/></svg>