<svg id="Layer_1" xmlns="http://www.w3.org/2000/svg" viewBox="0 0 128 128"><style>.st0{fill:#001522}.st1{fill:#ec1c24}.st2{fill:#FFF}</style><path class="st0" d="M55 .1c-.4 0-.7 0-1.1-.1-.9 12.2.6 22.3 7 25.3h.2c.2 0 .4-.1.5-.3.1-.3 0-.6-.3-.7-5.8-2.7-7.2-12.4-6.3-24.2z"/><path class="st1" d="M111 123.4c.4 0 9.9-.7 9.4-10.5l-4.6-88.3c0-.4-.7-9.9-10.5-9.4L17 19.8c-.4 0-9.9.7-9.4 10.5l4.6 88.3c0 .4.7 9.9 10.5 9.4l88.3-4.6zM67.7 29.6c.2 3.3-2.4 6.1-5.6 6.2-3.3.2-6.1-2.3-6.2-5.6-.2-3.3 2.3-6.1 5.6-6.2 3.3-.2 6.1 2.3 6.2 5.6"/><g><path class="st0" d="M62.4.1c3.3 11.3 4 20.8-1 24.1-.3.2-.4.6-.2.9.1.2.3.3.5.3.1 0 .2 0 .3-.1 5.5-3.6 4.9-13.6 1.6-25.2h-1.2z"/><path class="st2" d="M32 65c-1.7-6.6-3.6-13.3-6-20.8l-2 .1c-1.4 6.8-2.8 14.8-3.7 21.3l1.6-.1c.2-1.6.4-3.2.7-4.8l6.4-.3c.5 1.7.8 3.2 1.2 4.7L32 65zm-3.3-6.2l-5.9.3c.6-4.4 1.4-9.1 2.1-13 1.3 4.3 2.6 8.6 3.8 12.7m11.6 1.6c-.1-2.1-1.1-3.3-3.3-4.2-2.2-.9-2.8-1.7-2.9-3.1-.1-1.3.7-2.5 2.3-2.6.7 0 1.5.1 2.2.4l.2-1.1c-.9-.4-1.8-.6-2.7-.5-2.2.1-3.7 2-3.5 4.2.1 2 .9 3 3.3 4.1 2.2.9 2.7 1.7 2.8 3.3.1 1.4-.7 2.6-2.7 2.7-.8 0-1.6-.1-2.8-.4l-.2 1.1c1 .5 2.3.7 3.3.7 2.7-.3 4.2-2.1 4-4.6m13.6-.7c-.1-2.1-1.1-3.3-3.3-4.2-2.2-.9-2.8-1.7-2.9-3.1-.1-1.3.7-2.5 2.3-2.6.7 0 1.5.1 2.2.4l.2-1.1c-.9-.4-1.8-.6-2.7-.5-2.2.1-3.7 2-3.5 4.2.1 2 .9 3 3.3 4.1 2.2.9 2.7 1.7 2.8 3.3.1 1.4-.7 2.6-2.7 2.7-.8 0-1.6-.1-2.8-.5l-.2 1.1c.9.4 2.3.7 3.3.7 2.6-.2 4.1-2 4-4.5M64 55.6c0-5.6-1.7-7.9-4.4-7.7-3 .2-4.4 3.3-4.2 8.6.3 5.4 2.2 7.4 4.9 7.2 1.5-.1 2.9-.7 4-1.5l-.3-1.1c-1.2.7-2.2 1-3.3 1.1-2.1.1-3.5-1.6-3.7-5.9V56l7-.4zm-1.6-1.1l-5.4.3c0-2.9.8-5.5 2.6-5.6 1.7-.1 2.7 2 2.8 5.3zm12 .6c0-5.6-1.7-7.9-4.4-7.7-3 .2-4.4 3.3-4.2 8.6.3 5.4 2.2 7.4 4.9 7.2 1.5-.1 2.9-.7 4-1.5l-.4-1.1c-1.2.7-2.2 1-3.3 1.1-2.1.1-3.5-1.6-3.7-5.9v-.3l7.1-.4zm-1.6-1.2l-5.5.3c0-2.9.8-5.5 2.6-5.6 1.8-.1 2.7 2 2.9 5.3zm12.3-.6c-.3-5-1.8-6.7-3.8-6.5-1.4.1-2.8 1.2-3.7 2.2l-.2-1.8-1.3.1.8 15.4 1.5-.1-.6-12.1c1-1.2 2.1-2.1 3-2.2 1.6-.1 2.5 1.6 2.7 5.7.1 2.3.2 5.7.4 8.3l1.5-.1c0-2.9-.1-6.7-.3-8.9m7.3-11.5c-.1-1-.2-1.1-1-1-.9 0-1 .2-1 1.1 0 .9.2 1.1 1.1 1 .8 0 .9-.2.9-1.1m.8 19.9l-.8-15.4-1.5.1v.7l.8 14.7 1.5-.1zm11.5-9.4c-.3-5-1.8-6.7-3.8-6.5-1.4.1-2.8 1.2-3.7 2.2l-.2-1.9-1.3.1.8 15.4 1.5-.1-.6-12.1c1-1.2 2.1-2.1 3-2.2 1.6-.1 2.5 1.6 2.7 5.7.1 2.3.2 5.7.4 8.3l1.5-.1c-.1-2.9-.2-6.6-.3-8.8M113.6 104.4l-8.5-20.2 2.9-5.4c1.8-3.3 2.7-3.8 5.4-4.3l-.1-2.5-10.2.5.1 2.5c.7 0 1.2.1 1.7.2 0 0 .4.1.5.1.4.1.6.3.7.6 0 0 0 .1.1.1.2.4.2 1-.2 1.8-.1.4-.3.7-.6 1.1l-7 11.8h-.1l-.8-15.1 2.1-.5-.1-2.5-10.7.6.1 2.5 2.2.2 1.5 29.5-2.1.5.1 2.5 10.7-.6-.1-2.5-2.2-.2-.5-10 2.4-4.3h.1l5.6 13.9-2.1.5.1 2.5 11.1-.6-.1-2.5-2-.2zM90.1 90.9c-.6-11.6-7.8-18-14-17.7-6.3.3-12.7 7.5-12.1 19 .6 11.6 7.8 18 14 17.7 6.3-.3 12.7-7.5 12.1-19m-6.9.3c.5 9-.4 15.3-5.4 15.5-4.9.3-6.5-5.8-6.9-14.9-.5-9 .4-15.3 5.4-15.5 4.9-.2 6.4 5.9 6.9 14.9m-20.7 1.1c-.6-11.6-7.8-18-14-17.7-6.3.3-12.7 7.5-12.1 19 .6 11.6 7.8 18 14 17.7 6.3-.3 12.7-7.4 12.1-19m-6.9.4c.5 9-.4 15.3-5.4 15.5-4.9.3-6.5-5.8-6.9-14.9-.5-9 .4-15.3 5.4-15.5 4.9-.3 6.4 5.8 6.9 14.9M37 102.1l-1.7-.6c-1.6 4.1-2.7 7.2-7.6 7.5-1 0-1.7 0-2.2-.1L24 79.6l2.1-.5-.1-2.5-10.7.6.1 2.5 2.2.2 1.5 29.5-2.1.5.1 2.5 13.1-.7c2.1-.1 3.5-.2 5.7-.3l1.1-9.3z"/></g></svg>