<svg id="Layer_1" xmlns="http://www.w3.org/2000/svg" viewBox="0 0 128 128"><style>.st0{fill:#fff}.st0,.st1{fill-rule:evenodd;clip-rule:evenodd}</style><path class="st0" d="M0 25.7h128v76.6H0z"/><path class="st1" d="M37.9 69c0-.7.1-1.3.1-2 .8-.8 2.7-.3 3.5.2.6.4 1.2 1 1.3 1.9.1 1-.2 2-.4 2.8-.5 1.8-.9 3.2-1.3 5.1-.1.4-.2.9-.2 1.4-.1.5-.1 1.2.2 1.3.3.1.7-.1 1-.3.8-.5 1.4-1.1 2-1.7.2-4.7 1.1-8.5 2.6-12 .7-1.7 1.6-3.3 2.7-4.6.5-.7 1.1-1.3 1.9-1.7.7-.4 2-.7 2.9-.2 1 .6 1.2 2.1.7 3.3-.4 1.2-1 2.2-1.5 3.1-1.2 1.9-2.4 3.7-3.7 5.5-.3 2.3-.6 4.5-.6 7.2 0 .6 0 2 .4 2.1.5.2 1.3-.6 1.5-.9.4-.5.7-1 1-1.5.5-1 1.1-2.7.7-4.1-.2-.6-.8-.9-1.5-1.1-.3-1.1.1-2.2.6-2.9.5-.7 1.3-1.3 2.3-1.4 2.2-.2 3.1 1.3 3.1 3.4 0 1.3-.2 2.6-.5 3.7-.6 2.1-1.6 3.9-2.8 5.5-1.2 1.5-2.7 3-4.9 3.4-2.7.4-4.3-1.1-4.7-3.4-.4.3-.7.6-1.1.9-.4.3-.7.6-1.1.9-.8.6-1.6 1.2-2.7 1.4-1.1.2-2-.3-2.4-1-.4-.8-.4-1.9-.2-3-.5 1.4-1.2 2.7-2.4 3.5-1.5 1-3.3.2-4-.9-.8-1.2-1-3-.8-4.9.2-1.7.8-3.1 1.5-4.3-.5.6-1.4 1-2.4 1.2-1.1.1-2.2 0-3.2-.2-.9 3.8-1.6 7.6-3.4 10.5-.9 1.4-2 2.6-3.6 3.4-1.5.8-3.9 1.1-5.8.4-1.7-.7-2.7-2.1-2.8-4.2-.1-2.2 1-3.7 2.1-4.9 2.2-2.5 4.9-4.4 7.7-6.2-.1-.2-.3-.3-.4-.5-.4-.5-.7-1.4-.3-2.2.3-.6 1-.9 2-1 .5-2 1.3-3.7 2.2-5.3-2.2-.7-4.4-1.4-7.2-1.6-1.1 0-2 0-2.6.5-1 .8-1 2.6-.3 3.8.6 1.1 1.7 1.8 2.7 2.4 0 1.9-2.2 2.8-4 2.1-1.4-.6-2.4-2-2.9-3.7-.5-1.9 0-4 .7-5.4.8-1.5 1.9-2.5 3.4-3.1 1.6-.7 3.8-.7 5.8-.5 1.9.2 3.8.6 5.6.9 3.8.6 7.4 1.3 11.8 1.3.2.4.4.8.4 1.3 0 2-1.6 3.1-3.3 3.4-1.9.4-4.2-.1-5.9-.4-.6 1.5-.9 3.3-1.2 5 1.3.3 2.9.2 4.2-.1.2 0 .6-.2.8-.2.3 0 .6.7.6 1.1.1.6-.1 1.3-.2 1.6.9-1.3 2.2-2.8 3.9-3.6.5-.6 1.7-.9 2.4-.5zm-3.5 7.8c-.1.7-.2 2.1.3 2.4.7.4 1.7-.4 1.9-.8.2-.5.2-1.2.3-1.8.3-1.7.6-3.8.8-5.3-1.6 1.1-2.9 3.1-3.3 5.5zm-19.5 4.8c-.4.6-.8 1.2-.8 2-.1.9.1 1.7.7 2 .2.1.5.2.8.1.6-.1 1.1-1 1.4-1.6 1-2 1.5-4.7 2-7.1-1.4 1.5-3.1 3-4.1 4.6zm74-11.8c.1 0 .2-.1.3-.2.4-.3 1.2-.4 1.7 0 1 .6 1.4 2.3 1.3 3.9-.1 1.7-.6 3.1-1 4.2.7.6 1.7 0 2.2-.4.6-.5 1-1.1 1.4-1.6-.6-2.3.6-3.9 1.7-5.1.5-.6 1.2-1.2 1.9-1.7.7-.4 1.8-.9 2.8-.5 1 .4.8 1.7.4 2.7-.4 1.2-.9 2.1-1.5 3.1-.3.5-.6 1-.9 1.4-.2.4-.2.9-.3 1.4-.1.6-.5 2.2.3 2.3.6.1 1.1-.3 1.5-.6.4-.3 1-.6 1.1-1l.6-2.1c.6-2 1.1-4.5 1.2-6.9.8-1.1 2.8-.6 3.7 0 .4.3.9.8 1.1 1.5.2.7 0 1.5-.2 2.2-.6 2-1.4 3.5-2.1 5.4l-.3.9c-.1.4-.2.9.1 1.1.4.2.8-.1 1.1-.3.6-.4 1-.8 1.5-1.3.2-.2.6-.5.7-.8.1-.2 0-.3.1-.5.2-1 .6-2.2 1.4-2.7.3-.2.8-.2 1.1 0 .7.3 1.3 1.1 1.5 1.9.3 1-.3 1.7-.8 2.4.2 1 .9 2.3 2 2.5 1.2.2 1-1.2.7-2-.4-1.5-.9-2.8-1.3-4.2-.3-1-.6-2-.5-3.1.2-2 1.5-3.4 3.2-4 .8-.3 2-.5 3.2-.3 1 .2 1.8.7 2.1 1.6.3 1 .1 2.1-.6 2.7-.5-.3-2.4-.8-2.8 0-.2.4 0 1.1.2 1.6.4 1.4 1.1 2.7 1.5 4.1.9 3.7-1.1 6.1-3.8 7-.9.3-2.1.5-3.3.3-2.1-.3-3.4-1.5-3.9-3.6-.4.2-.7.6-1 .9-1 .8-2.2 1.7-3.6 2.1-1.1.3-2.4.1-2.9-.6-.5-.8-.4-2.1-.2-3.2-1 1.6-2.2 3.5-4.2 4.3-1.2.5-2.6.2-3.1-.7-.6-.8-.5-2.3-.3-3.6-.8.6-2.8 1.3-4.1.5-1.1 1.4-2.4 2.9-4.6 3.3-2.5.5-4.5-.5-5.2-2.4-1 .8-2.2 1.7-3.6 2.3-1.5.6-3.7.7-4.4-.7-.2-.5-.3-1.2-.2-2-.1 0-.2.1-.3.2-.8.7-1.7 1.4-2.7 1.9-1 .5-3 1.2-4.1.2-.7-.7-.6-2.3-.4-3.5-.6 1.1-1.4 2.3-2.4 3.2-1 .8-2.5 1.8-4.1 1-1.9-.9-1.1-4.4-.6-6.2.2-.5.3-1 .5-1.5.1-.2.2-.3.2-.5s-.2-.5-.2-.7c-.7-1.7.3-3.3 1.3-4.5.5-.6 1.3-1.3 2-1.8s1.8-1 3-.7c1.1.4.8 1.9.4 3-.6 1.5-1.5 3-2.2 4.3-.2.5-.2.9-.3 1.5-.1.7-.4 1.9.2 2.1.6.2 1.2-.3 1.5-.6.4-.3.9-.6 1.1-1 .2-.3.2-.7.3-1 .5-1.7 1-3.5 1.2-5.5.1-.8.1-1.6.2-2.4.1-.4.9-.7 1.3-.7.6 0 1.3.1 1.7.3.8.4 1.6 1.2 1.8 2.2.1.9-.2 1.7-.5 2.5-.7 1.9-1.5 3.5-2.1 5.4-.2.5-.4 1.2.1 1.4.4.1 1-.2 1.2-.4.7-.5 1.2-1 1.7-1.6.2-.2.7-.7.8-.9.8-3.2 1.4-7 2-10.7.3-1.8.8-3.4 1.7-4.7.8-1.3 2.1-2.5 3.8-2.6 1.5-.1 2.3.5 2.6 1.6.3 1.2-.1 2.5-.5 3.4-.7 1.7-1.5 3.3-2.3 4.9-.1.2-.3.4-.4.7-.2.4-.2.9-.3 1.3-.7 2.6-1.5 5.2-2.1 7.9-.1.5-.3 1.3.1 1.4.5.2 1.1-.3 1.4-.5.4-.3.7-.6 1-.9.2-3.1 1.2-5.5 2.7-7.5.7-.9 1.6-1.8 2.7-2.4 1.4-.7 3.9-.9 4.1.9zm-.8 1.2c-1.4.7-2.4 2.1-3.1 3.8-.3.8-.6 1.7-.7 2.8-.1 1.1 0 2.3.8 2.6.9.3 1.6-.4 2-1 .2-.3.7-1 .7-1.3 0-.2-.1-.5-.2-.8-.3-2.1-.1-4.6.5-6.1z"/><path d="M39.1 56.9h-1.4l-.9-4.9h-2.9l-.9 4.9h-1.4l3-15.9h1.5l3 15.9zm-2.6-6.8l-.6-3.8c-.2-.9-.3-2.1-.5-3.6-.2 1.4-.3 2.6-.5 3.6l-.6 3.8h2.2zm4.6 1.9c.1 2.3.7 3.3 1.9 3.3 1.1 0 1.8-1 1.8-2.5 0-1.4-.5-2.3-1.4-2.8l-1.2-.7c-1.5-.8-2.3-2.3-2.3-4.3 0-2.6 1.2-4.4 3.1-4.4 1.9 0 3 1.8 3.1 4.8h-1.5c-.1-2-.7-2.9-1.7-2.9-.9 0-1.6.9-1.6 2.2 0 1.3.4 1.9 1.3 2.5l1.3.8c1.5.9 2.3 2.4 2.3 4.6 0 2.8-1.2 4.7-3.3 4.7-2.1 0-3.2-1.8-3.3-5.2h1.5zm11.7 0c.1 2.3.7 3.3 1.9 3.3 1.1 0 1.8-1 1.8-2.5 0-1.4-.5-2.3-1.4-2.8l-1.2-.7c-1.5-.8-2.3-2.3-2.3-4.3 0-2.6 1.2-4.4 3.1-4.4 1.9 0 3 1.8 3.1 4.8h-1.5c-.1-2-.7-2.9-1.7-2.9-.9 0-1.6.9-1.6 2.2 0 1.3.4 1.9 1.3 2.5l1.3.8c1.5.9 2.3 2.4 2.3 4.6 0 2.8-1.2 4.7-3.3 4.7-2.1 0-3.2-1.8-3.3-5.2h1.5zm6.8-11.1h5.3v1.9H61v4.7h3.9v1.9H61v5.5h3.9v1.9h-5.3V40.9zm7.4 0h5.3v1.9h-3.9v4.7h3.9v1.9h-3.9v5.5h3.9v1.9H67V40.9zm7.4 16v-16h1.4l2.9 8.9c.4 1.3.8 2.6 1 3.9-.1-1.8-.2-3.3-.2-4.7v-8.1H81v15.9h-1.4L76.7 48c-.4-1.3-.8-2.6-1-3.9.1 1.8.2 3.3.2 4.7v8.1h-1.5zm13.3 0v-16h1.4v15.9h-1.4zm3.8 0v-16h1.4l2.9 8.9c.4 1.3.8 2.6 1 3.9-.1-1.8-.2-3.3-.2-4.7v-8.1H98v15.9h-1.4L93.8 48c-.4-1.3-.8-2.6-1-3.9.1 1.8.2 3.3.2 4.7v8.1h-1.5z"/></svg>