<svg id="Layer_1" xmlns="http://www.w3.org/2000/svg" viewBox="0 0 128 128"><style>.st0{fill:#fbf6d2}.st1{fill:#7b7b7b}</style><path class="st0" d="M45.7 0h36.6v128H45.7z"/><path class="st1" d="M56.4 93.7v-6.8c0-1.1.2-2 .5-2.7.3-.7.7-1.2 1.2-1.6.5-.4 1-.6 1.6-.8.6-.1 1.1-.2 1.6-.2s1 .1 1.5.2c.6.1 1.1.4 1.5.8.5.4.9.9 1.2 1.6.3.7.5 1.6.5 2.7V91h5.9v2.7H56.4zm7.3-2.7v-4c0-.3 0-.6-.1-.9-.1-.3-.2-.6-.4-.9-.2-.3-.5-.5-.8-.6-.3-.2-.7-.2-1.2-.2s-.9.1-1.3.2c-.3.1-.6.3-.8.6-.2.2-.3.5-.4.8-.1.3-.1.7-.1 1v4h5.1zm3.2-13.3c.4 0 .9-.1 1.3-.2s.8-.3 1.1-.6c.3-.2.5-.6.7-.9.2-.4.3-.8.3-1.3 0-.7-.2-1.3-.5-1.7-.3-.4-.8-.8-1.4-1v-2.3c.6.1 1.1.4 1.6.7.5.3.9.7 1.2 1.1.3.4.6.9.7 1.5.2.6.2 1.1.2 1.7 0 .9-.1 1.7-.4 2.3-.3.7-.7 1.3-1.2 1.7-.5.5-1.1.8-1.9 1.1-.7.2-1.5.4-2.4.4-.8 0-1.5-.1-2.3-.4-.7-.3-1.3-.6-1.9-1.1-.5-.5-1-1-1.3-1.7-.3-.7-.5-1.4-.5-2.2 0-.9.2-1.7.6-2.4.4-.7.9-1.3 1.5-1.7.6-.5 1.3-.8 2.1-1 .8-.2 1.6-.3 2.4-.2v8.2zM65.3 72c-.4 0-.8.1-1.1.2-.4.1-.7.3-.9.6-.3.2-.5.5-.6.9-.2.3-.2.7-.2 1.1 0 .4.1.8.2 1.2.2.4.4.7.6.9.3.3.6.5.9.6.4.2.7.2 1.2.2V72zm-4.6-3.2v-1.9h-3.3v-2.5h3.3v-2.2h1.8v2.2h6.7c.2 0 .3-.1.5-.2.1-.1.2-.2.3-.4.1-.2.1-.4.1-.6v-.5c0-.2 0-.3-.1-.5h1.9c0 .3.1.5.1.8v.8c0 .6-.1 1.2-.2 1.6-.1.4-.3.7-.5.9-.2.2-.5.4-.9.5-.4.1-.8.1-1.2.1h-6.6v1.9h-1.9zm-4.3-8.4v-2.5h2.3v2.5h-2.3zm4.3 0v-2.5h11.2v2.5H60.7zm0-4v-1.9h-3.3V52h3.3v-2.2h1.8V52h6.7c.2 0 .3-.1.5-.2.1-.1.2-.2.3-.4.1-.2.1-.4.1-.6v-.5c0-.2 0-.3-.1-.5h1.9c0 .3.1.5.1.8v.8c0 .6-.1 1.2-.2 1.6-.1.4-.3.7-.5.9-.2.2-.5.4-.9.5-.4.1-.8.1-1.2.1h-6.6v1.9h-1.9zm6.2-10.3c.4 0 .9-.1 1.3-.2s.8-.3 1.1-.6c.3-.2.5-.6.7-.9.2-.4.3-.8.3-1.3 0-.7-.2-1.3-.5-1.7-.3-.4-.8-.8-1.4-1v-2.3c.6.1 1.1.4 1.6.7.5.3.9.7 1.2 1.1.3.4.6.9.7 1.5.2.6.2 1.1.2 1.7 0 .9-.1 1.7-.4 2.3-.3.7-.7 1.2-1.2 1.7s-1.1.8-1.9 1.1c-.7.2-1.5.4-2.4.4-.8 0-1.5-.1-2.3-.4-.7-.3-1.3-.6-1.9-1.1-.5-.5-1-1-1.3-1.7-.3-.7-.5-1.4-.5-2.2 0-.9.2-1.7.6-2.4.4-.7.9-1.3 1.5-1.7.6-.5 1.3-.8 2.1-1 .8-.2 1.6-.3 2.4-.2v8.2zm-1.6-5.7c-.4 0-.8.1-1.1.2-.4.1-.7.3-.9.6-.3.2-.5.5-.6.9-.2.3-.2.7-.2 1.1 0 .4.1.8.2 1.2.2.4.4.7.6.9.3.3.6.5.9.6.4.2.7.2 1.2.2v-5.7z"/></svg>