<svg id="Layer_1" xmlns="http://www.w3.org/2000/svg" viewBox="0 0 128 128" enable-background="new 0 0 128 128"><style>.st0{fill:url(#SVGID_1_)}.st1{fill:#231f20}.st2{filter:url(#Adobe_OpacityMaskFilter)}.st3{fill:url(#SVGID_3_)}.st4{fill:url(#SVGID_4_)}.st5{fill:url(#SVGID_5_)}.st6{fill:url(#SVGID_6_)}.st7{fill:url(#SVGID_7_)}.st8{mask:url(#SVGID_2_);fill:#FFF}.st9{fill:url(#SVGID_8_)}.st10{filter:url(#Adobe_OpacityMaskFilter_1_)}.st11{fill:url(#SVGID_10_)}.st12{fill:url(#SVGID_11_)}.st13{fill:url(#SVGID_12_)}.st14{fill:url(#SVGID_13_)}.st15{fill:url(#SVGID_14_)}.st16{fill:url(#SVGID_15_)}.st17{fill:url(#SVGID_16_)}.st18{fill:url(#SVGID_17_)}.st19{mask:url(#SVGID_9_)}.st19,.st20{fill:#FFF}.st21{fill:url(#SVGID_18_)}.st22{fill:url(#SVGID_19_)}.st23{fill:url(#SVGID_20_)}.st24{fill:url(#SVGID_21_)}.st25{fill:url(#SVGID_22_)}.st26{fill:url(#SVGID_23_)}.st27{fill:url(#SVGID_24_)}.st28{fill:url(#SVGID_25_)}.st29{fill:url(#SVGID_26_)}.st30{fill:url(#SVGID_27_)}.st31{fill:url(#SVGID_28_)}.st32{fill:url(#SVGID_29_)}.st33{fill:none}.st34{fill:url(#SVGID_30_)}</style><linearGradient id="SVGID_1_" gradientUnits="userSpaceOnUse" x1="83.115" y1="53.873" x2="83.115" y2="66.521"><stop offset="0" stop-color="#231f20"/><stop offset=".675" stop-color="#929497"/><stop offset="1" stop-color="#404041"/></linearGradient><path class="st0" d="M70.9 68.7l-3.1-.2v-.4-7.8c-2.9-.1-6-.3-9.3-.6V67.5l-3-.4V50.4h3.1v6.8c3.3.2 6.3.4 9.3.5v-2V50.4H71.1V68.7zm28.5-.1c-1 0-2-.2-2.8-.5-1.2-.4-2.1-1.1-2.9-1.9-.8-.8-1.4-1.8-1.7-2.9-.4-1.1-.6-2.3-.6-3.5 0-1.2.2-2.4.6-3.6.4-1.1.9-2.2 1.7-3.1.8-.9 1.7-1.6 2.9-2.1 1.1-.5 2.5-.8 4-.8.9 0 1.8.1 2.7.4.9.2 1.7.6 2.4 1.1.7.5 1.4 1 1.8 1.7.5.7.8 1.5 1 2.4l.1.7h-.4c-.8 0-1.5.1-2.3.1h-.3l-.1-.5c-.1-.5-.4-1-.7-1.4-.3-.4-.7-.7-1.1-1-.4-.3-.9-.5-1.5-.6-.5-.1-1-.2-1.6-.2h-.1c-1.1 0-2 .2-2.8.6-.8.4-1.4.9-1.9 1.5s-.9 1.4-1.1 2.2c-.2.8-.4 1.7-.4 2.5 0 .9.1 1.7.4 2.5.2.8.6 1.5 1.1 2.1.5.6 1.1 1 1.9 1.3.8.3 1.7.4 2.8.3.7-.1 1.4-.3 2-.6.6-.3 1.1-.7 1.5-1.1.4-.5.8-1 1.1-1.6.3-.6.4-1.2.5-1.8l.1-.5h.3c.8-.1 1.5-.1 2.3-.2h.5l-.1.7c-.1 1-.4 2-.8 2.9-.4.9-1 1.7-1.7 2.3-.7.7-1.5 1.2-2.4 1.7-.9.4-2 .7-3.1.8-.5.1-.9.1-1.3.1zm-18 .8h-.1c-1.5 0-2.9-.3-4-.9-1.2-.6-2.1-1.3-2.9-2.2-.8-.9-1.3-1.9-1.7-3.1-.4-1.1-.6-2.3-.6-3.5 0-1.2.2-2.4.6-3.5.4-1.1 1-2.1 1.7-3 .8-.9 1.7-1.6 2.9-2.1 1.1-.5 2.5-.8 4-.8s2.8.3 4 .8c1.1.5 2.1 1.2 2.9 2.1.8.9 1.3 1.9 1.7 3 .4 1.1.6 2.3.6 3.5 0 1.2-.2 2.4-.6 3.6-.4 1.2-1 2.2-1.7 3.1-.8.9-1.7 1.6-2.9 2.2-1.1.5-2.4.8-3.9.8zM81.3 53c-1.1 0-2 .2-2.8.6-.8.4-1.4.9-1.9 1.5s-.9 1.4-1.1 2.2c-.2.8-.4 1.7-.4 2.5s.1 1.7.4 2.5c.2.8.6 1.6 1.1 2.2.5.6 1.1 1.2 1.9 1.6.8.4 1.7.6 2.8.6h.1c1 0 2-.2 2.7-.6.8-.4 1.4-.9 1.9-1.6.5-.6.9-1.4 1.1-2.2.2-.8.4-1.7.4-2.6 0-.9-.1-1.7-.4-2.6-.2-.8-.6-1.5-1.1-2.2-.5-.6-1.1-1.1-1.9-1.5-.8-.3-1.7-.4-2.8-.4zM110 67.1V50.4h3v7.2c3.2-2.6 6.4-5 9.5-7.2l.1-.1H127.2l-1.1.7c-3.1 2-5.6 3.8-8 5.7 2.9 2.5 8 6 8 6.1l.6.4-3.7 1.1-.2-.1s-4.6-3.4-7.1-5.6c-1 .8-1.9 1.6-2.7 2.3V66.5l-.3.1c-.8.1-1.5.3-2.3.4l-.4.1zM49.5 66c-.8 0-1.7-.1-2.8-.3-1.1-.2-2.1-.5-3.1-.9s-1.8-.9-2.5-1.4c-.7-.5-1.3-1.2-1.6-1.8-.3-.8-.5-1.6-.5-2.4v-.6l.4.1c.4.1.9.1 1.3.2.3 0 .6.1.9.1h.3v.5c0 .5.1.9.4 1.4.2.4.7.7 1.2 1 .6.4 1.3.7 2.3 1 .9.3 1.8.4 2.7.4h.2c.8 0 1.6-.1 2.2-.6.2-.2.3-.5.3-.9 0-.3-.1-.5-.2-.8-.2-.3-.4-.5-.7-.7-.3-.2-.7-.4-1.1-.6-.4-.2-.8-.3-1.2-.4-1.4-.4-2.7-.8-4-1.2-.5-.2-1.1-.3-1.6-.6-.6-.2-1-.5-1.5-.8-.4-.3-.8-.7-1.1-1.1-.3-.4-.4-1-.4-1.5 0-.4.1-.9.3-1.3.2-.5.6-.9 1.1-1.3.5-.4 1.2-.7 2.1-1 .8-.2 1.8-.4 3.2-.4h.1c1 0 1.9.1 2.7.3.9.2 1.7.5 2.3 1 .7.4 1.2 1 1.6 1.7.4.7.6 1.5.6 2.3v.6H53c-.8 0-1.5-.1-2.3-.1h-.3v-.6c0-.4-.1-.8-.4-1.2-.2-.3-.5-.6-.9-.9-.4-.2-.8-.4-1.3-.6-1-.3-2.2-.3-3.2-.2-.5.1-.9.2-1.2.3-.3.1-.6.3-.8.6-.2.2-.3.5-.3.9 0 .2 0 .4.1.5.1.2.2.3.4.4.2.1.4.3.7.4.3.1.6.2 1 .3 1.4.4 2.8.8 4.4 1.2.7.2 1.3.4 1.9.7.6.3 1.2.6 1.6 1 .5.4.9.9 1.2 1.4.3.5.4 1.2.4 1.9 0 .2 0 .4-.1.7-.1.3-.2.7-.4 1-.2.3-.5.7-.8 1-.4.3-.8.6-1.4.8-.6.2-1.3.3-2.1.3l.3.2z"/><path class="st1" d="M43.3 51c.8-.3 1.9-.3 3.2-.3.9 0 1.8.1 2.6.3.8.2 1.6.5 2.2.9.6.4 1.1.9 1.5 1.5.4.6.6 1.3.6 2.1v.2c-.8 0-1.5-.1-2.3-.1v-.2c0-.5-.2-1-.4-1.4-.3-.4-.6-.7-1-1-.4-.3-.9-.5-1.4-.6-1.1-.3-2.3-.4-3.4-.2-.5.1-1 .2-1.3.4-.4.2-.7.4-.9.7-.2.3-.3.7-.3 1.1 0 .3.1.5.2.7.1.2.3.4.5.5.2.2.5.3.8.4.3.1.6.2 1 .3 1.5.4 2.9.8 4.4 1.2.6.2 1.3.4 1.8.7.6.3 1.1.6 1.6.9.5.4.8.8 1.1 1.3.3.5.4 1.1.4 1.7 0 .2 0 .4-.1.7 0 .3-.2.6-.3.9-.2.3-.4.6-.7.9-.3.3-.7.5-1.3.7-.5.2-1.2.3-2 .3s-1.7-.1-2.8-.3c-1.1-.2-2.1-.5-3-.9-.9-.4-1.7-.8-2.4-1.3s-1.2-1.1-1.5-1.7c-.4-.6-.5-1.3-.5-2.1v-.2c.8.1 1.5.2 2.2.3v.2c0 .6.2 1.1.4 1.6.3.5.9.8 1.3 1.2.7.5 1.6.8 2.4 1.1.9.3 1.8.4 2.8.4.9 0 2 0 2.7-.8.3-.3.4-.7.4-1.2 0-.4-.1-.7-.3-1-.2-.3-.5-.6-.8-.8-.3-.2-.7-.4-1.1-.6-.4-.2-.8-.3-1.2-.4-1.3-.4-2.7-.8-4-1.2-.5-.2-1.1-.3-1.6-.5s-1-.5-1.4-.8c-.4-.3-.7-.6-1-1-.2-.4-.4-.8-.4-1.3 0-.3.1-.7.3-1.1.2-.4.5-.8 1-1.2.5-.4 1.1-.8 2-1M70.5 50.8v17.4l-2.4-.1V60c-3.4-.2-6.6-.4-10-.7v7.8l-2.3-.3v-16h2.3v6.8c3.4.2 6.6.4 10 .5v-7.3h2.4zM78.3 66.4c-.8-.4-1.5-1-2-1.7s-.9-1.5-1.2-2.3c-.3-.9-.4-1.8-.4-2.7 0-.9.1-1.8.4-2.6.3-.8.6-1.6 1.2-2.3.5-.7 1.2-1.2 2-1.6.8-.4 1.8-.6 2.9-.6 1.1 0 2.1.2 2.9.6.8.4 1.5 1 2 1.6.5.7.9 1.5 1.2 2.3.3.9.4 1.8.4 2.7 0 .9-.1 1.8-.4 2.7-.3.9-.6 1.7-1.2 2.3-.5.7-1.2 1.2-2 1.7-.8.4-1.8.6-2.9.6-1 0-2-.3-2.9-.7m-.8-15c-1.1.5-2 1.2-2.8 2-.7.8-1.3 1.8-1.6 2.9-.4 1.1-.5 2.2-.5 3.4 0 1.2.2 2.3.5 3.4.4 1.1.9 2.1 1.6 3 .7.9 1.7 1.6 2.8 2.1 1.1.5 2.4.8 3.9.8s2.8-.2 3.8-.8c1.1-.5 2-1.2 2.8-2.1.7-.9 1.3-1.8 1.6-3 .4-1.1.5-2.3.5-3.4 0-1.2-.2-2.3-.6-3.4-.4-1.1-.9-2.1-1.6-2.9-.7-.8-1.7-1.5-2.7-2-1.1-.5-2.4-.8-3.8-.8-1.5 0-2.8.3-3.9.8M96.7 51.4c1.1-.5 2.4-.7 3.8-.7.9 0 1.7.1 2.6.3.8.2 1.6.6 2.3 1 .7.4 1.3 1 1.7 1.6.5.6.8 1.4.9 2.2v.3c-.8 0-1.5.1-2.3.1 0-.1 0-.1-.1-.2-.1-.6-.4-1.1-.7-1.5-.3-.4-.7-.8-1.2-1.1-.5-.3-1-.5-1.6-.7-.6-.2-1.2-.2-1.8-.2-1.1 0-2.1.2-2.9.6-.8.4-1.5 1-2 1.6-.5.7-.9 1.5-1.2 2.3-.3.9-.4 1.8-.4 2.7 0 .9.1 1.8.4 2.6.3.8.6 1.6 1.2 2.2.5.6 1.2 1.1 2 1.5.8.3 1.8.4 2.9.3.8-.1 1.5-.3 2.2-.6.6-.3 1.2-.7 1.6-1.2.5-.5.8-1 1.1-1.7.3-.6.5-1.3.5-2v-.2c.8-.1 1.5-.1 2.3-.2v.3c-.1 1-.4 1.9-.8 2.7-.4.8-1 1.6-1.6 2.2-.7.7-1.4 1.2-2.3 1.6-.9.4-1.9.7-3 .8-1.5.2-2.7 0-3.9-.4-1.1-.4-2-1-2.8-1.8-.7-.8-1.3-1.7-1.7-2.8-.4-1.1-.6-2.2-.6-3.4 0-1.2.2-2.4.5-3.4.4-1.1.9-2.1 1.6-2.9 1.3-.7 2.2-1.4 3.3-1.9M125.9 50.8c-2.8 1.8-5.6 3.7-8.4 6 2.9 2.5 8.4 6.4 8.4 6.4l-2.8.8s-4.9-3.6-7.3-5.8c-1 .9-2.1 1.8-3.1 2.7v5.4c-.8.1-1.5.3-2.3.4V50.9h2.3v7.6c3.3-2.8 6.8-5.3 10.1-7.6 1-.1 2-.1 3.1-.1z"/><defs><filter id="Adobe_OpacityMaskFilter" filterUnits="userSpaceOnUse" x="40" y="50.6" width="85.9" height="10.2"><feColorMatrix values="1 0 0 0 0 0 1 0 0 0 0 0 1 0 0 0 0 0 1 0"/></filter></defs><mask maskUnits="userSpaceOnUse" x="40" y="50.6" width="85.9" height="10.2" id="SVGID_2_"><g class="st2"><linearGradient id="SVGID_3_" gradientUnits="userSpaceOnUse" x1="46.704" y1="48.523" x2="46.704" y2="63.932"><stop offset="0" stop-color="#FFF"/><stop offset=".028" stop-color="#ececec"/><stop offset=".096" stop-color="#c4c4c4"/><stop offset=".17" stop-color="#a0a0a0"/><stop offset=".25" stop-color="#828282"/><stop offset=".338" stop-color="#6a6a6a"/><stop offset=".437" stop-color="#575757"/><stop offset=".553" stop-color="#4a4a4a"/><stop offset=".702" stop-color="#424242"/><stop offset="1" stop-color="#404040"/></linearGradient><path class="st3" d="M43.3 51c.8-.3 1.9-.3 3.2-.3.9 0 1.8.1 2.6.3.8.2 1.6.5 2.2.9.6.4 1.1.9 1.5 1.5.4.6.6 1.3.6 2.1v.2c-.8 0-1.5-.1-2.3-.1v-.2c0-.5-.2-1-.4-1.4-.3-.4-.6-.7-1-1-.4-.3-.9-.5-1.4-.6-1.1-.3-2.3-.4-3.4-.2-.5.1-1 .2-1.3.4-.4.2-.7.4-.9.7-.2.3-.3.7-.3 1.1 0 .3.1.5.2.7.1.2.3.4.5.5.2.2.5.3.8.4.3.1.6.2 1 .3 1.5.4 2.9.8 4.4 1.2.6.2 1.3.4 1.8.7.6.3 1.1.6 1.6.9.5.4.8.8 1.1 1.3.3.5.4 1.1.4 1.7 0 .2 0 .4-.1.7 0 .3-.2.6-.3.9-.2.3-.4.6-.7.9-.3.3-.7.5-1.3.7-.5.2-1.2.3-2 .3s-1.7-.1-2.8-.3c-1.1-.2-2.1-.5-3-.9-.9-.4-1.7-.8-2.4-1.3s-1.2-1.1-1.5-1.7c-.4-.6-.5-1.3-.5-2.1v-.2c.8.1 1.5.2 2.2.3v.2c0 .6.2 1.1.4 1.6.3.5.9.8 1.3 1.2.7.5 1.6.8 2.4 1.1.9.3 1.8.4 2.8.4.9 0 2 0 2.7-.8.3-.3.4-.7.4-1.2 0-.4-.1-.7-.3-1-.2-.3-.5-.6-.8-.8-.3-.2-.7-.4-1.1-.6-.4-.2-.8-.3-1.2-.4-1.3-.4-2.7-.8-4-1.2-.5-.2-1.1-.3-1.6-.5s-1-.5-1.4-.8c-.4-.3-.7-.6-1-1-.2-.4-.4-.8-.4-1.3 0-.3.1-.7.3-1.1.2-.4.5-.8 1-1.2.5-.4 1.1-.8 2-1"/><linearGradient id="SVGID_4_" gradientUnits="userSpaceOnUse" x1="63.223" y1="48.353" x2="63.223" y2="63.809"><stop offset="0" stop-color="#FFF"/><stop offset=".028" stop-color="#ececec"/><stop offset=".096" stop-color="#c4c4c4"/><stop offset=".17" stop-color="#a0a0a0"/><stop offset=".25" stop-color="#828282"/><stop offset=".338" stop-color="#6a6a6a"/><stop offset=".437" stop-color="#575757"/><stop offset=".553" stop-color="#4a4a4a"/><stop offset=".702" stop-color="#424242"/><stop offset="1" stop-color="#404040"/></linearGradient><path class="st4" d="M70.5 50.8v17.4l-2.4-.1V60c-3.4-.2-6.6-.4-10-.7v7.8l-2.3-.3v-16h2.3v6.8c3.4.2 6.6.4 10 .5v-7.3h2.4z"/><linearGradient id="SVGID_5_" gradientUnits="userSpaceOnUse" x1="81.293" y1="48.461" x2="81.293" y2="63.77"><stop offset="0" stop-color="#FFF"/><stop offset=".028" stop-color="#ececec"/><stop offset=".096" stop-color="#c4c4c4"/><stop offset=".17" stop-color="#a0a0a0"/><stop offset=".25" stop-color="#828282"/><stop offset=".338" stop-color="#6a6a6a"/><stop offset=".437" stop-color="#575757"/><stop offset=".553" stop-color="#4a4a4a"/><stop offset=".702" stop-color="#424242"/><stop offset="1" stop-color="#404040"/></linearGradient><path class="st5" d="M78.3 66.4c-.8-.4-1.5-1-2-1.7s-.9-1.5-1.2-2.3c-.3-.9-.4-1.8-.4-2.7 0-.9.1-1.8.4-2.6.3-.8.6-1.6 1.2-2.3.5-.7 1.2-1.2 2-1.6.8-.4 1.8-.6 2.9-.6 1.1 0 2.1.2 2.9.6.8.4 1.5 1 2 1.6.5.7.9 1.5 1.2 2.3.3.9.4 1.8.4 2.7 0 .9-.1 1.8-.4 2.7-.3.9-.6 1.7-1.2 2.3-.5.7-1.2 1.2-2 1.7-.8.4-1.8.6-2.9.6-1 0-2-.3-2.9-.7m-.8-15c-1.1.5-2 1.2-2.8 2-.7.8-1.3 1.8-1.6 2.9-.4 1.1-.5 2.2-.5 3.4 0 1.2.2 2.3.5 3.4.4 1.1.9 2.1 1.6 3 .7.9 1.7 1.6 2.8 2.1 1.1.5 2.4.8 3.9.8s2.8-.2 3.8-.8c1.1-.5 2-1.2 2.8-2.1.7-.9 1.3-1.8 1.6-3 .4-1.1.5-2.3.5-3.4 0-1.2-.2-2.3-.6-3.4-.4-1.1-.9-2.1-1.6-2.9-.7-.8-1.7-1.5-2.7-2-1.1-.5-2.4-.8-3.8-.8-1.5 0-2.8.3-3.9.8"/><linearGradient id="SVGID_6_" gradientUnits="userSpaceOnUse" x1="100.073" y1="48.465" x2="100.073" y2="63.874"><stop offset="0" stop-color="#FFF"/><stop offset=".028" stop-color="#ececec"/><stop offset=".096" stop-color="#c4c4c4"/><stop offset=".17" stop-color="#a0a0a0"/><stop offset=".25" stop-color="#828282"/><stop offset=".338" stop-color="#6a6a6a"/><stop offset=".437" stop-color="#575757"/><stop offset=".553" stop-color="#4a4a4a"/><stop offset=".702" stop-color="#424242"/><stop offset="1" stop-color="#404040"/></linearGradient><path class="st6" d="M96.7 51.4c1.1-.5 2.4-.7 3.8-.7.9 0 1.7.1 2.6.3.8.2 1.6.6 2.3 1 .7.4 1.3 1 1.7 1.6.5.6.8 1.4.9 2.2v.3c-.8 0-1.5.1-2.3.1 0-.1 0-.1-.1-.2-.1-.6-.4-1.1-.7-1.5-.3-.4-.7-.8-1.2-1.1-.5-.3-1-.5-1.6-.7-.6-.2-1.2-.2-1.8-.2-1.1 0-2.1.2-2.9.6-.8.4-1.5 1-2 1.6-.5.7-.9 1.5-1.2 2.3-.3.9-.4 1.8-.4 2.7 0 .9.1 1.8.4 2.6.3.8.6 1.6 1.2 2.2.5.6 1.2 1.1 2 1.5.8.3 1.8.4 2.9.3.8-.1 1.5-.3 2.2-.6.6-.3 1.2-.7 1.6-1.2.5-.5.8-1 1.1-1.7.3-.6.5-1.3.5-2v-.2c.8-.1 1.5-.1 2.3-.2v.3c-.1 1-.4 1.9-.8 2.7-.4.8-1 1.6-1.6 2.2-.7.7-1.4 1.2-2.3 1.6-.9.4-1.9.7-3 .8-1.5.2-2.7 0-3.9-.4-1.1-.4-2-1-2.8-1.8-.7-.8-1.3-1.7-1.7-2.8-.4-1.1-.6-2.2-.6-3.4 0-1.2.2-2.4.5-3.4.4-1.1.9-2.1 1.6-2.9 1.3-.7 2.2-1.4 3.3-1.9"/><linearGradient id="SVGID_7_" gradientUnits="userSpaceOnUse" x1="118.148" y1="48.46" x2="118.148" y2="63.996"><stop offset="0" stop-color="#FFF"/><stop offset=".028" stop-color="#ececec"/><stop offset=".096" stop-color="#c4c4c4"/><stop offset=".17" stop-color="#a0a0a0"/><stop offset=".25" stop-color="#828282"/><stop offset=".338" stop-color="#6a6a6a"/><stop offset=".437" stop-color="#575757"/><stop offset=".553" stop-color="#4a4a4a"/><stop offset=".702" stop-color="#424242"/><stop offset="1" stop-color="#404040"/></linearGradient><path class="st7" d="M125.9 50.8c-2.8 1.8-5.6 3.7-8.4 6 2.9 2.5 8.4 6.4 8.4 6.4l-2.8.8s-4.9-3.6-7.3-5.8c-1 .9-2.1 1.8-3.1 2.7v5.4c-.8.1-1.5.3-2.3.4V50.9h2.3v7.6c3.3-2.8 6.8-5.3 10.1-7.6 1-.1 2-.1 3.1-.1z"/></g></mask><path class="st8" d="M51 58.3l1.2.6c-2.6-.6-5.3-.9-7.3-.8-.2-.1-.4-.1-.6-.2-.5-.2-1.1-.3-1.6-.5s-1-.5-1.4-.8c-.4-.3-.7-.6-1-1-.2-.4-.4-.8-.4-1.3 0-.3.1-.7.3-1.1.2-.4.5-.8 1-1.2.5-.4 1.2-.7 2-1 .8-.3 1.9-.3 3.2-.3.9 0 1.8.1 2.6.3.8.2 1.6.5 2.2.9.6.4 1.1.9 1.5 1.5.4.6.6 1.3.6 2.1v.2c-.8 0-1.5-.1-2.3-.1v-.2c0-.5-.2-1-.4-1.4-.3-.4-.6-.7-1-1-.4-.3-.9-.5-1.4-.6-1.1-.3-2.3-.4-3.4-.2-.5.1-1 .2-1.3.4-.4.2-.7.4-.9.7-.2.3-.3.7-.3 1.1 0 .3.1.5.2.7.1.2.3.4.5.5.2.2.5.3.8.4.3.1.6.2 1 .3 1.5.4 2.9.8 4.4 1.2.6.3 1.2.5 1.8.8zm19.5-7.5h-2.4v7.3c-3.4-.1-6.6-.3-10-.5v-6.8h-2.3v9.1c.5.2.9.3 1.4.5l.9.3v-1.4c3.4.3 6.6.5 10 .7v.9c.9-.2 1.7-.4 2.4-.6v-9.5zm19 5.5c-.4-1.1-.9-2.1-1.6-2.9-.7-.8-1.7-1.5-2.7-2-1.1-.5-2.4-.8-3.8-.8s-2.7.3-3.8.8c-1.1.5-2 1.2-2.8 2-.7.8-1.3 1.8-1.6 2.9-.3 1-.5 2.1-.5 3.2.7-.3 1.5-.7 2.4-1 .1-.5.2-.9.3-1.4.3-.8.6-1.6 1.2-2.3.5-.7 1.2-1.2 2-1.6.8-.4 1.8-.6 2.9-.6 1.1 0 2.1.2 2.9.6.8.4 1.5 1 2 1.6.5.7.9 1.5 1.2 2.3.3.9.4 1.8.4 2.7v.3c.7.1 1.5.2 2.3.3v-.6c-.2-1.3-.4-2.4-.8-3.5zm4.9.8c.2-.9.6-1.6 1.2-2.3.5-.7 1.2-1.2 2-1.6.8-.4 1.8-.6 2.9-.6.6 0 1.2.1 1.8.2.6.2 1.1.4 1.6.7.5.3.9.7 1.2 1.1.3.4.6 1 .7 1.5 0 .1 0 .1.1.2.8 0 1.5-.1 2.3-.1v-.3c-.1-.8-.4-1.6-.9-2.2-.5-.6-1.1-1.2-1.7-1.6-.7-.4-1.5-.8-2.3-1-.8-.2-1.7-.3-2.6-.3-1.5 0-2.7.3-3.8.7-1.1.5-2 1.2-2.8 2-.7.8-1.3 1.8-1.6 2.9-.4 1.1-.5 2.3-.5 3.4v.6h2.3v-.7c-.2-.9-.1-1.8.1-2.6zm18.3-6.3h-2.3v6.1c.8-.2 1.6-.4 2.3-.5v-5.6zm10 0c-2.3 1.6-4.6 3.3-6.9 5.1 1-.1 2-.1 2.9 0 2.4-1.8 4.8-3.5 7.2-5-1.1-.1-2.1-.1-3.2-.1z"/><g><linearGradient id="SVGID_8_" gradientUnits="userSpaceOnUse" x1="82.884" y1="71.102" x2="82.884" y2="76.124"><stop offset="0" stop-color="#231f20"/><stop offset=".541" stop-color="#929497"/><stop offset="1" stop-color="#404041"/></linearGradient><path class="st9" d="M123.9 69.3c-.1.2-.2.4-.4.5-.2.2-.4.3-.6.4-.2.1-.5.2-.7.2-1.1.2-2.2.3-3.4.5v-1.1-1.2c1.3-.3 2.5-.5 3.5-.7.6-.1 1.1-.1 1.3 0 .1.1.3.3.3.9.2.1.1.3 0 .5zm-71 .4c1 .2 1.9.3 3 .4 1.9.3 1.9.8 1.9 1.1v.1l-.2.2c-.1.1-.3.1-.6.1h-1c-.7-.1-1.5-.2-2.2-.2-.3 0-.6-.1-.9-.1v-1.6zm74.5 7c-.2-.2-.4-.4-.5-.6-.1-.1-.1-.2-.2-.4s-.1-.4-.1-.7v-.1c0-.3-.1-.6-.1-.8v-.7c0-.4-.1-.7-.2-1-.1-.4-.3-.7-.5-1-.1-.1-.2-.2-.4-.3.2-.2.4-.4.5-.6.5-.7.7-1.5.7-2.4 0-.6-.1-1.2-.4-1.6-.3-.4-.6-.8-1.1-.9-.4-.2-.9-.3-1.5-.2-.6.1-1.1.2-1.6.3-1.1.2-2.3.5-3.4.8-.8.2-1.6.4-2.4.5l-.3.1v10.4h2.7v-.4V75v-1.8c1.2-.1 2.3-.2 3.6-.4h.4c.2 0 .3 0 .4.1.2.1.3.2.4.3.1.2.2.4.2.7v.1c0 .3.1.8.1 1.1v.9c0 .2.1.5.1.7.1.3.3.6.4.7l.1.1h3.3l-.2-.8zm-24.1-1.8c-.1.1-.2.2-.4.3-.2.1-.5.2-.8.2-.3 0-.7.1-1.1.1-1 0-2.1 0-3.1.1v-.7-.7c1.1 0 2.1-.1 3.1-.1.9 0 1.5 0 1.9.2.4.1.4.3.4.4.1 0 .1.1 0 .2zm-12.4-2.2c-.2.1-.5.1-.8.1-1.2 0-2.3 0-3.4.1v-1.3c1.2 0 2.3-.1 3.5-.1h.3c.7 0 1 .1 1.2.2.2.1.3.3.3.4 0 .1 0 .1-.1.2s-.2.2-.3.2c-.3.1-.5.1-.7.2zm10.3-1.8h.7c.7 0 1 .1 1.1.2 0 0 .1.1.1.3 0 0 0 .1-.1.2 0 .1-.1.1-.3.2-.2.1-.4.2-.6.2-.3.1-.6.1-1 .1-.9.1-2 .1-3.1.2v-.6-.6c1.2 0 2.2-.1 3.2-.2zM81 74.4c-.1.3-.3.5-.6.7-.3.2-.7.4-1.1.5-.5.1-1 .2-1.7.2s-1.3-.1-1.7-.2c-.5-.1-.8-.3-1.1-.5-.3-.2-.5-.5-.6-.7-.1-.3-.2-.6-.2-.8 0-.3.1-.6.2-.8.1-.3.3-.5.6-.7.3-.2.7-.4 1.1-.5.4-.1.9-.2 1.5-.2h.3c.7 0 1.3.1 1.7.2.5.1.8.3 1.1.5.3.2.5.4.6.7.1.3.2.5.2.8 0 .3-.1.5-.3.8zm-22.8.4c-.1.1-.2.2-.4.3-.2.1-.5.1-.7.2H56c-.7 0-1.3 0-2-.1h-1.1v-1.5-.4c.8 0 1.6.1 2.4.2h.7c.9.1 1.5.2 1.9.4.4.2.4.4.4.6 0 .1 0 .3-.1.3zm-15-3.3c.4-.8.8-1.6 1.1-2.4.4.9.8 1.8 1.1 2.7-.7-.1-1.5-.2-2.2-.3zm52.1 5.8H101.1c.6 0 1.3 0 1.9-.1.4-.1.9-.2 1.3-.3.4-.1.7-.3 1-.5l.6-.6.3-.6V75v2.5H116.2v-.4-.7-1.1h-.4c-2.4.1-4.5.2-6.7.2v-.9-.9c2.1-.2 4.3-.3 6.3-.5h.3v-.3-.7-1.1l-.4.1c-2 .2-4.1.5-6.2.7v-.7-.8c1.3-.2 6.1-.9 6.8-1l.3-.1V69v-.7-1.2l-.4.1c-.7.1-8.5 1.4-9.1 1.5h-.3v5.5c-.1-.5-.4-.9-.9-1.3-.1-.1-.2-.1-.3-.2h.1c.2-.2.4-.5.6-.7.1-.3.2-.6.2-.8 0-.5-.2-.9-.5-1.2-.3-.3-.7-.5-1.1-.6-.4-.1-.9-.2-1.5-.2h-.2c-.5 0-.9 0-1.4.1-1.8.2-3.6.3-5.5.5h-.4v7c-.2-.1-.4-.3-.6-.4l-.1-.1c0-.1-.1-.2-.1-.3 0-.1 0-.3-.1-.4v-.4c0-.2-.1-.5-.2-.7-.1-.3-.3-.5-.5-.7 0 0-.1 0-.1-.1.1-.1.2-.1.2-.2.5-.4.8-1 .8-1.5 0-.4-.1-.8-.4-1.1-.3-.3-.6-.5-1.1-.7-.4-.1-.9-.2-1.4-.3-.5 0-1-.1-1.6 0-1.5 0-3.9.1-5.9.1H84V73.2c-.1-.3-.2-.7-.4-1-.3-.5-.7-.9-1.3-1.2-.5-.4-1.2-.6-2-.9-.8-.2-1.7-.3-2.7-.4-1 0-2 0-2.7.2-.8.2-1.5.4-2 .8-.6.3-1 .8-1.2 1.2-.3.5-.4 1-.4 1.6v.5c-.2-.3-.5-.5-.9-.7-.3-.2-.7-.3-1.2-.4-.4-.1-.8-.2-1.3-.3-1-.2-1.9-.4-2.9-.6-.2 0-.4-.1-.6-.1-.1 0-.3-.1-.4-.2-.1 0-.1-.1-.2-.1v-.1c0-.2.1-.2.1-.3.1-.1.2-.2.4-.2.2-.1.4-.1.7-.1.8 0 1.5 0 2 .1.3.1.6.2.8.3.2.1.4.2.5.4.1.1.2.3.2.4v.5h.3c.4.1 1.6.1 2 .2h.4v-.4-.2c0-.4-.2-.9-.5-1.3-.3-.3-.7-.6-1.2-.9-.5-.2-1-.4-1.6-.6-.5-.1-1.1-.2-1.7-.2H66c-.9-.1-1.7-.1-2.3 0-.6.1-1.1.3-1.5.5-.4.2-.7.5-.9.9-.2.1-.3.4-.3.6 0 .4.1.8.3 1.1.2.3.5.5.8.7.3.2.7.4 1.1.5.4.1.7.2 1.1.3.9.2 1.8.3 2.7.5.3 0 .5.1.8.2.2.1.5.1.6.2.1.1.3.1.4.2v.1c0 .1 0 .1-.1.2s-.3.2-.5.3c-.3.1-.5.1-.8.2-.3 0-.6.1-.8.1h-.1c-.5 0-1 0-1.4-.1-.4-.1-.7-.1-1-.3-.2-.1-.4-.2-.5-.4-.1-.1-.2-.3-.2-.6v-.6h-.9c-.5 0-1-.1-1.4-.1h-.3c-.2-.3-.4-.5-.7-.7-.1-.1-.2-.2-.4-.3.4-.3.7-.7.7-1.2.1-.5-.1-1-.4-1.5-.8-1.1-2.1-1.5-3.3-1.7-2-.4-6-1-6-1l-.4-.1V76c-1-2.3-4.1-9.2-4.4-9.7l-.1-.2h-.2c-.4-.1-1.8-.5-2.4-.6l-.3-.1.1.3c-1 2.1-2.8 5.8-5 11.1l-.2.5h2.9l.2-.4c.4-1 .9-2.2 1.3-3.2 1.4.1 2.9.3 4.3.4l.3.6c.8 1.8 1 2.3 1.1 2.4l.1.2h8.2c.6 0 1.5 0 2.3-.2.7-.2 1.2-.4 1.7-.8.2-.2.5-.5.7-.9.1.1.1.2.2.3.3.4.7.8 1.3 1 .5.2 1.1.4 1.8.5.7.1 1.4.2 2.1.2.7 0 1.4 0 1.9-.1.6-.1 1-.2 1.4-.3.4-.1.8-.3 1-.5.2-.2.4-.4.6-.5.2-.2.3-.4.3-.6 0-.2.1-.3.1-.4.3.5.7.9 1.2 1.3s1.2.7 2 .9c.8.2 1.7.3 2.7.3 1 0 1.9-.1 2.7-.3.8-.2 1.5-.5 2-.8.5-.4 1-.8 1.2-1.2.2-.3.3-.7.4-1V77.4h2.7v-2.8h3.7c.4 0 .6 0 .7.1.2.1.3.1.4.2.1.1.2.2.2.4s.1.4.1.6v.5c0 .1.1.3.1.4.1.2.2.3.3.4l.1.1.1.1h.1l3-.1z"/><path class="st1" d="M43.3 65.9c-1 2-2.7 5.7-5 11h2.1c.5-1.1 1-2.5 1.5-3.6 1.6.1 3.2.3 4.8.4.2.4 1.3 3 1.4 3.2h2.1c-.2-.4-4.5-9.9-4.7-10.4-.2-.1-1.6-.5-2.2-.6zm-.7 5.9c.6-1.3 1.2-2.4 1.7-3.6.6 1.4 1.1 2.7 1.7 4-1.1-.1-2.2-.3-3.4-.4zM59.9 73.2c-.3-.2-.6-.4-1-.5.2-.1.5-.2.7-.3.7-.5.8-1.4.3-2.2-.7-1-1.9-1.3-3-1.5-2-.4-6-1-6-1v9.4h5.5c.7 0 1.5 0 2.2-.2.6-.1 1.1-.3 1.6-.7.3-.2.6-.6.7-1 0-.2.1-.3 0-.4-.2-.7-.5-1.2-1-1.6zm-7.4-4c1.2.2 2.3.3 3.4.5 2 .3 2.3.9 2.3 1.4 0 .1 0 .3-.1.4-.1.1-.2.2-.4.3-.2.1-.4.1-.7.2h-1.1c-1.2-.1-2.3-.3-3.5-.4.1-.8.1-1.6.1-2.4zm6 5.9c-.1.2-.3.3-.5.4-.2.1-.5.2-.8.2h-1.1c-1.2 0-2.4-.1-3.5-.1v-2.7c1.1.1 2.3.2 3.5.2.9.1 1.6.2 2.1.5.4.2.6.5.6.9l-.3.6zM70.9 74.2c.2.2.3.5.3.8v.3c0 .1-.1.3-.2.5s-.3.3-.5.5-.5.3-.9.4c-.4.1-.8.2-1.4.3-.5.1-1.2.1-1.9.1s-1.4-.1-2.1-.2c-.7-.1-1.2-.3-1.7-.5s-.9-.5-1.1-.9c-.3-.4-.4-.8-.3-1.3v-.3c.7 0 1.5.1 2 .1v.2c0 .3.1.6.3.8.2.2.4.4.7.5.3.1.7.2 1.1.3.4.1.9.1 1.4.1.3 0 .6 0 .9-.1.3 0 .6-.1.9-.2.3-.1.5-.2.7-.3.2-.1.2-.3.2-.5 0-.1-.1-.3-.2-.4-.1-.1-.3-.2-.5-.3-.2-.1-.4-.2-.7-.2-.3-.1-.5-.1-.8-.2-.9-.2-1.8-.3-2.7-.5-.4-.1-.7-.2-1.1-.3-.4-.1-.7-.3-1-.4-.3-.2-.5-.4-.7-.6-.2-.2-.3-.5-.3-.9 0-.2.1-.4.2-.7.1-.3.4-.5.7-.7.3-.2.8-.3 1.4-.4.8-.1 1.7-.1 2.2 0 .6.1 1.2.1 1.8.3.6.1 1.1.3 1.6.6.5.2.8.5 1.1.8.3.4.5.8.4 1.1v.2c-.4 0-1.6-.1-2-.2v-.2c0-.2-.1-.5-.3-.6-.2-.2-.4-.3-.6-.4-.3-.1-.5-.2-.9-.3-.7-.2-1.4-.2-2.1-.1-.3 0-.6.1-.8.1-.2.1-.4.2-.5.3-.1.1-.2.3-.2.5 0 .1 0 .2.1.3.1.1.2.2.3.2.1.1.3.1.5.2s.4.1.6.2c1 .2 1.9.4 2.9.6.5.1.9.2 1.3.3.4.1.8.3 1.1.4.4.3.6.5.8.7zM105 73.2c-.3-.2-.6-.3-1-.4.3-.1.5-.3.7-.4.2-.2.4-.4.5-.6.1-.2.2-.4.2-.7 0-.4-.1-.7-.4-.9-.2-.2-.6-.4-1-.5-.4-.1-.9-.2-1.4-.2-.5 0-1 0-1.5.1-1.8.2-3.7.3-5.5.5v7h5.4c.7 0 1.3-.1 1.8-.1.5-.1.9-.2 1.3-.3.4-.1.7-.3.9-.5l.5-.5c.1-.2.2-.4.2-.5 0-.2.1-.3.1-.4 0-.8-.3-1.3-.8-1.6zm-7.4-2.4c1.2-.1 2.4-.2 3.5-.3 2-.2 2.3.4 2.2.9 0 .1 0 .3-.1.4-.1.1-.2.2-.4.3-.2.1-.4.2-.7.3-.3.1-.6.1-1.1.1-1.2.1-2.4.1-3.5.2.1-.6.1-1.3.1-1.9zm6 4.4c-.1.2-.3.3-.5.4-.2.1-.5.2-.8.2-.3 0-.7.1-1.1.1-1.2 0-2.3 0-3.5.1v-2.2c1.2 0 2.3-.1 3.5-.1.9 0 1.6 0 2.1.2.4.2.6.4.6.8-.1.1-.2.3-.3.5zM126.7 76.3c-.1-.2-.2-.3-.2-.5-.1-.2-.1-.5-.1-.7 0-.3-.1-.7-.1-.9v-.7c0-.3-.1-.7-.1-1-.1-.3-.2-.6-.4-.8-.2-.2-.4-.4-.7-.5.3-.2.6-.5.9-.9.4-.7.7-1.4.7-2.2 0-.6-.1-1-.3-1.4-.2-.4-.5-.6-.9-.8-.4-.2-.8-.2-1.3-.2s-1 .1-1.5.3c-1.9.4-4 .9-5.8 1.3V77h1.9v-4.2c1.3-.1 2.6-.3 3.9-.4.4-.1.8 0 1 .1.2.1.4.3.5.5.1.2.2.5.3.8 0 .4.1.9.1 1.3v.9c0 .2.1.4.1.6l.3.6h2.3c-.3-.5-.5-.7-.6-.9zm-2.4-6.9c-.1.2-.3.4-.5.6-.2.2-.4.3-.7.4-.3.1-.5.2-.8.2-1.3.2-2.5.4-3.8.5v-3c1.3-.2 2.5-.5 3.8-.8.7-.2 1.3-.1 1.6.1.3.2.5.6.5 1.2 0 .4 0 .6-.1.8zM108.5 75.7c2.4-.1 4.7-.1 7.1-.2v1.4h-9.1v-8c.7-.1 8.6-1.4 9.1-1.5v1.4c-.8.1-6.6 1-7.1 1V72c2.2-.2 4.4-.4 6.6-.7v1.3c-2.2.2-4.4.4-6.6.5v2.6zM82.1 71.2c-.5-.3-1.1-.6-1.9-.8-.8-.2-1.6-.3-2.7-.4-1 0-1.9 0-2.7.2-.8.2-1.4.4-1.9.7-.5.3-.9.7-1.1 1.1-.2.4-.4.9-.4 1.4 0 .5.1.9.4 1.4.3.4.6.8 1.1 1.2.5.3 1.1.6 1.9.8.8.2 1.6.3 2.6.3s1.9-.1 2.6-.3c.7-.2 1.4-.5 1.9-.8.5-.3.9-.7 1.1-1.1.2-.4.4-.9.4-1.3 0-.5-.1-.9-.4-1.3 0-.4-.4-.8-.9-1.1zm-.7 3.4c-.2.3-.4.6-.7.8-.3.2-.7.4-1.2.6-.5.1-1.1.2-1.8.2s-1.3-.1-1.8-.2-.9-.3-1.2-.6c-.3-.2-.6-.5-.7-.9-.2-.3-.2-.7-.3-1 0-.3.1-.7.2-1 .2-.3.4-.6.7-.8.3-.2.7-.4 1.2-.5.5-.1 1.1-.2 1.8-.2s1.3.1 1.8.3c.5.2.9.3 1.2.6.3.2.6.5.7.8.2.3.2.6.2 1 .1.2 0 .6-.1.9zM94.2 76.3c-.1-.1-.1-.3-.1-.4 0-.2 0-.3-.1-.5V75c0-.2-.1-.4-.1-.6-.1-.2-.2-.4-.4-.5-.2-.1-.4-.3-.7-.4.4-.1.6-.3.9-.5.4-.4.7-.8.7-1.2 0-.3-.1-.6-.3-.9-.2-.2-.5-.4-.9-.6-.4-.1-.8-.2-1.3-.3-.5 0-1-.1-1.5 0-1.6.1-4.1.1-5.9.1v6.7h2V74h3.9c.4 0 .8 0 1 .1.2.1.4.2.5.3.1.2.2.3.3.5 0 .2.1.4.1.7v.5c0 .1 0 .2.1.3 0 .1.1.2.2.3l.1.1h2.4c-.2-.1-.4-.3-.6-.4-.1.1-.2 0-.3-.1zm-2.1-3.8c-.1.1-.3.2-.5.3-.1.1-.4.2-.6.2-.3.1-.6.1-.8.1-1.3 0-2.5 0-3.8.1v-2c1.3 0 2.6-.1 3.8-.1.7 0 1.3 0 1.6.2.3.2.5.4.5.8 0 .1-.1.3-.2.4z"/><defs><filter id="Adobe_OpacityMaskFilter_1_" filterUnits="userSpaceOnUse" x="41.7" y="65.7" width="84.6" height="9"><feColorMatrix values="1 0 0 0 0 0 1 0 0 0 0 0 1 0 0 0 0 0 1 0"/></filter></defs><mask maskUnits="userSpaceOnUse" x="41.7" y="65.7" width="84.6" height="9" id="SVGID_9_"><g class="st10"><linearGradient id="SVGID_10_" gradientUnits="userSpaceOnUse" x1="44.343" y1="65.462" x2="44.343" y2="74.363"><stop offset="0" stop-color="#FFF"/><stop offset=".036" stop-color="#e4e4e4"/><stop offset=".095" stop-color="#bebebe"/><stop offset=".162" stop-color="#9c9c9c"/><stop offset=".234" stop-color="#7f7f7f"/><stop offset=".314" stop-color="#686868"/><stop offset=".406" stop-color="#565656"/><stop offset=".516" stop-color="#494949"/><stop offset=".663" stop-color="#424242"/><stop offset="1" stop-color="#404040"/></linearGradient><path class="st11" d="M43.3 65.9c-1 2-2.7 5.7-5 11h2.1c.5-1.1 1-2.5 1.5-3.6 1.6.1 3.2.3 4.8.4.2.4 1.3 3 1.4 3.2h2.1c-.2-.4-4.5-9.9-4.7-10.4-.2-.1-1.6-.5-2.2-.6zm-.7 5.9c.6-1.3 1.2-2.4 1.7-3.6.6 1.4 1.1 2.7 1.7 4-1.1-.1-2.2-.3-3.4-.4z"/><linearGradient id="SVGID_11_" gradientUnits="userSpaceOnUse" x1="55.987" y1="65.478" x2="55.546" y2="74.35"><stop offset=".172" stop-color="#FFF"/><stop offset=".183" stop-color="#f7f7f7"/><stop offset=".248" stop-color="#cdcdcd"/><stop offset=".319" stop-color="#a7a7a7"/><stop offset=".393" stop-color="#878787"/><stop offset=".474" stop-color="#6d6d6d"/><stop offset=".563" stop-color="#595959"/><stop offset=".664" stop-color="#4b4b4b"/><stop offset=".788" stop-color="#424242"/><stop offset="1" stop-color="#404040"/></linearGradient><path class="st12" d="M59.9 73.2c-.3-.2-.6-.4-1-.5.2-.1.5-.2.7-.3.7-.5.8-1.4.3-2.2-.7-1-1.9-1.3-3-1.5-2-.4-6-1-6-1v9.4h5.5c.7 0 1.5 0 2.2-.2.6-.1 1.1-.3 1.6-.7.3-.2.6-.6.7-1 0-.2.1-.3 0-.4-.2-.7-.5-1.2-1-1.6zm-7.4-4c1.2.2 2.3.3 3.4.5 2 .3 2.3.9 2.3 1.4 0 .1 0 .3-.1.4-.1.1-.2.2-.4.3-.2.1-.4.1-.7.2h-1.1c-1.2-.1-2.3-.3-3.5-.4.1-.8.1-1.6.1-2.4zm6 5.9c-.1.2-.3.3-.5.4-.2.1-.5.2-.8.2h-1.1c-1.2 0-2.4-.1-3.5-.1v-2.7c1.1.1 2.3.2 3.5.2.9.1 1.6.2 2.1.5.4.2.6.5.6.9l-.3.6z"/><linearGradient id="SVGID_12_" gradientUnits="userSpaceOnUse" x1="66.128" y1="66.006" x2="66.128" y2="75.177"><stop offset=".166" stop-color="#FFF"/><stop offset=".171" stop-color="#fbfbfb"/><stop offset=".24" stop-color="#d0d0d0"/><stop offset=".315" stop-color="#a9a9a9"/><stop offset=".393" stop-color="#888"/><stop offset=".477" stop-color="#6e6e6e"/><stop offset=".569" stop-color="#595959"/><stop offset=".672" stop-color="#4b4b4b"/><stop offset=".797" stop-color="#434343"/><stop offset="1" stop-color="#404040"/></linearGradient><path class="st13" d="M70.9 74.2c.2.2.3.5.3.8v.3c0 .1-.1.3-.2.5s-.3.3-.5.5-.5.3-.9.4c-.4.1-.8.2-1.4.3-.5.1-1.2.1-1.9.1s-1.4-.1-2.1-.2c-.7-.1-1.2-.3-1.7-.5s-.9-.5-1.1-.9c-.3-.4-.4-.8-.3-1.3v-.3c.7 0 1.5.1 2 .1v.2c0 .3.1.6.3.8.2.2.4.4.7.5.3.1.7.2 1.1.3.4.1.9.1 1.4.1.3 0 .6 0 .9-.1.3 0 .6-.1.9-.2.3-.1.5-.2.7-.3.2-.1.2-.3.2-.5 0-.1-.1-.3-.2-.4-.1-.1-.3-.2-.5-.3-.2-.1-.4-.2-.7-.2-.3-.1-.5-.1-.8-.2-.9-.2-1.8-.3-2.7-.5-.4-.1-.7-.2-1.1-.3-.4-.1-.7-.3-1-.4-.3-.2-.5-.4-.7-.6-.2-.2-.3-.5-.3-.9 0-.2.1-.4.2-.7.1-.3.4-.5.7-.7.3-.2.8-.3 1.4-.4.8-.1 1.7-.1 2.2 0 .6.1 1.2.1 1.8.3.6.1 1.1.3 1.6.6.5.2.8.5 1.1.8.3.4.5.8.4 1.1v.2c-.4 0-1.6-.1-2-.2v-.2c0-.2-.1-.5-.3-.6-.2-.2-.4-.3-.6-.4-.3-.1-.5-.2-.9-.3-.7-.2-1.4-.2-2.1-.1-.3 0-.6.1-.8.1-.2.1-.4.2-.5.3-.1.1-.2.3-.2.5 0 .1 0 .2.1.3.1.1.2.2.3.2.1.1.3.1.5.2s.4.1.6.2c1 .2 1.9.4 2.9.6.5.1.9.2 1.3.3.4.1.8.3 1.1.4.4.3.6.5.8.7z"/><linearGradient id="SVGID_13_" gradientUnits="userSpaceOnUse" x1="100.232" y1="66.09" x2="100.683" y2="75.151"><stop offset=".235" stop-color="#FFF"/><stop offset=".242" stop-color="#f9f9f9"/><stop offset=".304" stop-color="#cecece"/><stop offset=".37" stop-color="#a8a8a8"/><stop offset=".441" stop-color="#888"/><stop offset=".517" stop-color="#6d6d6d"/><stop offset=".6" stop-color="#595959"/><stop offset=".694" stop-color="#4b4b4b"/><stop offset=".808" stop-color="#434343"/><stop offset="1" stop-color="#404040"/></linearGradient><path class="st14" d="M105 73.2c-.3-.2-.6-.3-1-.4.3-.1.5-.3.7-.4.2-.2.4-.4.5-.6.1-.2.2-.4.2-.7 0-.4-.1-.7-.4-.9-.2-.2-.6-.4-1-.5-.4-.1-.9-.2-1.4-.2-.5 0-1 0-1.5.1-1.8.2-3.7.3-5.5.5v7h5.4c.7 0 1.3-.1 1.8-.1.5-.1.9-.2 1.3-.3.4-.1.7-.3.9-.5l.5-.5c.1-.2.2-.4.2-.5 0-.2.1-.3.1-.4 0-.8-.3-1.3-.8-1.6zm-7.4-2.4c1.2-.1 2.4-.2 3.5-.3 2-.2 2.3.4 2.2.9 0 .1 0 .3-.1.4-.1.1-.2.2-.4.3-.2.1-.4.2-.7.3-.3.1-.6.1-1.1.1-1.2.1-2.4.1-3.5.2.1-.6.1-1.3.1-1.9zm6 4.4c-.1.2-.3.3-.5.4-.2.1-.5.2-.8.2-.3 0-.7.1-1.1.1-1.2 0-2.3 0-3.5.1v-2.2c1.2 0 2.3-.1 3.5-.1.9 0 1.6 0 2.1.2.4.2.6.4.6.8-.1.1-.2.3-.3.5z"/><linearGradient id="SVGID_14_" gradientUnits="userSpaceOnUse" x1="120.428" y1="65.54" x2="121.812" y2="74.454"><stop offset="0" stop-color="#FFF"/><stop offset=".036" stop-color="#e4e4e4"/><stop offset=".095" stop-color="#bebebe"/><stop offset=".162" stop-color="#9c9c9c"/><stop offset=".234" stop-color="#7f7f7f"/><stop offset=".314" stop-color="#686868"/><stop offset=".406" stop-color="#565656"/><stop offset=".516" stop-color="#494949"/><stop offset=".663" stop-color="#424242"/><stop offset="1" stop-color="#404040"/></linearGradient><path class="st15" d="M126.7 76.3c-.1-.2-.2-.3-.2-.5-.1-.2-.1-.5-.1-.7 0-.3-.1-.7-.1-.9v-.7c0-.3-.1-.7-.1-1-.1-.3-.2-.6-.4-.8-.2-.2-.4-.4-.7-.5.3-.2.6-.5.9-.9.4-.7.7-1.4.7-2.2 0-.6-.1-1-.3-1.4-.2-.4-.5-.6-.9-.8-.4-.2-.8-.2-1.3-.2s-1 .1-1.5.3c-1.9.4-4 .9-5.8 1.3V77h1.9v-4.2c1.3-.1 2.6-.3 3.9-.4.4-.1.8 0 1 .1.2.1.4.3.5.5.1.2.2.5.3.8 0 .4.1.9.1 1.3v.9c0 .2.1.4.1.6l.3.6h2.3c-.3-.5-.5-.7-.6-.9zm-2.4-6.9c-.1.2-.3.4-.5.6-.2.2-.4.3-.7.4-.3.1-.5.2-.8.2-1.3.2-2.5.4-3.8.5v-3c1.3-.2 2.5-.5 3.8-.8.7-.2 1.3-.1 1.6.1.3.2.5.6.5 1.2 0 .4 0 .6-.1.8z"/><linearGradient id="SVGID_15_" gradientUnits="userSpaceOnUse" x1="110.321" y1="65.454" x2="111.295" y2="74.391"><stop offset=".169" stop-color="#FFF"/><stop offset=".192" stop-color="#ededed"/><stop offset=".249" stop-color="#c5c5c5"/><stop offset=".311" stop-color="#a1a1a1"/><stop offset=".379" stop-color="#838383"/><stop offset=".452" stop-color="#6a6a6a"/><stop offset=".535" stop-color="#575757"/><stop offset=".632" stop-color="#4a4a4a"/><stop offset=".756" stop-color="#424242"/><stop offset="1" stop-color="#404040"/></linearGradient><path class="st16" d="M108.5 75.7c2.4-.1 4.7-.1 7.1-.2v1.4h-9.1v-8c.7-.1 8.6-1.4 9.1-1.5v1.4c-.8.1-6.6 1-7.1 1V72c2.2-.2 4.4-.4 6.6-.7v1.3c-2.2.2-4.4.4-6.6.5v2.6z"/><linearGradient id="SVGID_16_" gradientUnits="userSpaceOnUse" x1="77.566" y1="65.916" x2="77.566" y2="75.206"><stop offset=".245" stop-color="#FFF"/><stop offset=".296" stop-color="#e0e0e0"/><stop offset=".376" stop-color="#b6b6b6"/><stop offset=".46" stop-color="#919191"/><stop offset=".548" stop-color="#747474"/><stop offset=".641" stop-color="#5d5d5d"/><stop offset=".741" stop-color="#4d4d4d"/><stop offset=".852" stop-color="#434343"/><stop offset="1" stop-color="#404040"/></linearGradient><path class="st17" d="M82.1 71.2c-.5-.3-1.1-.6-1.9-.8-.8-.2-1.6-.3-2.7-.4-1 0-1.9 0-2.7.2-.8.2-1.4.4-1.9.7-.5.3-.9.7-1.1 1.1-.2.4-.4.9-.4 1.4 0 .5.1.9.4 1.4.3.4.6.8 1.1 1.2.5.3 1.1.6 1.9.8.8.2 1.6.3 2.6.3s1.9-.1 2.6-.3c.7-.2 1.4-.5 1.9-.8.5-.3.9-.7 1.1-1.1.2-.4.4-.9.4-1.3 0-.5-.1-.9-.4-1.3 0-.4-.4-.8-.9-1.1zm-.7 3.4c-.2.3-.4.6-.7.8-.3.2-.7.4-1.2.6-.5.1-1.1.2-1.8.2s-1.3-.1-1.8-.2-.9-.3-1.2-.6c-.3-.2-.6-.5-.7-.9-.2-.3-.2-.7-.3-1 0-.3.1-.7.2-1 .2-.3.4-.6.7-.8.3-.2.7-.4 1.2-.5.5-.1 1.1-.2 1.8-.2s1.3.1 1.8.3c.5.2.9.3 1.2.6.3.2.6.5.7.8.2.3.2.6.2 1 .1.2 0 .6-.1.9z"/><linearGradient id="SVGID_17_" gradientUnits="userSpaceOnUse" x1="89.681" y1="66.269" x2="89.681" y2="75.436"><stop offset=".148" stop-color="#FFF"/><stop offset=".187" stop-color="#ebebeb"/><stop offset=".287" stop-color="#bebebe"/><stop offset=".392" stop-color="#979797"/><stop offset=".499" stop-color="#787878"/><stop offset=".61" stop-color="#5f5f5f"/><stop offset=".727" stop-color="#4e4e4e"/><stop offset=".851" stop-color="#434343"/><stop offset="1" stop-color="#404040"/></linearGradient><path class="st18" d="M94.2 76.3c-.1-.1-.1-.3-.1-.4 0-.2 0-.3-.1-.5V75c0-.2-.1-.4-.1-.6-.1-.2-.2-.4-.4-.5-.2-.1-.4-.3-.7-.4.4-.1.6-.3.9-.5.4-.4.7-.8.7-1.2 0-.3-.1-.6-.3-.9-.2-.2-.5-.4-.9-.6-.4-.1-.8-.2-1.3-.3-.5 0-1-.1-1.5 0-1.6.1-4.1.1-5.9.1v6.7h2V74h3.9c.4 0 .8 0 1 .1.2.1.4.2.5.3.1.2.2.3.3.5 0 .2.1.4.1.7v.5c0 .1 0 .2.1.3 0 .1.1.2.2.3l.1.1h2.4c-.2-.1-.4-.3-.6-.4-.1.1-.2 0-.3-.1zm-2.1-3.8c-.1.1-.3.2-.5.3-.1.1-.4.2-.6.2-.3.1-.6.1-.8.1-1.3 0-2.5 0-3.8.1v-2c1.3 0 2.6-.1 3.8-.1.7 0 1.3 0 1.6.2.3.2.5.4.5.8 0 .1-.1.3-.2.4z"/></g></mask><path class="st19" d="M126.1 66.7c.1.2.2.4.2.6-.6.3-1.3.6-1.9.9-.1-.3-.2-.4-.4-.6-.3-.2-.9-.2-1.6-.1-1.3.3-2.5.6-3.8.8v1.9c-.6.2-1.3.4-1.9.5v-3.4c1.8-.4 3.9-.9 5.8-1.3l1.5-.3c.5 0 .9 0 1.3.2.2.1.5.4.8.8zm-42.9 5.6c-.2-.4-.6-.8-1.1-1.1-.5-.3-1.1-.6-1.9-.8-.8-.2-1.6-.3-2.7-.4-1 0-1.9 0-2.7.2-.8.2-1.4.4-1.9.7-.5.3-.9.7-1.1 1.1-.2.4-.4.9-.4 1.4 0 .3.1.6.2.9.7 0 1.4.1 2.1.1-.2-.3-.2-.6-.2-1 0-.3.1-.7.2-1 .2-.3.4-.6.7-.8.3-.2.7-.4 1.2-.5.5-.1 1.1-.2 1.8-.2s1.3.1 1.8.3c.5.2.9.3 1.2.6.3.2.6.5.7.8.2.3.2.6.2 1 0 .3-.1.6-.2 1v.1h2.1c.1-.3.2-.7.2-1 .2-.5.1-1-.2-1.4zm10.5 1.9c-.7.1-1.5.1-2.2.1-.1-.1-.2-.1-.3-.1-.2-.1-.6-.1-1-.1h-3.9v.4h-2v-4.3c1.8 0 4.3-.1 5.9-.1h1.5c.5.1.9.1 1.3.3.4.1.7.3.9.6.2.2.3.5.3.9 0 .5-.2.9-.7 1.2-.2.2-.5.3-.9.5.3.1.5.2.7.4.3 0 .4.1.4.2zm-1.4-2.1c0-.3-.2-.6-.5-.8-.3-.2-.9-.2-1.6-.2-1.3 0-2.5.1-3.8.1v2c1.3 0 2.5 0 3.8-.1.3 0 .6 0 .8-.1.3-.1.5-.1.7-.2.2-.1.3-.2.5-.3 0-.1.1-.3.1-.4zm-22.2 1.5c-.3-.2-.7-.3-1.1-.4-.4-.1-.8-.2-1.3-.3-1-.2-1.9-.4-2.9-.6-.2 0-.4-.1-.6-.2-.2-.1-.3-.1-.5-.2-.1-.1-.2-.2-.3-.2-.1-.1-.1-.2-.1-.3 0-.2.1-.4.2-.5.1-.1.3-.2.5-.3.2-.1.5-.1.8-.1.7 0 1.5 0 2.1.1l.9.3c.3.1.5.3.6.4.2.2.2.4.3.6v.2c.4.1 1.6.1 2 .2v-.2c0-.3-.1-.7-.4-1.1-.3-.3-.6-.6-1.1-.8-.4-.2-1-.4-1.6-.6l-1.8-.3c-.6-.1-1.5-.1-2.2 0-.6.1-1.1.2-1.4.4-.3.2-.6.4-.7.7-.1.3-.2.5-.2.7 0 .3.1.6.3.9.2.2.4.5.7.6.3.2.6.3 1 .4.3.1.7.2 1.1.3.9.2 1.8.3 2.7.5.2 0 .5.1.7.1 1 .1 2.1.2 3.2.2 0 0 0-.1-.1-.1-.2 0-.4-.2-.8-.4zm-26.8-7.7c-.4.8-.9 2-1.6 3.4l1.8.6c.3-.6.6-1.1.8-1.7.3.8.6 1.5.9 2.2l2.4.6c-1-2.2-1.9-4.2-2-4.5-.3-.1-1.7-.5-2.3-.6zm16.6 7.3l.1.1c-3.3-.4-6.4-1-9.3-1.6v-4.1s4 .7 6 1c1.1.2 2.3.6 3 1.5.5.7.5 1.6-.3 2.2-.2.1-.4.2-.7.3.6.2.9.4 1.2.6zm-1.7-2.1c0-.5-.3-1.1-2.3-1.4-1.2-.2-2.2-.3-3.4-.5v2.3c1.2.1 2.3.3 3.5.4h1.1c.3 0 .5-.1.7-.2.2-.1.3-.2.4-.3v-.3zm47.2 0c0 .2-.1.4-.2.7-.1.2-.3.4-.5.6-.2.2-.4.3-.7.4.3.1.5.2.7.3-1.5.2-3 .4-4.6.6-.9 0-1.7.1-2.6.1v.2c-.6.1-1.3.1-1.9.2v-4.1c1.8-.1 3.7-.3 5.5-.5.5-.1 1-.1 1.5-.1s1 .1 1.4.2c.4.1.7.3 1 .5.2.2.4.5.4.9zm-2 .3c0-.5-.2-1.1-2.2-.9-1.2.1-2.4.2-3.5.3v1.9c1.2-.1 2.4-.1 3.5-.2.4 0 .8-.1 1.1-.1.3-.1.5-.2.7-.3.2-.1.3-.2.4-.3-.1-.1 0-.3 0-.4zm5.1-1.6c.5-.1 6.3-.9 7.1-1v-1.4c-.6.1-8.4 1.4-9.1 1.5v3.9c2.1-.3 4.1-.7 6-1.1-1.3.1-2.6.3-3.9.4-.1-.8-.1-1.6-.1-2.3z"/></g><g><path class="st20" d="M29.1 77.3c-.4 0-.8-.3-.8-.8v-5c-3 5.8-7.6 5.8-12.6 5.8H.5c-.2 0-.4-.1-.4-.3-.1-.2 0-.4.1-.5l2.2-2.6c1.8-2.1 3.1-2.2 5.2-2.2h.9l4.5-5.1c-2.7-.2-4.5-1.1-5.3-2.7-1.8-3.4 1.2-8.6 4.9-11 3.2-2.1 6.2-2.3 8.2-2.3H30.4c2.4 0 3.9 1.7 3.9 4.6v21.5c0 .4-.3.8-.8.8h-4.4zm-9-10.8s0 .1 0 0l-4.5 5.1H19c1.2 0 2.8-.3 4.2-2.7.4-.8.6-1.6.3-2-.2-.4-.9-.5-1.3-.5h-2.1zm8-8.9c-.1 0-.3.1-.6.4l-2.7 3.1c1.5.2 2.6.6 3.4 1.4v-4.2c.1-.5 0-.7-.1-.7.1 0 .1 0 0 0zM18.5 56c-2.8 0-5.2 2.6-5.2 4 0 .3.1.5.4.7.3.2.9.4 1.6.4h2.4l4.3-4.9v-.1h-3.5z"/><linearGradient id="SVGID_18_" gradientUnits="userSpaceOnUse" x1="28.259" y1="64.233" x2="34.261" y2="64.233"><stop offset="0" stop-color="#b2b4b7"/><stop offset=".54" stop-color="#626366"/><stop offset="1" stop-color="#231f20"/></linearGradient><path class="st21" d="M31.5 51.2c1.5.5 2.3 1.9 2.3 3.9v21.5c0 .1-.1.3-.3.3h-4.4c-.4 0-.8-.6-.8-4.2v4c0 .4.4.8.8.8h4.4c.4 0 .8-.4.8-.8V56.9c-.3-1.7.1-4.9-2.8-5.7z"/><linearGradient id="SVGID_19_" gradientUnits="userSpaceOnUse" x1="17.756" y1="55.722" x2="34.261" y2="55.722"><stop offset="0" stop-color="#b2b4b7"/><stop offset=".54" stop-color="#626366"/><stop offset="1" stop-color="#231f20"/></linearGradient><path class="st22" d="M30.3 50.4c-2.8 0-4.2 1-6.6 3.8-.1.1-2.7 3-5.9 6.8h.7c3.1-3.6 5.6-6.4 5.6-6.4 2.4-2.8 3.7-3.6 6.2-3.6.4 0 .8.1 1.1.2 3 .9 2.6 4 2.8 5.8v-2c.1-2.8-1.5-4.6-3.9-4.6z"/><linearGradient id="SVGID_20_" gradientUnits="userSpaceOnUse" x1="28.603" y1="70.048" x2="28.433" y2="56.426"><stop offset="0" stop-color="#b2b4b7"/><stop offset=".54" stop-color="#626366"/><stop offset="1" stop-color="#231f20"/></linearGradient><path class="st23" d="M28.8 63.2l-.1-.1c-.1-.2-.3-.4-.5-.5v-4.2c0-.5-.1-.6-.1-.6.4 0 .7.5.7 1.7v3.7c0-.1 0 0 0 0zm.3 13.6c-.1 0-.3-.1-.3-.3v-6.1c-.2.4-.3.8-.5 1.1v1c0 3.6.3 4.3.8 4.3z"/><linearGradient id="SVGID_21_" gradientUnits="userSpaceOnUse" x1="23.639" y1="63.705" x2="30.777" y2="55.228"><stop offset="0" stop-color="#b2b4b7"/><stop offset=".54" stop-color="#626366"/><stop offset="1" stop-color="#231f20"/></linearGradient><path class="st24" d="M28.1 57.1c-.3 0-.6.2-.9.6l-2.9 3.4c.2 0 .4 0 .6.1l2.7-3.1c.2-.3.4-.4.5-.4.5 0 .7.6.7 1.9v-1.3c0-1-.4-1.2-.7-1.2z"/><linearGradient id="SVGID_22_" gradientUnits="userSpaceOnUse" x1="4.118" y1="77.853" x2="26.299" y2="62.782"><stop offset="0" stop-color="#b2b4b7"/><stop offset=".54" stop-color="#626366"/><stop offset="1" stop-color="#231f20"/></linearGradient><path class="st25" d="M8.4 71.7c-.2.2-.3.4-.5.5h-.4c-.6 0-1.2 0-1.7.1-1.3.2-2.6.7-4.1 2.3l.6-.7c1.8-2.1 3.1-2.2 5.2-2.2h.9zm15.1-4.6c.2.4.1 1.1-.3 1.9-1.3 2.4-2.9 2.7-4.1 2.7h-3.3l-.5.5H19c1.6 0 3.3-.6 4.6-3 .1-.3.3-.5.4-.8 0-.6-.2-1-.5-1.3z"/><linearGradient id="SVGID_23_" gradientUnits="userSpaceOnUse" x1="29.178" y1="64.967" x2="3.24" y2="65.911"><stop offset="0" stop-color="#b2b4b7"/><stop offset=".54" stop-color="#626366"/><stop offset="1" stop-color="#231f20"/></linearGradient><path class="st26" d="M22.1 66.1H14c-3.1 0-5.1-.8-6-2.4-.2-.4-.3-.8-.4-1.2.3 2.2 1.9 3.6 4.2 4 .6.1 1.4.1 2.1.1H22c.5 0 1.1.1 1.3.5.3.3.5.8.5 1.4.5-1.2.3-2.4-1.7-2.4z"/><linearGradient id="SVGID_24_" gradientUnits="userSpaceOnUse" x1="7.029" y1="58.447" x2="29.993" y2="58.447"><stop offset="0" stop-color="#b2b4b7"/><stop offset=".54" stop-color="#626366"/><stop offset="1" stop-color="#231f20"/></linearGradient><path class="st27" d="M29.9 50.4h-9.2c-2 0-5.1.2-8.3 2.3-3.7 2.5-6.7 7.6-4.9 11.1.7 1.4 2.2 2.3 4.3 2.6-2.4-.4-3.9-1.8-4.2-4-.6-3.1 2-7.1 5.1-9.2 3-2 6-2.2 8-2.2h6.7c.8-.4 1.6-.5 2.5-.6.1.1 0 0 0 0z"/><linearGradient id="SVGID_25_" gradientUnits="userSpaceOnUse" x1="12.917" y1="57.539" x2="22.551" y2="57.539"><stop offset="0" stop-color="#b2b4b7"/><stop offset=".54" stop-color="#626366"/><stop offset="1" stop-color="#231f20"/></linearGradient><path class="st28" d="M17.6 56.1c.3-.1.6-.1.9-.1h3.6l.5-.5h-4c-2.8 0-5.2 2.4-5.6 4 1-2.2 2.8-3.1 4.6-3.4z"/><linearGradient id="SVGID_26_" gradientUnits="userSpaceOnUse" x1="32.042" y1="67.478" x2="7.937" y2="57.785"><stop offset="0" stop-color="#b2b4b7"/><stop offset=".54" stop-color="#626366"/><stop offset="1" stop-color="#231f20"/></linearGradient><path class="st29" d="M28.7 63c-1-1.4-2.9-2-6-2h-7.4c-.7 0-1.2-.1-1.6-.3-.2-.2-.3-.4-.3-.7 0-1.2 1.8-3.4 4.2-3.8-1.8.3-3.6 1.1-4.7 3.4v.4c0 .5.2.8.6 1.1.4.3 1 .4 1.9.4h7.4c2.6 0 4.5.5 5.4 1.7 1.8 1.8 1.6 4.9.1 8.3.2-.3.4-.7.5-1.1 1.7-3.9.7-6.3-.1-7.4z"/><linearGradient id="SVGID_27_" gradientUnits="userSpaceOnUse" x1="21.377" y1="73.677" x2="29.011" y2="62.054"><stop offset="0" stop-color="#b2b4b7"/><stop offset=".54" stop-color="#626366"/><stop offset="1" stop-color="#231f20"/></linearGradient><path class="st30" d="M28.2 63.2l.1.1c1 1.4 1.4 3.7 0 6.8-1.2 2.8-2.7 4.4-4.4 5.3-2.3 1.3-4.4 1.7-10.4 1.8h2.2c4.9 0 9.6 0 12.6-5.8 1.5-3.2 1.7-6.3-.1-8.2z"/><linearGradient id="SVGID_28_" gradientUnits="userSpaceOnUse" x1="11.946" y1="76.461" x2="11.783" y2="71.876"><stop offset="0" stop-color="#b2b4b7"/><stop offset=".54" stop-color="#626366"/><stop offset="1" stop-color="#231f20"/></linearGradient><path class="st31" d="M4 76.8H.6l2.2-2.6c1.1-1.3 2-1.7 3.1-1.9-1.3.2-2.6.7-4.1 2.3L.2 76.4c-.2.2-.2.4-.2.6.1.2.3.3.5.3H13.4c6-.1 8.2-.5 10.4-1.8-2.3 1.2-5 1.3-8.2 1.3H4z"/><linearGradient id="SVGID_29_" gradientUnits="userSpaceOnUse" x1="10.119" y1="76.288" x2="14.81" y2="64.971"><stop offset="0" stop-color="#b2b4b7"/><stop offset=".54" stop-color="#626366"/><stop offset="1" stop-color="#231f20"/></linearGradient><path class="st32" d="M10.5 76.8l8.9-10.2h.7l-8.9 10.2h-.7zm-5.8 0s4.3-5 8.9-10.2h-.7c-4.4 5.1-8.5 9.8-8.6 9.9l-.3.3h.7z"/><path class="st33" d="M23.5 75.5"/><g><path class="st1" d="M19.4 66.6l-8.9 10.2H4.7s4.3-5 8.9-10.2H19.4zM30.3 51c-2.5 0-3.8.8-6.2 3.6 0 0-2.5 2.8-5.6 6.4h4.3c.5 0 1 0 1.5.1l2.9-3.4c.3-.4.7-.6.9-.6.3 0 .7.2.7 1.2v4.9c.7 1.1 1.6 3.4 0 7.2v6.1c0 .1.1.3.3.3h4.4c.1 0 .3-.1.3-.3V55c-.1-2.4-1.2-4-3.5-4z"/><path class="st1" d="M28.3 70.2c-2.7 6.3-7 6.6-12.6 6.6h-4.4l4-4.5H19c1.6 0 3.3-.6 4.6-3 .7-1.3 1-3.2-1.4-3.2H14c-3.1 0-5.1-.8-6-2.4-1.6-3.2 1.2-8 4.7-10.4 3-2 6-2.2 8-2.2h6.7c-1.2.6-2.3 1.6-3.7 3.2 0 0-.4.5-1.1 1.3h-4c-3 0-5.6 2.8-5.6 4.5 0 .5.2.8.6 1.1.4.3 1 .4 1.9.4h7.4c2.7 0 4.6.5 5.5 1.8.8 1.3 1.2 3.6-.1 6.8zm-24 6.2c.1-.1 1.5-1.8 3.7-4.2h-.5c-2 0-3.1.1-4.8 2L.5 76.8h3.4l.4-.4z"/></g><linearGradient id="SVGID_30_" gradientUnits="userSpaceOnUse" x1="17.432" y1="49.363" x2="22.921" y2="64.293"><stop offset="0" stop-color="#FFF"/><stop offset=".238" stop-color="#bebebe"/><stop offset=".506" stop-color="#7b7b7b"/><stop offset=".732" stop-color="#4a4a4a"/><stop offset=".903" stop-color="#2c2c2c"/><stop offset="1" stop-color="#212121"/></linearGradient><path class="st34" d="M33.7 55v11c-1.8-1.6-3.5-2.5-4.9-3.4v-4.4c0-1-.4-1.2-.7-1.2-.3 0-.6.2-.9.6L24.3 61c-.5 0-.9-.1-1.5-.1h-4.3c3.1-3.6 5.6-6.4 5.6-6.4 2.4-2.8 3.7-3.6 6.2-3.6 2.3.1 3.4 1.7 3.4 4.1zm-18.4 6.5c-.8 0-1.5-.1-1.9-.4-.4-.3-.6-.6-.6-1.1 0-1.7 2.6-4.5 5.6-4.5h4c.7-.8 1.1-1.3 1.1-1.3 1.4-1.7 2.5-2.7 3.7-3.2h-6.7c-2 0-4.9.2-8 2.2-3.1 2.1-5.7 6.1-5.1 9.2.2.5 1.7 3.9 7.8 1.9l.9-.3c2.7-1 4.9-1.8 7-2.1 1-.1 2.1-.1 2.8-.1-.9-.3-2.1-.4-3.4-.4h-7.2z"/></g></svg>