<svg id="Layer_1" xmlns="http://www.w3.org/2000/svg" viewBox="0 0 128 128"><style>.st0{fill:#fddd20}.st1{fill-rule:evenodd;clip-rule:evenodd;fill:#231f20}.st2,.st3{fill:#020202}.st3{fill-rule:evenodd;clip-rule:evenodd}</style><path class="st0" d="M0 44.9h128v38.3H0z"/><path class="st1" d="M27.8 59.1c-1.4.4-1.5 1.6-2 3l-3.6 8.4h-.3c-.7-1.5-1.5-2.9-2.2-4.2L18 70.5h-.3c-1.6-3.5-3.2-6.9-4.7-10.3-.3-.7-.5-.8-1-.8l-.1-.7h7.3v.5l-.5.1c-.4.1-.7.4-.6.8.5 1.4.7 1.9 1.3 3l1.7-4.2.3-.2.3.2 2.2 4.7.6-1.4c.2-.5.5-1.4.7-2.1.1-.5-.3-.6-.7-.8l-.5-.2v-.5h3.8v.5zm61 3.6v5c0 .8.5 1.2 1.1 1.2.4 0 .7-.4.8-1 .2-.6.2-1.5.2-2.8 0-1.2 0-2.1-.1-2.7-.1-.6-.5-.9-1-.9-.3 0-.6.1-.7.4-.2.2-.3.5-.3.8zm-5.6-4.8c.8-.3 1.5-.5 2.2-.9.8-.4 1.4-.6 2.4-1.1.2-.1.3-.1.5-.1.1 0 .2.1.3.1.1.1.1.4.1.6v3.4c0 .4.2.4.5.4.3-.1.8-.7 1.9-.7 1.6 0 2.8.8 3.4 1.6.7.9 1 2.1 1.1 3.5 0 .8-.1 1.5-.3 2.1-.3.6-.6 1.2-1.1 1.7-.5.5-1.1.9-1.8 1.2-.6.3-1.5.5-2.3.5-.8 0-1.6-.3-2.1-.5-.8-.3-1.2-1.1-1.5-1.1-.3 0-.9 1.2-1.5 1.2-.4 0-.6-.6-.6-1.1v-8.5c0-1.4-.7-1.6-1.1-1.8-.3 0-.3-.4-.1-.5zm-9.7 3.6c.2-.4 1.1-.5 2.6-1 1.3-.4 1.9-.9 3-1.2.2 0 .3 0 .5.1l.3.9h.3c.2-.5.2-.5.7-.8.4-.3.8-.3 1.2-.3.4 0 .9.1 1.2.4.3.3.5.6.5 1.1 0 .4-.1.8-.4 1.1-.2.4-.8.6-1.3.6-.6 0-.8-.1-1.1-.4-.1-.1-.3-.3-.5-.2-.4.1-.6.5-.6 1.2v5c0 .8.6 1.2 1 1.4.2.3 0 .6-.3.6H75c-.3 0-.5-.3-.3-.5.4-.2 1-.7 1-1.4v-4.2c0-.3-.3-1.4-.4-1.5-.2-.2-.9-.2-1.3-.2-.5-.2-.5-.5-.5-.7zm21.7-.1c.2-.4 1.1-.5 2.6-1 1.2-.5 1.9-.9 2.9-1.2.2 0 .5 0 .5.1l.3.9h.3c.3-.5.3-.5.7-.8.4-.3.8-.3 1.2-.3.4 0 .9.1 1.3.4.3.3.5.6.5 1.1 0 .4-.1.8-.4 1.2-.3.4-.8.6-1.3.6-.6 0-.9-.1-1.1-.4-.1-.1-.3-.3-.6-.2-.4 0-.6.5-.6 1.2v4.9c0 .8.6 1.2 1 1.4.2.3 0 .6-.3.6h-5.6c-.3 0-.5-.3-.3-.6.4-.2 1-.7 1-1.3v-4.2c0-.3-.3-1.4-.4-1.5-.3-.3-1-.3-1.4-.3-.3-.1-.3-.4-.3-.6zm-49.8 8.1c.2.2.1.6-.2.6h-5.8c-.3 0-.4-.3-.2-.5s1-.5 1-1.3v-3.7c0-.4-.3-.8-.5-1-.3-.4-.9-.2-1.1-.2-.1 0-.2-.1-.2-.3-.1-.1-.1-.4-.1-.6.4-.2.8-.4 1.3-.5 1.2-.6 2.7-1.4 3.7-1.9.2-.1.4-.2.5-.2.1 0 .5.5.8.9.8-.6 1.7-1 2.9-1 1.1 0 1.9.4 2.4 1.1.5.6.8 1.4.8 2.5v4.8c.1 1 .5 1.2.9 1.5.2.2 0 .6-.2.6h-4.7c-.4-.1-.3-.4-.3-1.4V63c0-.6-.3-1.1-.8-1.1-.4 0-.5.1-.7.3-.3.3-.3.5-.3 1v5.1c-.1.5.3 1 .8 1.2zm70.1-3.9c0 .8 0 1.4.1 1.8.1.3.2.5.4.6.3.1.6.3.6.6s-.2.5-.4.6c-.6.5-1.4.8-2.2.8-.5 0-1.2-.2-1.4-.4-.3-.2-.8-.7-1.1-.7-.1 0-.3.1-.6.3-.6.5-1.8 1-2.5 1-.6 0-1 0-1.6-.3-.8-.4-1.6-1.4-1.6-2.3 0-.5.2-1.2.6-1.7.3-.5 1.1-1.3 1.9-1.6.5-.2 1.5-.7 2.4-1 .8-.4 1.5-.4 1.5-1.6 0-1-.7-1.3-1.4-1.2-.8 0-1.2.3-1.4.6-.4.4.8.5.4 1.8-.1.5-.5.7-.8.9-.3.2-.7.2-1.1.2-.4 0-.8-.3-1-.5-.2-.2-.3-.6-.3-1 0-.6.3-1.3.9-1.8.6-.5 1.2-.8 2-1.1.9-.3 1.7-.4 2.4-.4.9 0 1.7.1 2.5.4.7.3 1.1.7 1.4 1.2.3.5.5 1.5.5 2.3l-.2 2.5zm-4.4-1.3c-.6 0-1.4.9-1.4 1.8 0 1 .4 1.4.8 1.4.7 0 .9-.6.9-1.3v-1.6c.1-.1.1-.2-.3-.3zm-42.9-.1c-.2 0-.3 0-.4.1-.1.1-.2.3-.2.5 0 .8.3 1.1.4 1.4.2.3.4.6.7.8.7.7 1.5.8 2.4.8.5 0 .8-.1 1.3-.3.3-.1.4-.1.5.1 0 .6-.2 1-.7 1.4-.5.4-1.1.7-1.8.9-.7.3-1.4.4-2 .4-1.1 0-2-.3-2.8-.8-.8-.5-1.4-1.2-1.8-2-.4-.8-.6-1.7-.6-2.6 0-1 .3-2 .7-2.8.5-.8 1.1-1.5 2-2 .8-.5 1.7-.7 2.7-.7.8 0 1.5.1 2.2.3.6.2 1.1.5 1.5 1 .6.7.9 1.5.8 2.5 0 .7-.5.7-.8.7l-4.1.3zm.3-3.5c.8 0 1.5.5 1.5 1.3 0 .9-1 1-1.7 1.1-1 0-1-.2-1-.7 0-.7.6-1.7 1.2-1.7zm-6 6c0 1.7.2 2.2.6 2.4.5.2.6.8-.2.9-.9 0-4 .1-4.2 0-.1-.1-.1-.3-.2-.5 0-.1-.1-.1-.2-.1s-.3.1-.5.3l-.9.6c-.3.2-.7.3-1.2.3-.6 0-1.3-.1-1.8-.4-.5-.3-1-.7-1.4-1.2-.4-.5-.6-1.1-.9-1.8-.2-.6-.3-1.3-.3-1.9 0-.9.3-1.8.6-2.6.4-.8.9-1.5 1.6-2.1.7-.5 1.2-.8 2.2-.8.5 0 1.1 0 1.7.2.6.2.6-.5.5-.8-.2-.3-.5-.4-.9-.5-.3-.1-.4-.5-.2-.7 1-.4 2.8-1 4.8-1.8.3-.1.4-.1.5.1.2.2.2.5.2.9v9.5h.2zM57 61.4c.6 0 1 .5 1 1v5c0 .6-.5 1-1 1-.6 0-1-.5-1-1v-5c0-.5.5-1 1-1zm-25-1.9c3.4 0 6.2 2.5 6.2 5.7 0 3.1-2.8 5.7-6.2 5.7-3.4 0-6.2-2.6-6.2-5.7s2.8-5.7 6.2-5.7zm0 1.4c.7 0 1.3.6 1.3 1.3v6.1c0 .7-.6 1.3-1.3 1.3-.7 0-1.3-.6-1.3-1.3v-6.1c.1-.8.6-1.3 1.3-1.3z"/><path class="st2" d="M116.8 60.8c-.6 0-1.1-.5-1.1-1.1 0-.6.5-1.1 1.1-1.1.6 0 1.1.5 1.1 1.1 0 .6-.5 1.1-1.1 1.1zm0-2c-.5 0-.9.4-.9.9s.4.9.9.9.9-.4.9-.9-.4-.9-.9-.9z"/><path class="st3" d="M116.5 59.2h.3c.2 0 .4 0 .4.3 0 .2-.1.3-.3.3l.3.5h-.2l-.3-.5h-.2v.5h-.1v-1.1h.1zm.1.5h.1c.1 0 .3 0 .3-.2s-.1-.2-.3-.2h-.2v.4h.1z"/></svg>