<svg id="Layer_1" xmlns="http://www.w3.org/2000/svg" viewBox="0 0 128 128"><style>.st0{fill:#e3000b}.st1,.st2{fill:#FFF}.st2{fill-rule:evenodd;clip-rule:evenodd}</style><path class="st0" d="M0 0h128v128H0z"/><path class="st1" d="M28.5 108.9V89.4h3.8v16.1h6.1v3.4h-9.9zM41.2 93.4c1.9-2.8 4.9-4.4 8.4-4.4 2.6 0 5.1 1 7 2.9 2 1.9 3 4.4 3 7.1 0 2.8-1 5.3-2.8 7.2-1.9 2-4.5 3.1-7.2 3.1-2.9 0-5.4-1-7.3-3.1-1.8-1.9-2.8-4.4-2.8-7.1 0-2.2.5-4.1 1.7-5.7zm3.9 9.9c1.2 1.3 2.8 2 4.4 2 3.3 0 6-2.6 6-6.4 0-3.3-2.7-6-6-6-3.4 0-6.1 2.7-6.1 6 .1 1.7.6 3.2 1.7 4.4zM66.9 108.9l-7-19.5H64l4.3 13 4.3-13h4.1l-7 19.5h-2.8zM78.4 108.9V89.4h10.5v3.4h-6.8v4.5h6.8v3.4h-6.8v4.8h6.8v3.4H78.4zM95.1 102.8v.3c0 1.7 1 2.7 2.4 2.7 1.5 0 2.5-1 2.5-2.6 0-2.1-1.2-2.2-3.3-2.9-3-.9-4.5-2.6-4.5-5.3 0-3.7 2.2-6.1 5.6-6.1 3.2 0 5.1 2.1 5.4 5.6h-3.5v-.2c0-1.3-.8-2.1-2-2.1s-2 .8-2 2.2c0 .6.1 1 .5 1.3.8.9 2.1 1 3.6 1.5 2.7.9 3.9 2.6 3.9 5.2 0 4-2.4 6.7-6.1 6.7-3.5 0-5.8-2.5-5.9-6.5h3.4z"/><path class="st2" d="M39.4 53.1c2.7 8 6.1 17.1 15.8 16.4-.7-6.8.8-15.8 6.2-16.7 4.1-.7 5.8 2.5 5.9 6.2.2 6-4.3 11.7-7.7 13.3 1.4 1.1 2.7 1.6 4.9 1.2 9.3-1.3 6.4-18.8 18.9-17.6-.9-6-1.9-13.8-.9-21.6.3-2.5 1.6-7.8 3.6-8 4.5-.5 3.7 11.6 3.5 16.4-.3 6.9-1.5 12-2.9 17 1.1 2.4 1.8 6.4 3.5 6.5 3.7.2 3.8-5.8 5.6-5.3 3 1.1-5.8 16.6-10.6 3.8-.4 6.2-11.2 22-13.5 7.3-2.5 1.9-4.3 7-11.4 5.6-1.9-.4-2.5-2.5-4-4-3.7.8-7.3 0-9.9-1.9-5.7-4.2-10.9-19.1-9-22.9 11.4 1.4 19.5-5.6 19.5-16.1 0-6.2-3.9-13.2-10.5-11.7-9.8 2-12.5 22.3-11.3 36.1.4 4.7.4 9.1.9 13.3.5 4.1 2.5 10.8.3 11.7-1.9.6-2.4-7.6-2.8-12.1-1.8-18.3-2.8-44.8 9.9-52.2 9.9-5.8 16.5 7 15.2 17-1.5 10.4-7 19.3-19.2 18.3zm46.1 2.1c1.8-6.7 3.1-16.8 1.2-24.4-.4 0-.7-.1-.9-.3-2.8 5.9-1.7 18.1-.3 24.7zM57.6 68.8c4.1-1.8 8.9-5.6 6.8-11.4-5.9-2.6-8.8 6-6.8 11.4zm17 4.7c6.9-.6 7.2-7.9 9.6-13-8.1-2.2-12.9 6.6-9.6 13z"/></svg>