<svg id="Layer_1" xmlns="http://www.w3.org/2000/svg" viewBox="0 0 128 128"><style>.st0{fill:#b2b3b5}.st1{fill:#fff}</style><circle class="st0" cx="64" cy="64" r="64"/><path class="st1" d="M41.5 39.6h3.4L53.2 53h.1V39.6h3v18.2h-3.4l-8.3-13.4h-.1v13.4h-3V39.6zm24.2 18.6c-1.1 0-2-.2-2.8-.5-.8-.3-1.5-.8-2.1-1.4-.6-.6-1-1.3-1.3-2.2-.3-.9-.4-1.8-.4-2.8 0-1 .1-1.9.4-2.8.3-.9.7-1.6 1.3-2.2.6-.6 1.3-1.1 2.1-1.4.8-.3 1.8-.5 2.8-.5 1.1 0 2 .2 2.8.5.8.3 1.5.8 2.1 1.4.6.6 1 1.3 1.3 2.2.3.9.4 1.8.4 2.8 0 1-.1 2-.4 2.8-.3.9-.7 1.6-1.3 2.2-.6.6-1.3 1.1-2.1 1.4-.8.3-1.7.5-2.8.5zm0-2.3c.6 0 1.2-.1 1.7-.4.5-.3.9-.6 1.2-1.1.3-.4.5-.9.7-1.5.1-.6.2-1.1.2-1.7 0-.6-.1-1.1-.2-1.7-.1-.6-.4-1.1-.7-1.5-.3-.4-.7-.8-1.2-1.1-.5-.3-1-.4-1.7-.4-.6 0-1.2.1-1.7.4-.5.3-.9.6-1.2 1.1-.3.4-.5.9-.7 1.5-.1.6-.1 1.1-.1 1.7 0 .6.1 1.1.2 1.7.1.6.4 1.1.7 1.5.3.4.7.8 1.2 1.1.4.2 1 .4 1.6.4zm9.1-11.3h2.8v1.9l.1.1c.4-.7 1-1.3 1.7-1.7.7-.4 1.5-.6 2.4-.6 1.4 0 2.6.4 3.4 1.1.8.7 1.3 1.9 1.3 3.4v9.1h-2.9v-8.3c0-1-.3-1.8-.7-2.3-.4-.5-1-.7-1.9-.7-.5 0-.9.1-1.3.3-.4.2-.7.4-1 .7-.3.3-.5.7-.6 1.1-.2.4-.2.9-.2 1.4v7.8H75V44.6zM43 72.1h3.2v18.2H43V72.1zm6.7 5h2.7v2.6h.1c.1-.4.3-.7.5-1 .2-.3.5-.7.9-.9.3-.3.7-.5 1.2-.7.4-.2.9-.3 1.3-.3h.7c.1 0 .3 0 .4.1v2.8c-.2 0-.4-.1-.6-.1h-.6c-.5 0-1 .1-1.4.3-.4.2-.8.5-1.1.9-.3.4-.6.9-.8 1.4-.2.6-.3 1.2-.3 1.9v6.3h-2.9V77.1zm14.6 13.6c-1.1 0-2-.2-2.8-.5-.8-.3-1.5-.8-2.1-1.4-.6-.6-1-1.3-1.3-2.2-.3-.9-.4-1.8-.4-2.8 0-1 .1-1.9.4-2.8.3-.9.7-1.6 1.3-2.2.6-.6 1.3-1.1 2.1-1.4.8-.3 1.8-.5 2.8-.5 1.1 0 2 .2 2.8.5.8.3 1.5.8 2.1 1.4.6.6 1 1.3 1.3 2.2.3.9.4 1.8.4 2.8 0 1-.1 2-.4 2.8-.3.9-.7 1.6-1.3 2.2-.6.6-1.3 1.1-2.1 1.4-.8.3-1.7.5-2.8.5zm0-2.3c.6 0 1.2-.1 1.7-.4.5-.3.9-.6 1.2-1.1.3-.4.5-.9.7-1.5.1-.6.2-1.1.2-1.7 0-.6-.1-1.1-.2-1.7-.1-.6-.4-1.1-.7-1.5-.3-.4-.7-.8-1.2-1.1-.5-.3-1-.4-1.7-.4-.6 0-1.2.1-1.7.4-.5.3-.9.6-1.2 1.1-.3.4-.5.9-.7 1.5-.1.6-.2 1.1-.2 1.7 0 .6.1 1.1.2 1.7.1.6.4 1.1.7 1.5.3.4.7.8 1.2 1.1.5.2 1.1.4 1.7.4zm9.1-11.3h2.8V79l.1.1c.4-.7 1-1.3 1.7-1.7.7-.4 1.5-.6 2.4-.6 1.4 0 2.6.4 3.4 1.1.8.7 1.3 1.9 1.3 3.4v9.1h-2.9V82c0-1-.3-1.8-.7-2.3-.4-.5-1-.7-1.9-.7-.5 0-.9.1-1.3.3-.4.2-.7.4-1 .7-.3.3-.5.7-.6 1.1-.2.4-.2.9-.2 1.4v7.8h-2.9V77.1z"/></svg>