<svg id="Layer_1" xmlns="http://www.w3.org/2000/svg" viewBox="0 0 128 128"><style>.st0{fill-rule:evenodd;clip-rule:evenodd;fill:#fff}.st1{fill:#383838}</style><path class="st0" d="M0 25.7h128v76.6H0z"/><path class="st1" d="M46 63.8c-.8 0-1.6.1-2.3.3-.7.2-1.3.5-1.8.9s-1 1-1.4 1.8c-.4.8-.8 1.7-1.1 2.9H39v-6.3h21.5v6.3H60c-.3-1.2-.7-2.1-1.1-2.9-.4-.8-.9-1.3-1.4-1.8-.5-.4-1.1-.7-1.8-.9-.7-.2-1.4-.3-2.3-.3h-1.2v23.4h3.2v.5H44.1v-.5h3.1V63.8H46zm26.7-.5v.5h-3.3l7.1 18.5 7.2-18.5h-3.1v-.5h6.5v.5h-2.9l-9.7 24.8h-1l-9.4-24.8h-2.9v-.5h11.5z"/><path d="M17.6 41.1h2.3l4.7 12.2h-2.3l-1.1-3.2h-4.9l-1.1 3.2H13l4.6-12.2zm-.8 7.4h3.7l-1.8-5.3h-.1l-1.8 5.3zm10.3.8c0 .5.1.9.2 1.2.2.3.4.6.7.8.3.2.6.4 1 .5.4.1.8.1 1.2.1.5 0 .9-.1 1.2-.2.3-.1.6-.2.8-.4.2-.2.4-.4.4-.6.1-.2.1-.4.1-.7 0-.5-.1-.8-.3-1-.2-.2-.4-.4-.7-.5-.4-.2-.9-.3-1.5-.5-.6-.1-1.3-.3-2.1-.6-.5-.1-1-.3-1.3-.5-.3-.2-.6-.5-.8-.7-.2-.3-.4-.6-.4-.9-.1-.3-.1-.6-.1-.9 0-.6.1-1.1.4-1.6.3-.5.6-.8 1-1.1.4-.3.9-.5 1.4-.7.5-.1 1.1-.2 1.6-.2.6 0 1.2.1 1.8.2.6.2 1.1.4 1.5.7.4.3.8.7 1 1.2.3.5.4 1 .4 1.7h-2.1c-.1-.8-.3-1.3-.8-1.7-.5-.3-1.1-.5-1.8-.5-.3 0-.5 0-.8.1-.3.1-.5.1-.7.3-.2.1-.4.3-.5.5-.1.2-.2.5-.2.8 0 .4.1.8.4 1 .3.2.6.4 1.1.6 0 0 .2.1.5.1.3.1.7.2 1.1.3.4.1.8.2 1.1.3.4.1.6.2.8.2.4.1.7.3 1 .5.3.2.5.5.7.7.2.3.3.6.4.9.1.3.1.6.1 1 0 .7-.1 1.3-.4 1.8-.3.5-.6.9-1.1 1.2-.5.3-1 .5-1.6.7-.6.1-1.2.2-1.8.2-.7 0-1.4-.1-2-.3-.6-.2-1.2-.4-1.6-.8-.5-.4-.8-.8-1.1-1.4-.3-.6-.4-1.2-.4-2h2.2zm15.9 0c0 .5.1.9.2 1.2.2.3.4.6.7.8.3.2.6.4 1 .5.4.1.8.1 1.2.1.5 0 .9-.1 1.2-.2.3-.1.6-.2.8-.4.2-.2.4-.4.4-.6.1-.2.1-.4.1-.7 0-.5-.1-.8-.3-1-.2-.2-.4-.4-.7-.5-.4-.2-.9-.3-1.5-.5-.6-.1-1.3-.3-2.1-.6-.5-.1-1-.3-1.3-.5-.3-.2-.6-.5-.8-.7-.2-.3-.4-.6-.4-.9-.1-.3-.1-.6-.1-.9 0-.6.1-1.1.4-1.6.3-.5.6-.8 1-1.1.4-.3.9-.5 1.4-.7.5-.1 1.1-.2 1.6-.2.6 0 1.2.1 1.8.2.6.2 1.1.4 1.5.7.4.3.8.7 1 1.2.3.5.4 1 .4 1.7h-2.1c-.1-.8-.3-1.3-.8-1.7-.5-.3-1.1-.5-1.8-.5-.3 0-.5 0-.8.1-.3.1-.5.1-.7.3-.2.1-.4.3-.5.5-.1.2-.2.5-.2.8 0 .4.1.8.4 1 .3.2.6.4 1.1.6 0 0 .2.1.5.1.3.1.7.2 1.1.3.4.1.8.2 1.1.3.4.1.6.2.8.2.4.1.7.3 1 .5.3.2.5.5.7.7.2.3.3.6.4.9.1.3.1.6.1 1 0 .7-.1 1.3-.4 1.8-.3.5-.6.9-1.1 1.2-.5.3-1 .5-1.6.7-.6.1-1.2.2-1.8.2-.7 0-1.4-.1-2-.3-.6-.2-1.2-.4-1.6-.8-.5-.4-.8-.8-1.1-1.4-.3-.6-.4-1.2-.4-2H43zm9.7-8.2h8.8V43h-6.7v3.2H61v1.7h-6.2v3.6h6.8v1.8h-8.9V41.1zm10.7 0h8.8V43h-6.7v3.2h6.2v1.7h-6.2v3.6h6.8v1.8h-8.9V41.1zm10.7 0h2.3l5.6 9v-9h2v12.2h-2.3l-5.6-9H76v9h-2V41.1zm22.4-.3c.9 0 1.7.2 2.5.5.7.3 1.3.8 1.8 1.4.5.6.9 1.3 1.2 2s.4 1.6.4 2.5c0 .9-.1 1.7-.4 2.5-.3.8-.7 1.5-1.2 2-.5.6-1.1 1-1.8 1.4-.7.3-1.5.5-2.5.5-.9 0-1.7-.2-2.5-.5-.7-.3-1.3-.8-1.8-1.4-.5-.6-.9-1.3-1.2-2-.3-.8-.4-1.6-.4-2.5 0-.9.1-1.7.4-2.5.3-.8.7-1.5 1.2-2 .5-.6 1.1-1 1.8-1.4.8-.3 1.6-.5 2.5-.5zm0 1.8c-.6 0-1.2.1-1.7.4-.5.3-.9.6-1.2 1.1-.3.4-.5.9-.7 1.5-.1.6-.2 1.1-.2 1.7 0 .6.1 1.2.2 1.7.1.6.4 1.1.7 1.5.3.4.7.8 1.2 1.1.5.3 1 .4 1.7.4s1.2-.1 1.7-.4c.5-.3.9-.6 1.2-1.1.3-.4.5-.9.7-1.5.1-.6.2-1.1.2-1.7 0-.6-.1-1.2-.2-1.7-.1-.6-.4-1.1-.7-1.5-.3-.4-.7-.8-1.2-1.1-.4-.3-1-.4-1.7-.4zm7.8-1.5h2.3l5.6 9v-9h2v12.2h-2.3l-5.6-9h-.1v9h-2V41.1z"/></svg>