<svg id="Layer_1" xmlns="http://www.w3.org/2000/svg" viewBox="0 0 128 128"><style>.st0{fill:#b2b3b5}.st1{fill:#FFF}</style><ellipse class="st0" cx="64" cy="64" rx="64" ry="64"/><path class="st1" d="M36 39.1c1.4 0 2.6.3 3.7.8s2 1.2 2.7 2.1c.8.9 1.3 1.9 1.7 3 .4 1.2.6 2.4.6 3.7 0 1.3-.2 2.5-.6 3.7-.4 1.2-1 2.2-1.7 3-.7.9-1.7 1.6-2.7 2.1-1.1.5-2.3.8-3.7.8-1.4 0-2.6-.3-3.7-.8s-2-1.2-2.7-2.1c-.7-.9-1.3-1.9-1.7-3-.4-1.2-.6-2.4-.6-3.7 0-1.3.2-2.5.6-3.7.4-1.2 1-2.2 1.7-3 .7-.9 1.7-1.6 2.7-2.1 1.1-.5 2.3-.8 3.7-.8zm0 2.6c-1 0-1.8.2-2.5.6-.7.4-1.3.9-1.7 1.6-.4.7-.8 1.4-1 2.2-.2.8-.3 1.7-.3 2.6 0 .9.1 1.7.3 2.6.2.8.5 1.6 1 2.2.4.7 1 1.2 1.7 1.6.7.4 1.5.6 2.5.6s1.8-.2 2.5-.6c.7-.4 1.3-.9 1.7-1.6.4-.7.8-1.4 1-2.2.2-.8.3-1.7.3-2.6 0-.9-.1-1.7-.3-2.6-.2-.8-.5-1.6-1-2.2-.4-.7-1-1.2-1.7-1.6-.7-.4-1.6-.6-2.5-.6zM47.2 44.6H50v2c.4-.7 1-1.3 1.7-1.7.7-.4 1.5-.6 2.4-.6 1.4 0 2.6.4 3.4 1.1.8.7 1.2 1.9 1.2 3.4v9.1h-2.9v-8.3c0-1-.3-1.8-.7-2.3-.4-.5-1-.7-1.9-.7-.5 0-.9.1-1.3.3-.4.2-.7.4-1 .7-.3.3-.5.7-.6 1.1-.2.4-.2.9-.2 1.4v7.8h-2.9V44.6zM61.9 39.6h2.9v18.2h-2.9V39.6zM68.1 39.6H71v2.8h-2.9v-2.8zm0 5H71v13.2h-2.9V44.6zM74.2 44.6H77v1.9l.1.1c.4-.7 1-1.3 1.7-1.7.7-.4 1.5-.6 2.4-.6 1.4 0 2.6.4 3.4 1.1.8.7 1.3 1.9 1.3 3.4v9.1H83v-8.3c0-1-.3-1.8-.7-2.3-.4-.5-1-.7-1.9-.7-.5 0-.9.1-1.3.3-.4.2-.7.4-1 .7-.3.3-.5.7-.6 1.1-.2.4-.2.9-.2 1.4v7.8h-2.9V44.6zM91.1 51.9c0 .5.1 1 .2 1.5s.4.9.7 1.3c.3.4.7.6 1.1.9.4.2 1 .3 1.6.3.9 0 1.5-.2 2.1-.5.5-.4.9-.9 1.2-1.6h2.8c-.2.7-.4 1.4-.8 1.9-.4.6-.8 1-1.4 1.4-.5.4-1.1.7-1.8.9-.7.2-1.3.3-2.1.3-1 0-2-.2-2.8-.5-.8-.3-1.5-.8-2-1.4-.6-.6-1-1.3-1.3-2.2-.3-.9-.4-1.8-.4-2.8 0-.9.1-1.8.4-2.7.3-.8.7-1.6 1.3-2.2.6-.6 1.2-1.1 2-1.5.8-.4 1.7-.6 2.7-.6 1 0 2 .2 2.8.7.8.4 1.5 1 2.1 1.7.5.7.9 1.5 1.2 2.5.2.9.3 1.9.2 2.9h-9.8zm6.8-1.9c0-.5-.1-.9-.3-1.3-.2-.4-.4-.8-.7-1.1-.3-.3-.6-.6-1-.8-.4-.2-.8-.3-1.3-.3s-1 .1-1.4.3c-.4.2-.8.4-1.1.7s-.5.7-.7 1.1c-.2.4-.3.9-.3 1.4h6.8zM12.9 84h2L18 70.5h-2.3l.4-1.7h12.2l-1 4.1h-1.8l.6-2.5h-6.2l-1.3 5.8H24l-.4 1.6h-5.4L16.8 84H23l.6-2.5h1.8l-.9 4.1h-12l.4-1.6zM27.4 84.5c0-.7.6-1.3 1.2-1.3s1 .4 1.1.9c.5-.1 1.1-.8 2-2l1.4-2-1.5-3.8h-2.2l.4-1.6h2.9l1.4 4 1.1-1.7c1-1.6 2.1-2.5 3.3-2.5 1 0 1.7.7 1.7 1.4s-.6 1.2-1.2 1.2-1-.4-1.1-.8c-.4.1-1 .7-1.7 1.8L34.9 80l1.3 3.1c.5 1.3.8 1.5 1.1 1.5.3 0 .7-.4 1.1-1.7l.9.3c-.5 2-1.4 2.7-2.4 2.7s-1.6-.6-2.2-2l-.9-2.5-1.4 2c-1.2 1.8-2.2 2.5-3.4 2.5-1-.1-1.6-.7-1.6-1.4zM41.2 81.2c0-3.4 2.8-6.6 6.2-6.6 2.6 0 3.9 1.6 3.9 2.9 0 .8-.6 1.5-1.4 1.5-.5 0-1.1-.4-1.1-1.1 0-.3.2-.7.5-.9-.4-.5-1-.8-2-.8-2.2 0-4.4 2.1-4.4 4.9 0 1.9 1.3 3.2 3.3 3.2 1.3 0 2.6-.5 3.6-1.4v1.7c-1.1.8-2.3 1.3-3.8 1.3-2.7 0-4.8-1.8-4.8-4.7zM53.3 83.8c0-.3.1-.7.2-1.1l3.3-14.2h-2l.4-1.5H59l-3.7 15.7c-.1.4-.2.8-.2 1.1 0 .5.3.8.7.8.5 0 1-.4 1.5-1.7l.9.3c-.6 1.8-1.5 2.7-2.8 2.7-1.3-.1-2.1-.9-2.1-2.1zM64.6 74.8l-1.8 6.8c-.1.4-.2.8-.2 1.2 0 .9.6 1.6 1.7 1.6 1.5 0 3.1-1.4 3.8-4l1.4-5.6h1.8l-2 7.9c-.1.4-.2.8-.2 1.1 0 .5.3.8.7.8.5 0 .9-.4 1.5-1.7l.9.3c-.6 1.8-1.6 2.7-2.8 2.7-1.2 0-2-.8-2-2.1v-.5c-.9 1.5-2.2 2.6-3.8 2.6-1.6 0-2.9-1.1-2.9-2.8 0-.6.1-1.1.2-1.6l1.3-5.1h-2l.4-1.6h4zM74.2 84.4c-.4-.4-.6-.9-.6-1.4 0-.7.5-1.3 1.2-1.3s1.1.5 1.1 1.1c0 .3-.1.6-.3.8.1.1.2.2.4.3.5.3 1.3.5 2.2.5 1.2 0 2.2-.5 2.2-1.5s-1.1-1.5-2.2-2.1c-1.6-.7-3-1.5-3-3.1 0-1.7 1.5-3.1 3.9-3.1 1.4 0 2.7.5 3.3 1.2.4.4.6.8.6 1.3 0 .8-.5 1.3-1.1 1.3-.6 0-1.1-.5-1.1-1.1 0-.3.1-.5.3-.8-.1-.1-.1-.1-.4-.2-.4-.2-1-.3-1.6-.3-1.3 0-2.1.6-2.1 1.4 0 .9 1 1.4 2.3 2 1.5.7 3 1.5 3 3.2 0 2.1-1.8 3.2-4.1 3.2-1.7 0-3.1-.5-4-1.4zM85.4 83.8c0-.3.1-.8.2-1.2l1.7-6.3h-2.1l.4-1.6h3.9l-2.1 7.9c-.1.4-.2.8-.2 1.1 0 .5.3.8.7.8.5 0 1-.4 1.5-1.7l.9.3c-.6 1.8-1.5 2.7-2.8 2.7-1.3 0-2.1-.8-2.1-2zm2.3-12.4c0-.7.6-1.3 1.3-1.3.7 0 1.3.6 1.3 1.3s-.6 1.3-1.3 1.3c-.8 0-1.3-.6-1.3-1.3zM93.8 76.3h-2l.4-1.6h3.2l1.3 9c2-2.2 3.6-4.8 4.1-6.5-.5-.2-1-.6-1-1.3 0-.8.6-1.4 1.4-1.4.8 0 1.5.6 1.5 1.8 0 2.1-2.7 6.2-6.1 9.7h-1l-1.8-9.7zM106.1 80.8v.5c0 1.9 1.6 3 3.5 3 1.2 0 2.2-.3 3.6-1l-.4 1.7c-1.2.6-2.1.8-3.6.8-2.6 0-4.9-1.6-4.9-4.6 0-3.7 2.8-6.7 6-6.7 2.5 0 4.2 1.5 4.2 4 0 .7-.1 1.4-.4 2.2h-8zm.2-1.4h6.3c.1-.3.2-.7.2-1.1 0-1.2-.8-2.2-2.6-2.2-1.7 0-3.2 1.4-3.9 3.3z"/></svg>