<svg id="Layer_1" xmlns="http://www.w3.org/2000/svg" viewBox="0 0 128 128"><style>.st0{fill:#e3000b}.st1,.st2{fill:#FFF}.st2{fill-rule:evenodd;clip-rule:evenodd}</style><path class="st0" d="M0 0h128v128H0z"/><path class="st1" d="M9 33.1H5.8l6.1-15.7h2.6l6 15.7h-3.3L16 29.8h-5.8L9 33.1zm4.1-11.2l-1.9 5H15l-1.9-5zM24.5 28.2v.2c0 1.3.8 2.2 1.9 2.2 1.2 0 2-.8 2-2 0-1.7-.9-1.8-2.6-2.3-2.4-.7-3.6-2.1-3.6-4.3 0-3 1.8-4.9 4.5-4.9 2.5 0 4.1 1.7 4.3 4.5h-2.8v-.1c0-1-.7-1.7-1.6-1.7-1 0-1.6.7-1.6 1.8 0 .4.1.8.4 1.1.6.7 1.7.8 2.9 1.2 2.1.7 3.1 2 3.1 4.2 0 3.2-2 5.4-4.9 5.4-2.8 0-4.7-2-4.7-5.2h2.7zM43.3 28.2v.2c0 1.3.8 2.2 1.9 2.2 1.2 0 2-.8 2-2 0-1.7-.9-1.8-2.6-2.3-2.4-.7-3.6-2.1-3.6-4.3 0-3 1.8-4.9 4.5-4.9 2.5 0 4.1 1.7 4.3 4.5H47v-.1c0-1-.7-1.7-1.6-1.7-1 0-1.6.7-1.6 1.8 0 .4.1.8.4 1.1.6.7 1.7.8 2.9 1.2 2.1.7 3.1 2 3.1 4.2 0 3.2-2 5.4-4.9 5.4-2.8 0-4.7-2-4.7-5.2h2.7zM52.8 33.1V17.5h8.5v2.8h-5.4v3.6h5.4v2.7h-5.4v3.9h5.4v2.8h-8.5zM64.7 33.1V17.5h8.5v2.8h-5.4v3.6h5.4v2.7h-5.4v3.9h5.4v2.8h-8.5zM76.6 33.1V17.5h2.9l6.5 10v-10h3v15.7h-2.8l-6.5-10.3v10.3h-3.1zM99.9 17.5h3.1v15.7h-3.1V17.5zM106.4 33.1V17.5h2.9l6.5 10v-10h3v15.7H116l-6.5-10.3v10.3h-3.1z"/><path class="st2" d="M38.7 80c2.7 8 6.1 17.1 15.8 16.4-.7-6.8.8-15.8 6.2-16.7 4.1-.7 5.8 2.5 5.9 6.2.2 6-4.3 11.7-7.7 13.3 1.4 1.1 2.7 1.6 4.9 1.2 9.3-1.3 6.4-18.8 18.9-17.6-.9-6-1.9-13.8-.9-21.6.3-2.5 1.6-7.8 3.6-8 4.5-.5 3.7 11.6 3.5 16.4-.3 6.9-1.5 12-2.9 17 1.1 2.4 1.8 6.4 3.5 6.5 3.7.2 3.8-5.8 5.6-5.3 3 1.1-5.8 16.6-10.6 3.8-.4 6.2-11.2 22-13.5 7.3-2.5 1.9-4.3 7-11.4 5.6-1.9-.4-2.5-2.5-4-4-3.7.8-7.3 0-9.9-1.9-5.7-4.2-10.9-19.1-9-22.9C48 77.1 56.1 70.1 56 59.6c0-6.2-3.9-13.2-10.5-11.7C35.9 50 33.3 70.3 34.4 84c.4 4.7.4 9.1.9 13.3.5 4.1 2.5 10.8.3 11.7-1.9.6-2.4-7.6-2.8-12.1C31 78.6 30 52.1 42.7 44.7c9.9-5.8 16.5 7 15.2 17-1.5 10.5-7 19.3-19.2 18.3zm46.1 2.2c1.8-6.7 3.1-16.8 1.2-24.4-.4 0-.7-.1-.9-.3-2.8 5.9-1.7 18.1-.3 24.7zM56.9 95.8c4.1-1.8 8.9-5.6 6.8-11.4-5.9-2.6-8.8 5.9-6.8 11.4zm17 4.6c6.9-.6 7.2-7.9 9.6-13-8.1-2.2-12.9 6.6-9.6 13z"/></svg>