<svg id="Layer_1" xmlns="http://www.w3.org/2000/svg" viewBox="0 0 128 128"><style>.st0{fill:#e27151}.st1{fill:#FFF}</style><ellipse class="st0" cx="64" cy="64" rx="64" ry="64"/><path class="st1" d="M24.2 39.6h7.6c1.4 0 2.6.2 3.6.7 1 .5 1.9 1.1 2.5 2 .6.8 1.1 1.8 1.4 2.9.3 1.1.5 2.3.5 3.6 0 1.3-.2 2.4-.5 3.6-.3 1.1-.8 2.1-1.4 2.9-.6.8-1.5 1.5-2.5 2s-2.2.7-3.6.7h-7.6V39.6zm3.2 15.6h3.1c1.2 0 2.3-.2 3.1-.5.8-.3 1.4-.8 1.9-1.4.5-.6.8-1.3.9-2.1.2-.8.2-1.6.2-2.6 0-.9-.1-1.8-.2-2.6-.2-.8-.5-1.5-.9-2.1-.5-.6-1.1-1-1.9-1.4-.8-.3-1.8-.5-3.1-.5h-3.1v13.2zM44.5 51.9c0 .5.1 1 .2 1.5s.4.9.7 1.3c.3.4.7.6 1.1.9.4.2 1 .3 1.6.3.9 0 1.5-.2 2.1-.5.5-.4.9-.9 1.2-1.6H54c-.2.7-.4 1.4-.8 1.9-.4.6-.8 1-1.4 1.4-.5.4-1.1.7-1.8.9-.7.2-1.3.3-2.1.3-1 0-2-.2-2.8-.5-.8-.3-1.5-.8-2-1.4-.6-.6-1-1.3-1.3-2.2-.3-.9-.4-1.8-.4-2.8 0-.9.1-1.8.4-2.7.3-.8.7-1.6 1.3-2.2.6-.6 1.2-1.1 2-1.5.8-.4 1.7-.6 2.7-.6 1 0 2 .2 2.8.7.8.4 1.5 1 2.1 1.7s.9 1.5 1.2 2.5c.2.9.3 1.9.2 2.9h-9.6zm6.8-1.9c0-.5-.1-.9-.3-1.3-.2-.4-.4-.8-.7-1.1-.3-.3-.6-.6-1-.8-.4-.2-.8-.3-1.3-.3s-1 .1-1.4.3c-.4.2-.8.4-1.1.7-.3.3-.5.7-.7 1.1-.2.4-.3.9-.3 1.4h6.8zM67.5 54.9c0 .4 0 .6.1.8.1.2.3.2.5.2h.3c.1 0 .3 0 .4-.1v2c-.1 0-.2.1-.4.1-.1.1-.2.1-.4.1s-.3.1-.5.1h-.4c-.6 0-1.1-.1-1.5-.4-.4-.2-.6-.7-.8-1.3-.6.6-1.3 1-2.1 1.2-.8.3-1.7.4-2.4.4-.6 0-1.2-.1-1.7-.2-.5-.2-1-.4-1.4-.7-.4-.3-.8-.7-1-1.2-.2-.5-.4-1.1-.4-1.7 0-.8.1-1.5.4-2 .3-.5.7-.9 1.2-1.2.5-.3 1-.5 1.6-.6l1.8-.3c.5-.1 1-.2 1.5-.2s.9-.1 1.3-.2.7-.3.9-.5c.2-.2.3-.5.3-1 0-.4-.1-.7-.3-.9-.2-.2-.4-.4-.7-.5l-.9-.3c-.3 0-.6-.1-.9-.1-.8 0-1.5.2-2 .5s-.8.9-.9 1.6h-2.9c.1-.9.3-1.6.6-2.1.4-.6.8-1 1.4-1.4.6-.3 1.2-.6 1.9-.7.7-.1 1.4-.2 2.1-.2.6 0 1.3.1 1.9.2.6.1 1.2.4 1.7.7.5.3.9.7 1.2 1.2s.5 1.1.5 1.8v6.9zm-2.9-3.7c-.4.3-1 .5-1.6.5-.6.1-1.3.1-1.9.3-.3.1-.6.1-.9.2-.3.1-.5.2-.8.4-.2.2-.4.4-.5.6-.1.3-.2.6-.2 1 0 .3.1.6.3.8.2.2.4.4.7.5l.9.3c.3.1.6.1.9.1.3 0 .7 0 1-.1.4-.1.7-.2 1.1-.4.3-.2.6-.5.8-.8.2-.3.3-.7.3-1.2v-2.2zM70.7 39.6h2.9v18.2h-2.9V39.6zM89.9 58.2c-1.1 0-2-.2-2.8-.5-.8-.3-1.5-.8-2.1-1.4-.6-.6-1-1.3-1.3-2.2-.3-.9-.4-1.8-.4-2.8 0-1 .1-1.9.4-2.8s.7-1.6 1.3-2.2c.6-.6 1.3-1.1 2.1-1.4.8-.3 1.8-.5 2.8-.5 1.1 0 2 .2 2.8.5.8.3 1.5.8 2.1 1.4.6.6 1 1.3 1.3 2.2.3.9.4 1.8.4 2.8 0 1-.1 2-.4 2.8-.3.9-.7 1.6-1.3 2.2-.6.6-1.3 1.1-2.1 1.4-.8.3-1.7.5-2.8.5zm0-2.3c.6 0 1.2-.1 1.7-.4.5-.3.9-.6 1.2-1.1.3-.4.5-.9.7-1.5.1-.6.2-1.1.2-1.7 0-.6-.1-1.1-.2-1.7-.1-.6-.4-1.1-.7-1.5-.3-.4-.7-.8-1.2-1.1-.5-.3-1-.4-1.7-.4-.6 0-1.2.1-1.7.4-.5.3-.9.6-1.2 1.1-.3.4-.5.9-.7 1.5-.1.6-.2 1.1-.2 1.7 0 .6.1 1.1.2 1.7.1.6.4 1.1.7 1.5.3.4.7.8 1.2 1.1.5.2 1.1.4 1.7.4zM97.7 44.6h2.2v-1.1c0-.8.1-1.5.3-2 .2-.5.5-.9.8-1.2.3-.3.7-.5 1.2-.6.4-.1.9-.1 1.4-.1.9 0 1.6.1 2 .2V42c-.2-.1-.4-.1-.6-.1h-.8c-.4 0-.7.1-1 .3-.3.2-.4.6-.4 1.1v1.4h2.5v2.2h-2.5v11h-2.9v-11h-2.2v-2.3zM18.9 72.5h2.2v-4H24v4h2.6v2.2H24V82.6c0 .2.1.4.2.6.1.2.2.3.4.3.2.1.4.1.8.1h.6c.2 0 .4 0 .6-.1v2.2c-.3 0-.6.1-.9.1-.3 0-.6.1-.9.1-.8 0-1.4-.1-1.9-.2s-.8-.4-1.1-.6c-.3-.3-.4-.6-.5-1.1-.1-.4-.1-.9-.2-1.5v-7.8h-2.2v-2.2zM28.7 67.4h2.9v6.8c.4-.6.9-1.1 1.6-1.5.7-.4 1.5-.6 2.4-.6 1.4 0 2.6.4 3.4 1.1.8.7 1.2 1.9 1.2 3.4v9.1h-2.9v-8.3c0-1-.3-1.8-.7-2.3-.4-.5-1-.7-1.9-.7-.5 0-.9.1-1.3.3-.4.2-.7.4-1 .7-.3.3-.5.7-.6 1.1-.2.4-.2.9-.2 1.4v7.8h-2.9V67.4zM45.7 79.8c0 .5.1 1 .2 1.5s.4.9.7 1.3c.3.4.7.6 1.1.9.4.2 1 .3 1.6.3.9 0 1.5-.2 2.1-.5.5-.4.9-.9 1.2-1.6h2.8c-.2.7-.4 1.4-.8 1.9-.4.6-.8 1-1.4 1.4-.5.4-1.1.7-1.8.9-.7.2-1.3.3-2.1.3-1 0-2-.2-2.8-.5-.8-.3-1.5-.8-2-1.4-.6-.6-1-1.3-1.3-2.2-.3-.9-.4-1.8-.4-2.8 0-.9.1-1.8.4-2.7.3-.8.7-1.6 1.3-2.2.6-.6 1.2-1.1 2-1.5.8-.4 1.7-.6 2.7-.6 1 0 2 .2 2.8.7.8.4 1.5 1 2.1 1.7.5.7.9 1.5 1.2 2.5.2.9.3 1.9.2 2.9h-9.8zm6.8-1.9c0-.5-.1-.9-.3-1.3-.2-.4-.4-.8-.7-1.1-.3-.3-.6-.6-1-.8-.4-.2-.8-.3-1.3-.3s-1 .1-1.4.3c-.4.2-.8.4-1.1.7-.3.3-.5.7-.7 1.1-.2.4-.3.9-.3 1.4h6.8zM65.1 67.4h7.6c1.4 0 2.6.2 3.6.7 1 .5 1.9 1.1 2.5 2 .6.8 1.1 1.8 1.4 2.9.3 1.1.5 2.3.5 3.6 0 1.3-.2 2.4-.5 3.6-.3 1.1-.8 2.1-1.4 2.9-.6.8-1.5 1.5-2.5 2s-2.2.7-3.6.7h-7.6V67.4zm3.2 15.7h3.1c1.2 0 2.3-.2 3.1-.5.8-.3 1.4-.8 1.9-1.4.4-.6.8-1.3.9-2.1.2-.8.2-1.6.2-2.6 0-.9-.1-1.8-.2-2.6-.2-.8-.5-1.5-.9-2.1-.5-.6-1.1-1-1.9-1.4-.8-.3-1.8-.5-3.1-.5h-3.1v13.2zM94.2 82.7c0 .4 0 .6.1.8.1.2.3.2.6.2h.3c.1 0 .3 0 .4-.1v2c-.1 0-.2.1-.4.1s-.3.1-.5.1-.3.1-.5.1h-.4c-.6 0-1.1-.1-1.5-.4-.4-.2-.6-.7-.8-1.3-.6.6-1.3 1-2.1 1.2-.8.5-1.7.6-2.4.6-.6 0-1.2-.1-1.7-.2-.5-.2-1-.4-1.4-.7-.4-.3-.8-.7-1-1.2-.2-.5-.4-1.1-.4-1.7 0-.8.1-1.5.4-2 .3-.5.7-.9 1.2-1.2.5-.3 1-.5 1.6-.6l1.8-.3c.5-.1 1-.2 1.5-.2s.9-.1 1.3-.2.7-.3.9-.5c.2-.2.3-.5.3-1 0-.4-.1-.7-.3-.9-.2-.2-.4-.4-.7-.5l-.9-.3c-.3 0-.6-.1-.9-.1-.8 0-1.5.2-2 .5s-.8.9-.9 1.6h-2.9c.1-.9.3-1.6.6-2.1.4-.6.8-1 1.4-1.4.6-.3 1.2-.6 1.9-.7.7-.1 1.4-.2 2.1-.2.6 0 1.3.1 1.9.2.6.1 1.2.4 1.7.7.5.3.9.7 1.2 1.2.3.5.5 1.1.5 1.8v6.7zM91.3 79c-.4.3-1 .5-1.6.5-.6.1-1.3.1-1.9.3-.3.1-.6.1-.9.2-.3.1-.5.2-.8.4-.2.2-.4.4-.5.6-.1.3-.2.6-.2 1 0 .3.1.6.3.8.2.2.4.4.7.5l.9.3c.3.1.6.1.9.1.3 0 .7 0 1-.1.4-.1.7-.2 1.1-.4.3-.2.6-.5.8-.8.2-.3.3-.7.3-1.2V79zM95.9 72.5h3.2l3.4 9.9 3.3-9.9h3l-5.1 13.9c-.2.6-.5 1.2-.7 1.7-.2.5-.5 1-.8 1.4-.3.4-.7.7-1.2 1-.5.2-1.1.4-1.9.4-.7 0-1.4-.1-2-.2v-2.5c.2 0 .5.1.7.1.2 0 .5.1.7.1.3 0 .6 0 .8-.1.2-.1.4-.2.6-.4.1-.2.3-.4.4-.6.1-.2.2-.5.3-.8l.3-1-5-13z"/></svg>