<svg id="Layer_1" xmlns="http://www.w3.org/2000/svg" viewBox="0 0 128 128"><style>.st0{fill:#d1cece}.st1{fill:#7b7b7b}</style><path class="st0" d="M45.7 0h36.6v128H45.7z"/><path class="st1" d="M66.7 113.5c.6 0 1.1-.1 1.5-.3.4-.2.8-.5 1-.8.3-.4.5-.8.6-1.2.1-.5.2-1 .2-1.5 0-.6-.1-1.1-.2-1.5-.1-.4-.3-.8-.5-1-.2-.3-.5-.4-.7-.6-.3-.1-.6-.2-.9-.2-.6 0-1 .1-1.3.4-.3.3-.5.6-.6.9-.2.5-.4 1.2-.6 1.9-.2.7-.4 1.6-.7 2.7-.2.7-.4 1.2-.7 1.7-.3.4-.6.8-.9 1-.3.3-.7.4-1.1.6-.4.1-.8.2-1.2.2-.8 0-1.5-.2-2-.5-.6-.3-1-.8-1.4-1.3-.4-.5-.7-1.1-.8-1.8-.2-.7-.3-1.4-.3-2.1 0-.8.1-1.6.3-2.3.2-.7.5-1.3.9-1.9.4-.5.9-1 1.5-1.3.6-.3 1.3-.5 2.1-.5v2.7c-1 .1-1.7.4-2.1 1-.4.6-.6 1.4-.6 2.3 0 .3 0 .6.1 1l.3.9c.2.3.4.5.6.7.3.2.6.3 1 .3.5 0 1-.2 1.3-.5.3-.3.5-.8.7-1.3 0-.1.1-.3.2-.7.1-.4.2-.8.4-1.3.1-.5.3-1 .4-1.4.1-.5.2-.8.3-1 .2-.5.4-.9.6-1.3.3-.4.6-.7.9-.9.4-.3.7-.4 1.1-.6.4-.1.8-.2 1.2-.2.9 0 1.6.2 2.2.5.6.4 1.1.8 1.5 1.4.4.6.7 1.2.9 2 .2.7.3 1.5.3 2.2 0 .9-.1 1.7-.3 2.5-.2.8-.5 1.5-1 2-.4.6-1 1-1.7 1.4-.7.3-1.5.5-2.5.5v-2.8zM56.4 101.6v-2.5h2.3v2.5h-2.3zm4.3 0v-2.5h11.2v2.5H60.7zM60.7 96.8v-9.1h1.7l7.5 6.4v-6.7h1.9v9.8h-1.7L62.6 91v5.7h-1.9zM66.9 83.7c.4 0 .9-.1 1.3-.2s.8-.3 1.1-.6c.3-.2.5-.6.7-.9.2-.4.3-.8.3-1.3 0-.7-.2-1.3-.5-1.7-.3-.4-.8-.8-1.4-1v-2.3c.6.1 1.1.4 1.6.7.5.3.9.7 1.2 1.1.3.4.6.9.7 1.5.2.6.2 1.1.2 1.7 0 .9-.1 1.7-.4 2.3-.3.7-.7 1.2-1.2 1.7s-1.1.8-1.9 1.1c-.7.2-1.5.4-2.4.4-.8 0-1.5-.1-2.3-.4-.7-.3-1.3-.6-1.9-1.1-.5-.5-1-1-1.3-1.7-.3-.7-.5-1.4-.5-2.2 0-.9.2-1.7.6-2.4.4-.7.9-1.3 1.5-1.7.6-.5 1.3-.8 2.1-1 .8-.2 1.6-.3 2.4-.2v8.2zm-1.6-5.8c-.4 0-.8.1-1.1.2-.4.1-.7.3-.9.6-.3.2-.5.5-.6.9-.2.3-.2.7-.2 1.1 0 .4.1.8.2 1.2.2.4.4.7.6.9.3.3.6.5.9.6.4.2.7.2 1.2.2v-5.7zM59.2 67.8c0-.5 0-1-.1-1.5s-.2-.9-.4-1.3-.5-.7-.8-1c-.3-.3-.7-.5-1.2-.6v-2h15.1V64H61.2v3.7h-2zM72.1 50.9c0 .8-.1 1.5-.3 2.1-.2.7-.5 1.2-.9 1.7s-.9.8-1.5 1.1c-.6.3-1.3.4-2 .4-1 0-1.8-.2-2.4-.7-.6-.5-1.1-1.2-1.3-2-.3.7-.7 1.2-1.2 1.6-.5.4-1.2.6-1.9.6-1.3 0-2.3-.4-3-1.2-.7-.8-1.1-2-1.1-3.5s.4-2.7 1.1-3.5c.7-.8 1.7-1.2 3-1.2.7 0 1.4.2 1.9.6.5.4.9.9 1.2 1.6.2-.8.6-1.5 1.3-2 .6-.5 1.4-.7 2.4-.7.7 0 1.4.1 2 .4.6.3 1.1.6 1.5 1.1.4.5.7 1 .9 1.7.2.4.3 1.1.3 1.9zm-13.7 0c0 .7.2 1.2.6 1.7.4.5 1 .7 1.7.7s1.3-.2 1.7-.7c.4-.4.6-1 .6-1.7s-.2-1.3-.6-1.7c-.4-.4-.9-.7-1.7-.7-.7 0-1.3.2-1.7.7-.5.4-.6 1-.6 1.7zm11.8 0c0-.8-.2-1.5-.7-2.1-.5-.5-1.2-.8-2.1-.8-.8 0-1.5.3-2 .8s-.7 1.2-.7 2.1c0 .8.2 1.5.7 2.1.5.5 1.1.8 2 .8.9 0 1.6-.3 2.1-.8.4-.6.7-1.3.7-2.1zM64.8 43.8v-6.3h2.3v6.3h-2.3zM63 31.5c0-.4 0-.8-.1-1.2-.1-.4-.2-.8-.4-1.1-.2-.3-.4-.6-.7-.8-.3-.2-.7-.3-1.2-.3-.6 0-1.2.2-1.6.7-.4.4-.6 1-.6 1.7 0 .4.1.8.3 1.1.2.3.4.6.7.8.3.2.6.4 1 .5.4.1.7.1 1.1.1v2.5c-.7 0-1.4-.2-2-.4-.6-.2-1.2-.6-1.6-1-.5-.4-.8-.9-1.1-1.5-.3-.6-.4-1.3-.4-2.1 0-.6.1-1.2.3-1.7.2-.6.4-1.1.8-1.5.3-.5.8-.8 1.3-1.1.5-.3 1.1-.4 1.8-.4.8 0 1.4.2 2 .5.6.3 1 .9 1.2 1.6.2-.9.6-1.5 1.3-2 .7-.5 1.5-.7 2.5-.7.7 0 1.4.1 1.9.4.6.3 1.1.7 1.4 1.2.4.5.7 1.1.9 1.7.2.6.3 1.3.3 2.1 0 .9-.1 1.6-.4 2.3-.3.7-.6 1.2-1.1 1.6-.5.4-1 .8-1.7 1-.6.2-1.4.4-2.2.4v-2.5c.9 0 1.7-.2 2.3-.7.6-.5.9-1.2.9-2.2 0-.8-.2-1.5-.7-2.1-.5-.6-1.1-.8-2-.8-.6 0-1.1.1-1.4.3-.3.2-.6.5-.8.9-.2.4-.3.8-.3 1.3s-.1.9 0 1.4H63zM56.4 18.4c0-1.1.2-2 .7-2.6.5-.7 1.1-1.2 1.9-1.6.8-.4 1.6-.6 2.5-.8.9-.1 1.8-.2 2.7-.2.9 0 1.8.1 2.7.2.9.1 1.8.4 2.5.8.8.4 1.4.9 1.9 1.6.5.7.7 1.6.7 2.6 0 1.1-.2 2-.7 2.6-.5.7-1.1 1.2-1.9 1.6-.8.4-1.6.6-2.5.8-.9.1-1.8.2-2.7.2-.9 0-1.8-.1-2.7-.2-.9-.1-1.8-.4-2.5-.8-.8-.4-1.4-.9-1.9-1.6-.4-.6-.7-1.5-.7-2.6zm13.7 0c0-.5-.2-1-.5-1.3-.3-.4-.7-.6-1.3-.9-.5-.2-1.1-.4-1.8-.4-.7-.1-1.5-.1-2.2-.1-.8 0-1.5 0-2.2.1-.7.1-1.3.2-1.8.4s-1 .5-1.3.9c-.3.4-.5.8-.5 1.3s.2 1 .5 1.4c.3.4.7.6 1.3.8.5.2 1.1.4 1.8.4.7.1 1.4.1 2.2.1.8 0 1.5 0 2.2-.1.7-.1 1.3-.2 1.8-.4s.9-.5 1.3-.8c.3-.4.5-.8.5-1.4z"/></svg>