<svg id="Layer_1" xmlns="http://www.w3.org/2000/svg" viewBox="0 0 128 128"><style>.st0{fill-rule:evenodd;clip-rule:evenodd;fill:#fff}.st1{fill:#383838}</style><path class="st0" d="M0 25.7h128v76.6H0z"/><path class="st1" d="M20.5 40.9h2.3l4.7 12.2h-2.3L24 49.9h-4.9L18 53.2h-2.2l4.7-12.3zm-.8 7.4h3.7L21.6 43h-.1l-1.8 5.3zm10.3.8c0 .5.1.9.2 1.2.2.3.4.6.7.8.3.2.6.4 1 .5.4.1.8.1 1.2.1.5 0 .9-.1 1.2-.2.3-.1.6-.2.8-.4.2-.2.4-.4.4-.6.1-.2.1-.4.1-.7 0-.5-.1-.8-.3-1-.2-.2-.4-.4-.7-.5-.4-.2-.9-.3-1.5-.5-.6-.1-1.3-.3-2.1-.6-.5-.1-1-.3-1.3-.5-.3-.2-.6-.5-.8-.7-.2-.3-.4-.6-.4-.9-.1-.3-.1-.6-.1-.9 0-.6.1-1.1.4-1.6.3-.5.6-.8 1-1.1.4-.3.9-.5 1.4-.7.5-.1 1.1-.2 1.6-.2.6 0 1.2.1 1.8.2.6.2 1.1.4 1.5.7.4.3.8.7 1 1.2.3.5.4 1 .4 1.7h-2.1c-.1-.8-.3-1.3-.8-1.7-.5-.3-1.1-.5-1.8-.5-.3 0-.5 0-.8.1-.3.1-.5.1-.7.3-.2.1-.4.3-.5.5-.1.2-.2.5-.2.8 0 .4.1.8.4 1 .3.2.6.4 1.1.6 0 0 .2.1.5.1.3.1.7.2 1.1.3.4.1.8.2 1.1.3.4.1.6.2.8.2.4.1.7.3 1 .5.3.2.5.5.7.7.2.3.3.6.4.9.1.3.1.6.1 1 0 .7-.1 1.3-.4 1.8-.3.5-.6.9-1.1 1.2-.5.3-1 .5-1.6.7-.6.1-1.2.2-1.8.2-.7 0-1.4-.1-2-.3-.6-.2-1.2-.4-1.6-.8-.5-.4-.8-.8-1.1-1.4-.3-.6-.4-1.2-.4-2H30zm15.9 0c0 .5.1.9.2 1.2.2.3.4.6.7.8.3.2.6.4 1 .5.4.1.8.1 1.2.1.5 0 .9-.1 1.2-.2.3-.1.6-.2.8-.4.2-.2.4-.4.4-.6.1-.2.1-.4.1-.7 0-.5-.1-.8-.3-1-.2-.2-.4-.4-.7-.5-.4-.2-.9-.3-1.5-.5-.6-.1-1.3-.3-2.1-.6-.5-.1-1-.3-1.3-.5-.3-.2-.6-.5-.8-.7-.2-.3-.4-.6-.4-.9-.1-.3-.1-.6-.1-.9 0-.6.1-1.1.4-1.6.3-.5.6-.8 1-1.1.4-.3.9-.5 1.4-.7.5-.1 1.1-.2 1.6-.2.6 0 1.2.1 1.8.2.6.2 1.1.4 1.5.7.4.3.8.7 1 1.2.3.5.4 1 .4 1.7h-2.1c-.1-.8-.3-1.3-.8-1.7-.5-.3-1.1-.5-1.8-.5-.3 0-.5 0-.8.1-.3.1-.5.1-.7.3-.2.1-.4.3-.5.5-.1.2-.2.5-.2.8 0 .4.1.8.4 1 .3.2.6.4 1.1.6 0 0 .2.1.5.1.3.1.7.2 1.1.3.4.1.8.2 1.1.3.4.1.6.2.8.2.4.1.7.3 1 .5.3.2.5.5.7.7.2.3.3.6.4.9.1.3.1.6.1 1 0 .7-.1 1.3-.4 1.8-.3.5-.6.9-1.1 1.2-.5.3-1 .5-1.6.7-.6.1-1.2.2-1.8.2-.7 0-1.4-.1-2-.3-.6-.2-1.2-.4-1.6-.8-.5-.4-.8-.8-1.1-1.4-.3-.6-.4-1.2-.4-2h2.2zm9.7-8.2h8.8v1.8h-6.7V46h6.2v1.7h-6.2v3.6h6.8v1.8h-8.9V40.9zm10.7 0h8.8v1.8h-6.7V46h6.2v1.7h-6.2v3.6h6.8v1.8h-8.9V40.9zm10.7 0h2.3l5.6 9v-9h2v12.2h-2.3l-5.6-9h-.1v9h-2V40.9zm17.2 0h2.1v12.2h-2.1V40.9zm4.7 0h2.3l5.6 9v-9h2v12.2h-2.3l-5.6-9h-.1v9h-2V40.9zM24.2 58.2h.2l.4 10.2h-.1c-.3-1.2-1.1-10.2-4.2-10.2-2.4 0-3.2 11-3.2 14.7 0 4.8.6 14.8 3.3 14.8 1.3 0 2-2.2 2-5.1v-9.3h-1.4V73H27v.4h-1.5V88h-.2c-.3-.6-.3-1.9-1.3-1.9s-2.2 2.2-3.6 2.2c-4.8 0-6.5-8.9-6.5-15.3 0-5.3 1.9-15 6.5-15 .8 0 1.3.2 1.9 1.1.4.6 1.3.8 1.6 0 .2-.3.2-.7.3-.9m65.1 29.3V58.7H88v-.3h5.5v.3h-1.3v28.8h1.3v.3H88v-.3h1.3V58.7M55.2 78.9h4.1l-2-11.5-2.1 11.5zm-2.1 8.6L58.6 58l5.1 29.5h1.2v.4h-5.3v-.4h1.2l-1.4-8.2h-4.2l-1.5 8.2h1.5v.4H52v-.3l1.1-.1zm49.1-8.6h4.1l-2-11.5-2.1 11.5zm-2.1 8.6l5.5-29.5 5.1 29.5h1.2v.4h-5.3v-.4h1.2l-1.4-8.2h-4.2l-1.5 8.2h1.5v.4H99v-.3l1.1-.1zm-26.7 0h3.4c1.6-.1 3.6-1.6 3.6-5.8v-2.5h.3v8.6H70.3l7-29.1H74c-2.1 0-3.2 3.1-3.2 6v2.2h-.3v-8.6h10.1l-7.2 29.2zM38.6 58.7V73c.6 0 1.6.1 2.6-1.3 1-1.2 1.3-4.3 1.3-6.6 0-2.5-1.2-6.4-2.8-6.4h-1.1zm-4.1-.3h6.1c2.9 0 4.8 3.3 4.8 7.2 0 3.9-1.6 7.5-4.1 7.5-.3 0-.3.2 0 .2 1.5 0 2.6 1.7 2.8 2.1.9 1.8.3 10.2 1.2 11 .8.7 1.3-.4 1.4-.6l.1.1c0 .1-.7 2.2-2.3 2.2-1.4 0-2.1-1.7-2.3-2.7-.3-1.7-.2-7-.4-8-.2-.9-.6-3.7-1.9-3.9-.6-.1-.8-.1-1.4-.1v14.1h1.3v.4h-5.6v-.4h1.4V58.8h-1.3v-.4z"/></svg>