<svg id="Layer_1" xmlns="http://www.w3.org/2000/svg" viewBox="0 0 128 128"><style>.st0{fill:#b2b3b5}.st1{fill:#fff}</style><circle class="st0" cx="64" cy="64" r="64"/><path class="st1" d="M35.4 39.6h4.5l5 14.3h.1l4.9-14.3h4.4v18.2h-3V43.7h-.1l-5.1 14.1h-2.6l-5.1-14.1h-.1v14.1h-3V39.6zm28.4 18.6c-1.1 0-2-.2-2.8-.5-.8-.3-1.5-.8-2.1-1.4-.6-.6-1-1.3-1.3-2.2-.3-.9-.4-1.8-.4-2.8 0-1 .1-1.9.4-2.8.3-.9.7-1.6 1.3-2.2.6-.6 1.3-1.1 2.1-1.4.8-.3 1.8-.5 2.8-.5 1.1 0 2 .2 2.8.5.8.3 1.5.8 2.1 1.4.6.6 1 1.3 1.3 2.2s.4 1.8.4 2.8c0 1-.1 2-.4 2.8-.3.9-.7 1.6-1.3 2.2-.6.6-1.3 1.1-2.1 1.4-.8.3-1.7.5-2.8.5zm0-2.3c.6 0 1.2-.1 1.7-.4.5-.3.9-.6 1.2-1.1.3-.4.5-.9.7-1.5.1-.6.2-1.1.2-1.7 0-.6-.1-1.1-.2-1.7-.1-.6-.4-1.1-.7-1.5-.3-.4-.7-.8-1.2-1.1-.5-.3-1-.4-1.7-.4-.6 0-1.2.1-1.7.4-.5.3-.9.6-1.2 1.1-.3.4-.5.9-.7 1.5-.1.6-.2 1.1-.2 1.7 0 .6.1 1.1.2 1.7.1.6.4 1.1.7 1.5.3.4.7.8 1.2 1.1.5.2 1.1.4 1.7.4zm9.1-11.3h2.7v2.6h.1c.1-.4.3-.7.5-1 .2-.3.5-.7.9-.9.3-.3.7-.5 1.2-.7.4-.2.9-.3 1.3-.3h.7c.1 0 .3 0 .4.1v2.8c-.2 0-.4-.1-.6-.1h-.6c-.5 0-1 .1-1.4.3-.4.2-.8.5-1.1.9-.3.4-.6.9-.8 1.4-.2.6-.3 1.2-.3 1.9v6.3H73V44.6zm10.8 7.3c0 .5.1 1 .2 1.5s.4.9.7 1.3c.3.4.7.6 1.1.9.4.2 1 .3 1.6.3.9 0 1.5-.2 2.1-.5.5-.4.9-.9 1.2-1.6h2.8c-.2.7-.4 1.4-.8 1.9-.4.6-.8 1-1.4 1.4-.5.4-1.1.7-1.8.9-.7.2-1.3.3-2.1.3-1 0-2-.2-2.8-.5-.8-.3-1.5-.8-2-1.4-.6-.6-1-1.3-1.3-2.2s-.4-1.8-.4-2.8c0-.9.1-1.8.4-2.7.3-.8.7-1.6 1.3-2.2.6-.6 1.2-1.1 2-1.5.8-.4 1.7-.6 2.7-.6 1 0 2 .2 2.8.7.8.4 1.5 1 2.1 1.7.5.7.9 1.5 1.2 2.5.2.9.3 1.9.2 2.9h-9.8zm6.8-1.9c0-.5-.1-.9-.3-1.3-.2-.4-.4-.8-.7-1.1-.3-.3-.6-.6-1-.8-.4-.2-.8-.3-1.3-.3s-1 .1-1.4.3c-.4.2-.8.4-1.1.7-.3.3-.5.7-.7 1.1-.2.4-.3.9-.3 1.4h6.8zm-59 22.1h8c1.3 0 2.4.2 3.2.6.8.4 1.4.8 1.9 1.4.4.6.7 1.2.9 1.8.2.7.2 1.3.2 1.8 0 .6-.1 1.2-.2 1.8-.2.7-.5 1.3-.9 1.8-.4.6-1.1 1-1.9 1.4-.8.4-1.9.5-3.2.5h-4.9v7h-3.2V72.1zm3.2 8.6h4.7c.4 0 .7-.1 1.1-.2.4-.1.7-.3 1-.5s.6-.5.8-.9c.2-.4.3-.9.3-1.4 0-.6-.1-1.1-.3-1.5-.2-.4-.4-.7-.7-.9-.3-.2-.6-.4-1-.5-.4-.1-.8-.1-1.2-.1h-4.7v6zm13.4-3.6h2.7v2.6h.1c.1-.4.3-.7.5-1 .2-.3.5-.7.9-.9.3-.3.7-.5 1.2-.7.4-.2.9-.3 1.3-.3h.7c.1 0 .3 0 .4.1v2.8c-.2 0-.4-.1-.6-.1h-.6c-.5 0-1 .1-1.4.3-.4.2-.8.5-1.1.9-.3.4-.6.9-.8 1.4-.3.4-.4 1.1-.4 1.8v6.3h-2.9V77.1zm9.1-5h2.9v2.8h-2.9v-2.8zm0 5h2.9v13.2h-2.9V77.1zm6.1 0H66V79l.1.1c.4-.7 1-1.3 1.7-1.7.7-.4 1.5-.6 2.4-.6 1.4 0 2.6.4 3.4 1.1.8.7 1.3 1.9 1.3 3.4v9.1H72V82c0-1-.3-1.8-.7-2.3-.4-.5-1-.7-1.9-.7-.5 0-.9.1-1.3.3-.4.2-.7.4-1 .7-.3.3-.5.7-.6 1.1-.2.4-.2.9-.2 1.4v7.8h-2.9V77.1zm13.3 0h2.2v-4h2.9v4h2.6v2.2h-2.6v7.9c0 .2.1.4.2.6.1.2.2.3.4.3.2.1.4.1.8.1h.6c.2 0 .4 0 .6-.1v2.2c-.3 0-.6.1-.9.1-.3 0-.6.1-.9.1-.8 0-1.4-.1-1.9-.2s-.8-.4-1.1-.6c-.3-.3-.4-.6-.5-1.1-.1-.4-.1-.9-.2-1.5v-7.8h-2.2v-2.2zm12 9c.1.9.4 1.4 1 1.8.6.3 1.2.5 2 .5.3 0 .6 0 .9-.1.3 0 .7-.1 1-.2.3-.1.6-.3.8-.5.2-.2.3-.5.3-.9s-.2-.7-.4-.9c-.3-.2-.6-.4-1-.6-.4-.1-.9-.3-1.4-.4-.5-.1-1-.2-1.6-.3-.5-.1-1.1-.3-1.6-.4s-1-.4-1.4-.7c-.4-.3-.7-.7-1-1.1-.2-.5-.4-1-.4-1.7s.2-1.3.5-1.8.8-.9 1.3-1.2c.5-.3 1.1-.5 1.8-.6.7-.1 1.3-.2 1.9-.2.7 0 1.3.1 2 .2.6.1 1.2.4 1.7.7.5.3.9.7 1.3 1.3.3.5.5 1.1.6 1.9h-3c-.1-.7-.5-1.2-1-1.4-.4-.3-.9-.5-1.6-.5-.2 0-.4 0-.7.1-.3 0-.5.1-.8.2-.2.1-.5.2-.6.4-.2.2-.3.4-.3.7 0 .4.1.6.4.9.2.2.6.4 1 .5.4.1.9.3 1.4.4.5.1 1 .2 1.6.3.5.1 1 .3 1.6.4.5.2 1 .4 1.4.7.4.3.7.7 1 1.1.2.4.4 1 .4 1.6 0 .8-.2 1.4-.5 2-.4.5-.8 1-1.4 1.3-.6.3-1.2.6-1.9.7-.7.2-1.4.2-2.1.2-.8 0-1.6-.1-2.3-.3-.7-.2-1.3-.5-1.8-.9s-.9-.9-1.2-1.4c-.3-.6-.5-1.2-.5-2h2.6z"/></svg>