<svg id="Layer_1" xmlns="http://www.w3.org/2000/svg" viewBox="0 0 128 128"><style>.st0{fill:url(#SVGID_1_)}.st1{fill:#9c0059}.st2{fill-rule:evenodd;clip-rule:evenodd}.st2,.st3{fill:#FFF}</style><linearGradient id="SVGID_1_" gradientUnits="userSpaceOnUse" y1="64" x2="128" y2="64"><stop offset="0" stop-color="#4d4d4d"/><stop offset=".8" stop-color="#f2f2f2"/><stop offset="1" stop-color="#4d4d4d"/></linearGradient><path class="st0" d="M0 29.5v69h109.6c10.1 0 18.4-8.3 18.4-18.4V29.5H0z"/><path class="st1" d="M0 29.5v69h109.6c10.1 0 18.4-8.3 18.4-18.4V29.5H0z"/><path class="st2" d="M33.2 52.9c.1-.2-.1-.7-.8-.3-3.7 2.6-4.5 7.1-4.8 9.3-.9 5.4 1 11.2 2.9 12.6.2.1.7.3.5-.4-.6-1.9-.9-7.8.1-13.9.5-2.6 1.2-5.1 2.1-7.3zM76 64.5c-.1-.4-.4-2.2-1.6-2.7-1.1-.6-1.8 0-1.9.5-1.3 5.5-3.7 8.1-4.4 6.8-.6-1.1-.7-4.9 2.1-8.6.1-.1 0-.3-.1-.4-1-.7-2-.4-2.7.1-1.8 1.3-2.8 3.3-3.9 5.3-1.3 2.4-3.1 4.6-3.9 3.7-1.2-1.3 1.8-7.7 2.5-8.8-.1-.3-1.5-2.2-4.6-1.5-4.9 1-7.6 4.4-8.3 7.6-.7 3.1.9 5.1 3.3 5.1 1.8 0 3.4-1.9 4.4-3.4-.1 1.7.6 3.4 3 3.5 2.2-.1 4-2.4 5.5-4.8-.2 2.4.8 4.8 3.1 4.8 2.5.1 4-1.8 5-6 .8 3.7.4 17.8.3 21.8 0 1 .7.7 1-.1 1.4-5.5 1.9-18.8 1.2-22.9zm-23.5 4.8c-1 .1-.6-2.6.8-4.6 1.3-1.9 3.3-4 5.6-3.8-.6 1.3-4.7 8.3-6.4 8.4zm44.7-3.4c.1-.1 0-.4-.3-.2-.4.3-3 2-5.4 1.3-1.1-.3-2.1-1.1-2.7-2.4 2.2-.8 6-2.9 6.4-3.4.2-.3.4-.9-.2-2-.8-1.3-2.9-2.3-5-1.9-2.9.6-4.4 2.7-4.4 5.4-.3 0-2 .2-2.3.1.4-1.7 1.4-6 2.2-9.7.7-3.1.4-5-.3-5.2-.6-.3-.9.2-1.1.8-.9 2.8-3 10.4-3.8 14.1-1.3 0-2.8-.2-4-.6-.3-.1-.4.1-.3.4.4 1.2 1 2.8 3.9 2.8-.4 2.5-.7 5.3-.5 6.9.3 2.9 3.3 4.3 5.5 4.5.3 0 .9.1.9-.2.1-.2-.2-.4-.5-.6-.9-.5-3.1-1.1-3-4.9 0-1.6.5-5.7.5-5.9.8 0 2.6-.1 3.2-.1 1.1 2.3 3 3.7 5.2 3.8 3.5.6 5.6-2.1 6-3zm-9.1-3.4c-.2-1 .7-2.4 2.4-3 .9-.3 2.5-.2 2.5.5.1.6-4.9 2.5-4.9 2.5z"/><path class="st2" d="M114 75.5c-1.4-.7-6.6-4.8-10.1-9.5 1.4-1.6 8.9-9.2 9.1-15 0-.7-.3-.2-.4-.1-1.8 2.9-8.5 10.7-10.3 12.5-1-1.6-2.3-4.4-3-6.6-.1-.4-.4-.1-.4.1-.4 2.3-.1 5.5 1.5 8.6-1.1 1.3-6 6.6-9.1 8.6-.4.3-.4.9.4.7 4.3-1.5 10.1-6.6 10.1-6.7 3.3 4.8 10.1 8.1 12.2 7.8.4-.1 0-.4 0-.4zM48.8 48.7c-5.8-4.1-18.8-3.5-29 1.4-10.1 5-14.1 14.3-8.6 16.9.8.4 1.8.3 1.2-.4-.7-.8-1.1-1.9-1-3 .3-4.3 6.6-10.5 16.1-13.2 10.2-2.8 20.4-1.1 21.4 1.4.8 2.1-5.4 8.7-16.7 11-.3.1-.6.5.3.7 10.8 2.1 24.5-8.9 16.3-14.8z"/><path class="st2" d="M41.8 69.4c-.9 3.4-.4 7.4 3.8 9.7.6.3 1.3.1.6-.5-1.6-1.5-2.7-4.7-1.2-8.7 2.2-5.8 8.1-14.5 11.1-18.7 1.7-2.4 1.9-4 1.2-4.9-.5-.6-1-.2-1.4.3-2.3 2.9-13 18.5-14.1 22.8z"/><g><path class="st3" d="M115.1 67.6c.3 0 .5 0 .7.2.2.1.2.3.2.5v.3c0 .1-.1.1-.1.2-.1 0-.1.1-.2.1s-.1 0-.2.1l.6 1h-.5l-.6-1h-.3v1h-.4v-2.3h.8zm0 .9c.1 0 .2 0 .3-.1.1 0 .1-.1.1-.3V68l-.1-.1h-.8v.6h.5z"/><path class="st3" d="M117.2 68.7c0 1.1-.9 2.1-2.1 2.1-1.1 0-2.1-.9-2.1-2.1 0-1.1.9-2 2.1-2 1.1 0 2.1.9 2.1 2zm-2.1-1.7c-1 0-1.8.8-1.8 1.8s.8 1.8 1.8 1.8 1.8-.8 1.8-1.8c0-1.1-.8-1.8-1.8-1.8z"/></g></svg>