<svg id="Layer_1" xmlns="http://www.w3.org/2000/svg" viewBox="0 0 128 128"><style>.st0{fill-rule:evenodd;clip-rule:evenodd;fill:#fff}.st1{fill:#383838}</style><path class="st0" d="M0 25.7h128v76.6H0z"/><path class="st1" d="M20.5 40.9h2.3l4.7 12.2h-2.3L24 49.9h-4.9L18 53.2h-2.2l4.7-12.3zm-.8 7.4h3.7L21.6 43h-.1l-1.8 5.3zm10.3.8c0 .5.1.9.2 1.2.2.3.4.6.7.8.3.2.6.4 1 .5.4.1.8.1 1.2.1.5 0 .9-.1 1.2-.2.3-.1.6-.2.8-.4.2-.2.4-.4.4-.6.1-.2.1-.4.1-.7 0-.5-.1-.8-.3-1-.2-.2-.4-.4-.7-.5-.4-.2-.9-.3-1.5-.5-.6-.1-1.3-.3-2.1-.6-.5-.1-1-.3-1.3-.5-.3-.2-.6-.5-.8-.7-.2-.3-.4-.6-.4-.9-.1-.3-.1-.6-.1-.9 0-.6.1-1.1.4-1.6.3-.5.6-.8 1-1.1.4-.3.9-.5 1.4-.7.5-.1 1.1-.2 1.6-.2.6 0 1.2.1 1.8.2.6.2 1.1.4 1.5.7.4.3.8.7 1 1.2.3.5.4 1 .4 1.7h-2.1c-.1-.8-.3-1.3-.8-1.7-.5-.3-1.1-.5-1.8-.5-.3 0-.5 0-.8.1-.3.1-.5.1-.7.3-.2.1-.4.3-.5.5s-.2.5-.2.8c0 .4.1.8.4 1 .3.2.6.4 1.1.6 0 0 .2.1.5.1.3.1.7.2 1.1.3.4.1.8.2 1.1.3.4.1.6.2.8.2.4.1.7.3 1 .5.3.2.5.5.7.7.2.3.3.6.4.9.1.3.1.6.1 1 0 .7-.1 1.3-.4 1.8-.3.5-.6.9-1.1 1.2-.5.3-1 .5-1.6.7-.6.1-1.2.2-1.8.2-.7 0-1.4-.1-2-.3-.6-.2-1.2-.4-1.6-.8-.5-.4-.8-.8-1.1-1.4-.3-.6-.4-1.2-.4-2H30zm15.9 0c0 .5.1.9.2 1.2.2.3.4.6.7.8.3.2.6.4 1 .5.4.1.8.1 1.2.1.5 0 .9-.1 1.2-.2.3-.1.6-.2.8-.4.2-.2.4-.4.4-.6.1-.2.1-.4.1-.7 0-.5-.1-.8-.3-1-.2-.2-.4-.4-.7-.5-.4-.2-.9-.3-1.5-.5-.6-.1-1.3-.3-2.1-.6-.5-.1-1-.3-1.3-.5-.3-.2-.6-.5-.8-.7-.2-.3-.4-.6-.4-.9-.1-.3-.1-.6-.1-.9 0-.6.1-1.1.4-1.6.3-.5.6-.8 1-1.1.4-.3.9-.5 1.4-.7.5-.1 1.1-.2 1.6-.2.6 0 1.2.1 1.8.2.6.2 1.1.4 1.5.7.4.3.8.7 1 1.2.3.5.4 1 .4 1.7h-2.1c-.1-.8-.3-1.3-.8-1.7-.5-.3-1.1-.5-1.8-.5-.3 0-.5 0-.8.1-.3.1-.5.1-.7.3-.2.1-.4.3-.5.5s-.2.5-.2.8c0 .4.1.8.4 1 .3.2.6.4 1.1.6 0 0 .2.1.5.1.3.1.7.2 1.1.3.4.1.8.2 1.1.3.4.1.6.2.8.2.4.1.7.3 1 .5.3.2.5.5.7.7.2.3.3.6.4.9.1.3.1.6.1 1 0 .7-.1 1.3-.4 1.8-.3.5-.6.9-1.1 1.2-.5.3-1 .5-1.6.7-.6.1-1.2.2-1.8.2-.7 0-1.4-.1-2-.3-.6-.2-1.2-.4-1.6-.8-.5-.4-.8-.8-1.1-1.4-.3-.6-.4-1.2-.4-2h2.2zm9.7-8.2h8.8v1.8h-6.7V46h6.2v1.7h-6.2v3.6h6.8v1.8h-8.9V40.9zm10.7 0h8.8v1.8h-6.7V46h6.2v1.7h-6.2v3.6h6.8v1.8h-8.9V40.9zm10.7 0h2.3l5.6 9v-9h2v12.2h-2.3l-5.6-9h-.1v9h-2V40.9zm17.2 0h2.1v12.2h-2.1V40.9zm4.7 0h2.3l5.6 9v-9h2v12.2h-2.3l-5.6-9h-.1v9h-2V40.9zM23.2 85.2v.4H12.7v-.4h3V63.3h-3v-.4h9.6c1 0 2 .1 3.1.2 1.1.2 2.1.5 3.1.9.9.4 1.7 1 2.4 1.8.6.8.9 1.8.9 3 0 .8-.2 1.6-.6 2.4-.4.7-1 1.4-1.9 1.9-.8.5-1.9 1-3.1 1.3-1.3.3-2.7.5-4.5.5h-1.3v10.4h2.8zm-1.9-10.9c1.8 0 3.1-.4 3.9-1.2.8-.8 1.2-2.2 1.2-4.2 0-1.9-.4-3.3-1.1-4.3-.7-1-2-1.5-3.8-1.5h-.7c-.2 0-.4 0-.6.1v11.1h1.1zm11.4-11v-.4h10.2c.8 0 1.7.1 2.6.3.9.2 1.8.5 2.6.9s1.4 1 1.9 1.7.8 1.6.8 2.7c0 .9-.2 1.6-.6 2.2-.4.6-.9 1.1-1.5 1.5-.6.4-1.3.7-2 .9-.7.2-1.5.3-2.2.4v.2c1 .2 2 .4 2.8.6.8.2 1.5.5 2.1.9.6.4 1.1.9 1.4 1.6.4.7.6 1.6.7 2.8.1 1.3.2 2.4.3 3.2.1.8.2 1.4.3 1.9.1.4.3.7.5.9.2.2.5.2.9.2s.8-.1 1.1-.4c.3-.2.5-.5.7-.7l.3.3-.6.6c-.2.2-.4.3-.7.5-.3.1-.6.2-1 .3-.4.1-.9.1-1.4.1-1.2 0-2.1-.2-2.8-.6-.7-.4-1.2-.8-1.5-1.4-.3-.6-.5-1.2-.6-1.8-.1-.7-.1-1.3-.1-1.8 0-.9-.1-1.7-.2-2.6-.1-.8-.3-1.6-.5-2.2-.3-.6-.7-1.2-1.3-1.5-.6-.4-1.3-.6-2.3-.6h-2.1v11.6h3v.4H32.7v-.4h3V63.3h-3zm8.9 9.9c1 0 1.7-.1 2.3-.4.6-.3 1-.6 1.3-1 .3-.4.5-.9.5-1.5.1-.6.1-1.1.1-1.7 0-.9-.1-1.7-.2-2.4s-.3-1.2-.6-1.7c-.3-.4-.7-.8-1.2-1-.5-.2-1.2-.3-2-.3h-.7c-.2 0-.5 0-.7.1v9.9h1.2z"/><path class="st1" d="M74.3 62.8v5.5h-.4c-.1-.4-.3-.8-.5-1.4-.3-.6-.6-1.1-1.1-1.7-.5-.5-1.1-1-1.8-1.4-.7-.4-1.6-.6-2.7-.6h-5.1v9.9h1.8c.8 0 1.5-.1 2-.3.5-.2 1-.5 1.4-1 .4-.4.7-.9.9-1.5.2-.6.4-1.2.6-2h.4v10h-.4c-.2-.6-.3-1.2-.5-1.8-.2-.6-.5-1.1-.8-1.5-.3-.4-.8-.8-1.3-1-.5-.3-1.1-.4-1.9-.4h-2.1v11.6H68c1 0 1.9-.2 2.7-.5.8-.3 1.5-.8 2.1-1.4.6-.6 1.1-1.3 1.5-2.1.4-.8.7-1.7.9-2.6h.4v7H55.1v-.4h3V63.3h-3v-.4h19.2zm4.5 15.7c0 .3.1.6.2 1s.3.9.5 1.3c.2.5.5 1 .8 1.5.3.5.7 1 1.1 1.4.5.5 1 .9 1.4 1.1.5.3.9.4 1.3.6.4.1.8.2 1.2.2h1c1.1 0 2.1-.2 2.8-.5.7-.4 1.3-.8 1.7-1.3.4-.5.7-1.1.9-1.6.2-.6.3-1.1.3-1.5 0-.8-.2-1.4-.6-2-.4-.5-.9-.9-1.5-1.3-.6-.3-1.3-.6-2.1-.9-.8-.2-1.6-.5-2.4-.7-.8-.2-1.6-.5-2.4-.9-.8-.3-1.5-.8-2.1-1.3-.6-.5-1.1-1.2-1.5-1.9-.4-.8-.6-1.7-.6-2.9 0-.9.2-1.7.6-2.5.4-.8.9-1.5 1.6-2.1.7-.6 1.5-1.1 2.5-1.5 1-.4 2-.6 3.1-.6.7 0 1.3.1 1.9.2.5.1 1 .3 1.4.4.4.1.8.3 1.1.4.3.1.6.2.9.2.3 0 .5 0 .6-.1.1-.1.2-.3.3-.5h.5v6.1h-.4c-.3-.7-.5-1.5-.8-2.2-.3-.7-.7-1.4-1.1-2-.4-.6-1-1.1-1.7-1.4-.7-.4-1.6-.5-2.6-.5-.9 0-1.6.1-2.3.4-.7.2-1.2.5-1.7.9-.4.4-.8.8-1 1.3-.2.5-.4 1-.4 1.4 0 .7.2 1.4.6 1.9.4.5.9.9 1.6 1.3.6.4 1.4.7 2.2.9.8.3 1.7.5 2.5.8.9.3 1.7.6 2.5.9.8.3 1.6.8 2.2 1.3.6.5 1.2 1.1 1.6 1.9.4.7.6 1.6.6 2.7 0 1-.2 2-.6 3s-1 1.8-1.8 2.5-1.7 1.3-2.8 1.7c-1.1.4-2.3.6-3.6.6-.7 0-1.3-.1-2-.2s-1.3-.3-1.8-.4c-.6-.1-1.1-.3-1.5-.4-.4-.1-.8-.2-1-.2-.3 0-.5 0-.6.1-.1.1-.2.3-.4.6h-.5v-7.1h.3zm20 0c0 .3.1.6.2 1s.3.9.5 1.3c.2.5.5 1 .8 1.5.3.5.7 1 1.1 1.4.5.5 1 .9 1.4 1.1.5.3.9.4 1.3.6.4.1.8.2 1.2.2h1c1.1 0 2.1-.2 2.8-.5.7-.4 1.3-.8 1.7-1.3.4-.5.7-1.1.9-1.6.2-.6.3-1.1.3-1.5 0-.8-.2-1.4-.6-2-.4-.5-.9-.9-1.5-1.3-.6-.3-1.3-.6-2.1-.9-.8-.2-1.6-.5-2.4-.7-.8-.2-1.6-.5-2.4-.9-.8-.3-1.5-.8-2.1-1.3-.6-.5-1.1-1.2-1.5-1.9-.4-.8-.6-1.7-.6-2.9 0-.9.2-1.7.6-2.5.4-.8.9-1.5 1.6-2.1.7-.6 1.5-1.1 2.5-1.5 1-.4 2-.6 3.1-.6.7 0 1.3.1 1.9.2.5.1 1 .3 1.4.4.4.1.8.3 1.1.4.3.1.6.2.9.2.3 0 .5 0 .6-.1.1-.1.2-.3.3-.5h.5v6.1h-.4c-.3-.7-.5-1.5-.8-2.2-.3-.7-.7-1.4-1.1-2-.4-.6-1-1.1-1.7-1.4-.7-.4-1.6-.5-2.6-.5-.9 0-1.6.1-2.3.4-.7.2-1.2.5-1.7.9-.4.4-.8.8-1 1.3-.2.5-.4 1-.4 1.4 0 .7.2 1.4.6 1.9.4.5.9.9 1.6 1.3.6.4 1.4.7 2.2.9.8.3 1.7.5 2.5.8.9.3 1.7.6 2.5.9.8.3 1.6.8 2.2 1.3.6.5 1.2 1.1 1.6 1.9.4.7.6 1.6.6 2.7 0 1-.2 2-.6 3-.4.9-1 1.8-1.8 2.5s-1.7 1.3-2.8 1.7c-1.1.4-2.3.6-3.6.6-.7 0-1.3-.1-2-.2s-1.3-.3-1.8-.4c-.6-.1-1.1-.3-1.5-.4-.4-.1-.8-.2-1-.2-.3 0-.5 0-.6.1-.1.1-.2.3-.4.6h-.5v-7.1h.3z"/></svg>