<svg id="Layer_1" xmlns="http://www.w3.org/2000/svg" viewBox="0 0 128 128"><style>.st0{fill:#b2b3b5}.st1{fill:#fff}</style><ellipse class="st0" cx="64" cy="64" rx="64" ry="64"/><path class="st1" d="M17.5 39.6h3.4l7 18.2h-3.4L22.7 53h-7.3l-1.7 4.8h-3.3l7.1-18.2zm-1.2 10.9h5.6l-2.7-7.8h-.1l-2.8 7.8zm11.1-5.9h3.2L34 54.7l3.2-10.1h3l-4.7 13.2h-3.3l-4.8-13.2zm25.7 10.3c0 .4 0 .6.1.8.1.2.3.2.5.2h.3c.1 0 .3 0 .4-.1v2c-.1 0-.2.1-.4.1s-.3.1-.5.1-.3.1-.5.1h-.4c-.6 0-1.1-.1-1.5-.4-.4-.2-.6-.7-.8-1.3-.6.6-1.3 1-2.1 1.2-.8.3-1.7.4-2.4.4-.6 0-1.2-.1-1.7-.2-.5-.2-1-.4-1.4-.7-.4-.3-.8-.7-1-1.2-.2-.5-.4-1.1-.4-1.7 0-.8.1-1.5.4-2 .3-.5.7-.9 1.2-1.2.5-.3 1-.5 1.6-.6l1.8-.3c.5-.1 1-.2 1.5-.2s.9-.1 1.3-.2.7-.3.9-.5c.2-.2.3-.5.3-1 0-.4-.1-.7-.3-.9-.2-.2-.4-.4-.7-.5l-.9-.3c-.3 0-.6-.1-.9-.1-.8 0-1.5.2-2 .5s-.8.9-.9 1.6h-2.9c.1-.9.3-1.6.6-2.1.4-.6.8-1 1.4-1.4.6-.3 1.2-.6 1.9-.7s1.4-.2 2.1-.2c.6 0 1.3.1 1.9.2.6.1 1.2.4 1.7.7.5.3.9.7 1.2 1.2.3.5.5 1.1.5 1.8v6.9zm-3-3.7c-.4.3-1 .5-1.6.5-.6.1-1.3.1-1.9.3-.3.1-.6.1-.9.2-.3.1-.5.2-.8.4-.2.2-.4.4-.5.6-.1.3-.2.6-.2 1 0 .3.1.6.3.8.2.2.4.4.7.5l.9.3c.3.1.6.1.9.1.3 0 .7 0 1-.1.4-.1.7-.2 1.1-.4.3-.2.6-.5.8-.8.2-.3.3-.7.3-1.2v-2.2zm6.2-11.6h2.9v2.8h-2.9v-2.8zm0 5h2.9v13.2h-2.9V44.6zm6.1-5h2.9v18.2h-2.9V39.6zm17.2 15.3c0 .4 0 .6.1.8.1.2.3.2.5.2h.3c.1 0 .3 0 .4-.1v2c-.1 0-.2.1-.4.1s-.3.1-.5.1-.3.1-.5.1h-.4c-.6 0-1.1-.1-1.5-.4-.4-.2-.6-.7-.8-1.3-.6.6-1.3 1-2.1 1.2-.8.3-1.7.4-2.4.4-.6 0-1.2-.1-1.7-.2-.5-.2-1-.4-1.4-.7-.4-.3-.8-.7-1-1.2-.2-.5-.4-1.1-.4-1.7 0-.8.1-1.5.4-2 .3-.5.7-.9 1.2-1.2.5-.3 1-.5 1.6-.6l1.8-.3c.5-.1 1-.2 1.5-.2s.9-.1 1.3-.2.7-.3.9-.5c.2-.2.3-.5.3-1 0-.4-.1-.7-.3-.9-.2-.2-.4-.4-.7-.5l-.9-.3c-.3 0-.6-.1-.9-.1-.8 0-1.5.2-2 .5s-.8.9-.9 1.6h-2.9c.1-.9.3-1.6.6-2.1.4-.6.8-1 1.4-1.4.6-.3 1.2-.6 1.9-.7.7-.1 1.4-.2 2.1-.2.6 0 1.3.1 1.9.2.6.1 1.2.4 1.7.7.5.3.9.7 1.2 1.2.3.5.5 1.1.5 1.8v6.9zm-2.9-3.7c-.4.3-1 .5-1.6.5-.6.1-1.3.1-1.9.3-.3.1-.6.1-.9.2-.3.1-.5.2-.8.4-.2.2-.4.4-.5.6-.1.3-.2.6-.2 1 0 .3.1.6.3.8.2.2.4.4.7.5l.9.3c.3.1.6.1.9.1.3 0 .7 0 1-.1.4-.1.7-.2 1.1-.4.3-.2.6-.5.8-.8.2-.3.3-.7.3-1.2v-2.2zm6.1-11.6h2.9v6.7h.1c.2-.3.4-.6.7-.9.3-.3.6-.5 1-.7.3-.2.7-.3 1.1-.4.4-.1.8-.1 1.1-.1 1 0 1.9.2 2.7.5.8.4 1.4.9 1.9 1.5s.9 1.4 1.2 2.2c.3.9.4 1.8.4 2.7 0 .9-.1 1.7-.3 2.6-.2.8-.6 1.6-1 2.2-.5.6-1.1 1.1-1.8 1.5-.7.4-1.6.6-2.5.6-.4 0-.9 0-1.3-.1-.5-.1-.9-.2-1.3-.3-.4-.2-.8-.4-1.1-.7-.3-.3-.6-.6-.8-1.1v1.8H83v-18zM93 51.2c0-.6-.1-1.2-.2-1.7-.2-.6-.4-1.1-.7-1.5-.3-.4-.7-.8-1.1-1-.5-.3-1-.4-1.6-.4-1.2 0-2.1.4-2.8 1.3-.6.9-.9 2-.9 3.4 0 .7.1 1.3.2 1.9.2.6.4 1.1.7 1.5.3.4.7.7 1.2 1 .5.2 1 .4 1.6.4.7 0 1.2-.1 1.7-.4.5-.3.8-.6 1.1-1.1.3-.4.5-.9.6-1.5.1-.8.2-1.3.2-1.9zm5.4-11.6h2.9v18.2h-2.9V39.6zm8.4 12.3c0 .5.1 1 .2 1.5s.4.9.7 1.3c.3.4.7.6 1.1.9.4.2 1 .3 1.6.3.9 0 1.5-.2 2.1-.5.5-.4.9-.9 1.2-1.6h2.8c-.2.7-.4 1.4-.8 1.9-.4.6-.8 1-1.4 1.4-.5.4-1.1.7-1.8.9-.7.2-1.3.3-2.1.3-1 0-2-.2-2.8-.5-.8-.3-1.5-.8-2-1.4-.6-.6-1-1.3-1.3-2.2-.3-.9-.4-1.8-.4-2.8 0-.9.1-1.8.4-2.7.3-.8.7-1.6 1.3-2.2.6-.6 1.2-1.1 2-1.5.8-.4 1.7-.6 2.7-.6 1 0 2 .2 2.8.7.8.4 1.5 1 2.1 1.7.5.7.9 1.5 1.2 2.5.2.9.3 1.9.2 2.9h-9.8zm6.7-1.9c0-.5-.1-.9-.3-1.3-.2-.4-.4-.8-.7-1.1-.3-.3-.6-.6-1-.8-.4-.2-.8-.3-1.3-.3s-1 .1-1.4.3c-.4.2-.8.4-1.1.7-.3.3-.5.7-.7 1.1-.2.4-.3.9-.3 1.4h6.8zM21.6 83.8c0-.3.1-.8.2-1.2l1.7-6.3h-2.1l.4-1.6h3.9l-2.1 7.9c-.1.4-.2.8-.2 1.1 0 .5.3.8.7.8.5 0 1-.4 1.5-1.7l.9.3c-.6 1.8-1.5 2.7-2.8 2.7-1.3 0-2.1-.8-2.1-2zm2.2-12.4c0-.7.6-1.3 1.3-1.3.7 0 1.3.6 1.3 1.3s-.6 1.3-1.3 1.3c-.7 0-1.3-.6-1.3-1.3zm12.1 12.4c0-.3.1-.8.2-1.2l1-3.6c.1-.5.2-.9.2-1.3 0-1-.7-1.6-1.8-1.6-1.5 0-3.1 1.4-3.7 4l-1.4 5.5h-1.8l2.4-9.3h-2l.4-1.6H33l-.6 2.6c.9-1.6 2.3-2.8 3.8-2.8 1.7 0 3 1.2 3 3 0 .5-.1 1.1-.3 1.7l-1 3.5c-.1.3-.2.7-.2.9 0 .5.3.8.7.8.5 0 .9-.4 1.5-1.7l.9.3c-.6 1.8-1.5 2.7-2.7 2.7-1.4.1-2.2-.7-2.2-1.9zm12.1.6c-.4-.4-.6-.9-.6-1.4 0-.7.5-1.3 1.2-1.3s1.1.5 1.1 1.1c0 .3-.1.6-.3.8.1.1.2.2.4.3.5.3 1.3.5 2.2.5 1.2 0 2.2-.5 2.2-1.5s-1.1-1.5-2.2-2.1c-1.6-.7-3-1.5-3-3.1 0-1.7 1.5-3.1 3.9-3.1 1.4 0 2.7.5 3.3 1.2.4.4.6.8.6 1.3 0 .8-.5 1.3-1.1 1.3-.6 0-1.1-.5-1.1-1.1 0-.3.1-.5.3-.8-.1-.1-.1-.1-.4-.2-.4-.2-1-.3-1.6-.3-1.3 0-2.1.6-2.1 1.4 0 .9 1 1.4 2.3 2 1.5.7 3 1.5 3 3.2 0 2.1-1.8 3.2-4.1 3.2-1.8 0-3.2-.5-4-1.4zm11.1-.6c0-.3.1-.8.2-1.2l1.7-6.3h-2.1l.4-1.6h3.9l-2.1 7.9c-.1.4-.2.8-.2 1.1 0 .5.3.8.7.8.5 0 1-.4 1.5-1.7l.9.3c-.6 1.8-1.5 2.7-2.8 2.7-1.2 0-2.1-.8-2.1-2zm2.3-12.4c0-.7.6-1.3 1.3-1.3.7 0 1.3.6 1.3 1.3s-.6 1.3-1.3 1.3c-.7 0-1.3-.6-1.3-1.3zm3.8 13.5l9-8.7H69l-.5 2.1h-1.6l.9-3.6h8.5l.5.9-8.7 8.4c.5-.2 1-.3 1.6-.3 1.1 0 2.2.5 3.2.5 1.1 0 1.4-.5 2-2.1l.9.2c-.5 2.1-1 3.5-3 3.5-1.3 0-2.9-.7-4.2-.7-1.2 0-1.9.3-2.7.7l-.7-.9zm14.3-4.1v.5c0 1.9 1.6 3 3.5 3 1.2 0 2.2-.3 3.6-1l-.4 1.7c-1.1.6-2.1.8-3.6.8-2.6 0-4.9-1.6-4.9-4.6 0-3.7 2.8-6.7 6-6.7 2.5 0 4.2 1.5 4.2 4 0 .7-.1 1.4-.4 2.2h-8zm.3-1.4H86c.1-.3.2-.7.2-1.1 0-1.2-.8-2.2-2.6-2.2-1.6 0-3.2 1.4-3.8 3.3zm15.8.8c0-3.1 1.3-6.7 3.7-9 1.2-1.1 2.7-1.8 4.6-1.8 2.2 0 3.9 1.2 3.9 2.6 0 .8-.5 1.4-1.3 1.4-.7 0-1.2-.5-1.2-1.2 0-.3.1-.6.4-.8-.2-.2-.8-.5-1.8-.5-1.2 0-2.4.5-3.5 1.5-1.3 1.2-2.5 3.4-2.9 5.6.8-1.1 2.4-2.5 4.7-2.5 2.8 0 4.6 1.9 4.6 4.5 0 3.1-2.6 5.9-6 5.9-1.6 0-2.7-.6-3.6-1.4-1.1-1.1-1.6-2.5-1.6-4.3zm2.7 3.1c.6.6 1.4 1 2.5 1 2.3 0 4.1-2 4.1-4.2 0-1.8-1.1-3.1-3.1-3.1-2.5 0-4.3 2-4.3 4.1-.1.9.2 1.6.8 2.2z"/></svg>