<svg id="Layer_1" xmlns="http://www.w3.org/2000/svg" viewBox="0 0 128 128"><style>.st0{fill:#b2b3b5}.st1{fill:#fff}</style><circle class="st0" cx="64" cy="64" r="64"/><path class="st1" d="M31.1 40.6c.6 0 1.2-.1 1.8-.2.6-.1 1.1-.3 1.6-.5s.9-.5 1.2-.9c.3-.4.5-.8.7-1.4h2.4v17.9h-3.2V42.9h-4.4v-2.3zm20-3.4c1.3 0 2.3.3 3.1.9.8.6 1.4 1.3 1.9 2.2.5.9.8 1.9.9 3 .2 1.1.2 2.1.2 3.2 0 1-.1 2.1-.2 3.2-.2 1.1-.5 2.1-.9 3-.5.9-1.1 1.7-1.9 2.2-.8.6-1.9.9-3.1.9-1.3 0-2.3-.3-3.1-.9-.8-.6-1.4-1.3-1.9-2.2-.5-.9-.8-1.9-.9-3-.2-1.1-.2-2.1-.2-3.2 0-1 .1-2.1.2-3.2.2-1.1.5-2.1.9-3 .5-.9 1.1-1.7 1.9-2.2.7-.6 1.8-.9 3.1-.9zm0 16.2c.6 0 1.2-.2 1.6-.5.4-.4.8-.9 1-1.5.2-.6.4-1.3.5-2.2.1-.8.2-1.7.2-2.7s-.1-1.8-.2-2.6-.3-1.6-.5-2.2c-.2-.6-.6-1.1-1-1.5-.4-.4-1-.5-1.6-.5-.6 0-1.2.2-1.6.5-.4.4-.7.9-1 1.5-.2.6-.4 1.4-.5 2.2-.1.8-.2 1.7-.2 2.6s.1 1.8.2 2.7c.1.8.3 1.6.5 2.2.2.6.6 1.1 1 1.5.4.3.9.5 1.6.5zm14.2-16.2c1.3 0 2.3.3 3.1.9.8.6 1.4 1.3 1.9 2.2.5.9.8 1.9.9 3 .2 1.1.2 2.1.2 3.2 0 1-.1 2.1-.2 3.2-.2 1.1-.5 2.1-.9 3-.5.9-1.1 1.7-1.9 2.2-.8.6-1.9.9-3.1.9-1.3 0-2.3-.3-3.1-.9-.8-.6-1.4-1.3-1.9-2.2-.5-.9-.8-1.9-.9-3-.2-1.1-.2-2.1-.2-3.2 0-1 .1-2.1.2-3.2.2-1.1.5-2.1.9-3 .5-.9 1.1-1.7 1.9-2.2.7-.6 1.8-.9 3.1-.9zm0 16.2c.6 0 1.2-.2 1.6-.5.4-.4.8-.9 1-1.5.2-.6.4-1.3.5-2.2.1-.8.2-1.7.2-2.7s-.1-1.8-.2-2.6-.3-1.6-.5-2.2c-.2-.6-.6-1.1-1-1.5-.4-.4-1-.5-1.6-.5-.6 0-1.2.2-1.6.5s-.7.9-1 1.5c-.2.6-.4 1.4-.5 2.2-.2.8-.2 1.7-.2 2.6s.1 1.8.2 2.7c.1.8.3 1.6.5 2.2.2.6.6 1.1 1 1.5.4.3.9.5 1.6.5zm13.4-6c-.8 0-1.4-.1-2-.4-.5-.3-1-.6-1.3-1.1-.3-.5-.6-1-.7-1.6-.2-.6-.2-1.3-.2-2s.1-1.3.2-2c.2-.6.4-1.2.8-1.6.3-.5.8-.8 1.3-1.1.5-.3 1.2-.4 1.9-.4s1.4.1 1.9.4c.5.3 1 .6 1.3 1.1.3.5.6 1 .8 1.6.2.6.2 1.3.2 2s-.1 1.4-.2 2c-.2.6-.4 1.1-.7 1.6-.3.5-.8.8-1.3 1.1-.6.3-1.2.4-2 .4zm-1.9-5.1c0 .5 0 .9.1 1.3s.2.8.3 1.1c.2.3.4.5.6.7.2.2.5.3.9.3s.7-.1.9-.3c.3-.2.5-.4.6-.7.2-.3.3-.7.3-1.1.1-.4.1-.9.1-1.3s0-.8-.1-1.3c-.1-.4-.2-.8-.3-1.1-.2-.3-.4-.6-.6-.8-.3-.2-.6-.3-1-.3s-.7.1-1 .3c-.3.2-.5.5-.6.8-.1.3-.2.7-.3 1.1.1.5.1.9.1 1.3zM88.9 37h1.9L81 56.1h-2L88.9 37zm2.6 18.8c-.8 0-1.4-.1-2-.4-.5-.3-1-.6-1.3-1.1-.3-.5-.6-1-.7-1.6-.2-.6-.2-1.3-.2-2s.1-1.3.2-2c.2-.6.4-1.2.8-1.6.3-.5.8-.8 1.3-1.1.5-.3 1.2-.4 1.9-.4s1.4.1 1.9.4c.5.3 1 .6 1.3 1.1.3.5.6 1 .8 1.6.2.6.2 1.3.2 2s-.1 1.4-.2 2c-.2.6-.4 1.1-.7 1.6-.3.5-.8.8-1.3 1.1-.5.3-1.2.4-2 .4zm-1.9-5.1c0 .5 0 .9.1 1.3s.2.8.3 1.1c.2.3.4.5.6.7.2.2.5.3.9.3s.7-.1.9-.3c.3-.2.5-.4.6-.7.2-.3.3-.7.3-1.1.1-.4.1-.9.1-1.3s0-.8-.1-1.3c-.1-.4-.2-.8-.3-1.1-.2-.3-.4-.6-.6-.8-.3-.2-.6-.3-1-.3s-.7.1-1 .3c-.3.2-.5.5-.6.8-.1.3-.2.7-.3 1.1.1.5.1.9.1 1.3zM37.9 75.5c-.1-.5-.3-1-.6-1.5-.2-.4-.5-.8-.9-1.1-.4-.3-.8-.6-1.3-.8-.5-.2-1.1-.3-1.7-.3-1 0-1.8.2-2.5.6-.7.4-1.3.9-1.7 1.6-.4.7-.8 1.4-1 2.2-.2.8-.3 1.7-.3 2.6 0 .9.1 1.7.3 2.6.2.8.5 1.6 1 2.2.4.7 1 1.2 1.7 1.6.7.4 1.5.6 2.5.6.7 0 1.3-.1 1.9-.4.5-.2 1-.6 1.4-1 .4-.4.7-.9.9-1.5.2-.6.4-1.2.4-1.9h3.1c-.1 1.1-.3 2.1-.7 3-.4.9-.9 1.7-1.6 2.3-.7.7-1.5 1.2-2.4 1.5-.9.4-1.9.5-3 .5-1.4 0-2.6-.3-3.7-.8s-2-1.2-2.7-2.1c-.7-.9-1.3-1.9-1.7-3-.4-1.2-.6-2.4-.6-3.7 0-1.3.2-2.5.6-3.7.4-1.2 1-2.2 1.7-3 .7-.9 1.7-1.6 2.7-2.1 1.1-.5 2.3-.8 3.7-.8 1 0 2 .1 2.9.4.9.3 1.7.7 2.4 1.2s1.2 1.2 1.7 2c.4.8.7 1.6.8 2.6h-3.3zm11.8 12.8c-1.1 0-2-.2-2.8-.5-.8-.3-1.5-.8-2.1-1.4-.6-.6-1-1.3-1.3-2.2-.3-.9-.4-1.8-.4-2.8 0-1 .1-1.9.4-2.8.3-.9.7-1.6 1.3-2.2.6-.6 1.3-1.1 2.1-1.4.8-.3 1.8-.5 2.8-.5 1.1 0 2 .2 2.8.5.8.3 1.5.8 2.1 1.4.6.6 1 1.3 1.3 2.2.3.9.4 1.8.4 2.8 0 1-.1 2-.4 2.8-.3.9-.7 1.6-1.3 2.2-.6.6-1.3 1.1-2.1 1.4-.9.4-1.8.5-2.8.5zm0-2.3c.6 0 1.2-.1 1.7-.4.5-.3.9-.6 1.2-1.1.3-.4.5-.9.7-1.5.1-.6.2-1.1.2-1.7 0-.6-.1-1.1-.2-1.7-.1-.6-.4-1.1-.7-1.5-.3-.4-.7-.8-1.2-1.1-.5-.3-1-.4-1.7-.4-.6 0-1.2.1-1.7.4-.5.3-.9.6-1.2 1.1-.3.4-.5.9-.7 1.5-.1.6-.2 1.1-.2 1.7 0 .6.1 1.1.2 1.7.1.6.4 1.1.7 1.5.3.4.7.8 1.2 1.1.4.3 1 .4 1.7.4zm7.7-11.2h2.2v-4h2.9v4h2.6V77h-2.6v7.8c0 .2.1.4.2.6.1.2.2.3.4.3.2.1.4.1.8.1h.6c.2 0 .4 0 .6-.1V88c-.3 0-.6.1-.9.1-.3 0-.6.1-.9.1-.8 0-1.4-.1-1.9-.2s-.8-.4-1.1-.6-.4-.6-.5-1.1c-.1-.4-.1-.9-.2-1.5V77h-2.2v-2.2zm8.5 0h2.2v-4H71v4h2.6V77H71v7.8c0 .2.1.4.2.6.1.2.2.3.4.3.2.1.4.1.8.1h.6c.2 0 .4 0 .6-.1V88c-.3 0-.6.1-.9.1-.3 0-.6.1-.9.1-.8 0-1.4-.1-1.9-.2s-.8-.4-1.1-.6c-.3-.3-.4-.6-.5-1.1-.1-.4-.1-.9-.2-1.5V77h-2.2v-2.2zm15.9 13.5c-1.1 0-2-.2-2.8-.5-.8-.3-1.5-.8-2.1-1.4-.6-.6-1-1.3-1.3-2.2-.3-.9-.4-1.8-.4-2.8 0-1 .1-1.9.4-2.8.3-.9.7-1.6 1.3-2.2.6-.6 1.3-1.1 2.1-1.4.8-.3 1.8-.5 2.8-.5 1.1 0 2 .2 2.8.5.8.3 1.5.8 2.1 1.4.6.6 1 1.3 1.3 2.2.3.9.4 1.8.4 2.8 0 1-.1 2-.4 2.8-.3.9-.7 1.6-1.3 2.2-.6.6-1.3 1.1-2.1 1.4-.8.4-1.7.5-2.8.5zm0-2.3c.6 0 1.2-.1 1.7-.4.5-.3.9-.6 1.2-1.1.3-.4.5-.9.7-1.5.1-.6.2-1.1.2-1.7 0-.6-.1-1.1-.2-1.7-.1-.6-.4-1.1-.7-1.5-.3-.4-.7-.8-1.2-1.1-.5-.3-1-.4-1.7-.4-.6 0-1.2.1-1.7.4-.5.3-.9.6-1.2 1.1-.3.4-.5.9-.7 1.5-.1.6-.2 1.1-.2 1.7 0 .6.1 1.1.2 1.7.1.6.4 1.1.7 1.5.3.4.7.8 1.2 1.1.5.3 1.1.4 1.7.4zm9.1-11.2h2.8v1.9l.1.1c.4-.7 1-1.3 1.7-1.7.7-.4 1.5-.6 2.4-.6 1.4 0 2.6.4 3.4 1.1.8.7 1.3 1.9 1.3 3.4v9h-2.9v-8.3c0-1-.3-1.8-.7-2.3-.4-.5-1-.7-1.9-.7-.5 0-.9.1-1.3.3-.4.2-.7.4-1 .7-.3.3-.5.7-.6 1.1-.2.4-.2.9-.2 1.4V88h-2.9V74.8z"/></svg>