<svg id="Layer_1" xmlns="http://www.w3.org/2000/svg" viewBox="0 0 128 128"><style>.st0{fill:#ffb400}.st1{fill:#FFF}</style><circle class="st0" cx="64" cy="64" r="64"/><path class="st1" d="M29.1 46l16.6 25.5h.1V46h4v31.5h-4.6L28.7 52.3h-.1v25.3h-4V46h4.5zM72.5 76.1c-1.7 1.3-3.9 1.9-6.4 1.9-1.8 0-3.4-.3-4.7-.9-1.3-.6-2.5-1.4-3.4-2.5-.9-1.1-1.6-2.3-2-3.8-.5-1.5-.7-3.1-.8-4.8 0-1.7.3-3.3.8-4.8.5-1.4 1.3-2.7 2.2-3.8 1-1.1 2.1-1.9 3.4-2.5 1.3-.6 2.7-.9 4.3-.9 2 0 3.7.4 5.1 1.3 1.3.8 2.4 1.9 3.2 3.2.8 1.3 1.4 2.7 1.7 4.2.3 1.5.4 3 .4 4.4H59.1c0 1 .1 1.9.4 2.8.3.9.7 1.7 1.3 2.4.6.7 1.3 1.2 2.2 1.7.9.4 2 .6 3.2.6 1.6 0 2.9-.4 3.9-1.1 1-.7 1.7-1.9 2-3.4h3.7c-.4 2.8-1.5 4.7-3.3 6zm-.9-14.7c-.3-.8-.8-1.5-1.4-2.1-.6-.6-1.3-1-2-1.4-.8-.3-1.6-.5-2.6-.5s-1.8.2-2.6.5-1.5.8-2 1.4c-.6.6-1 1.3-1.3 2.1-.3.8-.5 1.6-.6 2.5h13.1c0-.8-.2-1.7-.6-2.5zM99.2 77.5l-4.6-18.1h-.1l-4.6 18.1h-4.1l-7.3-22.8h4.1l5.2 18.7h.1l4.6-18.7h4.1l4.8 18.7h.1l5.1-18.7h3.9l-7.3 22.8h-4z"/></svg>