<svg id="Layer_1" xmlns="http://www.w3.org/2000/svg" viewBox="0 0 128 128"><style>.st0{fill:#fff}.st1{fill:#ed3023}</style><ellipse class="st0" cx="64" cy="64" rx="64" ry="64"/><path class="st1" d="M26.7 73.7c.6 0 1.2-.2 1.7-.4s1-.6 1.3-1c.3-.4.5-1 .5-1.7 0-1.1-.4-1.9-1.1-2.5-.7-.6-1.5-.9-2.5-.9-1.3 0-2.3.4-2.9 1.3-.7.8-1 1.9-.9 3.2H18c0-1.3.3-2.5.7-3.5.4-1.1 1-2 1.8-2.7.8-.8 1.7-1.4 2.7-1.8 1.1-.4 2.2-.6 3.5-.6 1 0 2 .1 3 .4 1 .3 1.9.7 2.7 1.3.8.6 1.4 1.3 2 2.2.5.9.8 1.8.8 3s-.3 2.3-.9 3.2c-.6.9-1.5 1.6-2.6 1.9v.1c1.4.3 2.5 1 3.3 2 .8 1 1.2 2.3 1.2 3.7 0 1.3-.3 2.5-.8 3.5s-1.2 1.9-2.1 2.6c-.9.7-1.8 1.2-3 1.6-1.1.4-2.3.5-3.5.5-1.4 0-2.7-.2-3.8-.6-1.2-.4-2.1-1-3-1.8-.8-.8-1.4-1.7-1.9-2.8-.4-1.1-.6-2.4-.6-3.9h4.8c0 .7.1 1.3.3 1.9.2.6.5 1.1.8 1.6.4.4.8.8 1.3 1.1.5.3 1.2.4 1.9.4 1.1 0 2.1-.4 2.9-1.1.8-.7 1.2-1.7 1.2-2.9 0-1-.2-1.7-.6-2.2-.4-.5-.8-.9-1.4-1.1-.6-.2-1.2-.4-1.9-.4s-1.3-.1-1.9-.1v-3.6c.6.2 1.2.2 1.8.1zm16.9-.9v-2.7h3.1v-2.8c0-1.5.4-2.6 1.3-3.4.9-.8 2.1-1.2 3.8-1.2.3 0 .6 0 1 .1.4 0 .7.1 1 .2v2.6c-.3-.1-.6-.2-.9-.2-.3 0-.6-.1-.9-.1-.7 0-1.3.1-1.7.4-.4.3-.6.8-.6 1.6v2.6h3.6v2.7h-3.6v15.8h-3V72.8h-3.1zm12 2.8c.4-1.2 1-2.2 1.7-3.1.8-.9 1.7-1.6 2.8-2.1 1.1-.5 2.4-.8 3.9-.8s2.8.2 3.9.8c1.1.5 2 1.2 2.8 2.1.8.9 1.3 1.9 1.7 3.1.4 1.2.6 2.5.6 3.8 0 1.4-.2 2.6-.6 3.8-.4 1.2-1 2.2-1.7 3.1-.8.9-1.7 1.6-2.8 2-1.1.5-2.4.7-3.9.7s-2.7-.2-3.9-.7c-1.1-.5-2.1-1.2-2.8-2-.8-.9-1.3-1.9-1.7-3.1-.4-1.2-.6-2.4-.6-3.8 0-1.3.2-2.6.6-3.8zm3.1 6.8c.3.9.7 1.6 1.2 2.2.5.6 1.1 1 1.8 1.3.7.3 1.4.5 2.2.5.8 0 1.5-.2 2.2-.5.7-.3 1.3-.8 1.8-1.3.5-.6.9-1.3 1.2-2.2.3-.9.4-1.9.4-3s-.1-2.1-.4-3c-.3-.9-.7-1.6-1.2-2.2-.5-.6-1.1-1.1-1.8-1.4-.7-.3-1.5-.5-2.2-.5-.8 0-1.5.2-2.2.5-.7.3-1.3.8-1.8 1.4-.5.6-.9 1.3-1.2 2.2-.3.9-.4 1.9-.4 3-.1 1.2.1 2.1.4 3zm20.6-12.2v3.9h.1c.7-1.5 1.6-2.6 2.7-3.3 1.1-.7 2.4-1 4.1-1V73c-1.2 0-2.3.2-3.1.5-.9.3-1.6.8-2.1 1.5-.5.6-.9 1.4-1.1 2.3-.2.9-.4 2-.4 3.2v8.2h-3V70.2h2.8zm15-1c.4-1.2 1-2.3 1.7-3.2.8-.9 1.7-1.6 2.9-2.1s2.5-.8 4-.8c1.1 0 2.2.2 3.3.5 1 .4 1.9.9 2.7 1.5.8.7 1.4 1.5 1.9 2.5s.7 2.1.7 3.3c0 1.3-.2 2.4-.6 3.3-.4.9-.9 1.7-1.6 2.4-.7.7-1.4 1.3-2.3 1.9-.8.6-1.7 1.1-2.6 1.7-.9.6-1.7 1.2-2.5 1.8-.8.6-1.5 1.4-2.1 2.3h11.8v4.4H93.3c0-1.5.2-2.7.6-3.8.4-1.1 1-2 1.7-2.9.7-.8 1.6-1.6 2.5-2.3 1-.7 2-1.4 3.1-2.2.5-.4 1.1-.8 1.8-1.2.6-.4 1.2-.8 1.7-1.3s.9-1 1.3-1.6c.3-.6.5-1.3.5-2 0-1.2-.4-2.2-1.1-2.8-.7-.7-1.6-1-2.7-1-.7 0-1.4.2-1.9.5s-.9.8-1.2 1.4c-.3.6-.5 1.2-.7 1.9-.1.7-.2 1.4-.2 2h-4.9c0-1.6.1-2.9.5-4.2zM46.3 36.7v8.9l9.1-8.9h3.1L51 43.9l7.8 10.7h-3l-6.5-9-3 2.8v6.3h-2.4v-18h2.4zm14.3 2.6v-2.6h2.1v2.6h-2.1zm2.1 2.4v12.9h-2.1V41.7h2.1zm13 12.9v-1.8c-.4.7-.9 1.2-1.7 1.6-.7.3-1.6.5-2.5.5-1 0-1.9-.2-2.6-.6-.7-.4-1.4-.9-1.8-1.5-.5-.6-.9-1.3-1.1-2.2-.2-.8-.4-1.7-.4-2.6 0-.9.1-1.8.4-2.6.2-.8.6-1.5 1.1-2.1.5-.6 1.1-1.1 1.9-1.5.7-.4 1.6-.5 2.6-.5.3 0 .7 0 1.1.1l1.2.3c.4.2.7.4 1.1.6.3.3.6.6.9 1v-6.7H78v17.9h-2.3zM68.1 50c.2.6.4 1.1.7 1.5.3.4.7.8 1.3 1.1.5.3 1.1.4 1.8.4s1.3-.1 1.8-.4c.5-.3.9-.7 1.2-1.1.3-.5.5-1 .7-1.6.1-.6.2-1.2.2-1.8 0-.6-.1-1.2-.2-1.8-.2-.6-.4-1.1-.7-1.6-.3-.5-.7-.8-1.3-1.1-.5-.3-1.1-.4-1.9-.4-.7 0-1.3.1-1.8.4-.5.3-.9.7-1.2 1.1-.3.5-.5 1-.7 1.6-.1.6-.2 1.2-.2 1.9 0 .6.1 1.2.3 1.8zM83 51.7c.2.3.5.6.8.8.3.2.7.3 1.1.4.4.1.8.1 1.3.1.3 0 .7 0 1.1-.1.4 0 .7-.1 1-.3.3-.1.6-.3.8-.6.2-.3.3-.6.3-1 0-.6-.2-1-.6-1.3-.4-.3-.9-.5-1.6-.7-.6-.2-1.3-.3-2-.5-.7-.1-1.4-.3-2-.6-.6-.3-1.1-.6-1.6-1.1-.4-.5-.6-1.1-.6-2 0-.6.1-1.2.4-1.7.3-.5.7-.8 1.1-1.1.5-.3 1-.5 1.5-.7.6-.1 1.1-.2 1.7-.2.7 0 1.4.1 2 .2.6.1 1.2.3 1.6.6.5.3.9.7 1.1 1.3.3.5.4 1.2.5 2h-2.1c0-.4-.1-.8-.3-1-.2-.3-.4-.5-.7-.7-.3-.2-.6-.3-.9-.4-.3-.1-.7-.1-1-.1-.3 0-.6 0-1 .1-.3.1-.6.1-.9.3-.3.1-.5.3-.7.5-.2.2-.2.5-.2.8 0 .4.1.7.4.9.3.2.6.4 1 .6.4.2.9.3 1.4.4l1.5.3c.5.1 1.1.3 1.6.4.5.2 1 .4 1.4.7.4.3.7.6 1 1 .2.4.4.9.4 1.5 0 .8-.2 1.4-.5 2-.3.5-.7.9-1.3 1.3-.5.3-1.1.5-1.8.7-.7.1-1.3.2-2 .2s-1.4-.1-2.1-.2c-.7-.1-1.2-.4-1.7-.7-.5-.3-.9-.8-1.2-1.4-.3-.6-.5-1.2-.5-2h2.1c-.1.6 0 1 .2 1.3z"/></svg>