<svg id="Layer_1" xmlns="http://www.w3.org/2000/svg" viewBox="0 0 128 128"><style>.st0{fill:#FFF}.st1{fill:#ed3023}</style><circle class="st0" cx="64" cy="64" r="64"/><path class="st1" d="M24.4 60.1c.6 0 1.2-.2 1.7-.4s1-.6 1.3-1c.3-.4.5-1 .5-1.7 0-1.1-.4-1.9-1.1-2.5-.7-.6-1.5-.9-2.5-.9-1.3 0-2.3.4-2.9 1.3-.7.8-1 1.9-.9 3.2h-4.8c0-1.3.3-2.5.7-3.5.4-1.1 1-2 1.8-2.7.8-.8 1.7-1.4 2.7-1.8 1.1-.4 2.2-.6 3.5-.6 1 0 2 .1 3 .4 1 .3 1.9.7 2.7 1.3.8.6 1.4 1.3 2 2.2.5.9.8 1.8.8 3s-.3 2.3-.9 3.2c-.6.9-1.5 1.6-2.6 1.9v.1c1.4.3 2.5 1 3.3 2 .8 1 1.2 2.3 1.2 3.7 0 1.3-.3 2.5-.8 3.5s-1.2 1.9-2.1 2.6c-.9.7-1.8 1.2-3 1.6-1.1.4-2.3.5-3.5.5-1.4 0-2.7-.2-3.8-.6-1.2-.4-2.1-1-3-1.8-.8-.8-1.4-1.7-1.9-2.8-.4-1.1-.6-2.4-.6-3.9H20c0 .7.1 1.3.3 1.9.2.6.5 1.1.8 1.6.4.4.8.8 1.3 1.1.5.3 1.2.4 1.9.4 1.1 0 2.1-.4 2.9-1.1.8-.7 1.2-1.7 1.2-2.9 0-1-.2-1.7-.6-2.2-.4-.5-.8-.9-1.4-1.1-.6-.2-1.2-.4-1.9-.4s-1.3-.1-1.9-.1V60c.6.1 1.2.1 1.8.1zM41.3 59.2v-2.7h3.1v-2.8c0-1.5.4-2.6 1.3-3.4.9-.8 2.1-1.2 3.8-1.2.3 0 .6 0 1 .1.4 0 .7.1 1 .2V52c-.3-.1-.5-.2-.9-.2-.3 0-.6-.1-.9-.1-.7 0-1.3.1-1.7.4-.4.3-.6.8-.6 1.6v2.6H51V59h-3.6v16h-3V59.2h-3.1zM53.3 62c.4-1.2 1-2.2 1.7-3.1.8-.9 1.7-1.6 2.8-2.1 1.1-.5 2.4-.8 3.9-.8s2.8.2 3.9.8c1.1.5 2 1.2 2.8 2.1.8.9 1.3 1.9 1.7 3.1.4 1.2.6 2.5.6 3.8 0 1.4-.2 2.6-.6 3.8-.4 1.2-1 2.2-1.7 3.1-.8.9-1.7 1.6-2.8 2-1.1.5-2.4.7-3.9.7s-2.7-.2-3.9-.7c-1.1-.5-2.1-1.2-2.8-2-.8-.9-1.3-1.9-1.7-3.1-.4-1.2-.6-2.4-.6-3.8s.2-2.6.6-3.8zm3.1 6.8c.3.9.7 1.6 1.2 2.2.5.6 1.1 1 1.8 1.3.7.3 1.4.5 2.2.5s1.5-.2 2.2-.5c.7-.3 1.3-.8 1.8-1.3.5-.6.9-1.3 1.2-2.2.3-.9.4-1.9.4-3s-.1-2.1-.4-3c-.3-.9-.7-1.6-1.2-2.2-.5-.6-1.1-1.1-1.8-1.4-.7-.3-1.4-.5-2.2-.5s-1.5.2-2.2.5c-.7.3-1.3.8-1.8 1.4-.5.6-.9 1.3-1.2 2.2-.3.9-.4 1.9-.4 3s.1 2.1.4 3zM77 56.5v3.9h.1c.7-1.5 1.6-2.6 2.7-3.3 1.1-.7 2.4-1 4.1-1v3.2c-1.2 0-2.3.2-3.1.5-.9.3-1.6.8-2.1 1.5-.5.6-.9 1.4-1.1 2.3-.2.9-.4 2-.4 3.2V75h-3V56.5H77zM92.1 55.6c.4-1.2 1-2.3 1.7-3.2.8-.9 1.7-1.6 2.9-2.1s2.5-.8 4-.8c1.1 0 2.2.2 3.3.5 1 .4 2 .9 2.7 1.5.8.7 1.4 1.5 1.9 2.5s.7 2.1.7 3.3c0 1.3-.2 2.4-.6 3.3-.4.9-.9 1.7-1.6 2.4-.7.7-1.4 1.3-2.3 1.9-.8.6-1.7 1.1-2.6 1.7-.9.6-1.7 1.2-2.5 1.8-.8.6-1.5 1.4-2.1 2.3h11.8V75H91c0-1.5.2-2.7.6-3.8.4-1.1 1-2 1.7-2.9.7-.8 1.6-1.6 2.5-2.3 1-.7 2-1.4 3.1-2.2.5-.4 1.1-.8 1.8-1.2.6-.4 1.2-.8 1.7-1.3s.9-1 1.3-1.6c.3-.6.5-1.3.5-2 0-1.2-.4-2.2-1.1-2.8-.7-.7-1.6-1-2.7-1-.7 0-1.4.2-1.9.5s-.9.8-1.2 1.4c-.3.6-.5 1.2-.7 1.9-.1.7-.2 1.4-.2 2h-4.9c0-1.5.2-2.9.6-4.1z"/></svg>