<svg id="Layer_1" xmlns="http://www.w3.org/2000/svg" viewBox="0 0 128 128"><style>.st0{fill:#fff}.st1{fill:#ed3023}</style><circle class="st0" cx="64" cy="64" r="64"/><path class="st1" d="M25.3 68.2c0-7.6 6-15.6 14.2-15.6 6.7 0 10.6 4.8 10.6 10.7 0 7.6-6 15.6-14.2 15.6-6.7 0-10.6-4.7-10.6-10.7zm22.5-4.8c0-4.7-2.6-8.8-8.5-8.8-6.7 0-11.7 6.8-11.7 13.5 0 4.7 2.6 8.8 8.5 8.8 6.7 0 11.7-6.8 11.7-13.5zm15.6-10.8c-.6.1-1.2.4-1.7.9-.8.7-1.4 2.1-1.7 3.6l-1.2 5.1H67l1.5-6.3c.5-2.2 1.2-3.4 2.3-4.4.8-.8 2.1-1.5 3.7-1.5 1.7 0 2.7.8 2.7 2 0 .9-.8 1.6-1.5 1.6-1 0-1.7-.7-1.7-1.8-.7.1-1.3.3-1.9.9-.8.7-1.4 2.1-1.7 3.6L69 62.2h4.2l-.4 1.8h-4.2l-3.3 14.5h-2L66.6 64h-8.2l-3.3 14.5h-2L56.4 64h-2.9l.4-1.8h2.9l1.3-5.4c.5-2.2 1.2-3.4 2.3-4.4.8-.8 2.2-1.5 3.6-1.5 1.7 0 2.7.8 2.7 2 0 .9-.8 1.6-1.5 1.6-1.1-.1-1.8-.7-1.8-1.9zm12.3 18.3v1c0 3.4 2.7 5.1 5.5 5.1 1.9 0 3.2-.4 5.3-1.5l-.5 2.1c-1.7.9-3.1 1.2-5.2 1.2-3.7 0-7.1-2.4-7.1-6.8 0-5.5 4.3-10 9.1-10 3.7 0 5.9 2.3 5.9 5.8 0 1-.2 2-.7 3.2H75.7zm.3-1.7h10.4c.2-.6.3-1.2.3-1.9 0-1.8-1.2-3.6-4.2-3.6-2.8 0-5.5 2.3-6.5 5.5zM95.6 64h-3.1l.5-1.8h5l-1.1 4.4c2.2-3 4-4.7 5.5-4.7 1.3 0 2 .7 2 1.7s-.9 1.9-1.8 1.9-1.5-.5-1.7-1.3c-1.3.8-4.1 3.3-5.1 7.1L94 78.4h-2L95.6 64z"/></svg>