<svg id="Layer_1" xmlns="http://www.w3.org/2000/svg" viewBox="0 0 128 128"><style>.st0{fill:#fff}.st1{fill:#ed3023}</style><circle class="st0" cx="64" cy="64" r="64"/><path class="st1" d="M45.1 86.4c.4-1.2 1-2.2 1.7-3.1.8-.9 1.7-1.6 2.9-2.1 1.1-.5 2.5-.8 3.9-.8 1.5 0 2.8.3 3.9.8s2.1 1.2 2.9 2.1c.8.9 1.4 1.9 1.7 3.1.4 1.2.6 2.5.6 3.9s-.2 2.7-.6 3.9c-.4 1.2-1 2.2-1.7 3.1-.8.9-1.7 1.6-2.9 2.1-1.1.5-2.4.7-3.9.7s-2.8-.2-3.9-.7c-1.1-.5-2.1-1.2-2.9-2.1-.8-.9-1.4-1.9-1.7-3.1-.4-1.2-.6-2.5-.6-3.9s.2-2.7.6-3.9zm3.2 6.9c.3.9.7 1.6 1.3 2.2.5.6 1.2 1 1.9 1.4.7.3 1.5.5 2.3.5.8 0 1.6-.2 2.3-.5.7-.3 1.3-.8 1.9-1.4.5-.6 1-1.3 1.3-2.2.3-.9.5-1.9.5-3s-.2-2.2-.5-3c-.3-.9-.7-1.6-1.3-2.2-.5-.6-1.2-1.1-1.9-1.4-.7-.3-1.5-.5-2.3-.5-.8 0-1.6.2-2.3.5-.7.3-1.3.8-1.9 1.4-.5.6-1 1.4-1.3 2.2-.3.9-.5 1.9-.5 3s.2 2.1.5 3zm16.6-9.7v-2.7h3.2v-2.8c0-1.5.4-2.7 1.3-3.5.9-.8 2.2-1.2 3.9-1.2.3 0 .6 0 1 .1.4 0 .7.1 1 .2v2.7c-.3-.1-.6-.2-.9-.2-.3 0-.6-.1-.9-.1-.8 0-1.3.1-1.7.4-.4.3-.6.8-.6 1.7v2.6h3.6v2.7h-3.6v16.1h-3.1v-16h-3.2zm10.5 0v-2.7h3.2v-2.8c0-1.5.4-2.7 1.3-3.5.9-.8 2.2-1.2 3.9-1.2.3 0 .6 0 1 .1.4 0 .7.1 1 .2v2.7c-.3-.1-.6-.2-.9-.2-.3 0-.6-.1-.9-.1-.8 0-1.3.1-1.7.4-.4.3-.6.8-.6 1.7v2.6h3.6v2.7h-3.6v16.1h-3.1v-16h-3.2zM40.9 50.6c-.6-1-1.1-2.1-1.5-3.2-.4-1.1-.6-2.4-.6-3.9s.3-2.8.8-3.9 1.3-2.1 2.3-2.9c1-.8 2.1-1.4 3.3-1.8 1.2-.4 2.6-.6 4-.6 3.4 0 6 1 7.9 2.9 1.9 2 2.9 4.9 2.8 8.8H56c-.1-2.7-.6-4.7-1.7-6.2-1.1-1.4-2.7-2.2-4.9-2.2-.9 0-1.8.2-2.5.5-.8.3-1.5.7-2.1 1.3-.6.5-1.1 1.2-1.4 1.9-.3.7-.5 1.5-.5 2.4 0 .7.1 1.4.2 2 .2.6.3 1.2.6 1.8.2.5.5 1.1.8 1.6.3.5.5 1 .8 1.6h7.2v2h-6.2c.2.5.5 1 .6 1.6.2.6.3 1.2.3 1.8 0 1-.2 1.9-.5 2.8-.3.8-.7 1.5-1.2 2.2-.5.7-1 1.3-1.7 1.9-.6.6-1.3 1.1-2 1.7l.1.1c.8-.3 1.6-.6 2.3-.9.7-.3 1.6-.4 2.5-.4.9 0 1.7.1 2.4.2.7.2 1.3.3 2 .5.6.2 1.2.4 1.8.5.6.2 1.3.3 2 .3s1.4-.2 2.2-.5c.7-.3 1.3-.7 1.9-1.2l2 3c-.9.8-1.9 1.3-3.1 1.6-1.2.3-2.3.4-3.5.4-.8 0-1.5-.1-2.2-.3-.7-.2-1.5-.4-2.3-.6-.8-.2-1.5-.5-2.3-.7-.8-.2-1.6-.3-2.5-.3-.9 0-1.7.1-2.4.4-.7.3-1.4.7-2.1 1.1l-2.1-3c.6-.4 1.3-.9 1.9-1.5.6-.6 1.1-1.2 1.6-1.9s.8-1.4 1.1-2.2c.3-.8.4-1.6.4-2.5 0-.7-.1-1.4-.4-2.2-.2-.8-.5-1.4-.8-2h-3.9v-2h2.5zm32.4-9.5L72 48.3l.1.1c.9-.9 1.8-1.5 2.8-1.9 1-.4 2.1-.6 3.4-.6 1.6 0 3 .3 4.2.9 1.2.6 2.2 1.3 3.1 2.3.8 1 1.5 2.1 1.9 3.4.4 1.3.7 2.7.7 4.2 0 1.6-.3 3.2-1 4.6-.6 1.4-1.5 2.6-2.6 3.7-1.1 1-2.3 1.8-3.8 2.4-1.4.6-2.9.8-4.5.8-1.5 0-3-.2-4.4-.6-1.4-.4-2.7-1-3.8-1.9-1.1-.8-2-1.9-2.6-3.2-.7-1.3-1-2.7-1-4.4H71c.2 1.5.7 2.6 1.6 3.5.9.9 2.1 1.3 3.6 1.3.8 0 1.6-.2 2.3-.5.7-.3 1.3-.8 1.7-1.4.5-.6.8-1.2 1.1-2s.4-1.5.4-2.3c0-.8-.1-1.6-.4-2.3-.2-.7-.6-1.4-1.1-1.9-.5-.5-1.1-1-1.7-1.3-.7-.3-1.4-.5-2.3-.5-1.2 0-2.1.2-2.8.6-.7.4-1.4 1.1-2 1.9h-5.8l3.1-17.6h17.8v5.3H73.3z"/></svg>