<svg id="Layer_1" xmlns="http://www.w3.org/2000/svg" viewBox="0 0 128 128"><style>.st0{fill:#FFF}.st1{fill:#ed3023}</style><circle class="st0" cx="64" cy="64" r="64"/><path class="st1" d="M31.1 76.9v2.5h.1c.5-1 1.3-1.8 2.4-2.3 1.1-.5 2.3-.7 3.6-.7 1.5 0 2.7.3 3.8.8 1.1.5 2 1.3 2.7 2.2.7.9 1.3 2 1.6 3.1.4 1.2.5 2.4.5 3.8 0 1.3-.2 2.6-.5 3.8-.4 1.2-.9 2.2-1.6 3.1-.7.9-1.6 1.6-2.7 2.1s-2.3.8-3.8.8c-.5 0-1 0-1.5-.1-.6-.1-1.1-.3-1.7-.5-.6-.2-1.1-.5-1.6-.9s-.9-.8-1.3-1.4H31v9.7h-3v-26h3.1zm11.1 6.7c-.2-.8-.6-1.6-1.1-2.2-.5-.7-1.1-1.2-1.8-1.6-.7-.4-1.6-.6-2.6-.6s-1.9.2-2.7.6c-.7.4-1.3 1-1.8 1.6s-.8 1.4-1 2.3c-.2.8-.3 1.7-.3 2.6 0 .9.1 1.8.3 2.7.2.9.6 1.6 1 2.3.5.7 1.1 1.2 1.8 1.6.8.4 1.7.6 2.7.6 1.1 0 2-.2 2.7-.6.7-.4 1.3-1 1.7-1.6.4-.7.8-1.5.9-2.3.2-.9.3-1.8.3-2.7.3-1.1.2-1.9-.1-2.7zM51.9 76.9v4h.1c.8-1.5 1.7-2.7 2.8-3.4 1.1-.7 2.5-1.1 4.1-1v3.3c-1.2 0-2.3.2-3.2.5-.9.3-1.6.8-2.1 1.5s-.9 1.4-1.2 2.4c-.2.9-.4 2-.4 3.2v8.4h-3V76.9h2.9zM61.1 73.5v-3.8h3.1v3.8h-3.1zm3.1 3.4v18.8h-3.1V76.9h3.1zM79.8 80.1c-.8-.7-1.8-1-3.1-1-1.1 0-2 .2-2.8.6-.8.4-1.4 1-1.8 1.6-.4.7-.8 1.5-1 2.3-.2.9-.3 1.8-.3 2.7 0 .9.1 1.7.3 2.5.2.8.5 1.6 1 2.2.4.6 1 1.2 1.7 1.5.7.4 1.5.6 2.5.6 1.5 0 2.7-.4 3.6-1.2.9-.8 1.4-1.9 1.6-3.4h3.2c-.3 2.3-1.2 4.1-2.6 5.4-1.4 1.3-3.3 1.9-5.7 1.9-1.4 0-2.7-.2-3.8-.7-1.1-.5-2-1.1-2.8-2-.7-.8-1.3-1.9-1.7-3-.4-1.2-.6-2.5-.6-3.9s.2-2.7.5-3.9c.4-1.2.9-2.3 1.7-3.2.7-.9 1.7-1.6 2.8-2.1 1.1-.5 2.4-.8 3.9-.8 1.1 0 2.1.1 3 .4.9.3 1.8.6 2.5 1.2.7.5 1.3 1.2 1.8 2s.8 1.8.9 2.9h-3.2c-.3-1-.8-1.9-1.6-2.6zM101.1 94.5c-1.4 1.1-3.2 1.6-5.3 1.6-1.5 0-2.8-.2-3.9-.7-1.1-.5-2-1.2-2.8-2-.8-.9-1.3-1.9-1.7-3.1-.4-1.2-.6-2.5-.6-4 0-1.4.2-2.7.7-3.9.4-1.2 1-2.2 1.8-3.1.8-.9 1.7-1.6 2.8-2 1.1-.5 2.3-.7 3.5-.7 1.7 0 3.1.3 4.2 1s2 1.6 2.7 2.6c.7 1.1 1.1 2.2 1.4 3.5.3 1.3.4 2.5.3 3.6H90c0 .8.1 1.6.3 2.3.2.7.6 1.4 1.1 2 .5.6 1.1 1 1.9 1.4.8.3 1.6.5 2.7.5 1.3 0 2.4-.3 3.2-.9.8-.6 1.4-1.5 1.7-2.8h3.1c-.6 2-1.5 3.6-2.9 4.7zm-.8-12.1c-.3-.7-.7-1.2-1.1-1.7-.5-.5-1-.8-1.7-1.1-.6-.3-1.4-.4-2.1-.4-.8 0-1.5.1-2.2.4-.6.3-1.2.7-1.7 1.1-.5.5-.8 1.1-1.1 1.7-.3.6-.4 1.3-.5 2.1h10.8c.1-.7-.1-1.4-.4-2.1z"/><g><path class="st1" d="M41.8 64.2V43.5h-8v-4.9c1.1 0 2.2-.1 3.3-.2 1-.2 2-.5 2.8-1 .8-.5 1.5-1.2 2.1-2 .6-.8 1-1.8 1.1-3h5.1v31.8h-6.4zM69.4 30.9L56 64.9h-3.3l13.4-34h3.3zM70.9 39.5c.5-1.6 1.2-2.9 2.2-4.1 1-1.2 2.2-2.1 3.7-2.7 1.5-.7 3.2-1 5.1-1 1.5 0 2.8.2 4.2.7 1.3.5 2.5 1.1 3.5 2 1 .8 1.8 1.9 2.4 3.1.6 1.2.9 2.6.9 4.2s-.3 3-.8 4.1c-.5 1.2-1.2 2.2-2 3.1-.8.9-1.8 1.7-2.9 2.4-1.1.7-2.2 1.4-3.3 2.2-1.1.7-2.2 1.5-3.2 2.3-1 .8-1.9 1.8-2.7 2.9h15.1v5.5H69.6c0-1.8.3-3.5.8-4.8.5-1.4 1.3-2.6 2.2-3.7.9-1.1 2-2.1 3.2-3 1.2-.9 2.5-1.8 3.9-2.8.7-.5 1.4-1 2.2-1.5.8-.5 1.5-1.1 2.2-1.7.7-.6 1.2-1.3 1.6-2 .4-.8.7-1.6.7-2.6 0-1.5-.4-2.8-1.3-3.6-.9-.9-2-1.3-3.4-1.3-.9 0-1.7.2-2.4.7-.7.4-1.2 1-1.6 1.7-.4.7-.7 1.5-.8 2.4-.2.9-.2 1.7-.2 2.6h-6.2c-.3-1.9-.1-3.6.4-5.1z"/></g></svg>