<svg id="Layer_1" xmlns="http://www.w3.org/2000/svg" viewBox="0 0 128 128"><style>.st0{fill:#ed3023}.st1{fill:#FFF}</style><circle class="st0" cx="64" cy="64" r="64"/><path class="st1" d="M20.8 37.3c9-14.3 25-23.9 43.2-23.9 18.2 0 34.2 9.5 43.2 23.9h5.3C103 20.3 84.8 8.9 64 8.9S25 20.4 15.5 37.3h5.3zM114.7 71.4c-3.3 25-24.8 44.3-50.7 44.3-25.9 0-47.3-19.3-50.7-44.3H8.7c3.4 27.5 26.9 48.9 55.3 48.9s51.9-21.4 55.3-48.9h-4.6z"/><g><path class="st1" d="M14 58.1c.1.8.4 1.5.7 1.9.6.8 1.7 1.1 3.3 1.1.9 0 1.7-.1 2.3-.3 1.1-.4 1.7-1.1 1.7-2.1 0-.6-.3-1.1-.8-1.4-.5-.3-1.4-.6-2.6-.9l-2-.4c-2-.4-3.3-.9-4.1-1.4-1.2-.9-1.9-2.2-1.9-4 0-1.7.6-3 1.8-4.1 1.2-1.1 3-1.6 5.4-1.6 2 0 3.7.5 5.1 1.6 1.4 1 2.1 2.5 2.2 4.5h-3.7c-.1-1.1-.6-1.9-1.5-2.4-.6-.3-1.4-.5-2.3-.5-1 0-1.8.2-2.4.6-.6.4-.9 1-.9 1.7s.3 1.2.9 1.5c.4.2 1.2.5 2.5.8l3.3.8c1.4.3 2.5.8 3.2 1.3 1.1.9 1.7 2.1 1.7 3.8 0 1.7-.7 3.1-2 4.2s-3.2 1.7-5.5 1.7c-2.4 0-4.4-.6-5.8-1.7-1.4-1.1-2.1-2.6-2.1-4.5H14zM40.5 55.8c-1.1.9-2.6 1.4-4.6 1.4H32v6.7h-3.8V45.3h8c1.8 0 3.3.5 4.4 1.4 1.1 1 1.6 2.4 1.6 4.4-.1 2.3-.6 3.8-1.7 4.7zm-2.9-6.6c-.5-.4-1.2-.6-2.1-.6H32V54h3.5c.9 0 1.6-.2 2.1-.7.5-.4.7-1.1.7-2.1 0-.9-.2-1.6-.7-2zM58.7 48.6h-9.8v3.9h9v3.2h-9v4.8h10.3v3.3h-14V45.3h13.6v3.3zM63.7 47.3c1.5-1.5 3.4-2.3 5.7-2.3 3.1 0 5.3 1 6.8 3.1.8 1.1 1.2 2.3 1.3 3.5h-3.9c-.2-.9-.6-1.6-.9-2-.7-.8-1.7-1.2-3.1-1.2-1.4 0-2.5.6-3.3 1.7-.8 1.1-1.2 2.7-1.2 4.8 0 2.1.4 3.6 1.3 4.7.8 1 1.9 1.6 3.2 1.6 1.3 0 2.3-.4 3-1.3.4-.5.7-1.2 1-2.1h3.8c-.3 2-1.2 3.7-2.5 4.9-1.4 1.3-3.1 1.9-5.2 1.9-2.6 0-4.7-.9-6.2-2.6-1.5-1.7-2.3-4.1-2.3-7.1-.1-3.4.8-5.9 2.5-7.6zM83.8 63.9H80V45.3h3.8v18.6zM92.4 45.3h4.4l6.6 18.5h-4.2L97.9 60h-6.8l-1.3 3.8h-4l6.6-18.5zm-.2 11.6h4.7l-2.3-7.3-2.4 7.3zM105.5 45.3h3.9v15.2h9.3v3.3h-13.1V45.3zM53.1 74.5c.6.8.9 1.7.9 2.8 0 1.1-.3 2-.9 2.7-.3.4-.8.7-1.4 1.1.9.3 1.7.9 2.1 1.6.5.7.7 1.7.7 2.7 0 1.1-.3 2.1-.8 3-.3.6-.8 1.1-1.3 1.5-.6.5-1.3.8-2.1.9-.8.2-1.7.2-2.6.2h-8.3V72.5h9c2.1 0 3.7.7 4.7 2zM43 75.7v4.1h4.5c.8 0 1.5-.2 2-.5s.8-.8.8-1.6c0-.9-.3-1.4-1-1.7-.6-.2-1.3-.3-2.2-.3H43zm0 7.2v4.9h4.5c.8 0 1.4-.1 1.9-.3.8-.4 1.2-1.2 1.2-2.3 0-1-.4-1.6-1.2-2-.4-.2-1.1-.3-1.9-.3H43zM57.6 72.5h3.9v11.4c0 1.3.2 2.2.5 2.8.5 1 1.5 1.6 3.1 1.6s2.6-.5 3-1.6c.3-.6.5-1.5.5-2.8V72.5h3.9v11.4c0 2-.3 3.5-.9 4.6-1.1 2-3.3 3-6.5 3s-5.4-1-6.5-3c-.6-1.1-.9-2.6-.9-4.6V72.5zM86.5 72.5h4.4l-6.2 11.6V91h-3.9v-6.9l-6.4-11.6H79l3.8 8.1 3.7-8.1z"/></g></svg>