<svg id="Layer_1" xmlns="http://www.w3.org/2000/svg" viewBox="0 0 128 128"><style>.st0{fill:#fff}.st1{fill:#ed3023}</style><circle class="st0" cx="64" cy="64" r="64"/><path class="st1" d="M50.2 75.2c1.9 0 3.4.5 4.5 1.4 1.1.9 1.6 2.2 1.6 3.8 0 1.2-.3 2.3-.8 3.2-.5.9-1.4 1.5-2.6 1.9v.1c.6.1 1 .3 1.4.6.4.3.7.6.9.9.2.4.4.8.5 1.2.1.4.2.9.2 1.4 0 .5.1 1 .1 1.5s.1 1 .1 1.5c.1.5.2.9.3 1.4.1.4.3.8.6 1.2h-3c-.2-.2-.3-.5-.4-.8-.1-.4-.1-.8-.1-1.2 0-.4 0-.9-.1-1.4 0-.5-.1-1-.2-1.5s-.2-.9-.3-1.4c-.1-.4-.3-.8-.5-1.1-.2-.3-.6-.6-1-.8-.4-.2-.9-.3-1.6-.3h-6.5v8.5h-2.7v-20h9.6zm.5 9.1c.6-.1 1-.3 1.5-.5.4-.3.8-.6 1-1.1.3-.5.4-1 .4-1.8 0-1-.3-1.8-.8-2.5-.6-.6-1.5-1-2.7-1h-6.6v7H49c.6 0 1.2 0 1.7-.1zm18.4-9.1c1.9 0 3.4.5 4.5 1.4 1.1.9 1.6 2.2 1.6 3.8 0 1.2-.3 2.3-.8 3.2-.5.9-1.4 1.5-2.6 1.9v.1c.6.1 1 .3 1.4.6.4.3.7.6.9.9.2.4.4.8.5 1.2.1.4.2.9.2 1.4 0 .5.1 1 .1 1.5s.1 1 .1 1.5c.1.5.2.9.3 1.4.1.4.3.8.6 1.2h-3c-.2-.2-.3-.5-.4-.8-.1-.4-.1-.8-.1-1.2 0-.4 0-.9-.1-1.4 0-.5-.1-1-.2-1.5s-.2-.9-.3-1.4c-.1-.4-.3-.8-.5-1.1-.2-.3-.6-.6-1-.8-.4-.2-.9-.3-1.6-.3h-6.5v8.5h-2.7v-20h9.6zm.5 9.1c.6-.1 1-.3 1.5-.5.4-.3.8-.6 1-1.1.3-.5.4-1 .4-1.8 0-1-.3-1.8-.8-2.5-.6-.6-1.5-1-2.7-1h-6.6v7h5.5c.6 0 1.2 0 1.7-.1zm17.7-9.1c2 0 3.5.5 4.6 1.6 1 1 1.6 2.5 1.6 4.3 0 1.9-.5 3.3-1.6 4.4-1 1-2.6 1.6-4.6 1.5h-6.1v8.2h-2.7v-20h8.8zm-.9 9.6c1.5 0 2.6-.3 3.3-.9.7-.6 1-1.5 1-2.7s-.3-2.1-1-2.7c-.7-.6-1.8-.9-3.3-.9h-5.2v7.3h5.2zM41.8 66.4V45.8h-8v-4.9c1.1 0 2.2-.1 3.3-.2 1-.2 2-.5 2.8-1 .8-.5 1.5-1.2 2.1-2 .6-.8 1-1.8 1.1-3h5.1v31.8h-6.4zm27.6-33.2L56 67.2h-3.3l13.4-34h3.3zm1.5 8.6c.5-1.6 1.2-2.9 2.2-4.1 1-1.2 2.2-2.1 3.7-2.7 1.5-.7 3.2-1 5.1-1 1.5 0 2.8.2 4.2.7 1.3.5 2.5 1.1 3.5 2 1 .8 1.8 1.9 2.4 3.1.6 1.2.9 2.6.9 4.2s-.3 3-.8 4.1c-.5 1.2-1.2 2.2-2 3.1-.8.9-1.8 1.7-2.9 2.4-1.1.7-2.2 1.4-3.3 2.2-1.1.7-2.2 1.5-3.2 2.3-1 .8-1.9 1.8-2.7 2.9h15.1v5.5H69.6c0-1.8.3-3.5.8-4.8.5-1.4 1.3-2.6 2.2-3.7.9-1.1 2-2.1 3.2-3 1.2-.9 2.5-1.8 3.9-2.8.7-.5 1.4-1 2.2-1.5.8-.5 1.5-1.1 2.2-1.7.7-.6 1.2-1.3 1.6-2 .4-.8.7-1.6.7-2.6 0-1.5-.4-2.8-1.3-3.6-.9-.9-2-1.3-3.4-1.3-.9 0-1.7.2-2.4.7-.7.4-1.2 1-1.6 1.7-.4.7-.7 1.5-.8 2.4-.2.9-.2 1.7-.2 2.6h-6.2c-.3-1.9-.1-3.6.4-5.1z"/></svg>