<svg id="Layer_1" xmlns="http://www.w3.org/2000/svg" viewBox="0 0 128 128"><style>.st0{fill:#FFF}.st1{fill:#ed3023}</style><circle class="st0" cx="64" cy="64" r="64"/><path class="st1" d="M41.1 95.5c.3.5.7.8 1.1 1.1.5.3 1 .5 1.6.6.6.1 1.2.2 1.8.2.5 0 1 0 1.5-.1s1-.2 1.5-.4c.4-.2.8-.5 1.1-.9.3-.4.4-.9.4-1.4 0-.8-.3-1.4-.9-1.8-.6-.4-1.4-.7-2.3-1-.9-.3-1.9-.5-3-.7-1.1-.2-2.1-.5-3-.9-.9-.4-1.7-.9-2.3-1.6-.6-.7-.9-1.6-.9-2.8 0-.9.2-1.8.6-2.4.4-.7 1-1.2 1.6-1.7.7-.4 1.4-.7 2.3-.9.8-.2 1.7-.3 2.5-.3 1.1 0 2 .1 2.9.3.9.2 1.7.5 2.4.9s1.2 1.1 1.7 1.8c.4.8.7 1.7.7 2.9h-3.1c0-.6-.2-1.1-.5-1.5-.3-.4-.6-.7-1-1-.4-.2-.9-.4-1.4-.5-.5-.1-1-.2-1.5-.2s-.9 0-1.4.1c-.5.1-.9.2-1.3.4s-.7.4-.9.7c-.2.3-.4.7-.4 1.2s.2 1 .6 1.3c.4.4.9.6 1.4.9.6.2 1.2.4 2 .6.7.2 1.5.3 2.2.5.8.2 1.5.4 2.3.6.7.2 1.4.6 2 1 .6.4 1 .9 1.4 1.5.4.6.5 1.4.5 2.3 0 1.1-.2 2.1-.7 2.8-.5.8-1.1 1.4-1.9 1.8-.8.5-1.6.8-2.6 1-1 .2-1.9.3-2.9.3s-2-.1-3-.3c-.9-.2-1.8-.6-2.5-1.1-.7-.5-1.3-1.2-1.7-2-.4-.8-.7-1.8-.7-3h3.1c.2.6.4 1.2.7 1.7zM68.7 99.7v-3h-.1c-.7 1.2-1.5 2-2.5 2.6-1 .5-2.2.8-3.6.8-1.2 0-2.3-.2-3.1-.5-.8-.3-1.5-.8-2-1.4-.5-.6-.9-1.3-1.1-2.2-.2-.8-.3-1.8-.3-2.8V80.9h3.1v12.7c0 1.2.3 2.1 1 2.8.7.7 1.6 1 2.8 1 .9 0 1.8-.1 2.5-.4.7-.3 1.3-.7 1.7-1.2.5-.5.8-1.2 1-1.9.2-.7.3-1.5.3-2.3V80.9h3.1v18.8h-2.8zM75.5 77.5v-3.8h3.1v3.8h-3.1zm3.1 3.4v18.8h-3.1V80.9h3.1zM90.5 80.9v2.7h-3.7v11.7c0 .4 0 .7.1.9.1.2.2.4.3.5.2.1.4.2.7.2.3 0 .7.1 1.2.1h1.4v2.7h-2.4c-.8 0-1.5-.1-2.1-.2-.6-.1-1-.3-1.4-.6-.4-.3-.6-.7-.8-1.2-.2-.5-.3-1.2-.3-2.1v-12h-3.2v-2.7h3.2v-5.6h3.1v5.6h3.9z"/><g><path class="st1" d="M29.6 50.6c-.6-1-1.1-2.1-1.5-3.2-.4-1.1-.6-2.4-.6-3.9s.3-2.8.8-3.9c.6-1.1 1.3-2.1 2.3-2.9 1-.8 2.1-1.4 3.3-1.8 1.2-.4 2.6-.6 4-.6 3.4 0 6 1 7.9 2.9 1.9 2 2.9 4.9 2.8 8.8h-3.9c-.1-2.7-.6-4.7-1.7-6.2-1.1-1.4-2.7-2.2-4.9-2.2-.9 0-1.8.2-2.5.5-.8.3-1.5.7-2.1 1.3-.6.5-1.1 1.2-1.4 1.9-.3.7-.5 1.5-.5 2.4 0 .7.1 1.4.2 2 .2.6.3 1.2.6 1.8.2.5.5 1.1.8 1.6.3.5.5 1 .8 1.6h7.2v2H35c.2.5.5 1 .6 1.6.2.6.3 1.2.3 1.8 0 1-.2 1.9-.5 2.8-.3.8-.7 1.5-1.2 2.2-.5.7-1 1.3-1.7 1.9-.6.6-1.3 1.1-2 1.7l.1.1c.8-.3 1.6-.6 2.3-.9.7-.3 1.6-.4 2.5-.4.9 0 1.7.1 2.4.2.7.2 1.3.3 2 .5.6.2 1.2.4 1.8.5.6.2 1.3.3 2 .3s1.4-.2 2.2-.5c.7-.3 1.3-.7 1.9-1.2l2 3c-.9.8-1.9 1.3-3.1 1.6-1.2.3-2.3.4-3.5.4-.8 0-1.5-.1-2.2-.3-.7-.2-1.5-.4-2.3-.6-.8-.2-1.5-.5-2.3-.7-.8-.2-1.6-.3-2.5-.3-.9 0-1.7.1-2.4.4-.7.3-1.4.7-2.1 1.1l-2.1-3c.6-.4 1.3-.9 1.9-1.5s1.1-1.2 1.6-1.9.8-1.4 1.1-2.2c.3-.8.4-1.6.4-2.5 0-.7-.1-1.4-.4-2.2-.2-.8-.5-1.4-.8-2h-3.9v-2h2.5zM59.7 41.1l-1.3 7.2.1.1c.9-.9 1.8-1.5 2.8-1.9 1-.4 2.1-.6 3.4-.6 1.6 0 3 .3 4.2.9 1.2.6 2.2 1.3 3.1 2.3.8 1 1.5 2.1 1.9 3.4.4 1.3.7 2.7.7 4.2 0 1.6-.3 3.2-1 4.6-.6 1.4-1.5 2.6-2.6 3.7-1.1 1-2.3 1.8-3.8 2.4-1.4.6-2.9.8-4.5.8-1.5 0-3-.2-4.4-.6-1.4-.4-2.7-1-3.8-1.9-1.1-.8-2-1.9-2.6-3.2-.7-1.3-1-2.7-1-4.4h6.5c.2 1.5.7 2.6 1.6 3.5.9.9 2.1 1.3 3.6 1.3.8 0 1.6-.2 2.3-.5.7-.3 1.3-.8 1.7-1.4.5-.6.8-1.2 1.1-2 .3-.7.4-1.5.4-2.3 0-.8-.1-1.6-.4-2.3-.2-.7-.6-1.4-1.1-1.9-.5-.5-1.1-1-1.7-1.3-.7-.3-1.4-.5-2.3-.5-1.2 0-2.1.2-2.8.6-.7.4-1.4 1.1-2 1.9H52l3-17.5h17.8V41H59.7zM77.2 43.7c.6-2.1 1.5-3.8 2.5-5.1 1.1-1.3 2.3-2.2 3.7-2.7 1.4-.5 2.9-.8 4.5-.8s3.1.3 4.5.8 2.7 1.5 3.7 2.7c1.1 1.3 1.9 3 2.5 5.1.6 2.1.9 4.7.9 7.8 0 3.2-.3 5.8-.9 8-.6 2.1-1.5 3.8-2.5 5.1-1.1 1.3-2.3 2.2-3.7 2.7-1.4.5-2.9.8-4.5.8s-3.1-.3-4.5-.8-2.6-1.5-3.7-2.7c-1.1-1.3-1.9-3-2.5-5.1-.6-2.1-.9-4.8-.9-8 0-3.1.3-5.7.9-7.8zm5.6 11.1c.1 1.3.3 2.5.6 3.7.3 1.2.8 2.2 1.5 3.1.7.8 1.7 1.3 3 1.3s2.4-.4 3.1-1.3c.7-.8 1.2-1.9 1.5-3.1.3-1.2.5-2.4.6-3.7.1-1.3.1-2.4.1-3.3v-2c0-.8-.1-1.6-.2-2.4-.1-.8-.3-1.6-.5-2.4-.2-.8-.5-1.5-.9-2.2-.4-.6-.9-1.2-1.5-1.5-.6-.4-1.3-.6-2.2-.6-.9 0-1.6.2-2.2.6-.6.4-1.1.9-1.5 1.5-.4.6-.7 1.4-.9 2.2-.2.8-.4 1.6-.5 2.4-.1.8-.1 1.6-.2 2.4v2c.2.9.2 2 .2 3.3z"/></g></svg>