<svg id="Layer_1" xmlns="http://www.w3.org/2000/svg" viewBox="0 0 128 128"><style>.st0{fill:#fff}.st1{fill:#ed3023}</style><circle class="st0" cx="64" cy="64" r="64"/><path class="st1" d="M30 40.5c.4-1.2 1-2.3 1.7-3.3.8-.9 1.7-1.7 2.9-2.2 1.2-.5 2.5-.8 4.1-.8 1.2 0 2.3.2 3.3.5 1.1.4 2 .9 2.8 1.6.8.7 1.4 1.5 1.9 2.5s.7 2.1.7 3.3c0 1.3-.2 2.4-.6 3.3-.4.9-1 1.7-1.6 2.5-.7.7-1.4 1.4-2.3 1.9-.9.6-1.7 1.2-2.6 1.7-.9.6-1.7 1.2-2.5 1.8s-1.6 1.4-2.2 2.3h12V60H28.9c0-1.5.2-2.8.6-3.9.4-1.1 1-2.1 1.7-2.9.7-.9 1.6-1.7 2.6-2.4s2-1.5 3.1-2.2l1.8-1.2c.6-.4 1.2-.8 1.7-1.3s1-1 1.3-1.6c.4-.6.5-1.3.5-2.1 0-1.2-.4-2.2-1.1-2.9-.7-.7-1.6-1-2.7-1-.8 0-1.4.2-1.9.5-.5.4-.9.8-1.3 1.4-.3.6-.5 1.2-.7 1.9-.1.7-.2 1.4-.2 2.1h-4.9c.1-1.3.2-2.6.6-3.9zm25.3 3.7v-2.7h3.2v-2.8c0-1.5.4-2.7 1.3-3.5.9-.8 2.2-1.2 3.9-1.2.3 0 .6 0 1 .1.4 0 .7.1 1 .2V37c-.3-.1-.6-.2-.9-.2-.3 0-.6-.1-.9-.1-.8 0-1.3.1-1.7.4-.4.3-.6.8-.6 1.7v2.6h3.6v2.7h-3.6v16.1h-3.1v-16h-3.2zM67.9 47c.4-1.2 1-2.2 1.7-3.1.8-.9 1.7-1.6 2.9-2.1 1.1-.5 2.4-.8 3.9-.8s2.8.3 3.9.8 2.1 1.2 2.9 2.1c.8.9 1.4 1.9 1.7 3.1.4 1.2.6 2.5.6 3.9s-.2 2.7-.6 3.9c-.4 1.2-1 2.2-1.7 3.1-.8.9-1.7 1.6-2.9 2.1-1.1.5-2.4.7-3.9.7s-2.8-.2-3.9-.7c-1.1-.5-2.1-1.2-2.9-2.1-.8-.9-1.4-1.9-1.7-3.1-.4-1.2-.6-2.5-.6-3.9s.2-2.7.6-3.9zm3.1 6.9c.3.9.7 1.6 1.3 2.2.5.6 1.2 1 1.9 1.4.7.3 1.5.5 2.3.5.8 0 1.6-.2 2.3-.5.7-.3 1.3-.8 1.9-1.4.5-.6 1-1.3 1.3-2.2.3-.9.5-1.9.5-3s-.2-2.2-.5-3c-.3-.9-.7-1.6-1.3-2.2-.5-.6-1.2-1.1-1.9-1.4-.7-.3-1.5-.5-2.3-.5-.8 0-1.6.2-2.3.5-.7.3-1.3.8-1.9 1.4-.5.6-1 1.4-1.3 2.2-.3.9-.5 1.9-.5 3 .1 1.1.2 2.1.5 3zm21.4-12.5v4h.1c.8-1.5 1.7-2.7 2.8-3.4 1.1-.7 2.5-1.1 4.1-1v3.3c-1.2 0-2.3.2-3.2.5-.9.3-1.6.8-2.1 1.5s-.9 1.4-1.2 2.4c-.2.9-.4 2-.4 3.2v8.4h-3.1V41.4h3zM19.1 82.2c-.4-.7-.8-1.5-1.1-2.3-.3-.8-.4-1.7-.4-2.7 0-1 .2-1.9.6-2.7.4-.8.9-1.5 1.6-2 .7-.6 1.4-1 2.3-1.3.9-.3 1.8-.4 2.8-.4 2.4 0 4.2.7 5.6 2.1 1.3 1.4 2 3.4 2 6.2h-2.7c0-1.9-.4-3.3-1.2-4.3-.8-1-1.9-1.5-3.4-1.5-.6 0-1.2.1-1.8.3-.6.2-1 .5-1.4.9-.4.4-.7.8-1 1.3-.2.5-.4 1.1-.4 1.7 0 .5.1 1 .2 1.4.1.4.2.8.4 1.2.2.4.3.8.5 1.1.2.4.4.7.6 1.1h5.1v1.4H23c.2.3.3.7.4 1.1.1.4.2.8.2 1.3 0 .7-.1 1.4-.3 1.9-.2.6-.5 1.1-.8 1.6-.3.5-.7.9-1.2 1.3-.4.4-.9.8-1.4 1.2l.1.1c.6-.2 1.1-.4 1.6-.6.5-.2 1.1-.3 1.7-.3.6 0 1.2.1 1.7.2s.9.2 1.4.3c.4.1.9.3 1.3.4.4.1.9.2 1.4.2.5 0 1-.1 1.5-.4.5-.2.9-.5 1.3-.8l1.4 2.1c-.6.6-1.4.9-2.2 1.1-.8.2-1.6.3-2.5.3-.5 0-1.1-.1-1.6-.2s-1-.3-1.6-.4c-.5-.2-1.1-.3-1.6-.5-.5-.1-1.1-.2-1.7-.2-.6 0-1.2.1-1.7.3-.5.2-1 .5-1.5.8l-1.5-2.1c.4-.3.9-.6 1.3-1.1.4-.4.8-.8 1.1-1.3.3-.5.6-1 .8-1.6s.3-1.1.3-1.8c0-.5-.1-1-.3-1.5-.2-.5-.3-1-.5-1.4h-2.7v-1.4h1.7zM42.2 94V79.6h-5.6v-3.4c.8 0 1.5 0 2.3-.2.7-.1 1.4-.4 2-.7.6-.4 1.1-.8 1.5-1.4.4-.6.7-1.3.8-2.1h3.6V94h-4.6zm17.6-13.3c.6 0 1.1-.2 1.5-.4.5-.2.9-.5 1.2-.9.3-.4.5-.9.5-1.5 0-1-.3-1.7-1-2.2-.6-.5-1.4-.8-2.2-.8-1.1 0-2 .4-2.6 1.1-.6.8-.9 1.7-.8 2.8h-4.3c0-1.1.2-2.2.6-3.1.4-.9.9-1.8 1.6-2.4.7-.7 1.5-1.2 2.4-1.6.9-.4 2-.6 3.1-.6.9 0 1.8.1 2.7.4.9.3 1.7.7 2.4 1.2s1.3 1.2 1.7 1.9c.4.8.7 1.6.7 2.6 0 1.1-.3 2-.8 2.9-.5.8-1.3 1.4-2.3 1.7v.1c1.2.3 2.2.9 2.9 1.8.7.9 1.1 2 1.1 3.3 0 1.2-.2 2.2-.7 3.1-.5.9-1.1 1.7-1.8 2.3-.8.6-1.6 1.1-2.6 1.4-1 .3-2 .5-3.1.5-1.3 0-2.4-.2-3.4-.5-1-.4-1.9-.9-2.6-1.6-.7-.7-1.3-1.5-1.7-2.5-.4-1-.6-2.1-.6-3.4H56c0 .6.1 1.2.3 1.7.2.5.4 1 .7 1.4.3.4.7.7 1.2.9.5.2 1 .4 1.7.4 1 0 1.9-.3 2.6-.9.7-.6 1.1-1.5 1.1-2.6 0-.8-.2-1.5-.5-1.9-.3-.4-.8-.8-1.3-1-.7-.2-1.2-.3-1.8-.3h-1.7v-3.2c.4 0 .9 0 1.5-.1zm14.8 8.4V94h-5v-4.9h5zm9.1 1.1c.5.6 1.2.8 2 .8s1.5-.2 2-.7c.5-.5 1-1.1 1.3-1.8.3-.7.5-1.4.7-2.2.1-.8.2-1.5.3-2.1l-.1-.1c-.6.9-1.3 1.5-2.2 1.9-.8.4-1.8.6-2.9.6-1 0-1.9-.2-2.8-.6-.9-.4-1.7-1-2.3-1.7-.6-.7-1-1.5-1.3-2.3-.3-.9-.4-1.8-.4-2.6a8.662 8.662 0 0 1 2.2-5.8c.7-.7 1.5-1.3 2.5-1.7 1-.4 2-.6 3.2-.6 1.7 0 3.1.3 4.2 1s2 1.5 2.6 2.6c.7 1.1 1.1 2.3 1.4 3.7.3 1.4.4 2.8.4 4.2 0 1.4-.2 2.8-.5 4.1-.3 1.4-.8 2.6-1.5 3.7s-1.6 2-2.7 2.7c-1.1.7-2.5 1-4 1-1 0-1.8-.1-2.7-.4-.8-.3-1.6-.7-2.2-1.2-.6-.5-1.2-1.2-1.6-1.9-.4-.8-.7-1.6-.8-2.6h4.3c0 .8.4 1.5.9 2zm3.8-7.2c.4-.2.8-.5 1.1-.9.3-.4.5-.8.7-1.3.1-.5.2-1 .2-1.6 0-.5-.1-1-.2-1.5-.2-.5-.4-.9-.7-1.3-.3-.4-.7-.7-1.1-.9-.4-.2-1-.3-1.5-.3s-1 .1-1.4.3c-.4.2-.8.5-1.1.9-.3.4-.5.8-.7 1.3-.1.5-.2 1-.2 1.5s.1 1 .2 1.5.3.9.6 1.3.6.7 1.1 1c.4.2.9.4 1.5.4.6-.1 1.1-.2 1.5-.4zm14.7 7.2c.5.6 1.2.8 2 .8s1.5-.2 2-.7c.5-.5 1-1.1 1.3-1.8.3-.7.5-1.4.7-2.2.1-.8.2-1.5.3-2.1l-.1-.1c-.6.9-1.3 1.5-2.2 1.9-.8.4-1.8.6-2.9.6-1 0-1.9-.2-2.8-.6-.9-.4-1.7-1-2.3-1.7-.6-.7-1-1.5-1.3-2.3-.3-.9-.4-1.8-.4-2.6a8.662 8.662 0 0 1 2.2-5.8c.7-.7 1.5-1.3 2.5-1.7 1-.4 2-.6 3.2-.6 1.7 0 3.1.3 4.2 1s2 1.5 2.6 2.6c.7 1.1 1.1 2.3 1.4 3.7.3 1.4.4 2.8.4 4.2 0 1.4-.2 2.8-.5 4.1-.3 1.4-.8 2.6-1.5 3.7s-1.6 2-2.7 2.7c-1.1.7-2.5 1-4 1-1 0-1.8-.1-2.7-.4-.8-.3-1.6-.7-2.2-1.2-.6-.5-1.2-1.2-1.6-1.9-.4-.8-.7-1.6-.8-2.6h4.3c0 .8.4 1.5.9 2zM106 83c.4-.2.8-.5 1.1-.9.3-.4.5-.8.7-1.3.1-.5.2-1 .2-1.6 0-.5-.1-1-.2-1.5-.2-.5-.4-.9-.7-1.3-.3-.4-.7-.7-1.1-.9-.4-.2-1-.3-1.5-.3s-1 .1-1.4.3c-.4.2-.8.5-1.1.9-.3.4-.5.8-.7 1.3-.2.5-.2 1-.2 1.5s.1 1 .2 1.5.3.9.6 1.3.6.7 1.1 1c.4.2.9.4 1.5.4.6-.1 1.1-.2 1.5-.4z"/></svg>