<svg id="Layer_1" xmlns="http://www.w3.org/2000/svg" viewBox="0 0 128 128"><style>.st0{fill:#FFF}.st1{fill:#ed3023}</style><ellipse class="st0" cx="64" cy="64" rx="64" ry="64"/><path class="st1" d="M34.3 37.6l6.8 18.3L48 37.6h4v21.7h-2.7v-18h-.1l-6.8 18.1h-2.5l-6.8-18.1H33v18.1h-2.7V37.6h4zM56.8 40.8v-3.2h2.6v3.2h-2.6zm2.6 2.8v15.7h-2.6V43.6h2.6zM62.5 43.6h3.3l3.8 5.5 3.9-5.5h3.1l-5.4 7.2 6.1 8.5H74l-4.4-6.5-4.4 6.5H62l5.9-8.3-5.4-7.4zM93.4 58.9c-1.1.5-2.3.8-3.5.8-1.5 0-2.6-.2-3.5-.7-.9-.4-1.6-1-2.1-1.6-.5-.6-.8-1.3-1-1.9-.2-.7-.2-1.2-.2-1.7 0-.9.1-1.6.4-2.3.3-.6.6-1.2 1.1-1.7.5-.5 1-1 1.6-1.4.6-.4 1.3-.8 2-1.2l-.9-1.2c-.3-.4-.5-.8-.8-1.2-.2-.4-.4-.8-.5-1.2-.1-.4-.2-.9-.2-1.5s.1-1.2.3-1.7c.2-.5.5-1 .9-1.4.4-.4.9-.7 1.5-1 .6-.2 1.3-.4 2.1-.4.7 0 1.3.1 2 .3.6.2 1.2.5 1.7.8.5.4.9.8 1.2 1.4.3.6.4 1.2.4 1.9 0 .6-.1 1.3-.3 1.8-.2.6-.5 1.1-.9 1.5-.4.5-.8.9-1.3 1.3s-1 .7-1.5 1l3.9 4.8c.4-1.1.6-2.3.7-3.4H99c-.1.6-.1 1.2-.2 1.7s-.2.9-.3 1.3c-.1.4-.2.8-.4 1.1-.2.4-.4.8-.6 1.3l4.2 4.9h-3.4L96 56.7c-.6 1-1.5 1.7-2.6 2.2zm-5.2-9.2c-.5.3-.9.6-1.2 1-.3.4-.6.8-.8 1.3s-.3 1-.3 1.7c0 .5.1 1.1.4 1.5.2.5.5.8.9 1.2.4.3.8.6 1.3.7.5.2 1 .3 1.5.3 1 0 1.9-.2 2.7-.7.8-.5 1.4-1.1 2-1.9l-5-6c-.6.3-1.1.6-1.5.9zm3.2-4.4c.3-.2.7-.5.9-.8.3-.3.5-.6.7-1 .2-.4.3-.8.3-1.3 0-.6-.2-1.2-.7-1.6-.4-.5-1.1-.7-1.8-.7-.6 0-1.2.2-1.7.6-.5.4-.8 1-.8 1.7 0 .3.1.6.2 1 .1.3.3.6.5 1 .2.3.4.6.7.9.2.3.5.6.7.9.4-.2.7-.4 1-.7zM27.5 66.3l6.8 18.3 6.9-18.3h4V88h-2.7V69.9h-.1L35.6 88h-2.5l-6.8-18.1h-.1V88h-2.7V66.3h4zM62 88.3c-.7 0-1.2-.2-1.6-.6-.4-.4-.6-1-.6-1.8-.7.9-1.5 1.5-2.5 1.8-.9.4-2 .6-3.1.6-.7 0-1.4-.1-2-.2-.6-.2-1.2-.4-1.7-.8s-.9-.8-1.1-1.4c-.3-.6-.4-1.2-.4-2 0-.9.2-1.6.5-2.2.3-.6.7-1 1.2-1.4.5-.4 1.1-.6 1.7-.8.6-.2 1.3-.3 2-.5.7-.1 1.4-.2 2-.3.6-.1 1.2-.2 1.7-.3.5-.1.9-.3 1.2-.6s.4-.6.4-1.1c0-.6-.1-1-.3-1.4-.2-.3-.5-.6-.8-.8-.3-.2-.7-.3-1.1-.4-.4-.1-.8-.1-1.2-.1-1.1 0-2 .2-2.7.6-.7.4-1.1 1.2-1.2 2.4h-2.6c0-1 .2-1.8.6-2.5.4-.7.9-1.2 1.5-1.6.6-.4 1.3-.7 2.1-.9.8-.2 1.6-.3 2.5-.3.7 0 1.4.1 2.1.2.7.1 1.3.3 1.9.6.6.3 1 .8 1.4 1.3.3.6.5 1.3.5 2.2v8.1c0 .6 0 1.1.1 1.3.1.3.3.4.7.4.2 0 .5-.1.8-.2v2c-.6.6-1.2.7-2 .7zm-3.7-7.9c-.5.1-1.1.2-1.7.3-.6.1-1.2.2-1.7.2-.6.1-1.1.2-1.6.4s-.8.5-1.1.9c-.3.4-.4.9-.4 1.5 0 .4.1.8.3 1.1.2.3.4.5.7.7.3.2.6.3 1 .4.4.1.8.1 1.1.1.9 0 1.6-.1 2.2-.3.6-.2 1.1-.5 1.5-.9.4-.4.7-.7.9-1.2.2-.4.3-.8.3-1.2v-2.6c-.5.3-.9.5-1.5.6zM73.3 72.3v2.3h-3.1v9.8c0 .3 0 .5.1.7 0 .2.1.3.3.4.1.1.3.2.6.2h2.2V88h-2c-.7 0-1.2 0-1.7-.1s-.9-.3-1.2-.5c-.3-.2-.5-.6-.7-1-.1-.4-.2-1-.2-1.8v-10h-2.7v-2.3h2.7v-4.7h2.6v4.7h3.1zM85.8 75c-.6-.5-1.5-.8-2.6-.8-.9 0-1.7.2-2.3.5-.6.3-1.1.8-1.5 1.4-.4.6-.6 1.2-.8 2-.2.7-.2 1.5-.2 2.3 0 .7.1 1.4.3 2.1.2.7.4 1.3.8 1.8s.8 1 1.4 1.3c.6.3 1.3.5 2.1.5 1.3 0 2.3-.3 3-1 .7-.7 1.2-1.6 1.3-2.8h2.6c-.3 1.9-1 3.4-2.2 4.5-1.2 1.1-2.8 1.6-4.8 1.6-1.2 0-2.3-.2-3.2-.6-.9-.4-1.7-.9-2.3-1.6-.6-.7-1.1-1.6-1.4-2.5-.3-1-.5-2.1-.5-3.2 0-1.2.2-2.3.5-3.3s.8-1.9 1.4-2.7c.6-.8 1.4-1.4 2.3-1.8.9-.4 2-.7 3.3-.7.9 0 1.7.1 2.5.3.8.2 1.5.5 2.1 1 .6.4 1.1 1 1.5 1.7.4.7.6 1.5.7 2.4h-2.7c-.2-1.1-.6-1.9-1.3-2.4zM95.6 66.3v8.3h.1c.2-.5.5-.9.9-1.2.4-.3.8-.6 1.2-.8.5-.2.9-.4 1.4-.5.5-.1 1-.2 1.4-.2 1 0 1.9.1 2.6.4.7.3 1.2.7 1.7 1.2.4.5.7 1.1.9 1.8.2.7.3 1.5.3 2.3V88h-2.6V77.3c0-1-.3-1.7-.9-2.3-.6-.6-1.3-.9-2.3-.9-.8 0-1.5.1-2.1.4-.6.2-1.1.6-1.4 1-.4.4-.7 1-.9 1.6-.2.6-.3 1.3-.3 2V88H93V66.3h2.6z"/></svg>