<svg id="Layer_1" xmlns="http://www.w3.org/2000/svg" viewBox="0 0 128 128"><style>.st0{fill:#FFF}.st1{fill:#ed3023}</style><circle class="st0" cx="64" cy="64" r="64"/><path class="st1" d="M16 76.8c.3-1 .8-1.8 1.4-2.5.6-.7 1.4-1.3 2.3-1.7.9-.4 2-.6 3.1-.6.9 0 1.8.1 2.6.4.8.3 1.5.7 2.2 1.2.6.5 1.1 1.2 1.5 1.9.4.8.5 1.6.5 2.6s-.2 1.8-.5 2.6c-.3.7-.7 1.3-1.3 1.9-.5.6-1.1 1.1-1.8 1.5-.7.4-1.3.9-2 1.3s-1.3.9-2 1.4c-.6.5-1.2 1.1-1.7 1.8h9.3V92H15.1c0-1.1.2-2.1.5-3 .3-.8.8-1.6 1.3-2.3.6-.7 1.2-1.3 2-1.8.8-.6 1.6-1.1 2.4-1.7.4-.3.9-.6 1.4-.9.5-.3.9-.7 1.3-1 .4-.4.7-.8 1-1.3.3-.5.4-1 .4-1.6 0-1-.3-1.7-.8-2.2-.6-.5-1.3-.8-2.1-.8-.6 0-1.1.1-1.5.4-.4.3-.7.6-1 1.1-.2.4-.4.9-.5 1.5-.1.5-.2 1.1-.2 1.6h-3.8c0-1.2.2-2.2.5-3.2zM31.3 77.3c.4-1.3.9-2.4 1.6-3.1.7-.8 1.4-1.4 2.3-1.7.9-.3 1.8-.5 2.8-.5 1 0 1.9.2 2.8.5.9.3 1.6.9 2.3 1.7.7.8 1.2 1.8 1.6 3.1.4 1.3.6 2.9.6 4.8 0 2-.2 3.6-.6 4.9-.4 1.3-.9 2.4-1.6 3.2-.7.8-1.4 1.4-2.3 1.7-.9.3-1.8.5-2.8.5-1 0-1.9-.2-2.8-.5-.9-.3-1.6-.9-2.3-1.7-.7-.8-1.2-1.8-1.6-3.2-.4-1.3-.6-3-.6-4.9.1-1.9.3-3.5.6-4.8zm3.5 6.9c0 .8.2 1.6.4 2.3.2.7.5 1.4.9 1.9s1.1.8 1.9.8c.8 0 1.5-.3 1.9-.8.4-.5.8-1.2 1-1.9.2-.7.3-1.5.4-2.3 0-.8.1-1.5.1-2V81c0-.5 0-1-.1-1.5L41 78c-.1-.5-.3-.9-.5-1.3s-.6-.7-.9-1c-.4-.2-.8-.4-1.4-.4-.5 0-1 .1-1.4.4-.4.2-.7.6-.9 1-.2.4-.4.8-.5 1.3l-.3 1.5c-.1.5-.1 1-.1 1.5v1.2c-.2.5-.2 1.2-.2 2zM48.6 75.7c.2-.7.4-1.3.8-1.8s.8-.9 1.4-1.3c.6-.3 1.3-.5 2.2-.5.9 0 1.6.1 2.2.5.6.3 1 .7 1.4 1.2.3.5.6 1.1.7 1.8.1.7.2 1.4.2 2.2 0 .7-.1 1.4-.2 2.1-.2.7-.4 1.3-.8 1.8s-.8.9-1.4 1.3c-.6.3-1.3.5-2.1.5s-1.6-.1-2.1-.4c-.6-.3-1.1-.7-1.4-1.2-.4-.5-.6-1.1-.8-1.8-.2-.7-.2-1.4-.2-2.2-.1-.8 0-1.5.1-2.2zm2 3.4c0 .5.2.9.3 1.3.2.4.4.7.7 1 .3.3.7.4 1.3.4.5 0 1-.1 1.3-.4.3-.3.6-.6.7-1 .2-.4.3-.8.4-1.3.1-.5.1-.9.1-1.4 0-.4 0-.9-.1-1.3 0-.5-.2-.9-.3-1.3-.2-.4-.4-.7-.7-1-.3-.3-.7-.4-1.3-.4-.5 0-.9.1-1.3.4-.3.3-.6.6-.7 1-.2.4-.3.8-.4 1.3-.1.5-.1.9-.1 1.4 0 .4.1.8.1 1.3zm18.1-7.3L53.5 92.7h-2.4l15.1-20.9h2.5zm-6.2 12.9c.2-.7.4-1.3.8-1.8s.8-.9 1.4-1.3c.6-.3 1.3-.5 2.2-.5.9 0 1.6.2 2.2.5.6.3 1 .7 1.4 1.2.3.5.6 1.1.7 1.8.1.7.2 1.4.2 2.2 0 .7-.1 1.4-.2 2.1-.2.7-.4 1.3-.8 1.8s-.8.9-1.4 1.2c-.6.3-1.3.5-2.1.5s-1.6-.1-2.1-.4c-.6-.3-1.1-.7-1.4-1.2-.4-.5-.6-1.1-.8-1.8-.2-.7-.2-1.4-.2-2.2-.1-.7 0-1.4.1-2.1zm2 3.4c0 .5.2.9.3 1.3.2.4.4.7.7 1 .3.3.7.4 1.3.4.5 0 1-.1 1.3-.4.3-.3.6-.6.7-1 .2-.4.3-.8.4-1.3.1-.5.1-.9.1-1.4 0-.4 0-.9-.1-1.3 0-.5-.2-.9-.3-1.3-.2-.4-.4-.7-.7-1-.3-.3-.7-.4-1.3-.4-.5 0-.9.1-1.3.4-.3.3-.6.6-.7 1-.2.4-.3.8-.4 1.3-.1.5-.1.9-.1 1.4 0 .4.1.9.1 1.3zM80.7 81.8c.3-.9.8-1.7 1.4-2.4.6-.7 1.3-1.2 2.2-1.6.9-.4 1.9-.6 3-.6 1.2 0 2.2.2 3.1.6.9.4 1.6.9 2.2 1.6.6.7 1.1 1.5 1.4 2.4.3.9.5 1.9.5 3s-.2 2.1-.5 3c-.3.9-.8 1.7-1.4 2.4-.6.7-1.3 1.2-2.2 1.6-.9.4-1.9.6-3.1.6-1.1 0-2.2-.2-3-.6-.9-.4-1.6-.9-2.2-1.6-.6-.7-1.1-1.5-1.4-2.4-.3-.9-.4-1.9-.4-3 0-1 .1-2 .4-3zm2.5 5.4c.2.7.6 1.3 1 1.7.4.5.9.8 1.4 1.1.6.2 1.1.4 1.8.4.6 0 1.2-.1 1.8-.4.6-.2 1-.6 1.4-1.1.4-.5.7-1 1-1.7.2-.7.4-1.5.4-2.4 0-.9-.1-1.7-.4-2.4-.2-.7-.6-1.3-1-1.7-.4-.5-.9-.8-1.4-1.1-.6-.2-1.1-.4-1.8-.4-.6 0-1.2.1-1.8.4-.6.2-1 .6-1.4 1.1-.4.5-.7 1-1 1.7-.2.7-.4 1.5-.4 2.4 0 .9.1 1.7.4 2.4zM96 79.6v-2.1h2.4v-2.2c0-1.2.3-2.1 1-2.7.7-.6 1.7-.9 3-.9.2 0 .5 0 .8.1s.5.1.8.2v2.1c-.2-.1-.4-.1-.7-.2h-.7c-.6 0-1 .1-1.4.3-.3.2-.5.7-.5 1.3v2h2.8v2.1h-2.8V92h-2.4V79.6H96zM104.1 79.6v-2.1h2.4v-2.2c0-1.2.3-2.1 1-2.7.7-.6 1.7-.9 3-.9.2 0 .5 0 .8.1.3 0 .5.1.8.2v2.1c-.2-.1-.4-.1-.7-.2h-.7c-.6 0-1 .1-1.4.3s-.5.7-.5 1.3v2h2.8v2.1H109V92h-2.4V79.6h-2.5z"/><g><path class="st1" d="M26.2 50.4v1c0 3.4 2.7 5.1 5.5 5.1 1.9 0 3.2-.4 5.3-1.5l-.5 2.1c-1.7.9-3.1 1.2-5.2 1.2-3.7 0-7.1-2.4-7.1-6.8 0-5.5 4.3-10 9.1-10 3.7 0 5.9 2.3 5.9 5.8 0 1-.2 2-.7 3.2H26.2zm.4-1.7H37c.2-.6.3-1.2.3-1.9 0-1.8-1.2-3.6-4.2-3.6-2.9.1-5.5 2.4-6.5 5.5zM40.6 56.4c0-.9.8-1.7 1.6-1.7.9 0 1.4.6 1.6 1.4.8-.3 1.7-1.4 3.1-3.3l2.6-3.5-2.2-5.8H44l.5-1.8h4.1l2.2 6.3 2-2.9c1.5-2.1 3.1-3.7 4.8-3.7 1.5 0 2.3.9 2.3 1.8s-.8 1.7-1.6 1.7c-1 0-1.5-.7-1.7-1.4-.6.2-1.4 1.1-2.7 2.8l-2.3 3.2 2 4.8c.9 2.2 1.3 2.5 1.8 2.5s1.2-.7 1.7-2.5l1.2.3c-.7 2.6-1.9 3.6-3.2 3.6-1.5 0-2.3-.8-3.1-3l-1.6-4.4-2.6 3.7c-1.8 2.6-3.2 3.7-5 3.7-1.5 0-2.2-.9-2.2-1.8zM68 43.5l-2.6 10.4c-.1.5-.2.9-.2 1.4 0 .5.5 1.2 1.4 1.2.9 0 1.9-.6 3.5-1.6l.9 1.2c-1.9 1.4-3.3 2.2-4.8 2.2-1.8 0-3.1-1.2-3.1-2.7 0-.5.1-1 .3-1.7L66 43.5h-2.9l.5-1.8h2.8l1-4 2.2-.6-1.2 4.6h5l-.5 1.8H68zM78.5 43.5h-3.1l.5-1.8h5l-1.1 4.4c2.2-3 4-4.7 5.5-4.7 1.3 0 2 .7 2 1.7s-.9 1.9-1.8 1.9-1.5-.5-1.7-1.3c-1.3.8-4.1 3.3-5.1 7.1L76.9 58h-2l3.6-14.5zM88.1 51.6c0-5.5 4-10.1 8.7-10.1 2.9 0 4.9 1.6 5.3 4.2l1-4.1h2l-3 12.4c-.2.6-.3 1.2-.3 1.5 0 .8.5 1.3 1.2 1.3.9 0 1.5-.8 2.2-2.6l1.2.4c-.8 2.3-1.9 3.6-3.7 3.6-1.7 0-2.9-1.1-2.9-2.6V55c-1.4 1.9-3.4 3.3-5.8 3.3-3.5 0-5.9-2.6-5.9-6.7zm13.2-3.5c0-2.9-1.5-4.9-4.5-4.9-3.9 0-6.6 4.1-6.6 8.3 0 3 1.5 4.9 4.3 4.9 4.2.1 6.8-4.6 6.8-8.3z"/></g></svg>