<svg id="Layer_1" xmlns="http://www.w3.org/2000/svg" viewBox="0 0 128 128"><style>.st0{fill:#FFF}.st1{fill:#ed3023}</style><path class="st0" d="M128 64c0 35.3-28.7 64-64 64S0 99.3 0 64 28.7 0 64 0s64 28.7 64 64"/><path class="st1" d="M34 102.3V79.4h11.7v4h-7.4V89h7.1v4h-7.1v9.4H34zM49 102.3V79.4h7c2.4 0 4.3.5 5.6 1.5 1.8 1.4 2.7 3.3 2.7 5.5 0 .9-.2 1.8-.5 2.9-.4 1-.9 1.9-1.7 2.6-.9.9-2.2 1.5-3.8 1.9l6.2 8.5h-5.1l-6.1-8.8h-.1v8.8H49zm4.2-19v7h2.7c.8 0 1.5-.1 2.1-.4.6-.2 1-.6 1.3-1 .3-.4.5-.8.6-1.1.1-.4.2-.7.2-1.1 0-.8-.3-1.6-.9-2.4-.6-.7-1.7-1.1-3.1-1.1h-2.9zM66.8 102.3V79.4h12.3v4H71V89h7.7v4H71v5.4h8.1v4H66.8zM82.9 102.3V79.4h12.3v4h-8.1V89h7.7v4h-7.7v5.4h8.1v4H82.9z"/><g><path class="st1" d="M36.5 26.2v7.1h.1c.4-.8 1-1.3 1.8-1.7.8-.3 1.7-.5 2.6-.5 1.1 0 2 .2 2.8.6.8.4 1.4.9 2 1.6.5.7.9 1.4 1.2 2.3.3.9.4 1.8.4 2.8 0 1-.1 1.9-.4 2.8s-.6 1.6-1.2 2.3c-.5.7-1.2 1.2-2 1.5-.8.4-1.7.6-2.8.6-.3 0-.7 0-1.1-.1l-1.2-.3c-.4-.2-.8-.4-1.2-.7-.4-.3-.7-.6-.9-1h-.1v1.8h-2.3V26.2h2.3zm8.2 10.1c-.2-.6-.4-1.2-.8-1.6-.3-.5-.8-.9-1.3-1.1-.5-.3-1.2-.4-1.9-.4-.8 0-1.4.2-1.9.5s-1 .7-1.3 1.2c-.3.5-.6 1-.7 1.7-.2.6-.2 1.3-.2 1.9 0 .7.1 1.3.2 2 .2.6.4 1.2.8 1.7.3.5.8.9 1.3 1.2.6.3 1.2.4 2 .4s1.4-.2 2-.5c.5-.3.9-.7 1.3-1.2.3-.5.6-1.1.7-1.7.1-.6.2-1.3.2-2-.2-.8-.2-1.5-.4-2.1zM59.8 45.2V43h-.1c-.5.9-1.1 1.5-1.8 1.9-.7.4-1.6.6-2.6.6-.9 0-1.7-.1-2.3-.4-.6-.2-1.1-.6-1.5-1-.4-.4-.6-1-.8-1.6-.2-.6-.2-1.3-.2-2v-9.1h2.3v9.3c0 .9.2 1.5.7 2 .5.5 1.2.7 2.1.7.7 0 1.3-.1 1.8-.3.5-.2.9-.5 1.3-.9.3-.4.6-.8.8-1.4.2-.5.3-1.1.3-1.7v-7.8H62v13.8h-2.2zM70.6 48.7c-.3.5-.5.8-.9 1.1-.3.3-.7.5-1 .6-.4.1-.8.2-1.3.2-.3 0-.5 0-.8-.1-.3 0-.5-.1-.8-.2v-2.1c.2.1.4.1.7.2.2.1.4.1.7.1.5 0 .8-.1 1.1-.3.3-.2.5-.5.7-.9l.9-2.3-5.5-13.7H67l4 11.3h.1L75 31.3h2.4l-6 15.6c-.3.8-.6 1.4-.8 1.8zM92.7 45.2V31.7h-4.9v-1.8c.6 0 1.3 0 1.9-.1.6-.1 1.2-.3 1.6-.5.5-.3.9-.6 1.2-1.1.3-.5.6-1.1.7-1.8H95v18.9h-2.3z"/></g><g><path class="st1" d="M44.9 74.1c-1 1.1-2.7 1.7-4.9 1.7-.6 0-1.3-.1-2-.2s-1.3-.4-1.8-.7c-.5-.3-1-.7-1.3-1.3-.4-.5-.6-1.1-.6-1.9h2.3c0 .4.1.8.4 1 .2.3.5.5.9.7.3.2.7.3 1.1.4.4.1.8.1 1.2.1.7 0 1.4-.1 1.9-.4.5-.3.9-.6 1.3-1.1.3-.5.6-1 .7-1.6.2-.6.2-1.3.2-2.1v-.9h-.1c-.4.9-1 1.5-1.8 1.9-.8.4-1.6.6-2.5.6-1 0-1.9-.2-2.7-.6-.8-.4-1.4-.9-1.9-1.5s-.9-1.4-1.2-2.2c-.3-.8-.4-1.7-.4-2.7 0-.8.1-1.7.3-2.5.2-.9.6-1.6 1.1-2.3.5-.7 1.2-1.3 2-1.7.8-.5 1.8-.7 3-.7.9 0 1.7.2 2.4.6.7.4 1.3 1 1.7 1.7v-2h2.1V69c.2 2.3-.3 4-1.4 5.1zM42 67.9c.5-.3.9-.7 1.3-1.2.3-.5.6-1.1.7-1.7.2-.6.2-1.3.2-1.9 0-.6-.1-1.2-.2-1.8-.1-.6-.4-1.1-.7-1.6-.3-.5-.7-.8-1.2-1.1-.5-.3-1.1-.4-1.8-.4s-1.4.1-1.9.4c-.5.3-.9.6-1.3 1.1-.3.5-.6 1-.7 1.6-.2.6-.2 1.2-.2 1.9 0 .6.1 1.2.2 1.9.1.6.3 1.2.6 1.7s.7.9 1.2 1.2c.5.3 1.1.5 1.9.5.8-.1 1.4-.3 1.9-.6zM62.1 69.4c-1 .8-2.3 1.2-3.9 1.2-1.1 0-2.1-.2-2.9-.5-.8-.4-1.5-.9-2-1.5-.6-.6-1-1.4-1.2-2.3-.3-.9-.4-1.9-.5-2.9 0-1.1.2-2 .5-2.9.3-.9.8-1.6 1.3-2.3.6-.6 1.3-1.1 2.1-1.5.8-.4 1.7-.5 2.6-.5 1.2 0 2.2.3 3.1.8.8.5 1.5 1.2 1.9 1.9.5.8.8 1.6 1 2.6.2.9.3 1.8.2 2.6H54c0 .6.1 1.2.2 1.7.2.5.4 1 .8 1.4.4.4.8.8 1.4 1 .6.2 1.2.4 1.9.4 1 0 1.7-.2 2.4-.7.6-.4 1-1.1 1.2-2h2.2c-.3 1.5-1 2.7-2 3.5zm-.6-8.9c-.2-.5-.5-.9-.8-1.2-.3-.3-.8-.6-1.2-.8-.5-.2-1-.3-1.6-.3-.6 0-1.1.1-1.6.3-.5.2-.9.5-1.2.8-.3.4-.6.8-.8 1.2-.2.5-.3 1-.3 1.5h7.9c0-.5-.2-1-.4-1.5zM75 56.4v2h-2.7V67c0 .3 0 .5.1.6 0 .2.1.3.3.4.1.1.3.1.5.2h1.9v2h-1.7c-.6 0-1.1 0-1.5-.1-.4-.1-.8-.2-1-.4-.3-.2-.4-.5-.6-.9-.3-.4-.3-.9-.3-1.6v-8.8h-2.3v-2H70v-4.1h2.3v4.1H75zM92.9 70.2V56.7H88v-1.8c.6 0 1.3 0 1.9-.1.6-.1 1.2-.3 1.6-.5.5-.3.9-.6 1.2-1.1.3-.5.6-1.1.7-1.8h1.7v18.9h-2.2z"/></g></svg>