<?xml version="1.0" encoding="utf-8"?>
<!-- Generator: Adobe Illustrator 19.1.0, SVG Export Plug-In . SVG Version: 6.00 Build 0)  -->
<svg version="1.1" id="Layer_1" xmlns="http://www.w3.org/2000/svg" xmlns:xlink="http://www.w3.org/1999/xlink" x="0px" y="0px"
	 width="370px" height="150px" viewBox="0 0 370 150" style="enable-background:new 0 0 370 150;" xml:space="preserve">
<style type="text/css">
	.st0{opacity:0.2;}
	.st1{fill:#FFFFFF;}
	.st2{clip-path:url(#SVGID_2_);fill:#EF4737;}
	.st3{clip-path:url(#SVGID_4_);fill:#EF4737;}
	.st4{clip-path:url(#SVGID_6_);fill:#EF4737;}
	.st5{clip-path:url(#SVGID_8_);fill:#373031;}
	.st6{clip-path:url(#SVGID_10_);fill:#373031;}
	.st7{clip-path:url(#SVGID_12_);fill:#373031;}
	.st8{clip-path:url(#SVGID_14_);fill:#373031;}
	.st9{clip-path:url(#SVGID_16_);fill:#373031;}
	.st10{clip-path:url(#SVGID_18_);fill:#373031;}
	.st11{clip-path:url(#SVGID_20_);fill:#373031;}
	.st12{clip-path:url(#SVGID_22_);fill:#373031;}
	.st13{clip-path:url(#SVGID_24_);fill:#373031;}
	.st14{fill:none;}
</style>
<g class="st0">
	<path d="M368,124.6c0,8.1-6.6,14.7-14.7,14.7H16.7c-8.1,0-14.7-6.6-14.7-14.7V33c0-8.1,6.6-14.7,14.7-14.7h336.6
		c8.1,0,14.7,6.6,14.7,14.7V124.6z"/>
</g>
<g>
	<path class="st1" d="M367.9,118.2c0,8.1-6.6,14.7-14.7,14.7H16.8c-8.1,0-14.7-6.6-14.7-14.7V26.5c0-8.1,6.6-14.7,14.7-14.7h336.3
		c8.1,0,14.7,6.6,14.7,14.7V118.2z"/>
</g>
<g>
	<g>
		<defs>
			<polyline id="SVGID_1_" points="33.4,31.8 33.4,112.9 336.6,112.9 336.6,31.8 			"/>
		</defs>
		<clipPath id="SVGID_2_">
			<use xlink:href="#SVGID_1_"  style="overflow:visible;"/>
		</clipPath>
		<path class="st2" d="M104.3,85.7L104.3,85.7c-1.7,3.8-4,7.2-6.9,10.1c-6,6-14.4,9.8-23.6,9.8c-9.2,0-17.5-3.7-23.6-9.8
			c-6-6.1-9.7-14.4-9.7-23.6c0-9.2,3.7-17.6,9.7-23.6c6.1-6,14.4-9.8,23.6-9.8c9.2,0,17.5,3.7,23.6,9.8c2.8,2.8,5.1,6.2,6.8,9.8h7.5
			c-2-5.6-5.3-10.7-9.4-14.8C95,36.2,84.9,31.7,73.8,31.7c-11.1,0-21.3,4.5-28.6,11.8C37.9,50.8,33.4,61,33.4,72.1
			c0,11.2,4.5,21.3,11.8,28.6c7.3,7.3,17.4,11.9,28.6,11.9c11.1,0,21.2-4.6,28.5-11.9c4.2-4.2,7.5-9.3,9.5-15H104.3z"/>
	</g>
	<g>
		<defs>
			<polyline id="SVGID_3_" points="33.4,31.8 33.4,112.9 336.6,112.9 336.6,31.8 			"/>
		</defs>
		<clipPath id="SVGID_4_">
			<use xlink:href="#SVGID_3_"  style="overflow:visible;"/>
		</clipPath>
		<path class="st3" d="M93,52.8L93,52.8c-4.9-5-11.7-8-19.3-8c-7.5,0-14.4,3-19.3,8c-1.6,1.7-3.1,3.5-4.3,5.5h8.6
			c0.2-0.2,0.4-0.4,0.6-0.6c3.7-3.7,8.8-6,14.4-6c5.6,0,10.7,2.3,14.4,6c3.7,3.7,6,8.8,6,14.4c0,5.6-2.3,10.7-6,14.4
			c-3.7,3.7-8.7,6-14.4,6c-5.6,0-10.7-2.3-14.4-6c-0.3-0.3-0.5-0.5-0.8-0.8h-8.6c1.2,2.1,2.7,4,4.4,5.8c4.9,4.9,11.8,8,19.3,8
			c7.5,0,14.4-3.1,19.3-8c5-5,8-11.8,8-19.3C101.1,64.6,98,57.7,93,52.8z"/>
	</g>
	<g>
		<defs>
			<polyline id="SVGID_5_" points="33.4,31.8 33.4,112.9 336.6,112.9 336.6,31.8 			"/>
		</defs>
		<clipPath id="SVGID_6_">
			<use xlink:href="#SVGID_5_"  style="overflow:visible;"/>
		</clipPath>
		<path class="st4" d="M69,67.3L69,67.3c-1.2,1.2-2,2.9-2,4.8c0,1.9,0.7,3.5,2,4.8c1.2,1.2,2.9,2,4.8,2c1.9,0,3.5-0.7,4.8-2
			c1.2-1.3,2-2.9,2-4.8c0-1.9-0.8-3.6-2-4.8c-1.2-1.2-2.9-2-4.8-2C71.9,65.4,70.2,66.1,69,67.3z M73.8,85.9L73.8,85.9
			c-3.8,0-7.3-1.5-9.7-4c-2.5-2.5-4-6-4-9.8c0-3.8,1.6-7.3,4-9.8c2.5-2.5,5.9-4,9.7-4c3.8,0,7.3,1.5,9.7,4c2.5,2.5,4,6,4,9.8
			c0,3.8-1.5,7.3-4,9.8C81,84.4,77.6,85.9,73.8,85.9z"/>
	</g>
	<g>
		<defs>
			<polyline id="SVGID_7_" points="33.4,31.8 33.4,112.9 336.6,112.9 336.6,31.8 			"/>
		</defs>
		<clipPath id="SVGID_8_">
			<use xlink:href="#SVGID_7_"  style="overflow:visible;"/>
		</clipPath>
		<path class="st5" d="M194.3,89.1L194.3,89.1H188V53.9c0-7.8,5-12.5,12-12.5h4.4v6h-3.6c-4.1,0-6.6,2-6.6,6.3V55h10.2v6h-10.2V89.1
			z"/>
	</g>
	<g>
		<defs>
			<polyline id="SVGID_9_" points="33.4,31.8 33.4,112.9 336.6,112.9 336.6,31.8 			"/>
		</defs>
		<clipPath id="SVGID_10_">
			<use xlink:href="#SVGID_9_"  style="overflow:visible;"/>
		</clipPath>
		<path class="st6" d="M176.3,89.1L176.3,89.1h-6.2V53.9c0-7.8,5-12.5,12-12.5h4.4v6H183c-4.1,0-6.7,2-6.7,6.3V55h12.8v6h-12.8V89.1
			z"/>
	</g>
	<g>
		<defs>
			<polyline id="SVGID_11_" points="33.4,31.8 33.4,112.9 336.6,112.9 336.6,31.8 			"/>
		</defs>
		<clipPath id="SVGID_12_">
			<use xlink:href="#SVGID_11_"  style="overflow:visible;"/>
		</clipPath>
		<path class="st7" d="M209.6,55L209.6,55h6.3v34.1h-6.3V55z M212.7,48.7L212.7,48.7c-2.4,0-3.8-1.8-3.8-3.8c0-1.9,1.4-3.8,3.8-3.8
			c2.4,0,3.8,1.9,3.8,3.8C216.5,46.8,215.1,48.7,212.7,48.7z"/>
	</g>
	<g>
		<defs>
			<polyline id="SVGID_13_" points="33.4,31.8 33.4,112.9 336.6,112.9 336.6,31.8 			"/>
		</defs>
		<clipPath id="SVGID_14_">
			<use xlink:href="#SVGID_13_"  style="overflow:visible;"/>
		</clipPath>
		<polygon class="st8" points="223,41.5 223,41.5 229.2,41.5 229.2,89.1 223,89.1 		"/>
	</g>
	<g>
		<defs>
			<polyline id="SVGID_15_" points="33.4,31.8 33.4,112.9 336.6,112.9 336.6,31.8 			"/>
		</defs>
		<clipPath id="SVGID_16_">
			<use xlink:href="#SVGID_15_"  style="overflow:visible;"/>
		</clipPath>
		<path class="st9" d="M236.3,55L236.3,55h6.3v34.1h-6.3V55z M239.4,48.7L239.4,48.7c-2.4,0-3.7-1.8-3.7-3.8c0-1.9,1.3-3.8,3.7-3.8
			c2.4,0,3.8,1.9,3.8,3.8C243.1,46.8,241.8,48.7,239.4,48.7z"/>
	</g>
	<g>
		<defs>
			<polyline id="SVGID_17_" points="33.4,31.8 33.4,112.9 336.6,112.9 336.6,31.8 			"/>
		</defs>
		<clipPath id="SVGID_18_">
			<use xlink:href="#SVGID_17_"  style="overflow:visible;"/>
		</clipPath>
		<path class="st10" d="M278.5,89.1L278.5,89.1h-6.3V69.2c0-5.3-3.8-9-8.3-9c-4.5,0-8.3,3.7-8.3,9v19.9h-6.3V74.3c0-0.2,0-0.4,0-0.6
			V55.1h6.2v1.6c2.3-1.6,5.2-2.4,8.3-2.4c8.3,0,14.5,6,14.5,14.9V89.1z"/>
	</g>
	<g>
		<defs>
			<polyline id="SVGID_19_" points="33.4,31.8 33.4,112.9 336.6,112.9 336.6,31.8 			"/>
		</defs>
		<clipPath id="SVGID_20_">
			<use xlink:href="#SVGID_19_"  style="overflow:visible;"/>
		</clipPath>
		<path class="st11" d="M322.9,78.1L322.9,78.1c0,6.8,3.7,11,10.1,11h3.3v-6h-2.5c-3.2,0-4.6-1-4.6-4.3V61h7.1v-6h-7.1v-8.5h-6.3
			V78.1z"/>
	</g>
	<g>
		<defs>
			<polyline id="SVGID_21_" points="33.4,31.8 33.4,112.9 336.6,112.9 336.6,31.8 			"/>
		</defs>
		<clipPath id="SVGID_22_">
			<use xlink:href="#SVGID_21_"  style="overflow:visible;"/>
		</clipPath>
		<path class="st12" d="M154.4,79.1L154.4,79.1c-2.1,2.7-5,4.7-8.6,4.7c-6.5,0-11.2-5.3-11.2-11.7c0-6.5,4.3-12,11.2-12
			c5.7,0,11.1,3.3,11.1,9.7V73C156.9,74.7,155.4,78.1,154.4,79.1z M156.9,54.9L156.9,54.9v2.5c-2.8-2-6.6-3.1-10.9-3.1
			c-10.9,0-17.6,7.7-17.6,17.4c0,10,6.9,18.1,16.7,18.1c4.3,0,6.8-1.4,9.2-3.3c1-0.7,1.8-1.5,2.6-2.4v5h6.2V74.1c0-0.2,0-0.4,0-0.6
			V54.9H156.9z"/>
	</g>
	<g>
		<defs>
			<polyline id="SVGID_23_" points="33.4,31.8 33.4,112.9 336.6,112.9 336.6,31.8 			"/>
		</defs>
		<clipPath id="SVGID_24_">
			<use xlink:href="#SVGID_23_"  style="overflow:visible;"/>
		</clipPath>
		<path class="st13" d="M300.6,60.2L300.6,60.2c0,0,0.1,0,0.1,0c0.1,0,0.1,0,0.2,0c5.7,0,9.6,3.8,10.8,8.8h-21.9
			C290.9,64,294.8,60.2,300.6,60.2z M310.1,78.8L310.1,78.8c-2,3.1-5.3,5.1-9.4,5.1c-5.6,0-10-4-11.1-9.2h28.5c0.1-1,0.2-2,0.2-3
			c0-9.7-6.7-17.4-17.7-17.4c-10.9,0-17.6,7.7-17.6,17.4c0,10.1,7.3,18.1,17.6,18.1c7.8,0,13.8-4.6,16.4-11.1H310.1z"/>
	</g>
	<rect x="33.4" y="31.8" class="st14" width="302.8" height="80.8"/>
</g>
</svg>
