<svg id="Layer_1" xmlns="http://www.w3.org/2000/svg" xmlns:xlink="http://www.w3.org/1999/xlink" width="370" height="150" viewBox="0 0 370 150"><style>.st0{opacity:.2}.st1{fill:#FFF}.st2{clip-path:url(#SVGID_2_);fill:#ef4737}.st3{clip-path:url(#SVGID_4_);fill:#ef4737}.st4{clip-path:url(#SVGID_6_);fill:#ef4737}.st5{clip-path:url(#SVGID_8_);fill:#373031}.st6{clip-path:url(#SVGID_10_);fill:#373031}.st7{clip-path:url(#SVGID_12_);fill:#373031}.st8{clip-path:url(#SVGID_14_);fill:#373031}.st9{clip-path:url(#SVGID_16_);fill:#373031}.st10{clip-path:url(#SVGID_18_);fill:#373031}.st11{clip-path:url(#SVGID_20_);fill:#373031}.st12{clip-path:url(#SVGID_22_);fill:#373031}.st13{clip-path:url(#SVGID_24_);fill:#373031}.st14{fill:none}</style><path d="M368 124.6c0 8.1-6.6 14.7-14.7 14.7H16.7c-8.1 0-14.7-6.6-14.7-14.7V33c0-8.1 6.6-14.7 14.7-14.7h336.6c8.1 0 14.7 6.6 14.7 14.7v91.6z" class="st0"/><path class="st1" d="M367.9 118.2c0 8.1-6.6 14.7-14.7 14.7H16.8c-8.1 0-14.7-6.6-14.7-14.7V26.5c0-8.1 6.6-14.7 14.7-14.7h336.3c8.1 0 14.7 6.6 14.7 14.7v91.7z"/><defs><path id="SVGID_1_" d="M33.4 31.8v81.1h303.2V31.8"/></defs><clipPath id="SVGID_2_"><use xlink:href="#SVGID_1_" overflow="visible"/></clipPath><path class="st2" d="M104.3 85.7c-1.7 3.8-4 7.2-6.9 10.1-6 6-14.4 9.8-23.6 9.8-9.2 0-17.5-3.7-23.6-9.8-6-6.1-9.7-14.4-9.7-23.6 0-9.2 3.7-17.6 9.7-23.6 6.1-6 14.4-9.8 23.6-9.8 9.2 0 17.5 3.7 23.6 9.8 2.8 2.8 5.1 6.2 6.8 9.8h7.5c-2-5.6-5.3-10.7-9.4-14.8-7.3-7.4-17.4-11.9-28.5-11.9-11.1 0-21.3 4.5-28.6 11.8-7.3 7.3-11.8 17.5-11.8 28.6 0 11.2 4.5 21.3 11.8 28.6 7.3 7.3 17.4 11.9 28.6 11.9 11.1 0 21.2-4.6 28.5-11.9 4.2-4.2 7.5-9.3 9.5-15h-7.5z"/><defs><path id="SVGID_3_" d="M33.4 31.8v81.1h303.2V31.8"/></defs><clipPath id="SVGID_4_"><use xlink:href="#SVGID_3_" overflow="visible"/></clipPath><path class="st3" d="M93 52.8c-4.9-5-11.7-8-19.3-8-7.5 0-14.4 3-19.3 8-1.6 1.7-3.1 3.5-4.3 5.5h8.6l.6-.6c3.7-3.7 8.8-6 14.4-6s10.7 2.3 14.4 6c3.7 3.7 6 8.8 6 14.4s-2.3 10.7-6 14.4c-3.7 3.7-8.7 6-14.4 6-5.6 0-10.7-2.3-14.4-6l-.8-.8h-8.6c1.2 2.1 2.7 4 4.4 5.8 4.9 4.9 11.8 8 19.3 8s14.4-3.1 19.3-8c5-5 8-11.8 8-19.3.2-7.6-2.9-14.5-7.9-19.4z"/><defs><path id="SVGID_5_" d="M33.4 31.8v81.1h303.2V31.8"/></defs><clipPath id="SVGID_6_"><use xlink:href="#SVGID_5_" overflow="visible"/></clipPath><path class="st4" d="M69 67.3a6.8 6.8 0 0 0-2 4.8c0 1.9.7 3.5 2 4.8 1.2 1.2 2.9 2 4.8 2s3.5-.7 4.8-2c1.2-1.3 2-2.9 2-4.8s-.8-3.6-2-4.8a6.8 6.8 0 0 0-4.8-2c-1.9.1-3.6.8-4.8 2zm4.8 18.6c-3.8 0-7.3-1.5-9.7-4-2.5-2.5-4-6-4-9.8 0-3.8 1.6-7.3 4-9.8 2.5-2.5 5.9-4 9.7-4 3.8 0 7.3 1.5 9.7 4 2.5 2.5 4 6 4 9.8 0 3.8-1.5 7.3-4 9.8-2.5 2.5-5.9 4-9.7 4z"/><defs><path id="SVGID_7_" d="M33.4 31.8v81.1h303.2V31.8"/></defs><clipPath id="SVGID_8_"><use xlink:href="#SVGID_7_" overflow="visible"/></clipPath><path class="st5" d="M194.3 89.1H188V53.9c0-7.8 5-12.5 12-12.5h4.4v6h-3.6c-4.1 0-6.6 2-6.6 6.3V55h10.2v6h-10.2v28.1z"/><defs><path id="SVGID_9_" d="M33.4 31.8v81.1h303.2V31.8"/></defs><clipPath id="SVGID_10_"><use xlink:href="#SVGID_9_" overflow="visible"/></clipPath><path class="st6" d="M176.3 89.1h-6.2V53.9c0-7.8 5-12.5 12-12.5h4.4v6H183c-4.1 0-6.7 2-6.7 6.3V55h12.8v6h-12.8v28.1z"/><g><defs><path id="SVGID_11_" d="M33.4 31.8v81.1h303.2V31.8"/></defs><clipPath id="SVGID_12_"><use xlink:href="#SVGID_11_" overflow="visible"/></clipPath><path class="st7" d="M209.6 55h6.3v34.1h-6.3V55zm3.1-6.3c-2.4 0-3.8-1.8-3.8-3.8 0-1.9 1.4-3.8 3.8-3.8s3.8 1.9 3.8 3.8-1.4 3.8-3.8 3.8z"/></g><g><defs><path id="SVGID_13_" d="M33.4 31.8v81.1h303.2V31.8"/></defs><clipPath id="SVGID_14_"><use xlink:href="#SVGID_13_" overflow="visible"/></clipPath><path class="st8" d="M223 41.5h6.2v47.6H223z"/></g><g><defs><path id="SVGID_15_" d="M33.4 31.8v81.1h303.2V31.8"/></defs><clipPath id="SVGID_16_"><use xlink:href="#SVGID_15_" overflow="visible"/></clipPath><path class="st9" d="M236.3 55h6.3v34.1h-6.3V55zm3.1-6.3c-2.4 0-3.7-1.8-3.7-3.8 0-1.9 1.3-3.8 3.7-3.8 2.4 0 3.8 1.9 3.8 3.8-.1 1.9-1.4 3.8-3.8 3.8z"/></g><g><defs><path id="SVGID_17_" d="M33.4 31.8v81.1h303.2V31.8"/></defs><clipPath id="SVGID_18_"><use xlink:href="#SVGID_17_" overflow="visible"/></clipPath><path class="st10" d="M278.5 89.1h-6.3V69.2c0-5.3-3.8-9-8.3-9-4.5 0-8.3 3.7-8.3 9v19.9h-6.3V74.3 55.1h6.2v1.6c2.3-1.6 5.2-2.4 8.3-2.4 8.3 0 14.5 6 14.5 14.9v19.9z"/></g><g><defs><path id="SVGID_19_" d="M33.4 31.8v81.1h303.2V31.8"/></defs><clipPath id="SVGID_20_"><use xlink:href="#SVGID_19_" overflow="visible"/></clipPath><path class="st11" d="M322.9 78.1c0 6.8 3.7 11 10.1 11h3.3v-6h-2.5c-3.2 0-4.6-1-4.6-4.3V61h7.1v-6h-7.1v-8.5h-6.3v31.6z"/></g><g><defs><path id="SVGID_21_" d="M33.4 31.8v81.1h303.2V31.8"/></defs><clipPath id="SVGID_22_"><use xlink:href="#SVGID_21_" overflow="visible"/></clipPath><path class="st12" d="M154.4 79.1c-2.1 2.7-5 4.7-8.6 4.7-6.5 0-11.2-5.3-11.2-11.7 0-6.5 4.3-12 11.2-12 5.7 0 11.1 3.3 11.1 9.7V73c0 1.7-1.5 5.1-2.5 6.1zm2.5-24.2v2.5c-2.8-2-6.6-3.1-10.9-3.1-10.9 0-17.6 7.7-17.6 17.4 0 10 6.9 18.1 16.7 18.1 4.3 0 6.8-1.4 9.2-3.3 1-.7 1.8-1.5 2.6-2.4v5h6.2v-15V54.9h-6.2z"/></g><g><defs><path id="SVGID_23_" d="M33.4 31.8v81.1h303.2V31.8"/></defs><clipPath id="SVGID_24_"><use xlink:href="#SVGID_23_" overflow="visible"/></clipPath><path class="st13" d="M300.6 60.2H300.9c5.7 0 9.6 3.8 10.8 8.8h-21.9c1.1-5 5-8.8 10.8-8.8zm9.5 18.6c-2 3.1-5.3 5.1-9.4 5.1-5.6 0-10-4-11.1-9.2h28.5c.1-1 .2-2 .2-3 0-9.7-6.7-17.4-17.7-17.4-10.9 0-17.6 7.7-17.6 17.4 0 10.1 7.3 18.1 17.6 18.1 7.8 0 13.8-4.6 16.4-11.1h-6.9z"/></g><path class="st14" d="M33.4 31.8h302.8v80.8H33.4z"/></svg>