<svg id="Page_1" xmlns="http://www.w3.org/2000/svg" viewBox="0 0 180 101.9"><style>.st0{fill:#005098}.st0,.st1{fill-rule:evenodd;clip-rule:evenodd}.st1{fill:#f7a600}</style><g id="Layer_1_1_"><path class="st0" d="M85 30.1h7.8L88 60.2h-7.7L85 30.1zM58.1 30.1H70c7.6 0 9.5 4.4 8.7 9.6C78 44 74.9 47 70.8 48l7.5 12.3h-9.8L63 48.4l-1.9 11.8h-7.8l4.8-30.1zm6.8 6l-1.2 7.6H66c2.2 0 4.3-1.7 4.6-3.8.3-2.1-1.2-3.8-3.3-3.8h-2.4zM120.5 30.1h7.8l-4.8 30.1h-7.8l4.8-30.1zM134.2 30.1h17.1l-1.1 6.5h-9.3l-.8 5.2h8.8l-1 6.5h-8.8l-.9 5.4h9.3l-1 6.5h-17.1l4.8-30.1zM36.4 30.1h17.1l-1 6.5h-9.3l-.9 5.2h8.9l-1.1 6.5h-8.8l-.8 5.4h9.2l-1 6.5H31.6l4.8-30.1zM98.7 30.1h17.2l-1 6.5h-9.5l-.8 5.2h8.6l-1 6.5h-8.6l-1.9 11.9h-7.8l4.8-30.1zM155.8 30.1H166c12.1 0 14.8 9.1 13.9 15.1-1.4 8.5-8.9 15.1-18.7 15.1H151l4.8-30.2zm6.8 6.5h1.6c5.9 0 8.3 4.2 7.6 8.2-.9 5.4-4.8 8.8-9.9 8.8h-2.1l2.8-17zM0 26h14.4l1.7 21.9C25.6 31.4 35.3 15.6 45 0h4.7C39.4 19.9 29.2 39.9 19.3 60.2H8.8L6.2 36.1c-.6-6-1.9-8.5-6.2-9.2V26z"/><path class="st1" d="M5.4 13.5l12.3 5.2 1.1 13.6h.9l11.1-18.8v-.9H5.4v.9z"/><path class="st0" d="M62.1 81.8c1.9 0 3.1 1.7 2.8 3.8-.3 2.1-2.1 3.8-3.9 3.8-1.9 0-3.1-1.7-2.8-3.8.3-2.1 2-3.8 3.9-3.8zm-6.3-14.5h5l-1.7 11.9c1.4-1.4 3.2-2.2 5.2-2.2 4 0 6.7 3.9 6 8.7-.7 4.8-4.5 8.7-8.6 8.7-2 0-3.4-.9-4.4-2.4l-.3 1.9h-5l3.8-26.6z"/><path class="st0" d="M70.7 77.4h6.1l2.7 8.4 5.2-8.4h5.8l-15.3 24.5h-5.8l6.4-10.3-5.1-14.2zM118.1 93.8l8.1-26.5h7.2l-8.1 26.5h-7.2zM114.8 67.3l-9.6 17.2h-.1l-.7-17.2H92l-.1 1.2c4.1 0 4.9.6 5.4 3.8l2.4 21.5h7.5l15.2-26.5h-7.6zM161.8 90l-1.8 3.8h-7.9l14.2-26.5h9.6l2.4 26.5H170.7l-.2-3.8h-8.7zm2.5-5.1h6.1l-.6-12.4-5.5 12.4zM141 94.6c-5.1 0-8.5-1.6-10.9-3l3.4-5.2c2.2 1.2 3.9 2.6 7.8 2.6 1.3 0 2.5-.3 3.2-1.5 1-1.7-.2-2.7-3.1-4.2l-1.4-.9c-4.2-2.8-6-5.5-4-10.2 1.3-3 4.6-5.3 10.1-5.3 3.8 0 7.3 1.6 9.4 3.2l-4 4.6c-2-1.6-3.7-2.4-5.6-2.4-1.5 0-2.7.6-3.1 1.4-.8 1.5.2 2.5 2.4 3.8l1.7 1c5.1 3.2 6.3 6.5 5 9.6-2.1 5.3-6.4 6.5-10.9 6.5z"/></g></svg>