<?xml version="1.0" encoding="utf-8"?>
<!-- Generator: Adobe Illustrator 19.1.0, SVG Export Plug-In . SVG Version: 6.00 Build 0)  -->
<svg version="1.1" id="Layer_1" xmlns="http://www.w3.org/2000/svg" xmlns:xlink="http://www.w3.org/1999/xlink" x="0px" y="0px"
	 viewBox="0 0 816 512" style="enable-background:new 0 0 816 512;" xml:space="preserve">
<style type="text/css">
	.st0{fill:#1C3378;}
</style>
<g>
	<path class="st0" d="M422.1,213.1L399.1,91.4C396.4,77.8,385.8,70,374,70h-92.6l-1.3,6.1c19,4.2,40.6,10.8,53.7,17.9
		c8,4.4,10.3,8,12.9,18.3L390.2,280h57.6l88.1-210h-57.1L422.1,213.1z"/>
	<path class="st0" d="M402.6,382h-0.3c-1.4,6-2.8,12.3-4.4,18.1l-7.2,23.9h24l-7.4-23.9C405.5,394.2,404,388,402.6,382z"/>
	<path class="st0" d="M778.5,0H37.5C16.8,0,0,16.8,0,37.5v437.1C0,495.2,16.8,512,37.5,512h741.1c20.7,0,37.5-16.8,37.5-37.5V37.5
		C816,16.8,799.2,0,778.5,0z M342.2,418.9c-6.8,7.1-17.6,10.4-29.7,10.4c-3.2,0-5.5-0.2-8.5-0.6V466h-17v-96.9c6-1.2,14.8-2,26.3-2
		c12.5,0,21.8,2.8,27.8,8c5.6,4.8,9.1,12.4,9.1,21.6C350.3,406,347.5,413.6,342.2,418.9z M426.1,466l-8.5-28h-29.7l-8.1,28h-17.6
		l30-98H414l30.5,98H426.1z M498,424.4V466h-18v-41.2L450.8,368h19.4l11.3,24.8c3.2,7.3,5.5,13.2,8.1,19.2h0.2
		c2.4-6,5.1-12.1,8.2-19.2l11.3-24.8h19.3L498,424.4z M804,295.5c0,20.7-16.8,37.5-37.5,37.5H49.5C28.8,333,12,316.2,12,295.5V49.5
		C12,28.8,28.8,12,49.5,12h717.1c20.7,0,37.5,16.8,37.5,37.5V295.5z"/>
	<path class="st0" d="M314,380.7c-4.7,0-8,0.4-10,0.9v33c2,0.6,5,0.8,8.5,0.8c12.8,0,20.6-6.6,20.6-18
		C333.1,386.5,325.9,380.7,314,380.7z"/>
</g>
</svg>
