<svg id="Layer_1" xmlns="http://www.w3.org/2000/svg" viewBox="0 0 56 56"><style>.st0{fill:#eb0000}.st1{fill:#FFF}</style><g id="drop3_xA0_Image_1_"><path class="st0" d="M42.3 23.4c.5-1.5.7-3 .7-4.6C43 10 36 3 27.3 3s-15.7 7-15.7 15.7c0 1.6.2 3.1.7 4.6.7 3.3 13.9 28.7 15 28.7 1 0 10.4-18.3 13.7-25.8.4-.7.7-1.6 1.1-2.5.1-.1.2-.3.2-.3"/><circle class="st1" cx="27.3" cy="18.2" r="12"/><path class="st0" d="M32.4 11.1l-5.1 11-5-11h-1.1l-1.7 12h.7l1.6-11 5.1 11h.8l5.1-11 1.7 11h.8l-1.7-12z"/></g></svg>