<svg xmlns="http://www.w3.org/2000/svg" xmlns:xlink="http://www.w3.org/1999/xlink" version="1.1" id="Matalan_Logo"
  x="0" y="0" viewBox="-134 351.8 341.8 31" xml:space="preserve" enable-background="new -134 351.8 341.8 31">
  <style type="text/css">
    .st0{
      fill:#DE1F26;
    }
  </style>
  <g id="sub">
    <polygon class="st0" points="-50.9 361.5 -49.3 361.5 -45.4 371.5 -41.5 361.5 -39.9 361.5 -39.9 372.8 -41 372.8 -41 363.1 -41.1 363.1 -44.9 372.8 -45.9 372.8 -49.8 363.1 -49.8 363.1 -49.8 372.8 -50.9 372.8 "/>
    <path class="st0" d="M-38 367.2c0.1-1.9 1.4-2.7 3.3-2.7 1.4 0 3 0.5 3 2.6v4.3c0 0.4 0.2 0.6 0.5 0.6 0.1 0 0.3-0.1 0.3-0.1v0.8c-0.2 0.1-0.4 0.1-0.7 0.1 -1 0-1.1-0.5-1.1-1.4l0 0c-0.7 1.1-1.4 1.7-3 1.7 -1.5 0-2.7-0.7-2.7-2.4 0-2.3 2.2-2.4 4.4-2.6 0.8-0.1 1.3-0.2 1.3-1.1 0-1.4-0.9-1.7-2.1-1.7 -1.2 0-2.2 0.5-2.2 1.9L-38 367.2 -38 367.2zM-32.7 368.3L-32.7 368.3c-0.1 0.3-0.6 0.3-0.9 0.3 -1.7 0.3-3.8 0.3-3.8 1.9 0 1 0.9 1.6 1.8 1.6 1.5 0 2.8-0.9 2.8-2.6L-32.7 368.3 -32.7 368.3z"/>
    <path class="st0" d="M-22.5 372.8h-0.9v-1.6l0 0c-0.4 1.1-1.7 1.8-2.9 1.8 -2.5 0-3.7-2-3.7-4.3s1.1-4.3 3.7-4.3c1.2 0 2.4 0.6 2.8 1.8l0 0v-4.7h1L-22.5 372.8 -22.5 372.8zM-26.4 372.2c2.1 0 2.8-1.8 2.8-3.4s-0.7-3.4-2.8-3.4c-1.9 0-2.6 1.8-2.6 3.4S-28.3 372.2-26.4 372.2"/>
    <path class="st0" d="M-20 369c0 1.4 0.8 3.2 2.7 3.2 1.5 0 2.2-0.9 2.6-2.1h1c-0.4 1.8-1.5 2.9-3.6 2.9 -2.6 0-3.7-2-3.7-4.3 0-2.2 1.1-4.3 3.7-4.3 2.6 0 3.7 2.3 3.6 4.6L-20 369 -20 369zM-14.7 368.2c-0.1-1.5-1-2.9-2.6-2.9 -1.6 0-2.5 1.4-2.7 2.9H-14.7z"/>
    <path class="st0" d="M-4.9 365.5h-1.6v7.3h-1v-7.3h-1.4v-0.8h1.4V364c0-1.4 0.4-2.4 2-2.4 0.3 0 0.5 0 0.8 0.1v0.9c-0.3-0.1-0.5-0.1-0.7-0.1 -1.1 0-1.1 0.7-1.1 1.6v0.7h1.6L-4.9 365.5 -4.9 365.5z"/>
    <path class="st0" d="M3.4 368.8c0 2.4-1.4 4.3-3.9 4.3s-3.9-2-3.9-4.3 1.4-4.3 3.9-4.3S3.4 366.4 3.4 368.8M-3.3 368.8c0 1.8 0.9 3.4 2.8 3.4s2.8-1.8 2.8-3.4c0-1.8-0.9-3.4-2.8-3.4C-2.4 365.2-3.3 367-3.3 368.8"/>
    <path class="st0" d="M4.9 364.7h0.9v1.9l0 0c0.5-1.3 1.6-2.1 3.1-2v1c-1.8-0.1-3 1.2-3 2.9v4.3h-1L4.9 364.7 4.9 364.7z"/>
    <polygon class="st0" points="14.4 361.5 16 361.5 19.9 371.5 23.8 361.5 25.4 361.5 25.4 372.8 24.3 372.8 24.3 363.1 24.3 363.1 20.4 372.8 19.4 372.8 15.6 363.1 15.5 363.1 15.5 372.8 14.4 372.8 "/>
    <path class="st0" d="M34.8 368.8c0 2.4-1.4 4.3-3.9 4.3s-3.9-2-3.9-4.3 1.4-4.3 3.9-4.3S34.8 366.4 34.8 368.8M28 368.8c0 1.8 0.9 3.4 2.8 3.4 1.9 0 2.8-1.8 2.8-3.4 0-1.8-0.9-3.4-2.8-3.4C29 365.2 28 367 28 368.8"/>
    <path class="st0" d="M43.4 372.8h-0.9v-1.6l0 0c-0.4 1.1-1.8 1.8-2.9 1.8 -2.5 0-3.7-2-3.7-4.3s1.1-4.3 3.7-4.3c1.2 0 2.4 0.6 2.8 1.8l0 0v-4.7h1L43.4 372.8 43.4 372.8zM39.6 372.2c2.1 0 2.8-1.8 2.8-3.4s-0.7-3.4-2.8-3.4c-1.9 0-2.7 1.8-2.7 3.4S37.7 372.2 39.6 372.2"/>
    <path class="st0" d="M45.9 369c0 1.4 0.8 3.2 2.7 3.2 1.5 0 2.2-0.9 2.6-2.1h1c-0.4 1.8-1.5 2.9-3.6 2.9 -2.6 0-3.7-2-3.7-4.3 0-2.2 1.1-4.3 3.7-4.3 2.6 0 3.7 2.3 3.6 4.6L45.9 369 45.9 369zM51.2 368.2c-0.1-1.5-1-2.9-2.6-2.9 -1.6 0-2.5 1.4-2.7 2.9H51.2z"/>
    <path class="st0" d="M53.5 364.7h0.9v1.9l0 0c0.5-1.3 1.6-2.1 3.1-2v1c-1.8-0.1-3 1.2-3 2.9v4.3h-1L53.5 364.7 53.5 364.7z"/>
    <path class="st0" d="M58.8 364.7h1v1.4l0 0c0.3-0.9 1.4-1.6 2.6-1.6 2.3 0 3 1.2 3 3.1v5.3h-1v-5.1c0-1.4-0.5-2.4-2.1-2.4 -1.6 0-2.5 1.2-2.6 2.8v4.7h-1v-8.2H58.8z"/>
    <polygon class="st0" points="71.8 361.5 79 361.5 79 362.5 72.9 362.5 72.9 366.5 78.3 366.5 78.3 367.5 72.9 367.5 72.9 372.8 71.8 372.8 "/>
    <path class="st0" d="M80.1 367.2c0.1-1.9 1.4-2.7 3.3-2.7 1.4 0 3 0.5 3 2.6v4.3c0 0.4 0.2 0.6 0.6 0.6 0.1 0 0.2-0.1 0.3-0.1v0.8c-0.2 0.1-0.3 0.1-0.6 0.1 -1 0-1.2-0.5-1.2-1.4l0 0c-0.7 1.1-1.4 1.7-3 1.7 -1.5 0-2.7-0.7-2.7-2.4 0-2.3 2.2-2.4 4.4-2.6 0.8-0.1 1.3-0.2 1.3-1.1 0-1.4-0.9-1.7-2.1-1.7 -1.2 0-2.2 0.5-2.2 1.9L80.1 367.2 80.1 367.2zM85.4 368.3L85.4 368.3c-0.1 0.3-0.6 0.3-0.9 0.3 -1.7 0.3-3.8 0.3-3.8 1.9 0 1 0.9 1.6 1.8 1.6 1.5 0 2.8-0.9 2.8-2.6L85.4 368.3 85.4 368.3z"/>
    <path class="st0" d="M88.3 364.7h0.9v1.4h0.1c0.5-1 1.4-1.6 2.6-1.6 1.1 0 2 0.5 2.4 1.6 0.5-1.1 1.5-1.6 2.6-1.6 1.8 0 2.7 0.9 2.7 2.8v5.5h-1v-5.5c0-1.4-0.5-2.1-2-2.1 -1.7 0-2.2 1.4-2.2 2.9v4.6h-1v-5.5c0-1.1-0.5-2-1.7-2 -1.7 0-2.4 1.3-2.4 3v4.5h-1L88.3 364.7 88.3 364.7z"/>
    <path class="st0" d="M101.5 361.5h1v1.6h-1V361.5zM101.5 364.7h1v8.2h-1V364.7z"/>
    <rect class="st0" x="104.5" y="361.5" width="1" height="11.3"/>
    <path class="st0" d="M107.4 361.5h1v1.6h-1V361.5zM107.4 364.7h1v8.2h-1V364.7z"/>
    <path class="st0" d="M110.9 369c0 1.4 0.7 3.2 2.7 3.2 1.4 0 2.2-0.9 2.6-2.1h1c-0.4 1.8-1.5 2.9-3.6 2.9 -2.6 0-3.7-2-3.7-4.3 0-2.2 1.1-4.3 3.7-4.3 2.6 0 3.7 2.3 3.6 4.6L110.9 369 110.9 369zM116.1 368.2c-0.1-1.5-0.9-2.9-2.6-2.9 -1.6 0-2.5 1.4-2.7 2.9H116.1z"/>
    <path class="st0" d="M123.4 367.1c-0.1-1.2-1-1.8-2.1-1.8 -0.9 0-2 0.3-2 1.4 0 0.9 1 1.2 1.7 1.4l1.4 0.3c1.1 0.2 2.3 0.8 2.3 2.2 0 1.8-1.8 2.4-3.2 2.4 -1.9 0-3.2-0.9-3.4-2.8h1c0.1 1.4 1.1 2 2.4 2 0.9 0 2.2-0.4 2.2-1.6 0-0.9-0.9-1.3-1.8-1.5l-1.3-0.3c-1.3-0.3-2.3-0.8-2.3-2.2 0-1.7 1.6-2.3 3-2.3 1.6 0 2.9 0.9 3 2.6H123.4L123.4 367.1z"/>
  </g>
</svg>