<?xml version="1.0" encoding="utf-8"?>
<!-- Generator: Adobe Illustrator 19.2.1, SVG Export Plug-In . SVG Version: 6.00 Build 0)  -->
<svg version="1.1" id="Layer_1" xmlns:sketch="http://www.bohemiancoding.com/sketch/ns"
	 xmlns="http://www.w3.org/2000/svg" xmlns:xlink="http://www.w3.org/1999/xlink" x="0px" y="0px" viewBox="0 0 128 90"
	 style="enable-background:new 0 0 128 90;" xml:space="preserve">
<style type="text/css">
	.st0{fill:#383838;}
</style>
<title>3 Across</title>
<desc>Created with Sketch.</desc>
<g>
	<path class="st0" d="M2,4v36h36V4H2z M34,36H6V8h28V36z"/>
	<path class="st0" d="M2,50v36h36V50H2z M34,82H6V54h28V82z"/>
	<path class="st0" d="M90,50v36h36V50H90z M122,82H94V54h28V82z"/>
	<path class="st0" d="M90,4v36h36V4H90z M122,36H94V8h28V36z"/>
	<path class="st0" d="M46,50v36h36V50H46z M78,82H50V54h28V82z"/>
	<path class="st0" d="M46,4v36h36V4H46z M78,36H50V8h28V36z"/>
</g>
</svg>
