<?xml version="1.0" encoding="utf-8"?>
<!-- Generator: Adobe Illustrator 19.2.1, SVG Export Plug-In . SVG Version: 6.00 Build 0)  -->
<svg version="1.1" id="Layer_1" xmlns:sketch="http://www.bohemiancoding.com/sketch/ns"
	 xmlns="http://www.w3.org/2000/svg" xmlns:xlink="http://www.w3.org/1999/xlink" x="0px" y="0px" viewBox="0 0 128 90"
	 style="enable-background:new 0 0 128 90;" xml:space="preserve">
<style type="text/css">
	.st0{fill:#383838;}
</style>
<title>4 Across</title>
<desc>Created with Sketch.</desc>
<g>
	<path class="st0" d="M9,4v25h24V4H9z M29,25H13V8h16V25z"/>
	<path class="st0" d="M9,61v25h24V61H9z M29,82H13V65h16V82z"/>
	<path class="st0" d="M9,33v24h24V33H9z M29,53H13V37h16V53z"/>
	<path class="st0" d="M38,61v25h24V61H38z M58,82H42V65h16V82z"/>
	<path class="st0" d="M38,4v25h24V4H38z M58,25H42V8h16V25z"/>
	<path class="st0" d="M95,61v25h24V61H95z M115,82H99V65h16V82z"/>
	<path class="st0" d="M95,33v24h24V33H95z M115,53H99V37h16V53z"/>
	<path class="st0" d="M95,4v25h24V4H95z M115,25H99V8h16V25z"/>
	<path class="st0" d="M38,33v24h24V33H38z M58,53H42V37h16V53z"/>
	<path class="st0" d="M66,61v25h24V61H66z M86,82H70V65h16V82z"/>
	<path class="st0" d="M66,33v24h24V33H66z M86,53H70V37h16V53z"/>
	<path class="st0" d="M66,4v25h24V4H66z M86,25H70V8h16V25z"/>
</g>
</svg>
