<?xml version="1.0" encoding="utf-8"?>
<!-- Generator: Adobe Illustrator 19.1.0, SVG Export Plug-In . SVG Version: 6.00 Build 0)  -->
<svg version="1.1" id="Page_1" xmlns="http://www.w3.org/2000/svg" xmlns:xlink="http://www.w3.org/1999/xlink" x="0px" y="0px"
	 viewBox="0 0 180 64" style="enable-background:new 0 0 180 64;" xml:space="preserve">
<style type="text/css">
	.st0{fill-rule:evenodd;clip-rule:evenodd;fill:#E30613;}
	.st1{fill-rule:evenodd;clip-rule:evenodd;fill:#F39400;}
</style>
<g id="Layer_1_1_">
	<g>
		<g>
			<g>
				<path class="st0" d="M170.1,25.1c0-2,1.5-3.6,3.4-3.6c1.9,0,3.4,1.6,3.4,3.6c0,2-1.5,3.6-3.4,3.6
					C171.7,28.7,170.1,27.1,170.1,25.1L170.1,25.1z M173.5,27.8c1.4,0,2.6-1.2,2.6-2.7c0-1.5-1.2-2.7-2.6-2.7
					c-1.4,0-2.6,1.2-2.6,2.7C171,26.6,172.1,27.8,173.5,27.8L173.5,27.8z M173.1,26.7h-0.7v-3.1h1.3c0.3,0,0.5,0,0.8,0.2
					c0.2,0.2,0.4,0.5,0.4,0.8c0,0.3-0.2,0.7-0.5,0.8l0.5,1.4H174l-0.5-1.2h-0.5V26.7L173.1,26.7z M173.1,24.9h0.4
					c0.1,0,0.3,0,0.4-0.1c0.1-0.1,0.2-0.2,0.2-0.4c0-0.1-0.1-0.3-0.2-0.3c-0.1-0.1-0.3-0.1-0.4-0.1h-0.4V24.9L173.1,24.9z"/>
			</g>
			<path class="st0" d="M121.7,1.5l-0.9,6c-2-1.1-3.5-1.5-5.1-1.5c-4.2,0-7.2,4.3-7.2,10.4c0,4.2,2,6.8,5.3,6.8
				c1.4,0,2.9-0.4,4.8-1.4l-1,6.4c-2.1,0.6-3.4,0.8-5,0.8c-6.1,0-9.9-4.6-9.9-12c0-10,5.3-16.9,12.8-16.9c1,0,1.8,0.1,2.5,0.3
				l2.3,0.6C121,1.2,121.2,1.2,121.7,1.5L121.7,1.5z"/>
			<path class="st0" d="M102.9,5.6c-0.2,0-0.4-0.1-0.6-0.1c-1.9,0-2.9,1-4.7,3.7l0.5-3.4H93l-3.5,22.6h5.7c2-13.8,2.6-16.2,5.3-16.2
				c0.2,0,0.2,0,0.4,0c0.5-2.7,1.2-4.7,2.1-6.6L102.9,5.6L102.9,5.6z"/>
			<path class="st0" d="M68.9,28.1c-1.5,0.5-2.8,0.7-4.1,0.7c-2.9,0-4.5-1.8-4.5-5c0-0.6,0-1.3,0.2-2l0.4-2.2l0.3-1.8l2.5-15.4h5.6
				l-0.6,3.4h2.9l-0.8,5.5h-2.9l-1.5,9.4c-0.1,0.4-0.1,0.7-0.1,0.9c0,1.2,0.6,1.7,1.9,1.7c0.7,0,1.1-0.1,1.5-0.2L68.9,28.1
				L68.9,28.1z"/>
			<path class="st0" d="M46.6,12.9c0,2.9,1.3,4.8,4.3,6.3c2.3,1.1,2.6,1.5,2.6,2.5c0,1.4-1,2.1-3.2,2.1c-1.7,0-3.3-0.3-5.1-0.9
				l-0.8,5.2l0.3,0.1l1,0.2c0.3,0.1,0.8,0.1,1.5,0.2c1.4,0.1,2.4,0.2,3.1,0.2c5.9,0,8.7-2.4,8.7-7.6c0-3.1-1.1-4.9-4-6.3
				c-2.4-1.1-2.6-1.4-2.6-2.4c0-1.2,0.9-1.9,2.8-1.9c1.1,0,2.6,0.1,4.1,0.3L60,5.7c-1.5-0.3-3.7-0.4-5-0.4
				C48.8,5.3,46.6,8.8,46.6,12.9L46.6,12.9z"/>
			<path class="st0" d="M166.9,28.4h-5.4l0.3-2.2c-1.6,1.8-3.2,2.5-5.2,2.5c-4.1,0-6.9-3.7-6.9-9.4c0-7.5,4.2-13.9,9.2-13.9
				c2.2,0,3.9,1,5.4,3.1l1.2-8h5.6L166.9,28.4L166.9,28.4z M158.5,23.1c2.6,0,4.5-3.1,4.5-7.6c0-2.9-1.1-4.4-3-4.4
				c-2.6,0-4.4,3.2-4.4,7.6C155.6,21.6,156.6,23.1,158.5,23.1L158.5,23.1z"/>
			<path class="st0" d="M86.9,27.9c-1.9,0.6-3.8,0.9-5.8,0.9c-6.3,0-9.6-3.5-9.6-10.1c0-7.8,4.2-13.5,9.9-13.5
				c4.7,0,7.7,3.2,7.7,8.2c0,1.7-0.2,3.3-0.7,5.6H77c0,0.3-0.1,0.5-0.1,0.7c0,2.6,1.7,4,5,4c2,0,3.8-0.4,5.9-1.4L86.9,27.9
				L86.9,27.9z M83.7,14.5c0-0.5,0-0.9,0-1.1c0-1.8-1-2.9-2.7-2.9c-1.8,0-3.1,1.4-3.6,4.1L83.7,14.5L83.7,14.5z"/>
			<polygon class="st0" points="23.8,28.4 18.2,28.4 21.4,7 14.2,28.4 10.3,28.4 9.8,7.1 6.4,28.4 1.1,28.4 5.5,0.6 13.7,0.6 
				13.9,17.8 19.4,0.6 28.2,0.6 23.8,28.4 			"/>
			<path class="st0" d="M38.4,18.3c-0.6-0.1-0.9-0.1-1.3-0.1c-3.2,0-4.8,1.2-4.8,3.5c0,1.4,0.8,2.3,2,2.3
				C36.7,24,38.3,21.7,38.4,18.3L38.4,18.3z M42.6,28.4h-4.7l0.1-2.3c-1.4,1.9-3.3,2.7-5.9,2.7c-3.1,0-5.2-2.5-5.2-6.2
				c0-5.5,3.7-8.7,10-8.7c0.6,0,1.5,0,2.3,0.2c0.2-0.7,0.2-1.1,0.2-1.5c0-1.5-1-2.1-3.6-2.1c-1.6,0-3.4,0.2-4.7,0.6l-0.8,0.2
				l-0.5,0.1l0.8-5.1c2.8-0.9,4.7-1.2,6.8-1.2c4.9,0,7.5,2.3,7.5,6.6c0,1.1-0.1,2-0.5,4.5l-1.2,8l-0.2,1.4L42.7,27l-0.1,0.8
				L42.6,28.4L42.6,28.4z"/>
			<path class="st0" d="M131.5,18.3c-0.6-0.1-0.9-0.1-1.3-0.1c-3.2,0-4.9,1.2-4.9,3.5c0,1.4,0.8,2.3,2,2.3
				C129.7,24,131.4,21.7,131.5,18.3L131.5,18.3z M135.6,28.4h-4.7l0.1-2.3c-1.4,1.9-3.3,2.7-5.9,2.7c-3.1,0-5.2-2.5-5.2-6.2
				c0-5.5,3.7-8.7,10-8.7c0.6,0,1.5,0,2.3,0.2c0.2-0.7,0.2-1.1,0.2-1.5c0-1.5-1-2.1-3.6-2.1c-1.6,0-3.4,0.2-4.7,0.6l-0.8,0.2
				l-0.5,0.1l0.8-5.1c2.8-0.9,4.7-1.2,6.8-1.2c4.9,0,7.5,2.3,7.5,6.6c0,1.1-0.1,2-0.5,4.5l-1.2,8l-0.2,1.4l-0.2,1.2l-0.1,0.8
				L135.6,28.4L135.6,28.4z"/>
			<path class="st0" d="M151.4,5.6c-0.2,0-0.4-0.1-0.6-0.1c-1.9,0-2.9,1-4.7,3.7l0.5-3.4h-5.1l-3.5,22.6h5.7
				c2-13.8,2.6-16.2,5.3-16.2c0.2,0,0.2,0,0.4,0c0.5-2.7,1.2-4.7,2.2-6.6L151.4,5.6L151.4,5.6z"/>
		</g>
		<g>
			<path class="st1" d="M127.6,50.4c0,5.1-1.6,8.2-4.1,8.2c-1.8,0.1-2.9-2-2.9-5c0-3.6,1.6-7.7,4.2-7.7
				C126.9,45.8,127.6,48,127.6,50.4L127.6,50.4z M133.2,50.5c0-5.7-2.8-10.1-8.1-10.1c-6.1,0-10,5.4-10,13.3
				c0,5.7,2.3,10.3,8.1,10.3C129,64,133.2,59.9,133.2,50.5L133.2,50.5z"/>
			<path class="st1" d="M116.9,36.3l-0.9,6c-1.9-1.1-3.3-1.5-4.7-1.5c-4,0-6.7,4.3-6.7,10.4c0,4.2,1.9,6.8,4.9,6.8
				c1.3,0,2.8-0.4,4.5-1.4l-0.9,6.3c-2,0.6-3.2,0.8-4.7,0.8c-5.7,0-9.3-4.6-9.3-12c0-10,4.9-16.9,11.9-16.9c0.9,0,1.7,0.1,2.4,0.3
				l2.2,0.6C116.3,36,116.4,36.1,116.9,36.3L116.9,36.3z"/>
			<path class="st1" d="M81.8,40.5c-0.2,0-0.3-0.1-0.5-0.1c-1.7,0-2.7,1-4.3,3.7l0.5-3.4h-4.8l-3.2,22.6h5.3
				C76.6,49.4,77.1,47,79.6,47c0.1,0,0.2,0,0.4,0c0.5-2.7,1.1-4.7,2-6.6L81.8,40.5L81.8,40.5z"/>
			<path class="st1" d="M151,63h-5l0.3-2.2c-1.5,1.7-3,2.5-4.9,2.5c-3.9,0-6.4-3.7-6.4-9.4c0-7.5,4-13.9,8.6-13.9
				c2.1,0,3.6,1,5.1,3.1l1.2-8h5.2L151,63L151,63z M143.1,57.7c2.5,0,4.2-3.1,4.2-7.6c0-2.9-1-4.4-2.8-4.4c-2.4,0-4.1,3.1-4.1,7.6
				C140.4,56.2,141.4,57.7,143.1,57.7L143.1,57.7z"/>
			<path class="st1" d="M32.2,62.9c-1.8,0.6-3.6,0.9-5.4,0.9c-5.9,0-9-3.5-9-10.1c0-7.8,3.9-13.5,9.3-13.5c4.4,0,7.1,3.2,7.1,8.2
				c0,1.7-0.2,3.3-0.6,5.6H23c0,0.3,0,0.5,0,0.7c0,2.6,1.6,4,4.7,4c1.9,0,3.6-0.4,5.5-1.4L32.2,62.9L32.2,62.9z M29.2,49.5
				c0-0.5,0-0.9,0-1.2c0-1.8-0.9-2.9-2.5-2.9c-1.7,0-2.9,1.5-3.4,4.1L29.2,49.5L29.2,49.5z"/>
			<path class="st1" d="M95.2,62.9c-1.8,0.6-3.6,0.9-5.4,0.9c-5.9,0-9-3.5-9-10.1c0-7.8,3.9-13.5,9.3-13.5c4.4,0,7.2,3.2,7.2,8.2
				c0,1.7-0.2,3.3-0.7,5.6H85.9c0,0.3-0.1,0.5-0.1,0.7c0,2.6,1.6,4,4.6,4c1.9,0,3.6-0.4,5.5-1.4L95.2,62.9L95.2,62.9z M92.2,49.5
				c0-0.5,0.1-0.9,0.1-1.2c0-1.8-0.9-2.9-2.5-2.9c-1.7,0-2.9,1.5-3.4,4.1L92.2,49.5L92.2,49.5z"/>
			<path class="st1" d="M169,62.9c-1.8,0.6-3.6,0.9-5.4,0.9c-5.9,0-9-3.5-9-10.1c0-7.8,3.9-13.5,9.3-13.5c4.4,0,7.1,3.2,7.1,8.2
				c0,1.7-0.2,3.3-0.7,5.6h-10.5c0,0.3,0,0.5,0,0.7c0,2.6,1.6,4,4.7,4c1.9,0,3.6-0.4,5.5-1.4L169,62.9L169,62.9z M166.1,49.5
				c0-0.5,0-0.9,0-1.2c0-1.8-0.9-2.9-2.5-2.9c-1.7,0-2.9,1.5-3.4,4.1L166.1,49.5L166.1,49.5z"/>
			<path class="st1" d="M16.5,41.5c-1-0.7-2.4-1.3-4.4-1.3c-2.1,0-3.9,0.4-3.9,2.7c0,4,7.8,2.5,7.8,11.1c0,7.8-5.2,9.9-9.8,9.9
				c-2.1,0-4.5-0.7-6.2-1.5l1.3-5.8c1.1,1,3.2,1.6,5,1.6c1.7,0,4.3-0.5,4.3-3.4c0-4.6-7.8-2.9-7.8-10.9c0-7.3,4.6-9.5,9-9.5
				c2.5,0,4.8,0.4,6.2,1.3L16.5,41.5L16.5,41.5z"/>
			<path class="st1" d="M47.7,62.9c-1.1,0.5-2.6,0.9-4.7,0.9c-4.6,0-7.5-4.6-7.5-10.3c0-7.4,4.2-13.2,10.3-13.2c1.3,0,3.4,0.6,5,1.5
				l-1.2,5.4C48.4,46.5,47.2,46,46,46c-2.8,0-4.9,2.6-4.9,7.2c0,2.7,1.5,4.9,3.8,4.9c1.4,0,2.3-0.3,3.5-1L47.7,62.9L47.7,62.9z"/>
			<path class="st1" d="M67.5,57.3c-0.3,1.9-0.5,3.8-0.7,5.9h-5.1l0.4-3.7h-0.1c-1.6,2.5-3.2,4.2-6.1,4.2c-3.2,0-4.9-3.4-4.9-7.8
				c0-1.5,0.1-2.4,0.4-4.7l1.4-10.5h5.7L57,51.2c-0.2,1.1-0.4,2.2-0.4,3.4c0,1.3,0.6,2.7,2.1,2.6c2.3,0,3.7-2.8,4.1-6.2l1.6-10.3H70
				L67.5,57.3L67.5,57.3z"/>
			<g>
				<polygon class="st1" points="174.3,62.9 173.5,62.9 173.5,59.1 172.2,59.1 172.2,58.3 175.6,58.3 175.6,59.1 174.3,59.1 
					174.3,62.9 				"/>
				<polygon class="st1" points="180,62.9 179.2,62.9 179.2,59 179.2,59 178.4,62.9 177.6,62.9 176.8,59 176.8,59 176.8,62.9 
					176,62.9 176,58.3 177.3,58.3 178,61.9 178,61.9 178.8,58.3 180,58.3 180,62.9 				"/>
			</g>
		</g>
	</g>
</g>
</svg>
