<?xml version="1.0" encoding="utf-8"?>
<!-- Generator: Adobe Illustrator 19.1.0, SVG Export Plug-In . SVG Version: 6.00 Build 0)  -->
<svg version="1.1"
	 id="svg2" xmlns:dc="http://purl.org/dc/elements/1.1/" xmlns:cc="http://creativecommons.org/ns#" xmlns:svg="http://www.w3.org/2000/svg" xmlns:rdf="http://www.w3.org/1999/02/22-rdf-syntax-ns#"
	 xmlns="http://www.w3.org/2000/svg" xmlns:xlink="http://www.w3.org/1999/xlink" x="0px" y="0px" viewBox="-24 63 200 127"
	 style="enable-background:new -24 63 200 127;" xml:space="preserve">
<style type="text/css">
	.st0{fill:#FFFFFF;}
	.st1{fill:#F7B600;}
	.st2{fill:#1A1F71;}
</style>
<path id="path4147" class="st0" d="M176,190H-24V63h200V190L176,190z"/>
<path id="path4149" class="st1" d="M-20.7,169.4h193.3v17.3H-20.7V169.4z"/>
<path id="path4151" class="st2" d="M-20.7,83.6h193.3V66.3H-20.7V83.6z"/>
<g id="g4153">
	<g id="g4155">
		<g id="g4161" transform="translate(305.1123,421.1924)">
			<path id="path4163" class="st2" d="M-230.8-318.5l-10.2,47.6h-12.3l10.2-47.6H-230.8z M-178.9-287.7l6.5-17.9l3.7,17.9
				C-168.7-287.7-178.9-287.7-178.9-287.7z M-165.2-270.8h11.4l-10-47.6h-10.5c-2.4,0-4.4,1.4-5.2,3.5l-18.5,44.2h12.9l2.6-7.1h15.8
				C-166.7-277.9-165.2-270.8-165.2-270.8z M-197.3-286.4c0.1-12.6-17.4-13.3-17.3-18.9c0-1.7,1.7-3.5,5.2-4
				c1.8-0.2,6.6-0.4,12.2,2.1l2.2-10.1c-3-1.1-6.8-2.1-11.5-2.1c-12.2,0-20.8,6.5-20.8,15.7c-0.1,6.9,6.1,10.7,10.8,13
				c4.8,2.3,6.4,3.8,6.4,5.9c0,3.2-3.8,4.6-7.4,4.7c-6.2,0.1-9.8-1.7-12.7-3l-2.2,10.4c2.9,1.3,8.2,2.5,13.7,2.5
				C-205.9-270.1-197.4-276.5-197.3-286.4 M-248.4-318.5l-20,47.6h-13l-9.8-38c-0.6-2.3-1.1-3.2-2.9-4.2c-3-1.6-7.9-3.1-12.2-4.1
				l0.3-1.4h21c2.7,0,5.1,1.8,5.7,4.9l5.2,27.6l12.8-32.4H-248.4z"/>
		</g>
	</g>
</g>
</svg>
