<?xml version="1.0" encoding="utf-8"?>
<!-- Generator: Adobe Illustrator 19.1.0, SVG Export Plug-In . SVG Version: 6.00 Build 0)  -->
<svg version="1.1" id="Layer_1" xmlns="http://www.w3.org/2000/svg" xmlns:xlink="http://www.w3.org/1999/xlink" x="0px" y="0px"
	 viewBox="0 0 816.6 512.8" style="enable-background:new 0 0 816.6 512.8;" xml:space="preserve">
<style type="text/css">
	.Arched_x0020_Green{fill:url(#SVGID_1_);stroke:#FFFFFF;stroke-width:0.25;stroke-miterlimit:1;}
	.st0{fill:#1E306D;}
	.st1{fill:#EE8414;}
	.st2{fill:#E20020;}
	.st3{fill-rule:evenodd;clip-rule:evenodd;fill:#1E306D;}
	.st4{fill:#FFFFFF;}
	.st5{fill-rule:evenodd;clip-rule:evenodd;fill:#FFFFFF;}
</style>
<linearGradient id="SVGID_1_" gradientUnits="userSpaceOnUse" x1="-12.6445" y1="554.0591" x2="-11.9374" y2="553.352">
	<stop  offset="0" style="stop-color:#259E2E"/>
	<stop  offset="0.9831" style="stop-color:#1C381D"/>
</linearGradient>
<g>
	<polygon class="st0" points="0,0 0,512.8 816.6,512.8 816.6,0 0,0 	"/>
	<path class="st1" d="M332.6,257.1c0-125.7,101.9-227.6,227.6-227.6c125.7,0,227.6,101.9,227.6,227.6
		c0,125.7-101.9,227.6-227.6,227.6C434.5,484.7,332.6,382.8,332.6,257.1L332.6,257.1z"/>
	<path class="st2" d="M407.7,87.7c0.1,0-11.9,10.4-20,20.6h40.5c0,0,13.8,15,19,26.3h-79.1c0,0-7.7,12-12.8,22.2H460
		c0,0,9.6,17.9,11.7,27.4H344.4c0,0-4.4,12.4-6.2,21.5l139.3-0.2c3.8,17.5,13.1,68.4-6,124.6l-126.6,0.2c2,6.7,5.5,15.9,8.8,22.6
		h108.7c-4.4,9.1-10.8,20.6-14.4,26.4l-79.7,0.1c4.2,6.4,11,16.4,15.3,21l49.1,0c-9.2,12.7-24.8,25.9-24.8,25.9h-0.4l0.5,0.2
		c-40.3,36.3-93.7,58.4-152.2,58.4C130,484.7,28.1,382.8,28.1,257.1C28.1,131.4,130,29.5,255.7,29.5
		C314.1,29.5,367.4,51.5,407.7,87.7L407.7,87.7z"/>
	<path class="st0" d="M295.5,224.8l-3.7,20.5l-20-0.5c0,0-10,2.6-10,6.8c0,4.2,7.3,9.5,18.4,14.2c11,4.7,11.6,17.8,10.5,26.8
		c-1,8.9-2.6,27.5-34.7,28.4c-18.4,0.5-28.3-3.1-28.3-3.1l4.2-21c0,0,23.6,6.3,28.9,2.6c5.2-3.7,11.5-10,1.6-14.2
		c-10-4.2-26.3-11-26.3-27.8c0-16.8,6.8-26.3,17.3-31C264,221.7,282.3,222.2,295.5,224.8L295.5,224.8z"/>
	<polygon class="st0" points="137.7,318.5 114.5,318.5 128,238.7 99.3,318 83.3,318 79.4,235.5 65.3,318.5 43.4,318.5 64.1,196.7 
		90.7,196.7 100,266.8 131,196.7 158.4,196.7 137.7,318.5 	"/>
	<path class="st0" d="M316.2,320.2c-7.6,0-13-1.7-16.2-4.9c-3.2-3.4-4.9-8.6-4.9-15.1c0-1.7,0.2-3.4,0.4-4.9
		c0.2-1.7,0.5-3.7,0.7-5.9l14-78H332l-3.1,15.2h20.3l-3.4,19.3h-20.3l-5.6,33.2c-0.3,2.2-0.7,4.4-1.1,6.8c-0.4,2.2-0.5,4.4-0.5,5.9
		c0,3.4,0.5,5.6,2,6.8c1.3,1.2,3.4,2,6.3,2c1.1,0,2.5-0.2,4.3-0.7c1.8-0.7,3.4-1.2,4.5-2h1.8l-3.4,19.5c-2.5,1-5,1.5-7.7,1.9
		C323.2,320,320,320.2,316.2,320.2L316.2,320.2z"/>
	<path class="st0" d="M472.4,252.4c-4.7-3.7-15.3-2.9-17.5,4.6l-10.4,61.5h-21.8l15.7-91.7h21.8l-0.5,7.4c4.1-4.2,8.8-7.7,20.4-7.3
		C480.8,226.8,473,240.5,472.4,252.4L472.4,252.4z"/>
	<path class="st0" d="M513.5,320.9c-12,0-21.6-4.2-28.1-12.2c-6.7-8-9.9-19.8-9.9-34.9c0-11.9,1.4-22.7,4.3-32.5
		c2.9-9.7,7-18,12.1-25.1c5-6.8,11-12.2,18-16.1c6.8-3.9,14.2-5.9,22-5.9c6.1,0,11.9,1,17.3,2.7c2.6,0.9,7.6,3.3,7.6,3.3l-5,28.9
		c-2.5-3.2-5-5.7-7.6-7.6c-3.8-2.4-8.3-3.9-13.3-3.9c-9,0-16.4,4.9-22.2,14.6c-5.9,9.8-8.8,22.2-8.8,37.3c0,9.8,1.6,16.9,4.8,21.2
		c3.2,4.1,7.9,6.3,14,6.3c5.6,0,10.8-1.5,15.7-4.4c2.3-1.5,4.6-3.1,6.8-4.9l-5.1,27.6c0,0-2.6,1.3-3.9,1.7c-3.1,1.2-5.8,1.9-8.1,2.7
		C521.6,320.5,518,320.9,513.5,320.9L513.5,320.9z"/>
	<path class="st0" d="M191.3,315.3c-0.9,0.7-1.8,1.2-2.5,1.7c-2.4,1.2-4.3,2.2-6.3,3c-2,0.5-4.7,1-8.3,1c-5.6,0-10.3-2.2-13.7-6.4
		c-3.6-4.4-5.4-10-5.4-16.8c0-7.3,1.3-13.4,3.8-18.6c2.5-4.9,6.3-9.1,11.3-12c4.7-2.9,10.3-4.9,16.6-6.1l4.5-0.7
		c5.2-1,10.6-1.7,16.6-1.9c0-0.5,0-1,0.2-1.7c0.2-0.7,0.2-1.5,0.2-2.4c0-3.9-1.2-6.6-4-8.3c-2.7-1.5-6.6-2.2-11.9-2.2h-1.1
		c-3.2,0.2-6.8,1-10.8,2.4c-4.3,1.7-7.6,2.9-9.7,4.2h-2l3.2-21.7c2.5-1,6.5-1.9,11.7-2.9c2.5-0.7,5.1-1,7.6-1.2
		c2.7-0.5,5.6-0.5,8.3-0.5c10.6,0,18.3,1.9,23.4,5.6c5,3.7,7.4,9.5,7.4,17.6c0,1,0,2.4-0.2,4.2c-0.2,1.7-0.3,3.2-0.5,4.6L219,318.5
		h-21.6l1.6-9.8c-1.3,1.2-3.1,2.7-4.9,4.4C193.1,313.8,192.2,314.6,191.3,315.3L191.3,315.3z M191.3,277.3c-2.3,0.5-4.3,1.2-5.9,1.9
		c-2.5,1.2-4.3,2.9-5.6,5.1c-1.4,2.2-2,5.1-2,8.8c0,3.2,0.9,5.4,2.5,6.6c1.8,1.2,4.1,2,7.6,2c1.1,0,2.2-0.2,3.4-0.7
		c1.1-0.3,2.2-0.7,3.4-1.2c2.3-1.4,4.7-3.2,6.8-5.1l3.3-19.5c-3.8,0.5-7.6,1-10.8,1.7C193.1,276.8,192.2,277,191.3,277.3
		L191.3,277.3z"/>
	<path class="st0" d="M379.5,242.6c-2.9,0.5-5.6,1.9-7.7,4.4c-3.1,3.4-5.4,7.8-7,13.7h14.8H394c0-1,0.2-1.7,0.2-2.7
		c0-0.7,0.2-1.7,0.2-2.4c0-4.4-1.1-7.6-3.1-10c-2-2.2-4.7-3.4-8.5-3.4C381.8,242.1,380.5,242.3,379.5,242.6L379.5,242.6z
		 M379.5,300.2h3.2c4.7,0,9.2-1,13.5-3.2c4.1-2.2,7.9-4.6,11-7.3h2.5l-4.2,23.7c-4.1,2.4-8.6,4.4-13.3,5.6c-4,1.2-8.3,1.7-12.8,2h-2
		c-11.7,0-20.5-3.4-26.8-10.5c-6.3-6.8-9.4-16.4-9.4-28.5c0-8.3,1.1-16.1,3-23c2-7.1,5-13.2,8.8-18.5c3.8-5.1,8.3-9,13.9-12.2
		c3.9-1.9,8.1-3.4,12.4-4.2c2-0.2,3.9-0.2,5.9-0.2c10.1,0,17.6,2.7,22.8,8.3c5,5.3,7.6,13.7,7.6,24.4c0,3.7-0.2,7.3-0.7,11
		c-0.5,3.4-1.3,7.1-2.2,10.5h-33.5h-16.9v1v1c0,6.3,1.8,11.2,5,14.9C370.3,297.8,374.3,299.7,379.5,300.2L379.5,300.2z"/>
	<path class="st0" d="M583.4,315.3c-0.9,0.7-1.8,1.2-2.7,1.7c-2.2,1.2-4.3,2.2-6.3,3c-2,0.5-4.7,1-8.1,1c-5.8,0-10.3-2.2-13.8-6.4
		c-3.6-4.4-5.2-10-5.2-16.8c0-7.3,1.3-13.4,3.8-18.6c2.5-4.9,6.3-9.1,11.1-12c4.7-2.9,10.3-4.9,16.7-6.1c1.5-0.2,2.9-0.5,4.5-0.7
		c5-1,10.6-1.7,16.4-1.9c0.2-0.5,0.2-1,0.4-1.7c0-0.7,0.2-1.5,0.2-2.4c0-3.9-1.4-6.6-4-8.3c-2.7-1.5-6.6-2.2-11.9-2.2h-1.1
		c-3.5,0.2-7,1-10.8,2.4c-4.3,1.7-7.5,2.9-9.7,4.2h-2l3.1-21.7c2.5-1,6.5-1.9,11.9-2.9c2.5-0.7,5.1-1,7.6-1.2
		c2.7-0.5,5.4-0.5,8.3-0.5c10.6,0,18.3,1.9,23.4,5.6c4.8,3.7,7.4,9.5,7.4,17.6c0,1,0,2.4-0.2,4.2c-0.2,1.7-0.4,3.2-0.5,4.6
		l-10.6,62.5h-21.6l1.6-9.8c-1.4,1.2-3.1,2.7-5,4.4L583.4,315.3L583.4,315.3z M583.4,277.3c-2.4,0.5-4.3,1.2-6.1,1.9
		c-2.3,1.2-4.3,2.9-5.6,5.1c-1.2,2.2-2,5.1-2,8.8c0,3.2,0.9,5.4,2.7,6.6c1.6,1.2,4.1,2,7.4,2c1.1,0,2.4-0.2,3.6-0.7
		c1.1-0.3,2.1-0.7,3.2-1.2c2.5-1.4,4.7-3.2,6.8-5.1l3.4-19.5c-4,0.5-7.5,1-11,1.7C585,276.8,584.1,277,583.4,277.3L583.4,277.3z"/>
	<path class="st0" d="M675.2,252.4c-4.8-3.7-15.3-2.9-17.6,4.6l-10.4,61.5h-21.8l15.6-91.7h21.8l-0.5,7.4c4.1-4.2,8.8-7.7,20.4-7.3
		C683.6,226.8,675.8,240.5,675.2,252.4L675.2,252.4z"/>
	<path class="st3" d="M718,246.2c-1.1,0.5-2.2,1.2-3.1,2c-2.9,1.9-5.2,4.9-7.2,8.3c-1.6,3.4-3,7.3-4,12.5c-1.1,4.9-1.6,9.8-1.6,14.4
		c0,5.6,1.1,9.5,2.9,12c2,2.7,4.8,3.9,8.7,3.9c1.4,0,2.9-0.3,4.3-1c0.7-0.3,1.3-0.5,2-1c2.2-1.2,4.2-2.5,6.1-4.2l7.7-45.1
		c-1.2-0.7-2.7-1.4-4.7-2c-1.8-0.7-3.4-1-4.8-1C721.9,245,719.9,245.5,718,246.2L718,246.2z M718,313.6c-1.6,1.5-3.4,2.9-5.4,4.1
		c-1.8,1-3.6,2-5.2,2.4c-1.8,0.5-4,0.7-6.3,0.7c-6.7,0-11.9-3-15.9-8.6c-3.8-5.8-5.7-14.1-5.7-24.7c0-8.8,0.9-17.1,3-24.7
		c2-7.6,4.9-14.4,8.5-20.2c3.6-5.9,7.7-10.2,12.6-13.7c4.7-3.2,9.4-4.9,14.4-5.1h0.7c3.8,0,7,0.5,9.7,1.5c2.7,1,5.6,2.7,8.5,4.9
		l4.8-32h21.8l-19.9,120.1h-21.8l1.6-9.5C721.4,310.7,719.6,312.2,718,313.6L718,313.6z"/>
	<path class="st4" d="M299.9,221.5l-3.7,20.5l-20-0.5c0,0-10,2.6-10,6.8c0,4.2,7.3,9.5,18.4,14.2c11,4.7,11.6,17.8,10.5,26.8
		c-1,8.9-2.6,27.5-34.7,28.4c-18.4,0.5-28.4-3.1-28.4-3.1l4.2-21c0,0,23.7,6.3,28.9,2.6c5.2-3.7,11.6-10,1.6-14.2
		c-10-4.2-26.3-11-26.3-27.8c0-16.8,6.8-26.3,17.3-31C268.3,218.4,286.7,218.9,299.9,221.5L299.9,221.5z"/>
	<polygon class="st4" points="142,315.2 118.8,315.2 132.3,235.4 103.6,314.7 87.6,314.7 83.8,232.2 69.7,315.2 47.8,315.2 
		68.5,193.4 95.1,193.4 104.4,263.5 135.4,193.4 162.7,193.4 142,315.2 	"/>
	<path class="st4" d="M320.6,316.9c-7.5,0-13-1.7-16.2-4.9c-3.3-3.4-4.9-8.5-4.9-15.1c0-1.7,0.2-3.4,0.4-4.9
		c0.2-1.7,0.5-3.6,0.7-5.8l13.9-77.9h21.8l-3.2,15.2h20.3l-3.4,19.3h-20.3l-5.6,33.2c-0.4,2.2-0.7,4.4-1.1,6.8
		c-0.4,2.2-0.5,4.4-0.5,5.9c0,3.4,0.5,5.6,2,6.8c1.3,1.2,3.4,2,6.3,2c1.1,0,2.5-0.3,4.3-0.8c1.8-0.7,3.4-1.2,4.5-2h1.8l-3.4,19.5
		c-2.5,1-5,1.5-7.7,1.9C327.6,316.7,324.4,316.9,320.6,316.9L320.6,316.9z"/>
	<path class="st4" d="M476.8,249.1c-4.8-3.7-15.3-2.9-17.5,4.6l-10.4,61.5h-21.8l15.7-91.8h21.8l-0.4,7.4c4.1-4.1,8.7-7.7,20.4-7.3
		C485.2,223.6,477.4,237.2,476.8,249.1L476.8,249.1z"/>
	<path class="st4" d="M517.9,317.7c-12.1,0-21.6-4.1-28.1-12.2c-6.7-8-9.9-19.8-9.9-34.9c0-12,1.4-22.7,4.3-32.5
		c2.9-9.8,7-18,12-25.1c5-6.8,11-12.2,18-16.1c6.8-3.9,14.2-5.9,21.9-5.9c6.1,0,11.9,1,17.3,2.7c2.6,0.9,7.6,3.3,7.6,3.3l-5.1,28.9
		c-2.5-3.2-5-5.7-7.6-7.6c-3.8-2.4-8.3-3.9-13.3-3.9c-9,0-16.4,4.9-22.1,14.7c-5.9,9.8-8.8,22.2-8.8,37.3c0,9.8,1.6,16.9,4.9,21.2
		c3.2,4.1,7.9,6.3,14,6.3c5.6,0,10.8-1.5,15.7-4.4c2.3-1.5,4.5-3.1,6.8-4.9l-5.1,27.6c0,0-2.6,1.3-3.9,1.7c-3,1.2-5.7,1.9-8.1,2.7
		C526,317.1,522.4,317.7,517.9,317.7L517.9,317.7z"/>
	<path class="st4" d="M195.6,312c-0.9,0.7-1.8,1.2-2.5,1.7c-2.3,1.2-4.3,2.2-6.3,2.9c-2,0.5-4.7,1-8.3,1c-5.6,0-10.3-2.2-13.7-6.3
		c-3.6-4.4-5.4-10-5.4-16.8c0-7.3,1.2-13.4,3.8-18.5c2.5-4.9,6.3-9.1,11.4-12c4.7-2.9,10.2-4.9,16.6-6.1l4.5-0.7
		c5.2-1,10.6-1.7,16.6-2c0-0.5,0-1,0.2-1.7c0.2-0.7,0.2-1.5,0.2-2.4c0-3.9-1.3-6.6-4-8.3c-2.7-1.5-6.7-2.2-11.9-2.2h-1.1
		c-3.2,0.2-6.8,1-10.8,2.4c-4.3,1.7-7.6,2.9-9.7,4.2h-2l3.2-21.7c2.5-1,6.5-2,11.7-2.9c2.5-0.8,5-1,7.6-1.2c2.7-0.5,5.6-0.5,8.3-0.5
		c10.6,0,18.3,2,23.4,5.6c5,3.7,7.4,9.5,7.4,17.6c0,1,0,2.4-0.2,4.2c-0.2,1.7-0.4,3.2-0.6,4.6l-10.6,62.5h-21.6l1.6-9.8
		c-1.3,1.2-3,2.7-4.9,4.4C197.4,310.6,196.5,311.3,195.6,312L195.6,312z M195.6,274c-2.3,0.5-4.3,1.2-5.9,2
		c-2.5,1.2-4.3,2.9-5.6,5.1c-1.4,2.2-2,5.1-2,8.8c0,3.2,0.9,5.4,2.5,6.6c1.8,1.2,4.1,2,7.6,2c1.1,0,2.2-0.2,3.4-0.7
		c1.1-0.2,2.2-0.7,3.4-1.2c2.3-1.5,4.7-3.2,6.8-5.1l3.2-19.5c-3.8,0.5-7.6,1-10.8,1.7C197.4,273.5,196.5,273.7,195.6,274L195.6,274z
		"/>
	<path class="st4" d="M383.8,239.3c-2.9,0.5-5.6,2-7.7,4.4c-3.1,3.4-5.4,7.8-7,13.7h14.7h14.6c0-1,0.2-1.7,0.2-2.7
		c0-0.7,0.2-1.7,0.2-2.4c0-4.4-1.1-7.6-3.1-10c-2-2.2-4.7-3.4-8.5-3.4C386.2,238.8,384.9,239,383.8,239.3L383.8,239.3z M383.8,296.9
		h3.2c4.7,0,9.2-1,13.5-3.2c4.1-2.2,7.9-4.6,11-7.3h2.5l-4.1,23.7c-4.1,2.5-8.6,4.4-13.3,5.6c-4,1.2-8.3,1.7-12.8,2h-2
		c-11.7,0-20.5-3.4-26.8-10.5c-6.3-6.8-9.4-16.4-9.4-28.5c0-8.3,1.1-16.1,3.1-23c2-7.1,5-13.2,8.8-18.6c3.8-5.1,8.3-9,13.9-12.2
		c4-1.9,8.1-3.4,12.4-4.2c2-0.2,4-0.2,6-0.2c10.1,0,17.6,2.7,22.9,8.3c5,5.4,7.6,13.7,7.6,24.4c0,3.7-0.2,7.3-0.7,11
		c-0.6,3.4-1.3,7.1-2.2,10.5h-33.5h-16.9v1v1c0,6.4,1.8,11.2,5,14.9C374.7,294.5,378.6,296.4,383.8,296.9L383.8,296.9z"/>
	<path class="st4" d="M587.8,312c-0.9,0.7-1.8,1.2-2.7,1.7c-2.2,1.2-4.3,2.2-6.3,2.9c-2,0.5-4.7,1-8.1,1c-5.8,0-10.3-2.2-13.9-6.3
		c-3.6-4.4-5.2-10-5.2-16.8c0-7.3,1.3-13.4,3.8-18.5c2.5-4.9,6.3-9.1,11.2-12c4.7-2.9,10.2-4.9,16.7-6.1c1.4-0.3,2.9-0.5,4.5-0.7
		c5-1,10.6-1.7,16.4-2c0.2-0.5,0.2-1,0.3-1.7c0-0.7,0.2-1.5,0.2-2.4c0-3.9-1.4-6.6-4-8.3c-2.7-1.5-6.6-2.2-11.9-2.2h-1.1
		c-3.4,0.2-7,1-10.8,2.4c-4.3,1.7-7.6,2.9-9.7,4.2h-2l3.1-21.7c2.5-1,6.5-2,11.9-2.9c2.5-0.8,5-1,7.5-1.2c2.7-0.5,5.4-0.5,8.3-0.5
		c10.6,0,18.3,2,23.4,5.6c4.8,3.7,7.4,9.5,7.4,17.6c0,1,0,2.4-0.2,4.2c-0.2,1.7-0.4,3.2-0.6,4.6l-10.6,62.5h-21.6l1.7-9.8
		c-1.5,1.2-3.1,2.7-5,4.4L587.8,312L587.8,312z M587.8,274c-2.3,0.5-4.3,1.2-6.1,2c-2.3,1.2-4.3,2.9-5.6,5.1c-1.3,2.2-2,5.1-2,8.8
		c0,3.2,0.9,5.4,2.7,6.6c1.6,1.2,4.1,2,7.4,2c1.1,0,2.4-0.2,3.6-0.7c1.1-0.2,2.2-0.7,3.2-1.2c2.5-1.5,4.7-3.2,6.8-5.1l3.4-19.5
		c-4,0.5-7.6,1-11,1.7C589.4,273.5,588.5,273.7,587.8,274L587.8,274z"/>
	<path class="st4" d="M679.6,249.1c-4.8-3.7-15.4-2.9-17.6,4.6l-10.4,61.5h-21.8l15.6-91.8h21.8l-0.4,7.4c4.1-4.1,8.7-7.7,20.4-7.3
		C688,223.6,680.2,237.2,679.6,249.1L679.6,249.1z"/>
	<path class="st5" d="M722.3,243c-1.1,0.5-2.1,1.2-3,2c-2.9,1.9-5.2,4.9-7.2,8.3c-1.6,3.4-3.1,7.3-4,12.4c-1.1,4.9-1.6,9.8-1.6,14.4
		c0,5.6,1.1,9.5,2.9,11.9c2,2.7,4.9,3.9,8.7,3.9c1.5,0,2.9-0.3,4.3-1c0.7-0.2,1.3-0.5,2-1c2.2-1.2,4.1-2.5,6.1-4.2l7.7-45.1
		c-1.3-0.7-2.7-1.5-4.7-2c-1.8-0.7-3.4-1-4.9-1C726.3,241.8,724.3,242.2,722.3,243L722.3,243z M722.3,310.3
		c-1.6,1.5-3.4,2.9-5.4,4.1c-1.8,1-3.6,1.9-5.2,2.4c-1.8,0.5-4,0.7-6.3,0.7c-6.7,0-11.9-2.9-15.9-8.6c-3.8-5.9-5.7-14.2-5.7-24.7
		c0-8.8,0.9-17.1,3.1-24.6c2-7.5,4.9-14.4,8.5-20.2c3.6-5.9,7.7-10.3,12.6-13.7c4.7-3.2,9.4-4.9,14.4-5.1h0.7c3.8,0,7,0.5,9.7,1.5
		c2.7,1,5.6,2.7,8.4,4.9l4.8-32h21.8l-19.9,120.1h-21.8l1.6-9.5C725.8,307.4,724,308.9,722.3,310.3L722.3,310.3z"/>
</g>
</svg>
