<?xml version="1.0" encoding="utf-8"?>
<!-- Generator: Adobe Illustrator 19.1.0, SVG Export Plug-In . SVG Version: 6.00 Build 0)  -->
<svg version="1.1" id="Layer_1" xmlns="http://www.w3.org/2000/svg" xmlns:xlink="http://www.w3.org/1999/xlink" x="0px" y="0px"
	 viewBox="0 0 175.7 111.1" style="enable-background:new 0 0 175.7 111.1;" xml:space="preserve">
<style type="text/css">
	.st0{fill-rule:evenodd;clip-rule:evenodd;fill:#06326E;}
	.st1{fill-rule:evenodd;clip-rule:evenodd;fill:#0097D9;}
	.st2{fill-rule:evenodd;clip-rule:evenodd;fill:#E40520;}
	.st3{fill-rule:evenodd;clip-rule:evenodd;fill:#FFFFFF;}
</style>
<g>
	<polygon class="st0" points="0,111.1 175.7,111.1 175.7,0 0,0 0,111.1 	"/>
	<path class="st1" d="M87.8,91c9.7-8.8,15.9-21.6,15.9-35.8s-6.1-27-15.9-35.8C79.3,11.6,67.9,6.9,55.4,6.9
		C28.8,6.9,7.1,28.6,7.1,55.2c0,26.7,21.7,48.2,48.3,48.2C67.9,103.5,79.3,98.8,87.8,91L87.8,91z"/>
	<path class="st1" d="M87.8,91c9.7-8.8,15.9-21.6,15.9-35.8s-6.1-27-15.9-35.8V91L87.8,91z"/>
	<path class="st2" d="M120.2,6.9c-12.5,0-23.8,4.7-32.4,12.5c-1.7,1.6-3.3,3.3-4.8,5.1h9.7c1.3,1.6,2.6,3.4,3.7,5.1H79.3
		c-1,1.7-2,3.4-2.8,5.1h22.7c0.8,1.7,1.5,3.4,2.1,5.1H74.4c-0.6,1.7-1,3.4-1.4,5.2h29.6c0.7,3.2,1,6.7,1,10.2
		c0,5.3-0.9,10.5-2.5,15.3H74.4c0.6,1.7,1.2,3.4,2,5.1h22.7c-0.9,1.7-1.7,3.5-2.7,5.1H79.3c1.1,1.8,2.4,3.5,3.7,5.1h9.7
		c-1.5,1.8-3.1,3.5-4.9,5.1c8.6,7.8,20,12.5,32.4,12.5c26.7,0,48.2-21.6,48.2-48.2C168.5,28.6,146.9,6.9,120.2,6.9L120.2,6.9z"/>
	<path class="st2" d="M162.3,82.1c0-0.9,0.7-1.5,1.5-1.5c0.9,0,1.5,0.7,1.5,1.5c0,0.9-0.7,1.6-1.5,1.6C163,83.7,162.3,83,162.3,82.1
		L162.3,82.1z M163.8,83.3c0.7,0,1.2-0.6,1.2-1.2c0-0.7-0.6-1.1-1.2-1.1s-1.2,0.5-1.2,1.1C162.6,82.8,163.2,83.3,163.8,83.3
		L163.8,83.3z M163.6,82.8h-0.4v-1.3h0.6c0.2,0,0.3,0,0.4,0.1c0.1,0,0.2,0.2,0.2,0.3c0,0.2-0.1,0.3-0.2,0.4l0.2,0.6H164l-0.2-0.5
		h-0.2V82.8L163.6,82.8z M163.6,82h0.2c0,0,0.1,0,0.2,0c0,0,0.1-0.1,0.1-0.2l-0.1-0.1c-0.1-0.1-0.2-0.1-0.2-0.1h-0.2V82L163.6,82z"
		/>
	<polygon class="st0" points="47.9,68.7 41.8,68.7 45.4,49.8 37.2,68.7 32.1,68.7 31,49.9 27.1,68.7 21.6,68.7 26.2,44.2 35.8,44.2 
		35.8,59.3 42.5,44.2 52.6,44.2 47.9,68.7 	"/>
	<path class="st0" d="M115,68.4c-1.7,0.5-2.9,0.7-4.4,0.7c-3,0-4.7-1.5-4.7-4.4c0-0.6,0.1-1.2,0.2-1.8l0.4-2l0.3-1.5l2.7-15.2h6
		l-0.9,4.5h3l-0.8,4.8h-3.1l-1.6,8.3c0,0.4-0.1,0.7-0.1,0.9c0,1,0.7,1.4,2.1,1.4c0.7,0,1.2,0,1.6-0.2L115,68.4L115,68.4z"/>
	<path class="st0" d="M91.2,55.1c0,2.5,1.4,4.3,4.5,5.5c2.6,1,2.9,1.3,2.9,2.3c0,1.2-1.1,1.8-3.5,1.8c-1.9,0-3.5-0.3-5.5-0.9
		l-0.9,4.6h0.3l1.1,0.2c0.4,0.1,0.9,0.2,1.6,0.2c1.4,0.1,2.6,0.2,3.3,0.2c6.4,0,9.4-2.1,9.4-6.6c0-2.7-1.2-4.4-4.3-5.6
		c-2.6-0.9-2.8-1.2-2.8-2.2c0-1,1-1.6,2.9-1.6c1.2,0,2.8,0.1,4.4,0.3l0.9-4.5c-1.6-0.3-4-0.5-5.4-0.5C93.5,48.2,91.1,51.4,91.2,55.1
		L91.2,55.1z"/>
	<path class="st0" d="M67.3,68.7h-5l0.1-2.1c-1.5,1.6-3.6,2.4-6.3,2.4c-3.2,0-5.5-2.2-5.5-5.4c0-4.8,3.9-7.7,10.6-7.7
		c0.7,0,1.5,0,2.5,0.1c0.2-0.7,0.2-0.9,0.2-1.2c0-1.3-1-1.9-3.9-1.9c-1.7,0-3.6,0.3-4.9,0.6l-0.9,0.3l-0.6,0.1l0.9-4.4
		c3-0.9,5-1.1,7.2-1.1c5.2,0,7.9,2.1,7.9,5.9c0,1-0.1,1.7-0.6,4l-1.2,7l-0.2,1.3l-0.2,1l-0.1,0.7V68.7L67.3,68.7z M63.3,59.8
		c-0.7-0.1-0.9-0.1-1.4-0.1c-3.4,0-5.1,1-5.1,3c0,1.2,0.9,2,2.2,2C61.4,64.7,63.2,62.7,63.3,59.8L63.3,59.8z"/>
	<path class="st0" d="M87,68.2c-2,0.6-4,0.9-6.1,0.9c-6.7,0-10.2-3.1-10.2-9c0-6.8,4.4-11.8,10.5-11.8c5,0,8.1,2.8,8.1,7.2
		c0,1.5-0.2,2.9-0.8,4.9H76.6c-0.1,0.4-0.1,0.5-0.1,0.7c0,2.3,1.8,3.5,5.3,3.5c2.2,0,4.1-0.4,6.2-1.3L87,68.2L87,68.2z M84.2,56.4
		c0-0.5,0-0.8,0-1c0-1.6-1-2.6-2.8-2.6c-1.9,0-3.3,1.2-3.9,3.6H84.2L84.2,56.4z"/>
	<path class="st0" d="M151.2,59.6c-0.9,6.6-5.5,9.6-11.6,9.6c-6.8,0-9.6-4.1-9.6-9.2c0-7,4.6-11.8,11.8-11.8c6.2,0,9.6,4,9.6,9
		C151.3,58.4,151.3,58.5,151.2,59.6L151.2,59.6z M145.1,57.2c0-2.1-0.9-4.1-3.3-4.1c-3,0-5,3.7-5,6.8c0,2.7,1.3,4.5,3.5,4.5
		c1.3,0,4.1-1.8,4.6-4.9C145,58.9,145.1,58.1,145.1,57.2L145.1,57.2z"/>
	<path class="st3" d="M151.8,65.6c0-0.9,0.8-1.5,1.6-1.5c0.9,0,1.5,0.7,1.5,1.5c0,0.9-0.7,1.6-1.5,1.6
		C152.6,67.3,151.8,66.5,151.8,65.6L151.8,65.6z M153.4,66.9c0.7,0,1.1-0.6,1.1-1.2c0-0.7-0.5-1.1-1.1-1.1s-1.2,0.5-1.2,1.1
		C152.2,66.3,152.8,66.9,153.4,66.9L153.4,66.9z M153.2,66.3h-0.4V65h0.6c0.2,0,0.3,0,0.4,0.1c0.1,0.1,0.2,0.2,0.2,0.3
		c0,0.2-0.1,0.4-0.3,0.4l0.3,0.6h-0.4l-0.2-0.5h-0.2V66.3L153.2,66.3z M153.2,65.6h0.2c0,0,0.1,0,0.2,0c0,0,0-0.1,0-0.2v-0.1
		c-0.1,0-0.2,0-0.3,0h-0.1V65.6L153.2,65.6z"/>
	<polygon class="st3" points="49.4,67.3 43.3,67.3 46.9,48.4 38.7,67.3 33.2,67.3 32.3,48.5 28.7,67.3 23.2,67.3 27.8,42.8 
		37.3,42.8 37.7,57.9 44.4,42.8 54.1,42.8 49.4,67.3 	"/>
	<path class="st3" d="M116.5,67c-1.7,0.5-2.9,0.7-4.4,0.7c-3,0-4.7-1.5-4.7-4.4c0-0.6,0.1-1.1,0.2-1.8l0.4-2l0.3-1.5l2.7-15.2h6
		l-0.9,4.5h3.1l-0.9,4.8h-3.1l-1.5,8.3c-0.1,0.4-0.2,0.7-0.2,0.9c0,1,0.7,1.5,2.1,1.5c0.7,0,1.2-0.1,1.6-0.2L116.5,67L116.5,67z"/>
	<path class="st0" d="M132,53.1l-0.1-0.7l1.1-3.1c-0.3,0-0.4,0-0.5-0.1c-0.3,0-0.5-0.1-0.5-0.1c-0.2,0-0.4,0-0.6,0
		c-2,0-3.4,0.9-5.3,3.2l0.7-3.6h-6.2l-3.7,20h6c0.9-4.6,1.2-7.2,1.7-9.4c0.8-3.6,3.4-5.2,5.4-4.8c0.2,0,0.4,0,0.7,0.1l0.4,0.2
		L132,53.1L132,53.1z"/>
	<path class="st3" d="M134,47.5c-0.5-0.2-0.6-0.2-0.7-0.2c-0.3-0.1-0.5-0.1-0.5-0.2c-0.2,0-0.4,0-0.7,0c-2,0-3.4,0.9-5.2,3.2l0.6-3
		h-5.5l-3.7,20h6.1c2.2-12.2,3-14.4,6-14.4c0.2,0,0.5,0.1,0.8,0.1l0.7,0.2L134,47.5L134,47.5z"/>
	<path class="st3" d="M92.7,53.6c0,2.5,1.4,4.3,4.6,5.5c2.5,1,2.8,1.3,2.8,2.3c0,1.2-1.1,1.8-3.5,1.8c-1.8,0-3.5-0.3-5.5-0.9
		L90.4,67h0.3l1,0.3c0.4,0,0.9,0.1,1.6,0.1c1.4,0.2,2.6,0.2,3.4,0.2c6.3,0,9.4-2.1,9.4-6.6c0-2.7-1.2-4.4-4.4-5.6
		c-2.6-0.9-2.8-1.2-2.8-2.2c0-1,1-1.6,3-1.6c1.1,0,2.8,0.1,4.4,0.3l0.9-4.5c-1.6-0.3-4-0.4-5.3-0.4C95.1,46.9,92.7,49.9,92.7,53.6
		L92.7,53.6z"/>
	<path class="st3" d="M68.9,67.3h-4.9l0.1-2.1c-1.5,1.6-3.6,2.4-6.3,2.4c-3.2,0-5.5-2.2-5.5-5.4c0-4.8,3.9-7.7,10.6-7.7
		c0.7,0,1.5,0,2.5,0.1c0.2-0.7,0.2-0.9,0.2-1.2c0-1.3-1-1.8-3.9-1.8c-1.7,0-3.6,0.2-4.9,0.5l-0.9,0.3l-0.6,0.1l0.9-4.4
		c3-0.8,4.9-1,7.2-1c5.2,0,7.9,2,7.9,5.8c0,1-0.1,1.8-0.5,4l-1.2,7.1L69.2,65l-0.2,1L69,66.7L68.9,67.3L68.9,67.3z M64.5,58.4
		c-0.7-0.1-0.9-0.1-1.3-0.1c-3.4,0-5.1,1-5.1,3c0,1.2,0.8,2.1,2.1,2.1C62.6,63.4,64.4,61.3,64.5,58.4L64.5,58.4z"/>
	<path class="st3" d="M88.6,66.8c-2.1,0.6-4.1,0.9-6.1,0.9c-6.7,0-10.2-3.1-10.2-9c0-6.8,4.4-11.8,10.5-11.8c4.9,0,8,2.8,8,7.2
		c0,1.5-0.2,2.9-0.7,4.9h-12c0,0.4,0,0.5,0,0.7c0,2.3,1.7,3.5,5.2,3.5c2.2,0,4.2-0.4,6.2-1.2L88.6,66.8L88.6,66.8z M85.4,55
		c0-0.4,0-0.8,0-1c0-1.6-1-2.6-2.8-2.6c-1.9,0-3.2,1.3-3.8,3.6H85.4L85.4,55z"/>
	<path class="st3" d="M152.8,58.2c-0.9,6.6-5.6,9.6-11.7,9.6c-6.7,0-9.5-4.1-9.5-9.2c0-7,4.6-11.8,11.8-11.8c6.2,0,9.6,4,9.6,9
		C153,56.9,153,57,152.8,58.2L152.8,58.2z M146.5,55.6c0-2.1-0.9-4-3.3-4c-3,0-4.9,3.6-4.9,6.8c0,2.6,1.3,4.4,3.4,4.4
		c1.3,0,4.2-1.8,4.6-4.8C146.5,57.3,146.5,56.5,146.5,55.6L146.5,55.6z"/>
</g>
</svg>
