<?xml version="1.0" encoding="utf-8"?>
<!-- Generator: Adobe Illustrator 19.2.0, SVG Export Plug-In . SVG Version: 6.00 Build 0)  -->
<svg version="1.1" id="Layer_1" xmlns:sketch="http://www.bohemiancoding.com/sketch/ns"
	 xmlns="http://www.w3.org/2000/svg" xmlns:xlink="http://www.w3.org/1999/xlink" x="0px" y="0px" viewBox="0 0 26 40"
	 style="enable-background:new 0 0 26 40;" xml:space="preserve" height="56px" width="56px">
<style type="text/css">
	.st0{fill:#FFFFFF;}
	.st1{fill:#383838;}
</style>
<title>Pin / Your Location / 1</title>
<desc>Created with Sketch.</desc>
<g id="Page-1" sketch:type="MSPage">
	<g id="Store-Finder-Map" transform="translate(-237.000000, -260.000000)" sketch:type="MSArtboardGroup">
		<g id="Pin-_x2F_-Your-Location-_x2F_-1" transform="translate(237.000000, 260.000000)" sketch:type="MSLayerGroup">
			<circle id="White-Background" sketch:type="MSShapeGroup" class="st0" cx="13" cy="13" r="11.5">
			</circle>
			<g>
				<circle class="st1" cx="13" cy="9" r="4"/>
				<path class="st1" d="M17,13c-1.1,0.9-2.5,1.5-4,1.5s-2.9-0.6-4-1.5c-1.8,1.2-2.5,3.8-2.5,6h13C19.5,16.8,18.8,14.2,17,13z"/>
				<path class="st1" d="M13,0C5.8,0,0,5.8,0,13c0,2.3,0.6,4.5,1.7,6.3L13,40l11.3-20.7c1-1.9,1.7-4,1.7-6.3C26,5.8,20.2,0,13,0z
					 M13,24C6.9,24,2,19.1,2,13S6.9,2,13,2s11,4.9,11,11S19.1,24,13,24z"/>
			</g>
		</g>
	</g>
</g>
</svg>
