<?xml version="1.0" encoding="utf-8"?>
<!-- Generator: Adobe Illustrator 19.2.0, SVG Export Plug-In . SVG Version: 6.00 Build 0)  -->
<svg version="1.1" xmlns="http://www.w3.org/2000/svg" xmlns:xlink="http://www.w3.org/1999/xlink" x="0px" y="0px"
	 viewBox="0 0 44.9 44.9" style="enable-background:new 0 0 44.9 44.9;" xml:space="preserve">
<style type="text/css">
	.st0{fill:#474747;}
	.st1{fill:#FFFFFF;}
	.st2{fill:#EB0000;}
</style>
<g id="drop3_xA0_Image_1_">
	<path class="st0" d="M34.4,18.8C34.5,18.8,34.5,18.8,34.4,18.8c0-0.1,0-0.1,0-0.1c0,0,0,0,0,0c0.4-1.2,0.6-2.4,0.6-3.7
		c0-7-5.6-12.6-12.6-12.6S9.8,8,9.8,15c0,1.3,0.2,2.5,0.6,3.7c0,0,0,0,0,0c0.5,2.6,11.1,23,12,23c0.8,0,8.3-14.7,11-20.7
		c0.3-0.6,0.6-1.3,0.9-2C34.4,19,34.4,18.9,34.4,18.8z"/>
	<circle class="st1" cx="22.4" cy="14.6" r="9.6"/>
	<circle class="st0" cx="22.4" cy="14.2" r="5.4"/>
</g>
<g id="matalan-m_xA0_Image_1_">
</g>
</svg>
