<?xml version="1.0" encoding="utf-8"?>
<!-- Generator: Adobe Illustrator 19.2.0, SVG Export Plug-In . SVG Version: 6.00 Build 0)  -->
<svg version="1.1" xmlns="http://www.w3.org/2000/svg" xmlns:xlink="http://www.w3.org/1999/xlink" x="0px" y="0px"
	 viewBox="0 0 44.9 44.9" style="enable-background:new 0 0 44.9 44.9;" xml:space="preserve">
<style type="text/css">
	.st0{fill:#474747;}
	.st1{fill:#FFFFFF;}
	.st2{fill:#EB0000;}
</style>
<g id="drop3_xA0_Image_1_">
	<g>
		<path class="st2" d="M33.9,18.8C34,18.8,34,18.8,33.9,18.8c0-0.1,0-0.1,0-0.1c0,0,0,0,0,0c0.4-1.2,0.6-2.4,0.6-3.7
			c0-7-5.6-12.6-12.6-12.6S9.3,8,9.3,15c0,1.3,0.2,2.5,0.6,3.7c0,0,0,0,0,0c0.5,2.6,11.1,23,12,23c0.8,0,8.3-14.7,11-20.7
			c0.3-0.6,0.6-1.3,0.9-2C33.9,19,33.9,18.9,33.9,18.8z"/>
		<circle class="st1" cx="21.9" cy="14.6" r="9.6"/>
		<polygon class="st2" points="26,8.9 21.9,17.7 17.9,8.9 17,8.9 15.6,18.5 16.2,18.5 17.5,9.7 21.6,18.5 21.9,18.5 22.2,18.5 
			26.3,9.7 27.7,18.5 28.3,18.5 26.9,8.9 		"/>
	</g>
</g>
<g id="matalan-m_xA0_Image_1_">
</g>
</svg>
