<svg xmlns="http://www.w3.org/2000/svg" xmlns:xlink="http://www.w3.org/1999/xlink" version="1.1" id="Matalan_Logo" x="0px" y="0px" width="341.8px" height="91.2px" viewBox="-639.5 354.1 341.8 91.2" xml:space="preserve" enable-background="new -639.5 354.1 341.8 91.2">
  <style type="text/css">
    .st0{
      fill:#DE1F26;
    }
    #sub {
      display: none
    }
    @media (min-width: 145px) {
      #sub {
        display: block
      }
    }
  </style>
  <g id="logo">
    <polygon class="st0" points="-587.9 354.3 -607.6 398.5 -627.7 354.3 -632.4 354.3 -639.5 402.6 -636.2 402.6 -629.6 358.6 -609.3 402.5 -606.1 402.5 -586 358.1 -579.2 402.5 -576.1 402.5 -583.1 354.3 "/>
    <path class="st0" d="M-558.3 383.8l12.8-25.9 13 25.9L-558.3 383.8zM-547.4 354.1l-24.8 48.3h4.1l8.4-16h28.3l8.7 15.8h3.7l-24.3-48.2H-547.4z"/>
    <path class="st0" d="M-482.5 383.8l12.8-25.9 13 25.9L-482.5 383.8zM-471.6 354.1l-24.8 48.3h4.1l8.4-16h28.3l8.7 15.8h3.7l-24.2-48.2H-471.6z"/>
    <path class="st0" d="M-387.4 383.8l12.8-25.9 13 25.9L-387.4 383.8zM-376.4 354.1l-24.8 48.3h4.1l8.4-16h28.3l8.7 15.8h3.7l-24.2-48.2H-376.4z"/>
    <polygon class="st0" points="-526.5 354.2 -526.5 356.9 -508.6 356.9 -508.6 402.5 -505.3 402.5 -505.3 357 -487.8 357 -487.8 354.2 "/>
    <polygon class="st0" points="-435.4 354.1 -438.8 354.1 -438.8 402.7 -404.8 402.7 -404.8 400 -435.4 399.9 "/>
    <polygon class="st0" points="-344.7 354.2 -344.7 402.7 -341.4 402.7 -341.4 358.7 -301.4 402.7 -297.6 402.7 -297.6 354.3 -301 354.3 -301 397.8 -341 354.2 "/>
  </g>
  <g id="sub">
    <polygon class="st0" points="-598.3 428.2 -596 428.2 -590.2 442.9 -584.5 428.2 -582.1 428.2 -582.1 444.9 -583.7 444.9 -583.7 430.5 -583.8 430.5 -589.5 444.9 -591 444.9 -596.7 430.5 -596.7 430.5 -596.7 444.9 -598.3 444.9 "/>
    <path class="st0" d="M-579.2 436.6c0.1-2.8 2.1-4 4.9-4 2.1 0 4.5 0.7 4.5 3.9v6.4c0 0.6 0.3 0.9 0.8 0.9 0.2 0 0.4-0.1 0.5-0.1v1.2c-0.3 0.1-0.6 0.1-1 0.1 -1.5 0-1.7-0.8-1.7-2.1h0c-1 1.6-2.1 2.5-4.4 2.5 -2.2 0-4-1.1-4-3.5 0-3.4 3.3-3.5 6.5-3.9 1.2-0.1 1.9-0.3 1.9-1.6 0-2-1.4-2.5-3.1-2.5 -1.8 0-3.2 0.8-3.2 2.8H-579.2zM-571.4 438.3L-571.4 438.3c-0.2 0.4-0.9 0.5-1.3 0.5 -2.5 0.4-5.6 0.4-5.6 2.8 0 1.5 1.3 2.4 2.7 2.4 2.2 0 4.2-1.4 4.2-3.8V438.3z"/>
    <path class="st0" d="M-556.4 444.9h-1.3v-2.3h0c-0.6 1.6-2.5 2.6-4.3 2.6 -3.7 0-5.4-3-5.4-6.4 0-3.4 1.7-6.4 5.4-6.4 1.8 0 3.6 0.9 4.2 2.6h0v-6.9h1.5V444.9zM-562.1 444c3.1 0 4.2-2.6 4.2-5.1 0-2.5-1.1-5.1-4.2-5.1 -2.8 0-3.9 2.6-3.9 5.1C-566 441.4-564.9 444-562.1 444"/>
    <path class="st0" d="M-552.7 439.3c0 2.1 1.2 4.8 4 4.8 2.2 0 3.3-1.3 3.8-3.1h1.5c-0.6 2.7-2.2 4.3-5.3 4.3 -3.8 0-5.4-2.9-5.4-6.4 0-3.2 1.6-6.4 5.4-6.4 3.9 0 5.4 3.4 5.3 6.8H-552.7zM-544.9 438.1c-0.1-2.2-1.5-4.3-3.9-4.3 -2.4 0-3.7 2.1-4 4.3H-544.9z"/>
    <path class="st0" d="M-530.3 434.1h-2.4v10.8h-1.5v-10.8h-2.1v-1.2h2.1v-1.1c0-2.1 0.6-3.5 2.9-3.5 0.4 0 0.8 0 1.2 0.1v1.3c-0.4-0.1-0.7-0.1-1.1-0.1 -1.6 0-1.6 1-1.6 2.3v1.1h2.4V434.1z"/>
    <path class="st0" d="M-518.1 438.9c0 3.5-2 6.4-5.7 6.4 -3.7 0-5.7-2.9-5.7-6.4 0-3.5 2-6.4 5.7-6.4C-520.1 432.5-518.1 435.4-518.1 438.9M-528 438.9c0 2.6 1.4 5.1 4.2 5.1 2.8 0 4.2-2.6 4.2-5.1 0-2.6-1.4-5.1-4.2-5.1C-526.6 433.7-528 436.3-528 438.9"/>
    <path class="st0" d="M-515.8 432.9h1.3v2.8h0c0.7-1.9 2.4-3.1 4.6-3v1.5c-2.7-0.1-4.5 1.8-4.5 4.3v6.4h-1.5V432.9z"/>
    <polygon class="st0" points="-501.8 428.2 -499.4 428.2 -493.7 442.9 -487.9 428.2 -485.6 428.2 -485.6 444.9 -487.2 444.9 -487.2 430.5 -487.2 430.5 -492.9 444.9 -494.4 444.9 -500.1 430.5 -500.2 430.5 -500.2 444.9 -501.8 444.9 "/>
    <path class="st0" d="M-471.7 438.9c0 3.5-2 6.4-5.7 6.4 -3.7 0-5.7-2.9-5.7-6.4 0-3.5 2-6.4 5.7-6.4C-473.7 432.5-471.7 435.4-471.7 438.9M-481.7 438.9c0 2.6 1.4 5.1 4.2 5.1 2.8 0 4.2-2.6 4.2-5.1 0-2.6-1.4-5.1-4.2-5.1C-480.3 433.7-481.7 436.3-481.7 438.9"/>
    <path class="st0" d="M-458.9 444.9h-1.4v-2.3h0c-0.6 1.6-2.6 2.6-4.3 2.6 -3.7 0-5.4-3-5.4-6.4 0-3.4 1.7-6.4 5.4-6.4 1.8 0 3.6 0.9 4.2 2.6h0v-6.9h1.5V444.9zM-464.6 444c3.1 0 4.2-2.6 4.2-5.1 0-2.5-1.1-5.1-4.2-5.1 -2.8 0-4 2.6-4 5.1C-468.6 441.4-467.4 444-464.6 444"/>
    <path class="st0" d="M-455.3 439.3c0 2.1 1.2 4.8 4 4.8 2.2 0 3.3-1.3 3.8-3.1h1.5c-0.6 2.7-2.2 4.3-5.3 4.3 -3.8 0-5.4-2.9-5.4-6.4 0-3.2 1.6-6.4 5.4-6.4 3.9 0 5.4 3.4 5.3 6.8H-455.3zM-447.4 438.1c-0.1-2.2-1.5-4.3-3.9-4.3 -2.4 0-3.7 2.1-4 4.3H-447.4z"/>
    <path class="st0" d="M-444 432.9h1.3v2.8h0c0.7-1.9 2.4-3.1 4.6-3v1.5c-2.7-0.1-4.5 1.8-4.5 4.3v6.4h-1.5V432.9z"/>
    <path class="st0" d="M-436.2 432.9h1.5v2.1h0c0.5-1.4 2.1-2.4 3.8-2.4 3.4 0 4.4 1.8 4.4 4.6v7.8h-1.5v-7.5c0-2.1-0.7-3.6-3.1-3.6 -2.3 0-3.7 1.8-3.8 4.1v7h-1.5V432.9z"/>
    <polygon class="st0" points="-416.9 428.2 -406.3 428.2 -406.3 429.6 -415.3 429.6 -415.3 435.6 -407.3 435.6 -407.3 437 -415.3 437 -415.3 444.9 -416.9 444.9 "/>
    <path class="st0" d="M-404.7 436.6c0.1-2.8 2.1-4 4.9-4 2.1 0 4.4 0.7 4.4 3.9v6.4c0 0.6 0.3 0.9 0.9 0.9 0.2 0 0.3-0.1 0.5-0.1v1.2c-0.3 0.1-0.5 0.1-0.9 0.1 -1.5 0-1.8-0.8-1.8-2.1h0c-1 1.6-2.1 2.5-4.4 2.5 -2.2 0-4-1.1-4-3.5 0-3.4 3.3-3.5 6.5-3.9 1.2-0.1 1.9-0.3 1.9-1.6 0-2-1.4-2.5-3.1-2.5 -1.8 0-3.2 0.8-3.2 2.8H-404.7zM-396.9 438.3L-396.9 438.3c-0.2 0.4-0.9 0.5-1.3 0.5 -2.5 0.4-5.6 0.4-5.6 2.8 0 1.5 1.3 2.4 2.7 2.4 2.2 0 4.2-1.4 4.2-3.8V438.3z"/>
    <path class="st0" d="M-392.5 432.9h1.4v2h0.1c0.8-1.5 2-2.4 3.9-2.4 1.6 0 3 0.8 3.5 2.4 0.7-1.6 2.2-2.4 3.8-2.4 2.6 0 4 1.4 4 4.2v8.2h-1.5v-8.1c0-2-0.7-3.1-2.9-3.1 -2.5 0-3.3 2.1-3.3 4.3v6.8h-1.5v-8.2c0-1.6-0.7-3-2.5-3 -2.5 0-3.6 1.9-3.6 4.4v6.7h-1.5V432.9z"/>
    <path class="st0" d="M-373 428.2h1.5v2.4h-1.5V428.2zM-373 432.9h1.5v12.1h-1.5V432.9z"/>
    <rect x="-368.6" y="428.2" class="st0" width="1.5" height="16.7"/>
    <path class="st0" d="M-364.3 428.2h1.5v2.4h-1.5V428.2zM-364.3 432.9h1.5v12.1h-1.5V432.9z"/>
    <path class="st0" d="M-359.2 439.3c0 2.1 1.1 4.8 4 4.8 2.1 0 3.3-1.3 3.8-3.1h1.5c-0.6 2.7-2.2 4.3-5.3 4.3 -3.8 0-5.4-2.9-5.4-6.4 0-3.2 1.6-6.4 5.4-6.4 3.9 0 5.4 3.4 5.3 6.8H-359.2zM-351.4 438.1c-0.1-2.2-1.4-4.3-3.8-4.3 -2.4 0-3.7 2.1-4 4.3H-351.4z"/>
    <path class="st0" d="M-340.7 436.4c-0.1-1.8-1.5-2.6-3.1-2.6 -1.3 0-2.9 0.5-2.9 2.1 0 1.3 1.5 1.8 2.5 2l2 0.4c1.7 0.3 3.4 1.2 3.4 3.3 0 2.6-2.6 3.6-4.8 3.6 -2.8 0-4.7-1.3-5-4.2h1.5c0.1 2 1.6 3 3.6 3 1.4 0 3.3-0.6 3.3-2.3 0-1.4-1.3-1.9-2.6-2.2l-1.9-0.4c-1.9-0.5-3.4-1.2-3.4-3.2 0-2.5 2.4-3.4 4.5-3.4 2.4 0 4.3 1.3 4.4 3.9H-340.7z"/>
  </g>
</svg>
