<?xml version="1.0" encoding="utf-8"?>
<!-- Generator: Adobe Illustrator 19.2.1, SVG Export Plug-In . SVG Version: 6.00 Build 0)  -->
<svg version="1.1" id="Matalan_Logo" xmlns="http://www.w3.org/2000/svg" xmlns:xlink="http://www.w3.org/1999/xlink" x="0px"
	 y="0px" viewBox="0 0 341.9 48.7" style="enable-background:new 0 0 341.9 48.7;" xml:space="preserve">
<style type="text/css">
	.st0{fill:#EB0000;}
</style>
<g>
	<g id="logo">
		<polygon class="st0" points="51.6,0.3 31.9,44.5 11.8,0.3 7.1,0.3 0,48.6 3.3,48.6 9.9,4.6 30.2,48.5 33.4,48.5 53.5,4.1 
			60.3,48.5 63.4,48.5 56.4,0.3 		"/>
		<path class="st0" d="M81.2,29.8L94,3.9l13,25.9H81.2z M92.1,0.1L67.3,48.4h4.1l8.4-16h28.3l8.7,15.8h3.7L96.2,0h-4.1V0.1z"/>
		<path class="st0" d="M157,29.8l12.8-25.9l13,25.9H157z M167.9,0.1l-24.8,48.3h4.1l8.4-16h28.3l8.7,15.8h3.7L172.1,0h-4.2V0.1z"/>
		<path class="st0" d="M252.1,29.8l12.8-25.9l13,25.9H252.1z M263.1,0.1l-24.8,48.3h4.1l8.4-16h28.3l8.7,15.8h3.7L267.3,0h-4.2V0.1z
			"/>
		<polygon class="st0" points="113,0.2 113,2.9 130.9,2.9 130.9,48.5 134.2,48.5 134.2,3 151.7,3 151.7,0.2 		"/>
		<polygon class="st0" points="204.1,0.1 200.7,0.1 200.7,48.7 234.7,48.7 234.7,46 204.1,45.9 		"/>
		<polygon class="st0" points="294.8,0.2 294.8,48.7 298.1,48.7 298.1,4.7 338.1,48.7 341.9,48.7 341.9,0.3 338.5,0.3 338.5,43.8 
			298.5,0.2 		"/>
	</g>
</g>
</svg>
