<?xml version="1.0" encoding="utf-8"?>
<!-- Generator: Adobe Illustrator 19.1.0, SVG Export Plug-In . SVG Version: 6.00 Build 0)  -->
<svg version="1.1" id="Layer_1" xmlns:sketch="http://www.bohemiancoding.com/sketch/ns"
	 xmlns="http://www.w3.org/2000/svg" xmlns:xlink="http://www.w3.org/1999/xlink" x="0px" y="0px" width="128px" height="128px"
	 viewBox="0 0 128 128" style="enable-background:new 0 0 128 128;" xml:space="preserve">
<style type="text/css">
	.st0{fill:#383838;}
</style>
<title>Store Finder (Menu)</title>
<desc>Created with Sketch.</desc>
<g id="Iconography-Board" sketch:type="MSPage">
	<g id="Store-Finder-_x28_Menu_x29_" transform="translate(-96.000000, -1405.000000)" sketch:type="MSArtboardGroup">
		<g transform="translate(96.000000, 1405.000000)" sketch:type="MSLayerGroup">
			<path sketch:type="MSShapeGroup" class="st0" d="M35.1,29.5c0,21.1,28.1,54.8,28.1,54.8s28.3-33.6,28.2-54.8
				C91.3,13.2,78.8-0.1,63.2-0.1C47.7-0.1,35.1,13.2,35.1,29.5z M63.2,5.6c12.4,0,22.5,10.7,22.5,24C85.8,42.8,72,63.6,63.1,75.2
				c-8.8-11.7-22.4-32.5-22.4-45.7S50.8,5.6,63.2,5.6 M63.2,22.5c3.1,0,5.6,2.5,5.6,5.6s-2.5,5.6-5.6,5.6s-5.6-2.5-5.6-5.6
				S60.1,22.5,63.2,22.5L63.2,22.5z M63.2,16.8c-6.2,0-11.3,5-11.3,11.3c0,6.2,5,11.3,11.3,11.3c6.2,0,11.3-5,11.3-11.3
				C74.5,21.9,69.5,16.8,63.2,16.8L63.2,16.8z M22.5,113.3H25c0-1.1-0.2-2.1-0.6-2.9c-0.4-0.8-0.9-1.5-1.6-2s-1.4-0.9-2.3-1.2
				c-0.9-0.2-1.8-0.4-2.9-0.4c-0.9,0-1.8,0.1-2.7,0.4c-0.9,0.2-1.7,0.6-2.3,1.1c-0.7,0.5-1.2,1.1-1.6,1.8c-0.4,0.7-0.6,1.6-0.6,2.6
				c0,0.9,0.2,1.7,0.5,2.3s0.9,1.1,1.5,1.5s1.3,0.7,2.1,0.9c0.8,0.2,1.6,0.4,2.4,0.6s1.6,0.4,2.4,0.5c0.8,0.2,1.5,0.4,2.1,0.7
				c0.6,0.3,1.1,0.6,1.5,1.1c0.4,0.4,0.5,1,0.5,1.7s-0.2,1.3-0.5,1.8s-0.7,0.8-1.2,1.1c-0.5,0.3-1,0.5-1.6,0.6s-1.2,0.2-1.8,0.2
				c-0.8,0-1.5-0.1-2.2-0.3c-0.7-0.2-1.3-0.5-1.9-0.9s-1-0.9-1.3-1.5s-0.5-1.3-0.5-2.2H9.7c0,1.2,0.2,2.3,0.7,3.2
				c0.4,0.9,1,1.6,1.8,2.2s1.6,1,2.6,1.3s2.1,0.4,3.2,0.4c0.9,0,1.8-0.1,2.8-0.3s1.8-0.6,2.5-1s1.4-1.1,1.8-1.9
				c0.5-0.8,0.7-1.7,0.7-2.7s-0.2-1.8-0.5-2.5c-0.4-0.7-0.9-1.2-1.5-1.6s-1.3-0.8-2.1-1c-0.8-0.3-1.6-0.5-2.4-0.7s-1.6-0.4-2.4-0.5
				s-1.5-0.4-2.1-0.6s-1.1-0.6-1.5-0.9c-0.4-0.4-0.5-0.9-0.5-1.5c0-0.7,0.1-1.2,0.4-1.6s0.6-0.8,1-1.1c0.4-0.3,0.9-0.5,1.4-0.6
				c0.5-0.1,1.1-0.2,1.7-0.2c1.4,0,2.5,0.3,3.4,1C21.9,110.8,22.4,111.8,22.5,113.3L22.5,113.3z M33.7,109.7v17.8h2.7v-17.8h6.7
				v-2.3H27v2.3C27,109.7,33.7,109.7,33.7,109.7z M46.8,117.4c0-1,0.1-2,0.4-3c0.3-1,0.7-1.9,1.2-2.7c0.6-0.8,1.3-1.4,2.2-1.9
				s1.9-0.7,3.2-0.7c1.2,0,2.3,0.2,3.2,0.7c0.9,0.5,1.6,1.1,2.2,1.9c0.6,0.8,1,1.7,1.2,2.7c0.3,1,0.4,2,0.4,3s-0.1,2-0.4,3
				s-0.7,1.9-1.2,2.7c-0.6,0.8-1.3,1.4-2.2,1.9s-1.9,0.7-3.2,0.7c-1.2,0-2.3-0.2-3.2-0.7s-1.6-1.1-2.2-1.9c-0.6-0.8-1-1.7-1.2-2.7
				S46.8,118.4,46.8,117.4L46.8,117.4z M44.2,117.4c0,1.4,0.2,2.7,0.6,4c0.4,1.3,1,2.4,1.8,3.4s1.8,1.8,3,2.3
				c1.2,0.5,2.6,0.9,4.2,0.9s3-0.3,4.2-0.9s2.2-1.3,3-2.3s1.4-2.1,1.8-3.4c0.4-1.3,0.6-2.6,0.6-4s-0.2-2.7-0.6-4
				c-0.4-1.3-1-2.4-1.8-3.4s-1.8-1.8-3-2.3c-1.2-0.6-2.6-0.9-4.2-0.9s-3,0.3-4.2,0.9s-2.2,1.4-3,2.3c-0.8,1-1.4,2.1-1.8,3.4
				S44.2,116.2,44.2,117.4L44.2,117.4z M66.7,107.4v20.1h2.7V119h6.5c0.7,0,1.2,0.1,1.6,0.3c0.4,0.2,0.7,0.5,1,0.8
				c0.2,0.3,0.4,0.7,0.5,1.2c0.1,0.4,0.2,0.9,0.3,1.4c0.1,0.5,0.2,1,0.2,1.5s0,1,0.1,1.4c0,0.4,0.1,0.8,0.1,1.2
				c0.1,0.4,0.2,0.6,0.4,0.8h3c-0.3-0.3-0.5-0.7-0.6-1.2c-0.1-0.4-0.2-0.9-0.3-1.4c-0.1-0.5-0.1-1-0.1-1.5s0-1-0.1-1.5
				s-0.1-1-0.2-1.4c-0.1-0.5-0.3-0.9-0.5-1.2c-0.2-0.4-0.5-0.7-0.9-0.9c-0.4-0.3-0.8-0.5-1.4-0.6v-0.1c1.2-0.3,2.1-1,2.7-1.9
				c0.6-0.9,0.8-2,0.8-3.2c0-1.6-0.5-2.9-1.6-3.9c-1.1-0.9-2.6-1.4-4.5-1.4L66.7,107.4L66.7,107.4z M74.9,116.7h-5.6v-7h6.6
				c1.3,0,2.2,0.3,2.7,1c0.6,0.6,0.8,1.5,0.8,2.5c0,0.7-0.1,1.3-0.4,1.8s-0.6,0.8-1,1.1c-0.4,0.3-0.9,0.5-1.5,0.5
				C76.1,116.7,75.6,116.7,74.9,116.7L74.9,116.7z M86,107.4v20.1h14v-2.3H88.6v-7H99v-2.3H88.6v-6.4h11.2v-2.3H86V107.4z
				 M114.8,113.3h2.5c0-1.1-0.2-2.1-0.6-2.9c-0.4-0.8-0.9-1.5-1.6-2c-0.7-0.5-1.4-0.9-2.3-1.2c-0.9-0.2-1.8-0.4-2.9-0.4
				c-0.9,0-1.8,0.1-2.7,0.4c-0.9,0.2-1.7,0.6-2.3,1.1c-0.7,0.5-1.2,1.1-1.6,1.8c-0.4,0.7-0.6,1.6-0.6,2.6c0,0.9,0.2,1.7,0.5,2.3
				c0.3,0.6,0.9,1.1,1.5,1.5c0.6,0.4,1.3,0.7,2.1,0.9c0.8,0.2,1.6,0.4,2.4,0.6c0.8,0.2,1.6,0.4,2.4,0.5c0.8,0.2,1.5,0.4,2.1,0.7
				c0.6,0.3,1.1,0.6,1.5,1.1c0.4,0.4,0.5,1,0.5,1.7s-0.2,1.3-0.5,1.8c-0.3,0.5-0.7,0.8-1.2,1.1c-0.5,0.3-1,0.5-1.6,0.6
				c-0.6,0.1-1.2,0.2-1.8,0.2c-0.8,0-1.5-0.1-2.2-0.3c-0.7-0.2-1.3-0.5-1.9-0.9c-0.5-0.4-1-0.9-1.3-1.5c-0.3-0.6-0.5-1.3-0.5-2.2
				h-2.5c0,1.2,0.2,2.3,0.7,3.2c0.4,0.9,1,1.6,1.8,2.2c0.8,0.6,1.6,1,2.6,1.3s2.1,0.4,3.2,0.4c0.9,0,1.8-0.1,2.8-0.3
				c0.9-0.2,1.8-0.6,2.5-1c0.8-0.5,1.4-1.1,1.8-1.9c0.5-0.8,0.7-1.7,0.7-2.7s-0.2-1.8-0.5-2.5c-0.4-0.7-0.9-1.2-1.5-1.6
				c-0.6-0.4-1.3-0.8-2.1-1c-0.8-0.3-1.6-0.5-2.4-0.7c-0.8-0.2-1.6-0.4-2.4-0.5c-0.8-0.2-1.5-0.4-2.1-0.6c-0.6-0.2-1.1-0.6-1.5-0.9
				c-0.4-0.4-0.5-0.9-0.5-1.5c0-0.7,0.1-1.2,0.4-1.6c0.3-0.4,0.6-0.8,1-1.1c0.4-0.3,0.9-0.5,1.4-0.6s1.1-0.2,1.7-0.2
				c1.4,0,2.5,0.3,3.4,1C114.1,110.8,114.6,111.8,114.8,113.3L114.8,113.3z"/>
		</g>
	</g>
</g>
</svg>
