<?xml version="1.0" encoding="utf-8"?>
<!-- Generator: Adobe Illustrator 19.1.0, SVG Export Plug-In . SVG Version: 6.00 Build 0)  -->
<svg version="1.1" id="Layer_1" xmlns:sketch="http://www.bohemiancoding.com/sketch/ns"
	 xmlns="http://www.w3.org/2000/svg" xmlns:xlink="http://www.w3.org/1999/xlink" x="0px" y="0px" width="128px" height="128px"
	 viewBox="0 0 128 128" style="enable-background:new 0 0 128 128;" xml:space="preserve">
<style type="text/css">
	.st0{fill:#383838;}
</style>
<title>My Account (Menu)</title>
<desc>Created with Sketch.</desc>
<g id="Iconography-Board" sketch:type="MSPage">
	<g id="My-Account-_x28_Menu_x29_" transform="translate(-491.000000, -1405.000000)" sketch:type="MSArtboardGroup">
		<g transform="translate(491.000000, 1405.000000)" sketch:type="MSLayerGroup">
			<path sketch:type="MSShapeGroup" class="st0" d="M62.8,4.7c-5.4,0-10.4,1.8-15.1,5.5s-7,7.6-7,11.7v12.3c0,3.4,0.8,7.2,2.3,11.5
				s3.8,7.7,6.9,10.2L28.3,66.2c-0.4,0.1-0.9,0.3-1.4,0.6c-0.5,0.3-1.2,0.9-2.2,1.8c-0.9,0.9-1.4,1.7-1.4,2.5v7.4
				c0,1.3,0.5,2.5,1.5,3.5s2.1,1.5,3.5,1.5h68.9c1.3,0,2.5-0.5,3.5-1.5s1.5-2.1,1.5-3.5v-7.4c0-0.9-0.4-1.8-1.2-2.6
				c-0.8-0.8-1.6-1.4-2.5-1.7l-1.2-0.6L75.8,56.1c3.1-2.5,5.4-5.8,6.9-10.1s2.2-8.2,2.2-11.8V21.9c0-4.1-2.4-8-7.1-11.7
				S68.2,4.7,62.8,4.7 M62.8,9.9c4.2,0,8.1,1.4,11.9,4.4c3.4,2.6,5.1,5.2,5.1,7.6v12.3c0,3-0.7,6.4-1.9,10c-1.3,3.4-2.9,5.9-5.3,7.8
				c-1.4,1.1-2.1,2.9-1.9,4.7c0.2,1.8,1.3,3.4,3,4.1l21.3,10.1l1.2,0.6c0.2,0.1,0.3,0.1,0.5,0.2c0,0,0.1,0,0.3,0.2v6.2H28.6v-6
				c0.7-0.6,1-0.8,1-0.8l0,0c0,0,0.1,0,0.1-0.1c0.3-0.1,0.6-0.2,0.8-0.3L52,60.6c1.6-0.8,2.7-2.3,2.9-4.1c0.2-1.8-0.5-3.6-1.9-4.7
				c-2.3-1.9-4-4.4-5.3-7.8c-1.3-3.7-2-7-2-9.8V21.9c0-2.4,1.7-4.9,5-7.6C54.7,11.4,58.5,9.9,62.8,9.9 M5.5,115.1l3.2-8.7h0.1
				l3.1,8.7H5.5z M7.4,104.1L0,122.8h2.5l2.1-5.6h7.9l2,5.6h2.8L10,104.1H7.4z M32.5,109.7H35c-0.1-1-0.4-1.9-0.9-2.6
				c-0.5-0.8-1-1.4-1.7-1.9s-1.5-0.9-2.3-1.2c-0.9-0.3-1.8-0.4-2.8-0.4c-1.4,0-2.7,0.3-3.8,0.8s-2,1.2-2.8,2.1
				c-0.7,0.9-1.3,1.9-1.7,3.1s-0.6,2.5-0.6,3.8c0,1.4,0.2,2.6,0.5,3.8c0.4,1.2,0.9,2.2,1.6,3.1s1.6,1.6,2.7,2.1s2.4,0.7,3.8,0.7
				c2.4,0,4.3-0.7,5.7-2s2.2-3.2,2.4-5.5h-2.5c-0.1,0.8-0.2,1.5-0.5,2.2s-0.6,1.2-1.1,1.7s-1,0.9-1.7,1.1c-0.6,0.3-1.4,0.4-2.2,0.4
				c-1.1,0-2.1-0.2-2.9-0.6c-0.8-0.4-1.5-1-2-1.7s-0.9-1.5-1.1-2.5c-0.2-1-0.4-2-0.4-3s0.1-1.9,0.4-2.8c0.2-0.9,0.6-1.7,1.1-2.4
				c0.5-0.7,1.2-1.3,2-1.7c0.8-0.4,1.8-0.6,2.9-0.6c1.3,0,2.4,0.3,3.4,1C31.5,107.4,32.1,108.4,32.5,109.7L32.5,109.7z M51.3,109.7
				h2.5c-0.1-1-0.4-1.9-0.9-2.6c-0.5-0.8-1-1.4-1.7-1.9c-0.7-0.5-1.5-0.9-2.3-1.2c-0.9-0.3-1.8-0.4-2.8-0.4c-1.4,0-2.7,0.3-3.8,0.8
				s-2,1.2-2.8,2.1c-0.7,0.9-1.3,1.9-1.7,3.1s-0.6,2.5-0.6,3.8c0,1.4,0.2,2.6,0.5,3.8c0.4,1.2,0.9,2.2,1.6,3.1
				c0.7,0.9,1.6,1.6,2.7,2.1s2.4,0.7,3.8,0.7c2.4,0,4.3-0.7,5.7-2c1.4-1.3,2.2-3.2,2.4-5.5h-2.4c-0.1,0.8-0.2,1.5-0.5,2.2
				s-0.6,1.2-1.1,1.7s-1,0.9-1.7,1.1c-0.6,0.3-1.4,0.4-2.2,0.4c-1.1,0-2.1-0.2-2.9-0.6c-0.8-0.4-1.5-1-2-1.7s-0.9-1.5-1.1-2.5
				c-0.2-1-0.4-2-0.4-3s0.1-1.9,0.4-2.8c0.2-0.9,0.6-1.7,1.1-2.4s1.2-1.3,2-1.7c0.8-0.4,1.8-0.6,2.9-0.6c1.3,0,2.4,0.3,3.4,1
				S51,108.4,51.3,109.7L51.3,109.7z M58.5,113.5c0-0.9,0.1-1.9,0.4-2.8c0.2-0.9,0.6-1.7,1.2-2.5c0.5-0.7,1.2-1.3,2-1.8
				c0.8-0.4,1.8-0.7,2.9-0.7c1.1,0,2.1,0.2,2.9,0.7c0.8,0.4,1.5,1,2,1.8c0.5,0.7,0.9,1.6,1.2,2.5c0.2,0.9,0.4,1.9,0.4,2.8
				s-0.1,1.9-0.4,2.8c-0.2,0.9-0.6,1.7-1.2,2.5c-0.5,0.7-1.2,1.3-2,1.8c-0.8,0.4-1.8,0.7-2.9,0.7c-1.1,0-2.1-0.2-2.9-0.7
				c-0.8-0.4-1.5-1-2-1.8c-0.5-0.7-0.9-1.6-1.2-2.5C58.8,115.4,58.5,114.4,58.5,113.5L58.5,113.5z M56,113.5c0,1.3,0.2,2.5,0.6,3.7
				c0.4,1.2,0.9,2.2,1.7,3.1c0.8,0.9,1.7,1.6,2.8,2.2c1.1,0.5,2.4,0.8,3.9,0.8c1.5,0,2.8-0.3,3.9-0.8s2.1-1.3,2.8-2.2
				c0.8-0.9,1.3-2,1.7-3.1c0.4-1.2,0.6-2.4,0.6-3.7s-0.2-2.5-0.6-3.7s-0.9-2.2-1.7-3.1c-0.8-0.9-1.7-1.6-2.8-2.2
				c-1.1-0.5-2.4-0.8-3.9-0.8c-1.5,0-2.8,0.3-3.9,0.8c-1.1,0.5-2.1,1.3-2.8,2.2c-0.8,0.9-1.3,2-1.7,3.1C56.2,111,56,112.2,56,113.5
				L56,113.5z M92.1,116.1v-12h-2.5v12c0,1.7-0.4,3-1.2,3.8c-0.8,0.9-2,1.3-3.6,1.3c-1.7,0-3-0.4-3.9-1.3s-1.3-2.1-1.3-3.8v-12h-2.5
				v12c0,2.5,0.7,4.3,2,5.5c1.4,1.1,3.2,1.7,5.7,1.7c2.4,0,4.2-0.6,5.5-1.8C91.4,120.3,92.1,118.5,92.1,116.1L92.1,116.1z
				 M96.1,104.1v18.7h2.4v-15h0.1l9.8,15h2.7v-18.7h-2.4v15.2h-0.1l-9.9-15.2H96.1z M119.2,106.2v16.6h2.5v-16.6h6.2v-2.1h-15v2.1
				H119.2z"/>
		</g>
	</g>
</g>
</svg>
