<?xml version="1.0" encoding="utf-8"?>
<!-- Generator: Adobe Illustrator 19.1.0, SVG Export Plug-In . SVG Version: 6.00 Build 0)  -->
<svg version="1.1" id="Layer_1" xmlns:sketch="http://www.bohemiancoding.com/sketch/ns"
	 xmlns="http://www.w3.org/2000/svg" xmlns:xlink="http://www.w3.org/1999/xlink" x="0px" y="0px" width="128px" height="128px"
	 viewBox="0 0 128 128" style="enable-background:new 0 0 128 128;" xml:space="preserve">
<style type="text/css">
	.st0{fill:#383838;}
</style>
<title>Close (Menu)</title>
<desc>Created with Sketch.</desc>
<g id="Iconography-Board" sketch:type="MSPage">
	<g id="Close-_x28_Menu_x29_" transform="translate(-899.000000, -1405.000000)" sketch:type="MSArtboardGroup">
		<g transform="translate(899.000000, 1405.000000)" sketch:type="MSLayerGroup">
			<path sketch:type="MSShapeGroup" class="st0" d="M67.7,42.2l38.2,38.2l-4,4L63.7,46.2L25.5,84.4l-4-4l38.3-38.2L21.5,3.9l4-4
				l38.2,38.3L102-0.1l4,4L67.7,42.2z M33.8,113.4h2.7c-0.2-1.1-0.5-2-1-2.8s-1.1-1.5-1.8-2s-1.6-1-2.5-1.2c-0.9-0.3-1.9-0.4-3-0.4
				c-1.5,0-2.9,0.3-4.1,0.8c-1.2,0.6-2.2,1.3-3,2.3s-1.4,2.1-1.8,3.4s-0.6,2.7-0.6,4.1c0,1.5,0.2,2.8,0.6,4.1c0.4,1.3,1,2.4,1.7,3.3
				c0.8,0.9,1.7,1.7,2.9,2.2c1.2,0.5,2.5,0.8,4.1,0.8c2.6,0,4.6-0.7,6.1-2.1s2.4-3.4,2.6-5.9H34c-0.1,0.8-0.2,1.6-0.5,2.3
				c-0.3,0.7-0.7,1.3-1.2,1.8s-1.1,0.9-1.8,1.2c-0.7,0.3-1.5,0.4-2.4,0.4c-1.2,0-2.2-0.2-3.1-0.7s-1.6-1.1-2.1-1.8
				c-0.6-0.8-1-1.7-1.2-2.7c-0.3-1-0.4-2.1-0.4-3.3c0-1.1,0.1-2.1,0.4-3c0.3-1,0.7-1.8,1.2-2.6c0.6-0.8,1.3-1.4,2.1-1.8
				c0.9-0.5,1.9-0.7,3.1-0.7c1.4,0,2.6,0.4,3.6,1.1C32.9,110.9,33.5,112.1,33.8,113.4L33.8,113.4z M40,107.4v20.1h13.3v-2.3H42.7
				v-17.8H40z M57.2,117.4c0-1,0.1-2,0.4-3c0.3-1,0.7-1.9,1.2-2.7c0.6-0.8,1.3-1.4,2.2-1.9s1.9-0.7,3.2-0.7c1.2,0,2.3,0.2,3.2,0.7
				s1.6,1.1,2.2,1.9c0.6,0.8,1,1.7,1.2,2.7c0.3,1,0.4,2,0.4,3s-0.1,2-0.4,3c-0.3,1-0.7,1.9-1.2,2.7c-0.6,0.8-1.3,1.4-2.2,1.9
				s-1.9,0.7-3.2,0.7c-1.2,0-2.3-0.2-3.2-0.7s-1.6-1.1-2.2-1.9c-0.6-0.8-1-1.7-1.2-2.7C57.3,119.4,57.2,118.4,57.2,117.4L57.2,117.4
				z M54.5,117.4c0,1.4,0.2,2.7,0.6,4c0.4,1.3,1,2.4,1.8,3.4s1.8,1.8,3,2.3c1.2,0.5,2.6,0.9,4.2,0.9c1.6,0,3-0.3,4.2-0.9
				c1.2-0.6,2.2-1.3,3-2.3c0.8-1,1.4-2.1,1.8-3.4c0.4-1.3,0.6-2.6,0.6-4s-0.2-2.7-0.6-4c-0.4-1.3-1-2.4-1.8-3.4
				c-0.8-1-1.8-1.8-3-2.3c-1.2-0.6-2.6-0.9-4.2-0.9c-1.6,0-3,0.3-4.2,0.9s-2.2,1.4-3,2.3c-0.8,1-1.4,2.1-1.8,3.4
				S54.5,116.2,54.5,117.4L54.5,117.4z M88.7,113.3h2.5c0-1.1-0.2-2.1-0.6-2.9s-0.9-1.5-1.6-2s-1.4-0.9-2.3-1.2
				c-0.9-0.2-1.8-0.4-2.9-0.4c-0.9,0-1.8,0.1-2.7,0.4c-0.9,0.2-1.7,0.6-2.3,1.1c-0.7,0.5-1.2,1.1-1.6,1.8c-0.4,0.7-0.6,1.6-0.6,2.6
				c0,0.9,0.2,1.7,0.5,2.3c0.4,0.6,0.9,1.1,1.5,1.5s1.3,0.7,2.1,0.9c0.8,0.2,1.6,0.4,2.4,0.6c0.8,0.2,1.6,0.4,2.4,0.5
				c0.8,0.2,1.5,0.4,2.1,0.7c0.6,0.3,1.1,0.6,1.5,1.1c0.4,0.4,0.5,1,0.5,1.7s-0.2,1.3-0.5,1.8c-0.3,0.5-0.7,0.8-1.2,1.1
				c-0.5,0.3-1,0.5-1.6,0.6s-1.2,0.2-1.8,0.2c-0.8,0-1.5-0.1-2.2-0.3c-0.7-0.2-1.3-0.5-1.9-0.9c-0.6-0.4-1-0.9-1.3-1.5
				c-0.3-0.6-0.5-1.3-0.5-2.2h-2.7c0,1.2,0.2,2.3,0.7,3.2c0.4,0.9,1,1.6,1.8,2.2c0.8,0.6,1.6,1,2.6,1.3s2.1,0.4,3.2,0.4
				c0.9,0,1.8-0.1,2.8-0.3c0.9-0.2,1.8-0.6,2.5-1s1.4-1.1,1.8-1.9c0.5-0.8,0.7-1.7,0.7-2.7s-0.2-1.8-0.5-2.5
				c-0.4-0.7-0.9-1.2-1.5-1.6s-1.3-0.8-2.1-1c-0.8-0.3-1.6-0.5-2.4-0.7s-1.6-0.4-2.4-0.5c-0.8-0.1-1.5-0.4-2.1-0.6s-1.1-0.6-1.5-0.9
				c-0.4-0.4-0.5-0.9-0.5-1.5c0-0.7,0.1-1.2,0.4-1.6c0.3-0.4,0.6-0.8,1-1.1c0.4-0.3,0.9-0.5,1.4-0.6s1.1-0.2,1.7-0.2
				c1.4,0,2.5,0.3,3.4,1C88,110.8,88.5,111.8,88.7,113.3L88.7,113.3z M95.3,107.4v20.1h14v-2.3H98v-7h10.4v-2.3H98v-6.4h11.2v-2.3
				H95.3V107.4z"/>
		</g>
	</g>
</g>
</svg>
