<?xml version="1.0" encoding="utf-8"?>
<!-- Generator: Adobe Illustrator 19.2.0, SVG Export Plug-In . SVG Version: 6.00 Build 0)  -->
<svg version="1.1" id="Layer_1" xmlns="http://www.w3.org/2000/svg" xmlns:xlink="http://www.w3.org/1999/xlink" x="0px" y="0px"
	 viewBox="0 0 123.4 36.8" style="enable-background:new 0 0 123.4 36.8;" xml:space="preserve">
<style type="text/css">
	.st0{fill:#E00000;}
	.st1{fill:#404040;}
	.st2{fill:#DEA933;}
</style>
<g>
	<path class="st0" d="M10.6,11.5V1.4L6.3,11.5h-1L1.1,1.4v10.1H0V0.2h1.8l4.1,9.6L10,0.2h1.8v11.3H10.6z"/>
	<path class="st0" d="M22.8,11.5l-1.6-3.8h-5.3l-1.6,3.8H13l4.8-11.3h1.3L24,11.5H22.8z M18.5,1.5l-2.2,5.2h4.4L18.5,1.5z"/>
	<path class="st0" d="M27.2,1.2v10.3h-1.1V1.2h-2.6v-1h6.3v1H27.2z"/>
	<path class="st0" d="M39,11.5l-1.6-3.8h-5.3l-1.6,3.8h-1.2l4.8-11.3h1.3l4.9,11.3H39z M34.8,1.5l-2.2,5.2H37L34.8,1.5z"/>
	<path class="st0" d="M41.6,11.5V0.2h1.1v10.3h4.7v1H41.6z"/>
	<path class="st0" d="M57.9,11.5l-1.6-3.8H51l-1.6,3.8h-1.2L53,0.2h1.3l4.9,11.3H57.9z M53.7,1.5l-2.2,5.2h4.4L53.7,1.5z"/>
	<path class="st0" d="M68.3,11.5l-6.7-9.9v9.9h-1.1V0.2H62l6.3,9.4V0.2h1.1v11.3H68.3z"/>
	<path class="st0" d="M72.2,11.5V9.6h1.1v1.9H72.2z"/>
	<path class="st0" d="M81.5,11.7c-3.4,0-5.9-2.5-5.9-5.8C75.5,2.5,78,0,81.4,0c2.3,0,4.3,1.2,5.2,3.1h-1.3C84.4,1.6,83,1,81.4,1
		c-2.7,0-4.8,2.1-4.8,4.8c0,2.6,2.2,4.8,4.8,4.8c1.6,0,2.7-0.6,3.9-2.1h1.3C85.5,10.6,83.8,11.7,81.5,11.7z"/>
	<path class="st0" d="M93.6,11.7c-3.3,0-6-2.6-6-5.9c0-3.1,2.7-5.8,6-5.8c3.3,0,6,2.6,6,5.9C99.6,9,96.9,11.7,93.6,11.7z M93.6,1
		c-2.6,0-4.8,2.2-4.8,4.8c0,2.7,2.2,4.8,4.8,4.8c2.6,0,4.8-2.2,4.8-4.8C98.4,3.2,96.2,1,93.6,1z"/>
	<path class="st0" d="M101.8,11.5V9.6h1.1v1.9H101.8z"/>
	<path class="st0" d="M109.5,11.7c-2.3,0-3.8-1.4-3.8-4.4v-7h1.1v7c0,2.3,0.9,3.4,2.7,3.4c1.7,0,2.7-1.1,2.7-3.4v-7h1.1v7
		C113.3,10.3,111.8,11.7,109.5,11.7z"/>
	<path class="st0" d="M122,11.5l-3.8-4.9l-1.5,1.8v3.1h-1.1V0.2h1.1v6.5l5.2-6.5h1.4l-4.5,5.5l4.5,5.8H122z"/>
</g>
<g>
	<path class="st1" d="M17.8,33.5V22.2H19v11.3H17.8z"/>
	<path class="st1" d="M24,33.7c-2,0-3.4-1.3-3.5-3.4h1.2c0.2,1.5,1.1,2.3,2.4,2.3c1.3,0,2.2-0.9,2.2-2.2c0-1.2-0.6-1.8-2.5-2.4
		c-1.3-0.4-1.7-0.6-2.1-1c-0.5-0.5-0.8-1.2-0.8-2c0-1.8,1.3-3,3.1-3c1.8,0,3.2,1.2,3.2,3.1h-1.2c0-1.2-0.9-2-2-2c-1.1,0-2,0.8-2,2
		c0,0.5,0.2,1,0.5,1.3c0.3,0.3,0.6,0.4,1.7,0.7c1.2,0.4,1.6,0.6,2.1,0.9c0.7,0.5,1.1,1.4,1.1,2.4C27.4,32.3,25.9,33.7,24,33.7z"/>
	<path class="st1" d="M35.8,33.7c-2,0-3.4-1.3-3.5-3.4h1.2c0.2,1.5,1.1,2.3,2.4,2.3c1.3,0,2.2-0.9,2.2-2.2c0-1.2-0.6-1.8-2.5-2.4
		c-1.3-0.4-1.7-0.6-2.1-1c-0.5-0.5-0.8-1.2-0.8-2c0-1.8,1.3-3,3.1-3c1.8,0,3.2,1.2,3.2,3.1h-1.2c0-1.2-0.9-2-2-2c-1.1,0-2,0.8-2,2
		c0,0.5,0.2,1,0.5,1.3c0.3,0.3,0.6,0.4,1.7,0.7c1.2,0.4,1.6,0.6,2.1,0.9c0.7,0.5,1.1,1.4,1.1,2.4C39.2,32.3,37.8,33.7,35.8,33.7z"/>
	<path class="st1" d="M40.7,33.5V22.2h6.2v1h-5v4h4.9v1h-4.9v4.2h5v1H40.7z"/>
	<path class="st1" d="M54.3,33.7c-3.4,0-5.9-2.5-5.9-5.8c0-3.4,2.5-5.9,5.9-5.9c2.3,0,4.3,1.2,5.2,3.1h-1.3c-1-1.5-2.3-2.1-3.9-2.1
		c-2.7,0-4.8,2.1-4.8,4.8c0,2.6,2.2,4.8,4.8,4.8c1.6,0,2.7-0.6,3.9-2.1h1.3C58.4,32.6,56.6,33.7,54.3,33.7z"/>
	<path class="st1" d="M65.1,33.7c-2.3,0-3.8-1.4-3.8-4.4v-7h1.1v7c0,2.3,0.9,3.4,2.7,3.4c1.7,0,2.7-1.1,2.7-3.4v-7H69v7
		C69,32.3,67.4,33.7,65.1,33.7z"/>
	<path class="st1" d="M75.6,29.3l3.2,4.2h-1.4l-3.8-5.1c3.2,0,4.2-0.5,4.2-2.6c0-1.9-1.2-2.6-3.8-2.6h-1.6v10.3h-1.1V22.2h2.8
		c3.5,0,4.9,1.3,4.9,3.6C79,27.8,77.8,29,75.6,29.3z"/>
	<path class="st1" d="M80.6,33.5V22.2h6.2v1h-5v4h4.9v1h-4.9v4.2h5v1H80.6z"/>
</g>
<g>
	<g>
		<path class="st1" d="M104.3,30.8H93.3v-9c0-3.1,2.5-5.5,5.5-5.5c3.1,0,5.5,2.5,5.5,5.5V30.8z M95.3,28.7h6.9v-6.9
			c0-1.9-1.6-3.5-3.5-3.5c-1.9,0-3.5,1.6-3.5,3.5V28.7z"/>
	</g>
	<g>
		<path class="st2" d="M104.9,36.8H92.7c-0.9,0-1.7-0.8-1.7-1.7v-8.2c0-0.9,0.8-1.7,1.7-1.7h12.2c0.9,0,1.7,0.8,1.7,1.7v8.2
			C106.6,36.1,105.8,36.8,104.9,36.8z"/>
	</g>
</g>
</svg>
