<?xml version="1.0" encoding="utf-8"?>
<!-- Generator: Adobe Illustrator 19.2.0, SVG Export Plug-In . SVG Version: 6.00 Build 0)  -->
<svg version="1.1" id="Layer_1" xmlns="http://www.w3.org/2000/svg" xmlns:xlink="http://www.w3.org/1999/xlink" x="0px" y="0px"
	 viewBox="0 0 5715.5 3364.6" style="enable-background:new 0 0 5715.5 3364.6;" xml:space="preserve">
<style type="text/css">
	.st0{fill:none;stroke:#000000;stroke-width:0.9921;stroke-miterlimit:10;}
</style>
<rect x="-4100.5" y="1552.7" style="fill:none;" width="1285" height="555"/>
<text transform="matrix(1 0 0 1 -3524.0789 1613.0833)"><tspan x="0" y="0" style="font-family:'DomaineDispCond-BoldItalic'; font-size:85.0394px;">The</tspan><tspan x="-296.8" y="204.1" style="font-family:'DomaineDispCondBlack'; font-size:170.0787px; letter-spacing:47;">MONO</tspan><tspan x="376.7" y="204.1" style="font-family:'DomaineDispCondBlack'; font-size:170.0787px; letter-spacing:47;">-</tspan><tspan x="-372.3" y="408.2" style="font-family:'DomaineDispCondBlack'; font-size:170.0787px; letter-spacing:47;">CHROME</tspan></text>
<g>
	<path d="M468.3,4537c3.8,0,6.2-0.2,8.1-1l-6.1,30.1H470c-1.8-18.1-4.6-26.5-14.9-26.5h-0.9l-16.3,64.9c-0.6,2.5-0.9,4.5-0.9,6
		c0,3.2,1.4,4.8,4.3,7v0.2h-33.8v-0.2c6-3.2,8-5.4,9.8-13l16.3-64.9h-0.8c-9.2,0-16.3,8.4-28.1,26.5h-0.2l8.8-30.1
		c1.4,0.8,3.9,1,7.6,1H468.3z"/>
	<path d="M482.5,4617.7h-18.6l18.3-73.8c0.9-3.7,1.5-5.9,1.5-7.5c0-2.1-0.8-3.5-2.4-4.8v-0.2h22.7l-10.6,42.7
		c4.6-9.2,9.8-14.5,17.8-14.5c7.7,0,11.1,5.1,11.1,11.8c0,2-0.2,4.2-0.8,6.2l-7.4,29.8c-0.2,0.8-0.3,1.5-0.3,2.2
		c0,2,0.9,3.2,2.9,3.2c0.8,0,1.7-0.2,2.9-0.9v0.2c-3.5,5-8,6.9-12.9,6.9c-7.6,0-11-4.5-11-10.6c0-1.6,0.3-3.2,0.7-5l6.6-26.3
		c0.5-1.6,0.8-3.1,0.8-4.3c0-1.8-0.8-3.1-2.9-3.1c-3.7,0-7.5,4.7-10,14.8L482.5,4617.7z"/>
	<path d="M523.8,4597.8c0-18.3,15.1-38.4,34.8-38.4c9.5,0,14.2,4.8,14.2,11.7c0,12.9-14,18.5-30.1,19.1c-0.3,2.3-0.6,4.5-0.6,6.6
		c0,9.2,4.4,13.7,10.5,13.7c5.2,0,8.8-2.5,13.2-8.3h0.7c-4.8,11.2-13.2,16.7-23.2,16.7C531.9,4618.9,523.8,4611.6,523.8,4597.8z
		 M543,4588.4c9.7-3,17-14.2,17-23.3c0-2.3-0.8-3.7-2.3-3.7C552.5,4561.4,545.5,4575.6,543,4588.4z"/>
</g>
<g>
	<path d="M-512.4,4944.4v0.5h-32.3v-0.5c7.4-6.2,10.6-15.9,10.6-31.4v-102.4c0-15.2-0.7-20.1-8.1-26.8v-0.5h62.5l20.1,66.4
		l19.4-66.4h61.1v0.5c-7.4,6.7-8.3,11.5-8.3,26.8v107c0,15.2,1.2,20.1,8.5,26.8v0.5h-69.9v-0.5c7.4-6.7,8.3-11.5,8.3-26.8v-109.8
		l-41.5,139.6h-0.9l-43.4-139.8v93.7C-526.3,4929.4-523,4937.5-512.4,4944.4z"/>
	<path d="M-235.8,4947.2c-44.1,0-73.6-34.6-73.6-83.1c0-48.4,29.5-83.1,73.6-83.1s73.6,34.6,73.6,83.1
		C-162.2,4912.6-191.8,4947.2-235.8,4947.2z M-235.8,4785.2c-12.3,6.3-16.4,27.5-16.4,78.9c0,51.4,2.5,78.9,16.4,78.9
		c13.8,0,14.8-27.5,16.4-78.9C-217.4,4797.2-221,4777.6-235.8,4785.2z"/>
	<path d="M27.9,4815.2v129.9H4.1l-80.7-137.3v93.4c0,28.1,3.2,36.2,13.8,43.1v0.5h-32.3v-0.5c7.4-6.2,10.6-15.9,10.6-31.4v-102.4
		c0-15.2-0.7-20.1-8.1-26.8v-0.5h64.4l48.2,82.4V4827c0-28.1-3.2-36.2-13.8-43.1v-0.5h32.3v0.5C31.1,4790.1,27.9,4799.8,27.9,4815.2
		z"/>
	<path d="M179.2,4947.2c-44.1,0-73.6-34.6-73.6-83.1c0-48.4,29.5-83.1,73.6-83.1s73.6,34.6,73.6,83.1
		C252.8,4912.6,223.3,4947.2,179.2,4947.2z M179.2,4785.2c-13.8,0-16.4,27.5-16.4,78.9c0,51.4,2.5,78.9,16.4,78.9
		s16.4-27.5,16.4-78.9C195.6,4812.7,193.1,4785.2,179.2,4785.2z"/>
	<g>
		<path d="M454.3,4840.1h-0.9c-12-29.5-22.4-54.2-39.7-54.2s-25.6,31.1-25.6,66.7c0,43.1,14.3,68.3,36.7,68.3c12,0,24-5.5,30.9-24.7
			l1.6,0.5c-3.9,30.9-26.8,50.5-56.3,50.5c-40.1,0-69.4-31.6-69.4-77.5c0-55.4,35.3-88.6,78-88.6c15.7,0,24.5,5.5,31.8,5.5
			c4.8,0,7.4-0.9,11.8-5.5L454.3,4840.1z"/>
		<path d="M540,4810.6c0-15.2-0.7-20.1-8.1-26.8v-0.5h69.4v0.5c-7.4,6.7-8.1,11.5-8.1,26.8v46.4h29.1v-46.4
			c0-15.2-0.7-20.1-8.1-26.8v-0.5h69.4v0.5c-7.4,6.7-8.1,11.5-8.1,26.8v107c0,15.2,0.7,20.1,8.1,26.8v0.5h-69.4v-0.5
			c7.4-6.7,8.1-11.5,8.1-26.8v-53.3h-29.1v53.3c0,15.2,0.7,20.1,8.1,26.8v0.5H532v-0.5c7.4-6.7,8.1-11.5,8.1-26.8V4810.6z"/>
		<path d="M838.1,4783.4c35.3,0,60.7,12.5,60.7,43.8c0,26.3-23.5,39.2-51.4,39.2c24.9,1.2,42.2,10.6,44.8,32.1l2.3,17.8
			c1.6,14.8,4.8,21.2,16.4,28.1v0.5H848c-4.2-7.4-5.3-14.8-6.2-24.9l-3-33c-0.9-11.1-6.9-16.6-16.8-16.6h-3.2v47.3
			c0,15.2,0.7,20.1,8.3,26.8v0.5h-69.7v-0.5c7.4-6.7,8.1-11.5,8.1-26.8v-107c0-15.2-0.7-20.1-8.1-26.8v-0.5H838.1z M818.7,4864.3
			h3.2c14.5,0,23.1-15.7,23.1-37.4c0-21.7-8.3-37.4-23.1-37.4h-3.2V4864.3z"/>
		<path d="M1043.9,4947.2c-44.1,0-73.6-34.6-73.6-83.1c0-48.4,29.5-83.1,73.6-83.1c44.1,0,73.6,34.6,73.6,83.1
			C1117.5,4912.6,1088,4947.2,1043.9,4947.2z M1043.9,4785.2c-13.8,0-16.4,27.5-16.4,78.9c0,51.4,2.5,78.9,16.4,78.9
			s16.4-27.5,16.4-78.9C1060.3,4812.7,1057.7,4785.2,1043.9,4785.2z"/>
		<path d="M1216.9,4944.4v0.5h-32.3v-0.5c7.4-6.2,10.6-15.9,10.6-31.4v-102.4c0-15.2-0.7-20.1-8.1-26.8v-0.5h62.5l20.1,66.4
			l19.4-66.4h61.1v0.5c-7.4,6.7-8.3,11.5-8.3,26.8v107c0,15.2,1.2,20.1,8.5,26.8v0.5h-69.9v-0.5c7.4-6.7,8.3-11.5,8.3-26.8v-109.8
			l-41.5,139.6h-0.9l-43.4-139.8v93.7C1203.1,4929.4,1206.3,4937.5,1216.9,4944.4z"/>
		<path d="M1511.3,4783.4c9.2,0,14.8-0.7,18.2-2.3l5.5,49.1h-0.5c-12.2-24.7-22.8-41.1-51-41.1h-3.7v68.3h3.2
			c18.7,0,24.9-5.3,31.8-26.8h0.5v58.8h-0.5c-6.9-21.2-13.2-26.3-31.8-26.3h-3.2v75.9h4.6c28.4,0,40.4-18.7,53.1-45.4h0.5l-5.1,51.2
			h-114.4v-0.5c7.4-6.7,8.1-11.5,8.1-26.8v-107c0-15.2-0.7-20.1-8.1-26.8v-0.5H1511.3z"/>
	</g>
</g>
<g>
	<path d="M294.1,5170.5c0,12.3,4.2,17.6,11.7,17.6c6.8,0,13.2-5.2,19.1-16.4l0.7,0.2c-5.4,15.2-15.7,24.9-29.6,24.9
		c-14.6,0-23.4-11.4-23.4-27.8c0-27.5,18.8-55.3,44.2-55.3c7.5,0,10.7,3,14.3,3c2.4,0,4.3-0.8,6.5-3l-6.5,28.8h-0.5
		c-1.2-14.2-3.7-26.3-11.8-26.3C305.1,5116.4,294.1,5151.5,294.1,5170.5z"/>
	<path d="M363.4,5137.5c11,0,19.8,8,19.8,21.7c0,18.3-13.3,37.7-33.6,37.7c-11.1,0-20-8-20-21.7
		C329.7,5156.9,343.1,5137.5,363.4,5137.5z M363,5139.5c-4.7,0-8.8,10.5-12.8,27.9c-2.3,9.5-3.6,16.3-3.6,20.5c0,4.8,1.2,7,3.3,7
		c4.6,0,8.7-10.5,12.8-28c2.2-9.3,3.5-16.1,3.5-20.4C366.3,5141.6,365.2,5139.5,363,5139.5z"/>
	<path d="M399.7,5121.9c0.9-3.6,1.4-5.8,1.4-7.4c0-2.2-0.7-3.5-2.3-5v-0.2h22.7l-18.9,75.9c-0.2,0.8-0.3,1.5-0.3,2.2
		c0,2,1,3.2,2.9,3.2c0.8,0,1.7-0.2,2.9-0.9l0.1,0.2c-3.6,5-8.1,6.9-13,6.9c-7.6,0-10.8-4.5-10.8-10.6c0-1.6,0.2-3.2,0.6-5
		L399.7,5121.9z"/>
	<path d="M427.9,5121.9c0.9-3.6,1.4-5.8,1.4-7.4c0-2.2-0.7-3.5-2.3-5v-0.2h22.7l-18.9,75.9c-0.2,0.8-0.3,1.5-0.3,2.2
		c0,2,1,3.2,2.9,3.2c0.8,0,1.7-0.2,2.9-0.9l0.1,0.2c-3.6,5-8.1,6.9-13,6.9c-7.6,0-10.8-4.5-10.8-10.6c0-1.6,0.2-3.2,0.6-5
		L427.9,5121.9z"/>
	<path d="M440.9,5175.8c0-18.3,15.1-38.4,34.8-38.4c9.5,0,14.2,4.8,14.2,11.7c0,12.9-14,18.5-30.1,19.1c-0.3,2.3-0.6,4.5-0.6,6.6
		c0,9.2,4.4,13.7,10.5,13.7c5.2,0,8.8-2.5,13.2-8.3h0.7c-4.8,11.2-13.2,16.7-23.2,16.7C449,5196.9,440.9,5189.6,440.9,5175.8z
		 M460.2,5166.4c9.7-3,17-14.2,17-23.3c0-2.3-0.8-3.7-2.3-3.7C469.6,5139.5,462.6,5153.6,460.2,5166.4z"/>
	<path d="M536.3,5149.4c0,7.2-5.3,11.7-11.2,11.7c-3.8,0-7.5-2.4-7.8-6.5c0.6,0.2,1.3,0.3,2.1,0.3c3.9,0,7-5,7-10.4
		c0-3.1-0.7-5.1-3.2-5.1c-7,0-16.4,19.8-16.4,34.5c0,9.2,3.7,14.3,9.7,14.3c5.7,0,8.9-2.9,12.2-8.4h0.7
		c-3.2,11.1-11.9,17.1-22.1,17.1c-10.6,0-18.9-7.4-18.9-21.2c0-19,14.8-38.3,34.3-38.3C531.4,5137.4,536.3,5142.5,536.3,5149.4z"/>
	<path d="M553.1,5181.9c-0.2,0.8-0.3,1.6-0.3,2.4c0,3.3,2.2,5.3,5,5.3c1.8,0,4.3-1,6.5-3.1l0.1,0.2c-4.3,6.8-9.9,10.2-17.2,10.2
		c-8.3,0-12.7-4.8-12.7-12.3c0-1.7,0.3-3.7,0.8-5.7l9.3-37.4h-4.2l0.3-1.5c12-3.1,19.7-9.8,27.1-21.5h1l-5,20.1h10.8l-1.3,2.9h-10.4
		L553.1,5181.9z"/>
	<path d="M586,5185.3c-0.1,0.8-0.2,1.5-0.2,2.2c0,2,0.9,3.2,2.8,3.2c0.8,0,1.8-0.2,3-0.9v0.2c-3.6,5-8.1,6.9-13,6.9
		c-7.5,0-10.7-4.5-10.7-10.6c0-1.6,0.1-3.2,0.6-5l7.4-30.1c0.9-3.7,1.5-5.9,1.5-7.5c0-2.1-0.7-3.5-2.4-4.8v-0.2h22.8L586,5185.3z
		 M592.4,5111c5.9,0,10,4.3,10,9.8c0,6.1-4.8,11.1-11.1,11.1c-5.9,0-10-4.3-10-9.8C581.3,5115.8,586.1,5111,592.4,5111z"/>
	<path d="M630.1,5137.5c11,0,19.8,8,19.8,21.7c0,18.3-13.3,37.7-33.6,37.7c-11.1,0-20-8-20-21.7
		C596.4,5156.9,609.8,5137.5,630.1,5137.5z M629.7,5139.5c-4.7,0-8.8,10.5-12.8,27.9c-2.3,9.5-3.6,16.3-3.6,20.5c0,4.8,1.2,7,3.3,7
		c4.6,0,8.7-10.5,12.8-28c2.2-9.3,3.5-16.1,3.5-20.4C633,5141.6,631.9,5139.5,629.7,5139.5z"/>
	<path d="M665,5195.7h-18.7l11.1-44.5c0.8-3.7,1.4-5.9,1.4-7.5c0-2.1-0.7-3.5-2.3-4.8v-0.2h22.7l-3.3,13.4
		c4.6-9.2,9.8-14.5,17.8-14.5c7.7,0,11.1,5.1,11.1,11.8c0,2-0.2,4.2-0.8,6.2l-7.4,29.8c-0.2,0.8-0.3,1.5-0.3,2.2c0,2,1,3.2,2.9,3.2
		c0.8,0,1.7-0.2,2.9-0.9l0.1,0.2c-3.6,5-8.1,6.9-13,6.9c-7.6,0-11-4.5-11-10.6c0-1.6,0.3-3.2,0.7-5l6.6-26.3
		c0.5-1.6,0.8-3.1,0.8-4.3c0-1.8-0.8-3.1-2.9-3.1c-3.7,0-7.4,4.7-9.9,14.8L665,5195.7z"/>
</g>
<rect x="-4211.5" y="2688.2" style="fill:none;" width="1285" height="555"/>
<text transform="matrix(1 0 0 1 -3635.0793 2748.5764)"><tspan x="0" y="0" style="font-family:'DomaineDispCond-BoldItalic'; font-size:85.0394px;">The</tspan><tspan x="-494.8" y="204.1" style="font-family:'DomaineDispCondBlack'; font-size:170.0787px;">MONOCHROME</tspan><tspan x="-112.5" y="306.1" style="font-family:'DomaineDispCond-BoldItalic'; font-size:85.0394px;">Collecti</tspan><tspan x="152.4" y="306.1" style="font-family:'DomaineDispCond-BoldItalic'; font-size:85.0394px; letter-spacing:-1;">o</tspan><tspan x="197.4" y="306.1" style="font-family:'DomaineDispCond-BoldItalic'; font-size:85.0394px;">n</tspan></text>
<rect x="-4211.5" y="3729.3" style="fill:none;" width="1285" height="555"/>
<text transform="matrix(1 0 0 1 -3638.821 3789.6807)" style="font-family:'AkzidenzGrotesk-Black'; font-size:85.0394px;">THE</text>
<rect x="-4345.2" y="121.4" style="fill:none;" width="1285" height="555"/>
<text transform="matrix(1 0 0 1 -3834.8088 242.1588)"><tspan x="0" y="0" style="font-family:'DomaineDispCondBlack-Italic'; font-size:170.0787px;">The</tspan><tspan x="-428.8" y="204.1" style="font-family:'DomaineDispCondBlack-Italic'; font-size:170.0787px;">MONOCHROME</tspan><tspan x="-225" y="408.2" style="font-family:'DomaineDispCondBlack-Italic'; font-size:170.0787px;">Collecti</tspan><tspan x="304.8" y="408.2" style="font-family:'DomaineDispCondBlack-Italic'; font-size:170.0787px; letter-spacing:-3;">o</tspan><tspan x="394.7" y="408.2" style="font-family:'DomaineDispCondBlack-Italic'; font-size:170.0787px;">n</tspan></text>
<g>
	<path d="M2365.1,1972.9c0.7-28.8,24.9-50.1,52-48.5c26.6,1.5,47.9,23.7,46.6,52.2c-1.3,27.2-24.5,48.3-52,46.8
		C2385.3,2021.9,2364.6,1999.8,2365.1,1972.9z M2384.1,1974c0,1.5,0,2.9,0,4.4c0.3,9.5,1.4,18.9,5.2,27.8
		c6.6,15.3,23.6,21.5,38.2,13.8c7.3-3.8,11.1-10.3,13.6-17.7c3-8.9,3.8-18.1,3.8-27.4c0.1-9.9-0.6-19.7-3.8-29.2
		c-2.2-6.5-5.4-12.4-11.2-16.3c-14.6-9.7-33.6-3.9-40.6,12.3C2384.9,1952,2384.2,1963,2384.1,1974z"/>
	<path d="M3348.9,1974c-0.1,27.5-22,49.5-49.4,49.5c-27.1,0-49.4-22.5-49.2-49.7c0.2-27.4,22.4-49.7,49.4-49.5
		C3327.2,1924.5,3349,1946.5,3348.9,1974z M3330.3,1973.1c-0.1-2.5-0.2-5.9-0.5-9.2c-0.7-8.8-2.4-17.4-6.5-25.3
		c-9.3-17.7-32.6-16.2-41.8-7.1c-4.9,4.9-7.7,11-9.4,17.5c-2.7,10.1-3.1,20.4-2.7,30.7c0.3,8,1.4,15.8,4,23.4
		c6.5,18.9,22.3,22.6,36.1,18.2c9.1-2.9,13.8-10.2,16.8-18.7C3329.5,1993.3,3330.1,1983.7,3330.3,1973.1z"/>
	<path d="M3484.4,1926.7c0,32.3,0,64.5,0,97.2c-26.5-26.1-52.6-51.9-79.2-78.1c0,25.7,0,50.8,0,75.9c-0.2,0-0.4,0-0.5,0
		c0-32.4,0-64.7,0-97.8c26.6,25.9,52.8,51.4,79.3,77.2c0-25.2,0-49.8,0-74.5C3484.1,1926.7,3484.3,1926.7,3484.4,1926.7z"/>
	<path d="M2775.2,1925.8c22.3,0,44.5,0,66.7,0c0,0.1,0,0.2,0,0.3c-16.5,0-33.1,0-49.8,0c0,15.2,0,30.2,0,45.5c12.1,0,24.1,0,36.1,0
		c0,0.1,0,0.3,0,0.4c-12,0-24,0-36.1,0c0,16.6,0,32.9,0,49.6c17.3,0,34.6,0,51.8,0c0,0.1,0,0.3,0,0.4c-22.8,0-45.7,0-68.7,0
		C2775.2,1990,2775.2,1958,2775.2,1925.8z"/>
	<path d="M3054.9,2022c0-31.9,0-63.7,0-95.7c-12.3,0-24.4,0-36.5,0c0-0.2,0-0.3,0-0.5c29.8,0,59.7,0,89.5,0c0,0.1,0,0.2,0,0.3
		c-12,0-24,0-36.3,0c0,32.1,0,63.9,0,95.8C3066,2022,3060.6,2022,3054.9,2022z"/>
	<path d="M2722.8,2022c-22.1,0-44.2,0-66.4,0c0-32,0-64.1,0-96.2c5.4,0,10.8,0,16.6,0c0,31.8,0,63.7,0,95.7c16.8,0,33.3,0,49.8,0
		C2722.8,2021.7,2722.8,2021.8,2722.8,2022z"/>
	<path d="M3165,1925.8c5.6,0,11,0,16.6,0c0,32.1,0,64.1,0,96.2c-5.5,0-10.9,0-16.6,0C3165,1990,3165,1958,3165,1925.8z"/>
	<path d="M2317.9,1949.6c-1.9-3.5-3.3-6.7-5.3-9.7c-10.3-15.2-32.8-19-46.5-7.9c-6.6,5.4-10.3,12.7-12.3,20.8
		c-3.7,15.2-3.7,30.5,0.9,45.5c2.5,8.2,7,15.2,14.5,19.7c8.6,5.1,17.8,4.9,27,2c5.9-1.8,11-5,15.3-9.5c-0.7,0.8-1.3,1.6-2,2.3
		c-7.4,7.4-16.7,10.4-26.8,10.6c-17.3,0.3-31.5-6-41.7-20.3c-5.9-8.2-8.4-17.6-8.6-27.6c-0.2-12,2.7-23.1,10.2-32.6
		c11-13.9,25.7-19.8,43.2-18.4c9.8,0.7,18.3,4.5,25,12C2314,1940,2316.8,1945.1,2317.9,1949.6z"/>
	<path d="M2971.4,1935.8c-4.2-3.6-8.6-6.7-14-8.4c-17.2-5.5-33,2-39.7,18.9c-4,10-4.9,20.4-4.6,31.1c0.3,9.1,1.5,17.9,5.4,26.3
		c8.5,18.4,26.2,21.7,41.8,15.6c8.9-3.5,15.1-10,18.5-18.9c0.2-0.6,0.5-1.2,1.2-1.7c-0.2,0.5-0.3,1.1-0.6,1.6
		c-4.7,11.9-13.5,19.4-25.9,22c-16.4,3.4-31.4,0-44-11.3c-9.8-8.7-14.5-20-15.3-33c-0.7-10.7,1.2-20.9,6.8-30.1
		c9.9-16.1,24.5-23.6,43.1-23.4c9.7,0.1,18.5,3,25.8,9.6c0.5,0.5,0.9,1.1,1.4,1.7L2971.4,1935.8z"/>
	<path d="M2529,2022c0-32.1,0-64,0-96.1c5.5,0,10.9,0,16.5,0c0,31.8,0,63.6,0,95.7c16.8,0,33.4,0,49.9,0c0,0.1,0,0.3,0,0.4
		C2573.4,2022,2551.3,2022,2529,2022z"/>
</g>
<g>
	<path d="M2886.3,1279.8c0-17.3,0-34.4,0-51.7c-18.7,0-37.2,0-56,0c0,17.2,0,34.4,0,51.7c-6,0-11.7,0-17.5,0c0-33.3,0-66.6,0-100
		c5.7,0,11.4,0,17.4,0c0,15.8,0,31.6,0,47.5c18.8,0,37.3,0,56,0c0-15.8,0-31.5,0-47.4c5.9,0,11.7,0,17.5,0c0,33.3,0,66.5,0,99.9
		C2898,1279.8,2892.3,1279.8,2886.3,1279.8z"/>
	<path d="M2991.7,1227.5c12.7,0,25.2,0,37.6,0c0,0.1,0,0.3,0,0.4c-12.5,0-25.1,0-37.7,0c0,17.3,0,34.3,0,51.5c18.1,0,36,0,54,0
		c0,0.1,0,0.3,0,0.4c-23.7,0-47.5,0-71.4,0c0-33.2,0-66.5,0-100c23,0,46,0,69,0c0,0.1,0,0.2,0,0.3c-17.1,0-34.3,0-51.6,0
		C2991.7,1196.1,2991.7,1211.6,2991.7,1227.5z"/>
	<path d="M2763,1180.2c-12.5,0-24.9,0-37.7,0c0,33.3,0,66.4,0,99.6c-5.9,0-11.5,0-17.4,0c0-33.1,0-66.1,0-99.5c-12.8,0-25.4,0-38,0
		c0-0.2,0-0.3,0-0.5c31,0,62,0,93.1,0C2762.9,1180,2762.9,1180.1,2763,1180.2z"/>
</g>
<g>
	<path d="M3775.8,1703c0-69.5,0-139,0-208.9c12.4,0,24.6-0.1,36.7,0.2c1.3,0,3,2.1,3.7,3.7c13.3,29,26.6,58.1,39.8,87.1
		c10.7,23.5,21.4,46.9,32.1,70.4c0.5,1.2,1.2,2.2,2.3,4c5-12.7,9.8-24.7,14.5-36.7c16.3-41.6,32.6-83.3,49.1-124.9
		c0.6-1.5,2.4-3.6,3.6-3.7c11.3-0.3,22.6-0.2,34.3-0.2c0,70,0,139.7,0,209.7c-11.8,0-23.5,0-35.7,0c0-68.5,0-136.9,0-205.3
		c-0.3-0.1-0.7-0.2-1-0.2c-27.3,69.6-54.7,139.2-82.6,210.2c-31.9-70.8-63.3-140.2-94.6-209.7c-0.3,0.1-0.6,0.1-0.9,0.2
		c0,68,0,136,0,204C3776.6,1703.1,3776.2,1703,3775.8,1703z"/>
	<path d="M1556.5,1659.8c7.7-19.6,15-38.1,22.3-56.7c13.8-35.1,27.5-70.3,41.4-105.4c0.6-1.5,2.8-3.4,4.3-3.5
		c11-0.3,22-0.2,33.4-0.2c0,69.9,0,139.6,0,209.7c-11.7,0-23.5,0-35.7,0c0-68.1,0-136.1,0-204.2c-0.4-0.1-0.9-0.2-1.3-0.3
		c-27.2,69.2-54.4,138.4-82.2,209.3c-32-70.9-63.3-140.4-94.7-210c-0.3,0.1-0.7,0.1-1,0.2c0,68.1,0,136.3,0,204.4
		c-0.3,0-0.6,0-0.9,0c0-69.5,0-139,0-209c12.4,0,24.7-0.1,36.9,0.2c1.3,0,3,2.7,3.8,4.4c15.7,34.2,31.3,68.4,46.8,102.6
		c7.9,17.3,15.7,34.5,23.6,51.8C1554.2,1655.1,1555.1,1657,1556.5,1659.8z"/>
	<path d="M2931,1596.2c39.7,0,78.5,0,117.9,0c0-33.2,0-66.2,0-99.6c12.3,0,24.1,0,36.2,0c0,69.6,0,139.3,0,209.4
		c-11.9,0-23.7,0-36,0c0-36.1,0-72,0-108.3c-39.4,0-78.4,0-117.8,0c0,36.1,0,72,0,108.3c-12.2,0-23.9,0-36,0c0-69.6,0-139.3,0-209.3
		c11.7,0,23.4,0,35.8,0C2931,1529.6,2931,1562.7,2931,1596.2z"/>
	<path d="M3201.2,1496.3c29,0,57.6-0.2,86.3,0.1c9.1,0.1,18.3,0.7,27.4,2c15.7,2.3,30.4,7.3,42.3,18.6c18.2,17.4,21.6,54.7-8.1,74.5
		c-14.1,9.4-29.8,13.6-46.6,15.8c1.6,0.3,3.1,0.7,4.7,1c14.6,2.8,28.9,6.7,38.9,18.4c5.1,5.9,8.7,13.3,11.7,20.6
		c5.3,13.1,9.3,26.7,14.5,39.8c2.7,6.6,2.8,14.9,6.6,21.5c-12.3,0-20.6-2.1-33-2.4c-1.3,0-3.3-1.7-3.9-3.1
		c-4.2-9.4-8.3-18.8-11.9-28.4c-4.5-12.1-8.4-24.5-12.8-36.7c-6.9-19.1-20.1-29.7-40.8-30.1c-12.8-0.2-25.5,0-38.9,0
		c0,32.9,0,65.5,0,98.3c-12.3,0-24.1,0-36.2,0C3201.2,1636.3,3201.2,1566.6,3201.2,1496.3z M3237.8,1497.5c0,36.5,0,72.5,0,108.6
		c16.1,0,31.7,0.7,47.3-0.2c16.2-0.9,30.6-6.5,39.8-21.2c8.8-14.1,9.4-29.6,7.1-45.4c-3.4-22.9-16.1-36.3-38.7-40.3
		c-8.6-1.5-17.6-1.4-26.3-1.6C3257.3,1497.3,3247.7,1497.5,3237.8,1497.5z"/>
	<path d="M2319.2,1600.8c-0.1-59,48.4-107.5,107.4-107.5c59.2,0,107,47.8,107.3,107.5c0.3,60-47.7,108.5-107.3,108.5
		C2367.1,1709.3,2319.2,1660.9,2319.2,1600.8z M2360.5,1601.4c0,3.8-0.1,7.7,0,11.5c0.6,20.3,3.4,40.1,11.4,59
		c14.8,34.9,56.7,47.6,88.1,26.6c12.8-8.5,19.8-21.3,24.6-35.5c8.1-23.9,8.9-48.7,8.1-73.5c-0.5-18.2-3-36.1-9.3-53.4
		c-15-40.9-50-47.3-78.6-37.9c-18.6,6.1-28.6,20.8-35.1,38.3C2361.8,1557.5,2360.4,1579.4,2360.5,1601.4z"/>
	<path d="M1963,1601.4c-0.3,60-48.2,108.1-107.5,107.9c-59.4-0.2-107.3-48.8-107.1-108.4c0.2-59.7,48.9-108.2,107.8-107.6
		C1915.8,1493.9,1963.4,1542.1,1963,1601.4z M1922,1601.1c0-3.2,0.1-6.3,0-9.5c-0.7-20.7-3.2-41.1-11.5-60.5
		c-13.8-32.3-49.3-46-81.1-31.2c-17.2,8-26.5,22.6-31.7,39.8c-11.4,38.2-11.2,76.9-2.3,115.5c3.6,15.5,10.2,29.6,22.6,40.3
		c29.3,25.2,76.7,12.8,92.4-24C1920.2,1649,1921.8,1625.1,1922,1601.1z"/>
	<path d="M3688.2,1601.5c-0.1,59.8-48.1,107.9-107.5,107.9c-59.2-0.1-107.4-48.7-107.4-108.1c0-59.4,48.7-108.1,107.6-107.9
		C3640.5,1493.6,3688.3,1541.8,3688.2,1601.5z M3514.3,1600.5c0.3,18.4,1.3,36.3,5.9,53.9c3.9,14.7,9.4,28.5,20.8,39.1
		c29.1,27.1,78,16,94.2-21.2c7.6-17.4,10.6-35.7,11.5-54.4c1.4-27.1,0.5-54-8.5-79.9c-4.7-13.6-11.8-25.8-24.1-34
		c-31.3-20.7-72.6-8.2-87.8,26.6C3516.5,1553,3514.9,1576.9,3514.3,1600.5z"/>
	<path d="M2057.5,1705.3c0-70.5,0-141,0-212.8c57.8,56.2,114.7,111.7,172.5,167.9c0-55.1,0-109.1,0-163c0.3,0,0.7,0,1,0
		c0,70.4,0,140.9,0,212.6c-57.5-56.7-114.4-112.8-172.4-169.9c0,56.1,0,110.6,0,165.1C2058.3,1705.3,2057.9,1705.3,2057.5,1705.3z"
		/>
	<path d="M4269,1497.5c-36.2,0-72.4,0-109,0c0,33.1,0,65.5,0,98.6c26.4,0,52.7,0,79.1,0c0,0.4,0,0.7,0,1.1c-26.2,0-52.4,0-79,0
		c0,36,0,71.6,0,107.8c37.8,0,75.5,0,113.2,0c0,0.3,0,0.6,0,1c-49.9,0-99.7,0-149.8,0c0-69.8,0-139.4,0-209.3c48.5,0,97,0,145.5,0
		C4268.9,1496.9,4268.9,1497.2,4269,1497.5z"/>
	<path d="M2794.2,1678.7c-10.2,14.6-24.7,22.9-41.5,27.5c-42,11.3-87.5-4.5-113.1-39.6c-15.2-20.8-21-44.7-19.5-70.2
		c2.2-38.8,18.7-69.8,53-88.8c33.3-18.5,67.9-20.3,101.8-0.7c15.9,9.2,25.5,23.8,30.2,41.5c-0.7-1.7-1.4-3.3-2-5
		c-15.1-38.9-60.7-57.9-97.7-40.6c-19,8.9-30.2,24.9-36.3,44.3c-12,38.5-12.3,77.2,2.1,115.1c10.4,27.2,30.4,43.6,60.6,44
		c23.1,0.3,43.4-7.5,59.3-24.9c0.9-1,1.8-1.9,2.8-2.8L2794.2,1678.7z"/>
</g>
<path d="M1657.1,1704.3h-34.9c0,120,97.2,216.9,217.1,216.9c7.5,0,14.9-0.3,22.1-1C1747.7,1913.6,1657.5,1819.3,1657.1,1704.3z"/>
<path class="st0" d="M2058.2,1703.8c0,119.9-97.2,217.1-217.1,217.1s-217.1-97.2-217.1-217.1"/>
<path d="M2895.3,1696.3h36c0,132-107.9,238.8-239.9,238.8c-5.6,0-11.2,0-16.7-0.4C2798.8,1926.1,2895.3,1822.3,2895.3,1696.3z"/>
<path class="st0" d="M2426.2,1695.9c0,131.9,107,238.9,238.9,238.9c131.9,0,238.9-107,238.9-238.9"/>
<path d="M2080.6,1515l-20.3,25.1c-92.4-74.8-105.7-210-31.2-302c3.2-3.9,6.4-7.7,9.8-11.4C1974.8,1318.1,1993,1444,2080.6,1515z"/>
<path d="M3372.3,1687.4l-32.2,9.5c35,118.4,159.4,187.9,277.3,153.1c5-1.5,10-3.1,14.8-4.9
	C3519.1,1870.2,3405.5,1799.6,3372.3,1687.4z"/>
<path d="M3789.2,1523.4l32.5-12.6c-46.4-119.4-148.1-197.8-267-151.6c-5.1,2-10,4-14.9,6.3
	C3654.7,1329.8,3745.2,1410.2,3789.2,1523.4z"/>
<path class="st0" d="M2426.2,1606.4"/>
<path d="M2444.3,1275c3.9,2.3,424.6,214.7,793.5,11.3l30.7-22.1c-203.1,158.3-558.6,179.7-841.8,0L2444.3,1275z"/>
<path class="st0" d="M2038.8,1226.7c0,0,104.7-142.3,387.9,37.4s638.7,158.3,841.8,0"/>
<path class="st0" d="M3925.1,1934.8c-41.3-185.7-292.9-89.6-292.9-89.6"/>
<path class="st0" d="M3623.6,1846.9"/>
<g>
	<g>
		<path d="M-544.7,4683.3c0,0,128.9-0.3,322.3-0.8c96.7-0.1,209.5-0.3,330.3-0.5c120.9-0.1,249.8-0.1,378.7-0.2
			c128.9,0.1,257.8,0.1,378.7,0.2c120.9,0.2,233.7,0.3,330.3,0.5c193.4,0.5,322.3,0.8,322.3,0.8s-128.9,0.3-322.3,0.8
			c-96.7,0.1-209.5,0.3-330.3,0.5c-120.9,0.1-249.8,0.1-378.7,0.2c-128.9-0.1-257.8-0.1-378.7-0.2c-120.9-0.2-233.7-0.3-330.3-0.5
			C-415.8,4683.6-544.7,4683.3-544.7,4683.3z"/>
	</g>
	<g>
		<path d="M-544.7,4696.8c0,0,128.9-0.3,322.3-0.8c96.7-0.1,209.5-0.3,330.3-0.5c120.9-0.1,249.8-0.1,378.7-0.2
			c128.9,0.1,257.8,0.1,378.7,0.2c120.9,0.2,233.7,0.3,330.3,0.5c193.4,0.5,322.3,0.8,322.3,0.8s-128.9,0.3-322.3,0.8
			c-96.7,0.1-209.5,0.3-330.3,0.5c-120.9,0.1-249.8,0.1-378.7,0.2c-128.9-0.1-257.8-0.1-378.7-0.2c-120.9-0.2-233.7-0.3-330.3-0.5
			C-415.8,4697.2-544.7,4696.8-544.7,4696.8z"/>
	</g>
</g>
<g>
	<g>
		<path d="M-544.7,5006.3c0,0,128.9-0.3,322.3-0.8c96.7-0.1,209.5-0.3,330.3-0.5c120.9-0.1,249.8-0.1,378.7-0.2
			c128.9,0.1,257.8,0.1,378.7,0.2c120.9,0.2,233.7,0.3,330.3,0.5c193.4,0.5,322.3,0.8,322.3,0.8s-128.9,0.3-322.3,0.8
			c-96.7,0.1-209.5,0.3-330.3,0.5c-120.9,0.1-249.8,0.1-378.7,0.2c-128.9-0.1-257.8-0.1-378.7-0.2c-120.9-0.2-233.7-0.3-330.3-0.5
			C-415.8,5006.6-544.7,5006.3-544.7,5006.3z"/>
	</g>
	<g>
		<path d="M-544.7,5019.8c0,0,128.9-0.3,322.3-0.8c96.7-0.1,209.5-0.3,330.3-0.5c120.9-0.1,249.8-0.1,378.7-0.2
			c128.9,0.1,257.8,0.1,378.7,0.2c120.9,0.2,233.7,0.3,330.3,0.5c193.4,0.5,322.3,0.8,322.3,0.8s-128.9,0.3-322.3,0.8
			c-96.7,0.1-209.5,0.3-330.3,0.5c-120.9,0.1-249.8,0.1-378.7,0.2c-128.9-0.1-257.8-0.1-378.7-0.2c-120.9-0.2-233.7-0.3-330.3-0.5
			C-415.8,5020.2-544.7,5019.8-544.7,5019.8z"/>
	</g>
</g>
<path d="M3576.8,5182.5c3.1,3.5,5.9,8.6,7.1,13.1c-1.9-3.5-3.3-6.7-5.3-9.7c-10.3-15.2-32.8-19-46.5-7.9
	c-6.6,5.4-10.3,12.7-12.3,20.8c-3.7,15.2-3.7,30.5,0.9,45.5c2.5,8.2,7,15.2,14.5,19.7c8.6,5.1,17.8,4.9,27,2c5.9-1.8,11-5,15.3-9.5
	c-0.7,0.8-1.3,1.6-2,2.3c-7.4,7.4-16.7,10.4-26.8,10.6c-17.3,0.3-31.5-6-41.7-20.3c-5.9-8.2-8.4-17.6-8.6-27.6
	c-0.2-12,2.7-23.1,10.2-32.6c11-13.9,25.7-19.8,43.2-18.4C3561.7,5171.3,3570.2,5175,3576.8,5182.5z M3495.7,4906.5
	c-50-48.8-99.4-96.9-149.3-145.5l0.2,0c-0.1-0.1-0.5-0.2-0.6-0.3c-7.6-7.4-15.2-14.8-23.2-22.1c0,0.3,0,0.5,0,0.8
	c-66.7-72.6-76.1-182.9-19.1-265.4c-3,3.3-6.1,6.7-9,10.2c-73.7,91-61.9,224.5,28.1,299.7c0,56.3,0,111.9,0,167.5
	c-0.5,57.2-22.1,111-62.5,151.4c-37.5,37.5-86.4,60.1-138.9,63.5c-110.9-9.5-197.3-104-197.6-216c0,0,0-140.2,0-210.2
	c-12,0-22.3-0.1-33.3,0.2c-1.5,0-3.6,1.9-4.2,3.5c-13.9,35.1-27.7,70.2-41.5,105.4c-7.3,18.6-14.6,37.1-22.3,56.7
	c-1.4-2.8-2.4-4.7-3.3-6.7c-7.9-17.3-15.7-34.5-23.6-51.8c-15.6-34.2-31.2-68.4-46.9-102.6c-0.8-1.8-2.6-4.4-3.9-4.4
	c-12.3-0.3-25.1-0.2-37.1-0.2c0,70,0,139.5,0,209l1,0c0-68.1,0-136.3,0-204.4c0-0.1,0.8-0.1,1.1-0.2c31.4,69.5,62.9,139.1,94.9,210
	c27.8-70.8,54.8-140,82-209.3c0.4,0.1,1,0.2,1,0.3c0,68.1,0,136.7,0,204.7c0,116,92.1,211.9,207.2,217.3c4.1,0.2,8.1,0,12.2,0
	c58.1,0,112.8-22.6,153.8-63.6c41.1-41.1,62.7-94.6,62.7-153.6c0-54,0-108.8,0-164.1c58,57.1,115,113.2,173,169.9
	c0-71.8,0-141.8,0-211.8h-1C3495.7,4798.3,3495.7,4851.4,3495.7,4906.5z M3971.3,4748.7c37-17.3,82.5,1.7,97.7,40.6
	c0.7,1.7,1.3,3.3,2,5c-4.7-17.8-14.3-32.4-30.2-41.5c-33.9-19.6-68.5-17.7-101.8,0.7c-34.4,19.1-50.9,50-53,88.8
	c-1.4,25.6,4.3,49.4,19.5,70.2c25.7,35.1,71.1,50.9,113.1,39.6c16.8-4.5,31.3-12.8,41.5-27.5l-0.4-0.3c-0.9,0.9-1.9,1.8-2.8,2.8
	c-15.9,17.4-36.2,25.2-59.3,24.9c-30.2-0.4-50.2-16.8-60.6-44c-14.5-37.8-14.1-76.6-2.1-115.1
	C3941.1,4773.7,3952.3,4757.6,3971.3,4748.7z M3973.7,4526.3c5,0,11,0,17,0c0-32.7,0-65.4,0-99h38v-1h-38h-54.9c0,0,0,0,0,1
	c12.6,0,24.9,0,37.9,0C3973.7,4460.3,3973.7,4493.3,3973.7,4526.3z M3325.9,4453.7c13-9.6,35.1-22.4,66.8-29.2
	c35.7-7.6,76-6.1,119.8,4.4c54.8,13.2,115.4,40.6,179.9,81.6c68.7,43.6,143.6,76.6,222.6,98.1c70.3,19.1,142.3,28.8,214.3,28.8
	c4.8,0,9.6,0,14.4-0.1c150.7-2.7,289.6-47.7,391.1-126.8l-0.3-0.4h0h0l-0.3-0.4c-11.3,8.8-23.1,17.2-35.3,25.2
	c-343.6,185.8-730.2,14.2-782.6-11c-7.8-4.6-15.6-9.3-23.3-14.2c-64.6-41-125.3-68.5-180.2-81.7c-44-10.6-84.5-12.1-120.3-4.4
	c-31.9,6.8-54.1,19.7-67.2,29.3c-14.1,10.5-20.8,19.4-20.9,19.5l0.3,0.3c0,0-0.1,0.1-0.1,0.1l0.5,0.2
	C3305.2,4472.9,3311.9,4464.1,3325.9,4453.7z M4095.7,4477.3h56c0,17,0,32.8,0,49c6,0,12,0,18,0c0-33,0-67,0-100c-6,0-12,0-18,0
	c0,16,0,32,0,48c0,0.5,0,1,0,2h-56c0-1,0-1.5,0-2c0-16,0-32,0-48c-6,0-12,0-17,0c0,33,0,67,0,100c5,0,11,0,17,0
	C4095.7,4510.1,4095.7,4494.3,4095.7,4477.3z M4739.3,4847.2c0-59.4,48.7-108.1,107.6-107.9c59.5,0.3,107.3,48.5,107.2,108.1
	c-0.1,59.8-48.1,107.9-107.5,107.9C4787.5,4955.2,4739.3,4906.6,4739.3,4847.2z M4780.3,4846.5c0.3,18.4,1.3,36.3,5.9,53.9
	c3.9,14.7,9.4,28.5,20.8,39.1c29.1,27.1,78,16,94.2-21.2c7.6-17.4,10.6-35.7,11.5-54.4c1.4-27.1,0.5-54-8.5-79.9
	c-4.7-13.6-11.8-25.8-24.1-34c-31.3-20.7-72.6-8.2-87.8,26.6C4782.5,4799,4780.9,4822.9,4780.3,4846.5z M3729.7,5222.6
	c-1.3,27.2-24.5,48.3-52,46.8c-26.4-1.4-47.1-23.6-46.6-50.5c0.7-28.8,24.9-50,52-48.5C3709.7,5171.9,3731,5194.2,3729.7,5222.6z
	 M3707.1,5191.7c-2.2-6.5-5.4-12.4-11.2-16.3c-14.6-9.7-33.6-3.9-40.6,12.3c-4.4,10.3-5.2,21.3-5.3,32.4c0,1.5,0,2.9,0,4.4
	c0.3,9.5,1.4,18.9,5.2,27.8c6.6,15.3,23.6,21.5,38.2,13.8c7.3-3.8,11.1-10.3,13.6-17.7c3-8.9,3.8-18.1,3.8-27.4
	C3711,5210.9,3710.3,5201.1,3707.1,5191.7z M3304.4,4472.7c-0.3,0.4-0.5,0.8-0.8,1.2c0.3-0.4,0.7-0.7,1-1.1L3304.4,4472.7z
	 M3014.4,4846.9c0.2-59.7,48.9-108.2,107.8-107.6c59.5,0.6,107.1,48.8,106.8,108.1c-0.3,60-48.2,108.1-107.5,107.9
	C3062.1,4955.1,3014.2,4906.5,3014.4,4846.9z M3061.5,4901.2c3.6,15.5,10.2,29.6,22.6,40.3c29.3,25.2,76.7,12.8,92.4-24
	c9.7-22.5,11.3-46.4,11.5-70.4c0-3.2,0.1-6.3,0-9.5c-0.7-20.7-3.2-41.1-11.5-60.4c-13.8-32.3-49.3-46-81.1-31.2
	c-17.2,8-26.5,22.6-31.7,39.8C3052.4,4823.9,3052.6,4862.6,3061.5,4901.2z M4244.8,5246.3c-3.5,9-9.6,15.4-18.5,18.9
	c-15.6,6.1-33.3,2.7-41.8-15.6c-3.9-8.4-5.1-17.2-5.4-26.3c-0.3-10.6,0.6-21.1,4.6-31.1c6.7-16.8,22.5-24.3,39.7-18.9
	c5.4,1.7,9.8,4.8,14,8.4l0.1-0.1c-0.5-0.6-0.9-1.2-1.4-1.7c-7.3-6.6-16.1-9.6-25.8-9.6c-18.6-0.1-33.3,7.4-43.1,23.4
	c-5.7,9.2-7.5,19.4-6.8,30.1c0.8,13,5.5,24.3,15.3,33c12.6,11.3,27.6,14.7,44,11.3c12.5-2.6,21.2-10.1,25.9-22
	c0.2-0.5,0.4-1.1,0.6-1.6C4245.3,5245,4245.1,5245.6,4244.8,5246.3z M5223.5,4740.3c-1.3,0-2.9,2.1-3.5,3.7
	c-16.4,41.6-32.8,83.2-49.1,124.9c-4.7,12-9.5,24-14.5,36.7c-1-1.8-1.7-2.9-2.3-4c-10.7-23.4-21.4-46.9-32.1-70.3
	c-12.4-27.1-24.7-54.2-37.1-81.2c-47.6-115.4-147.7-189.8-264.1-144.6c-5.1,2-10,4-14.9,6.3c104.6-32.5,188.4,31.7,235.9,128.7
	c0,70,0,139.2,0,208.7c0,0,0,0,1,0c0-68,0-136,0-204c0-0.1,0.7-0.1,1-0.2c31.3,69.5,62.8,138.9,94.7,209.7
	c27.9-71,55.1-140.6,82.5-210.2c0.3,0.1,0.8,0.2,0.8,0.2c0,68.4,0,136.8,0,205.8c12,0,24,0,36,0c0-70,0-140.2,0-210.2
	C5245.7,4740.1,5234.8,4740,5223.5,4740.3z M4614.9,5220c-0.1,27.5-22,49.5-49.4,49.5c-27.1,0-49.4-22.5-49.2-49.7
	c0.2-27.4,22.4-49.7,49.4-49.5C4593.2,5170.5,4615,5192.5,4614.9,5220z M4596.3,5219.1c-0.1-2.5-0.2-5.9-0.5-9.2
	c-0.7-8.8-2.4-17.4-6.5-25.3c-9.3-17.7-32.6-16.2-41.8-7.1c-4.9,4.9-7.7,11-9.4,17.5c-2.7,10.1-3.1,20.4-2.7,30.7
	c0.3,8,1.4,15.8,4,23.4c6.5,18.9,22.3,22.6,36.1,18.2c9.1-2.9,13.8-10.2,16.8-18.7C4595.5,5239.3,4596.1,5229.7,4596.3,5219.1z
	 M4886.1,5095.2c4.1-1.2,8.1-2.6,12.1-4L4886.1,5095.2z M4886.1,5095.2C4886.1,5095.2,4886.1,5095.2,4886.1,5095.2
	c-0.1,0-0.2,0-0.2,0L4886.1,5095.2z M5191.6,5180.7l-1,0.2c-9.8-43.9-32.3-75.6-66.8-94.2c-45.5-24.5-104.4-21.9-145.7-15.3
	c-43.9,6.9-89.8,23.1-92,23.8c-0.9,0.3-1.8,0.5-2.7,0.8c-1.8,0.5-3.6,1-5.4,1.5c-16,4.3-32.4,6.8-49,7.3c-16.1,0.6-32.2-0.7-48-3.6
	c-15.6-2.9-30.9-7.6-45.6-13.8c-14.6-6.2-28.6-13.9-41.6-23c-13.1-9.1-25.2-19.7-36.1-31.3c-11.1-11.8-20.8-24.9-29.1-38.8
	c-2.6-4.4-5-8.8-7.2-13.4c-4.8-9.9-9.2-19.9-13.2-30.2c-4-10.1-8.5-19.9-12.3-30.1c-4.5-12.1-8.5-24.5-12.9-36.7
	c-6.9-19.1-20.3-29.7-40.9-30.1c-12.8-0.2-25.2,0-39.2,0c0,32.9,0,65.5,0,98.5c-12,0-24,0-36,0c0-69,0-139.7,0-210
	c29,0,57.9-0.2,86.5,0.1c9.1,0.1,18.6,0.7,27.6,2c15.7,2.3,30.4,7.3,42.3,18.6c18.2,17.4,21.6,54.7-8.1,74.5
	c-14.1,9.4-29.8,13.6-46.6,15.8c1.6,0.3,3.1,0.7,4.7,1c14.6,2.8,28.9,6.7,38.9,18.4c5.1,5.9,8.7,13.3,11.7,20.6
	c1.9,4.7,3.7,9.5,5.4,14.4c2.9,8.3,6.3,16.5,8.8,24.9c2.5,8.3,5.5,16.4,8.9,24.3c8.2,19.4,18.8,37.7,32,54.2
	c10.2,12.9,21.8,24.6,34.6,35c12.6,10.3,26.3,19.2,40.8,26.6c14.5,7.3,29.8,13.1,45.5,17.1c15.9,4,32.2,6.2,48.6,6.5
	c1.1,0,2.1,0,3.2,0c2.6,0,5.2,0,7.9-0.1c6.1-0.2,12.2-0.6,18.3-1.5c5.8-0.8,11.4-2.3,17-4.1c4.3-1.4,8.7-2.7,13.1-4
	c11.8-3.4,23.6-6.6,35.6-9.3c11.5-2.7,23-5,34.6-6.9c41.5-6.5,100.6-9.2,146.4,15.4C5159.1,5104.6,5181.8,5136.5,5191.6,5180.7z
	 M4551.1,4851.9c16.2-0.9,30.6-6.5,39.9-21.2c8.8-14.1,9.4-29.6,7.1-45.4c-3.4-22.9-16.1-36.3-38.8-40.3c-8.6-1.5-17.6-1.4-26.4-1.6
	c-9.6-0.2-20.2-0.1-29.2-0.1c0,36.5,0,72.5,0,108.6C4519.7,4852.1,4535.5,4852.8,4551.1,4851.9z M5425.7,4951.3c0-36,0-72,0-108
	c26,0,53.1,0,79.3,0c0,0,0,0,0-1c-26.4,0-53.3,0-79.3,0c0-33,0-65,0-98c36,0,73,0,109.2,0c0-1,0-1,0-1c-48.5,0-97.2,0-146.2,0
	c0,70,0,139,0,209c50,0,100.7,0,150.6,0c0,0,0,0,0-1C5501.6,4951.3,5463.7,4951.3,5425.7,4951.3z M4196.7,4952.3
	c-5.1,128-110.7,229-239.3,229c-4.5,0-9.1-0.2-13.6-0.4c-1.6,0.1-4.1,0.1-5.1,0.2c0,28.4,0,57.5,0,86.2h49v1h-49h-16.8h-0.2
	c0-29,0-58.2,0-87.2c-61-2.1-117.1-26.6-160.3-69.7c-42.1-42.1-66.3-97-69.4-156.1c-59.2-0.3-106.8-48.5-106.9-108.5
	c-0.1-59,48.4-107.5,107.4-107.5c59.2,0,106.9,47.8,107.2,107.5c0.3,59.8-47.5,108.2-106.9,108.5c3.2,58.3,27.4,113.4,69.3,155.4
	c43,43,99.6,67.4,159.6,69.5c0-2.8,0-4.9,0-7.9c6,0,11,0,17,0c0,3,0,5.1,0,7.9c6-0.2,13.1-0.7,19.7-1.4
	c115.3-16.9,202.3-116.7,202.3-236.5c0-66.4,0-132,0-199c12,0,23,0,36,0c0,33,0,66,0,99c40,0,78,0,118,0c0-33,0-66,0-99
	c12,0,24,0,36,0c0,69,0,139,0,209c-12,0-24,0-36,0c0-36,0-72,0-108c-39,0-78,0-118,0C4196.7,4880.3,4196.7,4916.3,4196.7,4952.3z
	 M3692.7,4943.3c0,4,0.1,7.7,0.3,11.8c11.3,0,22.7-3.7,33.1-10.6c12.8-8.5,19.8-21.3,24.6-35.5c8.1-23.9,8.9-48.7,8.1-73.5
	c-0.5-18.2-3-36.1-9.3-53.4c-15-40.9-50-47.3-78.6-37.9c-18.6,6.1-28.6,20.8-35.1,38.3c-7.8,20.9-9.2,42.8-9.1,64.9
	c0,3.8-0.1,7.7,0,11.5c0.6,20.3,3.4,40.1,11.4,59c9.8,23.1,31.4,36.9,54.1,37.3c-0.2-4.1-0.3-7.8-0.3-11.8H3692.7z M4430.7,5268.3
	c5,0,11,0,16,0c0-32,0-64,0-96c-5,0-11,0-16,0C4430.7,5204.3,4430.7,5236.3,4430.7,5268.3z M3810.7,5172.3c-5,0-11,0-16,0
	c0,31.7,0,63.3,0,95c0,0.3,0,0.7,0,1h16h50v-1h-50C3810.7,5235.6,3810.7,5204,3810.7,5172.3z M4305.7,4526.3v-1h-49v-48h38v-1h-38
	v-49h49v-1h-49h-17v1v48.5v1v48.5v1h17H4305.7z M4320.7,5172.3h-33v1h33c0,32.6,0,63.3,0,95c5,0,11,0,16,0c0-31.7,0-63.3,0-95h33v-1
	h-33H4320.7z M4749.7,5247.1c-27-25.9-53-51.4-80-77.2c0,33.1,0,65.4,0,97.8c1,0,1,0,1,0c0-25.1,0-50.2,0-75.9
	c27,26.3,53,52.5,79,78.5h1v-100h-1V5247.1z M4040.7,5172.3v1v45.6v1v47.4v1h17h49v-1h-49v-47h38v-1h-38v-46h49v-1h-49H4040.7z"/>
</svg>
