<svg id="Layer_1" xmlns="http://www.w3.org/2000/svg" viewBox="0 0 175.7 111.1"><style>.st0{fill:#06326e}.st0,.st1{fill-rule:evenodd;clip-rule:evenodd}.st1{fill:#0097d9}.st2{fill:#e40520}.st2,.st3{fill-rule:evenodd;clip-rule:evenodd}.st3{fill:#FFF}</style><path class="st0" d="M0 111.1h175.7V0H0v111.1z"/><path class="st1" d="M87.8 91c9.7-8.8 15.9-21.6 15.9-35.8s-6.1-27-15.9-35.8C79.3 11.6 67.9 6.9 55.4 6.9 28.8 6.9 7.1 28.6 7.1 55.2c0 26.7 21.7 48.2 48.3 48.2 12.5.1 23.9-4.6 32.4-12.4z"/><path class="st1" d="M87.8 91c9.7-8.8 15.9-21.6 15.9-35.8s-6.1-27-15.9-35.8V91z"/><path class="st2" d="M120.2 6.9c-12.5 0-23.8 4.7-32.4 12.5-1.7 1.6-3.3 3.3-4.8 5.1h9.7c1.3 1.6 2.6 3.4 3.7 5.1H79.3c-1 1.7-2 3.4-2.8 5.1h22.7c.8 1.7 1.5 3.4 2.1 5.1H74.4c-.6 1.7-1 3.4-1.4 5.2h29.6c.7 3.2 1 6.7 1 10.2 0 5.3-.9 10.5-2.5 15.3H74.4c.6 1.7 1.2 3.4 2 5.1h22.7c-.9 1.7-1.7 3.5-2.7 5.1H79.3c1.1 1.8 2.4 3.5 3.7 5.1h9.7c-1.5 1.8-3.1 3.5-4.9 5.1 8.6 7.8 20 12.5 32.4 12.5 26.7 0 48.2-21.6 48.2-48.2.1-26.6-21.5-48.3-48.2-48.3z"/><path class="st2" d="M162.3 82.1c0-.9.7-1.5 1.5-1.5.9 0 1.5.7 1.5 1.5 0 .9-.7 1.6-1.5 1.6s-1.5-.7-1.5-1.6zm1.5 1.2c.7 0 1.2-.6 1.2-1.2 0-.7-.6-1.1-1.2-1.1s-1.2.5-1.2 1.1c0 .7.6 1.2 1.2 1.2zm-.2-.5h-.4v-1.3h.6c.2 0 .3 0 .4.1.1 0 .2.2.2.3 0 .2-.1.3-.2.4l.2.6h-.4l-.2-.5h-.2v.4zm0-.8h.4s.1-.1.1-.2l-.1-.1c-.1-.1-.2-.1-.2-.1h-.2v.4z"/><path class="st0" d="M47.9 68.7h-6.1l3.6-18.9-8.2 18.9h-5.1L31 49.9l-3.9 18.8h-5.5l4.6-24.5h9.6v15.1l6.7-15.1h10.1l-4.7 24.5zM115 68.4c-1.7.5-2.9.7-4.4.7-3 0-4.7-1.5-4.7-4.4 0-.6.1-1.2.2-1.8l.4-2 .3-1.5 2.7-15.2h6l-.9 4.5h3l-.8 4.8h-3.1l-1.6 8.3c0 .4-.1.7-.1.9 0 1 .7 1.4 2.1 1.4.7 0 1.2 0 1.6-.2l-.7 4.5zM91.2 55.1c0 2.5 1.4 4.3 4.5 5.5 2.6 1 2.9 1.3 2.9 2.3 0 1.2-1.1 1.8-3.5 1.8-1.9 0-3.5-.3-5.5-.9l-.9 4.6h.3l1.1.2c.4.1.9.2 1.6.2 1.4.1 2.6.2 3.3.2 6.4 0 9.4-2.1 9.4-6.6 0-2.7-1.2-4.4-4.3-5.6-2.6-.9-2.8-1.2-2.8-2.2 0-1 1-1.6 2.9-1.6 1.2 0 2.8.1 4.4.3l.9-4.5c-1.6-.3-4-.5-5.4-.5-6.6-.1-9 3.1-8.9 6.8zM67.3 68.7h-5l.1-2.1c-1.5 1.6-3.6 2.4-6.3 2.4-3.2 0-5.5-2.2-5.5-5.4 0-4.8 3.9-7.7 10.6-7.7.7 0 1.5 0 2.5.1.2-.7.2-.9.2-1.2 0-1.3-1-1.9-3.9-1.9-1.7 0-3.6.3-4.9.6l-.9.3-.6.1.9-4.4c3-.9 5-1.1 7.2-1.1 5.2 0 7.9 2.1 7.9 5.9 0 1-.1 1.7-.6 4l-1.2 7-.2 1.3-.2 1-.1.7v.4zm-4-8.9c-.7-.1-.9-.1-1.4-.1-3.4 0-5.1 1-5.1 3 0 1.2.9 2 2.2 2 2.4 0 4.2-2 4.3-4.9zM87 68.2c-2 .6-4 .9-6.1.9-6.7 0-10.2-3.1-10.2-9 0-6.8 4.4-11.8 10.5-11.8 5 0 8.1 2.8 8.1 7.2 0 1.5-.2 2.9-.8 4.9H76.6c-.1.4-.1.5-.1.7 0 2.3 1.8 3.5 5.3 3.5 2.2 0 4.1-.4 6.2-1.3l-1 4.9zm-2.8-11.8v-1c0-1.6-1-2.6-2.8-2.6-1.9 0-3.3 1.2-3.9 3.6h6.7zM151.2 59.6c-.9 6.6-5.5 9.6-11.6 9.6-6.8 0-9.6-4.1-9.6-9.2 0-7 4.6-11.8 11.8-11.8 6.2 0 9.6 4 9.6 9-.1 1.2-.1 1.3-.2 2.4zm-6.1-2.4c0-2.1-.9-4.1-3.3-4.1-3 0-5 3.7-5 6.8 0 2.7 1.3 4.5 3.5 4.5 1.3 0 4.1-1.8 4.6-4.9.1-.6.2-1.4.2-2.3z"/><path class="st3" d="M151.8 65.6c0-.9.8-1.5 1.6-1.5.9 0 1.5.7 1.5 1.5 0 .9-.7 1.6-1.5 1.6-.8.1-1.6-.7-1.6-1.6zm1.6 1.3c.7 0 1.1-.6 1.1-1.2 0-.7-.5-1.1-1.1-1.1s-1.2.5-1.2 1.1c0 .6.6 1.2 1.2 1.2zm-.2-.6h-.4V65h.6c.2 0 .3 0 .4.1.1.1.2.2.2.3 0 .2-.1.4-.3.4l.3.6h-.4l-.2-.5h-.2v.4zm0-.7h.4V65.3h-.4v.3zM49.4 67.3h-6.1l3.6-18.9-8.2 18.9h-5.5l-.9-18.8-3.6 18.8h-5.5l4.6-24.5h9.5l.4 15.1 6.7-15.1h9.7l-4.7 24.5zM116.5 67c-1.7.5-2.9.7-4.4.7-3 0-4.7-1.5-4.7-4.4 0-.6.1-1.1.2-1.8l.4-2 .3-1.5 2.7-15.2h6l-.9 4.5h3.1l-.9 4.8h-3.1l-1.5 8.3c-.1.4-.2.7-.2.9 0 1 .7 1.5 2.1 1.5.7 0 1.2-.1 1.6-.2l-.7 4.4z"/><path class="st0" d="M132 53.1l-.1-.7 1.1-3.1c-.3 0-.4 0-.5-.1-.3 0-.5-.1-.5-.1h-.6c-2 0-3.4.9-5.3 3.2l.7-3.6h-6.2l-3.7 20h6c.9-4.6 1.2-7.2 1.7-9.4.8-3.6 3.4-5.2 5.4-4.8.2 0 .4 0 .7.1l.4.2.9-1.7z"/><path class="st3" d="M134 47.5c-.5-.2-.6-.2-.7-.2-.3-.1-.5-.1-.5-.2h-.7c-2 0-3.4.9-5.2 3.2l.6-3H122l-3.7 20h6.1c2.2-12.2 3-14.4 6-14.4.2 0 .5.1.8.1l.7.2 2.1-5.7zM92.7 53.6c0 2.5 1.4 4.3 4.6 5.5 2.5 1 2.8 1.3 2.8 2.3 0 1.2-1.1 1.8-3.5 1.8-1.8 0-3.5-.3-5.5-.9l-.7 4.7h.3l1 .3c.4 0 .9.1 1.6.1 1.4.2 2.6.2 3.4.2 6.3 0 9.4-2.1 9.4-6.6 0-2.7-1.2-4.4-4.4-5.6-2.6-.9-2.8-1.2-2.8-2.2 0-1 1-1.6 3-1.6 1.1 0 2.8.1 4.4.3l.9-4.5c-1.6-.3-4-.4-5.3-.4-6.8-.1-9.2 2.9-9.2 6.6zM68.9 67.3H64l.1-2.1c-1.5 1.6-3.6 2.4-6.3 2.4-3.2 0-5.5-2.2-5.5-5.4 0-4.8 3.9-7.7 10.6-7.7.7 0 1.5 0 2.5.1.2-.7.2-.9.2-1.2 0-1.3-1-1.8-3.9-1.8-1.7 0-3.6.2-4.9.5l-.9.3-.6.1.9-4.4c3-.8 4.9-1 7.2-1 5.2 0 7.9 2 7.9 5.8 0 1-.1 1.8-.5 4L69.6 64l-.4 1-.2 1v.7l-.1.6zm-4.4-8.9c-.7-.1-.9-.1-1.3-.1-3.4 0-5.1 1-5.1 3 0 1.2.8 2.1 2.1 2.1 2.4 0 4.2-2.1 4.3-5zM88.6 66.8c-2.1.6-4.1.9-6.1.9-6.7 0-10.2-3.1-10.2-9 0-6.8 4.4-11.8 10.5-11.8 4.9 0 8 2.8 8 7.2 0 1.5-.2 2.9-.7 4.9h-12v.7c0 2.3 1.7 3.5 5.2 3.5 2.2 0 4.2-.4 6.2-1.2l-.9 4.8zM85.4 55v-1c0-1.6-1-2.6-2.8-2.6-1.9 0-3.2 1.3-3.8 3.6h6.6zM152.8 58.2c-.9 6.6-5.6 9.6-11.7 9.6-6.7 0-9.5-4.1-9.5-9.2 0-7 4.6-11.8 11.8-11.8 6.2 0 9.6 4 9.6 9 0 1.1 0 1.2-.2 2.4zm-6.3-2.6c0-2.1-.9-4-3.3-4-3 0-4.9 3.6-4.9 6.8 0 2.6 1.3 4.4 3.4 4.4 1.3 0 4.2-1.8 4.6-4.8.2-.7.2-1.5.2-2.4z"/></svg>