<svg xmlns="http://www.w3.org/2000/svg" viewBox="0 0 286 76.2"><style>.st0{fill:#009bde}.st1{fill:#002f87}</style><g id="Layer_1"><path class="st0" d="M193 0h-22.3c-1.5 0-2.8 1.1-3.1 2.6l-9 57.1c-.2 1.1.7 2.1 1.8 2.1H172c1.1 0 2-.8 2.1-1.8l2.6-16.2c.2-1.5 1.5-2.6 3.1-2.6h7c14.7 0 23.1-7.1 25.3-21.2 1-6.1 0-11-2.8-14.4C206.1 2 200.5 0 193 0zm2.6 20.8c-1.2 8-7.3 8-13.2 8H179l2.4-14.9c.1-.9.9-1.6 1.8-1.6h1.5c4 0 7.8 0 9.8 2.3 1.2 1.4 1.5 3.4 1.1 6.2z"/><path class="st1" d="M34.3 0H12.1C10.6 0 9.3 1.1 9 2.6L0 59.7c-.2 1.1.7 2.1 1.8 2.1h10.6c1.5 0 2.8-1.1 3.1-2.6L18 43.8c.2-1.5 1.5-2.6 3.1-2.6h7c14.7 0 23.1-7.1 25.3-21.2 1-6.1 0-11-2.8-14.4C47.4 2 41.8 0 34.3 0zm2.6 20.8c-1.2 8-7.3 8-13.2 8h-3.4l2.4-14.9c.1-.9.9-1.6 1.8-1.6H26c4 0 7.8 0 9.8 2.3 1.2 1.4 1.5 3.4 1.1 6.2zM100.8 20.6H90.2c-.9 0-1.7.7-1.8 1.6l-.5 3-.8-1.2c-2.3-3.3-7.4-4.5-12.6-4.5-11.8 0-21.8 8.9-23.8 21.4-1 6.2.4 12.2 4 16.4 3.3 3.8 7.9 5.4 13.4 5.4 9.5 0 14.7-6.1 14.7-6.1l-.5 3c-.2 1.1.7 2.1 1.8 2.1h9.6c1.5 0 2.8-1.1 3.1-2.6l5.8-36.5c.2-1-.6-2-1.8-2zM86 41.3c-1 6.1-5.9 10.2-12 10.2-3.1 0-5.6-1-7.2-2.9-1.6-1.9-2.2-4.5-1.7-7.5 1-6 5.9-10.3 11.9-10.3 3 0 5.5 1 7.1 2.9 1.7 2 2.3 4.7 1.9 7.6z"/><path class="st0" d="M259.5 20.6h-10.7c-.9 0-1.7.7-1.8 1.6l-.5 3-.7-1.1c-2.3-3.3-7.4-4.5-12.6-4.5-11.8 0-21.8 8.9-23.8 21.4-1 6.2.4 12.2 4 16.4 3.3 3.8 7.9 5.4 13.4 5.4 9.5 0 14.7-6.1 14.7-6.1l-.5 3c-.2 1.1.7 2.1 1.8 2.1h9.6c1.5 0 2.8-1.1 3.1-2.6l5.8-36.5c.2-1.1-.6-2.1-1.8-2.1zm-14.8 20.7c-1 6.1-5.9 10.2-12 10.2-3.1 0-5.6-1-7.2-2.9-1.6-1.9-2.2-4.5-1.7-7.5 1-6 5.9-10.3 11.9-10.3 3 0 5.5 1 7.1 2.9 1.7 2 2.3 4.7 1.9 7.6z"/><path class="st1" d="M157.6 20.6h-10.7c-1 0-2 .5-2.6 1.4l-14.8 21.8-6.3-20.9c-.4-1.3-1.6-2.2-3-2.2h-10.5c-1.3 0-2.2 1.3-1.8 2.5l11.8 34.6-11.1 15.6c-.9 1.2 0 2.9 1.5 2.9h10.7c1 0 2-.5 2.5-1.3l35.6-51.4c1.1-1.3.2-3-1.3-3z"/><path class="st0" d="M272.1 1.6L263 59.7c-.2 1.1.7 2.1 1.8 2.1h9.2c1.5 0 2.8-1.1 3.1-2.6l9-57.1c.2-1.1-.7-2.1-1.8-2.1H274c-1 0-1.8.7-1.9 1.6z"/></g></svg>