<svg id="svg2" xmlns="http://www.w3.org/2000/svg" viewBox="-24 63 200 127"><style>.st0{fill:#FFF}.st1{fill:#f7b600}.st2{fill:#1a1f71}</style><path id="path4147" class="st0" d="M176 190H-24V63h200v127z"/><path id="path4149" class="st1" d="M-20.7 169.4h193.3v17.3H-20.7v-17.3z"/><path id="path4151" class="st2" d="M-20.7 83.6h193.3V66.3H-20.7v17.3z"/><g id="g4153"><g id="g4155"><g id="g4161"><path id="path4163" class="st2" d="M74.312 102.692l-10.2 47.6h-12.3l10.2-47.6h12.3zm51.9 30.8l6.5-17.9 3.7 17.9h-10.2zm13.7 16.9h11.4l-10-47.6h-10.5c-2.4 0-4.4 1.4-5.2 3.5l-18.5 44.2h12.9l2.6-7.1h15.8c0-.1 1.5 7 1.5 7zm-32.1-15.6c.1-12.6-17.4-13.3-17.3-18.9 0-1.7 1.7-3.5 5.2-4 1.8-.2 6.6-.4 12.2 2.1l2.2-10.1c-3-1.1-6.8-2.1-11.5-2.1-12.2 0-20.8 6.5-20.8 15.7-.1 6.9 6.1 10.7 10.8 13 4.8 2.3 6.4 3.8 6.4 5.9 0 3.2-3.8 4.6-7.4 4.7-6.2.1-9.8-1.7-12.7-3l-2.2 10.4c2.9 1.3 8.2 2.5 13.7 2.5 12.8.1 21.3-6.3 21.4-16.2m-51.1-32.1l-20 47.6h-13l-9.8-38c-.6-2.3-1.1-3.2-2.9-4.2-3-1.6-7.9-3.1-12.2-4.1l.3-1.4h21c2.7 0 5.1 1.8 5.7 4.9l5.2 27.6 12.8-32.4h12.9z"/></g></g></g></svg>