<svg id="Layer_1" xmlns="http://www.w3.org/2000/svg" viewBox="0 0 816.6 512.8"><style>.Arched_x0020_Green{fill:url(#SVGID_1_);stroke:#FFF;stroke-width:.25;stroke-miterlimit:1}.st0{fill:#1e306d}.st1{fill:#ee8414}.st2{fill:#e20020}.st3{fill-rule:evenodd;clip-rule:evenodd;fill:#1e306d}.st4,.st5{fill:#FFF}.st5{fill-rule:evenodd;clip-rule:evenodd}</style><linearGradient id="SVGID_1_" gradientUnits="userSpaceOnUse" x1="-12.645" y1="554.059" x2="-11.937" y2="553.352"><stop offset="0" stop-color="#259e2e"/><stop offset=".983" stop-color="#1c381d"/></linearGradient><path class="st0" d="M0 0v512.8h816.6V0H0z"/><path class="st1" d="M332.6 257.1c0-125.7 101.9-227.6 227.6-227.6 125.7 0 227.6 101.9 227.6 227.6 0 125.7-101.9 227.6-227.6 227.6-125.7 0-227.6-101.9-227.6-227.6z"/><path class="st2" d="M407.7 87.7c.1 0-11.9 10.4-20 20.6h40.5s13.8 15 19 26.3h-79.1s-7.7 12-12.8 22.2H460s9.6 17.9 11.7 27.4H344.4s-4.4 12.4-6.2 21.5l139.3-.2c3.8 17.5 13.1 68.4-6 124.6l-126.6.2c2 6.7 5.5 15.9 8.8 22.6h108.7c-4.4 9.1-10.8 20.6-14.4 26.4l-79.7.1c4.2 6.4 11 16.4 15.3 21h49.1c-9.2 12.7-24.8 25.9-24.8 25.9h-.4l.5.2c-40.3 36.3-93.7 58.4-152.2 58.4C130 484.7 28.1 382.8 28.1 257.1 28.1 131.4 130 29.5 255.7 29.5c58.4 0 111.7 22 152 58.2z"/><path class="st0" d="M295.5 224.8l-3.7 20.5-20-.5s-10 2.6-10 6.8c0 4.2 7.3 9.5 18.4 14.2 11 4.7 11.6 17.8 10.5 26.8-1 8.9-2.6 27.5-34.7 28.4-18.4.5-28.3-3.1-28.3-3.1l4.2-21s23.6 6.3 28.9 2.6c5.2-3.7 11.5-10 1.6-14.2-10-4.2-26.3-11-26.3-27.8s6.8-26.3 17.3-31c10.6-4.8 28.9-4.3 42.1-1.7zM137.7 318.5h-23.2l13.5-79.8L99.3 318h-16l-3.9-82.5-14.1 83H43.4l20.7-121.8h26.6l9.3 70.1 31-70.1h27.4l-20.7 121.8zM316.2 320.2c-7.6 0-13-1.7-16.2-4.9-3.2-3.4-4.9-8.6-4.9-15.1 0-1.7.2-3.4.4-4.9.2-1.7.5-3.7.7-5.9l14-78H332l-3.1 15.2h20.3l-3.4 19.3h-20.3l-5.6 33.2c-.3 2.2-.7 4.4-1.1 6.8-.4 2.2-.5 4.4-.5 5.9 0 3.4.5 5.6 2 6.8 1.3 1.2 3.4 2 6.3 2 1.1 0 2.5-.2 4.3-.7 1.8-.7 3.4-1.2 4.5-2h1.8l-3.4 19.5c-2.5 1-5 1.5-7.7 1.9-2.9.7-6.1.9-9.9.9zM472.4 252.4c-4.7-3.7-15.3-2.9-17.5 4.6l-10.4 61.5h-21.8l15.7-91.7h21.8l-.5 7.4c4.1-4.2 8.8-7.7 20.4-7.3.7-.1-7.1 13.6-7.7 25.5zM513.5 320.9c-12 0-21.6-4.2-28.1-12.2-6.7-8-9.9-19.8-9.9-34.9 0-11.9 1.4-22.7 4.3-32.5 2.9-9.7 7-18 12.1-25.1 5-6.8 11-12.2 18-16.1 6.8-3.9 14.2-5.9 22-5.9 6.1 0 11.9 1 17.3 2.7 2.6.9 7.6 3.3 7.6 3.3l-5 28.9c-2.5-3.2-5-5.7-7.6-7.6-3.8-2.4-8.3-3.9-13.3-3.9-9 0-16.4 4.9-22.2 14.6-5.9 9.8-8.8 22.2-8.8 37.3 0 9.8 1.6 16.9 4.8 21.2 3.2 4.1 7.9 6.3 14 6.3 5.6 0 10.8-1.5 15.7-4.4 2.3-1.5 4.6-3.1 6.8-4.9l-5.1 27.6s-2.6 1.3-3.9 1.7c-3.1 1.2-5.8 1.9-8.1 2.7-2.5.8-6.1 1.2-10.6 1.2zM191.3 315.3c-.9.7-1.8 1.2-2.5 1.7-2.4 1.2-4.3 2.2-6.3 3-2 .5-4.7 1-8.3 1-5.6 0-10.3-2.2-13.7-6.4-3.6-4.4-5.4-10-5.4-16.8 0-7.3 1.3-13.4 3.8-18.6 2.5-4.9 6.3-9.1 11.3-12 4.7-2.9 10.3-4.9 16.6-6.1l4.5-.7c5.2-1 10.6-1.7 16.6-1.9 0-.5 0-1 .2-1.7s.2-1.5.2-2.4c0-3.9-1.2-6.6-4-8.3-2.7-1.5-6.6-2.2-11.9-2.2h-1.1c-3.2.2-6.8 1-10.8 2.4-4.3 1.7-7.6 2.9-9.7 4.2h-2l3.2-21.7c2.5-1 6.5-1.9 11.7-2.9 2.5-.7 5.1-1 7.6-1.2 2.7-.5 5.6-.5 8.3-.5 10.6 0 18.3 1.9 23.4 5.6 5 3.7 7.4 9.5 7.4 17.6 0 1 0 2.4-.2 4.2-.2 1.7-.3 3.2-.5 4.6L219 318.5h-21.6l1.6-9.8c-1.3 1.2-3.1 2.7-4.9 4.4-1 .7-1.9 1.5-2.8 2.2zm0-38c-2.3.5-4.3 1.2-5.9 1.9-2.5 1.2-4.3 2.9-5.6 5.1-1.4 2.2-2 5.1-2 8.8 0 3.2.9 5.4 2.5 6.6 1.8 1.2 4.1 2 7.6 2 1.1 0 2.2-.2 3.4-.7 1.1-.3 2.2-.7 3.4-1.2 2.3-1.4 4.7-3.2 6.8-5.1l3.3-19.5c-3.8.5-7.6 1-10.8 1.7-.9-.1-1.8.1-2.7.4z"/><path class="st0" d="M379.5 242.6c-2.9.5-5.6 1.9-7.7 4.4-3.1 3.4-5.4 7.8-7 13.7H394c0-1 .2-1.7.2-2.7 0-.7.2-1.7.2-2.4 0-4.4-1.1-7.6-3.1-10-2-2.2-4.7-3.4-8.5-3.4-1-.1-2.3.1-3.3.4zm0 57.6h3.2c4.7 0 9.2-1 13.5-3.2 4.1-2.2 7.9-4.6 11-7.3h2.5l-4.2 23.7c-4.1 2.4-8.6 4.4-13.3 5.6-4 1.2-8.3 1.7-12.8 2h-2c-11.7 0-20.5-3.4-26.8-10.5-6.3-6.8-9.4-16.4-9.4-28.5 0-8.3 1.1-16.1 3-23 2-7.1 5-13.2 8.8-18.5 3.8-5.1 8.3-9 13.9-12.2 3.9-1.9 8.1-3.4 12.4-4.2 2-.2 3.9-.2 5.9-.2 10.1 0 17.6 2.7 22.8 8.3 5 5.3 7.6 13.7 7.6 24.4 0 3.7-.2 7.3-.7 11-.5 3.4-1.3 7.1-2.2 10.5h-50.4v2c0 6.3 1.8 11.2 5 14.9 3 2.8 7 4.7 12.2 5.2zM583.4 315.3c-.9.7-1.8 1.2-2.7 1.7-2.2 1.2-4.3 2.2-6.3 3-2 .5-4.7 1-8.1 1-5.8 0-10.3-2.2-13.8-6.4-3.6-4.4-5.2-10-5.2-16.8 0-7.3 1.3-13.4 3.8-18.6 2.5-4.9 6.3-9.1 11.1-12 4.7-2.9 10.3-4.9 16.7-6.1 1.5-.2 2.9-.5 4.5-.7 5-1 10.6-1.7 16.4-1.9.2-.5.2-1 .4-1.7 0-.7.2-1.5.2-2.4 0-3.9-1.4-6.6-4-8.3-2.7-1.5-6.6-2.2-11.9-2.2h-1.1c-3.5.2-7 1-10.8 2.4-4.3 1.7-7.5 2.9-9.7 4.2h-2l3.1-21.7c2.5-1 6.5-1.9 11.9-2.9 2.5-.7 5.1-1 7.6-1.2 2.7-.5 5.4-.5 8.3-.5 10.6 0 18.3 1.9 23.4 5.6 4.8 3.7 7.4 9.5 7.4 17.6 0 1 0 2.4-.2 4.2-.2 1.7-.4 3.2-.5 4.6l-10.6 62.5h-21.6l1.6-9.8c-1.4 1.2-3.1 2.7-5 4.4l-2.9 2zm0-38c-2.4.5-4.3 1.2-6.1 1.9-2.3 1.2-4.3 2.9-5.6 5.1-1.2 2.2-2 5.1-2 8.8 0 3.2.9 5.4 2.7 6.6 1.6 1.2 4.1 2 7.4 2 1.1 0 2.4-.2 3.6-.7 1.1-.3 2.1-.7 3.2-1.2 2.5-1.4 4.7-3.2 6.8-5.1l3.4-19.5c-4 .5-7.5 1-11 1.7-.8-.1-1.7.1-2.4.4zM675.2 252.4c-4.8-3.7-15.3-2.9-17.6 4.6l-10.4 61.5h-21.8l15.6-91.7h21.8l-.5 7.4c4.1-4.2 8.8-7.7 20.4-7.3.9-.1-6.9 13.6-7.5 25.5z"/><path class="st3" d="M718 246.2c-1.1.5-2.2 1.2-3.1 2-2.9 1.9-5.2 4.9-7.2 8.3-1.6 3.4-3 7.3-4 12.5-1.1 4.9-1.6 9.8-1.6 14.4 0 5.6 1.1 9.5 2.9 12 2 2.7 4.8 3.9 8.7 3.9 1.4 0 2.9-.3 4.3-1 .7-.3 1.3-.5 2-1 2.2-1.2 4.2-2.5 6.1-4.2l7.7-45.1c-1.2-.7-2.7-1.4-4.7-2-1.8-.7-3.4-1-4.8-1-2.4 0-4.4.5-6.3 1.2zm0 67.4c-1.6 1.5-3.4 2.9-5.4 4.1-1.8 1-3.6 2-5.2 2.4-1.8.5-4 .7-6.3.7-6.7 0-11.9-3-15.9-8.6-3.8-5.8-5.7-14.1-5.7-24.7 0-8.8.9-17.1 3-24.7 2-7.6 4.9-14.4 8.5-20.2 3.6-5.9 7.7-10.2 12.6-13.7 4.7-3.2 9.4-4.9 14.4-5.1h.7c3.8 0 7 .5 9.7 1.5 2.7 1 5.6 2.7 8.5 4.9l4.8-32h21.8l-19.9 120.1h-21.8l1.6-9.5c-2 1.9-3.8 3.4-5.4 4.8z"/><path class="st4" d="M299.9 221.5l-3.7 20.5-20-.5s-10 2.6-10 6.8c0 4.2 7.3 9.5 18.4 14.2 11 4.7 11.6 17.8 10.5 26.8-1 8.9-2.6 27.5-34.7 28.4-18.4.5-28.4-3.1-28.4-3.1l4.2-21s23.7 6.3 28.9 2.6c5.2-3.7 11.6-10 1.6-14.2-10-4.2-26.3-11-26.3-27.8s6.8-26.3 17.3-31c10.6-4.8 29-4.3 42.2-1.7zM142 315.2h-23.2l13.5-79.8-28.7 79.3h-16l-3.8-82.5-14.1 83H47.8l20.7-121.8h26.6l9.3 70.1 31-70.1h27.3L142 315.2zM320.6 316.9c-7.5 0-13-1.7-16.2-4.9-3.3-3.4-4.9-8.5-4.9-15.1 0-1.7.2-3.4.4-4.9.2-1.7.5-3.6.7-5.8l13.9-77.9h21.8l-3.2 15.2h20.3l-3.4 19.3h-20.3l-5.6 33.2c-.4 2.2-.7 4.4-1.1 6.8-.4 2.2-.5 4.4-.5 5.9 0 3.4.5 5.6 2 6.8 1.3 1.2 3.4 2 6.3 2 1.1 0 2.5-.3 4.3-.8 1.8-.7 3.4-1.2 4.5-2h1.8l-3.4 19.5c-2.5 1-5 1.5-7.7 1.9-2.7.6-5.9.8-9.7.8zM476.8 249.1c-4.8-3.7-15.3-2.9-17.5 4.6l-10.4 61.5h-21.8l15.7-91.8h21.8l-.4 7.4c4.1-4.1 8.7-7.7 20.4-7.3.6.1-7.2 13.7-7.8 25.6zM517.9 317.7c-12.1 0-21.6-4.1-28.1-12.2-6.7-8-9.9-19.8-9.9-34.9 0-12 1.4-22.7 4.3-32.5s7-18 12-25.1c5-6.8 11-12.2 18-16.1 6.8-3.9 14.2-5.9 21.9-5.9 6.1 0 11.9 1 17.3 2.7 2.6.9 7.6 3.3 7.6 3.3l-5.1 28.9c-2.5-3.2-5-5.7-7.6-7.6-3.8-2.4-8.3-3.9-13.3-3.9-9 0-16.4 4.9-22.1 14.7-5.9 9.8-8.8 22.2-8.8 37.3 0 9.8 1.6 16.9 4.9 21.2 3.2 4.1 7.9 6.3 14 6.3 5.6 0 10.8-1.5 15.7-4.4 2.3-1.5 4.5-3.1 6.8-4.9l-5.1 27.6s-2.6 1.3-3.9 1.7c-3 1.2-5.7 1.9-8.1 2.7-2.4.5-6 1.1-10.5 1.1zM195.6 312c-.9.7-1.8 1.2-2.5 1.7-2.3 1.2-4.3 2.2-6.3 2.9-2 .5-4.7 1-8.3 1-5.6 0-10.3-2.2-13.7-6.3-3.6-4.4-5.4-10-5.4-16.8 0-7.3 1.2-13.4 3.8-18.5 2.5-4.9 6.3-9.1 11.4-12 4.7-2.9 10.2-4.9 16.6-6.1l4.5-.7c5.2-1 10.6-1.7 16.6-2 0-.5 0-1 .2-1.7s.2-1.5.2-2.4c0-3.9-1.3-6.6-4-8.3-2.7-1.5-6.7-2.2-11.9-2.2h-1.1c-3.2.2-6.8 1-10.8 2.4-4.3 1.7-7.6 2.9-9.7 4.2h-2l3.2-21.7c2.5-1 6.5-2 11.7-2.9 2.5-.8 5-1 7.6-1.2 2.7-.5 5.6-.5 8.3-.5 10.6 0 18.3 2 23.4 5.6 5 3.7 7.4 9.5 7.4 17.6 0 1 0 2.4-.2 4.2-.2 1.7-.4 3.2-.6 4.6l-10.6 62.5h-21.6l1.6-9.8c-1.3 1.2-3 2.7-4.9 4.4-1.1.6-2 1.3-2.9 2zm0-38c-2.3.5-4.3 1.2-5.9 2-2.5 1.2-4.3 2.9-5.6 5.1-1.4 2.2-2 5.1-2 8.8 0 3.2.9 5.4 2.5 6.6 1.8 1.2 4.1 2 7.6 2 1.1 0 2.2-.2 3.4-.7 1.1-.2 2.2-.7 3.4-1.2 2.3-1.5 4.7-3.2 6.8-5.1L209 272c-3.8.5-7.6 1-10.8 1.7-.8-.2-1.7 0-2.6.3z"/><path class="st4" d="M383.8 239.3c-2.9.5-5.6 2-7.7 4.4-3.1 3.4-5.4 7.8-7 13.7H398.4c0-1 .2-1.7.2-2.7 0-.7.2-1.7.2-2.4 0-4.4-1.1-7.6-3.1-10-2-2.2-4.7-3.4-8.5-3.4-1-.1-2.3.1-3.4.4zm0 57.6h3.2c4.7 0 9.2-1 13.5-3.2 4.1-2.2 7.9-4.6 11-7.3h2.5l-4.1 23.7c-4.1 2.5-8.6 4.4-13.3 5.6-4 1.2-8.3 1.7-12.8 2h-2c-11.7 0-20.5-3.4-26.8-10.5-6.3-6.8-9.4-16.4-9.4-28.5 0-8.3 1.1-16.1 3.1-23 2-7.1 5-13.2 8.8-18.6 3.8-5.1 8.3-9 13.9-12.2 4-1.9 8.1-3.4 12.4-4.2 2-.2 4-.2 6-.2 10.1 0 17.6 2.7 22.9 8.3 5 5.4 7.6 13.7 7.6 24.4 0 3.7-.2 7.3-.7 11-.6 3.4-1.3 7.1-2.2 10.5H367v2c0 6.4 1.8 11.2 5 14.9 2.7 2.9 6.6 4.8 11.8 5.3zM587.8 312c-.9.7-1.8 1.2-2.7 1.7-2.2 1.2-4.3 2.2-6.3 2.9-2 .5-4.7 1-8.1 1-5.8 0-10.3-2.2-13.9-6.3-3.6-4.4-5.2-10-5.2-16.8 0-7.3 1.3-13.4 3.8-18.5 2.5-4.9 6.3-9.1 11.2-12 4.7-2.9 10.2-4.9 16.7-6.1 1.4-.3 2.9-.5 4.5-.7 5-1 10.6-1.7 16.4-2 .2-.5.2-1 .3-1.7 0-.7.2-1.5.2-2.4 0-3.9-1.4-6.6-4-8.3-2.7-1.5-6.6-2.2-11.9-2.2h-1.1c-3.4.2-7 1-10.8 2.4-4.3 1.7-7.6 2.9-9.7 4.2h-2l3.1-21.7c2.5-1 6.5-2 11.9-2.9 2.5-.8 5-1 7.5-1.2 2.7-.5 5.4-.5 8.3-.5 10.6 0 18.3 2 23.4 5.6 4.8 3.7 7.4 9.5 7.4 17.6 0 1 0 2.4-.2 4.2-.2 1.7-.4 3.2-.6 4.6l-10.6 62.5h-21.6l1.7-9.8c-1.5 1.2-3.1 2.7-5 4.4l-2.7 2zm0-38c-2.3.5-4.3 1.2-6.1 2-2.3 1.2-4.3 2.9-5.6 5.1-1.3 2.2-2 5.1-2 8.8 0 3.2.9 5.4 2.7 6.6 1.6 1.2 4.1 2 7.4 2 1.1 0 2.4-.2 3.6-.7 1.1-.2 2.2-.7 3.2-1.2 2.5-1.5 4.7-3.2 6.8-5.1l3.4-19.5c-4 .5-7.6 1-11 1.7-.8-.2-1.7 0-2.4.3zM679.6 249.1c-4.8-3.7-15.4-2.9-17.6 4.6l-10.4 61.5h-21.8l15.6-91.8h21.8l-.4 7.4c4.1-4.1 8.7-7.7 20.4-7.3.8.1-7 13.7-7.6 25.6z"/><path class="st5" d="M722.3 243c-1.1.5-2.1 1.2-3 2-2.9 1.9-5.2 4.9-7.2 8.3-1.6 3.4-3.1 7.3-4 12.4-1.1 4.9-1.6 9.8-1.6 14.4 0 5.6 1.1 9.5 2.9 11.9 2 2.7 4.9 3.9 8.7 3.9 1.5 0 2.9-.3 4.3-1 .7-.2 1.3-.5 2-1 2.2-1.2 4.1-2.5 6.1-4.2l7.7-45.1c-1.3-.7-2.7-1.5-4.7-2-1.8-.7-3.4-1-4.9-1-2.3.2-4.3.6-6.3 1.4zm0 67.3c-1.6 1.5-3.4 2.9-5.4 4.1-1.8 1-3.6 1.9-5.2 2.4-1.8.5-4 .7-6.3.7-6.7 0-11.9-2.9-15.9-8.6-3.8-5.9-5.7-14.2-5.7-24.7 0-8.8.9-17.1 3.1-24.6 2-7.5 4.9-14.4 8.5-20.2 3.6-5.9 7.7-10.3 12.6-13.7 4.7-3.2 9.4-4.9 14.4-5.1h.7c3.8 0 7 .5 9.7 1.5 2.7 1 5.6 2.7 8.4 4.9l4.8-32h21.8l-19.9 120.1h-21.8l1.6-9.5c-1.9 1.8-3.7 3.3-5.4 4.7z"/></svg>