<svg id="Layer_1" xmlns="http://www.w3.org/2000/svg" viewBox="0 0 816 512"><style>.st0{fill:#1c3378}</style><path class="st0" d="M422.1 213.1l-23-121.7C396.4 77.8 385.8 70 374 70h-92.6l-1.3 6.1c19 4.2 40.6 10.8 53.7 17.9 8 4.4 10.3 8 12.9 18.3L390.2 280h57.6l88.1-210h-57.1l-56.7 143.1zM402.6 382h-.3c-1.4 6-2.8 12.3-4.4 18.1l-7.2 23.9h24l-7.4-23.9c-1.8-5.9-3.3-12.1-4.7-18.1z"/><path class="st0" d="M778.5 0h-741C16.8 0 0 16.8 0 37.5v437.1C0 495.2 16.8 512 37.5 512h741.1c20.7 0 37.5-16.8 37.5-37.5v-437C816 16.8 799.2 0 778.5 0zM342.2 418.9c-6.8 7.1-17.6 10.4-29.7 10.4-3.2 0-5.5-.2-8.5-.6V466h-17v-96.9c6-1.2 14.8-2 26.3-2 12.5 0 21.8 2.8 27.8 8 5.6 4.8 9.1 12.4 9.1 21.6.1 9.3-2.7 16.9-8 22.2zm83.9 47.1l-8.5-28h-29.7l-8.1 28h-17.6l30-98H414l30.5 98h-18.4zm71.9-41.6V466h-18v-41.2L450.8 368h19.4l11.3 24.8c3.2 7.3 5.5 13.2 8.1 19.2h.2c2.4-6 5.1-12.1 8.2-19.2l11.3-24.8h19.3L498 424.4zm306-128.9c0 20.7-16.8 37.5-37.5 37.5h-717C28.8 333 12 316.2 12 295.5v-246C12 28.8 28.8 12 49.5 12h717.1c20.7 0 37.5 16.8 37.5 37.5v246z"/><path class="st0" d="M314 380.7c-4.7 0-8 .4-10 .9v33c2 .6 5 .8 8.5.8 12.8 0 20.6-6.6 20.6-18 0-10.9-7.2-16.7-19.1-16.7z"/></svg>