<svg id="Layer_1" xmlns="http://www.w3.org/2000/svg" viewBox="0 0 198.8 97.1"><style>.st0,.st1{fill:#9b0033}.st1,.st2{fill-rule:evenodd;clip-rule:evenodd}.st3{fill:#a10045}.st4{fill:#FFF}</style><path class="st0" d="M68.7 24.6h93.7c9.4 0 17.2 3 23.9 9.1 6.5 6 9.7 13.2 9.8 22h1.3-1.3c-.1 8.6-3.3 15.7-9.8 21.8-6.6 6.1-14.5 9.2-23.9 9.2H68.7c-.7 0-1.3.6-1.3 1.3 0 .7.6 1.3 1.3 1.3h93.7c10 0 18.6-3.3 25.7-9.9 7-6.5 10.6-14.5 10.6-23.8-.1-9.4-3.6-17.5-10.7-23.9-7.1-6.5-15.7-9.8-25.7-9.8H68.7c-.7 0-1.3.6-1.3 1.3 0 .8.6 1.4 1.3 1.4zm0 0h93.7c9.4 0 17.2 3 23.9 9.1 6.5 6 9.7 13.2 9.8 22h1.3-1.3c-.1 8.6-3.3 15.7-9.8 21.8-6.6 6.1-14.5 9.2-23.9 9.2H68.7c-.7 0-1.3.6-1.3 1.3 0 .7.6 1.3 1.3 1.3h93.7c10 0 18.6-3.3 25.7-9.9 7-6.5 10.6-14.5 10.6-23.8-.1-9.4-3.6-17.5-10.7-23.9-7.1-6.5-15.7-9.8-25.7-9.8H68.7c-.7 0-1.3.6-1.3 1.3 0 .8.6 1.4 1.3 1.4z"/><path class="st1" d="M60.4 23.9c5.4 3.1 9.6 7.4 12.7 12.6 3.1 5.4 4.7 11.3 4.8 17.8-.1 6.7-1.7 12.7-4.8 17.9-3.1 5.3-7.3 9.6-12.7 12.8-5.3 3.1-11.2 4.7-17.8 4.8-6.6-.1-12.5-1.7-17.8-4.8-5.4-3.2-9.6-7.5-12.6-12.7C8.9 67 7.4 61.1 7.3 54.4c.1-6.5 1.6-12.5 4.9-17.8 3-5.3 7.3-9.5 12.6-12.6 5.3-3.1 11.3-4.8 17.8-4.9 6.5 0 12.5 1.7 17.8 4.8m-17.9-12c-7.9.1-15.1 2-21.5 5.8-6.3 3.8-11.3 8.9-15.2 15.2C2 39.3.1 46.5 0 54.4c.1 7.9 2 15.1 5.8 21.5 3.9 6.4 8.9 11.5 15.2 15.4 6.4 3.7 13.6 5.6 21.5 5.8 8-.1 15.2-2 21.6-5.8 6.4-3.9 11.5-9 15.3-15.4 3.7-6.4 5.7-13.6 5.8-21.5-.1-7.9-2-15.1-5.8-21.5-3.8-6.3-8.9-11.4-15.3-15.2-6.4-3.8-13.6-5.7-21.6-5.8z"/><path class="st0" d="M96 42.1h2.9l3.2 8.6 3.2-8.6h2.8l-4.8 12.2h-2.4L96 42.1M129.9 45h2.7v9.3h-2.7V45zm-.1-3.4h2.8v2.3h-2.8v-2.3zm-8.3 3.4h2.6v1.8c.3-.6.7-1.1 1.1-1.5.4-.4 1-.6 1.8-.5v2.8h-.1c-1 0-1.6.3-2.1.8s-.8 1.4-.8 2.5v3.4h-2.6V45zm-5.7 3.9c-.1-.6-.3-1-.6-1.5-.3-.3-.8-.5-1.3-.5-.6 0-1 .2-1.4.5-.3.4-.6.9-.7 1.5h4zm-1.7 5.6c-.6 0-1.3-.2-1.9-.4-.6-.2-1.1-.5-1.6-1-.4-.4-.7-.9-1-1.5-.3-.6-.4-1.3-.4-2s.1-1.3.3-1.9c.3-.6.5-1.1 1-1.6.4-.4.9-.8 1.5-1 .6-.3 1.2-.3 1.9-.3.8 0 1.4.2 2 .4.6.3 1 .6 1.4 1.1.3.4.6 1 .9 1.6.2.6.3 1.3.3 1.9l-.1.3v.3H112c.1.6.3 1 .8 1.4.4.3.9.4 1.5.4.4 0 .8-.1 1.2-.3.3-.1.6-.3 1-.7l1.5 1.3c-.4.6-1 1-1.6 1.3-.7.5-1.4.7-2.3.7zM140.7 54.4c-1 0-1.8-.2-2.8-.5-.9-.3-1.6-.8-2.4-1.5l1.6-1.8c.5.4 1 .8 1.6 1 .6.3 1.2.4 1.9.4.6 0 1-.1 1.3-.3.3-.2.4-.4.4-.8v-.5l-.4-.3-.7-.3-1.3-.4-1.6-.4-1.3-.7-.8-1c-.2-.4-.3-.9-.3-1.5v-.1l.3-1.5c.3-.4.5-.9 1-1.1.3-.3.8-.6 1.3-.8.5-.2 1.1-.3 1.7-.3.9 0 1.6.2 2.4.4.8.3 1.5.6 2.1 1.1l-1.4 2-1.6-.9c-.5-.3-1-.3-1.6-.3-.5 0-.9.1-1.1.3-.3.2-.4.4-.4.7v.1l.2.5.3.3.9.3 1.3.3 1.6.6c.4.2.9.4 1.2.7l.7 1c.2.4.3.9.3 1.4v.1c0 .6-.1 1.1-.3 1.6-.2.4-.4.9-.9 1.2-.4.3-.9.5-1.5.7-.5.2-1.1.3-1.7.3M148.5 45h2.7v9.3h-2.7V45zm-.1-3.4h2.8v2.3h-2.8v-2.3zM167.9 45h2.6v1.3l.5-.5.6-.5.7-.3.9-.1c1 0 1.8.3 2.3 1 .6.6.9 1.4.9 2.5v6h-2.7V49c0-.6-.1-1-.3-1.4-.3-.3-.7-.4-1.2-.4s-1 .2-1.2.4c-.3.3-.4.8-.4 1.4v5.2H168V45m-8.4 6.3l1-.2c.3-.1.4-.2.7-.4.2-.2.3-.4.4-.7.1-.3.2-.5.2-.9l-.2-.9c-.1-.3-.3-.5-.4-.7l-.7-.4-1-.2-.9.2-.7.4c-.3.2-.4.4-.5.7l-.2.9c0 .7.3 1.2.7 1.6.4.4 1 .6 1.6.6zm-.3 5.7l-2.2-.3c-.8-.1-1.4-.3-2-.7l1-2 1.5.7 1.6.2c.9 0 1.6-.2 2-.6.4-.4.6-1 .6-1.9V52c-.3.4-.8.9-1.2 1.1-.4.3-1 .3-1.8.3-.5 0-1-.1-1.6-.3-.4-.2-.9-.4-1.3-.9-.3-.3-.6-.8-.9-1.3-.3-.6-.3-1.2-.3-1.9s.1-1.3.3-1.8c.3-.6.5-1 .9-1.4.4-.4.9-.7 1.4-.9l1.5-.3c.8 0 1.4.2 1.8.4.4.3.9.5 1.2 1v-1h2.6v7.2c0 1.6-.3 2.9-1.1 3.6-.4.4-1 .8-1.6 1l-2.4.2zM102.7 69.6c-1 0-1.8-.2-2.8-.5-.9-.3-1.6-.8-2.4-1.5l1.6-1.8c.5.4 1 .8 1.6 1 .6.3 1.2.4 1.9.4.6 0 1-.1 1.3-.3.3-.2.4-.4.4-.8v-.5l-.4-.3-.7-.3-1.3-.4-1.6-.4-1.3-.7-.8-1c-.2-.4-.3-.9-.3-1.5v-.1l.3-1.5c.3-.4.5-.9 1-1.1.3-.3.8-.6 1.3-.8.5-.2 1.1-.3 1.7-.3.9 0 1.6.2 2.4.4.8.3 1.5.6 2.1 1.1l-1.4 2-1.6-.9c-.5-.3-1-.3-1.6-.3s-.9.1-1.1.3c-.3.2-.4.4-.4.7v.1l.2.5.3.3.9.3 1.3.3 1.6.6c.4.2.9.4 1.2.7l.7 1c.2.4.3.9.3 1.4v.1c0 .6-.1 1.1-.3 1.6-.2.4-.4.9-.9 1.2-.4.3-.9.5-1.5.7-.4.2-1 .3-1.7.3M127.3 69.7c-.7 0-1.3-.2-1.9-.4-.6-.3-1.1-.6-1.6-1-.4-.4-.7-.9-1-1.5-.3-.6-.4-1.3-.4-1.9 0-.7.2-1.3.4-1.9.3-.6.5-1.1 1-1.6.4-.4 1-.8 1.6-1 .6-.3 1.2-.3 2-.3.9 0 1.6.2 2.2.4.6.3 1 .6 1.5 1.1l-1.6 1.7c-.3-.3-.6-.6-1-.8-.3-.2-.7-.3-1.2-.3l-.9.2-.7.6-.5.8-.2 1v.1c0 .3.1.7.2 1 .1.3.3.6.5.9.2.3.4.4.7.5.3.1.6.2 1 .2s.8-.1 1.1-.3l1-.7 1.6 1.6c-.4.4-1 .9-1.6 1.2-.6.2-1.3.4-2.2.4M116.9 64c-.1-.6-.3-1-.6-1.5-.3-.3-.8-.5-1.3-.5-.6 0-1 .2-1.4.5-.3.4-.6.9-.7 1.5h4zm-1.8 5.7c-.6 0-1.3-.2-1.9-.4-.6-.2-1.1-.5-1.6-1-.4-.4-.7-.9-1-1.5-.3-.6-.4-1.3-.4-2s.1-1.3.3-1.9c.3-.6.5-1.1 1-1.6.4-.4.9-.8 1.5-1 .6-.3 1.2-.3 1.9-.3.8 0 1.4.2 2 .4.6.3 1 .6 1.4 1.1.3.4.6 1 .9 1.6.2.6.3 1.3.3 1.9l-.1.3v.3H113c.1.6.3 1 .8 1.4.4.3.9.4 1.5.4.4 0 .8-.1 1.2-.3.3-.1.6-.3 1-.7l1.5 1.3c-.4.6-1 1-1.6 1.3-.6.5-1.4.7-2.3.7zM137.4 69.6c-1 0-1.7-.3-2.3-1-.5-.6-.8-1.4-.8-2.5v-6h2.6v5.2c0 .6.2 1 .4 1.4.3.3.7.4 1.2.4.4 0 .9-.2 1.2-.4.3-.3.4-.8.4-1.4v-5.2h2.6v9.3h-2.6v-1.3l-.5.5-.6.5-.7.3-.9.2M172.2 67.3c.3 0 .7-.1 1-.2l.7-.5c.2-.3.3-.5.4-.8l.2-1v-.1l-.2-1-.4-.8-.7-.5c-.3-.1-.6-.2-1-.2l-.9.2-.7.5-.5.8c-.1.3-.2.6-.2 1v.1l.2 1c.1.3.3.5.5.8l.7.5.9.2m-.6 2.3c-.6 0-1.1-.1-1.6-.3-.4-.2-.9-.4-1.3-.9-.4-.4-.7-1-1-1.6-.3-.6-.3-1.2-.3-2v-.1c0-.8.1-1.5.3-2.1.3-.6.5-1 1-1.5.3-.4.8-.7 1.3-.9.5-.3 1-.3 1.6-.3.7 0 1.3.2 1.7.4.4.3.9.5 1.1 1v-4.6h2.6v12.6h-2.6V68c-.3.4-.7.8-1.1 1-.4.4-1 .6-1.7.6zm-9.9-5.6c-.1-.6-.3-1-.6-1.5-.3-.3-.8-.5-1.3-.5-.6 0-1 .2-1.4.5-.3.4-.6.9-.7 1.5h4zm-1.7 5.7c-.6 0-1.3-.2-1.9-.4-.6-.2-1.1-.5-1.6-1-.4-.4-.7-.9-1-1.5-.3-.6-.4-1.3-.4-2s.1-1.3.3-1.9c.3-.6.5-1.1 1-1.6.4-.4.9-.8 1.5-1 .6-.3 1.2-.3 1.9-.3.8 0 1.4.2 2 .4.6.3 1 .6 1.4 1.1.3.4.6 1 .9 1.6.2.6.3 1.3.3 1.9l-.1.3v.3h-6.4c.1.6.3 1 .8 1.4.4.3.9.4 1.5.4.4 0 .8-.1 1.2-.3.3-.1.6-.3 1-.7l1.5 1.3c-.4.6-1 1-1.6 1.3-.6.5-1.4.7-2.3.7zm-13.1-9.6h2.6v1.8c.3-.6.7-1.1 1.1-1.5.4-.4 1-.6 1.8-.5v2.8h-.1c-1 0-1.6.3-2.1.8s-.8 1.4-.8 2.5v3.4h-2.6v-9.3z"/><path class="st1" d="M181.6 20.8h3.7v.9H184v3.6h-1v-3.6h-1.4v-.9m9.2 0v4.4h-1v-2.9l-1.1 1.9h-.2l-1.1-1.9v2.9h-1v-4.4h1.1l1.2 1.9 1.1-1.9h1z"/><path class="st2" d="M67.8 33.9h-3.2v3.3h3.2v-3.3zm-3.2-8.3h3.2v3.2h-3.2v-3.2zm8.3-8.5h-3.3v-3.2h3.3v3.2zm6.5-6.7h6.3V6.9h-6.3V17H73v3.3h-5.5v2.3h-2.9v2.9h-3.5v5.1h-3.3v3.2h-2.2v3.3h-2.4c-4.9 7.2-8.7 14.3-11.4 21.5-6.2-8.8-12-13.9-17.4-15.7-1.5-.4-2.5-.1-3.1 1.2-.6 1.3-.1 2.9 1.7 4.9 5.5 6 10.5 14.5 15.1 25.3.7 1.7 2.3 2.7 4.8 2.9 2.3.2 3.9-.7 4.6-2.6 3.4-8.9 7.3-16.5 11.8-23v-3.7h2.6v-3.2h2.8v-3.9h3.2v-3.6h3.3v-3.3h2.6v-4h2.9v-2.7h2.8v-6.8h3.2v-3.3h3.7v-3.3h-3.7v3.3h-3.2v3.3h-3.2v3.2h-3.2v-3.2h3.2v-10h3.1z"/><path class="st3" d="M79.4 10.4h3.2v3.4h-3.2z"/><path class="st4" d="M64.6 25.6h3.2v3.2h-3.2z"/><path class="st0" d="M89.3 6.9h3.5v3.5h-3.5z"/><path d="M89.4 6.9V3.5h-3.5v3.4"/><path class="st0" d="M89.3 0h3.5v3.5h-3.5z"/></svg>