<svg id="Layer_1" xmlns="http://www.w3.org/2000/svg" viewBox="0 0 26 40" height="56" width="56"><style>.st0{fill:#FFF}.st1{fill:#383838}</style><title>Pin / Your Location / 1</title><g id="Page-1"><g id="Store-Finder-Map"><g id="Pin-_x2F_-Your-Location-_x2F_-1"><circle id="White-Background" class="st0" cx="13" cy="13" r="11.5"/><circle class="st1" cx="13" cy="9" r="4"/><path class="st1" d="M17 13c-1.1.9-2.5 1.5-4 1.5s-2.9-.6-4-1.5c-1.8 1.2-2.5 3.8-2.5 6h13c0-2.2-.7-4.8-2.5-6z"/><path class="st1" d="M13 0C5.8 0 0 5.8 0 13c0 2.3.6 4.5 1.7 6.3L13 40l11.3-20.7c1-1.9 1.7-4 1.7-6.3 0-7.2-5.8-13-13-13zm0 24C6.9 24 2 19.1 2 13S6.9 2 13 2s11 4.9 11 11-4.9 11-11 11z"/></g></g></g></svg>