<svg xmlns="http://www.w3.org/2000/svg" viewBox="0 0 44.9 44.9"><style>.st0{fill:#474747}.st1{fill:#FFF}.st2{fill:#eb0000}</style><g id="drop3_xA0_Image_1_"><path class="st2" d="M33.9 18.8c.1 0 .1 0 0 0v-.1c.4-1.2.6-2.4.6-3.7 0-7-5.6-12.6-12.6-12.6S9.3 8 9.3 15c0 1.3.2 2.5.6 3.7.5 2.6 11.1 23 12 23 .8 0 8.3-14.7 11-20.7.3-.6.6-1.3.9-2 .1 0 .1-.1.1-.2z"/><circle class="st1" cx="21.9" cy="14.6" r="9.6"/><path class="st2" d="M26 8.9l-4.1 8.8-4-8.8H17l-1.4 9.6h.6l1.3-8.8 4.1 8.8h.6l4.1-8.8 1.4 8.8h.6l-1.4-9.6z"/></g></svg>