<svg xmlns="http://www.w3.org/2000/svg" id="Matalan_Logo" viewBox="-134 351.8 341.8 31"><style>.st0{fill:#de1f26}</style><g id="sub"><path class="st0" d="M-50.9 361.5h1.6l3.9 10 3.9-10h1.6v11.3H-41v-9.7h-.1l-3.8 9.7h-1l-3.9-9.7v9.7h-1.1zM-38 367.2c.1-1.9 1.4-2.7 3.3-2.7 1.4 0 3 .5 3 2.6v4.3c0 .4.2.6.5.6.1 0 .3-.1.3-.1v.8c-.2.1-.4.1-.7.1-1 0-1.1-.5-1.1-1.4-.7 1.1-1.4 1.7-3 1.7-1.5 0-2.7-.7-2.7-2.4 0-2.3 2.2-2.4 4.4-2.6.8-.1 1.3-.2 1.3-1.1 0-1.4-.9-1.7-2.1-1.7-1.2 0-2.2.5-2.2 1.9h-1zm5.3 1.1c-.1.3-.6.3-.9.3-1.7.3-3.8.3-3.8 1.9 0 1 .9 1.6 1.8 1.6 1.5 0 2.8-.9 2.8-2.6l.1-1.2zM-22.5 372.8h-.9v-1.6c-.4 1.1-1.7 1.8-2.9 1.8-2.5 0-3.7-2-3.7-4.3s1.1-4.3 3.7-4.3c1.2 0 2.4.6 2.8 1.8v-4.7h1v11.3zm-3.9-.6c2.1 0 2.8-1.8 2.8-3.4s-.7-3.4-2.8-3.4c-1.9 0-2.6 1.8-2.6 3.4s.7 3.4 2.6 3.4M-20 369c0 1.4.8 3.2 2.7 3.2 1.5 0 2.2-.9 2.6-2.1h1c-.4 1.8-1.5 2.9-3.6 2.9-2.6 0-3.7-2-3.7-4.3 0-2.2 1.1-4.3 3.7-4.3s3.7 2.3 3.6 4.6H-20zm5.3-.8c-.1-1.5-1-2.9-2.6-2.9s-2.5 1.4-2.7 2.9h5.3zM-4.9 365.5h-1.6v7.3h-1v-7.3h-1.4v-.8h1.4v-.7c0-1.4.4-2.4 2-2.4.3 0 .5 0 .8.1v.9c-.3-.1-.5-.1-.7-.1-1.1 0-1.1.7-1.1 1.6v.7h1.6v.7zM3.4 368.8c0 2.4-1.4 4.3-3.9 4.3s-3.9-2-3.9-4.3 1.4-4.3 3.9-4.3 3.9 1.9 3.9 4.3m-6.7 0c0 1.8.9 3.4 2.8 3.4s2.8-1.8 2.8-3.4c0-1.8-.9-3.4-2.8-3.4-1.9-.2-2.8 1.6-2.8 3.4M4.9 364.7h.9v1.9c.5-1.3 1.6-2.1 3.1-2v1c-1.8-.1-3 1.2-3 2.9v4.3h-1v-8.1zM14.4 361.5H16l3.9 10 3.9-10h1.6v11.3h-1.1v-9.7l-3.9 9.7h-1l-3.8-9.7h-.1v9.7h-1.1zM34.8 368.8c0 2.4-1.4 4.3-3.9 4.3s-3.9-2-3.9-4.3 1.4-4.3 3.9-4.3 3.9 1.9 3.9 4.3m-6.8 0c0 1.8.9 3.4 2.8 3.4s2.8-1.8 2.8-3.4c0-1.8-.9-3.4-2.8-3.4-1.8-.2-2.8 1.6-2.8 3.4M43.4 372.8h-.9v-1.6c-.4 1.1-1.8 1.8-2.9 1.8-2.5 0-3.7-2-3.7-4.3s1.1-4.3 3.7-4.3c1.2 0 2.4.6 2.8 1.8v-4.7h1v11.3zm-3.8-.6c2.1 0 2.8-1.8 2.8-3.4s-.7-3.4-2.8-3.4c-1.9 0-2.7 1.8-2.7 3.4s.8 3.4 2.7 3.4M45.9 369c0 1.4.8 3.2 2.7 3.2 1.5 0 2.2-.9 2.6-2.1h1c-.4 1.8-1.5 2.9-3.6 2.9-2.6 0-3.7-2-3.7-4.3 0-2.2 1.1-4.3 3.7-4.3s3.7 2.3 3.6 4.6h-6.3zm5.3-.8c-.1-1.5-1-2.9-2.6-2.9s-2.5 1.4-2.7 2.9h5.3zM53.5 364.7h.9v1.9c.5-1.3 1.6-2.1 3.1-2v1c-1.8-.1-3 1.2-3 2.9v4.3h-1v-8.1zM58.8 364.7h1v1.4c.3-.9 1.4-1.6 2.6-1.6 2.3 0 3 1.2 3 3.1v5.3h-1v-5.1c0-1.4-.5-2.4-2.1-2.4s-2.5 1.2-2.6 2.8v4.7h-1v-8.2h.1zM71.8 361.5H79v1h-6.1v4h5.4v1h-5.4v5.3h-1.1zM80.1 367.2c.1-1.9 1.4-2.7 3.3-2.7 1.4 0 3 .5 3 2.6v4.3c0 .4.2.6.6.6.1 0 .2-.1.3-.1v.8c-.2.1-.3.1-.6.1-1 0-1.2-.5-1.2-1.4-.7 1.1-1.4 1.7-3 1.7-1.5 0-2.7-.7-2.7-2.4 0-2.3 2.2-2.4 4.4-2.6.8-.1 1.3-.2 1.3-1.1 0-1.4-.9-1.7-2.1-1.7-1.2 0-2.2.5-2.2 1.9h-1.1zm5.3 1.1c-.1.3-.6.3-.9.3-1.7.3-3.8.3-3.8 1.9 0 1 .9 1.6 1.8 1.6 1.5 0 2.8-.9 2.8-2.6l.1-1.2zM88.3 364.7h.9v1.4h.1c.5-1 1.4-1.6 2.6-1.6 1.1 0 2 .5 2.4 1.6.5-1.1 1.5-1.6 2.6-1.6 1.8 0 2.7.9 2.7 2.8v5.5h-1v-5.5c0-1.4-.5-2.1-2-2.1-1.7 0-2.2 1.4-2.2 2.9v4.6h-1v-5.5c0-1.1-.5-2-1.7-2-1.7 0-2.4 1.3-2.4 3v4.5h-1v-8zM101.5 361.5h1v1.6h-1v-1.6zm0 3.2h1v8.2h-1v-8.2zM104.5 361.5h1v11.3h-1zM107.4 361.5h1v1.6h-1v-1.6zm0 3.2h1v8.2h-1v-8.2zM110.9 369c0 1.4.7 3.2 2.7 3.2 1.4 0 2.2-.9 2.6-2.1h1c-.4 1.8-1.5 2.9-3.6 2.9-2.6 0-3.7-2-3.7-4.3 0-2.2 1.1-4.3 3.7-4.3s3.7 2.3 3.6 4.6h-6.3zm5.2-.8c-.1-1.5-.9-2.9-2.6-2.9-1.6 0-2.5 1.4-2.7 2.9h5.3zM123.4 367.1c-.1-1.2-1-1.8-2.1-1.8-.9 0-2 .3-2 1.4 0 .9 1 1.2 1.7 1.4l1.4.3c1.1.2 2.3.8 2.3 2.2 0 1.8-1.8 2.4-3.2 2.4-1.9 0-3.2-.9-3.4-2.8h1c.1 1.4 1.1 2 2.4 2 .9 0 2.2-.4 2.2-1.6 0-.9-.9-1.3-1.8-1.5l-1.3-.3c-1.3-.3-2.3-.8-2.3-2.2 0-1.7 1.6-2.3 3-2.3 1.6 0 2.9.9 3 2.6h-.9v.2z"/></g></svg>