<svg id="Matalan_Logo" xmlns="http://www.w3.org/2000/svg" viewBox="0 0 341.9 48.7"><style>.st0{fill:#eb0000}</style><g id="logo"><path class="st0" d="M51.6.3L31.9 44.5 11.8.3H7.1L0 48.6h3.3l6.6-44 20.3 43.9h3.2L53.5 4.1l6.8 44.4h3.1L56.4.3zM81.2 29.8L94 3.9l13 25.9H81.2zM92.1.1L67.3 48.4h4.1l8.4-16h28.3l8.7 15.8h3.7L96.2 0h-4.1v.1zM157 29.8l12.8-25.9 13 25.9H157zM167.9.1l-24.8 48.3h4.1l8.4-16h28.3l8.7 15.8h3.7L172.1 0h-4.2v.1zM252.1 29.8l12.8-25.9 13 25.9h-25.8zm11-29.7l-24.8 48.3h4.1l8.4-16h28.3l8.7 15.8h3.7L267.3 0h-4.2v.1zM113 .2v2.7h17.9v45.6h3.3V3h17.5V.2zM204.1.1h-3.4v48.6h34V46l-30.6-.1zM294.8.2v48.5h3.3v-44l40 44h3.8V.3h-3.4v43.5L298.5.2z"/></g></svg>