<svg xmlns="http://www.w3.org/2000/svg" id="Matalan_Logo" width="341.8" height="91.2" viewBox="-639.5 354.1 341.8 91.2"><style>.st0{fill:#de1f26}#sub{display:none}@media (min-width:145px){#sub{display:block}}</style><g id="logo"><path class="st0" d="M-587.9 354.3l-19.7 44.2-20.1-44.2h-4.7l-7.1 48.3h3.3l6.6-44 20.3 43.9h3.2l20.1-44.4 6.8 44.4h3.1l-7-48.2zM-558.3 383.8l12.8-25.9 13 25.9h-25.8zm10.9-29.7l-24.8 48.3h4.1l8.4-16h28.3l8.7 15.8h3.7l-24.3-48.2h-4.1zM-482.5 383.8l12.8-25.9 13 25.9h-25.8zm10.9-29.7l-24.8 48.3h4.1l8.4-16h28.3l8.7 15.8h3.7l-24.2-48.2h-4.2zM-387.4 383.8l12.8-25.9 13 25.9h-25.8zm11-29.7l-24.8 48.3h4.1l8.4-16h28.3l8.7 15.8h3.7l-24.2-48.2h-4.2zM-526.5 354.2v2.7h17.9v45.6h3.3V357h17.5v-2.8zM-435.4 354.1h-3.4v48.6h34V400l-30.6-.1zM-344.7 354.2v48.5h3.3v-44l40 44h3.8v-48.4h-3.4v43.5l-40-43.6z"/></g><g id="sub"><path class="st0" d="M-598.3 428.2h2.3l5.8 14.7 5.7-14.7h2.4v16.7h-1.6v-14.4h-.1l-5.7 14.4h-1.5l-5.7-14.4v14.4h-1.6zM-579.2 436.6c.1-2.8 2.1-4 4.9-4 2.1 0 4.5.7 4.5 3.9v6.4c0 .6.3.9.8.9.2 0 .4-.1.5-.1v1.2c-.3.1-.6.1-1 .1-1.5 0-1.7-.8-1.7-2.1-1 1.6-2.1 2.5-4.4 2.5-2.2 0-4-1.1-4-3.5 0-3.4 3.3-3.5 6.5-3.9 1.2-.1 1.9-.3 1.9-1.6 0-2-1.4-2.5-3.1-2.5-1.8 0-3.2.8-3.2 2.8h-1.7zm7.8 1.7c-.2.4-.9.5-1.3.5-2.5.4-5.6.4-5.6 2.8 0 1.5 1.3 2.4 2.7 2.4 2.2 0 4.2-1.4 4.2-3.8v-1.9zM-556.4 444.9h-1.3v-2.3c-.6 1.6-2.5 2.6-4.3 2.6-3.7 0-5.4-3-5.4-6.4 0-3.4 1.7-6.4 5.4-6.4 1.8 0 3.6.9 4.2 2.6v-6.9h1.5v16.8zm-5.7-.9c3.1 0 4.2-2.6 4.2-5.1 0-2.5-1.1-5.1-4.2-5.1-2.8 0-3.9 2.6-3.9 5.1 0 2.5 1.1 5.1 3.9 5.1M-552.7 439.3c0 2.1 1.2 4.8 4 4.8 2.2 0 3.3-1.3 3.8-3.1h1.5c-.6 2.7-2.2 4.3-5.3 4.3-3.8 0-5.4-2.9-5.4-6.4 0-3.2 1.6-6.4 5.4-6.4 3.9 0 5.4 3.4 5.3 6.8h-9.3zm7.8-1.2c-.1-2.2-1.5-4.3-3.9-4.3s-3.7 2.1-4 4.3h7.9zM-530.3 434.1h-2.4v10.8h-1.5v-10.8h-2.1v-1.2h2.1v-1.1c0-2.1.6-3.5 2.9-3.5.4 0 .8 0 1.2.1v1.3c-.4-.1-.7-.1-1.1-.1-1.6 0-1.6 1-1.6 2.3v1.1h2.4v1.1zM-518.1 438.9c0 3.5-2 6.4-5.7 6.4s-5.7-2.9-5.7-6.4c0-3.5 2-6.4 5.7-6.4s5.7 2.9 5.7 6.4m-9.9 0c0 2.6 1.4 5.1 4.2 5.1 2.8 0 4.2-2.6 4.2-5.1 0-2.6-1.4-5.1-4.2-5.1-2.8-.1-4.2 2.5-4.2 5.1M-515.8 432.9h1.3v2.8c.7-1.9 2.4-3.1 4.6-3v1.5c-2.7-.1-4.5 1.8-4.5 4.3v6.4h-1.5v-12zM-501.8 428.2h2.4l5.7 14.7 5.8-14.7h2.3v16.7h-1.6v-14.4l-5.7 14.4h-1.5l-5.7-14.4h-.1v14.4h-1.6zM-471.7 438.9c0 3.5-2 6.4-5.7 6.4s-5.7-2.9-5.7-6.4c0-3.5 2-6.4 5.7-6.4s5.7 2.9 5.7 6.4m-10 0c0 2.6 1.4 5.1 4.2 5.1 2.8 0 4.2-2.6 4.2-5.1 0-2.6-1.4-5.1-4.2-5.1-2.8-.1-4.2 2.5-4.2 5.1M-458.9 444.9h-1.4v-2.3c-.6 1.6-2.6 2.6-4.3 2.6-3.7 0-5.4-3-5.4-6.4 0-3.4 1.7-6.4 5.4-6.4 1.8 0 3.6.9 4.2 2.6v-6.9h1.5v16.8zm-5.7-.9c3.1 0 4.2-2.6 4.2-5.1 0-2.5-1.1-5.1-4.2-5.1-2.8 0-4 2.6-4 5.1 0 2.5 1.2 5.1 4 5.1M-455.3 439.3c0 2.1 1.2 4.8 4 4.8 2.2 0 3.3-1.3 3.8-3.1h1.5c-.6 2.7-2.2 4.3-5.3 4.3-3.8 0-5.4-2.9-5.4-6.4 0-3.2 1.6-6.4 5.4-6.4 3.9 0 5.4 3.4 5.3 6.8h-9.3zm7.9-1.2c-.1-2.2-1.5-4.3-3.9-4.3s-3.7 2.1-4 4.3h7.9zM-444 432.9h1.3v2.8c.7-1.9 2.4-3.1 4.6-3v1.5c-2.7-.1-4.5 1.8-4.5 4.3v6.4h-1.5v-12zM-436.2 432.9h1.5v2.1c.5-1.4 2.1-2.4 3.8-2.4 3.4 0 4.4 1.8 4.4 4.6v7.8h-1.5v-7.5c0-2.1-.7-3.6-3.1-3.6-2.3 0-3.7 1.8-3.8 4.1v7h-1.5v-12.1zM-416.9 428.2h10.6v1.4h-9v6h8v1.4h-8v7.9h-1.6zM-404.7 436.6c.1-2.8 2.1-4 4.9-4 2.1 0 4.4.7 4.4 3.9v6.4c0 .6.3.9.9.9.2 0 .3-.1.5-.1v1.2c-.3.1-.5.1-.9.1-1.5 0-1.8-.8-1.8-2.1-1 1.6-2.1 2.5-4.4 2.5-2.2 0-4-1.1-4-3.5 0-3.4 3.3-3.5 6.5-3.9 1.2-.1 1.9-.3 1.9-1.6 0-2-1.4-2.5-3.1-2.5-1.8 0-3.2.8-3.2 2.8h-1.7zm7.8 1.7c-.2.4-.9.5-1.3.5-2.5.4-5.6.4-5.6 2.8 0 1.5 1.3 2.4 2.7 2.4 2.2 0 4.2-1.4 4.2-3.8v-1.9zM-392.5 432.9h1.4v2h.1c.8-1.5 2-2.4 3.9-2.4 1.6 0 3 .8 3.5 2.4.7-1.6 2.2-2.4 3.8-2.4 2.6 0 4 1.4 4 4.2v8.2h-1.5v-8.1c0-2-.7-3.1-2.9-3.1-2.5 0-3.3 2.1-3.3 4.3v6.8h-1.5v-8.2c0-1.6-.7-3-2.5-3-2.5 0-3.6 1.9-3.6 4.4v6.7h-1.5v-11.8zM-373 428.2h1.5v2.4h-1.5v-2.4zm0 4.7h1.5V445h-1.5v-12.1zM-368.6 428.2h1.5v16.7h-1.5zM-364.3 428.2h1.5v2.4h-1.5v-2.4zm0 4.7h1.5V445h-1.5v-12.1zM-359.2 439.3c0 2.1 1.1 4.8 4 4.8 2.1 0 3.3-1.3 3.8-3.1h1.5c-.6 2.7-2.2 4.3-5.3 4.3-3.8 0-5.4-2.9-5.4-6.4 0-3.2 1.6-6.4 5.4-6.4 3.9 0 5.4 3.4 5.3 6.8h-9.3zm7.8-1.2c-.1-2.2-1.4-4.3-3.8-4.3s-3.7 2.1-4 4.3h7.8zM-340.7 436.4c-.1-1.8-1.5-2.6-3.1-2.6-1.3 0-2.9.5-2.9 2.1 0 1.3 1.5 1.8 2.5 2l2 .4c1.7.3 3.4 1.2 3.4 3.3 0 2.6-2.6 3.6-4.8 3.6-2.8 0-4.7-1.3-5-4.2h1.5c.1 2 1.6 3 3.6 3 1.4 0 3.3-.6 3.3-2.3 0-1.4-1.3-1.9-2.6-2.2l-1.9-.4c-1.9-.5-3.4-1.2-3.4-3.2 0-2.5 2.4-3.4 4.5-3.4 2.4 0 4.3 1.3 4.4 3.9h-1.5z"/></g></svg>