<svg id="Layer_1" xmlns="http://www.w3.org/2000/svg" viewBox="0 0 123.4 36.8"><style>.st0{fill:#e00000}.st1{fill:#404040}.st2{fill:#dea933}</style><path class="st0" d="M10.6 11.5V1.4L6.3 11.5h-1L1.1 1.4v10.1H0V.2h1.8l4.1 9.6L10 .2h1.8v11.3h-1.2zM22.8 11.5l-1.6-3.8h-5.3l-1.6 3.8H13L17.8.2h1.3L24 11.5h-1.2zm-4.3-10l-2.2 5.2h4.4l-2.2-5.2zM27.2 1.2v10.3h-1.1V1.2h-2.6v-1h6.3v1h-2.6zM39 11.5l-1.6-3.8h-5.3l-1.6 3.8h-1.2L34.1.2h1.3l4.9 11.3H39zm-4.2-10l-2.2 5.2H37l-2.2-5.2zM41.6 11.5V.2h1.1v10.3h4.7v1h-5.8zM57.9 11.5l-1.6-3.8H51l-1.6 3.8h-1.2L53 .2h1.3l4.9 11.3h-1.3zm-4.2-10l-2.2 5.2h4.4l-2.2-5.2zM68.3 11.5l-6.7-9.9v9.9h-1.1V.2H62l6.3 9.4V.2h1.1v11.3h-1.1zM72.2 11.5V9.6h1.1v1.9h-1.1zM81.5 11.7c-3.4 0-5.9-2.5-5.9-5.8C75.5 2.5 78 0 81.4 0c2.3 0 4.3 1.2 5.2 3.1h-1.3C84.4 1.6 83 1 81.4 1c-2.7 0-4.8 2.1-4.8 4.8 0 2.6 2.2 4.8 4.8 4.8 1.6 0 2.7-.6 3.9-2.1h1.3c-1.1 2.1-2.8 3.2-5.1 3.2zM93.6 11.7c-3.3 0-6-2.6-6-5.9 0-3.1 2.7-5.8 6-5.8s6 2.6 6 5.9c0 3.1-2.7 5.8-6 5.8zm0-10.7c-2.6 0-4.8 2.2-4.8 4.8 0 2.7 2.2 4.8 4.8 4.8 2.6 0 4.8-2.2 4.8-4.8 0-2.6-2.2-4.8-4.8-4.8zM101.8 11.5V9.6h1.1v1.9h-1.1zM109.5 11.7c-2.3 0-3.8-1.4-3.8-4.4v-7h1.1v7c0 2.3.9 3.4 2.7 3.4 1.7 0 2.7-1.1 2.7-3.4v-7h1.1v7c0 3-1.5 4.4-3.8 4.4zM122 11.5l-3.8-4.9-1.5 1.8v3.1h-1.1V.2h1.1v6.5l5.2-6.5h1.4l-4.5 5.5 4.5 5.8H122z"/><g><path class="st1" d="M17.8 33.5V22.2H19v11.3h-1.2zM24 33.7c-2 0-3.4-1.3-3.5-3.4h1.2c.2 1.5 1.1 2.3 2.4 2.3 1.3 0 2.2-.9 2.2-2.2 0-1.2-.6-1.8-2.5-2.4-1.3-.4-1.7-.6-2.1-1-.5-.5-.8-1.2-.8-2 0-1.8 1.3-3 3.1-3s3.2 1.2 3.2 3.1H26c0-1.2-.9-2-2-2s-2 .8-2 2c0 .5.2 1 .5 1.3.3.3.6.4 1.7.7 1.2.4 1.6.6 2.1.9.7.5 1.1 1.4 1.1 2.4 0 1.9-1.5 3.3-3.4 3.3zM35.8 33.7c-2 0-3.4-1.3-3.5-3.4h1.2c.2 1.5 1.1 2.3 2.4 2.3 1.3 0 2.2-.9 2.2-2.2 0-1.2-.6-1.8-2.5-2.4-1.3-.4-1.7-.6-2.1-1-.5-.5-.8-1.2-.8-2 0-1.8 1.3-3 3.1-3s3.2 1.2 3.2 3.1h-1.2c0-1.2-.9-2-2-2s-2 .8-2 2c0 .5.2 1 .5 1.3.3.3.6.4 1.7.7 1.2.4 1.6.6 2.1.9.7.5 1.1 1.4 1.1 2.4 0 1.9-1.4 3.3-3.4 3.3zM40.7 33.5V22.2h6.2v1h-5v4h4.9v1h-4.9v4.2h5v1h-6.2zM54.3 33.7c-3.4 0-5.9-2.5-5.9-5.8 0-3.4 2.5-5.9 5.9-5.9 2.3 0 4.3 1.2 5.2 3.1h-1.3c-1-1.5-2.3-2.1-3.9-2.1-2.7 0-4.8 2.1-4.8 4.8 0 2.6 2.2 4.8 4.8 4.8 1.6 0 2.7-.6 3.9-2.1h1.3c-1.1 2.1-2.9 3.2-5.2 3.2zM65.1 33.7c-2.3 0-3.8-1.4-3.8-4.4v-7h1.1v7c0 2.3.9 3.4 2.7 3.4 1.7 0 2.7-1.1 2.7-3.4v-7H69v7c0 3-1.6 4.4-3.9 4.4zM75.6 29.3l3.2 4.2h-1.4l-3.8-5.1c3.2 0 4.2-.5 4.2-2.6 0-1.9-1.2-2.6-3.8-2.6h-1.6v10.3h-1.1V22.2h2.8c3.5 0 4.9 1.3 4.9 3.6 0 2-1.2 3.2-3.4 3.5zM80.6 33.5V22.2h6.2v1h-5v4h4.9v1h-4.9v4.2h5v1h-6.2z"/></g><g><path class="st1" d="M104.3 30.8h-11v-9c0-3.1 2.5-5.5 5.5-5.5 3.1 0 5.5 2.5 5.5 5.5v9zm-9-2.1h6.9v-6.9c0-1.9-1.6-3.5-3.5-3.5s-3.5 1.6-3.5 3.5v6.9z"/><path class="st2" d="M104.9 36.8H92.7c-.9 0-1.7-.8-1.7-1.7v-8.2c0-.9.8-1.7 1.7-1.7h12.2c.9 0 1.7.8 1.7 1.7v8.2c0 1-.8 1.7-1.7 1.7z"/></g></svg>