<svg id="Layer_1" xmlns="http://www.w3.org/2000/svg" viewBox="0 0 128 90"><style>.st0{fill:#383838}</style><title>4 Across</title><path class="st0" d="M9 4v25h24V4H9zm20 21H13V8h16v17zM9 61v25h24V61H9zm20 21H13V65h16v17zM9 33v24h24V33H9zm20 20H13V37h16v16zM38 61v25h24V61H38zm20 21H42V65h16v17zM38 4v25h24V4H38zm20 21H42V8h16v17zM95 61v25h24V61H95zm20 21H99V65h16v17zM95 33v24h24V33H95zm20 20H99V37h16v16zM95 4v25h24V4H95zm20 21H99V8h16v17zM38 33v24h24V33H38zm20 20H42V37h16v16zM66 61v25h24V61H66zm20 21H70V65h16v17zM66 33v24h24V33H66zm20 20H70V37h16v16zM66 4v25h24V4H66zm20 21H70V8h16v17z"/></svg>